<?xml version="1.0" encoding="UTF-8" standalone="no"?>
<!DOCTYPE svg PUBLIC "-//W3C//DTD SVG 1.1//EN"
 "http://www.w3.org/Graphics/SVG/1.1/DTD/svg11.dtd">
<!-- Generated by graphviz version 2.43.0 (0)
 -->
<!-- Title: erpc::UsbCdcTransport Pages: 1 -->
<svg width="342pt" height="184pt"
 viewBox="0.00 0.00 341.50 184.00" xmlns="http://www.w3.org/2000/svg" xmlns:xlink="http://www.w3.org/1999/xlink">
<g id="graph0" class="graph" transform="scale(1 1) rotate(0) translate(4 180)">
<title>erpc::UsbCdcTransport</title>
<polygon fill="white" stroke="transparent" points="-4,4 -4,-180 337.5,-180 337.5,4 -4,4"/>
<!-- Node1 -->
<g id="node1" class="node">
<title>Node1</title>
<g id="a_node1"><a xlink:title="Very basic transport to send/receive messages via virtual USB CDC port.">
<polygon fill="#bfbfbf" stroke="black" points="146.5,-0.5 146.5,-19.5 272.5,-19.5 272.5,-0.5 146.5,-0.5"/>
<text text-anchor="middle" x="209.5" y="-7.5" font-family="Helvetica,sans-Serif" font-size="10.00">erpc::UsbCdcTransport</text>
</a>
</g>
</g>
<!-- Node2 -->
<g id="node2" class="node">
<title>Node2</title>
<g id="a_node2"><a xlink:href="classerpc_1_1_framed_transport.html" target="_top" xlink:title="Base class for framed transport layers.">
<polygon fill="white" stroke="black" points="81.5,-78.5 81.5,-97.5 207.5,-97.5 207.5,-78.5 81.5,-78.5"/>
<text text-anchor="middle" x="144.5" y="-85.5" font-family="Helvetica,sans-Serif" font-size="10.00">erpc::FramedTransport</text>
</a>
</g>
</g>
<!-- Node2&#45;&gt;Node1 -->
<g id="edge1" class="edge">
<title>Node2&#45;&gt;Node1</title>
<path fill="none" stroke="midnightblue" d="M158.66,-70.44C172.05,-54.79 191.6,-31.93 202.13,-19.62"/>
<polygon fill="midnightblue" stroke="midnightblue" points="155.8,-68.41 151.96,-78.28 161.12,-72.96 155.8,-68.41"/>
</g>
<!-- Node3 -->
<g id="node3" class="node">
<title>Node3</title>
<g id="a_node3"><a xlink:href="classerpc_1_1_transport.html" target="_top" xlink:title="Abstract interface for transport layer.">
<polygon fill="white" stroke="black" points="0,-156.5 0,-175.5 89,-175.5 89,-156.5 0,-156.5"/>
<text text-anchor="middle" x="44.5" y="-163.5" font-family="Helvetica,sans-Serif" font-size="10.00">erpc::Transport</text>
</a>
</g>
</g>
<!-- Node3&#45;&gt;Node2 -->
<g id="edge2" class="edge">
<title>Node3&#45;&gt;Node2</title>
<path fill="none" stroke="midnightblue" d="M64.04,-150.15C84.63,-134.5 116.36,-110.38 133.16,-97.62"/>
<polygon fill="midnightblue" stroke="midnightblue" points="61.82,-147.44 55.97,-156.28 66.05,-153.02 61.82,-147.44"/>
</g>
<!-- Node4 -->
<g id="node4" class="node">
<title>Node4</title>
<g id="a_node4"><a xlink:href="classerpc_1_1_mutex.html" target="_top" xlink:title="Mutex.">
<polygon fill="white" stroke="black" points="107.5,-156.5 107.5,-175.5 181.5,-175.5 181.5,-156.5 107.5,-156.5"/>
<text text-anchor="middle" x="144.5" y="-163.5" font-family="Helvetica,sans-Serif" font-size="10.00">erpc::Mutex</text>
</a>
</g>
</g>
<!-- Node4&#45;&gt;Node2 -->
<g id="edge3" class="edge">
<title>Node4&#45;&gt;Node2</title>
<path fill="none" stroke="#9a32cd" stroke-dasharray="5,2" d="M144.5,-146.22C144.5,-130.7 144.5,-109.36 144.5,-97.62"/>
<polygon fill="#9a32cd" stroke="#9a32cd" points="141,-146.28 144.5,-156.28 148,-146.28 141,-146.28"/>
<text text-anchor="middle" x="183" y="-130" font-family="Helvetica,sans-Serif" font-size="10.00"> m_receiveLock</text>
<text text-anchor="middle" x="183" y="-119" font-family="Helvetica,sans-Serif" font-size="10.00">m_sendLock</text>
</g>
<!-- Node5 -->
<g id="node5" class="node">
<title>Node5</title>
<g id="a_node5"><a xlink:href="classerpc_1_1_crc16.html" target="_top" xlink:title="Class for compute crc16.">
<polygon fill="white" stroke="black" points="209,-156.5 209,-175.5 280,-175.5 280,-156.5 209,-156.5"/>
<text text-anchor="middle" x="244.5" y="-163.5" font-family="Helvetica,sans-Serif" font-size="10.00">erpc::Crc16</text>
</a>
</g>
</g>
<!-- Node5&#45;&gt;Node2 -->
<g id="edge4" class="edge">
<title>Node5&#45;&gt;Node2</title>
<path fill="none" stroke="#9a32cd" stroke-dasharray="5,2" d="M240.08,-146.46C236.78,-136.24 231.28,-124.04 222.5,-116 213.2,-107.49 201.07,-101.64 189.17,-97.62"/>
<polygon fill="#9a32cd" stroke="#9a32cd" points="236.72,-147.44 242.77,-156.13 243.46,-145.56 236.72,-147.44"/>
<text text-anchor="middle" x="265" y="-124.5" font-family="Helvetica,sans-Serif" font-size="10.00"> m_crcImpl</text>
</g>
<!-- Node6 -->
<g id="node6" class="node">
<title>Node6</title>
<g id="a_node6"><a xlink:href="classerpc_1_1_semaphore.html" target="_top" xlink:title="Simple semaphore class.">
<polygon fill="white" stroke="black" points="226,-78.5 226,-97.5 325,-97.5 325,-78.5 226,-78.5"/>
<text text-anchor="middle" x="275.5" y="-85.5" font-family="Helvetica,sans-Serif" font-size="10.00">erpc::Semaphore</text>
</a>
</g>
</g>
<!-- Node6&#45;&gt;Node1 -->
<g id="edge5" class="edge">
<title>Node6&#45;&gt;Node1</title>
<path fill="none" stroke="#9a32cd" stroke-dasharray="5,2" d="M261.12,-70.44C247.53,-54.79 227.67,-31.93 216.98,-19.62"/>
<polygon fill="#9a32cd" stroke="#9a32cd" points="258.73,-73.03 267.93,-78.28 264.01,-68.44 258.73,-73.03"/>
<text text-anchor="middle" x="291.5" y="-52" font-family="Helvetica,sans-Serif" font-size="10.00"> m_rxSemaphore</text>
<text text-anchor="middle" x="291.5" y="-41" font-family="Helvetica,sans-Serif" font-size="10.00">m_txSemaphore</text>
</g>
</g>
</svg>
