<?xml version="1.0" encoding="UTF-8" standalone="no"?>
<!DOCTYPE svg PUBLIC "-//W3C//DTD SVG 1.1//EN"
 "http://www.w3.org/Graphics/SVG/1.1/DTD/svg11.dtd">
<!-- Generated by graphviz version 2.43.0 (0)
 -->
<!-- Title: erpc::RPMsgRTOSTransport Pages: 1 -->
<svg width="216pt" height="84pt"
 viewBox="0.00 0.00 216.00 84.00" xmlns="http://www.w3.org/2000/svg" xmlns:xlink="http://www.w3.org/1999/xlink">
<g id="graph0" class="graph" transform="scale(1 1) rotate(0) translate(4 80)">
<title>erpc::RPMsgRTOSTransport</title>
<polygon fill="white" stroke="transparent" points="-4,4 -4,-80 212,-80 212,4 -4,4"/>
<!-- Node1 -->
<g id="node1" class="node">
<title>Node1</title>
<g id="a_node1"><a xlink:title="Transport that uses RPMsg zero copy RTOS API for interprocessor messaging.">
<polygon fill="#bfbfbf" stroke="black" points="26,-0.5 26,-19.5 175,-19.5 175,-0.5 26,-0.5"/>
<text text-anchor="middle" x="100.5" y="-7.5" font-family="Helvetica,sans-Serif" font-size="10.00">erpc::RPMsgRTOSTransport</text>
</a>
</g>
</g>
<!-- Node2 -->
<g id="node2" class="node">
<title>Node2</title>
<g id="a_node2"><a xlink:href="classerpc_1_1_transport.html" target="_top" xlink:title="Abstract interface for transport layer.">
<polygon fill="white" stroke="black" points="0,-56.5 0,-75.5 89,-75.5 89,-56.5 0,-56.5"/>
<text text-anchor="middle" x="44.5" y="-63.5" font-family="Helvetica,sans-Serif" font-size="10.00">erpc::Transport</text>
</a>
</g>
</g>
<!-- Node2&#45;&gt;Node1 -->
<g id="edge1" class="edge">
<title>Node2&#45;&gt;Node1</title>
<path fill="none" stroke="midnightblue" d="M60.83,-49.25C70.76,-39.67 83.09,-27.79 91.34,-19.83"/>
<polygon fill="midnightblue" stroke="midnightblue" points="58.27,-46.86 53.5,-56.32 63.13,-51.9 58.27,-46.86"/>
</g>
<!-- Node3 -->
<g id="node3" class="node">
<title>Node3</title>
<g id="a_node3"><a xlink:href="classerpc_1_1_r_p_msg_base.html" target="_top" xlink:title="Transport that other RPMsg transports inherits.">
<polygon fill="white" stroke="black" points="107,-56.5 107,-75.5 208,-75.5 208,-56.5 107,-56.5"/>
<text text-anchor="middle" x="157.5" y="-63.5" font-family="Helvetica,sans-Serif" font-size="10.00">erpc::RPMsgBase</text>
</a>
</g>
</g>
<!-- Node3&#45;&gt;Node1 -->
<g id="edge2" class="edge">
<title>Node3&#45;&gt;Node1</title>
<path fill="none" stroke="midnightblue" d="M140.88,-49.25C130.77,-39.67 118.22,-27.79 109.82,-19.83"/>
<polygon fill="midnightblue" stroke="midnightblue" points="138.68,-51.99 148.34,-56.32 143.49,-46.91 138.68,-51.99"/>
</g>
</g>
</svg>
