<?xml version="1.0" encoding="UTF-8" standalone="no"?>
<!DOCTYPE svg PUBLIC "-//W3C//DTD SVG 1.1//EN"
 "http://www.w3.org/Graphics/SVG/1.1/DTD/svg11.dtd">
<!-- Generated by graphviz version 2.43.0 (0)
 -->
<!-- Title: erpc::DspiMasterTransport Pages: 1 -->
<svg width="300pt" height="163pt"
 viewBox="0.00 0.00 299.50 163.00" xmlns="http://www.w3.org/2000/svg" xmlns:xlink="http://www.w3.org/1999/xlink">
<g id="graph0" class="graph" transform="scale(1 1) rotate(0) translate(4 159)">
<title>erpc::DspiMasterTransport</title>
<polygon fill="white" stroke="transparent" points="-4,4 -4,-159 295.5,-159 295.5,4 -4,4"/>
<!-- Node1 -->
<g id="node1" class="node">
<title>Node1</title>
<g id="a_node1"><a xlink:title="Very basic transport to send/receive messages via DSPI.">
<polygon fill="#bfbfbf" stroke="black" points="72,-0.5 72,-19.5 217,-19.5 217,-0.5 72,-0.5"/>
<text text-anchor="middle" x="144.5" y="-7.5" font-family="Helvetica,sans-Serif" font-size="10.00">erpc::DspiMasterTransport</text>
</a>
</g>
</g>
<!-- Node2 -->
<g id="node2" class="node">
<title>Node2</title>
<g id="a_node2"><a xlink:href="classerpc_1_1_framed_transport.html" target="_top" xlink:title="Base class for framed transport layers.">
<polygon fill="white" stroke="black" points="81.5,-57.5 81.5,-76.5 207.5,-76.5 207.5,-57.5 81.5,-57.5"/>
<text text-anchor="middle" x="144.5" y="-64.5" font-family="Helvetica,sans-Serif" font-size="10.00">erpc::FramedTransport</text>
</a>
</g>
</g>
<!-- Node2&#45;&gt;Node1 -->
<g id="edge1" class="edge">
<title>Node2&#45;&gt;Node1</title>
<path fill="none" stroke="midnightblue" d="M144.5,-47.12C144.5,-37.82 144.5,-27.06 144.5,-19.71"/>
<polygon fill="midnightblue" stroke="midnightblue" points="141,-47.41 144.5,-57.41 148,-47.41 141,-47.41"/>
</g>
<!-- Node3 -->
<g id="node3" class="node">
<title>Node3</title>
<g id="a_node3"><a xlink:href="classerpc_1_1_transport.html" target="_top" xlink:title="Abstract interface for transport layer.">
<polygon fill="white" stroke="black" points="0,-135.5 0,-154.5 89,-154.5 89,-135.5 0,-135.5"/>
<text text-anchor="middle" x="44.5" y="-142.5" font-family="Helvetica,sans-Serif" font-size="10.00">erpc::Transport</text>
</a>
</g>
</g>
<!-- Node3&#45;&gt;Node2 -->
<g id="edge2" class="edge">
<title>Node3&#45;&gt;Node2</title>
<path fill="none" stroke="midnightblue" d="M64.04,-129.15C84.63,-113.5 116.36,-89.38 133.16,-76.62"/>
<polygon fill="midnightblue" stroke="midnightblue" points="61.82,-126.44 55.97,-135.28 66.05,-132.02 61.82,-126.44"/>
</g>
<!-- Node4 -->
<g id="node4" class="node">
<title>Node4</title>
<g id="a_node4"><a xlink:href="classerpc_1_1_mutex.html" target="_top" xlink:title="Mutex.">
<polygon fill="white" stroke="black" points="107.5,-135.5 107.5,-154.5 181.5,-154.5 181.5,-135.5 107.5,-135.5"/>
<text text-anchor="middle" x="144.5" y="-142.5" font-family="Helvetica,sans-Serif" font-size="10.00">erpc::Mutex</text>
</a>
</g>
</g>
<!-- Node4&#45;&gt;Node2 -->
<g id="edge3" class="edge">
<title>Node4&#45;&gt;Node2</title>
<path fill="none" stroke="#9a32cd" stroke-dasharray="5,2" d="M144.5,-125.22C144.5,-109.7 144.5,-88.36 144.5,-76.62"/>
<polygon fill="#9a32cd" stroke="#9a32cd" points="141,-125.28 144.5,-135.28 148,-125.28 141,-125.28"/>
<text text-anchor="middle" x="183" y="-109" font-family="Helvetica,sans-Serif" font-size="10.00"> m_receiveLock</text>
<text text-anchor="middle" x="183" y="-98" font-family="Helvetica,sans-Serif" font-size="10.00">m_sendLock</text>
</g>
<!-- Node5 -->
<g id="node5" class="node">
<title>Node5</title>
<g id="a_node5"><a xlink:href="classerpc_1_1_crc16.html" target="_top" xlink:title="Class for compute crc16.">
<polygon fill="white" stroke="black" points="209,-135.5 209,-154.5 280,-154.5 280,-135.5 209,-135.5"/>
<text text-anchor="middle" x="244.5" y="-142.5" font-family="Helvetica,sans-Serif" font-size="10.00">erpc::Crc16</text>
</a>
</g>
</g>
<!-- Node5&#45;&gt;Node2 -->
<g id="edge4" class="edge">
<title>Node5&#45;&gt;Node2</title>
<path fill="none" stroke="#9a32cd" stroke-dasharray="5,2" d="M240.08,-125.46C236.78,-115.24 231.28,-103.04 222.5,-95 213.2,-86.49 201.07,-80.64 189.17,-76.62"/>
<polygon fill="#9a32cd" stroke="#9a32cd" points="236.72,-126.44 242.77,-135.13 243.46,-124.56 236.72,-126.44"/>
<text text-anchor="middle" x="264" y="-103.5" font-family="Helvetica,sans-Serif" font-size="10.00"> m_crcImpl</text>
</g>
</g>
</svg>
