<?xml version="1.0" encoding="UTF-8" standalone="no"?>
<!DOCTYPE svg PUBLIC "-//W3C//DTD SVG 1.1//EN"
 "http://www.w3.org/Graphics/SVG/1.1/DTD/svg11.dtd">
<!-- Generated by graphviz version 2.43.0 (0)
 -->
<!-- Title: erpc::ClientServerCommon Pages: 1 -->
<svg width="397pt" height="95pt"
 viewBox="0.00 0.00 396.50 95.00" xmlns="http://www.w3.org/2000/svg" xmlns:xlink="http://www.w3.org/1999/xlink">
<g id="graph0" class="graph" transform="scale(1 1) rotate(0) translate(4 91)">
<title>erpc::ClientServerCommon</title>
<polygon fill="white" stroke="transparent" points="-4,4 -4,-91 392.5,-91 392.5,4 -4,4"/>
<!-- Node1 -->
<g id="node1" class="node">
<title>Node1</title>
<g id="a_node1"><a xlink:title="Common class inherited by client and server class.">
<polygon fill="#bfbfbf" stroke="black" points="99,-0.5 99,-19.5 247,-19.5 247,-0.5 99,-0.5"/>
<text text-anchor="middle" x="173" y="-7.5" font-family="Helvetica,sans-Serif" font-size="10.00">erpc::ClientServerCommon</text>
</a>
</g>
</g>
<!-- Node2 -->
<g id="node2" class="node">
<title>Node2</title>
<g id="a_node2"><a xlink:href="classerpc_1_1_codec_factory.html" target="_top" xlink:title="Abstract interface for codec factory.">
<polygon fill="white" stroke="black" points="0,-67.5 0,-86.5 110,-86.5 110,-67.5 0,-67.5"/>
<text text-anchor="middle" x="55" y="-74.5" font-family="Helvetica,sans-Serif" font-size="10.00">erpc::CodecFactory</text>
</a>
</g>
</g>
<!-- Node2&#45;&gt;Node1 -->
<g id="edge1" class="edge">
<title>Node2&#45;&gt;Node1</title>
<path fill="none" stroke="#9a32cd" stroke-dasharray="5,2" d="M65.82,-58.62C71.11,-51.35 78.06,-43.36 86,-38 98.58,-29.51 113.96,-23.59 128.27,-19.5"/>
<polygon fill="#9a32cd" stroke="#9a32cd" points="62.73,-56.94 60.05,-67.19 68.53,-60.85 62.73,-56.94"/>
<text text-anchor="middle" x="127.5" y="-41" font-family="Helvetica,sans-Serif" font-size="10.00"> m_codecFactory</text>
</g>
<!-- Node3 -->
<g id="node3" class="node">
<title>Node3</title>
<g id="a_node3"><a xlink:href="classerpc_1_1_transport.html" target="_top" xlink:title="Abstract interface for transport layer.">
<polygon fill="white" stroke="black" points="128.5,-67.5 128.5,-86.5 217.5,-86.5 217.5,-67.5 128.5,-67.5"/>
<text text-anchor="middle" x="173" y="-74.5" font-family="Helvetica,sans-Serif" font-size="10.00">erpc::Transport</text>
</a>
</g>
</g>
<!-- Node3&#45;&gt;Node1 -->
<g id="edge2" class="edge">
<title>Node3&#45;&gt;Node1</title>
<path fill="none" stroke="#9a32cd" stroke-dasharray="5,2" d="M173,-57.04C173,-44.67 173,-29.12 173,-19.63"/>
<polygon fill="#9a32cd" stroke="#9a32cd" points="169.5,-57.23 173,-67.23 176.5,-57.23 169.5,-57.23"/>
<text text-anchor="middle" x="204.5" y="-41" font-family="Helvetica,sans-Serif" font-size="10.00"> m_transport</text>
</g>
<!-- Node4 -->
<g id="node4" class="node">
<title>Node4</title>
<g id="a_node4"><a xlink:href="classerpc_1_1_message_buffer_factory.html" target="_top" xlink:title="Abstract interface for message buffer factory.">
<polygon fill="white" stroke="black" points="235.5,-67.5 235.5,-86.5 388.5,-86.5 388.5,-67.5 235.5,-67.5"/>
<text text-anchor="middle" x="312" y="-74.5" font-family="Helvetica,sans-Serif" font-size="10.00">erpc::MessageBufferFactory</text>
</a>
</g>
</g>
<!-- Node4&#45;&gt;Node1 -->
<g id="edge3" class="edge">
<title>Node4&#45;&gt;Node1</title>
<path fill="none" stroke="#9a32cd" stroke-dasharray="5,2" d="M287.9,-62.49C274.06,-54.93 256.25,-45.54 240,-38 225.55,-31.3 208.95,-24.6 195.89,-19.55"/>
<polygon fill="#9a32cd" stroke="#9a32cd" points="286.33,-65.62 296.78,-67.38 289.71,-59.49 286.33,-65.62"/>
<text text-anchor="middle" x="311.5" y="-41" font-family="Helvetica,sans-Serif" font-size="10.00"> m_messageFactory</text>
</g>
</g>
</svg>
