<?xml version="1.0" encoding="UTF-8" standalone="no"?>
<!DOCTYPE svg PUBLIC "-//W3C//DTD SVG 1.1//EN"
 "http://www.w3.org/Graphics/SVG/1.1/DTD/svg11.dtd">
<!-- Generated by graphviz version 2.43.0 (0)
 -->
<!-- Title: erpc::InterThreadBufferTransport Pages: 1 -->
<svg width="614pt" height="154pt"
 viewBox="0.00 0.00 614.00 154.00" xmlns="http://www.w3.org/2000/svg" xmlns:xlink="http://www.w3.org/1999/xlink">
<g id="graph0" class="graph" transform="scale(1 1) rotate(0) translate(4 150)">
<title>erpc::InterThreadBufferTransport</title>
<polygon fill="white" stroke="transparent" points="-4,4 -4,-150 610,-150 610,4 -4,4"/>
<!-- Node1 -->
<g id="node1" class="node">
<title>Node1</title>
<g id="a_node1"><a xlink:title="Very basic transport to send/receive messages between threads.">
<polygon fill="#bfbfbf" stroke="black" points="430,-60.5 430,-79.5 606,-79.5 606,-60.5 430,-60.5"/>
<text text-anchor="middle" x="518" y="-67.5" font-family="Helvetica,sans-Serif" font-size="10.00">erpc::InterThreadBufferTransport</text>
</a>
</g>
</g>
<!-- Node1&#45;&gt;Node1 -->
<g id="edge4" class="edge">
<title>Node1&#45;&gt;Node1</title>
<path fill="none" stroke="#9a32cd" stroke-dasharray="5,2" d="M493.07,-89.03C494.43,-94.13 502.74,-98 518,-98 541.82,-98 548.7,-88.57 538.65,-79.76"/>
<polygon fill="#9a32cd" stroke="#9a32cd" points="496.34,-90.3 497.35,-79.76 489.98,-87.37 496.34,-90.3"/>
<text text-anchor="middle" x="518" y="-101" font-family="Helvetica,sans-Serif" font-size="10.00"> m_peer</text>
</g>
<!-- Node2 -->
<g id="node2" class="node">
<title>Node2</title>
<g id="a_node2"><a xlink:href="classerpc_1_1_transport.html" target="_top" xlink:title="Abstract interface for transport layer.">
<polygon fill="white" stroke="black" points="203.5,-126.5 203.5,-145.5 292.5,-145.5 292.5,-126.5 203.5,-126.5"/>
<text text-anchor="middle" x="248" y="-133.5" font-family="Helvetica,sans-Serif" font-size="10.00">erpc::Transport</text>
</a>
</g>
</g>
<!-- Node2&#45;&gt;Node1 -->
<g id="edge1" class="edge">
<title>Node2&#45;&gt;Node1</title>
<path fill="none" stroke="midnightblue" d="M302.82,-124.59C313.81,-122.16 325.29,-119.56 336,-117 387,-104.82 445.68,-89.3 482.06,-79.5"/>
<polygon fill="midnightblue" stroke="midnightblue" points="301.91,-121.21 292.89,-126.76 303.41,-128.04 301.91,-121.21"/>
</g>
<!-- Node3 -->
<g id="node3" class="node">
<title>Node3</title>
<g id="a_node3"><a xlink:href="classerpc_1_1_inter_thread_buffer_transport.html#structerpc_1_1_inter_thread_buffer_transport_1_1_shared_state" target="_top" xlink:title=" ">
<polygon fill="white" stroke="black" points="160,-77 160,-107 336,-107 336,-77 160,-77"/>
<text text-anchor="start" x="168" y="-95" font-family="Helvetica,sans-Serif" font-size="10.00">erpc::InterThreadBufferTransport</text>
<text text-anchor="middle" x="248" y="-84" font-family="Helvetica,sans-Serif" font-size="10.00">::SharedState</text>
</a>
</g>
</g>
<!-- Node3&#45;&gt;Node1 -->
<g id="edge2" class="edge">
<title>Node3&#45;&gt;Node1</title>
<path fill="none" stroke="#9a32cd" stroke-dasharray="5,2" d="M346.01,-84.04C373.46,-81.78 403.15,-79.35 429.97,-77.14"/>
<polygon fill="#9a32cd" stroke="#9a32cd" points="345.69,-80.55 336.01,-84.86 346.26,-87.53 345.69,-80.55"/>
<text text-anchor="middle" x="383" y="-85" font-family="Helvetica,sans-Serif" font-size="10.00"> m_state</text>
</g>
<!-- Node4 -->
<g id="node4" class="node">
<title>Node4</title>
<g id="a_node4"><a xlink:href="classerpc_1_1_mutex.html" target="_top" xlink:title="Mutex.">
<polygon fill="white" stroke="black" points="0,-82.5 0,-101.5 74,-101.5 74,-82.5 0,-82.5"/>
<text text-anchor="middle" x="37" y="-89.5" font-family="Helvetica,sans-Serif" font-size="10.00">erpc::Mutex</text>
</a>
</g>
</g>
<!-- Node4&#45;&gt;Node3 -->
<g id="edge3" class="edge">
<title>Node4&#45;&gt;Node3</title>
<path fill="none" stroke="#9a32cd" stroke-dasharray="5,2" d="M84.53,-92C106.7,-92 133.97,-92 159.78,-92"/>
<polygon fill="#9a32cd" stroke="#9a32cd" points="84.41,-88.5 74.41,-92 84.4,-95.5 84.41,-88.5"/>
<text text-anchor="middle" x="117" y="-95" font-family="Helvetica,sans-Serif" font-size="10.00"> m_mutex</text>
</g>
<!-- Node5 -->
<g id="node5" class="node">
<title>Node5</title>
<g id="a_node5"><a xlink:href="classerpc_1_1_semaphore.html" target="_top" xlink:title="Simple semaphore class.">
<polygon fill="white" stroke="black" points="198.5,-38.5 198.5,-57.5 297.5,-57.5 297.5,-38.5 198.5,-38.5"/>
<text text-anchor="middle" x="248" y="-45.5" font-family="Helvetica,sans-Serif" font-size="10.00">erpc::Semaphore</text>
</a>
</g>
</g>
<!-- Node5&#45;&gt;Node1 -->
<g id="edge5" class="edge">
<title>Node5&#45;&gt;Node1</title>
<path fill="none" stroke="#9a32cd" stroke-dasharray="5,2" d="M307.82,-47.96C338.87,-48.41 377.56,-49.7 412,-53 429.92,-54.72 449.42,-57.59 466.7,-60.5"/>
<polygon fill="#9a32cd" stroke="#9a32cd" points="307.64,-44.46 297.6,-47.84 307.56,-51.46 307.64,-44.46"/>
<text text-anchor="middle" x="383" y="-67" font-family="Helvetica,sans-Serif" font-size="10.00"> m_inSem</text>
<text text-anchor="middle" x="383" y="-56" font-family="Helvetica,sans-Serif" font-size="10.00">m_outSem</text>
</g>
<!-- Node6 -->
<g id="node6" class="node">
<title>Node6</title>
<g id="a_node6"><a xlink:href="classerpc_1_1_message_buffer.html" target="_top" xlink:title="Represents a memory buffer containing a message.">
<polygon fill="white" stroke="black" points="189.5,-0.5 189.5,-19.5 306.5,-19.5 306.5,-0.5 189.5,-0.5"/>
<text text-anchor="middle" x="248" y="-7.5" font-family="Helvetica,sans-Serif" font-size="10.00">erpc::MessageBuffer</text>
</a>
</g>
</g>
<!-- Node6&#45;&gt;Node1 -->
<g id="edge6" class="edge">
<title>Node6&#45;&gt;Node1</title>
<path fill="none" stroke="#9a32cd" stroke-dasharray="5,2" d="M317.01,-17.17C346.45,-21.01 381.17,-26.51 412,-34 440.46,-40.91 472.14,-52.31 493.19,-60.43"/>
<polygon fill="#9a32cd" stroke="#9a32cd" points="317.19,-13.67 306.83,-15.89 316.31,-20.61 317.19,-13.67"/>
<text text-anchor="middle" x="383" y="-37" font-family="Helvetica,sans-Serif" font-size="10.00"> m_inBuffer</text>
</g>
</g>
</svg>
