<?xml version="1.0" encoding="UTF-8" standalone="no"?>
<!DOCTYPE svg PUBLIC "-//W3C//DTD SVG 1.1//EN"
 "http://www.w3.org/Graphics/SVG/1.1/DTD/svg11.dtd">
<!-- Generated by graphviz version 2.43.0 (0)
 -->
<!-- Title: erpc::SimpleServer Pages: 1 -->
<svg width="411pt" height="219pt"
 viewBox="0.00 0.00 411.00 219.00" xmlns="http://www.w3.org/2000/svg" xmlns:xlink="http://www.w3.org/1999/xlink">
<g id="graph0" class="graph" transform="scale(1 1) rotate(0) translate(4 215)">
<title>erpc::SimpleServer</title>
<polygon fill="white" stroke="transparent" points="-4,4 -4,-215 407,-215 407,4 -4,4"/>
<!-- Node1 -->
<g id="node1" class="node">
<title>Node1</title>
<g id="a_node1"><a xlink:title="Based server implementation.">
<polygon fill="#bfbfbf" stroke="black" points="183.5,-0.5 183.5,-19.5 292.5,-19.5 292.5,-0.5 183.5,-0.5"/>
<text text-anchor="middle" x="238" y="-7.5" font-family="Helvetica,sans-Serif" font-size="10.00">erpc::SimpleServer</text>
</a>
</g>
</g>
<!-- Node2 -->
<g id="node2" class="node">
<title>Node2</title>
<g id="a_node2"><a xlink:href="classerpc_1_1_server.html" target="_top" xlink:title="Based server functionality.">
<polygon fill="white" stroke="black" points="200.5,-57.5 200.5,-76.5 275.5,-76.5 275.5,-57.5 200.5,-57.5"/>
<text text-anchor="middle" x="238" y="-64.5" font-family="Helvetica,sans-Serif" font-size="10.00">erpc::Server</text>
</a>
</g>
</g>
<!-- Node2&#45;&gt;Node1 -->
<g id="edge1" class="edge">
<title>Node2&#45;&gt;Node1</title>
<path fill="none" stroke="midnightblue" d="M238,-47.12C238,-37.82 238,-27.06 238,-19.71"/>
<polygon fill="midnightblue" stroke="midnightblue" points="234.5,-47.41 238,-57.41 241.5,-47.41 234.5,-47.41"/>
</g>
<!-- Node3 -->
<g id="node3" class="node">
<title>Node3</title>
<g id="a_node3"><a xlink:href="classerpc_1_1_client_server_common.html" target="_top" xlink:title="Common class inherited by client and server class.">
<polygon fill="white" stroke="black" points="99,-124.5 99,-143.5 247,-143.5 247,-124.5 99,-124.5"/>
<text text-anchor="middle" x="173" y="-131.5" font-family="Helvetica,sans-Serif" font-size="10.00">erpc::ClientServerCommon</text>
</a>
</g>
</g>
<!-- Node3&#45;&gt;Node2 -->
<g id="edge2" class="edge">
<title>Node3&#45;&gt;Node2</title>
<path fill="none" stroke="midnightblue" d="M189,-117C201.75,-104.25 219.11,-86.89 229.37,-76.63"/>
<polygon fill="midnightblue" stroke="midnightblue" points="186.36,-114.69 181.77,-124.23 191.31,-119.64 186.36,-114.69"/>
</g>
<!-- Node4 -->
<g id="node4" class="node">
<title>Node4</title>
<g id="a_node4"><a xlink:href="classerpc_1_1_codec_factory.html" target="_top" xlink:title="Abstract interface for codec factory.">
<polygon fill="white" stroke="black" points="0,-191.5 0,-210.5 110,-210.5 110,-191.5 0,-191.5"/>
<text text-anchor="middle" x="55" y="-198.5" font-family="Helvetica,sans-Serif" font-size="10.00">erpc::CodecFactory</text>
</a>
</g>
</g>
<!-- Node4&#45;&gt;Node3 -->
<g id="edge3" class="edge">
<title>Node4&#45;&gt;Node3</title>
<path fill="none" stroke="#9a32cd" stroke-dasharray="5,2" d="M65.82,-182.62C71.11,-175.35 78.06,-167.36 86,-162 98.58,-153.51 113.96,-147.59 128.27,-143.5"/>
<polygon fill="#9a32cd" stroke="#9a32cd" points="62.73,-180.94 60.05,-191.19 68.53,-184.85 62.73,-180.94"/>
<text text-anchor="middle" x="127.5" y="-165" font-family="Helvetica,sans-Serif" font-size="10.00"> m_codecFactory</text>
</g>
<!-- Node5 -->
<g id="node5" class="node">
<title>Node5</title>
<g id="a_node5"><a xlink:href="classerpc_1_1_transport.html" target="_top" xlink:title="Abstract interface for transport layer.">
<polygon fill="white" stroke="black" points="128.5,-191.5 128.5,-210.5 217.5,-210.5 217.5,-191.5 128.5,-191.5"/>
<text text-anchor="middle" x="173" y="-198.5" font-family="Helvetica,sans-Serif" font-size="10.00">erpc::Transport</text>
</a>
</g>
</g>
<!-- Node5&#45;&gt;Node3 -->
<g id="edge4" class="edge">
<title>Node5&#45;&gt;Node3</title>
<path fill="none" stroke="#9a32cd" stroke-dasharray="5,2" d="M173,-181.04C173,-168.67 173,-153.12 173,-143.63"/>
<polygon fill="#9a32cd" stroke="#9a32cd" points="169.5,-181.23 173,-191.23 176.5,-181.23 169.5,-181.23"/>
<text text-anchor="middle" x="204.5" y="-165" font-family="Helvetica,sans-Serif" font-size="10.00"> m_transport</text>
</g>
<!-- Node6 -->
<g id="node6" class="node">
<title>Node6</title>
<g id="a_node6"><a xlink:href="classerpc_1_1_message_buffer_factory.html" target="_top" xlink:title="Abstract interface for message buffer factory.">
<polygon fill="white" stroke="black" points="235.5,-191.5 235.5,-210.5 388.5,-210.5 388.5,-191.5 235.5,-191.5"/>
<text text-anchor="middle" x="312" y="-198.5" font-family="Helvetica,sans-Serif" font-size="10.00">erpc::MessageBufferFactory</text>
</a>
</g>
</g>
<!-- Node6&#45;&gt;Node3 -->
<g id="edge5" class="edge">
<title>Node6&#45;&gt;Node3</title>
<path fill="none" stroke="#9a32cd" stroke-dasharray="5,2" d="M287.9,-186.49C274.06,-178.93 256.25,-169.54 240,-162 225.55,-155.3 208.95,-148.6 195.89,-143.55"/>
<polygon fill="#9a32cd" stroke="#9a32cd" points="286.33,-189.62 296.78,-191.38 289.71,-183.49 286.33,-189.62"/>
<text text-anchor="middle" x="311.5" y="-165" font-family="Helvetica,sans-Serif" font-size="10.00"> m_messageFactory</text>
</g>
<!-- Node7 -->
<g id="node7" class="node">
<title>Node7</title>
<g id="a_node7"><a xlink:href="classerpc_1_1_service.html" target="_top" xlink:title="Abstract interface for service, which can be executed on server side.">
<polygon fill="white" stroke="black" points="265,-124.5 265,-143.5 345,-143.5 345,-124.5 265,-124.5"/>
<text text-anchor="middle" x="305" y="-131.5" font-family="Helvetica,sans-Serif" font-size="10.00">erpc::Service</text>
</a>
</g>
</g>
<!-- Node7&#45;&gt;Node2 -->
<g id="edge6" class="edge">
<title>Node7&#45;&gt;Node2</title>
<path fill="none" stroke="#9a32cd" stroke-dasharray="5,2" d="M288.5,-117C275.36,-104.25 257.48,-86.89 246.89,-76.63"/>
<polygon fill="#9a32cd" stroke="#9a32cd" points="286.35,-119.78 295.96,-124.23 291.22,-114.76 286.35,-119.78"/>
<text text-anchor="middle" x="312" y="-98" font-family="Helvetica,sans-Serif" font-size="10.00"> m_firstService</text>
</g>
<!-- Node7&#45;&gt;Node7 -->
<g id="edge7" class="edge">
<title>Node7&#45;&gt;Node7</title>
<path fill="none" stroke="#9a32cd" stroke-dasharray="5,2" d="M355.26,-138.82C360,-137.83 363,-136.23 363,-134 363,-130.44 355.33,-128.46 345.12,-128.07"/>
<polygon fill="#9a32cd" stroke="#9a32cd" points="354.68,-135.36 345.12,-139.93 355.44,-142.32 354.68,-135.36"/>
<text text-anchor="middle" x="383" y="-131.5" font-family="Helvetica,sans-Serif" font-size="10.00"> m_next</text>
</g>
</g>
</svg>
