<?xml version="1.0" encoding="UTF-8" standalone="no"?>
<!DOCTYPE svg PUBLIC "-//W3C//DTD SVG 1.1//EN"
 "http://www.w3.org/Graphics/SVG/1.1/DTD/svg11.dtd">
<!-- Generated by graphviz version 2.43.0 (0)
 -->
<!-- Title: erpc::FramedTransport Pages: 1 -->
<svg width="462pt" height="484pt"
 viewBox="0.00 0.00 462.00 484.00" xmlns="http://www.w3.org/2000/svg" xmlns:xlink="http://www.w3.org/1999/xlink">
<g id="graph0" class="graph" transform="scale(1 1) rotate(0) translate(4 480)">
<title>erpc::FramedTransport</title>
<polygon fill="white" stroke="transparent" points="-4,4 -4,-480 458,-480 458,4 -4,4"/>
<!-- Node1 -->
<g id="node1" class="node">
<title>Node1</title>
<g id="a_node1"><a xlink:title="Base class for framed transport layers.">
<polygon fill="#bfbfbf" stroke="black" points="125,-209.5 125,-228.5 251,-228.5 251,-209.5 125,-209.5"/>
<text text-anchor="middle" x="188" y="-216.5" font-family="Helvetica,sans-Serif" font-size="10.00">erpc::FramedTransport</text>
</a>
</g>
</g>
<!-- Node3 -->
<g id="node3" class="node">
<title>Node3</title>
<g id="a_node3"><a xlink:href="classerpc_1_1_dspi_master_transport.html" target="_top" xlink:title="Very basic transport to send/receive messages via DSPI.">
<polygon fill="white" stroke="black" points="298,-456.5 298,-475.5 443,-475.5 443,-456.5 298,-456.5"/>
<text text-anchor="middle" x="370.5" y="-463.5" font-family="Helvetica,sans-Serif" font-size="10.00">erpc::DspiMasterTransport</text>
</a>
</g>
</g>
<!-- Node1&#45;&gt;Node3 -->
<g id="edge2" class="edge">
<title>Node1&#45;&gt;Node3</title>
<path fill="none" stroke="midnightblue" d="M191.47,-238.67C198.12,-283.09 220.67,-391.63 287,-447 291.63,-450.86 296.89,-453.97 302.46,-456.48"/>
<polygon fill="midnightblue" stroke="midnightblue" points="194.91,-238.03 190.07,-228.6 187.98,-238.99 194.91,-238.03"/>
</g>
<!-- Node4 -->
<g id="node4" class="node">
<title>Node4</title>
<g id="a_node4"><a xlink:href="classerpc_1_1_dspi_slave_transport.html" target="_top" xlink:title="Very basic transport to send/receive messages via DSPI.">
<polygon fill="white" stroke="black" points="301.5,-418.5 301.5,-437.5 439.5,-437.5 439.5,-418.5 301.5,-418.5"/>
<text text-anchor="middle" x="370.5" y="-425.5" font-family="Helvetica,sans-Serif" font-size="10.00">erpc::DspiSlaveTransport</text>
</a>
</g>
</g>
<!-- Node1&#45;&gt;Node4 -->
<g id="edge3" class="edge">
<title>Node1&#45;&gt;Node4</title>
<path fill="none" stroke="midnightblue" d="M193.34,-238.8C202.96,-277.8 229.91,-364.65 287,-409 291.99,-412.88 297.63,-415.99 303.57,-418.48"/>
<polygon fill="midnightblue" stroke="midnightblue" points="196.67,-237.67 190.98,-228.73 189.85,-239.26 196.67,-237.67"/>
</g>
<!-- Node5 -->
<g id="node5" class="node">
<title>Node5</title>
<g id="a_node5"><a xlink:href="classerpc_1_1_i2c_slave_transport.html" target="_top" xlink:title="Very basic transport to send/receive messages via I2C.">
<polygon fill="white" stroke="black" points="305,-380.5 305,-399.5 436,-399.5 436,-380.5 305,-380.5"/>
<text text-anchor="middle" x="370.5" y="-387.5" font-family="Helvetica,sans-Serif" font-size="10.00">erpc::I2cSlaveTransport</text>
</a>
</g>
</g>
<!-- Node1&#45;&gt;Node5 -->
<g id="edge4" class="edge">
<title>Node1&#45;&gt;Node5</title>
<path fill="none" stroke="midnightblue" d="M195.89,-238.41C208.56,-271.16 238.75,-337.12 287,-371 292.53,-374.89 298.74,-377.99 305.2,-380.46"/>
<polygon fill="midnightblue" stroke="midnightblue" points="199.03,-236.83 192.27,-228.68 192.47,-239.27 199.03,-236.83"/>
</g>
<!-- Node6 -->
<g id="node6" class="node">
<title>Node6</title>
<g id="a_node6"><a xlink:href="classerpc_1_1_l_p_i2c_slave_transport.html" target="_top" xlink:title="Very basic transport to send/receive messages via LPI2C.">
<polygon fill="white" stroke="black" points="299.5,-342.5 299.5,-361.5 441.5,-361.5 441.5,-342.5 299.5,-342.5"/>
<text text-anchor="middle" x="370.5" y="-349.5" font-family="Helvetica,sans-Serif" font-size="10.00">erpc::LPI2cSlaveTransport</text>
</a>
</g>
</g>
<!-- Node1&#45;&gt;Node6 -->
<g id="edge5" class="edge">
<title>Node1&#45;&gt;Node6</title>
<path fill="none" stroke="midnightblue" d="M199.61,-237.51C215.31,-263.13 247.19,-308.94 287,-333 293.42,-336.88 300.55,-339.96 307.86,-342.42"/>
<polygon fill="midnightblue" stroke="midnightblue" points="202.53,-235.57 194.41,-228.77 196.52,-239.15 202.53,-235.57"/>
</g>
<!-- Node7 -->
<g id="node7" class="node">
<title>Node7</title>
<g id="a_node7"><a xlink:href="classerpc_1_1_l_p_spi_slave_transport.html" target="_top" xlink:title="Very basic transport to send/receive messages via LPSPI.">
<polygon fill="white" stroke="black" points="299,-304.5 299,-323.5 442,-323.5 442,-304.5 299,-304.5"/>
<text text-anchor="middle" x="370.5" y="-311.5" font-family="Helvetica,sans-Serif" font-size="10.00">erpc::LPSpiSlaveTransport</text>
</a>
</g>
</g>
<!-- Node1&#45;&gt;Node7 -->
<g id="edge6" class="edge">
<title>Node1&#45;&gt;Node7</title>
<path fill="none" stroke="midnightblue" d="M205.84,-235.84C224.22,-253.25 255.29,-279.95 287,-295 295.1,-298.84 304.02,-301.93 312.92,-304.41"/>
<polygon fill="midnightblue" stroke="midnightblue" points="207.95,-233.01 198.33,-228.57 203.08,-238.04 207.95,-233.01"/>
</g>
<!-- Node8 -->
<g id="node8" class="node">
<title>Node8</title>
<g id="a_node8"><a xlink:href="classerpc_1_1_r_p_msg_t_t_y_r_t_o_s_transport.html" target="_top" xlink:title="Transport that uses RPMsg zero copy RTOS API for interprocessor messaging.">
<polygon fill="white" stroke="black" points="287,-266.5 287,-285.5 454,-285.5 454,-266.5 287,-266.5"/>
<text text-anchor="middle" x="370.5" y="-273.5" font-family="Helvetica,sans-Serif" font-size="10.00">erpc::RPMsgTTYRTOSTransport</text>
</a>
</g>
</g>
<!-- Node1&#45;&gt;Node8 -->
<g id="edge7" class="edge">
<title>Node1&#45;&gt;Node8</title>
<path fill="none" stroke="midnightblue" d="M220.24,-232.44C239.3,-240.3 264.27,-250.02 287,-257 298.38,-260.5 310.82,-263.68 322.51,-266.41"/>
<polygon fill="midnightblue" stroke="midnightblue" points="221.44,-229.15 210.87,-228.52 218.75,-235.6 221.44,-229.15"/>
</g>
<!-- Node9 -->
<g id="node9" class="node">
<title>Node9</title>
<g id="a_node9"><a xlink:href="classerpc_1_1_serial_transport.html" target="_top" xlink:title="Serial transport layer for host PC.">
<polygon fill="white" stroke="black" points="312,-228.5 312,-247.5 429,-247.5 429,-228.5 312,-228.5"/>
<text text-anchor="middle" x="370.5" y="-235.5" font-family="Helvetica,sans-Serif" font-size="10.00">erpc::SerialTransport</text>
</a>
</g>
</g>
<!-- Node1&#45;&gt;Node9 -->
<g id="edge8" class="edge">
<title>Node1&#45;&gt;Node9</title>
<path fill="none" stroke="midnightblue" d="M261.42,-226.62C278.18,-228.39 295.79,-230.24 311.82,-231.93"/>
<polygon fill="midnightblue" stroke="midnightblue" points="261.43,-223.1 251.12,-225.54 260.7,-230.07 261.43,-223.1"/>
</g>
<!-- Node10 -->
<g id="node10" class="node">
<title>Node10</title>
<g id="a_node10"><a xlink:href="classerpc_1_1_spi_master_transport.html" target="_top" xlink:title="Very basic transport to send/receive messages via SPI.">
<polygon fill="white" stroke="black" points="301.5,-190.5 301.5,-209.5 439.5,-209.5 439.5,-190.5 301.5,-190.5"/>
<text text-anchor="middle" x="370.5" y="-197.5" font-family="Helvetica,sans-Serif" font-size="10.00">erpc::SpiMasterTransport</text>
</a>
</g>
</g>
<!-- Node1&#45;&gt;Node10 -->
<g id="edge9" class="edge">
<title>Node1&#45;&gt;Node10</title>
<path fill="none" stroke="midnightblue" d="M261.14,-211.41C274.42,-210.01 288.25,-208.55 301.4,-207.17"/>
<polygon fill="midnightblue" stroke="midnightblue" points="260.7,-207.93 251.12,-212.46 261.43,-214.9 260.7,-207.93"/>
</g>
<!-- Node11 -->
<g id="node11" class="node">
<title>Node11</title>
<g id="a_node11"><a xlink:href="classerpc_1_1_spi_slave_transport.html" target="_top" xlink:title="Very basic transport to send/receive messages via SPI.">
<polygon fill="white" stroke="black" points="305,-152.5 305,-171.5 436,-171.5 436,-152.5 305,-152.5"/>
<text text-anchor="middle" x="370.5" y="-159.5" font-family="Helvetica,sans-Serif" font-size="10.00">erpc::SpiSlaveTransport</text>
</a>
</g>
</g>
<!-- Node1&#45;&gt;Node11 -->
<g id="edge10" class="edge">
<title>Node1&#45;&gt;Node11</title>
<path fill="none" stroke="midnightblue" d="M220.24,-205.56C239.3,-197.7 264.27,-187.98 287,-181 298.38,-177.5 310.82,-174.32 322.51,-171.59"/>
<polygon fill="midnightblue" stroke="midnightblue" points="218.75,-202.4 210.87,-209.48 221.44,-208.85 218.75,-202.4"/>
</g>
<!-- Node12 -->
<g id="node12" class="node">
<title>Node12</title>
<g id="a_node12"><a xlink:href="classerpc_1_1_spidev_master_transport.html" target="_top" xlink:title="Very basic transport to send/receive messages via SPIdev.">
<polygon fill="white" stroke="black" points="292.5,-114.5 292.5,-133.5 448.5,-133.5 448.5,-114.5 292.5,-114.5"/>
<text text-anchor="middle" x="370.5" y="-121.5" font-family="Helvetica,sans-Serif" font-size="10.00">erpc::SpidevMasterTransport</text>
</a>
</g>
</g>
<!-- Node1&#45;&gt;Node12 -->
<g id="edge11" class="edge">
<title>Node1&#45;&gt;Node12</title>
<path fill="none" stroke="midnightblue" d="M205.84,-202.16C224.22,-184.75 255.29,-158.05 287,-143 295.1,-139.16 304.02,-136.07 312.92,-133.59"/>
<polygon fill="midnightblue" stroke="midnightblue" points="203.08,-199.96 198.33,-209.43 207.95,-204.99 203.08,-199.96"/>
</g>
<!-- Node13 -->
<g id="node13" class="node">
<title>Node13</title>
<g id="a_node13"><a xlink:href="classerpc_1_1_t_c_p_transport.html" target="_top" xlink:title="Client side of TCP/IP transport.">
<polygon fill="white" stroke="black" points="316.5,-76.5 316.5,-95.5 424.5,-95.5 424.5,-76.5 316.5,-76.5"/>
<text text-anchor="middle" x="370.5" y="-83.5" font-family="Helvetica,sans-Serif" font-size="10.00">erpc::TCPTransport</text>
</a>
</g>
</g>
<!-- Node1&#45;&gt;Node13 -->
<g id="edge12" class="edge">
<title>Node1&#45;&gt;Node13</title>
<path fill="none" stroke="midnightblue" d="M199.61,-200.49C215.31,-174.87 247.19,-129.06 287,-105 295.81,-99.68 305.96,-95.85 316.08,-93.09"/>
<polygon fill="midnightblue" stroke="midnightblue" points="196.52,-198.85 194.41,-209.23 202.53,-202.43 196.52,-198.85"/>
</g>
<!-- Node14 -->
<g id="node14" class="node">
<title>Node14</title>
<g id="a_node14"><a xlink:href="classerpc_1_1_uart_transport.html" target="_top" xlink:title="Very basic transport to send/receive messages via UART.">
<polygon fill="white" stroke="black" points="315.5,-38.5 315.5,-57.5 425.5,-57.5 425.5,-38.5 315.5,-38.5"/>
<text text-anchor="middle" x="370.5" y="-45.5" font-family="Helvetica,sans-Serif" font-size="10.00">erpc::UartTransport</text>
</a>
</g>
</g>
<!-- Node1&#45;&gt;Node14 -->
<g id="edge13" class="edge">
<title>Node1&#45;&gt;Node14</title>
<path fill="none" stroke="midnightblue" d="M194.2,-199.11C205.72,-164.19 236.46,-93.5 287,-58 295.42,-52.09 305.4,-47.99 315.47,-45.34"/>
<polygon fill="midnightblue" stroke="midnightblue" points="190.72,-198.52 191.13,-209.1 197.41,-200.57 190.72,-198.52"/>
</g>
<!-- Node1&#45;&gt;Node14 -->
<g id="edge14" class="edge">
<title>Node1&#45;&gt;Node14</title>
<path fill="none" stroke="midnightblue" d="M198.04,-200.13C211.79,-168.98 241.29,-108.1 287,-76 301.91,-65.53 321.74,-60.74 338.21,-57.57"/>
<polygon fill="midnightblue" stroke="midnightblue" points="194.75,-198.9 193.98,-209.47 201.17,-201.69 194.75,-198.9"/>
</g>
<!-- Node15 -->
<g id="node15" class="node">
<title>Node15</title>
<g id="a_node15"><a xlink:href="classerpc_1_1_usb_cdc_transport.html" target="_top" xlink:title="Very basic transport to send/receive messages via virtual USB CDC port.">
<polygon fill="white" stroke="black" points="307.5,-0.5 307.5,-19.5 433.5,-19.5 433.5,-0.5 307.5,-0.5"/>
<text text-anchor="middle" x="370.5" y="-7.5" font-family="Helvetica,sans-Serif" font-size="10.00">erpc::UsbCdcTransport</text>
</a>
</g>
</g>
<!-- Node1&#45;&gt;Node15 -->
<g id="edge15" class="edge">
<title>Node1&#45;&gt;Node15</title>
<path fill="none" stroke="midnightblue" d="M193.34,-199.2C202.96,-160.2 229.91,-73.35 287,-29 293.04,-24.31 300.02,-20.74 307.33,-18.03"/>
<polygon fill="midnightblue" stroke="midnightblue" points="189.85,-198.74 190.98,-209.27 196.67,-200.33 189.85,-198.74"/>
</g>
<!-- Node2 -->
<g id="node2" class="node">
<title>Node2</title>
<g id="a_node2"><a xlink:href="classerpc_1_1_transport.html" target="_top" xlink:title="Abstract interface for transport layer.">
<polygon fill="white" stroke="black" points="0,-209.5 0,-228.5 89,-228.5 89,-209.5 0,-209.5"/>
<text text-anchor="middle" x="44.5" y="-216.5" font-family="Helvetica,sans-Serif" font-size="10.00">erpc::Transport</text>
</a>
</g>
</g>
<!-- Node2&#45;&gt;Node1 -->
<g id="edge1" class="edge">
<title>Node2&#45;&gt;Node1</title>
<path fill="none" stroke="midnightblue" d="M99.14,-219C107.52,-219 116.25,-219 124.81,-219"/>
<polygon fill="midnightblue" stroke="midnightblue" points="99.11,-215.5 89.11,-219 99.11,-222.5 99.11,-215.5"/>
</g>
</g>
</svg>
