<?xml version="1.0" encoding="UTF-8" standalone="no"?>
<!DOCTYPE svg PUBLIC "-//W3C//DTD SVG 1.1//EN"
 "http://www.w3.org/Graphics/SVG/1.1/DTD/svg11.dtd">
<!-- Generated by graphviz version 2.43.0 (0)
 -->
<!-- Title: erpc::Server Pages: 1 -->
<svg width="411pt" height="162pt"
 viewBox="0.00 0.00 411.00 162.00" xmlns="http://www.w3.org/2000/svg" xmlns:xlink="http://www.w3.org/1999/xlink">
<g id="graph0" class="graph" transform="scale(1 1) rotate(0) translate(4 158)">
<title>erpc::Server</title>
<polygon fill="white" stroke="transparent" points="-4,4 -4,-158 407,-158 407,4 -4,4"/>
<!-- Node1 -->
<g id="node1" class="node">
<title>Node1</title>
<g id="a_node1"><a xlink:title="Based server functionality.">
<polygon fill="#bfbfbf" stroke="black" points="200.5,-0.5 200.5,-19.5 275.5,-19.5 275.5,-0.5 200.5,-0.5"/>
<text text-anchor="middle" x="238" y="-7.5" font-family="Helvetica,sans-Serif" font-size="10.00">erpc::Server</text>
</a>
</g>
</g>
<!-- Node2 -->
<g id="node2" class="node">
<title>Node2</title>
<g id="a_node2"><a xlink:href="classerpc_1_1_client_server_common.html" target="_top" xlink:title="Common class inherited by client and server class.">
<polygon fill="white" stroke="black" points="99,-67.5 99,-86.5 247,-86.5 247,-67.5 99,-67.5"/>
<text text-anchor="middle" x="173" y="-74.5" font-family="Helvetica,sans-Serif" font-size="10.00">erpc::ClientServerCommon</text>
</a>
</g>
</g>
<!-- Node2&#45;&gt;Node1 -->
<g id="edge1" class="edge">
<title>Node2&#45;&gt;Node1</title>
<path fill="none" stroke="midnightblue" d="M189,-60C201.75,-47.25 219.11,-29.89 229.37,-19.63"/>
<polygon fill="midnightblue" stroke="midnightblue" points="186.36,-57.69 181.77,-67.23 191.31,-62.64 186.36,-57.69"/>
</g>
<!-- Node3 -->
<g id="node3" class="node">
<title>Node3</title>
<g id="a_node3"><a xlink:href="classerpc_1_1_codec_factory.html" target="_top" xlink:title="Abstract interface for codec factory.">
<polygon fill="white" stroke="black" points="0,-134.5 0,-153.5 110,-153.5 110,-134.5 0,-134.5"/>
<text text-anchor="middle" x="55" y="-141.5" font-family="Helvetica,sans-Serif" font-size="10.00">erpc::CodecFactory</text>
</a>
</g>
</g>
<!-- Node3&#45;&gt;Node2 -->
<g id="edge2" class="edge">
<title>Node3&#45;&gt;Node2</title>
<path fill="none" stroke="#9a32cd" stroke-dasharray="5,2" d="M65.82,-125.62C71.11,-118.35 78.06,-110.36 86,-105 98.58,-96.51 113.96,-90.59 128.27,-86.5"/>
<polygon fill="#9a32cd" stroke="#9a32cd" points="62.73,-123.94 60.05,-134.19 68.53,-127.85 62.73,-123.94"/>
<text text-anchor="middle" x="127.5" y="-108" font-family="Helvetica,sans-Serif" font-size="10.00"> m_codecFactory</text>
</g>
<!-- Node4 -->
<g id="node4" class="node">
<title>Node4</title>
<g id="a_node4"><a xlink:href="classerpc_1_1_transport.html" target="_top" xlink:title="Abstract interface for transport layer.">
<polygon fill="white" stroke="black" points="128.5,-134.5 128.5,-153.5 217.5,-153.5 217.5,-134.5 128.5,-134.5"/>
<text text-anchor="middle" x="173" y="-141.5" font-family="Helvetica,sans-Serif" font-size="10.00">erpc::Transport</text>
</a>
</g>
</g>
<!-- Node4&#45;&gt;Node2 -->
<g id="edge3" class="edge">
<title>Node4&#45;&gt;Node2</title>
<path fill="none" stroke="#9a32cd" stroke-dasharray="5,2" d="M173,-124.04C173,-111.67 173,-96.12 173,-86.63"/>
<polygon fill="#9a32cd" stroke="#9a32cd" points="169.5,-124.23 173,-134.23 176.5,-124.23 169.5,-124.23"/>
<text text-anchor="middle" x="204.5" y="-108" font-family="Helvetica,sans-Serif" font-size="10.00"> m_transport</text>
</g>
<!-- Node5 -->
<g id="node5" class="node">
<title>Node5</title>
<g id="a_node5"><a xlink:href="classerpc_1_1_message_buffer_factory.html" target="_top" xlink:title="Abstract interface for message buffer factory.">
<polygon fill="white" stroke="black" points="235.5,-134.5 235.5,-153.5 388.5,-153.5 388.5,-134.5 235.5,-134.5"/>
<text text-anchor="middle" x="312" y="-141.5" font-family="Helvetica,sans-Serif" font-size="10.00">erpc::MessageBufferFactory</text>
</a>
</g>
</g>
<!-- Node5&#45;&gt;Node2 -->
<g id="edge4" class="edge">
<title>Node5&#45;&gt;Node2</title>
<path fill="none" stroke="#9a32cd" stroke-dasharray="5,2" d="M287.9,-129.49C274.06,-121.93 256.25,-112.54 240,-105 225.55,-98.3 208.95,-91.6 195.89,-86.55"/>
<polygon fill="#9a32cd" stroke="#9a32cd" points="286.33,-132.62 296.78,-134.38 289.71,-126.49 286.33,-132.62"/>
<text text-anchor="middle" x="311.5" y="-108" font-family="Helvetica,sans-Serif" font-size="10.00"> m_messageFactory</text>
</g>
<!-- Node6 -->
<g id="node6" class="node">
<title>Node6</title>
<g id="a_node6"><a xlink:href="classerpc_1_1_service.html" target="_top" xlink:title="Abstract interface for service, which can be executed on server side.">
<polygon fill="white" stroke="black" points="265,-67.5 265,-86.5 345,-86.5 345,-67.5 265,-67.5"/>
<text text-anchor="middle" x="305" y="-74.5" font-family="Helvetica,sans-Serif" font-size="10.00">erpc::Service</text>
</a>
</g>
</g>
<!-- Node6&#45;&gt;Node1 -->
<g id="edge5" class="edge">
<title>Node6&#45;&gt;Node1</title>
<path fill="none" stroke="#9a32cd" stroke-dasharray="5,2" d="M288.5,-60C275.36,-47.25 257.48,-29.89 246.89,-19.63"/>
<polygon fill="#9a32cd" stroke="#9a32cd" points="286.35,-62.78 295.96,-67.23 291.22,-57.76 286.35,-62.78"/>
<text text-anchor="middle" x="312" y="-41" font-family="Helvetica,sans-Serif" font-size="10.00"> m_firstService</text>
</g>
<!-- Node6&#45;&gt;Node6 -->
<g id="edge6" class="edge">
<title>Node6&#45;&gt;Node6</title>
<path fill="none" stroke="#9a32cd" stroke-dasharray="5,2" d="M355.26,-81.82C360,-80.83 363,-79.23 363,-77 363,-73.44 355.33,-71.46 345.12,-71.07"/>
<polygon fill="#9a32cd" stroke="#9a32cd" points="354.68,-78.36 345.12,-82.93 355.44,-85.32 354.68,-78.36"/>
<text text-anchor="middle" x="383" y="-74.5" font-family="Helvetica,sans-Serif" font-size="10.00"> m_next</text>
</g>
</g>
</svg>
