<?xml version="1.0" encoding="UTF-8" standalone="no"?>
<!DOCTYPE svg PUBLIC "-//W3C//DTD SVG 1.1//EN"
 "http://www.w3.org/Graphics/SVG/1.1/DTD/svg11.dtd">
<!-- Generated by graphviz version 2.43.0 (0)
 -->
<!-- Title: erpc::MessageBufferFactory Pages: 1 -->
<svg width="528pt" height="84pt"
 viewBox="0.00 0.00 528.00 84.00" xmlns="http://www.w3.org/2000/svg" xmlns:xlink="http://www.w3.org/1999/xlink">
<g id="graph0" class="graph" transform="scale(1 1) rotate(0) translate(4 80)">
<title>erpc::MessageBufferFactory</title>
<polygon fill="white" stroke="transparent" points="-4,4 -4,-80 524,-80 524,4 -4,4"/>
<!-- Node1 -->
<g id="node1" class="node">
<title>Node1</title>
<g id="a_node1"><a xlink:title="Abstract interface for message buffer factory.">
<polygon fill="#bfbfbf" stroke="black" points="191.5,-56.5 191.5,-75.5 344.5,-75.5 344.5,-56.5 191.5,-56.5"/>
<text text-anchor="middle" x="268" y="-63.5" font-family="Helvetica,sans-Serif" font-size="10.00">erpc::MessageBufferFactory</text>
</a>
</g>
</g>
<!-- Node2 -->
<g id="node2" class="node">
<title>Node2</title>
<g id="a_node2"><a xlink:href="class_dynamic_message_buffer_factory.html" target="_top" xlink:title="Dynamic message buffer factory.">
<polygon fill="white" stroke="black" points="0,-0.5 0,-19.5 170,-19.5 170,-0.5 0,-0.5"/>
<text text-anchor="middle" x="85" y="-7.5" font-family="Helvetica,sans-Serif" font-size="10.00">DynamicMessageBufferFactory</text>
</a>
</g>
</g>
<!-- Node1&#45;&gt;Node2 -->
<g id="edge1" class="edge">
<title>Node1&#45;&gt;Node2</title>
<path fill="none" stroke="midnightblue" d="M229.26,-53.57C194.74,-43.38 144.99,-28.7 113.86,-19.52"/>
<polygon fill="midnightblue" stroke="midnightblue" points="228.42,-56.97 239,-56.44 230.4,-50.26 228.42,-56.97"/>
</g>
<!-- Node3 -->
<g id="node3" class="node">
<title>Node3</title>
<g id="a_node3"><a xlink:href="class_r_p_msg_message_buffer_factory.html" target="_top" xlink:title="RPMsg zero copy message buffer factory.">
<polygon fill="white" stroke="black" points="188.5,-0.5 188.5,-19.5 347.5,-19.5 347.5,-0.5 188.5,-0.5"/>
<text text-anchor="middle" x="268" y="-7.5" font-family="Helvetica,sans-Serif" font-size="10.00">RPMsgMessageBufferFactory</text>
</a>
</g>
</g>
<!-- Node1&#45;&gt;Node3 -->
<g id="edge2" class="edge">
<title>Node1&#45;&gt;Node3</title>
<path fill="none" stroke="midnightblue" d="M268,-45.8C268,-36.91 268,-26.78 268,-19.75"/>
<polygon fill="midnightblue" stroke="midnightblue" points="264.5,-46.08 268,-56.08 271.5,-46.08 264.5,-46.08"/>
</g>
<!-- Node4 -->
<g id="node4" class="node">
<title>Node4</title>
<g id="a_node4"><a xlink:href="class_static_message_buffer_factory.html" target="_top" xlink:title="Static Message buffer factory.">
<polygon fill="white" stroke="black" points="366,-0.5 366,-19.5 520,-19.5 520,-0.5 366,-0.5"/>
<text text-anchor="middle" x="443" y="-7.5" font-family="Helvetica,sans-Serif" font-size="10.00">StaticMessageBufferFactory</text>
</a>
</g>
</g>
<!-- Node1&#45;&gt;Node4 -->
<g id="edge3" class="edge">
<title>Node1&#45;&gt;Node4</title>
<path fill="none" stroke="midnightblue" d="M305.47,-53.44C338.47,-43.26 385.76,-28.66 415.4,-19.52"/>
<polygon fill="midnightblue" stroke="midnightblue" points="304.25,-50.15 295.73,-56.44 306.32,-56.84 304.25,-50.15"/>
</g>
</g>
</svg>
