<?xml version="1.0" encoding="UTF-8" standalone="no"?>
<!DOCTYPE svg PUBLIC "-//W3C//DTD SVG 1.1//EN"
 "http://www.w3.org/Graphics/SVG/1.1/DTD/svg11.dtd">
<!-- Generated by graphviz version 2.43.0 (0)
 -->
<!-- Title: erpc::ClientManager Pages: 1 -->
<svg width="397pt" height="152pt"
 viewBox="0.00 0.00 396.50 152.00" xmlns="http://www.w3.org/2000/svg" xmlns:xlink="http://www.w3.org/1999/xlink">
<g id="graph0" class="graph" transform="scale(1 1) rotate(0) translate(4 148)">
<title>erpc::ClientManager</title>
<polygon fill="white" stroke="transparent" points="-4,4 -4,-148 392.5,-148 392.5,4 -4,4"/>
<!-- Node1 -->
<g id="node1" class="node">
<title>Node1</title>
<g id="a_node1"><a xlink:title="Base client implementation.">
<polygon fill="#bfbfbf" stroke="black" points="115.5,-0.5 115.5,-19.5 230.5,-19.5 230.5,-0.5 115.5,-0.5"/>
<text text-anchor="middle" x="173" y="-7.5" font-family="Helvetica,sans-Serif" font-size="10.00">erpc::ClientManager</text>
</a>
</g>
</g>
<!-- Node2 -->
<g id="node2" class="node">
<title>Node2</title>
<g id="a_node2"><a xlink:href="classerpc_1_1_client_server_common.html" target="_top" xlink:title="Common class inherited by client and server class.">
<polygon fill="white" stroke="black" points="99,-57.5 99,-76.5 247,-76.5 247,-57.5 99,-57.5"/>
<text text-anchor="middle" x="173" y="-64.5" font-family="Helvetica,sans-Serif" font-size="10.00">erpc::ClientServerCommon</text>
</a>
</g>
</g>
<!-- Node2&#45;&gt;Node1 -->
<g id="edge1" class="edge">
<title>Node2&#45;&gt;Node1</title>
<path fill="none" stroke="midnightblue" d="M173,-47.12C173,-37.82 173,-27.06 173,-19.71"/>
<polygon fill="midnightblue" stroke="midnightblue" points="169.5,-47.41 173,-57.41 176.5,-47.41 169.5,-47.41"/>
</g>
<!-- Node3 -->
<g id="node3" class="node">
<title>Node3</title>
<g id="a_node3"><a xlink:href="classerpc_1_1_codec_factory.html" target="_top" xlink:title="Abstract interface for codec factory.">
<polygon fill="white" stroke="black" points="0,-124.5 0,-143.5 110,-143.5 110,-124.5 0,-124.5"/>
<text text-anchor="middle" x="55" y="-131.5" font-family="Helvetica,sans-Serif" font-size="10.00">erpc::CodecFactory</text>
</a>
</g>
</g>
<!-- Node3&#45;&gt;Node2 -->
<g id="edge2" class="edge">
<title>Node3&#45;&gt;Node2</title>
<path fill="none" stroke="#9a32cd" stroke-dasharray="5,2" d="M65.82,-115.62C71.11,-108.35 78.06,-100.36 86,-95 98.58,-86.51 113.96,-80.59 128.27,-76.5"/>
<polygon fill="#9a32cd" stroke="#9a32cd" points="62.73,-113.94 60.05,-124.19 68.53,-117.85 62.73,-113.94"/>
<text text-anchor="middle" x="127.5" y="-98" font-family="Helvetica,sans-Serif" font-size="10.00"> m_codecFactory</text>
</g>
<!-- Node4 -->
<g id="node4" class="node">
<title>Node4</title>
<g id="a_node4"><a xlink:href="classerpc_1_1_transport.html" target="_top" xlink:title="Abstract interface for transport layer.">
<polygon fill="white" stroke="black" points="128.5,-124.5 128.5,-143.5 217.5,-143.5 217.5,-124.5 128.5,-124.5"/>
<text text-anchor="middle" x="173" y="-131.5" font-family="Helvetica,sans-Serif" font-size="10.00">erpc::Transport</text>
</a>
</g>
</g>
<!-- Node4&#45;&gt;Node2 -->
<g id="edge3" class="edge">
<title>Node4&#45;&gt;Node2</title>
<path fill="none" stroke="#9a32cd" stroke-dasharray="5,2" d="M173,-114.04C173,-101.67 173,-86.12 173,-76.63"/>
<polygon fill="#9a32cd" stroke="#9a32cd" points="169.5,-114.23 173,-124.23 176.5,-114.23 169.5,-114.23"/>
<text text-anchor="middle" x="204.5" y="-98" font-family="Helvetica,sans-Serif" font-size="10.00"> m_transport</text>
</g>
<!-- Node5 -->
<g id="node5" class="node">
<title>Node5</title>
<g id="a_node5"><a xlink:href="classerpc_1_1_message_buffer_factory.html" target="_top" xlink:title="Abstract interface for message buffer factory.">
<polygon fill="white" stroke="black" points="235.5,-124.5 235.5,-143.5 388.5,-143.5 388.5,-124.5 235.5,-124.5"/>
<text text-anchor="middle" x="312" y="-131.5" font-family="Helvetica,sans-Serif" font-size="10.00">erpc::MessageBufferFactory</text>
</a>
</g>
</g>
<!-- Node5&#45;&gt;Node2 -->
<g id="edge4" class="edge">
<title>Node5&#45;&gt;Node2</title>
<path fill="none" stroke="#9a32cd" stroke-dasharray="5,2" d="M287.9,-119.49C274.06,-111.93 256.25,-102.54 240,-95 225.55,-88.3 208.95,-81.6 195.89,-76.55"/>
<polygon fill="#9a32cd" stroke="#9a32cd" points="286.33,-122.62 296.78,-124.38 289.71,-116.49 286.33,-122.62"/>
<text text-anchor="middle" x="311.5" y="-98" font-family="Helvetica,sans-Serif" font-size="10.00"> m_messageFactory</text>
</g>
</g>
</svg>
