<?xml version="1.0" encoding="UTF-8" standalone="no"?>
<!DOCTYPE svg PUBLIC "-//W3C//DTD SVG 1.1//EN"
 "http://www.w3.org/Graphics/SVG/1.1/DTD/svg11.dtd">
<!-- Generated by graphviz version 2.43.0 (0)
 -->
<!-- Title: erpc::RPMsgRTOSTransport Pages: 1 -->
<svg width="305pt" height="95pt"
 viewBox="0.00 0.00 305.00 95.00" xmlns="http://www.w3.org/2000/svg" xmlns:xlink="http://www.w3.org/1999/xlink">
<g id="graph0" class="graph" transform="scale(1 1) rotate(0) translate(4 91)">
<title>erpc::RPMsgRTOSTransport</title>
<polygon fill="white" stroke="transparent" points="-4,4 -4,-91 301,-91 301,4 -4,4"/>
<!-- Node1 -->
<g id="node1" class="node">
<title>Node1</title>
<g id="a_node1"><a xlink:title="Transport that uses RPMsg zero copy RTOS API for interprocessor messaging.">
<polygon fill="#bfbfbf" stroke="black" points="83,-0.5 83,-19.5 232,-19.5 232,-0.5 83,-0.5"/>
<text text-anchor="middle" x="157.5" y="-7.5" font-family="Helvetica,sans-Serif" font-size="10.00">erpc::RPMsgRTOSTransport</text>
</a>
</g>
</g>
<!-- Node2 -->
<g id="node2" class="node">
<title>Node2</title>
<g id="a_node2"><a xlink:href="classerpc_1_1_transport.html" target="_top" xlink:title="Abstract interface for transport layer.">
<polygon fill="white" stroke="black" points="0,-67.5 0,-86.5 89,-86.5 89,-67.5 0,-67.5"/>
<text text-anchor="middle" x="44.5" y="-74.5" font-family="Helvetica,sans-Serif" font-size="10.00">erpc::Transport</text>
</a>
</g>
</g>
<!-- Node2&#45;&gt;Node1 -->
<g id="edge1" class="edge">
<title>Node2&#45;&gt;Node1</title>
<path fill="none" stroke="midnightblue" d="M68.64,-62.12C91.03,-49.24 123.64,-30.48 142.5,-19.63"/>
<polygon fill="midnightblue" stroke="midnightblue" points="66.66,-59.21 59.74,-67.23 70.15,-65.28 66.66,-59.21"/>
</g>
<!-- Node3 -->
<g id="node3" class="node">
<title>Node3</title>
<g id="a_node3"><a xlink:href="classerpc_1_1_r_p_msg_base.html" target="_top" xlink:title="Transport that other RPMsg transports inherits.">
<polygon fill="white" stroke="black" points="107,-67.5 107,-86.5 208,-86.5 208,-67.5 107,-67.5"/>
<text text-anchor="middle" x="157.5" y="-74.5" font-family="Helvetica,sans-Serif" font-size="10.00">erpc::RPMsgBase</text>
</a>
</g>
</g>
<!-- Node3&#45;&gt;Node1 -->
<g id="edge2" class="edge">
<title>Node3&#45;&gt;Node1</title>
<path fill="none" stroke="midnightblue" d="M157.5,-57.04C157.5,-44.67 157.5,-29.12 157.5,-19.63"/>
<polygon fill="midnightblue" stroke="midnightblue" points="154,-57.23 157.5,-67.23 161,-57.23 154,-57.23"/>
</g>
<!-- Node4 -->
<g id="node4" class="node">
<title>Node4</title>
<g id="a_node4"><a xlink:href="classerpc_1_1_crc16.html" target="_top" xlink:title="Class for compute crc16.">
<polygon fill="white" stroke="black" points="226,-67.5 226,-86.5 297,-86.5 297,-67.5 226,-67.5"/>
<text text-anchor="middle" x="261.5" y="-74.5" font-family="Helvetica,sans-Serif" font-size="10.00">erpc::Crc16</text>
</a>
</g>
</g>
<!-- Node4&#45;&gt;Node1 -->
<g id="edge3" class="edge">
<title>Node4&#45;&gt;Node1</title>
<path fill="none" stroke="#9a32cd" stroke-dasharray="5,2" d="M238.73,-61.77C218.14,-48.9 188.51,-30.38 171.3,-19.63"/>
<polygon fill="#9a32cd" stroke="#9a32cd" points="237.14,-64.9 247.47,-67.23 240.85,-58.97 237.14,-64.9"/>
<text text-anchor="middle" x="243" y="-41" font-family="Helvetica,sans-Serif" font-size="10.00"> m_crcImpl</text>
</g>
</g>
</svg>
