<?xml version="1.0" encoding="UTF-8" standalone="no"?>
<!DOCTYPE svg PUBLIC "-//W3C//DTD SVG 1.1//EN"
 "http://www.w3.org/Graphics/SVG/1.1/DTD/svg11.dtd">
<!-- Generated by graphviz version 2.43.0 (0)
 -->
<!-- Title: erpc::MBOXTransport Pages: 1 -->
<svg width="333pt" height="106pt"
 viewBox="0.00 0.00 332.50 106.00" xmlns="http://www.w3.org/2000/svg" xmlns:xlink="http://www.w3.org/1999/xlink">
<g id="graph0" class="graph" transform="scale(1 1) rotate(0) translate(4 102)">
<title>erpc::MBOXTransport</title>
<polygon fill="white" stroke="transparent" points="-4,4 -4,-102 328.5,-102 328.5,4 -4,4"/>
<!-- Node1 -->
<g id="node1" class="node">
<title>Node1</title>
<g id="a_node1"><a xlink:title="Transport to send/receive messages via MBOX.">
<polygon fill="#bfbfbf" stroke="black" points="85,-0.5 85,-19.5 204,-19.5 204,-0.5 85,-0.5"/>
<text text-anchor="middle" x="144.5" y="-7.5" font-family="Helvetica,sans-Serif" font-size="10.00">erpc::MBOXTransport</text>
</a>
</g>
</g>
<!-- Node2 -->
<g id="node2" class="node">
<title>Node2</title>
<g id="a_node2"><a xlink:href="classerpc_1_1_transport.html" target="_top" xlink:title="Abstract interface for transport layer.">
<polygon fill="white" stroke="black" points="0,-78.5 0,-97.5 89,-97.5 89,-78.5 0,-78.5"/>
<text text-anchor="middle" x="44.5" y="-85.5" font-family="Helvetica,sans-Serif" font-size="10.00">erpc::Transport</text>
</a>
</g>
</g>
<!-- Node2&#45;&gt;Node1 -->
<g id="edge1" class="edge">
<title>Node2&#45;&gt;Node1</title>
<path fill="none" stroke="midnightblue" d="M64.04,-72.15C84.63,-56.5 116.36,-32.38 133.16,-19.62"/>
<polygon fill="midnightblue" stroke="midnightblue" points="61.82,-69.44 55.97,-78.28 66.05,-75.02 61.82,-69.44"/>
</g>
<!-- Node3 -->
<g id="node3" class="node">
<title>Node3</title>
<g id="a_node3"><a xlink:href="classerpc_1_1_mutex.html" target="_top" xlink:title="Mutex.">
<polygon fill="white" stroke="black" points="107.5,-78.5 107.5,-97.5 181.5,-97.5 181.5,-78.5 107.5,-78.5"/>
<text text-anchor="middle" x="144.5" y="-85.5" font-family="Helvetica,sans-Serif" font-size="10.00">erpc::Mutex</text>
</a>
</g>
</g>
<!-- Node3&#45;&gt;Node1 -->
<g id="edge2" class="edge">
<title>Node3&#45;&gt;Node1</title>
<path fill="none" stroke="#9a32cd" stroke-dasharray="5,2" d="M144.5,-68.22C144.5,-52.7 144.5,-31.36 144.5,-19.62"/>
<polygon fill="#9a32cd" stroke="#9a32cd" points="141,-68.28 144.5,-78.28 148,-68.28 141,-68.28"/>
<text text-anchor="middle" x="183" y="-52" font-family="Helvetica,sans-Serif" font-size="10.00"> m_receiveLock</text>
<text text-anchor="middle" x="183" y="-41" font-family="Helvetica,sans-Serif" font-size="10.00">m_sendLock</text>
</g>
<!-- Node4 -->
<g id="node4" class="node">
<title>Node4</title>
<g id="a_node4"><a xlink:href="classerpc_1_1_semaphore.html" target="_top" xlink:title="Simple semaphore class.">
<polygon fill="white" stroke="black" points="200,-78.5 200,-97.5 299,-97.5 299,-78.5 200,-78.5"/>
<text text-anchor="middle" x="249.5" y="-85.5" font-family="Helvetica,sans-Serif" font-size="10.00">erpc::Semaphore</text>
</a>
</g>
</g>
<!-- Node4&#45;&gt;Node1 -->
<g id="edge3" class="edge">
<title>Node4&#45;&gt;Node1</title>
<path fill="none" stroke="#9a32cd" stroke-dasharray="5,2" d="M244.44,-68.76C240.73,-58.45 234.71,-46.05 225.5,-38 215.68,-29.41 203.04,-23.54 190.68,-19.53"/>
<polygon fill="#9a32cd" stroke="#9a32cd" points="241.16,-69.99 247.51,-78.48 247.84,-67.89 241.16,-69.99"/>
<text text-anchor="middle" x="282.5" y="-52" font-family="Helvetica,sans-Serif" font-size="10.00"> m_rxSemaphore</text>
<text text-anchor="middle" x="282.5" y="-41" font-family="Helvetica,sans-Serif" font-size="10.00">m_txSemaphore</text>
</g>
</g>
</svg>
