<?xml version="1.0" encoding="UTF-8" standalone="no"?>
<!DOCTYPE svg PUBLIC "-//W3C//DTD SVG 1.1//EN"
 "http://www.w3.org/Graphics/SVG/1.1/DTD/svg11.dtd">
<!-- Generated by graphviz version 2.43.0 (0)
 -->
<!-- Title: erpc::I2cSlaveTransport Pages: 1 -->
<svg width="348pt" height="173pt"
 viewBox="0.00 0.00 347.50 173.00" xmlns="http://www.w3.org/2000/svg" xmlns:xlink="http://www.w3.org/1999/xlink">
<g id="graph0" class="graph" transform="scale(1 1) rotate(0) translate(4 169)">
<title>erpc::I2cSlaveTransport</title>
<polygon fill="white" stroke="transparent" points="-4,4 -4,-169 343.5,-169 343.5,4 -4,4"/>
<!-- Node1 -->
<g id="node1" class="node">
<title>Node1</title>
<g id="a_node1"><a xlink:title="Very basic transport to send/receive messages via I2C.">
<polygon fill="#bfbfbf" stroke="black" points="144,-0.5 144,-19.5 275,-19.5 275,-0.5 144,-0.5"/>
<text text-anchor="middle" x="209.5" y="-7.5" font-family="Helvetica,sans-Serif" font-size="10.00">erpc::I2cSlaveTransport</text>
</a>
</g>
</g>
<!-- Node2 -->
<g id="node2" class="node">
<title>Node2</title>
<g id="a_node2"><a xlink:href="classerpc_1_1_framed_transport.html" target="_top" xlink:title="Base class for framed transport layers.">
<polygon fill="white" stroke="black" points="81.5,-67.5 81.5,-86.5 207.5,-86.5 207.5,-67.5 81.5,-67.5"/>
<text text-anchor="middle" x="144.5" y="-74.5" font-family="Helvetica,sans-Serif" font-size="10.00">erpc::FramedTransport</text>
</a>
</g>
</g>
<!-- Node2&#45;&gt;Node1 -->
<g id="edge1" class="edge">
<title>Node2&#45;&gt;Node1</title>
<path fill="none" stroke="midnightblue" d="M160.5,-60C173.25,-47.25 190.61,-29.89 200.87,-19.63"/>
<polygon fill="midnightblue" stroke="midnightblue" points="157.86,-57.69 153.27,-67.23 162.81,-62.64 157.86,-57.69"/>
</g>
<!-- Node3 -->
<g id="node3" class="node">
<title>Node3</title>
<g id="a_node3"><a xlink:href="classerpc_1_1_transport.html" target="_top" xlink:title="Abstract interface for transport layer.">
<polygon fill="white" stroke="black" points="0,-145.5 0,-164.5 89,-164.5 89,-145.5 0,-145.5"/>
<text text-anchor="middle" x="44.5" y="-152.5" font-family="Helvetica,sans-Serif" font-size="10.00">erpc::Transport</text>
</a>
</g>
</g>
<!-- Node3&#45;&gt;Node2 -->
<g id="edge2" class="edge">
<title>Node3&#45;&gt;Node2</title>
<path fill="none" stroke="midnightblue" d="M64.04,-139.15C84.63,-123.5 116.36,-99.38 133.16,-86.62"/>
<polygon fill="midnightblue" stroke="midnightblue" points="61.82,-136.44 55.97,-145.28 66.05,-142.02 61.82,-136.44"/>
</g>
<!-- Node4 -->
<g id="node4" class="node">
<title>Node4</title>
<g id="a_node4"><a xlink:href="classerpc_1_1_mutex.html" target="_top" xlink:title="Mutex.">
<polygon fill="white" stroke="black" points="107.5,-145.5 107.5,-164.5 181.5,-164.5 181.5,-145.5 107.5,-145.5"/>
<text text-anchor="middle" x="144.5" y="-152.5" font-family="Helvetica,sans-Serif" font-size="10.00">erpc::Mutex</text>
</a>
</g>
</g>
<!-- Node4&#45;&gt;Node2 -->
<g id="edge3" class="edge">
<title>Node4&#45;&gt;Node2</title>
<path fill="none" stroke="#9a32cd" stroke-dasharray="5,2" d="M144.5,-135.22C144.5,-119.7 144.5,-98.36 144.5,-86.62"/>
<polygon fill="#9a32cd" stroke="#9a32cd" points="141,-135.28 144.5,-145.28 148,-135.28 141,-135.28"/>
<text text-anchor="middle" x="183" y="-119" font-family="Helvetica,sans-Serif" font-size="10.00"> m_receiveLock</text>
<text text-anchor="middle" x="183" y="-108" font-family="Helvetica,sans-Serif" font-size="10.00">m_sendLock</text>
</g>
<!-- Node5 -->
<g id="node5" class="node">
<title>Node5</title>
<g id="a_node5"><a xlink:href="classerpc_1_1_crc16.html" target="_top" xlink:title="Class for compute crc16.">
<polygon fill="white" stroke="black" points="209,-145.5 209,-164.5 280,-164.5 280,-145.5 209,-145.5"/>
<text text-anchor="middle" x="244.5" y="-152.5" font-family="Helvetica,sans-Serif" font-size="10.00">erpc::Crc16</text>
</a>
</g>
</g>
<!-- Node5&#45;&gt;Node2 -->
<g id="edge4" class="edge">
<title>Node5&#45;&gt;Node2</title>
<path fill="none" stroke="#9a32cd" stroke-dasharray="5,2" d="M240.08,-135.46C236.78,-125.24 231.28,-113.04 222.5,-105 213.2,-96.49 201.07,-90.64 189.17,-86.62"/>
<polygon fill="#9a32cd" stroke="#9a32cd" points="236.72,-136.44 242.77,-145.13 243.46,-134.56 236.72,-136.44"/>
<text text-anchor="middle" x="265" y="-113.5" font-family="Helvetica,sans-Serif" font-size="10.00"> m_crcImpl</text>
</g>
<!-- Node6 -->
<g id="node6" class="node">
<title>Node6</title>
<g id="a_node6"><a xlink:href="classerpc_1_1_semaphore.html" target="_top" xlink:title="Simple semaphore class.">
<polygon fill="white" stroke="black" points="226,-67.5 226,-86.5 325,-86.5 325,-67.5 226,-67.5"/>
<text text-anchor="middle" x="275.5" y="-74.5" font-family="Helvetica,sans-Serif" font-size="10.00">erpc::Semaphore</text>
</a>
</g>
</g>
<!-- Node6&#45;&gt;Node1 -->
<g id="edge5" class="edge">
<title>Node6&#45;&gt;Node1</title>
<path fill="none" stroke="#9a32cd" stroke-dasharray="5,2" d="M259.25,-60C246.31,-47.25 228.69,-29.89 218.26,-19.63"/>
<polygon fill="#9a32cd" stroke="#9a32cd" points="257.02,-62.71 266.6,-67.23 261.93,-57.72 257.02,-62.71"/>
<text text-anchor="middle" x="292.5" y="-41" font-family="Helvetica,sans-Serif" font-size="10.00"> m_txrxSemaphore</text>
</g>
</g>
</svg>
