<?xml version="1.0" encoding="UTF-8" standalone="no"?>
<!DOCTYPE svg PUBLIC "-//W3C//DTD SVG 1.1//EN"
 "http://www.w3.org/Graphics/SVG/1.1/DTD/svg11.dtd">
<!-- Generated by graphviz version 2.43.0 (0)
 -->
<!-- Title: erpc::RPMsgTransport Pages: 1 -->
<svg width="426pt" height="176pt"
 viewBox="0.00 0.00 426.00 176.00" xmlns="http://www.w3.org/2000/svg" xmlns:xlink="http://www.w3.org/1999/xlink">
<g id="graph0" class="graph" transform="scale(1 1) rotate(0) translate(4 172)">
<title>erpc::RPMsgTransport</title>
<polygon fill="white" stroke="transparent" points="-4,4 -4,-172 422,-172 422,4 -4,4"/>
<!-- Node1 -->
<g id="node1" class="node">
<title>Node1</title>
<g id="a_node1"><a xlink:title="Transport that uses RPMsg zero copy API for interprocessor messaging.">
<polygon fill="#bfbfbf" stroke="black" points="296,-82.5 296,-101.5 418,-101.5 418,-82.5 296,-82.5"/>
<text text-anchor="middle" x="357" y="-89.5" font-family="Helvetica,sans-Serif" font-size="10.00">erpc::RPMsgTransport</text>
</a>
</g>
</g>
<!-- Node2 -->
<g id="node2" class="node">
<title>Node2</title>
<g id="a_node2"><a xlink:href="classerpc_1_1_transport.html" target="_top" xlink:title="Abstract interface for transport layer.">
<polygon fill="white" stroke="black" points="38.5,-148.5 38.5,-167.5 127.5,-167.5 127.5,-148.5 38.5,-148.5"/>
<text text-anchor="middle" x="83" y="-155.5" font-family="Helvetica,sans-Serif" font-size="10.00">erpc::Transport</text>
</a>
</g>
</g>
<!-- Node2&#45;&gt;Node1 -->
<g id="edge1" class="edge">
<title>Node2&#45;&gt;Node1</title>
<path fill="none" stroke="midnightblue" d="M137.75,-148.69C176.92,-141.47 231.1,-130.6 278,-118 295.51,-113.3 314.84,-106.86 329.88,-101.57"/>
<polygon fill="midnightblue" stroke="midnightblue" points="137.09,-145.25 127.88,-150.49 138.35,-152.14 137.09,-145.25"/>
</g>
<!-- Node3 -->
<g id="node3" class="node">
<title>Node3</title>
<g id="a_node3"><a xlink:href="classerpc_1_1_r_p_msg_base.html" target="_top" xlink:title="Transport that other RPMsg transports inherits.">
<polygon fill="white" stroke="black" points="32.5,-110.5 32.5,-129.5 133.5,-129.5 133.5,-110.5 32.5,-110.5"/>
<text text-anchor="middle" x="83" y="-117.5" font-family="Helvetica,sans-Serif" font-size="10.00">erpc::RPMsgBase</text>
</a>
</g>
</g>
<!-- Node3&#45;&gt;Node1 -->
<g id="edge2" class="edge">
<title>Node3&#45;&gt;Node1</title>
<path fill="none" stroke="midnightblue" d="M143.8,-113.84C188.94,-109.2 250.62,-102.85 295.84,-98.19"/>
<polygon fill="midnightblue" stroke="midnightblue" points="143.16,-110.39 133.57,-114.9 143.88,-117.35 143.16,-110.39"/>
</g>
<!-- Node4 -->
<g id="node4" class="node">
<title>Node4</title>
<g id="a_node4"><a xlink:href="classerpc_1_1_static_queue.html" target="_top" xlink:title=" ">
<polygon fill="white" stroke="black" points="0,-39 0,-91 166,-91 166,-39 0,-39"/>
<text text-anchor="start" x="8" y="-79" font-family="Helvetica,sans-Serif" font-size="10.00">erpc::StaticQueue&lt;</text>
<text text-anchor="start" x="8" y="-68" font-family="Helvetica,sans-Serif" font-size="10.00"> erpc::MessageBuffer,</text>
<text text-anchor="start" x="8" y="-57" font-family="Helvetica,sans-Serif" font-size="10.00"> 2U *ERPC_DEFAULT_BUFFERS</text>
<text text-anchor="middle" x="83" y="-46" font-family="Helvetica,sans-Serif" font-size="10.00">_COUNT &gt;</text>
</a>
</g>
</g>
<!-- Node4&#45;&gt;Node1 -->
<g id="edge3" class="edge">
<title>Node4&#45;&gt;Node1</title>
<path fill="none" stroke="#9a32cd" stroke-dasharray="5,2" d="M176.52,-74.18C215.99,-78.1 260.93,-82.56 295.96,-86.04"/>
<polygon fill="#9a32cd" stroke="#9a32cd" points="176.64,-70.68 166.35,-73.17 175.95,-77.64 176.64,-70.68"/>
<text text-anchor="middle" x="231" y="-87" font-family="Helvetica,sans-Serif" font-size="10.00"> m_messageQueue</text>
</g>
<!-- Node5 -->
<g id="node5" class="node">
<title>Node5</title>
<g id="a_node5"><a xlink:href="classerpc_1_1_crc16.html" target="_top" xlink:title="Class for compute crc16.">
<polygon fill="white" stroke="black" points="47.5,-0.5 47.5,-19.5 118.5,-19.5 118.5,-0.5 47.5,-0.5"/>
<text text-anchor="middle" x="83" y="-7.5" font-family="Helvetica,sans-Serif" font-size="10.00">erpc::Crc16</text>
</a>
</g>
</g>
<!-- Node5&#45;&gt;Node1 -->
<g id="edge4" class="edge">
<title>Node5&#45;&gt;Node1</title>
<path fill="none" stroke="#9a32cd" stroke-dasharray="5,2" d="M128.69,-19.56C168.36,-28.5 227.68,-43.01 278,-60 297.55,-66.6 319.23,-75.64 334.76,-82.42"/>
<polygon fill="#9a32cd" stroke="#9a32cd" points="129.31,-16.11 118.79,-17.35 127.79,-22.94 129.31,-16.11"/>
<text text-anchor="middle" x="231" y="-63" font-family="Helvetica,sans-Serif" font-size="10.00"> m_crcImpl</text>
</g>
</g>
</svg>
