<?xml version="1.0" encoding="UTF-8" standalone="no"?>
<!DOCTYPE svg PUBLIC "-//W3C//DTD SVG 1.1//EN"
 "http://www.w3.org/Graphics/SVG/1.1/DTD/svg11.dtd">
<!-- Generated by graphviz version 2.43.0 (0)
 -->
<!-- Title: erpc::MessageLoggers Pages: 1 -->
<svg width="189pt" height="162pt"
 viewBox="0.00 0.00 188.50 162.00" xmlns="http://www.w3.org/2000/svg" xmlns:xlink="http://www.w3.org/1999/xlink">
<g id="graph0" class="graph" transform="scale(1 1) rotate(0) translate(4 158)">
<title>erpc::MessageLoggers</title>
<polygon fill="white" stroke="transparent" points="-4,4 -4,-158 184.5,-158 184.5,4 -4,4"/>
<!-- Node1 -->
<g id="node1" class="node">
<title>Node1</title>
<g id="a_node1"><a xlink:title="Logging messages functionality.">
<polygon fill="#bfbfbf" stroke="black" points="0,-0.5 0,-19.5 125,-19.5 125,-0.5 0,-0.5"/>
<text text-anchor="middle" x="62.5" y="-7.5" font-family="Helvetica,sans-Serif" font-size="10.00">erpc::MessageLoggers</text>
</a>
</g>
</g>
<!-- Node2 -->
<g id="node2" class="node">
<title>Node2</title>
<g id="a_node2"><a xlink:href="classerpc_1_1_message_logger.html" target="_top" xlink:title="Logging messages objects used for logging sent/received messages.">
<polygon fill="white" stroke="black" points="2.5,-67.5 2.5,-86.5 122.5,-86.5 122.5,-67.5 2.5,-67.5"/>
<text text-anchor="middle" x="62.5" y="-74.5" font-family="Helvetica,sans-Serif" font-size="10.00">erpc::MessageLogger</text>
</a>
</g>
</g>
<!-- Node2&#45;&gt;Node1 -->
<g id="edge1" class="edge">
<title>Node2&#45;&gt;Node1</title>
<path fill="none" stroke="#9a32cd" stroke-dasharray="5,2" d="M62.5,-57.04C62.5,-44.67 62.5,-29.12 62.5,-19.63"/>
<polygon fill="#9a32cd" stroke="#9a32cd" points="59,-57.23 62.5,-67.23 66,-57.23 59,-57.23"/>
<text text-anchor="middle" x="87" y="-41" font-family="Helvetica,sans-Serif" font-size="10.00"> m_logger</text>
</g>
<!-- Node2&#45;&gt;Node2 -->
<g id="edge3" class="edge">
<title>Node2&#45;&gt;Node2</title>
<path fill="none" stroke="#9a32cd" stroke-dasharray="5,2" d="M132.93,-81.31C137.64,-80.31 140.5,-78.88 140.5,-77 140.5,-74 133.19,-72.12 122.68,-71.38"/>
<polygon fill="#9a32cd" stroke="#9a32cd" points="132.15,-77.88 122.68,-82.62 133.04,-84.82 132.15,-77.88"/>
<text text-anchor="middle" x="160.5" y="-74.5" font-family="Helvetica,sans-Serif" font-size="10.00"> m_next</text>
</g>
<!-- Node3 -->
<g id="node3" class="node">
<title>Node3</title>
<g id="a_node3"><a xlink:href="classerpc_1_1_transport.html" target="_top" xlink:title="Abstract interface for transport layer.">
<polygon fill="white" stroke="black" points="18,-134.5 18,-153.5 107,-153.5 107,-134.5 18,-134.5"/>
<text text-anchor="middle" x="62.5" y="-141.5" font-family="Helvetica,sans-Serif" font-size="10.00">erpc::Transport</text>
</a>
</g>
</g>
<!-- Node3&#45;&gt;Node2 -->
<g id="edge2" class="edge">
<title>Node3&#45;&gt;Node2</title>
<path fill="none" stroke="#9a32cd" stroke-dasharray="5,2" d="M62.5,-124.04C62.5,-111.67 62.5,-96.12 62.5,-86.63"/>
<polygon fill="#9a32cd" stroke="#9a32cd" points="59,-124.23 62.5,-134.23 66,-124.23 59,-124.23"/>
<text text-anchor="middle" x="94" y="-108" font-family="Helvetica,sans-Serif" font-size="10.00"> m_transport</text>
</g>
</g>
</svg>
