<?xml version="1.0" encoding="UTF-8" standalone="no"?>
<!DOCTYPE svg PUBLIC "-//W3C//DTD SVG 1.1//EN"
 "http://www.w3.org/Graphics/SVG/1.1/DTD/svg11.dtd">
<!-- Generated by graphviz version 2.43.0 (0)
 -->
<!-- Title: erpc::ArbitratedClientManager Pages: 1 -->
<svg width="1327pt" height="307pt"
 viewBox="0.00 0.00 1327.00 306.50" xmlns="http://www.w3.org/2000/svg" xmlns:xlink="http://www.w3.org/1999/xlink">
<g id="graph0" class="graph" transform="scale(1 1) rotate(0) translate(4 302.5)">
<title>erpc::ArbitratedClientManager</title>
<polygon fill="white" stroke="transparent" points="-4,4 -4,-302.5 1323,-302.5 1323,4 -4,4"/>
<!-- Node1 -->
<g id="node1" class="node">
<title>Node1</title>
<g id="a_node1"><a xlink:title="Client that can share a transport with a server.">
<polygon fill="#bfbfbf" stroke="black" points="1155,-154 1155,-173 1319,-173 1319,-154 1155,-154"/>
<text text-anchor="middle" x="1237" y="-161" font-family="Helvetica,sans-Serif" font-size="10.00">erpc::ArbitratedClientManager</text>
</a>
</g>
</g>
<!-- Node2 -->
<g id="node2" class="node">
<title>Node2</title>
<g id="a_node2"><a xlink:href="classerpc_1_1_client_manager.html" target="_top" xlink:title="Base client implementation.">
<polygon fill="white" stroke="black" points="1003,-208 1003,-227 1118,-227 1118,-208 1003,-208"/>
<text text-anchor="middle" x="1060.5" y="-215" font-family="Helvetica,sans-Serif" font-size="10.00">erpc::ClientManager</text>
</a>
</g>
</g>
<!-- Node2&#45;&gt;Node1 -->
<g id="edge1" class="edge">
<title>Node2&#45;&gt;Node1</title>
<path fill="none" stroke="midnightblue" d="M1102.08,-204.94C1133.56,-195.2 1176.53,-181.9 1205.22,-173.03"/>
<polygon fill="midnightblue" stroke="midnightblue" points="1100.81,-201.67 1092.3,-207.97 1102.88,-208.36 1100.81,-201.67"/>
</g>
<!-- Node3 -->
<g id="node3" class="node">
<title>Node3</title>
<g id="a_node3"><a xlink:href="classerpc_1_1_client_server_common.html" target="_top" xlink:title="Common class inherited by client and server class.">
<polygon fill="white" stroke="black" points="818,-224 818,-243 966,-243 966,-224 818,-224"/>
<text text-anchor="middle" x="892" y="-231" font-family="Helvetica,sans-Serif" font-size="10.00">erpc::ClientServerCommon</text>
</a>
</g>
</g>
<!-- Node3&#45;&gt;Node2 -->
<g id="edge2" class="edge">
<title>Node3&#45;&gt;Node2</title>
<path fill="none" stroke="midnightblue" d="M976.18,-225.51C985.19,-224.64 994.21,-223.77 1002.8,-222.95"/>
<polygon fill="midnightblue" stroke="midnightblue" points="975.65,-222.04 966.03,-226.48 976.32,-229.01 975.65,-222.04"/>
</g>
<!-- Node4 -->
<g id="node4" class="node">
<title>Node4</title>
<g id="a_node4"><a xlink:href="classerpc_1_1_codec_factory.html" target="_top" xlink:title="Abstract interface for codec factory.">
<polygon fill="white" stroke="black" points="551.5,-279 551.5,-298 661.5,-298 661.5,-279 551.5,-279"/>
<text text-anchor="middle" x="606.5" y="-286" font-family="Helvetica,sans-Serif" font-size="10.00">erpc::CodecFactory</text>
</a>
</g>
</g>
<!-- Node4&#45;&gt;Node3 -->
<g id="edge3" class="edge">
<title>Node4&#45;&gt;Node3</title>
<path fill="none" stroke="#9a32cd" stroke-dasharray="5,2" d="M672.07,-280.88C709.62,-275.93 757.74,-268.68 800,-259.5 820.71,-255 843.66,-248.43 861.33,-243.03"/>
<polygon fill="#9a32cd" stroke="#9a32cd" points="671.24,-277.46 661.77,-282.22 672.14,-284.4 671.24,-277.46"/>
<text text-anchor="middle" x="750.5" y="-278.5" font-family="Helvetica,sans-Serif" font-size="10.00"> m_codecFactory</text>
</g>
<!-- Node5 -->
<g id="node5" class="node">
<title>Node5</title>
<g id="a_node5"><a xlink:href="classerpc_1_1_transport.html" target="_top" xlink:title="Abstract interface for transport layer.">
<polygon fill="white" stroke="black" points="562,-174 562,-193 651,-193 651,-174 562,-174"/>
<text text-anchor="middle" x="606.5" y="-181" font-family="Helvetica,sans-Serif" font-size="10.00">erpc::Transport</text>
</a>
</g>
</g>
<!-- Node5&#45;&gt;Node3 -->
<g id="edge4" class="edge">
<title>Node5&#45;&gt;Node3</title>
<path fill="none" stroke="#9a32cd" stroke-dasharray="5,2" d="M661.23,-192.98C711.64,-201.87 786.63,-215.09 837.09,-223.99"/>
<polygon fill="#9a32cd" stroke="#9a32cd" points="661.63,-189.49 651.18,-191.2 660.42,-196.39 661.63,-189.49"/>
<text text-anchor="middle" x="750.5" y="-219.5" font-family="Helvetica,sans-Serif" font-size="10.00"> m_transport</text>
</g>
<!-- Node7 -->
<g id="node7" class="node">
<title>Node7</title>
<g id="a_node7"><a xlink:href="classerpc_1_1_transport_arbitrator.html" target="_top" xlink:title="Interposer to share transport between client and server.">
<polygon fill="white" stroke="black" points="824,-121 824,-140 960,-140 960,-121 824,-121"/>
<text text-anchor="middle" x="892" y="-128" font-family="Helvetica,sans-Serif" font-size="10.00">erpc::TransportArbitrator</text>
</a>
</g>
</g>
<!-- Node5&#45;&gt;Node7 -->
<g id="edge7" class="edge">
<title>Node5&#45;&gt;Node7</title>
<path fill="none" stroke="midnightblue" d="M661.42,-184.33C700.43,-183.78 754.12,-180.67 800,-169.5 826.72,-163 855.59,-149.39 873.48,-140.1"/>
<polygon fill="midnightblue" stroke="midnightblue" points="661.3,-180.83 651.33,-184.41 661.36,-187.83 661.3,-180.83"/>
</g>
<!-- Node5&#45;&gt;Node7 -->
<g id="edge11" class="edge">
<title>Node5&#45;&gt;Node7</title>
<path fill="none" stroke="#9a32cd" stroke-dasharray="5,2" d="M646.62,-170.83C663.24,-165.81 682.93,-160.32 701,-156.5 741.39,-147.95 787.23,-141.58 823.76,-137.29"/>
<polygon fill="#9a32cd" stroke="#9a32cd" points="645.23,-167.6 636.7,-173.88 647.29,-174.29 645.23,-167.6"/>
<text text-anchor="middle" x="750.5" y="-159.5" font-family="Helvetica,sans-Serif" font-size="10.00"> m_sharedTransport</text>
</g>
<!-- Node6 -->
<g id="node6" class="node">
<title>Node6</title>
<g id="a_node6"><a xlink:href="classerpc_1_1_message_buffer_factory.html" target="_top" xlink:title="Abstract interface for message buffer factory.">
<polygon fill="white" stroke="black" points="530,-241 530,-260 683,-260 683,-241 530,-241"/>
<text text-anchor="middle" x="606.5" y="-248" font-family="Helvetica,sans-Serif" font-size="10.00">erpc::MessageBufferFactory</text>
</a>
</g>
</g>
<!-- Node6&#45;&gt;Node3 -->
<g id="edge5" class="edge">
<title>Node6&#45;&gt;Node3</title>
<path fill="none" stroke="#9a32cd" stroke-dasharray="5,2" d="M693.29,-245.36C732.95,-242.98 779.56,-240.18 817.57,-237.9"/>
<polygon fill="#9a32cd" stroke="#9a32cd" points="692.87,-241.87 683.1,-245.97 693.29,-248.86 692.87,-241.87"/>
<text text-anchor="middle" x="750.5" y="-247.5" font-family="Helvetica,sans-Serif" font-size="10.00"> m_messageFactory</text>
</g>
<!-- Node7&#45;&gt;Node1 -->
<g id="edge6" class="edge">
<title>Node7&#45;&gt;Node1</title>
<path fill="none" stroke="#9a32cd" stroke-dasharray="5,2" d="M970.4,-137.95C1025.4,-143.24 1099.1,-150.33 1154.91,-155.7"/>
<polygon fill="#9a32cd" stroke="#9a32cd" points="970.65,-134.45 960.36,-136.98 969.98,-141.42 970.65,-134.45"/>
<text text-anchor="middle" x="1060.5" y="-154.5" font-family="Helvetica,sans-Serif" font-size="10.00"> m_arbitrator</text>
</g>
<!-- Node8 -->
<g id="node8" class="node">
<title>Node8</title>
<g id="a_node8"><a xlink:href="classerpc_1_1_mutex.html" target="_top" xlink:title="Mutex.">
<polygon fill="white" stroke="black" points="569.5,-117 569.5,-136 643.5,-136 643.5,-117 569.5,-117"/>
<text text-anchor="middle" x="606.5" y="-124" font-family="Helvetica,sans-Serif" font-size="10.00">erpc::Mutex</text>
</a>
</g>
</g>
<!-- Node8&#45;&gt;Node7 -->
<g id="edge8" class="edge">
<title>Node8&#45;&gt;Node7</title>
<path fill="none" stroke="#9a32cd" stroke-dasharray="5,2" d="M653.7,-124.9C692.7,-123.82 750.02,-122.85 800,-124.5 807.75,-124.76 815.87,-125.13 823.93,-125.58"/>
<polygon fill="#9a32cd" stroke="#9a32cd" points="653.59,-121.4 643.7,-125.19 653.8,-128.4 653.59,-121.4"/>
<text text-anchor="middle" x="750.5" y="-127.5" font-family="Helvetica,sans-Serif" font-size="10.00"> m_clientListMutex</text>
</g>
<!-- Node9 -->
<g id="node9" class="node">
<title>Node9</title>
<g id="a_node9"><a xlink:href="classerpc_1_1_codec.html" target="_top" xlink:title="Abstract serialization encoder/decoder interface.">
<polygon fill="white" stroke="black" points="160,-41 160,-60 234,-60 234,-41 160,-41"/>
<text text-anchor="middle" x="197" y="-48" font-family="Helvetica,sans-Serif" font-size="10.00">erpc::Codec</text>
</a>
</g>
</g>
<!-- Node9&#45;&gt;Node7 -->
<g id="edge9" class="edge">
<title>Node9&#45;&gt;Node7</title>
<path fill="none" stroke="#9a32cd" stroke-dasharray="5,2" d="M244.19,-58.48C266.2,-62.13 292.92,-66.33 317,-69.5 530.97,-97.64 585.53,-95.44 800,-119.5 807.75,-120.37 815.87,-121.31 823.93,-122.26"/>
<polygon fill="#9a32cd" stroke="#9a32cd" points="244.56,-55 234.12,-56.8 243.4,-61.9 244.56,-55"/>
<text text-anchor="middle" x="484.5" y="-95.5" font-family="Helvetica,sans-Serif" font-size="10.00"> m_codec</text>
</g>
<!-- Node13 -->
<g id="node13" class="node">
<title>Node13</title>
<g id="a_node13"><a xlink:href="classerpc_1_1_request_context.html" target="_top" xlink:title="Encapsulates all information about a request.">
<polygon fill="white" stroke="black" points="317,-3 317,-22 439,-22 439,-3 317,-3"/>
<text text-anchor="middle" x="378" y="-10" font-family="Helvetica,sans-Serif" font-size="10.00">erpc::RequestContext</text>
</a>
</g>
</g>
<!-- Node9&#45;&gt;Node13 -->
<g id="edge16" class="edge">
<title>Node9&#45;&gt;Node13</title>
<path fill="none" stroke="#9a32cd" stroke-dasharray="5,2" d="M244.2,-40.69C271.2,-34.96 305.13,-27.76 331.93,-22.07"/>
<polygon fill="#9a32cd" stroke="#9a32cd" points="243.28,-37.31 234.22,-42.81 244.73,-44.16 243.28,-37.31"/>
<text text-anchor="middle" x="275.5" y="-41.5" font-family="Helvetica,sans-Serif" font-size="10.00"> m_codec</text>
</g>
<!-- Node10 -->
<g id="node10" class="node">
<title>Node10</title>
<g id="a_node10"><a xlink:href="classerpc_1_1_cursor.html" target="_top" xlink:title="Cursor within a MessageBuffer.">
<polygon fill="white" stroke="black" points="0,-41 0,-60 75,-60 75,-41 0,-41"/>
<text text-anchor="middle" x="37.5" y="-48" font-family="Helvetica,sans-Serif" font-size="10.00">erpc::Cursor</text>
</a>
</g>
</g>
<!-- Node10&#45;&gt;Node9 -->
<g id="edge10" class="edge">
<title>Node10&#45;&gt;Node9</title>
<path fill="none" stroke="#9a32cd" stroke-dasharray="5,2" d="M85.29,-50.5C109.17,-50.5 137.79,-50.5 159.94,-50.5"/>
<polygon fill="#9a32cd" stroke="#9a32cd" points="85.03,-47 75.03,-50.5 85.03,-54 85.03,-47"/>
<text text-anchor="middle" x="117.5" y="-53.5" font-family="Helvetica,sans-Serif" font-size="10.00"> m_cursor</text>
</g>
<!-- Node11 -->
<g id="node11" class="node">
<title>Node11</title>
<g id="a_node11"><a xlink:href="structerpc_1_1_transport_arbitrator_1_1_pending_client_info.html" target="_top" xlink:title="Request info for a client trying to receive a response.">
<polygon fill="white" stroke="black" points="538.5,-0.5 538.5,-30.5 674.5,-30.5 674.5,-0.5 538.5,-0.5"/>
<text text-anchor="start" x="546.5" y="-18.5" font-family="Helvetica,sans-Serif" font-size="10.00">erpc::TransportArbitrator</text>
<text text-anchor="middle" x="606.5" y="-7.5" font-family="Helvetica,sans-Serif" font-size="10.00">::PendingClientInfo</text>
</a>
</g>
</g>
<!-- Node11&#45;&gt;Node7 -->
<g id="edge12" class="edge">
<title>Node11&#45;&gt;Node7</title>
<path fill="none" stroke="#9a32cd" stroke-dasharray="5,2" d="M684.83,-21.14C721.18,-26.06 764.27,-35.27 800,-52.5 835.42,-69.58 868.14,-103.95 882.84,-120.78"/>
<polygon fill="#9a32cd" stroke="#9a32cd" points="685.13,-17.65 674.77,-19.86 684.25,-24.6 685.13,-17.65"/>
<text text-anchor="middle" x="750.5" y="-66.5" font-family="Helvetica,sans-Serif" font-size="10.00"> m_clientFreeList</text>
<text text-anchor="middle" x="750.5" y="-55.5" font-family="Helvetica,sans-Serif" font-size="10.00">m_clientList</text>
</g>
<!-- Node11&#45;&gt;Node11 -->
<g id="edge14" class="edge">
<title>Node11&#45;&gt;Node11</title>
<path fill="none" stroke="#9a32cd" stroke-dasharray="5,2" d="M584.82,-40.96C587.51,-45.68 594.74,-49 606.5,-49 625.8,-49 632.89,-40.06 627.76,-30.66"/>
<polygon fill="#9a32cd" stroke="#9a32cd" points="588.33,-40.79 585.24,-30.66 581.34,-40.51 588.33,-40.79"/>
<text text-anchor="middle" x="606.5" y="-52" font-family="Helvetica,sans-Serif" font-size="10.00"> m_next</text>
</g>
<!-- Node12 -->
<g id="node12" class="node">
<title>Node12</title>
<g id="a_node12"><a xlink:href="classerpc_1_1_semaphore.html" target="_top" xlink:title="Simple semaphore class.">
<polygon fill="white" stroke="black" points="328.5,-41 328.5,-60 427.5,-60 427.5,-41 328.5,-41"/>
<text text-anchor="middle" x="378" y="-48" font-family="Helvetica,sans-Serif" font-size="10.00">erpc::Semaphore</text>
</a>
</g>
</g>
<!-- Node12&#45;&gt;Node11 -->
<g id="edge13" class="edge">
<title>Node12&#45;&gt;Node11</title>
<path fill="none" stroke="#9a32cd" stroke-dasharray="5,2" d="M437.72,-41.43C468.44,-36.68 506.18,-30.85 538.09,-25.92"/>
<polygon fill="#9a32cd" stroke="#9a32cd" points="436.94,-38.01 427.59,-42.99 438.01,-44.92 436.94,-38.01"/>
<text text-anchor="middle" x="484.5" y="-41.5" font-family="Helvetica,sans-Serif" font-size="10.00"> m_sem</text>
</g>
<!-- Node13&#45;&gt;Node11 -->
<g id="edge15" class="edge">
<title>Node13&#45;&gt;Node11</title>
<path fill="none" stroke="#9a32cd" stroke-dasharray="5,2" d="M449.35,-13.43C477.71,-13.81 510.29,-14.24 538.32,-14.61"/>
<polygon fill="#9a32cd" stroke="#9a32cd" points="449.15,-9.93 439.1,-13.3 449.06,-16.93 449.15,-9.93"/>
<text text-anchor="middle" x="484.5" y="-17.5" font-family="Helvetica,sans-Serif" font-size="10.00"> m_request</text>
</g>
</g>
</svg>
