<?xml version="1.0" encoding="UTF-8" standalone="no"?>
<!DOCTYPE svg PUBLIC "-//W3C//DTD SVG 1.1//EN"
 "http://www.w3.org/Graphics/SVG/1.1/DTD/svg11.dtd">
<!-- Generated by graphviz version 2.43.0 (0)
 -->
<!-- Title: erpc::ClientServerCommon Pages: 1 -->
<svg width="300pt" height="140pt"
 viewBox="0.00 0.00 299.50 140.00" xmlns="http://www.w3.org/2000/svg" xmlns:xlink="http://www.w3.org/1999/xlink">
<g id="graph0" class="graph" transform="scale(1 1) rotate(0) translate(4 136)">
<title>erpc::ClientServerCommon</title>
<polygon fill="white" stroke="transparent" points="-4,4 -4,-136 295.5,-136 295.5,4 -4,4"/>
<!-- Node1 -->
<g id="node1" class="node">
<title>Node1</title>
<g id="a_node1"><a xlink:title="Common class inherited by client and server class.">
<polygon fill="#bfbfbf" stroke="black" points="85,-112.5 85,-131.5 233,-131.5 233,-112.5 85,-112.5"/>
<text text-anchor="middle" x="159" y="-119.5" font-family="Helvetica,sans-Serif" font-size="10.00">erpc::ClientServerCommon</text>
</a>
</g>
</g>
<!-- Node2 -->
<g id="node2" class="node">
<title>Node2</title>
<g id="a_node2"><a xlink:href="classerpc_1_1_client_manager.html" target="_top" xlink:title="Base client implementation.">
<polygon fill="white" stroke="black" points="45.5,-56.5 45.5,-75.5 160.5,-75.5 160.5,-56.5 45.5,-56.5"/>
<text text-anchor="middle" x="103" y="-63.5" font-family="Helvetica,sans-Serif" font-size="10.00">erpc::ClientManager</text>
</a>
</g>
</g>
<!-- Node1&#45;&gt;Node2 -->
<g id="edge1" class="edge">
<title>Node1&#45;&gt;Node2</title>
<path fill="none" stroke="midnightblue" d="M142.67,-105.25C132.74,-95.67 120.41,-83.79 112.16,-75.83"/>
<polygon fill="midnightblue" stroke="midnightblue" points="140.37,-107.9 150,-112.32 145.23,-102.86 140.37,-107.9"/>
</g>
<!-- Node4 -->
<g id="node4" class="node">
<title>Node4</title>
<g id="a_node4"><a xlink:href="classerpc_1_1_server.html" target="_top" xlink:title="Based server functionality.">
<polygon fill="white" stroke="black" points="188.5,-56.5 188.5,-75.5 263.5,-75.5 263.5,-56.5 188.5,-56.5"/>
<text text-anchor="middle" x="226" y="-63.5" font-family="Helvetica,sans-Serif" font-size="10.00">erpc::Server</text>
</a>
</g>
</g>
<!-- Node1&#45;&gt;Node4 -->
<g id="edge3" class="edge">
<title>Node1&#45;&gt;Node4</title>
<path fill="none" stroke="midnightblue" d="M177.83,-105.82C189.84,-96.15 204.97,-83.95 215.04,-75.83"/>
<polygon fill="midnightblue" stroke="midnightblue" points="175.35,-103.32 169.76,-112.32 179.75,-108.77 175.35,-103.32"/>
</g>
<!-- Node3 -->
<g id="node3" class="node">
<title>Node3</title>
<g id="a_node3"><a xlink:href="classerpc_1_1_arbitrated_client_manager.html" target="_top" xlink:title="Client that can share a transport with a server.">
<polygon fill="white" stroke="black" points="0,-0.5 0,-19.5 164,-19.5 164,-0.5 0,-0.5"/>
<text text-anchor="middle" x="82" y="-7.5" font-family="Helvetica,sans-Serif" font-size="10.00">erpc::ArbitratedClientManager</text>
</a>
</g>
</g>
<!-- Node2&#45;&gt;Node3 -->
<g id="edge2" class="edge">
<title>Node2&#45;&gt;Node3</title>
<path fill="none" stroke="midnightblue" d="M95.88,-46.69C92.34,-37.59 88.23,-27.01 85.4,-19.75"/>
<polygon fill="midnightblue" stroke="midnightblue" points="92.65,-48.03 99.53,-56.08 99.17,-45.49 92.65,-48.03"/>
</g>
<!-- Node5 -->
<g id="node5" class="node">
<title>Node5</title>
<g id="a_node5"><a xlink:href="classerpc_1_1_simple_server.html" target="_top" xlink:title="Based server implementation.">
<polygon fill="white" stroke="black" points="182.5,-0.5 182.5,-19.5 291.5,-19.5 291.5,-0.5 182.5,-0.5"/>
<text text-anchor="middle" x="237" y="-7.5" font-family="Helvetica,sans-Serif" font-size="10.00">erpc::SimpleServer</text>
</a>
</g>
</g>
<!-- Node4&#45;&gt;Node5 -->
<g id="edge4" class="edge">
<title>Node4&#45;&gt;Node5</title>
<path fill="none" stroke="midnightblue" d="M229.85,-46.1C231.68,-37.14 233.77,-26.86 235.22,-19.75"/>
<polygon fill="midnightblue" stroke="midnightblue" points="226.38,-45.59 227.82,-56.08 233.24,-46.98 226.38,-45.59"/>
</g>
</g>
</svg>
