<?xml version="1.0" encoding="UTF-8" standalone="no"?>
<!DOCTYPE svg PUBLIC "-//W3C//DTD SVG 1.1//EN"
 "http://www.w3.org/Graphics/SVG/1.1/DTD/svg11.dtd">
<!-- Generated by graphviz version 2.43.0 (0)
 -->
<!-- Title: erpc::TransportArbitrator Pages: 1 -->
<svg width="943pt" height="180pt"
 viewBox="0.00 0.00 943.00 179.97" xmlns="http://www.w3.org/2000/svg" xmlns:xlink="http://www.w3.org/1999/xlink">
<g id="graph0" class="graph" transform="scale(1 1) rotate(0) translate(4 175.97)">
<title>erpc::TransportArbitrator</title>
<polygon fill="white" stroke="transparent" points="-4,4 -4,-175.97 939,-175.97 939,4 -4,4"/>
<!-- Node1 -->
<g id="node1" class="node">
<title>Node1</title>
<g id="a_node1"><a xlink:title="Interposer to share transport between client and server.">
<polygon fill="#bfbfbf" stroke="black" points="799,-98.47 799,-117.47 935,-117.47 935,-98.47 799,-98.47"/>
<text text-anchor="middle" x="867" y="-105.47" font-family="Helvetica,sans-Serif" font-size="10.00">erpc::TransportArbitrator</text>
</a>
</g>
</g>
<!-- Node2 -->
<g id="node2" class="node">
<title>Node2</title>
<g id="a_node2"><a xlink:href="classerpc_1_1_transport.html" target="_top" xlink:title="Abstract interface for transport layer.">
<polygon fill="white" stroke="black" points="553.5,-152.47 553.5,-171.47 642.5,-171.47 642.5,-152.47 553.5,-152.47"/>
<text text-anchor="middle" x="598" y="-159.47" font-family="Helvetica,sans-Serif" font-size="10.00">erpc::Transport</text>
</a>
</g>
</g>
<!-- Node2&#45;&gt;Node1 -->
<g id="edge1" class="edge">
<title>Node2&#45;&gt;Node1</title>
<path fill="none" stroke="midnightblue" d="M652.8,-151.09C701.36,-141.27 772.1,-126.96 818.58,-117.56"/>
<polygon fill="midnightblue" stroke="midnightblue" points="651.9,-147.7 642.79,-153.11 653.29,-154.56 651.9,-147.7"/>
</g>
<!-- Node2&#45;&gt;Node1 -->
<g id="edge5" class="edge">
<title>Node2&#45;&gt;Node1</title>
<path fill="none" stroke="#9a32cd" stroke-dasharray="5,2" d="M653.14,-161.39C689.75,-159.91 738.9,-155.8 781,-144.97 805.32,-138.71 831.56,-126.34 848.35,-117.63"/>
<polygon fill="#9a32cd" stroke="#9a32cd" points="652.56,-157.91 642.69,-161.75 652.8,-164.9 652.56,-157.91"/>
<text text-anchor="middle" x="732.5" y="-161.97" font-family="Helvetica,sans-Serif" font-size="10.00"> m_sharedTransport</text>
</g>
<!-- Node3 -->
<g id="node3" class="node">
<title>Node3</title>
<g id="a_node3"><a xlink:href="classerpc_1_1_mutex.html" target="_top" xlink:title="Mutex.">
<polygon fill="white" stroke="black" points="561,-104.47 561,-123.47 635,-123.47 635,-104.47 561,-104.47"/>
<text text-anchor="middle" x="598" y="-111.47" font-family="Helvetica,sans-Serif" font-size="10.00">erpc::Mutex</text>
</a>
</g>
</g>
<!-- Node3&#45;&gt;Node1 -->
<g id="edge2" class="edge">
<title>Node3&#45;&gt;Node1</title>
<path fill="none" stroke="#9a32cd" stroke-dasharray="5,2" d="M645.58,-110.78C658.05,-110.05 671.53,-109.37 684,-108.97 722.06,-107.75 764.61,-107.45 799,-107.49"/>
<polygon fill="#9a32cd" stroke="#9a32cd" points="645.15,-107.3 635.38,-111.4 645.57,-114.29 645.15,-107.3"/>
<text text-anchor="middle" x="732.5" y="-111.97" font-family="Helvetica,sans-Serif" font-size="10.00"> m_clientListMutex</text>
</g>
<!-- Node4 -->
<g id="node4" class="node">
<title>Node4</title>
<g id="a_node4"><a xlink:href="classerpc_1_1_codec.html" target="_top" xlink:title="Abstract serialization encoder/decoder interface.">
<polygon fill="white" stroke="black" points="160,-3.47 160,-22.47 234,-22.47 234,-3.47 160,-3.47"/>
<text text-anchor="middle" x="197" y="-10.47" font-family="Helvetica,sans-Serif" font-size="10.00">erpc::Codec</text>
</a>
</g>
</g>
<!-- Node4&#45;&gt;Node1 -->
<g id="edge3" class="edge">
<title>Node4&#45;&gt;Node1</title>
<path fill="none" stroke="#9a32cd" stroke-dasharray="5,2" d="M244.17,-8.54C328.59,-1.48 513.22,9.12 666,-15.97 719.12,-24.69 732.36,-30.92 781,-53.97 808.02,-66.77 836.87,-86.57 853.05,-98.3"/>
<polygon fill="#9a32cd" stroke="#9a32cd" points="243.8,-5.06 234.14,-9.4 244.4,-12.03 243.8,-5.06"/>
<text text-anchor="middle" x="484.5" y="-4.97" font-family="Helvetica,sans-Serif" font-size="10.00"> m_codec</text>
</g>
<!-- Node8 -->
<g id="node8" class="node">
<title>Node8</title>
<g id="a_node8"><a xlink:href="classerpc_1_1_request_context.html" target="_top" xlink:title="Encapsulates all information about a request.">
<polygon fill="white" stroke="black" points="317,-63.47 317,-82.47 439,-82.47 439,-63.47 317,-63.47"/>
<text text-anchor="middle" x="378" y="-70.47" font-family="Helvetica,sans-Serif" font-size="10.00">erpc::RequestContext</text>
</a>
</g>
</g>
<!-- Node4&#45;&gt;Node8 -->
<g id="edge10" class="edge">
<title>Node4&#45;&gt;Node8</title>
<path fill="none" stroke="#9a32cd" stroke-dasharray="5,2" d="M234.91,-25.95C258.36,-34.14 289.41,-44.85 317,-53.97 326.54,-57.13 336.98,-60.47 346.43,-63.45"/>
<polygon fill="#9a32cd" stroke="#9a32cd" points="235.94,-22.61 225.35,-22.61 233.63,-29.22 235.94,-22.61"/>
<text text-anchor="middle" x="275.5" y="-49.97" font-family="Helvetica,sans-Serif" font-size="10.00"> m_codec</text>
</g>
<!-- Node5 -->
<g id="node5" class="node">
<title>Node5</title>
<g id="a_node5"><a xlink:href="classerpc_1_1_cursor.html" target="_top" xlink:title="Cursor within a MessageBuffer.">
<polygon fill="white" stroke="black" points="0,-3.47 0,-22.47 75,-22.47 75,-3.47 0,-3.47"/>
<text text-anchor="middle" x="37.5" y="-10.47" font-family="Helvetica,sans-Serif" font-size="10.00">erpc::Cursor</text>
</a>
</g>
</g>
<!-- Node5&#45;&gt;Node4 -->
<g id="edge4" class="edge">
<title>Node5&#45;&gt;Node4</title>
<path fill="none" stroke="#9a32cd" stroke-dasharray="5,2" d="M85.29,-12.97C109.17,-12.97 137.79,-12.97 159.94,-12.97"/>
<polygon fill="#9a32cd" stroke="#9a32cd" points="85.03,-9.47 75.03,-12.97 85.03,-16.47 85.03,-9.47"/>
<text text-anchor="middle" x="117.5" y="-15.97" font-family="Helvetica,sans-Serif" font-size="10.00"> m_cursor</text>
</g>
<!-- Node6 -->
<g id="node6" class="node">
<title>Node6</title>
<g id="a_node6"><a xlink:href="structerpc_1_1_transport_arbitrator_1_1_pending_client_info.html" target="_top" xlink:title="Request info for a client trying to receive a response.">
<polygon fill="white" stroke="black" points="530,-25.97 530,-55.97 666,-55.97 666,-25.97 530,-25.97"/>
<text text-anchor="start" x="538" y="-43.97" font-family="Helvetica,sans-Serif" font-size="10.00">erpc::TransportArbitrator</text>
<text text-anchor="middle" x="598" y="-32.97" font-family="Helvetica,sans-Serif" font-size="10.00">::PendingClientInfo</text>
</a>
</g>
</g>
<!-- Node6&#45;&gt;Node1 -->
<g id="edge6" class="edge">
<title>Node6&#45;&gt;Node1</title>
<path fill="none" stroke="#9a32cd" stroke-dasharray="5,2" d="M676.24,-56.32C708.75,-63.2 746.88,-71.82 781,-80.97 800.29,-86.14 821.72,-92.96 838.24,-98.45"/>
<polygon fill="#9a32cd" stroke="#9a32cd" points="676.85,-52.87 666.34,-54.24 675.41,-59.72 676.85,-52.87"/>
<text text-anchor="middle" x="732.5" y="-94.97" font-family="Helvetica,sans-Serif" font-size="10.00"> m_clientFreeList</text>
<text text-anchor="middle" x="732.5" y="-83.97" font-family="Helvetica,sans-Serif" font-size="10.00">m_clientList</text>
</g>
<!-- Node6&#45;&gt;Node6 -->
<g id="edge8" class="edge">
<title>Node6&#45;&gt;Node6</title>
<path fill="none" stroke="#9a32cd" stroke-dasharray="5,2" d="M578.1,-66.43C580.57,-71.15 587.2,-74.47 598,-74.47 615.72,-74.47 622.22,-65.53 617.52,-56.13"/>
<polygon fill="#9a32cd" stroke="#9a32cd" points="581.61,-66.25 578.48,-56.13 574.61,-65.99 581.61,-66.25"/>
<text text-anchor="middle" x="598" y="-77.47" font-family="Helvetica,sans-Serif" font-size="10.00"> m_next</text>
</g>
<!-- Node7 -->
<g id="node7" class="node">
<title>Node7</title>
<g id="a_node7"><a xlink:href="classerpc_1_1_semaphore.html" target="_top" xlink:title="Simple semaphore class.">
<polygon fill="white" stroke="black" points="328.5,-25.47 328.5,-44.47 427.5,-44.47 427.5,-25.47 328.5,-25.47"/>
<text text-anchor="middle" x="378" y="-32.47" font-family="Helvetica,sans-Serif" font-size="10.00">erpc::Semaphore</text>
</a>
</g>
</g>
<!-- Node7&#45;&gt;Node6 -->
<g id="edge7" class="edge">
<title>Node7&#45;&gt;Node6</title>
<path fill="none" stroke="#9a32cd" stroke-dasharray="5,2" d="M437.66,-36.13C460.82,-36.63 487.67,-37.27 512,-37.97 517.76,-38.14 523.73,-38.32 529.73,-38.52"/>
<polygon fill="#9a32cd" stroke="#9a32cd" points="437.72,-32.63 427.64,-35.92 437.57,-39.63 437.72,-32.63"/>
<text text-anchor="middle" x="484.5" y="-40.97" font-family="Helvetica,sans-Serif" font-size="10.00"> m_sem</text>
</g>
<!-- Node8&#45;&gt;Node6 -->
<g id="edge9" class="edge">
<title>Node8&#45;&gt;Node6</title>
<path fill="none" stroke="#9a32cd" stroke-dasharray="5,2" d="M449.24,-62.66C475.05,-58.87 504.21,-54.59 529.76,-50.84"/>
<polygon fill="#9a32cd" stroke="#9a32cd" points="448.53,-59.23 439.15,-64.14 449.55,-66.15 448.53,-59.23"/>
<text text-anchor="middle" x="484.5" y="-62.97" font-family="Helvetica,sans-Serif" font-size="10.00"> m_request</text>
</g>
</g>
</svg>
