<?xml version="1.0" encoding="UTF-8" standalone="no"?>
<!DOCTYPE svg PUBLIC "-//W3C//DTD SVG 1.1//EN"
 "http://www.w3.org/Graphics/SVG/1.1/DTD/svg11.dtd">
<!-- Generated by graphviz version 2.43.0 (0)
 -->
<!-- Title: erpc::RPMsgTTYRTOSTransport Pages: 1 -->
<svg width="254pt" height="140pt"
 viewBox="0.00 0.00 253.50 140.00" xmlns="http://www.w3.org/2000/svg" xmlns:xlink="http://www.w3.org/1999/xlink">
<g id="graph0" class="graph" transform="scale(1 1) rotate(0) translate(4 136)">
<title>erpc::RPMsgTTYRTOSTransport</title>
<polygon fill="white" stroke="transparent" points="-4,4 -4,-136 249.5,-136 249.5,4 -4,4"/>
<!-- Node1 -->
<g id="node1" class="node">
<title>Node1</title>
<g id="a_node1"><a xlink:title="Transport that uses RPMsg zero copy RTOS API for interprocessor messaging.">
<polygon fill="#bfbfbf" stroke="black" points="45.5,-0.5 45.5,-19.5 212.5,-19.5 212.5,-0.5 45.5,-0.5"/>
<text text-anchor="middle" x="129" y="-7.5" font-family="Helvetica,sans-Serif" font-size="10.00">erpc::RPMsgTTYRTOSTransport</text>
</a>
</g>
</g>
<!-- Node2 -->
<g id="node2" class="node">
<title>Node2</title>
<g id="a_node2"><a xlink:href="classerpc_1_1_framed_transport.html" target="_top" xlink:title="Base class for framed transport layers.">
<polygon fill="white" stroke="black" points="0,-56.5 0,-75.5 126,-75.5 126,-56.5 0,-56.5"/>
<text text-anchor="middle" x="63" y="-63.5" font-family="Helvetica,sans-Serif" font-size="10.00">erpc::FramedTransport</text>
</a>
</g>
</g>
<!-- Node2&#45;&gt;Node1 -->
<g id="edge1" class="edge">
<title>Node2&#45;&gt;Node1</title>
<path fill="none" stroke="midnightblue" d="M81.55,-49.82C93.38,-40.15 108.29,-27.95 118.2,-19.83"/>
<polygon fill="midnightblue" stroke="midnightblue" points="79.13,-47.28 73.6,-56.32 83.56,-52.7 79.13,-47.28"/>
</g>
<!-- Node3 -->
<g id="node3" class="node">
<title>Node3</title>
<g id="a_node3"><a xlink:href="classerpc_1_1_transport.html" target="_top" xlink:title="Abstract interface for transport layer.">
<polygon fill="white" stroke="black" points="18.5,-112.5 18.5,-131.5 107.5,-131.5 107.5,-112.5 18.5,-112.5"/>
<text text-anchor="middle" x="63" y="-119.5" font-family="Helvetica,sans-Serif" font-size="10.00">erpc::Transport</text>
</a>
</g>
</g>
<!-- Node3&#45;&gt;Node2 -->
<g id="edge2" class="edge">
<title>Node3&#45;&gt;Node2</title>
<path fill="none" stroke="midnightblue" d="M63,-101.8C63,-92.91 63,-82.78 63,-75.75"/>
<polygon fill="midnightblue" stroke="midnightblue" points="59.5,-102.08 63,-112.08 66.5,-102.08 59.5,-102.08"/>
</g>
<!-- Node4 -->
<g id="node4" class="node">
<title>Node4</title>
<g id="a_node4"><a xlink:href="classerpc_1_1_r_p_msg_base.html" target="_top" xlink:title="Transport that other RPMsg transports inherits.">
<polygon fill="white" stroke="black" points="144.5,-56.5 144.5,-75.5 245.5,-75.5 245.5,-56.5 144.5,-56.5"/>
<text text-anchor="middle" x="195" y="-63.5" font-family="Helvetica,sans-Serif" font-size="10.00">erpc::RPMsgBase</text>
</a>
</g>
</g>
<!-- Node4&#45;&gt;Node1 -->
<g id="edge3" class="edge">
<title>Node4&#45;&gt;Node1</title>
<path fill="none" stroke="midnightblue" d="M176.45,-49.82C164.62,-40.15 149.71,-27.95 139.8,-19.83"/>
<polygon fill="midnightblue" stroke="midnightblue" points="174.44,-52.7 184.4,-56.32 178.87,-47.28 174.44,-52.7"/>
</g>
</g>
</svg>
