<?xml version="1.0" encoding="UTF-8" standalone="no"?>
<!DOCTYPE svg PUBLIC "-//W3C//DTD SVG 1.1//EN"
 "http://www.w3.org/Graphics/SVG/1.1/DTD/svg11.dtd">
<!-- Generated by graphviz version 2.43.0 (0)
 -->
<!-- Title: erpc::Transport Pages: 1 -->
<svg width="512pt" height="541pt"
 viewBox="0.00 0.00 512.00 541.00" xmlns="http://www.w3.org/2000/svg" xmlns:xlink="http://www.w3.org/1999/xlink">
<g id="graph0" class="graph" transform="scale(1 1) rotate(0) translate(4 537)">
<title>erpc::Transport</title>
<polygon fill="white" stroke="transparent" points="-4,4 -4,-537 508,-537 508,4 -4,4"/>
<!-- Node1 -->
<g id="node1" class="node">
<title>Node1</title>
<g id="a_node1"><a xlink:title="Abstract interface for transport layer.">
<polygon fill="#bfbfbf" stroke="black" points="0,-133.5 0,-152.5 89,-152.5 89,-133.5 0,-133.5"/>
<text text-anchor="middle" x="44.5" y="-140.5" font-family="Helvetica,sans-Serif" font-size="10.00">erpc::Transport</text>
</a>
</g>
</g>
<!-- Node2 -->
<g id="node2" class="node">
<title>Node2</title>
<g id="a_node2"><a xlink:href="classerpc_1_1_framed_transport.html" target="_top" xlink:title="Base class for framed transport layers.">
<polygon fill="white" stroke="black" points="150,-266.5 150,-285.5 276,-285.5 276,-266.5 150,-266.5"/>
<text text-anchor="middle" x="213" y="-273.5" font-family="Helvetica,sans-Serif" font-size="10.00">erpc::FramedTransport</text>
</a>
</g>
</g>
<!-- Node1&#45;&gt;Node2 -->
<g id="edge1" class="edge">
<title>Node1&#45;&gt;Node2</title>
<path fill="none" stroke="midnightblue" d="M53.46,-162.24C65.16,-188.05 89.54,-233.34 125,-257 132.46,-261.98 141,-265.67 149.76,-268.42"/>
<polygon fill="midnightblue" stroke="midnightblue" points="56.55,-160.57 49.35,-152.8 50.13,-163.36 56.55,-160.57"/>
</g>
<!-- Node16 -->
<g id="node16" class="node">
<title>Node16</title>
<g id="a_node16"><a xlink:href="classerpc_1_1_inter_thread_buffer_transport.html" target="_top" xlink:title="Very basic transport to send/receive messages between threads.">
<polygon fill="white" stroke="black" points="125,-228.5 125,-247.5 301,-247.5 301,-228.5 125,-228.5"/>
<text text-anchor="middle" x="213" y="-235.5" font-family="Helvetica,sans-Serif" font-size="10.00">erpc::InterThreadBufferTransport</text>
</a>
</g>
</g>
<!-- Node1&#45;&gt;Node16 -->
<g id="edge16" class="edge">
<title>Node1&#45;&gt;Node16</title>
<path fill="none" stroke="midnightblue" d="M59.25,-160.96C73.69,-178.52 98.01,-204.64 125,-219 132.23,-222.85 140.2,-225.92 148.29,-228.37"/>
<polygon fill="midnightblue" stroke="midnightblue" points="61.61,-158.31 52.64,-152.67 56.14,-162.67 61.61,-158.31"/>
</g>
<!-- Node17 -->
<g id="node17" class="node">
<title>Node17</title>
<g id="a_node17"><a xlink:href="classerpc_1_1_m_b_o_x_transport.html" target="_top" xlink:title="Transport to send/receive messages via MBOX.">
<polygon fill="white" stroke="black" points="153.5,-190.5 153.5,-209.5 272.5,-209.5 272.5,-190.5 153.5,-190.5"/>
<text text-anchor="middle" x="213" y="-197.5" font-family="Helvetica,sans-Serif" font-size="10.00">erpc::MBOXTransport</text>
</a>
</g>
</g>
<!-- Node1&#45;&gt;Node17 -->
<g id="edge17" class="edge">
<title>Node1&#45;&gt;Node17</title>
<path fill="none" stroke="midnightblue" d="M71.96,-157.55C87.12,-165.39 106.72,-174.73 125,-181 135.82,-184.71 147.66,-187.87 159.01,-190.47"/>
<polygon fill="midnightblue" stroke="midnightblue" points="73.17,-154.23 62.69,-152.65 69.9,-160.42 73.17,-154.23"/>
</g>
<!-- Node18 -->
<g id="node18" class="node">
<title>Node18</title>
<g id="a_node18"><a xlink:href="classerpc_1_1_m_u_transport.html" target="_top" xlink:title="Transport that uses Messaging Unit (MU) for interprocessor messaging.">
<polygon fill="white" stroke="black" points="160,-152.5 160,-171.5 266,-171.5 266,-152.5 160,-152.5"/>
<text text-anchor="middle" x="213" y="-159.5" font-family="Helvetica,sans-Serif" font-size="10.00">erpc::MUTransport</text>
</a>
</g>
</g>
<!-- Node1&#45;&gt;Node18 -->
<g id="edge18" class="edge">
<title>Node1&#45;&gt;Node18</title>
<path fill="none" stroke="midnightblue" d="M99.45,-149.16C118.86,-151.37 140.72,-153.87 159.96,-156.06"/>
<polygon fill="midnightblue" stroke="midnightblue" points="99.58,-145.65 89.25,-147.99 98.78,-152.6 99.58,-145.65"/>
</g>
<!-- Node19 -->
<g id="node19" class="node">
<title>Node19</title>
<g id="a_node19"><a xlink:href="classerpc_1_1_r_p_msg_linux_transport.html" target="_top" xlink:title="RPMSG Linux transport to send/receive messages through RPMSG endpoints based on github....">
<polygon fill="white" stroke="black" points="138.5,-114.5 138.5,-133.5 287.5,-133.5 287.5,-114.5 138.5,-114.5"/>
<text text-anchor="middle" x="213" y="-121.5" font-family="Helvetica,sans-Serif" font-size="10.00">erpc::RPMsgLinuxTransport</text>
</a>
</g>
</g>
<!-- Node1&#45;&gt;Node19 -->
<g id="edge19" class="edge">
<title>Node1&#45;&gt;Node19</title>
<path fill="none" stroke="midnightblue" d="M99.4,-136.85C111.81,-135.43 125.21,-133.9 138.29,-132.41"/>
<polygon fill="midnightblue" stroke="midnightblue" points="98.78,-133.4 89.25,-138.01 99.58,-140.35 98.78,-133.4"/>
</g>
<!-- Node20 -->
<g id="node20" class="node">
<title>Node20</title>
<g id="a_node20"><a xlink:href="classerpc_1_1_r_p_msg_r_t_o_s_transport.html" target="_top" xlink:title="Transport that uses RPMsg zero copy RTOS API for interprocessor messaging.">
<polygon fill="white" stroke="black" points="138.5,-76.5 138.5,-95.5 287.5,-95.5 287.5,-76.5 138.5,-76.5"/>
<text text-anchor="middle" x="213" y="-83.5" font-family="Helvetica,sans-Serif" font-size="10.00">erpc::RPMsgRTOSTransport</text>
</a>
</g>
</g>
<!-- Node1&#45;&gt;Node20 -->
<g id="edge20" class="edge">
<title>Node1&#45;&gt;Node20</title>
<path fill="none" stroke="midnightblue" d="M71.96,-128.45C87.12,-120.61 106.72,-111.27 125,-105 135.82,-101.29 147.66,-98.13 159.01,-95.53"/>
<polygon fill="midnightblue" stroke="midnightblue" points="69.9,-125.58 62.69,-133.35 73.17,-131.77 69.9,-125.58"/>
</g>
<!-- Node21 -->
<g id="node21" class="node">
<title>Node21</title>
<g id="a_node21"><a xlink:href="classerpc_1_1_r_p_msg_transport.html" target="_top" xlink:title="Transport that uses RPMsg zero copy API for interprocessor messaging.">
<polygon fill="white" stroke="black" points="152,-38.5 152,-57.5 274,-57.5 274,-38.5 152,-38.5"/>
<text text-anchor="middle" x="213" y="-45.5" font-family="Helvetica,sans-Serif" font-size="10.00">erpc::RPMsgTransport</text>
</a>
</g>
</g>
<!-- Node1&#45;&gt;Node21 -->
<g id="edge21" class="edge">
<title>Node1&#45;&gt;Node21</title>
<path fill="none" stroke="midnightblue" d="M59.25,-125.04C73.69,-107.48 98.01,-81.36 125,-67 133.33,-62.57 142.62,-59.17 151.96,-56.57"/>
<polygon fill="midnightblue" stroke="midnightblue" points="56.14,-123.33 52.64,-133.33 61.61,-127.69 56.14,-123.33"/>
</g>
<!-- Node22 -->
<g id="node22" class="node">
<title>Node22</title>
<g id="a_node22"><a xlink:href="classerpc_1_1_transport_arbitrator.html" target="_top" xlink:title="Interposer to share transport between client and server.">
<polygon fill="white" stroke="black" points="145,-0.5 145,-19.5 281,-19.5 281,-0.5 145,-0.5"/>
<text text-anchor="middle" x="213" y="-7.5" font-family="Helvetica,sans-Serif" font-size="10.00">erpc::TransportArbitrator</text>
</a>
</g>
</g>
<!-- Node1&#45;&gt;Node22 -->
<g id="edge22" class="edge">
<title>Node1&#45;&gt;Node22</title>
<path fill="none" stroke="midnightblue" d="M53.46,-123.76C65.16,-97.95 89.54,-52.66 125,-29 131.04,-24.97 137.8,-21.77 144.81,-19.25"/>
<polygon fill="midnightblue" stroke="midnightblue" points="50.13,-122.64 49.35,-133.2 56.55,-125.43 50.13,-122.64"/>
</g>
<!-- Node3 -->
<g id="node3" class="node">
<title>Node3</title>
<g id="a_node3"><a xlink:href="classerpc_1_1_dspi_master_transport.html" target="_top" xlink:title="Very basic transport to send/receive messages via DSPI.">
<polygon fill="white" stroke="black" points="348,-513.5 348,-532.5 493,-532.5 493,-513.5 348,-513.5"/>
<text text-anchor="middle" x="420.5" y="-520.5" font-family="Helvetica,sans-Serif" font-size="10.00">erpc::DspiMasterTransport</text>
</a>
</g>
</g>
<!-- Node2&#45;&gt;Node3 -->
<g id="edge2" class="edge">
<title>Node2&#45;&gt;Node3</title>
<path fill="none" stroke="midnightblue" d="M218.64,-295.48C230.29,-339.93 265.11,-449.21 337,-504 342.03,-507.83 347.69,-510.91 353.64,-513.38"/>
<polygon fill="midnightblue" stroke="midnightblue" points="222,-294.5 216.17,-285.65 215.21,-296.2 222,-294.5"/>
</g>
<!-- Node4 -->
<g id="node4" class="node">
<title>Node4</title>
<g id="a_node4"><a xlink:href="classerpc_1_1_dspi_slave_transport.html" target="_top" xlink:title="Very basic transport to send/receive messages via DSPI.">
<polygon fill="white" stroke="black" points="351.5,-475.5 351.5,-494.5 489.5,-494.5 489.5,-475.5 351.5,-475.5"/>
<text text-anchor="middle" x="420.5" y="-482.5" font-family="Helvetica,sans-Serif" font-size="10.00">erpc::DspiSlaveTransport</text>
</a>
</g>
</g>
<!-- Node2&#45;&gt;Node4 -->
<g id="edge3" class="edge">
<title>Node2&#45;&gt;Node4</title>
<path fill="none" stroke="midnightblue" d="M220.8,-295.37C235.49,-334.26 274.06,-421.88 337,-466 342.54,-469.88 348.75,-472.98 355.21,-475.45"/>
<polygon fill="midnightblue" stroke="midnightblue" points="224.01,-293.96 217.29,-285.77 217.43,-296.36 224.01,-293.96"/>
</g>
<!-- Node5 -->
<g id="node5" class="node">
<title>Node5</title>
<g id="a_node5"><a xlink:href="classerpc_1_1_i2c_slave_transport.html" target="_top" xlink:title="Very basic transport to send/receive messages via I2C.">
<polygon fill="white" stroke="black" points="355,-437.5 355,-456.5 486,-456.5 486,-437.5 355,-437.5"/>
<text text-anchor="middle" x="420.5" y="-444.5" font-family="Helvetica,sans-Serif" font-size="10.00">erpc::I2cSlaveTransport</text>
</a>
</g>
</g>
<!-- Node2&#45;&gt;Node5 -->
<g id="edge4" class="edge">
<title>Node2&#45;&gt;Node5</title>
<path fill="none" stroke="midnightblue" d="M223.57,-294.59C241.3,-327.07 282.47,-393.93 337,-428 343.23,-431.89 350.18,-434.99 357.32,-437.46"/>
<polygon fill="midnightblue" stroke="midnightblue" points="226.62,-292.87 218.83,-285.69 220.44,-296.16 226.62,-292.87"/>
</g>
<!-- Node6 -->
<g id="node6" class="node">
<title>Node6</title>
<g id="a_node6"><a xlink:href="classerpc_1_1_l_p_i2c_slave_transport.html" target="_top" xlink:title="Very basic transport to send/receive messages via LPI2C.">
<polygon fill="white" stroke="black" points="349.5,-399.5 349.5,-418.5 491.5,-418.5 491.5,-399.5 349.5,-399.5"/>
<text text-anchor="middle" x="420.5" y="-406.5" font-family="Helvetica,sans-Serif" font-size="10.00">erpc::LPI2cSlaveTransport</text>
</a>
</g>
</g>
<!-- Node2&#45;&gt;Node6 -->
<g id="edge5" class="edge">
<title>Node2&#45;&gt;Node6</title>
<path fill="none" stroke="midnightblue" d="M227.91,-293.78C248.78,-319.18 290.73,-365.51 337,-390 344.27,-393.85 352.31,-396.93 360.44,-399.38"/>
<polygon fill="midnightblue" stroke="midnightblue" points="230.43,-291.33 221.43,-285.73 224.98,-295.72 230.43,-291.33"/>
</g>
<!-- Node7 -->
<g id="node7" class="node">
<title>Node7</title>
<g id="a_node7"><a xlink:href="classerpc_1_1_l_p_spi_slave_transport.html" target="_top" xlink:title="Very basic transport to send/receive messages via LPSPI.">
<polygon fill="white" stroke="black" points="349,-361.5 349,-380.5 492,-380.5 492,-361.5 349,-361.5"/>
<text text-anchor="middle" x="420.5" y="-368.5" font-family="Helvetica,sans-Serif" font-size="10.00">erpc::LPSpiSlaveTransport</text>
</a>
</g>
</g>
<!-- Node2&#45;&gt;Node7 -->
<g id="edge6" class="edge">
<title>Node2&#45;&gt;Node7</title>
<path fill="none" stroke="midnightblue" d="M234.71,-291.76C258.27,-308.97 298.5,-336.18 337,-352 346.24,-355.8 356.4,-358.92 366.33,-361.46"/>
<polygon fill="midnightblue" stroke="midnightblue" points="236.65,-288.84 226.53,-285.7 232.48,-294.47 236.65,-288.84"/>
</g>
<!-- Node8 -->
<g id="node8" class="node">
<title>Node8</title>
<g id="a_node8"><a xlink:href="classerpc_1_1_r_p_msg_t_t_y_r_t_o_s_transport.html" target="_top" xlink:title="Transport that uses RPMsg zero copy RTOS API for interprocessor messaging.">
<polygon fill="white" stroke="black" points="337,-323.5 337,-342.5 504,-342.5 504,-323.5 337,-323.5"/>
<text text-anchor="middle" x="420.5" y="-330.5" font-family="Helvetica,sans-Serif" font-size="10.00">erpc::RPMsgTTYRTOSTransport</text>
</a>
</g>
</g>
<!-- Node2&#45;&gt;Node8 -->
<g id="edge7" class="edge">
<title>Node2&#45;&gt;Node8</title>
<path fill="none" stroke="midnightblue" d="M252.18,-288.59C276.36,-296.36 308.36,-306.29 337,-314 349.35,-317.32 362.83,-320.58 375.25,-323.44"/>
<polygon fill="midnightblue" stroke="midnightblue" points="253.25,-285.25 242.66,-285.51 251.09,-291.91 253.25,-285.25"/>
</g>
<!-- Node9 -->
<g id="node9" class="node">
<title>Node9</title>
<g id="a_node9"><a xlink:href="classerpc_1_1_serial_transport.html" target="_top" xlink:title="Serial transport layer for host PC.">
<polygon fill="white" stroke="black" points="362,-285.5 362,-304.5 479,-304.5 479,-285.5 362,-285.5"/>
<text text-anchor="middle" x="420.5" y="-292.5" font-family="Helvetica,sans-Serif" font-size="10.00">erpc::SerialTransport</text>
</a>
</g>
</g>
<!-- Node2&#45;&gt;Node9 -->
<g id="edge8" class="edge">
<title>Node2&#45;&gt;Node9</title>
<path fill="none" stroke="midnightblue" d="M286.27,-282.68C310.98,-284.97 338.29,-287.49 361.71,-289.66"/>
<polygon fill="midnightblue" stroke="midnightblue" points="286.49,-279.19 276.21,-281.75 285.85,-286.16 286.49,-279.19"/>
</g>
<!-- Node10 -->
<g id="node10" class="node">
<title>Node10</title>
<g id="a_node10"><a xlink:href="classerpc_1_1_spi_master_transport.html" target="_top" xlink:title="Very basic transport to send/receive messages via SPI.">
<polygon fill="white" stroke="black" points="351.5,-247.5 351.5,-266.5 489.5,-266.5 489.5,-247.5 351.5,-247.5"/>
<text text-anchor="middle" x="420.5" y="-254.5" font-family="Helvetica,sans-Serif" font-size="10.00">erpc::SpiMasterTransport</text>
</a>
</g>
</g>
<!-- Node2&#45;&gt;Node10 -->
<g id="edge9" class="edge">
<title>Node2&#45;&gt;Node10</title>
<path fill="none" stroke="midnightblue" d="M286.42,-269.3C307.55,-267.35 330.56,-265.22 351.41,-263.3"/>
<polygon fill="midnightblue" stroke="midnightblue" points="285.85,-265.84 276.21,-270.25 286.49,-272.81 285.85,-265.84"/>
</g>
<!-- Node11 -->
<g id="node11" class="node">
<title>Node11</title>
<g id="a_node11"><a xlink:href="classerpc_1_1_spi_slave_transport.html" target="_top" xlink:title="Very basic transport to send/receive messages via SPI.">
<polygon fill="white" stroke="black" points="355,-209.5 355,-228.5 486,-228.5 486,-209.5 355,-209.5"/>
<text text-anchor="middle" x="420.5" y="-216.5" font-family="Helvetica,sans-Serif" font-size="10.00">erpc::SpiSlaveTransport</text>
</a>
</g>
</g>
<!-- Node2&#45;&gt;Node11 -->
<g id="edge10" class="edge">
<title>Node2&#45;&gt;Node11</title>
<path fill="none" stroke="midnightblue" d="M278.27,-264.04C286.02,-261.99 293.75,-259.65 301,-257 317.99,-250.79 320.04,-244.31 337,-238 347.06,-234.26 358.09,-231.11 368.72,-228.51"/>
<polygon fill="midnightblue" stroke="midnightblue" points="277.34,-260.66 268.48,-266.48 279.03,-267.45 277.34,-260.66"/>
</g>
<!-- Node12 -->
<g id="node12" class="node">
<title>Node12</title>
<g id="a_node12"><a xlink:href="classerpc_1_1_spidev_master_transport.html" target="_top" xlink:title="Very basic transport to send/receive messages via SPIdev.">
<polygon fill="white" stroke="black" points="342.5,-171.5 342.5,-190.5 498.5,-190.5 498.5,-171.5 342.5,-171.5"/>
<text text-anchor="middle" x="420.5" y="-178.5" font-family="Helvetica,sans-Serif" font-size="10.00">erpc::SpidevMasterTransport</text>
</a>
</g>
</g>
<!-- Node2&#45;&gt;Node12 -->
<g id="edge11" class="edge">
<title>Node2&#45;&gt;Node12</title>
<path fill="none" stroke="midnightblue" d="M286.12,-265.14C291.38,-262.9 296.41,-260.22 301,-257 325.54,-239.8 312.56,-217.33 337,-200 342.39,-196.17 348.44,-193.11 354.75,-190.65"/>
<polygon fill="midnightblue" stroke="midnightblue" points="284.61,-261.97 276.45,-268.72 287.04,-268.53 284.61,-261.97"/>
</g>
<!-- Node13 -->
<g id="node13" class="node">
<title>Node13</title>
<g id="a_node13"><a xlink:href="classerpc_1_1_t_c_p_transport.html" target="_top" xlink:title="Client side of TCP/IP transport.">
<polygon fill="white" stroke="black" points="366.5,-133.5 366.5,-152.5 474.5,-152.5 474.5,-133.5 366.5,-133.5"/>
<text text-anchor="middle" x="420.5" y="-140.5" font-family="Helvetica,sans-Serif" font-size="10.00">erpc::TCPTransport</text>
</a>
</g>
</g>
<!-- Node2&#45;&gt;Node13 -->
<g id="edge12" class="edge">
<title>Node2&#45;&gt;Node13</title>
<path fill="none" stroke="midnightblue" d="M285.68,-266.69C291.22,-264.13 296.43,-260.95 301,-257 335.19,-227.51 302.98,-191.69 337,-162 345.2,-154.85 355.55,-150.24 366.12,-147.31"/>
<polygon fill="midnightblue" stroke="midnightblue" points="284.14,-263.54 276.11,-270.44 286.69,-270.06 284.14,-263.54"/>
</g>
<!-- Node14 -->
<g id="node14" class="node">
<title>Node14</title>
<g id="a_node14"><a xlink:href="classerpc_1_1_uart_transport.html" target="_top" xlink:title="Very basic transport to send/receive messages via UART.">
<polygon fill="white" stroke="black" points="365.5,-95.5 365.5,-114.5 475.5,-114.5 475.5,-95.5 365.5,-95.5"/>
<text text-anchor="middle" x="420.5" y="-102.5" font-family="Helvetica,sans-Serif" font-size="10.00">erpc::UartTransport</text>
</a>
</g>
</g>
<!-- Node2&#45;&gt;Node14 -->
<g id="edge13" class="edge">
<title>Node2&#45;&gt;Node14</title>
<path fill="none" stroke="midnightblue" d="M270.72,-264.05C281.88,-260.84 292.69,-255.91 301,-248 345.36,-205.78 292.88,-157.47 337,-115 344.73,-107.56 354.76,-102.82 365.15,-100.05"/>
<polygon fill="midnightblue" stroke="midnightblue" points="269.75,-260.69 260.87,-266.48 271.42,-267.49 269.75,-260.69"/>
</g>
<!-- Node2&#45;&gt;Node14 -->
<g id="edge14" class="edge">
<title>Node2&#45;&gt;Node14</title>
<path fill="none" stroke="midnightblue" d="M285.84,-276.26C291.39,-273.61 296.55,-270.23 301,-266 345.36,-223.78 292.88,-175.47 337,-133 347.69,-122.7 362.79,-117.58 377.15,-114.59"/>
<polygon fill="midnightblue" stroke="midnightblue" points="284.22,-273.14 276.2,-280.06 286.79,-279.65 284.22,-273.14"/>
</g>
<!-- Node15 -->
<g id="node15" class="node">
<title>Node15</title>
<g id="a_node15"><a xlink:href="classerpc_1_1_usb_cdc_transport.html" target="_top" xlink:title="Very basic transport to send/receive messages via virtual USB CDC port.">
<polygon fill="white" stroke="black" points="357.5,-57.5 357.5,-76.5 483.5,-76.5 483.5,-57.5 357.5,-57.5"/>
<text text-anchor="middle" x="420.5" y="-64.5" font-family="Helvetica,sans-Serif" font-size="10.00">erpc::UsbCdcTransport</text>
</a>
</g>
</g>
<!-- Node2&#45;&gt;Node15 -->
<g id="edge15" class="edge">
<title>Node2&#45;&gt;Node15</title>
<path fill="none" stroke="midnightblue" d="M285.43,-267.9C291.18,-265.1 296.5,-261.54 301,-257 355.71,-201.88 282.6,-141.43 337,-86 342.66,-80.23 349.7,-76.06 357.26,-73.08"/>
<polygon fill="midnightblue" stroke="midnightblue" points="284.05,-264.68 276.09,-271.67 286.67,-271.17 284.05,-264.68"/>
</g>
</g>
</svg>
