<?xml version="1.0" encoding="UTF-8" standalone="no"?>
<!DOCTYPE svg PUBLIC "-//W3C//DTD SVG 1.1//EN"
 "http://www.w3.org/Graphics/SVG/1.1/DTD/svg11.dtd">
<!-- Generated by graphviz version 2.43.0 (0)
 -->
<!-- Title: StaticMessageBufferFactory Pages: 1 -->
<svg width="278pt" height="95pt"
 viewBox="0.00 0.00 278.00 95.00" xmlns="http://www.w3.org/2000/svg" xmlns:xlink="http://www.w3.org/1999/xlink">
<g id="graph0" class="graph" transform="scale(1 1) rotate(0) translate(4 91)">
<title>StaticMessageBufferFactory</title>
<polygon fill="white" stroke="transparent" points="-4,4 -4,-91 274,-91 274,4 -4,4"/>
<!-- Node1 -->
<g id="node1" class="node">
<title>Node1</title>
<g id="a_node1"><a xlink:title="Static Message buffer factory.">
<polygon fill="#bfbfbf" stroke="black" points="71.5,-0.5 71.5,-19.5 225.5,-19.5 225.5,-0.5 71.5,-0.5"/>
<text text-anchor="middle" x="148.5" y="-7.5" font-family="Helvetica,sans-Serif" font-size="10.00">StaticMessageBufferFactory</text>
</a>
</g>
</g>
<!-- Node2 -->
<g id="node2" class="node">
<title>Node2</title>
<g id="a_node2"><a xlink:href="classerpc_1_1_message_buffer_factory.html" target="_top" xlink:title="Abstract interface for message buffer factory.">
<polygon fill="white" stroke="black" points="0,-67.5 0,-86.5 153,-86.5 153,-67.5 0,-67.5"/>
<text text-anchor="middle" x="76.5" y="-74.5" font-family="Helvetica,sans-Serif" font-size="10.00">erpc::MessageBufferFactory</text>
</a>
</g>
</g>
<!-- Node2&#45;&gt;Node1 -->
<g id="edge1" class="edge">
<title>Node2&#45;&gt;Node1</title>
<path fill="none" stroke="midnightblue" d="M93.83,-60.36C107.98,-47.58 127.46,-29.99 138.94,-19.63"/>
<polygon fill="midnightblue" stroke="midnightblue" points="91.29,-57.93 86.21,-67.23 95.98,-63.13 91.29,-57.93"/>
</g>
<!-- Node3 -->
<g id="node3" class="node">
<title>Node3</title>
<g id="a_node3"><a xlink:href="classerpc_1_1_semaphore.html" target="_top" xlink:title="Simple semaphore class.">
<polygon fill="white" stroke="black" points="171,-67.5 171,-86.5 270,-86.5 270,-67.5 171,-67.5"/>
<text text-anchor="middle" x="220.5" y="-74.5" font-family="Helvetica,sans-Serif" font-size="10.00">erpc::Semaphore</text>
</a>
</g>
</g>
<!-- Node3&#45;&gt;Node1 -->
<g id="edge2" class="edge">
<title>Node3&#45;&gt;Node1</title>
<path fill="none" stroke="#9a32cd" stroke-dasharray="5,2" d="M203.17,-60.36C189.02,-47.58 169.54,-29.99 158.06,-19.63"/>
<polygon fill="#9a32cd" stroke="#9a32cd" points="201.02,-63.13 210.79,-67.23 205.71,-57.93 201.02,-63.13"/>
<text text-anchor="middle" x="225" y="-41" font-family="Helvetica,sans-Serif" font-size="10.00"> m_semaphore</text>
</g>
</g>
</svg>
