<?xml version="1.0" encoding="UTF-8" standalone="no"?>
<!DOCTYPE svg PUBLIC "-//W3C//DTD SVG 1.1//EN"
 "http://www.w3.org/Graphics/SVG/1.1/DTD/svg11.dtd">
<!-- Generated by graphviz version 2.43.0 (0)
 -->
<!-- Title: erpc_c Pages: 1 -->
<svg width="166pt" height="292pt"
 viewBox="0.00 0.00 166.00 292.00" xmlns="http://www.w3.org/2000/svg" xmlns:xlink="http://www.w3.org/1999/xlink">
<g id="graph0" class="graph" transform="scale(1 1) rotate(0) translate(4 288)">
<title>erpc_c</title>
<polygon fill="white" stroke="transparent" points="-4,4 -4,-288 162,-288 162,4 -4,4"/>
<g id="clust1" class="cluster">
<title>clusterdir_ecce72d14eab190b8175cc3cd0696eeb</title>
<g id="a_clust1"><a xlink:href="dir_ecce72d14eab190b8175cc3cd0696eeb.html" target="_top">
<polygon fill="#eeeeff" stroke="black" points="8,-8 8,-276 150,-276 150,-8 8,-8"/>
</a>
</g>
</g>
<!-- dir_ecce72d14eab190b8175cc3cd0696eeb -->
<g id="node1" class="node">
<title>dir_ecce72d14eab190b8175cc3cd0696eeb</title>
<text text-anchor="middle" x="115" y="-247.5" font-family="Helvetica,sans-Serif" font-size="10.00">erpc_c</text>
</g>
<!-- dir_52949f44d4caf8ec53681e2fdb42569d -->
<g id="node2" class="node">
<title>dir_52949f44d4caf8ec53681e2fdb42569d</title>
<g id="a_node2"><a xlink:href="dir_52949f44d4caf8ec53681e2fdb42569d.html" target="_top" xlink:title="config">
<polygon fill="white" stroke="black" points="142,-52 88,-52 88,-16 142,-16 142,-52"/>
<text text-anchor="middle" x="115" y="-31.5" font-family="Helvetica,sans-Serif" font-size="10.00">config</text>
</a>
</g>
</g>
<!-- dir_4c1986dc9092ab2d1c997193a3634562 -->
<g id="node3" class="node">
<title>dir_4c1986dc9092ab2d1c997193a3634562</title>
<g id="a_node3"><a xlink:href="dir_4c1986dc9092ab2d1c997193a3634562.html" target="_top" xlink:title="infra">
<polygon fill="white" stroke="black" points="70,-52 16,-52 16,-16 70,-16 70,-52"/>
<text text-anchor="middle" x="43" y="-31.5" font-family="Helvetica,sans-Serif" font-size="10.00">infra</text>
</a>
</g>
</g>
<!-- dir_62e9b24ece508051f26d84717c79c815 -->
<g id="node4" class="node">
<title>dir_62e9b24ece508051f26d84717c79c815</title>
<g id="a_node4"><a xlink:href="dir_62e9b24ece508051f26d84717c79c815.html" target="_top" xlink:title="port">
<polygon fill="white" stroke="black" points="116,-124 62,-124 62,-88 116,-88 116,-124"/>
<text text-anchor="middle" x="89" y="-103.5" font-family="Helvetica,sans-Serif" font-size="10.00">port</text>
</a>
</g>
</g>
<!-- dir_4c1986dc9092ab2d1c997193a3634562&#45;&gt;dir_62e9b24ece508051f26d84717c79c815 -->
<g id="edge6" class="edge">
<title>dir_4c1986dc9092ab2d1c997193a3634562&#45;&gt;dir_62e9b24ece508051f26d84717c79c815</title>
<path fill="none" stroke="black" d="M60.14,-52.1C66.25,-60.13 72.87,-69.87 78.34,-78.8"/>
<polygon fill="black" stroke="black" points="75.47,-80.83 83.54,-87.7 81.52,-77.3 75.47,-80.83"/>
<g id="a_edge6&#45;headlabel"><a xlink:href="dir_000002_000004.html" target="_top" xlink:title="2">
<text text-anchor="middle" x="71.21" y="-76.66" font-family="Helvetica,sans-Serif" font-size="10.00">2</text>
</a>
</g>
</g>
<!-- dir_62e9b24ece508051f26d84717c79c815&#45;&gt;dir_52949f44d4caf8ec53681e2fdb42569d -->
<g id="edge8" class="edge">
<title>dir_62e9b24ece508051f26d84717c79c815&#45;&gt;dir_52949f44d4caf8ec53681e2fdb42569d</title>
<path fill="none" stroke="black" d="M95.43,-87.7C98.36,-79.81 101.89,-70.3 105.14,-61.55"/>
<polygon fill="black" stroke="black" points="108.45,-62.7 108.65,-52.1 101.88,-60.26 108.45,-62.7"/>
<g id="a_edge8&#45;headlabel"><a xlink:href="dir_000004_000001.html" target="_top" xlink:title="1">
<text text-anchor="middle" x="109.86" y="-64.56" font-family="Helvetica,sans-Serif" font-size="10.00">1</text>
</a>
</g>
</g>
<!-- dir_62e9b24ece508051f26d84717c79c815&#45;&gt;dir_4c1986dc9092ab2d1c997193a3634562 -->
<g id="edge7" class="edge">
<title>dir_62e9b24ece508051f26d84717c79c815&#45;&gt;dir_4c1986dc9092ab2d1c997193a3634562</title>
<path fill="none" stroke="black" d="M71.71,-87.7C65.59,-79.64 58.97,-69.89 53.53,-60.98"/>
<polygon fill="black" stroke="black" points="56.41,-58.98 48.34,-52.1 50.36,-62.51 56.41,-58.98"/>
<g id="a_edge7&#45;headlabel"><a xlink:href="dir_000004_000002.html" target="_top" xlink:title="1">
<text text-anchor="middle" x="60.67" y="-58.15" font-family="Helvetica,sans-Serif" font-size="10.00">1</text>
</a>
</g>
</g>
<!-- dir_318b660cd76dff0271d6acfa47597bac -->
<g id="node5" class="node">
<title>dir_318b660cd76dff0271d6acfa47597bac</title>
<g id="a_node5"><a xlink:href="dir_318b660cd76dff0271d6acfa47597bac.html" target="_top" xlink:title="setup">
<polygon fill="white" stroke="black" points="70,-268 16,-268 16,-232 70,-232 70,-268"/>
<text text-anchor="middle" x="43" y="-247.5" font-family="Helvetica,sans-Serif" font-size="10.00">setup</text>
</a>
</g>
</g>
<!-- dir_318b660cd76dff0271d6acfa47597bac&#45;&gt;dir_4c1986dc9092ab2d1c997193a3634562 -->
<g id="edge3" class="edge">
<title>dir_318b660cd76dff0271d6acfa47597bac&#45;&gt;dir_4c1986dc9092ab2d1c997193a3634562</title>
<path fill="none" stroke="black" d="M36.35,-231.63C32.8,-221.42 28.8,-208.17 27,-196 20.11,-149.31 29.15,-94.56 36.19,-62.44"/>
<polygon fill="black" stroke="black" points="39.65,-62.99 38.47,-52.46 32.83,-61.43 39.65,-62.99"/>
<g id="a_edge3&#45;headlabel"><a xlink:href="dir_000003_000002.html" target="_top" xlink:title="46">
<text text-anchor="middle" x="41.62" y="-64.62" font-family="Helvetica,sans-Serif" font-size="10.00">46</text>
</a>
</g>
</g>
<!-- dir_318b660cd76dff0271d6acfa47597bac&#45;&gt;dir_62e9b24ece508051f26d84717c79c815 -->
<g id="edge4" class="edge">
<title>dir_318b660cd76dff0271d6acfa47597bac&#45;&gt;dir_62e9b24ece508051f26d84717c79c815</title>
<path fill="none" stroke="black" d="M70.34,-235.62C85.33,-226.67 102.53,-213.35 111,-196 120.76,-176.03 113.32,-151.36 104.55,-133.06"/>
<polygon fill="black" stroke="black" points="107.63,-131.4 99.92,-124.13 101.41,-134.62 107.63,-131.4"/>
<g id="a_edge4&#45;headlabel"><a xlink:href="dir_000003_000004.html" target="_top" xlink:title="1">
<text text-anchor="middle" x="111.8" y="-130.79" font-family="Helvetica,sans-Serif" font-size="10.00">1</text>
</a>
</g>
</g>
<!-- dir_65f3d2eaa0376abba9fa4e8a5e7d2f88 -->
<g id="node6" class="node">
<title>dir_65f3d2eaa0376abba9fa4e8a5e7d2f88</title>
<g id="a_node6"><a xlink:href="dir_65f3d2eaa0376abba9fa4e8a5e7d2f88.html" target="_top" xlink:title="transports">
<polygon fill="white" stroke="black" points="102,-196 36,-196 36,-160 102,-160 102,-196"/>
<text text-anchor="middle" x="69" y="-175.5" font-family="Helvetica,sans-Serif" font-size="10.00">transports</text>
</a>
</g>
</g>
<!-- dir_318b660cd76dff0271d6acfa47597bac&#45;&gt;dir_65f3d2eaa0376abba9fa4e8a5e7d2f88 -->
<g id="edge5" class="edge">
<title>dir_318b660cd76dff0271d6acfa47597bac&#45;&gt;dir_65f3d2eaa0376abba9fa4e8a5e7d2f88</title>
<path fill="none" stroke="black" d="M49.43,-231.7C52.36,-223.81 55.89,-214.3 59.14,-205.55"/>
<polygon fill="black" stroke="black" points="62.45,-206.7 62.65,-196.1 55.88,-204.26 62.45,-206.7"/>
<g id="a_edge5&#45;headlabel"><a xlink:href="dir_000003_000005.html" target="_top" xlink:title="21">
<text text-anchor="middle" x="63.86" y="-208.56" font-family="Helvetica,sans-Serif" font-size="10.00">21</text>
</a>
</g>
</g>
<!-- dir_65f3d2eaa0376abba9fa4e8a5e7d2f88&#45;&gt;dir_4c1986dc9092ab2d1c997193a3634562 -->
<g id="edge1" class="edge">
<title>dir_65f3d2eaa0376abba9fa4e8a5e7d2f88&#45;&gt;dir_4c1986dc9092ab2d1c997193a3634562</title>
<path fill="none" stroke="black" d="M62.86,-159.54C59.47,-149.3 55.47,-136.05 53,-124 48.8,-103.57 46.26,-80.11 44.79,-62.41"/>
<polygon fill="black" stroke="black" points="48.26,-61.91 44.01,-52.21 41.28,-62.44 48.26,-61.91"/>
<g id="a_edge1&#45;headlabel"><a xlink:href="dir_000005_000002.html" target="_top" xlink:title="31">
<text text-anchor="middle" x="51.37" y="-62.78" font-family="Helvetica,sans-Serif" font-size="10.00">31</text>
</a>
</g>
</g>
<!-- dir_65f3d2eaa0376abba9fa4e8a5e7d2f88&#45;&gt;dir_62e9b24ece508051f26d84717c79c815 -->
<g id="edge2" class="edge">
<title>dir_65f3d2eaa0376abba9fa4e8a5e7d2f88&#45;&gt;dir_62e9b24ece508051f26d84717c79c815</title>
<path fill="none" stroke="black" d="M73.94,-159.7C76.17,-151.9 78.85,-142.51 81.33,-133.83"/>
<polygon fill="black" stroke="black" points="84.73,-134.68 84.11,-124.1 78,-132.76 84.73,-134.68"/>
<g id="a_edge2&#45;headlabel"><a xlink:href="dir_000005_000004.html" target="_top" xlink:title="14">
<text text-anchor="middle" x="86.47" y="-136.42" font-family="Helvetica,sans-Serif" font-size="10.00">14</text>
</a>
</g>
</g>
</g>
</svg>
