<?xml version="1.0" encoding="UTF-8" standalone="no"?>
<!DOCTYPE svg PUBLIC "-//W3C//DTD SVG 1.1//EN"
 "http://www.w3.org/Graphics/SVG/1.1/DTD/svg11.dtd">
<!-- Generated by graphviz version 2.43.0 (0)
 -->
<!-- Title: port Pages: 1 -->
<svg width="94pt" height="239pt"
 viewBox="0.00 0.00 94.00 239.00" xmlns="http://www.w3.org/2000/svg" xmlns:xlink="http://www.w3.org/1999/xlink">
<g id="graph0" class="graph" transform="scale(1 1) rotate(0) translate(4 235)">
<title>port</title>
<polygon fill="white" stroke="transparent" points="-4,4 -4,-235 90,-235 90,4 -4,4"/>
<g id="clust1" class="cluster">
<title>clusterdir_ecce72d14eab190b8175cc3cd0696eeb</title>
<g id="a_clust1"><a xlink:href="dir_ecce72d14eab190b8175cc3cd0696eeb.html" target="_top" xlink:title="erpc_c">
<polygon fill="#ddddee" stroke="black" points="8,-8 8,-223 78,-223 78,-8 8,-8"/>
<text text-anchor="middle" x="43" y="-211" font-family="Helvetica,sans-Serif" font-size="10.00">erpc_c</text>
</a>
</g>
</g>
<!-- dir_4c1986dc9092ab2d1c997193a3634562 -->
<g id="node1" class="node">
<title>dir_4c1986dc9092ab2d1c997193a3634562</title>
<g id="a_node1"><a xlink:href="dir_4c1986dc9092ab2d1c997193a3634562.html" target="_top" xlink:title="infra">
<polygon fill="none" stroke="black" points="70,-196 16,-196 16,-160 70,-160 70,-196"/>
<text text-anchor="middle" x="43" y="-175.5" font-family="Helvetica,sans-Serif" font-size="10.00">infra</text>
</a>
</g>
</g>
<!-- dir_62e9b24ece508051f26d84717c79c815 -->
<g id="node3" class="node">
<title>dir_62e9b24ece508051f26d84717c79c815</title>
<g id="a_node3"><a xlink:href="dir_62e9b24ece508051f26d84717c79c815.html" target="_top" xlink:title="port">
<polygon fill="#eeeeff" stroke="black" points="70,-124 16,-124 16,-88 70,-88 70,-124"/>
<text text-anchor="middle" x="43" y="-103.5" font-family="Helvetica,sans-Serif" font-size="10.00">port</text>
</a>
</g>
</g>
<!-- dir_4c1986dc9092ab2d1c997193a3634562&#45;&gt;dir_62e9b24ece508051f26d84717c79c815 -->
<g id="edge1" class="edge">
<title>dir_4c1986dc9092ab2d1c997193a3634562&#45;&gt;dir_62e9b24ece508051f26d84717c79c815</title>
<path fill="none" stroke="black" d="M37.08,-159.7C36.29,-151.98 36.06,-142.71 36.4,-134.11"/>
<polygon fill="black" stroke="black" points="39.9,-134.32 37.1,-124.1 32.92,-133.84 39.9,-134.32"/>
<g id="a_edge1&#45;headlabel"><a xlink:href="dir_000002_000004.html" target="_top" xlink:title="2">
<text text-anchor="middle" x="42.48" y="-135.61" font-family="Helvetica,sans-Serif" font-size="10.00">2</text>
</a>
</g>
</g>
<!-- dir_52949f44d4caf8ec53681e2fdb42569d -->
<g id="node2" class="node">
<title>dir_52949f44d4caf8ec53681e2fdb42569d</title>
<g id="a_node2"><a xlink:href="dir_52949f44d4caf8ec53681e2fdb42569d.html" target="_top" xlink:title="config">
<polygon fill="none" stroke="black" points="70,-52 16,-52 16,-16 70,-16 70,-52"/>
<text text-anchor="middle" x="43" y="-31.5" font-family="Helvetica,sans-Serif" font-size="10.00">config</text>
</a>
</g>
</g>
<!-- dir_62e9b24ece508051f26d84717c79c815&#45;&gt;dir_4c1986dc9092ab2d1c997193a3634562 -->
<g id="edge2" class="edge">
<title>dir_62e9b24ece508051f26d84717c79c815&#45;&gt;dir_4c1986dc9092ab2d1c997193a3634562</title>
<path fill="none" stroke="black" d="M48.9,-124.1C49.7,-131.79 49.94,-141.05 49.6,-149.67"/>
<polygon fill="black" stroke="black" points="46.11,-149.48 48.92,-159.7 53.09,-149.96 46.11,-149.48"/>
<g id="a_edge2&#45;headlabel"><a xlink:href="dir_000004_000002.html" target="_top" xlink:title="1">
<text text-anchor="middle" x="43.52" y="-143.2" font-family="Helvetica,sans-Serif" font-size="10.00">1</text>
</a>
</g>
</g>
<!-- dir_62e9b24ece508051f26d84717c79c815&#45;&gt;dir_52949f44d4caf8ec53681e2fdb42569d -->
<g id="edge3" class="edge">
<title>dir_62e9b24ece508051f26d84717c79c815&#45;&gt;dir_52949f44d4caf8ec53681e2fdb42569d</title>
<path fill="none" stroke="black" d="M43,-87.7C43,-79.98 43,-70.71 43,-62.11"/>
<polygon fill="black" stroke="black" points="46.5,-62.1 43,-52.1 39.5,-62.1 46.5,-62.1"/>
<g id="a_edge3&#45;headlabel"><a xlink:href="dir_000004_000001.html" target="_top" xlink:title="1">
<text text-anchor="middle" x="49.34" y="-63.2" font-family="Helvetica,sans-Serif" font-size="10.00">1</text>
</a>
</g>
</g>
</g>
</svg>
