<?xml version="1.0" encoding="UTF-8" standalone="no"?>
<!DOCTYPE svg PUBLIC "-//W3C//DTD SVG 1.1//EN"
 "http://www.w3.org/Graphics/SVG/1.1/DTD/svg11.dtd">
<!-- Generated by graphviz version 2.43.0 (0)
 -->
<!-- Title: transports Pages: 1 -->
<svg width="114pt" height="239pt"
 viewBox="0.00 0.00 114.00 239.00" xmlns="http://www.w3.org/2000/svg" xmlns:xlink="http://www.w3.org/1999/xlink">
<g id="graph0" class="graph" transform="scale(1 1) rotate(0) translate(4 235)">
<title>transports</title>
<polygon fill="white" stroke="transparent" points="-4,4 -4,-235 110,-235 110,4 -4,4"/>
<g id="clust1" class="cluster">
<title>clusterdir_ecce72d14eab190b8175cc3cd0696eeb</title>
<g id="a_clust1"><a xlink:href="dir_ecce72d14eab190b8175cc3cd0696eeb.html" target="_top" xlink:title="erpc_c">
<polygon fill="#ddddee" stroke="black" points="8,-8 8,-223 98,-223 98,-8 8,-8"/>
<text text-anchor="middle" x="53" y="-211" font-family="Helvetica,sans-Serif" font-size="10.00">erpc_c</text>
</a>
</g>
</g>
<!-- dir_4c1986dc9092ab2d1c997193a3634562 -->
<g id="node1" class="node">
<title>dir_4c1986dc9092ab2d1c997193a3634562</title>
<g id="a_node1"><a xlink:href="dir_4c1986dc9092ab2d1c997193a3634562.html" target="_top" xlink:title="infra">
<polygon fill="none" stroke="black" points="70,-124 16,-124 16,-88 70,-88 70,-124"/>
<text text-anchor="middle" x="43" y="-103.5" font-family="Helvetica,sans-Serif" font-size="10.00">infra</text>
</a>
</g>
</g>
<!-- dir_62e9b24ece508051f26d84717c79c815 -->
<g id="node2" class="node">
<title>dir_62e9b24ece508051f26d84717c79c815</title>
<g id="a_node2"><a xlink:href="dir_62e9b24ece508051f26d84717c79c815.html" target="_top" xlink:title="port">
<polygon fill="none" stroke="black" points="70,-52 16,-52 16,-16 70,-16 70,-52"/>
<text text-anchor="middle" x="43" y="-31.5" font-family="Helvetica,sans-Serif" font-size="10.00">port</text>
</a>
</g>
</g>
<!-- dir_4c1986dc9092ab2d1c997193a3634562&#45;&gt;dir_62e9b24ece508051f26d84717c79c815 -->
<g id="edge3" class="edge">
<title>dir_4c1986dc9092ab2d1c997193a3634562&#45;&gt;dir_62e9b24ece508051f26d84717c79c815</title>
<path fill="none" stroke="black" d="M37.08,-87.7C36.29,-79.98 36.06,-70.71 36.4,-62.11"/>
<polygon fill="black" stroke="black" points="39.9,-62.32 37.1,-52.1 32.92,-61.84 39.9,-62.32"/>
<g id="a_edge3&#45;headlabel"><a xlink:href="dir_000002_000004.html" target="_top" xlink:title="2">
<text text-anchor="middle" x="42.48" y="-63.61" font-family="Helvetica,sans-Serif" font-size="10.00">2</text>
</a>
</g>
</g>
<!-- dir_62e9b24ece508051f26d84717c79c815&#45;&gt;dir_4c1986dc9092ab2d1c997193a3634562 -->
<g id="edge4" class="edge">
<title>dir_62e9b24ece508051f26d84717c79c815&#45;&gt;dir_4c1986dc9092ab2d1c997193a3634562</title>
<path fill="none" stroke="black" d="M48.9,-52.1C49.7,-59.79 49.94,-69.05 49.6,-77.67"/>
<polygon fill="black" stroke="black" points="46.11,-77.48 48.92,-87.7 53.09,-77.96 46.11,-77.48"/>
<g id="a_edge4&#45;headlabel"><a xlink:href="dir_000004_000002.html" target="_top" xlink:title="1">
<text text-anchor="middle" x="43.52" y="-71.2" font-family="Helvetica,sans-Serif" font-size="10.00">1</text>
</a>
</g>
</g>
<!-- dir_65f3d2eaa0376abba9fa4e8a5e7d2f88 -->
<g id="node3" class="node">
<title>dir_65f3d2eaa0376abba9fa4e8a5e7d2f88</title>
<g id="a_node3"><a xlink:href="dir_65f3d2eaa0376abba9fa4e8a5e7d2f88.html" target="_top" xlink:title="transports">
<polygon fill="#eeeeff" stroke="black" points="86,-196 20,-196 20,-160 86,-160 86,-196"/>
<text text-anchor="middle" x="53" y="-175.5" font-family="Helvetica,sans-Serif" font-size="10.00">transports</text>
</a>
</g>
</g>
<!-- dir_65f3d2eaa0376abba9fa4e8a5e7d2f88&#45;&gt;dir_4c1986dc9092ab2d1c997193a3634562 -->
<g id="edge1" class="edge">
<title>dir_65f3d2eaa0376abba9fa4e8a5e7d2f88&#45;&gt;dir_4c1986dc9092ab2d1c997193a3634562</title>
<path fill="none" stroke="black" d="M50.53,-159.7C49.43,-151.98 48.1,-142.71 46.87,-134.11"/>
<polygon fill="black" stroke="black" points="50.32,-133.51 45.44,-124.1 43.39,-134.5 50.32,-133.51"/>
<g id="a_edge1&#45;headlabel"><a xlink:href="dir_000005_000002.html" target="_top" xlink:title="31">
<text text-anchor="middle" x="53.64" y="-134.17" font-family="Helvetica,sans-Serif" font-size="10.00">31</text>
</a>
</g>
</g>
<!-- dir_65f3d2eaa0376abba9fa4e8a5e7d2f88&#45;&gt;dir_62e9b24ece508051f26d84717c79c815 -->
<g id="edge2" class="edge">
<title>dir_65f3d2eaa0376abba9fa4e8a5e7d2f88&#45;&gt;dir_62e9b24ece508051f26d84717c79c815</title>
<path fill="none" stroke="black" d="M64.05,-159.61C69.74,-149.62 76.08,-136.58 79,-124 82.62,-108.41 83.7,-103.29 79,-88 75.99,-78.22 70.49,-68.62 64.68,-60.33"/>
<polygon fill="black" stroke="black" points="67.41,-58.13 58.61,-52.23 61.81,-62.33 67.41,-58.13"/>
<g id="a_edge2&#45;headlabel"><a xlink:href="dir_000005_000004.html" target="_top" xlink:title="14">
<text text-anchor="middle" x="71.83" y="-56.8" font-family="Helvetica,sans-Serif" font-size="10.00">14</text>
</a>
</g>
</g>
</g>
</svg>
