<?xml version="1.0" encoding="UTF-8" standalone="no"?>
<!DOCTYPE svg PUBLIC "-//W3C//DTD SVG 1.1//EN"
 "http://www.w3.org/Graphics/SVG/1.1/DTD/svg11.dtd">
<!-- Generated by graphviz version 2.43.0 (0)
 -->
<!-- Title: erpc_transport_arbitrator.hpp Pages: 1 -->
<svg width="483pt" height="375pt"
 viewBox="0.00 0.00 482.50 375.00" xmlns="http://www.w3.org/2000/svg" xmlns:xlink="http://www.w3.org/1999/xlink">
<g id="graph0" class="graph" transform="scale(1 1) rotate(0) translate(4 371)">
<title>erpc_transport_arbitrator.hpp</title>
<polygon fill="white" stroke="transparent" points="-4,4 -4,-371 478.5,-371 478.5,4 -4,4"/>
<!-- Node1 -->
<g id="node1" class="node">
<title>Node1</title>
<g id="a_node1"><a xlink:title=" ">
<polygon fill="#bfbfbf" stroke="black" points="148.5,-347.5 148.5,-366.5 307.5,-366.5 307.5,-347.5 148.5,-347.5"/>
<text text-anchor="middle" x="228" y="-354.5" font-family="Helvetica,sans-Serif" font-size="10.00">erpc_transport_arbitrator.hpp</text>
</a>
</g>
</g>
<!-- Node2 -->
<g id="node2" class="node">
<title>Node2</title>
<g id="a_node2"><a xlink:href="erpc__client__manager_8h.html" target="_top" xlink:title=" ">
<polygon fill="white" stroke="black" points="210,-291.5 210,-310.5 338,-310.5 338,-291.5 210,-291.5"/>
<text text-anchor="middle" x="274" y="-298.5" font-family="Helvetica,sans-Serif" font-size="10.00">erpc_client_manager.h</text>
</a>
</g>
</g>
<!-- Node1&#45;&gt;Node2 -->
<g id="edge1" class="edge">
<title>Node1&#45;&gt;Node2</title>
<path fill="none" stroke="midnightblue" d="M235.6,-347.08C242.23,-339.3 252.02,-327.8 260.06,-318.37"/>
<polygon fill="midnightblue" stroke="midnightblue" points="262.73,-320.63 266.55,-310.75 257.4,-316.09 262.73,-320.63"/>
</g>
<!-- Node4 -->
<g id="node4" class="node">
<title>Node4</title>
<g id="a_node4"><a xlink:href="erpc__codec_8hpp.html" target="_top" xlink:title=" ">
<polygon fill="white" stroke="black" points="156,-168.5 156,-187.5 248,-187.5 248,-168.5 156,-168.5"/>
<text text-anchor="middle" x="202" y="-175.5" font-family="Helvetica,sans-Serif" font-size="10.00">erpc_codec.hpp</text>
</a>
</g>
</g>
<!-- Node1&#45;&gt;Node4 -->
<g id="edge20" class="edge">
<title>Node1&#45;&gt;Node4</title>
<path fill="none" stroke="midnightblue" d="M220.85,-347.36C214.23,-338.76 204.84,-324.87 201,-311 190.13,-271.75 194.83,-223.39 198.73,-197.48"/>
<polygon fill="midnightblue" stroke="midnightblue" points="202.19,-197.98 200.35,-187.55 195.28,-196.85 202.19,-197.98"/>
</g>
<!-- Node9 -->
<g id="node9" class="node">
<title>Node9</title>
<g id="a_node9"><a xlink:href="erpc__transport_8hpp.html" target="_top" xlink:title=" ">
<polygon fill="white" stroke="black" points="66,-112.5 66,-131.5 174,-131.5 174,-112.5 66,-112.5"/>
<text text-anchor="middle" x="120" y="-119.5" font-family="Helvetica,sans-Serif" font-size="10.00">erpc_transport.hpp</text>
</a>
</g>
</g>
<!-- Node1&#45;&gt;Node9 -->
<g id="edge24" class="edge">
<title>Node1&#45;&gt;Node9</title>
<path fill="none" stroke="midnightblue" d="M219.67,-347.3C211.73,-338.64 199.86,-324.72 192,-311 158.61,-252.71 134.77,-175.98 124.96,-141.35"/>
<polygon fill="midnightblue" stroke="midnightblue" points="128.32,-140.36 122.28,-131.66 121.58,-142.23 128.32,-140.36"/>
</g>
<!-- Node16 -->
<g id="node16" class="node">
<title>Node16</title>
<g id="a_node16"><a xlink:href="erpc__threading_8h.html" target="_top" xlink:title=" ">
<polygon fill="white" stroke="black" points="339,-230 339,-249 437,-249 437,-230 339,-230"/>
<text text-anchor="middle" x="388" y="-237" font-family="Helvetica,sans-Serif" font-size="10.00">erpc_threading.h</text>
</a>
</g>
</g>
<!-- Node1&#45;&gt;Node16 -->
<g id="edge21" class="edge">
<title>Node1&#45;&gt;Node16</title>
<path fill="none" stroke="midnightblue" d="M270.47,-347.44C294.98,-340.79 325.17,-329.49 347,-311 363.5,-297.02 374.91,-274.62 381.43,-258.83"/>
<polygon fill="midnightblue" stroke="midnightblue" points="384.83,-259.73 385.16,-249.14 378.3,-257.21 384.83,-259.73"/>
</g>
<!-- Node3 -->
<g id="node3" class="node">
<title>Node3</title>
<g id="a_node3"><a xlink:href="erpc__client__server__common_8hpp.html" target="_top" xlink:title=" ">
<polygon fill="white" stroke="black" points="215,-224.5 215,-254.5 321,-254.5 321,-224.5 215,-224.5"/>
<text text-anchor="start" x="223" y="-242.5" font-family="Helvetica,sans-Serif" font-size="10.00">erpc_client_server</text>
<text text-anchor="middle" x="268" y="-231.5" font-family="Helvetica,sans-Serif" font-size="10.00">_common.hpp</text>
</a>
</g>
</g>
<!-- Node2&#45;&gt;Node3 -->
<g id="edge2" class="edge">
<title>Node2&#45;&gt;Node3</title>
<path fill="none" stroke="midnightblue" d="M273.14,-291.48C272.43,-284.47 271.4,-274.19 270.44,-264.7"/>
<polygon fill="midnightblue" stroke="midnightblue" points="273.9,-264.12 269.41,-254.52 266.94,-264.82 273.9,-264.12"/>
</g>
<!-- Node3&#45;&gt;Node4 -->
<g id="edge3" class="edge">
<title>Node3&#45;&gt;Node4</title>
<path fill="none" stroke="midnightblue" d="M252.36,-224.4C242.37,-215.4 229.42,-203.72 219.15,-194.47"/>
<polygon fill="midnightblue" stroke="midnightblue" points="221.37,-191.75 211.6,-187.66 216.69,-196.95 221.37,-191.75"/>
</g>
<!-- Node13 -->
<g id="node13" class="node">
<title>Node13</title>
<g id="a_node13"><a xlink:href="erpc__config__internal_8h_source.html" target="_top" xlink:title=" ">
<polygon fill="white" stroke="black" points="304.5,-168.5 304.5,-187.5 429.5,-187.5 429.5,-168.5 304.5,-168.5"/>
<text text-anchor="middle" x="367" y="-175.5" font-family="Helvetica,sans-Serif" font-size="10.00">erpc_config_internal.h</text>
</a>
</g>
</g>
<!-- Node3&#45;&gt;Node13 -->
<g id="edge17" class="edge">
<title>Node3&#45;&gt;Node13</title>
<path fill="none" stroke="midnightblue" d="M291.46,-224.4C307.33,-214.86 328.19,-202.32 343.97,-192.84"/>
<polygon fill="midnightblue" stroke="midnightblue" points="345.83,-195.81 352.59,-187.66 342.22,-189.81 345.83,-195.81"/>
</g>
<!-- Node5 -->
<g id="node5" class="node">
<title>Node5</title>
<g id="a_node5"><a xlink:href="erpc__common_8h_source.html" target="_top" xlink:title=" ">
<polygon fill="white" stroke="black" points="192.5,-0.5 192.5,-19.5 287.5,-19.5 287.5,-0.5 192.5,-0.5"/>
<text text-anchor="middle" x="240" y="-7.5" font-family="Helvetica,sans-Serif" font-size="10.00">erpc_common.h</text>
</a>
</g>
</g>
<!-- Node4&#45;&gt;Node5 -->
<g id="edge4" class="edge">
<title>Node4&#45;&gt;Node5</title>
<path fill="none" stroke="midnightblue" d="M204.04,-168.08C210.02,-141.95 227.59,-65.21 235.75,-29.58"/>
<polygon fill="midnightblue" stroke="midnightblue" points="239.22,-30.1 238.04,-19.57 232.4,-28.53 239.22,-30.1"/>
</g>
<!-- Node6 -->
<g id="node6" class="node">
<title>Node6</title>
<g id="a_node6"><a xlink:href="erpc__message__buffer_8hpp.html" target="_top" xlink:title=" ">
<polygon fill="white" stroke="black" points="268.5,-56.5 268.5,-75.5 411.5,-75.5 411.5,-56.5 268.5,-56.5"/>
<text text-anchor="middle" x="340" y="-63.5" font-family="Helvetica,sans-Serif" font-size="10.00">erpc_message_buffer.hpp</text>
</a>
</g>
</g>
<!-- Node4&#45;&gt;Node6 -->
<g id="edge5" class="edge">
<title>Node4&#45;&gt;Node6</title>
<path fill="none" stroke="midnightblue" d="M212.83,-168.37C236.31,-149.65 292.14,-105.15 321.39,-81.83"/>
<polygon fill="midnightblue" stroke="midnightblue" points="323.58,-84.56 329.22,-75.59 319.22,-79.09 323.58,-84.56"/>
</g>
<!-- Node4&#45;&gt;Node9 -->
<g id="edge9" class="edge">
<title>Node4&#45;&gt;Node9</title>
<path fill="none" stroke="midnightblue" d="M188.83,-168.32C176.15,-159.98 156.77,-147.21 141.79,-137.35"/>
<polygon fill="midnightblue" stroke="midnightblue" points="143.42,-134.23 133.14,-131.65 139.57,-140.08 143.42,-134.23"/>
</g>
<!-- Node11 -->
<g id="node11" class="node">
<title>Node11</title>
<g id="a_node11"><a xlink:title=" ">
<polygon fill="white" stroke="#bfbfbf" points="0,-0.5 0,-19.5 50,-19.5 50,-0.5 0,-0.5"/>
<text text-anchor="middle" x="25" y="-7.5" font-family="Helvetica,sans-Serif" font-size="10.00">cstdint</text>
</a>
</g>
</g>
<!-- Node4&#45;&gt;Node11 -->
<g id="edge15" class="edge">
<title>Node4&#45;&gt;Node11</title>
<path fill="none" stroke="midnightblue" d="M155.83,-169.31C125.9,-162.79 87.04,-151.32 57,-132 28.94,-113.95 18.89,-107.17 7,-76 1.01,-60.31 7.39,-41.79 14.15,-28.55"/>
<polygon fill="midnightblue" stroke="midnightblue" points="17.34,-30.01 19.2,-19.58 11.24,-26.58 17.34,-30.01"/>
</g>
<!-- Node12 -->
<g id="node12" class="node">
<title>Node12</title>
<g id="a_node12"><a xlink:title=" ">
<polygon fill="white" stroke="#bfbfbf" points="162,-56.5 162,-75.5 212,-75.5 212,-56.5 162,-56.5"/>
<text text-anchor="middle" x="187" y="-63.5" font-family="Helvetica,sans-Serif" font-size="10.00">cstring</text>
</a>
</g>
</g>
<!-- Node4&#45;&gt;Node12 -->
<g id="edge16" class="edge">
<title>Node4&#45;&gt;Node12</title>
<path fill="none" stroke="midnightblue" d="M200.82,-168.37C198.4,-150.62 192.82,-109.67 189.54,-85.6"/>
<polygon fill="midnightblue" stroke="midnightblue" points="192.99,-85.03 188.17,-75.59 186.05,-85.97 192.99,-85.03"/>
</g>
<!-- Node6&#45;&gt;Node5 -->
<g id="edge6" class="edge">
<title>Node6&#45;&gt;Node5</title>
<path fill="none" stroke="midnightblue" d="M323.93,-56.32C308.04,-47.74 283.49,-34.49 265.04,-24.52"/>
<polygon fill="midnightblue" stroke="midnightblue" points="266.49,-21.33 256.03,-19.65 263.16,-27.49 266.49,-21.33"/>
</g>
<!-- Node7 -->
<g id="node7" class="node">
<title>Node7</title>
<g id="a_node7"><a xlink:title=" ">
<polygon fill="white" stroke="#bfbfbf" points="313.5,-0.5 313.5,-19.5 366.5,-19.5 366.5,-0.5 313.5,-0.5"/>
<text text-anchor="middle" x="340" y="-7.5" font-family="Helvetica,sans-Serif" font-size="10.00">cstddef</text>
</a>
</g>
</g>
<!-- Node6&#45;&gt;Node7 -->
<g id="edge7" class="edge">
<title>Node6&#45;&gt;Node7</title>
<path fill="none" stroke="midnightblue" d="M340,-56.08C340,-49.01 340,-38.86 340,-29.99"/>
<polygon fill="midnightblue" stroke="midnightblue" points="343.5,-29.75 340,-19.75 336.5,-29.75 343.5,-29.75"/>
</g>
<!-- Node8 -->
<g id="node8" class="node">
<title>Node8</title>
<g id="a_node8"><a xlink:title=" ">
<polygon fill="white" stroke="#bfbfbf" points="421.5,-0.5 421.5,-19.5 474.5,-19.5 474.5,-0.5 421.5,-0.5"/>
<text text-anchor="middle" x="448" y="-7.5" font-family="Helvetica,sans-Serif" font-size="10.00">stdint.h</text>
</a>
</g>
</g>
<!-- Node6&#45;&gt;Node8 -->
<g id="edge8" class="edge">
<title>Node6&#45;&gt;Node8</title>
<path fill="none" stroke="midnightblue" d="M357.35,-56.32C374.67,-47.66 401.52,-34.24 421.5,-24.25"/>
<polygon fill="midnightblue" stroke="midnightblue" points="423.31,-27.26 430.69,-19.65 420.18,-21 423.31,-27.26"/>
</g>
<!-- Node9&#45;&gt;Node5 -->
<g id="edge10" class="edge">
<title>Node9&#45;&gt;Node5</title>
<path fill="none" stroke="midnightblue" d="M122.47,-112.39C126.73,-98.88 136.6,-72.53 153,-56 167.22,-41.67 186.96,-30.96 204.04,-23.58"/>
<polygon fill="midnightblue" stroke="midnightblue" points="205.79,-26.65 213.73,-19.63 203.15,-20.17 205.79,-26.65"/>
</g>
<!-- Node9&#45;&gt;Node6 -->
<g id="edge13" class="edge">
<title>Node9&#45;&gt;Node6</title>
<path fill="none" stroke="midnightblue" d="M154.86,-112.44C192.92,-103.1 253.96,-88.12 295.46,-77.93"/>
<polygon fill="midnightblue" stroke="midnightblue" points="296.43,-81.3 305.3,-75.52 294.76,-74.5 296.43,-81.3"/>
</g>
<!-- Node10 -->
<g id="node10" class="node">
<title>Node10</title>
<g id="a_node10"><a xlink:href="erpc__crc16_8hpp.html" target="_top" xlink:title=" ">
<polygon fill="white" stroke="black" points="16,-56.5 16,-75.5 106,-75.5 106,-56.5 16,-56.5"/>
<text text-anchor="middle" x="61" y="-63.5" font-family="Helvetica,sans-Serif" font-size="10.00">erpc_crc16.hpp</text>
</a>
</g>
</g>
<!-- Node9&#45;&gt;Node10 -->
<g id="edge11" class="edge">
<title>Node9&#45;&gt;Node10</title>
<path fill="none" stroke="midnightblue" d="M110.52,-112.32C101.8,-104.34 88.66,-92.31 78.1,-82.65"/>
<polygon fill="midnightblue" stroke="midnightblue" points="80.39,-80 70.65,-75.83 75.67,-85.17 80.39,-80"/>
</g>
<!-- Node9&#45;&gt;Node12 -->
<g id="edge14" class="edge">
<title>Node9&#45;&gt;Node12</title>
<path fill="none" stroke="midnightblue" d="M130.76,-112.32C140.77,-104.26 155.89,-92.08 167.93,-82.37"/>
<polygon fill="midnightblue" stroke="midnightblue" points="170.45,-84.83 176.04,-75.83 166.06,-79.38 170.45,-84.83"/>
</g>
<!-- Node10&#45;&gt;Node11 -->
<g id="edge12" class="edge">
<title>Node10&#45;&gt;Node11</title>
<path fill="none" stroke="midnightblue" d="M55.06,-56.08C50.02,-48.53 42.66,-37.49 36.49,-28.23"/>
<polygon fill="midnightblue" stroke="midnightblue" points="39.29,-26.13 30.83,-19.75 33.47,-30.01 39.29,-26.13"/>
</g>
<!-- Node14 -->
<g id="node14" class="node">
<title>Node14</title>
<g id="a_node14"><a xlink:href="erpc__config_8h.html" target="_top" xlink:title=" ">
<polygon fill="white" stroke="black" points="306,-112.5 306,-131.5 388,-131.5 388,-112.5 306,-112.5"/>
<text text-anchor="middle" x="347" y="-119.5" font-family="Helvetica,sans-Serif" font-size="10.00">erpc_config.h</text>
</a>
</g>
</g>
<!-- Node13&#45;&gt;Node14 -->
<g id="edge18" class="edge">
<title>Node13&#45;&gt;Node14</title>
<path fill="none" stroke="midnightblue" d="M363.7,-168.08C361.02,-160.85 357.15,-150.41 353.81,-141.4"/>
<polygon fill="midnightblue" stroke="midnightblue" points="357,-139.91 350.24,-131.75 350.43,-142.34 357,-139.91"/>
</g>
<!-- Node15 -->
<g id="node15" class="node">
<title>Node15</title>
<g id="a_node15"><a xlink:title=" ">
<polygon fill="white" stroke="#bfbfbf" points="406,-112.5 406,-131.5 458,-131.5 458,-112.5 406,-112.5"/>
<text text-anchor="middle" x="432" y="-119.5" font-family="Helvetica,sans-Serif" font-size="10.00">cassert</text>
</a>
</g>
</g>
<!-- Node13&#45;&gt;Node15 -->
<g id="edge19" class="edge">
<title>Node13&#45;&gt;Node15</title>
<path fill="none" stroke="midnightblue" d="M377.44,-168.32C387.15,-160.26 401.82,-148.08 413.5,-138.37"/>
<polygon fill="midnightblue" stroke="midnightblue" points="415.91,-140.92 421.37,-131.83 411.44,-135.53 415.91,-140.92"/>
</g>
<!-- Node16&#45;&gt;Node8 -->
<g id="edge23" class="edge">
<title>Node16&#45;&gt;Node8</title>
<path fill="none" stroke="midnightblue" d="M398.79,-229.69C409.88,-220.23 427.16,-204.35 439,-188 455.33,-165.47 460.61,-159.08 467,-132 475.52,-95.93 463.63,-52.88 455.17,-29.08"/>
<polygon fill="midnightblue" stroke="midnightblue" points="458.4,-27.73 451.61,-19.6 451.85,-30.19 458.4,-27.73"/>
</g>
<!-- Node16&#45;&gt;Node13 -->
<g id="edge22" class="edge">
<title>Node16&#45;&gt;Node13</title>
<path fill="none" stroke="midnightblue" d="M384.99,-229.98C381.97,-221.4 377.21,-207.93 373.35,-196.98"/>
<polygon fill="midnightblue" stroke="midnightblue" points="376.63,-195.77 370,-187.51 370.03,-198.1 376.63,-195.77"/>
</g>
</g>
</svg>
