<?xml version="1.0" encoding="UTF-8" standalone="no"?>
<!DOCTYPE svg PUBLIC "-//W3C//DTD SVG 1.1//EN"
 "http://www.w3.org/Graphics/SVG/1.1/DTD/svg11.dtd">
<!-- Generated by graphviz version 2.43.0 (0)
 -->
<!-- Title: erpc_threading.h Pages: 1 -->
<svg width="2393pt" height="162pt"
 viewBox="0.00 0.00 2392.50 162.00" xmlns="http://www.w3.org/2000/svg" xmlns:xlink="http://www.w3.org/1999/xlink">
<g id="graph0" class="graph" transform="scale(1 1) rotate(0) translate(4 158)">
<title>erpc_threading.h</title>
<polygon fill="white" stroke="transparent" points="-4,4 -4,-158 2388.5,-158 2388.5,4 -4,4"/>
<!-- Node1 -->
<g id="node1" class="node">
<title>Node1</title>
<g id="a_node1"><a xlink:title=" ">
<polygon fill="#bfbfbf" stroke="black" points="1512.5,-134.5 1512.5,-153.5 1610.5,-153.5 1610.5,-134.5 1512.5,-134.5"/>
<text text-anchor="middle" x="1561.5" y="-141.5" font-family="Helvetica,sans-Serif" font-size="10.00">erpc_threading.h</text>
</a>
</g>
</g>
<!-- Node2 -->
<g id="node2" class="node">
<title>Node2</title>
<g id="a_node2"><a xlink:href="erpc__framed__transport_8hpp.html" target="_top" xlink:title=" ">
<polygon fill="white" stroke="black" points="1220,-73 1220,-92 1369,-92 1369,-73 1220,-73"/>
<text text-anchor="middle" x="1294.5" y="-80" font-family="Helvetica,sans-Serif" font-size="10.00">erpc_framed_transport.hpp</text>
</a>
</g>
</g>
<!-- Node1&#45;&gt;Node2 -->
<g id="edge1" class="edge">
<title>Node1&#45;&gt;Node2</title>
<path fill="none" stroke="midnightblue" d="M1513.3,-132.26C1461.5,-120.72 1380.23,-102.61 1332.68,-92.01"/>
<polygon fill="midnightblue" stroke="midnightblue" points="1512.72,-135.72 1523.25,-134.48 1514.25,-128.88 1512.72,-135.72"/>
</g>
<!-- Node4 -->
<g id="node4" class="node">
<title>Node4</title>
<g id="a_node4"><a xlink:href="erpc__dspi__slave__transport_8hpp.html" target="_top" xlink:title=" ">
<polygon fill="white" stroke="black" points="0,-6 0,-25 165,-25 165,-6 0,-6"/>
<text text-anchor="middle" x="82.5" y="-13" font-family="Helvetica,sans-Serif" font-size="10.00">erpc_dspi_slave_transport.hpp</text>
</a>
</g>
</g>
<!-- Node1&#45;&gt;Node4 -->
<g id="edge17" class="edge">
<title>Node1&#45;&gt;Node4</title>
<path fill="none" stroke="midnightblue" d="M1501.81,-143.16C1343.78,-142.99 901.65,-138.61 536.5,-98 380.7,-80.67 197.72,-42.19 120.22,-25.04"/>
<polygon fill="midnightblue" stroke="midnightblue" points="1502.24,-146.66 1512.25,-143.17 1502.25,-139.66 1502.24,-146.66"/>
</g>
<!-- Node5 -->
<g id="node5" class="node">
<title>Node5</title>
<g id="a_node5"><a xlink:href="erpc__i2c__slave__transport_8hpp.html" target="_top" xlink:title=" ">
<polygon fill="white" stroke="black" points="183,-6 183,-25 342,-25 342,-6 183,-6"/>
<text text-anchor="middle" x="262.5" y="-13" font-family="Helvetica,sans-Serif" font-size="10.00">erpc_i2c_slave_transport.hpp</text>
</a>
</g>
</g>
<!-- Node1&#45;&gt;Node5 -->
<g id="edge18" class="edge">
<title>Node1&#45;&gt;Node5</title>
<path fill="none" stroke="midnightblue" d="M1502.08,-141.84C1368.7,-138.76 1035.53,-128.42 758.5,-98 589.35,-79.43 390.1,-41.86 304.75,-25.01"/>
<polygon fill="midnightblue" stroke="midnightblue" points="1502.39,-145.35 1512.47,-142.07 1502.55,-138.35 1502.39,-145.35"/>
</g>
<!-- Node6 -->
<g id="node6" class="node">
<title>Node6</title>
<g id="a_node6"><a xlink:href="erpc__lpi2c__slave__transport_8hpp.html" target="_top" xlink:title=" ">
<polygon fill="white" stroke="black" points="359.5,-6 359.5,-25 527.5,-25 527.5,-6 359.5,-6"/>
<text text-anchor="middle" x="443.5" y="-13" font-family="Helvetica,sans-Serif" font-size="10.00">erpc_lpi2c_slave_transport.hpp</text>
</a>
</g>
</g>
<!-- Node1&#45;&gt;Node6 -->
<g id="edge20" class="edge">
<title>Node1&#45;&gt;Node6</title>
<path fill="none" stroke="midnightblue" d="M1502.34,-139.7C1398.24,-133.59 1175.61,-119.19 988.5,-98 786.71,-75.15 737.28,-61.53 536.5,-31 523.9,-29.08 510.34,-26.99 497.58,-25"/>
<polygon fill="midnightblue" stroke="midnightblue" points="1502.15,-143.19 1512.34,-140.28 1502.56,-136.21 1502.15,-143.19"/>
</g>
<!-- Node7 -->
<g id="node7" class="node">
<title>Node7</title>
<g id="a_node7"><a xlink:href="erpc__lpspi__slave__transport_8hpp.html" target="_top" xlink:title=" ">
<polygon fill="white" stroke="black" points="545.5,-6 545.5,-25 713.5,-25 713.5,-6 545.5,-6"/>
<text text-anchor="middle" x="629.5" y="-13" font-family="Helvetica,sans-Serif" font-size="10.00">erpc_lpspi_slave_transport.hpp</text>
</a>
</g>
</g>
<!-- Node1&#45;&gt;Node7 -->
<g id="edge21" class="edge">
<title>Node1&#45;&gt;Node7</title>
<path fill="none" stroke="midnightblue" d="M1502.44,-135.59C1432.66,-126.8 1313.1,-111.62 1210.5,-98 1156.25,-90.8 776.65,-38.94 722.5,-31 709.73,-29.13 695.98,-27.03 683.08,-25.02"/>
<polygon fill="midnightblue" stroke="midnightblue" points="1502,-139.06 1512.36,-136.84 1502.88,-132.12 1502,-139.06"/>
</g>
<!-- Node11 -->
<g id="node11" class="node">
<title>Node11</title>
<g id="a_node11"><a xlink:href="erpc__spi__slave__transport_8hpp.html" target="_top" xlink:title=" ">
<polygon fill="white" stroke="black" points="1534,-6 1534,-25 1693,-25 1693,-6 1534,-6"/>
<text text-anchor="middle" x="1613.5" y="-13" font-family="Helvetica,sans-Serif" font-size="10.00">erpc_spi_slave_transport.hpp</text>
</a>
</g>
</g>
<!-- Node1&#45;&gt;Node11 -->
<g id="edge24" class="edge">
<title>Node1&#45;&gt;Node11</title>
<path fill="none" stroke="midnightblue" d="M1545.48,-126.48C1532.26,-110.75 1517.33,-86.62 1528.5,-67 1540.56,-45.82 1565.39,-32.59 1585.12,-25.02"/>
<polygon fill="midnightblue" stroke="midnightblue" points="1543.2,-129.17 1552.48,-134.28 1548.41,-124.5 1543.2,-129.17"/>
</g>
<!-- Node13 -->
<g id="node13" class="node">
<title>Node13</title>
<g id="a_node13"><a xlink:href="erpc__tcp__transport_8hpp.html" target="_top" xlink:title=" ">
<polygon fill="white" stroke="black" points="1711.5,-6 1711.5,-25 1839.5,-25 1839.5,-6 1711.5,-6"/>
<text text-anchor="middle" x="1775.5" y="-13" font-family="Helvetica,sans-Serif" font-size="10.00">erpc_tcp_transport.hpp</text>
</a>
</g>
</g>
<!-- Node1&#45;&gt;Node13 -->
<g id="edge25" class="edge">
<title>Node1&#45;&gt;Node13</title>
<path fill="none" stroke="midnightblue" d="M1557.1,-124.45C1554.26,-107.51 1553.23,-82.77 1566.5,-67 1571.97,-60.5 1675.3,-37.72 1734.58,-25.09"/>
<polygon fill="midnightblue" stroke="midnightblue" points="1553.68,-125.18 1559.1,-134.28 1560.54,-123.79 1553.68,-125.18"/>
</g>
<!-- Node14 -->
<g id="node14" class="node">
<title>Node14</title>
<g id="a_node14"><a xlink:href="erpc__uart__cmsis__transport_8hpp.html" target="_top" xlink:title=" ">
<polygon fill="white" stroke="black" points="1858,-6 1858,-25 2025,-25 2025,-6 1858,-6"/>
<text text-anchor="middle" x="1941.5" y="-13" font-family="Helvetica,sans-Serif" font-size="10.00">erpc_uart_cmsis_transport.hpp</text>
</a>
</g>
</g>
<!-- Node1&#45;&gt;Node14 -->
<g id="edge26" class="edge">
<title>Node1&#45;&gt;Node14</title>
<path fill="none" stroke="midnightblue" d="M1566.7,-124.66C1572.74,-106.9 1584.53,-80.7 1604.5,-67 1694.9,-5 1740.12,-47.44 1848.5,-31 1861.1,-29.09 1874.66,-27 1887.42,-25.01"/>
<polygon fill="midnightblue" stroke="midnightblue" points="1563.35,-123.62 1563.72,-134.21 1570.03,-125.71 1563.35,-123.62"/>
</g>
<!-- Node15 -->
<g id="node15" class="node">
<title>Node15</title>
<g id="a_node15"><a xlink:href="erpc__uart__zephyr__transport_8hpp.html" target="_top" xlink:title=" ">
<polygon fill="white" stroke="black" points="2043,-6 2043,-25 2214,-25 2214,-6 2043,-6"/>
<text text-anchor="middle" x="2128.5" y="-13" font-family="Helvetica,sans-Serif" font-size="10.00">erpc_uart_zephyr_transport.hpp</text>
</a>
</g>
</g>
<!-- Node1&#45;&gt;Node15 -->
<g id="edge27" class="edge">
<title>Node1&#45;&gt;Node15</title>
<path fill="none" stroke="midnightblue" d="M1577.25,-127.16C1598.52,-105.94 1634.67,-70.52 1642.5,-67 1722.28,-31.12 1947.68,-41.67 2034.5,-31 2048.27,-29.31 2063.12,-27.16 2076.86,-25.05"/>
<polygon fill="midnightblue" stroke="midnightblue" points="1574.76,-124.7 1570.17,-134.25 1579.71,-129.65 1574.76,-124.7"/>
</g>
<!-- Node16 -->
<g id="node16" class="node">
<title>Node16</title>
<g id="a_node16"><a xlink:href="erpc__usb__cdc__transport_8hpp.html" target="_top" xlink:title=" ">
<polygon fill="white" stroke="black" points="2232.5,-6 2232.5,-25 2384.5,-25 2384.5,-6 2232.5,-6"/>
<text text-anchor="middle" x="2308.5" y="-13" font-family="Helvetica,sans-Serif" font-size="10.00">erpc_usb_cdc_transport.hpp</text>
</a>
</g>
</g>
<!-- Node1&#45;&gt;Node16 -->
<g id="edge28" class="edge">
<title>Node1&#45;&gt;Node16</title>
<path fill="none" stroke="midnightblue" d="M1587.53,-129.58C1603.06,-121.18 1622.92,-109.76 1639.5,-98 1656.72,-85.78 1655.96,-74.99 1675.5,-67 1788.46,-20.8 2102.3,-45.28 2223.5,-31 2236.58,-29.46 2250.72,-27.26 2263.63,-25.05"/>
<polygon fill="midnightblue" stroke="midnightblue" points="1585.68,-126.6 1578.49,-134.39 1588.96,-132.78 1585.68,-126.6"/>
</g>
<!-- Node17 -->
<g id="node17" class="node">
<title>Node17</title>
<g id="a_node17"><a xlink:href="erpc__transport__arbitrator_8hpp.html" target="_top" xlink:title=" ">
<polygon fill="white" stroke="black" points="1684,-73 1684,-92 1843,-92 1843,-73 1684,-73"/>
<text text-anchor="middle" x="1763.5" y="-80" font-family="Helvetica,sans-Serif" font-size="10.00">erpc_transport_arbitrator.hpp</text>
</a>
</g>
</g>
<!-- Node1&#45;&gt;Node17 -->
<g id="edge16" class="edge">
<title>Node1&#45;&gt;Node17</title>
<path fill="none" stroke="midnightblue" d="M1600.19,-131.6C1639.45,-120.04 1699.31,-102.41 1734.61,-92.01"/>
<polygon fill="midnightblue" stroke="midnightblue" points="1599.05,-128.29 1590.44,-134.48 1601.02,-135.01 1599.05,-128.29"/>
</g>
<!-- Node18 -->
<g id="node18" class="node">
<title>Node18</title>
<g id="a_node18"><a xlink:href="erpc__inter__thread__buffer__transport_8hpp.html" target="_top" xlink:title=" ">
<polygon fill="white" stroke="black" points="1861,-67.5 1861,-97.5 1998,-97.5 1998,-67.5 1861,-67.5"/>
<text text-anchor="start" x="1869" y="-85.5" font-family="Helvetica,sans-Serif" font-size="10.00">erpc_inter_thread_buffer</text>
<text text-anchor="middle" x="1929.5" y="-74.5" font-family="Helvetica,sans-Serif" font-size="10.00">_transport.hpp</text>
</a>
</g>
</g>
<!-- Node1&#45;&gt;Node18 -->
<g id="edge19" class="edge">
<title>Node1&#45;&gt;Node18</title>
<path fill="none" stroke="midnightblue" d="M1620.98,-134.38C1679.86,-125.72 1772.53,-111.71 1852.5,-98 1855.18,-97.54 1857.91,-97.06 1860.67,-96.58"/>
<polygon fill="midnightblue" stroke="midnightblue" points="1620.14,-130.97 1610.75,-135.89 1621.15,-137.9 1620.14,-130.97"/>
</g>
<!-- Node19 -->
<g id="node19" class="node">
<title>Node19</title>
<g id="a_node19"><a xlink:href="erpc__mbox__zephyr__transport_8hpp.html" target="_top" xlink:title=" ">
<polygon fill="white" stroke="black" points="2016,-73 2016,-92 2195,-92 2195,-73 2016,-73"/>
<text text-anchor="middle" x="2105.5" y="-80" font-family="Helvetica,sans-Serif" font-size="10.00">erpc_mbox_zephyr_transport.hpp</text>
</a>
</g>
</g>
<!-- Node1&#45;&gt;Node19 -->
<g id="edge22" class="edge">
<title>Node1&#45;&gt;Node19</title>
<path fill="none" stroke="midnightblue" d="M1620.79,-137.9C1706.33,-130.34 1869.28,-115.19 2007.5,-98 2021.67,-96.24 2036.95,-94.09 2051.13,-92"/>
<polygon fill="midnightblue" stroke="midnightblue" points="1620.41,-134.42 1610.75,-138.78 1621.02,-141.39 1620.41,-134.42"/>
</g>
<!-- Node20 -->
<g id="node20" class="node">
<title>Node20</title>
<g id="a_node20"><a xlink:href="erpc__mu__transport_8hpp.html" target="_top" xlink:title=" ">
<polygon fill="white" stroke="black" points="2213,-73 2213,-92 2342,-92 2342,-73 2213,-73"/>
<text text-anchor="middle" x="2277.5" y="-80" font-family="Helvetica,sans-Serif" font-size="10.00">erpc_mu_transport.hpp</text>
</a>
</g>
</g>
<!-- Node1&#45;&gt;Node20 -->
<g id="edge23" class="edge">
<title>Node1&#45;&gt;Node20</title>
<path fill="none" stroke="midnightblue" d="M1620.74,-141.35C1734.38,-137.64 1990.73,-126.6 2204.5,-98 2215.9,-96.48 2228.19,-94.26 2239.39,-92.01"/>
<polygon fill="midnightblue" stroke="midnightblue" points="1620.4,-137.86 1610.51,-141.68 1620.62,-144.86 1620.4,-137.86"/>
</g>
<!-- Node3 -->
<g id="node3" class="node">
<title>Node3</title>
<g id="a_node3"><a xlink:href="erpc__dspi__master__transport_8hpp.html" target="_top" xlink:title=" ">
<polygon fill="white" stroke="black" points="1208,-6 1208,-25 1381,-25 1381,-6 1208,-6"/>
<text text-anchor="middle" x="1294.5" y="-13" font-family="Helvetica,sans-Serif" font-size="10.00">erpc_dspi_master_transport.hpp</text>
</a>
</g>
</g>
<!-- Node2&#45;&gt;Node3 -->
<g id="edge2" class="edge">
<title>Node2&#45;&gt;Node3</title>
<path fill="none" stroke="midnightblue" d="M1294.5,-62.54C1294.5,-50.17 1294.5,-34.62 1294.5,-25.13"/>
<polygon fill="midnightblue" stroke="midnightblue" points="1291,-62.73 1294.5,-72.73 1298,-62.73 1291,-62.73"/>
</g>
<!-- Node2&#45;&gt;Node4 -->
<g id="edge3" class="edge">
<title>Node2&#45;&gt;Node4</title>
<path fill="none" stroke="midnightblue" d="M1209.79,-80.95C1022.46,-79.01 559.12,-70.28 173.5,-31 159.18,-29.54 143.68,-27.32 129.6,-25.04"/>
<polygon fill="midnightblue" stroke="midnightblue" points="1209.81,-84.45 1219.84,-81.05 1209.88,-77.45 1209.81,-84.45"/>
</g>
<!-- Node2&#45;&gt;Node5 -->
<g id="edge4" class="edge">
<title>Node2&#45;&gt;Node5</title>
<path fill="none" stroke="midnightblue" d="M1209.81,-80.09C1044.27,-76.63 666.33,-65.36 350.5,-31 336.8,-29.51 321.99,-27.3 308.5,-25.06"/>
<polygon fill="midnightblue" stroke="midnightblue" points="1209.86,-83.59 1219.93,-80.29 1210,-76.59 1209.86,-83.59"/>
</g>
<!-- Node2&#45;&gt;Node6 -->
<g id="edge5" class="edge">
<title>Node2&#45;&gt;Node6</title>
<path fill="none" stroke="midnightblue" d="M1209.54,-78.28C1069.13,-72.42 779.96,-58.04 536.5,-31 522.37,-29.43 507.1,-27.25 493.1,-25.06"/>
<polygon fill="midnightblue" stroke="midnightblue" points="1209.66,-81.79 1219.8,-78.71 1209.95,-74.8 1209.66,-81.79"/>
</g>
<!-- Node2&#45;&gt;Node7 -->
<g id="edge6" class="edge">
<title>Node2&#45;&gt;Node7</title>
<path fill="none" stroke="midnightblue" d="M1209.75,-73.14C1188.45,-71.08 1165.64,-68.92 1144.5,-67 957.04,-49.94 909.39,-53.51 722.5,-31 708.71,-29.34 693.82,-27.18 680.09,-25.04"/>
<polygon fill="midnightblue" stroke="midnightblue" points="1209.45,-76.63 1219.74,-74.11 1210.13,-69.66 1209.45,-76.63"/>
</g>
<!-- Node8 -->
<g id="node8" class="node">
<title>Node8</title>
<g id="a_node8"><a xlink:href="erpc__rpmsg__tty__rtos__transport_8hpp.html" target="_top" xlink:title=" ">
<polygon fill="white" stroke="black" points="1399.5,-0.5 1399.5,-30.5 1515.5,-30.5 1515.5,-0.5 1399.5,-0.5"/>
<text text-anchor="start" x="1407.5" y="-18.5" font-family="Helvetica,sans-Serif" font-size="10.00">erpc_rpmsg_tty_rtos</text>
<text text-anchor="middle" x="1457.5" y="-7.5" font-family="Helvetica,sans-Serif" font-size="10.00">_transport.hpp</text>
</a>
</g>
</g>
<!-- Node2&#45;&gt;Node8 -->
<g id="edge7" class="edge">
<title>Node2&#45;&gt;Node8</title>
<path fill="none" stroke="midnightblue" d="M1325.7,-69.06C1353.31,-58.05 1393.57,-41.99 1422.32,-30.53"/>
<polygon fill="midnightblue" stroke="midnightblue" points="1324.14,-65.91 1316.15,-72.87 1326.73,-72.42 1324.14,-65.91"/>
</g>
<!-- Node9 -->
<g id="node9" class="node">
<title>Node9</title>
<g id="a_node9"><a xlink:href="erpc__serial__transport_8hpp.html" target="_top" xlink:title=" ">
<polygon fill="white" stroke="black" points="731.5,-6 731.5,-25 871.5,-25 871.5,-6 731.5,-6"/>
<text text-anchor="middle" x="801.5" y="-13" font-family="Helvetica,sans-Serif" font-size="10.00">erpc_serial_transport.hpp</text>
</a>
</g>
</g>
<!-- Node2&#45;&gt;Node9 -->
<g id="edge8" class="edge">
<title>Node2&#45;&gt;Node9</title>
<path fill="none" stroke="midnightblue" d="M1209.92,-72.69C1126.11,-63.6 994.16,-48.35 880.5,-31 869.06,-29.25 856.73,-27.12 845.3,-25.02"/>
<polygon fill="midnightblue" stroke="midnightblue" points="1209.58,-76.17 1219.9,-73.77 1210.34,-69.21 1209.58,-76.17"/>
</g>
<!-- Node10 -->
<g id="node10" class="node">
<title>Node10</title>
<g id="a_node10"><a xlink:href="erpc__spi__master__transport_8hpp.html" target="_top" xlink:title=" ">
<polygon fill="white" stroke="black" points="890,-6 890,-25 1057,-25 1057,-6 890,-6"/>
<text text-anchor="middle" x="973.5" y="-13" font-family="Helvetica,sans-Serif" font-size="10.00">erpc_spi_master_transport.hpp</text>
</a>
</g>
</g>
<!-- Node2&#45;&gt;Node10 -->
<g id="edge9" class="edge">
<title>Node2&#45;&gt;Node10</title>
<path fill="none" stroke="midnightblue" d="M1242.05,-70.88C1178.83,-58.08 1073.85,-36.82 1015.63,-25.03"/>
<polygon fill="midnightblue" stroke="midnightblue" points="1241.71,-74.38 1252.2,-72.94 1243.1,-67.52 1241.71,-74.38"/>
</g>
<!-- Node2&#45;&gt;Node11 -->
<g id="edge10" class="edge">
<title>Node2&#45;&gt;Node11</title>
<path fill="none" stroke="midnightblue" d="M1346.62,-70.88C1409.45,-58.08 1513.78,-36.82 1571.63,-25.03"/>
<polygon fill="midnightblue" stroke="midnightblue" points="1345.63,-67.51 1336.53,-72.94 1347.03,-74.37 1345.63,-67.51"/>
</g>
<!-- Node12 -->
<g id="node12" class="node">
<title>Node12</title>
<g id="a_node12"><a xlink:href="erpc__spidev__master__transport_8hpp.html" target="_top" xlink:title=" ">
<polygon fill="white" stroke="black" points="1075,-0.5 1075,-30.5 1190,-30.5 1190,-0.5 1075,-0.5"/>
<text text-anchor="start" x="1083" y="-18.5" font-family="Helvetica,sans-Serif" font-size="10.00">erpc_spidev_master</text>
<text text-anchor="middle" x="1132.5" y="-7.5" font-family="Helvetica,sans-Serif" font-size="10.00">_transport.hpp</text>
</a>
</g>
</g>
<!-- Node2&#45;&gt;Node12 -->
<g id="edge11" class="edge">
<title>Node2&#45;&gt;Node12</title>
<path fill="none" stroke="midnightblue" d="M1263.49,-69.06C1236.05,-58.05 1196.03,-41.99 1167.46,-30.53"/>
<polygon fill="midnightblue" stroke="midnightblue" points="1262.4,-72.39 1272.99,-72.87 1265.01,-65.9 1262.4,-72.39"/>
</g>
<!-- Node2&#45;&gt;Node13 -->
<g id="edge12" class="edge">
<title>Node2&#45;&gt;Node13</title>
<path fill="none" stroke="midnightblue" d="M1379.44,-72.71C1461.95,-63.77 1590.64,-48.72 1701.5,-31 1712.23,-29.29 1723.78,-27.16 1734.49,-25.07"/>
<polygon fill="midnightblue" stroke="midnightblue" points="1378.93,-69.25 1369.36,-73.8 1379.68,-76.21 1378.93,-69.25"/>
</g>
<!-- Node2&#45;&gt;Node14 -->
<g id="edge13" class="edge">
<title>Node2&#45;&gt;Node14</title>
<path fill="none" stroke="midnightblue" d="M1379.3,-75.46C1488.15,-67.32 1682.75,-51.45 1848.5,-31 1862.12,-29.32 1876.82,-27.18 1890.42,-25.06"/>
<polygon fill="midnightblue" stroke="midnightblue" points="1378.75,-71.99 1369.04,-76.22 1379.27,-78.97 1378.75,-71.99"/>
</g>
<!-- Node2&#45;&gt;Node15 -->
<g id="edge14" class="edge">
<title>Node2&#45;&gt;Node15</title>
<path fill="none" stroke="midnightblue" d="M1379.33,-78.06C1517.1,-71.94 1797.89,-57.27 2034.5,-31 2048.78,-29.41 2064.21,-27.23 2078.36,-25.04"/>
<polygon fill="midnightblue" stroke="midnightblue" points="1379.1,-74.56 1369.26,-78.5 1379.41,-81.56 1379.1,-74.56"/>
</g>
<!-- Node2&#45;&gt;Node16 -->
<g id="edge15" class="edge">
<title>Node2&#45;&gt;Node16</title>
<path fill="none" stroke="midnightblue" d="M1379.1,-78.15C1576.16,-70.13 2061.29,-49.18 2223.5,-31 2236.74,-29.52 2251.05,-27.31 2264.08,-25.07"/>
<polygon fill="midnightblue" stroke="midnightblue" points="1378.94,-74.65 1369.09,-78.55 1379.22,-81.64 1378.94,-74.65"/>
</g>
</g>
</svg>
