<?xml version="1.0" encoding="UTF-8" standalone="no"?>
<!DOCTYPE svg PUBLIC "-//W3C//DTD SVG 1.1//EN"
 "http://www.w3.org/Graphics/SVG/1.1/DTD/svg11.dtd">
<!-- Generated by graphviz version 2.43.0 (0)
 -->
<!-- Title: erpc_message_loggers.hpp Pages: 1 -->
<svg width="371pt" height="196pt"
 viewBox="0.00 0.00 371.00 196.00" xmlns="http://www.w3.org/2000/svg" xmlns:xlink="http://www.w3.org/1999/xlink">
<g id="graph0" class="graph" transform="scale(1 1) rotate(0) translate(4 192)">
<title>erpc_message_loggers.hpp</title>
<polygon fill="white" stroke="transparent" points="-4,4 -4,-192 367,-192 367,4 -4,4"/>
<!-- Node1 -->
<g id="node1" class="node">
<title>Node1</title>
<g id="a_node1"><a xlink:title=" ">
<polygon fill="#bfbfbf" stroke="black" points="98.5,-168.5 98.5,-187.5 247.5,-187.5 247.5,-168.5 98.5,-168.5"/>
<text text-anchor="middle" x="173" y="-175.5" font-family="Helvetica,sans-Serif" font-size="10.00">erpc_message_loggers.hpp</text>
</a>
</g>
</g>
<!-- Node2 -->
<g id="node2" class="node">
<title>Node2</title>
<g id="a_node2"><a xlink:href="erpc__transport_8hpp.html" target="_top" xlink:title=" ">
<polygon fill="white" stroke="black" points="119,-112.5 119,-131.5 227,-131.5 227,-112.5 119,-112.5"/>
<text text-anchor="middle" x="173" y="-119.5" font-family="Helvetica,sans-Serif" font-size="10.00">erpc_transport.hpp</text>
</a>
</g>
</g>
<!-- Node1&#45;&gt;Node2 -->
<g id="edge1" class="edge">
<title>Node1&#45;&gt;Node2</title>
<path fill="none" stroke="midnightblue" d="M173,-168.08C173,-161.01 173,-150.86 173,-141.99"/>
<polygon fill="midnightblue" stroke="midnightblue" points="176.5,-141.75 173,-131.75 169.5,-141.75 176.5,-141.75"/>
</g>
<!-- Node3 -->
<g id="node3" class="node">
<title>Node3</title>
<g id="a_node3"><a xlink:href="erpc__common_8h_source.html" target="_top" xlink:title=" ">
<polygon fill="white" stroke="black" points="83.5,-0.5 83.5,-19.5 178.5,-19.5 178.5,-0.5 83.5,-0.5"/>
<text text-anchor="middle" x="131" y="-7.5" font-family="Helvetica,sans-Serif" font-size="10.00">erpc_common.h</text>
</a>
</g>
</g>
<!-- Node2&#45;&gt;Node3 -->
<g id="edge2" class="edge">
<title>Node2&#45;&gt;Node3</title>
<path fill="none" stroke="midnightblue" d="M165.33,-112.37C158.12,-103.78 147.64,-89.89 142,-76 136.01,-61.24 133.28,-43.31 132.04,-30.02"/>
<polygon fill="midnightblue" stroke="midnightblue" points="135.51,-29.45 131.28,-19.74 128.53,-29.97 135.51,-29.45"/>
</g>
<!-- Node4 -->
<g id="node4" class="node">
<title>Node4</title>
<g id="a_node4"><a xlink:href="erpc__crc16_8hpp.html" target="_top" xlink:title=" ">
<polygon fill="white" stroke="black" points="0,-56.5 0,-75.5 90,-75.5 90,-56.5 0,-56.5"/>
<text text-anchor="middle" x="45" y="-63.5" font-family="Helvetica,sans-Serif" font-size="10.00">erpc_crc16.hpp</text>
</a>
</g>
</g>
<!-- Node2&#45;&gt;Node4 -->
<g id="edge3" class="edge">
<title>Node2&#45;&gt;Node4</title>
<path fill="none" stroke="midnightblue" d="M152.72,-112.44C131.65,-103.56 98.48,-89.56 74.51,-79.45"/>
<polygon fill="midnightblue" stroke="midnightblue" points="75.76,-76.18 65.19,-75.52 73.04,-82.63 75.76,-76.18"/>
</g>
<!-- Node6 -->
<g id="node6" class="node">
<title>Node6</title>
<g id="a_node6"><a xlink:href="erpc__message__buffer_8hpp.html" target="_top" xlink:title=" ">
<polygon fill="white" stroke="black" points="151.5,-56.5 151.5,-75.5 294.5,-75.5 294.5,-56.5 151.5,-56.5"/>
<text text-anchor="middle" x="223" y="-63.5" font-family="Helvetica,sans-Serif" font-size="10.00">erpc_message_buffer.hpp</text>
</a>
</g>
</g>
<!-- Node2&#45;&gt;Node6 -->
<g id="edge5" class="edge">
<title>Node2&#45;&gt;Node6</title>
<path fill="none" stroke="midnightblue" d="M181.26,-112.08C188.46,-104.3 199.11,-92.8 207.85,-83.37"/>
<polygon fill="midnightblue" stroke="midnightblue" points="210.67,-85.47 214.9,-75.75 205.53,-80.71 210.67,-85.47"/>
</g>
<!-- Node9 -->
<g id="node9" class="node">
<title>Node9</title>
<g id="a_node9"><a xlink:title=" ">
<polygon fill="white" stroke="#bfbfbf" points="313,-56.5 313,-75.5 363,-75.5 363,-56.5 313,-56.5"/>
<text text-anchor="middle" x="338" y="-63.5" font-family="Helvetica,sans-Serif" font-size="10.00">cstring</text>
</a>
</g>
</g>
<!-- Node2&#45;&gt;Node9 -->
<g id="edge9" class="edge">
<title>Node2&#45;&gt;Node9</title>
<path fill="none" stroke="midnightblue" d="M199.14,-112.44C227.27,-103.24 272.13,-88.56 303.22,-78.38"/>
<polygon fill="midnightblue" stroke="midnightblue" points="304.37,-81.69 312.79,-75.25 302.2,-75.03 304.37,-81.69"/>
</g>
<!-- Node5 -->
<g id="node5" class="node">
<title>Node5</title>
<g id="a_node5"><a xlink:title=" ">
<polygon fill="white" stroke="#bfbfbf" points="15,-0.5 15,-19.5 65,-19.5 65,-0.5 15,-0.5"/>
<text text-anchor="middle" x="40" y="-7.5" font-family="Helvetica,sans-Serif" font-size="10.00">cstdint</text>
</a>
</g>
</g>
<!-- Node4&#45;&gt;Node5 -->
<g id="edge4" class="edge">
<title>Node4&#45;&gt;Node5</title>
<path fill="none" stroke="midnightblue" d="M44.17,-56.08C43.52,-49.01 42.58,-38.86 41.76,-29.99"/>
<polygon fill="midnightblue" stroke="midnightblue" points="45.22,-29.39 40.81,-19.75 38.25,-30.03 45.22,-29.39"/>
</g>
<!-- Node6&#45;&gt;Node3 -->
<g id="edge6" class="edge">
<title>Node6&#45;&gt;Node3</title>
<path fill="none" stroke="midnightblue" d="M208.22,-56.32C193.73,-47.82 171.43,-34.73 154.51,-24.8"/>
<polygon fill="midnightblue" stroke="midnightblue" points="156.14,-21.7 145.74,-19.65 152.6,-27.74 156.14,-21.7"/>
</g>
<!-- Node7 -->
<g id="node7" class="node">
<title>Node7</title>
<g id="a_node7"><a xlink:title=" ">
<polygon fill="white" stroke="#bfbfbf" points="196.5,-0.5 196.5,-19.5 249.5,-19.5 249.5,-0.5 196.5,-0.5"/>
<text text-anchor="middle" x="223" y="-7.5" font-family="Helvetica,sans-Serif" font-size="10.00">cstddef</text>
</a>
</g>
</g>
<!-- Node6&#45;&gt;Node7 -->
<g id="edge7" class="edge">
<title>Node6&#45;&gt;Node7</title>
<path fill="none" stroke="midnightblue" d="M223,-56.08C223,-49.01 223,-38.86 223,-29.99"/>
<polygon fill="midnightblue" stroke="midnightblue" points="226.5,-29.75 223,-19.75 219.5,-29.75 226.5,-29.75"/>
</g>
<!-- Node8 -->
<g id="node8" class="node">
<title>Node8</title>
<g id="a_node8"><a xlink:title=" ">
<polygon fill="white" stroke="#bfbfbf" points="267.5,-0.5 267.5,-19.5 320.5,-19.5 320.5,-0.5 267.5,-0.5"/>
<text text-anchor="middle" x="294" y="-7.5" font-family="Helvetica,sans-Serif" font-size="10.00">stdint.h</text>
</a>
</g>
</g>
<!-- Node6&#45;&gt;Node8 -->
<g id="edge8" class="edge">
<title>Node6&#45;&gt;Node8</title>
<path fill="none" stroke="midnightblue" d="M234.41,-56.32C245.11,-48.18 261.34,-35.84 274.16,-26.09"/>
<polygon fill="midnightblue" stroke="midnightblue" points="276.54,-28.67 282.39,-19.83 272.31,-23.1 276.54,-28.67"/>
</g>
</g>
</svg>
