<?xml version="1.0" encoding="UTF-8" standalone="no"?>
<!DOCTYPE svg PUBLIC "-//W3C//DTD SVG 1.1//EN"
 "http://www.w3.org/Graphics/SVG/1.1/DTD/svg11.dtd">
<!-- Generated by graphviz version 2.43.0 (0)
 -->
<!-- Title: erpc_server_setup.h Pages: 1 -->
<svg width="452pt" height="196pt"
 viewBox="0.00 0.00 452.40 196.00" xmlns="http://www.w3.org/2000/svg" xmlns:xlink="http://www.w3.org/1999/xlink">
<g id="graph0" class="graph" transform="scale(1 1) rotate(0) translate(4 192)">
<title>erpc_server_setup.h</title>
<polygon fill="white" stroke="transparent" points="-4,4 -4,-192 448.4,-192 448.4,4 -4,4"/>
<!-- Node1 -->
<g id="node1" class="node">
<title>Node1</title>
<g id="a_node1"><a xlink:title=" ">
<polygon fill="#bfbfbf" stroke="black" points="249,-168.5 249,-187.5 364,-187.5 364,-168.5 249,-168.5"/>
<text text-anchor="middle" x="306.5" y="-175.5" font-family="Helvetica,sans-Serif" font-size="10.00">erpc_server_setup.h</text>
</a>
</g>
</g>
<!-- Node2 -->
<g id="node2" class="node">
<title>Node2</title>
<g id="a_node2"><a xlink:href="erpc__common_8h_source.html" target="_top" xlink:title=" ">
<polygon fill="white" stroke="black" points="0,-112.5 0,-131.5 95,-131.5 95,-112.5 0,-112.5"/>
<text text-anchor="middle" x="47.5" y="-119.5" font-family="Helvetica,sans-Serif" font-size="10.00">erpc_common.h</text>
</a>
</g>
</g>
<!-- Node1&#45;&gt;Node2 -->
<g id="edge1" class="edge">
<title>Node1&#45;&gt;Node2</title>
<path fill="none" stroke="midnightblue" d="M265.46,-168.44C220.18,-159 147.27,-143.8 98.39,-133.61"/>
<polygon fill="midnightblue" stroke="midnightblue" points="98.85,-130.13 88.35,-131.52 97.42,-136.98 98.85,-130.13"/>
</g>
<!-- Node3 -->
<g id="node3" class="node">
<title>Node3</title>
<g id="a_node3"><a xlink:href="erpc__config__internal_8h_source.html" target="_top" xlink:title=" ">
<polygon fill="white" stroke="black" points="113,-112.5 113,-131.5 238,-131.5 238,-112.5 113,-112.5"/>
<text text-anchor="middle" x="175.5" y="-119.5" font-family="Helvetica,sans-Serif" font-size="10.00">erpc_config_internal.h</text>
</a>
</g>
</g>
<!-- Node1&#45;&gt;Node3 -->
<g id="edge2" class="edge">
<title>Node1&#45;&gt;Node3</title>
<path fill="none" stroke="midnightblue" d="M285.74,-168.44C264.18,-159.56 230.24,-145.56 205.71,-135.45"/>
<polygon fill="midnightblue" stroke="midnightblue" points="206.74,-132.09 196.16,-131.52 204.07,-138.56 206.74,-132.09"/>
</g>
<!-- Node6 -->
<g id="node6" class="node">
<title>Node6</title>
<g id="a_node6"><a xlink:href="erpc__mbf__setup_8h.html" target="_top" xlink:title=" ">
<polygon fill="white" stroke="black" points="294.5,-112.5 294.5,-131.5 398.5,-131.5 398.5,-112.5 294.5,-112.5"/>
<text text-anchor="middle" x="346.5" y="-119.5" font-family="Helvetica,sans-Serif" font-size="10.00">erpc_mbf_setup.h</text>
</a>
</g>
</g>
<!-- Node1&#45;&gt;Node6 -->
<g id="edge5" class="edge">
<title>Node1&#45;&gt;Node6</title>
<path fill="none" stroke="midnightblue" d="M313.11,-168.08C318.76,-160.46 327.04,-149.26 333.95,-139.94"/>
<polygon fill="midnightblue" stroke="midnightblue" points="336.88,-141.87 340.02,-131.75 331.25,-137.7 336.88,-141.87"/>
</g>
<!-- Node7 -->
<g id="node7" class="node">
<title>Node7</title>
<g id="a_node7"><a xlink:href="erpc__transport__setup_8h.html" target="_top" xlink:title=" ">
<polygon fill="white" stroke="black" points="301.5,-56.5 301.5,-75.5 429.5,-75.5 429.5,-56.5 301.5,-56.5"/>
<text text-anchor="middle" x="365.5" y="-63.5" font-family="Helvetica,sans-Serif" font-size="10.00">erpc_transport_setup.h</text>
</a>
</g>
</g>
<!-- Node1&#45;&gt;Node7 -->
<g id="edge9" class="edge">
<title>Node1&#45;&gt;Node7</title>
<path fill="none" stroke="midnightblue" d="M352.15,-168.43C372.74,-162.04 395.17,-151 407.5,-132 418.65,-114.82 401.63,-95.06 386.04,-81.87"/>
<polygon fill="midnightblue" stroke="midnightblue" points="388.18,-79.1 378.17,-75.63 383.83,-84.59 388.18,-79.1"/>
</g>
<!-- Node8 -->
<g id="node8" class="node">
<title>Node8</title>
<g id="a_node8"><a xlink:title=" ">
<polygon fill="white" stroke="#bfbfbf" points="292.5,-0.5 292.5,-19.5 354.5,-19.5 354.5,-0.5 292.5,-0.5"/>
<text text-anchor="middle" x="323.5" y="-7.5" font-family="Helvetica,sans-Serif" font-size="10.00">stdbool.h</text>
</a>
</g>
</g>
<!-- Node1&#45;&gt;Node8 -->
<g id="edge10" class="edge">
<title>Node1&#45;&gt;Node8</title>
<path fill="none" stroke="midnightblue" d="M301.12,-168.44C295.94,-159.68 288.49,-145.47 285.5,-132 281.03,-111.86 290.33,-61.71 292.5,-56 296.42,-45.71 303.15,-35.51 309.34,-27.42"/>
<polygon fill="midnightblue" stroke="midnightblue" points="312.12,-29.55 315.69,-19.58 306.68,-25.15 312.12,-29.55"/>
</g>
<!-- Node9 -->
<g id="node9" class="node">
<title>Node9</title>
<g id="a_node9"><a xlink:title=" ">
<polygon fill="white" stroke="#bfbfbf" points="381,-0.5 381,-19.5 434,-19.5 434,-0.5 381,-0.5"/>
<text text-anchor="middle" x="407.5" y="-7.5" font-family="Helvetica,sans-Serif" font-size="10.00">stdint.h</text>
</a>
</g>
</g>
<!-- Node1&#45;&gt;Node9 -->
<g id="edge11" class="edge">
<title>Node1&#45;&gt;Node9</title>
<path fill="none" stroke="midnightblue" d="M355.72,-168.45C378.89,-162.05 405.18,-150.99 422.5,-132 445.76,-106.5 448.75,-88.96 438.5,-56 435.27,-45.62 428.72,-35.52 422.48,-27.53"/>
<polygon fill="midnightblue" stroke="midnightblue" points="425.08,-25.19 415.98,-19.77 419.71,-29.68 425.08,-25.19"/>
</g>
<!-- Node4 -->
<g id="node4" class="node">
<title>Node4</title>
<g id="a_node4"><a xlink:href="erpc__config_8h.html" target="_top" xlink:title=" ">
<polygon fill="white" stroke="black" points="145.5,-56.5 145.5,-75.5 227.5,-75.5 227.5,-56.5 145.5,-56.5"/>
<text text-anchor="middle" x="186.5" y="-63.5" font-family="Helvetica,sans-Serif" font-size="10.00">erpc_config.h</text>
</a>
</g>
</g>
<!-- Node3&#45;&gt;Node4 -->
<g id="edge3" class="edge">
<title>Node3&#45;&gt;Node4</title>
<path fill="none" stroke="midnightblue" d="M177.32,-112.08C178.77,-104.93 180.87,-94.64 182.69,-85.69"/>
<polygon fill="midnightblue" stroke="midnightblue" points="186.15,-86.25 184.72,-75.75 179.29,-84.85 186.15,-86.25"/>
</g>
<!-- Node5 -->
<g id="node5" class="node">
<title>Node5</title>
<g id="a_node5"><a xlink:title=" ">
<polygon fill="white" stroke="#bfbfbf" points="75.5,-56.5 75.5,-75.5 127.5,-75.5 127.5,-56.5 75.5,-56.5"/>
<text text-anchor="middle" x="101.5" y="-63.5" font-family="Helvetica,sans-Serif" font-size="10.00">cassert</text>
</a>
</g>
</g>
<!-- Node3&#45;&gt;Node5 -->
<g id="edge4" class="edge">
<title>Node3&#45;&gt;Node5</title>
<path fill="none" stroke="midnightblue" d="M163.61,-112.32C152.35,-104.11 135.21,-91.6 121.79,-81.81"/>
<polygon fill="midnightblue" stroke="midnightblue" points="123.75,-78.9 113.61,-75.83 119.62,-84.56 123.75,-78.9"/>
</g>
<!-- Node6&#45;&gt;Node7 -->
<g id="edge6" class="edge">
<title>Node6&#45;&gt;Node7</title>
<path fill="none" stroke="midnightblue" d="M349.64,-112.08C352.18,-104.85 355.86,-94.41 359.03,-85.4"/>
<polygon fill="midnightblue" stroke="midnightblue" points="362.4,-86.35 362.42,-75.75 355.8,-84.02 362.4,-86.35"/>
</g>
<!-- Node7&#45;&gt;Node8 -->
<g id="edge7" class="edge">
<title>Node7&#45;&gt;Node8</title>
<path fill="none" stroke="midnightblue" d="M358.56,-56.08C352.57,-48.38 343.75,-37.03 336.45,-27.65"/>
<polygon fill="midnightblue" stroke="midnightblue" points="339.21,-25.5 330.31,-19.75 333.68,-29.79 339.21,-25.5"/>
</g>
<!-- Node7&#45;&gt;Node9 -->
<g id="edge8" class="edge">
<title>Node7&#45;&gt;Node9</title>
<path fill="none" stroke="midnightblue" d="M372.44,-56.08C378.43,-48.38 387.25,-37.03 394.55,-27.65"/>
<polygon fill="midnightblue" stroke="midnightblue" points="397.32,-29.79 400.69,-19.75 391.79,-25.5 397.32,-29.79"/>
</g>
</g>
</svg>
