<?xml version="1.0" encoding="UTF-8" standalone="no"?>
<!DOCTYPE svg PUBLIC "-//W3C//DTD SVG 1.1//EN"
 "http://www.w3.org/Graphics/SVG/1.1/DTD/svg11.dtd">
<!-- Generated by graphviz version 2.43.0 (0)
 -->
<!-- Title: erpc_server.hpp Pages: 1 -->
<svg width="462pt" height="319pt"
 viewBox="0.00 0.00 461.70 319.00" xmlns="http://www.w3.org/2000/svg" xmlns:xlink="http://www.w3.org/1999/xlink">
<g id="graph0" class="graph" transform="scale(1 1) rotate(0) translate(4 315)">
<title>erpc_server.hpp</title>
<polygon fill="white" stroke="transparent" points="-4,4 -4,-315 457.7,-315 457.7,4 -4,4"/>
<!-- Node1 -->
<g id="node1" class="node">
<title>Node1</title>
<g id="a_node1"><a xlink:title=" ">
<polygon fill="#bfbfbf" stroke="black" points="254.2,-291.5 254.2,-310.5 349.2,-310.5 349.2,-291.5 254.2,-291.5"/>
<text text-anchor="middle" x="301.7" y="-298.5" font-family="Helvetica,sans-Serif" font-size="10.00">erpc_server.hpp</text>
</a>
</g>
</g>
<!-- Node2 -->
<g id="node2" class="node">
<title>Node2</title>
<g id="a_node2"><a xlink:href="erpc__client__server__common_8hpp.html" target="_top" xlink:title=" ">
<polygon fill="white" stroke="black" points="208.7,-224.5 208.7,-254.5 314.7,-254.5 314.7,-224.5 208.7,-224.5"/>
<text text-anchor="start" x="216.7" y="-242.5" font-family="Helvetica,sans-Serif" font-size="10.00">erpc_client_server</text>
<text text-anchor="middle" x="261.7" y="-231.5" font-family="Helvetica,sans-Serif" font-size="10.00">_common.hpp</text>
</a>
</g>
</g>
<!-- Node1&#45;&gt;Node2 -->
<g id="edge1" class="edge">
<title>Node1&#45;&gt;Node2</title>
<path fill="none" stroke="midnightblue" d="M295.96,-291.48C290.95,-284.02 283.44,-272.85 276.73,-262.87"/>
<polygon fill="midnightblue" stroke="midnightblue" points="279.61,-260.87 271.12,-254.52 273.8,-264.77 279.61,-260.87"/>
</g>
<!-- Node12 -->
<g id="node12" class="node">
<title>Node12</title>
<g id="a_node12"><a xlink:href="erpc__config__internal_8h_source.html" target="_top" xlink:title=" ">
<polygon fill="white" stroke="black" points="280.2,-168.5 280.2,-187.5 405.2,-187.5 405.2,-168.5 280.2,-168.5"/>
<text text-anchor="middle" x="342.7" y="-175.5" font-family="Helvetica,sans-Serif" font-size="10.00">erpc_config_internal.h</text>
</a>
</g>
</g>
<!-- Node1&#45;&gt;Node12 -->
<g id="edge19" class="edge">
<title>Node1&#45;&gt;Node12</title>
<path fill="none" stroke="midnightblue" d="M306.64,-291.28C311.52,-282.38 318.93,-268.07 323.7,-255 330.67,-235.88 335.99,-213.14 339.2,-197.54"/>
<polygon fill="midnightblue" stroke="midnightblue" points="342.65,-198.1 341.16,-187.61 335.79,-196.74 342.65,-198.1"/>
</g>
<!-- Node3 -->
<g id="node3" class="node">
<title>Node3</title>
<g id="a_node3"><a xlink:href="erpc__codec_8hpp.html" target="_top" xlink:title=" ">
<polygon fill="white" stroke="black" points="138.7,-168.5 138.7,-187.5 230.7,-187.5 230.7,-168.5 138.7,-168.5"/>
<text text-anchor="middle" x="184.7" y="-175.5" font-family="Helvetica,sans-Serif" font-size="10.00">erpc_codec.hpp</text>
</a>
</g>
</g>
<!-- Node2&#45;&gt;Node3 -->
<g id="edge2" class="edge">
<title>Node2&#45;&gt;Node3</title>
<path fill="none" stroke="midnightblue" d="M243.45,-224.4C231.57,-215.22 216.09,-203.26 204,-193.92"/>
<polygon fill="midnightblue" stroke="midnightblue" points="205.95,-191 195.9,-187.66 201.67,-196.54 205.95,-191"/>
</g>
<!-- Node2&#45;&gt;Node12 -->
<g id="edge16" class="edge">
<title>Node2&#45;&gt;Node12</title>
<path fill="none" stroke="midnightblue" d="M280.89,-224.4C293.51,-215.13 309.99,-203.03 322.76,-193.65"/>
<polygon fill="midnightblue" stroke="midnightblue" points="324.92,-196.4 330.91,-187.66 320.78,-190.76 324.92,-196.4"/>
</g>
<!-- Node4 -->
<g id="node4" class="node">
<title>Node4</title>
<g id="a_node4"><a xlink:href="erpc__common_8h_source.html" target="_top" xlink:title=" ">
<polygon fill="white" stroke="black" points="188.2,-0.5 188.2,-19.5 283.2,-19.5 283.2,-0.5 188.2,-0.5"/>
<text text-anchor="middle" x="235.7" y="-7.5" font-family="Helvetica,sans-Serif" font-size="10.00">erpc_common.h</text>
</a>
</g>
</g>
<!-- Node3&#45;&gt;Node4 -->
<g id="edge3" class="edge">
<title>Node3&#45;&gt;Node4</title>
<path fill="none" stroke="midnightblue" d="M192.66,-168.43C200.13,-159.88 210.98,-146.03 216.7,-132 230.69,-97.66 234.43,-53.96 235.4,-29.58"/>
<polygon fill="midnightblue" stroke="midnightblue" points="238.9,-29.66 235.68,-19.57 231.9,-29.47 238.9,-29.66"/>
</g>
<!-- Node5 -->
<g id="node5" class="node">
<title>Node5</title>
<g id="a_node5"><a xlink:href="erpc__message__buffer_8hpp.html" target="_top" xlink:title=" ">
<polygon fill="white" stroke="black" points="264.2,-56.5 264.2,-75.5 407.2,-75.5 407.2,-56.5 264.2,-56.5"/>
<text text-anchor="middle" x="335.7" y="-63.5" font-family="Helvetica,sans-Serif" font-size="10.00">erpc_message_buffer.hpp</text>
</a>
</g>
</g>
<!-- Node3&#45;&gt;Node5 -->
<g id="edge4" class="edge">
<title>Node3&#45;&gt;Node5</title>
<path fill="none" stroke="midnightblue" d="M197.76,-168.19C210.96,-159.23 231.9,-144.87 249.7,-132 272.94,-115.18 299.18,-95.2 316.49,-81.87"/>
<polygon fill="midnightblue" stroke="midnightblue" points="318.89,-84.44 324.67,-75.56 314.62,-78.9 318.89,-84.44"/>
</g>
<!-- Node8 -->
<g id="node8" class="node">
<title>Node8</title>
<g id="a_node8"><a xlink:href="erpc__transport_8hpp.html" target="_top" xlink:title=" ">
<polygon fill="white" stroke="black" points="99.7,-112.5 99.7,-131.5 207.7,-131.5 207.7,-112.5 99.7,-112.5"/>
<text text-anchor="middle" x="153.7" y="-119.5" font-family="Helvetica,sans-Serif" font-size="10.00">erpc_transport.hpp</text>
</a>
</g>
</g>
<!-- Node3&#45;&gt;Node8 -->
<g id="edge8" class="edge">
<title>Node3&#45;&gt;Node8</title>
<path fill="none" stroke="midnightblue" d="M179.58,-168.08C175.29,-160.61 169.04,-149.72 163.75,-140.52"/>
<polygon fill="midnightblue" stroke="midnightblue" points="166.73,-138.68 158.72,-131.75 160.66,-142.17 166.73,-138.68"/>
</g>
<!-- Node10 -->
<g id="node10" class="node">
<title>Node10</title>
<g id="a_node10"><a xlink:title=" ">
<polygon fill="white" stroke="#bfbfbf" points="29.7,-0.5 29.7,-19.5 79.7,-19.5 79.7,-0.5 29.7,-0.5"/>
<text text-anchor="middle" x="54.7" y="-7.5" font-family="Helvetica,sans-Serif" font-size="10.00">cstdint</text>
</a>
</g>
</g>
<!-- Node3&#45;&gt;Node10 -->
<g id="edge14" class="edge">
<title>Node3&#45;&gt;Node10</title>
<path fill="none" stroke="midnightblue" d="M141.81,-168.48C96.23,-156.72 27.41,-130.46 2.7,-76 -6.15,-56.5 12.66,-37.8 30.08,-25.5"/>
<polygon fill="midnightblue" stroke="midnightblue" points="32.48,-28.11 38.91,-19.69 28.63,-22.27 32.48,-28.11"/>
</g>
<!-- Node11 -->
<g id="node11" class="node">
<title>Node11</title>
<g id="a_node11"><a xlink:title=" ">
<polygon fill="white" stroke="#bfbfbf" points="11.7,-56.5 11.7,-75.5 61.7,-75.5 61.7,-56.5 11.7,-56.5"/>
<text text-anchor="middle" x="36.7" y="-63.5" font-family="Helvetica,sans-Serif" font-size="10.00">cstring</text>
</a>
</g>
</g>
<!-- Node3&#45;&gt;Node11 -->
<g id="edge15" class="edge">
<title>Node3&#45;&gt;Node11</title>
<path fill="none" stroke="midnightblue" d="M159.49,-168.36C139.55,-160.76 111.67,-148.35 90.7,-132 73.23,-118.39 57.59,-98.23 47.69,-83.98"/>
<polygon fill="midnightblue" stroke="midnightblue" points="50.54,-81.94 42.05,-75.59 44.73,-85.85 50.54,-81.94"/>
</g>
<!-- Node5&#45;&gt;Node4 -->
<g id="edge5" class="edge">
<title>Node5&#45;&gt;Node4</title>
<path fill="none" stroke="midnightblue" d="M319.63,-56.32C303.74,-47.74 279.19,-34.49 260.74,-24.52"/>
<polygon fill="midnightblue" stroke="midnightblue" points="262.18,-21.33 251.72,-19.65 258.86,-27.49 262.18,-21.33"/>
</g>
<!-- Node6 -->
<g id="node6" class="node">
<title>Node6</title>
<g id="a_node6"><a xlink:title=" ">
<polygon fill="white" stroke="#bfbfbf" points="305.2,-0.5 305.2,-19.5 358.2,-19.5 358.2,-0.5 305.2,-0.5"/>
<text text-anchor="middle" x="331.7" y="-7.5" font-family="Helvetica,sans-Serif" font-size="10.00">cstddef</text>
</a>
</g>
</g>
<!-- Node5&#45;&gt;Node6 -->
<g id="edge6" class="edge">
<title>Node5&#45;&gt;Node6</title>
<path fill="none" stroke="midnightblue" d="M335.03,-56.08C334.51,-49.01 333.76,-38.86 333.1,-29.99"/>
<polygon fill="midnightblue" stroke="midnightblue" points="336.57,-29.47 332.34,-19.75 329.59,-29.98 336.57,-29.47"/>
</g>
<!-- Node7 -->
<g id="node7" class="node">
<title>Node7</title>
<g id="a_node7"><a xlink:title=" ">
<polygon fill="white" stroke="#bfbfbf" points="376.2,-0.5 376.2,-19.5 429.2,-19.5 429.2,-0.5 376.2,-0.5"/>
<text text-anchor="middle" x="402.7" y="-7.5" font-family="Helvetica,sans-Serif" font-size="10.00">stdint.h</text>
</a>
</g>
</g>
<!-- Node5&#45;&gt;Node7 -->
<g id="edge7" class="edge">
<title>Node5&#45;&gt;Node7</title>
<path fill="none" stroke="midnightblue" d="M346.46,-56.32C356.46,-48.26 371.58,-36.08 383.63,-26.37"/>
<polygon fill="midnightblue" stroke="midnightblue" points="386.14,-28.83 391.73,-19.83 381.75,-23.38 386.14,-28.83"/>
</g>
<!-- Node8&#45;&gt;Node4 -->
<g id="edge9" class="edge">
<title>Node8&#45;&gt;Node4</title>
<path fill="none" stroke="midnightblue" d="M160.13,-112.37C173.72,-94.14 205.56,-51.43 223.26,-27.68"/>
<polygon fill="midnightblue" stroke="midnightblue" points="226.12,-29.7 229.29,-19.59 220.51,-25.52 226.12,-29.7"/>
</g>
<!-- Node8&#45;&gt;Node5 -->
<g id="edge12" class="edge">
<title>Node8&#45;&gt;Node5</title>
<path fill="none" stroke="midnightblue" d="M182.53,-112.44C213.55,-103.24 263.02,-88.56 297.31,-78.39"/>
<polygon fill="midnightblue" stroke="midnightblue" points="298.4,-81.72 306.99,-75.52 296.41,-75.01 298.4,-81.72"/>
</g>
<!-- Node9 -->
<g id="node9" class="node">
<title>Node9</title>
<g id="a_node9"><a xlink:href="erpc__crc16_8hpp.html" target="_top" xlink:title=" ">
<polygon fill="white" stroke="black" points="79.7,-56.5 79.7,-75.5 169.7,-75.5 169.7,-56.5 79.7,-56.5"/>
<text text-anchor="middle" x="124.7" y="-63.5" font-family="Helvetica,sans-Serif" font-size="10.00">erpc_crc16.hpp</text>
</a>
</g>
</g>
<!-- Node8&#45;&gt;Node9 -->
<g id="edge10" class="edge">
<title>Node8&#45;&gt;Node9</title>
<path fill="none" stroke="midnightblue" d="M148.91,-112.08C144.94,-104.69 139.17,-93.95 134.26,-84.81"/>
<polygon fill="midnightblue" stroke="midnightblue" points="137.21,-82.91 129.39,-75.75 131.04,-86.22 137.21,-82.91"/>
</g>
<!-- Node8&#45;&gt;Node11 -->
<g id="edge13" class="edge">
<title>Node8&#45;&gt;Node11</title>
<path fill="none" stroke="midnightblue" d="M135.16,-112.44C116.07,-103.64 86.12,-89.81 64.26,-79.72"/>
<polygon fill="midnightblue" stroke="midnightblue" points="65.69,-76.53 55.15,-75.52 62.76,-82.88 65.69,-76.53"/>
</g>
<!-- Node9&#45;&gt;Node10 -->
<g id="edge11" class="edge">
<title>Node9&#45;&gt;Node10</title>
<path fill="none" stroke="midnightblue" d="M113.45,-56.32C102.9,-48.18 86.89,-35.84 74.25,-26.09"/>
<polygon fill="midnightblue" stroke="midnightblue" points="76.2,-23.17 66.15,-19.83 71.93,-28.71 76.2,-23.17"/>
</g>
<!-- Node13 -->
<g id="node13" class="node">
<title>Node13</title>
<g id="a_node13"><a xlink:href="erpc__config_8h.html" target="_top" xlink:title=" ">
<polygon fill="white" stroke="black" points="301.7,-112.5 301.7,-131.5 383.7,-131.5 383.7,-112.5 301.7,-112.5"/>
<text text-anchor="middle" x="342.7" y="-119.5" font-family="Helvetica,sans-Serif" font-size="10.00">erpc_config.h</text>
</a>
</g>
</g>
<!-- Node12&#45;&gt;Node13 -->
<g id="edge17" class="edge">
<title>Node12&#45;&gt;Node13</title>
<path fill="none" stroke="midnightblue" d="M342.7,-168.08C342.7,-161.01 342.7,-150.86 342.7,-141.99"/>
<polygon fill="midnightblue" stroke="midnightblue" points="346.2,-141.75 342.7,-131.75 339.2,-141.75 346.2,-141.75"/>
</g>
<!-- Node14 -->
<g id="node14" class="node">
<title>Node14</title>
<g id="a_node14"><a xlink:title=" ">
<polygon fill="white" stroke="#bfbfbf" points="401.7,-112.5 401.7,-131.5 453.7,-131.5 453.7,-112.5 401.7,-112.5"/>
<text text-anchor="middle" x="427.7" y="-119.5" font-family="Helvetica,sans-Serif" font-size="10.00">cassert</text>
</a>
</g>
</g>
<!-- Node12&#45;&gt;Node14 -->
<g id="edge18" class="edge">
<title>Node12&#45;&gt;Node14</title>
<path fill="none" stroke="midnightblue" d="M356.35,-168.32C369.61,-159.9 389.96,-146.97 405.54,-137.07"/>
<polygon fill="midnightblue" stroke="midnightblue" points="407.51,-139.97 414.07,-131.65 403.75,-134.06 407.51,-139.97"/>
</g>
</g>
</svg>
