<?xml version="1.0" encoding="UTF-8" standalone="no"?>
<!DOCTYPE svg PUBLIC "-//W3C//DTD SVG 1.1//EN"
 "http://www.w3.org/Graphics/SVG/1.1/DTD/svg11.dtd">
<!-- Generated by graphviz version 2.43.0 (0)
 -->
<!-- Title: erpc_client_setup.h Pages: 1 -->
<svg width="662pt" height="375pt"
 viewBox="0.00 0.00 662.00 375.00" xmlns="http://www.w3.org/2000/svg" xmlns:xlink="http://www.w3.org/1999/xlink">
<g id="graph0" class="graph" transform="scale(1 1) rotate(0) translate(4 371)">
<title>erpc_client_setup.h</title>
<polygon fill="white" stroke="transparent" points="-4,4 -4,-371 658,-371 658,4 -4,4"/>
<!-- Node1 -->
<g id="node1" class="node">
<title>Node1</title>
<g id="a_node1"><a xlink:title=" ">
<polygon fill="#bfbfbf" stroke="black" points="383.5,-347.5 383.5,-366.5 494.5,-366.5 494.5,-347.5 383.5,-347.5"/>
<text text-anchor="middle" x="439" y="-354.5" font-family="Helvetica,sans-Serif" font-size="10.00">erpc_client_setup.h</text>
</a>
</g>
</g>
<!-- Node2 -->
<g id="node2" class="node">
<title>Node2</title>
<g id="a_node2"><a xlink:href="erpc__common_8h_source.html" target="_top" xlink:title=" ">
<polygon fill="white" stroke="black" points="223.5,-0.5 223.5,-19.5 318.5,-19.5 318.5,-0.5 223.5,-0.5"/>
<text text-anchor="middle" x="271" y="-7.5" font-family="Helvetica,sans-Serif" font-size="10.00">erpc_common.h</text>
</a>
</g>
</g>
<!-- Node1&#45;&gt;Node2 -->
<g id="edge1" class="edge">
<title>Node1&#45;&gt;Node2</title>
<path fill="none" stroke="midnightblue" d="M383.4,-353.03C265.27,-345.21 0,-318.91 0,-240.5 0,-240.5 0,-240.5 0,-121 0,-82.58 23.83,-75.39 57,-56 104.89,-28 167.83,-17.3 213.04,-13.28"/>
<polygon fill="midnightblue" stroke="midnightblue" points="213.57,-16.75 223.26,-12.46 213.01,-9.77 213.57,-16.75"/>
</g>
<!-- Node3 -->
<g id="node3" class="node">
<title>Node3</title>
<g id="a_node3"><a xlink:href="erpc__config__internal_8h_source.html" target="_top" xlink:title=" ">
<polygon fill="white" stroke="black" points="328.5,-168.5 328.5,-187.5 453.5,-187.5 453.5,-168.5 328.5,-168.5"/>
<text text-anchor="middle" x="391" y="-175.5" font-family="Helvetica,sans-Serif" font-size="10.00">erpc_config_internal.h</text>
</a>
</g>
</g>
<!-- Node1&#45;&gt;Node3 -->
<g id="edge2" class="edge">
<title>Node1&#45;&gt;Node3</title>
<path fill="none" stroke="midnightblue" d="M436.68,-347.46C429.32,-320.31 406.33,-235.51 396.05,-197.62"/>
<polygon fill="midnightblue" stroke="midnightblue" points="399.4,-196.6 393.4,-187.87 392.64,-198.44 399.4,-196.6"/>
</g>
<!-- Node6 -->
<g id="node6" class="node">
<title>Node6</title>
<g id="a_node6"><a xlink:href="erpc__mbf__setup_8h.html" target="_top" xlink:title=" ">
<polygon fill="white" stroke="black" points="467,-291.5 467,-310.5 571,-310.5 571,-291.5 467,-291.5"/>
<text text-anchor="middle" x="519" y="-298.5" font-family="Helvetica,sans-Serif" font-size="10.00">erpc_mbf_setup.h</text>
</a>
</g>
</g>
<!-- Node1&#45;&gt;Node6 -->
<g id="edge5" class="edge">
<title>Node1&#45;&gt;Node6</title>
<path fill="none" stroke="midnightblue" d="M451.85,-347.32C464.22,-338.98 483.13,-326.21 497.74,-316.35"/>
<polygon fill="midnightblue" stroke="midnightblue" points="499.85,-319.15 506.18,-310.65 495.93,-313.35 499.85,-319.15"/>
</g>
<!-- Node7 -->
<g id="node7" class="node">
<title>Node7</title>
<g id="a_node7"><a xlink:href="erpc__transport__setup_8h.html" target="_top" xlink:title=" ">
<polygon fill="white" stroke="black" points="449,-230 449,-249 577,-249 577,-230 449,-230"/>
<text text-anchor="middle" x="513" y="-237" font-family="Helvetica,sans-Serif" font-size="10.00">erpc_transport_setup.h</text>
</a>
</g>
</g>
<!-- Node1&#45;&gt;Node7 -->
<g id="edge26" class="edge">
<title>Node1&#45;&gt;Node7</title>
<path fill="none" stroke="midnightblue" d="M440.01,-347.4C441.87,-334.36 446.7,-309.17 458,-291 466.73,-276.96 480.4,-264.38 491.93,-255.29"/>
<polygon fill="midnightblue" stroke="midnightblue" points="494.34,-257.86 500.22,-249.05 490.12,-252.27 494.34,-257.86"/>
</g>
<!-- Node8 -->
<g id="node8" class="node">
<title>Node8</title>
<g id="a_node8"><a xlink:title=" ">
<polygon fill="white" stroke="#bfbfbf" points="564,-168.5 564,-187.5 626,-187.5 626,-168.5 564,-168.5"/>
<text text-anchor="middle" x="595" y="-175.5" font-family="Helvetica,sans-Serif" font-size="10.00">stdbool.h</text>
</a>
</g>
</g>
<!-- Node1&#45;&gt;Node8 -->
<g id="edge27" class="edge">
<title>Node1&#45;&gt;Node8</title>
<path fill="none" stroke="midnightblue" d="M494.55,-352.45C524.43,-347.49 559.29,-336.22 580,-311 606.63,-278.57 602.98,-225.57 598.65,-197.61"/>
<polygon fill="midnightblue" stroke="midnightblue" points="602.07,-196.85 596.89,-187.6 595.17,-198.06 602.07,-196.85"/>
</g>
<!-- Node9 -->
<g id="node9" class="node">
<title>Node9</title>
<g id="a_node9"><a xlink:title=" ">
<polygon fill="white" stroke="#bfbfbf" points="509.5,-0.5 509.5,-19.5 562.5,-19.5 562.5,-0.5 509.5,-0.5"/>
<text text-anchor="middle" x="536" y="-7.5" font-family="Helvetica,sans-Serif" font-size="10.00">stdint.h</text>
</a>
</g>
</g>
<!-- Node1&#45;&gt;Node9 -->
<g id="edge28" class="edge">
<title>Node1&#45;&gt;Node9</title>
<path fill="none" stroke="midnightblue" d="M494.65,-350.18C558.35,-340.07 654,-312.85 654,-240.5 654,-240.5 654,-240.5 654,-121 654,-73.51 602.23,-40.67 567.28,-23.91"/>
<polygon fill="midnightblue" stroke="midnightblue" points="568.47,-20.61 557.92,-19.61 565.54,-26.97 568.47,-20.61"/>
</g>
<!-- Node10 -->
<g id="node10" class="node">
<title>Node10</title>
<g id="a_node10"><a xlink:href="erpc__client__manager_8h.html" target="_top" xlink:title=" ">
<polygon fill="white" stroke="black" points="245,-291.5 245,-310.5 373,-310.5 373,-291.5 245,-291.5"/>
<text text-anchor="middle" x="309" y="-298.5" font-family="Helvetica,sans-Serif" font-size="10.00">erpc_client_manager.h</text>
</a>
</g>
</g>
<!-- Node1&#45;&gt;Node10 -->
<g id="edge9" class="edge">
<title>Node1&#45;&gt;Node10</title>
<path fill="none" stroke="midnightblue" d="M418.4,-347.44C397.01,-338.56 363.32,-324.56 338.98,-314.45"/>
<polygon fill="midnightblue" stroke="midnightblue" points="340.08,-311.12 329.5,-310.52 337.39,-317.58 340.08,-311.12"/>
</g>
<!-- Node4 -->
<g id="node4" class="node">
<title>Node4</title>
<g id="a_node4"><a xlink:href="erpc__config_8h.html" target="_top" xlink:title=" ">
<polygon fill="white" stroke="black" points="426,-112.5 426,-131.5 508,-131.5 508,-112.5 426,-112.5"/>
<text text-anchor="middle" x="467" y="-119.5" font-family="Helvetica,sans-Serif" font-size="10.00">erpc_config.h</text>
</a>
</g>
</g>
<!-- Node3&#45;&gt;Node4 -->
<g id="edge3" class="edge">
<title>Node3&#45;&gt;Node4</title>
<path fill="none" stroke="midnightblue" d="M403.21,-168.32C414.78,-160.11 432.38,-147.6 446.16,-137.81"/>
<polygon fill="midnightblue" stroke="midnightblue" points="448.44,-140.48 454.57,-131.83 444.39,-134.77 448.44,-140.48"/>
</g>
<!-- Node5 -->
<g id="node5" class="node">
<title>Node5</title>
<g id="a_node5"><a xlink:title=" ">
<polygon fill="white" stroke="#bfbfbf" points="356,-112.5 356,-131.5 408,-131.5 408,-112.5 356,-112.5"/>
<text text-anchor="middle" x="382" y="-119.5" font-family="Helvetica,sans-Serif" font-size="10.00">cassert</text>
</a>
</g>
</g>
<!-- Node3&#45;&gt;Node5 -->
<g id="edge4" class="edge">
<title>Node3&#45;&gt;Node5</title>
<path fill="none" stroke="midnightblue" d="M389.51,-168.08C388.32,-160.93 386.61,-150.64 385.12,-141.69"/>
<polygon fill="midnightblue" stroke="midnightblue" points="388.55,-141.04 383.46,-131.75 381.65,-142.19 388.55,-141.04"/>
</g>
<!-- Node6&#45;&gt;Node7 -->
<g id="edge6" class="edge">
<title>Node6&#45;&gt;Node7</title>
<path fill="none" stroke="midnightblue" d="M518.14,-291.48C517.29,-283.08 515.97,-269.98 514.88,-259.16"/>
<polygon fill="midnightblue" stroke="midnightblue" points="518.34,-258.61 513.86,-249.01 511.38,-259.31 518.34,-258.61"/>
</g>
<!-- Node7&#45;&gt;Node8 -->
<g id="edge7" class="edge">
<title>Node7&#45;&gt;Node8</title>
<path fill="none" stroke="midnightblue" d="M524.75,-229.98C537.78,-220.52 559.04,-205.1 574.76,-193.69"/>
<polygon fill="midnightblue" stroke="midnightblue" points="577.23,-196.21 583.27,-187.51 573.12,-190.55 577.23,-196.21"/>
</g>
<!-- Node7&#45;&gt;Node9 -->
<g id="edge8" class="edge">
<title>Node7&#45;&gt;Node9</title>
<path fill="none" stroke="midnightblue" d="M513.87,-229.86C517.23,-196.64 529.36,-76.66 534.09,-29.87"/>
<polygon fill="midnightblue" stroke="midnightblue" points="537.6,-29.95 535.13,-19.65 530.64,-29.25 537.6,-29.95"/>
</g>
<!-- Node11 -->
<g id="node11" class="node">
<title>Node11</title>
<g id="a_node11"><a xlink:href="erpc__client__server__common_8hpp.html" target="_top" xlink:title=" ">
<polygon fill="white" stroke="black" points="256,-224.5 256,-254.5 362,-254.5 362,-224.5 256,-224.5"/>
<text text-anchor="start" x="264" y="-242.5" font-family="Helvetica,sans-Serif" font-size="10.00">erpc_client_server</text>
<text text-anchor="middle" x="309" y="-231.5" font-family="Helvetica,sans-Serif" font-size="10.00">_common.hpp</text>
</a>
</g>
</g>
<!-- Node10&#45;&gt;Node11 -->
<g id="edge10" class="edge">
<title>Node10&#45;&gt;Node11</title>
<path fill="none" stroke="midnightblue" d="M309,-291.48C309,-284.47 309,-274.19 309,-264.7"/>
<polygon fill="midnightblue" stroke="midnightblue" points="312.5,-264.52 309,-254.52 305.5,-264.52 312.5,-264.52"/>
</g>
<!-- Node11&#45;&gt;Node3 -->
<g id="edge25" class="edge">
<title>Node11&#45;&gt;Node3</title>
<path fill="none" stroke="midnightblue" d="M328.43,-224.4C341.21,-215.13 357.89,-203.03 370.81,-193.65"/>
<polygon fill="midnightblue" stroke="midnightblue" points="373.03,-196.36 379.07,-187.66 368.92,-190.7 373.03,-196.36"/>
</g>
<!-- Node12 -->
<g id="node12" class="node">
<title>Node12</title>
<g id="a_node12"><a xlink:href="erpc__codec_8hpp.html" target="_top" xlink:title=" ">
<polygon fill="white" stroke="black" points="185,-168.5 185,-187.5 277,-187.5 277,-168.5 185,-168.5"/>
<text text-anchor="middle" x="231" y="-175.5" font-family="Helvetica,sans-Serif" font-size="10.00">erpc_codec.hpp</text>
</a>
</g>
</g>
<!-- Node11&#45;&gt;Node12 -->
<g id="edge11" class="edge">
<title>Node11&#45;&gt;Node12</title>
<path fill="none" stroke="midnightblue" d="M290.52,-224.4C278.48,-215.22 262.8,-203.26 250.56,-193.92"/>
<polygon fill="midnightblue" stroke="midnightblue" points="252.42,-190.94 242.35,-187.66 248.18,-196.51 252.42,-190.94"/>
</g>
<!-- Node12&#45;&gt;Node2 -->
<g id="edge12" class="edge">
<title>Node12&#45;&gt;Node2</title>
<path fill="none" stroke="midnightblue" d="M242.27,-168.43C251.97,-160.27 265.28,-147.05 271,-132 284.02,-97.76 279.3,-54.02 274.97,-29.61"/>
<polygon fill="midnightblue" stroke="midnightblue" points="278.36,-28.73 273.01,-19.59 271.49,-30.07 278.36,-28.73"/>
</g>
<!-- Node13 -->
<g id="node13" class="node">
<title>Node13</title>
<g id="a_node13"><a xlink:href="erpc__message__buffer_8hpp.html" target="_top" xlink:title=" ">
<polygon fill="white" stroke="black" points="318.5,-56.5 318.5,-75.5 461.5,-75.5 461.5,-56.5 318.5,-56.5"/>
<text text-anchor="middle" x="390" y="-63.5" font-family="Helvetica,sans-Serif" font-size="10.00">erpc_message_buffer.hpp</text>
</a>
</g>
</g>
<!-- Node12&#45;&gt;Node13 -->
<g id="edge13" class="edge">
<title>Node12&#45;&gt;Node13</title>
<path fill="none" stroke="midnightblue" d="M245.8,-168.43C260.74,-159.66 284.34,-145.45 304,-132 327.81,-115.72 354.12,-95.48 371.3,-81.95"/>
<polygon fill="midnightblue" stroke="midnightblue" points="373.72,-84.5 379.38,-75.54 369.37,-79.01 373.72,-84.5"/>
</g>
<!-- Node15 -->
<g id="node15" class="node">
<title>Node15</title>
<g id="a_node15"><a xlink:href="erpc__transport_8hpp.html" target="_top" xlink:title=" ">
<polygon fill="white" stroke="black" points="154,-112.5 154,-131.5 262,-131.5 262,-112.5 154,-112.5"/>
<text text-anchor="middle" x="208" y="-119.5" font-family="Helvetica,sans-Serif" font-size="10.00">erpc_transport.hpp</text>
</a>
</g>
</g>
<!-- Node12&#45;&gt;Node15 -->
<g id="edge17" class="edge">
<title>Node12&#45;&gt;Node15</title>
<path fill="none" stroke="midnightblue" d="M227.2,-168.08C224.09,-160.77 219.58,-150.18 215.71,-141.1"/>
<polygon fill="midnightblue" stroke="midnightblue" points="218.87,-139.58 211.73,-131.75 212.43,-142.32 218.87,-139.58"/>
</g>
<!-- Node17 -->
<g id="node17" class="node">
<title>Node17</title>
<g id="a_node17"><a xlink:title=" ">
<polygon fill="white" stroke="#bfbfbf" points="94,-0.5 94,-19.5 144,-19.5 144,-0.5 94,-0.5"/>
<text text-anchor="middle" x="119" y="-7.5" font-family="Helvetica,sans-Serif" font-size="10.00">cstdint</text>
</a>
</g>
</g>
<!-- Node12&#45;&gt;Node17 -->
<g id="edge23" class="edge">
<title>Node12&#45;&gt;Node17</title>
<path fill="none" stroke="midnightblue" d="M192.51,-168.42C149.15,-156.33 81.53,-129.5 57,-76 47.26,-54.76 70.16,-36.12 90.83,-24.31"/>
<polygon fill="midnightblue" stroke="midnightblue" points="92.59,-27.34 99.74,-19.53 89.28,-21.17 92.59,-27.34"/>
</g>
<!-- Node18 -->
<g id="node18" class="node">
<title>Node18</title>
<g id="a_node18"><a xlink:title=" ">
<polygon fill="white" stroke="#bfbfbf" points="66,-56.5 66,-75.5 116,-75.5 116,-56.5 66,-56.5"/>
<text text-anchor="middle" x="91" y="-63.5" font-family="Helvetica,sans-Serif" font-size="10.00">cstring</text>
</a>
</g>
</g>
<!-- Node12&#45;&gt;Node18 -->
<g id="edge24" class="edge">
<title>Node12&#45;&gt;Node18</title>
<path fill="none" stroke="midnightblue" d="M209.09,-168.42C190.8,-160.61 164.66,-147.89 145,-132 127.78,-118.08 112.09,-97.98 102.12,-83.82"/>
<polygon fill="midnightblue" stroke="midnightblue" points="104.96,-81.78 96.43,-75.51 99.19,-85.74 104.96,-81.78"/>
</g>
<!-- Node13&#45;&gt;Node2 -->
<g id="edge14" class="edge">
<title>Node13&#45;&gt;Node2</title>
<path fill="none" stroke="midnightblue" d="M371.14,-56.44C351.73,-47.64 321.27,-33.81 299.04,-23.72"/>
<polygon fill="midnightblue" stroke="midnightblue" points="300.32,-20.46 289.77,-19.52 297.43,-26.84 300.32,-20.46"/>
</g>
<!-- Node13&#45;&gt;Node9 -->
<g id="edge16" class="edge">
<title>Node13&#45;&gt;Node9</title>
<path fill="none" stroke="midnightblue" d="M413.13,-56.44C437.48,-47.44 476.01,-33.19 503.42,-23.05"/>
<polygon fill="midnightblue" stroke="midnightblue" points="504.81,-26.27 512.97,-19.52 502.38,-19.7 504.81,-26.27"/>
</g>
<!-- Node14 -->
<g id="node14" class="node">
<title>Node14</title>
<g id="a_node14"><a xlink:title=" ">
<polygon fill="white" stroke="#bfbfbf" points="363.5,-0.5 363.5,-19.5 416.5,-19.5 416.5,-0.5 363.5,-0.5"/>
<text text-anchor="middle" x="390" y="-7.5" font-family="Helvetica,sans-Serif" font-size="10.00">cstddef</text>
</a>
</g>
</g>
<!-- Node13&#45;&gt;Node14 -->
<g id="edge15" class="edge">
<title>Node13&#45;&gt;Node14</title>
<path fill="none" stroke="midnightblue" d="M390,-56.08C390,-49.01 390,-38.86 390,-29.99"/>
<polygon fill="midnightblue" stroke="midnightblue" points="393.5,-29.75 390,-19.75 386.5,-29.75 393.5,-29.75"/>
</g>
<!-- Node15&#45;&gt;Node2 -->
<g id="edge18" class="edge">
<title>Node15&#45;&gt;Node2</title>
<path fill="none" stroke="midnightblue" d="M212.94,-112.37C223.29,-94.3 247.42,-52.18 261.09,-28.31"/>
<polygon fill="midnightblue" stroke="midnightblue" points="264.15,-30.01 266.08,-19.59 258.07,-26.53 264.15,-30.01"/>
</g>
<!-- Node15&#45;&gt;Node13 -->
<g id="edge21" class="edge">
<title>Node15&#45;&gt;Node13</title>
<path fill="none" stroke="midnightblue" d="M236.84,-112.44C267.86,-103.24 317.33,-88.56 351.62,-78.39"/>
<polygon fill="midnightblue" stroke="midnightblue" points="352.71,-81.72 361.3,-75.52 350.71,-75.01 352.71,-81.72"/>
</g>
<!-- Node16 -->
<g id="node16" class="node">
<title>Node16</title>
<g id="a_node16"><a xlink:href="erpc__crc16_8hpp.html" target="_top" xlink:title=" ">
<polygon fill="white" stroke="black" points="134,-56.5 134,-75.5 224,-75.5 224,-56.5 134,-56.5"/>
<text text-anchor="middle" x="179" y="-63.5" font-family="Helvetica,sans-Serif" font-size="10.00">erpc_crc16.hpp</text>
</a>
</g>
</g>
<!-- Node15&#45;&gt;Node16 -->
<g id="edge19" class="edge">
<title>Node15&#45;&gt;Node16</title>
<path fill="none" stroke="midnightblue" d="M203.21,-112.08C199.24,-104.69 193.47,-93.95 188.57,-84.81"/>
<polygon fill="midnightblue" stroke="midnightblue" points="191.51,-82.91 183.7,-75.75 185.35,-86.22 191.51,-82.91"/>
</g>
<!-- Node15&#45;&gt;Node18 -->
<g id="edge22" class="edge">
<title>Node15&#45;&gt;Node18</title>
<path fill="none" stroke="midnightblue" d="M189.46,-112.44C170.38,-103.64 140.43,-89.81 118.56,-79.72"/>
<polygon fill="midnightblue" stroke="midnightblue" points="120,-76.53 109.45,-75.52 117.07,-82.88 120,-76.53"/>
</g>
<!-- Node16&#45;&gt;Node17 -->
<g id="edge20" class="edge">
<title>Node16&#45;&gt;Node17</title>
<path fill="none" stroke="midnightblue" d="M169.36,-56.32C160.49,-48.34 147.13,-36.31 136.39,-26.65"/>
<polygon fill="midnightblue" stroke="midnightblue" points="138.59,-23.92 128.82,-19.83 133.91,-29.13 138.59,-23.92"/>
</g>
</g>
</svg>
