<?xml version="1.0" encoding="UTF-8" standalone="no"?>
<!DOCTYPE svg PUBLIC "-//W3C//DTD SVG 1.1//EN"
 "http://www.w3.org/Graphics/SVG/1.1/DTD/svg11.dtd">
<!-- Generated by graphviz version 2.43.0 (0)
 -->
<!-- Title: erpc_client_manager.h Pages: 1 -->
<svg width="578pt" height="95pt"
 viewBox="0.00 0.00 578.00 95.00" xmlns="http://www.w3.org/2000/svg" xmlns:xlink="http://www.w3.org/1999/xlink">
<g id="graph0" class="graph" transform="scale(1 1) rotate(0) translate(4 91)">
<title>erpc_client_manager.h</title>
<polygon fill="white" stroke="transparent" points="-4,4 -4,-91 574,-91 574,4 -4,4"/>
<!-- Node1 -->
<g id="node1" class="node">
<title>Node1</title>
<g id="a_node1"><a xlink:title=" ">
<polygon fill="#bfbfbf" stroke="black" points="235.5,-67.5 235.5,-86.5 363.5,-86.5 363.5,-67.5 235.5,-67.5"/>
<text text-anchor="middle" x="299.5" y="-74.5" font-family="Helvetica,sans-Serif" font-size="10.00">erpc_client_manager.h</text>
</a>
</g>
</g>
<!-- Node2 -->
<g id="node2" class="node">
<title>Node2</title>
<g id="a_node2"><a xlink:href="erpc__arbitrated__client__manager_8hpp.html" target="_top" xlink:title=" ">
<polygon fill="white" stroke="black" points="0,-0.5 0,-30.5 123,-30.5 123,-0.5 0,-0.5"/>
<text text-anchor="start" x="8" y="-18.5" font-family="Helvetica,sans-Serif" font-size="10.00">erpc_arbitrated_client</text>
<text text-anchor="middle" x="61.5" y="-7.5" font-family="Helvetica,sans-Serif" font-size="10.00">_manager.hpp</text>
</a>
</g>
</g>
<!-- Node1&#45;&gt;Node2 -->
<g id="edge1" class="edge">
<title>Node1&#45;&gt;Node2</title>
<path fill="none" stroke="midnightblue" d="M255.43,-64.98C216.56,-55.27 159.7,-41.05 117.59,-30.52"/>
<polygon fill="midnightblue" stroke="midnightblue" points="254.85,-68.45 265.4,-67.48 256.55,-61.65 254.85,-68.45"/>
</g>
<!-- Node3 -->
<g id="node3" class="node">
<title>Node3</title>
<g id="a_node3"><a xlink:href="erpc__transport__arbitrator_8hpp.html" target="_top" xlink:title=" ">
<polygon fill="white" stroke="black" points="141,-6 141,-25 300,-25 300,-6 141,-6"/>
<text text-anchor="middle" x="220.5" y="-13" font-family="Helvetica,sans-Serif" font-size="10.00">erpc_transport_arbitrator.hpp</text>
</a>
</g>
</g>
<!-- Node1&#45;&gt;Node3 -->
<g id="edge2" class="edge">
<title>Node1&#45;&gt;Node3</title>
<path fill="none" stroke="midnightblue" d="M279.97,-61.29C264.82,-49.88 244.34,-34.46 231.8,-25.01"/>
<polygon fill="midnightblue" stroke="midnightblue" points="278.09,-64.25 288.18,-67.48 282.3,-58.66 278.09,-64.25"/>
</g>
<!-- Node4 -->
<g id="node4" class="node">
<title>Node4</title>
<g id="a_node4"><a xlink:href="erpc__arbitrated__client__setup_8h.html" target="_top" xlink:title=" ">
<polygon fill="white" stroke="black" points="318,-0.5 318,-30.5 441,-30.5 441,-0.5 318,-0.5"/>
<text text-anchor="start" x="326" y="-18.5" font-family="Helvetica,sans-Serif" font-size="10.00">erpc_arbitrated_client</text>
<text text-anchor="middle" x="379.5" y="-7.5" font-family="Helvetica,sans-Serif" font-size="10.00">_setup.h</text>
</a>
</g>
</g>
<!-- Node1&#45;&gt;Node4 -->
<g id="edge3" class="edge">
<title>Node1&#45;&gt;Node4</title>
<path fill="none" stroke="midnightblue" d="M319.04,-61.47C331.71,-52.05 348.12,-39.84 360.65,-30.52"/>
<polygon fill="midnightblue" stroke="midnightblue" points="316.9,-58.7 310.96,-67.48 321.07,-64.32 316.9,-58.7"/>
</g>
<!-- Node5 -->
<g id="node5" class="node">
<title>Node5</title>
<g id="a_node5"><a xlink:href="erpc__client__setup_8h.html" target="_top" xlink:title=" ">
<polygon fill="white" stroke="black" points="459,-6 459,-25 570,-25 570,-6 459,-6"/>
<text text-anchor="middle" x="514.5" y="-13" font-family="Helvetica,sans-Serif" font-size="10.00">erpc_client_setup.h</text>
</a>
</g>
</g>
<!-- Node1&#45;&gt;Node5 -->
<g id="edge4" class="edge">
<title>Node1&#45;&gt;Node5</title>
<path fill="none" stroke="midnightblue" d="M340.15,-64.75C381.92,-53.19 446.02,-35.45 483.75,-25.01"/>
<polygon fill="midnightblue" stroke="midnightblue" points="339.01,-61.43 330.3,-67.48 340.88,-68.18 339.01,-61.43"/>
</g>
</g>
</svg>
