<?xml version="1.0" encoding="UTF-8" standalone="no"?>
<!DOCTYPE svg PUBLIC "-//W3C//DTD SVG 1.1//EN"
 "http://www.w3.org/Graphics/SVG/1.1/DTD/svg11.dtd">
<!-- Generated by graphviz version 2.43.0 (0)
 -->
<!-- Title: erpc_mbf_setup.h Pages: 1 -->
<svg width="393pt" height="95pt"
 viewBox="0.00 0.00 393.00 95.00" xmlns="http://www.w3.org/2000/svg" xmlns:xlink="http://www.w3.org/1999/xlink">
<g id="graph0" class="graph" transform="scale(1 1) rotate(0) translate(4 91)">
<title>erpc_mbf_setup.h</title>
<polygon fill="white" stroke="transparent" points="-4,4 -4,-91 389,-91 389,4 -4,4"/>
<!-- Node1 -->
<g id="node1" class="node">
<title>Node1</title>
<g id="a_node1"><a xlink:title=" ">
<polygon fill="#bfbfbf" stroke="black" points="144.5,-67.5 144.5,-86.5 248.5,-86.5 248.5,-67.5 144.5,-67.5"/>
<text text-anchor="middle" x="196.5" y="-74.5" font-family="Helvetica,sans-Serif" font-size="10.00">erpc_mbf_setup.h</text>
</a>
</g>
</g>
<!-- Node2 -->
<g id="node2" class="node">
<title>Node2</title>
<g id="a_node2"><a xlink:href="erpc__arbitrated__client__setup_8h.html" target="_top" xlink:title=" ">
<polygon fill="white" stroke="black" points="0,-0.5 0,-30.5 123,-30.5 123,-0.5 0,-0.5"/>
<text text-anchor="start" x="8" y="-18.5" font-family="Helvetica,sans-Serif" font-size="10.00">erpc_arbitrated_client</text>
<text text-anchor="middle" x="61.5" y="-7.5" font-family="Helvetica,sans-Serif" font-size="10.00">_setup.h</text>
</a>
</g>
</g>
<!-- Node1&#45;&gt;Node2 -->
<g id="edge1" class="edge">
<title>Node1&#45;&gt;Node2</title>
<path fill="none" stroke="midnightblue" d="M167.75,-63.33C145.91,-53.7 115.88,-40.47 93.32,-30.52"/>
<polygon fill="midnightblue" stroke="midnightblue" points="166.6,-66.64 177.16,-67.48 169.42,-60.24 166.6,-66.64"/>
</g>
<!-- Node3 -->
<g id="node3" class="node">
<title>Node3</title>
<g id="a_node3"><a xlink:href="erpc__client__setup_8h.html" target="_top" xlink:title=" ">
<polygon fill="white" stroke="black" points="141,-6 141,-25 252,-25 252,-6 141,-6"/>
<text text-anchor="middle" x="196.5" y="-13" font-family="Helvetica,sans-Serif" font-size="10.00">erpc_client_setup.h</text>
</a>
</g>
</g>
<!-- Node1&#45;&gt;Node3 -->
<g id="edge2" class="edge">
<title>Node1&#45;&gt;Node3</title>
<path fill="none" stroke="midnightblue" d="M196.5,-57.32C196.5,-46.5 196.5,-33.4 196.5,-25.01"/>
<polygon fill="midnightblue" stroke="midnightblue" points="193,-57.48 196.5,-67.48 200,-57.48 193,-57.48"/>
</g>
<!-- Node4 -->
<g id="node4" class="node">
<title>Node4</title>
<g id="a_node4"><a xlink:href="erpc__server__setup_8h.html" target="_top" xlink:title=" ">
<polygon fill="white" stroke="black" points="270,-6 270,-25 385,-25 385,-6 270,-6"/>
<text text-anchor="middle" x="327.5" y="-13" font-family="Helvetica,sans-Serif" font-size="10.00">erpc_server_setup.h</text>
</a>
</g>
</g>
<!-- Node1&#45;&gt;Node4 -->
<g id="edge3" class="edge">
<title>Node1&#45;&gt;Node4</title>
<path fill="none" stroke="midnightblue" d="M224.4,-63.33C249.83,-51.78 286.7,-35.03 308.77,-25.01"/>
<polygon fill="midnightblue" stroke="midnightblue" points="222.93,-60.15 215.27,-67.48 225.82,-66.53 222.93,-60.15"/>
</g>
</g>
</svg>
