<?xml version="1.0" encoding="UTF-8" standalone="no"?>
<!DOCTYPE svg PUBLIC "-//W3C//DTD SVG 1.1//EN"
 "http://www.w3.org/Graphics/SVG/1.1/DTD/svg11.dtd">
<!-- Generated by graphviz version 2.43.0 (0)
 -->
<!-- Title: erpc_rpmsg_tty_rtos_transport.hpp Pages: 1 -->
<svg width="764pt" height="263pt"
 viewBox="0.00 0.00 764.00 263.00" xmlns="http://www.w3.org/2000/svg" xmlns:xlink="http://www.w3.org/1999/xlink">
<g id="graph0" class="graph" transform="scale(1 1) rotate(0) translate(4 259)">
<title>erpc_rpmsg_tty_rtos_transport.hpp</title>
<polygon fill="white" stroke="transparent" points="-4,4 -4,-259 760,-259 760,4 -4,4"/>
<!-- Node1 -->
<g id="node1" class="node">
<title>Node1</title>
<g id="a_node1"><a xlink:title=" ">
<polygon fill="#bfbfbf" stroke="black" points="395,-224.5 395,-254.5 511,-254.5 511,-224.5 395,-224.5"/>
<text text-anchor="start" x="403" y="-242.5" font-family="Helvetica,sans-Serif" font-size="10.00">erpc_rpmsg_tty_rtos</text>
<text text-anchor="middle" x="453" y="-231.5" font-family="Helvetica,sans-Serif" font-size="10.00">_transport.hpp</text>
</a>
</g>
</g>
<!-- Node2 -->
<g id="node2" class="node">
<title>Node2</title>
<g id="a_node2"><a xlink:href="erpc__crc16_8hpp.html" target="_top" xlink:title=" ">
<polygon fill="white" stroke="black" points="0,-56.5 0,-75.5 90,-75.5 90,-56.5 0,-56.5"/>
<text text-anchor="middle" x="45" y="-63.5" font-family="Helvetica,sans-Serif" font-size="10.00">erpc_crc16.hpp</text>
</a>
</g>
</g>
<!-- Node1&#45;&gt;Node2 -->
<g id="edge1" class="edge">
<title>Node1&#45;&gt;Node2</title>
<path fill="none" stroke="midnightblue" d="M394.89,-229.08C324.41,-215.73 203.88,-186.63 114,-132 92.37,-118.85 71.82,-98.04 58.87,-83.52"/>
<polygon fill="midnightblue" stroke="midnightblue" points="61.36,-81.06 52.16,-75.8 56.08,-85.65 61.36,-81.06"/>
</g>
<!-- Node4 -->
<g id="node4" class="node">
<title>Node4</title>
<g id="a_node4"><a xlink:href="erpc__framed__transport_8hpp.html" target="_top" xlink:title=" ">
<polygon fill="white" stroke="black" points="296.5,-168.5 296.5,-187.5 445.5,-187.5 445.5,-168.5 296.5,-168.5"/>
<text text-anchor="middle" x="371" y="-175.5" font-family="Helvetica,sans-Serif" font-size="10.00">erpc_framed_transport.hpp</text>
</a>
</g>
</g>
<!-- Node1&#45;&gt;Node4 -->
<g id="edge3" class="edge">
<title>Node1&#45;&gt;Node4</title>
<path fill="none" stroke="midnightblue" d="M433.57,-224.4C420.79,-215.13 404.11,-203.03 391.19,-193.65"/>
<polygon fill="midnightblue" stroke="midnightblue" points="393.08,-190.7 382.93,-187.66 388.97,-196.36 393.08,-190.7"/>
</g>
<!-- Node8 -->
<g id="node8" class="node">
<title>Node8</title>
<g id="a_node8"><a xlink:href="erpc__message__buffer_8hpp.html" target="_top" xlink:title=" ">
<polygon fill="white" stroke="black" points="214.5,-56.5 214.5,-75.5 357.5,-75.5 357.5,-56.5 214.5,-56.5"/>
<text text-anchor="middle" x="286" y="-63.5" font-family="Helvetica,sans-Serif" font-size="10.00">erpc_message_buffer.hpp</text>
</a>
</g>
</g>
<!-- Node1&#45;&gt;Node8 -->
<g id="edge20" class="edge">
<title>Node1&#45;&gt;Node8</title>
<path fill="none" stroke="midnightblue" d="M394.76,-237.34C357.51,-233.19 311.71,-221.06 287,-188 264.55,-157.96 272.92,-110.99 280.05,-85.3"/>
<polygon fill="midnightblue" stroke="midnightblue" points="283.4,-86.28 282.93,-75.7 276.7,-84.27 283.4,-86.28"/>
</g>
<!-- Node15 -->
<g id="node15" class="node">
<title>Node15</title>
<g id="a_node15"><a xlink:href="erpc__rpmsg__lite__base_8hpp.html" target="_top" xlink:title=" ">
<polygon fill="white" stroke="black" points="464,-168.5 464,-187.5 608,-187.5 608,-168.5 464,-168.5"/>
<text text-anchor="middle" x="536" y="-175.5" font-family="Helvetica,sans-Serif" font-size="10.00">erpc_rpmsg_lite_base.hpp</text>
</a>
</g>
</g>
<!-- Node1&#45;&gt;Node15 -->
<g id="edge21" class="edge">
<title>Node1&#45;&gt;Node15</title>
<path fill="none" stroke="midnightblue" d="M472.67,-224.4C485.6,-215.13 502.49,-203.03 515.57,-193.65"/>
<polygon fill="midnightblue" stroke="midnightblue" points="517.83,-196.33 523.92,-187.66 513.76,-190.64 517.83,-196.33"/>
</g>
<!-- Node17 -->
<g id="node17" class="node">
<title>Node17</title>
<g id="a_node17"><a xlink:title=" ">
<polygon fill="white" stroke="#bfbfbf" points="667.5,-112.5 667.5,-131.5 744.5,-131.5 744.5,-112.5 667.5,-112.5"/>
<text text-anchor="middle" x="706" y="-119.5" font-family="Helvetica,sans-Serif" font-size="10.00">rpmsg_lite.h</text>
</a>
</g>
</g>
<!-- Node1&#45;&gt;Node17 -->
<g id="edge25" class="edge">
<title>Node1&#45;&gt;Node17</title>
<path fill="none" stroke="midnightblue" d="M511.35,-225.57C543.51,-217.22 583.58,-204.76 617,-188 643.8,-174.56 671.13,-153.22 688.31,-138.69"/>
<polygon fill="midnightblue" stroke="midnightblue" points="691.02,-140.97 696.31,-131.79 686.45,-135.67 691.02,-140.97"/>
</g>
<!-- Node18 -->
<g id="node18" class="node">
<title>Node18</title>
<g id="a_node18"><a xlink:title=" ">
<polygon fill="white" stroke="#bfbfbf" points="664,-168.5 664,-187.5 756,-187.5 756,-168.5 664,-168.5"/>
<text text-anchor="middle" x="710" y="-175.5" font-family="Helvetica,sans-Serif" font-size="10.00">rpmsg_queue.h</text>
</a>
</g>
</g>
<!-- Node1&#45;&gt;Node18 -->
<g id="edge26" class="edge">
<title>Node1&#45;&gt;Node18</title>
<path fill="none" stroke="midnightblue" d="M511.32,-225C557.25,-214.36 620.43,-199.74 663.12,-189.85"/>
<polygon fill="midnightblue" stroke="midnightblue" points="664.02,-193.24 672.97,-187.57 662.44,-186.42 664.02,-193.24"/>
</g>
<!-- Node3 -->
<g id="node3" class="node">
<title>Node3</title>
<g id="a_node3"><a xlink:title=" ">
<polygon fill="white" stroke="#bfbfbf" points="20,-0.5 20,-19.5 70,-19.5 70,-0.5 20,-0.5"/>
<text text-anchor="middle" x="45" y="-7.5" font-family="Helvetica,sans-Serif" font-size="10.00">cstdint</text>
</a>
</g>
</g>
<!-- Node2&#45;&gt;Node3 -->
<g id="edge2" class="edge">
<title>Node2&#45;&gt;Node3</title>
<path fill="none" stroke="midnightblue" d="M45,-56.08C45,-49.01 45,-38.86 45,-29.99"/>
<polygon fill="midnightblue" stroke="midnightblue" points="48.5,-29.75 45,-19.75 41.5,-29.75 48.5,-29.75"/>
</g>
<!-- Node5 -->
<g id="node5" class="node">
<title>Node5</title>
<g id="a_node5"><a xlink:href="erpc__config__internal_8h_source.html" target="_top" xlink:title=" ">
<polygon fill="white" stroke="black" points="414.5,-56.5 414.5,-75.5 539.5,-75.5 539.5,-56.5 414.5,-56.5"/>
<text text-anchor="middle" x="477" y="-63.5" font-family="Helvetica,sans-Serif" font-size="10.00">erpc_config_internal.h</text>
</a>
</g>
</g>
<!-- Node4&#45;&gt;Node5 -->
<g id="edge4" class="edge">
<title>Node4&#45;&gt;Node5</title>
<path fill="none" stroke="midnightblue" d="M389.76,-168.48C405.27,-160.71 427.08,-148.02 442,-132 454.67,-118.4 464.22,-99.35 470.11,-85.38"/>
<polygon fill="midnightblue" stroke="midnightblue" points="473.45,-86.46 473.9,-75.88 466.95,-83.87 473.45,-86.46"/>
</g>
<!-- Node4&#45;&gt;Node8 -->
<g id="edge7" class="edge">
<title>Node4&#45;&gt;Node8</title>
<path fill="none" stroke="midnightblue" d="M361.02,-168.29C351.43,-159.63 336.82,-145.7 326,-132 314.22,-117.09 303.08,-98.48 295.57,-85"/>
<polygon fill="midnightblue" stroke="midnightblue" points="298.43,-82.94 290.57,-75.84 292.29,-86.29 298.43,-82.94"/>
</g>
<!-- Node12 -->
<g id="node12" class="node">
<title>Node12</title>
<g id="a_node12"><a xlink:href="erpc__transport_8hpp.html" target="_top" xlink:title=" ">
<polygon fill="white" stroke="black" points="133,-112.5 133,-131.5 241,-131.5 241,-112.5 133,-112.5"/>
<text text-anchor="middle" x="187" y="-119.5" font-family="Helvetica,sans-Serif" font-size="10.00">erpc_transport.hpp</text>
</a>
</g>
</g>
<!-- Node4&#45;&gt;Node12 -->
<g id="edge11" class="edge">
<title>Node4&#45;&gt;Node12</title>
<path fill="none" stroke="midnightblue" d="M341.84,-168.44C310.49,-159.24 260.47,-144.56 225.8,-134.39"/>
<polygon fill="midnightblue" stroke="midnightblue" points="226.6,-130.97 216.02,-131.52 224.63,-137.69 226.6,-130.97"/>
</g>
<!-- Node13 -->
<g id="node13" class="node">
<title>Node13</title>
<g id="a_node13"><a xlink:title=" ">
<polygon fill="white" stroke="#bfbfbf" points="108,-56.5 108,-75.5 158,-75.5 158,-56.5 108,-56.5"/>
<text text-anchor="middle" x="133" y="-63.5" font-family="Helvetica,sans-Serif" font-size="10.00">cstring</text>
</a>
</g>
</g>
<!-- Node4&#45;&gt;Node13 -->
<g id="edge16" class="edge">
<title>Node4&#45;&gt;Node13</title>
<path fill="none" stroke="midnightblue" d="M296.41,-173.65C231.9,-169 145.68,-157.98 124,-132 113.19,-119.05 117.9,-99.33 123.79,-85.01"/>
<polygon fill="midnightblue" stroke="midnightblue" points="127.07,-86.26 128.08,-75.71 120.71,-83.33 127.07,-86.26"/>
</g>
<!-- Node14 -->
<g id="node14" class="node">
<title>Node14</title>
<g id="a_node14"><a xlink:href="erpc__threading_8h.html" target="_top" xlink:title=" ">
<polygon fill="white" stroke="black" points="335,-112.5 335,-131.5 433,-131.5 433,-112.5 335,-112.5"/>
<text text-anchor="middle" x="384" y="-119.5" font-family="Helvetica,sans-Serif" font-size="10.00">erpc_threading.h</text>
</a>
</g>
</g>
<!-- Node4&#45;&gt;Node14 -->
<g id="edge17" class="edge">
<title>Node4&#45;&gt;Node14</title>
<path fill="none" stroke="midnightblue" d="M373.15,-168.08C374.87,-160.93 377.35,-150.64 379.5,-141.69"/>
<polygon fill="midnightblue" stroke="midnightblue" points="382.96,-142.29 381.89,-131.75 376.15,-140.65 382.96,-142.29"/>
</g>
<!-- Node6 -->
<g id="node6" class="node">
<title>Node6</title>
<g id="a_node6"><a xlink:href="erpc__config_8h.html" target="_top" xlink:title=" ">
<polygon fill="white" stroke="black" points="426,-0.5 426,-19.5 508,-19.5 508,-0.5 426,-0.5"/>
<text text-anchor="middle" x="467" y="-7.5" font-family="Helvetica,sans-Serif" font-size="10.00">erpc_config.h</text>
</a>
</g>
</g>
<!-- Node5&#45;&gt;Node6 -->
<g id="edge5" class="edge">
<title>Node5&#45;&gt;Node6</title>
<path fill="none" stroke="midnightblue" d="M475.35,-56.08C474.02,-48.93 472.12,-38.64 470.46,-29.69"/>
<polygon fill="midnightblue" stroke="midnightblue" points="473.88,-28.95 468.62,-19.75 467,-30.22 473.88,-28.95"/>
</g>
<!-- Node7 -->
<g id="node7" class="node">
<title>Node7</title>
<g id="a_node7"><a xlink:title=" ">
<polygon fill="white" stroke="#bfbfbf" points="526,-0.5 526,-19.5 578,-19.5 578,-0.5 526,-0.5"/>
<text text-anchor="middle" x="552" y="-7.5" font-family="Helvetica,sans-Serif" font-size="10.00">cassert</text>
</a>
</g>
</g>
<!-- Node5&#45;&gt;Node7 -->
<g id="edge6" class="edge">
<title>Node5&#45;&gt;Node7</title>
<path fill="none" stroke="midnightblue" d="M489.05,-56.32C500.46,-48.11 517.83,-35.6 531.43,-25.81"/>
<polygon fill="midnightblue" stroke="midnightblue" points="533.66,-28.52 539.73,-19.83 529.57,-22.84 533.66,-28.52"/>
</g>
<!-- Node9 -->
<g id="node9" class="node">
<title>Node9</title>
<g id="a_node9"><a xlink:href="erpc__common_8h_source.html" target="_top" xlink:title=" ">
<polygon fill="white" stroke="black" points="142.5,-0.5 142.5,-19.5 237.5,-19.5 237.5,-0.5 142.5,-0.5"/>
<text text-anchor="middle" x="190" y="-7.5" font-family="Helvetica,sans-Serif" font-size="10.00">erpc_common.h</text>
</a>
</g>
</g>
<!-- Node8&#45;&gt;Node9 -->
<g id="edge8" class="edge">
<title>Node8&#45;&gt;Node9</title>
<path fill="none" stroke="midnightblue" d="M270.58,-56.32C255.46,-47.82 232.18,-34.73 214.53,-24.8"/>
<polygon fill="midnightblue" stroke="midnightblue" points="215.82,-21.51 205.39,-19.65 212.39,-27.61 215.82,-21.51"/>
</g>
<!-- Node10 -->
<g id="node10" class="node">
<title>Node10</title>
<g id="a_node10"><a xlink:title=" ">
<polygon fill="white" stroke="#bfbfbf" points="259.5,-0.5 259.5,-19.5 312.5,-19.5 312.5,-0.5 259.5,-0.5"/>
<text text-anchor="middle" x="286" y="-7.5" font-family="Helvetica,sans-Serif" font-size="10.00">cstddef</text>
</a>
</g>
</g>
<!-- Node8&#45;&gt;Node10 -->
<g id="edge9" class="edge">
<title>Node8&#45;&gt;Node10</title>
<path fill="none" stroke="midnightblue" d="M286,-56.08C286,-49.01 286,-38.86 286,-29.99"/>
<polygon fill="midnightblue" stroke="midnightblue" points="289.5,-29.75 286,-19.75 282.5,-29.75 289.5,-29.75"/>
</g>
<!-- Node11 -->
<g id="node11" class="node">
<title>Node11</title>
<g id="a_node11"><a xlink:title=" ">
<polygon fill="white" stroke="#bfbfbf" points="344.5,-0.5 344.5,-19.5 397.5,-19.5 397.5,-0.5 344.5,-0.5"/>
<text text-anchor="middle" x="371" y="-7.5" font-family="Helvetica,sans-Serif" font-size="10.00">stdint.h</text>
</a>
</g>
</g>
<!-- Node8&#45;&gt;Node11 -->
<g id="edge10" class="edge">
<title>Node8&#45;&gt;Node11</title>
<path fill="none" stroke="midnightblue" d="M299.66,-56.32C312.92,-47.9 333.27,-34.97 348.85,-25.07"/>
<polygon fill="midnightblue" stroke="midnightblue" points="350.81,-27.97 357.38,-19.65 347.06,-22.06 350.81,-27.97"/>
</g>
<!-- Node12&#45;&gt;Node2 -->
<g id="edge13" class="edge">
<title>Node12&#45;&gt;Node2</title>
<path fill="none" stroke="midnightblue" d="M164.5,-112.44C140.92,-103.48 103.68,-89.31 77.04,-79.18"/>
<polygon fill="midnightblue" stroke="midnightblue" points="77.99,-75.8 67.4,-75.52 75.5,-82.34 77.99,-75.8"/>
</g>
<!-- Node12&#45;&gt;Node8 -->
<g id="edge14" class="edge">
<title>Node12&#45;&gt;Node8</title>
<path fill="none" stroke="midnightblue" d="M202.91,-112.32C218.64,-103.74 242.94,-90.49 261.21,-80.52"/>
<polygon fill="midnightblue" stroke="midnightblue" points="263.03,-83.52 270.13,-75.65 259.68,-77.37 263.03,-83.52"/>
</g>
<!-- Node12&#45;&gt;Node9 -->
<g id="edge12" class="edge">
<title>Node12&#45;&gt;Node9</title>
<path fill="none" stroke="midnightblue" d="M187.24,-112.37C187.72,-94.62 188.84,-53.67 189.49,-29.6"/>
<polygon fill="midnightblue" stroke="midnightblue" points="192.99,-29.68 189.77,-19.59 185.99,-29.49 192.99,-29.68"/>
</g>
<!-- Node12&#45;&gt;Node13 -->
<g id="edge15" class="edge">
<title>Node12&#45;&gt;Node13</title>
<path fill="none" stroke="midnightblue" d="M178.08,-112.08C170.22,-104.22 158.57,-92.57 149.08,-83.08"/>
<polygon fill="midnightblue" stroke="midnightblue" points="151.3,-80.35 141.75,-75.75 146.35,-85.3 151.3,-80.35"/>
</g>
<!-- Node14&#45;&gt;Node5 -->
<g id="edge18" class="edge">
<title>Node14&#45;&gt;Node5</title>
<path fill="none" stroke="midnightblue" d="M398.94,-112.32C413.59,-103.82 436.13,-90.73 453.24,-80.8"/>
<polygon fill="midnightblue" stroke="midnightblue" points="455.2,-83.7 462.1,-75.65 451.69,-77.65 455.2,-83.7"/>
</g>
<!-- Node14&#45;&gt;Node11 -->
<g id="edge19" class="edge">
<title>Node14&#45;&gt;Node11</title>
<path fill="none" stroke="midnightblue" d="M382.98,-112.37C380.88,-94.62 376.04,-53.67 373.2,-29.6"/>
<polygon fill="midnightblue" stroke="midnightblue" points="376.66,-29.11 372.02,-19.59 369.71,-29.93 376.66,-29.11"/>
</g>
<!-- Node15&#45;&gt;Node5 -->
<g id="edge22" class="edge">
<title>Node15&#45;&gt;Node5</title>
<path fill="none" stroke="midnightblue" d="M531.37,-168.37C521.72,-150.38 499.29,-108.55 486.45,-84.63"/>
<polygon fill="midnightblue" stroke="midnightblue" points="489.42,-82.75 481.61,-75.59 483.25,-86.06 489.42,-82.75"/>
</g>
<!-- Node16 -->
<g id="node16" class="node">
<title>Node16</title>
<g id="a_node16"><a xlink:title=" ">
<polygon fill="white" stroke="#bfbfbf" points="527,-112.5 527,-131.5 649,-131.5 649,-112.5 527,-112.5"/>
<text text-anchor="middle" x="588" y="-119.5" font-family="Helvetica,sans-Serif" font-size="10.00">rpmsg_env_specific.h</text>
</a>
</g>
</g>
<!-- Node15&#45;&gt;Node16 -->
<g id="edge23" class="edge">
<title>Node15&#45;&gt;Node16</title>
<path fill="none" stroke="midnightblue" d="M544.59,-168.08C552.16,-160.22 563.38,-148.57 572.51,-139.08"/>
<polygon fill="midnightblue" stroke="midnightblue" points="575.16,-141.38 579.57,-131.75 570.12,-136.53 575.16,-141.38"/>
</g>
<!-- Node15&#45;&gt;Node17 -->
<g id="edge24" class="edge">
<title>Node15&#45;&gt;Node17</title>
<path fill="none" stroke="midnightblue" d="M562.94,-168.44C591.66,-159.32 637.33,-144.81 669.32,-134.65"/>
<polygon fill="midnightblue" stroke="midnightblue" points="670.72,-137.88 679.19,-131.52 668.6,-131.21 670.72,-137.88"/>
</g>
</g>
</svg>
