<?xml version="1.0" encoding="UTF-8" standalone="no"?>
<!DOCTYPE svg PUBLIC "-//W3C//DTD SVG 1.1//EN"
 "http://www.w3.org/Graphics/SVG/1.1/DTD/svg11.dtd">
<!-- Generated by graphviz version 2.43.0 (0)
 -->
<!-- Title: erpc_transport.hpp Pages: 1 -->
<svg width="3062pt" height="285pt"
 viewBox="0.00 0.00 3061.50 285.00" xmlns="http://www.w3.org/2000/svg" xmlns:xlink="http://www.w3.org/1999/xlink">
<g id="graph0" class="graph" transform="scale(1 1) rotate(0) translate(4 281)">
<title>erpc_transport.hpp</title>
<polygon fill="white" stroke="transparent" points="-4,4 -4,-281 3057.5,-281 3057.5,4 -4,4"/>
<!-- Node1 -->
<g id="node1" class="node">
<title>Node1</title>
<g id="a_node1"><a xlink:title=" ">
<polygon fill="#bfbfbf" stroke="black" points="1999.5,-257.5 1999.5,-276.5 2107.5,-276.5 2107.5,-257.5 1999.5,-257.5"/>
<text text-anchor="middle" x="2053.5" y="-264.5" font-family="Helvetica,sans-Serif" font-size="10.00">erpc_transport.hpp</text>
</a>
</g>
</g>
<!-- Node2 -->
<g id="node2" class="node">
<title>Node2</title>
<g id="a_node2"><a xlink:href="erpc__codec_8hpp.html" target="_top" xlink:title=" ">
<polygon fill="white" stroke="black" points="460.5,-196 460.5,-215 552.5,-215 552.5,-196 460.5,-196"/>
<text text-anchor="middle" x="506.5" y="-203" font-family="Helvetica,sans-Serif" font-size="10.00">erpc_codec.hpp</text>
</a>
</g>
</g>
<!-- Node1&#45;&gt;Node2 -->
<g id="edge1" class="edge">
<title>Node1&#45;&gt;Node2</title>
<path fill="none" stroke="midnightblue" d="M1989.24,-265.98C1788.01,-265.48 1152.18,-260.64 627.5,-221 602.71,-219.13 575.19,-215.92 552.66,-213"/>
<polygon fill="midnightblue" stroke="midnightblue" points="1989.33,-269.48 1999.34,-266 1989.35,-262.48 1989.33,-269.48"/>
</g>
<!-- Node7 -->
<g id="node7" class="node">
<title>Node7</title>
<g id="a_node7"><a xlink:href="erpc__transport__arbitrator_8hpp.html" target="_top" xlink:title=" ">
<polygon fill="white" stroke="black" points="562,-6 562,-25 721,-25 721,-6 562,-6"/>
<text text-anchor="middle" x="641.5" y="-13" font-family="Helvetica,sans-Serif" font-size="10.00">erpc_transport_arbitrator.hpp</text>
</a>
</g>
</g>
<!-- Node1&#45;&gt;Node7 -->
<g id="edge28" class="edge">
<title>Node1&#45;&gt;Node7</title>
<path fill="none" stroke="midnightblue" d="M1989.01,-265.46C1727.86,-262.68 758.08,-246.16 660.5,-154 623.88,-119.42 634.39,-49.66 639.48,-25.21"/>
<polygon fill="midnightblue" stroke="midnightblue" points="1989.06,-268.97 1999.1,-265.57 1989.13,-261.97 1989.06,-268.97"/>
</g>
<!-- Node12 -->
<g id="node12" class="node">
<title>Node12</title>
<g id="a_node12"><a xlink:href="erpc__framed__transport_8hpp.html" target="_top" xlink:title=" ">
<polygon fill="white" stroke="black" points="1563,-196 1563,-215 1712,-215 1712,-196 1563,-196"/>
<text text-anchor="middle" x="1637.5" y="-203" font-family="Helvetica,sans-Serif" font-size="10.00">erpc_framed_transport.hpp</text>
</a>
</g>
</g>
<!-- Node1&#45;&gt;Node12 -->
<g id="edge12" class="edge">
<title>Node1&#45;&gt;Node12</title>
<path fill="none" stroke="midnightblue" d="M1989.38,-258.01C1922.44,-249.5 1814.46,-235.32 1721.5,-221 1709.65,-219.18 1696.89,-217.05 1684.98,-215.01"/>
<polygon fill="midnightblue" stroke="midnightblue" points="1989,-261.49 1999.36,-259.27 1989.88,-254.54 1989,-261.49"/>
</g>
<!-- Node27 -->
<g id="node27" class="node">
<title>Node27</title>
<g id="a_node27"><a xlink:href="erpc__message__loggers_8hpp.html" target="_top" xlink:title=" ">
<polygon fill="white" stroke="black" points="1730,-196 1730,-215 1879,-215 1879,-196 1730,-196"/>
<text text-anchor="middle" x="1804.5" y="-203" font-family="Helvetica,sans-Serif" font-size="10.00">erpc_message_loggers.hpp</text>
</a>
</g>
</g>
<!-- Node1&#45;&gt;Node27 -->
<g id="edge27" class="edge">
<title>Node1&#45;&gt;Node27</title>
<path fill="none" stroke="midnightblue" d="M2007.94,-255.11C1959.61,-243.57 1884.27,-225.56 1840.11,-215.01"/>
<polygon fill="midnightblue" stroke="midnightblue" points="2007.28,-258.56 2017.82,-257.48 2008.91,-251.75 2007.28,-258.56"/>
</g>
<!-- Node28 -->
<g id="node28" class="node">
<title>Node28</title>
<g id="a_node28"><a xlink:href="erpc__inter__thread__buffer__transport_8hpp.html" target="_top" xlink:title=" ">
<polygon fill="white" stroke="black" points="1897,-190.5 1897,-220.5 2034,-220.5 2034,-190.5 1897,-190.5"/>
<text text-anchor="start" x="1905" y="-208.5" font-family="Helvetica,sans-Serif" font-size="10.00">erpc_inter_thread_buffer</text>
<text text-anchor="middle" x="1965.5" y="-197.5" font-family="Helvetica,sans-Serif" font-size="10.00">_transport.hpp</text>
</a>
</g>
</g>
<!-- Node1&#45;&gt;Node28 -->
<g id="edge29" class="edge">
<title>Node1&#45;&gt;Node28</title>
<path fill="none" stroke="midnightblue" d="M2032.41,-251.74C2018.42,-242.28 2000.15,-229.93 1986.24,-220.52"/>
<polygon fill="midnightblue" stroke="midnightblue" points="2030.65,-254.77 2040.89,-257.48 2034.57,-248.97 2030.65,-254.77"/>
</g>
<!-- Node29 -->
<g id="node29" class="node">
<title>Node29</title>
<g id="a_node29"><a xlink:href="erpc__mbox__zephyr__transport_8hpp.html" target="_top" xlink:title=" ">
<polygon fill="white" stroke="black" points="2052,-196 2052,-215 2231,-215 2231,-196 2052,-196"/>
<text text-anchor="middle" x="2141.5" y="-203" font-family="Helvetica,sans-Serif" font-size="10.00">erpc_mbox_zephyr_transport.hpp</text>
</a>
</g>
</g>
<!-- Node1&#45;&gt;Node29 -->
<g id="edge30" class="edge">
<title>Node1&#45;&gt;Node29</title>
<path fill="none" stroke="midnightblue" d="M2074.78,-251.61C2091.7,-240.17 2114.81,-224.55 2128.92,-215.01"/>
<polygon fill="midnightblue" stroke="midnightblue" points="2072.43,-248.97 2066.11,-257.48 2076.35,-254.77 2072.43,-248.97"/>
</g>
<!-- Node30 -->
<g id="node30" class="node">
<title>Node30</title>
<g id="a_node30"><a xlink:href="erpc__mu__transport_8hpp.html" target="_top" xlink:title=" ">
<polygon fill="white" stroke="black" points="2249,-196 2249,-215 2378,-215 2378,-196 2249,-196"/>
<text text-anchor="middle" x="2313.5" y="-203" font-family="Helvetica,sans-Serif" font-size="10.00">erpc_mu_transport.hpp</text>
</a>
</g>
</g>
<!-- Node1&#45;&gt;Node30 -->
<g id="edge31" class="edge">
<title>Node1&#45;&gt;Node30</title>
<path fill="none" stroke="midnightblue" d="M2100.75,-255.19C2151.2,-243.64 2230.11,-225.58 2276.32,-215.01"/>
<polygon fill="midnightblue" stroke="midnightblue" points="2099.72,-251.83 2090.75,-257.48 2101.28,-258.66 2099.72,-251.83"/>
</g>
<!-- Node31 -->
<g id="node31" class="node">
<title>Node31</title>
<g id="a_node31"><a xlink:href="erpc__rpmsg__linux__transport_8hpp_source.html" target="_top" xlink:title=" ">
<polygon fill="white" stroke="black" points="2396,-196 2396,-215 2569,-215 2569,-196 2396,-196"/>
<text text-anchor="middle" x="2482.5" y="-203" font-family="Helvetica,sans-Serif" font-size="10.00">erpc_rpmsg_linux_transport.hpp</text>
</a>
</g>
</g>
<!-- Node1&#45;&gt;Node31 -->
<g id="edge32" class="edge">
<title>Node1&#45;&gt;Node31</title>
<path fill="none" stroke="midnightblue" d="M2117.65,-257.7C2184.93,-248.91 2293.71,-234.47 2387.5,-221 2400.55,-219.13 2414.59,-217.03 2427.77,-215.02"/>
<polygon fill="midnightblue" stroke="midnightblue" points="2117.09,-254.24 2107.63,-259 2118,-261.18 2117.09,-254.24"/>
</g>
<!-- Node32 -->
<g id="node32" class="node">
<title>Node32</title>
<g id="a_node32"><a xlink:href="erpc__rpmsg__lite__rtos__transport_8hpp.html" target="_top" xlink:title=" ">
<polygon fill="white" stroke="black" points="2587,-190.5 2587,-220.5 2706,-220.5 2706,-190.5 2587,-190.5"/>
<text text-anchor="start" x="2595" y="-208.5" font-family="Helvetica,sans-Serif" font-size="10.00">erpc_rpmsg_lite_rtos</text>
<text text-anchor="middle" x="2646.5" y="-197.5" font-family="Helvetica,sans-Serif" font-size="10.00">_transport.hpp</text>
</a>
</g>
</g>
<!-- Node1&#45;&gt;Node32 -->
<g id="edge33" class="edge">
<title>Node1&#45;&gt;Node32</title>
<path fill="none" stroke="midnightblue" d="M2117.97,-263.06C2217.3,-257.96 2413.55,-245.56 2578.5,-221 2581.25,-220.59 2584.05,-220.14 2586.87,-219.65"/>
<polygon fill="midnightblue" stroke="midnightblue" points="2117.61,-259.58 2107.8,-263.58 2117.96,-266.57 2117.61,-259.58"/>
</g>
<!-- Node33 -->
<g id="node33" class="node">
<title>Node33</title>
<g id="a_node33"><a xlink:href="erpc__rpmsg__lite__transport_8hpp.html" target="_top" xlink:title=" ">
<polygon fill="white" stroke="black" points="2724,-196 2724,-215 2889,-215 2889,-196 2724,-196"/>
<text text-anchor="middle" x="2806.5" y="-203" font-family="Helvetica,sans-Serif" font-size="10.00">erpc_rpmsg_lite_transport.hpp</text>
</a>
</g>
</g>
<!-- Node1&#45;&gt;Node33 -->
<g id="edge34" class="edge">
<title>Node1&#45;&gt;Node33</title>
<path fill="none" stroke="midnightblue" d="M2118.06,-263.55C2236.68,-258.61 2497.17,-245.76 2715.5,-221 2729.33,-219.43 2744.27,-217.25 2757.97,-215.06"/>
<polygon fill="midnightblue" stroke="midnightblue" points="2117.56,-260.06 2107.71,-263.97 2117.85,-267.06 2117.56,-260.06"/>
</g>
<!-- Node3 -->
<g id="node3" class="node">
<title>Node3</title>
<g id="a_node3"><a xlink:href="erpc__basic__codec_8hpp.html" target="_top" xlink:title=" ">
<polygon fill="white" stroke="black" points="490,-129 490,-148 613,-148 613,-129 490,-129"/>
<text text-anchor="middle" x="551.5" y="-136" font-family="Helvetica,sans-Serif" font-size="10.00">erpc_basic_codec.hpp</text>
</a>
</g>
</g>
<!-- Node2&#45;&gt;Node3 -->
<g id="edge2" class="edge">
<title>Node2&#45;&gt;Node3</title>
<path fill="none" stroke="midnightblue" d="M518.34,-187.4C527.08,-174.77 538.62,-158.1 545.53,-148.13"/>
<polygon fill="midnightblue" stroke="midnightblue" points="515.38,-185.52 512.57,-195.73 521.14,-189.5 515.38,-185.52"/>
</g>
<!-- Node4 -->
<g id="node4" class="node">
<title>Node4</title>
<g id="a_node4"><a xlink:href="erpc__client__server__common_8hpp.html" target="_top" xlink:title=" ">
<polygon fill="white" stroke="black" points="305.5,-123.5 305.5,-153.5 411.5,-153.5 411.5,-123.5 305.5,-123.5"/>
<text text-anchor="start" x="313.5" y="-141.5" font-family="Helvetica,sans-Serif" font-size="10.00">erpc_client_server</text>
<text text-anchor="middle" x="358.5" y="-130.5" font-family="Helvetica,sans-Serif" font-size="10.00">_common.hpp</text>
</a>
</g>
</g>
<!-- Node2&#45;&gt;Node4 -->
<g id="edge3" class="edge">
<title>Node2&#45;&gt;Node4</title>
<path fill="none" stroke="midnightblue" d="M477.51,-191.77C452.46,-180.77 416.31,-164.89 390.44,-153.53"/>
<polygon fill="midnightblue" stroke="midnightblue" points="476.28,-195.05 486.85,-195.87 479.1,-188.64 476.28,-195.05"/>
</g>
<!-- Node2&#45;&gt;Node7 -->
<g id="edge11" class="edge">
<title>Node2&#45;&gt;Node7</title>
<path fill="none" stroke="midnightblue" d="M493.59,-187.64C482.27,-170.64 469.23,-143.97 480.5,-123 509.06,-69.87 577.05,-38.8 614.91,-25.04"/>
<polygon fill="midnightblue" stroke="midnightblue" points="490.89,-189.88 499.54,-196 496.59,-185.82 490.89,-189.88"/>
</g>
<!-- Node5 -->
<g id="node5" class="node">
<title>Node5</title>
<g id="a_node5"><a xlink:href="erpc__client__manager_8h.html" target="_top" xlink:title=" ">
<polygon fill="white" stroke="black" points="294.5,-67.5 294.5,-86.5 422.5,-86.5 422.5,-67.5 294.5,-67.5"/>
<text text-anchor="middle" x="358.5" y="-74.5" font-family="Helvetica,sans-Serif" font-size="10.00">erpc_client_manager.h</text>
</a>
</g>
</g>
<!-- Node4&#45;&gt;Node5 -->
<g id="edge4" class="edge">
<title>Node4&#45;&gt;Node5</title>
<path fill="none" stroke="midnightblue" d="M358.5,-113.29C358.5,-103.86 358.5,-93.65 358.5,-86.66"/>
<polygon fill="midnightblue" stroke="midnightblue" points="355,-113.4 358.5,-123.4 362,-113.4 355,-113.4"/>
</g>
<!-- Node10 -->
<g id="node10" class="node">
<title>Node10</title>
<g id="a_node10"><a xlink:href="erpc__server_8hpp.html" target="_top" xlink:title=" ">
<polygon fill="white" stroke="black" points="106,-67.5 106,-86.5 201,-86.5 201,-67.5 106,-67.5"/>
<text text-anchor="middle" x="153.5" y="-74.5" font-family="Helvetica,sans-Serif" font-size="10.00">erpc_server.hpp</text>
</a>
</g>
</g>
<!-- Node4&#45;&gt;Node10 -->
<g id="edge9" class="edge">
<title>Node4&#45;&gt;Node10</title>
<path fill="none" stroke="midnightblue" d="M300.16,-120.57C261.82,-109.44 213.29,-95.35 182.81,-86.51"/>
<polygon fill="midnightblue" stroke="midnightblue" points="299.6,-124.05 310.18,-123.47 301.55,-117.33 299.6,-124.05"/>
</g>
<!-- Node6 -->
<g id="node6" class="node">
<title>Node6</title>
<g id="a_node6"><a xlink:href="erpc__arbitrated__client__manager_8hpp.html" target="_top" xlink:title=" ">
<polygon fill="white" stroke="black" points="421,-0.5 421,-30.5 544,-30.5 544,-0.5 421,-0.5"/>
<text text-anchor="start" x="429" y="-18.5" font-family="Helvetica,sans-Serif" font-size="10.00">erpc_arbitrated_client</text>
<text text-anchor="middle" x="482.5" y="-7.5" font-family="Helvetica,sans-Serif" font-size="10.00">_manager.hpp</text>
</a>
</g>
</g>
<!-- Node5&#45;&gt;Node6 -->
<g id="edge5" class="edge">
<title>Node5&#45;&gt;Node6</title>
<path fill="none" stroke="midnightblue" d="M385.45,-63.07C405.46,-53.47 432.74,-40.38 453.28,-30.52"/>
<polygon fill="midnightblue" stroke="midnightblue" points="383.77,-59.99 376.27,-67.48 386.8,-66.3 383.77,-59.99"/>
</g>
<!-- Node5&#45;&gt;Node7 -->
<g id="edge6" class="edge">
<title>Node5&#45;&gt;Node7</title>
<path fill="none" stroke="midnightblue" d="M408.91,-65.4C463.77,-53.87 550.42,-35.65 601.03,-25.01"/>
<polygon fill="midnightblue" stroke="midnightblue" points="408.11,-61.99 399.05,-67.48 409.55,-68.84 408.11,-61.99"/>
</g>
<!-- Node8 -->
<g id="node8" class="node">
<title>Node8</title>
<g id="a_node8"><a xlink:href="erpc__arbitrated__client__setup_8h.html" target="_top" xlink:title=" ">
<polygon fill="white" stroke="black" points="151,-0.5 151,-30.5 274,-30.5 274,-0.5 151,-0.5"/>
<text text-anchor="start" x="159" y="-18.5" font-family="Helvetica,sans-Serif" font-size="10.00">erpc_arbitrated_client</text>
<text text-anchor="middle" x="212.5" y="-7.5" font-family="Helvetica,sans-Serif" font-size="10.00">_setup.h</text>
</a>
</g>
</g>
<!-- Node5&#45;&gt;Node8 -->
<g id="edge7" class="edge">
<title>Node5&#45;&gt;Node8</title>
<path fill="none" stroke="midnightblue" d="M328.05,-63.59C304.38,-53.94 271.53,-40.56 246.91,-30.52"/>
<polygon fill="midnightblue" stroke="midnightblue" points="327,-66.94 337.58,-67.48 329.64,-60.46 327,-66.94"/>
</g>
<!-- Node9 -->
<g id="node9" class="node">
<title>Node9</title>
<g id="a_node9"><a xlink:href="erpc__client__setup_8h.html" target="_top" xlink:title=" ">
<polygon fill="white" stroke="black" points="292,-6 292,-25 403,-25 403,-6 292,-6"/>
<text text-anchor="middle" x="347.5" y="-13" font-family="Helvetica,sans-Serif" font-size="10.00">erpc_client_setup.h</text>
</a>
</g>
</g>
<!-- Node5&#45;&gt;Node9 -->
<g id="edge8" class="edge">
<title>Node5&#45;&gt;Node9</title>
<path fill="none" stroke="midnightblue" d="M355.05,-57.32C353.05,-46.5 350.62,-33.4 349.07,-25.01"/>
<polygon fill="midnightblue" stroke="midnightblue" points="351.66,-58.28 356.92,-67.48 358.55,-57.01 351.66,-58.28"/>
</g>
<!-- Node11 -->
<g id="node11" class="node">
<title>Node11</title>
<g id="a_node11"><a xlink:href="erpc__simple__server_8hpp.html" target="_top" xlink:title=" ">
<polygon fill="white" stroke="black" points="0,-6 0,-25 133,-25 133,-6 0,-6"/>
<text text-anchor="middle" x="66.5" y="-13" font-family="Helvetica,sans-Serif" font-size="10.00">erpc_simple_server.hpp</text>
</a>
</g>
</g>
<!-- Node10&#45;&gt;Node11 -->
<g id="edge10" class="edge">
<title>Node10&#45;&gt;Node11</title>
<path fill="none" stroke="midnightblue" d="M132.46,-61.61C115.73,-50.17 92.89,-34.55 78.94,-25.01"/>
<polygon fill="midnightblue" stroke="midnightblue" points="130.8,-64.72 141.04,-67.48 134.76,-58.94 130.8,-64.72"/>
</g>
<!-- Node13 -->
<g id="node13" class="node">
<title>Node13</title>
<g id="a_node13"><a xlink:href="erpc__dspi__master__transport_8hpp.html" target="_top" xlink:title=" ">
<polygon fill="white" stroke="black" points="2335,-129 2335,-148 2508,-148 2508,-129 2335,-129"/>
<text text-anchor="middle" x="2421.5" y="-136" font-family="Helvetica,sans-Serif" font-size="10.00">erpc_dspi_master_transport.hpp</text>
</a>
</g>
</g>
<!-- Node12&#45;&gt;Node13 -->
<g id="edge13" class="edge">
<title>Node12&#45;&gt;Node13</title>
<path fill="none" stroke="midnightblue" d="M1691.57,-194.25C1701.5,-192.63 1711.79,-191.12 1721.5,-190 1988.64,-159.08 2058.05,-182.11 2325.5,-154 2340.25,-152.45 2356.21,-150.25 2370.79,-148.03"/>
<polygon fill="midnightblue" stroke="midnightblue" points="1690.68,-190.86 1681.4,-195.97 1691.84,-197.76 1690.68,-190.86"/>
</g>
<!-- Node14 -->
<g id="node14" class="node">
<title>Node14</title>
<g id="a_node14"><a xlink:href="erpc__dspi__slave__transport_8hpp.html" target="_top" xlink:title=" ">
<polygon fill="white" stroke="black" points="2526,-129 2526,-148 2691,-148 2691,-129 2526,-129"/>
<text text-anchor="middle" x="2608.5" y="-136" font-family="Helvetica,sans-Serif" font-size="10.00">erpc_dspi_slave_transport.hpp</text>
</a>
</g>
</g>
<!-- Node12&#45;&gt;Node14 -->
<g id="edge14" class="edge">
<title>Node12&#45;&gt;Node14</title>
<path fill="none" stroke="midnightblue" d="M1690.91,-194.25C1701.04,-192.59 1711.57,-191.08 1721.5,-190 2073.57,-151.8 2165.19,-189.92 2517.5,-154 2531.82,-152.54 2547.32,-150.31 2561.4,-148.04"/>
<polygon fill="midnightblue" stroke="midnightblue" points="1690.23,-190.81 1680.95,-195.93 1691.39,-197.71 1690.23,-190.81"/>
</g>
<!-- Node15 -->
<g id="node15" class="node">
<title>Node15</title>
<g id="a_node15"><a xlink:href="erpc__i2c__slave__transport_8hpp.html" target="_top" xlink:title=" ">
<polygon fill="white" stroke="black" points="2709,-129 2709,-148 2868,-148 2868,-129 2709,-129"/>
<text text-anchor="middle" x="2788.5" y="-136" font-family="Helvetica,sans-Serif" font-size="10.00">erpc_i2c_slave_transport.hpp</text>
</a>
</g>
</g>
<!-- Node12&#45;&gt;Node15 -->
<g id="edge15" class="edge">
<title>Node12&#45;&gt;Node15</title>
<path fill="none" stroke="midnightblue" d="M1690.56,-194.23C1700.79,-192.57 1711.45,-191.05 1721.5,-190 2154.56,-144.87 2267.27,-197.48 2700.5,-154 2714.52,-152.59 2729.69,-150.35 2743.43,-148.05"/>
<polygon fill="midnightblue" stroke="midnightblue" points="1689.79,-190.81 1680.51,-195.93 1690.95,-197.71 1689.79,-190.81"/>
</g>
<!-- Node16 -->
<g id="node16" class="node">
<title>Node16</title>
<g id="a_node16"><a xlink:href="erpc__lpi2c__slave__transport_8hpp.html" target="_top" xlink:title=" ">
<polygon fill="white" stroke="black" points="2885.5,-129 2885.5,-148 3053.5,-148 3053.5,-129 2885.5,-129"/>
<text text-anchor="middle" x="2969.5" y="-136" font-family="Helvetica,sans-Serif" font-size="10.00">erpc_lpi2c_slave_transport.hpp</text>
</a>
</g>
</g>
<!-- Node12&#45;&gt;Node16 -->
<g id="edge16" class="edge">
<title>Node12&#45;&gt;Node16</title>
<path fill="none" stroke="midnightblue" d="M1690.22,-194.24C1700.56,-192.56 1711.34,-191.03 1721.5,-190 2232.91,-138.15 2365.73,-202.11 2877.5,-154 2892.31,-152.61 2908.36,-150.34 2922.84,-148.01"/>
<polygon fill="midnightblue" stroke="midnightblue" points="1689.35,-190.84 1680.07,-195.96 1690.52,-197.74 1689.35,-190.84"/>
</g>
<!-- Node17 -->
<g id="node17" class="node">
<title>Node17</title>
<g id="a_node17"><a xlink:href="erpc__lpspi__slave__transport_8hpp.html" target="_top" xlink:title=" ">
<polygon fill="white" stroke="black" points="669.5,-129 669.5,-148 837.5,-148 837.5,-129 669.5,-129"/>
<text text-anchor="middle" x="753.5" y="-136" font-family="Helvetica,sans-Serif" font-size="10.00">erpc_lpspi_slave_transport.hpp</text>
</a>
</g>
</g>
<!-- Node12&#45;&gt;Node17 -->
<g id="edge17" class="edge">
<title>Node12&#45;&gt;Node17</title>
<path fill="none" stroke="midnightblue" d="M1552.71,-201.62C1407.68,-196.12 1102.81,-182.1 846.5,-154 832.21,-152.43 816.75,-150.23 802.62,-148.01"/>
<polygon fill="midnightblue" stroke="midnightblue" points="1552.75,-205.12 1562.87,-202 1553.01,-198.13 1552.75,-205.12"/>
</g>
<!-- Node18 -->
<g id="node18" class="node">
<title>Node18</title>
<g id="a_node18"><a xlink:href="erpc__rpmsg__tty__rtos__transport_8hpp.html" target="_top" xlink:title=" ">
<polygon fill="white" stroke="black" points="855.5,-123.5 855.5,-153.5 971.5,-153.5 971.5,-123.5 855.5,-123.5"/>
<text text-anchor="start" x="863.5" y="-141.5" font-family="Helvetica,sans-Serif" font-size="10.00">erpc_rpmsg_tty_rtos</text>
<text text-anchor="middle" x="913.5" y="-130.5" font-family="Helvetica,sans-Serif" font-size="10.00">_transport.hpp</text>
</a>
</g>
</g>
<!-- Node12&#45;&gt;Node18 -->
<g id="edge18" class="edge">
<title>Node12&#45;&gt;Node18</title>
<path fill="none" stroke="midnightblue" d="M1552.43,-201.67C1426.79,-196.65 1184.47,-183.77 980.5,-154 977.56,-153.57 974.55,-153.09 971.52,-152.56"/>
<polygon fill="midnightblue" stroke="midnightblue" points="1552.61,-205.18 1562.74,-202.07 1552.89,-198.18 1552.61,-205.18"/>
</g>
<!-- Node19 -->
<g id="node19" class="node">
<title>Node19</title>
<g id="a_node19"><a xlink:href="erpc__serial__transport_8hpp.html" target="_top" xlink:title=" ">
<polygon fill="white" stroke="black" points="989.5,-129 989.5,-148 1129.5,-148 1129.5,-129 989.5,-129"/>
<text text-anchor="middle" x="1059.5" y="-136" font-family="Helvetica,sans-Serif" font-size="10.00">erpc_serial_transport.hpp</text>
</a>
</g>
</g>
<!-- Node12&#45;&gt;Node19 -->
<g id="edge19" class="edge">
<title>Node12&#45;&gt;Node19</title>
<path fill="none" stroke="midnightblue" d="M1552.88,-198.03C1453.42,-189.94 1283.52,-174.61 1138.5,-154 1126.77,-152.33 1114.11,-150.17 1102.45,-148.03"/>
<polygon fill="midnightblue" stroke="midnightblue" points="1552.63,-201.52 1562.88,-198.84 1553.19,-194.54 1552.63,-201.52"/>
</g>
<!-- Node20 -->
<g id="node20" class="node">
<title>Node20</title>
<g id="a_node20"><a xlink:href="erpc__spi__master__transport_8hpp.html" target="_top" xlink:title=" ">
<polygon fill="white" stroke="black" points="1148,-129 1148,-148 1315,-148 1315,-129 1148,-129"/>
<text text-anchor="middle" x="1231.5" y="-136" font-family="Helvetica,sans-Serif" font-size="10.00">erpc_spi_master_transport.hpp</text>
</a>
</g>
</g>
<!-- Node12&#45;&gt;Node20 -->
<g id="edge20" class="edge">
<title>Node12&#45;&gt;Node20</title>
<path fill="none" stroke="midnightblue" d="M1574.1,-194.35C1494.49,-181.6 1359.33,-159.96 1284.79,-148.03"/>
<polygon fill="midnightblue" stroke="midnightblue" points="1573.58,-197.81 1584.01,-195.94 1574.68,-190.9 1573.58,-197.81"/>
</g>
<!-- Node21 -->
<g id="node21" class="node">
<title>Node21</title>
<g id="a_node21"><a xlink:href="erpc__spi__slave__transport_8hpp.html" target="_top" xlink:title=" ">
<polygon fill="white" stroke="black" points="1333,-129 1333,-148 1492,-148 1492,-129 1333,-129"/>
<text text-anchor="middle" x="1412.5" y="-136" font-family="Helvetica,sans-Serif" font-size="10.00">erpc_spi_slave_transport.hpp</text>
</a>
</g>
</g>
<!-- Node12&#45;&gt;Node21 -->
<g id="edge21" class="edge">
<title>Node12&#45;&gt;Node21</title>
<path fill="none" stroke="midnightblue" d="M1598.01,-193.09C1553.5,-180.23 1482.14,-159.62 1442.14,-148.06"/>
<polygon fill="midnightblue" stroke="midnightblue" points="1597.04,-196.46 1607.62,-195.87 1598.99,-189.73 1597.04,-196.46"/>
</g>
<!-- Node22 -->
<g id="node22" class="node">
<title>Node22</title>
<g id="a_node22"><a xlink:href="erpc__spidev__master__transport_8hpp.html" target="_top" xlink:title=" ">
<polygon fill="white" stroke="black" points="1510,-123.5 1510,-153.5 1625,-153.5 1625,-123.5 1510,-123.5"/>
<text text-anchor="start" x="1518" y="-141.5" font-family="Helvetica,sans-Serif" font-size="10.00">erpc_spidev_master</text>
<text text-anchor="middle" x="1567.5" y="-130.5" font-family="Helvetica,sans-Serif" font-size="10.00">_transport.hpp</text>
</a>
</g>
</g>
<!-- Node12&#45;&gt;Node22 -->
<g id="edge22" class="edge">
<title>Node12&#45;&gt;Node22</title>
<path fill="none" stroke="midnightblue" d="M1620.73,-188.93C1609.15,-178.18 1593.89,-164 1582.67,-153.59"/>
<polygon fill="midnightblue" stroke="midnightblue" points="1618.35,-191.49 1628.06,-195.73 1623.11,-186.36 1618.35,-191.49"/>
</g>
<!-- Node23 -->
<g id="node23" class="node">
<title>Node23</title>
<g id="a_node23"><a xlink:href="erpc__tcp__transport_8hpp.html" target="_top" xlink:title=" ">
<polygon fill="white" stroke="black" points="1643.5,-129 1643.5,-148 1771.5,-148 1771.5,-129 1643.5,-129"/>
<text text-anchor="middle" x="1707.5" y="-136" font-family="Helvetica,sans-Serif" font-size="10.00">erpc_tcp_transport.hpp</text>
</a>
</g>
</g>
<!-- Node12&#45;&gt;Node23 -->
<g id="edge23" class="edge">
<title>Node12&#45;&gt;Node23</title>
<path fill="none" stroke="midnightblue" d="M1654.35,-188.86C1668.11,-176.08 1687.05,-158.49 1698.21,-148.13"/>
<polygon fill="midnightblue" stroke="midnightblue" points="1651.89,-186.36 1646.94,-195.73 1656.65,-191.49 1651.89,-186.36"/>
</g>
<!-- Node24 -->
<g id="node24" class="node">
<title>Node24</title>
<g id="a_node24"><a xlink:href="erpc__uart__cmsis__transport_8hpp.html" target="_top" xlink:title=" ">
<polygon fill="white" stroke="black" points="1790,-129 1790,-148 1957,-148 1957,-129 1790,-129"/>
<text text-anchor="middle" x="1873.5" y="-136" font-family="Helvetica,sans-Serif" font-size="10.00">erpc_uart_cmsis_transport.hpp</text>
</a>
</g>
</g>
<!-- Node12&#45;&gt;Node24 -->
<g id="edge24" class="edge">
<title>Node12&#45;&gt;Node24</title>
<path fill="none" stroke="midnightblue" d="M1678.63,-193.17C1725.3,-180.32 1800.37,-159.64 1842.41,-148.06"/>
<polygon fill="midnightblue" stroke="midnightblue" points="1677.55,-189.84 1668.84,-195.87 1679.41,-196.59 1677.55,-189.84"/>
</g>
<!-- Node25 -->
<g id="node25" class="node">
<title>Node25</title>
<g id="a_node25"><a xlink:href="erpc__uart__zephyr__transport_8hpp.html" target="_top" xlink:title=" ">
<polygon fill="white" stroke="black" points="1975,-129 1975,-148 2146,-148 2146,-129 1975,-129"/>
<text text-anchor="middle" x="2060.5" y="-136" font-family="Helvetica,sans-Serif" font-size="10.00">erpc_uart_zephyr_transport.hpp</text>
</a>
</g>
</g>
<!-- Node12&#45;&gt;Node25 -->
<g id="edge25" class="edge">
<title>Node12&#45;&gt;Node25</title>
<path fill="none" stroke="midnightblue" d="M1695.86,-194.23C1704.45,-192.78 1713.2,-191.33 1721.5,-190 1830.18,-172.64 1857.67,-170.39 1966.5,-154 1979.24,-152.08 1992.94,-149.99 2005.83,-148"/>
<polygon fill="midnightblue" stroke="midnightblue" points="1695.15,-190.8 1685.88,-195.94 1696.33,-197.7 1695.15,-190.8"/>
</g>
<!-- Node26 -->
<g id="node26" class="node">
<title>Node26</title>
<g id="a_node26"><a xlink:href="erpc__usb__cdc__transport_8hpp.html" target="_top" xlink:title=" ">
<polygon fill="white" stroke="black" points="2164.5,-129 2164.5,-148 2316.5,-148 2316.5,-129 2164.5,-129"/>
<text text-anchor="middle" x="2240.5" y="-136" font-family="Helvetica,sans-Serif" font-size="10.00">erpc_usb_cdc_transport.hpp</text>
</a>
</g>
</g>
<!-- Node12&#45;&gt;Node26 -->
<g id="edge26" class="edge">
<title>Node12&#45;&gt;Node26</title>
<path fill="none" stroke="midnightblue" d="M1692.6,-194.27C1702.21,-192.7 1712.13,-191.19 1721.5,-190 1913.5,-165.51 1963.48,-178.3 2155.5,-154 2168.27,-152.38 2182.06,-150.22 2194.73,-148.05"/>
<polygon fill="midnightblue" stroke="midnightblue" points="1692.01,-190.83 1682.73,-195.94 1693.17,-197.73 1692.01,-190.83"/>
</g>
</g>
</svg>
