<?xml version="1.0" encoding="UTF-8" standalone="no"?>
<!DOCTYPE svg PUBLIC "-//W3C//DTD SVG 1.1//EN"
 "http://www.w3.org/Graphics/SVG/1.1/DTD/svg11.dtd">
<!-- Generated by graphviz version 2.43.0 (0)
 -->
<!-- Title: erpc_transport_setup.h Pages: 1 -->
<svg width="393pt" height="151pt"
 viewBox="0.00 0.00 393.00 151.00" xmlns="http://www.w3.org/2000/svg" xmlns:xlink="http://www.w3.org/1999/xlink">
<g id="graph0" class="graph" transform="scale(1 1) rotate(0) translate(4 147)">
<title>erpc_transport_setup.h</title>
<polygon fill="white" stroke="transparent" points="-4,4 -4,-147 389,-147 389,4 -4,4"/>
<!-- Node1 -->
<g id="node1" class="node">
<title>Node1</title>
<g id="a_node1"><a xlink:title=" ">
<polygon fill="#bfbfbf" stroke="black" points="142.5,-123.5 142.5,-142.5 270.5,-142.5 270.5,-123.5 142.5,-123.5"/>
<text text-anchor="middle" x="206.5" y="-130.5" font-family="Helvetica,sans-Serif" font-size="10.00">erpc_transport_setup.h</text>
</a>
</g>
</g>
<!-- Node2 -->
<g id="node2" class="node">
<title>Node2</title>
<g id="a_node2"><a xlink:href="erpc__arbitrated__client__setup_8h.html" target="_top" xlink:title=" ">
<polygon fill="white" stroke="black" points="0,-0.5 0,-30.5 123,-30.5 123,-0.5 0,-0.5"/>
<text text-anchor="start" x="8" y="-18.5" font-family="Helvetica,sans-Serif" font-size="10.00">erpc_arbitrated_client</text>
<text text-anchor="middle" x="61.5" y="-7.5" font-family="Helvetica,sans-Serif" font-size="10.00">_setup.h</text>
</a>
</g>
</g>
<!-- Node1&#45;&gt;Node2 -->
<g id="edge1" class="edge">
<title>Node1&#45;&gt;Node2</title>
<path fill="none" stroke="midnightblue" d="M165.45,-120C145.74,-112.76 122.72,-101.98 105.5,-87 87.43,-71.28 74.29,-46.3 67.29,-30.69"/>
<polygon fill="midnightblue" stroke="midnightblue" points="164.51,-123.38 175.11,-123.37 166.82,-116.77 164.51,-123.38"/>
</g>
<!-- Node3 -->
<g id="node3" class="node">
<title>Node3</title>
<g id="a_node3"><a xlink:href="erpc__client__setup_8h.html" target="_top" xlink:title=" ">
<polygon fill="white" stroke="black" points="141,-6 141,-25 252,-25 252,-6 141,-6"/>
<text text-anchor="middle" x="196.5" y="-13" font-family="Helvetica,sans-Serif" font-size="10.00">erpc_client_setup.h</text>
</a>
</g>
</g>
<!-- Node1&#45;&gt;Node3 -->
<g id="edge2" class="edge">
<title>Node1&#45;&gt;Node3</title>
<path fill="none" stroke="midnightblue" d="M218.03,-114.41C225.13,-101.39 232.07,-83.19 227.5,-67 222.91,-50.76 211.48,-34.6 203.86,-25.09"/>
<polygon fill="midnightblue" stroke="midnightblue" points="214.88,-112.85 212.76,-123.23 220.89,-116.44 214.88,-112.85"/>
</g>
<!-- Node4 -->
<g id="node4" class="node">
<title>Node4</title>
<g id="a_node4"><a xlink:href="erpc__mbf__setup_8h.html" target="_top" xlink:title=" ">
<polygon fill="white" stroke="black" points="114.5,-67.5 114.5,-86.5 218.5,-86.5 218.5,-67.5 114.5,-67.5"/>
<text text-anchor="middle" x="166.5" y="-74.5" font-family="Helvetica,sans-Serif" font-size="10.00">erpc_mbf_setup.h</text>
</a>
</g>
</g>
<!-- Node1&#45;&gt;Node4 -->
<g id="edge3" class="edge">
<title>Node1&#45;&gt;Node4</title>
<path fill="none" stroke="midnightblue" d="M193.8,-114.86C186.87,-105.5 178.59,-94.33 172.98,-86.75"/>
<polygon fill="midnightblue" stroke="midnightblue" points="191.13,-117.13 199.89,-123.08 196.75,-112.96 191.13,-117.13"/>
</g>
<!-- Node5 -->
<g id="node5" class="node">
<title>Node5</title>
<g id="a_node5"><a xlink:href="erpc__server__setup_8h.html" target="_top" xlink:title=" ">
<polygon fill="white" stroke="black" points="270,-6 270,-25 385,-25 385,-6 270,-6"/>
<text text-anchor="middle" x="327.5" y="-13" font-family="Helvetica,sans-Serif" font-size="10.00">erpc_server_setup.h</text>
</a>
</g>
</g>
<!-- Node1&#45;&gt;Node5 -->
<g id="edge7" class="edge">
<title>Node1&#45;&gt;Node5</title>
<path fill="none" stroke="midnightblue" d="M223.11,-116.15C248.96,-91.47 297.97,-44.69 318.3,-25.28"/>
<polygon fill="midnightblue" stroke="midnightblue" points="220.41,-113.88 215.59,-123.32 225.24,-118.95 220.41,-113.88"/>
</g>
<!-- Node4&#45;&gt;Node2 -->
<g id="edge4" class="edge">
<title>Node4&#45;&gt;Node2</title>
<path fill="none" stroke="midnightblue" d="M142.75,-62.54C125.9,-52.99 103.32,-40.2 86.25,-30.52"/>
<polygon fill="midnightblue" stroke="midnightblue" points="141.03,-65.59 151.46,-67.48 144.48,-59.5 141.03,-65.59"/>
</g>
<!-- Node4&#45;&gt;Node3 -->
<g id="edge5" class="edge">
<title>Node4&#45;&gt;Node3</title>
<path fill="none" stroke="midnightblue" d="M175.41,-58.33C180.96,-47.33 187.85,-33.66 192.21,-25.01"/>
<polygon fill="midnightblue" stroke="midnightblue" points="172.18,-56.97 170.8,-67.48 178.43,-60.12 172.18,-56.97"/>
</g>
<!-- Node4&#45;&gt;Node5 -->
<g id="edge6" class="edge">
<title>Node4&#45;&gt;Node5</title>
<path fill="none" stroke="midnightblue" d="M199.15,-63.93C230.44,-52.37 276.88,-35.21 304.48,-25.01"/>
<polygon fill="midnightblue" stroke="midnightblue" points="197.73,-60.73 189.57,-67.48 200.16,-67.29 197.73,-60.73"/>
</g>
</g>
</svg>
