<?xml version="1.0" encoding="UTF-8" standalone="no"?>
<!DOCTYPE svg PUBLIC "-//W3C//DTD SVG 1.1//EN"
 "http://www.w3.org/Graphics/SVG/1.1/DTD/svg11.dtd">
<!-- Generated by graphviz version 2.43.0 (0)
 -->
<!-- Title: erpc_inter_thread_buffer_transport.hpp Pages: 1 -->
<svg width="591pt" height="207pt"
 viewBox="0.00 0.00 591.00 207.00" xmlns="http://www.w3.org/2000/svg" xmlns:xlink="http://www.w3.org/1999/xlink">
<g id="graph0" class="graph" transform="scale(1 1) rotate(0) translate(4 203)">
<title>erpc_inter_thread_buffer_transport.hpp</title>
<polygon fill="white" stroke="transparent" points="-4,4 -4,-203 587,-203 587,4 -4,4"/>
<!-- Node1 -->
<g id="node1" class="node">
<title>Node1</title>
<g id="a_node1"><a xlink:title=" ">
<polygon fill="#bfbfbf" stroke="black" points="228.5,-168.5 228.5,-198.5 365.5,-198.5 365.5,-168.5 228.5,-168.5"/>
<text text-anchor="start" x="236.5" y="-186.5" font-family="Helvetica,sans-Serif" font-size="10.00">erpc_inter_thread_buffer</text>
<text text-anchor="middle" x="297" y="-175.5" font-family="Helvetica,sans-Serif" font-size="10.00">_transport.hpp</text>
</a>
</g>
</g>
<!-- Node2 -->
<g id="node2" class="node">
<title>Node2</title>
<g id="a_node2"><a xlink:href="erpc__message__buffer_8hpp.html" target="_top" xlink:title=" ">
<polygon fill="white" stroke="black" points="225.5,-56.5 225.5,-75.5 368.5,-75.5 368.5,-56.5 225.5,-56.5"/>
<text text-anchor="middle" x="297" y="-63.5" font-family="Helvetica,sans-Serif" font-size="10.00">erpc_message_buffer.hpp</text>
</a>
</g>
</g>
<!-- Node1&#45;&gt;Node2 -->
<g id="edge1" class="edge">
<title>Node1&#45;&gt;Node2</title>
<path fill="none" stroke="midnightblue" d="M297,-168.34C297,-147.62 297,-109.02 297,-85.9"/>
<polygon fill="midnightblue" stroke="midnightblue" points="300.5,-85.67 297,-75.67 293.5,-85.67 300.5,-85.67"/>
</g>
<!-- Node6 -->
<g id="node6" class="node">
<title>Node6</title>
<g id="a_node6"><a xlink:href="erpc__threading_8h.html" target="_top" xlink:title=" ">
<polygon fill="white" stroke="black" points="148,-112.5 148,-131.5 246,-131.5 246,-112.5 148,-112.5"/>
<text text-anchor="middle" x="197" y="-119.5" font-family="Helvetica,sans-Serif" font-size="10.00">erpc_threading.h</text>
</a>
</g>
</g>
<!-- Node1&#45;&gt;Node6 -->
<g id="edge5" class="edge">
<title>Node1&#45;&gt;Node6</title>
<path fill="none" stroke="midnightblue" d="M273.3,-168.4C257.27,-158.86 236.2,-146.32 220.26,-136.84"/>
<polygon fill="midnightblue" stroke="midnightblue" points="221.93,-133.76 211.55,-131.66 218.36,-139.78 221.93,-133.76"/>
</g>
<!-- Node10 -->
<g id="node10" class="node">
<title>Node10</title>
<g id="a_node10"><a xlink:href="erpc__transport_8hpp.html" target="_top" xlink:title=" ">
<polygon fill="white" stroke="black" points="343,-112.5 343,-131.5 451,-131.5 451,-112.5 343,-112.5"/>
<text text-anchor="middle" x="397" y="-119.5" font-family="Helvetica,sans-Serif" font-size="10.00">erpc_transport.hpp</text>
</a>
</g>
</g>
<!-- Node1&#45;&gt;Node10 -->
<g id="edge10" class="edge">
<title>Node1&#45;&gt;Node10</title>
<path fill="none" stroke="midnightblue" d="M320.7,-168.4C336.73,-158.86 357.8,-146.32 373.74,-136.84"/>
<polygon fill="midnightblue" stroke="midnightblue" points="375.64,-139.78 382.45,-131.66 372.07,-133.76 375.64,-139.78"/>
</g>
<!-- Node3 -->
<g id="node3" class="node">
<title>Node3</title>
<g id="a_node3"><a xlink:href="erpc__common_8h_source.html" target="_top" xlink:title=" ">
<polygon fill="white" stroke="black" points="337.5,-0.5 337.5,-19.5 432.5,-19.5 432.5,-0.5 337.5,-0.5"/>
<text text-anchor="middle" x="385" y="-7.5" font-family="Helvetica,sans-Serif" font-size="10.00">erpc_common.h</text>
</a>
</g>
</g>
<!-- Node2&#45;&gt;Node3 -->
<g id="edge2" class="edge">
<title>Node2&#45;&gt;Node3</title>
<path fill="none" stroke="midnightblue" d="M311.14,-56.32C324.87,-47.9 345.94,-34.97 362.06,-25.07"/>
<polygon fill="midnightblue" stroke="midnightblue" points="364.2,-27.87 370.9,-19.65 360.54,-21.9 364.2,-27.87"/>
</g>
<!-- Node4 -->
<g id="node4" class="node">
<title>Node4</title>
<g id="a_node4"><a xlink:title=" ">
<polygon fill="white" stroke="#bfbfbf" points="266.5,-0.5 266.5,-19.5 319.5,-19.5 319.5,-0.5 266.5,-0.5"/>
<text text-anchor="middle" x="293" y="-7.5" font-family="Helvetica,sans-Serif" font-size="10.00">cstddef</text>
</a>
</g>
</g>
<!-- Node2&#45;&gt;Node4 -->
<g id="edge3" class="edge">
<title>Node2&#45;&gt;Node4</title>
<path fill="none" stroke="midnightblue" d="M296.34,-56.08C295.82,-49.01 295.06,-38.86 294.41,-29.99"/>
<polygon fill="midnightblue" stroke="midnightblue" points="297.88,-29.47 293.65,-19.75 290.9,-29.98 297.88,-29.47"/>
</g>
<!-- Node5 -->
<g id="node5" class="node">
<title>Node5</title>
<g id="a_node5"><a xlink:title=" ">
<polygon fill="white" stroke="#bfbfbf" points="187.5,-0.5 187.5,-19.5 240.5,-19.5 240.5,-0.5 187.5,-0.5"/>
<text text-anchor="middle" x="214" y="-7.5" font-family="Helvetica,sans-Serif" font-size="10.00">stdint.h</text>
</a>
</g>
</g>
<!-- Node2&#45;&gt;Node5 -->
<g id="edge4" class="edge">
<title>Node2&#45;&gt;Node5</title>
<path fill="none" stroke="midnightblue" d="M283.66,-56.32C270.84,-47.98 251.22,-35.21 236.06,-25.35"/>
<polygon fill="midnightblue" stroke="midnightblue" points="237.59,-22.17 227.3,-19.65 233.78,-28.04 237.59,-22.17"/>
</g>
<!-- Node6&#45;&gt;Node5 -->
<g id="edge9" class="edge">
<title>Node6&#45;&gt;Node5</title>
<path fill="none" stroke="midnightblue" d="M198.33,-112.37C201.08,-94.62 207.41,-53.67 211.13,-29.6"/>
<polygon fill="midnightblue" stroke="midnightblue" points="214.6,-30.01 212.67,-19.59 207.69,-28.94 214.6,-30.01"/>
</g>
<!-- Node7 -->
<g id="node7" class="node">
<title>Node7</title>
<g id="a_node7"><a xlink:href="erpc__config__internal_8h_source.html" target="_top" xlink:title=" ">
<polygon fill="white" stroke="black" points="43.5,-56.5 43.5,-75.5 168.5,-75.5 168.5,-56.5 43.5,-56.5"/>
<text text-anchor="middle" x="106" y="-63.5" font-family="Helvetica,sans-Serif" font-size="10.00">erpc_config_internal.h</text>
</a>
</g>
</g>
<!-- Node6&#45;&gt;Node7 -->
<g id="edge6" class="edge">
<title>Node6&#45;&gt;Node7</title>
<path fill="none" stroke="midnightblue" d="M182.38,-112.32C168.05,-103.82 145.99,-90.73 129.25,-80.8"/>
<polygon fill="midnightblue" stroke="midnightblue" points="130.97,-77.75 120.58,-75.65 127.4,-83.77 130.97,-77.75"/>
</g>
<!-- Node8 -->
<g id="node8" class="node">
<title>Node8</title>
<g id="a_node8"><a xlink:href="erpc__config_8h.html" target="_top" xlink:title=" ">
<polygon fill="white" stroke="black" points="70,-0.5 70,-19.5 152,-19.5 152,-0.5 70,-0.5"/>
<text text-anchor="middle" x="111" y="-7.5" font-family="Helvetica,sans-Serif" font-size="10.00">erpc_config.h</text>
</a>
</g>
</g>
<!-- Node7&#45;&gt;Node8 -->
<g id="edge7" class="edge">
<title>Node7&#45;&gt;Node8</title>
<path fill="none" stroke="midnightblue" d="M106.83,-56.08C107.48,-49.01 108.42,-38.86 109.24,-29.99"/>
<polygon fill="midnightblue" stroke="midnightblue" points="112.75,-30.03 110.19,-19.75 105.78,-29.39 112.75,-30.03"/>
</g>
<!-- Node9 -->
<g id="node9" class="node">
<title>Node9</title>
<g id="a_node9"><a xlink:title=" ">
<polygon fill="white" stroke="#bfbfbf" points="0,-0.5 0,-19.5 52,-19.5 52,-0.5 0,-0.5"/>
<text text-anchor="middle" x="26" y="-7.5" font-family="Helvetica,sans-Serif" font-size="10.00">cassert</text>
</a>
</g>
</g>
<!-- Node7&#45;&gt;Node9 -->
<g id="edge8" class="edge">
<title>Node7&#45;&gt;Node9</title>
<path fill="none" stroke="midnightblue" d="M93.15,-56.32C80.78,-47.98 61.87,-35.21 47.26,-25.35"/>
<polygon fill="midnightblue" stroke="midnightblue" points="49.07,-22.35 38.82,-19.65 45.15,-28.15 49.07,-22.35"/>
</g>
<!-- Node10&#45;&gt;Node2 -->
<g id="edge14" class="edge">
<title>Node10&#45;&gt;Node2</title>
<path fill="none" stroke="midnightblue" d="M380.93,-112.32C365.04,-103.74 340.49,-90.49 322.04,-80.52"/>
<polygon fill="midnightblue" stroke="midnightblue" points="323.49,-77.33 313.03,-75.65 320.16,-83.49 323.49,-77.33"/>
</g>
<!-- Node10&#45;&gt;Node3 -->
<g id="edge11" class="edge">
<title>Node10&#45;&gt;Node3</title>
<path fill="none" stroke="midnightblue" d="M396.06,-112.37C394.12,-94.62 389.65,-53.67 387.03,-29.6"/>
<polygon fill="midnightblue" stroke="midnightblue" points="390.5,-29.15 385.94,-19.59 383.54,-29.91 390.5,-29.15"/>
</g>
<!-- Node11 -->
<g id="node11" class="node">
<title>Node11</title>
<g id="a_node11"><a xlink:href="erpc__crc16_8hpp.html" target="_top" xlink:title=" ">
<polygon fill="white" stroke="black" points="425,-56.5 425,-75.5 515,-75.5 515,-56.5 425,-56.5"/>
<text text-anchor="middle" x="470" y="-63.5" font-family="Helvetica,sans-Serif" font-size="10.00">erpc_crc16.hpp</text>
</a>
</g>
</g>
<!-- Node10&#45;&gt;Node11 -->
<g id="edge12" class="edge">
<title>Node10&#45;&gt;Node11</title>
<path fill="none" stroke="midnightblue" d="M408.73,-112.32C419.84,-104.11 436.74,-91.6 449.98,-81.81"/>
<polygon fill="midnightblue" stroke="midnightblue" points="452.1,-84.59 458.06,-75.83 447.94,-78.97 452.1,-84.59"/>
</g>
<!-- Node13 -->
<g id="node13" class="node">
<title>Node13</title>
<g id="a_node13"><a xlink:title=" ">
<polygon fill="white" stroke="#bfbfbf" points="533,-56.5 533,-75.5 583,-75.5 583,-56.5 533,-56.5"/>
<text text-anchor="middle" x="558" y="-63.5" font-family="Helvetica,sans-Serif" font-size="10.00">cstring</text>
</a>
</g>
</g>
<!-- Node10&#45;&gt;Node13 -->
<g id="edge15" class="edge">
<title>Node10&#45;&gt;Node13</title>
<path fill="none" stroke="midnightblue" d="M422.51,-112.44C449.68,-103.33 492.84,-88.85 523.14,-78.69"/>
<polygon fill="midnightblue" stroke="midnightblue" points="524.51,-81.93 532.87,-75.43 522.28,-75.29 524.51,-81.93"/>
</g>
<!-- Node12 -->
<g id="node12" class="node">
<title>Node12</title>
<g id="a_node12"><a xlink:title=" ">
<polygon fill="white" stroke="#bfbfbf" points="451,-0.5 451,-19.5 501,-19.5 501,-0.5 451,-0.5"/>
<text text-anchor="middle" x="476" y="-7.5" font-family="Helvetica,sans-Serif" font-size="10.00">cstdint</text>
</a>
</g>
</g>
<!-- Node11&#45;&gt;Node12 -->
<g id="edge13" class="edge">
<title>Node11&#45;&gt;Node12</title>
<path fill="none" stroke="midnightblue" d="M470.99,-56.08C471.79,-48.93 472.93,-38.64 473.92,-29.69"/>
<polygon fill="midnightblue" stroke="midnightblue" points="477.4,-30.08 475.03,-19.75 470.44,-29.3 477.4,-30.08"/>
</g>
</g>
</svg>
