<?xml version="1.0" encoding="UTF-8" standalone="no"?>
<!DOCTYPE svg PUBLIC "-//W3C//DTD SVG 1.1//EN"
 "http://www.w3.org/Graphics/SVG/1.1/DTD/svg11.dtd">
<!-- Generated by graphviz version 2.43.0 (0)
 -->
<!-- Title: erpc_message_buffer.hpp Pages: 1 -->
<svg width="3007pt" height="341pt"
 viewBox="0.00 0.00 3007.00 341.00" xmlns="http://www.w3.org/2000/svg" xmlns:xlink="http://www.w3.org/1999/xlink">
<g id="graph0" class="graph" transform="scale(1 1) rotate(0) translate(4 337)">
<title>erpc_message_buffer.hpp</title>
<polygon fill="white" stroke="transparent" points="-4,4 -4,-337 3003,-337 3003,4 -4,4"/>
<!-- Node1 -->
<g id="node1" class="node">
<title>Node1</title>
<g id="a_node1"><a xlink:title=" ">
<polygon fill="#bfbfbf" stroke="black" points="2015,-313.5 2015,-332.5 2158,-332.5 2158,-313.5 2015,-313.5"/>
<text text-anchor="middle" x="2086.5" y="-320.5" font-family="Helvetica,sans-Serif" font-size="10.00">erpc_message_buffer.hpp</text>
</a>
</g>
</g>
<!-- Node2 -->
<g id="node2" class="node">
<title>Node2</title>
<g id="a_node2"><a xlink:href="erpc__codec_8hpp.html" target="_top" xlink:title=" ">
<polygon fill="white" stroke="black" points="431.5,-196 431.5,-215 523.5,-215 523.5,-196 431.5,-196"/>
<text text-anchor="middle" x="477.5" y="-203" font-family="Helvetica,sans-Serif" font-size="10.00">erpc_codec.hpp</text>
</a>
</g>
</g>
<!-- Node1&#45;&gt;Node2 -->
<g id="edge1" class="edge">
<title>Node1&#45;&gt;Node2</title>
<path fill="none" stroke="midnightblue" d="M2004.69,-317.86C1864.54,-310.62 1569.56,-294.73 1320.5,-277 1016.16,-255.34 650.6,-222.41 523.62,-210.76"/>
<polygon fill="midnightblue" stroke="midnightblue" points="2004.75,-321.37 2014.91,-318.39 2005.11,-314.38 2004.75,-321.37"/>
</g>
<!-- Node12 -->
<g id="node12" class="node">
<title>Node12</title>
<g id="a_node12"><a xlink:href="erpc__framed__transport_8hpp.html" target="_top" xlink:title=" ">
<polygon fill="white" stroke="black" points="1635,-196 1635,-215 1784,-215 1784,-196 1635,-196"/>
<text text-anchor="middle" x="1709.5" y="-203" font-family="Helvetica,sans-Serif" font-size="10.00">erpc_framed_transport.hpp</text>
</a>
</g>
</g>
<!-- Node1&#45;&gt;Node12 -->
<g id="edge12" class="edge">
<title>Node1&#45;&gt;Node12</title>
<path fill="none" stroke="midnightblue" d="M2048.86,-310.47C1973.21,-287.29 1804.26,-235.53 1737.46,-215.06"/>
<polygon fill="midnightblue" stroke="midnightblue" points="2047.89,-313.83 2058.47,-313.41 2049.94,-307.14 2047.89,-313.83"/>
</g>
<!-- Node18 -->
<g id="node18" class="node">
<title>Node18</title>
<g id="a_node18"><a xlink:href="erpc__rpmsg__tty__rtos__transport_8hpp.html" target="_top" xlink:title=" ">
<polygon fill="white" stroke="black" points="505.5,-123.5 505.5,-153.5 621.5,-153.5 621.5,-123.5 505.5,-123.5"/>
<text text-anchor="start" x="513.5" y="-141.5" font-family="Helvetica,sans-Serif" font-size="10.00">erpc_rpmsg_tty_rtos</text>
<text text-anchor="middle" x="563.5" y="-130.5" font-family="Helvetica,sans-Serif" font-size="10.00">_transport.hpp</text>
</a>
</g>
</g>
<!-- Node1&#45;&gt;Node18 -->
<g id="edge42" class="edge">
<title>Node1&#45;&gt;Node18</title>
<path fill="none" stroke="midnightblue" d="M2004.69,-315.4C1782.68,-296.88 1150.68,-240.09 630.5,-154 627.56,-153.51 624.56,-152.99 621.54,-152.43"/>
<polygon fill="midnightblue" stroke="midnightblue" points="2004.69,-318.91 2014.95,-316.25 2005.27,-311.94 2004.69,-318.91"/>
</g>
<!-- Node27 -->
<g id="node27" class="node">
<title>Node27</title>
<g id="a_node27"><a xlink:href="erpc__transport_8hpp.html" target="_top" xlink:title=" ">
<polygon fill="white" stroke="black" points="2104.5,-257.5 2104.5,-276.5 2212.5,-276.5 2212.5,-257.5 2104.5,-257.5"/>
<text text-anchor="middle" x="2158.5" y="-264.5" font-family="Helvetica,sans-Serif" font-size="10.00">erpc_transport.hpp</text>
</a>
</g>
</g>
<!-- Node1&#45;&gt;Node27 -->
<g id="edge27" class="edge">
<title>Node1&#45;&gt;Node27</title>
<path fill="none" stroke="midnightblue" d="M2106.37,-307.1C2119.32,-297.38 2135.8,-285.03 2146.72,-276.83"/>
<polygon fill="midnightblue" stroke="midnightblue" points="2103.97,-304.52 2098.07,-313.32 2108.17,-310.12 2103.97,-304.52"/>
</g>
<!-- Node29 -->
<g id="node29" class="node">
<title>Node29</title>
<g id="a_node29"><a xlink:href="erpc__inter__thread__buffer__transport_8hpp.html" target="_top" xlink:title=" ">
<polygon fill="white" stroke="black" points="1802,-190.5 1802,-220.5 1939,-220.5 1939,-190.5 1802,-190.5"/>
<text text-anchor="start" x="1810" y="-208.5" font-family="Helvetica,sans-Serif" font-size="10.00">erpc_inter_thread_buffer</text>
<text text-anchor="middle" x="1870.5" y="-197.5" font-family="Helvetica,sans-Serif" font-size="10.00">_transport.hpp</text>
</a>
</g>
</g>
<!-- Node1&#45;&gt;Node29 -->
<g id="edge38" class="edge">
<title>Node1&#45;&gt;Node29</title>
<path fill="none" stroke="midnightblue" d="M2061.41,-308.59C2020.24,-286.57 1938.7,-242.97 1896.77,-220.55"/>
<polygon fill="midnightblue" stroke="midnightblue" points="2059.8,-311.69 2070.26,-313.32 2063.1,-305.52 2059.8,-311.69"/>
</g>
<!-- Node31 -->
<g id="node31" class="node">
<title>Node31</title>
<g id="a_node31"><a xlink:href="erpc__mu__transport_8hpp.html" target="_top" xlink:title=" ">
<polygon fill="white" stroke="black" points="2550,-196 2550,-215 2679,-215 2679,-196 2550,-196"/>
<text text-anchor="middle" x="2614.5" y="-203" font-family="Helvetica,sans-Serif" font-size="10.00">erpc_mu_transport.hpp</text>
</a>
</g>
</g>
<!-- Node1&#45;&gt;Node31 -->
<g id="edge39" class="edge">
<title>Node1&#45;&gt;Node31</title>
<path fill="none" stroke="midnightblue" d="M2135.69,-311.24C2239.83,-288.46 2480.73,-235.76 2575.35,-215.06"/>
<polygon fill="midnightblue" stroke="midnightblue" points="2134.78,-307.86 2125.75,-313.41 2136.27,-314.7 2134.78,-307.86"/>
</g>
<!-- Node33 -->
<g id="node33" class="node">
<title>Node33</title>
<g id="a_node33"><a xlink:href="erpc__rpmsg__lite__rtos__transport_8hpp.html" target="_top" xlink:title=" ">
<polygon fill="white" stroke="black" points="2697,-190.5 2697,-220.5 2816,-220.5 2816,-190.5 2697,-190.5"/>
<text text-anchor="start" x="2705" y="-208.5" font-family="Helvetica,sans-Serif" font-size="10.00">erpc_rpmsg_lite_rtos</text>
<text text-anchor="middle" x="2756.5" y="-197.5" font-family="Helvetica,sans-Serif" font-size="10.00">_transport.hpp</text>
</a>
</g>
</g>
<!-- Node1&#45;&gt;Node33 -->
<g id="edge40" class="edge">
<title>Node1&#45;&gt;Node33</title>
<path fill="none" stroke="midnightblue" d="M2152.28,-311.95C2263.16,-294.79 2494.18,-258.09 2688.5,-221 2691.23,-220.48 2694.01,-219.94 2696.83,-219.38"/>
<polygon fill="midnightblue" stroke="midnightblue" points="2151.6,-308.51 2142.26,-313.5 2152.67,-315.43 2151.6,-308.51"/>
</g>
<!-- Node34 -->
<g id="node34" class="node">
<title>Node34</title>
<g id="a_node34"><a xlink:href="erpc__rpmsg__lite__transport_8hpp.html" target="_top" xlink:title=" ">
<polygon fill="white" stroke="black" points="2834,-196 2834,-215 2999,-215 2999,-196 2834,-196"/>
<text text-anchor="middle" x="2916.5" y="-203" font-family="Helvetica,sans-Serif" font-size="10.00">erpc_rpmsg_lite_transport.hpp</text>
</a>
</g>
</g>
<!-- Node1&#45;&gt;Node34 -->
<g id="edge41" class="edge">
<title>Node1&#45;&gt;Node34</title>
<path fill="none" stroke="midnightblue" d="M2166.27,-312.18C2237.64,-303.31 2345.12,-289.72 2438.5,-277 2610.7,-253.54 2653.68,-247.12 2825.5,-221 2837.84,-219.12 2851.1,-217.05 2863.59,-215.06"/>
<polygon fill="midnightblue" stroke="midnightblue" points="2165.5,-308.75 2156,-313.46 2166.36,-315.7 2165.5,-308.75"/>
</g>
<!-- Node3 -->
<g id="node3" class="node">
<title>Node3</title>
<g id="a_node3"><a xlink:href="erpc__basic__codec_8hpp.html" target="_top" xlink:title=" ">
<polygon fill="white" stroke="black" points="326,-129 326,-148 449,-148 449,-129 326,-129"/>
<text text-anchor="middle" x="387.5" y="-136" font-family="Helvetica,sans-Serif" font-size="10.00">erpc_basic_codec.hpp</text>
</a>
</g>
</g>
<!-- Node2&#45;&gt;Node3 -->
<g id="edge2" class="edge">
<title>Node2&#45;&gt;Node3</title>
<path fill="none" stroke="midnightblue" d="M456.82,-189.57C439.06,-176.74 414.06,-158.69 399.45,-148.13"/>
<polygon fill="midnightblue" stroke="midnightblue" points="455.21,-192.72 465.36,-195.73 459.3,-187.04 455.21,-192.72"/>
</g>
<!-- Node4 -->
<g id="node4" class="node">
<title>Node4</title>
<g id="a_node4"><a xlink:href="erpc__client__server__common_8hpp.html" target="_top" xlink:title=" ">
<polygon fill="white" stroke="black" points="201.5,-123.5 201.5,-153.5 307.5,-153.5 307.5,-123.5 201.5,-123.5"/>
<text text-anchor="start" x="209.5" y="-141.5" font-family="Helvetica,sans-Serif" font-size="10.00">erpc_client_server</text>
<text text-anchor="middle" x="254.5" y="-130.5" font-family="Helvetica,sans-Serif" font-size="10.00">_common.hpp</text>
</a>
</g>
</g>
<!-- Node2&#45;&gt;Node4 -->
<g id="edge3" class="edge">
<title>Node2&#45;&gt;Node4</title>
<path fill="none" stroke="midnightblue" d="M438.24,-193.06C400.43,-182.04 343.17,-165.34 302.63,-153.53"/>
<polygon fill="midnightblue" stroke="midnightblue" points="437.31,-196.43 447.89,-195.87 439.27,-189.71 437.31,-196.43"/>
</g>
<!-- Node7 -->
<g id="node7" class="node">
<title>Node7</title>
<g id="a_node7"><a xlink:href="erpc__transport__arbitrator_8hpp.html" target="_top" xlink:title=" ">
<polygon fill="white" stroke="black" points="562,-6 562,-25 721,-25 721,-6 562,-6"/>
<text text-anchor="middle" x="641.5" y="-13" font-family="Helvetica,sans-Serif" font-size="10.00">erpc_transport_arbitrator.hpp</text>
</a>
</g>
</g>
<!-- Node2&#45;&gt;Node7 -->
<g id="edge11" class="edge">
<title>Node2&#45;&gt;Node7</title>
<path fill="none" stroke="midnightblue" d="M478.2,-185.8C479.66,-168.27 483.96,-142 496.5,-123 528.58,-74.38 590.87,-40.08 622.33,-25.04"/>
<polygon fill="midnightblue" stroke="midnightblue" points="474.7,-185.69 477.6,-195.89 481.69,-186.11 474.7,-185.69"/>
</g>
<!-- Node5 -->
<g id="node5" class="node">
<title>Node5</title>
<g id="a_node5"><a xlink:href="erpc__client__manager_8h.html" target="_top" xlink:title=" ">
<polygon fill="white" stroke="black" points="283.5,-67.5 283.5,-86.5 411.5,-86.5 411.5,-67.5 283.5,-67.5"/>
<text text-anchor="middle" x="347.5" y="-74.5" font-family="Helvetica,sans-Serif" font-size="10.00">erpc_client_manager.h</text>
</a>
</g>
</g>
<!-- Node4&#45;&gt;Node5 -->
<g id="edge4" class="edge">
<title>Node4&#45;&gt;Node5</title>
<path fill="none" stroke="midnightblue" d="M285.33,-117.78C301.81,-107.23 321.27,-94.78 333.97,-86.66"/>
<polygon fill="midnightblue" stroke="midnightblue" points="283.08,-115.06 276.54,-123.4 286.85,-120.96 283.08,-115.06"/>
</g>
<!-- Node10 -->
<g id="node10" class="node">
<title>Node10</title>
<g id="a_node10"><a xlink:href="erpc__server_8hpp.html" target="_top" xlink:title=" ">
<polygon fill="white" stroke="black" points="132,-67.5 132,-86.5 227,-86.5 227,-67.5 132,-67.5"/>
<text text-anchor="middle" x="179.5" y="-74.5" font-family="Helvetica,sans-Serif" font-size="10.00">erpc_server.hpp</text>
</a>
</g>
</g>
<!-- Node4&#45;&gt;Node10 -->
<g id="edge9" class="edge">
<title>Node4&#45;&gt;Node10</title>
<path fill="none" stroke="midnightblue" d="M228.53,-116.89C215.48,-106.54 200.37,-94.56 190.41,-86.66"/>
<polygon fill="midnightblue" stroke="midnightblue" points="226.72,-119.93 236.73,-123.4 231.07,-114.44 226.72,-119.93"/>
</g>
<!-- Node6 -->
<g id="node6" class="node">
<title>Node6</title>
<g id="a_node6"><a xlink:href="erpc__arbitrated__client__manager_8hpp.html" target="_top" xlink:title=" ">
<polygon fill="white" stroke="black" points="421,-0.5 421,-30.5 544,-30.5 544,-0.5 421,-0.5"/>
<text text-anchor="start" x="429" y="-18.5" font-family="Helvetica,sans-Serif" font-size="10.00">erpc_arbitrated_client</text>
<text text-anchor="middle" x="482.5" y="-7.5" font-family="Helvetica,sans-Serif" font-size="10.00">_manager.hpp</text>
</a>
</g>
</g>
<!-- Node5&#45;&gt;Node6 -->
<g id="edge5" class="edge">
<title>Node5&#45;&gt;Node6</title>
<path fill="none" stroke="midnightblue" d="M376.25,-63.33C398.09,-53.7 428.12,-40.47 450.68,-30.52"/>
<polygon fill="midnightblue" stroke="midnightblue" points="374.58,-60.24 366.84,-67.48 377.4,-66.64 374.58,-60.24"/>
</g>
<!-- Node5&#45;&gt;Node7 -->
<g id="edge6" class="edge">
<title>Node5&#45;&gt;Node7</title>
<path fill="none" stroke="midnightblue" d="M399.51,-65.47C456.49,-53.94 546.77,-35.67 599.46,-25.01"/>
<polygon fill="midnightblue" stroke="midnightblue" points="398.73,-62.06 389.62,-67.48 400.12,-68.92 398.73,-62.06"/>
</g>
<!-- Node8 -->
<g id="node8" class="node">
<title>Node8</title>
<g id="a_node8"><a xlink:href="erpc__arbitrated__client__setup_8h.html" target="_top" xlink:title=" ">
<polygon fill="white" stroke="black" points="151,-0.5 151,-30.5 274,-30.5 274,-0.5 151,-0.5"/>
<text text-anchor="start" x="159" y="-18.5" font-family="Helvetica,sans-Serif" font-size="10.00">erpc_arbitrated_client</text>
<text text-anchor="middle" x="212.5" y="-7.5" font-family="Helvetica,sans-Serif" font-size="10.00">_setup.h</text>
</a>
</g>
</g>
<!-- Node5&#45;&gt;Node8 -->
<g id="edge7" class="edge">
<title>Node5&#45;&gt;Node8</title>
<path fill="none" stroke="midnightblue" d="M318.75,-63.33C296.91,-53.7 266.88,-40.47 244.32,-30.52"/>
<polygon fill="midnightblue" stroke="midnightblue" points="317.6,-66.64 328.16,-67.48 320.42,-60.24 317.6,-66.64"/>
</g>
<!-- Node9 -->
<g id="node9" class="node">
<title>Node9</title>
<g id="a_node9"><a xlink:href="erpc__client__setup_8h.html" target="_top" xlink:title=" ">
<polygon fill="white" stroke="black" points="292,-6 292,-25 403,-25 403,-6 292,-6"/>
<text text-anchor="middle" x="347.5" y="-13" font-family="Helvetica,sans-Serif" font-size="10.00">erpc_client_setup.h</text>
</a>
</g>
</g>
<!-- Node5&#45;&gt;Node9 -->
<g id="edge8" class="edge">
<title>Node5&#45;&gt;Node9</title>
<path fill="none" stroke="midnightblue" d="M347.5,-57.32C347.5,-46.5 347.5,-33.4 347.5,-25.01"/>
<polygon fill="midnightblue" stroke="midnightblue" points="344,-57.48 347.5,-67.48 351,-57.48 344,-57.48"/>
</g>
<!-- Node11 -->
<g id="node11" class="node">
<title>Node11</title>
<g id="a_node11"><a xlink:href="erpc__simple__server_8hpp.html" target="_top" xlink:title=" ">
<polygon fill="white" stroke="black" points="0,-6 0,-25 133,-25 133,-6 0,-6"/>
<text text-anchor="middle" x="66.5" y="-13" font-family="Helvetica,sans-Serif" font-size="10.00">erpc_simple_server.hpp</text>
</a>
</g>
</g>
<!-- Node10&#45;&gt;Node11 -->
<g id="edge10" class="edge">
<title>Node10&#45;&gt;Node11</title>
<path fill="none" stroke="midnightblue" d="M154.26,-62.71C132.38,-51.19 101.36,-34.86 82.66,-25.01"/>
<polygon fill="midnightblue" stroke="midnightblue" points="152.83,-65.91 163.31,-67.48 156.09,-59.72 152.83,-65.91"/>
</g>
<!-- Node13 -->
<g id="node13" class="node">
<title>Node13</title>
<g id="a_node13"><a xlink:href="erpc__dspi__master__transport_8hpp.html" target="_top" xlink:title=" ">
<polygon fill="white" stroke="black" points="2171,-129 2171,-148 2344,-148 2344,-129 2171,-129"/>
<text text-anchor="middle" x="2257.5" y="-136" font-family="Helvetica,sans-Serif" font-size="10.00">erpc_dspi_master_transport.hpp</text>
</a>
</g>
</g>
<!-- Node12&#45;&gt;Node13 -->
<g id="edge13" class="edge">
<title>Node12&#45;&gt;Node13</title>
<path fill="none" stroke="midnightblue" d="M1765.25,-194.29C1774.66,-192.73 1784.35,-191.24 1793.5,-190 1956.36,-168.01 1998.42,-174.28 2161.5,-154 2175.47,-152.26 2190.54,-150.12 2204.5,-148.01"/>
<polygon fill="midnightblue" stroke="midnightblue" points="1764.46,-190.87 1755.18,-195.99 1765.62,-197.77 1764.46,-190.87"/>
</g>
<!-- Node14 -->
<g id="node14" class="node">
<title>Node14</title>
<g id="a_node14"><a xlink:href="erpc__dspi__slave__transport_8hpp.html" target="_top" xlink:title=" ">
<polygon fill="white" stroke="black" points="2362,-129 2362,-148 2527,-148 2527,-129 2362,-129"/>
<text text-anchor="middle" x="2444.5" y="-136" font-family="Helvetica,sans-Serif" font-size="10.00">erpc_dspi_slave_transport.hpp</text>
</a>
</g>
</g>
<!-- Node12&#45;&gt;Node14 -->
<g id="edge14" class="edge">
<title>Node12&#45;&gt;Node14</title>
<path fill="none" stroke="midnightblue" d="M1763.91,-194.24C1773.73,-192.63 1783.9,-191.13 1793.5,-190 2041.18,-160.75 2105.64,-181.65 2353.5,-154 2367.49,-152.44 2382.62,-150.24 2396.44,-148.02"/>
<polygon fill="midnightblue" stroke="midnightblue" points="1763.12,-190.82 1753.84,-195.94 1764.28,-197.72 1763.12,-190.82"/>
</g>
<!-- Node15 -->
<g id="node15" class="node">
<title>Node15</title>
<g id="a_node15"><a xlink:href="erpc__i2c__slave__transport_8hpp.html" target="_top" xlink:title=" ">
<polygon fill="white" stroke="black" points="2545,-129 2545,-148 2704,-148 2704,-129 2545,-129"/>
<text text-anchor="middle" x="2624.5" y="-136" font-family="Helvetica,sans-Serif" font-size="10.00">erpc_i2c_slave_transport.hpp</text>
</a>
</g>
</g>
<!-- Node12&#45;&gt;Node15 -->
<g id="edge15" class="edge">
<title>Node12&#45;&gt;Node15</title>
<path fill="none" stroke="midnightblue" d="M1762.91,-194.27C1773.04,-192.62 1783.57,-191.09 1793.5,-190 2122.12,-153.81 2207.74,-188.93 2536.5,-154 2550.36,-152.53 2565.35,-150.3 2578.96,-148.03"/>
<polygon fill="midnightblue" stroke="midnightblue" points="1762.23,-190.84 1752.95,-195.96 1763.4,-197.74 1762.23,-190.84"/>
</g>
<!-- Node16 -->
<g id="node16" class="node">
<title>Node16</title>
<g id="a_node16"><a xlink:href="erpc__lpi2c__slave__transport_8hpp.html" target="_top" xlink:title=" ">
<polygon fill="white" stroke="black" points="2721.5,-129 2721.5,-148 2889.5,-148 2889.5,-129 2721.5,-129"/>
<text text-anchor="middle" x="2805.5" y="-136" font-family="Helvetica,sans-Serif" font-size="10.00">erpc_lpi2c_slave_transport.hpp</text>
</a>
</g>
</g>
<!-- Node12&#45;&gt;Node16 -->
<g id="edge16" class="edge">
<title>Node12&#45;&gt;Node16</title>
<path fill="none" stroke="midnightblue" d="M1762.56,-194.25C1772.8,-192.58 1783.46,-191.06 1793.5,-190 2200.45,-147.1 2306.25,-193.92 2713.5,-154 2728.14,-152.56 2744,-150.32 2758.36,-148.02"/>
<polygon fill="midnightblue" stroke="midnightblue" points="1761.79,-190.83 1752.51,-195.95 1762.96,-197.73 1761.79,-190.83"/>
</g>
<!-- Node17 -->
<g id="node17" class="node">
<title>Node17</title>
<g id="a_node17"><a xlink:href="erpc__lpspi__slave__transport_8hpp.html" target="_top" xlink:title=" ">
<polygon fill="white" stroke="black" points="639.5,-129 639.5,-148 807.5,-148 807.5,-129 639.5,-129"/>
<text text-anchor="middle" x="723.5" y="-136" font-family="Helvetica,sans-Serif" font-size="10.00">erpc_lpspi_slave_transport.hpp</text>
</a>
</g>
</g>
<!-- Node12&#45;&gt;Node17 -->
<g id="edge17" class="edge">
<title>Node12&#45;&gt;Node17</title>
<path fill="none" stroke="midnightblue" d="M1624.77,-200.77C1433.26,-192.18 971.62,-170.44 816.5,-154 802.04,-152.47 786.39,-150.25 772.13,-148"/>
<polygon fill="midnightblue" stroke="midnightblue" points="1624.64,-204.27 1634.79,-201.22 1624.96,-197.28 1624.64,-204.27"/>
</g>
<!-- Node12&#45;&gt;Node18 -->
<g id="edge18" class="edge">
<title>Node12&#45;&gt;Node18</title>
<path fill="none" stroke="midnightblue" d="M1624.35,-200.9C1378.09,-190.45 679.45,-160.4 630.5,-154 627.55,-153.61 624.54,-153.17 621.5,-152.67"/>
<polygon fill="midnightblue" stroke="midnightblue" points="1624.54,-204.41 1634.68,-201.34 1624.83,-197.42 1624.54,-204.41"/>
</g>
<!-- Node19 -->
<g id="node19" class="node">
<title>Node19</title>
<g id="a_node19"><a xlink:href="erpc__serial__transport_8hpp.html" target="_top" xlink:title=" ">
<polygon fill="white" stroke="black" points="825.5,-129 825.5,-148 965.5,-148 965.5,-129 825.5,-129"/>
<text text-anchor="middle" x="895.5" y="-136" font-family="Helvetica,sans-Serif" font-size="10.00">erpc_serial_transport.hpp</text>
</a>
</g>
</g>
<!-- Node12&#45;&gt;Node19 -->
<g id="edge19" class="edge">
<title>Node12&#45;&gt;Node19</title>
<path fill="none" stroke="midnightblue" d="M1624.73,-201.71C1487.77,-196.53 1209.52,-183.17 975.5,-154 963.17,-152.46 949.87,-150.27 937.71,-148.05"/>
<polygon fill="midnightblue" stroke="midnightblue" points="1624.62,-205.21 1634.74,-202.09 1624.88,-198.22 1624.62,-205.21"/>
</g>
<!-- Node20 -->
<g id="node20" class="node">
<title>Node20</title>
<g id="a_node20"><a xlink:href="erpc__spi__master__transport_8hpp.html" target="_top" xlink:title=" ">
<polygon fill="white" stroke="black" points="984,-129 984,-148 1151,-148 1151,-129 984,-129"/>
<text text-anchor="middle" x="1067.5" y="-136" font-family="Helvetica,sans-Serif" font-size="10.00">erpc_spi_master_transport.hpp</text>
</a>
</g>
</g>
<!-- Node12&#45;&gt;Node20 -->
<g id="edge20" class="edge">
<title>Node12&#45;&gt;Node20</title>
<path fill="none" stroke="midnightblue" d="M1624.56,-198.35C1516.52,-190.15 1324.3,-174.28 1160.5,-154 1146.88,-152.31 1132.18,-150.17 1118.58,-148.06"/>
<polygon fill="midnightblue" stroke="midnightblue" points="1624.51,-201.86 1634.75,-199.12 1625.04,-194.88 1624.51,-201.86"/>
</g>
<!-- Node21 -->
<g id="node21" class="node">
<title>Node21</title>
<g id="a_node21"><a xlink:href="erpc__spi__slave__transport_8hpp.html" target="_top" xlink:title=" ">
<polygon fill="white" stroke="black" points="1169,-129 1169,-148 1328,-148 1328,-129 1169,-129"/>
<text text-anchor="middle" x="1248.5" y="-136" font-family="Helvetica,sans-Serif" font-size="10.00">erpc_spi_slave_transport.hpp</text>
</a>
</g>
</g>
<!-- Node12&#45;&gt;Node21 -->
<g id="edge21" class="edge">
<title>Node12&#45;&gt;Node21</title>
<path fill="none" stroke="midnightblue" d="M1632.22,-194.62C1556.92,-184.84 1439.24,-169.19 1337.5,-154 1325.11,-152.15 1311.78,-150.04 1299.29,-148.01"/>
<polygon fill="midnightblue" stroke="midnightblue" points="1632.19,-198.14 1642.56,-195.96 1633.09,-191.2 1632.19,-198.14"/>
</g>
<!-- Node22 -->
<g id="node22" class="node">
<title>Node22</title>
<g id="a_node22"><a xlink:href="erpc__spidev__master__transport_8hpp.html" target="_top" xlink:title=" ">
<polygon fill="white" stroke="black" points="1346,-123.5 1346,-153.5 1461,-153.5 1461,-123.5 1346,-123.5"/>
<text text-anchor="start" x="1354" y="-141.5" font-family="Helvetica,sans-Serif" font-size="10.00">erpc_spidev_master</text>
<text text-anchor="middle" x="1403.5" y="-130.5" font-family="Helvetica,sans-Serif" font-size="10.00">_transport.hpp</text>
</a>
</g>
</g>
<!-- Node12&#45;&gt;Node22 -->
<g id="edge22" class="edge">
<title>Node12&#45;&gt;Node22</title>
<path fill="none" stroke="midnightblue" d="M1658.98,-193.9C1610.6,-183.73 1535.55,-167.91 1470.5,-154 1467.47,-153.35 1464.37,-152.69 1461.24,-152.01"/>
<polygon fill="midnightblue" stroke="midnightblue" points="1658.38,-197.35 1668.89,-195.98 1659.82,-190.5 1658.38,-197.35"/>
</g>
<!-- Node23 -->
<g id="node23" class="node">
<title>Node23</title>
<g id="a_node23"><a xlink:href="erpc__tcp__transport_8hpp.html" target="_top" xlink:title=" ">
<polygon fill="white" stroke="black" points="1479.5,-129 1479.5,-148 1607.5,-148 1607.5,-129 1479.5,-129"/>
<text text-anchor="middle" x="1543.5" y="-136" font-family="Helvetica,sans-Serif" font-size="10.00">erpc_tcp_transport.hpp</text>
</a>
</g>
</g>
<!-- Node12&#45;&gt;Node23 -->
<g id="edge23" class="edge">
<title>Node12&#45;&gt;Node23</title>
<path fill="none" stroke="midnightblue" d="M1677.84,-192.1C1644.88,-179.2 1594.14,-159.33 1565.37,-148.06"/>
<polygon fill="midnightblue" stroke="midnightblue" points="1676.87,-195.48 1687.46,-195.87 1679.42,-188.96 1676.87,-195.48"/>
</g>
<!-- Node24 -->
<g id="node24" class="node">
<title>Node24</title>
<g id="a_node24"><a xlink:href="erpc__uart__cmsis__transport_8hpp.html" target="_top" xlink:title=" ">
<polygon fill="white" stroke="black" points="1626,-129 1626,-148 1793,-148 1793,-129 1626,-129"/>
<text text-anchor="middle" x="1709.5" y="-136" font-family="Helvetica,sans-Serif" font-size="10.00">erpc_uart_cmsis_transport.hpp</text>
</a>
</g>
</g>
<!-- Node12&#45;&gt;Node24 -->
<g id="edge24" class="edge">
<title>Node12&#45;&gt;Node24</title>
<path fill="none" stroke="midnightblue" d="M1709.5,-185.54C1709.5,-173.17 1709.5,-157.62 1709.5,-148.13"/>
<polygon fill="midnightblue" stroke="midnightblue" points="1706,-185.73 1709.5,-195.73 1713,-185.73 1706,-185.73"/>
</g>
<!-- Node25 -->
<g id="node25" class="node">
<title>Node25</title>
<g id="a_node25"><a xlink:href="erpc__uart__zephyr__transport_8hpp.html" target="_top" xlink:title=" ">
<polygon fill="white" stroke="black" points="1811,-129 1811,-148 1982,-148 1982,-129 1811,-129"/>
<text text-anchor="middle" x="1896.5" y="-136" font-family="Helvetica,sans-Serif" font-size="10.00">erpc_uart_zephyr_transport.hpp</text>
</a>
</g>
</g>
<!-- Node12&#45;&gt;Node25 -->
<g id="edge25" class="edge">
<title>Node12&#45;&gt;Node25</title>
<path fill="none" stroke="midnightblue" d="M1744.21,-192.44C1781.3,-179.54 1839.18,-159.42 1871.86,-148.06"/>
<polygon fill="midnightblue" stroke="midnightblue" points="1742.63,-189.28 1734.33,-195.87 1744.93,-195.89 1742.63,-189.28"/>
</g>
<!-- Node26 -->
<g id="node26" class="node">
<title>Node26</title>
<g id="a_node26"><a xlink:href="erpc__usb__cdc__transport_8hpp.html" target="_top" xlink:title=" ">
<polygon fill="white" stroke="black" points="2000.5,-129 2000.5,-148 2152.5,-148 2152.5,-129 2000.5,-129"/>
<text text-anchor="middle" x="2076.5" y="-136" font-family="Helvetica,sans-Serif" font-size="10.00">erpc_usb_cdc_transport.hpp</text>
</a>
</g>
</g>
<!-- Node12&#45;&gt;Node26 -->
<g id="edge26" class="edge">
<title>Node12&#45;&gt;Node26</title>
<path fill="none" stroke="midnightblue" d="M1768.13,-194.12C1840.26,-181.34 1961.36,-159.89 2028.33,-148.03"/>
<polygon fill="midnightblue" stroke="midnightblue" points="1767.09,-190.75 1757.86,-195.94 1768.31,-197.64 1767.09,-190.75"/>
</g>
<!-- Node27&#45;&gt;Node2 -->
<g id="edge28" class="edge">
<title>Node27&#45;&gt;Node2</title>
<path fill="none" stroke="midnightblue" d="M2094.33,-263.73C1821.17,-254.06 758.45,-216.44 523.6,-208.13"/>
<polygon fill="midnightblue" stroke="midnightblue" points="2094.36,-267.23 2104.47,-264.09 2094.6,-260.24 2094.36,-267.23"/>
</g>
<!-- Node27&#45;&gt;Node7 -->
<g id="edge31" class="edge">
<title>Node27&#45;&gt;Node7</title>
<path fill="none" stroke="midnightblue" d="M2157.42,-247.2C2157.54,-229.48 2160.87,-203.66 2177.5,-190 2239.47,-139.08 2843.21,-212.11 2898.5,-154 2908,-144.02 2908.01,-132.97 2898.5,-123 2821.82,-42.61 1113.09,-21.1 721.13,-17.21"/>
<polygon fill="midnightblue" stroke="midnightblue" points="2153.92,-247.33 2157.69,-257.23 2160.92,-247.14 2153.92,-247.33"/>
</g>
<!-- Node27&#45;&gt;Node12 -->
<g id="edge29" class="edge">
<title>Node27&#45;&gt;Node12</title>
<path fill="none" stroke="midnightblue" d="M2094.31,-259.04C2021.32,-250.89 1898.61,-236.54 1793.5,-221 1781.5,-219.22 1768.56,-217.1 1756.53,-215.03"/>
<polygon fill="midnightblue" stroke="midnightblue" points="2093.95,-262.52 2104.28,-260.14 2094.73,-255.56 2093.95,-262.52"/>
</g>
<!-- Node28 -->
<g id="node28" class="node">
<title>Node28</title>
<g id="a_node28"><a xlink:href="erpc__message__loggers_8hpp.html" target="_top" xlink:title=" ">
<polygon fill="white" stroke="black" points="2186,-196 2186,-215 2335,-215 2335,-196 2186,-196"/>
<text text-anchor="middle" x="2260.5" y="-203" font-family="Helvetica,sans-Serif" font-size="10.00">erpc_message_loggers.hpp</text>
</a>
</g>
</g>
<!-- Node27&#45;&gt;Node28 -->
<g id="edge30" class="edge">
<title>Node27&#45;&gt;Node28</title>
<path fill="none" stroke="midnightblue" d="M2181.81,-252.4C2201.54,-240.9 2229.19,-224.77 2245.91,-215.01"/>
<polygon fill="midnightblue" stroke="midnightblue" points="2179.99,-249.41 2173.11,-257.48 2183.52,-255.46 2179.99,-249.41"/>
</g>
<!-- Node27&#45;&gt;Node29 -->
<g id="edge32" class="edge">
<title>Node27&#45;&gt;Node29</title>
<path fill="none" stroke="midnightblue" d="M2107.26,-255.41C2060.19,-245.69 1990.09,-231.21 1938.38,-220.52"/>
<polygon fill="midnightblue" stroke="midnightblue" points="2106.74,-258.88 2117.24,-257.48 2108.15,-252.02 2106.74,-258.88"/>
</g>
<!-- Node30 -->
<g id="node30" class="node">
<title>Node30</title>
<g id="a_node30"><a xlink:href="erpc__mbox__zephyr__transport_8hpp.html" target="_top" xlink:title=" ">
<polygon fill="white" stroke="black" points="2353,-196 2353,-215 2532,-215 2532,-196 2353,-196"/>
<text text-anchor="middle" x="2442.5" y="-203" font-family="Helvetica,sans-Serif" font-size="10.00">erpc_mbox_zephyr_transport.hpp</text>
</a>
</g>
</g>
<!-- Node27&#45;&gt;Node30 -->
<g id="edge33" class="edge">
<title>Node27&#45;&gt;Node30</title>
<path fill="none" stroke="midnightblue" d="M2209.08,-255.4C2264.14,-243.87 2351.1,-225.65 2401.89,-215.01"/>
<polygon fill="midnightblue" stroke="midnightblue" points="2208.26,-252 2199.19,-257.48 2209.7,-258.85 2208.26,-252"/>
</g>
<!-- Node27&#45;&gt;Node31 -->
<g id="edge34" class="edge">
<title>Node27&#45;&gt;Node31</title>
<path fill="none" stroke="midnightblue" d="M2222.99,-259.99C2299.29,-252.53 2430.02,-238.59 2541.5,-221 2552.22,-219.31 2563.77,-217.17 2574.44,-215.05"/>
<polygon fill="midnightblue" stroke="midnightblue" points="2222.21,-256.55 2212.6,-261.01 2222.89,-263.52 2222.21,-256.55"/>
</g>
<!-- Node32 -->
<g id="node32" class="node">
<title>Node32</title>
<g id="a_node32"><a xlink:href="erpc__rpmsg__linux__transport_8hpp_source.html" target="_top" xlink:title=" ">
<polygon fill="white" stroke="black" points="1957,-196 1957,-215 2130,-215 2130,-196 1957,-196"/>
<text text-anchor="middle" x="2043.5" y="-203" font-family="Helvetica,sans-Serif" font-size="10.00">erpc_rpmsg_linux_transport.hpp</text>
</a>
</g>
</g>
<!-- Node27&#45;&gt;Node32 -->
<g id="edge35" class="edge">
<title>Node27&#45;&gt;Node32</title>
<path fill="none" stroke="midnightblue" d="M2133.12,-252.87C2110.83,-241.33 2079.06,-224.9 2059.95,-215.01"/>
<polygon fill="midnightblue" stroke="midnightblue" points="2131.53,-255.99 2142.02,-257.48 2134.75,-249.77 2131.53,-255.99"/>
</g>
<!-- Node27&#45;&gt;Node33 -->
<g id="edge36" class="edge">
<title>Node27&#45;&gt;Node33</title>
<path fill="none" stroke="midnightblue" d="M2222.79,-263.15C2322.81,-258.12 2521.54,-245.79 2688.5,-221 2691.25,-220.59 2694.05,-220.14 2696.87,-219.66"/>
<polygon fill="midnightblue" stroke="midnightblue" points="2222.36,-259.66 2212.55,-263.65 2222.71,-266.65 2222.36,-259.66"/>
</g>
<!-- Node27&#45;&gt;Node34 -->
<g id="edge37" class="edge">
<title>Node27&#45;&gt;Node34</title>
<path fill="none" stroke="midnightblue" d="M2222.73,-263.6C2341.86,-258.73 2605.02,-245.95 2825.5,-221 2839.33,-219.43 2854.27,-217.26 2867.97,-215.07"/>
<polygon fill="midnightblue" stroke="midnightblue" points="2222.54,-260.11 2212.69,-264.01 2222.82,-267.1 2222.54,-260.11"/>
</g>
</g>
</svg>
