<?xml version="1.0" encoding="UTF-8" standalone="no"?>
<!DOCTYPE svg PUBLIC "-//W3C//DTD SVG 1.1//EN"
 "http://www.w3.org/Graphics/SVG/1.1/DTD/svg11.dtd">
<!-- Generated by graphviz version 2.43.0 (0)
 -->
<!-- Title: erpc_i2c_slave_transport.hpp Pages: 1 -->
<svg width="605pt" height="252pt"
 viewBox="0.00 0.00 604.50 252.00" xmlns="http://www.w3.org/2000/svg" xmlns:xlink="http://www.w3.org/1999/xlink">
<g id="graph0" class="graph" transform="scale(1 1) rotate(0) translate(4 248)">
<title>erpc_i2c_slave_transport.hpp</title>
<polygon fill="white" stroke="transparent" points="-4,4 -4,-248 600.5,-248 600.5,4 -4,4"/>
<!-- Node1 -->
<g id="node1" class="node">
<title>Node1</title>
<g id="a_node1"><a xlink:title=" ">
<polygon fill="#bfbfbf" stroke="black" points="275.5,-224.5 275.5,-243.5 434.5,-243.5 434.5,-224.5 275.5,-224.5"/>
<text text-anchor="middle" x="355" y="-231.5" font-family="Helvetica,sans-Serif" font-size="10.00">erpc_i2c_slave_transport.hpp</text>
</a>
</g>
</g>
<!-- Node2 -->
<g id="node2" class="node">
<title>Node2</title>
<g id="a_node2"><a xlink:href="erpc__config__internal_8h_source.html" target="_top" xlink:title=" ">
<polygon fill="white" stroke="black" points="55.5,-56.5 55.5,-75.5 180.5,-75.5 180.5,-56.5 55.5,-56.5"/>
<text text-anchor="middle" x="118" y="-63.5" font-family="Helvetica,sans-Serif" font-size="10.00">erpc_config_internal.h</text>
</a>
</g>
</g>
<!-- Node1&#45;&gt;Node2 -->
<g id="edge1" class="edge">
<title>Node1&#45;&gt;Node2</title>
<path fill="none" stroke="midnightblue" d="M303.16,-224.44C271.37,-217.69 230.65,-206.3 198,-188 165.9,-170 156.43,-163.25 137,-132 128.17,-117.8 123.29,-99.32 120.69,-85.7"/>
<polygon fill="midnightblue" stroke="midnightblue" points="124.11,-84.89 119.01,-75.6 117.2,-86.04 124.11,-84.89"/>
</g>
<!-- Node5 -->
<g id="node5" class="node">
<title>Node5</title>
<g id="a_node5"><a xlink:title=" ">
<polygon fill="white" stroke="#bfbfbf" points="389.5,-168.5 389.5,-187.5 438.5,-187.5 438.5,-168.5 389.5,-168.5"/>
<text text-anchor="middle" x="414" y="-175.5" font-family="Helvetica,sans-Serif" font-size="10.00">cstdlib</text>
</a>
</g>
</g>
<!-- Node1&#45;&gt;Node5 -->
<g id="edge4" class="edge">
<title>Node1&#45;&gt;Node5</title>
<path fill="none" stroke="midnightblue" d="M364.48,-224.32C373.2,-216.34 386.34,-204.31 396.9,-194.65"/>
<polygon fill="midnightblue" stroke="midnightblue" points="399.33,-197.17 404.35,-187.83 394.61,-192 399.33,-197.17"/>
</g>
<!-- Node6 -->
<g id="node6" class="node">
<title>Node6</title>
<g id="a_node6"><a xlink:href="erpc__threading_8h.html" target="_top" xlink:title=" ">
<polygon fill="white" stroke="black" points="146,-112.5 146,-131.5 244,-131.5 244,-112.5 146,-112.5"/>
<text text-anchor="middle" x="195" y="-119.5" font-family="Helvetica,sans-Serif" font-size="10.00">erpc_threading.h</text>
</a>
</g>
</g>
<!-- Node1&#45;&gt;Node6 -->
<g id="edge5" class="edge">
<title>Node1&#45;&gt;Node6</title>
<path fill="none" stroke="midnightblue" d="M282.91,-224.45C257.83,-218.1 231.4,-207.08 213,-188 201.2,-175.76 197,-156.5 195.57,-142.11"/>
<polygon fill="midnightblue" stroke="midnightblue" points="199.04,-141.61 194.92,-131.85 192.06,-142.05 199.04,-141.61"/>
</g>
<!-- Node8 -->
<g id="node8" class="node">
<title>Node8</title>
<g id="a_node8"><a xlink:href="erpc__framed__transport_8hpp.html" target="_top" xlink:title=" ">
<polygon fill="white" stroke="black" points="222.5,-168.5 222.5,-187.5 371.5,-187.5 371.5,-168.5 222.5,-168.5"/>
<text text-anchor="middle" x="297" y="-175.5" font-family="Helvetica,sans-Serif" font-size="10.00">erpc_framed_transport.hpp</text>
</a>
</g>
</g>
<!-- Node1&#45;&gt;Node8 -->
<g id="edge8" class="edge">
<title>Node1&#45;&gt;Node8</title>
<path fill="none" stroke="midnightblue" d="M345.68,-224.32C337.11,-216.34 324.19,-204.31 313.81,-194.65"/>
<polygon fill="midnightblue" stroke="midnightblue" points="316.19,-192.09 306.49,-187.83 311.42,-197.21 316.19,-192.09"/>
</g>
<!-- Node16 -->
<g id="node16" class="node">
<title>Node16</title>
<g id="a_node16"><a xlink:title=" ">
<polygon fill="white" stroke="#bfbfbf" points="457,-168.5 457,-187.5 521,-187.5 521,-168.5 457,-168.5"/>
<text text-anchor="middle" x="489" y="-175.5" font-family="Helvetica,sans-Serif" font-size="10.00">fsl_gpio.h</text>
</a>
</g>
</g>
<!-- Node1&#45;&gt;Node16 -->
<g id="edge22" class="edge">
<title>Node1&#45;&gt;Node16</title>
<path fill="none" stroke="midnightblue" d="M376.23,-224.44C398.38,-215.52 433.32,-201.44 458.44,-191.32"/>
<polygon fill="midnightblue" stroke="midnightblue" points="459.9,-194.5 467.87,-187.52 457.28,-188.01 459.9,-194.5"/>
</g>
<!-- Node17 -->
<g id="node17" class="node">
<title>Node17</title>
<g id="a_node17"><a xlink:title=" ">
<polygon fill="white" stroke="#bfbfbf" points="539.5,-168.5 539.5,-187.5 596.5,-187.5 596.5,-168.5 539.5,-168.5"/>
<text text-anchor="middle" x="568" y="-175.5" font-family="Helvetica,sans-Serif" font-size="10.00">fsl_i2c.h</text>
</a>
</g>
</g>
<!-- Node1&#45;&gt;Node17 -->
<g id="edge23" class="edge">
<title>Node1&#45;&gt;Node17</title>
<path fill="none" stroke="midnightblue" d="M388.75,-224.44C427.03,-214.74 489.34,-198.94 529.49,-188.76"/>
<polygon fill="midnightblue" stroke="midnightblue" points="530.36,-192.15 539.19,-186.3 528.64,-185.37 530.36,-192.15"/>
</g>
<!-- Node3 -->
<g id="node3" class="node">
<title>Node3</title>
<g id="a_node3"><a xlink:href="erpc__config_8h.html" target="_top" xlink:title=" ">
<polygon fill="white" stroke="black" points="0,-0.5 0,-19.5 82,-19.5 82,-0.5 0,-0.5"/>
<text text-anchor="middle" x="41" y="-7.5" font-family="Helvetica,sans-Serif" font-size="10.00">erpc_config.h</text>
</a>
</g>
</g>
<!-- Node2&#45;&gt;Node3 -->
<g id="edge2" class="edge">
<title>Node2&#45;&gt;Node3</title>
<path fill="none" stroke="midnightblue" d="M105.63,-56.32C93.84,-48.06 75.87,-35.45 61.86,-25.63"/>
<polygon fill="midnightblue" stroke="midnightblue" points="63.54,-22.53 53.34,-19.65 59.52,-28.26 63.54,-22.53"/>
</g>
<!-- Node4 -->
<g id="node4" class="node">
<title>Node4</title>
<g id="a_node4"><a xlink:title=" ">
<polygon fill="white" stroke="#bfbfbf" points="100,-0.5 100,-19.5 152,-19.5 152,-0.5 100,-0.5"/>
<text text-anchor="middle" x="126" y="-7.5" font-family="Helvetica,sans-Serif" font-size="10.00">cassert</text>
</a>
</g>
</g>
<!-- Node2&#45;&gt;Node4 -->
<g id="edge3" class="edge">
<title>Node2&#45;&gt;Node4</title>
<path fill="none" stroke="midnightblue" d="M119.32,-56.08C120.38,-48.93 121.91,-38.64 123.23,-29.69"/>
<polygon fill="midnightblue" stroke="midnightblue" points="126.7,-30.16 124.7,-19.75 119.78,-29.13 126.7,-30.16"/>
</g>
<!-- Node6&#45;&gt;Node2 -->
<g id="edge6" class="edge">
<title>Node6&#45;&gt;Node2</title>
<path fill="none" stroke="midnightblue" d="M182.63,-112.32C170.84,-104.06 152.87,-91.45 138.86,-81.63"/>
<polygon fill="midnightblue" stroke="midnightblue" points="140.54,-78.53 130.34,-75.65 136.52,-84.26 140.54,-78.53"/>
</g>
<!-- Node7 -->
<g id="node7" class="node">
<title>Node7</title>
<g id="a_node7"><a xlink:title=" ">
<polygon fill="white" stroke="#bfbfbf" points="194.5,-0.5 194.5,-19.5 247.5,-19.5 247.5,-0.5 194.5,-0.5"/>
<text text-anchor="middle" x="221" y="-7.5" font-family="Helvetica,sans-Serif" font-size="10.00">stdint.h</text>
</a>
</g>
</g>
<!-- Node6&#45;&gt;Node7 -->
<g id="edge7" class="edge">
<title>Node6&#45;&gt;Node7</title>
<path fill="none" stroke="midnightblue" d="M197.04,-112.37C201.24,-94.62 210.92,-53.67 216.6,-29.6"/>
<polygon fill="midnightblue" stroke="midnightblue" points="220.08,-30.13 218.97,-19.59 213.26,-28.52 220.08,-30.13"/>
</g>
<!-- Node8&#45;&gt;Node2 -->
<g id="edge9" class="edge">
<title>Node8&#45;&gt;Node2</title>
<path fill="none" stroke="midnightblue" d="M293.26,-168.06C286.97,-154.1 272.98,-127.15 253,-112 231.19,-95.46 202.97,-84.81 177.98,-78.05"/>
<polygon fill="midnightblue" stroke="midnightblue" points="178.77,-74.64 168.22,-75.56 177.04,-81.42 178.77,-74.64"/>
</g>
<!-- Node8&#45;&gt;Node6 -->
<g id="edge21" class="edge">
<title>Node8&#45;&gt;Node6</title>
<path fill="none" stroke="midnightblue" d="M280.61,-168.32C264.33,-159.7 239.13,-146.36 220.28,-136.39"/>
<polygon fill="midnightblue" stroke="midnightblue" points="221.82,-133.24 211.35,-131.65 218.55,-139.43 221.82,-133.24"/>
</g>
<!-- Node9 -->
<g id="node9" class="node">
<title>Node9</title>
<g id="a_node9"><a xlink:href="erpc__message__buffer_8hpp.html" target="_top" xlink:title=" ">
<polygon fill="white" stroke="black" points="237.5,-56.5 237.5,-75.5 380.5,-75.5 380.5,-56.5 237.5,-56.5"/>
<text text-anchor="middle" x="309" y="-63.5" font-family="Helvetica,sans-Serif" font-size="10.00">erpc_message_buffer.hpp</text>
</a>
</g>
</g>
<!-- Node8&#45;&gt;Node9 -->
<g id="edge10" class="edge">
<title>Node8&#45;&gt;Node9</title>
<path fill="none" stroke="midnightblue" d="M297.94,-168.37C299.88,-150.62 304.35,-109.67 306.97,-85.6"/>
<polygon fill="midnightblue" stroke="midnightblue" points="310.46,-85.91 308.06,-75.59 303.5,-85.15 310.46,-85.91"/>
</g>
<!-- Node12 -->
<g id="node12" class="node">
<title>Node12</title>
<g id="a_node12"><a xlink:href="erpc__transport_8hpp.html" target="_top" xlink:title=" ">
<polygon fill="white" stroke="black" points="355,-112.5 355,-131.5 463,-131.5 463,-112.5 355,-112.5"/>
<text text-anchor="middle" x="409" y="-119.5" font-family="Helvetica,sans-Serif" font-size="10.00">erpc_transport.hpp</text>
</a>
</g>
</g>
<!-- Node8&#45;&gt;Node12 -->
<g id="edge14" class="edge">
<title>Node8&#45;&gt;Node12</title>
<path fill="none" stroke="midnightblue" d="M314.99,-168.32C333.04,-159.62 361.05,-146.12 381.8,-136.11"/>
<polygon fill="midnightblue" stroke="midnightblue" points="383.56,-139.15 391.05,-131.65 380.52,-132.84 383.56,-139.15"/>
</g>
<!-- Node15 -->
<g id="node15" class="node">
<title>Node15</title>
<g id="a_node15"><a xlink:title=" ">
<polygon fill="white" stroke="#bfbfbf" points="545,-56.5 545,-75.5 595,-75.5 595,-56.5 545,-56.5"/>
<text text-anchor="middle" x="570" y="-63.5" font-family="Helvetica,sans-Serif" font-size="10.00">cstring</text>
</a>
</g>
</g>
<!-- Node8&#45;&gt;Node15 -->
<g id="edge20" class="edge">
<title>Node8&#45;&gt;Node15</title>
<path fill="none" stroke="midnightblue" d="M348.67,-168.43C384.34,-161.39 432.3,-149.66 472,-132 501.79,-118.74 532.55,-96.73 551.48,-82.04"/>
<polygon fill="midnightblue" stroke="midnightblue" points="553.85,-84.63 559.53,-75.68 549.51,-79.14 553.85,-84.63"/>
</g>
<!-- Node9&#45;&gt;Node7 -->
<g id="edge13" class="edge">
<title>Node9&#45;&gt;Node7</title>
<path fill="none" stroke="midnightblue" d="M294.86,-56.32C281.13,-47.9 260.06,-34.97 243.94,-25.07"/>
<polygon fill="midnightblue" stroke="midnightblue" points="245.46,-21.9 235.1,-19.65 241.8,-27.87 245.46,-21.9"/>
</g>
<!-- Node10 -->
<g id="node10" class="node">
<title>Node10</title>
<g id="a_node10"><a xlink:href="erpc__common_8h_source.html" target="_top" xlink:title=" ">
<polygon fill="white" stroke="black" points="348.5,-0.5 348.5,-19.5 443.5,-19.5 443.5,-0.5 348.5,-0.5"/>
<text text-anchor="middle" x="396" y="-7.5" font-family="Helvetica,sans-Serif" font-size="10.00">erpc_common.h</text>
</a>
</g>
</g>
<!-- Node9&#45;&gt;Node10 -->
<g id="edge11" class="edge">
<title>Node9&#45;&gt;Node10</title>
<path fill="none" stroke="midnightblue" d="M322.98,-56.32C336.55,-47.9 357.38,-34.97 373.32,-25.07"/>
<polygon fill="midnightblue" stroke="midnightblue" points="375.41,-27.9 382.06,-19.65 371.71,-21.95 375.41,-27.9"/>
</g>
<!-- Node11 -->
<g id="node11" class="node">
<title>Node11</title>
<g id="a_node11"><a xlink:title=" ">
<polygon fill="white" stroke="#bfbfbf" points="277.5,-0.5 277.5,-19.5 330.5,-19.5 330.5,-0.5 277.5,-0.5"/>
<text text-anchor="middle" x="304" y="-7.5" font-family="Helvetica,sans-Serif" font-size="10.00">cstddef</text>
</a>
</g>
</g>
<!-- Node9&#45;&gt;Node11 -->
<g id="edge12" class="edge">
<title>Node9&#45;&gt;Node11</title>
<path fill="none" stroke="midnightblue" d="M308.17,-56.08C307.52,-49.01 306.58,-38.86 305.76,-29.99"/>
<polygon fill="midnightblue" stroke="midnightblue" points="309.22,-29.39 304.81,-19.75 302.25,-30.03 309.22,-29.39"/>
</g>
<!-- Node12&#45;&gt;Node9 -->
<g id="edge18" class="edge">
<title>Node12&#45;&gt;Node9</title>
<path fill="none" stroke="midnightblue" d="M392.93,-112.32C377.04,-103.74 352.49,-90.49 334.04,-80.52"/>
<polygon fill="midnightblue" stroke="midnightblue" points="335.49,-77.33 325.03,-75.65 332.16,-83.49 335.49,-77.33"/>
</g>
<!-- Node12&#45;&gt;Node10 -->
<g id="edge15" class="edge">
<title>Node12&#45;&gt;Node10</title>
<path fill="none" stroke="midnightblue" d="M407.98,-112.37C405.88,-94.62 401.04,-53.67 398.2,-29.6"/>
<polygon fill="midnightblue" stroke="midnightblue" points="401.66,-29.11 397.02,-19.59 394.71,-29.93 401.66,-29.11"/>
</g>
<!-- Node13 -->
<g id="node13" class="node">
<title>Node13</title>
<g id="a_node13"><a xlink:href="erpc__crc16_8hpp.html" target="_top" xlink:title=" ">
<polygon fill="white" stroke="black" points="437,-56.5 437,-75.5 527,-75.5 527,-56.5 437,-56.5"/>
<text text-anchor="middle" x="482" y="-63.5" font-family="Helvetica,sans-Serif" font-size="10.00">erpc_crc16.hpp</text>
</a>
</g>
</g>
<!-- Node12&#45;&gt;Node13 -->
<g id="edge16" class="edge">
<title>Node12&#45;&gt;Node13</title>
<path fill="none" stroke="midnightblue" d="M420.73,-112.32C431.84,-104.11 448.74,-91.6 461.98,-81.81"/>
<polygon fill="midnightblue" stroke="midnightblue" points="464.1,-84.59 470.06,-75.83 459.94,-78.97 464.1,-84.59"/>
</g>
<!-- Node12&#45;&gt;Node15 -->
<g id="edge19" class="edge">
<title>Node12&#45;&gt;Node15</title>
<path fill="none" stroke="midnightblue" d="M434.51,-112.44C461.68,-103.33 504.84,-88.85 535.14,-78.69"/>
<polygon fill="midnightblue" stroke="midnightblue" points="536.51,-81.93 544.87,-75.43 534.28,-75.29 536.51,-81.93"/>
</g>
<!-- Node14 -->
<g id="node14" class="node">
<title>Node14</title>
<g id="a_node14"><a xlink:title=" ">
<polygon fill="white" stroke="#bfbfbf" points="462,-0.5 462,-19.5 512,-19.5 512,-0.5 462,-0.5"/>
<text text-anchor="middle" x="487" y="-7.5" font-family="Helvetica,sans-Serif" font-size="10.00">cstdint</text>
</a>
</g>
</g>
<!-- Node13&#45;&gt;Node14 -->
<g id="edge17" class="edge">
<title>Node13&#45;&gt;Node14</title>
<path fill="none" stroke="midnightblue" d="M482.83,-56.08C483.48,-49.01 484.42,-38.86 485.24,-29.99"/>
<polygon fill="midnightblue" stroke="midnightblue" points="488.75,-30.03 486.19,-19.75 481.78,-29.39 488.75,-30.03"/>
</g>
</g>
</svg>
