<?xml version="1.0" encoding="UTF-8" standalone="no"?>
<!DOCTYPE svg PUBLIC "-//W3C//DTD SVG 1.1//EN"
 "http://www.w3.org/Graphics/SVG/1.1/DTD/svg11.dtd">
<!-- Generated by graphviz version 2.43.0 (0)
 -->
<!-- Title: erpc_crc16.hpp Pages: 1 -->
<svg width="3055pt" height="341pt"
 viewBox="0.00 0.00 3054.50 341.00" xmlns="http://www.w3.org/2000/svg" xmlns:xlink="http://www.w3.org/1999/xlink">
<g id="graph0" class="graph" transform="scale(1 1) rotate(0) translate(4 337)">
<title>erpc_crc16.hpp</title>
<polygon fill="white" stroke="transparent" points="-4,4 -4,-337 3050.5,-337 3050.5,4 -4,4"/>
<!-- Node1 -->
<g id="node1" class="node">
<title>Node1</title>
<g id="a_node1"><a xlink:title=" ">
<polygon fill="#bfbfbf" stroke="black" points="2387.5,-313.5 2387.5,-332.5 2477.5,-332.5 2477.5,-313.5 2387.5,-313.5"/>
<text text-anchor="middle" x="2432.5" y="-320.5" font-family="Helvetica,sans-Serif" font-size="10.00">erpc_crc16.hpp</text>
</a>
</g>
</g>
<!-- Node2 -->
<g id="node2" class="node">
<title>Node2</title>
<g id="a_node2"><a xlink:href="erpc__transport_8hpp.html" target="_top" xlink:title=" ">
<polygon fill="white" stroke="black" points="1774.5,-257.5 1774.5,-276.5 1882.5,-276.5 1882.5,-257.5 1774.5,-257.5"/>
<text text-anchor="middle" x="1828.5" y="-264.5" font-family="Helvetica,sans-Serif" font-size="10.00">erpc_transport.hpp</text>
</a>
</g>
</g>
<!-- Node1&#45;&gt;Node2 -->
<g id="edge1" class="edge">
<title>Node1&#45;&gt;Node2</title>
<path fill="none" stroke="midnightblue" d="M2377.07,-317.04C2261.65,-306.73 1996.79,-283.05 1882.56,-272.83"/>
<polygon fill="midnightblue" stroke="midnightblue" points="2376.83,-320.54 2387.1,-317.94 2377.45,-313.56 2376.83,-320.54"/>
</g>
<!-- Node19 -->
<g id="node19" class="node">
<title>Node19</title>
<g id="a_node19"><a xlink:href="erpc__rpmsg__tty__rtos__transport_8hpp.html" target="_top" xlink:title=" ">
<polygon fill="white" stroke="black" points="2930.5,-123.5 2930.5,-153.5 3046.5,-153.5 3046.5,-123.5 2930.5,-123.5"/>
<text text-anchor="start" x="2938.5" y="-141.5" font-family="Helvetica,sans-Serif" font-size="10.00">erpc_rpmsg_tty_rtos</text>
<text text-anchor="middle" x="2988.5" y="-130.5" font-family="Helvetica,sans-Serif" font-size="10.00">_transport.hpp</text>
</a>
</g>
</g>
<!-- Node1&#45;&gt;Node19 -->
<g id="edge38" class="edge">
<title>Node1&#45;&gt;Node19</title>
<path fill="none" stroke="midnightblue" d="M2468.32,-310.24C2566.44,-278.04 2839.32,-188.47 2945.47,-153.62"/>
<polygon fill="midnightblue" stroke="midnightblue" points="2466.98,-307 2458.57,-313.44 2469.16,-313.65 2466.98,-307"/>
</g>
<!-- Node33 -->
<g id="node33" class="node">
<title>Node33</title>
<g id="a_node33"><a xlink:href="erpc__rpmsg__lite__rtos__transport_8hpp.html" target="_top" xlink:title=" ">
<polygon fill="white" stroke="black" points="2273,-190.5 2273,-220.5 2392,-220.5 2392,-190.5 2273,-190.5"/>
<text text-anchor="start" x="2281" y="-208.5" font-family="Helvetica,sans-Serif" font-size="10.00">erpc_rpmsg_lite_rtos</text>
<text text-anchor="middle" x="2332.5" y="-197.5" font-family="Helvetica,sans-Serif" font-size="10.00">_transport.hpp</text>
</a>
</g>
</g>
<!-- Node1&#45;&gt;Node33 -->
<g id="edge36" class="edge">
<title>Node1&#45;&gt;Node33</title>
<path fill="none" stroke="midnightblue" d="M2418.25,-305.54C2398.52,-282.75 2363.22,-241.98 2344.66,-220.55"/>
<polygon fill="midnightblue" stroke="midnightblue" points="2415.79,-308.05 2424.98,-313.32 2421.08,-303.47 2415.79,-308.05"/>
</g>
<!-- Node34 -->
<g id="node34" class="node">
<title>Node34</title>
<g id="a_node34"><a xlink:href="erpc__rpmsg__lite__transport_8hpp.html" target="_top" xlink:title=" ">
<polygon fill="white" stroke="black" points="2410,-196 2410,-215 2575,-215 2575,-196 2410,-196"/>
<text text-anchor="middle" x="2492.5" y="-203" font-family="Helvetica,sans-Serif" font-size="10.00">erpc_rpmsg_lite_transport.hpp</text>
</a>
</g>
</g>
<!-- Node1&#45;&gt;Node34 -->
<g id="edge37" class="edge">
<title>Node1&#45;&gt;Node34</title>
<path fill="none" stroke="midnightblue" d="M2441.76,-304.18C2454.81,-279.06 2478.12,-234.19 2487.94,-215.28"/>
<polygon fill="midnightblue" stroke="midnightblue" points="2438.51,-302.83 2437.01,-313.32 2444.73,-306.06 2438.51,-302.83"/>
</g>
<!-- Node3 -->
<g id="node3" class="node">
<title>Node3</title>
<g id="a_node3"><a xlink:href="erpc__codec_8hpp.html" target="_top" xlink:title=" ">
<polygon fill="white" stroke="black" points="515.5,-196 515.5,-215 607.5,-215 607.5,-196 515.5,-196"/>
<text text-anchor="middle" x="561.5" y="-203" font-family="Helvetica,sans-Serif" font-size="10.00">erpc_codec.hpp</text>
</a>
</g>
</g>
<!-- Node2&#45;&gt;Node3 -->
<g id="edge2" class="edge">
<title>Node2&#45;&gt;Node3</title>
<path fill="none" stroke="midnightblue" d="M1764.15,-265.3C1547.44,-262.66 845.29,-251.9 621.5,-221 611.73,-219.65 601.24,-217.4 591.8,-215.07"/>
<polygon fill="midnightblue" stroke="midnightblue" points="1764.36,-268.8 1774.4,-265.42 1764.45,-261.8 1764.36,-268.8"/>
</g>
<!-- Node8 -->
<g id="node8" class="node">
<title>Node8</title>
<g id="a_node8"><a xlink:href="erpc__transport__arbitrator_8hpp.html" target="_top" xlink:title=" ">
<polygon fill="white" stroke="black" points="562,-6 562,-25 721,-25 721,-6 562,-6"/>
<text text-anchor="middle" x="641.5" y="-13" font-family="Helvetica,sans-Serif" font-size="10.00">erpc_transport_arbitrator.hpp</text>
</a>
</g>
</g>
<!-- Node2&#45;&gt;Node8 -->
<g id="edge29" class="edge">
<title>Node2&#45;&gt;Node8</title>
<path fill="none" stroke="midnightblue" d="M1764.14,-264.58C1529.88,-258.79 732.2,-233.33 653.5,-154 618.23,-118.45 632.55,-49.3 639,-25.11"/>
<polygon fill="midnightblue" stroke="midnightblue" points="1764.13,-268.08 1774.21,-264.83 1764.3,-261.08 1764.13,-268.08"/>
</g>
<!-- Node13 -->
<g id="node13" class="node">
<title>Node13</title>
<g id="a_node13"><a xlink:href="erpc__framed__transport_8hpp.html" target="_top" xlink:title=" ">
<polygon fill="white" stroke="black" points="1587,-196 1587,-215 1736,-215 1736,-196 1587,-196"/>
<text text-anchor="middle" x="1661.5" y="-203" font-family="Helvetica,sans-Serif" font-size="10.00">erpc_framed_transport.hpp</text>
</a>
</g>
</g>
<!-- Node2&#45;&gt;Node13 -->
<g id="edge13" class="edge">
<title>Node2&#45;&gt;Node13</title>
<path fill="none" stroke="midnightblue" d="M1795.05,-254.08C1762.59,-242.52 1714.13,-225.25 1685.38,-215.01"/>
<polygon fill="midnightblue" stroke="midnightblue" points="1793.98,-257.42 1804.57,-257.48 1796.33,-250.82 1793.98,-257.42"/>
</g>
<!-- Node28 -->
<g id="node28" class="node">
<title>Node28</title>
<g id="a_node28"><a xlink:href="erpc__message__loggers_8hpp.html" target="_top" xlink:title=" ">
<polygon fill="white" stroke="black" points="1754,-196 1754,-215 1903,-215 1903,-196 1754,-196"/>
<text text-anchor="middle" x="1828.5" y="-203" font-family="Helvetica,sans-Serif" font-size="10.00">erpc_message_loggers.hpp</text>
</a>
</g>
</g>
<!-- Node2&#45;&gt;Node28 -->
<g id="edge28" class="edge">
<title>Node2&#45;&gt;Node28</title>
<path fill="none" stroke="midnightblue" d="M1828.5,-247.32C1828.5,-236.5 1828.5,-223.4 1828.5,-215.01"/>
<polygon fill="midnightblue" stroke="midnightblue" points="1825,-247.48 1828.5,-257.48 1832,-247.48 1825,-247.48"/>
</g>
<!-- Node29 -->
<g id="node29" class="node">
<title>Node29</title>
<g id="a_node29"><a xlink:href="erpc__inter__thread__buffer__transport_8hpp.html" target="_top" xlink:title=" ">
<polygon fill="white" stroke="black" points="1921,-190.5 1921,-220.5 2058,-220.5 2058,-190.5 1921,-190.5"/>
<text text-anchor="start" x="1929" y="-208.5" font-family="Helvetica,sans-Serif" font-size="10.00">erpc_inter_thread_buffer</text>
<text text-anchor="middle" x="1989.5" y="-197.5" font-family="Helvetica,sans-Serif" font-size="10.00">_transport.hpp</text>
</a>
</g>
</g>
<!-- Node2&#45;&gt;Node29 -->
<g id="edge30" class="edge">
<title>Node2&#45;&gt;Node29</title>
<path fill="none" stroke="midnightblue" d="M1861.04,-253.98C1887.21,-244.3 1924.04,-230.69 1951.56,-220.52"/>
<polygon fill="midnightblue" stroke="midnightblue" points="1859.73,-250.73 1851.57,-257.48 1862.16,-257.29 1859.73,-250.73"/>
</g>
<!-- Node30 -->
<g id="node30" class="node">
<title>Node30</title>
<g id="a_node30"><a xlink:href="erpc__mbox__zephyr__transport_8hpp.html" target="_top" xlink:title=" ">
<polygon fill="white" stroke="black" points="2076,-196 2076,-215 2255,-215 2255,-196 2076,-196"/>
<text text-anchor="middle" x="2165.5" y="-203" font-family="Helvetica,sans-Serif" font-size="10.00">erpc_mbox_zephyr_transport.hpp</text>
</a>
</g>
</g>
<!-- Node2&#45;&gt;Node30 -->
<g id="edge31" class="edge">
<title>Node2&#45;&gt;Node30</title>
<path fill="none" stroke="midnightblue" d="M1886.91,-255.69C1952.14,-244.17 2056.54,-225.74 2117.31,-215.01"/>
<polygon fill="midnightblue" stroke="midnightblue" points="1886.02,-252.29 1876.78,-257.48 1887.24,-259.18 1886.02,-252.29"/>
</g>
<!-- Node31 -->
<g id="node31" class="node">
<title>Node31</title>
<g id="a_node31"><a xlink:href="erpc__mu__transport_8hpp.html" target="_top" xlink:title=" ">
<polygon fill="white" stroke="black" points="177,-196 177,-215 306,-215 306,-196 177,-196"/>
<text text-anchor="middle" x="241.5" y="-203" font-family="Helvetica,sans-Serif" font-size="10.00">erpc_mu_transport.hpp</text>
</a>
</g>
</g>
<!-- Node2&#45;&gt;Node31 -->
<g id="edge32" class="edge">
<title>Node2&#45;&gt;Node31</title>
<path fill="none" stroke="midnightblue" d="M1764.41,-265.52C1514.08,-263.41 602.02,-253.6 314.5,-221 302.56,-219.65 289.66,-217.36 278.08,-215"/>
<polygon fill="midnightblue" stroke="midnightblue" points="1764.4,-269.02 1774.43,-265.6 1764.46,-262.02 1764.4,-269.02"/>
</g>
<!-- Node32 -->
<g id="node32" class="node">
<title>Node32</title>
<g id="a_node32"><a xlink:href="erpc__rpmsg__linux__transport_8hpp_source.html" target="_top" xlink:title=" ">
<polygon fill="white" stroke="black" points="324,-196 324,-215 497,-215 497,-196 324,-196"/>
<text text-anchor="middle" x="410.5" y="-203" font-family="Helvetica,sans-Serif" font-size="10.00">erpc_rpmsg_linux_transport.hpp</text>
</a>
</g>
</g>
<!-- Node2&#45;&gt;Node32 -->
<g id="edge33" class="edge">
<title>Node2&#45;&gt;Node32</title>
<path fill="none" stroke="midnightblue" d="M1764.02,-266.45C1572.13,-267.21 988.15,-265.42 506.5,-221 491.23,-219.59 474.68,-217.35 459.7,-215.05"/>
<polygon fill="midnightblue" stroke="midnightblue" points="1764.23,-269.95 1774.21,-266.4 1764.2,-262.95 1764.23,-269.95"/>
</g>
<!-- Node2&#45;&gt;Node33 -->
<g id="edge34" class="edge">
<title>Node2&#45;&gt;Node33</title>
<path fill="none" stroke="midnightblue" d="M1892.67,-261.46C1977.77,-254.96 2132.49,-241.48 2263.5,-221 2266.52,-220.53 2269.61,-220.01 2272.73,-219.46"/>
<polygon fill="midnightblue" stroke="midnightblue" points="1892.35,-257.98 1882.65,-262.22 1892.88,-264.96 1892.35,-257.98"/>
</g>
<!-- Node2&#45;&gt;Node34 -->
<g id="edge35" class="edge">
<title>Node2&#45;&gt;Node34</title>
<path fill="none" stroke="midnightblue" d="M1892.88,-262.57C1998.93,-256.56 2216.92,-242.65 2400.5,-221 2414.31,-219.37 2429.22,-217.2 2442.94,-215.04"/>
<polygon fill="midnightblue" stroke="midnightblue" points="1892.45,-259.09 1882.66,-263.15 1892.84,-266.08 1892.45,-259.09"/>
</g>
<!-- Node4 -->
<g id="node4" class="node">
<title>Node4</title>
<g id="a_node4"><a xlink:href="erpc__basic__codec_8hpp.html" target="_top" xlink:title=" ">
<polygon fill="white" stroke="black" points="300,-129 300,-148 423,-148 423,-129 300,-129"/>
<text text-anchor="middle" x="361.5" y="-136" font-family="Helvetica,sans-Serif" font-size="10.00">erpc_basic_codec.hpp</text>
</a>
</g>
</g>
<!-- Node3&#45;&gt;Node4 -->
<g id="edge3" class="edge">
<title>Node3&#45;&gt;Node4</title>
<path fill="none" stroke="midnightblue" d="M525.39,-192.77C485.77,-179.89 423.1,-159.52 387.85,-148.06"/>
<polygon fill="midnightblue" stroke="midnightblue" points="524.35,-196.11 534.94,-195.87 526.51,-189.45 524.35,-196.11"/>
</g>
<!-- Node5 -->
<g id="node5" class="node">
<title>Node5</title>
<g id="a_node5"><a xlink:href="erpc__client__server__common_8hpp.html" target="_top" xlink:title=" ">
<polygon fill="white" stroke="black" points="441.5,-123.5 441.5,-153.5 547.5,-153.5 547.5,-123.5 441.5,-123.5"/>
<text text-anchor="start" x="449.5" y="-141.5" font-family="Helvetica,sans-Serif" font-size="10.00">erpc_client_server</text>
<text text-anchor="middle" x="494.5" y="-130.5" font-family="Helvetica,sans-Serif" font-size="10.00">_common.hpp</text>
</a>
</g>
</g>
<!-- Node3&#45;&gt;Node5 -->
<g id="edge4" class="edge">
<title>Node3&#45;&gt;Node5</title>
<path fill="none" stroke="midnightblue" d="M545.13,-188.62C534.09,-177.91 519.65,-163.9 509.02,-153.59"/>
<polygon fill="midnightblue" stroke="midnightblue" points="542.85,-191.28 552.46,-195.73 547.72,-186.26 542.85,-191.28"/>
</g>
<!-- Node3&#45;&gt;Node8 -->
<g id="edge12" class="edge">
<title>Node3&#45;&gt;Node8</title>
<path fill="none" stroke="midnightblue" d="M569.16,-186.51C585.97,-147 625.59,-53.88 637.83,-25.12"/>
<polygon fill="midnightblue" stroke="midnightblue" points="565.84,-185.36 565.15,-195.93 572.28,-188.1 565.84,-185.36"/>
</g>
<!-- Node6 -->
<g id="node6" class="node">
<title>Node6</title>
<g id="a_node6"><a xlink:href="erpc__client__manager_8h.html" target="_top" xlink:title=" ">
<polygon fill="white" stroke="black" points="267.5,-67.5 267.5,-86.5 395.5,-86.5 395.5,-67.5 267.5,-67.5"/>
<text text-anchor="middle" x="331.5" y="-74.5" font-family="Helvetica,sans-Serif" font-size="10.00">erpc_client_manager.h</text>
</a>
</g>
</g>
<!-- Node5&#45;&gt;Node6 -->
<g id="edge5" class="edge">
<title>Node5&#45;&gt;Node6</title>
<path fill="none" stroke="midnightblue" d="M446.4,-119.94C416.37,-108.98 379.02,-95.35 355.22,-86.66"/>
<polygon fill="midnightblue" stroke="midnightblue" points="445.28,-123.26 455.87,-123.4 447.68,-116.68 445.28,-123.26"/>
</g>
<!-- Node11 -->
<g id="node11" class="node">
<title>Node11</title>
<g id="a_node11"><a xlink:href="erpc__server_8hpp.html" target="_top" xlink:title=" ">
<polygon fill="white" stroke="black" points="436,-67.5 436,-86.5 531,-86.5 531,-67.5 436,-67.5"/>
<text text-anchor="middle" x="483.5" y="-74.5" font-family="Helvetica,sans-Serif" font-size="10.00">erpc_server.hpp</text>
</a>
</g>
</g>
<!-- Node5&#45;&gt;Node11 -->
<g id="edge10" class="edge">
<title>Node5&#45;&gt;Node11</title>
<path fill="none" stroke="midnightblue" d="M490.02,-113.29C488.28,-103.86 486.39,-93.65 485.1,-86.66"/>
<polygon fill="midnightblue" stroke="midnightblue" points="486.63,-114.2 491.89,-123.4 493.52,-112.93 486.63,-114.2"/>
</g>
<!-- Node7 -->
<g id="node7" class="node">
<title>Node7</title>
<g id="a_node7"><a xlink:href="erpc__arbitrated__client__manager_8hpp.html" target="_top" xlink:title=" ">
<polygon fill="white" stroke="black" points="270,-0.5 270,-30.5 393,-30.5 393,-0.5 270,-0.5"/>
<text text-anchor="start" x="278" y="-18.5" font-family="Helvetica,sans-Serif" font-size="10.00">erpc_arbitrated_client</text>
<text text-anchor="middle" x="331.5" y="-7.5" font-family="Helvetica,sans-Serif" font-size="10.00">_manager.hpp</text>
</a>
</g>
</g>
<!-- Node6&#45;&gt;Node7 -->
<g id="edge6" class="edge">
<title>Node6&#45;&gt;Node7</title>
<path fill="none" stroke="midnightblue" d="M331.5,-57.23C331.5,-48.59 331.5,-38.5 331.5,-30.52"/>
<polygon fill="midnightblue" stroke="midnightblue" points="328,-57.48 331.5,-67.48 335,-57.48 328,-57.48"/>
</g>
<!-- Node6&#45;&gt;Node8 -->
<g id="edge7" class="edge">
<title>Node6&#45;&gt;Node8</title>
<path fill="none" stroke="midnightblue" d="M385.97,-65.55C446.03,-54.02 541.5,-35.69 597.17,-25.01"/>
<polygon fill="midnightblue" stroke="midnightblue" points="385.08,-62.15 375.92,-67.48 386.4,-69.03 385.08,-62.15"/>
</g>
<!-- Node9 -->
<g id="node9" class="node">
<title>Node9</title>
<g id="a_node9"><a xlink:href="erpc__arbitrated__client__setup_8h.html" target="_top" xlink:title=" ">
<polygon fill="white" stroke="black" points="0,-0.5 0,-30.5 123,-30.5 123,-0.5 0,-0.5"/>
<text text-anchor="start" x="8" y="-18.5" font-family="Helvetica,sans-Serif" font-size="10.00">erpc_arbitrated_client</text>
<text text-anchor="middle" x="61.5" y="-7.5" font-family="Helvetica,sans-Serif" font-size="10.00">_setup.h</text>
</a>
</g>
</g>
<!-- Node6&#45;&gt;Node9 -->
<g id="edge8" class="edge">
<title>Node6&#45;&gt;Node9</title>
<path fill="none" stroke="midnightblue" d="M282.77,-65.26C238.01,-55.4 171.48,-40.74 123.06,-30.07"/>
<polygon fill="midnightblue" stroke="midnightblue" points="282.3,-68.74 292.82,-67.48 283.8,-61.9 282.3,-68.74"/>
</g>
<!-- Node10 -->
<g id="node10" class="node">
<title>Node10</title>
<g id="a_node10"><a xlink:href="erpc__client__setup_8h.html" target="_top" xlink:title=" ">
<polygon fill="white" stroke="black" points="141,-6 141,-25 252,-25 252,-6 141,-6"/>
<text text-anchor="middle" x="196.5" y="-13" font-family="Helvetica,sans-Serif" font-size="10.00">erpc_client_setup.h</text>
</a>
</g>
</g>
<!-- Node6&#45;&gt;Node10 -->
<g id="edge9" class="edge">
<title>Node6&#45;&gt;Node10</title>
<path fill="none" stroke="midnightblue" d="M302.75,-63.33C276.54,-51.78 238.55,-35.03 215.81,-25.01"/>
<polygon fill="midnightblue" stroke="midnightblue" points="301.6,-66.64 312.16,-67.48 304.42,-60.24 301.6,-66.64"/>
</g>
<!-- Node12 -->
<g id="node12" class="node">
<title>Node12</title>
<g id="a_node12"><a xlink:href="erpc__simple__server_8hpp.html" target="_top" xlink:title=" ">
<polygon fill="white" stroke="black" points="411,-6 411,-25 544,-25 544,-6 411,-6"/>
<text text-anchor="middle" x="477.5" y="-13" font-family="Helvetica,sans-Serif" font-size="10.00">erpc_simple_server.hpp</text>
</a>
</g>
</g>
<!-- Node11&#45;&gt;Node12 -->
<g id="edge11" class="edge">
<title>Node11&#45;&gt;Node12</title>
<path fill="none" stroke="midnightblue" d="M481.62,-57.32C480.52,-46.5 479.2,-33.4 478.36,-25.01"/>
<polygon fill="midnightblue" stroke="midnightblue" points="478.15,-57.88 482.64,-67.48 485.12,-57.17 478.15,-57.88"/>
</g>
<!-- Node14 -->
<g id="node14" class="node">
<title>Node14</title>
<g id="a_node14"><a xlink:href="erpc__dspi__master__transport_8hpp.html" target="_top" xlink:title=" ">
<polygon fill="white" stroke="black" points="1208,-129 1208,-148 1381,-148 1381,-129 1208,-129"/>
<text text-anchor="middle" x="1294.5" y="-136" font-family="Helvetica,sans-Serif" font-size="10.00">erpc_dspi_master_transport.hpp</text>
</a>
</g>
</g>
<!-- Node13&#45;&gt;Node14 -->
<g id="edge14" class="edge">
<title>Node13&#45;&gt;Node14</title>
<path fill="none" stroke="midnightblue" d="M1602.87,-194.12C1530.74,-181.34 1409.64,-159.89 1342.67,-148.03"/>
<polygon fill="midnightblue" stroke="midnightblue" points="1602.69,-197.64 1613.14,-195.94 1603.91,-190.75 1602.69,-197.64"/>
</g>
<!-- Node15 -->
<g id="node15" class="node">
<title>Node15</title>
<g id="a_node15"><a xlink:href="erpc__dspi__slave__transport_8hpp.html" target="_top" xlink:title=" ">
<polygon fill="white" stroke="black" points="1399,-129 1399,-148 1564,-148 1564,-129 1399,-129"/>
<text text-anchor="middle" x="1481.5" y="-136" font-family="Helvetica,sans-Serif" font-size="10.00">erpc_dspi_slave_transport.hpp</text>
</a>
</g>
</g>
<!-- Node13&#45;&gt;Node15 -->
<g id="edge15" class="edge">
<title>Node13&#45;&gt;Node15</title>
<path fill="none" stroke="midnightblue" d="M1628.09,-192.44C1592.38,-179.54 1536.67,-159.42 1505.21,-148.06"/>
<polygon fill="midnightblue" stroke="midnightblue" points="1627,-195.76 1637.6,-195.87 1629.38,-189.18 1627,-195.76"/>
</g>
<!-- Node16 -->
<g id="node16" class="node">
<title>Node16</title>
<g id="a_node16"><a xlink:href="erpc__i2c__slave__transport_8hpp.html" target="_top" xlink:title=" ">
<polygon fill="white" stroke="black" points="1582,-129 1582,-148 1741,-148 1741,-129 1582,-129"/>
<text text-anchor="middle" x="1661.5" y="-136" font-family="Helvetica,sans-Serif" font-size="10.00">erpc_i2c_slave_transport.hpp</text>
</a>
</g>
</g>
<!-- Node13&#45;&gt;Node16 -->
<g id="edge16" class="edge">
<title>Node13&#45;&gt;Node16</title>
<path fill="none" stroke="midnightblue" d="M1661.5,-185.54C1661.5,-173.17 1661.5,-157.62 1661.5,-148.13"/>
<polygon fill="midnightblue" stroke="midnightblue" points="1658,-185.73 1661.5,-195.73 1665,-185.73 1658,-185.73"/>
</g>
<!-- Node17 -->
<g id="node17" class="node">
<title>Node17</title>
<g id="a_node17"><a xlink:href="erpc__lpi2c__slave__transport_8hpp.html" target="_top" xlink:title=" ">
<polygon fill="white" stroke="black" points="1758.5,-129 1758.5,-148 1926.5,-148 1926.5,-129 1758.5,-129"/>
<text text-anchor="middle" x="1842.5" y="-136" font-family="Helvetica,sans-Serif" font-size="10.00">erpc_lpi2c_slave_transport.hpp</text>
</a>
</g>
</g>
<!-- Node13&#45;&gt;Node17 -->
<g id="edge17" class="edge">
<title>Node13&#45;&gt;Node17</title>
<path fill="none" stroke="midnightblue" d="M1695.09,-192.44C1731,-179.54 1787.02,-159.42 1818.65,-148.06"/>
<polygon fill="midnightblue" stroke="midnightblue" points="1693.76,-189.19 1685.54,-195.87 1696.13,-195.78 1693.76,-189.19"/>
</g>
<!-- Node18 -->
<g id="node18" class="node">
<title>Node18</title>
<g id="a_node18"><a xlink:href="erpc__lpspi__slave__transport_8hpp.html" target="_top" xlink:title=" ">
<polygon fill="white" stroke="black" points="1944.5,-129 1944.5,-148 2112.5,-148 2112.5,-129 1944.5,-129"/>
<text text-anchor="middle" x="2028.5" y="-136" font-family="Helvetica,sans-Serif" font-size="10.00">erpc_lpspi_slave_transport.hpp</text>
</a>
</g>
</g>
<!-- Node13&#45;&gt;Node18 -->
<g id="edge18" class="edge">
<title>Node13&#45;&gt;Node18</title>
<path fill="none" stroke="midnightblue" d="M1720.13,-194.12C1792.26,-181.34 1913.36,-159.89 1980.33,-148.03"/>
<polygon fill="midnightblue" stroke="midnightblue" points="1719.09,-190.75 1709.86,-195.94 1720.31,-197.64 1719.09,-190.75"/>
</g>
<!-- Node13&#45;&gt;Node19 -->
<g id="edge19" class="edge">
<title>Node13&#45;&gt;Node19</title>
<path fill="none" stroke="midnightblue" d="M1713.59,-194.23C1723.8,-192.55 1734.46,-191.03 1744.5,-190 2265.15,-136.83 2402.02,-217.62 2921.5,-154 2924.34,-153.65 2927.23,-153.24 2930.14,-152.79"/>
<polygon fill="midnightblue" stroke="midnightblue" points="1712.83,-190.81 1703.56,-195.96 1714.01,-197.71 1712.83,-190.81"/>
</g>
<!-- Node20 -->
<g id="node20" class="node">
<title>Node20</title>
<g id="a_node20"><a xlink:href="erpc__serial__transport_8hpp.html" target="_top" xlink:title=" ">
<polygon fill="white" stroke="black" points="2130.5,-129 2130.5,-148 2270.5,-148 2270.5,-129 2130.5,-129"/>
<text text-anchor="middle" x="2200.5" y="-136" font-family="Helvetica,sans-Serif" font-size="10.00">erpc_serial_transport.hpp</text>
</a>
</g>
</g>
<!-- Node13&#45;&gt;Node20 -->
<g id="edge20" class="edge">
<title>Node13&#45;&gt;Node20</title>
<path fill="none" stroke="midnightblue" d="M1716.58,-194.26C1725.88,-192.71 1735.45,-191.22 1744.5,-190 1911.31,-167.5 1954.79,-177.21 2121.5,-154 2133.38,-152.35 2146.19,-150.17 2157.97,-148"/>
<polygon fill="midnightblue" stroke="midnightblue" points="1715.9,-190.83 1706.63,-195.96 1717.08,-197.73 1715.9,-190.83"/>
</g>
<!-- Node21 -->
<g id="node21" class="node">
<title>Node21</title>
<g id="a_node21"><a xlink:href="erpc__spi__master__transport_8hpp.html" target="_top" xlink:title=" ">
<polygon fill="white" stroke="black" points="2289,-129 2289,-148 2456,-148 2456,-129 2289,-129"/>
<text text-anchor="middle" x="2372.5" y="-136" font-family="Helvetica,sans-Serif" font-size="10.00">erpc_spi_master_transport.hpp</text>
</a>
</g>
</g>
<!-- Node13&#45;&gt;Node21 -->
<g id="edge21" class="edge">
<title>Node13&#45;&gt;Node21</title>
<path fill="none" stroke="midnightblue" d="M1715.26,-194.25C1724.97,-192.65 1735.01,-191.14 1744.5,-190 1981.1,-161.45 2042.65,-180.38 2279.5,-154 2293.63,-152.43 2308.9,-150.25 2322.9,-148.06"/>
<polygon fill="midnightblue" stroke="midnightblue" points="1714.58,-190.82 1705.31,-195.95 1715.75,-197.72 1714.58,-190.82"/>
</g>
<!-- Node22 -->
<g id="node22" class="node">
<title>Node22</title>
<g id="a_node22"><a xlink:href="erpc__spi__slave__transport_8hpp.html" target="_top" xlink:title=" ">
<polygon fill="white" stroke="black" points="2474,-129 2474,-148 2633,-148 2633,-129 2474,-129"/>
<text text-anchor="middle" x="2553.5" y="-136" font-family="Helvetica,sans-Serif" font-size="10.00">erpc_spi_slave_transport.hpp</text>
</a>
</g>
</g>
<!-- Node13&#45;&gt;Node22 -->
<g id="edge22" class="edge">
<title>Node13&#45;&gt;Node22</title>
<path fill="none" stroke="midnightblue" d="M1714.58,-194.23C1724.5,-192.59 1734.79,-191.09 1744.5,-190 2062.91,-154.36 2145.89,-187.81 2464.5,-154 2478.51,-152.51 2493.67,-150.28 2507.44,-148.01"/>
<polygon fill="midnightblue" stroke="midnightblue" points="1713.7,-190.83 1704.43,-195.96 1714.88,-197.73 1713.7,-190.83"/>
</g>
<!-- Node23 -->
<g id="node23" class="node">
<title>Node23</title>
<g id="a_node23"><a xlink:href="erpc__spidev__master__transport_8hpp.html" target="_top" xlink:title=" ">
<polygon fill="white" stroke="black" points="2651,-123.5 2651,-153.5 2766,-153.5 2766,-123.5 2651,-123.5"/>
<text text-anchor="start" x="2659" y="-141.5" font-family="Helvetica,sans-Serif" font-size="10.00">erpc_spidev_master</text>
<text text-anchor="middle" x="2708.5" y="-130.5" font-family="Helvetica,sans-Serif" font-size="10.00">_transport.hpp</text>
</a>
</g>
</g>
<!-- Node13&#45;&gt;Node23 -->
<g id="edge23" class="edge">
<title>Node13&#45;&gt;Node23</title>
<path fill="none" stroke="midnightblue" d="M1713.93,-194.25C1724.04,-192.59 1734.57,-191.06 1744.5,-190 2141.67,-147.54 2246.34,-205.05 2642.5,-154 2645.18,-153.66 2647.9,-153.26 2650.65,-152.81"/>
<polygon fill="midnightblue" stroke="midnightblue" points="1713.26,-190.82 1704,-195.96 1714.45,-197.72 1713.26,-190.82"/>
</g>
<!-- Node24 -->
<g id="node24" class="node">
<title>Node24</title>
<g id="a_node24"><a xlink:href="erpc__tcp__transport_8hpp.html" target="_top" xlink:title=" ">
<polygon fill="white" stroke="black" points="2784.5,-129 2784.5,-148 2912.5,-148 2912.5,-129 2784.5,-129"/>
<text text-anchor="middle" x="2848.5" y="-136" font-family="Helvetica,sans-Serif" font-size="10.00">erpc_tcp_transport.hpp</text>
</a>
</g>
</g>
<!-- Node13&#45;&gt;Node24 -->
<g id="edge24" class="edge">
<title>Node13&#45;&gt;Node24</title>
<path fill="none" stroke="midnightblue" d="M1713.59,-194.27C1723.8,-192.58 1734.46,-191.05 1744.5,-190 2200.53,-142.43 2320.05,-206.84 2775.5,-154 2787.31,-152.63 2800.06,-150.37 2811.55,-148.04"/>
<polygon fill="midnightblue" stroke="midnightblue" points="1712.83,-190.85 1703.57,-195.99 1714.01,-197.75 1712.83,-190.85"/>
</g>
<!-- Node25 -->
<g id="node25" class="node">
<title>Node25</title>
<g id="a_node25"><a xlink:href="erpc__uart__cmsis__transport_8hpp.html" target="_top" xlink:title=" ">
<polygon fill="white" stroke="black" points="663,-129 663,-148 830,-148 830,-129 663,-129"/>
<text text-anchor="middle" x="746.5" y="-136" font-family="Helvetica,sans-Serif" font-size="10.00">erpc_uart_cmsis_transport.hpp</text>
</a>
</g>
</g>
<!-- Node13&#45;&gt;Node25 -->
<g id="edge25" class="edge">
<title>Node13&#45;&gt;Node25</title>
<path fill="none" stroke="midnightblue" d="M1576.94,-201.96C1427.56,-196.89 1107.33,-183.37 838.5,-154 824.36,-152.45 809.06,-150.26 795.09,-148.04"/>
<polygon fill="midnightblue" stroke="midnightblue" points="1576.85,-205.46 1586.97,-202.3 1577.09,-198.47 1576.85,-205.46"/>
</g>
<!-- Node26 -->
<g id="node26" class="node">
<title>Node26</title>
<g id="a_node26"><a xlink:href="erpc__uart__zephyr__transport_8hpp.html" target="_top" xlink:title=" ">
<polygon fill="white" stroke="black" points="848,-129 848,-148 1019,-148 1019,-129 848,-129"/>
<text text-anchor="middle" x="933.5" y="-136" font-family="Helvetica,sans-Serif" font-size="10.00">erpc_uart_zephyr_transport.hpp</text>
</a>
</g>
</g>
<!-- Node13&#45;&gt;Node26 -->
<g id="edge26" class="edge">
<title>Node13&#45;&gt;Node26</title>
<path fill="none" stroke="midnightblue" d="M1576.79,-199.68C1455.19,-192.33 1224.22,-176.71 1028.5,-154 1014.25,-152.35 998.85,-150.17 984.68,-148"/>
<polygon fill="midnightblue" stroke="midnightblue" points="1576.59,-203.18 1586.78,-200.28 1577.01,-196.19 1576.59,-203.18"/>
</g>
<!-- Node27 -->
<g id="node27" class="node">
<title>Node27</title>
<g id="a_node27"><a xlink:href="erpc__usb__cdc__transport_8hpp.html" target="_top" xlink:title=" ">
<polygon fill="white" stroke="black" points="1037.5,-129 1037.5,-148 1189.5,-148 1189.5,-129 1037.5,-129"/>
<text text-anchor="middle" x="1113.5" y="-136" font-family="Helvetica,sans-Serif" font-size="10.00">erpc_usb_cdc_transport.hpp</text>
</a>
</g>
</g>
<!-- Node13&#45;&gt;Node27 -->
<g id="edge27" class="edge">
<title>Node13&#45;&gt;Node27</title>
<path fill="none" stroke="midnightblue" d="M1576.55,-196.78C1483.54,-187.98 1330.1,-172.39 1198.5,-154 1186.19,-152.28 1172.93,-150.15 1160.63,-148.06"/>
<polygon fill="midnightblue" stroke="midnightblue" points="1576.47,-200.29 1586.75,-197.75 1577.12,-193.32 1576.47,-200.29"/>
</g>
</g>
</svg>
