<?xml version="1.0" encoding="UTF-8" standalone="no"?>
<!DOCTYPE svg PUBLIC "-//W3C//DTD SVG 1.1//EN"
 "http://www.w3.org/Graphics/SVG/1.1/DTD/svg11.dtd">
<!-- Generated by graphviz version 2.43.0 (0)
 -->
<!-- Title: erpc_config.h Pages: 1 -->
<svg width="3270pt" height="285pt"
 viewBox="0.00 0.00 3269.50 285.00" xmlns="http://www.w3.org/2000/svg" xmlns:xlink="http://www.w3.org/1999/xlink">
<g id="graph0" class="graph" transform="scale(1 1) rotate(0) translate(4 281)">
<title>erpc_config.h</title>
<polygon fill="white" stroke="transparent" points="-4,4 -4,-281 3265.5,-281 3265.5,4 -4,4"/>
<!-- Node1 -->
<g id="node1" class="node">
<title>Node1</title>
<g id="a_node1"><a xlink:title=" ">
<polygon fill="#bfbfbf" stroke="black" points="2186,-257.5 2186,-276.5 2268,-276.5 2268,-257.5 2186,-257.5"/>
<text text-anchor="middle" x="2227" y="-264.5" font-family="Helvetica,sans-Serif" font-size="10.00">erpc_config.h</text>
</a>
</g>
</g>
<!-- Node2 -->
<g id="node2" class="node">
<title>Node2</title>
<g id="a_node2"><a xlink:href="erpc__config__internal_8h_source.html" target="_top" xlink:title=" ">
<polygon fill="white" stroke="black" points="2164.5,-201.5 2164.5,-220.5 2289.5,-220.5 2289.5,-201.5 2164.5,-201.5"/>
<text text-anchor="middle" x="2227" y="-208.5" font-family="Helvetica,sans-Serif" font-size="10.00">erpc_config_internal.h</text>
</a>
</g>
</g>
<!-- Node1&#45;&gt;Node2 -->
<g id="edge1" class="edge">
<title>Node1&#45;&gt;Node2</title>
<path fill="none" stroke="midnightblue" d="M2227,-246.8C2227,-237.91 2227,-227.78 2227,-220.75"/>
<polygon fill="midnightblue" stroke="midnightblue" points="2223.5,-247.08 2227,-257.08 2230.5,-247.08 2223.5,-247.08"/>
</g>
<!-- Node3 -->
<g id="node3" class="node">
<title>Node3</title>
<g id="a_node3"><a xlink:href="erpc__client__server__common_8hpp.html" target="_top" xlink:title=" ">
<polygon fill="white" stroke="black" points="2393,-134.5 2393,-164.5 2499,-164.5 2499,-134.5 2393,-134.5"/>
<text text-anchor="start" x="2401" y="-152.5" font-family="Helvetica,sans-Serif" font-size="10.00">erpc_client_server</text>
<text text-anchor="middle" x="2446" y="-141.5" font-family="Helvetica,sans-Serif" font-size="10.00">_common.hpp</text>
</a>
</g>
</g>
<!-- Node2&#45;&gt;Node3 -->
<g id="edge2" class="edge">
<title>Node2&#45;&gt;Node3</title>
<path fill="none" stroke="midnightblue" d="M2268.47,-198.73C2304.21,-189.02 2355.97,-174.96 2394.39,-164.52"/>
<polygon fill="midnightblue" stroke="midnightblue" points="2267.11,-195.48 2258.38,-201.48 2268.95,-202.23 2267.11,-195.48"/>
</g>
<!-- Node7 -->
<g id="node7" class="node">
<title>Node7</title>
<g id="a_node7"><a xlink:href="erpc__arbitrated__client__setup_8h.html" target="_top" xlink:title=" ">
<polygon fill="white" stroke="black" points="2872.5,-0.5 2872.5,-30.5 2995.5,-30.5 2995.5,-0.5 2872.5,-0.5"/>
<text text-anchor="start" x="2880.5" y="-18.5" font-family="Helvetica,sans-Serif" font-size="10.00">erpc_arbitrated_client</text>
<text text-anchor="middle" x="2934" y="-7.5" font-family="Helvetica,sans-Serif" font-size="10.00">_setup.h</text>
</a>
</g>
</g>
<!-- Node2&#45;&gt;Node7 -->
<g id="edge44" class="edge">
<title>Node2&#45;&gt;Node7</title>
<path fill="none" stroke="midnightblue" d="M2299.79,-205.43C2357.56,-200.13 2439.68,-188.84 2508,-165 2565.31,-145 2575.86,-130.69 2627,-98 2646.85,-85.31 2648.34,-76.27 2670,-67 2750.21,-32.66 2777.36,-47.73 2863,-31 2866.09,-30.4 2869.25,-29.77 2872.44,-29.14"/>
<polygon fill="midnightblue" stroke="midnightblue" points="2299.32,-201.96 2289.66,-206.32 2299.93,-208.93 2299.32,-201.96"/>
</g>
<!-- Node8 -->
<g id="node8" class="node">
<title>Node8</title>
<g id="a_node8"><a xlink:href="erpc__client__setup_8h.html" target="_top" xlink:title=" ">
<polygon fill="white" stroke="black" points="3013.5,-6 3013.5,-25 3124.5,-25 3124.5,-6 3013.5,-6"/>
<text text-anchor="middle" x="3069" y="-13" font-family="Helvetica,sans-Serif" font-size="10.00">erpc_client_setup.h</text>
</a>
</g>
</g>
<!-- Node2&#45;&gt;Node8 -->
<g id="edge45" class="edge">
<title>Node2&#45;&gt;Node8</title>
<path fill="none" stroke="midnightblue" d="M2299.74,-203.08C2366.56,-196 2468.09,-183.42 2555,-165 2746.28,-124.47 2970.52,-50.19 3044.19,-25.06"/>
<polygon fill="midnightblue" stroke="midnightblue" points="2299.32,-199.6 2289.73,-204.12 2300.04,-206.56 2299.32,-199.6"/>
</g>
<!-- Node9 -->
<g id="node9" class="node">
<title>Node9</title>
<g id="a_node9"><a xlink:href="erpc__server_8hpp.html" target="_top" xlink:title=" ">
<polygon fill="white" stroke="black" points="2376.5,-73 2376.5,-92 2471.5,-92 2471.5,-73 2376.5,-73"/>
<text text-anchor="middle" x="2424" y="-80" font-family="Helvetica,sans-Serif" font-size="10.00">erpc_server.hpp</text>
</a>
</g>
</g>
<!-- Node2&#45;&gt;Node9 -->
<g id="edge26" class="edge">
<title>Node2&#45;&gt;Node9</title>
<path fill="none" stroke="midnightblue" d="M2267.78,-198.33C2290.41,-190.79 2318.46,-179.64 2341,-165 2373.52,-143.88 2403.95,-108.59 2417.13,-92.27"/>
<polygon fill="midnightblue" stroke="midnightblue" points="2266.57,-195.04 2258.12,-201.44 2268.71,-201.7 2266.57,-195.04"/>
</g>
<!-- Node11 -->
<g id="node11" class="node">
<title>Node11</title>
<g id="a_node11"><a xlink:href="erpc__framed__transport_8hpp.html" target="_top" xlink:title=" ">
<polygon fill="white" stroke="black" points="1231.5,-73 1231.5,-92 1380.5,-92 1380.5,-73 1231.5,-73"/>
<text text-anchor="middle" x="1306" y="-80" font-family="Helvetica,sans-Serif" font-size="10.00">erpc_framed_transport.hpp</text>
</a>
</g>
</g>
<!-- Node2&#45;&gt;Node11 -->
<g id="edge10" class="edge">
<title>Node2&#45;&gt;Node11</title>
<path fill="none" stroke="midnightblue" d="M2154.22,-208.89C1964.18,-205.59 1462.96,-194.2 1394,-165 1356.42,-149.09 1324.8,-109.77 1312.04,-92.21"/>
<polygon fill="midnightblue" stroke="midnightblue" points="2154.33,-212.39 2164.39,-209.06 2154.45,-205.39 2154.33,-212.39"/>
</g>
<!-- Node13 -->
<g id="node13" class="node">
<title>Node13</title>
<g id="a_node13"><a xlink:href="erpc__dspi__slave__transport_8hpp.html" target="_top" xlink:title=" ">
<polygon fill="white" stroke="black" points="320.5,-6 320.5,-25 485.5,-25 485.5,-6 320.5,-6"/>
<text text-anchor="middle" x="403" y="-13" font-family="Helvetica,sans-Serif" font-size="10.00">erpc_dspi_slave_transport.hpp</text>
</a>
</g>
</g>
<!-- Node2&#45;&gt;Node13 -->
<g id="edge47" class="edge">
<title>Node2&#45;&gt;Node13</title>
<path fill="none" stroke="midnightblue" d="M2154.16,-210.25C1956.93,-210.34 1415.81,-206.68 1243,-165 1217.48,-158.84 1053.45,-73.43 1028,-67 797.38,-8.73 730.36,-57.74 494,-31 480.17,-29.44 465.23,-27.26 451.53,-25.07"/>
<polygon fill="midnightblue" stroke="midnightblue" points="2154.41,-213.75 2164.41,-210.24 2154.41,-206.75 2154.41,-213.75"/>
</g>
<!-- Node14 -->
<g id="node14" class="node">
<title>Node14</title>
<g id="a_node14"><a xlink:href="erpc__i2c__slave__transport_8hpp.html" target="_top" xlink:title=" ">
<polygon fill="white" stroke="black" points="503.5,-6 503.5,-25 662.5,-25 662.5,-6 503.5,-6"/>
<text text-anchor="middle" x="583" y="-13" font-family="Helvetica,sans-Serif" font-size="10.00">erpc_i2c_slave_transport.hpp</text>
</a>
</g>
</g>
<!-- Node2&#45;&gt;Node14 -->
<g id="edge48" class="edge">
<title>Node2&#45;&gt;Node14</title>
<path fill="none" stroke="midnightblue" d="M2154.46,-208.94C1972.61,-205.86 1500.88,-195.13 1347,-165 1217.2,-139.59 1195.27,-94.99 1066,-67 893.71,-29.7 845.86,-53.34 671,-31 657.94,-29.33 643.86,-27.17 630.86,-25.03"/>
<polygon fill="midnightblue" stroke="midnightblue" points="2154.4,-212.44 2164.46,-209.11 2154.52,-205.44 2154.4,-212.44"/>
</g>
<!-- Node15 -->
<g id="node15" class="node">
<title>Node15</title>
<g id="a_node15"><a xlink:href="erpc__lpi2c__slave__transport_8hpp.html" target="_top" xlink:title=" ">
<polygon fill="white" stroke="black" points="1349,-6 1349,-25 1517,-25 1517,-6 1349,-6"/>
<text text-anchor="middle" x="1433" y="-13" font-family="Helvetica,sans-Serif" font-size="10.00">erpc_lpi2c_slave_transport.hpp</text>
</a>
</g>
</g>
<!-- Node2&#45;&gt;Node15 -->
<g id="edge49" class="edge">
<title>Node2&#45;&gt;Node15</title>
<path fill="none" stroke="midnightblue" d="M2154.17,-209.21C1980.74,-206.82 1553.58,-197.64 1498,-165 1446.31,-134.65 1435.64,-52 1433.51,-25.09"/>
<polygon fill="midnightblue" stroke="midnightblue" points="2154.18,-212.71 2164.22,-209.35 2154.27,-205.71 2154.18,-212.71"/>
</g>
<!-- Node16 -->
<g id="node16" class="node">
<title>Node16</title>
<g id="a_node16"><a xlink:href="erpc__lpspi__slave__transport_8hpp.html" target="_top" xlink:title=" ">
<polygon fill="white" stroke="black" points="134,-6 134,-25 302,-25 302,-6 134,-6"/>
<text text-anchor="middle" x="218" y="-13" font-family="Helvetica,sans-Serif" font-size="10.00">erpc_lpspi_slave_transport.hpp</text>
</a>
</g>
</g>
<!-- Node2&#45;&gt;Node16 -->
<g id="edge50" class="edge">
<title>Node2&#45;&gt;Node16</title>
<path fill="none" stroke="midnightblue" d="M2154.31,-210.58C1947.5,-211.66 1358.76,-210.52 1172,-165 1103.42,-148.29 1086.76,-137.12 1028,-98 1010.98,-86.67 1012.87,-74.89 994,-67 853.77,-8.38 462.17,-46.73 311,-31 296.53,-29.5 280.89,-27.28 266.63,-25.04"/>
<polygon fill="midnightblue" stroke="midnightblue" points="2154.47,-214.08 2164.45,-210.53 2154.43,-207.08 2154.47,-214.08"/>
</g>
<!-- Node20 -->
<g id="node20" class="node">
<title>Node20</title>
<g id="a_node20"><a xlink:href="erpc__spi__slave__transport_8hpp.html" target="_top" xlink:title=" ">
<polygon fill="white" stroke="black" points="1534.5,-6 1534.5,-25 1693.5,-25 1693.5,-6 1534.5,-6"/>
<text text-anchor="middle" x="1614" y="-13" font-family="Helvetica,sans-Serif" font-size="10.00">erpc_spi_slave_transport.hpp</text>
</a>
</g>
</g>
<!-- Node2&#45;&gt;Node20 -->
<g id="edge58" class="edge">
<title>Node2&#45;&gt;Node20</title>
<path fill="none" stroke="midnightblue" d="M2154.15,-210.14C2045.1,-209.04 1833.46,-201.76 1658,-165 1569.13,-146.38 1517.63,-171.99 1465,-98 1436.8,-58.36 1506.85,-35.96 1560.21,-25.05"/>
<polygon fill="midnightblue" stroke="midnightblue" points="2154.35,-213.65 2164.38,-210.23 2154.41,-206.65 2154.35,-213.65"/>
</g>
<!-- Node23 -->
<g id="node23" class="node">
<title>Node23</title>
<g id="a_node23"><a xlink:href="erpc__uart__cmsis__transport_8hpp.html" target="_top" xlink:title=" ">
<polygon fill="white" stroke="black" points="2218.5,-6 2218.5,-25 2385.5,-25 2385.5,-6 2218.5,-6"/>
<text text-anchor="middle" x="2302" y="-13" font-family="Helvetica,sans-Serif" font-size="10.00">erpc_uart_cmsis_transport.hpp</text>
</a>
</g>
</g>
<!-- Node2&#45;&gt;Node23 -->
<g id="edge59" class="edge">
<title>Node2&#45;&gt;Node23</title>
<path fill="none" stroke="midnightblue" d="M2264.52,-197.23C2279.23,-190.16 2294.59,-179.75 2303,-165 2329.56,-118.41 2312.3,-49.5 2304.89,-25.29"/>
<polygon fill="midnightblue" stroke="midnightblue" points="2262.76,-194.17 2255.02,-201.4 2265.58,-200.58 2262.76,-194.17"/>
</g>
<!-- Node24 -->
<g id="node24" class="node">
<title>Node24</title>
<g id="a_node24"><a xlink:href="erpc__uart__zephyr__transport_8hpp.html" target="_top" xlink:title=" ">
<polygon fill="white" stroke="black" points="1858.5,-6 1858.5,-25 2029.5,-25 2029.5,-6 1858.5,-6"/>
<text text-anchor="middle" x="1944" y="-13" font-family="Helvetica,sans-Serif" font-size="10.00">erpc_uart_zephyr_transport.hpp</text>
</a>
</g>
</g>
<!-- Node2&#45;&gt;Node24 -->
<g id="edge60" class="edge">
<title>Node2&#45;&gt;Node24</title>
<path fill="none" stroke="midnightblue" d="M2234.37,-191.78C2245.11,-161.93 2260.72,-102.41 2231,-67 2227.24,-62.53 2079.43,-38.21 1997.45,-25.02"/>
<polygon fill="midnightblue" stroke="midnightblue" points="2231.02,-190.74 2230.73,-201.33 2237.56,-193.23 2231.02,-190.74"/>
</g>
<!-- Node25 -->
<g id="node25" class="node">
<title>Node25</title>
<g id="a_node25"><a xlink:href="erpc__usb__cdc__transport_8hpp.html" target="_top" xlink:title=" ">
<polygon fill="white" stroke="black" points="2048,-6 2048,-25 2200,-25 2200,-6 2048,-6"/>
<text text-anchor="middle" x="2124" y="-13" font-family="Helvetica,sans-Serif" font-size="10.00">erpc_usb_cdc_transport.hpp</text>
</a>
</g>
</g>
<!-- Node2&#45;&gt;Node25 -->
<g id="edge61" class="edge">
<title>Node2&#45;&gt;Node25</title>
<path fill="none" stroke="midnightblue" d="M2245.11,-194.24C2252.81,-186.33 2260.94,-176.09 2265,-165 2279.96,-124.09 2290.07,-102.61 2265,-67 2252.91,-49.83 2199.96,-34.23 2162.51,-25.05"/>
<polygon fill="midnightblue" stroke="midnightblue" points="2242.53,-191.86 2237.71,-201.3 2247.36,-196.93 2242.53,-191.86"/>
</g>
<!-- Node26 -->
<g id="node26" class="node">
<title>Node26</title>
<g id="a_node26"><a xlink:href="erpc__manually__constructed_8hpp.html" target="_top" xlink:title=" ">
<polygon fill="white" stroke="black" points="2712,-140 2712,-159 2884,-159 2884,-140 2712,-140"/>
<text text-anchor="middle" x="2798" y="-147" font-family="Helvetica,sans-Serif" font-size="10.00">erpc_manually_constructed.hpp</text>
</a>
</g>
</g>
<!-- Node2&#45;&gt;Node26 -->
<g id="edge25" class="edge">
<title>Node2&#45;&gt;Node26</title>
<path fill="none" stroke="midnightblue" d="M2299.68,-204.16C2392.31,-196.47 2557.29,-181.91 2698,-165 2712.46,-163.26 2728.05,-161.13 2742.52,-159.04"/>
<polygon fill="midnightblue" stroke="midnightblue" points="2299.26,-200.69 2289.58,-205 2299.83,-207.66 2299.26,-200.69"/>
</g>
<!-- Node27 -->
<g id="node27" class="node">
<title>Node27</title>
<g id="a_node27"><a xlink:href="erpc__port_8h.html" target="_top" xlink:title=" ">
<polygon fill="white" stroke="black" points="2902.5,-140 2902.5,-159 2973.5,-159 2973.5,-140 2902.5,-140"/>
<text text-anchor="middle" x="2938" y="-147" font-family="Helvetica,sans-Serif" font-size="10.00">erpc_port.h</text>
</a>
</g>
</g>
<!-- Node2&#45;&gt;Node27 -->
<g id="edge27" class="edge">
<title>Node2&#45;&gt;Node27</title>
<path fill="none" stroke="midnightblue" d="M2299.7,-210.86C2422.92,-211.03 2680.18,-205.84 2893,-165 2900.25,-163.61 2907.97,-161.4 2914.93,-159.13"/>
<polygon fill="midnightblue" stroke="midnightblue" points="2299.64,-207.36 2289.63,-210.83 2299.62,-214.36 2299.64,-207.36"/>
</g>
<!-- Node28 -->
<g id="node28" class="node">
<title>Node28</title>
<g id="a_node28"><a xlink:href="erpc__setup__extensions_8h.html" target="_top" xlink:title=" ">
<polygon fill="white" stroke="black" points="2991.5,-140 2991.5,-159 3128.5,-159 3128.5,-140 2991.5,-140"/>
<text text-anchor="middle" x="3060" y="-147" font-family="Helvetica,sans-Serif" font-size="10.00">erpc_setup_extensions.h</text>
</a>
</g>
</g>
<!-- Node2&#45;&gt;Node28 -->
<g id="edge28" class="edge">
<title>Node2&#45;&gt;Node28</title>
<path fill="none" stroke="midnightblue" d="M2300.11,-208.66C2435.23,-205.51 2733.02,-195.44 2982,-165 2994.17,-163.51 3007.3,-161.31 3019.26,-159.06"/>
<polygon fill="midnightblue" stroke="midnightblue" points="2299.8,-205.16 2289.88,-208.89 2299.96,-212.16 2299.8,-205.16"/>
</g>
<!-- Node29 -->
<g id="node29" class="node">
<title>Node29</title>
<g id="a_node29"><a xlink:href="erpc__threading_8h.html" target="_top" xlink:title=" ">
<polygon fill="white" stroke="black" points="1667,-140 1667,-159 1765,-159 1765,-140 1667,-140"/>
<text text-anchor="middle" x="1716" y="-147" font-family="Helvetica,sans-Serif" font-size="10.00">erpc_threading.h</text>
</a>
</g>
</g>
<!-- Node2&#45;&gt;Node29 -->
<g id="edge29" class="edge">
<title>Node2&#45;&gt;Node29</title>
<path fill="none" stroke="midnightblue" d="M2154.4,-201.55C2048.76,-189.25 1855.44,-166.74 1765.04,-156.21"/>
<polygon fill="midnightblue" stroke="midnightblue" points="2154,-205.02 2164.34,-202.7 2154.81,-198.07 2154,-205.02"/>
</g>
<!-- Node31 -->
<g id="node31" class="node">
<title>Node31</title>
<g id="a_node31"><a xlink:href="erpc__mbox__zephyr__transport_8hpp.html" target="_top" xlink:title=" ">
<polygon fill="white" stroke="black" points="1896.5,-73 1896.5,-92 2075.5,-92 2075.5,-73 1896.5,-73"/>
<text text-anchor="middle" x="1986" y="-80" font-family="Helvetica,sans-Serif" font-size="10.00">erpc_mbox_zephyr_transport.hpp</text>
</a>
</g>
</g>
<!-- Node2&#45;&gt;Node31 -->
<g id="edge51" class="edge">
<title>Node2&#45;&gt;Node31</title>
<path fill="none" stroke="midnightblue" d="M2201.31,-196.51C2151.59,-170.42 2043.52,-113.69 2002.36,-92.09"/>
<polygon fill="midnightblue" stroke="midnightblue" points="2199.95,-199.76 2210.44,-201.31 2203.21,-193.56 2199.95,-199.76"/>
</g>
<!-- Node32 -->
<g id="node32" class="node">
<title>Node32</title>
<g id="a_node32"><a xlink:href="erpc__mu__transport_8hpp.html" target="_top" xlink:title=" ">
<polygon fill="white" stroke="black" points="2093.5,-73 2093.5,-92 2222.5,-92 2222.5,-73 2093.5,-73"/>
<text text-anchor="middle" x="2158" y="-80" font-family="Helvetica,sans-Serif" font-size="10.00">erpc_mu_transport.hpp</text>
</a>
</g>
</g>
<!-- Node2&#45;&gt;Node32 -->
<g id="edge52" class="edge">
<title>Node2&#45;&gt;Node32</title>
<path fill="none" stroke="midnightblue" d="M2217.4,-192.4C2202.42,-164.94 2174.04,-112.9 2162.78,-92.26"/>
<polygon fill="midnightblue" stroke="midnightblue" points="2214.4,-194.2 2222.26,-201.31 2220.54,-190.85 2214.4,-194.2"/>
</g>
<!-- Node33 -->
<g id="node33" class="node">
<title>Node33</title>
<g id="a_node33"><a xlink:href="erpc__server__setup_8h.html" target="_top" xlink:title=" ">
<polygon fill="white" stroke="black" points="3146.5,-140 3146.5,-159 3261.5,-159 3261.5,-140 3146.5,-140"/>
<text text-anchor="middle" x="3204" y="-147" font-family="Helvetica,sans-Serif" font-size="10.00">erpc_server_setup.h</text>
</a>
</g>
</g>
<!-- Node2&#45;&gt;Node33 -->
<g id="edge46" class="edge">
<title>Node2&#45;&gt;Node33</title>
<path fill="none" stroke="midnightblue" d="M2299.98,-210.43C2454.89,-210.46 2827.73,-205.83 3137,-165 3147.74,-163.58 3159.31,-161.34 3169.76,-159.04"/>
<polygon fill="midnightblue" stroke="midnightblue" points="2299.66,-206.93 2289.65,-210.42 2299.65,-213.93 2299.66,-206.93"/>
</g>
<!-- Node34 -->
<g id="node34" class="node">
<title>Node34</title>
<g id="a_node34"><a xlink:href="erpc__rpmsg__lite__base_8hpp.html" target="_top" xlink:title=" ">
<polygon fill="white" stroke="black" points="705,-140 705,-159 849,-159 849,-140 705,-140"/>
<text text-anchor="middle" x="777" y="-147" font-family="Helvetica,sans-Serif" font-size="10.00">erpc_rpmsg_lite_base.hpp</text>
</a>
</g>
</g>
<!-- Node2&#45;&gt;Node34 -->
<g id="edge53" class="edge">
<title>Node2&#45;&gt;Node34</title>
<path fill="none" stroke="midnightblue" d="M2154.22,-209.02C1956.88,-206.02 1395.15,-195.29 929,-165 902.94,-163.31 874.44,-160.77 849.22,-158.29"/>
<polygon fill="midnightblue" stroke="midnightblue" points="2154.4,-212.52 2164.46,-209.17 2154.51,-205.52 2154.4,-212.52"/>
</g>
<!-- Node36 -->
<g id="node36" class="node">
<title>Node36</title>
<g id="a_node36"><a xlink:href="erpc__rpmsg__lite__transport_8hpp.html" target="_top" xlink:title=" ">
<polygon fill="white" stroke="black" points="820.5,-73 820.5,-92 985.5,-92 985.5,-73 820.5,-73"/>
<text text-anchor="middle" x="903" y="-80" font-family="Helvetica,sans-Serif" font-size="10.00">erpc_rpmsg_lite_transport.hpp</text>
</a>
</g>
</g>
<!-- Node2&#45;&gt;Node36 -->
<g id="edge57" class="edge">
<title>Node2&#45;&gt;Node36</title>
<path fill="none" stroke="midnightblue" d="M2154.01,-210.08C1906.34,-209.96 1107.36,-206.36 1000,-165 959.57,-149.42 923.92,-109.56 909.64,-92.01"/>
<polygon fill="midnightblue" stroke="midnightblue" points="2154.34,-213.58 2164.34,-210.08 2154.34,-206.58 2154.34,-213.58"/>
</g>
<!-- Node4 -->
<g id="node4" class="node">
<title>Node4</title>
<g id="a_node4"><a xlink:href="erpc__client__manager_8h.html" target="_top" xlink:title=" ">
<polygon fill="white" stroke="black" points="2490,-73 2490,-92 2618,-92 2618,-73 2490,-73"/>
<text text-anchor="middle" x="2554" y="-80" font-family="Helvetica,sans-Serif" font-size="10.00">erpc_client_manager.h</text>
</a>
</g>
</g>
<!-- Node3&#45;&gt;Node4 -->
<g id="edge3" class="edge">
<title>Node3&#45;&gt;Node4</title>
<path fill="none" stroke="midnightblue" d="M2478.17,-129.14C2498.69,-116.79 2524.28,-101.39 2539.87,-92.01"/>
<polygon fill="midnightblue" stroke="midnightblue" points="2476.2,-126.24 2469.43,-134.4 2479.81,-132.24 2476.2,-126.24"/>
</g>
<!-- Node3&#45;&gt;Node9 -->
<g id="edge8" class="edge">
<title>Node3&#45;&gt;Node9</title>
<path fill="none" stroke="midnightblue" d="M2437.91,-124.6C2434.08,-113.28 2429.74,-100.46 2426.94,-92.19"/>
<polygon fill="midnightblue" stroke="midnightblue" points="2434.71,-126.05 2441.23,-134.4 2441.34,-123.8 2434.71,-126.05"/>
</g>
<!-- Node5 -->
<g id="node5" class="node">
<title>Node5</title>
<g id="a_node5"><a xlink:href="erpc__arbitrated__client__manager_8hpp.html" target="_top" xlink:title=" ">
<polygon fill="white" stroke="black" points="2731.5,-0.5 2731.5,-30.5 2854.5,-30.5 2854.5,-0.5 2731.5,-0.5"/>
<text text-anchor="start" x="2739.5" y="-18.5" font-family="Helvetica,sans-Serif" font-size="10.00">erpc_arbitrated_client</text>
<text text-anchor="middle" x="2793" y="-7.5" font-family="Helvetica,sans-Serif" font-size="10.00">_manager.hpp</text>
</a>
</g>
</g>
<!-- Node4&#45;&gt;Node5 -->
<g id="edge4" class="edge">
<title>Node4&#45;&gt;Node5</title>
<path fill="none" stroke="midnightblue" d="M2595.56,-70.2C2636.07,-59.18 2697.79,-42.39 2741.42,-30.53"/>
<polygon fill="midnightblue" stroke="midnightblue" points="2594.47,-66.87 2585.74,-72.87 2596.31,-73.62 2594.47,-66.87"/>
</g>
<!-- Node6 -->
<g id="node6" class="node">
<title>Node6</title>
<g id="a_node6"><a xlink:href="erpc__transport__arbitrator_8hpp.html" target="_top" xlink:title=" ">
<polygon fill="white" stroke="black" points="2554.5,-6 2554.5,-25 2713.5,-25 2713.5,-6 2554.5,-6"/>
<text text-anchor="middle" x="2634" y="-13" font-family="Helvetica,sans-Serif" font-size="10.00">erpc_transport_arbitrator.hpp</text>
</a>
</g>
</g>
<!-- Node4&#45;&gt;Node6 -->
<g id="edge5" class="edge">
<title>Node4&#45;&gt;Node6</title>
<path fill="none" stroke="midnightblue" d="M2572.81,-66.21C2588.58,-53.41 2610.51,-35.59 2623.38,-25.13"/>
<polygon fill="midnightblue" stroke="midnightblue" points="2570.34,-63.71 2564.79,-72.73 2574.76,-69.14 2570.34,-63.71"/>
</g>
<!-- Node4&#45;&gt;Node7 -->
<g id="edge6" class="edge">
<title>Node4&#45;&gt;Node7</title>
<path fill="none" stroke="midnightblue" d="M2608.41,-71.18C2616.32,-69.74 2624.36,-68.3 2632,-67 2734.42,-49.5 2760.74,-49.4 2863,-31 2866.1,-30.44 2869.26,-29.86 2872.46,-29.25"/>
<polygon fill="midnightblue" stroke="midnightblue" points="2607.71,-67.74 2598.51,-72.99 2608.98,-74.63 2607.71,-67.74"/>
</g>
<!-- Node4&#45;&gt;Node8 -->
<g id="edge7" class="edge">
<title>Node4&#45;&gt;Node8</title>
<path fill="none" stroke="midnightblue" d="M2628.12,-72.04C2642.03,-70.32 2656.45,-68.58 2670,-67 2818.3,-49.74 2856.69,-55.29 3004,-31 3013.81,-29.38 3024.37,-27.21 3034.06,-25.05"/>
<polygon fill="midnightblue" stroke="midnightblue" points="2627.59,-68.58 2618.1,-73.29 2628.45,-75.53 2627.59,-68.58"/>
</g>
<!-- Node10 -->
<g id="node10" class="node">
<title>Node10</title>
<g id="a_node10"><a xlink:href="erpc__simple__server_8hpp.html" target="_top" xlink:title=" ">
<polygon fill="white" stroke="black" points="2403.5,-6 2403.5,-25 2536.5,-25 2536.5,-6 2403.5,-6"/>
<text text-anchor="middle" x="2470" y="-13" font-family="Helvetica,sans-Serif" font-size="10.00">erpc_simple_server.hpp</text>
</a>
</g>
</g>
<!-- Node9&#45;&gt;Node10 -->
<g id="edge9" class="edge">
<title>Node9&#45;&gt;Node10</title>
<path fill="none" stroke="midnightblue" d="M2436.1,-64.4C2445.04,-51.77 2456.83,-35.1 2463.89,-25.13"/>
<polygon fill="midnightblue" stroke="midnightblue" points="2433.12,-62.55 2430.2,-72.73 2438.84,-66.59 2433.12,-62.55"/>
</g>
<!-- Node12 -->
<g id="node12" class="node">
<title>Node12</title>
<g id="a_node12"><a xlink:href="erpc__dspi__master__transport_8hpp.html" target="_top" xlink:title=" ">
<polygon fill="white" stroke="black" points="680.5,-6 680.5,-25 853.5,-25 853.5,-6 680.5,-6"/>
<text text-anchor="middle" x="767" y="-13" font-family="Helvetica,sans-Serif" font-size="10.00">erpc_dspi_master_transport.hpp</text>
</a>
</g>
</g>
<!-- Node11&#45;&gt;Node12 -->
<g id="edge11" class="edge">
<title>Node11&#45;&gt;Node12</title>
<path fill="none" stroke="midnightblue" d="M1247.54,-71.35C1237.7,-69.78 1227.57,-68.27 1218,-67 1060.8,-46.1 1020.34,-50.85 863,-31 849.12,-29.25 834.15,-27.11 820.25,-25.02"/>
<polygon fill="midnightblue" stroke="midnightblue" points="1247.24,-74.84 1257.67,-72.98 1248.35,-67.93 1247.24,-74.84"/>
</g>
<!-- Node11&#45;&gt;Node13 -->
<g id="edge12" class="edge">
<title>Node11&#45;&gt;Node13</title>
<path fill="none" stroke="midnightblue" d="M1221.34,-73.48C1195.85,-71.21 1167.8,-68.86 1142,-67 854.3,-46.3 780.8,-61.73 494,-31 479.84,-29.48 464.53,-27.27 450.58,-25.02"/>
<polygon fill="midnightblue" stroke="midnightblue" points="1221.07,-76.97 1231.34,-74.38 1221.69,-70 1221.07,-76.97"/>
</g>
<!-- Node11&#45;&gt;Node14 -->
<g id="edge13" class="edge">
<title>Node11&#45;&gt;Node14</title>
<path fill="none" stroke="midnightblue" d="M1249.63,-71.37C1239.14,-69.73 1228.26,-68.18 1218,-67 975.96,-39.16 913.04,-58.84 671,-31 657.46,-29.44 642.83,-27.24 629.46,-25.03"/>
<polygon fill="midnightblue" stroke="midnightblue" points="1249.11,-74.83 1259.54,-72.97 1250.22,-67.92 1249.11,-74.83"/>
</g>
<!-- Node11&#45;&gt;Node15 -->
<g id="edge14" class="edge">
<title>Node11&#45;&gt;Node15</title>
<path fill="none" stroke="midnightblue" d="M1331.84,-68.27C1357,-55.4 1394.49,-36.21 1416.07,-25.17"/>
<polygon fill="midnightblue" stroke="midnightblue" points="1330.17,-65.2 1322.86,-72.87 1333.36,-71.43 1330.17,-65.2"/>
</g>
<!-- Node11&#45;&gt;Node16 -->
<g id="edge15" class="edge">
<title>Node11&#45;&gt;Node16</title>
<path fill="none" stroke="midnightblue" d="M1221.2,-74.91C1185.09,-72.24 1142.5,-69.26 1104,-67 751.8,-46.37 662.04,-66.23 311,-31 296.37,-29.53 280.53,-27.3 266.14,-25.03"/>
<polygon fill="midnightblue" stroke="midnightblue" points="1220.97,-78.41 1231.21,-75.66 1221.49,-71.43 1220.97,-78.41"/>
</g>
<!-- Node17 -->
<g id="node17" class="node">
<title>Node17</title>
<g id="a_node17"><a xlink:href="erpc__rpmsg__tty__rtos__transport_8hpp.html" target="_top" xlink:title=" ">
<polygon fill="white" stroke="black" points="0,-0.5 0,-30.5 116,-30.5 116,-0.5 0,-0.5"/>
<text text-anchor="start" x="8" y="-18.5" font-family="Helvetica,sans-Serif" font-size="10.00">erpc_rpmsg_tty_rtos</text>
<text text-anchor="middle" x="58" y="-7.5" font-family="Helvetica,sans-Serif" font-size="10.00">_transport.hpp</text>
</a>
</g>
</g>
<!-- Node11&#45;&gt;Node17 -->
<g id="edge16" class="edge">
<title>Node11&#45;&gt;Node17</title>
<path fill="none" stroke="midnightblue" d="M1221.06,-77.44C1158.33,-74.46 1070.85,-70.38 994,-67 607.82,-50.03 508.43,-80.06 125,-31 122.17,-30.64 119.28,-30.22 116.36,-29.75"/>
<polygon fill="midnightblue" stroke="midnightblue" points="1221.15,-80.94 1231.3,-77.92 1221.48,-73.95 1221.15,-80.94"/>
</g>
<!-- Node18 -->
<g id="node18" class="node">
<title>Node18</title>
<g id="a_node18"><a xlink:href="erpc__serial__transport_8hpp.html" target="_top" xlink:title=" ">
<polygon fill="white" stroke="black" points="872,-6 872,-25 1012,-25 1012,-6 872,-6"/>
<text text-anchor="middle" x="942" y="-13" font-family="Helvetica,sans-Serif" font-size="10.00">erpc_serial_transport.hpp</text>
</a>
</g>
</g>
<!-- Node11&#45;&gt;Node18 -->
<g id="edge17" class="edge">
<title>Node11&#45;&gt;Node18</title>
<path fill="none" stroke="midnightblue" d="M1247.3,-71.21C1189.67,-61.08 1099.26,-45.11 1021,-31 1010.43,-29.09 999.08,-27.02 988.36,-25.06"/>
<polygon fill="midnightblue" stroke="midnightblue" points="1246.87,-74.68 1257.32,-72.97 1248.08,-67.79 1246.87,-74.68"/>
</g>
<!-- Node19 -->
<g id="node19" class="node">
<title>Node19</title>
<g id="a_node19"><a xlink:href="erpc__spi__master__transport_8hpp.html" target="_top" xlink:title=" ">
<polygon fill="white" stroke="black" points="1030.5,-6 1030.5,-25 1197.5,-25 1197.5,-6 1030.5,-6"/>
<text text-anchor="middle" x="1114" y="-13" font-family="Helvetica,sans-Serif" font-size="10.00">erpc_spi_master_transport.hpp</text>
</a>
</g>
</g>
<!-- Node11&#45;&gt;Node19 -->
<g id="edge18" class="edge">
<title>Node11&#45;&gt;Node19</title>
<path fill="none" stroke="midnightblue" d="M1270.85,-69.6C1232.79,-56.71 1173,-36.47 1139.3,-25.06"/>
<polygon fill="midnightblue" stroke="midnightblue" points="1269.91,-72.98 1280.5,-72.87 1272.15,-66.35 1269.91,-72.98"/>
</g>
<!-- Node11&#45;&gt;Node20 -->
<g id="edge19" class="edge">
<title>Node11&#45;&gt;Node20</title>
<path fill="none" stroke="midnightblue" d="M1356.69,-70.8C1417.3,-58.01 1517.54,-36.86 1573.33,-25.08"/>
<polygon fill="midnightblue" stroke="midnightblue" points="1355.64,-67.45 1346.58,-72.94 1357.09,-74.3 1355.64,-67.45"/>
</g>
<!-- Node21 -->
<g id="node21" class="node">
<title>Node21</title>
<g id="a_node21"><a xlink:href="erpc__spidev__master__transport_8hpp.html" target="_top" xlink:title=" ">
<polygon fill="white" stroke="black" points="1215.5,-0.5 1215.5,-30.5 1330.5,-30.5 1330.5,-0.5 1215.5,-0.5"/>
<text text-anchor="start" x="1223.5" y="-18.5" font-family="Helvetica,sans-Serif" font-size="10.00">erpc_spidev_master</text>
<text text-anchor="middle" x="1273" y="-7.5" font-family="Helvetica,sans-Serif" font-size="10.00">_transport.hpp</text>
</a>
</g>
</g>
<!-- Node11&#45;&gt;Node21 -->
<g id="edge20" class="edge">
<title>Node11&#45;&gt;Node21</title>
<path fill="none" stroke="midnightblue" d="M1296.97,-63.71C1291.68,-53.29 1285.08,-40.3 1280.15,-30.59"/>
<polygon fill="midnightblue" stroke="midnightblue" points="1293.9,-65.4 1301.55,-72.73 1300.14,-62.23 1293.9,-65.4"/>
</g>
<!-- Node22 -->
<g id="node22" class="node">
<title>Node22</title>
<g id="a_node22"><a xlink:href="erpc__tcp__transport_8hpp.html" target="_top" xlink:title=" ">
<polygon fill="white" stroke="black" points="1712,-6 1712,-25 1840,-25 1840,-6 1712,-6"/>
<text text-anchor="middle" x="1776" y="-13" font-family="Helvetica,sans-Serif" font-size="10.00">erpc_tcp_transport.hpp</text>
</a>
</g>
</g>
<!-- Node11&#45;&gt;Node22 -->
<g id="edge21" class="edge">
<title>Node11&#45;&gt;Node22</title>
<path fill="none" stroke="midnightblue" d="M1390.72,-72.35C1471.06,-63.28 1595.05,-48.28 1702,-31 1712.73,-29.27 1724.28,-27.13 1734.99,-25.04"/>
<polygon fill="midnightblue" stroke="midnightblue" points="1390.21,-68.89 1380.66,-73.48 1390.99,-75.84 1390.21,-68.89"/>
</g>
<!-- Node11&#45;&gt;Node23 -->
<g id="edge22" class="edge">
<title>Node11&#45;&gt;Node23</title>
<path fill="none" stroke="midnightblue" d="M1390.89,-73.08C1414.84,-70.89 1440.93,-68.68 1465,-67 1795.25,-43.96 1879.65,-64.55 2209,-31 2223.63,-29.51 2239.47,-27.28 2253.86,-25"/>
<polygon fill="midnightblue" stroke="midnightblue" points="1390.4,-69.61 1380.77,-74.02 1391.05,-76.58 1390.4,-69.61"/>
</g>
<!-- Node11&#45;&gt;Node24 -->
<g id="edge23" class="edge">
<title>Node11&#45;&gt;Node24</title>
<path fill="none" stroke="midnightblue" d="M1391.07,-73.72C1538.19,-60.25 1826.67,-33.74 1849,-31 1862.91,-29.29 1877.92,-27.15 1891.81,-25.03"/>
<polygon fill="midnightblue" stroke="midnightblue" points="1390.36,-70.27 1380.72,-74.67 1391,-77.24 1390.36,-70.27"/>
</g>
<!-- Node11&#45;&gt;Node25 -->
<g id="edge24" class="edge">
<title>Node11&#45;&gt;Node25</title>
<path fill="none" stroke="midnightblue" d="M1390.9,-73.31C1414.85,-71.12 1440.94,-68.85 1465,-67 1719.42,-47.41 1784.51,-60.25 2038,-31 2051.24,-29.47 2065.54,-27.28 2078.6,-25.06"/>
<polygon fill="midnightblue" stroke="midnightblue" points="1390.42,-69.84 1380.78,-74.24 1391.06,-76.81 1390.42,-69.84"/>
</g>
<!-- Node29&#45;&gt;Node6 -->
<g id="edge31" class="edge">
<title>Node29&#45;&gt;Node6</title>
<path fill="none" stroke="midnightblue" d="M1754.98,-136.8C1781.75,-127.97 1817.63,-114.57 1847,-98 1866.59,-86.95 1865.93,-74.86 1887,-67 2024.21,-15.83 2399.41,-46.8 2545,-31 2558.85,-29.5 2573.83,-27.29 2587.48,-25.04"/>
<polygon fill="midnightblue" stroke="midnightblue" points="1753.63,-133.56 1745.19,-139.96 1755.78,-140.22 1753.63,-133.56"/>
</g>
<!-- Node29&#45;&gt;Node11 -->
<g id="edge30" class="edge">
<title>Node29&#45;&gt;Node11</title>
<path fill="none" stroke="midnightblue" d="M1656.59,-139.08C1576.84,-126.44 1436.34,-104.16 1359.65,-92.01"/>
<polygon fill="midnightblue" stroke="midnightblue" points="1656.53,-142.61 1666.95,-140.72 1657.62,-135.7 1656.53,-142.61"/>
</g>
<!-- Node29&#45;&gt;Node13 -->
<g id="edge32" class="edge">
<title>Node29&#45;&gt;Node13</title>
<path fill="none" stroke="midnightblue" d="M1656.46,-148.96C1555.85,-148.41 1346.5,-141.52 1176,-98 1142.24,-89.38 1137.9,-75.04 1104,-67 839.74,-4.36 763.99,-60.4 494,-31 480,-29.48 464.88,-27.29 451.05,-25.07"/>
<polygon fill="midnightblue" stroke="midnightblue" points="1656.71,-152.46 1666.72,-149 1656.74,-145.46 1656.71,-152.46"/>
</g>
<!-- Node29&#45;&gt;Node14 -->
<g id="edge33" class="edge">
<title>Node29&#45;&gt;Node14</title>
<path fill="none" stroke="midnightblue" d="M1656.74,-146.35C1543.34,-141.6 1299.98,-128.14 1222,-98 1200.36,-89.64 1201.77,-75.03 1180,-67 1073.61,-27.77 783.62,-44.23 671,-31 657.62,-29.43 643.17,-27.25 629.93,-25.06"/>
<polygon fill="midnightblue" stroke="midnightblue" points="1656.83,-149.86 1666.97,-146.77 1657.12,-142.86 1656.83,-149.86"/>
</g>
<!-- Node29&#45;&gt;Node15 -->
<g id="edge35" class="edge">
<title>Node29&#45;&gt;Node15</title>
<path fill="none" stroke="midnightblue" d="M1697.02,-133.49C1684.63,-123.59 1668.18,-110.22 1654,-98 1638.51,-84.65 1637.93,-76.83 1620,-67 1580.19,-45.17 1530.37,-32.32 1492.16,-25.05"/>
<polygon fill="midnightblue" stroke="midnightblue" points="1694.87,-136.25 1704.87,-139.74 1699.23,-130.78 1694.87,-136.25"/>
</g>
<!-- Node29&#45;&gt;Node16 -->
<g id="edge36" class="edge">
<title>Node29&#45;&gt;Node16</title>
<path fill="none" stroke="midnightblue" d="M1656.49,-145.9C1523.92,-139.73 1207.85,-122.84 1104,-98 1068.52,-89.51 1063.61,-74.92 1028,-67 716.53,2.23 628.4,-63.62 311,-31 296.53,-29.51 280.88,-27.31 266.62,-25.06"/>
<polygon fill="midnightblue" stroke="midnightblue" points="1656.7,-149.41 1666.85,-146.38 1657.02,-142.42 1656.7,-149.41"/>
</g>
<!-- Node29&#45;&gt;Node20 -->
<g id="edge39" class="edge">
<title>Node29&#45;&gt;Node20</title>
<path fill="none" stroke="midnightblue" d="M1703.42,-131.76C1690.96,-115.24 1671.29,-89.28 1654,-67 1642.48,-52.16 1628.85,-35.05 1620.85,-25.04"/>
<polygon fill="midnightblue" stroke="midnightblue" points="1700.73,-134.01 1709.54,-139.89 1706.32,-129.8 1700.73,-134.01"/>
</g>
<!-- Node29&#45;&gt;Node22 -->
<g id="edge40" class="edge">
<title>Node29&#45;&gt;Node22</title>
<path fill="none" stroke="midnightblue" d="M1719.75,-129.31C1723.5,-112.36 1730.14,-87.26 1740,-67 1747.73,-51.12 1760.33,-34.86 1768.39,-25.23"/>
<polygon fill="midnightblue" stroke="midnightblue" points="1716.23,-129.08 1717.61,-139.58 1723.08,-130.51 1716.23,-129.08"/>
</g>
<!-- Node29&#45;&gt;Node23 -->
<g id="edge41" class="edge">
<title>Node29&#45;&gt;Node23</title>
<path fill="none" stroke="midnightblue" d="M1743.04,-135.36C1762.36,-125.68 1788.75,-111.84 1811,-98 1831,-85.55 1831.97,-75.36 1854,-67 2002.26,-10.71 2051.71,-51.22 2209,-31 2222.45,-29.27 2236.96,-27.14 2250.42,-25.05"/>
<polygon fill="midnightblue" stroke="midnightblue" points="1741.31,-132.31 1733.91,-139.89 1744.43,-138.58 1741.31,-132.31"/>
</g>
<!-- Node29&#45;&gt;Node24 -->
<g id="edge42" class="edge">
<title>Node29&#45;&gt;Node24</title>
<path fill="none" stroke="midnightblue" d="M1724.91,-131.09C1735.25,-112.57 1754,-83.7 1778,-67 1809.9,-44.81 1851.8,-32.16 1885.52,-25.07"/>
<polygon fill="midnightblue" stroke="midnightblue" points="1721.81,-129.47 1720.17,-139.94 1727.98,-132.78 1721.81,-129.47"/>
</g>
<!-- Node29&#45;&gt;Node25 -->
<g id="edge43" class="edge">
<title>Node29&#45;&gt;Node25</title>
<path fill="none" stroke="midnightblue" d="M1734.32,-133.59C1746.66,-123.54 1763.31,-109.97 1778,-98 1794.89,-84.23 1796.12,-75.94 1816,-67 1907.16,-26.01 1939.38,-47.31 2038,-31 2049.5,-29.1 2061.87,-27.03 2073.53,-25.06"/>
<polygon fill="midnightblue" stroke="midnightblue" points="1732.08,-130.9 1726.53,-139.92 1736.5,-136.32 1732.08,-130.9"/>
</g>
<!-- Node30 -->
<g id="node30" class="node">
<title>Node30</title>
<g id="a_node30"><a xlink:href="erpc__inter__thread__buffer__transport_8hpp.html" target="_top" xlink:title=" ">
<polygon fill="white" stroke="black" points="1474.5,-67.5 1474.5,-97.5 1611.5,-97.5 1611.5,-67.5 1474.5,-67.5"/>
<text text-anchor="start" x="1482.5" y="-85.5" font-family="Helvetica,sans-Serif" font-size="10.00">erpc_inter_thread_buffer</text>
<text text-anchor="middle" x="1543" y="-74.5" font-family="Helvetica,sans-Serif" font-size="10.00">_transport.hpp</text>
</a>
</g>
</g>
<!-- Node29&#45;&gt;Node30 -->
<g id="edge34" class="edge">
<title>Node29&#45;&gt;Node30</title>
<path fill="none" stroke="midnightblue" d="M1683.65,-136.35C1654.33,-125.33 1611.12,-109.09 1580.34,-97.53"/>
<polygon fill="midnightblue" stroke="midnightblue" points="1682.43,-139.63 1693.03,-139.87 1684.9,-133.07 1682.43,-139.63"/>
</g>
<!-- Node29&#45;&gt;Node31 -->
<g id="edge37" class="edge">
<title>Node29&#45;&gt;Node31</title>
<path fill="none" stroke="midnightblue" d="M1761.43,-137.56C1814.65,-124.75 1901.74,-103.78 1950.35,-92.08"/>
<polygon fill="midnightblue" stroke="midnightblue" points="1760.48,-134.19 1751.58,-139.94 1762.12,-141 1760.48,-134.19"/>
</g>
<!-- Node29&#45;&gt;Node32 -->
<g id="edge38" class="edge">
<title>Node29&#45;&gt;Node32</title>
<path fill="none" stroke="midnightblue" d="M1775.6,-141.38C1848.51,-132.43 1975.62,-116.04 2084,-98 2094.59,-96.24 2105.99,-94.12 2116.59,-92.05"/>
<polygon fill="midnightblue" stroke="midnightblue" points="1774.74,-137.96 1765.24,-142.65 1775.59,-144.91 1774.74,-137.96"/>
</g>
<!-- Node34&#45;&gt;Node17 -->
<g id="edge56" class="edge">
<title>Node34&#45;&gt;Node17</title>
<path fill="none" stroke="midnightblue" d="M716.1,-138.25C600.6,-118.66 341.84,-73.99 125,-31 122.08,-30.42 119.09,-29.82 116.08,-29.2"/>
<polygon fill="midnightblue" stroke="midnightblue" points="715.72,-141.74 726.16,-139.96 716.89,-134.84 715.72,-141.74"/>
</g>
<!-- Node35 -->
<g id="node35" class="node">
<title>Node35</title>
<g id="a_node35"><a xlink:href="erpc__rpmsg__lite__rtos__transport_8hpp.html" target="_top" xlink:title=" ">
<polygon fill="white" stroke="black" points="683.5,-67.5 683.5,-97.5 802.5,-97.5 802.5,-67.5 683.5,-67.5"/>
<text text-anchor="start" x="691.5" y="-85.5" font-family="Helvetica,sans-Serif" font-size="10.00">erpc_rpmsg_lite_rtos</text>
<text text-anchor="middle" x="743" y="-74.5" font-family="Helvetica,sans-Serif" font-size="10.00">_transport.hpp</text>
</a>
</g>
</g>
<!-- Node34&#45;&gt;Node35 -->
<g id="edge54" class="edge">
<title>Node34&#45;&gt;Node35</title>
<path fill="none" stroke="midnightblue" d="M767.7,-130.71C762.24,-120.29 755.45,-107.3 750.37,-97.59"/>
<polygon fill="midnightblue" stroke="midnightblue" points="764.68,-132.5 772.41,-139.73 770.88,-129.25 764.68,-132.5"/>
</g>
<!-- Node34&#45;&gt;Node36 -->
<g id="edge55" class="edge">
<title>Node34&#45;&gt;Node36</title>
<path fill="none" stroke="midnightblue" d="M802.64,-135.27C827.59,-122.4 864.8,-103.21 886.2,-92.17"/>
<polygon fill="midnightblue" stroke="midnightblue" points="801.01,-132.17 793.73,-139.87 804.22,-138.39 801.01,-132.17"/>
</g>
</g>
</svg>
