<?xml version="1.0" encoding="UTF-8" standalone="no"?>
<!DOCTYPE svg PUBLIC "-//W3C//DTD SVG 1.1//EN"
 "http://www.w3.org/Graphics/SVG/1.1/DTD/svg11.dtd">
<!-- Generated by graphviz version 2.43.0 (0)
 -->
<!-- Title: erpc_framed_transport.hpp Pages: 1 -->
<svg width="2392pt" height="95pt"
 viewBox="0.00 0.00 2391.50 95.00" xmlns="http://www.w3.org/2000/svg" xmlns:xlink="http://www.w3.org/1999/xlink">
<g id="graph0" class="graph" transform="scale(1 1) rotate(0) translate(4 91)">
<title>erpc_framed_transport.hpp</title>
<polygon fill="white" stroke="transparent" points="-4,4 -4,-91 2387.5,-91 2387.5,4 -4,4"/>
<!-- Node1 -->
<g id="node1" class="node">
<title>Node1</title>
<g id="a_node1"><a xlink:title=" ">
<polygon fill="#bfbfbf" stroke="black" points="1138,-67.5 1138,-86.5 1287,-86.5 1287,-67.5 1138,-67.5"/>
<text text-anchor="middle" x="1212.5" y="-74.5" font-family="Helvetica,sans-Serif" font-size="10.00">erpc_framed_transport.hpp</text>
</a>
</g>
</g>
<!-- Node2 -->
<g id="node2" class="node">
<title>Node2</title>
<g id="a_node2"><a xlink:href="erpc__dspi__master__transport_8hpp.html" target="_top" xlink:title=" ">
<polygon fill="white" stroke="black" points="0,-6 0,-25 173,-25 173,-6 0,-6"/>
<text text-anchor="middle" x="86.5" y="-13" font-family="Helvetica,sans-Serif" font-size="10.00">erpc_dspi_master_transport.hpp</text>
</a>
</g>
</g>
<!-- Node1&#45;&gt;Node2 -->
<g id="edge1" class="edge">
<title>Node1&#45;&gt;Node2</title>
<path fill="none" stroke="midnightblue" d="M1127.65,-75.39C951.13,-73.44 531.6,-65.26 181.5,-31 166.56,-29.54 150.38,-27.31 135.68,-25.04"/>
<polygon fill="midnightblue" stroke="midnightblue" points="1127.88,-78.89 1137.91,-75.5 1127.95,-71.89 1127.88,-78.89"/>
</g>
<!-- Node3 -->
<g id="node3" class="node">
<title>Node3</title>
<g id="a_node3"><a xlink:href="erpc__dspi__slave__transport_8hpp.html" target="_top" xlink:title=" ">
<polygon fill="white" stroke="black" points="191,-6 191,-25 356,-25 356,-6 191,-6"/>
<text text-anchor="middle" x="273.5" y="-13" font-family="Helvetica,sans-Serif" font-size="10.00">erpc_dspi_slave_transport.hpp</text>
</a>
</g>
</g>
<!-- Node1&#45;&gt;Node3 -->
<g id="edge2" class="edge">
<title>Node1&#45;&gt;Node3</title>
<path fill="none" stroke="midnightblue" d="M1127.74,-74.45C974.85,-70.99 642.89,-60.48 364.5,-31 350.34,-29.5 335.03,-27.29 321.08,-25.05"/>
<polygon fill="midnightblue" stroke="midnightblue" points="1127.92,-77.95 1137.99,-74.67 1128.07,-70.95 1127.92,-77.95"/>
</g>
<!-- Node4 -->
<g id="node4" class="node">
<title>Node4</title>
<g id="a_node4"><a xlink:href="erpc__i2c__slave__transport_8hpp.html" target="_top" xlink:title=" ">
<polygon fill="white" stroke="black" points="374,-6 374,-25 533,-25 533,-6 374,-6"/>
<text text-anchor="middle" x="453.5" y="-13" font-family="Helvetica,sans-Serif" font-size="10.00">erpc_i2c_slave_transport.hpp</text>
</a>
</g>
</g>
<!-- Node1&#45;&gt;Node4 -->
<g id="edge3" class="edge">
<title>Node1&#45;&gt;Node4</title>
<path fill="none" stroke="midnightblue" d="M1127.73,-72.94C1000.2,-67.73 751.54,-55.29 541.5,-31 527.96,-29.43 513.34,-27.23 499.97,-25.02"/>
<polygon fill="midnightblue" stroke="midnightblue" points="1127.68,-76.44 1137.82,-73.34 1127.97,-69.44 1127.68,-76.44"/>
</g>
<!-- Node5 -->
<g id="node5" class="node">
<title>Node5</title>
<g id="a_node5"><a xlink:href="erpc__lpi2c__slave__transport_8hpp.html" target="_top" xlink:title=" ">
<polygon fill="white" stroke="black" points="550.5,-6 550.5,-25 718.5,-25 718.5,-6 550.5,-6"/>
<text text-anchor="middle" x="634.5" y="-13" font-family="Helvetica,sans-Serif" font-size="10.00">erpc_lpi2c_slave_transport.hpp</text>
</a>
</g>
</g>
<!-- Node1&#45;&gt;Node5 -->
<g id="edge4" class="edge">
<title>Node1&#45;&gt;Node5</title>
<path fill="none" stroke="midnightblue" d="M1127.95,-69.76C1031.03,-62.23 867.51,-48.39 727.5,-31 713.88,-29.31 699.18,-27.16 685.59,-25.05"/>
<polygon fill="midnightblue" stroke="midnightblue" points="1127.74,-73.25 1137.98,-70.53 1128.28,-66.27 1127.74,-73.25"/>
</g>
<!-- Node6 -->
<g id="node6" class="node">
<title>Node6</title>
<g id="a_node6"><a xlink:href="erpc__lpspi__slave__transport_8hpp.html" target="_top" xlink:title=" ">
<polygon fill="white" stroke="black" points="736.5,-6 736.5,-25 904.5,-25 904.5,-6 736.5,-6"/>
<text text-anchor="middle" x="820.5" y="-13" font-family="Helvetica,sans-Serif" font-size="10.00">erpc_lpspi_slave_transport.hpp</text>
</a>
</g>
</g>
<!-- Node1&#45;&gt;Node6 -->
<g id="edge5" class="edge">
<title>Node1&#45;&gt;Node6</title>
<path fill="none" stroke="midnightblue" d="M1144.96,-65.94C1084.35,-56.89 992.96,-43.17 913.5,-31 901.06,-29.09 887.69,-27.02 875.08,-25.06"/>
<polygon fill="midnightblue" stroke="midnightblue" points="1144.76,-69.45 1155.17,-67.46 1145.79,-62.52 1144.76,-69.45"/>
</g>
<!-- Node7 -->
<g id="node7" class="node">
<title>Node7</title>
<g id="a_node7"><a xlink:href="erpc__rpmsg__tty__rtos__transport_8hpp.html" target="_top" xlink:title=" ">
<polygon fill="white" stroke="black" points="922.5,-0.5 922.5,-30.5 1038.5,-30.5 1038.5,-0.5 922.5,-0.5"/>
<text text-anchor="start" x="930.5" y="-18.5" font-family="Helvetica,sans-Serif" font-size="10.00">erpc_rpmsg_tty_rtos</text>
<text text-anchor="middle" x="980.5" y="-7.5" font-family="Helvetica,sans-Serif" font-size="10.00">_transport.hpp</text>
</a>
</g>
</g>
<!-- Node1&#45;&gt;Node7 -->
<g id="edge6" class="edge">
<title>Node1&#45;&gt;Node7</title>
<path fill="none" stroke="midnightblue" d="M1169.54,-64.98C1131.65,-55.27 1076.23,-41.05 1035.18,-30.52"/>
<polygon fill="midnightblue" stroke="midnightblue" points="1168.7,-68.38 1179.26,-67.48 1170.44,-61.6 1168.7,-68.38"/>
</g>
<!-- Node8 -->
<g id="node8" class="node">
<title>Node8</title>
<g id="a_node8"><a xlink:href="erpc__serial__transport_8hpp.html" target="_top" xlink:title=" ">
<polygon fill="white" stroke="black" points="1056.5,-6 1056.5,-25 1196.5,-25 1196.5,-6 1056.5,-6"/>
<text text-anchor="middle" x="1126.5" y="-13" font-family="Helvetica,sans-Serif" font-size="10.00">erpc_serial_transport.hpp</text>
</a>
</g>
</g>
<!-- Node1&#45;&gt;Node8 -->
<g id="edge7" class="edge">
<title>Node1&#45;&gt;Node8</title>
<path fill="none" stroke="midnightblue" d="M1191.7,-61.61C1175.16,-50.17 1152.58,-34.55 1138.8,-25.01"/>
<polygon fill="midnightblue" stroke="midnightblue" points="1189.96,-64.66 1200.18,-67.48 1193.95,-58.91 1189.96,-64.66"/>
</g>
<!-- Node9 -->
<g id="node9" class="node">
<title>Node9</title>
<g id="a_node9"><a xlink:href="erpc__spi__master__transport_8hpp.html" target="_top" xlink:title=" ">
<polygon fill="white" stroke="black" points="1215,-6 1215,-25 1382,-25 1382,-6 1215,-6"/>
<text text-anchor="middle" x="1298.5" y="-13" font-family="Helvetica,sans-Serif" font-size="10.00">erpc_spi_master_transport.hpp</text>
</a>
</g>
</g>
<!-- Node1&#45;&gt;Node9 -->
<g id="edge8" class="edge">
<title>Node1&#45;&gt;Node9</title>
<path fill="none" stroke="midnightblue" d="M1233.3,-61.61C1249.84,-50.17 1272.42,-34.55 1286.2,-25.01"/>
<polygon fill="midnightblue" stroke="midnightblue" points="1231.05,-58.91 1224.82,-67.48 1235.04,-64.66 1231.05,-58.91"/>
</g>
<!-- Node10 -->
<g id="node10" class="node">
<title>Node10</title>
<g id="a_node10"><a xlink:href="erpc__spi__slave__transport_8hpp.html" target="_top" xlink:title=" ">
<polygon fill="white" stroke="black" points="1400,-6 1400,-25 1559,-25 1559,-6 1400,-6"/>
<text text-anchor="middle" x="1479.5" y="-13" font-family="Helvetica,sans-Serif" font-size="10.00">erpc_spi_slave_transport.hpp</text>
</a>
</g>
</g>
<!-- Node1&#45;&gt;Node10 -->
<g id="edge9" class="edge">
<title>Node1&#45;&gt;Node10</title>
<path fill="none" stroke="midnightblue" d="M1260.7,-65.26C1312.5,-53.72 1393.77,-35.61 1441.32,-25.01"/>
<polygon fill="midnightblue" stroke="midnightblue" points="1259.75,-61.88 1250.75,-67.48 1261.28,-68.72 1259.75,-61.88"/>
</g>
<!-- Node11 -->
<g id="node11" class="node">
<title>Node11</title>
<g id="a_node11"><a xlink:href="erpc__spidev__master__transport_8hpp.html" target="_top" xlink:title=" ">
<polygon fill="white" stroke="black" points="1577,-0.5 1577,-30.5 1692,-30.5 1692,-0.5 1577,-0.5"/>
<text text-anchor="start" x="1585" y="-18.5" font-family="Helvetica,sans-Serif" font-size="10.00">erpc_spidev_master</text>
<text text-anchor="middle" x="1634.5" y="-7.5" font-family="Helvetica,sans-Serif" font-size="10.00">_transport.hpp</text>
</a>
</g>
</g>
<!-- Node1&#45;&gt;Node11 -->
<g id="edge10" class="edge">
<title>Node1&#45;&gt;Node11</title>
<path fill="none" stroke="midnightblue" d="M1297.09,-67.49C1369.42,-59.69 1476.16,-46.95 1568.5,-31 1571.27,-30.52 1574.11,-30 1576.97,-29.46"/>
<polygon fill="midnightblue" stroke="midnightblue" points="1296.68,-64.01 1287.11,-68.56 1297.43,-70.97 1296.68,-64.01"/>
</g>
<!-- Node12 -->
<g id="node12" class="node">
<title>Node12</title>
<g id="a_node12"><a xlink:href="erpc__tcp__transport_8hpp.html" target="_top" xlink:title=" ">
<polygon fill="white" stroke="black" points="1710.5,-6 1710.5,-25 1838.5,-25 1838.5,-6 1710.5,-6"/>
<text text-anchor="middle" x="1774.5" y="-13" font-family="Helvetica,sans-Serif" font-size="10.00">erpc_tcp_transport.hpp</text>
</a>
</g>
</g>
<!-- Node1&#45;&gt;Node12 -->
<g id="edge11" class="edge">
<title>Node1&#45;&gt;Node12</title>
<path fill="none" stroke="midnightblue" d="M1297.47,-70.88C1395.26,-64.36 1560.52,-51.43 1701.5,-31 1712.63,-29.39 1724.62,-27.2 1735.61,-25.01"/>
<polygon fill="midnightblue" stroke="midnightblue" points="1297.09,-67.4 1287.35,-71.55 1297.55,-74.38 1297.09,-67.4"/>
</g>
<!-- Node13 -->
<g id="node13" class="node">
<title>Node13</title>
<g id="a_node13"><a xlink:href="erpc__uart__cmsis__transport_8hpp.html" target="_top" xlink:title=" ">
<polygon fill="white" stroke="black" points="1857,-6 1857,-25 2024,-25 2024,-6 1857,-6"/>
<text text-anchor="middle" x="1940.5" y="-13" font-family="Helvetica,sans-Serif" font-size="10.00">erpc_uart_cmsis_transport.hpp</text>
</a>
</g>
</g>
<!-- Node1&#45;&gt;Node13 -->
<g id="edge12" class="edge">
<title>Node1&#45;&gt;Node13</title>
<path fill="none" stroke="midnightblue" d="M1297.49,-72.25C1419.5,-66.35 1651.23,-53.22 1847.5,-31 1861.63,-29.4 1876.89,-27.21 1890.89,-25.02"/>
<polygon fill="midnightblue" stroke="midnightblue" points="1297.29,-68.75 1287.47,-72.73 1297.62,-75.75 1297.29,-68.75"/>
</g>
<!-- Node14 -->
<g id="node14" class="node">
<title>Node14</title>
<g id="a_node14"><a xlink:href="erpc__uart__zephyr__transport_8hpp.html" target="_top" xlink:title=" ">
<polygon fill="white" stroke="black" points="2042,-6 2042,-25 2213,-25 2213,-6 2042,-6"/>
<text text-anchor="middle" x="2127.5" y="-13" font-family="Helvetica,sans-Serif" font-size="10.00">erpc_uart_zephyr_transport.hpp</text>
</a>
</g>
</g>
<!-- Node1&#45;&gt;Node14 -->
<g id="edge13" class="edge">
<title>Node1&#45;&gt;Node14</title>
<path fill="none" stroke="midnightblue" d="M1297.13,-74.1C1446.27,-70.15 1765.46,-58.95 2033.5,-31 2048.12,-29.48 2063.93,-27.26 2078.34,-25.02"/>
<polygon fill="midnightblue" stroke="midnightblue" points="1297.03,-70.6 1287.13,-74.36 1297.21,-77.6 1297.03,-70.6"/>
</g>
<!-- Node15 -->
<g id="node15" class="node">
<title>Node15</title>
<g id="a_node15"><a xlink:href="erpc__usb__cdc__transport_8hpp.html" target="_top" xlink:title=" ">
<polygon fill="white" stroke="black" points="2231.5,-6 2231.5,-25 2383.5,-25 2383.5,-6 2231.5,-6"/>
<text text-anchor="middle" x="2307.5" y="-13" font-family="Helvetica,sans-Serif" font-size="10.00">erpc_usb_cdc_transport.hpp</text>
</a>
</g>
</g>
<!-- Node1&#45;&gt;Node15 -->
<g id="edge14" class="edge">
<title>Node1&#45;&gt;Node15</title>
<path fill="none" stroke="midnightblue" d="M1297.29,-75.78C1471.26,-74.54 1880.91,-67.6 2222.5,-31 2235.9,-29.56 2250.38,-27.35 2263.53,-25.07"/>
<polygon fill="midnightblue" stroke="midnightblue" points="1297.16,-72.28 1287.18,-75.85 1297.2,-79.28 1297.16,-72.28"/>
</g>
</g>
</svg>
