<?xml version="1.0" encoding="UTF-8" standalone="no"?>
<!DOCTYPE svg PUBLIC "-//W3C//DTD SVG 1.1//EN"
 "http://www.w3.org/Graphics/SVG/1.1/DTD/svg11.dtd">
<!-- Generated by graphviz version 2.43.0 (0)
 -->
<!-- Title: erpc_usb_cdc_transport.hpp Pages: 1 -->
<svg width="603pt" height="263pt"
 viewBox="0.00 0.00 603.00 263.00" xmlns="http://www.w3.org/2000/svg" xmlns:xlink="http://www.w3.org/1999/xlink">
<g id="graph0" class="graph" transform="scale(1 1) rotate(0) translate(4 259)">
<title>erpc_usb_cdc_transport.hpp</title>
<polygon fill="white" stroke="transparent" points="-4,4 -4,-259 599,-259 599,4 -4,4"/>
<!-- Node1 -->
<g id="node1" class="node">
<title>Node1</title>
<g id="a_node1"><a xlink:title=" ">
<polygon fill="#bfbfbf" stroke="black" points="221,-235.5 221,-254.5 373,-254.5 373,-235.5 221,-235.5"/>
<text text-anchor="middle" x="297" y="-242.5" font-family="Helvetica,sans-Serif" font-size="10.00">erpc_usb_cdc_transport.hpp</text>
</a>
</g>
</g>
<!-- Node2 -->
<g id="node2" class="node">
<title>Node2</title>
<g id="a_node2"><a xlink:href="erpc__config__internal_8h_source.html" target="_top" xlink:title=" ">
<polygon fill="white" stroke="black" points="55.5,-56.5 55.5,-75.5 180.5,-75.5 180.5,-56.5 55.5,-56.5"/>
<text text-anchor="middle" x="118" y="-63.5" font-family="Helvetica,sans-Serif" font-size="10.00">erpc_config_internal.h</text>
</a>
</g>
</g>
<!-- Node1&#45;&gt;Node2 -->
<g id="edge1" class="edge">
<title>Node1&#45;&gt;Node2</title>
<path fill="none" stroke="midnightblue" d="M269.59,-235.41C248.26,-227.9 218.58,-215.6 196,-199 164.03,-175.5 156.13,-166.76 137,-132 129.03,-117.52 124.08,-99.33 121.24,-85.88"/>
<polygon fill="midnightblue" stroke="midnightblue" points="124.65,-85.05 119.33,-75.88 117.77,-86.36 124.65,-85.05"/>
</g>
<!-- Node5 -->
<g id="node5" class="node">
<title>Node5</title>
<g id="a_node5"><a xlink:title=" ">
<polygon fill="white" stroke="#bfbfbf" points="389,-174 389,-193 435,-193 435,-174 389,-174"/>
<text text-anchor="middle" x="412" y="-181" font-family="Helvetica,sans-Serif" font-size="10.00">cstdio</text>
</a>
</g>
</g>
<!-- Node1&#45;&gt;Node5 -->
<g id="edge4" class="edge">
<title>Node1&#45;&gt;Node5</title>
<path fill="none" stroke="midnightblue" d="M313.48,-235.48C332.61,-225.58 364.37,-209.14 386.65,-197.62"/>
<polygon fill="midnightblue" stroke="midnightblue" points="388.28,-200.71 395.55,-193.01 385.06,-194.5 388.28,-200.71"/>
</g>
<!-- Node6 -->
<g id="node6" class="node">
<title>Node6</title>
<g id="a_node6"><a xlink:href="erpc__threading_8h.html" target="_top" xlink:title=" ">
<polygon fill="white" stroke="black" points="146,-112.5 146,-131.5 244,-131.5 244,-112.5 146,-112.5"/>
<text text-anchor="middle" x="195" y="-119.5" font-family="Helvetica,sans-Serif" font-size="10.00">erpc_threading.h</text>
</a>
</g>
</g>
<!-- Node1&#45;&gt;Node6 -->
<g id="edge5" class="edge">
<title>Node1&#45;&gt;Node6</title>
<path fill="none" stroke="midnightblue" d="M267.98,-235.36C249.57,-228.42 226.72,-216.83 213,-199 200.37,-182.58 196.4,-158.7 195.26,-142.1"/>
<polygon fill="midnightblue" stroke="midnightblue" points="198.75,-141.81 194.85,-131.96 191.76,-142.1 198.75,-141.81"/>
</g>
<!-- Node8 -->
<g id="node8" class="node">
<title>Node8</title>
<g id="a_node8"><a xlink:href="erpc__framed__transport_8hpp.html" target="_top" xlink:title=" ">
<polygon fill="white" stroke="black" points="222.5,-174 222.5,-193 371.5,-193 371.5,-174 222.5,-174"/>
<text text-anchor="middle" x="297" y="-181" font-family="Helvetica,sans-Serif" font-size="10.00">erpc_framed_transport.hpp</text>
</a>
</g>
</g>
<!-- Node1&#45;&gt;Node8 -->
<g id="edge8" class="edge">
<title>Node1&#45;&gt;Node8</title>
<path fill="none" stroke="midnightblue" d="M297,-235.48C297,-227.08 297,-213.98 297,-203.16"/>
<polygon fill="midnightblue" stroke="midnightblue" points="300.5,-203.01 297,-193.01 293.5,-203.01 300.5,-203.01"/>
</g>
<!-- Node16 -->
<g id="node16" class="node">
<title>Node16</title>
<g id="a_node16"><a xlink:title=" ">
<polygon fill="white" stroke="#bfbfbf" points="453.5,-168.5 453.5,-198.5 574.5,-198.5 574.5,-168.5 453.5,-168.5"/>
<text text-anchor="start" x="461.5" y="-186.5" font-family="Helvetica,sans-Serif" font-size="10.00">fsl_component_serial</text>
<text text-anchor="middle" x="514" y="-175.5" font-family="Helvetica,sans-Serif" font-size="10.00">_manager.h</text>
</a>
</g>
</g>
<!-- Node1&#45;&gt;Node16 -->
<g id="edge22" class="edge">
<title>Node1&#45;&gt;Node16</title>
<path fill="none" stroke="midnightblue" d="M328.09,-235.48C360.57,-226.57 412.36,-212.37 453.04,-201.22"/>
<polygon fill="midnightblue" stroke="midnightblue" points="454.14,-204.54 462.86,-198.52 452.29,-197.79 454.14,-204.54"/>
</g>
<!-- Node3 -->
<g id="node3" class="node">
<title>Node3</title>
<g id="a_node3"><a xlink:href="erpc__config_8h.html" target="_top" xlink:title=" ">
<polygon fill="white" stroke="black" points="0,-0.5 0,-19.5 82,-19.5 82,-0.5 0,-0.5"/>
<text text-anchor="middle" x="41" y="-7.5" font-family="Helvetica,sans-Serif" font-size="10.00">erpc_config.h</text>
</a>
</g>
</g>
<!-- Node2&#45;&gt;Node3 -->
<g id="edge2" class="edge">
<title>Node2&#45;&gt;Node3</title>
<path fill="none" stroke="midnightblue" d="M105.63,-56.32C93.84,-48.06 75.87,-35.45 61.86,-25.63"/>
<polygon fill="midnightblue" stroke="midnightblue" points="63.54,-22.53 53.34,-19.65 59.52,-28.26 63.54,-22.53"/>
</g>
<!-- Node4 -->
<g id="node4" class="node">
<title>Node4</title>
<g id="a_node4"><a xlink:title=" ">
<polygon fill="white" stroke="#bfbfbf" points="100,-0.5 100,-19.5 152,-19.5 152,-0.5 100,-0.5"/>
<text text-anchor="middle" x="126" y="-7.5" font-family="Helvetica,sans-Serif" font-size="10.00">cassert</text>
</a>
</g>
</g>
<!-- Node2&#45;&gt;Node4 -->
<g id="edge3" class="edge">
<title>Node2&#45;&gt;Node4</title>
<path fill="none" stroke="midnightblue" d="M119.32,-56.08C120.38,-48.93 121.91,-38.64 123.23,-29.69"/>
<polygon fill="midnightblue" stroke="midnightblue" points="126.7,-30.16 124.7,-19.75 119.78,-29.13 126.7,-30.16"/>
</g>
<!-- Node6&#45;&gt;Node2 -->
<g id="edge6" class="edge">
<title>Node6&#45;&gt;Node2</title>
<path fill="none" stroke="midnightblue" d="M182.63,-112.32C170.84,-104.06 152.87,-91.45 138.86,-81.63"/>
<polygon fill="midnightblue" stroke="midnightblue" points="140.54,-78.53 130.34,-75.65 136.52,-84.26 140.54,-78.53"/>
</g>
<!-- Node7 -->
<g id="node7" class="node">
<title>Node7</title>
<g id="a_node7"><a xlink:title=" ">
<polygon fill="white" stroke="#bfbfbf" points="194.5,-0.5 194.5,-19.5 247.5,-19.5 247.5,-0.5 194.5,-0.5"/>
<text text-anchor="middle" x="221" y="-7.5" font-family="Helvetica,sans-Serif" font-size="10.00">stdint.h</text>
</a>
</g>
</g>
<!-- Node6&#45;&gt;Node7 -->
<g id="edge7" class="edge">
<title>Node6&#45;&gt;Node7</title>
<path fill="none" stroke="midnightblue" d="M197.04,-112.37C201.24,-94.62 210.92,-53.67 216.6,-29.6"/>
<polygon fill="midnightblue" stroke="midnightblue" points="220.08,-30.13 218.97,-19.59 213.26,-28.52 220.08,-30.13"/>
</g>
<!-- Node8&#45;&gt;Node2 -->
<g id="edge9" class="edge">
<title>Node8&#45;&gt;Node2</title>
<path fill="none" stroke="midnightblue" d="M293.85,-173.77C288.05,-158.94 274.31,-128.79 253,-112 231.94,-95.4 204.46,-84.79 179.81,-78.07"/>
<polygon fill="midnightblue" stroke="midnightblue" points="180.35,-74.6 169.8,-75.51 178.62,-81.38 180.35,-74.6"/>
</g>
<!-- Node8&#45;&gt;Node6 -->
<g id="edge21" class="edge">
<title>Node8&#45;&gt;Node6</title>
<path fill="none" stroke="midnightblue" d="M282.39,-173.98C265.65,-164.21 238,-148.08 218.28,-136.58"/>
<polygon fill="midnightblue" stroke="midnightblue" points="219.99,-133.52 209.59,-131.51 216.46,-139.57 219.99,-133.52"/>
</g>
<!-- Node9 -->
<g id="node9" class="node">
<title>Node9</title>
<g id="a_node9"><a xlink:href="erpc__message__buffer_8hpp.html" target="_top" xlink:title=" ">
<polygon fill="white" stroke="black" points="237.5,-56.5 237.5,-75.5 380.5,-75.5 380.5,-56.5 237.5,-56.5"/>
<text text-anchor="middle" x="309" y="-63.5" font-family="Helvetica,sans-Serif" font-size="10.00">erpc_message_buffer.hpp</text>
</a>
</g>
</g>
<!-- Node8&#45;&gt;Node9 -->
<g id="edge10" class="edge">
<title>Node8&#45;&gt;Node9</title>
<path fill="none" stroke="midnightblue" d="M297.9,-173.82C299.83,-155.26 304.39,-111.34 307.03,-85.97"/>
<polygon fill="midnightblue" stroke="midnightblue" points="310.54,-86.09 308.09,-75.78 303.57,-85.37 310.54,-86.09"/>
</g>
<!-- Node12 -->
<g id="node12" class="node">
<title>Node12</title>
<g id="a_node12"><a xlink:href="erpc__transport_8hpp.html" target="_top" xlink:title=" ">
<polygon fill="white" stroke="black" points="355,-112.5 355,-131.5 463,-131.5 463,-112.5 355,-112.5"/>
<text text-anchor="middle" x="409" y="-119.5" font-family="Helvetica,sans-Serif" font-size="10.00">erpc_transport.hpp</text>
</a>
</g>
</g>
<!-- Node8&#45;&gt;Node12 -->
<g id="edge14" class="edge">
<title>Node8&#45;&gt;Node12</title>
<path fill="none" stroke="midnightblue" d="M313.05,-173.98C331.59,-164.12 362.34,-147.79 384.02,-136.27"/>
<polygon fill="midnightblue" stroke="midnightblue" points="385.79,-139.29 392.98,-131.51 382.51,-133.11 385.79,-139.29"/>
</g>
<!-- Node15 -->
<g id="node15" class="node">
<title>Node15</title>
<g id="a_node15"><a xlink:title=" ">
<polygon fill="white" stroke="#bfbfbf" points="545,-56.5 545,-75.5 595,-75.5 595,-56.5 545,-56.5"/>
<text text-anchor="middle" x="570" y="-63.5" font-family="Helvetica,sans-Serif" font-size="10.00">cstring</text>
</a>
</g>
</g>
<!-- Node8&#45;&gt;Node15 -->
<g id="edge20" class="edge">
<title>Node8&#45;&gt;Node15</title>
<path fill="none" stroke="midnightblue" d="M340.02,-173.94C376.27,-165.83 428.95,-151.92 472,-132 501.59,-118.31 532.4,-96.4 551.4,-81.86"/>
<polygon fill="midnightblue" stroke="midnightblue" points="553.74,-84.47 559.48,-75.57 549.44,-78.95 553.74,-84.47"/>
</g>
<!-- Node9&#45;&gt;Node7 -->
<g id="edge13" class="edge">
<title>Node9&#45;&gt;Node7</title>
<path fill="none" stroke="midnightblue" d="M294.86,-56.32C281.13,-47.9 260.06,-34.97 243.94,-25.07"/>
<polygon fill="midnightblue" stroke="midnightblue" points="245.46,-21.9 235.1,-19.65 241.8,-27.87 245.46,-21.9"/>
</g>
<!-- Node10 -->
<g id="node10" class="node">
<title>Node10</title>
<g id="a_node10"><a xlink:href="erpc__common_8h_source.html" target="_top" xlink:title=" ">
<polygon fill="white" stroke="black" points="348.5,-0.5 348.5,-19.5 443.5,-19.5 443.5,-0.5 348.5,-0.5"/>
<text text-anchor="middle" x="396" y="-7.5" font-family="Helvetica,sans-Serif" font-size="10.00">erpc_common.h</text>
</a>
</g>
</g>
<!-- Node9&#45;&gt;Node10 -->
<g id="edge11" class="edge">
<title>Node9&#45;&gt;Node10</title>
<path fill="none" stroke="midnightblue" d="M322.98,-56.32C336.55,-47.9 357.38,-34.97 373.32,-25.07"/>
<polygon fill="midnightblue" stroke="midnightblue" points="375.41,-27.9 382.06,-19.65 371.71,-21.95 375.41,-27.9"/>
</g>
<!-- Node11 -->
<g id="node11" class="node">
<title>Node11</title>
<g id="a_node11"><a xlink:title=" ">
<polygon fill="white" stroke="#bfbfbf" points="277.5,-0.5 277.5,-19.5 330.5,-19.5 330.5,-0.5 277.5,-0.5"/>
<text text-anchor="middle" x="304" y="-7.5" font-family="Helvetica,sans-Serif" font-size="10.00">cstddef</text>
</a>
</g>
</g>
<!-- Node9&#45;&gt;Node11 -->
<g id="edge12" class="edge">
<title>Node9&#45;&gt;Node11</title>
<path fill="none" stroke="midnightblue" d="M308.17,-56.08C307.52,-49.01 306.58,-38.86 305.76,-29.99"/>
<polygon fill="midnightblue" stroke="midnightblue" points="309.22,-29.39 304.81,-19.75 302.25,-30.03 309.22,-29.39"/>
</g>
<!-- Node12&#45;&gt;Node9 -->
<g id="edge18" class="edge">
<title>Node12&#45;&gt;Node9</title>
<path fill="none" stroke="midnightblue" d="M392.93,-112.32C377.04,-103.74 352.49,-90.49 334.04,-80.52"/>
<polygon fill="midnightblue" stroke="midnightblue" points="335.49,-77.33 325.03,-75.65 332.16,-83.49 335.49,-77.33"/>
</g>
<!-- Node12&#45;&gt;Node10 -->
<g id="edge15" class="edge">
<title>Node12&#45;&gt;Node10</title>
<path fill="none" stroke="midnightblue" d="M407.98,-112.37C405.88,-94.62 401.04,-53.67 398.2,-29.6"/>
<polygon fill="midnightblue" stroke="midnightblue" points="401.66,-29.11 397.02,-19.59 394.71,-29.93 401.66,-29.11"/>
</g>
<!-- Node13 -->
<g id="node13" class="node">
<title>Node13</title>
<g id="a_node13"><a xlink:href="erpc__crc16_8hpp.html" target="_top" xlink:title=" ">
<polygon fill="white" stroke="black" points="437,-56.5 437,-75.5 527,-75.5 527,-56.5 437,-56.5"/>
<text text-anchor="middle" x="482" y="-63.5" font-family="Helvetica,sans-Serif" font-size="10.00">erpc_crc16.hpp</text>
</a>
</g>
</g>
<!-- Node12&#45;&gt;Node13 -->
<g id="edge16" class="edge">
<title>Node12&#45;&gt;Node13</title>
<path fill="none" stroke="midnightblue" d="M420.73,-112.32C431.84,-104.11 448.74,-91.6 461.98,-81.81"/>
<polygon fill="midnightblue" stroke="midnightblue" points="464.1,-84.59 470.06,-75.83 459.94,-78.97 464.1,-84.59"/>
</g>
<!-- Node12&#45;&gt;Node15 -->
<g id="edge19" class="edge">
<title>Node12&#45;&gt;Node15</title>
<path fill="none" stroke="midnightblue" d="M434.51,-112.44C461.68,-103.33 504.84,-88.85 535.14,-78.69"/>
<polygon fill="midnightblue" stroke="midnightblue" points="536.51,-81.93 544.87,-75.43 534.28,-75.29 536.51,-81.93"/>
</g>
<!-- Node14 -->
<g id="node14" class="node">
<title>Node14</title>
<g id="a_node14"><a xlink:title=" ">
<polygon fill="white" stroke="#bfbfbf" points="462,-0.5 462,-19.5 512,-19.5 512,-0.5 462,-0.5"/>
<text text-anchor="middle" x="487" y="-7.5" font-family="Helvetica,sans-Serif" font-size="10.00">cstdint</text>
</a>
</g>
</g>
<!-- Node13&#45;&gt;Node14 -->
<g id="edge17" class="edge">
<title>Node13&#45;&gt;Node14</title>
<path fill="none" stroke="midnightblue" d="M482.83,-56.08C483.48,-49.01 484.42,-38.86 485.24,-29.99"/>
<polygon fill="midnightblue" stroke="midnightblue" points="488.75,-30.03 486.19,-19.75 481.78,-29.39 488.75,-30.03"/>
</g>
</g>
</svg>
