<?xml version="1.0" encoding="UTF-8" standalone="no"?>
<!DOCTYPE svg PUBLIC "-//W3C//DTD SVG 1.1//EN"
 "http://www.w3.org/Graphics/SVG/1.1/DTD/svg11.dtd">
<!-- Generated by graphviz version 2.43.0 (0)
 -->
<!-- Title: erpc_mbox_zephyr_transport.hpp Pages: 1 -->
<svg width="799pt" height="196pt"
 viewBox="0.00 0.00 799.00 196.00" xmlns="http://www.w3.org/2000/svg" xmlns:xlink="http://www.w3.org/1999/xlink">
<g id="graph0" class="graph" transform="scale(1 1) rotate(0) translate(4 192)">
<title>erpc_mbox_zephyr_transport.hpp</title>
<polygon fill="white" stroke="transparent" points="-4,4 -4,-192 795,-192 795,4 -4,4"/>
<!-- Node1 -->
<g id="node1" class="node">
<title>Node1</title>
<g id="a_node1"><a xlink:title=" ">
<polygon fill="#bfbfbf" stroke="black" points="328.5,-168.5 328.5,-187.5 507.5,-187.5 507.5,-168.5 328.5,-168.5"/>
<text text-anchor="middle" x="418" y="-175.5" font-family="Helvetica,sans-Serif" font-size="10.00">erpc_mbox_zephyr_transport.hpp</text>
</a>
</g>
</g>
<!-- Node2 -->
<g id="node2" class="node">
<title>Node2</title>
<g id="a_node2"><a xlink:href="erpc__config__internal_8h_source.html" target="_top" xlink:title=" ">
<polygon fill="white" stroke="black" points="55.5,-56.5 55.5,-75.5 180.5,-75.5 180.5,-56.5 55.5,-56.5"/>
<text text-anchor="middle" x="118" y="-63.5" font-family="Helvetica,sans-Serif" font-size="10.00">erpc_config_internal.h</text>
</a>
</g>
</g>
<!-- Node1&#45;&gt;Node2 -->
<g id="edge1" class="edge">
<title>Node1&#45;&gt;Node2</title>
<path fill="none" stroke="midnightblue" d="M328.47,-170.54C262.17,-164.19 178.74,-152.4 151,-132 135.74,-120.78 127.04,-100.46 122.45,-85.52"/>
<polygon fill="midnightblue" stroke="midnightblue" points="125.81,-84.52 119.8,-75.79 119.05,-86.36 125.81,-84.52"/>
</g>
<!-- Node5 -->
<g id="node5" class="node">
<title>Node5</title>
<g id="a_node5"><a xlink:href="erpc__threading_8h.html" target="_top" xlink:title=" ">
<polygon fill="white" stroke="black" points="160,-112.5 160,-131.5 258,-131.5 258,-112.5 160,-112.5"/>
<text text-anchor="middle" x="209" y="-119.5" font-family="Helvetica,sans-Serif" font-size="10.00">erpc_threading.h</text>
</a>
</g>
</g>
<!-- Node1&#45;&gt;Node5 -->
<g id="edge4" class="edge">
<title>Node1&#45;&gt;Node5</title>
<path fill="none" stroke="midnightblue" d="M384.88,-168.44C348.88,-159.14 291.23,-144.25 251.81,-134.06"/>
<polygon fill="midnightblue" stroke="midnightblue" points="252.52,-130.63 241.96,-131.52 250.77,-137.41 252.52,-130.63"/>
</g>
<!-- Node7 -->
<g id="node7" class="node">
<title>Node7</title>
<g id="a_node7"><a xlink:href="erpc__transport_8hpp.html" target="_top" xlink:title=" ">
<polygon fill="white" stroke="black" points="315,-112.5 315,-131.5 423,-131.5 423,-112.5 315,-112.5"/>
<text text-anchor="middle" x="369" y="-119.5" font-family="Helvetica,sans-Serif" font-size="10.00">erpc_transport.hpp</text>
</a>
</g>
</g>
<!-- Node1&#45;&gt;Node7 -->
<g id="edge7" class="edge">
<title>Node1&#45;&gt;Node7</title>
<path fill="none" stroke="midnightblue" d="M409.91,-168.08C402.84,-160.3 392.41,-148.8 383.85,-139.37"/>
<polygon fill="midnightblue" stroke="midnightblue" points="386.25,-136.8 376.94,-131.75 381.07,-141.51 386.25,-136.8"/>
</g>
<!-- Node14 -->
<g id="node14" class="node">
<title>Node14</title>
<g id="a_node14"><a xlink:title=" ">
<polygon fill="white" stroke="#bfbfbf" points="441.5,-112.5 441.5,-131.5 494.5,-131.5 494.5,-112.5 441.5,-112.5"/>
<text text-anchor="middle" x="468" y="-119.5" font-family="Helvetica,sans-Serif" font-size="10.00">stdlib.h</text>
</a>
</g>
</g>
<!-- Node1&#45;&gt;Node14 -->
<g id="edge16" class="edge">
<title>Node1&#45;&gt;Node14</title>
<path fill="none" stroke="midnightblue" d="M426.26,-168.08C433.46,-160.3 444.11,-148.8 452.85,-139.37"/>
<polygon fill="midnightblue" stroke="midnightblue" points="455.67,-141.47 459.9,-131.75 450.53,-136.71 455.67,-141.47"/>
</g>
<!-- Node15 -->
<g id="node15" class="node">
<title>Node15</title>
<g id="a_node15"><a xlink:title=" ">
<polygon fill="white" stroke="#bfbfbf" points="513,-112.5 513,-131.5 639,-131.5 639,-112.5 513,-112.5"/>
<text text-anchor="middle" x="576" y="-119.5" font-family="Helvetica,sans-Serif" font-size="10.00">zephyr/drivers/mbox.h</text>
</a>
</g>
</g>
<!-- Node1&#45;&gt;Node15 -->
<g id="edge17" class="edge">
<title>Node1&#45;&gt;Node15</title>
<path fill="none" stroke="midnightblue" d="M443.04,-168.44C469.62,-159.36 511.81,-144.94 541.52,-134.78"/>
<polygon fill="midnightblue" stroke="midnightblue" points="542.75,-138.06 551.08,-131.52 540.49,-131.44 542.75,-138.06"/>
</g>
<!-- Node16 -->
<g id="node16" class="node">
<title>Node16</title>
<g id="a_node16"><a xlink:title=" ">
<polygon fill="white" stroke="#bfbfbf" points="657,-112.5 657,-131.5 791,-131.5 791,-112.5 657,-112.5"/>
<text text-anchor="middle" x="724" y="-119.5" font-family="Helvetica,sans-Serif" font-size="10.00">zephyr/sys/ring_buffer.h</text>
</a>
</g>
</g>
<!-- Node1&#45;&gt;Node16 -->
<g id="edge18" class="edge">
<title>Node1&#45;&gt;Node16</title>
<path fill="none" stroke="midnightblue" d="M466.49,-168.44C520.54,-158.9 607.93,-143.48 665.67,-133.29"/>
<polygon fill="midnightblue" stroke="midnightblue" points="666.5,-136.7 675.74,-131.52 665.28,-129.81 666.5,-136.7"/>
</g>
<!-- Node3 -->
<g id="node3" class="node">
<title>Node3</title>
<g id="a_node3"><a xlink:href="erpc__config_8h.html" target="_top" xlink:title=" ">
<polygon fill="white" stroke="black" points="0,-0.5 0,-19.5 82,-19.5 82,-0.5 0,-0.5"/>
<text text-anchor="middle" x="41" y="-7.5" font-family="Helvetica,sans-Serif" font-size="10.00">erpc_config.h</text>
</a>
</g>
</g>
<!-- Node2&#45;&gt;Node3 -->
<g id="edge2" class="edge">
<title>Node2&#45;&gt;Node3</title>
<path fill="none" stroke="midnightblue" d="M105.63,-56.32C93.84,-48.06 75.87,-35.45 61.86,-25.63"/>
<polygon fill="midnightblue" stroke="midnightblue" points="63.54,-22.53 53.34,-19.65 59.52,-28.26 63.54,-22.53"/>
</g>
<!-- Node4 -->
<g id="node4" class="node">
<title>Node4</title>
<g id="a_node4"><a xlink:title=" ">
<polygon fill="white" stroke="#bfbfbf" points="100,-0.5 100,-19.5 152,-19.5 152,-0.5 100,-0.5"/>
<text text-anchor="middle" x="126" y="-7.5" font-family="Helvetica,sans-Serif" font-size="10.00">cassert</text>
</a>
</g>
</g>
<!-- Node2&#45;&gt;Node4 -->
<g id="edge3" class="edge">
<title>Node2&#45;&gt;Node4</title>
<path fill="none" stroke="midnightblue" d="M119.32,-56.08C120.38,-48.93 121.91,-38.64 123.23,-29.69"/>
<polygon fill="midnightblue" stroke="midnightblue" points="126.7,-30.16 124.7,-19.75 119.78,-29.13 126.7,-30.16"/>
</g>
<!-- Node5&#45;&gt;Node2 -->
<g id="edge5" class="edge">
<title>Node5&#45;&gt;Node2</title>
<path fill="none" stroke="midnightblue" d="M194.38,-112.32C180.05,-103.82 157.99,-90.73 141.25,-80.8"/>
<polygon fill="midnightblue" stroke="midnightblue" points="142.97,-77.75 132.58,-75.65 139.4,-83.77 142.97,-77.75"/>
</g>
<!-- Node6 -->
<g id="node6" class="node">
<title>Node6</title>
<g id="a_node6"><a xlink:title=" ">
<polygon fill="white" stroke="#bfbfbf" points="194.5,-0.5 194.5,-19.5 247.5,-19.5 247.5,-0.5 194.5,-0.5"/>
<text text-anchor="middle" x="221" y="-7.5" font-family="Helvetica,sans-Serif" font-size="10.00">stdint.h</text>
</a>
</g>
</g>
<!-- Node5&#45;&gt;Node6 -->
<g id="edge6" class="edge">
<title>Node5&#45;&gt;Node6</title>
<path fill="none" stroke="midnightblue" d="M209.94,-112.37C211.88,-94.62 216.35,-53.67 218.97,-29.6"/>
<polygon fill="midnightblue" stroke="midnightblue" points="222.46,-29.91 220.06,-19.59 215.5,-29.15 222.46,-29.91"/>
</g>
<!-- Node8 -->
<g id="node8" class="node">
<title>Node8</title>
<g id="a_node8"><a xlink:href="erpc__common_8h_source.html" target="_top" xlink:title=" ">
<polygon fill="white" stroke="black" points="348.5,-0.5 348.5,-19.5 443.5,-19.5 443.5,-0.5 348.5,-0.5"/>
<text text-anchor="middle" x="396" y="-7.5" font-family="Helvetica,sans-Serif" font-size="10.00">erpc_common.h</text>
</a>
</g>
</g>
<!-- Node7&#45;&gt;Node8 -->
<g id="edge8" class="edge">
<title>Node7&#45;&gt;Node8</title>
<path fill="none" stroke="midnightblue" d="M374.12,-112.38C379.09,-103.56 386.4,-89.31 390,-76 394.12,-60.77 395.54,-42.88 395.97,-29.73"/>
<polygon fill="midnightblue" stroke="midnightblue" points="399.47,-29.64 396.14,-19.58 392.47,-29.52 399.47,-29.64"/>
</g>
<!-- Node9 -->
<g id="node9" class="node">
<title>Node9</title>
<g id="a_node9"><a xlink:href="erpc__crc16_8hpp.html" target="_top" xlink:title=" ">
<polygon fill="white" stroke="black" points="437,-56.5 437,-75.5 527,-75.5 527,-56.5 437,-56.5"/>
<text text-anchor="middle" x="482" y="-63.5" font-family="Helvetica,sans-Serif" font-size="10.00">erpc_crc16.hpp</text>
</a>
</g>
</g>
<!-- Node7&#45;&gt;Node9 -->
<g id="edge9" class="edge">
<title>Node7&#45;&gt;Node9</title>
<path fill="none" stroke="midnightblue" d="M386.91,-112.44C405.25,-103.68 434.01,-89.94 455.09,-79.86"/>
<polygon fill="midnightblue" stroke="midnightblue" points="456.67,-82.99 464.18,-75.52 453.65,-76.67 456.67,-82.99"/>
</g>
<!-- Node11 -->
<g id="node11" class="node">
<title>Node11</title>
<g id="a_node11"><a xlink:href="erpc__message__buffer_8hpp.html" target="_top" xlink:title=" ">
<polygon fill="white" stroke="black" points="237.5,-56.5 237.5,-75.5 380.5,-75.5 380.5,-56.5 237.5,-56.5"/>
<text text-anchor="middle" x="309" y="-63.5" font-family="Helvetica,sans-Serif" font-size="10.00">erpc_message_buffer.hpp</text>
</a>
</g>
</g>
<!-- Node7&#45;&gt;Node11 -->
<g id="edge11" class="edge">
<title>Node7&#45;&gt;Node11</title>
<path fill="none" stroke="midnightblue" d="M359.36,-112.32C350.49,-104.34 337.13,-92.31 326.39,-82.65"/>
<polygon fill="midnightblue" stroke="midnightblue" points="328.59,-79.92 318.82,-75.83 323.91,-85.13 328.59,-79.92"/>
</g>
<!-- Node13 -->
<g id="node13" class="node">
<title>Node13</title>
<g id="a_node13"><a xlink:title=" ">
<polygon fill="white" stroke="#bfbfbf" points="545,-56.5 545,-75.5 595,-75.5 595,-56.5 545,-56.5"/>
<text text-anchor="middle" x="570" y="-63.5" font-family="Helvetica,sans-Serif" font-size="10.00">cstring</text>
</a>
</g>
</g>
<!-- Node7&#45;&gt;Node13 -->
<g id="edge15" class="edge">
<title>Node7&#45;&gt;Node13</title>
<path fill="none" stroke="midnightblue" d="M400.85,-112.44C437.38,-102.63 497.08,-86.59 534.91,-76.43"/>
<polygon fill="midnightblue" stroke="midnightblue" points="536.22,-79.7 544.97,-73.73 534.4,-72.94 536.22,-79.7"/>
</g>
<!-- Node10 -->
<g id="node10" class="node">
<title>Node10</title>
<g id="a_node10"><a xlink:title=" ">
<polygon fill="white" stroke="#bfbfbf" points="462,-0.5 462,-19.5 512,-19.5 512,-0.5 462,-0.5"/>
<text text-anchor="middle" x="487" y="-7.5" font-family="Helvetica,sans-Serif" font-size="10.00">cstdint</text>
</a>
</g>
</g>
<!-- Node9&#45;&gt;Node10 -->
<g id="edge10" class="edge">
<title>Node9&#45;&gt;Node10</title>
<path fill="none" stroke="midnightblue" d="M482.83,-56.08C483.48,-49.01 484.42,-38.86 485.24,-29.99"/>
<polygon fill="midnightblue" stroke="midnightblue" points="488.75,-30.03 486.19,-19.75 481.78,-29.39 488.75,-30.03"/>
</g>
<!-- Node11&#45;&gt;Node6 -->
<g id="edge14" class="edge">
<title>Node11&#45;&gt;Node6</title>
<path fill="none" stroke="midnightblue" d="M294.86,-56.32C281.13,-47.9 260.06,-34.97 243.94,-25.07"/>
<polygon fill="midnightblue" stroke="midnightblue" points="245.46,-21.9 235.1,-19.65 241.8,-27.87 245.46,-21.9"/>
</g>
<!-- Node11&#45;&gt;Node8 -->
<g id="edge12" class="edge">
<title>Node11&#45;&gt;Node8</title>
<path fill="none" stroke="midnightblue" d="M322.98,-56.32C336.55,-47.9 357.38,-34.97 373.32,-25.07"/>
<polygon fill="midnightblue" stroke="midnightblue" points="375.41,-27.9 382.06,-19.65 371.71,-21.95 375.41,-27.9"/>
</g>
<!-- Node12 -->
<g id="node12" class="node">
<title>Node12</title>
<g id="a_node12"><a xlink:title=" ">
<polygon fill="white" stroke="#bfbfbf" points="277.5,-0.5 277.5,-19.5 330.5,-19.5 330.5,-0.5 277.5,-0.5"/>
<text text-anchor="middle" x="304" y="-7.5" font-family="Helvetica,sans-Serif" font-size="10.00">cstddef</text>
</a>
</g>
</g>
<!-- Node11&#45;&gt;Node12 -->
<g id="edge13" class="edge">
<title>Node11&#45;&gt;Node12</title>
<path fill="none" stroke="midnightblue" d="M308.17,-56.08C307.52,-49.01 306.58,-38.86 305.76,-29.99"/>
<polygon fill="midnightblue" stroke="midnightblue" points="309.22,-29.39 304.81,-19.75 302.25,-30.03 309.22,-29.39"/>
</g>
</g>
</svg>
