<?xml version="1.0" encoding="UTF-8" standalone="no"?>
<!DOCTYPE svg PUBLIC "-//W3C//DTD SVG 1.1//EN"
 "http://www.w3.org/Graphics/SVG/1.1/DTD/svg11.dtd">
<!-- Generated by graphviz version 2.43.0 (0)
 -->
<!-- Title: erpc_serial_transport.hpp Pages: 1 -->
<svg width="603pt" height="252pt"
 viewBox="0.00 0.00 603.00 252.00" xmlns="http://www.w3.org/2000/svg" xmlns:xlink="http://www.w3.org/1999/xlink">
<g id="graph0" class="graph" transform="scale(1 1) rotate(0) translate(4 248)">
<title>erpc_serial_transport.hpp</title>
<polygon fill="white" stroke="transparent" points="-4,4 -4,-248 599,-248 599,4 -4,4"/>
<!-- Node1 -->
<g id="node1" class="node">
<title>Node1</title>
<g id="a_node1"><a xlink:title=" ">
<polygon fill="#bfbfbf" stroke="black" points="353,-224.5 353,-243.5 493,-243.5 493,-224.5 353,-224.5"/>
<text text-anchor="middle" x="423" y="-231.5" font-family="Helvetica,sans-Serif" font-size="10.00">erpc_serial_transport.hpp</text>
</a>
</g>
</g>
<!-- Node2 -->
<g id="node2" class="node">
<title>Node2</title>
<g id="a_node2"><a xlink:href="erpc__framed__transport_8hpp.html" target="_top" xlink:title=" ">
<polygon fill="white" stroke="black" points="234.5,-168.5 234.5,-187.5 383.5,-187.5 383.5,-168.5 234.5,-168.5"/>
<text text-anchor="middle" x="309" y="-175.5" font-family="Helvetica,sans-Serif" font-size="10.00">erpc_framed_transport.hpp</text>
</a>
</g>
</g>
<!-- Node1&#45;&gt;Node2 -->
<g id="edge1" class="edge">
<title>Node1&#45;&gt;Node2</title>
<path fill="none" stroke="midnightblue" d="M404.94,-224.44C386.43,-215.68 357.42,-201.94 336.14,-191.86"/>
<polygon fill="midnightblue" stroke="midnightblue" points="337.51,-188.63 326.98,-187.52 334.52,-194.96 337.51,-188.63"/>
</g>
<!-- Node15 -->
<g id="node15" class="node">
<title>Node15</title>
<g id="a_node15"><a xlink:title=" ">
<polygon fill="white" stroke="#bfbfbf" points="401,-168.5 401,-187.5 445,-187.5 445,-168.5 401,-168.5"/>
<text text-anchor="middle" x="423" y="-175.5" font-family="Helvetica,sans-Serif" font-size="10.00">string</text>
</a>
</g>
</g>
<!-- Node1&#45;&gt;Node15 -->
<g id="edge19" class="edge">
<title>Node1&#45;&gt;Node15</title>
<path fill="none" stroke="midnightblue" d="M423,-224.08C423,-217.01 423,-206.86 423,-197.99"/>
<polygon fill="midnightblue" stroke="midnightblue" points="426.5,-197.75 423,-187.75 419.5,-197.75 426.5,-197.75"/>
</g>
<!-- Node16 -->
<g id="node16" class="node">
<title>Node16</title>
<g id="a_node16"><a xlink:title=" ">
<polygon fill="white" stroke="#bfbfbf" points="463.5,-168.5 463.5,-187.5 526.5,-187.5 526.5,-168.5 463.5,-168.5"/>
<text text-anchor="middle" x="495" y="-175.5" font-family="Helvetica,sans-Serif" font-size="10.00">termios.h</text>
</a>
</g>
</g>
<!-- Node1&#45;&gt;Node16 -->
<g id="edge20" class="edge">
<title>Node1&#45;&gt;Node16</title>
<path fill="none" stroke="midnightblue" d="M434.57,-224.32C445.42,-216.18 461.88,-203.84 474.88,-194.09"/>
<polygon fill="midnightblue" stroke="midnightblue" points="477.32,-196.63 483.22,-187.83 473.12,-191.03 477.32,-196.63"/>
</g>
<!-- Node3 -->
<g id="node3" class="node">
<title>Node3</title>
<g id="a_node3"><a xlink:href="erpc__config__internal_8h_source.html" target="_top" xlink:title=" ">
<polygon fill="white" stroke="black" points="55.5,-56.5 55.5,-75.5 180.5,-75.5 180.5,-56.5 55.5,-56.5"/>
<text text-anchor="middle" x="118" y="-63.5" font-family="Helvetica,sans-Serif" font-size="10.00">erpc_config_internal.h</text>
</a>
</g>
</g>
<!-- Node2&#45;&gt;Node3 -->
<g id="edge2" class="edge">
<title>Node2&#45;&gt;Node3</title>
<path fill="none" stroke="midnightblue" d="M234.27,-168.65C205.72,-162.35 174.44,-151.32 151,-132 136.52,-120.07 127.75,-100.17 122.92,-85.52"/>
<polygon fill="midnightblue" stroke="midnightblue" points="126.17,-84.16 119.98,-75.56 119.46,-86.15 126.17,-84.16"/>
</g>
<!-- Node6 -->
<g id="node6" class="node">
<title>Node6</title>
<g id="a_node6"><a xlink:href="erpc__message__buffer_8hpp.html" target="_top" xlink:title=" ">
<polygon fill="white" stroke="black" points="237.5,-56.5 237.5,-75.5 380.5,-75.5 380.5,-56.5 237.5,-56.5"/>
<text text-anchor="middle" x="309" y="-63.5" font-family="Helvetica,sans-Serif" font-size="10.00">erpc_message_buffer.hpp</text>
</a>
</g>
</g>
<!-- Node2&#45;&gt;Node6 -->
<g id="edge5" class="edge">
<title>Node2&#45;&gt;Node6</title>
<path fill="none" stroke="midnightblue" d="M309,-168.37C309,-150.62 309,-109.67 309,-85.6"/>
<polygon fill="midnightblue" stroke="midnightblue" points="312.5,-85.59 309,-75.59 305.5,-85.59 312.5,-85.59"/>
</g>
<!-- Node10 -->
<g id="node10" class="node">
<title>Node10</title>
<g id="a_node10"><a xlink:href="erpc__transport_8hpp.html" target="_top" xlink:title=" ">
<polygon fill="white" stroke="black" points="355,-112.5 355,-131.5 463,-131.5 463,-112.5 355,-112.5"/>
<text text-anchor="middle" x="409" y="-119.5" font-family="Helvetica,sans-Serif" font-size="10.00">erpc_transport.hpp</text>
</a>
</g>
</g>
<!-- Node2&#45;&gt;Node10 -->
<g id="edge9" class="edge">
<title>Node2&#45;&gt;Node10</title>
<path fill="none" stroke="midnightblue" d="M325.07,-168.32C340.96,-159.74 365.51,-146.49 383.96,-136.52"/>
<polygon fill="midnightblue" stroke="midnightblue" points="385.84,-139.49 392.97,-131.65 382.51,-133.33 385.84,-139.49"/>
</g>
<!-- Node13 -->
<g id="node13" class="node">
<title>Node13</title>
<g id="a_node13"><a xlink:title=" ">
<polygon fill="white" stroke="#bfbfbf" points="545,-56.5 545,-75.5 595,-75.5 595,-56.5 545,-56.5"/>
<text text-anchor="middle" x="570" y="-63.5" font-family="Helvetica,sans-Serif" font-size="10.00">cstring</text>
</a>
</g>
</g>
<!-- Node2&#45;&gt;Node13 -->
<g id="edge15" class="edge">
<title>Node2&#45;&gt;Node13</title>
<path fill="none" stroke="midnightblue" d="M354.61,-168.46C388.06,-161.24 434.06,-149.28 472,-132 501.67,-118.48 532.46,-96.53 551.43,-81.93"/>
<polygon fill="midnightblue" stroke="midnightblue" points="553.78,-84.53 559.5,-75.61 549.47,-79.02 553.78,-84.53"/>
</g>
<!-- Node14 -->
<g id="node14" class="node">
<title>Node14</title>
<g id="a_node14"><a xlink:href="erpc__threading_8h.html" target="_top" xlink:title=" ">
<polygon fill="white" stroke="black" points="160,-112.5 160,-131.5 258,-131.5 258,-112.5 160,-112.5"/>
<text text-anchor="middle" x="209" y="-119.5" font-family="Helvetica,sans-Serif" font-size="10.00">erpc_threading.h</text>
</a>
</g>
</g>
<!-- Node2&#45;&gt;Node14 -->
<g id="edge16" class="edge">
<title>Node2&#45;&gt;Node14</title>
<path fill="none" stroke="midnightblue" d="M292.93,-168.32C277.04,-159.74 252.49,-146.49 234.04,-136.52"/>
<polygon fill="midnightblue" stroke="midnightblue" points="235.49,-133.33 225.03,-131.65 232.16,-139.49 235.49,-133.33"/>
</g>
<!-- Node4 -->
<g id="node4" class="node">
<title>Node4</title>
<g id="a_node4"><a xlink:href="erpc__config_8h.html" target="_top" xlink:title=" ">
<polygon fill="white" stroke="black" points="0,-0.5 0,-19.5 82,-19.5 82,-0.5 0,-0.5"/>
<text text-anchor="middle" x="41" y="-7.5" font-family="Helvetica,sans-Serif" font-size="10.00">erpc_config.h</text>
</a>
</g>
</g>
<!-- Node3&#45;&gt;Node4 -->
<g id="edge3" class="edge">
<title>Node3&#45;&gt;Node4</title>
<path fill="none" stroke="midnightblue" d="M105.63,-56.32C93.84,-48.06 75.87,-35.45 61.86,-25.63"/>
<polygon fill="midnightblue" stroke="midnightblue" points="63.54,-22.53 53.34,-19.65 59.52,-28.26 63.54,-22.53"/>
</g>
<!-- Node5 -->
<g id="node5" class="node">
<title>Node5</title>
<g id="a_node5"><a xlink:title=" ">
<polygon fill="white" stroke="#bfbfbf" points="100,-0.5 100,-19.5 152,-19.5 152,-0.5 100,-0.5"/>
<text text-anchor="middle" x="126" y="-7.5" font-family="Helvetica,sans-Serif" font-size="10.00">cassert</text>
</a>
</g>
</g>
<!-- Node3&#45;&gt;Node5 -->
<g id="edge4" class="edge">
<title>Node3&#45;&gt;Node5</title>
<path fill="none" stroke="midnightblue" d="M119.32,-56.08C120.38,-48.93 121.91,-38.64 123.23,-29.69"/>
<polygon fill="midnightblue" stroke="midnightblue" points="126.7,-30.16 124.7,-19.75 119.78,-29.13 126.7,-30.16"/>
</g>
<!-- Node7 -->
<g id="node7" class="node">
<title>Node7</title>
<g id="a_node7"><a xlink:href="erpc__common_8h_source.html" target="_top" xlink:title=" ">
<polygon fill="white" stroke="black" points="348.5,-0.5 348.5,-19.5 443.5,-19.5 443.5,-0.5 348.5,-0.5"/>
<text text-anchor="middle" x="396" y="-7.5" font-family="Helvetica,sans-Serif" font-size="10.00">erpc_common.h</text>
</a>
</g>
</g>
<!-- Node6&#45;&gt;Node7 -->
<g id="edge6" class="edge">
<title>Node6&#45;&gt;Node7</title>
<path fill="none" stroke="midnightblue" d="M322.98,-56.32C336.55,-47.9 357.38,-34.97 373.32,-25.07"/>
<polygon fill="midnightblue" stroke="midnightblue" points="375.41,-27.9 382.06,-19.65 371.71,-21.95 375.41,-27.9"/>
</g>
<!-- Node8 -->
<g id="node8" class="node">
<title>Node8</title>
<g id="a_node8"><a xlink:title=" ">
<polygon fill="white" stroke="#bfbfbf" points="277.5,-0.5 277.5,-19.5 330.5,-19.5 330.5,-0.5 277.5,-0.5"/>
<text text-anchor="middle" x="304" y="-7.5" font-family="Helvetica,sans-Serif" font-size="10.00">cstddef</text>
</a>
</g>
</g>
<!-- Node6&#45;&gt;Node8 -->
<g id="edge7" class="edge">
<title>Node6&#45;&gt;Node8</title>
<path fill="none" stroke="midnightblue" d="M308.17,-56.08C307.52,-49.01 306.58,-38.86 305.76,-29.99"/>
<polygon fill="midnightblue" stroke="midnightblue" points="309.22,-29.39 304.81,-19.75 302.25,-30.03 309.22,-29.39"/>
</g>
<!-- Node9 -->
<g id="node9" class="node">
<title>Node9</title>
<g id="a_node9"><a xlink:title=" ">
<polygon fill="white" stroke="#bfbfbf" points="194.5,-0.5 194.5,-19.5 247.5,-19.5 247.5,-0.5 194.5,-0.5"/>
<text text-anchor="middle" x="221" y="-7.5" font-family="Helvetica,sans-Serif" font-size="10.00">stdint.h</text>
</a>
</g>
</g>
<!-- Node6&#45;&gt;Node9 -->
<g id="edge8" class="edge">
<title>Node6&#45;&gt;Node9</title>
<path fill="none" stroke="midnightblue" d="M294.86,-56.32C281.13,-47.9 260.06,-34.97 243.94,-25.07"/>
<polygon fill="midnightblue" stroke="midnightblue" points="245.46,-21.9 235.1,-19.65 241.8,-27.87 245.46,-21.9"/>
</g>
<!-- Node10&#45;&gt;Node6 -->
<g id="edge13" class="edge">
<title>Node10&#45;&gt;Node6</title>
<path fill="none" stroke="midnightblue" d="M392.93,-112.32C377.04,-103.74 352.49,-90.49 334.04,-80.52"/>
<polygon fill="midnightblue" stroke="midnightblue" points="335.49,-77.33 325.03,-75.65 332.16,-83.49 335.49,-77.33"/>
</g>
<!-- Node10&#45;&gt;Node7 -->
<g id="edge10" class="edge">
<title>Node10&#45;&gt;Node7</title>
<path fill="none" stroke="midnightblue" d="M407.98,-112.37C405.88,-94.62 401.04,-53.67 398.2,-29.6"/>
<polygon fill="midnightblue" stroke="midnightblue" points="401.66,-29.11 397.02,-19.59 394.71,-29.93 401.66,-29.11"/>
</g>
<!-- Node11 -->
<g id="node11" class="node">
<title>Node11</title>
<g id="a_node11"><a xlink:href="erpc__crc16_8hpp.html" target="_top" xlink:title=" ">
<polygon fill="white" stroke="black" points="437,-56.5 437,-75.5 527,-75.5 527,-56.5 437,-56.5"/>
<text text-anchor="middle" x="482" y="-63.5" font-family="Helvetica,sans-Serif" font-size="10.00">erpc_crc16.hpp</text>
</a>
</g>
</g>
<!-- Node10&#45;&gt;Node11 -->
<g id="edge11" class="edge">
<title>Node10&#45;&gt;Node11</title>
<path fill="none" stroke="midnightblue" d="M420.73,-112.32C431.84,-104.11 448.74,-91.6 461.98,-81.81"/>
<polygon fill="midnightblue" stroke="midnightblue" points="464.1,-84.59 470.06,-75.83 459.94,-78.97 464.1,-84.59"/>
</g>
<!-- Node10&#45;&gt;Node13 -->
<g id="edge14" class="edge">
<title>Node10&#45;&gt;Node13</title>
<path fill="none" stroke="midnightblue" d="M434.51,-112.44C461.68,-103.33 504.84,-88.85 535.14,-78.69"/>
<polygon fill="midnightblue" stroke="midnightblue" points="536.51,-81.93 544.87,-75.43 534.28,-75.29 536.51,-81.93"/>
</g>
<!-- Node12 -->
<g id="node12" class="node">
<title>Node12</title>
<g id="a_node12"><a xlink:title=" ">
<polygon fill="white" stroke="#bfbfbf" points="462,-0.5 462,-19.5 512,-19.5 512,-0.5 462,-0.5"/>
<text text-anchor="middle" x="487" y="-7.5" font-family="Helvetica,sans-Serif" font-size="10.00">cstdint</text>
</a>
</g>
</g>
<!-- Node11&#45;&gt;Node12 -->
<g id="edge12" class="edge">
<title>Node11&#45;&gt;Node12</title>
<path fill="none" stroke="midnightblue" d="M482.83,-56.08C483.48,-49.01 484.42,-38.86 485.24,-29.99"/>
<polygon fill="midnightblue" stroke="midnightblue" points="488.75,-30.03 486.19,-19.75 481.78,-29.39 488.75,-30.03"/>
</g>
<!-- Node14&#45;&gt;Node3 -->
<g id="edge17" class="edge">
<title>Node14&#45;&gt;Node3</title>
<path fill="none" stroke="midnightblue" d="M194.38,-112.32C180.05,-103.82 157.99,-90.73 141.25,-80.8"/>
<polygon fill="midnightblue" stroke="midnightblue" points="142.97,-77.75 132.58,-75.65 139.4,-83.77 142.97,-77.75"/>
</g>
<!-- Node14&#45;&gt;Node9 -->
<g id="edge18" class="edge">
<title>Node14&#45;&gt;Node9</title>
<path fill="none" stroke="midnightblue" d="M209.94,-112.37C211.88,-94.62 216.35,-53.67 218.97,-29.6"/>
<polygon fill="midnightblue" stroke="midnightblue" points="222.46,-29.91 220.06,-19.59 215.5,-29.15 222.46,-29.91"/>
</g>
</g>
</svg>
