<?xml version="1.0" encoding="UTF-8" standalone="no"?>
<!DOCTYPE svg PUBLIC "-//W3C//DTD SVG 1.1//EN"
 "http://www.w3.org/Graphics/SVG/1.1/DTD/svg11.dtd">
<!-- Generated by graphviz version 2.43.0 (0)
 -->
<!-- Title: erpc_rpmsg_lite_transport.hpp Pages: 1 -->
<svg width="828pt" height="196pt"
 viewBox="0.00 0.00 827.50 196.00" xmlns="http://www.w3.org/2000/svg" xmlns:xlink="http://www.w3.org/1999/xlink">
<g id="graph0" class="graph" transform="scale(1 1) rotate(0) translate(4 192)">
<title>erpc_rpmsg_lite_transport.hpp</title>
<polygon fill="white" stroke="transparent" points="-4,4 -4,-192 823.5,-192 823.5,4 -4,4"/>
<!-- Node1 -->
<g id="node1" class="node">
<title>Node1</title>
<g id="a_node1"><a xlink:title=" ">
<polygon fill="#bfbfbf" stroke="black" points="351.5,-168.5 351.5,-187.5 516.5,-187.5 516.5,-168.5 351.5,-168.5"/>
<text text-anchor="middle" x="434" y="-175.5" font-family="Helvetica,sans-Serif" font-size="10.00">erpc_rpmsg_lite_transport.hpp</text>
</a>
</g>
</g>
<!-- Node2 -->
<g id="node2" class="node">
<title>Node2</title>
<g id="a_node2"><a xlink:href="erpc__config__internal_8h_source.html" target="_top" xlink:title=" ">
<polygon fill="white" stroke="black" points="20.5,-56.5 20.5,-75.5 145.5,-75.5 145.5,-56.5 20.5,-56.5"/>
<text text-anchor="middle" x="83" y="-63.5" font-family="Helvetica,sans-Serif" font-size="10.00">erpc_config_internal.h</text>
</a>
</g>
</g>
<!-- Node1&#45;&gt;Node2 -->
<g id="edge1" class="edge">
<title>Node1&#45;&gt;Node2</title>
<path fill="none" stroke="midnightblue" d="M351.5,-176.32C293.39,-172.93 215.17,-162.31 153,-132 129.82,-120.7 108.98,-99.15 96.18,-83.97"/>
<polygon fill="midnightblue" stroke="midnightblue" points="98.64,-81.45 89.62,-75.89 93.21,-85.86 98.64,-81.45"/>
</g>
<!-- Node5 -->
<g id="node5" class="node">
<title>Node5</title>
<g id="a_node5"><a xlink:href="erpc__crc16_8hpp.html" target="_top" xlink:title=" ">
<polygon fill="white" stroke="black" points="506,-56.5 506,-75.5 596,-75.5 596,-56.5 506,-56.5"/>
<text text-anchor="middle" x="551" y="-63.5" font-family="Helvetica,sans-Serif" font-size="10.00">erpc_crc16.hpp</text>
</a>
</g>
</g>
<!-- Node1&#45;&gt;Node5 -->
<g id="edge4" class="edge">
<title>Node1&#45;&gt;Node5</title>
<path fill="none" stroke="midnightblue" d="M451.97,-168.41C467.45,-160.43 489.79,-147.47 506,-132 520.54,-118.12 533.17,-98.85 541.32,-84.9"/>
<polygon fill="midnightblue" stroke="midnightblue" points="544.57,-86.26 546.42,-75.83 538.47,-82.83 544.57,-86.26"/>
</g>
<!-- Node7 -->
<g id="node7" class="node">
<title>Node7</title>
<g id="a_node7"><a xlink:href="erpc__message__buffer_8hpp.html" target="_top" xlink:title=" ">
<polygon fill="white" stroke="black" points="652.5,-56.5 652.5,-75.5 795.5,-75.5 795.5,-56.5 652.5,-56.5"/>
<text text-anchor="middle" x="724" y="-63.5" font-family="Helvetica,sans-Serif" font-size="10.00">erpc_message_buffer.hpp</text>
</a>
</g>
</g>
<!-- Node1&#45;&gt;Node7 -->
<g id="edge6" class="edge">
<title>Node1&#45;&gt;Node7</title>
<path fill="none" stroke="midnightblue" d="M516.68,-174.92C564.32,-170.51 623.75,-159.29 670,-132 689.28,-120.63 704.76,-99.72 714.12,-84.69"/>
<polygon fill="midnightblue" stroke="midnightblue" points="717.29,-86.2 719.37,-75.81 711.26,-82.64 717.29,-86.2"/>
</g>
<!-- Node11 -->
<g id="node11" class="node">
<title>Node11</title>
<g id="a_node11"><a xlink:href="erpc__rpmsg__lite__base_8hpp.html" target="_top" xlink:title=" ">
<polygon fill="white" stroke="black" points="162,-112.5 162,-131.5 306,-131.5 306,-112.5 162,-112.5"/>
<text text-anchor="middle" x="234" y="-119.5" font-family="Helvetica,sans-Serif" font-size="10.00">erpc_rpmsg_lite_base.hpp</text>
</a>
</g>
</g>
<!-- Node1&#45;&gt;Node11 -->
<g id="edge10" class="edge">
<title>Node1&#45;&gt;Node11</title>
<path fill="none" stroke="midnightblue" d="M402.31,-168.44C367.93,-159.16 312.92,-144.31 275.21,-134.13"/>
<polygon fill="midnightblue" stroke="midnightblue" points="276.11,-130.74 265.54,-131.52 274.28,-137.5 276.11,-130.74"/>
</g>
<!-- Node13 -->
<g id="node13" class="node">
<title>Node13</title>
<g id="a_node13"><a xlink:title=" ">
<polygon fill="white" stroke="#bfbfbf" points="304.5,-56.5 304.5,-75.5 381.5,-75.5 381.5,-56.5 304.5,-56.5"/>
<text text-anchor="middle" x="343" y="-63.5" font-family="Helvetica,sans-Serif" font-size="10.00">rpmsg_lite.h</text>
</a>
</g>
</g>
<!-- Node1&#45;&gt;Node13 -->
<g id="edge22" class="edge">
<title>Node1&#45;&gt;Node13</title>
<path fill="none" stroke="midnightblue" d="M412.07,-168.41C396,-161.04 374.82,-148.92 362,-132 351.8,-118.54 347.07,-99.73 344.88,-85.8"/>
<polygon fill="midnightblue" stroke="midnightblue" points="348.35,-85.35 343.61,-75.88 341.4,-86.24 348.35,-85.35"/>
</g>
<!-- Node14 -->
<g id="node14" class="node">
<title>Node14</title>
<g id="a_node14"><a xlink:href="erpc__static__queue_8hpp.html" target="_top" xlink:title=" ">
<polygon fill="white" stroke="black" points="371,-112.5 371,-131.5 497,-131.5 497,-112.5 371,-112.5"/>
<text text-anchor="middle" x="434" y="-119.5" font-family="Helvetica,sans-Serif" font-size="10.00">erpc_static_queue.hpp</text>
</a>
</g>
</g>
<!-- Node1&#45;&gt;Node14 -->
<g id="edge14" class="edge">
<title>Node1&#45;&gt;Node14</title>
<path fill="none" stroke="midnightblue" d="M434,-168.08C434,-161.01 434,-150.86 434,-141.99"/>
<polygon fill="midnightblue" stroke="midnightblue" points="437.5,-141.75 434,-131.75 430.5,-141.75 437.5,-141.75"/>
</g>
<!-- Node16 -->
<g id="node16" class="node">
<title>Node16</title>
<g id="a_node16"><a xlink:href="erpc__transport_8hpp.html" target="_top" xlink:title=" ">
<polygon fill="white" stroke="black" points="553,-112.5 553,-131.5 661,-131.5 661,-112.5 553,-112.5"/>
<text text-anchor="middle" x="607" y="-119.5" font-family="Helvetica,sans-Serif" font-size="10.00">erpc_transport.hpp</text>
</a>
</g>
</g>
<!-- Node1&#45;&gt;Node16 -->
<g id="edge17" class="edge">
<title>Node1&#45;&gt;Node16</title>
<path fill="none" stroke="midnightblue" d="M461.41,-168.44C490.77,-159.28 537.52,-144.69 570.1,-134.52"/>
<polygon fill="midnightblue" stroke="midnightblue" points="571.21,-137.84 579.72,-131.52 569.13,-131.16 571.21,-137.84"/>
</g>
<!-- Node3 -->
<g id="node3" class="node">
<title>Node3</title>
<g id="a_node3"><a xlink:href="erpc__config_8h.html" target="_top" xlink:title=" ">
<polygon fill="white" stroke="black" points="0,-0.5 0,-19.5 82,-19.5 82,-0.5 0,-0.5"/>
<text text-anchor="middle" x="41" y="-7.5" font-family="Helvetica,sans-Serif" font-size="10.00">erpc_config.h</text>
</a>
</g>
</g>
<!-- Node2&#45;&gt;Node3 -->
<g id="edge2" class="edge">
<title>Node2&#45;&gt;Node3</title>
<path fill="none" stroke="midnightblue" d="M76.06,-56.08C70.07,-48.38 61.25,-37.03 53.95,-27.65"/>
<polygon fill="midnightblue" stroke="midnightblue" points="56.71,-25.5 47.81,-19.75 51.18,-29.79 56.71,-25.5"/>
</g>
<!-- Node4 -->
<g id="node4" class="node">
<title>Node4</title>
<g id="a_node4"><a xlink:title=" ">
<polygon fill="white" stroke="#bfbfbf" points="100,-0.5 100,-19.5 152,-19.5 152,-0.5 100,-0.5"/>
<text text-anchor="middle" x="126" y="-7.5" font-family="Helvetica,sans-Serif" font-size="10.00">cassert</text>
</a>
</g>
</g>
<!-- Node2&#45;&gt;Node4 -->
<g id="edge3" class="edge">
<title>Node2&#45;&gt;Node4</title>
<path fill="none" stroke="midnightblue" d="M90.1,-56.08C96.24,-48.38 105.27,-37.03 112.74,-27.65"/>
<polygon fill="midnightblue" stroke="midnightblue" points="115.54,-29.75 119.03,-19.75 110.06,-25.39 115.54,-29.75"/>
</g>
<!-- Node6 -->
<g id="node6" class="node">
<title>Node6</title>
<g id="a_node6"><a xlink:title=" ">
<polygon fill="white" stroke="#bfbfbf" points="446,-0.5 446,-19.5 496,-19.5 496,-0.5 446,-0.5"/>
<text text-anchor="middle" x="471" y="-7.5" font-family="Helvetica,sans-Serif" font-size="10.00">cstdint</text>
</a>
</g>
</g>
<!-- Node5&#45;&gt;Node6 -->
<g id="edge5" class="edge">
<title>Node5&#45;&gt;Node6</title>
<path fill="none" stroke="midnightblue" d="M538.15,-56.32C525.78,-47.98 506.87,-35.21 492.26,-25.35"/>
<polygon fill="midnightblue" stroke="midnightblue" points="494.07,-22.35 483.82,-19.65 490.15,-28.15 494.07,-22.35"/>
</g>
<!-- Node8 -->
<g id="node8" class="node">
<title>Node8</title>
<g id="a_node8"><a xlink:href="erpc__common_8h_source.html" target="_top" xlink:title=" ">
<polygon fill="white" stroke="black" points="578.5,-0.5 578.5,-19.5 673.5,-19.5 673.5,-0.5 578.5,-0.5"/>
<text text-anchor="middle" x="626" y="-7.5" font-family="Helvetica,sans-Serif" font-size="10.00">erpc_common.h</text>
</a>
</g>
</g>
<!-- Node7&#45;&gt;Node8 -->
<g id="edge7" class="edge">
<title>Node7&#45;&gt;Node8</title>
<path fill="none" stroke="midnightblue" d="M708.25,-56.32C692.68,-47.74 668.62,-34.49 650.54,-24.52"/>
<polygon fill="midnightblue" stroke="midnightblue" points="652.15,-21.42 641.71,-19.65 648.78,-27.55 652.15,-21.42"/>
</g>
<!-- Node9 -->
<g id="node9" class="node">
<title>Node9</title>
<g id="a_node9"><a xlink:title=" ">
<polygon fill="white" stroke="#bfbfbf" points="695.5,-0.5 695.5,-19.5 748.5,-19.5 748.5,-0.5 695.5,-0.5"/>
<text text-anchor="middle" x="722" y="-7.5" font-family="Helvetica,sans-Serif" font-size="10.00">cstddef</text>
</a>
</g>
</g>
<!-- Node7&#45;&gt;Node9 -->
<g id="edge8" class="edge">
<title>Node7&#45;&gt;Node9</title>
<path fill="none" stroke="midnightblue" d="M723.67,-56.08C723.41,-49.01 723.03,-38.86 722.7,-29.99"/>
<polygon fill="midnightblue" stroke="midnightblue" points="726.19,-29.61 722.32,-19.75 719.2,-29.87 726.19,-29.61"/>
</g>
<!-- Node10 -->
<g id="node10" class="node">
<title>Node10</title>
<g id="a_node10"><a xlink:title=" ">
<polygon fill="white" stroke="#bfbfbf" points="766.5,-0.5 766.5,-19.5 819.5,-19.5 819.5,-0.5 766.5,-0.5"/>
<text text-anchor="middle" x="793" y="-7.5" font-family="Helvetica,sans-Serif" font-size="10.00">stdint.h</text>
</a>
</g>
</g>
<!-- Node7&#45;&gt;Node10 -->
<g id="edge9" class="edge">
<title>Node7&#45;&gt;Node10</title>
<path fill="none" stroke="midnightblue" d="M735.09,-56.32C745.49,-48.18 761.26,-35.84 773.72,-26.09"/>
<polygon fill="midnightblue" stroke="midnightblue" points="775.99,-28.75 781.71,-19.83 771.68,-23.24 775.99,-28.75"/>
</g>
<!-- Node11&#45;&gt;Node2 -->
<g id="edge11" class="edge">
<title>Node11&#45;&gt;Node2</title>
<path fill="none" stroke="midnightblue" d="M210.07,-112.44C184.78,-103.4 144.7,-89.06 116.32,-78.92"/>
<polygon fill="midnightblue" stroke="midnightblue" points="117.41,-75.59 106.81,-75.52 115.05,-82.18 117.41,-75.59"/>
</g>
<!-- Node12 -->
<g id="node12" class="node">
<title>Node12</title>
<g id="a_node12"><a xlink:title=" ">
<polygon fill="white" stroke="#bfbfbf" points="164,-56.5 164,-75.5 286,-75.5 286,-56.5 164,-56.5"/>
<text text-anchor="middle" x="225" y="-63.5" font-family="Helvetica,sans-Serif" font-size="10.00">rpmsg_env_specific.h</text>
</a>
</g>
</g>
<!-- Node11&#45;&gt;Node12 -->
<g id="edge12" class="edge">
<title>Node11&#45;&gt;Node12</title>
<path fill="none" stroke="midnightblue" d="M232.51,-112.08C231.32,-104.93 229.61,-94.64 228.12,-85.69"/>
<polygon fill="midnightblue" stroke="midnightblue" points="231.55,-85.04 226.46,-75.75 224.65,-86.19 231.55,-85.04"/>
</g>
<!-- Node11&#45;&gt;Node13 -->
<g id="edge13" class="edge">
<title>Node11&#45;&gt;Node13</title>
<path fill="none" stroke="midnightblue" d="M251.51,-112.32C269.07,-103.62 296.33,-90.12 316.53,-80.11"/>
<polygon fill="midnightblue" stroke="midnightblue" points="318.12,-83.23 325.53,-75.65 315.02,-76.96 318.12,-83.23"/>
</g>
<!-- Node14&#45;&gt;Node6 -->
<g id="edge16" class="edge">
<title>Node14&#45;&gt;Node6</title>
<path fill="none" stroke="midnightblue" d="M430.96,-112.23C427.04,-99.39 421.53,-74.95 429,-56 433.51,-44.55 442.47,-34.29 450.95,-26.47"/>
<polygon fill="midnightblue" stroke="midnightblue" points="453.47,-28.93 458.79,-19.76 448.91,-23.61 453.47,-28.93"/>
</g>
<!-- Node15 -->
<g id="node15" class="node">
<title>Node15</title>
<g id="a_node15"><a xlink:title=" ">
<polygon fill="white" stroke="#bfbfbf" points="438,-56.5 438,-75.5 488,-75.5 488,-56.5 438,-56.5"/>
<text text-anchor="middle" x="463" y="-63.5" font-family="Helvetica,sans-Serif" font-size="10.00">cstring</text>
</a>
</g>
</g>
<!-- Node14&#45;&gt;Node15 -->
<g id="edge15" class="edge">
<title>Node14&#45;&gt;Node15</title>
<path fill="none" stroke="midnightblue" d="M438.79,-112.08C442.76,-104.69 448.53,-93.95 453.43,-84.81"/>
<polygon fill="midnightblue" stroke="midnightblue" points="456.65,-86.22 458.3,-75.75 450.49,-82.91 456.65,-86.22"/>
</g>
<!-- Node16&#45;&gt;Node5 -->
<g id="edge19" class="edge">
<title>Node16&#45;&gt;Node5</title>
<path fill="none" stroke="midnightblue" d="M598,-112.32C589.81,-104.42 577.49,-92.55 567.53,-82.94"/>
<polygon fill="midnightblue" stroke="midnightblue" points="569.79,-80.26 560.16,-75.83 564.93,-85.29 569.79,-80.26"/>
</g>
<!-- Node16&#45;&gt;Node7 -->
<g id="edge20" class="edge">
<title>Node16&#45;&gt;Node7</title>
<path fill="none" stroke="midnightblue" d="M625.54,-112.44C644.62,-103.64 674.57,-89.81 696.44,-79.72"/>
<polygon fill="midnightblue" stroke="midnightblue" points="697.93,-82.88 705.55,-75.52 695,-76.53 697.93,-82.88"/>
</g>
<!-- Node16&#45;&gt;Node8 -->
<g id="edge18" class="edge">
<title>Node16&#45;&gt;Node8</title>
<path fill="none" stroke="midnightblue" d="M608.49,-112.37C611.56,-94.62 618.63,-53.67 622.79,-29.6"/>
<polygon fill="midnightblue" stroke="midnightblue" points="626.26,-30.04 624.52,-19.59 619.36,-28.85 626.26,-30.04"/>
</g>
<!-- Node16&#45;&gt;Node15 -->
<g id="edge21" class="edge">
<title>Node16&#45;&gt;Node15</title>
<path fill="none" stroke="midnightblue" d="M584.18,-112.44C560.17,-103.44 522.17,-89.19 495.13,-79.05"/>
<polygon fill="midnightblue" stroke="midnightblue" points="496.3,-75.75 485.71,-75.52 493.84,-82.3 496.3,-75.75"/>
</g>
</g>
</svg>
