<?xml version="1.0" encoding="UTF-8" standalone="no"?>
<!DOCTYPE svg PUBLIC "-//W3C//DTD SVG 1.1//EN"
 "http://www.w3.org/Graphics/SVG/1.1/DTD/svg11.dtd">
<!-- Generated by graphviz version 2.43.0 (0)
 -->
<!-- Title: erpc_codec.hpp Pages: 1 -->
<svg width="729pt" height="218pt"
 viewBox="0.00 0.00 729.00 218.00" xmlns="http://www.w3.org/2000/svg" xmlns:xlink="http://www.w3.org/1999/xlink">
<g id="graph0" class="graph" transform="scale(1 1) rotate(0) translate(4 214)">
<title>erpc_codec.hpp</title>
<polygon fill="white" stroke="transparent" points="-4,4 -4,-214 725,-214 725,4 -4,4"/>
<!-- Node1 -->
<g id="node1" class="node">
<title>Node1</title>
<g id="a_node1"><a xlink:title=" ">
<polygon fill="#bfbfbf" stroke="black" points="347.5,-190.5 347.5,-209.5 439.5,-209.5 439.5,-190.5 347.5,-190.5"/>
<text text-anchor="middle" x="393.5" y="-197.5" font-family="Helvetica,sans-Serif" font-size="10.00">erpc_codec.hpp</text>
</a>
</g>
</g>
<!-- Node2 -->
<g id="node2" class="node">
<title>Node2</title>
<g id="a_node2"><a xlink:href="erpc__basic__codec_8hpp.html" target="_top" xlink:title=" ">
<polygon fill="white" stroke="black" points="199,-129 199,-148 322,-148 322,-129 199,-129"/>
<text text-anchor="middle" x="260.5" y="-136" font-family="Helvetica,sans-Serif" font-size="10.00">erpc_basic_codec.hpp</text>
</a>
</g>
</g>
<!-- Node1&#45;&gt;Node2 -->
<g id="edge1" class="edge">
<title>Node1&#45;&gt;Node2</title>
<path fill="none" stroke="midnightblue" d="M365.17,-186.33C339.35,-174.78 301.92,-158.03 279.52,-148.01"/>
<polygon fill="midnightblue" stroke="midnightblue" points="363.89,-189.59 374.44,-190.48 366.75,-183.2 363.89,-189.59"/>
</g>
<!-- Node3 -->
<g id="node3" class="node">
<title>Node3</title>
<g id="a_node3"><a xlink:href="erpc__client__server__common_8hpp.html" target="_top" xlink:title=" ">
<polygon fill="white" stroke="black" points="340.5,-123.5 340.5,-153.5 446.5,-153.5 446.5,-123.5 340.5,-123.5"/>
<text text-anchor="start" x="348.5" y="-141.5" font-family="Helvetica,sans-Serif" font-size="10.00">erpc_client_server</text>
<text text-anchor="middle" x="393.5" y="-130.5" font-family="Helvetica,sans-Serif" font-size="10.00">_common.hpp</text>
</a>
</g>
</g>
<!-- Node1&#45;&gt;Node3 -->
<g id="edge2" class="edge">
<title>Node1&#45;&gt;Node3</title>
<path fill="none" stroke="midnightblue" d="M393.5,-180.23C393.5,-171.59 393.5,-161.5 393.5,-153.52"/>
<polygon fill="midnightblue" stroke="midnightblue" points="390,-180.48 393.5,-190.48 397,-180.48 390,-180.48"/>
</g>
<!-- Node6 -->
<g id="node6" class="node">
<title>Node6</title>
<g id="a_node6"><a xlink:href="erpc__transport__arbitrator_8hpp.html" target="_top" xlink:title=" ">
<polygon fill="white" stroke="black" points="562,-6 562,-25 721,-25 721,-6 562,-6"/>
<text text-anchor="middle" x="641.5" y="-13" font-family="Helvetica,sans-Serif" font-size="10.00">erpc_transport_arbitrator.hpp</text>
</a>
</g>
</g>
<!-- Node1&#45;&gt;Node6 -->
<g id="edge10" class="edge">
<title>Node1&#45;&gt;Node6</title>
<path fill="none" stroke="midnightblue" d="M413.54,-184.53C425.69,-175.73 441.51,-164.25 455.5,-154 521.59,-105.59 600.46,-47.02 629.77,-25.22"/>
<polygon fill="midnightblue" stroke="midnightblue" points="411.46,-181.71 405.41,-190.4 415.56,-187.38 411.46,-181.71"/>
</g>
<!-- Node4 -->
<g id="node4" class="node">
<title>Node4</title>
<g id="a_node4"><a xlink:href="erpc__client__manager_8h.html" target="_top" xlink:title=" ">
<polygon fill="white" stroke="black" points="329.5,-67.5 329.5,-86.5 457.5,-86.5 457.5,-67.5 329.5,-67.5"/>
<text text-anchor="middle" x="393.5" y="-74.5" font-family="Helvetica,sans-Serif" font-size="10.00">erpc_client_manager.h</text>
</a>
</g>
</g>
<!-- Node3&#45;&gt;Node4 -->
<g id="edge3" class="edge">
<title>Node3&#45;&gt;Node4</title>
<path fill="none" stroke="midnightblue" d="M393.5,-113.29C393.5,-103.86 393.5,-93.65 393.5,-86.66"/>
<polygon fill="midnightblue" stroke="midnightblue" points="390,-113.4 393.5,-123.4 397,-113.4 390,-113.4"/>
</g>
<!-- Node9 -->
<g id="node9" class="node">
<title>Node9</title>
<g id="a_node9"><a xlink:href="erpc__server_8hpp.html" target="_top" xlink:title=" ">
<polygon fill="white" stroke="black" points="144,-67.5 144,-86.5 239,-86.5 239,-67.5 144,-67.5"/>
<text text-anchor="middle" x="191.5" y="-74.5" font-family="Helvetica,sans-Serif" font-size="10.00">erpc_server.hpp</text>
</a>
</g>
</g>
<!-- Node3&#45;&gt;Node9 -->
<g id="edge8" class="edge">
<title>Node3&#45;&gt;Node9</title>
<path fill="none" stroke="midnightblue" d="M336.02,-120.57C298.24,-109.44 250.41,-95.35 220.38,-86.51"/>
<polygon fill="midnightblue" stroke="midnightblue" points="335.3,-124.01 345.88,-123.47 337.28,-117.29 335.3,-124.01"/>
</g>
<!-- Node5 -->
<g id="node5" class="node">
<title>Node5</title>
<g id="a_node5"><a xlink:href="erpc__arbitrated__client__manager_8hpp.html" target="_top" xlink:title=" ">
<polygon fill="white" stroke="black" points="280,-0.5 280,-30.5 403,-30.5 403,-0.5 280,-0.5"/>
<text text-anchor="start" x="288" y="-18.5" font-family="Helvetica,sans-Serif" font-size="10.00">erpc_arbitrated_client</text>
<text text-anchor="middle" x="341.5" y="-7.5" font-family="Helvetica,sans-Serif" font-size="10.00">_manager.hpp</text>
</a>
</g>
</g>
<!-- Node4&#45;&gt;Node5 -->
<g id="edge4" class="edge">
<title>Node4&#45;&gt;Node5</title>
<path fill="none" stroke="midnightblue" d="M379.35,-59.81C371.34,-50.65 361.43,-39.3 353.76,-30.52"/>
<polygon fill="midnightblue" stroke="midnightblue" points="376.83,-62.25 386.05,-67.48 382.1,-57.64 376.83,-62.25"/>
</g>
<!-- Node4&#45;&gt;Node6 -->
<g id="edge5" class="edge">
<title>Node4&#45;&gt;Node6</title>
<path fill="none" stroke="midnightblue" d="M438.87,-65.11C487.01,-53.57 562.05,-35.56 606.03,-25.01"/>
<polygon fill="midnightblue" stroke="midnightblue" points="437.94,-61.74 429.03,-67.48 439.57,-68.55 437.94,-61.74"/>
</g>
<!-- Node7 -->
<g id="node7" class="node">
<title>Node7</title>
<g id="a_node7"><a xlink:href="erpc__arbitrated__client__setup_8h.html" target="_top" xlink:title=" ">
<polygon fill="white" stroke="black" points="421,-0.5 421,-30.5 544,-30.5 544,-0.5 421,-0.5"/>
<text text-anchor="start" x="429" y="-18.5" font-family="Helvetica,sans-Serif" font-size="10.00">erpc_arbitrated_client</text>
<text text-anchor="middle" x="482.5" y="-7.5" font-family="Helvetica,sans-Serif" font-size="10.00">_setup.h</text>
</a>
</g>
</g>
<!-- Node4&#45;&gt;Node7 -->
<g id="edge6" class="edge">
<title>Node4&#45;&gt;Node7</title>
<path fill="none" stroke="midnightblue" d="M414.83,-61.74C428.98,-52.28 447.45,-39.93 461.52,-30.52"/>
<polygon fill="midnightblue" stroke="midnightblue" points="412.62,-59.01 406.25,-67.48 416.51,-64.83 412.62,-59.01"/>
</g>
<!-- Node8 -->
<g id="node8" class="node">
<title>Node8</title>
<g id="a_node8"><a xlink:href="erpc__client__setup_8h.html" target="_top" xlink:title=" ">
<polygon fill="white" stroke="black" points="151,-6 151,-25 262,-25 262,-6 151,-6"/>
<text text-anchor="middle" x="206.5" y="-13" font-family="Helvetica,sans-Serif" font-size="10.00">erpc_client_setup.h</text>
</a>
</g>
</g>
<!-- Node4&#45;&gt;Node8 -->
<g id="edge7" class="edge">
<title>Node4&#45;&gt;Node8</title>
<path fill="none" stroke="midnightblue" d="M356.98,-64.38C320.63,-52.82 265.71,-35.34 233.24,-25.01"/>
<polygon fill="midnightblue" stroke="midnightblue" points="356.12,-67.78 366.71,-67.48 358.24,-61.11 356.12,-67.78"/>
</g>
<!-- Node10 -->
<g id="node10" class="node">
<title>Node10</title>
<g id="a_node10"><a xlink:href="erpc__simple__server_8hpp.html" target="_top" xlink:title=" ">
<polygon fill="white" stroke="black" points="0,-6 0,-25 133,-25 133,-6 0,-6"/>
<text text-anchor="middle" x="66.5" y="-13" font-family="Helvetica,sans-Serif" font-size="10.00">erpc_simple_server.hpp</text>
</a>
</g>
</g>
<!-- Node9&#45;&gt;Node10 -->
<g id="edge9" class="edge">
<title>Node9&#45;&gt;Node10</title>
<path fill="none" stroke="midnightblue" d="M164.56,-63.17C140.3,-51.63 105.34,-34.99 84.38,-25.01"/>
<polygon fill="midnightblue" stroke="midnightblue" points="163.06,-66.34 173.59,-67.48 166.07,-60.02 163.06,-66.34"/>
</g>
</g>
</svg>
