<?xml version="1.0" encoding="UTF-8" standalone="no"?>
<!DOCTYPE svg PUBLIC "-//W3C//DTD SVG 1.1//EN"
 "http://www.w3.org/Graphics/SVG/1.1/DTD/svg11.dtd">
<!-- Generated by graphviz version 2.43.0 (0)
 -->
<!-- Title: erpc_codec.hpp Pages: 1 -->
<svg width="437pt" height="196pt"
 viewBox="0.00 0.00 437.16 196.00" xmlns="http://www.w3.org/2000/svg" xmlns:xlink="http://www.w3.org/1999/xlink">
<g id="graph0" class="graph" transform="scale(1 1) rotate(0) translate(4 192)">
<title>erpc_codec.hpp</title>
<polygon fill="white" stroke="transparent" points="-4,4 -4,-192 433.16,-192 433.16,4 -4,4"/>
<!-- Node1 -->
<g id="node1" class="node">
<title>Node1</title>
<g id="a_node1"><a xlink:title=" ">
<polygon fill="#bfbfbf" stroke="black" points="243.5,-168.5 243.5,-187.5 335.5,-187.5 335.5,-168.5 243.5,-168.5"/>
<text text-anchor="middle" x="289.5" y="-175.5" font-family="Helvetica,sans-Serif" font-size="10.00">erpc_codec.hpp</text>
</a>
</g>
</g>
<!-- Node2 -->
<g id="node2" class="node">
<title>Node2</title>
<g id="a_node2"><a xlink:href="erpc__common_8h_source.html" target="_top" xlink:title=" ">
<polygon fill="white" stroke="black" points="146,-0.5 146,-19.5 241,-19.5 241,-0.5 146,-0.5"/>
<text text-anchor="middle" x="193.5" y="-7.5" font-family="Helvetica,sans-Serif" font-size="10.00">erpc_common.h</text>
</a>
</g>
</g>
<!-- Node1&#45;&gt;Node2 -->
<g id="edge1" class="edge">
<title>Node1&#45;&gt;Node2</title>
<path fill="none" stroke="midnightblue" d="M271.39,-168.45C257.15,-160.81 237.87,-148.32 226.5,-132 204.59,-100.55 197.21,-55.13 194.74,-29.83"/>
<polygon fill="midnightblue" stroke="midnightblue" points="198.21,-29.43 193.91,-19.75 191.24,-30 198.21,-29.43"/>
</g>
<!-- Node3 -->
<g id="node3" class="node">
<title>Node3</title>
<g id="a_node3"><a xlink:href="erpc__message__buffer_8hpp.html" target="_top" xlink:title=" ">
<polygon fill="white" stroke="black" points="22,-56.5 22,-75.5 165,-75.5 165,-56.5 22,-56.5"/>
<text text-anchor="middle" x="93.5" y="-63.5" font-family="Helvetica,sans-Serif" font-size="10.00">erpc_message_buffer.hpp</text>
</a>
</g>
</g>
<!-- Node1&#45;&gt;Node3 -->
<g id="edge2" class="edge">
<title>Node1&#45;&gt;Node3</title>
<path fill="none" stroke="midnightblue" d="M263.28,-168.44C240.42,-160.48 206.75,-147.52 179.5,-132 154.16,-117.56 127.8,-96.62 111.06,-82.44"/>
<polygon fill="midnightblue" stroke="midnightblue" points="113.1,-79.57 103.23,-75.71 108.53,-84.88 113.1,-79.57"/>
</g>
<!-- Node6 -->
<g id="node6" class="node">
<title>Node6</title>
<g id="a_node6"><a xlink:href="erpc__transport_8hpp.html" target="_top" xlink:title=" ">
<polygon fill="white" stroke="black" points="235.5,-112.5 235.5,-131.5 343.5,-131.5 343.5,-112.5 235.5,-112.5"/>
<text text-anchor="middle" x="289.5" y="-119.5" font-family="Helvetica,sans-Serif" font-size="10.00">erpc_transport.hpp</text>
</a>
</g>
</g>
<!-- Node1&#45;&gt;Node6 -->
<g id="edge6" class="edge">
<title>Node1&#45;&gt;Node6</title>
<path fill="none" stroke="midnightblue" d="M289.5,-168.08C289.5,-161.01 289.5,-150.86 289.5,-141.99"/>
<polygon fill="midnightblue" stroke="midnightblue" points="293,-141.75 289.5,-131.75 286,-141.75 293,-141.75"/>
</g>
<!-- Node8 -->
<g id="node8" class="node">
<title>Node8</title>
<g id="a_node8"><a xlink:title=" ">
<polygon fill="white" stroke="#bfbfbf" points="349.5,-0.5 349.5,-19.5 399.5,-19.5 399.5,-0.5 349.5,-0.5"/>
<text text-anchor="middle" x="374.5" y="-7.5" font-family="Helvetica,sans-Serif" font-size="10.00">cstdint</text>
</a>
</g>
</g>
<!-- Node1&#45;&gt;Node8 -->
<g id="edge12" class="edge">
<title>Node1&#45;&gt;Node8</title>
<path fill="none" stroke="midnightblue" d="M313.98,-168.45C347.89,-155 407.17,-125.23 426.5,-76 429.75,-67.73 430.2,-64.08 426.5,-56 420.72,-43.36 409.45,-32.91 398.87,-25.27"/>
<polygon fill="midnightblue" stroke="midnightblue" points="400.54,-22.18 390.28,-19.53 396.65,-28 400.54,-22.18"/>
</g>
<!-- Node9 -->
<g id="node9" class="node">
<title>Node9</title>
<g id="a_node9"><a xlink:title=" ">
<polygon fill="white" stroke="#bfbfbf" points="367.5,-56.5 367.5,-75.5 417.5,-75.5 417.5,-56.5 367.5,-56.5"/>
<text text-anchor="middle" x="392.5" y="-63.5" font-family="Helvetica,sans-Serif" font-size="10.00">cstring</text>
</a>
</g>
</g>
<!-- Node1&#45;&gt;Node9 -->
<g id="edge13" class="edge">
<title>Node1&#45;&gt;Node9</title>
<path fill="none" stroke="midnightblue" d="M304.81,-168.47C318.44,-160.34 338.37,-147.13 352.5,-132 365.74,-117.82 376.93,-98.59 384.07,-84.73"/>
<polygon fill="midnightblue" stroke="midnightblue" points="387.22,-86.25 388.53,-75.74 380.95,-83.14 387.22,-86.25"/>
</g>
<!-- Node3&#45;&gt;Node2 -->
<g id="edge3" class="edge">
<title>Node3&#45;&gt;Node2</title>
<path fill="none" stroke="midnightblue" d="M109.57,-56.32C125.46,-47.74 150.01,-34.49 168.46,-24.52"/>
<polygon fill="midnightblue" stroke="midnightblue" points="170.34,-27.49 177.47,-19.65 167.01,-21.33 170.34,-27.49"/>
</g>
<!-- Node4 -->
<g id="node4" class="node">
<title>Node4</title>
<g id="a_node4"><a xlink:title=" ">
<polygon fill="white" stroke="#bfbfbf" points="0,-0.5 0,-19.5 53,-19.5 53,-0.5 0,-0.5"/>
<text text-anchor="middle" x="26.5" y="-7.5" font-family="Helvetica,sans-Serif" font-size="10.00">cstddef</text>
</a>
</g>
</g>
<!-- Node3&#45;&gt;Node4 -->
<g id="edge4" class="edge">
<title>Node3&#45;&gt;Node4</title>
<path fill="none" stroke="midnightblue" d="M82.74,-56.32C72.73,-48.26 57.61,-36.08 45.57,-26.37"/>
<polygon fill="midnightblue" stroke="midnightblue" points="47.44,-23.38 37.46,-19.83 43.05,-28.83 47.44,-23.38"/>
</g>
<!-- Node5 -->
<g id="node5" class="node">
<title>Node5</title>
<g id="a_node5"><a xlink:title=" ">
<polygon fill="white" stroke="#bfbfbf" points="71,-0.5 71,-19.5 124,-19.5 124,-0.5 71,-0.5"/>
<text text-anchor="middle" x="97.5" y="-7.5" font-family="Helvetica,sans-Serif" font-size="10.00">stdint.h</text>
</a>
</g>
</g>
<!-- Node3&#45;&gt;Node5 -->
<g id="edge5" class="edge">
<title>Node3&#45;&gt;Node5</title>
<path fill="none" stroke="midnightblue" d="M94.16,-56.08C94.68,-49.01 95.44,-38.86 96.09,-29.99"/>
<polygon fill="midnightblue" stroke="midnightblue" points="99.6,-29.98 96.85,-19.75 92.62,-29.47 99.6,-29.98"/>
</g>
<!-- Node6&#45;&gt;Node2 -->
<g id="edge7" class="edge">
<title>Node6&#45;&gt;Node2</title>
<path fill="none" stroke="midnightblue" d="M281.97,-112.37C265.98,-94.05 228.45,-51.05 207.78,-27.36"/>
<polygon fill="midnightblue" stroke="midnightblue" points="210.21,-24.82 201,-19.59 204.94,-29.43 210.21,-24.82"/>
</g>
<!-- Node6&#45;&gt;Node3 -->
<g id="edge10" class="edge">
<title>Node6&#45;&gt;Node3</title>
<path fill="none" stroke="midnightblue" d="M258.44,-112.44C224.9,-103.2 171.3,-88.44 134.36,-78.26"/>
<polygon fill="midnightblue" stroke="midnightblue" points="134.98,-74.8 124.41,-75.52 133.12,-81.55 134.98,-74.8"/>
</g>
<!-- Node7 -->
<g id="node7" class="node">
<title>Node7</title>
<g id="a_node7"><a xlink:href="erpc__crc16_8hpp.html" target="_top" xlink:title=" ">
<polygon fill="white" stroke="black" points="259.5,-56.5 259.5,-75.5 349.5,-75.5 349.5,-56.5 259.5,-56.5"/>
<text text-anchor="middle" x="304.5" y="-63.5" font-family="Helvetica,sans-Serif" font-size="10.00">erpc_crc16.hpp</text>
</a>
</g>
</g>
<!-- Node6&#45;&gt;Node7 -->
<g id="edge8" class="edge">
<title>Node6&#45;&gt;Node7</title>
<path fill="none" stroke="midnightblue" d="M291.98,-112.08C293.99,-104.85 296.89,-94.41 299.39,-85.4"/>
<polygon fill="midnightblue" stroke="midnightblue" points="302.76,-86.32 302.07,-75.75 296.02,-84.45 302.76,-86.32"/>
</g>
<!-- Node6&#45;&gt;Node9 -->
<g id="edge11" class="edge">
<title>Node6&#45;&gt;Node9</title>
<path fill="none" stroke="midnightblue" d="M306.05,-112.32C322.49,-103.7 347.93,-90.36 366.97,-80.39"/>
<polygon fill="midnightblue" stroke="midnightblue" points="368.76,-83.4 375.99,-75.65 365.51,-77.2 368.76,-83.4"/>
</g>
<!-- Node7&#45;&gt;Node8 -->
<g id="edge9" class="edge">
<title>Node7&#45;&gt;Node8</title>
<path fill="none" stroke="midnightblue" d="M315.75,-56.32C326.3,-48.18 342.3,-35.84 354.94,-26.09"/>
<polygon fill="midnightblue" stroke="midnightblue" points="357.27,-28.71 363.05,-19.83 352.99,-23.17 357.27,-28.71"/>
</g>
</g>
</svg>
