<?xml version="1.0" encoding="UTF-8" standalone="no"?>
<!DOCTYPE svg PUBLIC "-//W3C//DTD SVG 1.1//EN"
 "http://www.w3.org/Graphics/SVG/1.1/DTD/svg11.dtd">
<!-- Generated by graphviz version 2.43.0 (0)
 -->
<!-- Title: erpc_rpmsg_lite_rtos_transport.hpp Pages: 1 -->
<svg width="745pt" height="207pt"
 viewBox="0.00 0.00 744.50 207.00" xmlns="http://www.w3.org/2000/svg" xmlns:xlink="http://www.w3.org/1999/xlink">
<g id="graph0" class="graph" transform="scale(1 1) rotate(0) translate(4 203)">
<title>erpc_rpmsg_lite_rtos_transport.hpp</title>
<polygon fill="white" stroke="transparent" points="-4,4 -4,-203 740.5,-203 740.5,4 -4,4"/>
<!-- Node1 -->
<g id="node1" class="node">
<title>Node1</title>
<g id="a_node1"><a xlink:title=" ">
<polygon fill="#bfbfbf" stroke="black" points="328.5,-168.5 328.5,-198.5 447.5,-198.5 447.5,-168.5 328.5,-168.5"/>
<text text-anchor="start" x="336.5" y="-186.5" font-family="Helvetica,sans-Serif" font-size="10.00">erpc_rpmsg_lite_rtos</text>
<text text-anchor="middle" x="388" y="-175.5" font-family="Helvetica,sans-Serif" font-size="10.00">_transport.hpp</text>
</a>
</g>
</g>
<!-- Node2 -->
<g id="node2" class="node">
<title>Node2</title>
<g id="a_node2"><a xlink:href="erpc__crc16_8hpp.html" target="_top" xlink:title=" ">
<polygon fill="white" stroke="black" points="0,-56.5 0,-75.5 90,-75.5 90,-56.5 0,-56.5"/>
<text text-anchor="middle" x="45" y="-63.5" font-family="Helvetica,sans-Serif" font-size="10.00">erpc_crc16.hpp</text>
</a>
</g>
</g>
<!-- Node1&#45;&gt;Node2 -->
<g id="edge1" class="edge">
<title>Node1&#45;&gt;Node2</title>
<path fill="none" stroke="midnightblue" d="M328.27,-182.18C269.11,-179.54 177.53,-169.06 108,-132 86.64,-120.61 68.18,-99.4 56.86,-84.3"/>
<polygon fill="midnightblue" stroke="midnightblue" points="59.45,-81.91 50.77,-75.84 53.77,-86 59.45,-81.91"/>
</g>
<!-- Node4 -->
<g id="node4" class="node">
<title>Node4</title>
<g id="a_node4"><a xlink:href="erpc__message__buffer_8hpp.html" target="_top" xlink:title=" ">
<polygon fill="white" stroke="black" points="214.5,-56.5 214.5,-75.5 357.5,-75.5 357.5,-56.5 214.5,-56.5"/>
<text text-anchor="middle" x="286" y="-63.5" font-family="Helvetica,sans-Serif" font-size="10.00">erpc_message_buffer.hpp</text>
</a>
</g>
</g>
<!-- Node1&#45;&gt;Node4 -->
<g id="edge3" class="edge">
<title>Node1&#45;&gt;Node4</title>
<path fill="none" stroke="midnightblue" d="M375.49,-168.34C356.53,-146.86 320.59,-106.17 300.51,-83.43"/>
<polygon fill="midnightblue" stroke="midnightblue" points="302.9,-80.85 293.66,-75.67 297.65,-85.48 302.9,-80.85"/>
</g>
<!-- Node8 -->
<g id="node8" class="node">
<title>Node8</title>
<g id="a_node8"><a xlink:href="erpc__rpmsg__lite__base_8hpp.html" target="_top" xlink:title=" ">
<polygon fill="white" stroke="black" points="366,-112.5 366,-131.5 510,-131.5 510,-112.5 366,-112.5"/>
<text text-anchor="middle" x="438" y="-119.5" font-family="Helvetica,sans-Serif" font-size="10.00">erpc_rpmsg_lite_base.hpp</text>
</a>
</g>
</g>
<!-- Node1&#45;&gt;Node8 -->
<g id="edge7" class="edge">
<title>Node1&#45;&gt;Node8</title>
<path fill="none" stroke="midnightblue" d="M399.85,-168.4C407.11,-159.75 416.45,-148.64 424.07,-139.58"/>
<polygon fill="midnightblue" stroke="midnightblue" points="426.97,-141.57 430.72,-131.66 421.61,-137.06 426.97,-141.57"/>
</g>
<!-- Node13 -->
<g id="node13" class="node">
<title>Node13</title>
<g id="a_node13"><a xlink:title=" ">
<polygon fill="white" stroke="#bfbfbf" points="659.5,-56.5 659.5,-75.5 736.5,-75.5 736.5,-56.5 659.5,-56.5"/>
<text text-anchor="middle" x="698" y="-63.5" font-family="Helvetica,sans-Serif" font-size="10.00">rpmsg_lite.h</text>
</a>
</g>
</g>
<!-- Node1&#45;&gt;Node13 -->
<g id="edge18" class="edge">
<title>Node1&#45;&gt;Node13</title>
<path fill="none" stroke="midnightblue" d="M428.05,-168.44C454.25,-158.9 489.04,-145.6 519,-132 536.38,-124.11 539.4,-119.37 557,-112 589.4,-98.43 627.41,-86.52 655.79,-78.37"/>
<polygon fill="midnightblue" stroke="midnightblue" points="657.12,-81.63 665.79,-75.54 655.21,-74.89 657.12,-81.63"/>
</g>
<!-- Node14 -->
<g id="node14" class="node">
<title>Node14</title>
<g id="a_node14"><a xlink:href="erpc__transport_8hpp.html" target="_top" xlink:title=" ">
<polygon fill="white" stroke="black" points="117,-112.5 117,-131.5 225,-131.5 225,-112.5 117,-112.5"/>
<text text-anchor="middle" x="171" y="-119.5" font-family="Helvetica,sans-Serif" font-size="10.00">erpc_transport.hpp</text>
</a>
</g>
</g>
<!-- Node1&#45;&gt;Node14 -->
<g id="edge13" class="edge">
<title>Node1&#45;&gt;Node14</title>
<path fill="none" stroke="midnightblue" d="M336.85,-168.47C298.76,-158.03 247.43,-143.96 212.02,-134.25"/>
<polygon fill="midnightblue" stroke="midnightblue" points="212.59,-130.78 202.02,-131.51 210.74,-137.53 212.59,-130.78"/>
</g>
<!-- Node16 -->
<g id="node16" class="node">
<title>Node16</title>
<g id="a_node16"><a xlink:title=" ">
<polygon fill="white" stroke="#bfbfbf" points="566,-112.5 566,-131.5 658,-131.5 658,-112.5 566,-112.5"/>
<text text-anchor="middle" x="612" y="-119.5" font-family="Helvetica,sans-Serif" font-size="10.00">rpmsg_queue.h</text>
</a>
</g>
</g>
<!-- Node1&#45;&gt;Node16 -->
<g id="edge19" class="edge">
<title>Node1&#45;&gt;Node16</title>
<path fill="none" stroke="midnightblue" d="M440.8,-168.47C480.29,-157.99 533.56,-143.84 570.13,-134.12"/>
<polygon fill="midnightblue" stroke="midnightblue" points="571.21,-137.46 579.98,-131.51 569.41,-130.69 571.21,-137.46"/>
</g>
<!-- Node3 -->
<g id="node3" class="node">
<title>Node3</title>
<g id="a_node3"><a xlink:title=" ">
<polygon fill="white" stroke="#bfbfbf" points="20,-0.5 20,-19.5 70,-19.5 70,-0.5 20,-0.5"/>
<text text-anchor="middle" x="45" y="-7.5" font-family="Helvetica,sans-Serif" font-size="10.00">cstdint</text>
</a>
</g>
</g>
<!-- Node2&#45;&gt;Node3 -->
<g id="edge2" class="edge">
<title>Node2&#45;&gt;Node3</title>
<path fill="none" stroke="midnightblue" d="M45,-56.08C45,-49.01 45,-38.86 45,-29.99"/>
<polygon fill="midnightblue" stroke="midnightblue" points="48.5,-29.75 45,-19.75 41.5,-29.75 48.5,-29.75"/>
</g>
<!-- Node5 -->
<g id="node5" class="node">
<title>Node5</title>
<g id="a_node5"><a xlink:href="erpc__common_8h_source.html" target="_top" xlink:title=" ">
<polygon fill="white" stroke="black" points="114.5,-0.5 114.5,-19.5 209.5,-19.5 209.5,-0.5 114.5,-0.5"/>
<text text-anchor="middle" x="162" y="-7.5" font-family="Helvetica,sans-Serif" font-size="10.00">erpc_common.h</text>
</a>
</g>
</g>
<!-- Node4&#45;&gt;Node5 -->
<g id="edge4" class="edge">
<title>Node4&#45;&gt;Node5</title>
<path fill="none" stroke="midnightblue" d="M266.35,-56.44C246.04,-47.6 214.1,-33.69 190.9,-23.59"/>
<polygon fill="midnightblue" stroke="midnightblue" points="192.12,-20.3 181.56,-19.52 189.33,-26.72 192.12,-20.3"/>
</g>
<!-- Node6 -->
<g id="node6" class="node">
<title>Node6</title>
<g id="a_node6"><a xlink:title=" ">
<polygon fill="white" stroke="#bfbfbf" points="240.5,-0.5 240.5,-19.5 293.5,-19.5 293.5,-0.5 240.5,-0.5"/>
<text text-anchor="middle" x="267" y="-7.5" font-family="Helvetica,sans-Serif" font-size="10.00">cstddef</text>
</a>
</g>
</g>
<!-- Node4&#45;&gt;Node6 -->
<g id="edge5" class="edge">
<title>Node4&#45;&gt;Node6</title>
<path fill="none" stroke="midnightblue" d="M282.86,-56.08C280.32,-48.85 276.64,-38.41 273.47,-29.4"/>
<polygon fill="midnightblue" stroke="midnightblue" points="276.7,-28.02 270.08,-19.75 270.1,-30.35 276.7,-28.02"/>
</g>
<!-- Node7 -->
<g id="node7" class="node">
<title>Node7</title>
<g id="a_node7"><a xlink:title=" ">
<polygon fill="white" stroke="#bfbfbf" points="311.5,-0.5 311.5,-19.5 364.5,-19.5 364.5,-0.5 311.5,-0.5"/>
<text text-anchor="middle" x="338" y="-7.5" font-family="Helvetica,sans-Serif" font-size="10.00">stdint.h</text>
</a>
</g>
</g>
<!-- Node4&#45;&gt;Node7 -->
<g id="edge6" class="edge">
<title>Node4&#45;&gt;Node7</title>
<path fill="none" stroke="midnightblue" d="M294.59,-56.08C302.16,-48.22 313.38,-36.57 322.51,-27.08"/>
<polygon fill="midnightblue" stroke="midnightblue" points="325.16,-29.38 329.57,-19.75 320.12,-24.53 325.16,-29.38"/>
</g>
<!-- Node9 -->
<g id="node9" class="node">
<title>Node9</title>
<g id="a_node9"><a xlink:href="erpc__config__internal_8h_source.html" target="_top" xlink:title=" ">
<polygon fill="white" stroke="black" points="375.5,-56.5 375.5,-75.5 500.5,-75.5 500.5,-56.5 375.5,-56.5"/>
<text text-anchor="middle" x="438" y="-63.5" font-family="Helvetica,sans-Serif" font-size="10.00">erpc_config_internal.h</text>
</a>
</g>
</g>
<!-- Node8&#45;&gt;Node9 -->
<g id="edge8" class="edge">
<title>Node8&#45;&gt;Node9</title>
<path fill="none" stroke="midnightblue" d="M438,-112.08C438,-105.01 438,-94.86 438,-85.99"/>
<polygon fill="midnightblue" stroke="midnightblue" points="441.5,-85.75 438,-75.75 434.5,-85.75 441.5,-85.75"/>
</g>
<!-- Node12 -->
<g id="node12" class="node">
<title>Node12</title>
<g id="a_node12"><a xlink:title=" ">
<polygon fill="white" stroke="#bfbfbf" points="519,-56.5 519,-75.5 641,-75.5 641,-56.5 519,-56.5"/>
<text text-anchor="middle" x="580" y="-63.5" font-family="Helvetica,sans-Serif" font-size="10.00">rpmsg_env_specific.h</text>
</a>
</g>
</g>
<!-- Node8&#45;&gt;Node12 -->
<g id="edge11" class="edge">
<title>Node8&#45;&gt;Node12</title>
<path fill="none" stroke="midnightblue" d="M460.5,-112.44C484.08,-103.48 521.32,-89.31 547.96,-79.18"/>
<polygon fill="midnightblue" stroke="midnightblue" points="549.5,-82.34 557.6,-75.52 547.01,-75.8 549.5,-82.34"/>
</g>
<!-- Node8&#45;&gt;Node13 -->
<g id="edge12" class="edge">
<title>Node8&#45;&gt;Node13</title>
<path fill="none" stroke="midnightblue" d="M479.2,-112.44C525.32,-102.86 600,-87.35 649.06,-77.16"/>
<polygon fill="midnightblue" stroke="midnightblue" points="650.04,-80.54 659.12,-75.08 648.62,-73.68 650.04,-80.54"/>
</g>
<!-- Node10 -->
<g id="node10" class="node">
<title>Node10</title>
<g id="a_node10"><a xlink:href="erpc__config_8h.html" target="_top" xlink:title=" ">
<polygon fill="white" stroke="black" points="390,-0.5 390,-19.5 472,-19.5 472,-0.5 390,-0.5"/>
<text text-anchor="middle" x="431" y="-7.5" font-family="Helvetica,sans-Serif" font-size="10.00">erpc_config.h</text>
</a>
</g>
</g>
<!-- Node9&#45;&gt;Node10 -->
<g id="edge9" class="edge">
<title>Node9&#45;&gt;Node10</title>
<path fill="none" stroke="midnightblue" d="M436.84,-56.08C435.92,-48.93 434.58,-38.64 433.42,-29.69"/>
<polygon fill="midnightblue" stroke="midnightblue" points="436.89,-29.22 432.13,-19.75 429.95,-30.12 436.89,-29.22"/>
</g>
<!-- Node11 -->
<g id="node11" class="node">
<title>Node11</title>
<g id="a_node11"><a xlink:title=" ">
<polygon fill="white" stroke="#bfbfbf" points="490,-0.5 490,-19.5 542,-19.5 542,-0.5 490,-0.5"/>
<text text-anchor="middle" x="516" y="-7.5" font-family="Helvetica,sans-Serif" font-size="10.00">cassert</text>
</a>
</g>
</g>
<!-- Node9&#45;&gt;Node11 -->
<g id="edge10" class="edge">
<title>Node9&#45;&gt;Node11</title>
<path fill="none" stroke="midnightblue" d="M450.53,-56.32C462.59,-47.98 481.03,-35.21 495.27,-25.35"/>
<polygon fill="midnightblue" stroke="midnightblue" points="497.27,-28.22 503.5,-19.65 493.28,-22.47 497.27,-28.22"/>
</g>
<!-- Node14&#45;&gt;Node2 -->
<g id="edge15" class="edge">
<title>Node14&#45;&gt;Node2</title>
<path fill="none" stroke="midnightblue" d="M151.03,-112.44C130.39,-103.6 97.94,-89.69 74.37,-79.59"/>
<polygon fill="midnightblue" stroke="midnightblue" points="75.44,-76.24 64.87,-75.52 72.68,-82.67 75.44,-76.24"/>
</g>
<!-- Node14&#45;&gt;Node4 -->
<g id="edge16" class="edge">
<title>Node14&#45;&gt;Node4</title>
<path fill="none" stroke="midnightblue" d="M189.22,-112.44C207.9,-103.68 237.16,-89.94 258.62,-79.86"/>
<polygon fill="midnightblue" stroke="midnightblue" points="260.3,-82.93 267.86,-75.52 257.32,-76.6 260.3,-82.93"/>
</g>
<!-- Node14&#45;&gt;Node5 -->
<g id="edge14" class="edge">
<title>Node14&#45;&gt;Node5</title>
<path fill="none" stroke="midnightblue" d="M161.71,-112.39C153.42,-104.02 141.86,-90.48 137,-76 131.49,-59.58 139.98,-41.19 148.52,-28.17"/>
<polygon fill="midnightblue" stroke="midnightblue" points="151.57,-29.91 154.55,-19.74 145.88,-25.84 151.57,-29.91"/>
</g>
<!-- Node15 -->
<g id="node15" class="node">
<title>Node15</title>
<g id="a_node15"><a xlink:title=" ">
<polygon fill="white" stroke="#bfbfbf" points="146,-56.5 146,-75.5 196,-75.5 196,-56.5 146,-56.5"/>
<text text-anchor="middle" x="171" y="-63.5" font-family="Helvetica,sans-Serif" font-size="10.00">cstring</text>
</a>
</g>
</g>
<!-- Node14&#45;&gt;Node15 -->
<g id="edge17" class="edge">
<title>Node14&#45;&gt;Node15</title>
<path fill="none" stroke="midnightblue" d="M171,-112.08C171,-105.01 171,-94.86 171,-85.99"/>
<polygon fill="midnightblue" stroke="midnightblue" points="174.5,-85.75 171,-75.75 167.5,-85.75 174.5,-85.75"/>
</g>
</g>
</svg>
