<?xml version="1.0" encoding="UTF-8" standalone="no"?>
<!DOCTYPE svg PUBLIC "-//W3C//DTD SVG 1.1//EN"
 "http://www.w3.org/Graphics/SVG/1.1/DTD/svg11.dtd">
<!-- Generated by graphviz version 2.43.0 (0)
 -->
<!-- Title: erpc_tcp_transport.hpp Pages: 1 -->
<svg width="603pt" height="252pt"
 viewBox="0.00 0.00 603.00 252.00" xmlns="http://www.w3.org/2000/svg" xmlns:xlink="http://www.w3.org/1999/xlink">
<g id="graph0" class="graph" transform="scale(1 1) rotate(0) translate(4 248)">
<title>erpc_tcp_transport.hpp</title>
<polygon fill="white" stroke="transparent" points="-4,4 -4,-248 599,-248 599,4 -4,4"/>
<!-- Node1 -->
<g id="node1" class="node">
<title>Node1</title>
<g id="a_node1"><a xlink:title=" ">
<polygon fill="#bfbfbf" stroke="black" points="194,-224.5 194,-243.5 322,-243.5 322,-224.5 194,-224.5"/>
<text text-anchor="middle" x="258" y="-231.5" font-family="Helvetica,sans-Serif" font-size="10.00">erpc_tcp_transport.hpp</text>
</a>
</g>
</g>
<!-- Node2 -->
<g id="node2" class="node">
<title>Node2</title>
<g id="a_node2"><a xlink:href="erpc__framed__transport_8hpp.html" target="_top" xlink:title=" ">
<polygon fill="white" stroke="black" points="237.5,-168.5 237.5,-187.5 386.5,-187.5 386.5,-168.5 237.5,-168.5"/>
<text text-anchor="middle" x="312" y="-175.5" font-family="Helvetica,sans-Serif" font-size="10.00">erpc_framed_transport.hpp</text>
</a>
</g>
</g>
<!-- Node1&#45;&gt;Node2 -->
<g id="edge1" class="edge">
<title>Node1&#45;&gt;Node2</title>
<path fill="none" stroke="midnightblue" d="M266.92,-224.08C274.78,-216.22 286.43,-204.57 295.92,-195.08"/>
<polygon fill="midnightblue" stroke="midnightblue" points="298.65,-197.3 303.25,-187.75 293.7,-192.35 298.65,-197.3"/>
</g>
<!-- Node14 -->
<g id="node14" class="node">
<title>Node14</title>
<g id="a_node14"><a xlink:href="erpc__threading_8h.html" target="_top" xlink:title=" ">
<polygon fill="white" stroke="black" points="152,-112.5 152,-131.5 250,-131.5 250,-112.5 152,-112.5"/>
<text text-anchor="middle" x="201" y="-119.5" font-family="Helvetica,sans-Serif" font-size="10.00">erpc_threading.h</text>
</a>
</g>
</g>
<!-- Node1&#45;&gt;Node14 -->
<g id="edge19" class="edge">
<title>Node1&#45;&gt;Node14</title>
<path fill="none" stroke="midnightblue" d="M251.77,-224.3C245.57,-215.42 235.99,-201.12 229,-188 220.79,-172.6 213.07,-154.28 207.83,-141.02"/>
<polygon fill="midnightblue" stroke="midnightblue" points="211.06,-139.68 204.19,-131.62 204.54,-142.21 211.06,-139.68"/>
</g>
<!-- Node3 -->
<g id="node3" class="node">
<title>Node3</title>
<g id="a_node3"><a xlink:href="erpc__config__internal_8h_source.html" target="_top" xlink:title=" ">
<polygon fill="white" stroke="black" points="55.5,-56.5 55.5,-75.5 180.5,-75.5 180.5,-56.5 55.5,-56.5"/>
<text text-anchor="middle" x="118" y="-63.5" font-family="Helvetica,sans-Serif" font-size="10.00">erpc_config_internal.h</text>
</a>
</g>
</g>
<!-- Node2&#45;&gt;Node3 -->
<g id="edge2" class="edge">
<title>Node2&#45;&gt;Node3</title>
<path fill="none" stroke="midnightblue" d="M307.3,-168.5C299.22,-154.65 281.39,-127.24 259,-112 234.8,-95.52 204.21,-84.8 177.71,-77.97"/>
<polygon fill="midnightblue" stroke="midnightblue" points="178.32,-74.51 167.78,-75.54 176.66,-81.31 178.32,-74.51"/>
</g>
<!-- Node6 -->
<g id="node6" class="node">
<title>Node6</title>
<g id="a_node6"><a xlink:href="erpc__message__buffer_8hpp.html" target="_top" xlink:title=" ">
<polygon fill="white" stroke="black" points="237.5,-56.5 237.5,-75.5 380.5,-75.5 380.5,-56.5 237.5,-56.5"/>
<text text-anchor="middle" x="309" y="-63.5" font-family="Helvetica,sans-Serif" font-size="10.00">erpc_message_buffer.hpp</text>
</a>
</g>
</g>
<!-- Node2&#45;&gt;Node6 -->
<g id="edge5" class="edge">
<title>Node2&#45;&gt;Node6</title>
<path fill="none" stroke="midnightblue" d="M311.76,-168.37C311.28,-150.62 310.16,-109.67 309.51,-85.6"/>
<polygon fill="midnightblue" stroke="midnightblue" points="313.01,-85.49 309.23,-75.59 306.01,-85.68 313.01,-85.49"/>
</g>
<!-- Node10 -->
<g id="node10" class="node">
<title>Node10</title>
<g id="a_node10"><a xlink:href="erpc__transport_8hpp.html" target="_top" xlink:title=" ">
<polygon fill="white" stroke="black" points="355,-112.5 355,-131.5 463,-131.5 463,-112.5 355,-112.5"/>
<text text-anchor="middle" x="409" y="-119.5" font-family="Helvetica,sans-Serif" font-size="10.00">erpc_transport.hpp</text>
</a>
</g>
</g>
<!-- Node2&#45;&gt;Node10 -->
<g id="edge9" class="edge">
<title>Node2&#45;&gt;Node10</title>
<path fill="none" stroke="midnightblue" d="M327.58,-168.32C343,-159.74 366.81,-146.49 384.71,-136.52"/>
<polygon fill="midnightblue" stroke="midnightblue" points="386.42,-139.58 393.45,-131.65 383.01,-133.46 386.42,-139.58"/>
</g>
<!-- Node13 -->
<g id="node13" class="node">
<title>Node13</title>
<g id="a_node13"><a xlink:title=" ">
<polygon fill="white" stroke="#bfbfbf" points="545,-56.5 545,-75.5 595,-75.5 595,-56.5 545,-56.5"/>
<text text-anchor="middle" x="570" y="-63.5" font-family="Helvetica,sans-Serif" font-size="10.00">cstring</text>
</a>
</g>
</g>
<!-- Node2&#45;&gt;Node13 -->
<g id="edge15" class="edge">
<title>Node2&#45;&gt;Node13</title>
<path fill="none" stroke="midnightblue" d="M356.08,-168.49C388.96,-161.22 434.49,-149.2 472,-132 501.64,-118.41 532.44,-96.48 551.41,-81.9"/>
<polygon fill="midnightblue" stroke="midnightblue" points="553.76,-84.51 559.49,-75.59 549.45,-78.99 553.76,-84.51"/>
</g>
<!-- Node2&#45;&gt;Node14 -->
<g id="edge16" class="edge">
<title>Node2&#45;&gt;Node14</title>
<path fill="none" stroke="midnightblue" d="M294.17,-168.32C276.28,-159.62 248.52,-146.12 227.95,-136.11"/>
<polygon fill="midnightblue" stroke="midnightblue" points="229.31,-132.88 218.79,-131.65 226.25,-139.18 229.31,-132.88"/>
</g>
<!-- Node4 -->
<g id="node4" class="node">
<title>Node4</title>
<g id="a_node4"><a xlink:href="erpc__config_8h.html" target="_top" xlink:title=" ">
<polygon fill="white" stroke="black" points="0,-0.5 0,-19.5 82,-19.5 82,-0.5 0,-0.5"/>
<text text-anchor="middle" x="41" y="-7.5" font-family="Helvetica,sans-Serif" font-size="10.00">erpc_config.h</text>
</a>
</g>
</g>
<!-- Node3&#45;&gt;Node4 -->
<g id="edge3" class="edge">
<title>Node3&#45;&gt;Node4</title>
<path fill="none" stroke="midnightblue" d="M105.63,-56.32C93.84,-48.06 75.87,-35.45 61.86,-25.63"/>
<polygon fill="midnightblue" stroke="midnightblue" points="63.54,-22.53 53.34,-19.65 59.52,-28.26 63.54,-22.53"/>
</g>
<!-- Node5 -->
<g id="node5" class="node">
<title>Node5</title>
<g id="a_node5"><a xlink:title=" ">
<polygon fill="white" stroke="#bfbfbf" points="100,-0.5 100,-19.5 152,-19.5 152,-0.5 100,-0.5"/>
<text text-anchor="middle" x="126" y="-7.5" font-family="Helvetica,sans-Serif" font-size="10.00">cassert</text>
</a>
</g>
</g>
<!-- Node3&#45;&gt;Node5 -->
<g id="edge4" class="edge">
<title>Node3&#45;&gt;Node5</title>
<path fill="none" stroke="midnightblue" d="M119.32,-56.08C120.38,-48.93 121.91,-38.64 123.23,-29.69"/>
<polygon fill="midnightblue" stroke="midnightblue" points="126.7,-30.16 124.7,-19.75 119.78,-29.13 126.7,-30.16"/>
</g>
<!-- Node7 -->
<g id="node7" class="node">
<title>Node7</title>
<g id="a_node7"><a xlink:href="erpc__common_8h_source.html" target="_top" xlink:title=" ">
<polygon fill="white" stroke="black" points="348.5,-0.5 348.5,-19.5 443.5,-19.5 443.5,-0.5 348.5,-0.5"/>
<text text-anchor="middle" x="396" y="-7.5" font-family="Helvetica,sans-Serif" font-size="10.00">erpc_common.h</text>
</a>
</g>
</g>
<!-- Node6&#45;&gt;Node7 -->
<g id="edge6" class="edge">
<title>Node6&#45;&gt;Node7</title>
<path fill="none" stroke="midnightblue" d="M322.98,-56.32C336.55,-47.9 357.38,-34.97 373.32,-25.07"/>
<polygon fill="midnightblue" stroke="midnightblue" points="375.41,-27.9 382.06,-19.65 371.71,-21.95 375.41,-27.9"/>
</g>
<!-- Node8 -->
<g id="node8" class="node">
<title>Node8</title>
<g id="a_node8"><a xlink:title=" ">
<polygon fill="white" stroke="#bfbfbf" points="277.5,-0.5 277.5,-19.5 330.5,-19.5 330.5,-0.5 277.5,-0.5"/>
<text text-anchor="middle" x="304" y="-7.5" font-family="Helvetica,sans-Serif" font-size="10.00">cstddef</text>
</a>
</g>
</g>
<!-- Node6&#45;&gt;Node8 -->
<g id="edge7" class="edge">
<title>Node6&#45;&gt;Node8</title>
<path fill="none" stroke="midnightblue" d="M308.17,-56.08C307.52,-49.01 306.58,-38.86 305.76,-29.99"/>
<polygon fill="midnightblue" stroke="midnightblue" points="309.22,-29.39 304.81,-19.75 302.25,-30.03 309.22,-29.39"/>
</g>
<!-- Node9 -->
<g id="node9" class="node">
<title>Node9</title>
<g id="a_node9"><a xlink:title=" ">
<polygon fill="white" stroke="#bfbfbf" points="194.5,-0.5 194.5,-19.5 247.5,-19.5 247.5,-0.5 194.5,-0.5"/>
<text text-anchor="middle" x="221" y="-7.5" font-family="Helvetica,sans-Serif" font-size="10.00">stdint.h</text>
</a>
</g>
</g>
<!-- Node6&#45;&gt;Node9 -->
<g id="edge8" class="edge">
<title>Node6&#45;&gt;Node9</title>
<path fill="none" stroke="midnightblue" d="M294.86,-56.32C281.13,-47.9 260.06,-34.97 243.94,-25.07"/>
<polygon fill="midnightblue" stroke="midnightblue" points="245.46,-21.9 235.1,-19.65 241.8,-27.87 245.46,-21.9"/>
</g>
<!-- Node10&#45;&gt;Node6 -->
<g id="edge13" class="edge">
<title>Node10&#45;&gt;Node6</title>
<path fill="none" stroke="midnightblue" d="M392.93,-112.32C377.04,-103.74 352.49,-90.49 334.04,-80.52"/>
<polygon fill="midnightblue" stroke="midnightblue" points="335.49,-77.33 325.03,-75.65 332.16,-83.49 335.49,-77.33"/>
</g>
<!-- Node10&#45;&gt;Node7 -->
<g id="edge10" class="edge">
<title>Node10&#45;&gt;Node7</title>
<path fill="none" stroke="midnightblue" d="M407.98,-112.37C405.88,-94.62 401.04,-53.67 398.2,-29.6"/>
<polygon fill="midnightblue" stroke="midnightblue" points="401.66,-29.11 397.02,-19.59 394.71,-29.93 401.66,-29.11"/>
</g>
<!-- Node11 -->
<g id="node11" class="node">
<title>Node11</title>
<g id="a_node11"><a xlink:href="erpc__crc16_8hpp.html" target="_top" xlink:title=" ">
<polygon fill="white" stroke="black" points="437,-56.5 437,-75.5 527,-75.5 527,-56.5 437,-56.5"/>
<text text-anchor="middle" x="482" y="-63.5" font-family="Helvetica,sans-Serif" font-size="10.00">erpc_crc16.hpp</text>
</a>
</g>
</g>
<!-- Node10&#45;&gt;Node11 -->
<g id="edge11" class="edge">
<title>Node10&#45;&gt;Node11</title>
<path fill="none" stroke="midnightblue" d="M420.73,-112.32C431.84,-104.11 448.74,-91.6 461.98,-81.81"/>
<polygon fill="midnightblue" stroke="midnightblue" points="464.1,-84.59 470.06,-75.83 459.94,-78.97 464.1,-84.59"/>
</g>
<!-- Node10&#45;&gt;Node13 -->
<g id="edge14" class="edge">
<title>Node10&#45;&gt;Node13</title>
<path fill="none" stroke="midnightblue" d="M434.51,-112.44C461.68,-103.33 504.84,-88.85 535.14,-78.69"/>
<polygon fill="midnightblue" stroke="midnightblue" points="536.51,-81.93 544.87,-75.43 534.28,-75.29 536.51,-81.93"/>
</g>
<!-- Node12 -->
<g id="node12" class="node">
<title>Node12</title>
<g id="a_node12"><a xlink:title=" ">
<polygon fill="white" stroke="#bfbfbf" points="462,-0.5 462,-19.5 512,-19.5 512,-0.5 462,-0.5"/>
<text text-anchor="middle" x="487" y="-7.5" font-family="Helvetica,sans-Serif" font-size="10.00">cstdint</text>
</a>
</g>
</g>
<!-- Node11&#45;&gt;Node12 -->
<g id="edge12" class="edge">
<title>Node11&#45;&gt;Node12</title>
<path fill="none" stroke="midnightblue" d="M482.83,-56.08C483.48,-49.01 484.42,-38.86 485.24,-29.99"/>
<polygon fill="midnightblue" stroke="midnightblue" points="488.75,-30.03 486.19,-19.75 481.78,-29.39 488.75,-30.03"/>
</g>
<!-- Node14&#45;&gt;Node3 -->
<g id="edge17" class="edge">
<title>Node14&#45;&gt;Node3</title>
<path fill="none" stroke="midnightblue" d="M187.66,-112.32C174.84,-103.98 155.22,-91.21 140.06,-81.35"/>
<polygon fill="midnightblue" stroke="midnightblue" points="141.59,-78.17 131.3,-75.65 137.78,-84.04 141.59,-78.17"/>
</g>
<!-- Node14&#45;&gt;Node9 -->
<g id="edge18" class="edge">
<title>Node14&#45;&gt;Node9</title>
<path fill="none" stroke="midnightblue" d="M202.57,-112.37C205.8,-94.62 213.24,-53.67 217.62,-29.6"/>
<polygon fill="midnightblue" stroke="midnightblue" points="221.09,-30.06 219.44,-19.59 214.21,-28.8 221.09,-30.06"/>
</g>
</g>
</svg>
