<?xml version="1.0" encoding="UTF-8" standalone="no"?>
<!DOCTYPE svg PUBLIC "-//W3C//DTD SVG 1.1//EN"
 "http://www.w3.org/Graphics/SVG/1.1/DTD/svg11.dtd">
<!-- Generated by graphviz version 2.43.0 (0)
 -->
<!-- Title: erpc_manually_constructed.hpp Pages: 1 -->
<svg width="280pt" height="140pt"
 viewBox="0.00 0.00 279.50 140.00" xmlns="http://www.w3.org/2000/svg" xmlns:xlink="http://www.w3.org/1999/xlink">
<g id="graph0" class="graph" transform="scale(1 1) rotate(0) translate(4 136)">
<title>erpc_manually_constructed.hpp</title>
<polygon fill="white" stroke="transparent" points="-4,4 -4,-136 275.5,-136 275.5,4 -4,4"/>
<!-- Node1 -->
<g id="node1" class="node">
<title>Node1</title>
<g id="a_node1"><a xlink:title=" ">
<polygon fill="#bfbfbf" stroke="black" points="96,-112.5 96,-131.5 268,-131.5 268,-112.5 96,-112.5"/>
<text text-anchor="middle" x="182" y="-119.5" font-family="Helvetica,sans-Serif" font-size="10.00">erpc_manually_constructed.hpp</text>
</a>
</g>
</g>
<!-- Node2 -->
<g id="node2" class="node">
<title>Node2</title>
<g id="a_node2"><a xlink:href="erpc__config__internal_8h_source.html" target="_top" xlink:title=" ">
<polygon fill="white" stroke="black" points="20.5,-56.5 20.5,-75.5 145.5,-75.5 145.5,-56.5 20.5,-56.5"/>
<text text-anchor="middle" x="83" y="-63.5" font-family="Helvetica,sans-Serif" font-size="10.00">erpc_config_internal.h</text>
</a>
</g>
</g>
<!-- Node1&#45;&gt;Node2 -->
<g id="edge1" class="edge">
<title>Node1&#45;&gt;Node2</title>
<path fill="none" stroke="midnightblue" d="M166.09,-112.32C150.36,-103.74 126.06,-90.49 107.79,-80.52"/>
<polygon fill="midnightblue" stroke="midnightblue" points="109.32,-77.37 98.87,-75.65 105.97,-83.52 109.32,-77.37"/>
</g>
<!-- Node5 -->
<g id="node5" class="node">
<title>Node5</title>
<g id="a_node5"><a xlink:title=" ">
<polygon fill="white" stroke="#bfbfbf" points="163.5,-56.5 163.5,-75.5 200.5,-75.5 200.5,-56.5 163.5,-56.5"/>
<text text-anchor="middle" x="182" y="-63.5" font-family="Helvetica,sans-Serif" font-size="10.00">new</text>
</a>
</g>
</g>
<!-- Node1&#45;&gt;Node5 -->
<g id="edge4" class="edge">
<title>Node1&#45;&gt;Node5</title>
<path fill="none" stroke="midnightblue" d="M182,-112.08C182,-105.01 182,-94.86 182,-85.99"/>
<polygon fill="midnightblue" stroke="midnightblue" points="185.5,-85.75 182,-75.75 178.5,-85.75 185.5,-85.75"/>
</g>
<!-- Node6 -->
<g id="node6" class="node">
<title>Node6</title>
<g id="a_node6"><a xlink:title=" ">
<polygon fill="white" stroke="#bfbfbf" points="218.5,-56.5 218.5,-75.5 271.5,-75.5 271.5,-56.5 218.5,-56.5"/>
<text text-anchor="middle" x="245" y="-63.5" font-family="Helvetica,sans-Serif" font-size="10.00">stdint.h</text>
</a>
</g>
</g>
<!-- Node1&#45;&gt;Node6 -->
<g id="edge5" class="edge">
<title>Node1&#45;&gt;Node6</title>
<path fill="none" stroke="midnightblue" d="M192.12,-112.32C201.53,-104.26 215.74,-92.08 227.07,-82.37"/>
<polygon fill="midnightblue" stroke="midnightblue" points="229.38,-85 234.69,-75.83 224.82,-79.68 229.38,-85"/>
</g>
<!-- Node3 -->
<g id="node3" class="node">
<title>Node3</title>
<g id="a_node3"><a xlink:href="erpc__config_8h.html" target="_top" xlink:title=" ">
<polygon fill="white" stroke="black" points="0,-0.5 0,-19.5 82,-19.5 82,-0.5 0,-0.5"/>
<text text-anchor="middle" x="41" y="-7.5" font-family="Helvetica,sans-Serif" font-size="10.00">erpc_config.h</text>
</a>
</g>
</g>
<!-- Node2&#45;&gt;Node3 -->
<g id="edge2" class="edge">
<title>Node2&#45;&gt;Node3</title>
<path fill="none" stroke="midnightblue" d="M76.06,-56.08C70.07,-48.38 61.25,-37.03 53.95,-27.65"/>
<polygon fill="midnightblue" stroke="midnightblue" points="56.71,-25.5 47.81,-19.75 51.18,-29.79 56.71,-25.5"/>
</g>
<!-- Node4 -->
<g id="node4" class="node">
<title>Node4</title>
<g id="a_node4"><a xlink:title=" ">
<polygon fill="white" stroke="#bfbfbf" points="100,-0.5 100,-19.5 152,-19.5 152,-0.5 100,-0.5"/>
<text text-anchor="middle" x="126" y="-7.5" font-family="Helvetica,sans-Serif" font-size="10.00">cassert</text>
</a>
</g>
</g>
<!-- Node2&#45;&gt;Node4 -->
<g id="edge3" class="edge">
<title>Node2&#45;&gt;Node4</title>
<path fill="none" stroke="midnightblue" d="M90.1,-56.08C96.24,-48.38 105.27,-37.03 112.74,-27.65"/>
<polygon fill="midnightblue" stroke="midnightblue" points="115.54,-29.75 119.03,-19.75 110.06,-25.39 115.54,-29.75"/>
</g>
</g>
</svg>
