<?xml version="1.0" encoding="UTF-8" standalone="no"?>
<!DOCTYPE svg PUBLIC "-//W3C//DTD SVG 1.1//EN"
 "http://www.w3.org/Graphics/SVG/1.1/DTD/svg11.dtd">
<!-- Generated by graphviz version 2.43.0 (0)
 -->
<!-- Title: Setup API Pages: 1 -->
<svg width="239pt" height="187pt"
 viewBox="0.00 0.00 239.00 186.50" xmlns="http://www.w3.org/2000/svg" xmlns:xlink="http://www.w3.org/1999/xlink">
<g id="graph0" class="graph" transform="scale(1 1) rotate(0) translate(4 182.5)">
<title>Setup API</title>
<polygon fill="white" stroke="transparent" points="-4,4 -4,-182.5 235,-182.5 235,4 -4,4"/>
<!-- Node4 -->
<g id="node1" class="node">
<title>Node4</title>
<g id="a_node1"><a xlink:href="group__message__buffer__factory__setup.html" target="_top" xlink:title="Message Buffer Factory setup functions.">
<polygon fill="white" stroke="black" points="231,-178.5 99,-178.5 99,-148.5 231,-148.5 231,-178.5"/>
<text text-anchor="start" x="107" y="-166.5" font-family="Helvetica,sans-Serif" font-size="10.00">Message Buffer Factory</text>
<text text-anchor="middle" x="165" y="-155.5" font-family="Helvetica,sans-Serif" font-size="10.00"> Setup</text>
</a>
</g>
</g>
<!-- Node5 -->
<g id="node2" class="node">
<title>Node5</title>
<g id="a_node2"><a xlink:href="group__transport__setup.html" target="_top" xlink:title="Transport layer initialization.">
<polygon fill="white" stroke="black" points="211.5,-130 118.5,-130 118.5,-111 211.5,-111 211.5,-130"/>
<text text-anchor="middle" x="165" y="-118" font-family="Helvetica,sans-Serif" font-size="10.00">Transport Setup</text>
</a>
</g>
</g>
<!-- Node3 -->
<g id="node3" class="node">
<title>Node3</title>
<g id="a_node3"><a xlink:href="group__client__setup.html" target="_top" xlink:title="Client side setup functions.">
<polygon fill="white" stroke="black" points="203,-93 127,-93 127,-74 203,-74 203,-93"/>
<text text-anchor="middle" x="165" y="-81" font-family="Helvetica,sans-Serif" font-size="10.00">Client Setup</text>
</a>
</g>
</g>
<!-- Node2 -->
<g id="node4" class="node">
<title>Node2</title>
<g id="a_node4"><a xlink:href="group__server__setup.html" target="_top" xlink:title="Server side setup and control functions.">
<polygon fill="white" stroke="black" points="204.5,-56 125.5,-56 125.5,-37 204.5,-37 204.5,-56"/>
<text text-anchor="middle" x="165" y="-44" font-family="Helvetica,sans-Serif" font-size="10.00">Server Setup</text>
</a>
</g>
</g>
<!-- Node1 -->
<g id="node5" class="node">
<title>Node1</title>
<g id="a_node5"><a xlink:title="C language setup functions.">
<polygon fill="#bfbfbf" stroke="black" points="63,-93 0,-93 0,-74 63,-74 63,-93"/>
<text text-anchor="middle" x="31.5" y="-81" font-family="Helvetica,sans-Serif" font-size="10.00">Setup API</text>
</a>
</g>
</g>
<!-- Node1&#45;&gt;Node4 -->
<g id="edge3" class="edge">
<title>Node1&#45;&gt;Node4</title>
<path fill="none" stroke="black" d="M49.54,-100.75C62.27,-112.88 80.59,-128.79 99,-139.5 104.72,-142.83 110.98,-145.83 117.29,-148.5"/>
<polygon fill="black" stroke="black" points="51.63,-97.9 42.03,-93.42 46.74,-102.91 51.63,-97.9"/>
</g>
<!-- Node1&#45;&gt;Node5 -->
<g id="edge4" class="edge">
<title>Node1&#45;&gt;Node5</title>
<path fill="none" stroke="black" d="M73.07,-95.15C81.63,-97.59 90.61,-100.14 99,-102.5 108.81,-105.26 119.45,-108.22 129.24,-110.93"/>
<polygon fill="black" stroke="black" points="73.85,-91.73 63.28,-92.35 71.93,-98.46 73.85,-91.73"/>
</g>
<!-- Node1&#45;&gt;Node3 -->
<g id="edge2" class="edge">
<title>Node1&#45;&gt;Node3</title>
<path fill="none" stroke="black" d="M73.55,-83.5C90.58,-83.5 110.2,-83.5 126.8,-83.5"/>
<polygon fill="black" stroke="black" points="73.33,-80 63.33,-83.5 73.33,-87 73.33,-80"/>
</g>
<!-- Node1&#45;&gt;Node2 -->
<g id="edge1" class="edge">
<title>Node1&#45;&gt;Node2</title>
<path fill="none" stroke="black" d="M73.13,-72.07C91.41,-66.93 112.73,-60.93 130.13,-56.03"/>
<polygon fill="black" stroke="black" points="72.01,-68.75 63.33,-74.83 73.91,-75.49 72.01,-68.75"/>
</g>
<!-- Node6 -->
<g id="node6" class="node">
<title>Node6</title>
<g id="a_node6"><a xlink:href="group__port__setup__extensions.html" target="_top" xlink:title="Extension setup functions.">
<polygon fill="white" stroke="black" points="212.5,-19 117.5,-19 117.5,0 212.5,0 212.5,-19"/>
<text text-anchor="middle" x="165" y="-7" font-family="Helvetica,sans-Serif" font-size="10.00">Extension Setup</text>
</a>
</g>
</g>
<!-- Node1&#45;&gt;Node6 -->
<g id="edge5" class="edge">
<title>Node1&#45;&gt;Node6</title>
<path fill="none" stroke="black" d="M48.94,-66.61C61.61,-54.47 80.11,-38.52 99,-28.5 106.17,-24.7 114.19,-21.57 122.09,-19.02"/>
<polygon fill="black" stroke="black" points="46.17,-64.43 41.51,-73.95 51.09,-69.41 46.17,-64.43"/>
</g>
</g>
</svg>
