<?xml version="1.0" encoding="UTF-8" standalone="no"?>
<!DOCTYPE svg PUBLIC "-//W3C//DTD SVG 1.1//EN"
 "http://www.w3.org/Graphics/SVG/1.1/DTD/svg11.dtd">
<!-- Generated by graphviz version 2.43.0 (0)
 -->
<!-- Title: Transport Layers Pages: 1 -->
<svg width="258pt" height="693pt"
 viewBox="0.00 0.00 258.00 693.00" xmlns="http://www.w3.org/2000/svg" xmlns:xlink="http://www.w3.org/1999/xlink">
<g id="graph0" class="graph" transform="scale(1 1) rotate(0) translate(4 689)">
<title>Transport Layers</title>
<polygon fill="white" stroke="transparent" points="-4,4 -4,-689 254,-689 254,4 -4,4"/>
<!-- Node1 -->
<g id="node1" class="node">
<title>Node1</title>
<g id="a_node1"><a xlink:title="Transport layer classes.">
<polygon fill="#bfbfbf" stroke="black" points="98,-352 0,-352 0,-333 98,-333 98,-352"/>
<text text-anchor="middle" x="49" y="-340" font-family="Helvetica,sans-Serif" font-size="10.00">Transport Layers</text>
</a>
</g>
</g>
<!-- Node3 -->
<g id="node2" class="node">
<title>Node3</title>
<g id="a_node2"><a xlink:href="group__dspi__slave__transport.html" target="_top" xlink:title="MCUXpressoSDK DSPI slave driver transport.">
<polygon fill="white" stroke="black" points="226.5,-685 157.5,-685 157.5,-666 226.5,-666 226.5,-685"/>
<text text-anchor="middle" x="192" y="-673" font-family="Helvetica,sans-Serif" font-size="10.00">DSPI Slave</text>
</a>
</g>
</g>
<!-- Node1&#45;&gt;Node3 -->
<g id="edge2" class="edge">
<title>Node1&#45;&gt;Node3</title>
<path fill="none" stroke="black" d="M49.18,-362.07C48.02,-416.66 52.4,-572.12 134,-657.5 140.24,-664.03 148.82,-668.2 157.43,-670.86"/>
<polygon fill="black" stroke="black" points="52.68,-362.12 49.49,-352.02 45.69,-361.91 52.68,-362.12"/>
</g>
<!-- Node18 -->
<g id="node3" class="node">
<title>Node18</title>
<g id="a_node3"><a xlink:href="group__i2c__slave__transport.html" target="_top" xlink:title="MCUXpressoSDK I2C slave driver transport.">
<polygon fill="white" stroke="black" points="223,-648 161,-648 161,-629 223,-629 223,-648"/>
<text text-anchor="middle" x="192" y="-636" font-family="Helvetica,sans-Serif" font-size="10.00">I2C Slave</text>
</a>
</g>
</g>
<!-- Node1&#45;&gt;Node18 -->
<g id="edge17" class="edge">
<title>Node1&#45;&gt;Node18</title>
<path fill="none" stroke="black" d="M50.02,-362.43C51.19,-412.89 61.36,-546.95 134,-620.5 141.15,-627.74 151.17,-632.07 160.83,-634.66"/>
<polygon fill="black" stroke="black" points="53.52,-362.18 49.89,-352.22 46.52,-362.27 53.52,-362.18"/>
</g>
<!-- Node15 -->
<g id="node4" class="node">
<title>Node15</title>
<g id="a_node4"><a xlink:href="group__mu__transport.html" target="_top" xlink:title="Messaging Unit transport.">
<polygon fill="white" stroke="black" points="238,-611 146,-611 146,-592 238,-592 238,-611"/>
<text text-anchor="middle" x="192" y="-599" font-family="Helvetica,sans-Serif" font-size="10.00">Messaging Unit</text>
</a>
</g>
</g>
<!-- Node1&#45;&gt;Node15 -->
<g id="edge14" class="edge">
<title>Node1&#45;&gt;Node15</title>
<path fill="none" stroke="black" d="M51.12,-362.52C54.77,-408.31 70.11,-521.47 134,-583.5 137.5,-586.9 141.64,-589.65 146.06,-591.89"/>
<polygon fill="black" stroke="black" points="54.6,-362.14 50.42,-352.41 47.62,-362.62 54.6,-362.14"/>
</g>
<!-- Node14 -->
<g id="node5" class="node">
<title>Node14</title>
<g id="a_node5"><a xlink:href="group__tcp__transport.html" target="_top" xlink:title="Simple TCP/IP transport.">
<polygon fill="white" stroke="black" points="215.5,-574 168.5,-574 168.5,-555 215.5,-555 215.5,-574"/>
<text text-anchor="middle" x="192" y="-562" font-family="Helvetica,sans-Serif" font-size="10.00">TCP/IP</text>
</a>
</g>
</g>
<!-- Node1&#45;&gt;Node14 -->
<g id="edge13" class="edge">
<title>Node1&#45;&gt;Node14</title>
<path fill="none" stroke="black" d="M52.52,-362.17C58.74,-402.62 78.57,-495.58 134,-546.5 143.4,-555.14 156.93,-559.63 168.44,-561.97"/>
<polygon fill="black" stroke="black" points="55.98,-361.64 51.11,-352.23 49.05,-362.63 55.98,-361.64"/>
</g>
<!-- Node16 -->
<g id="node6" class="node">
<title>Node16</title>
<g id="a_node6"><a xlink:href="group__rpmsg__linux__transport.html" target="_top" xlink:title="RPMsg endpoints linux transport.">
<polygon fill="white" stroke="black" points="242.5,-537 141.5,-537 141.5,-518 242.5,-518 242.5,-537"/>
<text text-anchor="middle" x="192" y="-525" font-family="Helvetica,sans-Serif" font-size="10.00">RPMsg Endpoints</text>
</a>
</g>
</g>
<!-- Node1&#45;&gt;Node16 -->
<g id="edge15" class="edge">
<title>Node1&#45;&gt;Node16</title>
<path fill="none" stroke="black" d="M54.45,-361.89C63.42,-396.6 86.95,-469.44 134,-509.5 138.03,-512.93 142.72,-515.71 147.64,-517.96"/>
<polygon fill="black" stroke="black" points="57.82,-360.93 52.04,-352.05 51.02,-362.6 57.82,-360.93"/>
</g>
<!-- Node10 -->
<g id="node7" class="node">
<title>Node10</title>
<g id="a_node7"><a xlink:href="group__serial__transport.html" target="_top" xlink:title="POSIX and Win32 serial port transport.">
<polygon fill="white" stroke="black" points="225.5,-500 158.5,-500 158.5,-481 225.5,-481 225.5,-500"/>
<text text-anchor="middle" x="192" y="-488" font-family="Helvetica,sans-Serif" font-size="10.00">Serial port</text>
</a>
</g>
</g>
<!-- Node1&#45;&gt;Node10 -->
<g id="edge9" class="edge">
<title>Node1&#45;&gt;Node10</title>
<path fill="none" stroke="black" d="M57.47,-361.89C69.38,-390.3 95.35,-443.03 134,-472.5 141.1,-477.91 149.86,-481.72 158.36,-484.39"/>
<polygon fill="black" stroke="black" points="60.58,-360.26 53.59,-352.3 54.09,-362.88 60.58,-360.26"/>
</g>
<!-- Node5 -->
<g id="node8" class="node">
<title>Node5</title>
<g id="a_node8"><a xlink:href="group__spi__slave__transport.html" target="_top" xlink:title="MCUXpressoSDK SPI slave driver transport.">
<polygon fill="white" stroke="black" points="223,-463 161,-463 161,-444 223,-444 223,-463"/>
<text text-anchor="middle" x="192" y="-451" font-family="Helvetica,sans-Serif" font-size="10.00">SPI Slave</text>
</a>
</g>
</g>
<!-- Node1&#45;&gt;Node5 -->
<g id="edge4" class="edge">
<title>Node1&#45;&gt;Node5</title>
<path fill="none" stroke="black" d="M61.79,-360.54C76.37,-381.47 103.07,-415.63 134,-435.5 142.12,-440.72 151.86,-444.52 160.98,-447.25"/>
<polygon fill="black" stroke="black" points="64.65,-358.52 56.15,-352.21 58.86,-362.45 64.65,-358.52"/>
</g>
<!-- Node9 -->
<g id="node9" class="node">
<title>Node9</title>
<g id="a_node9"><a xlink:href="group__uart__transport.html" target="_top" xlink:title="CMSIS UART driver transport.">
<polygon fill="white" stroke="black" points="230.5,-426 153.5,-426 153.5,-407 230.5,-407 230.5,-426"/>
<text text-anchor="middle" x="192" y="-414" font-family="Helvetica,sans-Serif" font-size="10.00">CMSIS UART</text>
</a>
</g>
</g>
<!-- Node1&#45;&gt;Node9 -->
<g id="edge8" class="edge">
<title>Node1&#45;&gt;Node9</title>
<path fill="none" stroke="black" d="M70.43,-358.51C86.86,-370.79 110.93,-387.44 134,-398.5 140.74,-401.73 148.19,-404.57 155.43,-406.98"/>
<polygon fill="black" stroke="black" points="72.22,-355.48 62.14,-352.21 67.98,-361.05 72.22,-355.48"/>
</g>
<!-- Node7 -->
<g id="node10" class="node">
<title>Node7</title>
<g id="a_node10"><a xlink:href="group__spidev__master__transport.html" target="_top" xlink:title="SPIdev Linux transport.">
<polygon fill="white" stroke="black" points="250,-389 134,-389 134,-370 250,-370 250,-389"/>
<text text-anchor="middle" x="192" y="-377" font-family="Helvetica,sans-Serif" font-size="10.00">SPIdev Linux Master</text>
</a>
</g>
</g>
<!-- Node1&#45;&gt;Node7 -->
<g id="edge6" class="edge">
<title>Node1&#45;&gt;Node7</title>
<path fill="none" stroke="black" d="M96.19,-354.62C115.05,-359.57 136.56,-365.22 154.32,-369.88"/>
<polygon fill="black" stroke="black" points="96.87,-351.18 86.31,-352.03 95.1,-357.95 96.87,-351.18"/>
</g>
<!-- Node4 -->
<g id="node11" class="node">
<title>Node4</title>
<g id="a_node11"><a xlink:href="group__spi__master__transport.html" target="_top" xlink:title="MCUXpressoSDK SPI master driver transport.">
<polygon fill="white" stroke="black" points="226,-352 158,-352 158,-333 226,-333 226,-352"/>
<text text-anchor="middle" x="192" y="-340" font-family="Helvetica,sans-Serif" font-size="10.00">SPI Master</text>
</a>
</g>
</g>
<!-- Node1&#45;&gt;Node4 -->
<g id="edge3" class="edge">
<title>Node1&#45;&gt;Node4</title>
<path fill="none" stroke="black" d="M108.44,-342.5C125.26,-342.5 143.02,-342.5 157.74,-342.5"/>
<polygon fill="black" stroke="black" points="108.13,-339 98.13,-342.5 108.13,-346 108.13,-339"/>
</g>
<!-- Node19 -->
<g id="node12" class="node">
<title>Node19</title>
<g id="a_node12"><a xlink:href="group__lpi2c__slave__transport.html" target="_top" xlink:title="MCUXpressoSDK LPI2C slave driver transport.">
<polygon fill="white" stroke="black" points="229,-315 155,-315 155,-296 229,-296 229,-315"/>
<text text-anchor="middle" x="192" y="-303" font-family="Helvetica,sans-Serif" font-size="10.00">LPI2C Slave</text>
</a>
</g>
</g>
<!-- Node1&#45;&gt;Node19 -->
<g id="edge18" class="edge">
<title>Node1&#45;&gt;Node19</title>
<path fill="none" stroke="black" d="M96.01,-330.43C115.09,-325.42 136.9,-319.7 154.81,-315"/>
<polygon fill="black" stroke="black" points="95.1,-327.05 86.31,-332.97 96.87,-333.82 95.1,-327.05"/>
</g>
<!-- Node13 -->
<g id="node13" class="node">
<title>Node13</title>
<g id="a_node13"><a xlink:href="group__rpmsg__tty__rtos__transport.html" target="_top" xlink:title="RPMsg TTY RTOS transport.">
<polygon fill="white" stroke="black" points="242,-278 142,-278 142,-259 242,-259 242,-278"/>
<text text-anchor="middle" x="192" y="-266" font-family="Helvetica,sans-Serif" font-size="10.00">RPMsg TTY RTOS</text>
</a>
</g>
</g>
<!-- Node1&#45;&gt;Node13 -->
<g id="edge12" class="edge">
<title>Node1&#45;&gt;Node13</title>
<path fill="none" stroke="black" d="M70.81,-326.69C87.28,-314.72 111.23,-298.52 134,-287.5 141.42,-283.91 149.69,-280.73 157.57,-278.04"/>
<polygon fill="black" stroke="black" points="68.44,-324.08 62.48,-332.84 72.6,-329.71 68.44,-324.08"/>
</g>
<!-- Node20 -->
<g id="node14" class="node">
<title>Node20</title>
<g id="a_node14"><a xlink:href="group__mbox__transport.html" target="_top" xlink:title="Zephyr MBOX transport.">
<polygon fill="white" stroke="black" points="234,-241 150,-241 150,-222 234,-222 234,-241"/>
<text text-anchor="middle" x="192" y="-229" font-family="Helvetica,sans-Serif" font-size="10.00">Zephyr MBOX</text>
</a>
</g>
</g>
<!-- Node1&#45;&gt;Node20 -->
<g id="edge19" class="edge">
<title>Node1&#45;&gt;Node20</title>
<path fill="none" stroke="black" d="M62.09,-324.47C76.8,-303.83 103.49,-270.33 134,-250.5 139.86,-246.69 146.56,-243.58 153.25,-241.05"/>
<polygon fill="black" stroke="black" points="59.03,-322.74 56.2,-332.95 64.78,-326.73 59.03,-322.74"/>
</g>
<!-- Node8 -->
<g id="node15" class="node">
<title>Node8</title>
<g id="a_node15"><a xlink:href="group__itbp__transport.html" target="_top" xlink:title="Simple inter&#45;thread communications transport.">
<polygon fill="white" stroke="black" points="229,-204 155,-204 155,-185 229,-185 229,-204"/>
<text text-anchor="middle" x="192" y="-192" font-family="Helvetica,sans-Serif" font-size="10.00">Inter&#45;thread</text>
</a>
</g>
</g>
<!-- Node1&#45;&gt;Node8 -->
<g id="edge7" class="edge">
<title>Node1&#45;&gt;Node8</title>
<path fill="none" stroke="black" d="M57.57,-323.33C69.61,-295.25 95.74,-243.05 134,-213.5 140.11,-208.78 147.45,-205.2 154.8,-202.5"/>
<polygon fill="black" stroke="black" points="54.23,-322.24 53.65,-332.82 60.7,-324.91 54.23,-322.24"/>
</g>
<!-- Node2 -->
<g id="node16" class="node">
<title>Node2</title>
<g id="a_node16"><a xlink:href="group__dspi__master__transport.html" target="_top" xlink:title="MCUXpressoSDK DSPI master driver transport.">
<polygon fill="white" stroke="black" points="230,-167 154,-167 154,-148 230,-148 230,-167"/>
<text text-anchor="middle" x="192" y="-155" font-family="Helvetica,sans-Serif" font-size="10.00">DSPI Master</text>
</a>
</g>
</g>
<!-- Node1&#45;&gt;Node2 -->
<g id="edge1" class="edge">
<title>Node1&#45;&gt;Node2</title>
<path fill="none" stroke="black" d="M54.68,-322.81C63.9,-288.23 87.67,-216.49 134,-176.5 139.69,-171.59 146.68,-167.94 153.8,-165.23"/>
<polygon fill="black" stroke="black" points="51.25,-322.09 52.19,-332.64 58.04,-323.81 51.25,-322.09"/>
</g>
<!-- Node17 -->
<g id="node17" class="node">
<title>Node17</title>
<g id="a_node17"><a xlink:href="group___u_s_b___c_d_c__transport.html" target="_top" xlink:title="USB CDC transport.">
<polygon fill="white" stroke="black" points="222.5,-130 161.5,-130 161.5,-111 222.5,-111 222.5,-130"/>
<text text-anchor="middle" x="192" y="-118" font-family="Helvetica,sans-Serif" font-size="10.00">USB CDC</text>
</a>
</g>
</g>
<!-- Node1&#45;&gt;Node17 -->
<g id="edge16" class="edge">
<title>Node1&#45;&gt;Node17</title>
<path fill="none" stroke="black" d="M52.66,-322.74C59.1,-282.48 79.28,-190.49 134,-139.5 141.48,-132.53 151.58,-128.11 161.21,-125.31"/>
<polygon fill="black" stroke="black" points="49.16,-322.44 51.16,-332.85 56.09,-323.47 49.16,-322.44"/>
</g>
<!-- Node11 -->
<g id="node18" class="node">
<title>Node11</title>
<g id="a_node18"><a xlink:href="group__rpmsg__lite__rtos__transport.html" target="_top" xlink:title="RPMsg&#45;Lite zero copy transport using RTOS API.">
<polygon fill="white" stroke="black" points="242.5,-93 141.5,-93 141.5,-74 242.5,-74 242.5,-93"/>
<text text-anchor="middle" x="192" y="-81" font-family="Helvetica,sans-Serif" font-size="10.00">RPMsg&#45;Lite RTOS</text>
</a>
</g>
</g>
<!-- Node1&#45;&gt;Node11 -->
<g id="edge10" class="edge">
<title>Node1&#45;&gt;Node11</title>
<path fill="none" stroke="black" d="M51.21,-322.63C55.06,-277.18 70.8,-164.76 134,-102.5 137.94,-98.62 142.69,-95.53 147.75,-93.07"/>
<polygon fill="black" stroke="black" points="47.72,-322.44 50.47,-332.67 54.7,-322.96 47.72,-322.44"/>
</g>
<!-- Node6 -->
<g id="node19" class="node">
<title>Node6</title>
<g id="a_node19"><a xlink:href="group__lpspi__slave__transport.html" target="_top" xlink:title="MCUXpressoSDK LPSPI slave driver transport.">
<polygon fill="white" stroke="black" points="228.5,-56 155.5,-56 155.5,-37 228.5,-37 228.5,-56"/>
<text text-anchor="middle" x="192" y="-44" font-family="Helvetica,sans-Serif" font-size="10.00">LPSPI Slave</text>
</a>
</g>
</g>
<!-- Node1&#45;&gt;Node6 -->
<g id="edge5" class="edge">
<title>Node1&#45;&gt;Node6</title>
<path fill="none" stroke="black" d="M50.12,-322.71C51.51,-272.58 62.15,-139.34 134,-65.5 139.82,-59.52 147.57,-55.42 155.47,-52.61"/>
<polygon fill="black" stroke="black" points="46.62,-322.79 49.94,-332.85 53.62,-322.91 46.62,-322.79"/>
</g>
<!-- Node12 -->
<g id="node20" class="node">
<title>Node12</title>
<g id="a_node20"><a xlink:href="group__rpmsg__lite__transport.html" target="_top" xlink:title="RPMsg&#45;Lite zero copy transport.">
<polygon fill="white" stroke="black" points="227.5,-19 156.5,-19 156.5,0 227.5,0 227.5,-19"/>
<text text-anchor="middle" x="192" y="-7" font-family="Helvetica,sans-Serif" font-size="10.00">RPMsg&#45;Lite</text>
</a>
</g>
</g>
<!-- Node1&#45;&gt;Node12 -->
<g id="edge11" class="edge">
<title>Node1&#45;&gt;Node12</title>
<path fill="none" stroke="black" d="M49.27,-322.69C48.37,-268.12 53.47,-114.04 134,-28.5 139.93,-22.2 148.01,-17.98 156.22,-15.17"/>
<polygon fill="black" stroke="black" points="45.77,-322.85 49.53,-332.76 52.77,-322.67 45.77,-322.85"/>
</g>
</g>
</svg>
