<?xml version="1.0" encoding="UTF-8" standalone="no"?>
<!DOCTYPE svg PUBLIC "-//W3C//DTD SVG 1.1//EN"
 "http://www.w3.org/Graphics/SVG/1.1/DTD/svg11.dtd">
<!-- Generated by graphviz version 2.43.0 (0)
 -->
<!-- Title: Porting Pages: 1 -->
<svg width="153pt" height="175pt"
 viewBox="0.00 0.00 153.00 175.00" xmlns="http://www.w3.org/2000/svg" xmlns:xlink="http://www.w3.org/1999/xlink">
<g id="graph0" class="graph" transform="scale(1 1) rotate(0) translate(4 171)">
<title>Porting</title>
<polygon fill="white" stroke="transparent" points="-4,4 -4,-171 149,-171 149,4 -4,4"/>
<!-- Node3 -->
<g id="node1" class="node">
<title>Node3</title>
<g id="a_node1"><a xlink:href="group__port__threads.html" target="_top" xlink:title="Threading model.">
<polygon fill="white" stroke="black" points="144,-167 88,-167 88,-148 144,-148 144,-167"/>
<text text-anchor="middle" x="116" y="-155" font-family="Helvetica,sans-Serif" font-size="10.00">Threads</text>
</a>
</g>
</g>
<!-- Node6 -->
<g id="node2" class="node">
<title>Node6</title>
<g id="a_node2"><a xlink:href="group__port__sysgpio.html" target="_top" xlink:title="SysGPIO port.">
<polygon fill="white" stroke="black" points="145,-130 87,-130 87,-111 145,-111 145,-130"/>
<text text-anchor="middle" x="116" y="-118" font-family="Helvetica,sans-Serif" font-size="10.00">SysGPIO</text>
</a>
</g>
</g>
<!-- Node2 -->
<g id="node3" class="node">
<title>Node2</title>
<g id="a_node3"><a xlink:href="group__port__mem.html" target="_top" xlink:title="Memory allocation.">
<polygon fill="white" stroke="black" points="144.5,-93 87.5,-93 87.5,-74 144.5,-74 144.5,-93"/>
<text text-anchor="middle" x="116" y="-81" font-family="Helvetica,sans-Serif" font-size="10.00">Memory</text>
</a>
</g>
</g>
<!-- Node4 -->
<g id="node4" class="node">
<title>Node4</title>
<g id="a_node4"><a xlink:href="group__port__serial.html" target="_top" xlink:title="Serial port.">
<polygon fill="white" stroke="black" points="138,-56 94,-56 94,-37 138,-37 138,-56"/>
<text text-anchor="middle" x="116" y="-44" font-family="Helvetica,sans-Serif" font-size="10.00">Serial</text>
</a>
</g>
</g>
<!-- Node5 -->
<g id="node5" class="node">
<title>Node5</title>
<g id="a_node5"><a xlink:href="group__port__spidev.html" target="_top" xlink:title="SPIdev port.">
<polygon fill="white" stroke="black" points="141,-19 91,-19 91,0 141,0 141,-19"/>
<text text-anchor="middle" x="116" y="-7" font-family="Helvetica,sans-Serif" font-size="10.00">SPIdev</text>
</a>
</g>
</g>
<!-- Node1 -->
<g id="node6" class="node">
<title>Node1</title>
<g id="a_node6"><a xlink:title="Porting layer.">
<polygon fill="#bfbfbf" stroke="black" points="51,-93 0,-93 0,-74 51,-74 51,-93"/>
<text text-anchor="middle" x="25.5" y="-81" font-family="Helvetica,sans-Serif" font-size="10.00">Porting</text>
</a>
</g>
</g>
<!-- Node1&#45;&gt;Node3 -->
<g id="edge2" class="edge">
<title>Node1&#45;&gt;Node3</title>
<path fill="none" stroke="black" d="M43.23,-100.48C55,-112.05 71.37,-127.39 87,-139.5 90.75,-142.4 94.97,-145.29 98.97,-147.88"/>
<polygon fill="black" stroke="black" points="45.44,-97.75 35.88,-93.17 40.5,-102.71 45.44,-97.75"/>
</g>
<!-- Node1&#45;&gt;Node6 -->
<g id="edge5" class="edge">
<title>Node1&#45;&gt;Node6</title>
<path fill="none" stroke="black" d="M58.64,-96.94C69.68,-101.55 81.81,-106.62 91.98,-110.88"/>
<polygon fill="black" stroke="black" points="59.87,-93.66 49.29,-93.03 57.17,-100.11 59.87,-93.66"/>
</g>
<!-- Node1&#45;&gt;Node2 -->
<g id="edge1" class="edge">
<title>Node1&#45;&gt;Node2</title>
<path fill="none" stroke="black" d="M61.35,-83.5C69.99,-83.5 79.13,-83.5 87.37,-83.5"/>
<polygon fill="black" stroke="black" points="61.15,-80 51.15,-83.5 61.15,-87 61.15,-80"/>
</g>
<!-- Node1&#45;&gt;Node4 -->
<g id="edge3" class="edge">
<title>Node1&#45;&gt;Node4</title>
<path fill="none" stroke="black" d="M58.74,-70.02C70.42,-65.14 83.31,-59.75 93.81,-55.36"/>
<polygon fill="black" stroke="black" points="57.17,-66.89 49.29,-73.97 59.87,-73.34 57.17,-66.89"/>
</g>
<!-- Node1&#45;&gt;Node5 -->
<g id="edge4" class="edge">
<title>Node1&#45;&gt;Node5</title>
<path fill="none" stroke="black" d="M43.79,-66.57C55.59,-55.33 71.78,-40.49 87,-28.5 91.06,-25.3 95.64,-22.06 99.9,-19.18"/>
<polygon fill="black" stroke="black" points="41.16,-64.24 36.39,-73.7 46.02,-69.28 41.16,-64.24"/>
</g>
</g>
</svg>
