<?xml version="1.0" encoding="UTF-8" standalone="no"?>
<!DOCTYPE svg PUBLIC "-//W3C//DTD SVG 1.1//EN"
 "http://www.w3.org/Graphics/SVG/1.1/DTD/svg11.dtd">
<!-- Generated by graphviz version 2.43.0 (0)
 -->
<!-- Title: Infrastructure Pages: 1 -->
<svg width="204pt" height="175pt"
 viewBox="0.00 0.00 204.00 175.00" xmlns="http://www.w3.org/2000/svg" xmlns:xlink="http://www.w3.org/1999/xlink">
<g id="graph0" class="graph" transform="scale(1 1) rotate(0) translate(4 171)">
<title>Infrastructure</title>
<polygon fill="white" stroke="transparent" points="-4,4 -4,-171 200,-171 200,4 -4,4"/>
<!-- Node1 -->
<g id="node1" class="node">
<title>Node1</title>
<g id="a_node1"><a xlink:title="C++ core.">
<polygon fill="#bfbfbf" stroke="black" points="83,-93 0,-93 0,-74 83,-74 83,-93"/>
<text text-anchor="middle" x="41.5" y="-81" font-family="Helvetica,sans-Serif" font-size="10.00">Infrastructure</text>
</a>
</g>
</g>
<!-- Node5 -->
<g id="node2" class="node">
<title>Node5</title>
<g id="a_node2"><a xlink:href="group__infra__client.html" target="_top" xlink:title="Client classes.">
<polygon fill="white" stroke="black" points="180,-167 135,-167 135,-148 180,-148 180,-167"/>
<text text-anchor="middle" x="157.5" y="-155" font-family="Helvetica,sans-Serif" font-size="10.00">Client</text>
</a>
</g>
</g>
<!-- Node1&#45;&gt;Node5 -->
<g id="edge4" class="edge">
<title>Node1&#45;&gt;Node5</title>
<path fill="none" stroke="black" d="M62.27,-99.54C77.32,-111.36 98.82,-127.41 119,-139.5 123.96,-142.47 129.48,-145.34 134.73,-147.88"/>
<polygon fill="black" stroke="black" points="64.22,-96.62 54.22,-93.14 59.86,-102.1 64.22,-96.62"/>
</g>
<!-- Node2 -->
<g id="node3" class="node">
<title>Node2</title>
<g id="a_node3"><a xlink:href="group__infra__transport.html" target="_top" xlink:title="Superclasses for building transports.">
<polygon fill="white" stroke="black" points="191.5,-130 123.5,-130 123.5,-111 191.5,-111 191.5,-130"/>
<text text-anchor="middle" x="157.5" y="-118" font-family="Helvetica,sans-Serif" font-size="10.00">Transports</text>
</a>
</g>
</g>
<!-- Node1&#45;&gt;Node2 -->
<g id="edge1" class="edge">
<title>Node1&#45;&gt;Node2</title>
<path fill="none" stroke="black" d="M81.75,-96.24C96.53,-101.04 113.08,-106.41 126.85,-110.88"/>
<polygon fill="black" stroke="black" points="82.45,-92.79 71.86,-93.03 80.29,-99.44 82.45,-92.79"/>
</g>
<!-- Node3 -->
<g id="node4" class="node">
<title>Node3</title>
<g id="a_node4"><a xlink:href="group__infra__utility.html" target="_top" xlink:title="Utility code used by the infrastructure.">
<polygon fill="white" stroke="black" points="185,-93 130,-93 130,-74 185,-74 185,-93"/>
<text text-anchor="middle" x="157.5" y="-81" font-family="Helvetica,sans-Serif" font-size="10.00">Utilities</text>
</a>
</g>
</g>
<!-- Node1&#45;&gt;Node3 -->
<g id="edge2" class="edge">
<title>Node1&#45;&gt;Node3</title>
<path fill="none" stroke="black" d="M93.38,-83.5C105.89,-83.5 118.81,-83.5 129.67,-83.5"/>
<polygon fill="black" stroke="black" points="93.01,-80 83.01,-83.5 93.01,-87 93.01,-80"/>
</g>
<!-- Node4 -->
<g id="node5" class="node">
<title>Node4</title>
<g id="a_node5"><a xlink:href="group__infra__server.html" target="_top" xlink:title="Server classes.">
<polygon fill="white" stroke="black" points="181.5,-56 133.5,-56 133.5,-37 181.5,-37 181.5,-56"/>
<text text-anchor="middle" x="157.5" y="-44" font-family="Helvetica,sans-Serif" font-size="10.00">Server</text>
</a>
</g>
</g>
<!-- Node1&#45;&gt;Node4 -->
<g id="edge3" class="edge">
<title>Node1&#45;&gt;Node4</title>
<path fill="none" stroke="black" d="M81.66,-70.79C98.88,-65.2 118.51,-58.83 133.35,-54.01"/>
<polygon fill="black" stroke="black" points="80.29,-67.56 71.86,-73.97 82.45,-74.21 80.29,-67.56"/>
</g>
<!-- Node6 -->
<g id="node6" class="node">
<title>Node6</title>
<g id="a_node6"><a xlink:href="group__infra__codec.html" target="_top" xlink:title="Classes used for message serialization.">
<polygon fill="white" stroke="black" points="196,-19 119,-19 119,0 196,0 196,-19"/>
<text text-anchor="middle" x="157.5" y="-7" font-family="Helvetica,sans-Serif" font-size="10.00">Serialization</text>
</a>
</g>
</g>
<!-- Node1&#45;&gt;Node6 -->
<g id="edge5" class="edge">
<title>Node1&#45;&gt;Node6</title>
<path fill="none" stroke="black" d="M62.66,-67.7C77.75,-56.19 99.14,-40.57 119,-28.5 124.36,-25.24 130.36,-22.03 135.95,-19.2"/>
<polygon fill="black" stroke="black" points="60.34,-65.06 54.55,-73.94 64.61,-70.61 60.34,-65.06"/>
</g>
</g>
</svg>
