<?xml version="1.0" encoding="UTF-8" standalone="no"?>
<!DOCTYPE svg PUBLIC "-//W3C//DTD SVG 1.1//EN"
 "http://www.w3.org/Graphics/SVG/1.1/DTD/svg11.dtd">
<!-- Generated by graphviz version 2.43.0 (0)
 -->
<!-- Title: Graphical Class Hierarchy Pages: 1 -->
<svg width="507pt" height="66pt"
 viewBox="0.00 0.00 507.00 66.00" xmlns="http://www.w3.org/2000/svg" xmlns:xlink="http://www.w3.org/1999/xlink">
<g id="graph0" class="graph" transform="scale(1 1) rotate(0) translate(4 62)">
<title>Graphical Class Hierarchy</title>
<polygon fill="white" stroke="transparent" points="-4,4 -4,-62 503,-62 503,4 -4,4"/>
<!-- Node0 -->
<g id="node1" class="node">
<title>Node0</title>
<g id="a_node1"><a xlink:href="classerpc_1_1_client_server_common.html" target="_top" xlink:title="Common class inherited by client and server class.">
<polygon fill="white" stroke="black" points="0,-19.5 0,-38.5 148,-38.5 148,-19.5 0,-19.5"/>
<text text-anchor="middle" x="74" y="-26.5" font-family="Helvetica,sans-Serif" font-size="10.00">erpc::ClientServerCommon</text>
</a>
</g>
</g>
<!-- Node1 -->
<g id="node2" class="node">
<title>Node1</title>
<g id="a_node2"><a xlink:href="classerpc_1_1_client_manager.html" target="_top" xlink:title="Base client implementation.">
<polygon fill="white" stroke="black" points="184,-38.5 184,-57.5 299,-57.5 299,-38.5 184,-38.5"/>
<text text-anchor="middle" x="241.5" y="-45.5" font-family="Helvetica,sans-Serif" font-size="10.00">erpc::ClientManager</text>
</a>
</g>
</g>
<!-- Node0&#45;&gt;Node1 -->
<g id="edge1" class="edge">
<title>Node0&#45;&gt;Node1</title>
<path fill="none" stroke="midnightblue" d="M158.2,-38.55C166.84,-39.54 175.47,-40.53 183.73,-41.48"/>
<polygon fill="midnightblue" stroke="midnightblue" points="158.41,-35.05 148.07,-37.39 157.61,-42.01 158.41,-35.05"/>
</g>
<!-- Node3 -->
<g id="node4" class="node">
<title>Node3</title>
<g id="a_node4"><a xlink:href="classerpc_1_1_server.html" target="_top" xlink:title="Based server functionality.">
<polygon fill="white" stroke="black" points="204,-0.5 204,-19.5 279,-19.5 279,-0.5 204,-0.5"/>
<text text-anchor="middle" x="241.5" y="-7.5" font-family="Helvetica,sans-Serif" font-size="10.00">erpc::Server</text>
</a>
</g>
</g>
<!-- Node0&#45;&gt;Node3 -->
<g id="edge3" class="edge">
<title>Node0&#45;&gt;Node3</title>
<path fill="none" stroke="midnightblue" d="M158.03,-19.47C174.04,-17.63 190.05,-15.79 203.64,-14.23"/>
<polygon fill="midnightblue" stroke="midnightblue" points="157.61,-15.99 148.07,-20.61 158.41,-22.95 157.61,-15.99"/>
</g>
<!-- Node2 -->
<g id="node3" class="node">
<title>Node2</title>
<g id="a_node3"><a xlink:href="classerpc_1_1_arbitrated_client_manager.html" target="_top" xlink:title="Client that can share a transport with a server.">
<polygon fill="white" stroke="black" points="335,-38.5 335,-57.5 499,-57.5 499,-38.5 335,-38.5"/>
<text text-anchor="middle" x="417" y="-45.5" font-family="Helvetica,sans-Serif" font-size="10.00">erpc::ArbitratedClientManager</text>
</a>
</g>
</g>
<!-- Node1&#45;&gt;Node2 -->
<g id="edge2" class="edge">
<title>Node1&#45;&gt;Node2</title>
<path fill="none" stroke="midnightblue" d="M309.34,-48C317.69,-48 326.29,-48 334.83,-48"/>
<polygon fill="midnightblue" stroke="midnightblue" points="309.31,-44.5 299.31,-48 309.31,-51.5 309.31,-44.5"/>
</g>
<!-- Node4 -->
<g id="node5" class="node">
<title>Node4</title>
<g id="a_node5"><a xlink:href="classerpc_1_1_simple_server.html" target="_top" xlink:title="Based server implementation.">
<polygon fill="white" stroke="black" points="362.5,-0.5 362.5,-19.5 471.5,-19.5 471.5,-0.5 362.5,-0.5"/>
<text text-anchor="middle" x="417" y="-7.5" font-family="Helvetica,sans-Serif" font-size="10.00">erpc::SimpleServer</text>
</a>
</g>
</g>
<!-- Node3&#45;&gt;Node4 -->
<g id="edge4" class="edge">
<title>Node3&#45;&gt;Node4</title>
<path fill="none" stroke="midnightblue" d="M289.31,-10C311.88,-10 339.07,-10 362.46,-10"/>
<polygon fill="midnightblue" stroke="midnightblue" points="289.29,-6.5 279.29,-10 289.29,-13.5 289.29,-6.5"/>
</g>
</g>
</svg>
