<?xml version="1.0" encoding="UTF-8" standalone="no"?>
<!DOCTYPE svg PUBLIC "-//W3C//DTD SVG 1.1//EN"
 "http://www.w3.org/Graphics/SVG/1.1/DTD/svg11.dtd">
<!-- Generated by graphviz version 2.43.0 (0)
 -->
<!-- Title: Graphical Class Hierarchy Pages: 1 -->
<svg width="524pt" height="484pt"
 viewBox="0.00 0.00 524.00 484.00" xmlns="http://www.w3.org/2000/svg" xmlns:xlink="http://www.w3.org/1999/xlink">
<g id="graph0" class="graph" transform="scale(1 1) rotate(0) translate(4 480)">
<title>Graphical Class Hierarchy</title>
<polygon fill="white" stroke="transparent" points="-4,4 -4,-480 520,-480 520,4 -4,4"/>
<!-- Node0 -->
<g id="node1" class="node">
<title>Node0</title>
<g id="a_node1"><a xlink:href="classerpc_1_1_r_p_msg_base.html" target="_top" xlink:title="Transport that other RPMsg transports inherits.">
<polygon fill="white" stroke="black" points="0,-418.5 0,-437.5 101,-437.5 101,-418.5 0,-418.5"/>
<text text-anchor="middle" x="50.5" y="-425.5" font-family="Helvetica,sans-Serif" font-size="10.00">erpc::RPMsgBase</text>
</a>
</g>
</g>
<!-- Node1 -->
<g id="node2" class="node">
<title>Node1</title>
<g id="a_node2"><a xlink:href="classerpc_1_1_r_p_msg_r_t_o_s_transport.html" target="_top" xlink:title="Transport that uses RPMsg zero copy RTOS API for interprocessor messaging.">
<polygon fill="white" stroke="black" points="150.5,-380.5 150.5,-399.5 299.5,-399.5 299.5,-380.5 150.5,-380.5"/>
<text text-anchor="middle" x="225" y="-387.5" font-family="Helvetica,sans-Serif" font-size="10.00">erpc::RPMsgRTOSTransport</text>
</a>
</g>
</g>
<!-- Node0&#45;&gt;Node1 -->
<g id="edge1" class="edge">
<title>Node0&#45;&gt;Node1</title>
<path fill="none" stroke="midnightblue" d="M103.96,-416.31C114.88,-413.89 126.31,-411.35 137,-409 151.04,-405.91 166.36,-402.55 180.18,-399.54"/>
<polygon fill="midnightblue" stroke="midnightblue" points="103.12,-412.91 94.11,-418.5 104.63,-419.75 103.12,-412.91"/>
</g>
<!-- Node2 -->
<g id="node3" class="node">
<title>Node2</title>
<g id="a_node3"><a xlink:href="classerpc_1_1_r_p_msg_t_t_y_r_t_o_s_transport.html" target="_top" xlink:title="Transport that uses RPMsg zero copy RTOS API for interprocessor messaging.">
<polygon fill="white" stroke="black" points="349,-456.5 349,-475.5 516,-475.5 516,-456.5 349,-456.5"/>
<text text-anchor="middle" x="432.5" y="-463.5" font-family="Helvetica,sans-Serif" font-size="10.00">erpc::RPMsgTTYRTOSTransport</text>
</a>
</g>
</g>
<!-- Node0&#45;&gt;Node2 -->
<g id="edge2" class="edge">
<title>Node0&#45;&gt;Node2</title>
<path fill="none" stroke="midnightblue" d="M98.83,-439.88C111.19,-442.61 124.53,-445.22 137,-447 208.14,-457.14 289.72,-461.87 348.95,-464.08"/>
<polygon fill="midnightblue" stroke="midnightblue" points="99.26,-436.39 88.73,-437.58 97.7,-443.22 99.26,-436.39"/>
</g>
<!-- Node3 -->
<g id="node4" class="node">
<title>Node3</title>
<g id="a_node4"><a xlink:href="classerpc_1_1_r_p_msg_transport.html" target="_top" xlink:title="Transport that uses RPMsg zero copy API for interprocessor messaging.">
<polygon fill="white" stroke="black" points="164,-418.5 164,-437.5 286,-437.5 286,-418.5 164,-418.5"/>
<text text-anchor="middle" x="225" y="-425.5" font-family="Helvetica,sans-Serif" font-size="10.00">erpc::RPMsgTransport</text>
</a>
</g>
</g>
<!-- Node0&#45;&gt;Node3 -->
<g id="edge3" class="edge">
<title>Node0&#45;&gt;Node3</title>
<path fill="none" stroke="midnightblue" d="M111.69,-428C128.58,-428 146.94,-428 163.83,-428"/>
<polygon fill="midnightblue" stroke="midnightblue" points="111.39,-424.5 101.39,-428 111.39,-431.5 111.39,-424.5"/>
</g>
<!-- Node38 -->
<g id="node5" class="node">
<title>Node38</title>
<g id="a_node5"><a xlink:href="classerpc_1_1_transport.html" target="_top" xlink:title="Abstract interface for transport layer.">
<polygon fill="white" stroke="black" points="6,-285.5 6,-304.5 95,-304.5 95,-285.5 6,-285.5"/>
<text text-anchor="middle" x="50.5" y="-292.5" font-family="Helvetica,sans-Serif" font-size="10.00">erpc::Transport</text>
</a>
</g>
</g>
<!-- Node38&#45;&gt;Node1 -->
<g id="edge22" class="edge">
<title>Node38&#45;&gt;Node1</title>
<path fill="none" stroke="midnightblue" d="M66.15,-312.45C81.85,-329.99 108.4,-356.44 137,-371 144.58,-374.86 152.92,-377.93 161.34,-380.39"/>
<polygon fill="midnightblue" stroke="midnightblue" points="68.56,-309.89 59.35,-304.65 63.28,-314.49 68.56,-309.89"/>
</g>
<!-- Node38&#45;&gt;Node3 -->
<g id="edge23" class="edge">
<title>Node38&#45;&gt;Node3</title>
<path fill="none" stroke="midnightblue" d="M60.28,-313.91C73.26,-339.66 100.07,-385.27 137,-409 145.06,-414.18 154.32,-417.97 163.73,-420.73"/>
<polygon fill="midnightblue" stroke="midnightblue" points="63.37,-312.27 55.85,-304.8 57.08,-315.33 63.37,-312.27"/>
</g>
<!-- Node39 -->
<g id="node6" class="node">
<title>Node39</title>
<g id="a_node6"><a xlink:href="classerpc_1_1_framed_transport.html" target="_top" xlink:title="Base class for framed transport layers.">
<polygon fill="white" stroke="black" points="162,-228.5 162,-247.5 288,-247.5 288,-228.5 162,-228.5"/>
<text text-anchor="middle" x="225" y="-235.5" font-family="Helvetica,sans-Serif" font-size="10.00">erpc::FramedTransport</text>
</a>
</g>
</g>
<!-- Node38&#45;&gt;Node39 -->
<g id="edge4" class="edge">
<title>Node38&#45;&gt;Node39</title>
<path fill="none" stroke="midnightblue" d="M79.15,-280.99C95.62,-273.08 117.13,-263.51 137,-257 148.17,-253.34 160.37,-250.18 172.01,-247.54"/>
<polygon fill="midnightblue" stroke="midnightblue" points="77.53,-277.89 70.08,-285.42 80.6,-284.18 77.53,-277.89"/>
</g>
<!-- Node52 -->
<g id="node19" class="node">
<title>Node52</title>
<g id="a_node19"><a xlink:href="classerpc_1_1_inter_thread_buffer_transport.html" target="_top" xlink:title="Very basic transport to send/receive messages between threads.">
<polygon fill="white" stroke="black" points="137,-190.5 137,-209.5 313,-209.5 313,-190.5 137,-190.5"/>
<text text-anchor="middle" x="225" y="-197.5" font-family="Helvetica,sans-Serif" font-size="10.00">erpc::InterThreadBufferTransport</text>
</a>
</g>
</g>
<!-- Node38&#45;&gt;Node52 -->
<g id="edge18" class="edge">
<title>Node38&#45;&gt;Node52</title>
<path fill="none" stroke="midnightblue" d="M66.15,-277.55C81.85,-260.01 108.4,-233.56 137,-219 144.58,-215.14 152.92,-212.07 161.34,-209.61"/>
<polygon fill="midnightblue" stroke="midnightblue" points="63.28,-275.51 59.35,-285.35 68.56,-280.11 63.28,-275.51"/>
</g>
<!-- Node53 -->
<g id="node20" class="node">
<title>Node53</title>
<g id="a_node20"><a xlink:href="classerpc_1_1_m_b_o_x_transport.html" target="_top" xlink:title="Transport to send/receive messages via MBOX.">
<polygon fill="white" stroke="black" points="165.5,-152.5 165.5,-171.5 284.5,-171.5 284.5,-152.5 165.5,-152.5"/>
<text text-anchor="middle" x="225" y="-159.5" font-family="Helvetica,sans-Serif" font-size="10.00">erpc::MBOXTransport</text>
</a>
</g>
</g>
<!-- Node38&#45;&gt;Node53 -->
<g id="edge19" class="edge">
<title>Node38&#45;&gt;Node53</title>
<path fill="none" stroke="midnightblue" d="M60.28,-276.09C73.26,-250.34 100.07,-204.73 137,-181 145.45,-175.57 155.22,-171.67 165.1,-168.88"/>
<polygon fill="midnightblue" stroke="midnightblue" points="57.08,-274.67 55.85,-285.2 63.37,-277.73 57.08,-274.67"/>
</g>
<!-- Node54 -->
<g id="node21" class="node">
<title>Node54</title>
<g id="a_node21"><a xlink:href="classerpc_1_1_m_u_transport.html" target="_top" xlink:title="Transport that uses Messaging Unit (MU) for interprocessor messaging.">
<polygon fill="white" stroke="black" points="172,-342.5 172,-361.5 278,-361.5 278,-342.5 172,-342.5"/>
<text text-anchor="middle" x="225" y="-349.5" font-family="Helvetica,sans-Serif" font-size="10.00">erpc::MUTransport</text>
</a>
</g>
</g>
<!-- Node38&#45;&gt;Node54 -->
<g id="edge20" class="edge">
<title>Node38&#45;&gt;Node54</title>
<path fill="none" stroke="midnightblue" d="M79.15,-309.01C95.62,-316.92 117.13,-326.49 137,-333 148.17,-336.66 160.37,-339.82 172.01,-342.46"/>
<polygon fill="midnightblue" stroke="midnightblue" points="80.6,-305.82 70.08,-304.58 77.53,-312.11 80.6,-305.82"/>
</g>
<!-- Node55 -->
<g id="node22" class="node">
<title>Node55</title>
<g id="a_node22"><a xlink:href="classerpc_1_1_r_p_msg_linux_transport.html" target="_top" xlink:title="RPMSG Linux transport to send/receive messages through RPMSG endpoints based on github....">
<polygon fill="white" stroke="black" points="150.5,-304.5 150.5,-323.5 299.5,-323.5 299.5,-304.5 150.5,-304.5"/>
<text text-anchor="middle" x="225" y="-311.5" font-family="Helvetica,sans-Serif" font-size="10.00">erpc::RPMsgLinuxTransport</text>
</a>
</g>
</g>
<!-- Node38&#45;&gt;Node55 -->
<g id="edge21" class="edge">
<title>Node38&#45;&gt;Node55</title>
<path fill="none" stroke="midnightblue" d="M105.16,-300.91C119.44,-302.48 135.13,-304.21 150.28,-305.88"/>
<polygon fill="midnightblue" stroke="midnightblue" points="105.35,-297.41 95.03,-299.79 104.59,-304.37 105.35,-297.41"/>
</g>
<!-- Node56 -->
<g id="node23" class="node">
<title>Node56</title>
<g id="a_node23"><a xlink:href="classerpc_1_1_transport_arbitrator.html" target="_top" xlink:title="Interposer to share transport between client and server.">
<polygon fill="white" stroke="black" points="157,-266.5 157,-285.5 293,-285.5 293,-266.5 157,-266.5"/>
<text text-anchor="middle" x="225" y="-273.5" font-family="Helvetica,sans-Serif" font-size="10.00">erpc::TransportArbitrator</text>
</a>
</g>
</g>
<!-- Node38&#45;&gt;Node56 -->
<g id="edge24" class="edge">
<title>Node38&#45;&gt;Node56</title>
<path fill="none" stroke="midnightblue" d="M105,-289.11C121.44,-287.3 139.74,-285.28 156.97,-283.38"/>
<polygon fill="midnightblue" stroke="midnightblue" points="104.59,-285.63 95.03,-290.21 105.35,-292.59 104.59,-285.63"/>
</g>
<!-- Node39&#45;&gt;Node2 -->
<g id="edge10" class="edge">
<title>Node39&#45;&gt;Node2</title>
<path fill="none" stroke="midnightblue" d="M297.53,-246.01C303.26,-248.82 308.54,-252.42 313,-257 372.92,-318.61 289.43,-385.05 349,-447 352.67,-450.81 356.94,-453.93 361.56,-456.47"/>
<polygon fill="midnightblue" stroke="midnightblue" points="298.79,-242.74 288.21,-242.21 296.15,-249.23 298.79,-242.74"/>
</g>
<!-- Node40 -->
<g id="node7" class="node">
<title>Node40</title>
<g id="a_node7"><a xlink:href="classerpc_1_1_dspi_master_transport.html" target="_top" xlink:title="Very basic transport to send/receive messages via DSPI.">
<polygon fill="white" stroke="black" points="360,-304.5 360,-323.5 505,-323.5 505,-304.5 360,-304.5"/>
<text text-anchor="middle" x="432.5" y="-311.5" font-family="Helvetica,sans-Serif" font-size="10.00">erpc::DspiMasterTransport</text>
</a>
</g>
</g>
<!-- Node39&#45;&gt;Node40 -->
<g id="edge5" class="edge">
<title>Node39&#45;&gt;Node40</title>
<path fill="none" stroke="midnightblue" d="M297.75,-249.98C303.06,-251.97 308.2,-254.29 313,-257 333.26,-268.43 328.8,-283.45 349,-295 355.76,-298.87 363.26,-301.95 370.9,-304.4"/>
<polygon fill="midnightblue" stroke="midnightblue" points="298.66,-246.6 288.07,-246.74 296.44,-253.23 298.66,-246.6"/>
</g>
<!-- Node41 -->
<g id="node8" class="node">
<title>Node41</title>
<g id="a_node8"><a xlink:href="classerpc_1_1_dspi_slave_transport.html" target="_top" xlink:title="Very basic transport to send/receive messages via DSPI.">
<polygon fill="white" stroke="black" points="363.5,-266.5 363.5,-285.5 501.5,-285.5 501.5,-266.5 363.5,-266.5"/>
<text text-anchor="middle" x="432.5" y="-273.5" font-family="Helvetica,sans-Serif" font-size="10.00">erpc::DspiSlaveTransport</text>
</a>
</g>
</g>
<!-- Node39&#45;&gt;Node41 -->
<g id="edge6" class="edge">
<title>Node39&#45;&gt;Node41</title>
<path fill="none" stroke="midnightblue" d="M287.75,-249.42C317.15,-254.86 351.91,-261.28 379.89,-266.46"/>
<polygon fill="midnightblue" stroke="midnightblue" points="288.06,-245.92 277.59,-247.54 286.79,-252.8 288.06,-245.92"/>
</g>
<!-- Node42 -->
<g id="node9" class="node">
<title>Node42</title>
<g id="a_node9"><a xlink:href="classerpc_1_1_i2c_slave_transport.html" target="_top" xlink:title="Very basic transport to send/receive messages via I2C.">
<polygon fill="white" stroke="black" points="367,-228.5 367,-247.5 498,-247.5 498,-228.5 367,-228.5"/>
<text text-anchor="middle" x="432.5" y="-235.5" font-family="Helvetica,sans-Serif" font-size="10.00">erpc::I2cSlaveTransport</text>
</a>
</g>
</g>
<!-- Node39&#45;&gt;Node42 -->
<g id="edge7" class="edge">
<title>Node39&#45;&gt;Node42</title>
<path fill="none" stroke="midnightblue" d="M298.28,-238C320.55,-238 344.91,-238 366.65,-238"/>
<polygon fill="midnightblue" stroke="midnightblue" points="298.21,-234.5 288.21,-238 298.21,-241.5 298.21,-234.5"/>
</g>
<!-- Node43 -->
<g id="node10" class="node">
<title>Node43</title>
<g id="a_node10"><a xlink:href="classerpc_1_1_l_p_i2c_slave_transport.html" target="_top" xlink:title="Very basic transport to send/receive messages via LPI2C.">
<polygon fill="white" stroke="black" points="361.5,-190.5 361.5,-209.5 503.5,-209.5 503.5,-190.5 361.5,-190.5"/>
<text text-anchor="middle" x="432.5" y="-197.5" font-family="Helvetica,sans-Serif" font-size="10.00">erpc::LPI2cSlaveTransport</text>
</a>
</g>
</g>
<!-- Node39&#45;&gt;Node43 -->
<g id="edge8" class="edge">
<title>Node39&#45;&gt;Node43</title>
<path fill="none" stroke="midnightblue" d="M287.75,-226.58C317.15,-221.14 351.91,-214.72 379.89,-209.54"/>
<polygon fill="midnightblue" stroke="midnightblue" points="286.79,-223.2 277.59,-228.46 288.06,-230.08 286.79,-223.2"/>
</g>
<!-- Node44 -->
<g id="node11" class="node">
<title>Node44</title>
<g id="a_node11"><a xlink:href="classerpc_1_1_l_p_spi_slave_transport.html" target="_top" xlink:title="Very basic transport to send/receive messages via LPSPI.">
<polygon fill="white" stroke="black" points="361,-152.5 361,-171.5 504,-171.5 504,-152.5 361,-152.5"/>
<text text-anchor="middle" x="432.5" y="-159.5" font-family="Helvetica,sans-Serif" font-size="10.00">erpc::LPSpiSlaveTransport</text>
</a>
</g>
</g>
<!-- Node39&#45;&gt;Node44 -->
<g id="edge9" class="edge">
<title>Node39&#45;&gt;Node44</title>
<path fill="none" stroke="midnightblue" d="M297.75,-226.02C303.06,-224.03 308.2,-221.71 313,-219 333.26,-207.57 328.8,-192.55 349,-181 355.76,-177.13 363.26,-174.05 370.9,-171.6"/>
<polygon fill="midnightblue" stroke="midnightblue" points="296.44,-222.77 288.07,-229.26 298.66,-229.4 296.44,-222.77"/>
</g>
<!-- Node45 -->
<g id="node12" class="node">
<title>Node45</title>
<g id="a_node12"><a xlink:href="classerpc_1_1_serial_transport.html" target="_top" xlink:title="Serial transport layer for host PC.">
<polygon fill="white" stroke="black" points="374,-114.5 374,-133.5 491,-133.5 491,-114.5 374,-114.5"/>
<text text-anchor="middle" x="432.5" y="-121.5" font-family="Helvetica,sans-Serif" font-size="10.00">erpc::SerialTransport</text>
</a>
</g>
</g>
<!-- Node39&#45;&gt;Node45 -->
<g id="edge11" class="edge">
<title>Node39&#45;&gt;Node45</title>
<path fill="none" stroke="midnightblue" d="M297.63,-228.17C303.13,-225.71 308.35,-222.7 313,-219 342.26,-195.74 319.88,-166.43 349,-143 356.22,-137.2 364.88,-133.1 373.83,-130.22"/>
<polygon fill="midnightblue" stroke="midnightblue" points="296.23,-224.96 288.13,-231.79 298.73,-231.5 296.23,-224.96"/>
</g>
<!-- Node46 -->
<g id="node13" class="node">
<title>Node46</title>
<g id="a_node13"><a xlink:href="classerpc_1_1_spi_master_transport.html" target="_top" xlink:title="Very basic transport to send/receive messages via SPI.">
<polygon fill="white" stroke="black" points="363.5,-76.5 363.5,-95.5 501.5,-95.5 501.5,-76.5 363.5,-76.5"/>
<text text-anchor="middle" x="432.5" y="-83.5" font-family="Helvetica,sans-Serif" font-size="10.00">erpc::SpiMasterTransport</text>
</a>
</g>
</g>
<!-- Node39&#45;&gt;Node46 -->
<g id="edge12" class="edge">
<title>Node39&#45;&gt;Node46</title>
<path fill="none" stroke="midnightblue" d="M297.93,-228.97C303.41,-226.35 308.54,-223.07 313,-219 352.24,-183.17 309.97,-141.05 349,-105 353.21,-101.11 358.05,-97.97 363.24,-95.43"/>
<polygon fill="midnightblue" stroke="midnightblue" points="296.39,-225.81 288.41,-232.79 299,-232.31 296.39,-225.81"/>
</g>
<!-- Node47 -->
<g id="node14" class="node">
<title>Node47</title>
<g id="a_node14"><a xlink:href="classerpc_1_1_spi_slave_transport.html" target="_top" xlink:title="Very basic transport to send/receive messages via SPI.">
<polygon fill="white" stroke="black" points="367,-38.5 367,-57.5 498,-57.5 498,-38.5 367,-38.5"/>
<text text-anchor="middle" x="432.5" y="-45.5" font-family="Helvetica,sans-Serif" font-size="10.00">erpc::SpiSlaveTransport</text>
</a>
</g>
</g>
<!-- Node39&#45;&gt;Node47 -->
<g id="edge13" class="edge">
<title>Node39&#45;&gt;Node47</title>
<path fill="none" stroke="midnightblue" d="M297.99,-229.45C303.5,-226.73 308.62,-223.3 313,-219 362.52,-170.34 299.76,-115.94 349,-67 354.11,-61.92 360.28,-58.09 366.93,-55.22"/>
<polygon fill="midnightblue" stroke="midnightblue" points="296.31,-226.35 288.38,-233.38 298.96,-232.83 296.31,-226.35"/>
</g>
<!-- Node48 -->
<g id="node15" class="node">
<title>Node48</title>
<g id="a_node15"><a xlink:href="classerpc_1_1_spidev_master_transport.html" target="_top" xlink:title="Very basic transport to send/receive messages via SPIdev.">
<polygon fill="white" stroke="black" points="354.5,-0.5 354.5,-19.5 510.5,-19.5 510.5,-0.5 354.5,-0.5"/>
<text text-anchor="middle" x="432.5" y="-7.5" font-family="Helvetica,sans-Serif" font-size="10.00">erpc::SpidevMasterTransport</text>
</a>
</g>
</g>
<!-- Node39&#45;&gt;Node48 -->
<g id="edge14" class="edge">
<title>Node39&#45;&gt;Node48</title>
<path fill="none" stroke="midnightblue" d="M297.53,-229.99C303.26,-227.18 308.54,-223.58 313,-219 372.92,-157.39 289.43,-90.95 349,-29 352.67,-25.19 356.94,-22.07 361.56,-19.53"/>
<polygon fill="midnightblue" stroke="midnightblue" points="296.15,-226.77 288.21,-233.79 298.79,-233.26 296.15,-226.77"/>
</g>
<!-- Node49 -->
<g id="node16" class="node">
<title>Node49</title>
<g id="a_node16"><a xlink:href="classerpc_1_1_t_c_p_transport.html" target="_top" xlink:title="Client side of TCP/IP transport.">
<polygon fill="white" stroke="black" points="378.5,-418.5 378.5,-437.5 486.5,-437.5 486.5,-418.5 378.5,-418.5"/>
<text text-anchor="middle" x="432.5" y="-425.5" font-family="Helvetica,sans-Serif" font-size="10.00">erpc::TCPTransport</text>
</a>
</g>
</g>
<!-- Node39&#45;&gt;Node49 -->
<g id="edge15" class="edge">
<title>Node39&#45;&gt;Node49</title>
<path fill="none" stroke="midnightblue" d="M297.99,-246.55C303.5,-249.27 308.62,-252.7 313,-257 362.52,-305.66 299.76,-360.06 349,-409 356.92,-416.87 367.41,-421.75 378.25,-424.71"/>
<polygon fill="midnightblue" stroke="midnightblue" points="298.96,-243.17 288.38,-242.62 296.31,-249.65 298.96,-243.17"/>
</g>
<!-- Node50 -->
<g id="node17" class="node">
<title>Node50</title>
<g id="a_node17"><a xlink:href="classerpc_1_1_uart_transport.html" target="_top" xlink:title="Very basic transport to send/receive messages via UART.">
<polygon fill="white" stroke="black" points="377.5,-380.5 377.5,-399.5 487.5,-399.5 487.5,-380.5 377.5,-380.5"/>
<text text-anchor="middle" x="432.5" y="-387.5" font-family="Helvetica,sans-Serif" font-size="10.00">erpc::UartTransport</text>
</a>
</g>
</g>
<!-- Node39&#45;&gt;Node50 -->
<g id="edge16" class="edge">
<title>Node39&#45;&gt;Node50</title>
<path fill="none" stroke="midnightblue" d="M297.93,-247.03C303.41,-249.65 308.54,-252.93 313,-257 352.24,-292.83 309.97,-334.95 349,-371 356.88,-378.28 366.98,-382.95 377.38,-385.91"/>
<polygon fill="midnightblue" stroke="midnightblue" points="299,-243.69 288.41,-243.21 296.39,-250.19 299,-243.69"/>
</g>
<!-- Node51 -->
<g id="node18" class="node">
<title>Node51</title>
<g id="a_node18"><a xlink:href="classerpc_1_1_usb_cdc_transport.html" target="_top" xlink:title="Very basic transport to send/receive messages via virtual USB CDC port.">
<polygon fill="white" stroke="black" points="369.5,-342.5 369.5,-361.5 495.5,-361.5 495.5,-342.5 369.5,-342.5"/>
<text text-anchor="middle" x="432.5" y="-349.5" font-family="Helvetica,sans-Serif" font-size="10.00">erpc::UsbCdcTransport</text>
</a>
</g>
</g>
<!-- Node39&#45;&gt;Node51 -->
<g id="edge17" class="edge">
<title>Node39&#45;&gt;Node51</title>
<path fill="none" stroke="midnightblue" d="M297.63,-247.83C303.13,-250.29 308.35,-253.3 313,-257 342.26,-280.26 319.88,-309.57 349,-333 354.96,-337.79 361.9,-341.42 369.17,-344.16"/>
<polygon fill="midnightblue" stroke="midnightblue" points="298.73,-244.5 288.13,-244.21 296.23,-251.04 298.73,-244.5"/>
</g>
</g>
</svg>
