<?xml version="1.0" encoding="UTF-8" standalone="no"?>
<!DOCTYPE svg PUBLIC "-//W3C//DTD SVG 1.1//EN"
 "http://www.w3.org/Graphics/SVG/1.1/DTD/svg11.dtd">
<!-- Generated by graphviz version 2.43.0 (0)
 -->
<!-- Title: Graphical Class Hierarchy Pages: 1 -->
<svg width="367pt" height="104pt"
 viewBox="0.00 0.00 367.00 104.00" xmlns="http://www.w3.org/2000/svg" xmlns:xlink="http://www.w3.org/1999/xlink">
<g id="graph0" class="graph" transform="scale(1 1) rotate(0) translate(4 100)">
<title>Graphical Class Hierarchy</title>
<polygon fill="white" stroke="transparent" points="-4,4 -4,-100 363,-100 363,4 -4,4"/>
<!-- Node0 -->
<g id="node1" class="node">
<title>Node0</title>
<g id="a_node1"><a xlink:href="classerpc_1_1_message_buffer_factory.html" target="_top" xlink:title="Abstract interface for message buffer factory.">
<polygon fill="white" stroke="black" points="0,-38.5 0,-57.5 153,-57.5 153,-38.5 0,-38.5"/>
<text text-anchor="middle" x="76.5" y="-45.5" font-family="Helvetica,sans-Serif" font-size="10.00">erpc::MessageBufferFactory</text>
</a>
</g>
</g>
<!-- Node1 -->
<g id="node2" class="node">
<title>Node1</title>
<g id="a_node2"><a xlink:href="class_dynamic_message_buffer_factory.html" target="_top" xlink:title="Dynamic message buffer factory.">
<polygon fill="white" stroke="black" points="189,-76.5 189,-95.5 359,-95.5 359,-76.5 189,-76.5"/>
<text text-anchor="middle" x="274" y="-83.5" font-family="Helvetica,sans-Serif" font-size="10.00">DynamicMessageBufferFactory</text>
</a>
</g>
</g>
<!-- Node0&#45;&gt;Node1 -->
<g id="edge1" class="edge">
<title>Node0&#45;&gt;Node1</title>
<path fill="none" stroke="midnightblue" d="M136.61,-59.49C164.5,-64.91 197.4,-71.31 223.9,-76.46"/>
<polygon fill="midnightblue" stroke="midnightblue" points="137.06,-56.01 126.58,-57.54 135.73,-62.88 137.06,-56.01"/>
</g>
<!-- Node2 -->
<g id="node3" class="node">
<title>Node2</title>
<g id="a_node3"><a xlink:href="class_r_p_msg_message_buffer_factory.html" target="_top" xlink:title="RPMsg zero copy message buffer factory.">
<polygon fill="white" stroke="black" points="194.5,-38.5 194.5,-57.5 353.5,-57.5 353.5,-38.5 194.5,-38.5"/>
<text text-anchor="middle" x="274" y="-45.5" font-family="Helvetica,sans-Serif" font-size="10.00">RPMsgMessageBufferFactory</text>
</a>
</g>
</g>
<!-- Node0&#45;&gt;Node2 -->
<g id="edge2" class="edge">
<title>Node0&#45;&gt;Node2</title>
<path fill="none" stroke="midnightblue" d="M163.33,-48C173.66,-48 184.17,-48 194.38,-48"/>
<polygon fill="midnightblue" stroke="midnightblue" points="163.09,-44.5 153.09,-48 163.09,-51.5 163.09,-44.5"/>
</g>
<!-- Node3 -->
<g id="node4" class="node">
<title>Node3</title>
<g id="a_node4"><a xlink:href="class_static_message_buffer_factory.html" target="_top" xlink:title="Static Message buffer factory.">
<polygon fill="white" stroke="black" points="197,-0.5 197,-19.5 351,-19.5 351,-0.5 197,-0.5"/>
<text text-anchor="middle" x="274" y="-7.5" font-family="Helvetica,sans-Serif" font-size="10.00">StaticMessageBufferFactory</text>
</a>
</g>
</g>
<!-- Node0&#45;&gt;Node3 -->
<g id="edge3" class="edge">
<title>Node0&#45;&gt;Node3</title>
<path fill="none" stroke="midnightblue" d="M136.61,-36.51C164.5,-31.09 197.4,-24.69 223.9,-19.54"/>
<polygon fill="midnightblue" stroke="midnightblue" points="135.73,-33.12 126.58,-38.46 137.06,-39.99 135.73,-33.12"/>
</g>
</g>
</svg>
