<?xml version="1.0" encoding="UTF-8" standalone="no"?>
<!DOCTYPE svg PUBLIC "-//W3C//DTD SVG 1.1//EN"
 "http://www.w3.org/Graphics/SVG/1.1/DTD/svg11.dtd">
<!-- Generated by graphviz version 2.43.0 (0)
 -->
<!-- Title: erpc::TransportArbitrator::PendingClientInfo Pages: 1 -->
<svg width="248pt" height="240pt"
 viewBox="0.00 0.00 247.50 240.00" xmlns="http://www.w3.org/2000/svg" xmlns:xlink="http://www.w3.org/1999/xlink">
<g id="graph0" class="graph" transform="scale(1 1) rotate(0) translate(4 236)">
<title>erpc::TransportArbitrator::PendingClientInfo</title>
<polygon fill="white" stroke="transparent" points="-4,4 -4,-236 243.5,-236 243.5,4 -4,4"/>
<!-- Node1 -->
<g id="node1" class="node">
<title>Node1</title>
<g id="a_node1"><a xlink:title="Request info for a client trying to receive a response.">
<polygon fill="#bfbfbf" stroke="black" points="12.5,-0.5 12.5,-30.5 148.5,-30.5 148.5,-0.5 12.5,-0.5"/>
<text text-anchor="start" x="20.5" y="-18.5" font-family="Helvetica,sans-Serif" font-size="10.00">erpc::TransportArbitrator</text>
<text text-anchor="middle" x="80.5" y="-7.5" font-family="Helvetica,sans-Serif" font-size="10.00">::PendingClientInfo</text>
</a>
</g>
</g>
<!-- Node1&#45;&gt;Node1 -->
<g id="edge2" class="edge">
<title>Node1&#45;&gt;Node1</title>
<path fill="none" stroke="#9a32cd" stroke-dasharray="5,2" d="M158.6,-20.51C163.53,-19.33 166.5,-17.66 166.5,-15.5 166.5,-12.12 159.26,-9.95 148.63,-8.97"/>
<polygon fill="#9a32cd" stroke="#9a32cd" points="157.99,-17.06 148.63,-22.03 159.04,-23.98 157.99,-17.06"/>
<text text-anchor="middle" x="186.5" y="-13" font-family="Helvetica,sans-Serif" font-size="10.00"> m_next</text>
</g>
<!-- Node2 -->
<g id="node2" class="node">
<title>Node2</title>
<g id="a_node2"><a xlink:href="classerpc_1_1_semaphore.html" target="_top" xlink:title="Simple semaphore class.">
<polygon fill="white" stroke="black" points="0,-78.5 0,-97.5 99,-97.5 99,-78.5 0,-78.5"/>
<text text-anchor="middle" x="49.5" y="-85.5" font-family="Helvetica,sans-Serif" font-size="10.00">erpc::Semaphore</text>
</a>
</g>
</g>
<!-- Node2&#45;&gt;Node1 -->
<g id="edge1" class="edge">
<title>Node2&#45;&gt;Node1</title>
<path fill="none" stroke="#9a32cd" stroke-dasharray="5,2" d="M57.43,-68.96C62.68,-57.03 69.46,-41.61 74.31,-30.58"/>
<polygon fill="#9a32cd" stroke="#9a32cd" points="54.12,-67.79 53.3,-78.36 60.53,-70.61 54.12,-67.79"/>
<text text-anchor="middle" x="86.5" y="-52" font-family="Helvetica,sans-Serif" font-size="10.00"> m_sem</text>
</g>
<!-- Node3 -->
<g id="node3" class="node">
<title>Node3</title>
<g id="a_node3"><a xlink:href="classerpc_1_1_request_context.html" target="_top" xlink:title="Encapsulates all information about a request.">
<polygon fill="white" stroke="black" points="117.5,-78.5 117.5,-97.5 239.5,-97.5 239.5,-78.5 117.5,-78.5"/>
<text text-anchor="middle" x="178.5" y="-85.5" font-family="Helvetica,sans-Serif" font-size="10.00">erpc::RequestContext</text>
</a>
</g>
</g>
<!-- Node3&#45;&gt;Node1 -->
<g id="edge3" class="edge">
<title>Node3&#45;&gt;Node1</title>
<path fill="none" stroke="#9a32cd" stroke-dasharray="5,2" d="M158.3,-72.47C141.23,-60.19 116.95,-42.72 100.07,-30.58"/>
<polygon fill="#9a32cd" stroke="#9a32cd" points="156.32,-75.36 166.48,-78.36 160.41,-69.67 156.32,-75.36"/>
<text text-anchor="middle" x="165" y="-52" font-family="Helvetica,sans-Serif" font-size="10.00"> m_request</text>
</g>
<!-- Node4 -->
<g id="node4" class="node">
<title>Node4</title>
<g id="a_node4"><a xlink:href="classerpc_1_1_codec.html" target="_top" xlink:title="Abstract serialization encoder/decoder interface.">
<polygon fill="white" stroke="black" points="141.5,-145.5 141.5,-164.5 215.5,-164.5 215.5,-145.5 141.5,-145.5"/>
<text text-anchor="middle" x="178.5" y="-152.5" font-family="Helvetica,sans-Serif" font-size="10.00">erpc::Codec</text>
</a>
</g>
</g>
<!-- Node4&#45;&gt;Node3 -->
<g id="edge4" class="edge">
<title>Node4&#45;&gt;Node3</title>
<path fill="none" stroke="#9a32cd" stroke-dasharray="5,2" d="M178.5,-135.04C178.5,-122.67 178.5,-107.12 178.5,-97.63"/>
<polygon fill="#9a32cd" stroke="#9a32cd" points="175,-135.23 178.5,-145.23 182,-135.23 175,-135.23"/>
<text text-anchor="middle" x="202" y="-119" font-family="Helvetica,sans-Serif" font-size="10.00"> m_codec</text>
</g>
<!-- Node5 -->
<g id="node5" class="node">
<title>Node5</title>
<g id="a_node5"><a xlink:href="classerpc_1_1_cursor.html" target="_top" xlink:title="Cursor within a MessageBuffer.">
<polygon fill="white" stroke="black" points="141,-212.5 141,-231.5 216,-231.5 216,-212.5 141,-212.5"/>
<text text-anchor="middle" x="178.5" y="-219.5" font-family="Helvetica,sans-Serif" font-size="10.00">erpc::Cursor</text>
</a>
</g>
</g>
<!-- Node5&#45;&gt;Node4 -->
<g id="edge5" class="edge">
<title>Node5&#45;&gt;Node4</title>
<path fill="none" stroke="#9a32cd" stroke-dasharray="5,2" d="M178.5,-202.04C178.5,-189.67 178.5,-174.12 178.5,-164.63"/>
<polygon fill="#9a32cd" stroke="#9a32cd" points="175,-202.23 178.5,-212.23 182,-202.23 175,-202.23"/>
<text text-anchor="middle" x="203" y="-186" font-family="Helvetica,sans-Serif" font-size="10.00"> m_cursor</text>
</g>
</g>
</svg>
