<?xml version="1.0" encoding="UTF-8" standalone="no"?>
<!DOCTYPE svg PUBLIC "-//W3C//DTD SVG 1.1//EN"
 "http://www.w3.org/Graphics/SVG/1.1/DTD/svg11.dtd">
<!-- Generated by graphviz version 2.43.0 (0)
 -->
<!-- Title: erpc::InterThreadBufferTransport::SharedState Pages: 1 -->
<svg width="184pt" height="106pt"
 viewBox="0.00 0.00 184.00 106.00" xmlns="http://www.w3.org/2000/svg" xmlns:xlink="http://www.w3.org/1999/xlink">
<g id="graph0" class="graph" transform="scale(1 1) rotate(0) translate(4 102)">
<title>erpc::InterThreadBufferTransport::SharedState</title>
<polygon fill="white" stroke="transparent" points="-4,4 -4,-102 180,-102 180,4 -4,4"/>
<!-- Node1 -->
<g id="node1" class="node">
<title>Node1</title>
<g id="a_node1"><a xlink:title=" ">
<polygon fill="#bfbfbf" stroke="black" points="0,-0.5 0,-30.5 176,-30.5 176,-0.5 0,-0.5"/>
<text text-anchor="start" x="8" y="-18.5" font-family="Helvetica,sans-Serif" font-size="10.00">erpc::InterThreadBufferTransport</text>
<text text-anchor="middle" x="88" y="-7.5" font-family="Helvetica,sans-Serif" font-size="10.00">::SharedState</text>
</a>
</g>
</g>
<!-- Node2 -->
<g id="node2" class="node">
<title>Node2</title>
<g id="a_node2"><a xlink:href="classerpc_1_1_mutex.html" target="_top" xlink:title="Mutex.">
<polygon fill="white" stroke="black" points="51,-78.5 51,-97.5 125,-97.5 125,-78.5 51,-78.5"/>
<text text-anchor="middle" x="88" y="-85.5" font-family="Helvetica,sans-Serif" font-size="10.00">erpc::Mutex</text>
</a>
</g>
</g>
<!-- Node2&#45;&gt;Node1 -->
<g id="edge1" class="edge">
<title>Node2&#45;&gt;Node1</title>
<path fill="none" stroke="#9a32cd" stroke-dasharray="5,2" d="M88,-68.24C88,-56.41 88,-41.38 88,-30.58"/>
<polygon fill="#9a32cd" stroke="#9a32cd" points="84.5,-68.36 88,-78.36 91.5,-68.36 84.5,-68.36"/>
<text text-anchor="middle" x="113" y="-52" font-family="Helvetica,sans-Serif" font-size="10.00"> m_mutex</text>
</g>
</g>
</svg>
