<?xml version="1.0" encoding="UTF-8" standalone="no"?>
<!DOCTYPE svg PUBLIC "-//W3C//DTD SVG 1.1//EN"
 "http://www.w3.org/Graphics/SVG/1.1/DTD/svg11.dtd">
<!-- Generated by graphviz version 2.38.0 (20140413.2041)
 -->
<!-- Title: erpc::ClientServerCommon Pages: 1 -->
<svg width="270pt" height="140pt"
 viewBox="0.00 0.00 270.00 140.00" xmlns="http://www.w3.org/2000/svg" xmlns:xlink="http://www.w3.org/1999/xlink">
<g id="graph0" class="graph" transform="scale(1 1) rotate(0) translate(4 136)">
<title>erpc::ClientServerCommon</title>
<polygon fill="white" stroke="none" points="-4,4 -4,-136 266,-136 266,4 -4,4"/>
<!-- Node1 -->
<g id="node1" class="node"><title>Node1</title>
<polygon fill="#bfbfbf" stroke="black" points="77,-112.5 77,-131.5 209,-131.5 209,-112.5 77,-112.5"/>
<text text-anchor="middle" x="143" y="-119.5" font-family="Helvetica,sans-Serif" font-size="10.00">erpc::ClientServerCommon</text>
</g>
<!-- Node2 -->
<g id="node2" class="node"><title>Node2</title>
<g id="a_node2"><a xlink:href="classerpc_1_1_client_manager.html" target="_top" xlink:title="Base client implementation. ">
<polygon fill="white" stroke="black" points="30,-56.5 30,-75.5 134,-75.5 134,-56.5 30,-56.5"/>
<text text-anchor="middle" x="82" y="-63.5" font-family="Helvetica,sans-Serif" font-size="10.00">erpc::ClientManager</text>
</a>
</g>
</g>
<!-- Node1&#45;&gt;Node2 -->
<g id="edge1" class="edge"><title>Node1&#45;&gt;Node2</title>
<path fill="none" stroke="midnightblue" d="M125.533,-105.537C114.656,-95.9087 101.056,-83.8694 91.979,-75.8339"/>
<polygon fill="midnightblue" stroke="midnightblue" points="123.392,-108.316 133.199,-112.324 128.032,-103.075 123.392,-108.316"/>
</g>
<!-- Node4 -->
<g id="node4" class="node"><title>Node4</title>
<g id="a_node4"><a xlink:href="classerpc_1_1_server.html" target="_top" xlink:title="Based server functionality. ">
<polygon fill="white" stroke="black" points="170,-56.5 170,-75.5 238,-75.5 238,-56.5 170,-56.5"/>
<text text-anchor="middle" x="204" y="-63.5" font-family="Helvetica,sans-Serif" font-size="10.00">erpc::Server</text>
</a>
</g>
</g>
<!-- Node1&#45;&gt;Node4 -->
<g id="edge3" class="edge"><title>Node1&#45;&gt;Node4</title>
<path fill="none" stroke="midnightblue" d="M160.467,-105.537C171.344,-95.9087 184.944,-83.8694 194.021,-75.8339"/>
<polygon fill="midnightblue" stroke="midnightblue" points="157.968,-103.075 152.801,-112.324 162.608,-108.316 157.968,-103.075"/>
</g>
<!-- Node3 -->
<g id="node3" class="node"><title>Node3</title>
<g id="a_node3"><a xlink:href="classerpc_1_1_arbitrated_client_manager.html" target="_top" xlink:title="Client that can share a transport with a server. ">
<polygon fill="white" stroke="black" points="0,-0.5 0,-19.5 146,-19.5 146,-0.5 0,-0.5"/>
<text text-anchor="middle" x="73" y="-7.5" font-family="Helvetica,sans-Serif" font-size="10.00">erpc::ArbitratedClientManager</text>
</a>
</g>
</g>
<!-- Node2&#45;&gt;Node3 -->
<g id="edge2" class="edge"><title>Node2&#45;&gt;Node3</title>
<path fill="none" stroke="midnightblue" d="M78.8501,-46.1005C77.356,-37.1357 75.643,-26.8579 74.4585,-19.7511"/>
<polygon fill="midnightblue" stroke="midnightblue" points="75.4174,-46.7945 80.5138,-56.083 82.3221,-45.6436 75.4174,-46.7945"/>
</g>
<!-- Node5 -->
<g id="node5" class="node"><title>Node5</title>
<g id="a_node5"><a xlink:href="classerpc_1_1_simple_server.html" target="_top" xlink:title="Based server implementation. ">
<polygon fill="white" stroke="black" points="164,-0.5 164,-19.5 262,-19.5 262,-0.5 164,-0.5"/>
<text text-anchor="middle" x="213" y="-7.5" font-family="Helvetica,sans-Serif" font-size="10.00">erpc::SimpleServer</text>
</a>
</g>
</g>
<!-- Node4&#45;&gt;Node5 -->
<g id="edge4" class="edge"><title>Node4&#45;&gt;Node5</title>
<path fill="none" stroke="midnightblue" d="M207.15,-46.1005C208.644,-37.1357 210.357,-26.8579 211.541,-19.7511"/>
<polygon fill="midnightblue" stroke="midnightblue" points="203.678,-45.6436 205.486,-56.083 210.583,-46.7945 203.678,-45.6436"/>
</g>
</g>
</svg>
