<?xml version="1.0" encoding="UTF-8" standalone="no"?>
<!DOCTYPE svg PUBLIC "-//W3C//DTD SVG 1.1//EN"
 "http://www.w3.org/Graphics/SVG/1.1/DTD/svg11.dtd">
<!-- Generated by graphviz version 2.38.0 (20140413.2041)
 -->
<!-- Title: erpc::TransportArbitrator Pages: 1 -->
<svg width="905pt" height="199pt"
 viewBox="0.00 0.00 905.00 199.00" xmlns="http://www.w3.org/2000/svg" xmlns:xlink="http://www.w3.org/1999/xlink">
<g id="graph0" class="graph" transform="scale(1 1) rotate(0) translate(4 195)">
<title>erpc::TransportArbitrator</title>
<polygon fill="white" stroke="none" points="-4,4 -4,-195 901,-195 901,4 -4,4"/>
<!-- Node1 -->
<g id="node1" class="node"><title>Node1</title>
<polygon fill="#bfbfbf" stroke="black" points="775,-117.5 775,-136.5 897,-136.5 897,-117.5 775,-117.5"/>
<text text-anchor="middle" x="836" y="-124.5" font-family="Helvetica,sans-Serif" font-size="10.00">erpc::TransportArbitrator</text>
</g>
<!-- Node2 -->
<g id="node2" class="node"><title>Node2</title>
<g id="a_node2"><a xlink:href="classerpc_1_1_transport.html" target="_top" xlink:title="Abstract interface for transport layer. ">
<polygon fill="white" stroke="black" points="550,-171.5 550,-190.5 632,-190.5 632,-171.5 550,-171.5"/>
<text text-anchor="middle" x="591" y="-178.5" font-family="Helvetica,sans-Serif" font-size="10.00">erpc::Transport</text>
</a>
</g>
</g>
<!-- Node2&#45;&gt;Node1 -->
<g id="edge1" class="edge"><title>Node2&#45;&gt;Node1</title>
<path fill="none" stroke="midnightblue" d="M642.078,-169.872C686.268,-160.052 750.001,-145.889 791.946,-136.568"/>
<polygon fill="midnightblue" stroke="midnightblue" points="641.129,-166.497 632.127,-172.083 642.648,-173.33 641.129,-166.497"/>
</g>
<!-- Node2&#45;&gt;Node1 -->
<g id="edge6" class="edge"><title>Node2&#45;&gt;Node1</title>
<path fill="none" stroke="#9a32cd" stroke-dasharray="5,2" d="M642.389,-180.229C675.495,-178.651 719.464,-174.502 757,-164 779.517,-157.7 803.555,-145.339 818.9,-136.643"/>
<polygon fill="#9a32cd" stroke="#9a32cd" points="641.891,-176.746 632.044,-180.656 642.18,-183.74 641.891,-176.746"/>
<text text-anchor="middle" x="713.5" y="-181" font-family="Helvetica,sans-Serif" font-size="10.00"> m_sharedTransport</text>
</g>
<!-- Node3 -->
<g id="node3" class="node"><title>Node3</title>
<g id="a_node3"><a xlink:href="classerpc_1_1_mutex.html" target="_top" xlink:title="Mutex. ">
<polygon fill="white" stroke="black" points="557,-123.5 557,-142.5 625,-142.5 625,-123.5 557,-123.5"/>
<text text-anchor="middle" x="591" y="-130.5" font-family="Helvetica,sans-Serif" font-size="10.00">erpc::Mutex</text>
</a>
</g>
</g>
<!-- Node3&#45;&gt;Node1 -->
<g id="edge2" class="edge"><title>Node3&#45;&gt;Node1</title>
<path fill="none" stroke="#9a32cd" stroke-dasharray="5,2" d="M635.426,-129.768C646.68,-129.054 658.787,-128.393 670,-128 704.641,-126.786 743.397,-126.496 774.639,-126.528"/>
<polygon fill="#9a32cd" stroke="#9a32cd" points="635.128,-126.28 625.381,-130.434 635.59,-133.265 635.128,-126.28"/>
<text text-anchor="middle" x="713.5" y="-131" font-family="Helvetica,sans-Serif" font-size="10.00"> m_clientListMutex</text>
</g>
<!-- Node4 -->
<g id="node4" class="node"><title>Node4</title>
<g id="a_node4"><a xlink:href="classerpc_1_1_codec.html" target="_top" xlink:title="Abstract serialization encoder/decoder interface. ">
<polygon fill="white" stroke="black" points="186,-22.5 186,-41.5 255,-41.5 255,-22.5 186,-22.5"/>
<text text-anchor="middle" x="220.5" y="-29.5" font-family="Helvetica,sans-Serif" font-size="10.00">erpc::Codec</text>
</a>
</g>
</g>
<!-- Node4&#45;&gt;Node1 -->
<g id="edge3" class="edge"><title>Node4&#45;&gt;Node1</title>
<path fill="none" stroke="#9a32cd" stroke-dasharray="5,2" d="M265.089,-27.2419C343.374,-19.8131 512.624,-8.84889 652,-35 701.082,-44.2092 712.613,-52.1173 757,-75 781.447,-87.6033 807.609,-106.228 822.568,-117.432"/>
<polygon fill="#9a32cd" stroke="#9a32cd" points="264.718,-23.7614 255.106,-28.2175 265.399,-30.7282 264.718,-23.7614"/>
<text text-anchor="middle" x="487.5" y="-23" font-family="Helvetica,sans-Serif" font-size="10.00"> m_codec</text>
</g>
<!-- Node9 -->
<g id="node9" class="node"><title>Node9</title>
<g id="a_node9"><a xlink:href="classerpc_1_1_request_context.html" target="_top" xlink:title="Encapsulates all information about a request. ">
<polygon fill="white" stroke="black" points="334,-82.5 334,-101.5 445,-101.5 445,-82.5 334,-82.5"/>
<text text-anchor="middle" x="389.5" y="-89.5" font-family="Helvetica,sans-Serif" font-size="10.00">erpc::RequestContext</text>
</a>
</g>
</g>
<!-- Node4&#45;&gt;Node9 -->
<g id="edge11" class="edge"><title>Node4&#45;&gt;Node9</title>
<path fill="none" stroke="#9a32cd" stroke-dasharray="5,2" d="M257.016,-45.0882C279.134,-53.2028 308.19,-63.7984 334,-73 342.683,-76.0957 352.164,-79.4203 360.748,-82.4093"/>
<polygon fill="#9a32cd" stroke="#9a32cd" points="257.973,-41.7109 247.379,-41.5483 255.559,-48.2817 257.973,-41.7109"/>
<text text-anchor="middle" x="294.5" y="-70" font-family="Helvetica,sans-Serif" font-size="10.00"> m_codec</text>
</g>
<!-- Node5 -->
<g id="node5" class="node"><title>Node5</title>
<g id="a_node5"><a xlink:href="classerpc_1_1_message_buffer_1_1_cursor.html" target="_top" xlink:title="Cursor within a MessageBuffer. ">
<polygon fill="white" stroke="black" points="0,-39 0,-69 106,-69 106,-39 0,-39"/>
<text text-anchor="start" x="8" y="-57" font-family="Helvetica,sans-Serif" font-size="10.00">erpc::MessageBuffer</text>
<text text-anchor="middle" x="53" y="-46" font-family="Helvetica,sans-Serif" font-size="10.00">::Cursor</text>
</a>
</g>
</g>
<!-- Node5&#45;&gt;Node4 -->
<g id="edge4" class="edge"><title>Node5&#45;&gt;Node4</title>
<path fill="none" stroke="#9a32cd" stroke-dasharray="5,2" d="M116.288,-45.72C139.836,-42.5898 165.742,-39.1461 185.709,-36.4918"/>
<polygon fill="#9a32cd" stroke="#9a32cd" points="115.817,-42.2518 106.365,-47.0391 116.739,-49.1907 115.817,-42.2518"/>
<text text-anchor="middle" x="146" y="-48" font-family="Helvetica,sans-Serif" font-size="10.00"> m_cursor</text>
</g>
<!-- Node6 -->
<g id="node6" class="node"><title>Node6</title>
<g id="a_node6"><a xlink:href="classerpc_1_1_message_buffer.html" target="_top" xlink:title="Represents a memory buffer containing a message. ">
<polygon fill="white" stroke="black" points="0,-0.5 0,-19.5 106,-19.5 106,-0.5 0,-0.5"/>
<text text-anchor="middle" x="53" y="-7.5" font-family="Helvetica,sans-Serif" font-size="10.00">erpc::MessageBuffer</text>
</a>
</g>
</g>
<!-- Node6&#45;&gt;Node4 -->
<g id="edge5" class="edge"><title>Node6&#45;&gt;Node4</title>
<path fill="none" stroke="#9a32cd" stroke-dasharray="5,2" d="M116.446,-18.1677C133.192,-20.3713 151.287,-22.7646 168,-25 173.813,-25.7775 179.995,-26.6115 185.982,-27.4231"/>
<polygon fill="#9a32cd" stroke="#9a32cd" points="116.589,-14.6565 106.218,-16.8233 115.677,-21.5968 116.589,-14.6565"/>
<text text-anchor="middle" x="146" y="-28" font-family="Helvetica,sans-Serif" font-size="10.00"> m_buffer</text>
</g>
<!-- Node7 -->
<g id="node7" class="node"><title>Node7</title>
<g id="a_node7"><a xlink:href="structerpc_1_1_transport_arbitrator_1_1_pending_client_info.html" target="_top" xlink:title="Request info for a client trying to receive a response. ">
<polygon fill="white" stroke="black" points="530,-45 530,-75 652,-75 652,-45 530,-45"/>
<text text-anchor="start" x="538" y="-63" font-family="Helvetica,sans-Serif" font-size="10.00">erpc::TransportArbitrator</text>
<text text-anchor="middle" x="591" y="-52" font-family="Helvetica,sans-Serif" font-size="10.00">::PendingClientInfo</text>
</a>
</g>
</g>
<!-- Node7&#45;&gt;Node1 -->
<g id="edge7" class="edge"><title>Node7&#45;&gt;Node1</title>
<path fill="none" stroke="#9a32cd" stroke-dasharray="5,2" d="M662.042,-76.1234C691.503,-83.2361 726.058,-92.0135 757,-101 774.135,-105.976 793.133,-112.292 808.09,-117.452"/>
<polygon fill="#9a32cd" stroke="#9a32cd" points="662.799,-72.7059 652.259,-73.7772 661.167,-79.5129 662.799,-72.7059"/>
<text text-anchor="middle" x="713.5" y="-115" font-family="Helvetica,sans-Serif" font-size="10.00"> m_clientFreeList</text>
<text text-anchor="middle" x="713.5" y="-104" font-family="Helvetica,sans-Serif" font-size="10.00">m_clientList</text>
</g>
<!-- Node7&#45;&gt;Node7 -->
<g id="edge9" class="edge"><title>Node7&#45;&gt;Node7</title>
<path fill="none" stroke="#9a32cd" stroke-dasharray="5,2" d="M572.876,-85.4579C575.125,-90.179 581.167,-93.5 591,-93.5 607.137,-93.5 613.062,-84.5566 608.776,-75.159"/>
<polygon fill="#9a32cd" stroke="#9a32cd" points="576.384,-85.2717 573.224,-75.159 569.388,-85.0349 576.384,-85.2717"/>
<text text-anchor="middle" x="591" y="-96.5" font-family="Helvetica,sans-Serif" font-size="10.00"> m_next</text>
</g>
<!-- Node8 -->
<g id="node8" class="node"><title>Node8</title>
<g id="a_node8"><a xlink:href="classerpc_1_1_semaphore.html" target="_top" xlink:title="Simple semaphore class. ">
<polygon fill="white" stroke="black" points="344,-44.5 344,-63.5 435,-63.5 435,-44.5 344,-44.5"/>
<text text-anchor="middle" x="389.5" y="-51.5" font-family="Helvetica,sans-Serif" font-size="10.00">erpc::Semaphore</text>
</a>
</g>
</g>
<!-- Node8&#45;&gt;Node7 -->
<g id="edge8" class="edge"><title>Node8&#45;&gt;Node7</title>
<path fill="none" stroke="#9a32cd" stroke-dasharray="5,2" d="M445.493,-55.1977C466.328,-55.6935 490.26,-56.3136 512,-57 517.824,-57.1839 523.893,-57.3907 529.959,-57.6074"/>
<polygon fill="#9a32cd" stroke="#9a32cd" points="445.304,-51.6924 435.224,-54.9573 445.14,-58.6905 445.304,-51.6924"/>
<text text-anchor="middle" x="487.5" y="-60" font-family="Helvetica,sans-Serif" font-size="10.00"> m_sem</text>
</g>
<!-- Node9&#45;&gt;Node7 -->
<g id="edge10" class="edge"><title>Node9&#45;&gt;Node7</title>
<path fill="none" stroke="#9a32cd" stroke-dasharray="5,2" d="M455.108,-81.6368C479.153,-77.78 506.321,-73.4223 529.941,-69.6336"/>
<polygon fill="#9a32cd" stroke="#9a32cd" points="454.334,-78.2162 445.014,-83.2559 455.442,-85.1278 454.334,-78.2162"/>
<text text-anchor="middle" x="487.5" y="-83" font-family="Helvetica,sans-Serif" font-size="10.00"> m_request</text>
</g>
</g>
</svg>
