<?xml version="1.0" encoding="UTF-8" standalone="no"?>
<!DOCTYPE svg PUBLIC "-//W3C//DTD SVG 1.1//EN"
 "http://www.w3.org/Graphics/SVG/1.1/DTD/svg11.dtd">
<!-- Generated by graphviz version 2.38.0 (20140413.2041)
 -->
<!-- Title: erpc::MessageLoggers Pages: 1 -->
<svg width="175pt" height="162pt"
 viewBox="0.00 0.00 175.00 162.00" xmlns="http://www.w3.org/2000/svg" xmlns:xlink="http://www.w3.org/1999/xlink">
<g id="graph0" class="graph" transform="scale(1 1) rotate(0) translate(4 158)">
<title>erpc::MessageLoggers</title>
<polygon fill="white" stroke="none" points="-4,4 -4,-158 171,-158 171,4 -4,4"/>
<!-- Node1 -->
<g id="node1" class="node"><title>Node1</title>
<polygon fill="#bfbfbf" stroke="black" points="0,-0.5 0,-19.5 116,-19.5 116,-0.5 0,-0.5"/>
<text text-anchor="middle" x="58" y="-7.5" font-family="Helvetica,sans-Serif" font-size="10.00">erpc::MessageLoggers</text>
</g>
<!-- Node2 -->
<g id="node2" class="node"><title>Node2</title>
<g id="a_node2"><a xlink:href="classerpc_1_1_message_logger.html" target="_top" xlink:title="Logging messages objects used for logging sent/received messages. ">
<polygon fill="white" stroke="black" points="3,-67.5 3,-86.5 113,-86.5 113,-67.5 3,-67.5"/>
<text text-anchor="middle" x="58" y="-74.5" font-family="Helvetica,sans-Serif" font-size="10.00">erpc::MessageLogger</text>
</a>
</g>
</g>
<!-- Node2&#45;&gt;Node1 -->
<g id="edge1" class="edge"><title>Node2&#45;&gt;Node1</title>
<path fill="none" stroke="#9a32cd" stroke-dasharray="5,2" d="M58,-57.037C58,-44.6703 58,-29.1198 58,-19.6273"/>
<polygon fill="#9a32cd" stroke="#9a32cd" points="54.5001,-57.2338 58,-67.2338 61.5001,-57.2338 54.5001,-57.2338"/>
<text text-anchor="middle" x="79.5" y="-41" font-family="Helvetica,sans-Serif" font-size="10.00"> m_logger</text>
</g>
<!-- Node2&#45;&gt;Node2 -->
<g id="edge3" class="edge"><title>Node2&#45;&gt;Node2</title>
<path fill="none" stroke="#9a32cd" stroke-dasharray="5,2" d="M123.001,-81.5029C127.952,-80.5029 131,-79.002 131,-77 131,-73.875 123.574,-71.9707 113.073,-71.2871"/>
<polygon fill="#9a32cd" stroke="#9a32cd" points="122.576,-78.0287 113.073,-82.7129 123.423,-84.9773 122.576,-78.0287"/>
<text text-anchor="middle" x="149" y="-74.5" font-family="Helvetica,sans-Serif" font-size="10.00"> m_next</text>
</g>
<!-- Node3 -->
<g id="node3" class="node"><title>Node3</title>
<g id="a_node3"><a xlink:href="classerpc_1_1_transport.html" target="_top" xlink:title="Abstract interface for transport layer. ">
<polygon fill="white" stroke="black" points="17,-134.5 17,-153.5 99,-153.5 99,-134.5 17,-134.5"/>
<text text-anchor="middle" x="58" y="-141.5" font-family="Helvetica,sans-Serif" font-size="10.00">erpc::Transport</text>
</a>
</g>
</g>
<!-- Node3&#45;&gt;Node2 -->
<g id="edge2" class="edge"><title>Node3&#45;&gt;Node2</title>
<path fill="none" stroke="#9a32cd" stroke-dasharray="5,2" d="M58,-124.037C58,-111.67 58,-96.1198 58,-86.6273"/>
<polygon fill="#9a32cd" stroke="#9a32cd" points="54.5001,-124.234 58,-134.234 61.5001,-124.234 54.5001,-124.234"/>
<text text-anchor="middle" x="85.5" y="-108" font-family="Helvetica,sans-Serif" font-size="10.00"> m_transport</text>
</g>
</g>
</svg>
