<?xml version="1.0" encoding="UTF-8" standalone="no"?>
<!DOCTYPE svg PUBLIC "-//W3C//DTD SVG 1.1//EN"
 "http://www.w3.org/Graphics/SVG/1.1/DTD/svg11.dtd">
<!-- Generated by graphviz version 2.38.0 (20140413.2041)
 -->
<!-- Title: erpc::DspiSlaveTransport Pages: 1 -->
<svg width="189pt" height="163pt"
 viewBox="0.00 0.00 189.00 163.00" xmlns="http://www.w3.org/2000/svg" xmlns:xlink="http://www.w3.org/1999/xlink">
<g id="graph0" class="graph" transform="scale(1 1) rotate(0) translate(4 159)">
<title>erpc::DspiSlaveTransport</title>
<polygon fill="white" stroke="none" points="-4,4 -4,-159 185,-159 185,4 -4,4"/>
<!-- Node1 -->
<g id="node1" class="node"><title>Node1</title>
<polygon fill="#bfbfbf" stroke="black" points="24.5,-0.5 24.5,-19.5 149.5,-19.5 149.5,-0.5 24.5,-0.5"/>
<text text-anchor="middle" x="87" y="-7.5" font-family="Helvetica,sans-Serif" font-size="10.00">erpc::DspiSlaveTransport</text>
</g>
<!-- Node2 -->
<g id="node2" class="node"><title>Node2</title>
<g id="a_node2"><a xlink:href="classerpc_1_1_framed_transport.html" target="_top" xlink:title="Base class for framed transport layers. ">
<polygon fill="white" stroke="black" points="29.5,-57.5 29.5,-76.5 144.5,-76.5 144.5,-57.5 29.5,-57.5"/>
<text text-anchor="middle" x="87" y="-64.5" font-family="Helvetica,sans-Serif" font-size="10.00">erpc::FramedTransport</text>
</a>
</g>
</g>
<!-- Node2&#45;&gt;Node1 -->
<g id="edge1" class="edge"><title>Node2&#45;&gt;Node1</title>
<path fill="none" stroke="midnightblue" d="M87,-47.1166C87,-37.8173 87,-27.0557 87,-19.7149"/>
<polygon fill="midnightblue" stroke="midnightblue" points="83.5001,-47.4062 87,-57.4063 90.5001,-47.4063 83.5001,-47.4062"/>
</g>
<!-- Node3 -->
<g id="node3" class="node"><title>Node3</title>
<g id="a_node3"><a xlink:href="classerpc_1_1_transport.html" target="_top" xlink:title="Abstract interface for transport layer. ">
<polygon fill="white" stroke="black" points="0,-135.5 0,-154.5 82,-154.5 82,-135.5 0,-135.5"/>
<text text-anchor="middle" x="41" y="-142.5" font-family="Helvetica,sans-Serif" font-size="10.00">erpc::Transport</text>
</a>
</g>
</g>
<!-- Node3&#45;&gt;Node2 -->
<g id="edge2" class="edge"><title>Node3&#45;&gt;Node2</title>
<path fill="none" stroke="midnightblue" d="M51.5525,-126.565C61.0048,-110.949 74.471,-88.7002 81.7848,-76.6165"/>
<polygon fill="midnightblue" stroke="midnightblue" points="48.4606,-124.914 46.2768,-135.282 54.4491,-128.539 48.4606,-124.914"/>
</g>
<!-- Node4 -->
<g id="node4" class="node"><title>Node4</title>
<g id="a_node4"><a xlink:href="classerpc_1_1_mutex.html" target="_top" xlink:title="Mutex. ">
<polygon fill="white" stroke="black" points="100,-135.5 100,-154.5 168,-154.5 168,-135.5 100,-135.5"/>
<text text-anchor="middle" x="134" y="-142.5" font-family="Helvetica,sans-Serif" font-size="10.00">erpc::Mutex</text>
</a>
</g>
</g>
<!-- Node4&#45;&gt;Node2 -->
<g id="edge3" class="edge"><title>Node4&#45;&gt;Node2</title>
<path fill="none" stroke="#9a32cd" stroke-dasharray="5,2" d="M123.218,-126.565C113.56,-110.949 99.8014,-88.7002 92.3286,-76.6165"/>
<polygon fill="#9a32cd" stroke="#9a32cd" points="120.372,-128.618 128.609,-135.282 126.326,-124.936 120.372,-128.618"/>
<text text-anchor="middle" x="148.5" y="-109" font-family="Helvetica,sans-Serif" font-size="10.00"> m_sendLock</text>
<text text-anchor="middle" x="148.5" y="-98" font-family="Helvetica,sans-Serif" font-size="10.00">m_receiveLock</text>
</g>
</g>
</svg>
