<?xml version="1.0" encoding="UTF-8" standalone="no"?>
<!DOCTYPE svg PUBLIC "-//W3C//DTD SVG 1.1//EN"
 "http://www.w3.org/Graphics/SVG/1.1/DTD/svg11.dtd">
<!-- Generated by graphviz version 2.38.0 (20140413.2041)
 -->
<!-- Title: erpc::ClientManager Pages: 1 -->
<svg width="368pt" height="95pt"
 viewBox="0.00 0.00 367.50 95.00" xmlns="http://www.w3.org/2000/svg" xmlns:xlink="http://www.w3.org/1999/xlink">
<g id="graph0" class="graph" transform="scale(1 1) rotate(0) translate(4 91)">
<title>erpc::ClientManager</title>
<polygon fill="white" stroke="none" points="-4,4 -4,-91 363.5,-91 363.5,4 -4,4"/>
<!-- Node1 -->
<g id="node1" class="node"><title>Node1</title>
<polygon fill="#bfbfbf" stroke="black" points="109,-0.5 109,-19.5 213,-19.5 213,-0.5 109,-0.5"/>
<text text-anchor="middle" x="161" y="-7.5" font-family="Helvetica,sans-Serif" font-size="10.00">erpc::ClientManager</text>
</g>
<!-- Node2 -->
<g id="node2" class="node"><title>Node2</title>
<g id="a_node2"><a xlink:href="classerpc_1_1_codec_factory.html" target="_top" xlink:title="Abstract interface for codec factory. ">
<polygon fill="white" stroke="black" points="0,-67.5 0,-86.5 102,-86.5 102,-67.5 0,-67.5"/>
<text text-anchor="middle" x="51" y="-74.5" font-family="Helvetica,sans-Serif" font-size="10.00">erpc::CodecFactory</text>
</a>
</g>
</g>
<!-- Node2&#45;&gt;Node1 -->
<g id="edge1" class="edge"><title>Node2&#45;&gt;Node1</title>
<path fill="none" stroke="#9a32cd" stroke-dasharray="5,2" d="M61.4258,-58.7012C66.5416,-51.4463 73.2711,-43.448 81,-38 92.8614,-29.639 107.513,-23.7069 121.023,-19.5754"/>
<polygon fill="#9a32cd" stroke="#9a32cd" points="58.3848,-56.957 55.8549,-67.2454 64.2485,-60.7803 58.3848,-56.957"/>
<text text-anchor="middle" x="119" y="-41" font-family="Helvetica,sans-Serif" font-size="10.00"> m_codecFactory</text>
</g>
<!-- Node3 -->
<g id="node3" class="node"><title>Node3</title>
<g id="a_node3"><a xlink:href="classerpc_1_1_transport.html" target="_top" xlink:title="Abstract interface for transport layer. ">
<polygon fill="white" stroke="black" points="120,-67.5 120,-86.5 202,-86.5 202,-67.5 120,-67.5"/>
<text text-anchor="middle" x="161" y="-74.5" font-family="Helvetica,sans-Serif" font-size="10.00">erpc::Transport</text>
</a>
</g>
</g>
<!-- Node3&#45;&gt;Node1 -->
<g id="edge2" class="edge"><title>Node3&#45;&gt;Node1</title>
<path fill="none" stroke="#9a32cd" stroke-dasharray="5,2" d="M161,-57.037C161,-44.6703 161,-29.1198 161,-19.6273"/>
<polygon fill="#9a32cd" stroke="#9a32cd" points="157.5,-57.2338 161,-67.2338 164.5,-57.2338 157.5,-57.2338"/>
<text text-anchor="middle" x="188.5" y="-41" font-family="Helvetica,sans-Serif" font-size="10.00"> m_transport</text>
</g>
<!-- Node4 -->
<g id="node4" class="node"><title>Node4</title>
<g id="a_node4"><a xlink:href="classerpc_1_1_message_buffer_factory.html" target="_top" xlink:title="Abstract interface for message buffer factory. ">
<polygon fill="white" stroke="black" points="220.5,-67.5 220.5,-86.5 359.5,-86.5 359.5,-67.5 220.5,-67.5"/>
<text text-anchor="middle" x="290" y="-74.5" font-family="Helvetica,sans-Serif" font-size="10.00">erpc::MessageBufferFactory</text>
</a>
</g>
</g>
<!-- Node4&#45;&gt;Node1 -->
<g id="edge3" class="edge"><title>Node4&#45;&gt;Node1</title>
<path fill="none" stroke="#9a32cd" stroke-dasharray="5,2" d="M265.829,-62.3511C252.44,-54.9246 235.429,-45.7072 220,-38 207,-31.5064 192.12,-24.7012 180.556,-19.5474"/>
<polygon fill="#9a32cd" stroke="#9a32cd" points="264.426,-65.5764 274.864,-67.3951 267.838,-59.4644 264.426,-65.5764"/>
<text text-anchor="middle" x="285" y="-41" font-family="Helvetica,sans-Serif" font-size="10.00"> m_messageFactory</text>
</g>
</g>
</svg>
