<?xml version="1.0" encoding="UTF-8" standalone="no"?>
<!DOCTYPE svg PUBLIC "-//W3C//DTD SVG 1.1//EN"
 "http://www.w3.org/Graphics/SVG/1.1/DTD/svg11.dtd">
<!-- Generated by graphviz version 2.38.0 (20140413.2041)
 -->
<!-- Title: erpc::MessageBufferFactory Pages: 1 -->
<svg width="482pt" height="84pt"
 viewBox="0.00 0.00 482.00 84.00" xmlns="http://www.w3.org/2000/svg" xmlns:xlink="http://www.w3.org/1999/xlink">
<g id="graph0" class="graph" transform="scale(1 1) rotate(0) translate(4 80)">
<title>erpc::MessageBufferFactory</title>
<polygon fill="white" stroke="none" points="-4,4 -4,-80 478,-80 478,4 -4,4"/>
<!-- Node1 -->
<g id="node1" class="node"><title>Node1</title>
<polygon fill="#bfbfbf" stroke="black" points="173.5,-56.5 173.5,-75.5 312.5,-75.5 312.5,-56.5 173.5,-56.5"/>
<text text-anchor="middle" x="243" y="-63.5" font-family="Helvetica,sans-Serif" font-size="10.00">erpc::MessageBufferFactory</text>
</g>
<!-- Node2 -->
<g id="node2" class="node"><title>Node2</title>
<g id="a_node2"><a xlink:href="class_dynamic_message_buffer_factory.html" target="_top" xlink:title="Dynamic message buffer factory. ">
<polygon fill="white" stroke="black" points="0,-0.5 0,-19.5 152,-19.5 152,-0.5 0,-0.5"/>
<text text-anchor="middle" x="76" y="-7.5" font-family="Helvetica,sans-Serif" font-size="10.00">DynamicMessageBufferFactory</text>
</a>
</g>
</g>
<!-- Node1&#45;&gt;Node2 -->
<g id="edge1" class="edge"><title>Node1&#45;&gt;Node2</title>
<path fill="none" stroke="midnightblue" d="M206.83,-53.3044C175.363,-43.1294 130.506,-28.6246 102.338,-19.5164"/>
<polygon fill="midnightblue" stroke="midnightblue" points="205.947,-56.697 216.538,-56.4435 208.1,-50.0366 205.947,-56.697"/>
</g>
<!-- Node3 -->
<g id="node3" class="node"><title>Node3</title>
<g id="a_node3"><a xlink:href="class_r_p_msg_message_buffer_factory.html" target="_top" xlink:title="RPMsg zero copy message buffer factory. ">
<polygon fill="white" stroke="black" points="170,-0.5 170,-19.5 316,-19.5 316,-0.5 170,-0.5"/>
<text text-anchor="middle" x="243" y="-7.5" font-family="Helvetica,sans-Serif" font-size="10.00">RPMsgMessageBufferFactory</text>
</a>
</g>
</g>
<!-- Node1&#45;&gt;Node3 -->
<g id="edge2" class="edge"><title>Node1&#45;&gt;Node3</title>
<path fill="none" stroke="midnightblue" d="M243,-45.8045C243,-36.9102 243,-26.7798 243,-19.7511"/>
<polygon fill="midnightblue" stroke="midnightblue" points="239.5,-46.083 243,-56.083 246.5,-46.083 239.5,-46.083"/>
</g>
<!-- Node4 -->
<g id="node4" class="node"><title>Node4</title>
<g id="a_node4"><a xlink:href="class_static_message_buffer_factory.html" target="_top" xlink:title="Static Message buffer factory. ">
<polygon fill="white" stroke="black" points="334,-0.5 334,-19.5 474,-19.5 474,-0.5 334,-0.5"/>
<text text-anchor="middle" x="404" y="-7.5" font-family="Helvetica,sans-Serif" font-size="10.00">StaticMessageBufferFactory</text>
</a>
</g>
</g>
<!-- Node1&#45;&gt;Node4 -->
<g id="edge3" class="edge"><title>Node1&#45;&gt;Node4</title>
<path fill="none" stroke="midnightblue" d="M278.265,-53.172C308.581,-43.0039 351.57,-28.5852 378.608,-19.5164"/>
<polygon fill="midnightblue" stroke="midnightblue" points="276.879,-49.9452 268.511,-56.4435 279.105,-56.5819 276.879,-49.9452"/>
</g>
</g>
</svg>
