<?xml version="1.0" encoding="UTF-8" standalone="no"?>
<!DOCTYPE svg PUBLIC "-//W3C//DTD SVG 1.1//EN"
 "http://www.w3.org/Graphics/SVG/1.1/DTD/svg11.dtd">
<!-- Generated by graphviz version 2.38.0 (20140413.2041)
 -->
<!-- Title: erpc::RPMsgZCBaseTransport Pages: 1 -->
<svg width="304pt" height="140pt"
 viewBox="0.00 0.00 304.00 140.00" xmlns="http://www.w3.org/2000/svg" xmlns:xlink="http://www.w3.org/1999/xlink">
<g id="graph0" class="graph" transform="scale(1 1) rotate(0) translate(4 136)">
<title>erpc::RPMsgZCBaseTransport</title>
<polygon fill="white" stroke="none" points="-4,4 -4,-136 300,-136 300,4 -4,4"/>
<!-- Node1 -->
<g id="node1" class="node"><title>Node1</title>
<polygon fill="#bfbfbf" stroke="black" points="79.5,-56.5 79.5,-75.5 228.5,-75.5 228.5,-56.5 79.5,-56.5"/>
<text text-anchor="middle" x="154" y="-63.5" font-family="Helvetica,sans-Serif" font-size="10.00">erpc::RPMsgZCBaseTransport</text>
</g>
<!-- Node3 -->
<g id="node3" class="node"><title>Node3</title>
<g id="a_node3"><a xlink:href="classerpc_1_1_r_p_msg_z_c_r_t_o_s_transport.html" target="_top" xlink:title="Transport that uses RPMsg zero copy RTOS API for interprocessor messaging. ">
<polygon fill="white" stroke="black" points="0,-0.5 0,-19.5 152,-19.5 152,-0.5 0,-0.5"/>
<text text-anchor="middle" x="76" y="-7.5" font-family="Helvetica,sans-Serif" font-size="10.00">erpc::RPMsgZCRTOSTransport</text>
</a>
</g>
</g>
<!-- Node1&#45;&gt;Node3 -->
<g id="edge2" class="edge"><title>Node1&#45;&gt;Node3</title>
<path fill="none" stroke="midnightblue" d="M133.232,-50.6221C118.983,-40.7574 100.544,-27.9919 88.5009,-19.6545"/>
<polygon fill="midnightblue" stroke="midnightblue" points="131.254,-53.5095 141.468,-56.324 135.238,-47.7541 131.254,-53.5095"/>
</g>
<!-- Node4 -->
<g id="node4" class="node"><title>Node4</title>
<g id="a_node4"><a xlink:href="classerpc_1_1_r_p_msg_z_c_transport.html" target="_top" xlink:title="Transport that uses RPMsg zero copy API for interprocessor messaging. ">
<polygon fill="white" stroke="black" points="170,-0.5 170,-19.5 296,-19.5 296,-0.5 170,-0.5"/>
<text text-anchor="middle" x="233" y="-7.5" font-family="Helvetica,sans-Serif" font-size="10.00">erpc::RPMsgZCTransport</text>
</a>
</g>
</g>
<!-- Node1&#45;&gt;Node4 -->
<g id="edge3" class="edge"><title>Node1&#45;&gt;Node4</title>
<path fill="none" stroke="midnightblue" d="M175.034,-50.6221C189.466,-40.7574 208.141,-27.9919 220.339,-19.6545"/>
<polygon fill="midnightblue" stroke="midnightblue" points="172.973,-47.7914 166.693,-56.324 176.923,-53.5703 172.973,-47.7914"/>
</g>
<!-- Node2 -->
<g id="node2" class="node"><title>Node2</title>
<g id="a_node2"><a xlink:href="classerpc_1_1_transport.html" target="_top" xlink:title="Abstract interface for transport layer. ">
<polygon fill="white" stroke="black" points="113,-112.5 113,-131.5 195,-131.5 195,-112.5 113,-112.5"/>
<text text-anchor="middle" x="154" y="-119.5" font-family="Helvetica,sans-Serif" font-size="10.00">erpc::Transport</text>
</a>
</g>
</g>
<!-- Node2&#45;&gt;Node1 -->
<g id="edge1" class="edge"><title>Node2&#45;&gt;Node1</title>
<path fill="none" stroke="midnightblue" d="M154,-101.805C154,-92.9102 154,-82.7798 154,-75.7511"/>
<polygon fill="midnightblue" stroke="midnightblue" points="150.5,-102.083 154,-112.083 157.5,-102.083 150.5,-102.083"/>
</g>
</g>
</svg>
