<?xml version="1.0" encoding="UTF-8" standalone="no"?>
<!DOCTYPE svg PUBLIC "-//W3C//DTD SVG 1.1//EN"
 "http://www.w3.org/Graphics/SVG/1.1/DTD/svg11.dtd">
<!-- Generated by graphviz version 2.38.0 (20140413.2041)
 -->
<!-- Title: erpc::TransportArbitrator Pages: 1 -->
<svg width="869pt" height="181pt"
 viewBox="0.00 0.00 869.00 180.67" xmlns="http://www.w3.org/2000/svg" xmlns:xlink="http://www.w3.org/1999/xlink">
<g id="graph0" class="graph" transform="scale(1 1) rotate(0) translate(4 176.672)">
<title>erpc::TransportArbitrator</title>
<polygon fill="white" stroke="none" points="-4,4 -4,-176.672 865,-176.672 865,4 -4,4"/>
<!-- Node1 -->
<g id="node1" class="node"><title>Node1</title>
<polygon fill="#bfbfbf" stroke="black" points="739,-99.1719 739,-118.172 861,-118.172 861,-99.1719 739,-99.1719"/>
<text text-anchor="middle" x="800" y="-106.172" font-family="Helvetica,sans-Serif" font-size="10.00">erpc::TransportArbitrator</text>
</g>
<!-- Node2 -->
<g id="node2" class="node"><title>Node2</title>
<g id="a_node2"><a xlink:href="classerpc_1_1_transport.html" target="_top" xlink:title="Abstract interface for transport layer. ">
<polygon fill="white" stroke="black" points="514,-153.172 514,-172.172 596,-172.172 596,-153.172 514,-153.172"/>
<text text-anchor="middle" x="555" y="-160.172" font-family="Helvetica,sans-Serif" font-size="10.00">erpc::Transport</text>
</a>
</g>
</g>
<!-- Node2&#45;&gt;Node1 -->
<g id="edge1" class="edge"><title>Node2&#45;&gt;Node1</title>
<path fill="none" stroke="midnightblue" d="M606.078,-151.543C650.268,-141.723 714.001,-127.561 755.946,-118.24"/>
<polygon fill="midnightblue" stroke="midnightblue" points="605.129,-148.169 596.127,-153.755 606.648,-155.002 605.129,-148.169"/>
</g>
<!-- Node2&#45;&gt;Node1 -->
<g id="edge5" class="edge"><title>Node2&#45;&gt;Node1</title>
<path fill="none" stroke="#9a32cd" stroke-dasharray="5,2" d="M606.389,-161.901C639.495,-160.323 683.464,-156.174 721,-145.672 743.517,-139.372 767.555,-127.011 782.9,-118.315"/>
<polygon fill="#9a32cd" stroke="#9a32cd" points="605.891,-158.418 596.044,-162.328 606.18,-165.412 605.891,-158.418"/>
<text text-anchor="middle" x="677.5" y="-162.672" font-family="Helvetica,sans-Serif" font-size="10.00"> m_sharedTransport</text>
</g>
<!-- Node3 -->
<g id="node3" class="node"><title>Node3</title>
<g id="a_node3"><a xlink:href="classerpc_1_1_mutex.html" target="_top" xlink:title="Mutex. ">
<polygon fill="white" stroke="black" points="521,-105.172 521,-124.172 589,-124.172 589,-105.172 521,-105.172"/>
<text text-anchor="middle" x="555" y="-112.172" font-family="Helvetica,sans-Serif" font-size="10.00">erpc::Mutex</text>
</a>
</g>
</g>
<!-- Node3&#45;&gt;Node1 -->
<g id="edge2" class="edge"><title>Node3&#45;&gt;Node1</title>
<path fill="none" stroke="#9a32cd" stroke-dasharray="5,2" d="M599.426,-111.44C610.68,-110.726 622.787,-110.065 634,-109.672 668.641,-108.458 707.397,-108.168 738.639,-108.2"/>
<polygon fill="#9a32cd" stroke="#9a32cd" points="599.128,-107.952 589.381,-112.105 599.59,-114.937 599.128,-107.952"/>
<text text-anchor="middle" x="677.5" y="-112.672" font-family="Helvetica,sans-Serif" font-size="10.00"> m_clientListMutex</text>
</g>
<!-- Node4 -->
<g id="node4" class="node"><title>Node4</title>
<g id="a_node4"><a xlink:href="classerpc_1_1_codec.html" target="_top" xlink:title="Abstract serialization encoder/decoder interface. ">
<polygon fill="white" stroke="black" points="150,-4.17189 150,-23.1719 219,-23.1719 219,-4.17189 150,-4.17189"/>
<text text-anchor="middle" x="184.5" y="-11.1719" font-family="Helvetica,sans-Serif" font-size="10.00">erpc::Codec</text>
</a>
</g>
</g>
<!-- Node4&#45;&gt;Node1 -->
<g id="edge3" class="edge"><title>Node4&#45;&gt;Node1</title>
<path fill="none" stroke="#9a32cd" stroke-dasharray="5,2" d="M229.089,-8.9138C307.374,-1.485 476.624,9.47921 616,-16.6719 665.082,-25.8811 676.613,-33.7892 721,-56.6719 745.447,-69.2751 771.609,-87.9001 786.568,-99.1036"/>
<polygon fill="#9a32cd" stroke="#9a32cd" points="228.718,-5.43332 219.106,-9.88935 229.399,-12.4001 228.718,-5.43332"/>
<text text-anchor="middle" x="451.5" y="-4.67189" font-family="Helvetica,sans-Serif" font-size="10.00"> m_codec</text>
</g>
<!-- Node8 -->
<g id="node8" class="node"><title>Node8</title>
<g id="a_node8"><a xlink:href="classerpc_1_1_request_context.html" target="_top" xlink:title="Encapsulates all information about a request. ">
<polygon fill="white" stroke="black" points="298,-64.1719 298,-83.1719 409,-83.1719 409,-64.1719 298,-64.1719"/>
<text text-anchor="middle" x="353.5" y="-71.1719" font-family="Helvetica,sans-Serif" font-size="10.00">erpc::RequestContext</text>
</a>
</g>
</g>
<!-- Node4&#45;&gt;Node8 -->
<g id="edge10" class="edge"><title>Node4&#45;&gt;Node8</title>
<path fill="none" stroke="#9a32cd" stroke-dasharray="5,2" d="M221.016,-26.7601C243.134,-34.8747 272.19,-45.4703 298,-54.6719 306.683,-57.7676 316.164,-61.0922 324.748,-64.0812"/>
<polygon fill="#9a32cd" stroke="#9a32cd" points="221.973,-23.3828 211.379,-23.2202 219.559,-29.9536 221.973,-23.3828"/>
<text text-anchor="middle" x="258.5" y="-51.6719" font-family="Helvetica,sans-Serif" font-size="10.00"> m_codec</text>
</g>
<!-- Node5 -->
<g id="node5" class="node"><title>Node5</title>
<g id="a_node5"><a xlink:href="classerpc_1_1_cursor.html" target="_top" xlink:title="Cursor within a MessageBuffer. ">
<polygon fill="white" stroke="black" points="0,-4.17189 0,-23.1719 70,-23.1719 70,-4.17189 0,-4.17189"/>
<text text-anchor="middle" x="35" y="-11.1719" font-family="Helvetica,sans-Serif" font-size="10.00">erpc::Cursor</text>
</a>
</g>
</g>
<!-- Node5&#45;&gt;Node4 -->
<g id="edge4" class="edge"><title>Node5&#45;&gt;Node4</title>
<path fill="none" stroke="#9a32cd" stroke-dasharray="5,2" d="M80.4574,-13.6719C102.789,-13.6719 129.4,-13.6719 149.984,-13.6719"/>
<polygon fill="#9a32cd" stroke="#9a32cd" points="80.2102,-10.172 70.2102,-13.6719 80.2102,-17.172 80.2102,-10.172"/>
<text text-anchor="middle" x="110" y="-16.6719" font-family="Helvetica,sans-Serif" font-size="10.00"> m_cursor</text>
</g>
<!-- Node6 -->
<g id="node6" class="node"><title>Node6</title>
<g id="a_node6"><a xlink:href="structerpc_1_1_transport_arbitrator_1_1_pending_client_info.html" target="_top" xlink:title="Request info for a client trying to receive a response. ">
<polygon fill="white" stroke="black" points="494,-26.6719 494,-56.6719 616,-56.6719 616,-26.6719 494,-26.6719"/>
<text text-anchor="start" x="502" y="-44.6719" font-family="Helvetica,sans-Serif" font-size="10.00">erpc::TransportArbitrator</text>
<text text-anchor="middle" x="555" y="-33.6719" font-family="Helvetica,sans-Serif" font-size="10.00">::PendingClientInfo</text>
</a>
</g>
</g>
<!-- Node6&#45;&gt;Node1 -->
<g id="edge6" class="edge"><title>Node6&#45;&gt;Node1</title>
<path fill="none" stroke="#9a32cd" stroke-dasharray="5,2" d="M626.042,-57.7953C655.503,-64.908 690.058,-73.6854 721,-82.6719 738.135,-87.6483 757.133,-93.9638 772.09,-99.1242"/>
<polygon fill="#9a32cd" stroke="#9a32cd" points="626.799,-54.3778 616.259,-55.4491 625.167,-61.1848 626.799,-54.3778"/>
<text text-anchor="middle" x="677.5" y="-96.6719" font-family="Helvetica,sans-Serif" font-size="10.00"> m_clientFreeList</text>
<text text-anchor="middle" x="677.5" y="-85.6719" font-family="Helvetica,sans-Serif" font-size="10.00">m_clientList</text>
</g>
<!-- Node6&#45;&gt;Node6 -->
<g id="edge8" class="edge"><title>Node6&#45;&gt;Node6</title>
<path fill="none" stroke="#9a32cd" stroke-dasharray="5,2" d="M536.876,-67.1298C539.125,-71.8509 545.167,-75.1719 555,-75.1719 571.137,-75.1719 577.062,-66.2285 572.776,-56.8309"/>
<polygon fill="#9a32cd" stroke="#9a32cd" points="540.384,-66.9436 537.224,-56.8309 533.388,-66.7068 540.384,-66.9436"/>
<text text-anchor="middle" x="555" y="-78.1719" font-family="Helvetica,sans-Serif" font-size="10.00"> m_next</text>
</g>
<!-- Node7 -->
<g id="node7" class="node"><title>Node7</title>
<g id="a_node7"><a xlink:href="classerpc_1_1_semaphore.html" target="_top" xlink:title="Simple semaphore class. ">
<polygon fill="white" stroke="black" points="308,-26.1719 308,-45.1719 399,-45.1719 399,-26.1719 308,-26.1719"/>
<text text-anchor="middle" x="353.5" y="-33.1719" font-family="Helvetica,sans-Serif" font-size="10.00">erpc::Semaphore</text>
</a>
</g>
</g>
<!-- Node7&#45;&gt;Node6 -->
<g id="edge7" class="edge"><title>Node7&#45;&gt;Node6</title>
<path fill="none" stroke="#9a32cd" stroke-dasharray="5,2" d="M409.493,-36.8696C430.328,-37.3654 454.26,-37.9855 476,-38.6719 481.824,-38.8558 487.893,-39.0626 493.959,-39.2793"/>
<polygon fill="#9a32cd" stroke="#9a32cd" points="409.304,-33.3643 399.224,-36.6292 409.14,-40.3623 409.304,-33.3643"/>
<text text-anchor="middle" x="451.5" y="-41.6719" font-family="Helvetica,sans-Serif" font-size="10.00"> m_sem</text>
</g>
<!-- Node8&#45;&gt;Node6 -->
<g id="edge9" class="edge"><title>Node8&#45;&gt;Node6</title>
<path fill="none" stroke="#9a32cd" stroke-dasharray="5,2" d="M419.108,-63.3087C443.153,-59.4519 470.321,-55.0942 493.941,-51.3055"/>
<polygon fill="#9a32cd" stroke="#9a32cd" points="418.334,-59.8881 409.014,-64.9278 419.442,-66.7997 418.334,-59.8881"/>
<text text-anchor="middle" x="451.5" y="-64.6719" font-family="Helvetica,sans-Serif" font-size="10.00"> m_request</text>
</g>
</g>
</svg>
