<?xml version="1.0" encoding="UTF-8" standalone="no"?>
<!DOCTYPE svg PUBLIC "-//W3C//DTD SVG 1.1//EN"
 "http://www.w3.org/Graphics/SVG/1.1/DTD/svg11.dtd">
<!-- Generated by graphviz version 2.38.0 (20140413.2041)
 -->
<!-- Title: erpc::TCPTransport Pages: 1 -->
<svg width="265pt" height="173pt"
 viewBox="0.00 0.00 265.00 173.00" xmlns="http://www.w3.org/2000/svg" xmlns:xlink="http://www.w3.org/1999/xlink">
<g id="graph0" class="graph" transform="scale(1 1) rotate(0) translate(4 169)">
<title>erpc::TCPTransport</title>
<polygon fill="white" stroke="none" points="-4,4 -4,-169 261,-169 261,4 -4,4"/>
<!-- Node1 -->
<g id="node1" class="node"><title>Node1</title>
<polygon fill="#bfbfbf" stroke="black" points="119.5,-0.5 119.5,-19.5 220.5,-19.5 220.5,-0.5 119.5,-0.5"/>
<text text-anchor="middle" x="170" y="-7.5" font-family="Helvetica,sans-Serif" font-size="10.00">erpc::TCPTransport</text>
</g>
<!-- Node2 -->
<g id="node2" class="node"><title>Node2</title>
<g id="a_node2"><a xlink:href="classerpc_1_1_framed_transport.html" target="_top" xlink:title="Base class for framed transport layers. ">
<polygon fill="white" stroke="black" points="29.5,-67.5 29.5,-86.5 144.5,-86.5 144.5,-67.5 29.5,-67.5"/>
<text text-anchor="middle" x="87" y="-74.5" font-family="Helvetica,sans-Serif" font-size="10.00">erpc::FramedTransport</text>
</a>
</g>
</g>
<!-- Node2&#45;&gt;Node1 -->
<g id="edge1" class="edge"><title>Node2&#45;&gt;Node1</title>
<path fill="none" stroke="midnightblue" d="M106.067,-61.0678C122.45,-48.2376 145.502,-30.1853 158.984,-19.6273"/>
<polygon fill="midnightblue" stroke="midnightblue" points="103.909,-58.3126 98.1937,-67.2338 108.225,-63.8237 103.909,-58.3126"/>
</g>
<!-- Node3 -->
<g id="node3" class="node"><title>Node3</title>
<g id="a_node3"><a xlink:href="classerpc_1_1_transport.html" target="_top" xlink:title="Abstract interface for transport layer. ">
<polygon fill="white" stroke="black" points="0,-145.5 0,-164.5 82,-164.5 82,-145.5 0,-145.5"/>
<text text-anchor="middle" x="41" y="-152.5" font-family="Helvetica,sans-Serif" font-size="10.00">erpc::Transport</text>
</a>
</g>
</g>
<!-- Node3&#45;&gt;Node2 -->
<g id="edge2" class="edge"><title>Node3&#45;&gt;Node2</title>
<path fill="none" stroke="midnightblue" d="M51.5525,-136.565C61.0048,-120.949 74.471,-98.7002 81.7848,-86.6165"/>
<polygon fill="midnightblue" stroke="midnightblue" points="48.4606,-134.914 46.2768,-145.282 54.4491,-138.539 48.4606,-134.914"/>
</g>
<!-- Node4 -->
<g id="node4" class="node"><title>Node4</title>
<g id="a_node4"><a xlink:href="classerpc_1_1_mutex.html" target="_top" xlink:title="Mutex. ">
<polygon fill="white" stroke="black" points="100,-145.5 100,-164.5 168,-164.5 168,-145.5 100,-145.5"/>
<text text-anchor="middle" x="134" y="-152.5" font-family="Helvetica,sans-Serif" font-size="10.00">erpc::Mutex</text>
</a>
</g>
</g>
<!-- Node4&#45;&gt;Node2 -->
<g id="edge3" class="edge"><title>Node4&#45;&gt;Node2</title>
<path fill="none" stroke="#9a32cd" stroke-dasharray="5,2" d="M123.218,-136.565C113.56,-120.949 99.8014,-98.7002 92.3286,-86.6165"/>
<polygon fill="#9a32cd" stroke="#9a32cd" points="120.372,-138.618 128.609,-145.282 126.326,-134.936 120.372,-138.618"/>
<text text-anchor="middle" x="149.5" y="-119" font-family="Helvetica,sans-Serif" font-size="10.00"> m_sendLock</text>
<text text-anchor="middle" x="149.5" y="-108" font-family="Helvetica,sans-Serif" font-size="10.00">m_receiveLock</text>
</g>
<!-- Node5 -->
<g id="node5" class="node"><title>Node5</title>
<g id="a_node5"><a xlink:href="classerpc_1_1_thread.html" target="_top" xlink:title="Simple thread class. ">
<polygon fill="white" stroke="black" points="162.5,-67.5 162.5,-86.5 233.5,-86.5 233.5,-67.5 162.5,-67.5"/>
<text text-anchor="middle" x="198" y="-74.5" font-family="Helvetica,sans-Serif" font-size="10.00">erpc::Thread</text>
</a>
</g>
</g>
<!-- Node5&#45;&gt;Node1 -->
<g id="edge4" class="edge"><title>Node5&#45;&gt;Node1</title>
<path fill="none" stroke="#9a32cd" stroke-dasharray="5,2" d="M190.156,-57.79C184.779,-45.3076 177.889,-29.3135 173.716,-19.6273"/>
<polygon fill="#9a32cd" stroke="#9a32cd" points="187.053,-59.4344 194.224,-67.2338 193.482,-56.665 187.053,-59.4344"/>
<text text-anchor="middle" x="221" y="-41" font-family="Helvetica,sans-Serif" font-size="10.00"> m_serverThread</text>
</g>
</g>
</svg>
