<?xml version="1.0" encoding="UTF-8" standalone="no"?>
<!DOCTYPE svg PUBLIC "-//W3C//DTD SVG 1.1//EN"
 "http://www.w3.org/Graphics/SVG/1.1/DTD/svg11.dtd">
<!-- Generated by graphviz version 2.38.0 (20140413.2041)
 -->
<!-- Title: erpc::RPMsgZCTransport Pages: 1 -->
<svg width="523pt" height="100pt"
 viewBox="0.00 0.00 523.00 99.50" xmlns="http://www.w3.org/2000/svg" xmlns:xlink="http://www.w3.org/1999/xlink">
<g id="graph0" class="graph" transform="scale(1 1) rotate(0) translate(4 95.5)">
<title>erpc::RPMsgZCTransport</title>
<polygon fill="white" stroke="none" points="-4,4 -4,-95.5 519,-95.5 519,4 -4,4"/>
<!-- Node1 -->
<g id="node1" class="node"><title>Node1</title>
<polygon fill="#bfbfbf" stroke="black" points="389,-37 389,-56 515,-56 515,-37 389,-37"/>
<text text-anchor="middle" x="452" y="-44" font-family="Helvetica,sans-Serif" font-size="10.00">erpc::RPMsgZCTransport</text>
</g>
<!-- Node2 -->
<g id="node2" class="node"><title>Node2</title>
<g id="a_node2"><a xlink:href="classerpc_1_1_r_p_msg_z_c_base_transport.html" target="_top" xlink:title="Transport that other RPMsg transports inherts. ">
<polygon fill="white" stroke="black" points="119,-72 119,-91 268,-91 268,-72 119,-72"/>
<text text-anchor="middle" x="193.5" y="-79" font-family="Helvetica,sans-Serif" font-size="10.00">erpc::RPMsgZCBaseTransport</text>
</a>
</g>
</g>
<!-- Node2&#45;&gt;Node1 -->
<g id="edge1" class="edge"><title>Node2&#45;&gt;Node1</title>
<path fill="none" stroke="midnightblue" d="M274.461,-70.5891C311.29,-65.5637 354.34,-59.6895 388.708,-54.9999"/>
<polygon fill="midnightblue" stroke="midnightblue" points="273.686,-67.1624 264.251,-71.9823 274.632,-74.0981 273.686,-67.1624"/>
</g>
<!-- Node3 -->
<g id="node3" class="node"><title>Node3</title>
<g id="a_node3"><a xlink:href="classerpc_1_1_transport.html" target="_top" xlink:title="Abstract interface for transport layer. ">
<polygon fill="white" stroke="black" points="0,-72 0,-91 82,-91 82,-72 0,-72"/>
<text text-anchor="middle" x="41" y="-79" font-family="Helvetica,sans-Serif" font-size="10.00">erpc::Transport</text>
</a>
</g>
</g>
<!-- Node3&#45;&gt;Node2 -->
<g id="edge2" class="edge"><title>Node3&#45;&gt;Node2</title>
<path fill="none" stroke="midnightblue" d="M92.4523,-81.5C100.972,-81.5 109.969,-81.5 118.934,-81.5"/>
<polygon fill="midnightblue" stroke="midnightblue" points="92.3313,-78.0001 82.3312,-81.5 92.3312,-85.0001 92.3313,-78.0001"/>
</g>
<!-- Node4 -->
<g id="node4" class="node"><title>Node4</title>
<g id="a_node4"><a xlink:href="classerpc_1_1_static_queue.html" target="_top" xlink:title="erpc::StaticQueue\&lt;\l erpc::MessageBuffer,\l ERPC_DEFAULT_BUFFERS\l_COUNT \&gt;">
<polygon fill="white" stroke="black" points="120.5,-0.5 120.5,-52.5 266.5,-52.5 266.5,-0.5 120.5,-0.5"/>
<text text-anchor="start" x="128.5" y="-40.5" font-family="Helvetica,sans-Serif" font-size="10.00">erpc::StaticQueue&lt;</text>
<text text-anchor="start" x="128.5" y="-29.5" font-family="Helvetica,sans-Serif" font-size="10.00"> erpc::MessageBuffer,</text>
<text text-anchor="start" x="128.5" y="-18.5" font-family="Helvetica,sans-Serif" font-size="10.00"> ERPC_DEFAULT_BUFFERS</text>
<text text-anchor="middle" x="193.5" y="-7.5" font-family="Helvetica,sans-Serif" font-size="10.00">_COUNT &gt;</text>
</a>
</g>
</g>
<!-- Node4&#45;&gt;Node1 -->
<g id="edge3" class="edge"><title>Node4&#45;&gt;Node1</title>
<path fill="none" stroke="#9a32cd" stroke-dasharray="5,2" d="M276.739,-32.9124C313.152,-35.7516 355.269,-39.0356 388.975,-41.6637"/>
<polygon fill="#9a32cd" stroke="#9a32cd" points="276.874,-29.4124 266.632,-32.1243 276.33,-36.3912 276.874,-29.4124"/>
<text text-anchor="middle" x="328.5" y="-43.5" font-family="Helvetica,sans-Serif" font-size="10.00"> m_messageQueue</text>
</g>
</g>
</svg>
