<?xml version="1.0" encoding="UTF-8" standalone="no"?>
<!DOCTYPE svg PUBLIC "-//W3C//DTD SVG 1.1//EN"
 "http://www.w3.org/Graphics/SVG/1.1/DTD/svg11.dtd">
<!-- Generated by graphviz version 2.38.0 (20140413.2041)
 -->
<!-- Title: erpc::LPI2cSlaveTransport Pages: 1 -->
<svg width="333pt" height="173pt"
 viewBox="0.00 0.00 333.00 173.00" xmlns="http://www.w3.org/2000/svg" xmlns:xlink="http://www.w3.org/1999/xlink">
<g id="graph0" class="graph" transform="scale(1 1) rotate(0) translate(4 169)">
<title>erpc::LPI2cSlaveTransport</title>
<polygon fill="white" stroke="none" points="-4,4 -4,-169 329,-169 329,4 -4,4"/>
<!-- Node1 -->
<g id="node1" class="node"><title>Node1</title>
<polygon fill="#bfbfbf" stroke="black" points="159,-0.5 159,-19.5 289,-19.5 289,-0.5 159,-0.5"/>
<text text-anchor="middle" x="224" y="-7.5" font-family="Helvetica,sans-Serif" font-size="10.00">erpc::LPI2cSlaveTransport</text>
</g>
<!-- Node2 -->
<g id="node2" class="node"><title>Node2</title>
<g id="a_node2"><a xlink:href="classerpc_1_1_framed_transport.html" target="_top" xlink:title="Base class for framed transport layers. ">
<polygon fill="white" stroke="black" points="76.5,-67.5 76.5,-86.5 191.5,-86.5 191.5,-67.5 76.5,-67.5"/>
<text text-anchor="middle" x="134" y="-74.5" font-family="Helvetica,sans-Serif" font-size="10.00">erpc::FramedTransport</text>
</a>
</g>
</g>
<!-- Node2&#45;&gt;Node1 -->
<g id="edge1" class="edge"><title>Node2&#45;&gt;Node1</title>
<path fill="none" stroke="midnightblue" d="M154.675,-61.0678C172.44,-48.2376 197.436,-30.1853 212.055,-19.6273"/>
<polygon fill="midnightblue" stroke="midnightblue" points="152.195,-58.5415 146.138,-67.2338 156.294,-64.2162 152.195,-58.5415"/>
</g>
<!-- Node3 -->
<g id="node3" class="node"><title>Node3</title>
<g id="a_node3"><a xlink:href="classerpc_1_1_transport.html" target="_top" xlink:title="Abstract interface for transport layer. ">
<polygon fill="white" stroke="black" points="0,-145.5 0,-164.5 82,-164.5 82,-145.5 0,-145.5"/>
<text text-anchor="middle" x="41" y="-152.5" font-family="Helvetica,sans-Serif" font-size="10.00">erpc::Transport</text>
</a>
</g>
</g>
<!-- Node3&#45;&gt;Node2 -->
<g id="edge2" class="edge"><title>Node3&#45;&gt;Node2</title>
<path fill="none" stroke="midnightblue" d="M59.4282,-138.94C78.5857,-123.285 107.902,-99.3271 123.456,-86.6165"/>
<polygon fill="midnightblue" stroke="midnightblue" points="57.1968,-136.244 51.6683,-145.282 61.6263,-141.664 57.1968,-136.244"/>
</g>
<!-- Node4 -->
<g id="node4" class="node"><title>Node4</title>
<g id="a_node4"><a xlink:href="classerpc_1_1_mutex.html" target="_top" xlink:title="Mutex. ">
<polygon fill="white" stroke="black" points="100,-145.5 100,-164.5 168,-164.5 168,-145.5 100,-145.5"/>
<text text-anchor="middle" x="134" y="-152.5" font-family="Helvetica,sans-Serif" font-size="10.00">erpc::Mutex</text>
</a>
</g>
</g>
<!-- Node4&#45;&gt;Node2 -->
<g id="edge3" class="edge"><title>Node4&#45;&gt;Node2</title>
<path fill="none" stroke="#9a32cd" stroke-dasharray="5,2" d="M134,-135.224C134,-119.697 134,-98.3582 134,-86.6165"/>
<polygon fill="#9a32cd" stroke="#9a32cd" points="130.5,-135.282 134,-145.282 137.5,-135.282 130.5,-135.282"/>
<text text-anchor="middle" x="166.5" y="-119" font-family="Helvetica,sans-Serif" font-size="10.00"> m_sendLock</text>
<text text-anchor="middle" x="166.5" y="-108" font-family="Helvetica,sans-Serif" font-size="10.00">m_receiveLock</text>
</g>
<!-- Node5 -->
<g id="node5" class="node"><title>Node5</title>
<g id="a_node5"><a xlink:href="classerpc_1_1_crc16.html" target="_top" xlink:title="Class for compute crc16. ">
<polygon fill="white" stroke="black" points="188.5,-145.5 188.5,-164.5 255.5,-164.5 255.5,-145.5 188.5,-145.5"/>
<text text-anchor="middle" x="222" y="-152.5" font-family="Helvetica,sans-Serif" font-size="10.00">erpc::Crc16</text>
</a>
</g>
</g>
<!-- Node5&#45;&gt;Node2 -->
<g id="edge4" class="edge"><title>Node5&#45;&gt;Node2</title>
<path fill="none" stroke="#9a32cd" stroke-dasharray="5,2" d="M217.302,-135.319C213.935,-125.224 208.468,-113.187 200,-105 191.278,-96.5668 179.562,-90.6335 168.422,-86.522"/>
<polygon fill="#9a32cd" stroke="#9a32cd" points="214.03,-136.604 220.173,-145.236 220.754,-134.657 214.03,-136.604"/>
<text text-anchor="middle" x="239.5" y="-113.5" font-family="Helvetica,sans-Serif" font-size="10.00"> m_crcImpl</text>
</g>
<!-- Node6 -->
<g id="node6" class="node"><title>Node6</title>
<g id="a_node6"><a xlink:href="classerpc_1_1_semaphore.html" target="_top" xlink:title="Simple semaphore class. ">
<polygon fill="white" stroke="black" points="209.5,-67.5 209.5,-86.5 300.5,-86.5 300.5,-67.5 209.5,-67.5"/>
<text text-anchor="middle" x="255" y="-74.5" font-family="Helvetica,sans-Serif" font-size="10.00">erpc::Semaphore</text>
</a>
</g>
</g>
<!-- Node6&#45;&gt;Node1 -->
<g id="edge5" class="edge"><title>Node6&#45;&gt;Node1</title>
<path fill="none" stroke="#9a32cd" stroke-dasharray="5,2" d="M246.493,-58.1635C240.515,-45.6281 232.78,-29.4104 228.115,-19.6273"/>
<polygon fill="#9a32cd" stroke="#9a32cd" points="243.355,-59.7144 250.819,-67.2338 249.674,-56.7011 243.355,-59.7144"/>
<text text-anchor="middle" x="283.5" y="-41" font-family="Helvetica,sans-Serif" font-size="10.00"> m_txrxSemaphore</text>
</g>
</g>
</svg>
