<?xml version="1.0" encoding="UTF-8" standalone="no"?>
<!DOCTYPE svg PUBLIC "-//W3C//DTD SVG 1.1//EN"
 "http://www.w3.org/Graphics/SVG/1.1/DTD/svg11.dtd">
<!-- Generated by graphviz version 2.38.0 (20140413.2041)
 -->
<!-- Title: erpc::I2cSlaveTransport Pages: 1 -->
<svg width="126pt" height="140pt"
 viewBox="0.00 0.00 126.00 140.00" xmlns="http://www.w3.org/2000/svg" xmlns:xlink="http://www.w3.org/1999/xlink">
<g id="graph0" class="graph" transform="scale(1 1) rotate(0) translate(4 136)">
<title>erpc::I2cSlaveTransport</title>
<polygon fill="white" stroke="none" points="-4,4 -4,-136 122,-136 122,4 -4,4"/>
<!-- Node1 -->
<g id="node1" class="node"><title>Node1</title>
<polygon fill="#bfbfbf" stroke="black" points="0,-0.5 0,-19.5 118,-19.5 118,-0.5 0,-0.5"/>
<text text-anchor="middle" x="59" y="-7.5" font-family="Helvetica,sans-Serif" font-size="10.00">erpc::I2cSlaveTransport</text>
</g>
<!-- Node2 -->
<g id="node2" class="node"><title>Node2</title>
<g id="a_node2"><a xlink:href="classerpc_1_1_framed_transport.html" target="_top" xlink:title="Base class for framed transport layers. ">
<polygon fill="white" stroke="black" points="1.5,-56.5 1.5,-75.5 116.5,-75.5 116.5,-56.5 1.5,-56.5"/>
<text text-anchor="middle" x="59" y="-63.5" font-family="Helvetica,sans-Serif" font-size="10.00">erpc::FramedTransport</text>
</a>
</g>
</g>
<!-- Node2&#45;&gt;Node1 -->
<g id="edge1" class="edge"><title>Node2&#45;&gt;Node1</title>
<path fill="none" stroke="midnightblue" d="M59,-45.8045C59,-36.9102 59,-26.7798 59,-19.7511"/>
<polygon fill="midnightblue" stroke="midnightblue" points="55.5001,-46.083 59,-56.083 62.5001,-46.083 55.5001,-46.083"/>
</g>
<!-- Node3 -->
<g id="node3" class="node"><title>Node3</title>
<g id="a_node3"><a xlink:href="classerpc_1_1_transport.html" target="_top" xlink:title="Abstract interface for transport layer. ">
<polygon fill="white" stroke="black" points="18,-112.5 18,-131.5 100,-131.5 100,-112.5 18,-112.5"/>
<text text-anchor="middle" x="59" y="-119.5" font-family="Helvetica,sans-Serif" font-size="10.00">erpc::Transport</text>
</a>
</g>
</g>
<!-- Node3&#45;&gt;Node2 -->
<g id="edge2" class="edge"><title>Node3&#45;&gt;Node2</title>
<path fill="none" stroke="midnightblue" d="M59,-101.805C59,-92.9102 59,-82.7798 59,-75.7511"/>
<polygon fill="midnightblue" stroke="midnightblue" points="55.5001,-102.083 59,-112.083 62.5001,-102.083 55.5001,-102.083"/>
</g>
</g>
</svg>
