<?xml version="1.0" encoding="UTF-8" standalone="no"?>
<!DOCTYPE svg PUBLIC "-//W3C//DTD SVG 1.1//EN"
 "http://www.w3.org/Graphics/SVG/1.1/DTD/svg11.dtd">
<!-- Generated by graphviz version 2.38.0 (20140413.2041)
 -->
<!-- Title: erpc::FramedTransport Pages: 1 -->
<svg width="435pt" height="484pt"
 viewBox="0.00 0.00 435.00 484.00" xmlns="http://www.w3.org/2000/svg" xmlns:xlink="http://www.w3.org/1999/xlink">
<g id="graph0" class="graph" transform="scale(1 1) rotate(0) translate(4 480)">
<title>erpc::FramedTransport</title>
<polygon fill="white" stroke="none" points="-4,4 -4,-480 431,-480 431,4 -4,4"/>
<!-- Node1 -->
<g id="node1" class="node"><title>Node1</title>
<polygon fill="#bfbfbf" stroke="black" points="118,-209.5 118,-228.5 233,-228.5 233,-209.5 118,-209.5"/>
<text text-anchor="middle" x="175.5" y="-216.5" font-family="Helvetica,sans-Serif" font-size="10.00">erpc::FramedTransport</text>
</g>
<!-- Node3 -->
<g id="node3" class="node"><title>Node3</title>
<g id="a_node3"><a xlink:href="classerpc_1_1_dspi_master_transport.html" target="_top" xlink:title="Very basic transport to send/receive messages via DSPI. ">
<polygon fill="white" stroke="black" points="282.5,-456.5 282.5,-475.5 413.5,-475.5 413.5,-456.5 282.5,-456.5"/>
<text text-anchor="middle" x="348" y="-463.5" font-family="Helvetica,sans-Serif" font-size="10.00">erpc::DspiMasterTransport</text>
</a>
</g>
</g>
<!-- Node1&#45;&gt;Node3 -->
<g id="edge2" class="edge"><title>Node1&#45;&gt;Node3</title>
<path fill="none" stroke="midnightblue" d="M178.513,-238.582C184.141,-282.829 204.155,-391.02 269,-447 273.431,-450.825 278.508,-453.907 283.899,-456.386"/>
<polygon fill="midnightblue" stroke="midnightblue" points="181.979,-238.087 177.35,-228.557 175.025,-238.894 181.979,-238.087"/>
</g>
<!-- Node4 -->
<g id="node4" class="node"><title>Node4</title>
<g id="a_node4"><a xlink:href="classerpc_1_1_dspi_slave_transport.html" target="_top" xlink:title="Very basic transport to send/receive messages via DSPI. ">
<polygon fill="white" stroke="black" points="285.5,-418.5 285.5,-437.5 410.5,-437.5 410.5,-418.5 285.5,-418.5"/>
<text text-anchor="middle" x="348" y="-425.5" font-family="Helvetica,sans-Serif" font-size="10.00">erpc::DspiSlaveTransport</text>
</a>
</g>
</g>
<!-- Node1&#45;&gt;Node4 -->
<g id="edge3" class="edge"><title>Node1&#45;&gt;Node4</title>
<path fill="none" stroke="midnightblue" d="M180.295,-238.711C188.841,-277.567 213.362,-364.161 269,-409 273.883,-412.936 279.46,-416.075 285.336,-418.576"/>
<polygon fill="midnightblue" stroke="midnightblue" points="183.673,-237.767 178.216,-228.686 176.819,-239.188 183.673,-237.767"/>
</g>
<!-- Node5 -->
<g id="node5" class="node"><title>Node5</title>
<g id="a_node5"><a xlink:href="classerpc_1_1_i2c_slave_transport.html" target="_top" xlink:title="Very basic transport to send/receive messages via I2C. ">
<polygon fill="white" stroke="black" points="289,-380.5 289,-399.5 407,-399.5 407,-380.5 289,-380.5"/>
<text text-anchor="middle" x="348" y="-387.5" font-family="Helvetica,sans-Serif" font-size="10.00">erpc::I2cSlaveTransport</text>
</a>
</g>
</g>
<!-- Node1&#45;&gt;Node5 -->
<g id="edge4" class="edge"><title>Node1&#45;&gt;Node5</title>
<path fill="none" stroke="midnightblue" d="M182.732,-238.337C194.279,-270.97 222.182,-336.755 269,-371 274.962,-375.361 281.799,-378.731 288.892,-381.333"/>
<polygon fill="midnightblue" stroke="midnightblue" points="185.968,-236.979 179.439,-228.635 179.339,-239.229 185.968,-236.979"/>
</g>
<!-- Node6 -->
<g id="node6" class="node"><title>Node6</title>
<g id="a_node6"><a xlink:href="classerpc_1_1_l_p_i2c_slave_transport.html" target="_top" xlink:title="Very basic transport to send/receive messages via LPI2C. ">
<polygon fill="white" stroke="black" points="283,-342.5 283,-361.5 413,-361.5 413,-342.5 283,-342.5"/>
<text text-anchor="middle" x="348" y="-349.5" font-family="Helvetica,sans-Serif" font-size="10.00">erpc::LPI2cSlaveTransport</text>
</a>
</g>
</g>
<!-- Node1&#45;&gt;Node6 -->
<g id="edge5" class="edge"><title>Node1&#45;&gt;Node6</title>
<path fill="none" stroke="midnightblue" d="M186.488,-237.785C201.102,-263.39 230.779,-308.822 269,-333 275.125,-336.875 281.98,-339.959 289.016,-342.415"/>
<polygon fill="midnightblue" stroke="midnightblue" points="189.383,-235.788 181.479,-228.733 183.258,-239.177 189.383,-235.788"/>
</g>
<!-- Node7 -->
<g id="node7" class="node"><title>Node7</title>
<g id="a_node7"><a xlink:href="classerpc_1_1_l_p_spi_slave_transport.html" target="_top" xlink:title="Very basic transport to send/receive messages via LPSPI. ">
<polygon fill="white" stroke="black" points="282.5,-304.5 282.5,-323.5 413.5,-323.5 413.5,-304.5 282.5,-304.5"/>
<text text-anchor="middle" x="348" y="-311.5" font-family="Helvetica,sans-Serif" font-size="10.00">erpc::LPSpiSlaveTransport</text>
</a>
</g>
</g>
<!-- Node1&#45;&gt;Node7 -->
<g id="edge6" class="edge"><title>Node1&#45;&gt;Node7</title>
<path fill="none" stroke="midnightblue" d="M192.244,-235.797C209.469,-253.177 238.688,-279.855 269,-295 276.73,-298.862 285.291,-301.968 293.827,-304.458"/>
<polygon fill="midnightblue" stroke="midnightblue" points="194.686,-233.287 185.214,-228.541 189.659,-238.159 194.686,-233.287"/>
</g>
<!-- Node8 -->
<g id="node8" class="node"><title>Node8</title>
<g id="a_node8"><a xlink:href="classerpc_1_1_r_p_msg_t_t_y_r_t_o_s_transport.html" target="_top" xlink:title="Transport that uses RPMsg zero copy RTOS API for interprocessor messaging. ">
<polygon fill="white" stroke="black" points="269,-266.5 269,-285.5 427,-285.5 427,-266.5 269,-266.5"/>
<text text-anchor="middle" x="348" y="-273.5" font-family="Helvetica,sans-Serif" font-size="10.00">erpc::RPMsgTTYRTOSTransport</text>
</a>
</g>
</g>
<!-- Node1&#45;&gt;Node8 -->
<g id="edge7" class="edge"><title>Node1&#45;&gt;Node8</title>
<path fill="none" stroke="midnightblue" d="M206.444,-232.647C224.346,-240.466 247.686,-250.07 269,-257 279.869,-260.534 291.778,-263.753 302.945,-266.497"/>
<polygon fill="midnightblue" stroke="midnightblue" points="207.666,-229.361 197.105,-228.516 204.834,-235.762 207.666,-229.361"/>
</g>
<!-- Node9 -->
<g id="node9" class="node"><title>Node9</title>
<g id="a_node9"><a xlink:href="classerpc_1_1_serial_transport.html" target="_top" xlink:title="Serial transport layer for host PC. ">
<polygon fill="white" stroke="black" points="294.5,-228.5 294.5,-247.5 401.5,-247.5 401.5,-228.5 294.5,-228.5"/>
<text text-anchor="middle" x="348" y="-235.5" font-family="Helvetica,sans-Serif" font-size="10.00">erpc::SerialTransport</text>
</a>
</g>
</g>
<!-- Node1&#45;&gt;Node9 -->
<g id="edge8" class="edge"><title>Node1&#45;&gt;Node9</title>
<path fill="none" stroke="midnightblue" d="M243.591,-226.476C260.407,-228.35 278.21,-230.334 294.219,-232.118"/>
<polygon fill="midnightblue" stroke="midnightblue" points="243.6,-222.956 233.274,-225.327 242.825,-229.913 243.6,-222.956"/>
</g>
<!-- Node10 -->
<g id="node10" class="node"><title>Node10</title>
<g id="a_node10"><a xlink:href="classerpc_1_1_spidev_master_transport.html" target="_top" xlink:title="Very basic transport to send/receive messages via SPIdev. ">
<polygon fill="white" stroke="black" points="278,-190.5 278,-209.5 418,-209.5 418,-190.5 278,-190.5"/>
<text text-anchor="middle" x="348" y="-197.5" font-family="Helvetica,sans-Serif" font-size="10.00">erpc::SpidevMasterTransport</text>
</a>
</g>
</g>
<!-- Node1&#45;&gt;Node10 -->
<g id="edge9" class="edge"><title>Node1&#45;&gt;Node10</title>
<path fill="none" stroke="midnightblue" d="M243.46,-211.538C254.714,-210.284 266.415,-208.98 277.726,-207.72"/>
<polygon fill="midnightblue" stroke="midnightblue" points="242.825,-208.087 233.274,-212.673 243.6,-215.044 242.825,-208.087"/>
</g>
<!-- Node11 -->
<g id="node11" class="node"><title>Node11</title>
<g id="a_node11"><a xlink:href="classerpc_1_1_spi_master_transport.html" target="_top" xlink:title="Very basic transport to send/receive messages via SPI. ">
<polygon fill="white" stroke="black" points="285,-152.5 285,-171.5 411,-171.5 411,-152.5 285,-152.5"/>
<text text-anchor="middle" x="348" y="-159.5" font-family="Helvetica,sans-Serif" font-size="10.00">erpc::SpiMasterTransport</text>
</a>
</g>
</g>
<!-- Node1&#45;&gt;Node11 -->
<g id="edge10" class="edge"><title>Node1&#45;&gt;Node11</title>
<path fill="none" stroke="midnightblue" d="M206.444,-205.353C224.346,-197.534 247.686,-187.93 269,-181 279.869,-177.466 291.778,-174.247 302.945,-171.503"/>
<polygon fill="midnightblue" stroke="midnightblue" points="204.834,-202.238 197.105,-209.484 207.666,-208.639 204.834,-202.238"/>
</g>
<!-- Node12 -->
<g id="node12" class="node"><title>Node12</title>
<g id="a_node12"><a xlink:href="classerpc_1_1_spi_slave_transport.html" target="_top" xlink:title="Very basic transport to send/receive messages via SPI. ">
<polygon fill="white" stroke="black" points="288.5,-114.5 288.5,-133.5 407.5,-133.5 407.5,-114.5 288.5,-114.5"/>
<text text-anchor="middle" x="348" y="-121.5" font-family="Helvetica,sans-Serif" font-size="10.00">erpc::SpiSlaveTransport</text>
</a>
</g>
</g>
<!-- Node1&#45;&gt;Node12 -->
<g id="edge11" class="edge"><title>Node1&#45;&gt;Node12</title>
<path fill="none" stroke="midnightblue" d="M192.244,-202.203C209.469,-184.823 238.688,-158.145 269,-143 276.73,-139.138 285.291,-136.032 293.827,-133.542"/>
<polygon fill="midnightblue" stroke="midnightblue" points="189.659,-199.841 185.214,-209.459 194.686,-204.713 189.659,-199.841"/>
</g>
<!-- Node13 -->
<g id="node13" class="node"><title>Node13</title>
<g id="a_node13"><a xlink:href="classerpc_1_1_t_c_p_transport.html" target="_top" xlink:title="Client side of TCP/IP transport. ">
<polygon fill="white" stroke="black" points="297.5,-76.5 297.5,-95.5 398.5,-95.5 398.5,-76.5 297.5,-76.5"/>
<text text-anchor="middle" x="348" y="-83.5" font-family="Helvetica,sans-Serif" font-size="10.00">erpc::TCPTransport</text>
</a>
</g>
</g>
<!-- Node1&#45;&gt;Node13 -->
<g id="edge12" class="edge"><title>Node1&#45;&gt;Node13</title>
<path fill="none" stroke="midnightblue" d="M186.488,-200.215C201.102,-174.61 230.779,-129.178 269,-105 277.481,-99.6352 287.361,-95.7852 297.183,-93.0222"/>
<polygon fill="midnightblue" stroke="midnightblue" points="183.258,-198.823 181.479,-209.267 189.383,-202.212 183.258,-198.823"/>
</g>
<!-- Node14 -->
<g id="node14" class="node"><title>Node14</title>
<g id="a_node14"><a xlink:href="classerpc_1_1_uart_transport.html" target="_top" xlink:title="Very basic transport to send/receive messages via UART. ">
<polygon fill="white" stroke="black" points="298,-38.5 298,-57.5 398,-57.5 398,-38.5 298,-38.5"/>
<text text-anchor="middle" x="348" y="-45.5" font-family="Helvetica,sans-Serif" font-size="10.00">erpc::UartTransport</text>
</a>
</g>
</g>
<!-- Node1&#45;&gt;Node14 -->
<g id="edge13" class="edge"><title>Node1&#45;&gt;Node14</title>
<path fill="none" stroke="midnightblue" d="M181.194,-199.174C191.666,-164.364 219.954,-93.875 269,-58 277.437,-51.8287 287.625,-47.6426 297.815,-45.0345"/>
<polygon fill="midnightblue" stroke="midnightblue" points="177.732,-198.56 178.416,-209.133 184.474,-200.441 177.732,-198.56"/>
</g>
<!-- Node1&#45;&gt;Node14 -->
<g id="edge14" class="edge"><title>Node1&#45;&gt;Node14</title>
<path fill="none" stroke="midnightblue" d="M184.883,-199.752C197.546,-168.58 224.87,-108.279 269,-76 283.287,-65.5499 302.595,-60.7922 318.426,-57.552"/>
<polygon fill="midnightblue" stroke="midnightblue" points="181.599,-198.539 181.148,-209.124 188.102,-201.131 181.599,-198.539"/>
</g>
<!-- Node15 -->
<g id="node15" class="node"><title>Node15</title>
<g id="a_node15"><a xlink:href="classerpc_1_1_usb_cdc_transport.html" target="_top" xlink:title="Very basic transport to send/receive messages via virtual USB CDC port. ">
<polygon fill="white" stroke="black" points="290,-0.5 290,-19.5 406,-19.5 406,-0.5 290,-0.5"/>
<text text-anchor="middle" x="348" y="-7.5" font-family="Helvetica,sans-Serif" font-size="10.00">erpc::UsbCdcTransport</text>
</a>
</g>
</g>
<!-- Node1&#45;&gt;Node15 -->
<g id="edge15" class="edge"><title>Node1&#45;&gt;Node15</title>
<path fill="none" stroke="midnightblue" d="M180.295,-199.289C188.841,-160.433 213.362,-73.8394 269,-29 275.077,-24.1023 282.228,-20.4382 289.692,-17.7024"/>
<polygon fill="midnightblue" stroke="midnightblue" points="176.819,-198.812 178.216,-209.314 183.673,-200.233 176.819,-198.812"/>
</g>
<!-- Node2 -->
<g id="node2" class="node"><title>Node2</title>
<g id="a_node2"><a xlink:href="classerpc_1_1_transport.html" target="_top" xlink:title="Abstract interface for transport layer. ">
<polygon fill="white" stroke="black" points="0,-209.5 0,-228.5 82,-228.5 82,-209.5 0,-209.5"/>
<text text-anchor="middle" x="41" y="-216.5" font-family="Helvetica,sans-Serif" font-size="10.00">erpc::Transport</text>
</a>
</g>
</g>
<!-- Node2&#45;&gt;Node1 -->
<g id="edge1" class="edge"><title>Node2&#45;&gt;Node1</title>
<path fill="none" stroke="midnightblue" d="M92.1515,-219C100.563,-219 109.343,-219 117.903,-219"/>
<polygon fill="midnightblue" stroke="midnightblue" points="92.114,-215.5 82.1139,-219 92.1139,-222.5 92.114,-215.5"/>
</g>
</g>
</svg>
