<?xml version="1.0" encoding="UTF-8" standalone="no"?>
<!DOCTYPE svg PUBLIC "-//W3C//DTD SVG 1.1//EN"
 "http://www.w3.org/Graphics/SVG/1.1/DTD/svg11.dtd">
<!-- Generated by graphviz version 2.38.0 (20140413.2041)
 -->
<!-- Title: erpc::SimpleServer Pages: 1 -->
<svg width="513pt" height="152pt"
 viewBox="0.00 0.00 512.50 152.00" xmlns="http://www.w3.org/2000/svg" xmlns:xlink="http://www.w3.org/1999/xlink">
<g id="graph0" class="graph" transform="scale(1 1) rotate(0) translate(4 148)">
<title>erpc::SimpleServer</title>
<polygon fill="white" stroke="none" points="-4,4 -4,-148 508.5,-148 508.5,4 -4,4"/>
<!-- Node1 -->
<g id="node1" class="node"><title>Node1</title>
<polygon fill="#bfbfbf" stroke="black" points="176,-0.5 176,-19.5 274,-19.5 274,-0.5 176,-0.5"/>
<text text-anchor="middle" x="225" y="-7.5" font-family="Helvetica,sans-Serif" font-size="10.00">erpc::SimpleServer</text>
</g>
<!-- Node2 -->
<g id="node2" class="node"><title>Node2</title>
<g id="a_node2"><a xlink:href="classerpc_1_1_server.html" target="_top" xlink:title="Based server functionality. ">
<polygon fill="white" stroke="black" points="191,-57.5 191,-76.5 259,-76.5 259,-57.5 191,-57.5"/>
<text text-anchor="middle" x="225" y="-64.5" font-family="Helvetica,sans-Serif" font-size="10.00">erpc::Server</text>
</a>
</g>
</g>
<!-- Node2&#45;&gt;Node1 -->
<g id="edge1" class="edge"><title>Node2&#45;&gt;Node1</title>
<path fill="none" stroke="midnightblue" d="M225,-47.1166C225,-37.8173 225,-27.0557 225,-19.7149"/>
<polygon fill="midnightblue" stroke="midnightblue" points="221.5,-47.4062 225,-57.4063 228.5,-47.4063 221.5,-47.4062"/>
</g>
<!-- Node3 -->
<g id="node3" class="node"><title>Node3</title>
<g id="a_node3"><a xlink:href="classerpc_1_1_codec_factory.html" target="_top" xlink:title="Abstract interface for codec factory. ">
<polygon fill="white" stroke="black" points="0,-124.5 0,-143.5 102,-143.5 102,-124.5 0,-124.5"/>
<text text-anchor="middle" x="51" y="-131.5" font-family="Helvetica,sans-Serif" font-size="10.00">erpc::CodecFactory</text>
</a>
</g>
</g>
<!-- Node3&#45;&gt;Node2 -->
<g id="edge2" class="edge"><title>Node3&#45;&gt;Node2</title>
<path fill="none" stroke="#9a32cd" stroke-dasharray="5,2" d="M70.1931,-118.242C81.2976,-110.334 95.8407,-101.01 110,-95 136.052,-83.9425 167.434,-76.9605 190.83,-72.8732"/>
<polygon fill="#9a32cd" stroke="#9a32cd" points="68.084,-115.448 62.0976,-124.19 72.2287,-121.089 68.084,-115.448"/>
<text text-anchor="middle" x="148" y="-98" font-family="Helvetica,sans-Serif" font-size="10.00"> m_codecFactory</text>
</g>
<!-- Node4 -->
<g id="node4" class="node"><title>Node4</title>
<g id="a_node4"><a xlink:href="classerpc_1_1_transport.html" target="_top" xlink:title="Abstract interface for transport layer. ">
<polygon fill="white" stroke="black" points="120,-124.5 120,-143.5 202,-143.5 202,-124.5 120,-124.5"/>
<text text-anchor="middle" x="161" y="-131.5" font-family="Helvetica,sans-Serif" font-size="10.00">erpc::Transport</text>
</a>
</g>
</g>
<!-- Node4&#45;&gt;Node2 -->
<g id="edge3" class="edge"><title>Node4&#45;&gt;Node2</title>
<path fill="none" stroke="#9a32cd" stroke-dasharray="5,2" d="M176.757,-116.997C189.308,-104.25 206.396,-86.8947 216.505,-76.6273"/>
<polygon fill="#9a32cd" stroke="#9a32cd" points="174.153,-114.652 169.631,-124.234 179.141,-119.564 174.153,-114.652"/>
<text text-anchor="middle" x="224.5" y="-98" font-family="Helvetica,sans-Serif" font-size="10.00"> m_transport</text>
</g>
<!-- Node5 -->
<g id="node5" class="node"><title>Node5</title>
<g id="a_node5"><a xlink:href="classerpc_1_1_message_buffer_factory.html" target="_top" xlink:title="Abstract interface for message buffer factory. ">
<polygon fill="white" stroke="black" points="220.5,-124.5 220.5,-143.5 359.5,-143.5 359.5,-124.5 220.5,-124.5"/>
<text text-anchor="middle" x="290" y="-131.5" font-family="Helvetica,sans-Serif" font-size="10.00">erpc::MessageBufferFactory</text>
</a>
</g>
</g>
<!-- Node5&#45;&gt;Node2 -->
<g id="edge4" class="edge"><title>Node5&#45;&gt;Node2</title>
<path fill="none" stroke="#9a32cd" stroke-dasharray="5,2" d="M275.918,-116.369C269.957,-109.568 262.823,-101.733 256,-95 249.497,-88.5835 241.747,-81.8335 235.623,-76.6877"/>
<polygon fill="#9a32cd" stroke="#9a32cd" points="273.549,-118.982 282.73,-124.27 278.851,-114.411 273.549,-118.982"/>
<text text-anchor="middle" x="311" y="-98" font-family="Helvetica,sans-Serif" font-size="10.00"> m_messageFactory</text>
</g>
<!-- Node6 -->
<g id="node6" class="node"><title>Node6</title>
<g id="a_node6"><a xlink:href="classerpc_1_1_service.html" target="_top" xlink:title="Abstract interface for service, which can be executed on server side. ">
<polygon fill="white" stroke="black" points="377.5,-124.5 377.5,-143.5 450.5,-143.5 450.5,-124.5 377.5,-124.5"/>
<text text-anchor="middle" x="414" y="-131.5" font-family="Helvetica,sans-Serif" font-size="10.00">erpc::Service</text>
</a>
</g>
</g>
<!-- Node6&#45;&gt;Node2 -->
<g id="edge5" class="edge"><title>Node6&#45;&gt;Node2</title>
<path fill="none" stroke="#9a32cd" stroke-dasharray="5,2" d="M396.467,-117.827C386.414,-109.886 373.2,-100.663 360,-95 327.382,-81.0049 287.179,-74.161 259.168,-70.8811"/>
<polygon fill="#9a32cd" stroke="#9a32cd" points="394.46,-120.708 404.408,-124.354 398.905,-115.3 394.46,-120.708"/>
<text text-anchor="middle" x="412" y="-98" font-family="Helvetica,sans-Serif" font-size="10.00"> m_firstService</text>
</g>
<!-- Node6&#45;&gt;Node6 -->
<g id="edge6" class="edge"><title>Node6&#45;&gt;Node6</title>
<path fill="none" stroke="#9a32cd" stroke-dasharray="5,2" d="M460.757,-138.922C465.485,-137.945 468.5,-136.305 468.5,-134 468.5,-130.313 460.78,-128.325 450.679,-128.037"/>
<polygon fill="#9a32cd" stroke="#9a32cd" points="460.266,-135.454 450.679,-139.963 460.986,-142.417 460.266,-135.454"/>
<text text-anchor="middle" x="486.5" y="-131.5" font-family="Helvetica,sans-Serif" font-size="10.00"> m_next</text>
</g>
</g>
</svg>
