<?xml version="1.0" encoding="UTF-8" standalone="no"?>
<!DOCTYPE svg PUBLIC "-//W3C//DTD SVG 1.1//EN"
 "http://www.w3.org/Graphics/SVG/1.1/DTD/svg11.dtd">
<!-- Generated by graphviz version 2.38.0 (20140413.2041)
 -->
<!-- Title: erpc::FramedTransport Pages: 1 -->
<svg width="417pt" height="446pt"
 viewBox="0.00 0.00 417.00 446.00" xmlns="http://www.w3.org/2000/svg" xmlns:xlink="http://www.w3.org/1999/xlink">
<g id="graph0" class="graph" transform="scale(1 1) rotate(0) translate(4 442)">
<title>erpc::FramedTransport</title>
<polygon fill="white" stroke="none" points="-4,4 -4,-442 413,-442 413,4 -4,4"/>
<!-- Node1 -->
<g id="node1" class="node"><title>Node1</title>
<polygon fill="#bfbfbf" stroke="black" points="118,-209.5 118,-228.5 233,-228.5 233,-209.5 118,-209.5"/>
<text text-anchor="middle" x="175.5" y="-216.5" font-family="Helvetica,sans-Serif" font-size="10.00">erpc::FramedTransport</text>
</g>
<!-- Node3 -->
<g id="node3" class="node"><title>Node3</title>
<g id="a_node3"><a xlink:href="classerpc_1_1_dspi_master_transport.html" target="_top" xlink:title="Very basic transport to send/receive messages via DSPI. ">
<polygon fill="white" stroke="black" points="273.5,-418.5 273.5,-437.5 404.5,-437.5 404.5,-418.5 273.5,-418.5"/>
<text text-anchor="middle" x="339" y="-425.5" font-family="Helvetica,sans-Serif" font-size="10.00">erpc::DspiMasterTransport</text>
</a>
</g>
</g>
<!-- Node1&#45;&gt;Node3 -->
<g id="edge2" class="edge"><title>Node1&#45;&gt;Node3</title>
<path fill="none" stroke="midnightblue" d="M180.41,-238.57C189.163,-277.173 214.035,-363.338 269,-409 273.683,-412.89 279.101,-415.988 284.802,-418.453"/>
<polygon fill="midnightblue" stroke="midnightblue" points="183.794,-237.657 178.276,-228.613 176.95,-239.125 183.794,-237.657"/>
</g>
<!-- Node4 -->
<g id="node4" class="node"><title>Node4</title>
<g id="a_node4"><a xlink:href="classerpc_1_1_dspi_slave_transport.html" target="_top" xlink:title="Very basic transport to send/receive messages via DSPI. ">
<polygon fill="white" stroke="black" points="276.5,-380.5 276.5,-399.5 401.5,-399.5 401.5,-380.5 276.5,-380.5"/>
<text text-anchor="middle" x="339" y="-387.5" font-family="Helvetica,sans-Serif" font-size="10.00">erpc::DspiSlaveTransport</text>
</a>
</g>
</g>
<!-- Node1&#45;&gt;Node4 -->
<g id="edge3" class="edge"><title>Node1&#45;&gt;Node4</title>
<path fill="none" stroke="midnightblue" d="M182.842,-238.189C194.554,-270.6 222.697,-336.062 269,-371 274.158,-374.892 280.067,-377.986 286.209,-380.447"/>
<polygon fill="midnightblue" stroke="midnightblue" points="186.084,-236.855 179.497,-228.557 179.471,-239.151 186.084,-236.855"/>
</g>
<!-- Node5 -->
<g id="node5" class="node"><title>Node5</title>
<g id="a_node5"><a xlink:href="classerpc_1_1_i2c_slave_transport.html" target="_top" xlink:title="Very basic transport to send/receive messages via I2C. ">
<polygon fill="white" stroke="black" points="280,-342.5 280,-361.5 398,-361.5 398,-342.5 280,-342.5"/>
<text text-anchor="middle" x="339" y="-349.5" font-family="Helvetica,sans-Serif" font-size="10.00">erpc::I2cSlaveTransport</text>
</a>
</g>
</g>
<!-- Node1&#45;&gt;Node5 -->
<g id="edge4" class="edge"><title>Node1&#45;&gt;Node5</title>
<path fill="none" stroke="midnightblue" d="M186.59,-237.625C201.325,-263.043 231.143,-308.256 269,-333 274.928,-336.875 281.637,-339.966 288.486,-342.431"/>
<polygon fill="midnightblue" stroke="midnightblue" points="189.491,-235.642 181.536,-228.644 183.39,-239.075 189.491,-235.642"/>
</g>
<!-- Node6 -->
<g id="node6" class="node"><title>Node6</title>
<g id="a_node6"><a xlink:href="classerpc_1_1_l_p_i2c_slave_transport.html" target="_top" xlink:title="Very basic transport to send/receive messages via LPI2C. ">
<polygon fill="white" stroke="black" points="274,-304.5 274,-323.5 404,-323.5 404,-304.5 274,-304.5"/>
<text text-anchor="middle" x="339" y="-311.5" font-family="Helvetica,sans-Serif" font-size="10.00">erpc::LPI2cSlaveTransport</text>
</a>
</g>
</g>
<!-- Node1&#45;&gt;Node6 -->
<g id="edge5" class="edge"><title>Node1&#45;&gt;Node6</title>
<path fill="none" stroke="midnightblue" d="M192.612,-235.895C209.947,-253.133 239.077,-279.488 269,-295 276.391,-298.831 284.639,-301.958 292.79,-304.488"/>
<polygon fill="midnightblue" stroke="midnightblue" points="195.027,-233.359 185.517,-228.689 190.039,-238.27 195.027,-233.359"/>
</g>
<!-- Node7 -->
<g id="node7" class="node"><title>Node7</title>
<g id="a_node7"><a xlink:href="classerpc_1_1_l_p_spi_slave_transport.html" target="_top" xlink:title="Very basic transport to send/receive messages via LPSPI. ">
<polygon fill="white" stroke="black" points="273.5,-266.5 273.5,-285.5 404.5,-285.5 404.5,-266.5 273.5,-266.5"/>
<text text-anchor="middle" x="339" y="-273.5" font-family="Helvetica,sans-Serif" font-size="10.00">erpc::LPSpiSlaveTransport</text>
</a>
</g>
</g>
<!-- Node1&#45;&gt;Node7 -->
<g id="edge6" class="edge"><title>Node1&#45;&gt;Node7</title>
<path fill="none" stroke="midnightblue" d="M207.227,-232.718C225.061,-240.403 248.069,-249.848 269,-257 278.994,-260.415 289.958,-263.657 300.147,-266.464"/>
<polygon fill="midnightblue" stroke="midnightblue" points="208.464,-229.44 197.898,-228.656 205.67,-235.858 208.464,-229.44"/>
</g>
<!-- Node8 -->
<g id="node8" class="node"><title>Node8</title>
<g id="a_node8"><a xlink:href="classerpc_1_1_serial_transport.html" target="_top" xlink:title="Serial transport layer for host PC. ">
<polygon fill="white" stroke="black" points="285.5,-228.5 285.5,-247.5 392.5,-247.5 392.5,-228.5 285.5,-228.5"/>
<text text-anchor="middle" x="339" y="-235.5" font-family="Helvetica,sans-Serif" font-size="10.00">erpc::SerialTransport</text>
</a>
</g>
</g>
<!-- Node1&#45;&gt;Node8 -->
<g id="edge7" class="edge"><title>Node1&#45;&gt;Node8</title>
<path fill="none" stroke="midnightblue" d="M243.486,-226.881C257.456,-228.524 271.992,-230.234 285.355,-231.806"/>
<polygon fill="midnightblue" stroke="midnightblue" points="243.779,-223.391 233.439,-225.699 242.961,-230.343 243.779,-223.391"/>
</g>
<!-- Node9 -->
<g id="node9" class="node"><title>Node9</title>
<g id="a_node9"><a xlink:href="classerpc_1_1_spidev_master_transport.html" target="_top" xlink:title="Very basic transport to send/receive messages via SPIdev. ">
<polygon fill="white" stroke="black" points="269,-190.5 269,-209.5 409,-209.5 409,-190.5 269,-190.5"/>
<text text-anchor="middle" x="339" y="-197.5" font-family="Helvetica,sans-Serif" font-size="10.00">erpc::SpidevMasterTransport</text>
</a>
</g>
</g>
<!-- Node1&#45;&gt;Node9 -->
<g id="edge8" class="edge"><title>Node1&#45;&gt;Node9</title>
<path fill="none" stroke="midnightblue" d="M243.512,-211.116C251.874,-210.133 260.437,-209.125 268.83,-208.138"/>
<polygon fill="midnightblue" stroke="midnightblue" points="242.961,-207.657 233.439,-212.301 243.779,-214.609 242.961,-207.657"/>
</g>
<!-- Node10 -->
<g id="node10" class="node"><title>Node10</title>
<g id="a_node10"><a xlink:href="classerpc_1_1_spi_master_transport.html" target="_top" xlink:title="Very basic transport to send/receive messages via SPI. ">
<polygon fill="white" stroke="black" points="276,-152.5 276,-171.5 402,-171.5 402,-152.5 276,-152.5"/>
<text text-anchor="middle" x="339" y="-159.5" font-family="Helvetica,sans-Serif" font-size="10.00">erpc::SpiMasterTransport</text>
</a>
</g>
</g>
<!-- Node1&#45;&gt;Node10 -->
<g id="edge9" class="edge"><title>Node1&#45;&gt;Node10</title>
<path fill="none" stroke="midnightblue" d="M207.227,-205.282C225.061,-197.597 248.069,-188.152 269,-181 278.994,-177.585 289.958,-174.343 300.147,-171.536"/>
<polygon fill="midnightblue" stroke="midnightblue" points="205.67,-202.142 197.898,-209.344 208.464,-208.56 205.67,-202.142"/>
</g>
<!-- Node11 -->
<g id="node11" class="node"><title>Node11</title>
<g id="a_node11"><a xlink:href="classerpc_1_1_spi_slave_transport.html" target="_top" xlink:title="Very basic transport to send/receive messages via SPI. ">
<polygon fill="white" stroke="black" points="279.5,-114.5 279.5,-133.5 398.5,-133.5 398.5,-114.5 279.5,-114.5"/>
<text text-anchor="middle" x="339" y="-121.5" font-family="Helvetica,sans-Serif" font-size="10.00">erpc::SpiSlaveTransport</text>
</a>
</g>
</g>
<!-- Node1&#45;&gt;Node11 -->
<g id="edge10" class="edge"><title>Node1&#45;&gt;Node11</title>
<path fill="none" stroke="midnightblue" d="M192.612,-202.105C209.947,-184.867 239.077,-158.512 269,-143 276.391,-139.169 284.639,-136.042 292.79,-133.512"/>
<polygon fill="midnightblue" stroke="midnightblue" points="190.039,-199.73 185.517,-209.311 195.027,-204.641 190.039,-199.73"/>
</g>
<!-- Node12 -->
<g id="node12" class="node"><title>Node12</title>
<g id="a_node12"><a xlink:href="classerpc_1_1_t_c_p_transport.html" target="_top" xlink:title="Client side of TCP/IP transport. ">
<polygon fill="white" stroke="black" points="288.5,-76.5 288.5,-95.5 389.5,-95.5 389.5,-76.5 288.5,-76.5"/>
<text text-anchor="middle" x="339" y="-83.5" font-family="Helvetica,sans-Serif" font-size="10.00">erpc::TCPTransport</text>
</a>
</g>
</g>
<!-- Node1&#45;&gt;Node12 -->
<g id="edge11" class="edge"><title>Node1&#45;&gt;Node12</title>
<path fill="none" stroke="midnightblue" d="M186.59,-200.375C201.325,-174.957 231.143,-129.744 269,-105 274.928,-101.125 281.637,-98.0339 288.486,-95.5693"/>
<polygon fill="midnightblue" stroke="midnightblue" points="183.39,-198.925 181.536,-209.356 189.491,-202.358 183.39,-198.925"/>
</g>
<!-- Node13 -->
<g id="node13" class="node"><title>Node13</title>
<g id="a_node13"><a xlink:href="classerpc_1_1_uart_transport.html" target="_top" xlink:title="Very basic transport to send/receive messages via UART. ">
<polygon fill="white" stroke="black" points="289,-38.5 289,-57.5 389,-57.5 389,-38.5 289,-38.5"/>
<text text-anchor="middle" x="339" y="-45.5" font-family="Helvetica,sans-Serif" font-size="10.00">erpc::UartTransport</text>
</a>
</g>
</g>
<!-- Node1&#45;&gt;Node13 -->
<g id="edge12" class="edge"><title>Node1&#45;&gt;Node13</title>
<path fill="none" stroke="midnightblue" d="M182.842,-199.811C194.554,-167.4 222.697,-101.938 269,-67 274.852,-62.5845 281.671,-59.1951 288.702,-56.5933"/>
<polygon fill="midnightblue" stroke="midnightblue" points="179.471,-198.849 179.497,-209.443 186.084,-201.145 179.471,-198.849"/>
</g>
<!-- Node14 -->
<g id="node14" class="node"><title>Node14</title>
<g id="a_node14"><a xlink:href="classerpc_1_1_usb_cdc_transport.html" target="_top" xlink:title="Very basic transport to send/receive messages via virtual USB CDC port. ">
<polygon fill="white" stroke="black" points="281,-0.5 281,-19.5 397,-19.5 397,-0.5 281,-0.5"/>
<text text-anchor="middle" x="339" y="-7.5" font-family="Helvetica,sans-Serif" font-size="10.00">erpc::UsbCdcTransport</text>
</a>
</g>
</g>
<!-- Node1&#45;&gt;Node14 -->
<g id="edge13" class="edge"><title>Node1&#45;&gt;Node14</title>
<path fill="none" stroke="midnightblue" d="M180.41,-199.43C189.163,-160.827 214.035,-74.6625 269,-29 273.683,-25.1095 279.101,-22.0123 284.802,-19.5471"/>
<polygon fill="midnightblue" stroke="midnightblue" points="176.95,-198.875 178.276,-209.387 183.794,-200.343 176.95,-198.875"/>
</g>
<!-- Node2 -->
<g id="node2" class="node"><title>Node2</title>
<g id="a_node2"><a xlink:href="classerpc_1_1_transport.html" target="_top" xlink:title="Abstract interface for transport layer. ">
<polygon fill="white" stroke="black" points="0,-209.5 0,-228.5 82,-228.5 82,-209.5 0,-209.5"/>
<text text-anchor="middle" x="41" y="-216.5" font-family="Helvetica,sans-Serif" font-size="10.00">erpc::Transport</text>
</a>
</g>
</g>
<!-- Node2&#45;&gt;Node1 -->
<g id="edge1" class="edge"><title>Node2&#45;&gt;Node1</title>
<path fill="none" stroke="midnightblue" d="M92.1515,-219C100.563,-219 109.343,-219 117.903,-219"/>
<polygon fill="midnightblue" stroke="midnightblue" points="92.114,-215.5 82.1139,-219 92.1139,-222.5 92.114,-215.5"/>
</g>
</g>
</svg>
