<?xml version="1.0" encoding="UTF-8" standalone="no"?>
<!DOCTYPE svg PUBLIC "-//W3C//DTD SVG 1.1//EN"
 "http://www.w3.org/Graphics/SVG/1.1/DTD/svg11.dtd">
<!-- Generated by graphviz version 2.38.0 (20140413.2041)
 -->
<!-- Title: StaticMessageBufferFactory Pages: 1 -->
<svg width="256pt" height="95pt"
 viewBox="0.00 0.00 256.00 95.00" xmlns="http://www.w3.org/2000/svg" xmlns:xlink="http://www.w3.org/1999/xlink">
<g id="graph0" class="graph" transform="scale(1 1) rotate(0) translate(4 91)">
<title>StaticMessageBufferFactory</title>
<polygon fill="white" stroke="none" points="-4,4 -4,-91 252,-91 252,4 -4,4"/>
<!-- Node1 -->
<g id="node1" class="node"><title>Node1</title>
<polygon fill="#bfbfbf" stroke="black" points="65.5,-0.5 65.5,-19.5 205.5,-19.5 205.5,-0.5 65.5,-0.5"/>
<text text-anchor="middle" x="135.5" y="-7.5" font-family="Helvetica,sans-Serif" font-size="10.00">StaticMessageBufferFactory</text>
</g>
<!-- Node2 -->
<g id="node2" class="node"><title>Node2</title>
<g id="a_node2"><a xlink:href="classerpc_1_1_message_buffer_factory.html" target="_top" xlink:title="Abstract interface for message buffer factory. ">
<polygon fill="white" stroke="black" points="0,-67.5 0,-86.5 139,-86.5 139,-67.5 0,-67.5"/>
<text text-anchor="middle" x="69.5" y="-74.5" font-family="Helvetica,sans-Serif" font-size="10.00">erpc::MessageBufferFactory</text>
</a>
</g>
</g>
<!-- Node2&#45;&gt;Node1 -->
<g id="edge1" class="edge"><title>Node2&#45;&gt;Node1</title>
<path fill="none" stroke="midnightblue" d="M85.7494,-59.9968C98.6927,-47.2496 116.315,-29.8947 126.74,-19.6273"/>
<polygon fill="midnightblue" stroke="midnightblue" points="83.07,-57.7232 78.4011,-67.2338 87.9818,-62.7106 83.07,-57.7232"/>
</g>
<!-- Node3 -->
<g id="node3" class="node"><title>Node3</title>
<g id="a_node3"><a xlink:href="classerpc_1_1_semaphore.html" target="_top" xlink:title="Simple semaphore class. ">
<polygon fill="white" stroke="black" points="157,-67.5 157,-86.5 248,-86.5 248,-67.5 157,-67.5"/>
<text text-anchor="middle" x="202.5" y="-74.5" font-family="Helvetica,sans-Serif" font-size="10.00">erpc::Semaphore</text>
</a>
</g>
</g>
<!-- Node3&#45;&gt;Node1 -->
<g id="edge2" class="edge"><title>Node3&#45;&gt;Node1</title>
<path fill="none" stroke="#9a32cd" stroke-dasharray="5,2" d="M186.004,-59.9968C172.865,-47.2496 154.976,-29.8947 144.393,-19.6273"/>
<polygon fill="#9a32cd" stroke="#9a32cd" points="183.85,-62.7827 193.464,-67.2338 188.724,-57.7586 183.85,-62.7827"/>
<text text-anchor="middle" x="205" y="-41" font-family="Helvetica,sans-Serif" font-size="10.00"> m_semaphore</text>
</g>
</g>
</svg>
