<?xml version="1.0" encoding="UTF-8" standalone="no"?>
<!DOCTYPE svg PUBLIC "-//W3C//DTD SVG 1.1//EN"
 "http://www.w3.org/Graphics/SVG/1.1/DTD/svg11.dtd">
<!-- Generated by graphviz version 2.38.0 (20140413.2041)
 -->
<!-- Title: erpc::RPMsgTTYRTOSTransport Pages: 1 -->
<svg width="238pt" height="140pt"
 viewBox="0.00 0.00 237.50 140.00" xmlns="http://www.w3.org/2000/svg" xmlns:xlink="http://www.w3.org/1999/xlink">
<g id="graph0" class="graph" transform="scale(1 1) rotate(0) translate(4 136)">
<title>erpc::RPMsgTTYRTOSTransport</title>
<polygon fill="white" stroke="none" points="-4,4 -4,-136 233.5,-136 233.5,4 -4,4"/>
<!-- Node1 -->
<g id="node1" class="node"><title>Node1</title>
<polygon fill="#bfbfbf" stroke="black" points="40.5,-0.5 40.5,-19.5 198.5,-19.5 198.5,-0.5 40.5,-0.5"/>
<text text-anchor="middle" x="119.5" y="-7.5" font-family="Helvetica,sans-Serif" font-size="10.00">erpc::RPMsgTTYRTOSTransport</text>
</g>
<!-- Node2 -->
<g id="node2" class="node"><title>Node2</title>
<g id="a_node2"><a xlink:href="classerpc_1_1_framed_transport.html" target="_top" xlink:title="Base class for framed transport layers. ">
<polygon fill="white" stroke="black" points="0,-56.5 0,-75.5 115,-75.5 115,-56.5 0,-56.5"/>
<text text-anchor="middle" x="57.5" y="-63.5" font-family="Helvetica,sans-Serif" font-size="10.00">erpc::FramedTransport</text>
</a>
</g>
</g>
<!-- Node2&#45;&gt;Node1 -->
<g id="edge1" class="edge"><title>Node2&#45;&gt;Node1</title>
<path fill="none" stroke="midnightblue" d="M75.2536,-49.5372C86.3085,-39.9087 100.131,-27.8694 109.357,-19.8339"/>
<polygon fill="midnightblue" stroke="midnightblue" points="72.7035,-47.1168 67.4614,-56.324 77.301,-52.3954 72.7035,-47.1168"/>
</g>
<!-- Node3 -->
<g id="node3" class="node"><title>Node3</title>
<g id="a_node3"><a xlink:href="classerpc_1_1_transport.html" target="_top" xlink:title="Abstract interface for transport layer. ">
<polygon fill="white" stroke="black" points="16.5,-112.5 16.5,-131.5 98.5,-131.5 98.5,-112.5 16.5,-112.5"/>
<text text-anchor="middle" x="57.5" y="-119.5" font-family="Helvetica,sans-Serif" font-size="10.00">erpc::Transport</text>
</a>
</g>
</g>
<!-- Node3&#45;&gt;Node2 -->
<g id="edge2" class="edge"><title>Node3&#45;&gt;Node2</title>
<path fill="none" stroke="midnightblue" d="M57.5,-101.805C57.5,-92.9102 57.5,-82.7798 57.5,-75.7511"/>
<polygon fill="midnightblue" stroke="midnightblue" points="54.0001,-102.083 57.5,-112.083 61.0001,-102.083 54.0001,-102.083"/>
</g>
<!-- Node4 -->
<g id="node4" class="node"><title>Node4</title>
<g id="a_node4"><a xlink:href="classerpc_1_1_r_p_msg_base.html" target="_top" xlink:title="Transport that other RPMsg transports inherits. ">
<polygon fill="white" stroke="black" points="133.5,-56.5 133.5,-75.5 229.5,-75.5 229.5,-56.5 133.5,-56.5"/>
<text text-anchor="middle" x="181.5" y="-63.5" font-family="Helvetica,sans-Serif" font-size="10.00">erpc::RPMsgBase</text>
</a>
</g>
</g>
<!-- Node4&#45;&gt;Node1 -->
<g id="edge3" class="edge"><title>Node4&#45;&gt;Node1</title>
<path fill="none" stroke="midnightblue" d="M163.746,-49.5372C152.692,-39.9087 138.869,-27.8694 129.643,-19.8339"/>
<polygon fill="midnightblue" stroke="midnightblue" points="161.699,-52.3954 171.539,-56.324 166.297,-47.1168 161.699,-52.3954"/>
</g>
</g>
</svg>
