<?xml version="1.0" encoding="UTF-8" standalone="no"?>
<!DOCTYPE svg PUBLIC "-//W3C//DTD SVG 1.1//EN"
 "http://www.w3.org/Graphics/SVG/1.1/DTD/svg11.dtd">
<!-- Generated by graphviz version 2.38.0 (20140413.2041)
 -->
<!-- Title: erpc::RPMsgTransport Pages: 1 -->
<svg width="527pt" height="138pt"
 viewBox="0.00 0.00 527.00 138.00" xmlns="http://www.w3.org/2000/svg" xmlns:xlink="http://www.w3.org/1999/xlink">
<g id="graph0" class="graph" transform="scale(1 1) rotate(0) translate(4 134)">
<title>erpc::RPMsgTransport</title>
<polygon fill="white" stroke="none" points="-4,4 -4,-134 523,-134 523,4 -4,4"/>
<!-- Node1 -->
<g id="node1" class="node"><title>Node1</title>
<polygon fill="#bfbfbf" stroke="black" points="405,-55.5 405,-74.5 519,-74.5 519,-55.5 405,-55.5"/>
<text text-anchor="middle" x="462" y="-62.5" font-family="Helvetica,sans-Serif" font-size="10.00">erpc::RPMsgTransport</text>
</g>
<!-- Node2 -->
<g id="node2" class="node"><title>Node2</title>
<g id="a_node2"><a xlink:href="classerpc_1_1_r_p_msg_base_transport.html" target="_top" xlink:title="Transport that other RPMsg transports inherits. ">
<polygon fill="white" stroke="black" points="133,-110.5 133,-129.5 270,-129.5 270,-110.5 133,-110.5"/>
<text text-anchor="middle" x="201.5" y="-117.5" font-family="Helvetica,sans-Serif" font-size="10.00">erpc::RPMsgBaseTransport</text>
</a>
</g>
</g>
<!-- Node2&#45;&gt;Node1 -->
<g id="edge1" class="edge"><title>Node2&#45;&gt;Node1</title>
<path fill="none" stroke="midnightblue" d="M257.282,-108.344C304.49,-98.3001 371.814,-83.9757 415.949,-74.5853"/>
<polygon fill="midnightblue" stroke="midnightblue" points="256.285,-104.978 247.232,-110.483 257.742,-111.825 256.285,-104.978"/>
</g>
<!-- Node3 -->
<g id="node3" class="node"><title>Node3</title>
<g id="a_node3"><a xlink:href="classerpc_1_1_transport.html" target="_top" xlink:title="Abstract interface for transport layer. ">
<polygon fill="white" stroke="black" points="0,-110.5 0,-129.5 82,-129.5 82,-110.5 0,-110.5"/>
<text text-anchor="middle" x="41" y="-117.5" font-family="Helvetica,sans-Serif" font-size="10.00">erpc::Transport</text>
</a>
</g>
</g>
<!-- Node3&#45;&gt;Node2 -->
<g id="edge2" class="edge"><title>Node3&#45;&gt;Node2</title>
<path fill="none" stroke="midnightblue" d="M92.4113,-120C105.237,-120 119.23,-120 132.765,-120"/>
<polygon fill="midnightblue" stroke="midnightblue" points="92.4064,-116.5 82.4063,-120 92.4063,-123.5 92.4064,-116.5"/>
</g>
<!-- Node4 -->
<g id="node4" class="node"><title>Node4</title>
<g id="a_node4"><a xlink:href="classerpc_1_1_static_queue.html" target="_top" xlink:title="erpc::StaticQueue\&lt;\l erpc::MessageBuffer,\l 2U *ERPC_DEFAULT_BUFFERS\l_COUNT \&gt;">
<polygon fill="white" stroke="black" points="119,-39 119,-91 284,-91 284,-39 119,-39"/>
<text text-anchor="start" x="127" y="-79" font-family="Helvetica,sans-Serif" font-size="10.00">erpc::StaticQueue&lt;</text>
<text text-anchor="start" x="127" y="-68" font-family="Helvetica,sans-Serif" font-size="10.00"> erpc::MessageBuffer,</text>
<text text-anchor="start" x="127" y="-57" font-family="Helvetica,sans-Serif" font-size="10.00"> 2U *ERPC_DEFAULT_BUFFERS</text>
<text text-anchor="middle" x="201.5" y="-46" font-family="Helvetica,sans-Serif" font-size="10.00">_COUNT &gt;</text>
</a>
</g>
</g>
<!-- Node4&#45;&gt;Node1 -->
<g id="edge3" class="edge"><title>Node4&#45;&gt;Node1</title>
<path fill="none" stroke="#9a32cd" stroke-dasharray="5,2" d="M294.535,-65C331.309,-65 372.475,-65 404.67,-65"/>
<polygon fill="#9a32cd" stroke="#9a32cd" points="294.291,-61.5001 284.291,-65 294.291,-68.5001 294.291,-61.5001"/>
<text text-anchor="middle" x="344.5" y="-68" font-family="Helvetica,sans-Serif" font-size="10.00"> m_messageQueue</text>
</g>
<!-- Node5 -->
<g id="node5" class="node"><title>Node5</title>
<g id="a_node5"><a xlink:href="classerpc_1_1_crc16.html" target="_top" xlink:title="Class for compute crc16. ">
<polygon fill="white" stroke="black" points="168,-0.5 168,-19.5 235,-19.5 235,-0.5 168,-0.5"/>
<text text-anchor="middle" x="201.5" y="-7.5" font-family="Helvetica,sans-Serif" font-size="10.00">erpc::Crc16</text>
</a>
</g>
</g>
<!-- Node5&#45;&gt;Node1 -->
<g id="edge4" class="edge"><title>Node5&#45;&gt;Node1</title>
<path fill="none" stroke="#9a32cd" stroke-dasharray="5,2" d="M245.133,-19.0708C292.266,-29.0992 367.871,-45.1854 415.952,-55.4153"/>
<polygon fill="#9a32cd" stroke="#9a32cd" points="245.749,-15.6236 235.239,-16.9658 244.292,-22.4703 245.749,-15.6236"/>
<text text-anchor="middle" x="344.5" y="-52" font-family="Helvetica,sans-Serif" font-size="10.00"> m_crcImpl</text>
</g>
</g>
</svg>
