<?xml version="1.0" encoding="UTF-8" standalone="no"?>
<!DOCTYPE svg PUBLIC "-//W3C//DTD SVG 1.1//EN"
 "http://www.w3.org/Graphics/SVG/1.1/DTD/svg11.dtd">
<!-- Generated by graphviz version 2.38.0 (20140413.2041)
 -->
<!-- Title: erpc::RPMsgTTYRTOSTransport Pages: 1 -->
<svg width="314pt" height="163pt"
 viewBox="0.00 0.00 314.00 163.00" xmlns="http://www.w3.org/2000/svg" xmlns:xlink="http://www.w3.org/1999/xlink">
<g id="graph0" class="graph" transform="scale(1 1) rotate(0) translate(4 159)">
<title>erpc::RPMsgTTYRTOSTransport</title>
<polygon fill="white" stroke="none" points="-4,4 -4,-159 310,-159 310,4 -4,4"/>
<!-- Node1 -->
<g id="node1" class="node"><title>Node1</title>
<polygon fill="#bfbfbf" stroke="black" points="148,-0.5 148,-19.5 306,-19.5 306,-0.5 148,-0.5"/>
<text text-anchor="middle" x="227" y="-7.5" font-family="Helvetica,sans-Serif" font-size="10.00">erpc::RPMsgTTYRTOSTransport</text>
</g>
<!-- Node2 -->
<g id="node2" class="node"><title>Node2</title>
<g id="a_node2"><a xlink:href="classerpc_1_1_framed_transport.html" target="_top" xlink:title="Base class for framed transport layers. ">
<polygon fill="white" stroke="black" points="76.5,-57.5 76.5,-76.5 191.5,-76.5 191.5,-57.5 76.5,-57.5"/>
<text text-anchor="middle" x="134" y="-64.5" font-family="Helvetica,sans-Serif" font-size="10.00">erpc::FramedTransport</text>
</a>
</g>
</g>
<!-- Node2&#45;&gt;Node1 -->
<g id="edge1" class="edge"><title>Node2&#45;&gt;Node1</title>
<path fill="none" stroke="midnightblue" d="M157.487,-52.1101C174.824,-41.857 197.868,-28.2288 212.571,-19.5334"/>
<polygon fill="midnightblue" stroke="midnightblue" points="155.357,-49.3032 148.531,-57.4063 158.92,-55.3284 155.357,-49.3032"/>
</g>
<!-- Node3 -->
<g id="node3" class="node"><title>Node3</title>
<g id="a_node3"><a xlink:href="classerpc_1_1_transport.html" target="_top" xlink:title="Abstract interface for transport layer. ">
<polygon fill="white" stroke="black" points="0,-135.5 0,-154.5 82,-154.5 82,-135.5 0,-135.5"/>
<text text-anchor="middle" x="41" y="-142.5" font-family="Helvetica,sans-Serif" font-size="10.00">erpc::Transport</text>
</a>
</g>
</g>
<!-- Node3&#45;&gt;Node2 -->
<g id="edge2" class="edge"><title>Node3&#45;&gt;Node2</title>
<path fill="none" stroke="midnightblue" d="M59.4282,-128.94C78.5857,-113.285 107.902,-89.3271 123.456,-76.6165"/>
<polygon fill="midnightblue" stroke="midnightblue" points="57.1968,-126.244 51.6683,-135.282 61.6263,-131.664 57.1968,-126.244"/>
</g>
<!-- Node4 -->
<g id="node4" class="node"><title>Node4</title>
<g id="a_node4"><a xlink:href="classerpc_1_1_mutex.html" target="_top" xlink:title="Mutex. ">
<polygon fill="white" stroke="black" points="100,-135.5 100,-154.5 168,-154.5 168,-135.5 100,-135.5"/>
<text text-anchor="middle" x="134" y="-142.5" font-family="Helvetica,sans-Serif" font-size="10.00">erpc::Mutex</text>
</a>
</g>
</g>
<!-- Node4&#45;&gt;Node2 -->
<g id="edge3" class="edge"><title>Node4&#45;&gt;Node2</title>
<path fill="none" stroke="#9a32cd" stroke-dasharray="5,2" d="M134,-125.224C134,-109.697 134,-88.3582 134,-76.6165"/>
<polygon fill="#9a32cd" stroke="#9a32cd" points="130.5,-125.282 134,-135.282 137.5,-125.282 130.5,-125.282"/>
<text text-anchor="middle" x="166.5" y="-109" font-family="Helvetica,sans-Serif" font-size="10.00"> m_sendLock</text>
<text text-anchor="middle" x="166.5" y="-98" font-family="Helvetica,sans-Serif" font-size="10.00">m_receiveLock</text>
</g>
<!-- Node5 -->
<g id="node5" class="node"><title>Node5</title>
<g id="a_node5"><a xlink:href="classerpc_1_1_crc16.html" target="_top" xlink:title="Class for compute crc16. ">
<polygon fill="white" stroke="black" points="188.5,-135.5 188.5,-154.5 255.5,-154.5 255.5,-135.5 188.5,-135.5"/>
<text text-anchor="middle" x="222" y="-142.5" font-family="Helvetica,sans-Serif" font-size="10.00">erpc::Crc16</text>
</a>
</g>
</g>
<!-- Node5&#45;&gt;Node2 -->
<g id="edge4" class="edge"><title>Node5&#45;&gt;Node2</title>
<path fill="none" stroke="#9a32cd" stroke-dasharray="5,2" d="M217.302,-125.319C213.935,-115.224 208.468,-103.187 200,-95 191.278,-86.5668 179.562,-80.6335 168.422,-76.522"/>
<polygon fill="#9a32cd" stroke="#9a32cd" points="214.03,-126.604 220.173,-135.236 220.754,-124.657 214.03,-126.604"/>
<text text-anchor="middle" x="239.5" y="-103.5" font-family="Helvetica,sans-Serif" font-size="10.00"> m_crcImpl</text>
</g>
<!-- Node6 -->
<g id="node6" class="node"><title>Node6</title>
<g id="a_node6"><a xlink:href="classerpc_1_1_r_p_msg_base.html" target="_top" xlink:title="Transport that other RPMsg transports inherits. ">
<polygon fill="white" stroke="black" points="210,-57.5 210,-76.5 306,-76.5 306,-57.5 210,-57.5"/>
<text text-anchor="middle" x="258" y="-64.5" font-family="Helvetica,sans-Serif" font-size="10.00">erpc::RPMsgBase</text>
</a>
</g>
</g>
<!-- Node6&#45;&gt;Node1 -->
<g id="edge5" class="edge"><title>Node6&#45;&gt;Node1</title>
<path fill="none" stroke="midnightblue" d="M248.213,-48.6354C242.788,-39.0102 236.277,-27.459 231.912,-19.7149"/>
<polygon fill="midnightblue" stroke="midnightblue" points="245.197,-50.4133 253.156,-57.4063 251.295,-46.9762 245.197,-50.4133"/>
</g>
</g>
</svg>
