<?xml version="1.0" encoding="UTF-8" standalone="no"?>
<!DOCTYPE svg PUBLIC "-//W3C//DTD SVG 1.1//EN"
 "http://www.w3.org/Graphics/SVG/1.1/DTD/svg11.dtd">
<!-- Generated by graphviz version 2.38.0 (20140413.2041)
 -->
<!-- Title: erpc::UartTransport Pages: 1 -->
<svg width="123pt" height="140pt"
 viewBox="0.00 0.00 123.00 140.00" xmlns="http://www.w3.org/2000/svg" xmlns:xlink="http://www.w3.org/1999/xlink">
<g id="graph0" class="graph" transform="scale(1 1) rotate(0) translate(4 136)">
<title>erpc::UartTransport</title>
<polygon fill="white" stroke="none" points="-4,4 -4,-136 119,-136 119,4 -4,4"/>
<!-- Node1 -->
<g id="node1" class="node"><title>Node1</title>
<polygon fill="#bfbfbf" stroke="black" points="7.5,-0.5 7.5,-19.5 107.5,-19.5 107.5,-0.5 7.5,-0.5"/>
<text text-anchor="middle" x="57.5" y="-7.5" font-family="Helvetica,sans-Serif" font-size="10.00">erpc::UartTransport</text>
</g>
<!-- Node2 -->
<g id="node2" class="node"><title>Node2</title>
<g id="a_node2"><a xlink:href="classerpc_1_1_framed_transport.html" target="_top" xlink:title="Base class for framed transport layers. ">
<polygon fill="white" stroke="black" points="0,-56.5 0,-75.5 115,-75.5 115,-56.5 0,-56.5"/>
<text text-anchor="middle" x="57.5" y="-63.5" font-family="Helvetica,sans-Serif" font-size="10.00">erpc::FramedTransport</text>
</a>
</g>
</g>
<!-- Node2&#45;&gt;Node1 -->
<g id="edge1" class="edge"><title>Node2&#45;&gt;Node1</title>
<path fill="none" stroke="midnightblue" d="M51.0276,-46.1005C50.3956,-37.1357 50.8427,-26.8579 52.369,-19.7511"/>
<polygon fill="midnightblue" stroke="midnightblue" points="47.5658,-46.6216 52.3337,-56.083 54.5067,-45.7134 47.5658,-46.6216"/>
</g>
<!-- Node2&#45;&gt;Node1 -->
<g id="edge3" class="edge"><title>Node2&#45;&gt;Node1</title>
<path fill="none" stroke="midnightblue" d="M63.9724,-46.1005C64.6044,-37.1357 64.1573,-26.8579 62.631,-19.7511"/>
<polygon fill="midnightblue" stroke="midnightblue" points="60.4933,-45.7134 62.6663,-56.083 67.4342,-46.6216 60.4933,-45.7134"/>
</g>
<!-- Node3 -->
<g id="node3" class="node"><title>Node3</title>
<g id="a_node3"><a xlink:href="classerpc_1_1_transport.html" target="_top" xlink:title="Abstract interface for transport layer. ">
<polygon fill="white" stroke="black" points="16.5,-112.5 16.5,-131.5 98.5,-131.5 98.5,-112.5 16.5,-112.5"/>
<text text-anchor="middle" x="57.5" y="-119.5" font-family="Helvetica,sans-Serif" font-size="10.00">erpc::Transport</text>
</a>
</g>
</g>
<!-- Node3&#45;&gt;Node2 -->
<g id="edge2" class="edge"><title>Node3&#45;&gt;Node2</title>
<path fill="none" stroke="midnightblue" d="M57.5,-101.805C57.5,-92.9102 57.5,-82.7798 57.5,-75.7511"/>
<polygon fill="midnightblue" stroke="midnightblue" points="54.0001,-102.083 57.5,-112.083 61.0001,-102.083 54.0001,-102.083"/>
</g>
</g>
</svg>
