<?xml version="1.0" encoding="UTF-8" standalone="no"?>
<!DOCTYPE svg PUBLIC "-//W3C//DTD SVG 1.1//EN"
 "http://www.w3.org/Graphics/SVG/1.1/DTD/svg11.dtd">
<!-- Generated by graphviz version 2.38.0 (20140413.2041)
 -->
<!-- Title: erpc::ArbitratedClientManager Pages: 1 -->
<svg width="1223pt" height="307pt"
 viewBox="0.00 0.00 1223.00 306.50" xmlns="http://www.w3.org/2000/svg" xmlns:xlink="http://www.w3.org/1999/xlink">
<g id="graph0" class="graph" transform="scale(1 1) rotate(0) translate(4 302.5)">
<title>erpc::ArbitratedClientManager</title>
<polygon fill="white" stroke="none" points="-4,4 -4,-302.5 1219,-302.5 1219,4 -4,4"/>
<!-- Node1 -->
<g id="node1" class="node"><title>Node1</title>
<polygon fill="#bfbfbf" stroke="black" points="1069,-171 1069,-190 1215,-190 1215,-171 1069,-171"/>
<text text-anchor="middle" x="1142" y="-178" font-family="Helvetica,sans-Serif" font-size="10.00">erpc::ArbitratedClientManager</text>
</g>
<!-- Node2 -->
<g id="node2" class="node"><title>Node2</title>
<g id="a_node2"><a xlink:href="classerpc_1_1_client_manager.html" target="_top" xlink:title="Base client implementation. ">
<polygon fill="white" stroke="black" points="928,-201 928,-220 1032,-220 1032,-201 928,-201"/>
<text text-anchor="middle" x="980" y="-208" font-family="Helvetica,sans-Serif" font-size="10.00">erpc::ClientManager</text>
</a>
</g>
</g>
<!-- Node2&#45;&gt;Node1 -->
<g id="edge1" class="edge"><title>Node2&#45;&gt;Node1</title>
<path fill="none" stroke="midnightblue" d="M1042.28,-199.01C1058.09,-196.046 1074.93,-192.888 1090.15,-190.035"/>
<polygon fill="midnightblue" stroke="midnightblue" points="1041.25,-195.642 1032.06,-200.925 1042.54,-202.522 1041.25,-195.642"/>
</g>
<!-- Node3 -->
<g id="node3" class="node"><title>Node3</title>
<g id="a_node3"><a xlink:href="classerpc_1_1_client_server_common.html" target="_top" xlink:title="Common class inherited by client and server class. ">
<polygon fill="white" stroke="black" points="759,-224 759,-243 891,-243 891,-224 759,-224"/>
<text text-anchor="middle" x="825" y="-231" font-family="Helvetica,sans-Serif" font-size="10.00">erpc::ClientServerCommon</text>
</a>
</g>
</g>
<!-- Node3&#45;&gt;Node2 -->
<g id="edge2" class="edge"><title>Node3&#45;&gt;Node2</title>
<path fill="none" stroke="midnightblue" d="M899.537,-222.445C909.16,-220.999 918.845,-219.543 927.983,-218.169"/>
<polygon fill="midnightblue" stroke="midnightblue" points="898.925,-218.998 889.557,-223.946 899.966,-225.92 898.925,-218.998"/>
</g>
<!-- Node4 -->
<g id="node4" class="node"><title>Node4</title>
<g id="a_node4"><a xlink:href="classerpc_1_1_codec_factory.html" target="_top" xlink:title="Abstract interface for codec factory. ">
<polygon fill="white" stroke="black" points="512.5,-279 512.5,-298 614.5,-298 614.5,-279 512.5,-279"/>
<text text-anchor="middle" x="563.5" y="-286" font-family="Helvetica,sans-Serif" font-size="10.00">erpc::CodecFactory</text>
</a>
</g>
</g>
<!-- Node4&#45;&gt;Node3 -->
<g id="edge3" class="edge"><title>Node4&#45;&gt;Node3</title>
<path fill="none" stroke="#9a32cd" stroke-dasharray="5,2" d="M625.07,-281.288C659.35,-276.609 702.863,-269.668 741,-260.5 760.448,-255.825 781.907,-248.792 798.133,-243.077"/>
<polygon fill="#9a32cd" stroke="#9a32cd" points="624.193,-277.874 614.744,-282.667 625.119,-284.812 624.193,-277.874"/>
<text text-anchor="middle" x="696" y="-280.5" font-family="Helvetica,sans-Serif" font-size="10.00"> m_codecFactory</text>
</g>
<!-- Node5 -->
<g id="node5" class="node"><title>Node5</title>
<g id="a_node5"><a xlink:href="classerpc_1_1_transport.html" target="_top" xlink:title="Abstract interface for transport layer. ">
<polygon fill="white" stroke="black" points="522.5,-174 522.5,-193 604.5,-193 604.5,-174 522.5,-174"/>
<text text-anchor="middle" x="563.5" y="-181" font-family="Helvetica,sans-Serif" font-size="10.00">erpc::Transport</text>
</a>
</g>
</g>
<!-- Node5&#45;&gt;Node3 -->
<g id="edge4" class="edge"><title>Node5&#45;&gt;Node3</title>
<path fill="none" stroke="#9a32cd" stroke-dasharray="5,2" d="M614.811,-193.194C660.822,-202.059 728.498,-215.099 774.312,-223.926"/>
<polygon fill="#9a32cd" stroke="#9a32cd" points="615.244,-189.713 604.762,-191.258 613.919,-196.586 615.244,-189.713"/>
<text text-anchor="middle" x="696" y="-220.5" font-family="Helvetica,sans-Serif" font-size="10.00"> m_transport</text>
</g>
<!-- Node7 -->
<g id="node7" class="node"><title>Node7</title>
<g id="a_node7"><a xlink:href="classerpc_1_1_transport_arbitrator.html" target="_top" xlink:title="Interposer to share transport between client and server. ">
<polygon fill="white" stroke="black" points="764,-118 764,-137 886,-137 886,-118 764,-118"/>
<text text-anchor="middle" x="825" y="-125" font-family="Helvetica,sans-Serif" font-size="10.00">erpc::TransportArbitrator</text>
</a>
</g>
</g>
<!-- Node5&#45;&gt;Node7 -->
<g id="edge7" class="edge"><title>Node5&#45;&gt;Node7</title>
<path fill="none" stroke="midnightblue" d="M614.73,-184.65C650.552,-184.24 699.52,-181.15 741,-169.5 766.499,-162.338 793.39,-147.116 809.426,-137.099"/>
<polygon fill="midnightblue" stroke="midnightblue" points="614.509,-181.151 604.526,-184.7 614.543,-188.151 614.509,-181.151"/>
</g>
<!-- Node5&#45;&gt;Node7 -->
<g id="edge11" class="edge"><title>Node5&#45;&gt;Node7</title>
<path fill="none" stroke="#9a32cd" stroke-dasharray="5,2" d="M601.462,-170.743C616.676,-165.813 634.556,-160.425 651,-156.5 688.175,-147.626 730.478,-140.483 763.947,-135.507"/>
<polygon fill="#9a32cd" stroke="#9a32cd" points="600.294,-167.443 591.892,-173.897 602.485,-174.091 600.294,-167.443"/>
<text text-anchor="middle" x="696" y="-159.5" font-family="Helvetica,sans-Serif" font-size="10.00"> m_sharedTransport</text>
</g>
<!-- Node6 -->
<g id="node6" class="node"><title>Node6</title>
<g id="a_node6"><a xlink:href="classerpc_1_1_message_buffer_factory.html" target="_top" xlink:title="Abstract interface for message buffer factory. ">
<polygon fill="white" stroke="black" points="494,-241 494,-260 633,-260 633,-241 494,-241"/>
<text text-anchor="middle" x="563.5" y="-248" font-family="Helvetica,sans-Serif" font-size="10.00">erpc::MessageBufferFactory</text>
</a>
</g>
</g>
<!-- Node6&#45;&gt;Node3 -->
<g id="edge5" class="edge"><title>Node6&#45;&gt;Node3</title>
<path fill="none" stroke="#9a32cd" stroke-dasharray="5,2" d="M643.245,-245.341C680.159,-242.923 723.622,-240.076 758.678,-237.779"/>
<polygon fill="#9a32cd" stroke="#9a32cd" points="642.77,-241.865 633.02,-246.011 643.227,-248.85 642.77,-241.865"/>
<text text-anchor="middle" x="696" y="-248.5" font-family="Helvetica,sans-Serif" font-size="10.00"> m_messageFactory</text>
</g>
<!-- Node7&#45;&gt;Node1 -->
<g id="edge6" class="edge"><title>Node7&#45;&gt;Node1</title>
<path fill="none" stroke="#9a32cd" stroke-dasharray="5,2" d="M892.669,-138.717C949.635,-148.302 1030.69,-161.939 1084.51,-170.995"/>
<polygon fill="#9a32cd" stroke="#9a32cd" points="893.122,-135.244 882.679,-137.037 891.96,-142.147 893.122,-135.244"/>
<text text-anchor="middle" x="980" y="-165.5" font-family="Helvetica,sans-Serif" font-size="10.00"> m_arbitrator</text>
</g>
<!-- Node8 -->
<g id="node8" class="node"><title>Node8</title>
<g id="a_node8"><a xlink:href="classerpc_1_1_mutex.html" target="_top" xlink:title="Mutex. ">
<polygon fill="white" stroke="black" points="529.5,-117 529.5,-136 597.5,-136 597.5,-117 529.5,-117"/>
<text text-anchor="middle" x="563.5" y="-124" font-family="Helvetica,sans-Serif" font-size="10.00">erpc::Mutex</text>
</a>
</g>
</g>
<!-- Node8&#45;&gt;Node7 -->
<g id="edge8" class="edge"><title>Node8&#45;&gt;Node7</title>
<path fill="none" stroke="#9a32cd" stroke-dasharray="5,2" d="M607.954,-125.299C621.719,-124.971 636.996,-124.662 651,-124.5 690.997,-124.038 701.007,-123.777 741,-124.5 748.353,-124.633 756.07,-124.832 763.714,-125.065"/>
<polygon fill="#9a32cd" stroke="#9a32cd" points="607.679,-121.805 597.768,-125.551 607.852,-128.802 607.679,-121.805"/>
<text text-anchor="middle" x="696" y="-127.5" font-family="Helvetica,sans-Serif" font-size="10.00"> m_clientListMutex</text>
</g>
<!-- Node9 -->
<g id="node9" class="node"><title>Node9</title>
<g id="a_node9"><a xlink:href="classerpc_1_1_codec.html" target="_top" xlink:title="Abstract serialization encoder/decoder interface. ">
<polygon fill="white" stroke="black" points="150,-53 150,-72 219,-72 219,-53 150,-53"/>
<text text-anchor="middle" x="184.5" y="-60" font-family="Helvetica,sans-Serif" font-size="10.00">erpc::Codec</text>
</a>
</g>
</g>
<!-- Node9&#45;&gt;Node7 -->
<g id="edge9" class="edge"><title>Node9&#45;&gt;Node7</title>
<path fill="none" stroke="#9a32cd" stroke-dasharray="5,2" d="M229.398,-66.854C309.573,-74.8194 485.069,-92.3171 633,-107.5 676.78,-111.993 726.193,-117.17 763.79,-121.131"/>
<polygon fill="#9a32cd" stroke="#9a32cd" points="229.484,-63.3453 219.187,-65.8398 228.792,-70.311 229.484,-63.3453"/>
<text text-anchor="middle" x="451.5" y="-94.5" font-family="Helvetica,sans-Serif" font-size="10.00"> m_codec</text>
</g>
<!-- Node13 -->
<g id="node13" class="node"><title>Node13</title>
<g id="a_node13"><a xlink:href="classerpc_1_1_request_context.html" target="_top" xlink:title="Encapsulates all information about a request. ">
<polygon fill="white" stroke="black" points="298,-3 298,-22 409,-22 409,-3 298,-3"/>
<text text-anchor="middle" x="353.5" y="-10" font-family="Helvetica,sans-Serif" font-size="10.00">erpc::RequestContext</text>
</a>
</g>
</g>
<!-- Node9&#45;&gt;Node13 -->
<g id="edge16" class="edge"><title>Node9&#45;&gt;Node13</title>
<path fill="none" stroke="#9a32cd" stroke-dasharray="5,2" d="M227.121,-50.0387C256.033,-41.3822 293.985,-30.0193 320.53,-22.0719"/>
<polygon fill="#9a32cd" stroke="#9a32cd" points="225.88,-46.7565 217.305,-52.9777 227.888,-53.4624 225.88,-46.7565"/>
<text text-anchor="middle" x="258.5" y="-49.5" font-family="Helvetica,sans-Serif" font-size="10.00"> m_codec</text>
</g>
<!-- Node10 -->
<g id="node10" class="node"><title>Node10</title>
<g id="a_node10"><a xlink:href="classerpc_1_1_cursor.html" target="_top" xlink:title="Cursor within a MessageBuffer. ">
<polygon fill="white" stroke="black" points="0,-53 0,-72 70,-72 70,-53 0,-53"/>
<text text-anchor="middle" x="35" y="-60" font-family="Helvetica,sans-Serif" font-size="10.00">erpc::Cursor</text>
</a>
</g>
</g>
<!-- Node10&#45;&gt;Node9 -->
<g id="edge10" class="edge"><title>Node10&#45;&gt;Node9</title>
<path fill="none" stroke="#9a32cd" stroke-dasharray="5,2" d="M80.4574,-62.5C102.789,-62.5 129.4,-62.5 149.984,-62.5"/>
<polygon fill="#9a32cd" stroke="#9a32cd" points="80.2102,-59.0001 70.2102,-62.5 80.2102,-66.0001 80.2102,-59.0001"/>
<text text-anchor="middle" x="110" y="-65.5" font-family="Helvetica,sans-Serif" font-size="10.00"> m_cursor</text>
</g>
<!-- Node11 -->
<g id="node11" class="node"><title>Node11</title>
<g id="a_node11"><a xlink:href="structerpc_1_1_transport_arbitrator_1_1_pending_client_info.html" target="_top" xlink:title="Request info for a client trying to receive a response. ">
<polygon fill="white" stroke="black" points="502.5,-0.5 502.5,-30.5 624.5,-30.5 624.5,-0.5 502.5,-0.5"/>
<text text-anchor="start" x="510.5" y="-18.5" font-family="Helvetica,sans-Serif" font-size="10.00">erpc::TransportArbitrator</text>
<text text-anchor="middle" x="563.5" y="-7.5" font-family="Helvetica,sans-Serif" font-size="10.00">::PendingClientInfo</text>
</a>
</g>
</g>
<!-- Node11&#45;&gt;Node7 -->
<g id="edge12" class="edge"><title>Node11&#45;&gt;Node7</title>
<path fill="none" stroke="#9a32cd" stroke-dasharray="5,2" d="M634.915,-21.639C668.437,-26.6744 708.253,-35.8357 741,-52.5 773.541,-69.0593 803.05,-101.745 816.43,-117.941"/>
<polygon fill="#9a32cd" stroke="#9a32cd" points="635.119,-18.1333 624.729,-20.205 634.144,-25.065 635.119,-18.1333"/>
<text text-anchor="middle" x="696" y="-66.5" font-family="Helvetica,sans-Serif" font-size="10.00"> m_clientFreeList</text>
<text text-anchor="middle" x="696" y="-55.5" font-family="Helvetica,sans-Serif" font-size="10.00">m_clientList</text>
</g>
<!-- Node11&#45;&gt;Node11 -->
<g id="edge14" class="edge"><title>Node11&#45;&gt;Node11</title>
<path fill="none" stroke="#9a32cd" stroke-dasharray="5,2" d="M543.599,-40.9579C546.069,-45.679 552.703,-49 563.5,-49 581.219,-49 587.725,-40.0566 583.018,-30.659"/>
<polygon fill="#9a32cd" stroke="#9a32cd" points="547.108,-40.7821 543.982,-30.659 540.113,-40.5221 547.108,-40.7821"/>
<text text-anchor="middle" x="563.5" y="-52" font-family="Helvetica,sans-Serif" font-size="10.00"> m_next</text>
</g>
<!-- Node12 -->
<g id="node12" class="node"><title>Node12</title>
<g id="a_node12"><a xlink:href="classerpc_1_1_semaphore.html" target="_top" xlink:title="Simple semaphore class. ">
<polygon fill="white" stroke="black" points="308,-41 308,-60 399,-60 399,-41 308,-41"/>
<text text-anchor="middle" x="353.5" y="-48" font-family="Helvetica,sans-Serif" font-size="10.00">erpc::Semaphore</text>
</a>
</g>
</g>
<!-- Node12&#45;&gt;Node11 -->
<g id="edge13" class="edge"><title>Node12&#45;&gt;Node11</title>
<path fill="none" stroke="#9a32cd" stroke-dasharray="5,2" d="M409.327,-41.2743C437.878,-36.4701 472.851,-30.5852 502.168,-25.6521"/>
<polygon fill="#9a32cd" stroke="#9a32cd" points="408.402,-37.8807 399.121,-42.9916 409.563,-44.7837 408.402,-37.8807"/>
<text text-anchor="middle" x="451.5" y="-41.5" font-family="Helvetica,sans-Serif" font-size="10.00"> m_sem</text>
</g>
<!-- Node13&#45;&gt;Node11 -->
<g id="edge15" class="edge"><title>Node13&#45;&gt;Node11</title>
<path fill="none" stroke="#9a32cd" stroke-dasharray="5,2" d="M419.469,-13.4371C445.956,-13.8191 476.394,-14.2581 502.364,-14.6327"/>
<polygon fill="#9a32cd" stroke="#9a32cd" points="419.199,-9.93289 409.15,-13.2882 419.098,-16.9322 419.199,-9.93289"/>
<text text-anchor="middle" x="451.5" y="-17.5" font-family="Helvetica,sans-Serif" font-size="10.00"> m_request</text>
</g>
</g>
</svg>
