<?xml version="1.0" encoding="UTF-8" standalone="no"?>
<!DOCTYPE svg PUBLIC "-//W3C//DTD SVG 1.1//EN"
 "http://www.w3.org/Graphics/SVG/1.1/DTD/svg11.dtd">
<!-- Generated by graphviz version 2.38.0 (20140413.2041)
 -->
<!-- Title: erpc::MUTransport Pages: 1 -->
<svg width="304pt" height="106pt"
 viewBox="0.00 0.00 304.00 106.00" xmlns="http://www.w3.org/2000/svg" xmlns:xlink="http://www.w3.org/1999/xlink">
<g id="graph0" class="graph" transform="scale(1 1) rotate(0) translate(4 102)">
<title>erpc::MUTransport</title>
<polygon fill="white" stroke="none" points="-4,4 -4,-102 300,-102 300,4 -4,4"/>
<!-- Node1 -->
<g id="node1" class="node"><title>Node1</title>
<polygon fill="#bfbfbf" stroke="black" points="85.5,-0.5 85.5,-19.5 182.5,-19.5 182.5,-0.5 85.5,-0.5"/>
<text text-anchor="middle" x="134" y="-7.5" font-family="Helvetica,sans-Serif" font-size="10.00">erpc::MUTransport</text>
</g>
<!-- Node2 -->
<g id="node2" class="node"><title>Node2</title>
<g id="a_node2"><a xlink:href="classerpc_1_1_transport.html" target="_top" xlink:title="Abstract interface for transport layer. ">
<polygon fill="white" stroke="black" points="0,-78.5 0,-97.5 82,-97.5 82,-78.5 0,-78.5"/>
<text text-anchor="middle" x="41" y="-85.5" font-family="Helvetica,sans-Serif" font-size="10.00">erpc::Transport</text>
</a>
</g>
</g>
<!-- Node2&#45;&gt;Node1 -->
<g id="edge1" class="edge"><title>Node2&#45;&gt;Node1</title>
<path fill="none" stroke="midnightblue" d="M59.4282,-71.9404C78.5857,-56.2848 107.902,-32.3271 123.456,-19.6165"/>
<polygon fill="midnightblue" stroke="midnightblue" points="57.1968,-69.2438 51.6683,-78.2818 61.6263,-74.6641 57.1968,-69.2438"/>
</g>
<!-- Node3 -->
<g id="node3" class="node"><title>Node3</title>
<g id="a_node3"><a xlink:href="classerpc_1_1_mutex.html" target="_top" xlink:title="Mutex. ">
<polygon fill="white" stroke="black" points="100,-78.5 100,-97.5 168,-97.5 168,-78.5 100,-78.5"/>
<text text-anchor="middle" x="134" y="-85.5" font-family="Helvetica,sans-Serif" font-size="10.00">erpc::Mutex</text>
</a>
</g>
</g>
<!-- Node3&#45;&gt;Node1 -->
<g id="edge2" class="edge"><title>Node3&#45;&gt;Node1</title>
<path fill="none" stroke="#9a32cd" stroke-dasharray="5,2" d="M134,-68.2239C134,-52.6974 134,-31.3582 134,-19.6165"/>
<polygon fill="#9a32cd" stroke="#9a32cd" points="130.5,-68.2818 134,-78.2818 137.5,-68.2819 130.5,-68.2818"/>
<text text-anchor="middle" x="166.5" y="-52" font-family="Helvetica,sans-Serif" font-size="10.00"> m_sendLock</text>
<text text-anchor="middle" x="166.5" y="-41" font-family="Helvetica,sans-Serif" font-size="10.00">m_receiveLock</text>
</g>
<!-- Node4 -->
<g id="node4" class="node"><title>Node4</title>
<g id="a_node4"><a xlink:href="classerpc_1_1_semaphore.html" target="_top" xlink:title="Simple semaphore class. ">
<polygon fill="white" stroke="black" points="186.5,-78.5 186.5,-97.5 277.5,-97.5 277.5,-78.5 186.5,-78.5"/>
<text text-anchor="middle" x="232" y="-85.5" font-family="Helvetica,sans-Serif" font-size="10.00">erpc::Semaphore</text>
</a>
</g>
</g>
<!-- Node4&#45;&gt;Node1 -->
<g id="edge3" class="edge"><title>Node4&#45;&gt;Node1</title>
<path fill="none" stroke="#9a32cd" stroke-dasharray="5,2" d="M224.842,-68.8862C220.002,-58.6383 212.714,-46.2607 203,-38 193.2,-29.6669 180.528,-23.7242 168.723,-19.5759"/>
<polygon fill="#9a32cd" stroke="#9a32cd" points="221.685,-70.4027 228.866,-78.1928 228.11,-67.6249 221.685,-70.4027"/>
<text text-anchor="middle" x="258.5" y="-52" font-family="Helvetica,sans-Serif" font-size="10.00"> m_txSemaphore</text>
<text text-anchor="middle" x="258.5" y="-41" font-family="Helvetica,sans-Serif" font-size="10.00">m_rxSemaphore</text>
</g>
</g>
</svg>
