<?xml version="1.0" encoding="UTF-8" standalone="no"?>
<!DOCTYPE svg PUBLIC "-//W3C//DTD SVG 1.1//EN"
 "http://www.w3.org/Graphics/SVG/1.1/DTD/svg11.dtd">
<!-- Generated by graphviz version 2.38.0 (20140413.2041)
 -->
<!-- Title: erpc::SimpleServer Pages: 1 -->
<svg width="381pt" height="219pt"
 viewBox="0.00 0.00 380.50 219.00" xmlns="http://www.w3.org/2000/svg" xmlns:xlink="http://www.w3.org/1999/xlink">
<g id="graph0" class="graph" transform="scale(1 1) rotate(0) translate(4 215)">
<title>erpc::SimpleServer</title>
<polygon fill="white" stroke="none" points="-4,4 -4,-215 376.5,-215 376.5,4 -4,4"/>
<!-- Node1 -->
<g id="node1" class="node"><title>Node1</title>
<polygon fill="#bfbfbf" stroke="black" points="172,-0.5 172,-19.5 270,-19.5 270,-0.5 172,-0.5"/>
<text text-anchor="middle" x="221" y="-7.5" font-family="Helvetica,sans-Serif" font-size="10.00">erpc::SimpleServer</text>
</g>
<!-- Node2 -->
<g id="node2" class="node"><title>Node2</title>
<g id="a_node2"><a xlink:href="classerpc_1_1_server.html" target="_top" xlink:title="Based server functionality. ">
<polygon fill="white" stroke="black" points="187,-57.5 187,-76.5 255,-76.5 255,-57.5 187,-57.5"/>
<text text-anchor="middle" x="221" y="-64.5" font-family="Helvetica,sans-Serif" font-size="10.00">erpc::Server</text>
</a>
</g>
</g>
<!-- Node2&#45;&gt;Node1 -->
<g id="edge1" class="edge"><title>Node2&#45;&gt;Node1</title>
<path fill="none" stroke="midnightblue" d="M221,-47.1166C221,-37.8173 221,-27.0557 221,-19.7149"/>
<polygon fill="midnightblue" stroke="midnightblue" points="217.5,-47.4062 221,-57.4063 224.5,-47.4063 217.5,-47.4062"/>
</g>
<!-- Node3 -->
<g id="node3" class="node"><title>Node3</title>
<g id="a_node3"><a xlink:href="classerpc_1_1_client_server_common.html" target="_top" xlink:title="Common class inherited by client and server class. ">
<polygon fill="white" stroke="black" points="95,-124.5 95,-143.5 227,-143.5 227,-124.5 95,-124.5"/>
<text text-anchor="middle" x="161" y="-131.5" font-family="Helvetica,sans-Serif" font-size="10.00">erpc::ClientServerCommon</text>
</a>
</g>
</g>
<!-- Node3&#45;&gt;Node2 -->
<g id="edge2" class="edge"><title>Node3&#45;&gt;Node2</title>
<path fill="none" stroke="midnightblue" d="M176.106,-116.635C187.841,-103.923 203.648,-86.7978 213.036,-76.6273"/>
<polygon fill="midnightblue" stroke="midnightblue" points="173.303,-114.512 169.092,-124.234 178.447,-119.26 173.303,-114.512"/>
</g>
<!-- Node4 -->
<g id="node4" class="node"><title>Node4</title>
<g id="a_node4"><a xlink:href="classerpc_1_1_codec_factory.html" target="_top" xlink:title="Abstract interface for codec factory. ">
<polygon fill="white" stroke="black" points="0,-191.5 0,-210.5 102,-210.5 102,-191.5 0,-191.5"/>
<text text-anchor="middle" x="51" y="-198.5" font-family="Helvetica,sans-Serif" font-size="10.00">erpc::CodecFactory</text>
</a>
</g>
</g>
<!-- Node4&#45;&gt;Node3 -->
<g id="edge3" class="edge"><title>Node4&#45;&gt;Node3</title>
<path fill="none" stroke="#9a32cd" stroke-dasharray="5,2" d="M61.4258,-182.701C66.5416,-175.446 73.2711,-167.448 81,-162 92.8614,-153.639 107.513,-147.707 121.023,-143.575"/>
<polygon fill="#9a32cd" stroke="#9a32cd" points="58.3848,-180.957 55.8549,-191.245 64.2485,-184.78 58.3848,-180.957"/>
<text text-anchor="middle" x="119" y="-165" font-family="Helvetica,sans-Serif" font-size="10.00"> m_codecFactory</text>
</g>
<!-- Node5 -->
<g id="node5" class="node"><title>Node5</title>
<g id="a_node5"><a xlink:href="classerpc_1_1_transport.html" target="_top" xlink:title="Abstract interface for transport layer. ">
<polygon fill="white" stroke="black" points="120,-191.5 120,-210.5 202,-210.5 202,-191.5 120,-191.5"/>
<text text-anchor="middle" x="161" y="-198.5" font-family="Helvetica,sans-Serif" font-size="10.00">erpc::Transport</text>
</a>
</g>
</g>
<!-- Node5&#45;&gt;Node3 -->
<g id="edge4" class="edge"><title>Node5&#45;&gt;Node3</title>
<path fill="none" stroke="#9a32cd" stroke-dasharray="5,2" d="M161,-181.037C161,-168.67 161,-153.12 161,-143.627"/>
<polygon fill="#9a32cd" stroke="#9a32cd" points="157.5,-181.234 161,-191.234 164.5,-181.234 157.5,-181.234"/>
<text text-anchor="middle" x="188.5" y="-165" font-family="Helvetica,sans-Serif" font-size="10.00"> m_transport</text>
</g>
<!-- Node6 -->
<g id="node6" class="node"><title>Node6</title>
<g id="a_node6"><a xlink:href="classerpc_1_1_message_buffer_factory.html" target="_top" xlink:title="Abstract interface for message buffer factory. ">
<polygon fill="white" stroke="black" points="220.5,-191.5 220.5,-210.5 359.5,-210.5 359.5,-191.5 220.5,-191.5"/>
<text text-anchor="middle" x="290" y="-198.5" font-family="Helvetica,sans-Serif" font-size="10.00">erpc::MessageBufferFactory</text>
</a>
</g>
</g>
<!-- Node6&#45;&gt;Node3 -->
<g id="edge5" class="edge"><title>Node6&#45;&gt;Node3</title>
<path fill="none" stroke="#9a32cd" stroke-dasharray="5,2" d="M265.829,-186.351C252.44,-178.925 235.429,-169.707 220,-162 207,-155.506 192.12,-148.701 180.556,-143.547"/>
<polygon fill="#9a32cd" stroke="#9a32cd" points="264.426,-189.576 274.864,-191.395 267.838,-183.464 264.426,-189.576"/>
<text text-anchor="middle" x="285" y="-165" font-family="Helvetica,sans-Serif" font-size="10.00"> m_messageFactory</text>
</g>
<!-- Node7 -->
<g id="node7" class="node"><title>Node7</title>
<g id="a_node7"><a xlink:href="classerpc_1_1_service.html" target="_top" xlink:title="Abstract interface for service, which can be executed on server side. ">
<polygon fill="white" stroke="black" points="245.5,-124.5 245.5,-143.5 318.5,-143.5 318.5,-124.5 245.5,-124.5"/>
<text text-anchor="middle" x="282" y="-131.5" font-family="Helvetica,sans-Serif" font-size="10.00">erpc::Service</text>
</a>
</g>
</g>
<!-- Node7&#45;&gt;Node2 -->
<g id="edge6" class="edge"><title>Node7&#45;&gt;Node2</title>
<path fill="none" stroke="#9a32cd" stroke-dasharray="5,2" d="M266.642,-116.635C254.712,-103.923 238.641,-86.7978 229.096,-76.6273"/>
<polygon fill="#9a32cd" stroke="#9a32cd" points="264.378,-119.337 273.773,-124.234 269.482,-114.547 264.378,-119.337"/>
<text text-anchor="middle" x="288" y="-98" font-family="Helvetica,sans-Serif" font-size="10.00"> m_firstService</text>
</g>
<!-- Node7&#45;&gt;Node7 -->
<g id="edge7" class="edge"><title>Node7&#45;&gt;Node7</title>
<path fill="none" stroke="#9a32cd" stroke-dasharray="5,2" d="M328.757,-138.922C333.485,-137.945 336.5,-136.305 336.5,-134 336.5,-130.313 328.78,-128.325 318.679,-128.037"/>
<polygon fill="#9a32cd" stroke="#9a32cd" points="328.266,-135.454 318.679,-139.963 328.986,-142.417 328.266,-135.454"/>
<text text-anchor="middle" x="354.5" y="-131.5" font-family="Helvetica,sans-Serif" font-size="10.00"> m_next</text>
</g>
</g>
</svg>
