<?xml version="1.0" encoding="UTF-8" standalone="no"?>
<!DOCTYPE svg PUBLIC "-//W3C//DTD SVG 1.1//EN"
 "http://www.w3.org/Graphics/SVG/1.1/DTD/svg11.dtd">
<!-- Generated by graphviz version 2.38.0 (20140413.2041)
 -->
<!-- Title: erpc::InterThreadBufferTransport Pages: 1 -->
<svg width="551pt" height="154pt"
 viewBox="0.00 0.00 551.00 154.00" xmlns="http://www.w3.org/2000/svg" xmlns:xlink="http://www.w3.org/1999/xlink">
<g id="graph0" class="graph" transform="scale(1 1) rotate(0) translate(4 150)">
<title>erpc::InterThreadBufferTransport</title>
<polygon fill="white" stroke="none" points="-4,4 -4,-150 547,-150 547,4 -4,4"/>
<!-- Node1 -->
<g id="node1" class="node"><title>Node1</title>
<polygon fill="#bfbfbf" stroke="black" points="388,-60.5 388,-79.5 543,-79.5 543,-60.5 388,-60.5"/>
<text text-anchor="middle" x="465.5" y="-67.5" font-family="Helvetica,sans-Serif" font-size="10.00">erpc::InterThreadBufferTransport</text>
</g>
<!-- Node1&#45;&gt;Node1 -->
<g id="edge4" class="edge"><title>Node1&#45;&gt;Node1</title>
<path fill="none" stroke="#9a32cd" stroke-dasharray="5,2" d="M443.179,-89.0292C444.396,-94.128 451.837,-98 465.5,-98 486.828,-98 492.993,-88.5653 483.995,-79.7571"/>
<polygon fill="#9a32cd" stroke="#9a32cd" points="446.426,-90.3361 447.005,-79.7571 439.955,-87.6661 446.426,-90.3361"/>
<text text-anchor="middle" x="465.5" y="-101" font-family="Helvetica,sans-Serif" font-size="10.00"> m_peer</text>
</g>
<!-- Node2 -->
<g id="node2" class="node"><title>Node2</title>
<g id="a_node2"><a xlink:href="classerpc_1_1_transport.html" target="_top" xlink:title="Abstract interface for transport layer. ">
<polygon fill="white" stroke="black" points="184.5,-126.5 184.5,-145.5 266.5,-145.5 266.5,-126.5 184.5,-126.5"/>
<text text-anchor="middle" x="225.5" y="-133.5" font-family="Helvetica,sans-Serif" font-size="10.00">erpc::Transport</text>
</a>
</g>
</g>
<!-- Node2&#45;&gt;Node1 -->
<g id="edge1" class="edge"><title>Node2&#45;&gt;Node1</title>
<path fill="none" stroke="midnightblue" d="M275.604,-124.058C284.725,-121.768 294.162,-119.35 303,-117 348.577,-104.881 400.923,-89.3478 433.358,-79.531"/>
<polygon fill="midnightblue" stroke="midnightblue" points="274.731,-120.669 265.874,-126.484 276.424,-127.461 274.731,-120.669"/>
</g>
<!-- Node3 -->
<g id="node3" class="node"><title>Node3</title>
<g id="a_node3"><a xlink:href="classerpc_1_1_inter_thread_buffer_transport.html#structerpc_1_1_inter_thread_buffer_transport_1_1_shared_state" target="_top" xlink:title="erpc::InterThreadBufferTransport\l::SharedState">
<polygon fill="white" stroke="black" points="148,-77 148,-107 303,-107 303,-77 148,-77"/>
<text text-anchor="start" x="156" y="-95" font-family="Helvetica,sans-Serif" font-size="10.00">erpc::InterThreadBufferTransport</text>
<text text-anchor="middle" x="225.5" y="-84" font-family="Helvetica,sans-Serif" font-size="10.00">::SharedState</text>
</a>
</g>
</g>
<!-- Node3&#45;&gt;Node1 -->
<g id="edge2" class="edge"><title>Node3&#45;&gt;Node1</title>
<path fill="none" stroke="#9a32cd" stroke-dasharray="5,2" d="M313.074,-83.9973C337.47,-81.7422 363.835,-79.3052 387.621,-77.1065"/>
<polygon fill="#9a32cd" stroke="#9a32cd" points="312.75,-80.5123 303.115,-84.918 313.394,-87.4826 312.75,-80.5123"/>
<text text-anchor="middle" x="345.5" y="-86" font-family="Helvetica,sans-Serif" font-size="10.00"> m_state</text>
</g>
<!-- Node4 -->
<g id="node4" class="node"><title>Node4</title>
<g id="a_node4"><a xlink:href="classerpc_1_1_mutex.html" target="_top" xlink:title="Mutex. ">
<polygon fill="white" stroke="black" points="0,-82.5 0,-101.5 68,-101.5 68,-82.5 0,-82.5"/>
<text text-anchor="middle" x="34" y="-89.5" font-family="Helvetica,sans-Serif" font-size="10.00">erpc::Mutex</text>
</a>
</g>
</g>
<!-- Node4&#45;&gt;Node3 -->
<g id="edge3" class="edge"><title>Node4&#45;&gt;Node3</title>
<path fill="none" stroke="#9a32cd" stroke-dasharray="5,2" d="M78.037,-92C98.681,-92 124.046,-92 147.833,-92"/>
<polygon fill="#9a32cd" stroke="#9a32cd" points="78.0084,-88.5001 68.0084,-92 78.0083,-95.5001 78.0084,-88.5001"/>
<text text-anchor="middle" x="108" y="-95" font-family="Helvetica,sans-Serif" font-size="10.00"> m_mutex</text>
</g>
<!-- Node5 -->
<g id="node5" class="node"><title>Node5</title>
<g id="a_node5"><a xlink:href="classerpc_1_1_semaphore.html" target="_top" xlink:title="Simple semaphore class. ">
<polygon fill="white" stroke="black" points="180,-38.5 180,-57.5 271,-57.5 271,-38.5 180,-38.5"/>
<text text-anchor="middle" x="225.5" y="-45.5" font-family="Helvetica,sans-Serif" font-size="10.00">erpc::Semaphore</text>
</a>
</g>
</g>
<!-- Node5&#45;&gt;Node1 -->
<g id="edge5" class="edge"><title>Node5&#45;&gt;Node1</title>
<path fill="none" stroke="#9a32cd" stroke-dasharray="5,2" d="M281.532,-48.6799C308.289,-49.4234 340.883,-50.9387 370,-54 384.728,-55.5485 400.637,-57.9542 415.126,-60.4338"/>
<polygon fill="#9a32cd" stroke="#9a32cd" points="281.291,-45.1729 271.207,-48.4228 281.116,-52.1707 281.291,-45.1729"/>
<text text-anchor="middle" x="345.5" y="-68" font-family="Helvetica,sans-Serif" font-size="10.00"> m_inSem</text>
<text text-anchor="middle" x="345.5" y="-57" font-family="Helvetica,sans-Serif" font-size="10.00">m_outSem</text>
</g>
<!-- Node6 -->
<g id="node6" class="node"><title>Node6</title>
<g id="a_node6"><a xlink:href="classerpc_1_1_message_buffer.html" target="_top" xlink:title="Represents a memory buffer containing a message. ">
<polygon fill="white" stroke="black" points="172.5,-0.5 172.5,-19.5 278.5,-19.5 278.5,-0.5 172.5,-0.5"/>
<text text-anchor="middle" x="225.5" y="-7.5" font-family="Helvetica,sans-Serif" font-size="10.00">erpc::MessageBuffer</text>
</a>
</g>
</g>
<!-- Node6&#45;&gt;Node1 -->
<g id="edge6" class="edge"><title>Node6&#45;&gt;Node1</title>
<path fill="none" stroke="#9a32cd" stroke-dasharray="5,2" d="M288.66,-18.9477C314.088,-23.2056 343.664,-28.9289 370,-36 394.754,-42.6462 422.239,-52.8704 441.156,-60.372"/>
<polygon fill="#9a32cd" stroke="#9a32cd" points="289.204,-15.4902 278.77,-17.3297 288.074,-22.3984 289.204,-15.4902"/>
<text text-anchor="middle" x="345.5" y="-39" font-family="Helvetica,sans-Serif" font-size="10.00"> m_inBuffer</text>
</g>
</g>
</svg>
