<?xml version="1.0" encoding="UTF-8" standalone="no"?>
<!DOCTYPE svg PUBLIC "-//W3C//DTD SVG 1.1//EN"
 "http://www.w3.org/Graphics/SVG/1.1/DTD/svg11.dtd">
<!-- Generated by graphviz version 2.38.0 (20140413.2041)
 -->
<!-- Title: erpc::Transport Pages: 1 -->
<svg width="475pt" height="503pt"
 viewBox="0.00 0.00 475.00 503.00" xmlns="http://www.w3.org/2000/svg" xmlns:xlink="http://www.w3.org/1999/xlink">
<g id="graph0" class="graph" transform="scale(1 1) rotate(0) translate(4 499)">
<title>erpc::Transport</title>
<polygon fill="white" stroke="none" points="-4,4 -4,-499 471,-499 471,4 -4,4"/>
<!-- Node1 -->
<g id="node1" class="node"><title>Node1</title>
<polygon fill="#bfbfbf" stroke="black" points="0,-114.5 0,-133.5 82,-133.5 82,-114.5 0,-114.5"/>
<text text-anchor="middle" x="41" y="-121.5" font-family="Helvetica,sans-Serif" font-size="10.00">erpc::Transport</text>
</g>
<!-- Node2 -->
<g id="node2" class="node"><title>Node2</title>
<g id="a_node2"><a xlink:href="classerpc_1_1_framed_transport.html" target="_top" xlink:title="Base class for framed transport layers. ">
<polygon fill="white" stroke="black" points="138,-228.5 138,-247.5 253,-247.5 253,-228.5 138,-228.5"/>
<text text-anchor="middle" x="195.5" y="-235.5" font-family="Helvetica,sans-Serif" font-size="10.00">erpc::FramedTransport</text>
</a>
</g>
</g>
<!-- Node1&#45;&gt;Node2 -->
<g id="edge1" class="edge"><title>Node1&#45;&gt;Node2</title>
<path fill="none" stroke="midnightblue" d="M51.7387,-142.415C64.1804,-164.107 87.771,-199.635 118,-219 124.107,-222.912 130.965,-226.019 138,-228.486"/>
<polygon fill="midnightblue" stroke="midnightblue" points="54.7265,-140.585 46.8229,-133.529 48.6014,-143.974 54.7265,-140.585"/>
</g>
<!-- Node16 -->
<g id="node16" class="node"><title>Node16</title>
<g id="a_node16"><a xlink:href="classerpc_1_1_inter_thread_buffer_transport.html" target="_top" xlink:title="Very basic transport to send/receive messages between threads. ">
<polygon fill="white" stroke="black" points="118,-190.5 118,-209.5 273,-209.5 273,-190.5 118,-190.5"/>
<text text-anchor="middle" x="195.5" y="-197.5" font-family="Helvetica,sans-Serif" font-size="10.00">erpc::InterThreadBufferTransport</text>
</a>
</g>
</g>
<!-- Node1&#45;&gt;Node16 -->
<g id="edge16" class="edge"><title>Node1&#45;&gt;Node16</title>
<path fill="none" stroke="midnightblue" d="M59.6535,-140.51C74.2548,-153.318 96.0818,-170.588 118,-181 126.035,-184.817 134.921,-187.92 143.709,-190.426"/>
<polygon fill="midnightblue" stroke="midnightblue" points="61.7192,-137.661 51.9454,-133.571 57.0357,-142.863 61.7192,-137.661"/>
</g>
<!-- Node17 -->
<g id="node17" class="node"><title>Node17</title>
<g id="a_node17"><a xlink:href="classerpc_1_1_m_u_transport.html" target="_top" xlink:title="Transport that uses Messaging Unit (MU) for interprocessor messaging. ">
<polygon fill="white" stroke="black" points="147,-152.5 147,-171.5 244,-171.5 244,-152.5 147,-152.5"/>
<text text-anchor="middle" x="195.5" y="-159.5" font-family="Helvetica,sans-Serif" font-size="10.00">erpc::MUTransport</text>
</a>
</g>
</g>
<!-- Node1&#45;&gt;Node17 -->
<g id="edge17" class="edge"><title>Node1&#45;&gt;Node17</title>
<path fill="none" stroke="midnightblue" d="M90.122,-136.042C99.3737,-138.354 108.987,-140.754 118,-143 130.349,-146.077 143.822,-149.426 155.972,-152.443"/>
<polygon fill="midnightblue" stroke="midnightblue" points="90.8207,-132.609 80.2704,-133.58 89.1231,-139.4 90.8207,-132.609"/>
</g>
<!-- Node18 -->
<g id="node18" class="node"><title>Node18</title>
<g id="a_node18"><a xlink:href="classerpc_1_1_r_p_msg_linux_transport.html" target="_top" xlink:title="RPMSG Linux transport to send/receive messages through RPMSG endpoints based on github.com/nxp&#45;mcuxpresso/rpmsg&#45;sysfs/tree/0aa1817545a765c200b1b2f9b6680a420dcf9171 implementation. ">
<polygon fill="white" stroke="black" points="127,-114.5 127,-133.5 264,-133.5 264,-114.5 127,-114.5"/>
<text text-anchor="middle" x="195.5" y="-121.5" font-family="Helvetica,sans-Serif" font-size="10.00">erpc::RPMsgLinuxTransport</text>
</a>
</g>
</g>
<!-- Node1&#45;&gt;Node18 -->
<g id="edge18" class="edge"><title>Node1&#45;&gt;Node18</title>
<path fill="none" stroke="midnightblue" d="M92.3945,-124C103.467,-124 115.364,-124 126.987,-124"/>
<polygon fill="midnightblue" stroke="midnightblue" points="92.0676,-120.5 82.0676,-124 92.0675,-127.5 92.0676,-120.5"/>
</g>
<!-- Node19 -->
<g id="node19" class="node"><title>Node19</title>
<g id="a_node19"><a xlink:href="classerpc_1_1_r_p_msg_r_t_o_s_transport.html" target="_top" xlink:title="Transport that uses RPMsg zero copy RTOS API for interprocessor messaging. ">
<polygon fill="white" stroke="black" points="125.5,-76.5 125.5,-95.5 265.5,-95.5 265.5,-76.5 125.5,-76.5"/>
<text text-anchor="middle" x="195.5" y="-83.5" font-family="Helvetica,sans-Serif" font-size="10.00">erpc::RPMsgRTOSTransport</text>
</a>
</g>
</g>
<!-- Node1&#45;&gt;Node19 -->
<g id="edge19" class="edge"><title>Node1&#45;&gt;Node19</title>
<path fill="none" stroke="midnightblue" d="M90.122,-111.958C99.3737,-109.646 108.987,-107.246 118,-105 130.349,-101.923 143.822,-98.5739 155.972,-95.5568"/>
<polygon fill="midnightblue" stroke="midnightblue" points="89.1231,-108.6 80.2704,-114.42 90.8207,-115.391 89.1231,-108.6"/>
</g>
<!-- Node20 -->
<g id="node20" class="node"><title>Node20</title>
<g id="a_node20"><a xlink:href="classerpc_1_1_r_p_msg_transport.html" target="_top" xlink:title="Transport that uses RPMsg zero copy API for interprocessor messaging. ">
<polygon fill="white" stroke="black" points="138.5,-38.5 138.5,-57.5 252.5,-57.5 252.5,-38.5 138.5,-38.5"/>
<text text-anchor="middle" x="195.5" y="-45.5" font-family="Helvetica,sans-Serif" font-size="10.00">erpc::RPMsgTransport</text>
</a>
</g>
</g>
<!-- Node1&#45;&gt;Node20 -->
<g id="edge20" class="edge"><title>Node1&#45;&gt;Node20</title>
<path fill="none" stroke="midnightblue" d="M59.6535,-107.49C74.2548,-94.6825 96.0818,-77.4117 118,-67 126.035,-63.1833 134.921,-60.0799 143.709,-57.5736"/>
<polygon fill="midnightblue" stroke="midnightblue" points="57.0357,-105.137 51.9454,-114.429 61.7192,-110.339 57.0357,-105.137"/>
</g>
<!-- Node21 -->
<g id="node21" class="node"><title>Node21</title>
<g id="a_node21"><a xlink:href="classerpc_1_1_transport_arbitrator.html" target="_top" xlink:title="Interposer to share transport between client and server. ">
<polygon fill="white" stroke="black" points="134.5,-0.5 134.5,-19.5 256.5,-19.5 256.5,-0.5 134.5,-0.5"/>
<text text-anchor="middle" x="195.5" y="-7.5" font-family="Helvetica,sans-Serif" font-size="10.00">erpc::TransportArbitrator</text>
</a>
</g>
</g>
<!-- Node1&#45;&gt;Node21 -->
<g id="edge21" class="edge"><title>Node1&#45;&gt;Node21</title>
<path fill="none" stroke="midnightblue" d="M51.7387,-105.585C64.1804,-83.8932 87.771,-48.3651 118,-29 124.107,-25.0876 130.965,-21.9809 138,-19.5138"/>
<polygon fill="midnightblue" stroke="midnightblue" points="48.6014,-104.026 46.8229,-114.471 54.7265,-107.415 48.6014,-104.026"/>
</g>
<!-- Node3 -->
<g id="node3" class="node"><title>Node3</title>
<g id="a_node3"><a xlink:href="classerpc_1_1_dspi_master_transport.html" target="_top" xlink:title="Very basic transport to send/receive messages via DSPI. ">
<polygon fill="white" stroke="black" points="322.5,-475.5 322.5,-494.5 453.5,-494.5 453.5,-475.5 322.5,-475.5"/>
<text text-anchor="middle" x="388" y="-482.5" font-family="Helvetica,sans-Serif" font-size="10.00">erpc::DspiMasterTransport</text>
</a>
</g>
</g>
<!-- Node2&#45;&gt;Node3 -->
<g id="edge2" class="edge"><title>Node2&#45;&gt;Node3</title>
<path fill="none" stroke="midnightblue" d="M200.327,-257.669C210.037,-302.097 239.93,-410.638 309,-466 313.785,-469.835 319.23,-472.914 324.965,-475.382"/>
<polygon fill="midnightblue" stroke="midnightblue" points="203.697,-256.682 198.237,-247.602 196.843,-258.104 203.697,-256.682"/>
</g>
<!-- Node4 -->
<g id="node4" class="node"><title>Node4</title>
<g id="a_node4"><a xlink:href="classerpc_1_1_dspi_slave_transport.html" target="_top" xlink:title="Very basic transport to send/receive messages via DSPI. ">
<polygon fill="white" stroke="black" points="325.5,-437.5 325.5,-456.5 450.5,-456.5 450.5,-437.5 325.5,-437.5"/>
<text text-anchor="middle" x="388" y="-444.5" font-family="Helvetica,sans-Serif" font-size="10.00">erpc::DspiSlaveTransport</text>
</a>
</g>
</g>
<!-- Node2&#45;&gt;Node4 -->
<g id="edge3" class="edge"><title>Node2&#45;&gt;Node4</title>
<path fill="none" stroke="midnightblue" d="M202.268,-257.28C214.889,-296.01 248.745,-383.365 309,-428 314.264,-431.899 320.224,-435.007 326.447,-437.483"/>
<polygon fill="midnightblue" stroke="midnightblue" points="205.602,-256.214 199.268,-247.721 198.924,-258.31 205.602,-256.214"/>
</g>
<!-- Node5 -->
<g id="node5" class="node"><title>Node5</title>
<g id="a_node5"><a xlink:href="classerpc_1_1_i2c_slave_transport.html" target="_top" xlink:title="Very basic transport to send/receive messages via I2C. ">
<polygon fill="white" stroke="black" points="329,-399.5 329,-418.5 447,-418.5 447,-399.5 329,-399.5"/>
<text text-anchor="middle" x="388" y="-406.5" font-family="Helvetica,sans-Serif" font-size="10.00">erpc::I2cSlaveTransport</text>
</a>
</g>
</g>
<!-- Node2&#45;&gt;Node5 -->
<g id="edge4" class="edge"><title>Node2&#45;&gt;Node5</title>
<path fill="none" stroke="midnightblue" d="M205.065,-256.942C220.785,-289.47 257.425,-355.744 309,-390 315.037,-394.01 321.84,-397.175 328.848,-399.672"/>
<polygon fill="midnightblue" stroke="midnightblue" points="208.121,-255.215 200.704,-247.65 201.784,-258.19 208.121,-255.215"/>
</g>
<!-- Node6 -->
<g id="node6" class="node"><title>Node6</title>
<g id="a_node6"><a xlink:href="classerpc_1_1_l_p_i2c_slave_transport.html" target="_top" xlink:title="Very basic transport to send/receive messages via LPI2C. ">
<polygon fill="white" stroke="black" points="323,-361.5 323,-380.5 453,-380.5 453,-361.5 323,-361.5"/>
<text text-anchor="middle" x="388" y="-368.5" font-family="Helvetica,sans-Serif" font-size="10.00">erpc::LPI2cSlaveTransport</text>
</a>
</g>
</g>
<!-- Node2&#45;&gt;Node6 -->
<g id="edge5" class="edge"><title>Node2&#45;&gt;Node6</title>
<path fill="none" stroke="midnightblue" d="M209.152,-256.07C227.941,-281.497 265.691,-327.462 309,-352 315.791,-355.848 323.343,-358.921 330.999,-361.375"/>
<polygon fill="midnightblue" stroke="midnightblue" points="211.806,-253.767 203.113,-247.71 206.132,-257.866 211.806,-253.767"/>
</g>
<!-- Node7 -->
<g id="node7" class="node"><title>Node7</title>
<g id="a_node7"><a xlink:href="classerpc_1_1_l_p_spi_slave_transport.html" target="_top" xlink:title="Very basic transport to send/receive messages via LPSPI. ">
<polygon fill="white" stroke="black" points="322.5,-323.5 322.5,-342.5 453.5,-342.5 453.5,-323.5 322.5,-323.5"/>
<text text-anchor="middle" x="388" y="-330.5" font-family="Helvetica,sans-Serif" font-size="10.00">erpc::LPSpiSlaveTransport</text>
</a>
</g>
</g>
<!-- Node2&#45;&gt;Node7 -->
<g id="edge6" class="edge"><title>Node2&#45;&gt;Node7</title>
<path fill="none" stroke="midnightblue" d="M215.809,-254.22C237.265,-271.452 273.573,-298.326 309,-314 317.54,-317.778 326.952,-320.88 336.196,-323.401"/>
<polygon fill="midnightblue" stroke="midnightblue" points="217.787,-251.316 207.828,-247.701 213.359,-256.737 217.787,-251.316"/>
</g>
<!-- Node8 -->
<g id="node8" class="node"><title>Node8</title>
<g id="a_node8"><a xlink:href="classerpc_1_1_r_p_msg_t_t_y_r_t_o_s_transport.html" target="_top" xlink:title="Transport that uses RPMsg zero copy RTOS API for interprocessor messaging. ">
<polygon fill="white" stroke="black" points="309,-285.5 309,-304.5 467,-304.5 467,-285.5 309,-285.5"/>
<text text-anchor="middle" x="388" y="-292.5" font-family="Helvetica,sans-Serif" font-size="10.00">erpc::RPMsgTTYRTOSTransport</text>
</a>
</g>
</g>
<!-- Node2&#45;&gt;Node8 -->
<g id="edge7" class="edge"><title>Node2&#45;&gt;Node8</title>
<path fill="none" stroke="midnightblue" d="M232.249,-250.96C254.236,-258.71 283.074,-268.479 309,-276 320.512,-279.339 333.092,-282.579 344.723,-285.41"/>
<polygon fill="midnightblue" stroke="midnightblue" points="233.258,-247.605 222.664,-247.557 230.916,-254.201 233.258,-247.605"/>
</g>
<!-- Node9 -->
<g id="node9" class="node"><title>Node9</title>
<g id="a_node9"><a xlink:href="classerpc_1_1_serial_transport.html" target="_top" xlink:title="Serial transport layer for host PC. ">
<polygon fill="white" stroke="black" points="334.5,-247.5 334.5,-266.5 441.5,-266.5 441.5,-247.5 334.5,-247.5"/>
<text text-anchor="middle" x="388" y="-254.5" font-family="Helvetica,sans-Serif" font-size="10.00">erpc::SerialTransport</text>
</a>
</g>
</g>
<!-- Node2&#45;&gt;Node9 -->
<g id="edge8" class="edge"><title>Node2&#45;&gt;Node9</title>
<path fill="none" stroke="midnightblue" d="M263.314,-244.664C286.646,-246.991 312.484,-249.568 334.485,-251.762"/>
<polygon fill="midnightblue" stroke="midnightblue" points="263.439,-241.159 253.141,-243.649 262.744,-248.124 263.439,-241.159"/>
</g>
<!-- Node10 -->
<g id="node10" class="node"><title>Node10</title>
<g id="a_node10"><a xlink:href="classerpc_1_1_spidev_master_transport.html" target="_top" xlink:title="Very basic transport to send/receive messages via SPIdev. ">
<polygon fill="white" stroke="black" points="318,-209.5 318,-228.5 458,-228.5 458,-209.5 318,-209.5"/>
<text text-anchor="middle" x="388" y="-216.5" font-family="Helvetica,sans-Serif" font-size="10.00">erpc::SpidevMasterTransport</text>
</a>
</g>
</g>
<!-- Node2&#45;&gt;Node10 -->
<g id="edge9" class="edge"><title>Node2&#45;&gt;Node10</title>
<path fill="none" stroke="midnightblue" d="M263.334,-231.334C280.961,-229.576 300.018,-227.675 317.769,-225.905"/>
<polygon fill="midnightblue" stroke="midnightblue" points="262.744,-227.876 253.141,-232.351 263.439,-234.841 262.744,-227.876"/>
</g>
<!-- Node11 -->
<g id="node11" class="node"><title>Node11</title>
<g id="a_node11"><a xlink:href="classerpc_1_1_spi_master_transport.html" target="_top" xlink:title="Very basic transport to send/receive messages via SPI. ">
<polygon fill="white" stroke="black" points="325,-171.5 325,-190.5 451,-190.5 451,-171.5 325,-171.5"/>
<text text-anchor="middle" x="388" y="-178.5" font-family="Helvetica,sans-Serif" font-size="10.00">erpc::SpiMasterTransport</text>
</a>
</g>
</g>
<!-- Node2&#45;&gt;Node11 -->
<g id="edge10" class="edge"><title>Node2&#45;&gt;Node11</title>
<path fill="none" stroke="midnightblue" d="M252.807,-225.676C259.687,-223.685 266.557,-221.458 273,-219 289.903,-212.55 292.083,-206.412 309,-200 318.775,-196.295 329.517,-193.131 339.821,-190.507"/>
<polygon fill="midnightblue" stroke="midnightblue" points="251.489,-222.408 242.768,-228.424 253.338,-229.16 251.489,-222.408"/>
</g>
<!-- Node12 -->
<g id="node12" class="node"><title>Node12</title>
<g id="a_node12"><a xlink:href="classerpc_1_1_spi_slave_transport.html" target="_top" xlink:title="Very basic transport to send/receive messages via SPI. ">
<polygon fill="white" stroke="black" points="328.5,-133.5 328.5,-152.5 447.5,-152.5 447.5,-133.5 328.5,-133.5"/>
<text text-anchor="middle" x="388" y="-140.5" font-family="Helvetica,sans-Serif" font-size="10.00">erpc::SpiSlaveTransport</text>
</a>
</g>
</g>
<!-- Node2&#45;&gt;Node12 -->
<g id="edge11" class="edge"><title>Node2&#45;&gt;Node12</title>
<path fill="none" stroke="midnightblue" d="M262.489,-225.255C266.185,-223.439 269.724,-221.366 273,-219 297.291,-201.458 284.67,-179.488 309,-162 314.772,-157.851 321.34,-154.602 328.157,-152.057"/>
<polygon fill="midnightblue" stroke="midnightblue" points="260.877,-222.137 253.034,-229.261 263.608,-228.582 260.877,-222.137"/>
</g>
<!-- Node13 -->
<g id="node13" class="node"><title>Node13</title>
<g id="a_node13"><a xlink:href="classerpc_1_1_t_c_p_transport.html" target="_top" xlink:title="Client side of TCP/IP transport. ">
<polygon fill="white" stroke="black" points="337.5,-95.5 337.5,-114.5 438.5,-114.5 438.5,-95.5 337.5,-95.5"/>
<text text-anchor="middle" x="388" y="-102.5" font-family="Helvetica,sans-Serif" font-size="10.00">erpc::TCPTransport</text>
</a>
</g>
</g>
<!-- Node2&#45;&gt;Node13 -->
<g id="edge12" class="edge"><title>Node2&#45;&gt;Node13</title>
<path fill="none" stroke="midnightblue" d="M262.373,-226.395C266.188,-224.307 269.776,-221.862 273,-219 306.766,-189.024 275.166,-153.9 309,-124 316.937,-116.986 327.036,-112.461 337.314,-109.567"/>
<polygon fill="midnightblue" stroke="midnightblue" points="260.75,-223.289 253.126,-230.646 263.674,-229.649 260.75,-223.289"/>
</g>
<!-- Node14 -->
<g id="node14" class="node"><title>Node14</title>
<g id="a_node14"><a xlink:href="classerpc_1_1_uart_transport.html" target="_top" xlink:title="Very basic transport to send/receive messages via UART. ">
<polygon fill="white" stroke="black" points="338,-57.5 338,-76.5 438,-76.5 438,-57.5 338,-57.5"/>
<text text-anchor="middle" x="388" y="-64.5" font-family="Helvetica,sans-Serif" font-size="10.00">erpc::UartTransport</text>
</a>
</g>
</g>
<!-- Node2&#45;&gt;Node14 -->
<g id="edge13" class="edge"><title>Node2&#45;&gt;Node14</title>
<path fill="none" stroke="midnightblue" d="M242.452,-226.039C253.647,-222.888 264.757,-218.072 273,-210 316.752,-167.153 265.151,-119.748 309,-77 316.784,-69.4111 327.066,-64.6828 337.601,-62.031"/>
<polygon fill="midnightblue" stroke="midnightblue" points="241.552,-222.656 232.662,-228.419 243.206,-229.457 241.552,-222.656"/>
</g>
<!-- Node2&#45;&gt;Node14 -->
<g id="edge14" class="edge"><title>Node2&#45;&gt;Node14</title>
<path fill="none" stroke="midnightblue" d="M262.504,-235.849C266.316,-233.669 269.865,-231.07 273,-228 316.752,-185.153 265.151,-137.748 309,-95 319.678,-84.5895 335.057,-79.5623 349.341,-76.5798"/>
<polygon fill="midnightblue" stroke="midnightblue" points="260.781,-232.791 253.209,-240.201 263.749,-239.131 260.781,-232.791"/>
</g>
<!-- Node15 -->
<g id="node15" class="node"><title>Node15</title>
<g id="a_node15"><a xlink:href="classerpc_1_1_usb_cdc_transport.html" target="_top" xlink:title="Very basic transport to send/receive messages via virtual USB CDC port. ">
<polygon fill="white" stroke="black" points="330,-19.5 330,-38.5 446,-38.5 446,-19.5 330,-19.5"/>
<text text-anchor="middle" x="388" y="-26.5" font-family="Helvetica,sans-Serif" font-size="10.00">erpc::UsbCdcTransport</text>
</a>
</g>
</g>
<!-- Node2&#45;&gt;Node15 -->
<g id="edge15" class="edge"><title>Node2&#45;&gt;Node15</title>
<path fill="none" stroke="midnightblue" d="M262.189,-227.375C266.15,-225.066 269.814,-222.302 273,-219 326.922,-163.104 254.952,-103.775 309,-48 314.723,-42.0946 321.95,-37.9021 329.686,-34.9465"/>
<polygon fill="midnightblue" stroke="midnightblue" points="260.608,-224.251 253.109,-231.735 263.639,-230.561 260.608,-224.251"/>
</g>
</g>
</svg>
