<?xml version="1.0" encoding="UTF-8" standalone="no"?>
<!DOCTYPE svg PUBLIC "-//W3C//DTD SVG 1.1//EN"
 "http://www.w3.org/Graphics/SVG/1.1/DTD/svg11.dtd">
<!-- Generated by graphviz version 2.38.0 (20140413.2041)
 -->
<!-- Title: erpc::BasicCodec Pages: 1 -->
<svg width="238pt" height="163pt"
 viewBox="0.00 0.00 238.00 163.00" xmlns="http://www.w3.org/2000/svg" xmlns:xlink="http://www.w3.org/1999/xlink">
<g id="graph0" class="graph" transform="scale(1 1) rotate(0) translate(4 159)">
<title>erpc::BasicCodec</title>
<polygon fill="white" stroke="none" points="-4,4 -4,-159 234,-159 234,4 -4,4"/>
<!-- Node1 -->
<g id="node1" class="node"><title>Node1</title>
<polygon fill="#bfbfbf" stroke="black" points="68,-0.5 68,-19.5 162,-19.5 162,-0.5 68,-0.5"/>
<text text-anchor="middle" x="115" y="-7.5" font-family="Helvetica,sans-Serif" font-size="10.00">erpc::BasicCodec</text>
</g>
<!-- Node2 -->
<g id="node2" class="node"><title>Node2</title>
<g id="a_node2"><a xlink:href="classerpc_1_1_codec.html" target="_top" xlink:title="Abstract serialization encoder/decoder interface. ">
<polygon fill="white" stroke="black" points="80.5,-57.5 80.5,-76.5 149.5,-76.5 149.5,-57.5 80.5,-57.5"/>
<text text-anchor="middle" x="115" y="-64.5" font-family="Helvetica,sans-Serif" font-size="10.00">erpc::Codec</text>
</a>
</g>
</g>
<!-- Node2&#45;&gt;Node1 -->
<g id="edge1" class="edge"><title>Node2&#45;&gt;Node1</title>
<path fill="none" stroke="midnightblue" d="M115,-47.1166C115,-37.8173 115,-27.0557 115,-19.7149"/>
<polygon fill="midnightblue" stroke="midnightblue" points="111.5,-47.4062 115,-57.4063 118.5,-47.4063 111.5,-47.4062"/>
</g>
<!-- Node3 -->
<g id="node3" class="node"><title>Node3</title>
<g id="a_node3"><a xlink:href="classerpc_1_1_message_buffer_1_1_cursor.html" target="_top" xlink:title="Cursor within a MessageBuffer. ">
<polygon fill="white" stroke="black" points="0,-124.5 0,-154.5 106,-154.5 106,-124.5 0,-124.5"/>
<text text-anchor="start" x="8" y="-142.5" font-family="Helvetica,sans-Serif" font-size="10.00">erpc::MessageBuffer</text>
<text text-anchor="middle" x="53" y="-131.5" font-family="Helvetica,sans-Serif" font-size="10.00">::Cursor</text>
</a>
</g>
</g>
<!-- Node3&#45;&gt;Node2 -->
<g id="edge2" class="edge"><title>Node3&#45;&gt;Node2</title>
<path fill="none" stroke="#9a32cd" stroke-dasharray="5,2" d="M72.4491,-116.385C84.1881,-103.036 98.5057,-86.7556 107.179,-76.8932"/>
<polygon fill="#9a32cd" stroke="#9a32cd" points="69.5223,-114.413 65.5466,-124.233 74.7788,-119.035 69.5223,-114.413"/>
<text text-anchor="middle" x="112" y="-98" font-family="Helvetica,sans-Serif" font-size="10.00"> m_cursor</text>
</g>
<!-- Node4 -->
<g id="node4" class="node"><title>Node4</title>
<g id="a_node4"><a xlink:href="classerpc_1_1_message_buffer.html" target="_top" xlink:title="Represents a memory buffer containing a message. ">
<polygon fill="white" stroke="black" points="124,-130 124,-149 230,-149 230,-130 124,-130"/>
<text text-anchor="middle" x="177" y="-137" font-family="Helvetica,sans-Serif" font-size="10.00">erpc::MessageBuffer</text>
</a>
</g>
</g>
<!-- Node4&#45;&gt;Node2 -->
<g id="edge3" class="edge"><title>Node4&#45;&gt;Node2</title>
<path fill="none" stroke="#9a32cd" stroke-dasharray="5,2" d="M162.75,-122.296C150.28,-108.117 132.644,-88.0626 122.665,-76.7154"/>
<polygon fill="#9a32cd" stroke="#9a32cd" points="160.165,-124.657 169.398,-129.855 165.422,-120.035 160.165,-124.657"/>
<text text-anchor="middle" x="167" y="-98" font-family="Helvetica,sans-Serif" font-size="10.00"> m_buffer</text>
</g>
</g>
</svg>
