<?xml version="1.0" encoding="UTF-8" standalone="no"?>
<!DOCTYPE svg PUBLIC "-//W3C//DTD SVG 1.1//EN"
 "http://www.w3.org/Graphics/SVG/1.1/DTD/svg11.dtd">
<!-- Generated by graphviz version 2.38.0 (20140413.2041)
 -->
<!-- Title: erpc::Transport Pages: 1 -->
<svg width="469pt" height="332pt"
 viewBox="0.00 0.00 469.00 332.00" xmlns="http://www.w3.org/2000/svg" xmlns:xlink="http://www.w3.org/1999/xlink">
<g id="graph0" class="graph" transform="scale(1 1) rotate(0) translate(4 328)">
<title>erpc::Transport</title>
<polygon fill="white" stroke="none" points="-4,4 -4,-328 465,-328 465,4 -4,4"/>
<!-- Node1 -->
<g id="node1" class="node"><title>Node1</title>
<polygon fill="#bfbfbf" stroke="black" points="0,-57.5 0,-76.5 82,-76.5 82,-57.5 0,-57.5"/>
<text text-anchor="middle" x="41" y="-64.5" font-family="Helvetica,sans-Serif" font-size="10.00">erpc::Transport</text>
</g>
<!-- Node2 -->
<g id="node2" class="node"><title>Node2</title>
<g id="a_node2"><a xlink:href="classerpc_1_1_framed_transport.html" target="_top" xlink:title="Base class for framed transport layers. ">
<polygon fill="white" stroke="black" points="138,-171.5 138,-190.5 253,-190.5 253,-171.5 138,-171.5"/>
<text text-anchor="middle" x="195.5" y="-178.5" font-family="Helvetica,sans-Serif" font-size="10.00">erpc::FramedTransport</text>
</a>
</g>
</g>
<!-- Node1&#45;&gt;Node2 -->
<g id="edge1" class="edge"><title>Node1&#45;&gt;Node2</title>
<path fill="none" stroke="midnightblue" d="M62.9694,-82.6755C94.9695,-106.597 155.054,-151.512 181.473,-171.262"/>
<polygon fill="midnightblue" stroke="midnightblue" points="64.8448,-79.7076 54.7398,-76.5235 60.6536,-85.3142 64.8448,-79.7076"/>
</g>
<!-- Node10 -->
<g id="node10" class="node"><title>Node10</title>
<g id="a_node10"><a xlink:href="classerpc_1_1_inter_thread_buffer_transport.html" target="_top" xlink:title="Very basic transport to send/receive messages between threads. ">
<polygon fill="white" stroke="black" points="118,-76.5 118,-95.5 273,-95.5 273,-76.5 118,-76.5"/>
<text text-anchor="middle" x="195.5" y="-83.5" font-family="Helvetica,sans-Serif" font-size="10.00">erpc::InterThreadBufferTransport</text>
</a>
</g>
</g>
<!-- Node1&#45;&gt;Node10 -->
<g id="edge9" class="edge"><title>Node1&#45;&gt;Node10</title>
<path fill="none" stroke="midnightblue" d="M92.0129,-73.2311C100.388,-74.2746 109.244,-75.378 118.103,-76.4817"/>
<polygon fill="midnightblue" stroke="midnightblue" points="92.4236,-69.7553 82.0676,-71.992 91.5581,-76.7016 92.4236,-69.7553"/>
</g>
<!-- Node11 -->
<g id="node11" class="node"><title>Node11</title>
<g id="a_node11"><a xlink:href="classerpc_1_1_r_p_msg_z_c_base_transport.html" target="_top" xlink:title="Transport that other RPMsg transports inherts. ">
<polygon fill="white" stroke="black" points="121,-38.5 121,-57.5 270,-57.5 270,-38.5 121,-38.5"/>
<text text-anchor="middle" x="195.5" y="-45.5" font-family="Helvetica,sans-Serif" font-size="10.00">erpc::RPMsgZCBaseTransport</text>
</a>
</g>
</g>
<!-- Node1&#45;&gt;Node11 -->
<g id="edge10" class="edge"><title>Node1&#45;&gt;Node11</title>
<path fill="none" stroke="midnightblue" d="M92.151,-60.7517C101.328,-59.6084 111.078,-58.3936 120.773,-57.1856"/>
<polygon fill="midnightblue" stroke="midnightblue" points="91.5581,-57.2984 82.0676,-62.008 92.4236,-64.2447 91.5581,-57.2984"/>
</g>
<!-- Node14 -->
<g id="node14" class="node"><title>Node14</title>
<g id="a_node14"><a xlink:href="classerpc_1_1_transport_arbitrator.html" target="_top" xlink:title="Interposer to share transport between client and server. ">
<polygon fill="white" stroke="black" points="134.5,-0.5 134.5,-19.5 256.5,-19.5 256.5,-0.5 134.5,-0.5"/>
<text text-anchor="middle" x="195.5" y="-7.5" font-family="Helvetica,sans-Serif" font-size="10.00">erpc::TransportArbitrator</text>
</a>
</g>
</g>
<!-- Node1&#45;&gt;Node14 -->
<g id="edge13" class="edge"><title>Node1&#45;&gt;Node14</title>
<path fill="none" stroke="midnightblue" d="M67.2873,-52.5941C81.7816,-44.7899 100.517,-35.4521 118,-29 127.886,-25.3517 138.745,-22.1792 149.099,-19.5263"/>
<polygon fill="midnightblue" stroke="midnightblue" points="65.5129,-49.5755 58.4307,-57.4554 68.8811,-55.7118 65.5129,-49.5755"/>
</g>
<!-- Node3 -->
<g id="node3" class="node"><title>Node3</title>
<g id="a_node3"><a xlink:href="classerpc_1_1_dspi_master_transport.html" target="_top" xlink:title="Very basic transport to send/receive messages via DSPI. ">
<polygon fill="white" stroke="black" points="319.5,-304.5 319.5,-323.5 450.5,-323.5 450.5,-304.5 319.5,-304.5"/>
<text text-anchor="middle" x="385" y="-311.5" font-family="Helvetica,sans-Serif" font-size="10.00">erpc::DspiMasterTransport</text>
</a>
</g>
</g>
<!-- Node2&#45;&gt;Node3 -->
<g id="edge2" class="edge"><title>Node2&#45;&gt;Node3</title>
<path fill="none" stroke="midnightblue" d="M209.183,-199.017C228.009,-224.378 265.804,-270.264 309,-295 315.761,-298.871 323.308,-301.964 330.938,-304.432"/>
<polygon fill="midnightblue" stroke="midnightblue" points="211.838,-196.716 203.131,-190.679 206.173,-200.828 211.838,-196.716"/>
</g>
<!-- Node4 -->
<g id="node4" class="node"><title>Node4</title>
<g id="a_node4"><a xlink:href="classerpc_1_1_dspi_slave_transport.html" target="_top" xlink:title="Very basic transport to send/receive messages via DSPI. ">
<polygon fill="white" stroke="black" points="322.5,-266.5 322.5,-285.5 447.5,-285.5 447.5,-266.5 322.5,-266.5"/>
<text text-anchor="middle" x="385" y="-273.5" font-family="Helvetica,sans-Serif" font-size="10.00">erpc::DspiSlaveTransport</text>
</a>
</g>
</g>
<!-- Node2&#45;&gt;Node4 -->
<g id="edge3" class="edge"><title>Node2&#45;&gt;Node4</title>
<path fill="none" stroke="midnightblue" d="M215.837,-197.157C237.317,-214.336 273.645,-241.164 309,-257 317.458,-260.789 326.806,-263.915 335.948,-266.462"/>
<polygon fill="midnightblue" stroke="midnightblue" points="217.813,-194.253 207.846,-190.66 213.397,-199.685 217.813,-194.253"/>
</g>
<!-- Node5 -->
<g id="node5" class="node"><title>Node5</title>
<g id="a_node5"><a xlink:href="classerpc_1_1_serial_transport.html" target="_top" xlink:title="Serial transport layer for host PC. ">
<polygon fill="white" stroke="black" points="331.5,-228.5 331.5,-247.5 438.5,-247.5 438.5,-228.5 331.5,-228.5"/>
<text text-anchor="middle" x="385" y="-235.5" font-family="Helvetica,sans-Serif" font-size="10.00">erpc::SerialTransport</text>
</a>
</g>
</g>
<!-- Node2&#45;&gt;Node5 -->
<g id="edge4" class="edge"><title>Node2&#45;&gt;Node5</title>
<path fill="none" stroke="midnightblue" d="M232.712,-194.029C254.652,-201.723 283.28,-211.411 309,-219 320.208,-222.307 332.46,-225.561 343.752,-228.416"/>
<polygon fill="midnightblue" stroke="midnightblue" points="233.731,-190.677 223.136,-190.649 231.401,-197.278 233.731,-190.677"/>
</g>
<!-- Node6 -->
<g id="node6" class="node"><title>Node6</title>
<g id="a_node6"><a xlink:href="classerpc_1_1_spi_master_transport.html" target="_top" xlink:title="Very basic transport to send/receive messages via SPI. ">
<polygon fill="white" stroke="black" points="322,-190.5 322,-209.5 448,-209.5 448,-190.5 322,-190.5"/>
<text text-anchor="middle" x="385" y="-197.5" font-family="Helvetica,sans-Serif" font-size="10.00">erpc::SpiMasterTransport</text>
</a>
</g>
</g>
<!-- Node2&#45;&gt;Node6 -->
<g id="edge5" class="edge"><title>Node2&#45;&gt;Node6</title>
<path fill="none" stroke="midnightblue" d="M263.116,-187.75C282.192,-189.683 302.908,-191.783 321.713,-193.688"/>
<polygon fill="midnightblue" stroke="midnightblue" points="263.312,-184.252 253.01,-186.726 262.607,-191.217 263.312,-184.252"/>
</g>
<!-- Node7 -->
<g id="node7" class="node"><title>Node7</title>
<g id="a_node7"><a xlink:href="classerpc_1_1_spi_slave_transport.html" target="_top" xlink:title="Very basic transport to send/receive messages via SPI. ">
<polygon fill="white" stroke="black" points="325.5,-152.5 325.5,-171.5 444.5,-171.5 444.5,-152.5 325.5,-152.5"/>
<text text-anchor="middle" x="385" y="-159.5" font-family="Helvetica,sans-Serif" font-size="10.00">erpc::SpiSlaveTransport</text>
</a>
</g>
</g>
<!-- Node2&#45;&gt;Node7 -->
<g id="edge6" class="edge"><title>Node2&#45;&gt;Node7</title>
<path fill="none" stroke="midnightblue" d="M263.123,-174.249C283.428,-172.191 305.592,-169.945 325.331,-167.945"/>
<polygon fill="midnightblue" stroke="midnightblue" points="262.607,-170.783 253.01,-175.274 263.312,-177.748 262.607,-170.783"/>
</g>
<!-- Node8 -->
<g id="node8" class="node"><title>Node8</title>
<g id="a_node8"><a xlink:href="classerpc_1_1_t_c_p_transport.html" target="_top" xlink:title="Client side of TCP/IP transport. ">
<polygon fill="white" stroke="black" points="334.5,-114.5 334.5,-133.5 435.5,-133.5 435.5,-114.5 334.5,-114.5"/>
<text text-anchor="middle" x="385" y="-121.5" font-family="Helvetica,sans-Serif" font-size="10.00">erpc::TCPTransport</text>
</a>
</g>
</g>
<!-- Node2&#45;&gt;Node8 -->
<g id="edge7" class="edge"><title>Node2&#45;&gt;Node8</title>
<path fill="none" stroke="midnightblue" d="M232.712,-167.971C254.652,-160.277 283.28,-150.589 309,-143 320.208,-139.693 332.46,-136.439 343.752,-133.584"/>
<polygon fill="midnightblue" stroke="midnightblue" points="231.401,-164.722 223.136,-171.351 233.731,-171.323 231.401,-164.722"/>
</g>
<!-- Node9 -->
<g id="node9" class="node"><title>Node9</title>
<g id="a_node9"><a xlink:href="classerpc_1_1_uart_transport.html" target="_top" xlink:title="Very basic transport to send/receive messages via UART. ">
<polygon fill="white" stroke="black" points="335,-76.5 335,-95.5 435,-95.5 435,-76.5 335,-76.5"/>
<text text-anchor="middle" x="385" y="-83.5" font-family="Helvetica,sans-Serif" font-size="10.00">erpc::UartTransport</text>
</a>
</g>
</g>
<!-- Node2&#45;&gt;Node9 -->
<g id="edge8" class="edge"><title>Node2&#45;&gt;Node9</title>
<path fill="none" stroke="midnightblue" d="M215.837,-164.843C237.317,-147.664 273.645,-120.836 309,-105 317.458,-101.211 326.806,-98.0847 335.948,-95.5384"/>
<polygon fill="midnightblue" stroke="midnightblue" points="213.397,-162.315 207.846,-171.34 217.813,-167.747 213.397,-162.315"/>
</g>
<!-- Node12 -->
<g id="node12" class="node"><title>Node12</title>
<g id="a_node12"><a xlink:href="classerpc_1_1_r_p_msg_z_c_r_t_o_s_transport.html" target="_top" xlink:title="Transport that uses RPMsg zero copy RTOS API for interprocessor messaging. ">
<polygon fill="white" stroke="black" points="309,-38.5 309,-57.5 461,-57.5 461,-38.5 309,-38.5"/>
<text text-anchor="middle" x="385" y="-45.5" font-family="Helvetica,sans-Serif" font-size="10.00">erpc::RPMsgZCRTOSTransport</text>
</a>
</g>
</g>
<!-- Node11&#45;&gt;Node12 -->
<g id="edge11" class="edge"><title>Node11&#45;&gt;Node12</title>
<path fill="none" stroke="midnightblue" d="M280.296,-48C289.79,-48 299.422,-48 308.796,-48"/>
<polygon fill="midnightblue" stroke="midnightblue" points="280.067,-44.5001 270.067,-48 280.067,-51.5001 280.067,-44.5001"/>
</g>
<!-- Node13 -->
<g id="node13" class="node"><title>Node13</title>
<g id="a_node13"><a xlink:href="classerpc_1_1_r_p_msg_z_c_transport.html" target="_top" xlink:title="Transport that uses RPMsg zero copy API for interprocessor messaging. ">
<polygon fill="white" stroke="black" points="322,-0.5 322,-19.5 448,-19.5 448,-0.5 322,-0.5"/>
<text text-anchor="middle" x="385" y="-7.5" font-family="Helvetica,sans-Serif" font-size="10.00">erpc::RPMsgZCTransport</text>
</a>
</g>
</g>
<!-- Node11&#45;&gt;Node13 -->
<g id="edge12" class="edge"><title>Node11&#45;&gt;Node13</title>
<path fill="none" stroke="midnightblue" d="M253.784,-36.3905C280.451,-30.986 311.781,-24.6365 337.026,-19.5201"/>
<polygon fill="midnightblue" stroke="midnightblue" points="252.92,-32.9944 243.814,-38.411 254.31,-39.8549 252.92,-32.9944"/>
</g>
</g>
</svg>
