<?xml version="1.0" encoding="UTF-8" standalone="no"?>
<!DOCTYPE svg PUBLIC "-//W3C//DTD SVG 1.1//EN"
 "http://www.w3.org/Graphics/SVG/1.1/DTD/svg11.dtd">
<!-- Generated by graphviz version 2.38.0 (20140413.2041)
 -->
<!-- Title: erpc::Server Pages: 1 -->
<svg width="381pt" height="162pt"
 viewBox="0.00 0.00 380.50 162.00" xmlns="http://www.w3.org/2000/svg" xmlns:xlink="http://www.w3.org/1999/xlink">
<g id="graph0" class="graph" transform="scale(1 1) rotate(0) translate(4 158)">
<title>erpc::Server</title>
<polygon fill="white" stroke="none" points="-4,4 -4,-158 376.5,-158 376.5,4 -4,4"/>
<!-- Node1 -->
<g id="node1" class="node"><title>Node1</title>
<polygon fill="#bfbfbf" stroke="black" points="187,-0.5 187,-19.5 255,-19.5 255,-0.5 187,-0.5"/>
<text text-anchor="middle" x="221" y="-7.5" font-family="Helvetica,sans-Serif" font-size="10.00">erpc::Server</text>
</g>
<!-- Node2 -->
<g id="node2" class="node"><title>Node2</title>
<g id="a_node2"><a xlink:href="classerpc_1_1_client_server_common.html" target="_top" xlink:title="Common class inherited by client and server class. ">
<polygon fill="white" stroke="black" points="95,-67.5 95,-86.5 227,-86.5 227,-67.5 95,-67.5"/>
<text text-anchor="middle" x="161" y="-74.5" font-family="Helvetica,sans-Serif" font-size="10.00">erpc::ClientServerCommon</text>
</a>
</g>
</g>
<!-- Node2&#45;&gt;Node1 -->
<g id="edge1" class="edge"><title>Node2&#45;&gt;Node1</title>
<path fill="none" stroke="midnightblue" d="M176.106,-59.6348C187.841,-46.9228 203.648,-29.7978 213.036,-19.6273"/>
<polygon fill="midnightblue" stroke="midnightblue" points="173.303,-57.5118 169.092,-67.2338 178.447,-62.2597 173.303,-57.5118"/>
</g>
<!-- Node3 -->
<g id="node3" class="node"><title>Node3</title>
<g id="a_node3"><a xlink:href="classerpc_1_1_codec_factory.html" target="_top" xlink:title="Abstract interface for codec factory. ">
<polygon fill="white" stroke="black" points="0,-134.5 0,-153.5 102,-153.5 102,-134.5 0,-134.5"/>
<text text-anchor="middle" x="51" y="-141.5" font-family="Helvetica,sans-Serif" font-size="10.00">erpc::CodecFactory</text>
</a>
</g>
</g>
<!-- Node3&#45;&gt;Node2 -->
<g id="edge2" class="edge"><title>Node3&#45;&gt;Node2</title>
<path fill="none" stroke="#9a32cd" stroke-dasharray="5,2" d="M61.4258,-125.701C66.5416,-118.446 73.2711,-110.448 81,-105 92.8614,-96.639 107.513,-90.7069 121.023,-86.5754"/>
<polygon fill="#9a32cd" stroke="#9a32cd" points="58.3848,-123.957 55.8549,-134.245 64.2485,-127.78 58.3848,-123.957"/>
<text text-anchor="middle" x="119" y="-108" font-family="Helvetica,sans-Serif" font-size="10.00"> m_codecFactory</text>
</g>
<!-- Node4 -->
<g id="node4" class="node"><title>Node4</title>
<g id="a_node4"><a xlink:href="classerpc_1_1_transport.html" target="_top" xlink:title="Abstract interface for transport layer. ">
<polygon fill="white" stroke="black" points="120,-134.5 120,-153.5 202,-153.5 202,-134.5 120,-134.5"/>
<text text-anchor="middle" x="161" y="-141.5" font-family="Helvetica,sans-Serif" font-size="10.00">erpc::Transport</text>
</a>
</g>
</g>
<!-- Node4&#45;&gt;Node2 -->
<g id="edge3" class="edge"><title>Node4&#45;&gt;Node2</title>
<path fill="none" stroke="#9a32cd" stroke-dasharray="5,2" d="M161,-124.037C161,-111.67 161,-96.1198 161,-86.6273"/>
<polygon fill="#9a32cd" stroke="#9a32cd" points="157.5,-124.234 161,-134.234 164.5,-124.234 157.5,-124.234"/>
<text text-anchor="middle" x="188.5" y="-108" font-family="Helvetica,sans-Serif" font-size="10.00"> m_transport</text>
</g>
<!-- Node5 -->
<g id="node5" class="node"><title>Node5</title>
<g id="a_node5"><a xlink:href="classerpc_1_1_message_buffer_factory.html" target="_top" xlink:title="Abstract interface for message buffer factory. ">
<polygon fill="white" stroke="black" points="220.5,-134.5 220.5,-153.5 359.5,-153.5 359.5,-134.5 220.5,-134.5"/>
<text text-anchor="middle" x="290" y="-141.5" font-family="Helvetica,sans-Serif" font-size="10.00">erpc::MessageBufferFactory</text>
</a>
</g>
</g>
<!-- Node5&#45;&gt;Node2 -->
<g id="edge4" class="edge"><title>Node5&#45;&gt;Node2</title>
<path fill="none" stroke="#9a32cd" stroke-dasharray="5,2" d="M265.829,-129.351C252.44,-121.925 235.429,-112.707 220,-105 207,-98.5064 192.12,-91.7012 180.556,-86.5474"/>
<polygon fill="#9a32cd" stroke="#9a32cd" points="264.426,-132.576 274.864,-134.395 267.838,-126.464 264.426,-132.576"/>
<text text-anchor="middle" x="285" y="-108" font-family="Helvetica,sans-Serif" font-size="10.00"> m_messageFactory</text>
</g>
<!-- Node6 -->
<g id="node6" class="node"><title>Node6</title>
<g id="a_node6"><a xlink:href="classerpc_1_1_service.html" target="_top" xlink:title="Abstract interface for service, which can be executed on server side. ">
<polygon fill="white" stroke="black" points="245.5,-67.5 245.5,-86.5 318.5,-86.5 318.5,-67.5 245.5,-67.5"/>
<text text-anchor="middle" x="282" y="-74.5" font-family="Helvetica,sans-Serif" font-size="10.00">erpc::Service</text>
</a>
</g>
</g>
<!-- Node6&#45;&gt;Node1 -->
<g id="edge5" class="edge"><title>Node6&#45;&gt;Node1</title>
<path fill="none" stroke="#9a32cd" stroke-dasharray="5,2" d="M266.642,-59.6348C254.712,-46.9228 238.641,-29.7978 229.096,-19.6273"/>
<polygon fill="#9a32cd" stroke="#9a32cd" points="264.378,-62.337 273.773,-67.2338 269.482,-57.5468 264.378,-62.337"/>
<text text-anchor="middle" x="288" y="-41" font-family="Helvetica,sans-Serif" font-size="10.00"> m_firstService</text>
</g>
<!-- Node6&#45;&gt;Node6 -->
<g id="edge6" class="edge"><title>Node6&#45;&gt;Node6</title>
<path fill="none" stroke="#9a32cd" stroke-dasharray="5,2" d="M328.757,-81.9222C333.485,-80.9454 336.5,-79.3047 336.5,-77 336.5,-73.3125 328.78,-71.3247 318.679,-71.0366"/>
<polygon fill="#9a32cd" stroke="#9a32cd" points="328.266,-78.4542 318.679,-82.9634 328.986,-85.4171 328.266,-78.4542"/>
<text text-anchor="middle" x="354.5" y="-74.5" font-family="Helvetica,sans-Serif" font-size="10.00"> m_next</text>
</g>
</g>
</svg>
