<?xml version="1.0" encoding="UTF-8" standalone="no"?>
<!DOCTYPE svg PUBLIC "-//W3C//DTD SVG 1.1//EN"
 "http://www.w3.org/Graphics/SVG/1.1/DTD/svg11.dtd">
<!-- Generated by graphviz version 2.38.0 (20140413.2041)
 -->
<!-- Title: erpc::ClientManager Pages: 1 -->
<svg width="368pt" height="152pt"
 viewBox="0.00 0.00 367.50 152.00" xmlns="http://www.w3.org/2000/svg" xmlns:xlink="http://www.w3.org/1999/xlink">
<g id="graph0" class="graph" transform="scale(1 1) rotate(0) translate(4 148)">
<title>erpc::ClientManager</title>
<polygon fill="white" stroke="none" points="-4,4 -4,-148 363.5,-148 363.5,4 -4,4"/>
<!-- Node1 -->
<g id="node1" class="node"><title>Node1</title>
<polygon fill="#bfbfbf" stroke="black" points="109,-0.5 109,-19.5 213,-19.5 213,-0.5 109,-0.5"/>
<text text-anchor="middle" x="161" y="-7.5" font-family="Helvetica,sans-Serif" font-size="10.00">erpc::ClientManager</text>
</g>
<!-- Node2 -->
<g id="node2" class="node"><title>Node2</title>
<g id="a_node2"><a xlink:href="classerpc_1_1_client_server_common.html" target="_top" xlink:title="Common class inherited by client and server class. ">
<polygon fill="white" stroke="black" points="95,-57.5 95,-76.5 227,-76.5 227,-57.5 95,-57.5"/>
<text text-anchor="middle" x="161" y="-64.5" font-family="Helvetica,sans-Serif" font-size="10.00">erpc::ClientServerCommon</text>
</a>
</g>
</g>
<!-- Node2&#45;&gt;Node1 -->
<g id="edge1" class="edge"><title>Node2&#45;&gt;Node1</title>
<path fill="none" stroke="midnightblue" d="M161,-47.1166C161,-37.8173 161,-27.0557 161,-19.7149"/>
<polygon fill="midnightblue" stroke="midnightblue" points="157.5,-47.4062 161,-57.4063 164.5,-47.4063 157.5,-47.4062"/>
</g>
<!-- Node3 -->
<g id="node3" class="node"><title>Node3</title>
<g id="a_node3"><a xlink:href="classerpc_1_1_codec_factory.html" target="_top" xlink:title="Abstract interface for codec factory. ">
<polygon fill="white" stroke="black" points="0,-124.5 0,-143.5 102,-143.5 102,-124.5 0,-124.5"/>
<text text-anchor="middle" x="51" y="-131.5" font-family="Helvetica,sans-Serif" font-size="10.00">erpc::CodecFactory</text>
</a>
</g>
</g>
<!-- Node3&#45;&gt;Node2 -->
<g id="edge2" class="edge"><title>Node3&#45;&gt;Node2</title>
<path fill="none" stroke="#9a32cd" stroke-dasharray="5,2" d="M61.4258,-115.701C66.5416,-108.446 73.2711,-100.448 81,-95 92.8614,-86.639 107.513,-80.7069 121.023,-76.5754"/>
<polygon fill="#9a32cd" stroke="#9a32cd" points="58.3848,-113.957 55.8549,-124.245 64.2485,-117.78 58.3848,-113.957"/>
<text text-anchor="middle" x="119" y="-98" font-family="Helvetica,sans-Serif" font-size="10.00"> m_codecFactory</text>
</g>
<!-- Node4 -->
<g id="node4" class="node"><title>Node4</title>
<g id="a_node4"><a xlink:href="classerpc_1_1_transport.html" target="_top" xlink:title="Abstract interface for transport layer. ">
<polygon fill="white" stroke="black" points="120,-124.5 120,-143.5 202,-143.5 202,-124.5 120,-124.5"/>
<text text-anchor="middle" x="161" y="-131.5" font-family="Helvetica,sans-Serif" font-size="10.00">erpc::Transport</text>
</a>
</g>
</g>
<!-- Node4&#45;&gt;Node2 -->
<g id="edge3" class="edge"><title>Node4&#45;&gt;Node2</title>
<path fill="none" stroke="#9a32cd" stroke-dasharray="5,2" d="M161,-114.037C161,-101.67 161,-86.1198 161,-76.6273"/>
<polygon fill="#9a32cd" stroke="#9a32cd" points="157.5,-114.234 161,-124.234 164.5,-114.234 157.5,-114.234"/>
<text text-anchor="middle" x="188.5" y="-98" font-family="Helvetica,sans-Serif" font-size="10.00"> m_transport</text>
</g>
<!-- Node5 -->
<g id="node5" class="node"><title>Node5</title>
<g id="a_node5"><a xlink:href="classerpc_1_1_message_buffer_factory.html" target="_top" xlink:title="Abstract interface for message buffer factory. ">
<polygon fill="white" stroke="black" points="220.5,-124.5 220.5,-143.5 359.5,-143.5 359.5,-124.5 220.5,-124.5"/>
<text text-anchor="middle" x="290" y="-131.5" font-family="Helvetica,sans-Serif" font-size="10.00">erpc::MessageBufferFactory</text>
</a>
</g>
</g>
<!-- Node5&#45;&gt;Node2 -->
<g id="edge4" class="edge"><title>Node5&#45;&gt;Node2</title>
<path fill="none" stroke="#9a32cd" stroke-dasharray="5,2" d="M265.829,-119.351C252.44,-111.925 235.429,-102.707 220,-95 207,-88.5064 192.12,-81.7012 180.556,-76.5474"/>
<polygon fill="#9a32cd" stroke="#9a32cd" points="264.426,-122.576 274.864,-124.395 267.838,-116.464 264.426,-122.576"/>
<text text-anchor="middle" x="285" y="-98" font-family="Helvetica,sans-Serif" font-size="10.00"> m_messageFactory</text>
</g>
</g>
</svg>
