<?xml version="1.0" encoding="UTF-8" standalone="no"?>
<!DOCTYPE svg PUBLIC "-//W3C//DTD SVG 1.1//EN"
 "http://www.w3.org/Graphics/SVG/1.1/DTD/svg11.dtd">
<!-- Generated by graphviz version 2.38.0 (20140413.2041)
 -->
<!-- Title: erpc::MessageBufferFactory Pages: 1 -->
<svg width="494pt" height="84pt"
 viewBox="0.00 0.00 494.00 84.00" xmlns="http://www.w3.org/2000/svg" xmlns:xlink="http://www.w3.org/1999/xlink">
<g id="graph0" class="graph" transform="scale(1 1) rotate(0) translate(4 80)">
<title>erpc::MessageBufferFactory</title>
<polygon fill="white" stroke="none" points="-4,4 -4,-80 490,-80 490,4 -4,4"/>
<!-- Node1 -->
<g id="node1" class="node"><title>Node1</title>
<polygon fill="#bfbfbf" stroke="black" points="179.5,-56.5 179.5,-75.5 318.5,-75.5 318.5,-56.5 179.5,-56.5"/>
<text text-anchor="middle" x="249" y="-63.5" font-family="Helvetica,sans-Serif" font-size="10.00">erpc::MessageBufferFactory</text>
</g>
<!-- Node2 -->
<g id="node2" class="node"><title>Node2</title>
<g id="a_node2"><a xlink:href="class_dynamic_message_buffer_factory.html" target="_top" xlink:title="DynamicMessageBufferFactory">
<polygon fill="white" stroke="black" points="0,-0.5 0,-19.5 152,-19.5 152,-0.5 0,-0.5"/>
<text text-anchor="middle" x="76" y="-7.5" font-family="Helvetica,sans-Serif" font-size="10.00">DynamicMessageBufferFactory</text>
</a>
</g>
</g>
<!-- Node1&#45;&gt;Node2 -->
<g id="edge1" class="edge"><title>Node1&#45;&gt;Node2</title>
<path fill="none" stroke="midnightblue" d="M211.953,-53.4363C179.336,-43.2551 132.59,-28.664 103.284,-19.5164"/>
<polygon fill="midnightblue" stroke="midnightblue" points="210.999,-56.8049 221.588,-56.4435 213.085,-50.1228 210.999,-56.8049"/>
</g>
<!-- Node3 -->
<g id="node3" class="node"><title>Node3</title>
<g id="a_node3"><a xlink:href="class_r_p_msg_z_c_message_buffer_factory.html" target="_top" xlink:title="RPMsg zero copy message buffer factory. ">
<polygon fill="white" stroke="black" points="170,-0.5 170,-19.5 328,-19.5 328,-0.5 170,-0.5"/>
<text text-anchor="middle" x="249" y="-7.5" font-family="Helvetica,sans-Serif" font-size="10.00">RPMsgZCMessageBufferFactory</text>
</a>
</g>
</g>
<!-- Node1&#45;&gt;Node3 -->
<g id="edge2" class="edge"><title>Node1&#45;&gt;Node3</title>
<path fill="none" stroke="midnightblue" d="M249,-45.8045C249,-36.9102 249,-26.7798 249,-19.7511"/>
<polygon fill="midnightblue" stroke="midnightblue" points="245.5,-46.083 249,-56.083 252.5,-46.083 245.5,-46.083"/>
</g>
<!-- Node4 -->
<g id="node4" class="node"><title>Node4</title>
<g id="a_node4"><a xlink:href="class_static_message_buffer_factory.html" target="_top" xlink:title="Static Message buffer factory. ">
<polygon fill="white" stroke="black" points="346,-0.5 346,-19.5 486,-19.5 486,-0.5 346,-0.5"/>
<text text-anchor="middle" x="416" y="-7.5" font-family="Helvetica,sans-Serif" font-size="10.00">StaticMessageBufferFactory</text>
</a>
</g>
</g>
<!-- Node1&#45;&gt;Node4 -->
<g id="edge3" class="edge"><title>Node1&#45;&gt;Node4</title>
<path fill="none" stroke="midnightblue" d="M285.17,-53.3044C316.637,-43.1294 361.494,-28.6246 389.662,-19.5164"/>
<polygon fill="midnightblue" stroke="midnightblue" points="283.9,-50.0366 275.462,-56.4435 286.053,-56.697 283.9,-50.0366"/>
</g>
</g>
</svg>
