<?xml version="1.0" encoding="UTF-8" standalone="no"?>
<!DOCTYPE svg PUBLIC "-//W3C//DTD SVG 1.1//EN"
 "http://www.w3.org/Graphics/SVG/1.1/DTD/svg11.dtd">
<!-- Generated by graphviz version 2.38.0 (20140413.2041)
 -->
<!-- Title: erpc::UartTransport Pages: 1 -->
<svg width="309pt" height="184pt"
 viewBox="0.00 0.00 308.50 184.00" xmlns="http://www.w3.org/2000/svg" xmlns:xlink="http://www.w3.org/1999/xlink">
<g id="graph0" class="graph" transform="scale(1 1) rotate(0) translate(4 180)">
<title>erpc::UartTransport</title>
<polygon fill="white" stroke="none" points="-4,4 -4,-180 304.5,-180 304.5,4 -4,4"/>
<!-- Node1 -->
<g id="node1" class="node"><title>Node1</title>
<polygon fill="#bfbfbf" stroke="black" points="84,-0.5 84,-19.5 184,-19.5 184,-0.5 84,-0.5"/>
<text text-anchor="middle" x="134" y="-7.5" font-family="Helvetica,sans-Serif" font-size="10.00">erpc::UartTransport</text>
</g>
<!-- Node2 -->
<g id="node2" class="node"><title>Node2</title>
<g id="a_node2"><a xlink:href="classerpc_1_1_framed_transport.html" target="_top" xlink:title="Base class for framed transport layers. ">
<polygon fill="white" stroke="black" points="76.5,-78.5 76.5,-97.5 191.5,-97.5 191.5,-78.5 76.5,-78.5"/>
<text text-anchor="middle" x="134" y="-85.5" font-family="Helvetica,sans-Serif" font-size="10.00">erpc::FramedTransport</text>
</a>
</g>
</g>
<!-- Node2&#45;&gt;Node1 -->
<g id="edge1" class="edge"><title>Node2&#45;&gt;Node1</title>
<path fill="none" stroke="midnightblue" d="M128.085,-68.2239C126.609,-52.6974 127.09,-31.3582 129.527,-19.6165"/>
<polygon fill="midnightblue" stroke="midnightblue" points="124.642,-68.8697 129.506,-78.2818 131.573,-67.8906 124.642,-68.8697"/>
</g>
<!-- Node2&#45;&gt;Node1 -->
<g id="edge5" class="edge"><title>Node2&#45;&gt;Node1</title>
<path fill="none" stroke="midnightblue" d="M139.915,-68.2239C141.391,-52.6974 140.91,-31.3582 138.473,-19.6165"/>
<polygon fill="midnightblue" stroke="midnightblue" points="136.427,-67.8906 138.494,-78.2818 143.358,-68.8697 136.427,-67.8906"/>
</g>
<!-- Node3 -->
<g id="node3" class="node"><title>Node3</title>
<g id="a_node3"><a xlink:href="classerpc_1_1_transport.html" target="_top" xlink:title="Abstract interface for transport layer. ">
<polygon fill="white" stroke="black" points="0,-156.5 0,-175.5 82,-175.5 82,-156.5 0,-156.5"/>
<text text-anchor="middle" x="41" y="-163.5" font-family="Helvetica,sans-Serif" font-size="10.00">erpc::Transport</text>
</a>
</g>
</g>
<!-- Node3&#45;&gt;Node2 -->
<g id="edge2" class="edge"><title>Node3&#45;&gt;Node2</title>
<path fill="none" stroke="midnightblue" d="M59.4282,-149.94C78.5857,-134.285 107.902,-110.327 123.456,-97.6165"/>
<polygon fill="midnightblue" stroke="midnightblue" points="57.1968,-147.244 51.6683,-156.282 61.6263,-152.664 57.1968,-147.244"/>
</g>
<!-- Node4 -->
<g id="node4" class="node"><title>Node4</title>
<g id="a_node4"><a xlink:href="classerpc_1_1_mutex.html" target="_top" xlink:title="Mutex. ">
<polygon fill="white" stroke="black" points="100,-156.5 100,-175.5 168,-175.5 168,-156.5 100,-156.5"/>
<text text-anchor="middle" x="134" y="-163.5" font-family="Helvetica,sans-Serif" font-size="10.00">erpc::Mutex</text>
</a>
</g>
</g>
<!-- Node4&#45;&gt;Node2 -->
<g id="edge3" class="edge"><title>Node4&#45;&gt;Node2</title>
<path fill="none" stroke="#9a32cd" stroke-dasharray="5,2" d="M134,-146.224C134,-130.697 134,-109.358 134,-97.6165"/>
<polygon fill="#9a32cd" stroke="#9a32cd" points="130.5,-146.282 134,-156.282 137.5,-146.282 130.5,-146.282"/>
<text text-anchor="middle" x="166.5" y="-130" font-family="Helvetica,sans-Serif" font-size="10.00"> m_sendLock</text>
<text text-anchor="middle" x="166.5" y="-119" font-family="Helvetica,sans-Serif" font-size="10.00">m_receiveLock</text>
</g>
<!-- Node5 -->
<g id="node5" class="node"><title>Node5</title>
<g id="a_node5"><a xlink:href="classerpc_1_1_crc16.html" target="_top" xlink:title="Class for compute crc16. ">
<polygon fill="white" stroke="black" points="188.5,-156.5 188.5,-175.5 255.5,-175.5 255.5,-156.5 188.5,-156.5"/>
<text text-anchor="middle" x="222" y="-163.5" font-family="Helvetica,sans-Serif" font-size="10.00">erpc::Crc16</text>
</a>
</g>
</g>
<!-- Node5&#45;&gt;Node2 -->
<g id="edge4" class="edge"><title>Node5&#45;&gt;Node2</title>
<path fill="none" stroke="#9a32cd" stroke-dasharray="5,2" d="M217.302,-146.319C213.935,-136.224 208.468,-124.187 200,-116 191.278,-107.567 179.562,-101.633 168.422,-97.522"/>
<polygon fill="#9a32cd" stroke="#9a32cd" points="214.03,-147.604 220.173,-156.236 220.754,-145.657 214.03,-147.604"/>
<text text-anchor="middle" x="239.5" y="-124.5" font-family="Helvetica,sans-Serif" font-size="10.00"> m_crcImpl</text>
</g>
<!-- Node6 -->
<g id="node6" class="node"><title>Node6</title>
<g id="a_node6"><a xlink:href="classerpc_1_1_semaphore.html" target="_top" xlink:title="Simple semaphore class. ">
<polygon fill="white" stroke="black" points="209.5,-78.5 209.5,-97.5 300.5,-97.5 300.5,-78.5 209.5,-78.5"/>
<text text-anchor="middle" x="255" y="-85.5" font-family="Helvetica,sans-Serif" font-size="10.00">erpc::Semaphore</text>
</a>
</g>
</g>
<!-- Node6&#45;&gt;Node1 -->
<g id="edge6" class="edge"><title>Node6&#45;&gt;Node1</title>
<path fill="none" stroke="#9a32cd" stroke-dasharray="5,2" d="M232.352,-72.7747C207.472,-57.1479 168.318,-32.5551 147.718,-19.6165"/>
<polygon fill="#9a32cd" stroke="#9a32cd" points="230.79,-75.9268 241.12,-78.2818 234.513,-69.9991 230.79,-75.9268"/>
<text text-anchor="middle" x="246.5" y="-52" font-family="Helvetica,sans-Serif" font-size="10.00"> m_txSemaphore</text>
<text text-anchor="middle" x="246.5" y="-41" font-family="Helvetica,sans-Serif" font-size="10.00">m_rxSemaphore</text>
</g>
</g>
</svg>
