<?xml version="1.0" encoding="UTF-8" standalone="no"?>
<!DOCTYPE svg PUBLIC "-//W3C//DTD SVG 1.1//EN"
 "http://www.w3.org/Graphics/SVG/1.1/DTD/svg11.dtd">
<!-- Generated by graphviz version 2.38.0 (20140413.2041)
 -->
<!-- Title: erpc::ArbitratedClientManager Pages: 1 -->
<svg width="1259pt" height="307pt"
 viewBox="0.00 0.00 1259.00 306.50" xmlns="http://www.w3.org/2000/svg" xmlns:xlink="http://www.w3.org/1999/xlink">
<g id="graph0" class="graph" transform="scale(1 1) rotate(0) translate(4 302.5)">
<title>erpc::ArbitratedClientManager</title>
<polygon fill="white" stroke="none" points="-4,4 -4,-302.5 1255,-302.5 1255,4 -4,4"/>
<!-- Node1 -->
<g id="node1" class="node"><title>Node1</title>
<polygon fill="#bfbfbf" stroke="black" points="1105,-171 1105,-190 1251,-190 1251,-171 1105,-171"/>
<text text-anchor="middle" x="1178" y="-178" font-family="Helvetica,sans-Serif" font-size="10.00">erpc::ArbitratedClientManager</text>
</g>
<!-- Node2 -->
<g id="node2" class="node"><title>Node2</title>
<g id="a_node2"><a xlink:href="classerpc_1_1_client_manager.html" target="_top" xlink:title="Base client implementation. ">
<polygon fill="white" stroke="black" points="964,-201 964,-220 1068,-220 1068,-201 964,-201"/>
<text text-anchor="middle" x="1016" y="-208" font-family="Helvetica,sans-Serif" font-size="10.00">erpc::ClientManager</text>
</a>
</g>
</g>
<!-- Node2&#45;&gt;Node1 -->
<g id="edge1" class="edge"><title>Node2&#45;&gt;Node1</title>
<path fill="none" stroke="midnightblue" d="M1078.28,-199.01C1094.09,-196.046 1110.93,-192.888 1126.15,-190.035"/>
<polygon fill="midnightblue" stroke="midnightblue" points="1077.25,-195.642 1068.06,-200.925 1078.54,-202.522 1077.25,-195.642"/>
</g>
<!-- Node3 -->
<g id="node3" class="node"><title>Node3</title>
<g id="a_node3"><a xlink:href="classerpc_1_1_client_server_common.html" target="_top" xlink:title="Common class inherited by client and server class. ">
<polygon fill="white" stroke="black" points="795,-224 795,-243 927,-243 927,-224 795,-224"/>
<text text-anchor="middle" x="861" y="-231" font-family="Helvetica,sans-Serif" font-size="10.00">erpc::ClientServerCommon</text>
</a>
</g>
</g>
<!-- Node3&#45;&gt;Node2 -->
<g id="edge2" class="edge"><title>Node3&#45;&gt;Node2</title>
<path fill="none" stroke="midnightblue" d="M935.537,-222.445C945.16,-220.999 954.845,-219.543 963.983,-218.169"/>
<polygon fill="midnightblue" stroke="midnightblue" points="934.925,-218.998 925.557,-223.946 935.966,-225.92 934.925,-218.998"/>
</g>
<!-- Node4 -->
<g id="node4" class="node"><title>Node4</title>
<g id="a_node4"><a xlink:href="classerpc_1_1_codec_factory.html" target="_top" xlink:title="Abstract interface for codec factory. ">
<polygon fill="white" stroke="black" points="548.5,-279 548.5,-298 650.5,-298 650.5,-279 548.5,-279"/>
<text text-anchor="middle" x="599.5" y="-286" font-family="Helvetica,sans-Serif" font-size="10.00">erpc::CodecFactory</text>
</a>
</g>
</g>
<!-- Node4&#45;&gt;Node3 -->
<g id="edge3" class="edge"><title>Node4&#45;&gt;Node3</title>
<path fill="none" stroke="#9a32cd" stroke-dasharray="5,2" d="M661.07,-281.288C695.35,-276.609 738.863,-269.668 777,-260.5 796.448,-255.825 817.907,-248.792 834.133,-243.077"/>
<polygon fill="#9a32cd" stroke="#9a32cd" points="660.193,-277.874 650.744,-282.667 661.119,-284.812 660.193,-277.874"/>
<text text-anchor="middle" x="732" y="-280.5" font-family="Helvetica,sans-Serif" font-size="10.00"> m_codecFactory</text>
</g>
<!-- Node5 -->
<g id="node5" class="node"><title>Node5</title>
<g id="a_node5"><a xlink:href="classerpc_1_1_transport.html" target="_top" xlink:title="Abstract interface for transport layer. ">
<polygon fill="white" stroke="black" points="558.5,-174 558.5,-193 640.5,-193 640.5,-174 558.5,-174"/>
<text text-anchor="middle" x="599.5" y="-181" font-family="Helvetica,sans-Serif" font-size="10.00">erpc::Transport</text>
</a>
</g>
</g>
<!-- Node5&#45;&gt;Node3 -->
<g id="edge4" class="edge"><title>Node5&#45;&gt;Node3</title>
<path fill="none" stroke="#9a32cd" stroke-dasharray="5,2" d="M650.811,-193.194C696.822,-202.059 764.498,-215.099 810.312,-223.926"/>
<polygon fill="#9a32cd" stroke="#9a32cd" points="651.244,-189.713 640.762,-191.258 649.919,-196.586 651.244,-189.713"/>
<text text-anchor="middle" x="732" y="-220.5" font-family="Helvetica,sans-Serif" font-size="10.00"> m_transport</text>
</g>
<!-- Node7 -->
<g id="node7" class="node"><title>Node7</title>
<g id="a_node7"><a xlink:href="classerpc_1_1_transport_arbitrator.html" target="_top" xlink:title="Interposer to share transport between client and server. ">
<polygon fill="white" stroke="black" points="800,-118 800,-137 922,-137 922,-118 800,-118"/>
<text text-anchor="middle" x="861" y="-125" font-family="Helvetica,sans-Serif" font-size="10.00">erpc::TransportArbitrator</text>
</a>
</g>
</g>
<!-- Node5&#45;&gt;Node7 -->
<g id="edge7" class="edge"><title>Node5&#45;&gt;Node7</title>
<path fill="none" stroke="midnightblue" d="M650.73,-184.65C686.552,-184.24 735.52,-181.15 777,-169.5 802.499,-162.338 829.39,-147.116 845.426,-137.099"/>
<polygon fill="midnightblue" stroke="midnightblue" points="650.509,-181.151 640.526,-184.7 650.543,-188.151 650.509,-181.151"/>
</g>
<!-- Node5&#45;&gt;Node7 -->
<g id="edge12" class="edge"><title>Node5&#45;&gt;Node7</title>
<path fill="none" stroke="#9a32cd" stroke-dasharray="5,2" d="M637.462,-170.743C652.676,-165.813 670.556,-160.425 687,-156.5 724.175,-147.626 766.478,-140.483 799.947,-135.507"/>
<polygon fill="#9a32cd" stroke="#9a32cd" points="636.294,-167.443 627.892,-173.897 638.485,-174.091 636.294,-167.443"/>
<text text-anchor="middle" x="732" y="-159.5" font-family="Helvetica,sans-Serif" font-size="10.00"> m_sharedTransport</text>
</g>
<!-- Node6 -->
<g id="node6" class="node"><title>Node6</title>
<g id="a_node6"><a xlink:href="classerpc_1_1_message_buffer_factory.html" target="_top" xlink:title="Abstract interface for message buffer factory. ">
<polygon fill="white" stroke="black" points="530,-241 530,-260 669,-260 669,-241 530,-241"/>
<text text-anchor="middle" x="599.5" y="-248" font-family="Helvetica,sans-Serif" font-size="10.00">erpc::MessageBufferFactory</text>
</a>
</g>
</g>
<!-- Node6&#45;&gt;Node3 -->
<g id="edge5" class="edge"><title>Node6&#45;&gt;Node3</title>
<path fill="none" stroke="#9a32cd" stroke-dasharray="5,2" d="M679.245,-245.341C716.159,-242.923 759.622,-240.076 794.678,-237.779"/>
<polygon fill="#9a32cd" stroke="#9a32cd" points="678.77,-241.865 669.02,-246.011 679.227,-248.85 678.77,-241.865"/>
<text text-anchor="middle" x="732" y="-248.5" font-family="Helvetica,sans-Serif" font-size="10.00"> m_messageFactory</text>
</g>
<!-- Node7&#45;&gt;Node1 -->
<g id="edge6" class="edge"><title>Node7&#45;&gt;Node1</title>
<path fill="none" stroke="#9a32cd" stroke-dasharray="5,2" d="M928.669,-138.717C985.635,-148.302 1066.69,-161.939 1120.51,-170.995"/>
<polygon fill="#9a32cd" stroke="#9a32cd" points="929.122,-135.244 918.679,-137.037 927.96,-142.147 929.122,-135.244"/>
<text text-anchor="middle" x="1016" y="-165.5" font-family="Helvetica,sans-Serif" font-size="10.00"> m_arbitrator</text>
</g>
<!-- Node8 -->
<g id="node8" class="node"><title>Node8</title>
<g id="a_node8"><a xlink:href="classerpc_1_1_mutex.html" target="_top" xlink:title="Mutex. ">
<polygon fill="white" stroke="black" points="565.5,-117 565.5,-136 633.5,-136 633.5,-117 565.5,-117"/>
<text text-anchor="middle" x="599.5" y="-124" font-family="Helvetica,sans-Serif" font-size="10.00">erpc::Mutex</text>
</a>
</g>
</g>
<!-- Node8&#45;&gt;Node7 -->
<g id="edge8" class="edge"><title>Node8&#45;&gt;Node7</title>
<path fill="none" stroke="#9a32cd" stroke-dasharray="5,2" d="M643.954,-125.299C657.719,-124.971 672.996,-124.662 687,-124.5 726.997,-124.038 737.007,-123.777 777,-124.5 784.353,-124.633 792.07,-124.832 799.714,-125.065"/>
<polygon fill="#9a32cd" stroke="#9a32cd" points="643.679,-121.805 633.768,-125.551 643.852,-128.802 643.679,-121.805"/>
<text text-anchor="middle" x="732" y="-127.5" font-family="Helvetica,sans-Serif" font-size="10.00"> m_clientListMutex</text>
</g>
<!-- Node9 -->
<g id="node9" class="node"><title>Node9</title>
<g id="a_node9"><a xlink:href="classerpc_1_1_codec.html" target="_top" xlink:title="Abstract serialization encoder/decoder interface. ">
<polygon fill="white" stroke="black" points="186,-53 186,-72 255,-72 255,-53 186,-53"/>
<text text-anchor="middle" x="220.5" y="-60" font-family="Helvetica,sans-Serif" font-size="10.00">erpc::Codec</text>
</a>
</g>
</g>
<!-- Node9&#45;&gt;Node7 -->
<g id="edge9" class="edge"><title>Node9&#45;&gt;Node7</title>
<path fill="none" stroke="#9a32cd" stroke-dasharray="5,2" d="M265.398,-66.854C345.573,-74.8194 521.069,-92.3171 669,-107.5 712.78,-111.993 762.193,-117.17 799.79,-121.131"/>
<polygon fill="#9a32cd" stroke="#9a32cd" points="265.484,-63.3453 255.187,-65.8398 264.792,-70.311 265.484,-63.3453"/>
<text text-anchor="middle" x="487.5" y="-94.5" font-family="Helvetica,sans-Serif" font-size="10.00"> m_codec</text>
</g>
<!-- Node14 -->
<g id="node14" class="node"><title>Node14</title>
<g id="a_node14"><a xlink:href="classerpc_1_1_request_context.html" target="_top" xlink:title="Encapsulates all information about a request. ">
<polygon fill="white" stroke="black" points="334,-3 334,-22 445,-22 445,-3 334,-3"/>
<text text-anchor="middle" x="389.5" y="-10" font-family="Helvetica,sans-Serif" font-size="10.00">erpc::RequestContext</text>
</a>
</g>
</g>
<!-- Node9&#45;&gt;Node14 -->
<g id="edge17" class="edge"><title>Node9&#45;&gt;Node14</title>
<path fill="none" stroke="#9a32cd" stroke-dasharray="5,2" d="M263.121,-50.0387C292.033,-41.3822 329.985,-30.0193 356.53,-22.0719"/>
<polygon fill="#9a32cd" stroke="#9a32cd" points="261.88,-46.7565 253.305,-52.9777 263.888,-53.4624 261.88,-46.7565"/>
<text text-anchor="middle" x="294.5" y="-49.5" font-family="Helvetica,sans-Serif" font-size="10.00"> m_codec</text>
</g>
<!-- Node10 -->
<g id="node10" class="node"><title>Node10</title>
<g id="a_node10"><a xlink:href="classerpc_1_1_message_buffer_1_1_cursor.html" target="_top" xlink:title="Cursor within a MessageBuffer. ">
<polygon fill="white" stroke="black" points="0,-69.5 0,-99.5 106,-99.5 106,-69.5 0,-69.5"/>
<text text-anchor="start" x="8" y="-87.5" font-family="Helvetica,sans-Serif" font-size="10.00">erpc::MessageBuffer</text>
<text text-anchor="middle" x="53" y="-76.5" font-family="Helvetica,sans-Serif" font-size="10.00">::Cursor</text>
</a>
</g>
</g>
<!-- Node10&#45;&gt;Node9 -->
<g id="edge10" class="edge"><title>Node10&#45;&gt;Node9</title>
<path fill="none" stroke="#9a32cd" stroke-dasharray="5,2" d="M116.288,-76.22C139.836,-73.0898 165.742,-69.6461 185.709,-66.9918"/>
<polygon fill="#9a32cd" stroke="#9a32cd" points="115.817,-72.7518 106.365,-77.5391 116.739,-79.6907 115.817,-72.7518"/>
<text text-anchor="middle" x="146" y="-78.5" font-family="Helvetica,sans-Serif" font-size="10.00"> m_cursor</text>
</g>
<!-- Node11 -->
<g id="node11" class="node"><title>Node11</title>
<g id="a_node11"><a xlink:href="classerpc_1_1_message_buffer.html" target="_top" xlink:title="Represents a memory buffer containing a message. ">
<polygon fill="white" stroke="black" points="0,-31 0,-50 106,-50 106,-31 0,-31"/>
<text text-anchor="middle" x="53" y="-38" font-family="Helvetica,sans-Serif" font-size="10.00">erpc::MessageBuffer</text>
</a>
</g>
</g>
<!-- Node11&#45;&gt;Node9 -->
<g id="edge11" class="edge"><title>Node11&#45;&gt;Node9</title>
<path fill="none" stroke="#9a32cd" stroke-dasharray="5,2" d="M116.446,-48.6677C133.192,-50.8713 151.287,-53.2646 168,-55.5 173.813,-56.2775 179.995,-57.1115 185.982,-57.9231"/>
<polygon fill="#9a32cd" stroke="#9a32cd" points="116.589,-45.1565 106.218,-47.3233 115.677,-52.0968 116.589,-45.1565"/>
<text text-anchor="middle" x="146" y="-58.5" font-family="Helvetica,sans-Serif" font-size="10.00"> m_buffer</text>
</g>
<!-- Node12 -->
<g id="node12" class="node"><title>Node12</title>
<g id="a_node12"><a xlink:href="structerpc_1_1_transport_arbitrator_1_1_pending_client_info.html" target="_top" xlink:title="Request info for a client trying to receive a response. ">
<polygon fill="white" stroke="black" points="538.5,-0.5 538.5,-30.5 660.5,-30.5 660.5,-0.5 538.5,-0.5"/>
<text text-anchor="start" x="546.5" y="-18.5" font-family="Helvetica,sans-Serif" font-size="10.00">erpc::TransportArbitrator</text>
<text text-anchor="middle" x="599.5" y="-7.5" font-family="Helvetica,sans-Serif" font-size="10.00">::PendingClientInfo</text>
</a>
</g>
</g>
<!-- Node12&#45;&gt;Node7 -->
<g id="edge13" class="edge"><title>Node12&#45;&gt;Node7</title>
<path fill="none" stroke="#9a32cd" stroke-dasharray="5,2" d="M670.915,-21.639C704.437,-26.6744 744.253,-35.8357 777,-52.5 809.541,-69.0593 839.05,-101.745 852.43,-117.941"/>
<polygon fill="#9a32cd" stroke="#9a32cd" points="671.119,-18.1333 660.729,-20.205 670.144,-25.065 671.119,-18.1333"/>
<text text-anchor="middle" x="732" y="-66.5" font-family="Helvetica,sans-Serif" font-size="10.00"> m_clientFreeList</text>
<text text-anchor="middle" x="732" y="-55.5" font-family="Helvetica,sans-Serif" font-size="10.00">m_clientList</text>
</g>
<!-- Node12&#45;&gt;Node12 -->
<g id="edge15" class="edge"><title>Node12&#45;&gt;Node12</title>
<path fill="none" stroke="#9a32cd" stroke-dasharray="5,2" d="M579.599,-40.9579C582.069,-45.679 588.703,-49 599.5,-49 617.219,-49 623.725,-40.0566 619.018,-30.659"/>
<polygon fill="#9a32cd" stroke="#9a32cd" points="583.108,-40.7821 579.982,-30.659 576.113,-40.5221 583.108,-40.7821"/>
<text text-anchor="middle" x="599.5" y="-52" font-family="Helvetica,sans-Serif" font-size="10.00"> m_next</text>
</g>
<!-- Node13 -->
<g id="node13" class="node"><title>Node13</title>
<g id="a_node13"><a xlink:href="classerpc_1_1_semaphore.html" target="_top" xlink:title="Simple semaphore class. ">
<polygon fill="white" stroke="black" points="344,-41 344,-60 435,-60 435,-41 344,-41"/>
<text text-anchor="middle" x="389.5" y="-48" font-family="Helvetica,sans-Serif" font-size="10.00">erpc::Semaphore</text>
</a>
</g>
</g>
<!-- Node13&#45;&gt;Node12 -->
<g id="edge14" class="edge"><title>Node13&#45;&gt;Node12</title>
<path fill="none" stroke="#9a32cd" stroke-dasharray="5,2" d="M445.327,-41.2743C473.878,-36.4701 508.851,-30.5852 538.168,-25.6521"/>
<polygon fill="#9a32cd" stroke="#9a32cd" points="444.402,-37.8807 435.121,-42.9916 445.563,-44.7837 444.402,-37.8807"/>
<text text-anchor="middle" x="487.5" y="-41.5" font-family="Helvetica,sans-Serif" font-size="10.00"> m_sem</text>
</g>
<!-- Node14&#45;&gt;Node12 -->
<g id="edge16" class="edge"><title>Node14&#45;&gt;Node12</title>
<path fill="none" stroke="#9a32cd" stroke-dasharray="5,2" d="M455.469,-13.4371C481.956,-13.8191 512.394,-14.2581 538.364,-14.6327"/>
<polygon fill="#9a32cd" stroke="#9a32cd" points="455.199,-9.93289 445.15,-13.2882 455.098,-16.9322 455.199,-9.93289"/>
<text text-anchor="middle" x="487.5" y="-17.5" font-family="Helvetica,sans-Serif" font-size="10.00"> m_request</text>
</g>
</g>
</svg>
