<?xml version="1.0" encoding="UTF-8" standalone="no"?>
<!DOCTYPE svg PUBLIC "-//W3C//DTD SVG 1.1//EN"
 "http://www.w3.org/Graphics/SVG/1.1/DTD/svg11.dtd">
<!-- Generated by graphviz version 2.38.0 (20140413.2041)
 -->
<!-- Title: erpc::RPMsgBase Pages: 1 -->
<svg width="456pt" height="84pt"
 viewBox="0.00 0.00 456.00 84.00" xmlns="http://www.w3.org/2000/svg" xmlns:xlink="http://www.w3.org/1999/xlink">
<g id="graph0" class="graph" transform="scale(1 1) rotate(0) translate(4 80)">
<title>erpc::RPMsgBase</title>
<polygon fill="white" stroke="none" points="-4,4 -4,-80 452,-80 452,4 -4,4"/>
<!-- Node1 -->
<g id="node1" class="node"><title>Node1</title>
<polygon fill="#bfbfbf" stroke="black" points="167,-56.5 167,-75.5 263,-75.5 263,-56.5 167,-56.5"/>
<text text-anchor="middle" x="215" y="-63.5" font-family="Helvetica,sans-Serif" font-size="10.00">erpc::RPMsgBase</text>
</g>
<!-- Node2 -->
<g id="node2" class="node"><title>Node2</title>
<g id="a_node2"><a xlink:href="classerpc_1_1_r_p_msg_r_t_o_s_transport.html" target="_top" xlink:title="Transport that uses RPMsg zero copy RTOS API for interprocessor messaging. ">
<polygon fill="white" stroke="black" points="0,-0.5 0,-19.5 140,-19.5 140,-0.5 0,-0.5"/>
<text text-anchor="middle" x="70" y="-7.5" font-family="Helvetica,sans-Serif" font-size="10.00">erpc::RPMsgRTOSTransport</text>
</a>
</g>
</g>
<!-- Node1&#45;&gt;Node2 -->
<g id="edge1" class="edge"><title>Node1&#45;&gt;Node2</title>
<path fill="none" stroke="midnightblue" d="M182.525,-52.9058C155.264,-42.7536 117.008,-28.5063 92.8682,-19.5164"/>
<polygon fill="midnightblue" stroke="midnightblue" points="181.432,-56.2334 192.024,-56.4435 183.875,-49.6736 181.432,-56.2334"/>
</g>
<!-- Node3 -->
<g id="node3" class="node"><title>Node3</title>
<g id="a_node3"><a xlink:href="classerpc_1_1_r_p_msg_transport.html" target="_top" xlink:title="Transport that uses RPMsg zero copy API for interprocessor messaging. ">
<polygon fill="white" stroke="black" points="158,-0.5 158,-19.5 272,-19.5 272,-0.5 158,-0.5"/>
<text text-anchor="middle" x="215" y="-7.5" font-family="Helvetica,sans-Serif" font-size="10.00">erpc::RPMsgTransport</text>
</a>
</g>
</g>
<!-- Node1&#45;&gt;Node3 -->
<g id="edge2" class="edge"><title>Node1&#45;&gt;Node3</title>
<path fill="none" stroke="midnightblue" d="M215,-45.8045C215,-36.9102 215,-26.7798 215,-19.7511"/>
<polygon fill="midnightblue" stroke="midnightblue" points="211.5,-46.083 215,-56.083 218.5,-46.083 211.5,-46.083"/>
</g>
<!-- Node4 -->
<g id="node4" class="node"><title>Node4</title>
<g id="a_node4"><a xlink:href="classerpc_1_1_r_p_msg_t_t_y_r_t_o_s_transport.html" target="_top" xlink:title="Transport that uses RPMsg zero copy RTOS API for interprocessor messaging. ">
<polygon fill="white" stroke="black" points="290,-0.5 290,-19.5 448,-19.5 448,-0.5 290,-0.5"/>
<text text-anchor="middle" x="369" y="-7.5" font-family="Helvetica,sans-Serif" font-size="10.00">erpc::RPMsgTTYRTOSTransport</text>
</a>
</g>
</g>
<!-- Node1&#45;&gt;Node4 -->
<g id="edge3" class="edge"><title>Node1&#45;&gt;Node4</title>
<path fill="none" stroke="midnightblue" d="M249.111,-53.0392C278.087,-42.8786 318.962,-28.5457 344.712,-19.5164"/>
<polygon fill="midnightblue" stroke="midnightblue" points="247.68,-49.8317 239.402,-56.4435 249.997,-56.4373 247.68,-49.8317"/>
</g>
</g>
</svg>
