<?xml version="1.0" encoding="UTF-8" standalone="no"?>
<!DOCTYPE svg PUBLIC "-//W3C//DTD SVG 1.1//EN"
 "http://www.w3.org/Graphics/SVG/1.1/DTD/svg11.dtd">
<!-- Generated by graphviz version 2.38.0 (20140413.2041)
 -->
<!-- Title: erpc::RPMsgTransport Pages: 1 -->
<svg width="408pt" height="176pt"
 viewBox="0.00 0.00 408.00 176.00" xmlns="http://www.w3.org/2000/svg" xmlns:xlink="http://www.w3.org/1999/xlink">
<g id="graph0" class="graph" transform="scale(1 1) rotate(0) translate(4 172)">
<title>erpc::RPMsgTransport</title>
<polygon fill="white" stroke="none" points="-4,4 -4,-172 404,-172 404,4 -4,4"/>
<!-- Node1 -->
<g id="node1" class="node"><title>Node1</title>
<polygon fill="#bfbfbf" stroke="black" points="286,-82.5 286,-101.5 400,-101.5 400,-82.5 286,-82.5"/>
<text text-anchor="middle" x="343" y="-89.5" font-family="Helvetica,sans-Serif" font-size="10.00">erpc::RPMsgTransport</text>
</g>
<!-- Node2 -->
<g id="node2" class="node"><title>Node2</title>
<g id="a_node2"><a xlink:href="classerpc_1_1_transport.html" target="_top" xlink:title="Abstract interface for transport layer. ">
<polygon fill="white" stroke="black" points="41.5,-148.5 41.5,-167.5 123.5,-167.5 123.5,-148.5 41.5,-148.5"/>
<text text-anchor="middle" x="82.5" y="-155.5" font-family="Helvetica,sans-Serif" font-size="10.00">erpc::Transport</text>
</a>
</g>
</g>
<!-- Node2&#45;&gt;Node1 -->
<g id="edge1" class="edge"><title>Node2&#45;&gt;Node1</title>
<path fill="none" stroke="midnightblue" d="M133.926,-148.826C171.248,-141.611 223.173,-130.681 268,-118 284.641,-113.292 302.983,-106.857 317.243,-101.566"/>
<polygon fill="midnightblue" stroke="midnightblue" points="132.969,-145.445 123.804,-150.761 134.283,-152.321 132.969,-145.445"/>
</g>
<!-- Node3 -->
<g id="node3" class="node"><title>Node3</title>
<g id="a_node3"><a xlink:href="classerpc_1_1_r_p_msg_base.html" target="_top" xlink:title="Transport that other RPMsg transports inherits. ">
<polygon fill="white" stroke="black" points="34.5,-110.5 34.5,-129.5 130.5,-129.5 130.5,-110.5 34.5,-110.5"/>
<text text-anchor="middle" x="82.5" y="-117.5" font-family="Helvetica,sans-Serif" font-size="10.00">erpc::RPMsgBase</text>
</a>
</g>
</g>
<!-- Node3&#45;&gt;Node1 -->
<g id="edge2" class="edge"><title>Node3&#45;&gt;Node1</title>
<path fill="none" stroke="midnightblue" d="M140.677,-113.807C183.855,-109.13 242.809,-102.744 285.757,-98.092"/>
<polygon fill="midnightblue" stroke="midnightblue" points="140.177,-110.34 130.612,-114.897 140.931,-117.3 140.177,-110.34"/>
</g>
<!-- Node4 -->
<g id="node4" class="node"><title>Node4</title>
<g id="a_node4"><a xlink:href="classerpc_1_1_static_queue.html" target="_top" xlink:title="erpc::StaticQueue\&lt;\l erpc::MessageBuffer,\l 2U *ERPC_DEFAULT_BUFFERS\l_COUNT \&gt;">
<polygon fill="white" stroke="black" points="0,-39 0,-91 165,-91 165,-39 0,-39"/>
<text text-anchor="start" x="8" y="-79" font-family="Helvetica,sans-Serif" font-size="10.00">erpc::StaticQueue&lt;</text>
<text text-anchor="start" x="8" y="-68" font-family="Helvetica,sans-Serif" font-size="10.00"> erpc::MessageBuffer,</text>
<text text-anchor="start" x="8" y="-57" font-family="Helvetica,sans-Serif" font-size="10.00"> 2U *ERPC_DEFAULT_BUFFERS</text>
<text text-anchor="middle" x="82.5" y="-46" font-family="Helvetica,sans-Serif" font-size="10.00">_COUNT &gt;</text>
</a>
</g>
</g>
<!-- Node4&#45;&gt;Node1 -->
<g id="edge3" class="edge"><title>Node4&#45;&gt;Node1</title>
<path fill="none" stroke="#9a32cd" stroke-dasharray="5,2" d="M175.535,-74.613C212.309,-78.4539 253.475,-82.7537 285.67,-86.1164"/>
<polygon fill="#9a32cd" stroke="#9a32cd" points="175.601,-71.1008 165.291,-73.543 174.873,-78.063 175.601,-71.1008"/>
<text text-anchor="middle" x="225.5" y="-88" font-family="Helvetica,sans-Serif" font-size="10.00"> m_messageQueue</text>
</g>
<!-- Node5 -->
<g id="node5" class="node"><title>Node5</title>
<g id="a_node5"><a xlink:href="classerpc_1_1_crc16.html" target="_top" xlink:title="Class for compute crc16. ">
<polygon fill="white" stroke="black" points="49,-0.5 49,-19.5 116,-19.5 116,-0.5 49,-0.5"/>
<text text-anchor="middle" x="82.5" y="-7.5" font-family="Helvetica,sans-Serif" font-size="10.00">erpc::Crc16</text>
</a>
</g>
</g>
<!-- Node5&#45;&gt;Node1 -->
<g id="edge4" class="edge"><title>Node5&#45;&gt;Node1</title>
<path fill="none" stroke="#9a32cd" stroke-dasharray="5,2" d="M125.985,-19.2185C138.596,-22.1394 152.403,-25.5198 165,-29 211.334,-41.8007 222.805,-45.6251 268,-62 285.465,-68.3279 304.922,-76.2509 319.499,-82.3654"/>
<polygon fill="#9a32cd" stroke="#9a32cd" points="126.701,-15.792 116.173,-16.9813 125.145,-22.6169 126.701,-15.792"/>
<text text-anchor="middle" x="225.5" y="-65" font-family="Helvetica,sans-Serif" font-size="10.00"> m_crcImpl</text>
</g>
</g>
</svg>
