<?xml version="1.0" encoding="UTF-8" standalone="no"?>
<!DOCTYPE svg PUBLIC "-//W3C//DTD SVG 1.1//EN"
 "http://www.w3.org/Graphics/SVG/1.1/DTD/svg11.dtd">
<!-- Generated by graphviz version 2.38.0 (20140413.2041)
 -->
<!-- Title: erpc::ArbitratedClientManager Pages: 1 -->
<svg width="1162pt" height="307pt"
 viewBox="0.00 0.00 1162.00 306.50" xmlns="http://www.w3.org/2000/svg" xmlns:xlink="http://www.w3.org/1999/xlink">
<g id="graph0" class="graph" transform="scale(1 1) rotate(0) translate(4 302.5)">
<title>erpc::ArbitratedClientManager</title>
<polygon fill="white" stroke="none" points="-4,4 -4,-302.5 1158,-302.5 1158,4 -4,4"/>
<!-- Node1 -->
<g id="node1" class="node"><title>Node1</title>
<polygon fill="#bfbfbf" stroke="black" points="1008,-189 1008,-208 1154,-208 1154,-189 1008,-189"/>
<text text-anchor="middle" x="1081" y="-196" font-family="Helvetica,sans-Serif" font-size="10.00">erpc::ArbitratedClientManager</text>
</g>
<!-- Node2 -->
<g id="node2" class="node"><title>Node2</title>
<g id="a_node2"><a xlink:href="classerpc_1_1_client_manager.html" target="_top" xlink:title="Base client implementation. ">
<polygon fill="white" stroke="black" points="804,-224 804,-243 908,-243 908,-224 804,-224"/>
<text text-anchor="middle" x="856" y="-231" font-family="Helvetica,sans-Serif" font-size="10.00">erpc::ClientManager</text>
</a>
</g>
</g>
<!-- Node2&#45;&gt;Node1 -->
<g id="edge1" class="edge"><title>Node2&#45;&gt;Node1</title>
<path fill="none" stroke="midnightblue" d="M918.115,-223.908C949.559,-218.973 987.773,-212.975 1019.18,-208.046"/>
<polygon fill="midnightblue" stroke="midnightblue" points="917.497,-220.462 908.161,-225.47 918.582,-227.377 917.497,-220.462"/>
</g>
<!-- Node3 -->
<g id="node3" class="node"><title>Node3</title>
<g id="a_node3"><a xlink:href="classerpc_1_1_codec_factory.html" target="_top" xlink:title="Abstract interface for codec factory. ">
<polygon fill="white" stroke="black" points="548.5,-279 548.5,-298 650.5,-298 650.5,-279 548.5,-279"/>
<text text-anchor="middle" x="599.5" y="-286" font-family="Helvetica,sans-Serif" font-size="10.00">erpc::CodecFactory</text>
</a>
</g>
</g>
<!-- Node3&#45;&gt;Node2 -->
<g id="edge2" class="edge"><title>Node3&#45;&gt;Node2</title>
<path fill="none" stroke="#9a32cd" stroke-dasharray="5,2" d="M661.137,-281.562C695.438,-276.971 738.951,-270.025 777,-260.5 795.488,-255.872 815.819,-248.765 831.088,-243.004"/>
<polygon fill="#9a32cd" stroke="#9a32cd" points="660.267,-278.146 650.804,-282.911 661.173,-285.087 660.267,-278.146"/>
<text text-anchor="middle" x="732" y="-280.5" font-family="Helvetica,sans-Serif" font-size="10.00"> m_codecFactory</text>
</g>
<!-- Node4 -->
<g id="node4" class="node"><title>Node4</title>
<g id="a_node4"><a xlink:href="classerpc_1_1_transport.html" target="_top" xlink:title="Abstract interface for transport layer. ">
<polygon fill="white" stroke="black" points="558.5,-174 558.5,-193 640.5,-193 640.5,-174 558.5,-174"/>
<text text-anchor="middle" x="599.5" y="-181" font-family="Helvetica,sans-Serif" font-size="10.00">erpc::Transport</text>
</a>
</g>
</g>
<!-- Node4&#45;&gt;Node2 -->
<g id="edge3" class="edge"><title>Node4&#45;&gt;Node2</title>
<path fill="none" stroke="#9a32cd" stroke-dasharray="5,2" d="M650.42,-193.307C695.607,-202.185 761.75,-215.18 806.493,-223.97"/>
<polygon fill="#9a32cd" stroke="#9a32cd" points="651.033,-189.861 640.546,-191.368 649.683,-196.73 651.033,-189.861"/>
<text text-anchor="middle" x="732" y="-220.5" font-family="Helvetica,sans-Serif" font-size="10.00"> m_transport</text>
</g>
<!-- Node6 -->
<g id="node6" class="node"><title>Node6</title>
<g id="a_node6"><a xlink:href="classerpc_1_1_transport_arbitrator.html" target="_top" xlink:title="Interposer to share transport between client and server. ">
<polygon fill="white" stroke="black" points="795,-124 795,-143 917,-143 917,-124 795,-124"/>
<text text-anchor="middle" x="856" y="-131" font-family="Helvetica,sans-Serif" font-size="10.00">erpc::TransportArbitrator</text>
</a>
</g>
</g>
<!-- Node4&#45;&gt;Node6 -->
<g id="edge6" class="edge"><title>Node4&#45;&gt;Node6</title>
<path fill="none" stroke="midnightblue" d="M650.954,-184.184C686.686,-183.541 735.453,-180.365 777,-169.5 799.365,-163.651 823.242,-151.688 838.601,-143.158"/>
<polygon fill="midnightblue" stroke="midnightblue" points="650.731,-180.686 640.773,-184.305 650.814,-187.686 650.731,-180.686"/>
</g>
<!-- Node4&#45;&gt;Node6 -->
<g id="edge11" class="edge"><title>Node4&#45;&gt;Node6</title>
<path fill="none" stroke="#9a32cd" stroke-dasharray="5,2" d="M636.71,-170.72C652.063,-165.689 670.247,-160.234 687,-156.5 722.342,-148.622 762.506,-143.005 794.699,-139.295"/>
<polygon fill="#9a32cd" stroke="#9a32cd" points="635.447,-167.452 627.074,-173.943 637.667,-174.091 635.447,-167.452"/>
<text text-anchor="middle" x="732" y="-159.5" font-family="Helvetica,sans-Serif" font-size="10.00"> m_sharedTransport</text>
</g>
<!-- Node5 -->
<g id="node5" class="node"><title>Node5</title>
<g id="a_node5"><a xlink:href="classerpc_1_1_message_buffer_factory.html" target="_top" xlink:title="Abstract interface for message buffer factory. ">
<polygon fill="white" stroke="black" points="530,-241 530,-260 669,-260 669,-241 530,-241"/>
<text text-anchor="middle" x="599.5" y="-248" font-family="Helvetica,sans-Serif" font-size="10.00">erpc::MessageBufferFactory</text>
</a>
</g>
</g>
<!-- Node5&#45;&gt;Node2 -->
<g id="edge4" class="edge"><title>Node5&#45;&gt;Node2</title>
<path fill="none" stroke="#9a32cd" stroke-dasharray="5,2" d="M679.165,-245.245C719.712,-242.537 768.003,-239.311 803.709,-236.926"/>
<polygon fill="#9a32cd" stroke="#9a32cd" points="678.781,-241.763 669.036,-245.922 679.247,-248.748 678.781,-241.763"/>
<text text-anchor="middle" x="732" y="-248.5" font-family="Helvetica,sans-Serif" font-size="10.00"> m_messageFactory</text>
</g>
<!-- Node6&#45;&gt;Node1 -->
<g id="edge5" class="edge"><title>Node6&#45;&gt;Node1</title>
<path fill="none" stroke="#9a32cd" stroke-dasharray="5,2" d="M899.529,-145.896C942.572,-158.443 1008.2,-177.572 1047.32,-188.976"/>
<polygon fill="#9a32cd" stroke="#9a32cd" points="900.484,-142.529 889.904,-143.091 898.525,-149.25 900.484,-142.529"/>
<text text-anchor="middle" x="962.5" y="-175.5" font-family="Helvetica,sans-Serif" font-size="10.00"> m_arbitrator</text>
</g>
<!-- Node7 -->
<g id="node7" class="node"><title>Node7</title>
<g id="a_node7"><a xlink:href="classerpc_1_1_mutex.html" target="_top" xlink:title="Mutex. ">
<polygon fill="white" stroke="black" points="565.5,-117 565.5,-136 633.5,-136 633.5,-117 565.5,-117"/>
<text text-anchor="middle" x="599.5" y="-124" font-family="Helvetica,sans-Serif" font-size="10.00">erpc::Mutex</text>
</a>
</g>
</g>
<!-- Node7&#45;&gt;Node6 -->
<g id="edge7" class="edge"><title>Node7&#45;&gt;Node6</title>
<path fill="none" stroke="#9a32cd" stroke-dasharray="5,2" d="M643.801,-124.352C679.555,-122.977 731.612,-121.89 777,-124.5 782.716,-124.829 788.656,-125.292 794.592,-125.836"/>
<polygon fill="#9a32cd" stroke="#9a32cd" points="643.561,-120.859 633.712,-124.765 643.847,-127.853 643.561,-120.859"/>
<text text-anchor="middle" x="732" y="-127.5" font-family="Helvetica,sans-Serif" font-size="10.00"> m_clientListMutex</text>
</g>
<!-- Node8 -->
<g id="node8" class="node"><title>Node8</title>
<g id="a_node8"><a xlink:href="classerpc_1_1_codec.html" target="_top" xlink:title="Abstract serialization encoder/decoder interface. ">
<polygon fill="white" stroke="black" points="186,-53 186,-72 255,-72 255,-53 186,-53"/>
<text text-anchor="middle" x="220.5" y="-60" font-family="Helvetica,sans-Serif" font-size="10.00">erpc::Codec</text>
</a>
</g>
</g>
<!-- Node8&#45;&gt;Node6 -->
<g id="edge8" class="edge"><title>Node8&#45;&gt;Node6</title>
<path fill="none" stroke="#9a32cd" stroke-dasharray="5,2" d="M265.408,-66.7619C345.598,-74.5798 521.118,-91.8493 669,-107.5 717.027,-112.583 729.205,-112.563 777,-119.5 785.986,-120.804 795.523,-122.366 804.73,-123.967"/>
<polygon fill="#9a32cd" stroke="#9a32cd" points="265.487,-63.2531 255.195,-65.7671 264.808,-70.2202 265.487,-63.2531"/>
<text text-anchor="middle" x="487.5" y="-94.5" font-family="Helvetica,sans-Serif" font-size="10.00"> m_codec</text>
</g>
<!-- Node13 -->
<g id="node13" class="node"><title>Node13</title>
<g id="a_node13"><a xlink:href="classerpc_1_1_request_context.html" target="_top" xlink:title="Encapsulates all information about a request. ">
<polygon fill="white" stroke="black" points="334,-3 334,-22 445,-22 445,-3 334,-3"/>
<text text-anchor="middle" x="389.5" y="-10" font-family="Helvetica,sans-Serif" font-size="10.00">erpc::RequestContext</text>
</a>
</g>
</g>
<!-- Node8&#45;&gt;Node13 -->
<g id="edge16" class="edge"><title>Node8&#45;&gt;Node13</title>
<path fill="none" stroke="#9a32cd" stroke-dasharray="5,2" d="M263.121,-50.0387C292.033,-41.3822 329.985,-30.0193 356.53,-22.0719"/>
<polygon fill="#9a32cd" stroke="#9a32cd" points="261.88,-46.7565 253.305,-52.9777 263.888,-53.4624 261.88,-46.7565"/>
<text text-anchor="middle" x="294.5" y="-49.5" font-family="Helvetica,sans-Serif" font-size="10.00"> m_codec</text>
</g>
<!-- Node9 -->
<g id="node9" class="node"><title>Node9</title>
<g id="a_node9"><a xlink:href="classerpc_1_1_message_buffer_1_1_cursor.html" target="_top" xlink:title="Cursor within a MessageBuffer. ">
<polygon fill="white" stroke="black" points="0,-69.5 0,-99.5 106,-99.5 106,-69.5 0,-69.5"/>
<text text-anchor="start" x="8" y="-87.5" font-family="Helvetica,sans-Serif" font-size="10.00">erpc::MessageBuffer</text>
<text text-anchor="middle" x="53" y="-76.5" font-family="Helvetica,sans-Serif" font-size="10.00">::Cursor</text>
</a>
</g>
</g>
<!-- Node9&#45;&gt;Node8 -->
<g id="edge9" class="edge"><title>Node9&#45;&gt;Node8</title>
<path fill="none" stroke="#9a32cd" stroke-dasharray="5,2" d="M116.288,-76.22C139.836,-73.0898 165.742,-69.6461 185.709,-66.9918"/>
<polygon fill="#9a32cd" stroke="#9a32cd" points="115.817,-72.7518 106.365,-77.5391 116.739,-79.6907 115.817,-72.7518"/>
<text text-anchor="middle" x="146" y="-78.5" font-family="Helvetica,sans-Serif" font-size="10.00"> m_cursor</text>
</g>
<!-- Node10 -->
<g id="node10" class="node"><title>Node10</title>
<g id="a_node10"><a xlink:href="classerpc_1_1_message_buffer.html" target="_top" xlink:title="Represents a memory buffer containing a message. ">
<polygon fill="white" stroke="black" points="0,-31 0,-50 106,-50 106,-31 0,-31"/>
<text text-anchor="middle" x="53" y="-38" font-family="Helvetica,sans-Serif" font-size="10.00">erpc::MessageBuffer</text>
</a>
</g>
</g>
<!-- Node10&#45;&gt;Node8 -->
<g id="edge10" class="edge"><title>Node10&#45;&gt;Node8</title>
<path fill="none" stroke="#9a32cd" stroke-dasharray="5,2" d="M116.446,-48.6677C133.192,-50.8713 151.287,-53.2646 168,-55.5 173.813,-56.2775 179.995,-57.1115 185.982,-57.9231"/>
<polygon fill="#9a32cd" stroke="#9a32cd" points="116.589,-45.1565 106.218,-47.3233 115.677,-52.0968 116.589,-45.1565"/>
<text text-anchor="middle" x="146" y="-58.5" font-family="Helvetica,sans-Serif" font-size="10.00"> m_buffer</text>
</g>
<!-- Node11 -->
<g id="node11" class="node"><title>Node11</title>
<g id="a_node11"><a xlink:href="structerpc_1_1_transport_arbitrator_1_1_pending_client_info.html" target="_top" xlink:title="Request info for a client trying to receive a response. ">
<polygon fill="white" stroke="black" points="538.5,-0.5 538.5,-30.5 660.5,-30.5 660.5,-0.5 538.5,-0.5"/>
<text text-anchor="start" x="546.5" y="-18.5" font-family="Helvetica,sans-Serif" font-size="10.00">erpc::TransportArbitrator</text>
<text text-anchor="middle" x="599.5" y="-7.5" font-family="Helvetica,sans-Serif" font-size="10.00">::PendingClientInfo</text>
</a>
</g>
</g>
<!-- Node11&#45;&gt;Node6 -->
<g id="edge12" class="edge"><title>Node11&#45;&gt;Node6</title>
<path fill="none" stroke="#9a32cd" stroke-dasharray="5,2" d="M671.053,-20.592C704.778,-25.3824 744.727,-34.6401 777,-52.5 809.625,-70.555 836.987,-106.758 848.778,-123.978"/>
<polygon fill="#9a32cd" stroke="#9a32cd" points="671.172,-17.0777 660.801,-19.2441 670.26,-24.0179 671.172,-17.0777"/>
<text text-anchor="middle" x="732" y="-66.5" font-family="Helvetica,sans-Serif" font-size="10.00"> m_clientFreeList</text>
<text text-anchor="middle" x="732" y="-55.5" font-family="Helvetica,sans-Serif" font-size="10.00">m_clientList</text>
</g>
<!-- Node11&#45;&gt;Node11 -->
<g id="edge14" class="edge"><title>Node11&#45;&gt;Node11</title>
<path fill="none" stroke="#9a32cd" stroke-dasharray="5,2" d="M579.599,-40.9579C582.069,-45.679 588.703,-49 599.5,-49 617.219,-49 623.725,-40.0566 619.018,-30.659"/>
<polygon fill="#9a32cd" stroke="#9a32cd" points="583.108,-40.7821 579.982,-30.659 576.113,-40.5221 583.108,-40.7821"/>
<text text-anchor="middle" x="599.5" y="-52" font-family="Helvetica,sans-Serif" font-size="10.00"> m_next</text>
</g>
<!-- Node12 -->
<g id="node12" class="node"><title>Node12</title>
<g id="a_node12"><a xlink:href="classerpc_1_1_semaphore.html" target="_top" xlink:title="Simple semaphore class. ">
<polygon fill="white" stroke="black" points="344,-41 344,-60 435,-60 435,-41 344,-41"/>
<text text-anchor="middle" x="389.5" y="-48" font-family="Helvetica,sans-Serif" font-size="10.00">erpc::Semaphore</text>
</a>
</g>
</g>
<!-- Node12&#45;&gt;Node11 -->
<g id="edge13" class="edge"><title>Node12&#45;&gt;Node11</title>
<path fill="none" stroke="#9a32cd" stroke-dasharray="5,2" d="M445.327,-41.2743C473.878,-36.4701 508.851,-30.5852 538.168,-25.6521"/>
<polygon fill="#9a32cd" stroke="#9a32cd" points="444.402,-37.8807 435.121,-42.9916 445.563,-44.7837 444.402,-37.8807"/>
<text text-anchor="middle" x="487.5" y="-41.5" font-family="Helvetica,sans-Serif" font-size="10.00"> m_sem</text>
</g>
<!-- Node13&#45;&gt;Node11 -->
<g id="edge15" class="edge"><title>Node13&#45;&gt;Node11</title>
<path fill="none" stroke="#9a32cd" stroke-dasharray="5,2" d="M455.469,-13.4371C481.956,-13.8191 512.394,-14.2581 538.364,-14.6327"/>
<polygon fill="#9a32cd" stroke="#9a32cd" points="455.199,-9.93289 445.15,-13.2882 455.098,-16.9322 455.199,-9.93289"/>
<text text-anchor="middle" x="487.5" y="-17.5" font-family="Helvetica,sans-Serif" font-size="10.00"> m_request</text>
</g>
</g>
</svg>
