<?xml version="1.0" encoding="UTF-8" standalone="no"?>
<!DOCTYPE svg PUBLIC "-//W3C//DTD SVG 1.1//EN"
 "http://www.w3.org/Graphics/SVG/1.1/DTD/svg11.dtd">
<!-- Generated by graphviz version 2.38.0 (20140413.2041)
 -->
<!-- Title: erpc::RequestContext Pages: 1 -->
<svg width="119pt" height="162pt"
 viewBox="0.00 0.00 119.00 162.00" xmlns="http://www.w3.org/2000/svg" xmlns:xlink="http://www.w3.org/1999/xlink">
<g id="graph0" class="graph" transform="scale(1 1) rotate(0) translate(4 158)">
<title>erpc::RequestContext</title>
<polygon fill="white" stroke="none" points="-4,4 -4,-158 115,-158 115,4 -4,4"/>
<!-- Node1 -->
<g id="node1" class="node"><title>Node1</title>
<polygon fill="#bfbfbf" stroke="black" points="0,-0.5 0,-19.5 111,-19.5 111,-0.5 0,-0.5"/>
<text text-anchor="middle" x="55.5" y="-7.5" font-family="Helvetica,sans-Serif" font-size="10.00">erpc::RequestContext</text>
</g>
<!-- Node2 -->
<g id="node2" class="node"><title>Node2</title>
<g id="a_node2"><a xlink:href="classerpc_1_1_codec.html" target="_top" xlink:title="Abstract serialization encoder/decoder interface. ">
<polygon fill="white" stroke="black" points="21,-67.5 21,-86.5 90,-86.5 90,-67.5 21,-67.5"/>
<text text-anchor="middle" x="55.5" y="-74.5" font-family="Helvetica,sans-Serif" font-size="10.00">erpc::Codec</text>
</a>
</g>
</g>
<!-- Node2&#45;&gt;Node1 -->
<g id="edge1" class="edge"><title>Node2&#45;&gt;Node1</title>
<path fill="none" stroke="#9a32cd" stroke-dasharray="5,2" d="M55.5,-57.037C55.5,-44.6703 55.5,-29.1198 55.5,-19.6273"/>
<polygon fill="#9a32cd" stroke="#9a32cd" points="52.0001,-57.2338 55.5,-67.2338 59.0001,-57.2338 52.0001,-57.2338"/>
<text text-anchor="middle" x="77" y="-41" font-family="Helvetica,sans-Serif" font-size="10.00"> m_codec</text>
</g>
<!-- Node3 -->
<g id="node3" class="node"><title>Node3</title>
<g id="a_node3"><a xlink:href="classerpc_1_1_cursor.html" target="_top" xlink:title="Cursor within a MessageBuffer. ">
<polygon fill="white" stroke="black" points="20.5,-134.5 20.5,-153.5 90.5,-153.5 90.5,-134.5 20.5,-134.5"/>
<text text-anchor="middle" x="55.5" y="-141.5" font-family="Helvetica,sans-Serif" font-size="10.00">erpc::Cursor</text>
</a>
</g>
</g>
<!-- Node3&#45;&gt;Node2 -->
<g id="edge2" class="edge"><title>Node3&#45;&gt;Node2</title>
<path fill="none" stroke="#9a32cd" stroke-dasharray="5,2" d="M55.5,-124.037C55.5,-111.67 55.5,-96.1198 55.5,-86.6273"/>
<polygon fill="#9a32cd" stroke="#9a32cd" points="52.0001,-124.234 55.5,-134.234 59.0001,-124.234 52.0001,-124.234"/>
<text text-anchor="middle" x="77.5" y="-108" font-family="Helvetica,sans-Serif" font-size="10.00"> m_cursor</text>
</g>
</g>
</svg>
