<?xml version="1.0" encoding="UTF-8" standalone="no"?>
<!DOCTYPE svg PUBLIC "-//W3C//DTD SVG 1.1//EN"
 "http://www.w3.org/Graphics/SVG/1.1/DTD/svg11.dtd">
<!-- Generated by graphviz version 2.38.0 (20140413.2041)
 -->
<!-- Title: erpc::Server Pages: 1 -->
<svg width="513pt" height="95pt"
 viewBox="0.00 0.00 512.50 95.00" xmlns="http://www.w3.org/2000/svg" xmlns:xlink="http://www.w3.org/1999/xlink">
<g id="graph0" class="graph" transform="scale(1 1) rotate(0) translate(4 91)">
<title>erpc::Server</title>
<polygon fill="white" stroke="none" points="-4,4 -4,-91 508.5,-91 508.5,4 -4,4"/>
<!-- Node1 -->
<g id="node1" class="node"><title>Node1</title>
<polygon fill="#bfbfbf" stroke="black" points="191,-0.5 191,-19.5 259,-19.5 259,-0.5 191,-0.5"/>
<text text-anchor="middle" x="225" y="-7.5" font-family="Helvetica,sans-Serif" font-size="10.00">erpc::Server</text>
</g>
<!-- Node2 -->
<g id="node2" class="node"><title>Node2</title>
<g id="a_node2"><a xlink:href="classerpc_1_1_codec_factory.html" target="_top" xlink:title="Abstract interface for codec factory. ">
<polygon fill="white" stroke="black" points="0,-67.5 0,-86.5 102,-86.5 102,-67.5 0,-67.5"/>
<text text-anchor="middle" x="51" y="-74.5" font-family="Helvetica,sans-Serif" font-size="10.00">erpc::CodecFactory</text>
</a>
</g>
</g>
<!-- Node2&#45;&gt;Node1 -->
<g id="edge1" class="edge"><title>Node2&#45;&gt;Node1</title>
<path fill="none" stroke="#9a32cd" stroke-dasharray="5,2" d="M70.1931,-61.2419C81.2976,-53.334 95.8407,-44.0098 110,-38 136.052,-26.9425 167.434,-19.9605 190.83,-15.8732"/>
<polygon fill="#9a32cd" stroke="#9a32cd" points="68.084,-58.4482 62.0976,-67.1897 72.2287,-64.0894 68.084,-58.4482"/>
<text text-anchor="middle" x="148" y="-41" font-family="Helvetica,sans-Serif" font-size="10.00"> m_codecFactory</text>
</g>
<!-- Node3 -->
<g id="node3" class="node"><title>Node3</title>
<g id="a_node3"><a xlink:href="classerpc_1_1_transport.html" target="_top" xlink:title="Abstract interface for transport layer. ">
<polygon fill="white" stroke="black" points="120,-67.5 120,-86.5 202,-86.5 202,-67.5 120,-67.5"/>
<text text-anchor="middle" x="161" y="-74.5" font-family="Helvetica,sans-Serif" font-size="10.00">erpc::Transport</text>
</a>
</g>
</g>
<!-- Node3&#45;&gt;Node1 -->
<g id="edge2" class="edge"><title>Node3&#45;&gt;Node1</title>
<path fill="none" stroke="#9a32cd" stroke-dasharray="5,2" d="M176.757,-59.9968C189.308,-47.2496 206.396,-29.8947 216.505,-19.6273"/>
<polygon fill="#9a32cd" stroke="#9a32cd" points="174.153,-57.6525 169.631,-67.2338 179.141,-62.5637 174.153,-57.6525"/>
<text text-anchor="middle" x="224.5" y="-41" font-family="Helvetica,sans-Serif" font-size="10.00"> m_transport</text>
</g>
<!-- Node4 -->
<g id="node4" class="node"><title>Node4</title>
<g id="a_node4"><a xlink:href="classerpc_1_1_message_buffer_factory.html" target="_top" xlink:title="Abstract interface for message buffer factory. ">
<polygon fill="white" stroke="black" points="220.5,-67.5 220.5,-86.5 359.5,-86.5 359.5,-67.5 220.5,-67.5"/>
<text text-anchor="middle" x="290" y="-74.5" font-family="Helvetica,sans-Serif" font-size="10.00">erpc::MessageBufferFactory</text>
</a>
</g>
</g>
<!-- Node4&#45;&gt;Node1 -->
<g id="edge3" class="edge"><title>Node4&#45;&gt;Node1</title>
<path fill="none" stroke="#9a32cd" stroke-dasharray="5,2" d="M275.918,-59.3693C269.957,-52.5682 262.823,-44.7326 256,-38 249.497,-31.5835 241.747,-24.8335 235.623,-19.6877"/>
<polygon fill="#9a32cd" stroke="#9a32cd" points="273.549,-61.9816 282.73,-67.2697 278.851,-57.4106 273.549,-61.9816"/>
<text text-anchor="middle" x="311" y="-41" font-family="Helvetica,sans-Serif" font-size="10.00"> m_messageFactory</text>
</g>
<!-- Node5 -->
<g id="node5" class="node"><title>Node5</title>
<g id="a_node5"><a xlink:href="classerpc_1_1_service.html" target="_top" xlink:title="Abstract interface for service, which can be executed on server side. ">
<polygon fill="white" stroke="black" points="377.5,-67.5 377.5,-86.5 450.5,-86.5 450.5,-67.5 377.5,-67.5"/>
<text text-anchor="middle" x="414" y="-74.5" font-family="Helvetica,sans-Serif" font-size="10.00">erpc::Service</text>
</a>
</g>
</g>
<!-- Node5&#45;&gt;Node1 -->
<g id="edge4" class="edge"><title>Node5&#45;&gt;Node1</title>
<path fill="none" stroke="#9a32cd" stroke-dasharray="5,2" d="M396.467,-60.8271C386.414,-52.8861 373.2,-43.6635 360,-38 327.382,-24.0049 287.179,-17.161 259.168,-13.8811"/>
<polygon fill="#9a32cd" stroke="#9a32cd" points="394.46,-63.7079 404.408,-67.3541 398.905,-58.3003 394.46,-63.7079"/>
<text text-anchor="middle" x="412" y="-41" font-family="Helvetica,sans-Serif" font-size="10.00"> m_firstService</text>
</g>
<!-- Node5&#45;&gt;Node5 -->
<g id="edge5" class="edge"><title>Node5&#45;&gt;Node5</title>
<path fill="none" stroke="#9a32cd" stroke-dasharray="5,2" d="M460.757,-81.9222C465.485,-80.9454 468.5,-79.3047 468.5,-77 468.5,-73.3125 460.78,-71.3247 450.679,-71.0366"/>
<polygon fill="#9a32cd" stroke="#9a32cd" points="460.266,-78.4542 450.679,-82.9634 460.986,-85.4171 460.266,-78.4542"/>
<text text-anchor="middle" x="486.5" y="-74.5" font-family="Helvetica,sans-Serif" font-size="10.00"> m_next</text>
</g>
</g>
</svg>
