<?xml version="1.0" encoding="UTF-8" standalone="no"?>
<!DOCTYPE svg PUBLIC "-//W3C//DTD SVG 1.1//EN"
 "http://www.w3.org/Graphics/SVG/1.1/DTD/svg11.dtd">
<!-- Generated by graphviz version 2.38.0 (20140413.2041)
 -->
<!-- Title: erpc::FramedTransport Pages: 1 -->
<svg width="272pt" height="106pt"
 viewBox="0.00 0.00 272.00 106.00" xmlns="http://www.w3.org/2000/svg" xmlns:xlink="http://www.w3.org/1999/xlink">
<g id="graph0" class="graph" transform="scale(1 1) rotate(0) translate(4 102)">
<title>erpc::FramedTransport</title>
<polygon fill="white" stroke="none" points="-4,4 -4,-102 268,-102 268,4 -4,4"/>
<!-- Node1 -->
<g id="node1" class="node"><title>Node1</title>
<polygon fill="#bfbfbf" stroke="black" points="76.5,-0.5 76.5,-19.5 191.5,-19.5 191.5,-0.5 76.5,-0.5"/>
<text text-anchor="middle" x="134" y="-7.5" font-family="Helvetica,sans-Serif" font-size="10.00">erpc::FramedTransport</text>
</g>
<!-- Node2 -->
<g id="node2" class="node"><title>Node2</title>
<g id="a_node2"><a xlink:href="classerpc_1_1_transport.html" target="_top" xlink:title="Abstract interface for transport layer. ">
<polygon fill="white" stroke="black" points="0,-78.5 0,-97.5 82,-97.5 82,-78.5 0,-78.5"/>
<text text-anchor="middle" x="41" y="-85.5" font-family="Helvetica,sans-Serif" font-size="10.00">erpc::Transport</text>
</a>
</g>
</g>
<!-- Node2&#45;&gt;Node1 -->
<g id="edge1" class="edge"><title>Node2&#45;&gt;Node1</title>
<path fill="none" stroke="midnightblue" d="M59.4282,-71.9404C78.5857,-56.2848 107.902,-32.3271 123.456,-19.6165"/>
<polygon fill="midnightblue" stroke="midnightblue" points="57.1968,-69.2438 51.6683,-78.2818 61.6263,-74.6641 57.1968,-69.2438"/>
</g>
<!-- Node3 -->
<g id="node3" class="node"><title>Node3</title>
<g id="a_node3"><a xlink:href="classerpc_1_1_mutex.html" target="_top" xlink:title="Mutex. ">
<polygon fill="white" stroke="black" points="100,-78.5 100,-97.5 168,-97.5 168,-78.5 100,-78.5"/>
<text text-anchor="middle" x="134" y="-85.5" font-family="Helvetica,sans-Serif" font-size="10.00">erpc::Mutex</text>
</a>
</g>
</g>
<!-- Node3&#45;&gt;Node1 -->
<g id="edge2" class="edge"><title>Node3&#45;&gt;Node1</title>
<path fill="none" stroke="#9a32cd" stroke-dasharray="5,2" d="M134,-68.2239C134,-52.6974 134,-31.3582 134,-19.6165"/>
<polygon fill="#9a32cd" stroke="#9a32cd" points="130.5,-68.2818 134,-78.2818 137.5,-68.2819 130.5,-68.2818"/>
<text text-anchor="middle" x="166.5" y="-52" font-family="Helvetica,sans-Serif" font-size="10.00"> m_sendLock</text>
<text text-anchor="middle" x="166.5" y="-41" font-family="Helvetica,sans-Serif" font-size="10.00">m_receiveLock</text>
</g>
<!-- Node4 -->
<g id="node4" class="node"><title>Node4</title>
<g id="a_node4"><a xlink:href="classerpc_1_1_crc16.html" target="_top" xlink:title="Class for compute crc16. ">
<polygon fill="white" stroke="black" points="188.5,-78.5 188.5,-97.5 255.5,-97.5 255.5,-78.5 188.5,-78.5"/>
<text text-anchor="middle" x="222" y="-85.5" font-family="Helvetica,sans-Serif" font-size="10.00">erpc::Crc16</text>
</a>
</g>
</g>
<!-- Node4&#45;&gt;Node1 -->
<g id="edge3" class="edge"><title>Node4&#45;&gt;Node1</title>
<path fill="none" stroke="#9a32cd" stroke-dasharray="5,2" d="M217.302,-68.319C213.935,-58.2244 208.468,-46.1873 200,-38 191.278,-29.5668 179.562,-23.6335 168.422,-19.522"/>
<polygon fill="#9a32cd" stroke="#9a32cd" points="214.03,-69.6039 220.173,-78.2362 220.754,-67.6574 214.03,-69.6039"/>
<text text-anchor="middle" x="239.5" y="-46.5" font-family="Helvetica,sans-Serif" font-size="10.00"> m_crcImpl</text>
</g>
</g>
</svg>
