<?xml version="1.0" encoding="UTF-8" standalone="no"?>
<!DOCTYPE svg PUBLIC "-//W3C//DTD SVG 1.1//EN"
 "http://www.w3.org/Graphics/SVG/1.1/DTD/svg11.dtd">
<!-- Generated by graphviz version 2.38.0 (20140413.2041)
 -->
<!-- Title: client_manager.h Pages: 1 -->
<svg width="389pt" height="84pt"
 viewBox="0.00 0.00 389.00 84.00" xmlns="http://www.w3.org/2000/svg" xmlns:xlink="http://www.w3.org/1999/xlink">
<g id="graph0" class="graph" transform="scale(1 1) rotate(0) translate(4 80)">
<title>client_manager.h</title>
<polygon fill="white" stroke="none" points="-4,4 -4,-80 385,-80 385,4 -4,4"/>
<!-- Node1 -->
<g id="node1" class="node"><title>Node1</title>
<polygon fill="#bfbfbf" stroke="black" points="163,-56.5 163,-75.5 254,-75.5 254,-56.5 163,-56.5"/>
<text text-anchor="middle" x="208.5" y="-63.5" font-family="Helvetica,sans-Serif" font-size="10.00">client_manager.h</text>
</g>
<!-- Node2 -->
<g id="node2" class="node"><title>Node2</title>
<g id="a_node2"><a xlink:href="arbitrated__client__manager_8h.html" target="_top" xlink:title="arbitrated_client_manager.h">
<polygon fill="white" stroke="black" points="0,-0.5 0,-19.5 137,-19.5 137,-0.5 0,-0.5"/>
<text text-anchor="middle" x="68.5" y="-7.5" font-family="Helvetica,sans-Serif" font-size="10.00">arbitrated_client_manager.h</text>
</a>
</g>
</g>
<!-- Node1&#45;&gt;Node2 -->
<g id="edge1" class="edge"><title>Node1&#45;&gt;Node2</title>
<path fill="none" stroke="midnightblue" d="M176.798,-52.772C150.5,-42.6287 113.784,-28.4669 90.5796,-19.5164"/>
<polygon fill="midnightblue" stroke="midnightblue" points="175.727,-56.1103 186.317,-56.4435 178.246,-49.5792 175.727,-56.1103"/>
</g>
<!-- Node3 -->
<g id="node3" class="node"><title>Node3</title>
<g id="a_node3"><a xlink:href="transport__arbitrator_8h.html" target="_top" xlink:title="transport_arbitrator.h">
<polygon fill="white" stroke="black" points="155,-0.5 155,-19.5 262,-19.5 262,-0.5 155,-0.5"/>
<text text-anchor="middle" x="208.5" y="-7.5" font-family="Helvetica,sans-Serif" font-size="10.00">transport_arbitrator.h</text>
</a>
</g>
</g>
<!-- Node1&#45;&gt;Node3 -->
<g id="edge2" class="edge"><title>Node1&#45;&gt;Node3</title>
<path fill="none" stroke="midnightblue" d="M208.5,-45.8045C208.5,-36.9102 208.5,-26.7798 208.5,-19.7511"/>
<polygon fill="midnightblue" stroke="midnightblue" points="205,-46.083 208.5,-56.083 212,-46.083 205,-46.083"/>
</g>
<!-- Node4 -->
<g id="node4" class="node"><title>Node4</title>
<g id="a_node4"><a xlink:href="erpc__client__setup_8h.html" target="_top" xlink:title="erpc_client_setup.h">
<polygon fill="white" stroke="black" points="280,-0.5 280,-19.5 381,-19.5 381,-0.5 280,-0.5"/>
<text text-anchor="middle" x="330.5" y="-7.5" font-family="Helvetica,sans-Serif" font-size="10.00">erpc_client_setup.h</text>
</a>
</g>
</g>
<!-- Node1&#45;&gt;Node4 -->
<g id="edge3" class="edge"><title>Node1&#45;&gt;Node4</title>
<path fill="none" stroke="midnightblue" d="M237.039,-52.3678C259.886,-42.2553 291.305,-28.3486 311.259,-19.5164"/>
<polygon fill="midnightblue" stroke="midnightblue" points="235.559,-49.1955 227.831,-56.4435 238.392,-55.5965 235.559,-49.1955"/>
</g>
</g>
</svg>
