<?xml version="1.0" encoding="UTF-8" standalone="no"?>
<!DOCTYPE svg PUBLIC "-//W3C//DTD SVG 1.1//EN"
 "http://www.w3.org/Graphics/SVG/1.1/DTD/svg11.dtd">
<!-- Generated by graphviz version 2.38.0 (20140413.2041)
 -->
<!-- Title: codec.h Pages: 1 -->
<svg width="510pt" height="140pt"
 viewBox="0.00 0.00 509.50 140.00" xmlns="http://www.w3.org/2000/svg" xmlns:xlink="http://www.w3.org/1999/xlink">
<g id="graph0" class="graph" transform="scale(1 1) rotate(0) translate(4 136)">
<title>codec.h</title>
<polygon fill="white" stroke="none" points="-4,4 -4,-136 505.5,-136 505.5,4 -4,4"/>
<!-- Node1 -->
<g id="node1" class="node"><title>Node1</title>
<polygon fill="#bfbfbf" stroke="black" points="317,-112.5 317,-131.5 368,-131.5 368,-112.5 317,-112.5"/>
<text text-anchor="middle" x="342.5" y="-119.5" font-family="Helvetica,sans-Serif" font-size="10.00">codec.h</text>
</g>
<!-- Node2 -->
<g id="node2" class="node"><title>Node2</title>
<g id="a_node2"><a xlink:href="client__manager_8h.html" target="_top" xlink:title="client_manager.h">
<polygon fill="white" stroke="black" points="174,-56.5 174,-75.5 265,-75.5 265,-56.5 174,-56.5"/>
<text text-anchor="middle" x="219.5" y="-63.5" font-family="Helvetica,sans-Serif" font-size="10.00">client_manager.h</text>
</a>
</g>
</g>
<!-- Node1&#45;&gt;Node2 -->
<g id="edge1" class="edge"><title>Node1&#45;&gt;Node2</title>
<path fill="none" stroke="midnightblue" d="M313.727,-108.368C290.693,-98.2553 259.016,-84.3486 238.899,-75.5164"/>
<polygon fill="midnightblue" stroke="midnightblue" points="312.447,-111.628 323.01,-112.444 315.261,-105.219 312.447,-111.628"/>
</g>
<!-- Node4 -->
<g id="node4" class="node"><title>Node4</title>
<g id="a_node4"><a xlink:href="transport__arbitrator_8h.html" target="_top" xlink:title="transport_arbitrator.h">
<polygon fill="white" stroke="black" points="274,-0.5 274,-19.5 381,-19.5 381,-0.5 274,-0.5"/>
<text text-anchor="middle" x="327.5" y="-7.5" font-family="Helvetica,sans-Serif" font-size="10.00">transport_arbitrator.h</text>
</a>
</g>
</g>
<!-- Node1&#45;&gt;Node4 -->
<g id="edge5" class="edge"><title>Node1&#45;&gt;Node4</title>
<path fill="none" stroke="midnightblue" d="M334.944,-102.782C331.992,-94.725 328.968,-85.0432 327.5,-76 324.282,-56.1726 325.539,-32.4928 326.604,-19.9036"/>
<polygon fill="midnightblue" stroke="midnightblue" points="331.744,-104.209 338.644,-112.249 338.263,-101.661 331.744,-104.209"/>
</g>
<!-- Node6 -->
<g id="node6" class="node"><title>Node6</title>
<g id="a_node6"><a xlink:href="basic__codec_8h.html" target="_top" xlink:title="basic_codec.h">
<polygon fill="white" stroke="black" points="336.5,-56.5 336.5,-75.5 416.5,-75.5 416.5,-56.5 336.5,-56.5"/>
<text text-anchor="middle" x="376.5" y="-63.5" font-family="Helvetica,sans-Serif" font-size="10.00">basic_codec.h</text>
</a>
</g>
</g>
<!-- Node1&#45;&gt;Node6 -->
<g id="edge6" class="edge"><title>Node1&#45;&gt;Node6</title>
<path fill="none" stroke="midnightblue" d="M353.477,-103.566C359.327,-94.2747 366.27,-83.2484 370.99,-75.7511"/>
<polygon fill="midnightblue" stroke="midnightblue" points="350.481,-101.756 348.114,-112.083 356.404,-105.486 350.481,-101.756"/>
</g>
<!-- Node7 -->
<g id="node7" class="node"><title>Node7</title>
<g id="a_node7"><a xlink:href="server_8h.html" target="_top" xlink:title="server.h">
<polygon fill="white" stroke="black" points="434.5,-56.5 434.5,-75.5 484.5,-75.5 484.5,-56.5 434.5,-56.5"/>
<text text-anchor="middle" x="459.5" y="-63.5" font-family="Helvetica,sans-Serif" font-size="10.00">server.h</text>
</a>
</g>
</g>
<!-- Node1&#45;&gt;Node7 -->
<g id="edge7" class="edge"><title>Node1&#45;&gt;Node7</title>
<path fill="none" stroke="midnightblue" d="M370.164,-108.232C392.049,-98.1312 421.997,-84.3091 441.048,-75.5164"/>
<polygon fill="midnightblue" stroke="midnightblue" points="368.652,-105.075 361.039,-112.444 371.585,-111.431 368.652,-105.075"/>
</g>
<!-- Node3 -->
<g id="node3" class="node"><title>Node3</title>
<g id="a_node3"><a xlink:href="arbitrated__client__manager_8h.html" target="_top" xlink:title="arbitrated_client_manager.h">
<polygon fill="white" stroke="black" points="0,-0.5 0,-19.5 137,-19.5 137,-0.5 0,-0.5"/>
<text text-anchor="middle" x="68.5" y="-7.5" font-family="Helvetica,sans-Serif" font-size="10.00">arbitrated_client_manager.h</text>
</a>
</g>
</g>
<!-- Node2&#45;&gt;Node3 -->
<g id="edge2" class="edge"><title>Node2&#45;&gt;Node3</title>
<path fill="none" stroke="midnightblue" d="M186.054,-53.0392C157.642,-42.8786 117.563,-28.5457 92.3145,-19.5164"/>
<polygon fill="midnightblue" stroke="midnightblue" points="184.979,-56.3718 195.574,-56.4435 187.336,-49.7806 184.979,-56.3718"/>
</g>
<!-- Node2&#45;&gt;Node4 -->
<g id="edge3" class="edge"><title>Node2&#45;&gt;Node4</title>
<path fill="none" stroke="midnightblue" d="M246.048,-51.7261C266.046,-41.7271 292.887,-28.3065 310.191,-19.6545"/>
<polygon fill="midnightblue" stroke="midnightblue" points="244.231,-48.7213 236.852,-56.324 247.362,-54.9823 244.231,-48.7213"/>
</g>
<!-- Node5 -->
<g id="node5" class="node"><title>Node5</title>
<g id="a_node5"><a xlink:href="erpc__client__setup_8h.html" target="_top" xlink:title="erpc_client_setup.h">
<polygon fill="white" stroke="black" points="155,-0.5 155,-19.5 256,-19.5 256,-0.5 155,-0.5"/>
<text text-anchor="middle" x="205.5" y="-7.5" font-family="Helvetica,sans-Serif" font-size="10.00">erpc_client_setup.h</text>
</a>
</g>
</g>
<!-- Node2&#45;&gt;Node5 -->
<g id="edge4" class="edge"><title>Node2&#45;&gt;Node5</title>
<path fill="none" stroke="midnightblue" d="M214.677,-46.3956C212.335,-37.362 209.632,-26.936 207.769,-19.7511"/>
<polygon fill="midnightblue" stroke="midnightblue" points="211.29,-47.2814 217.188,-56.083 218.066,-45.5246 211.29,-47.2814"/>
</g>
<!-- Node8 -->
<g id="node8" class="node"><title>Node8</title>
<g id="a_node8"><a xlink:href="simple__server_8h.html" target="_top" xlink:title="simple_server.h">
<polygon fill="white" stroke="black" points="417.5,-0.5 417.5,-19.5 501.5,-19.5 501.5,-0.5 417.5,-0.5"/>
<text text-anchor="middle" x="459.5" y="-7.5" font-family="Helvetica,sans-Serif" font-size="10.00">simple_server.h</text>
</a>
</g>
</g>
<!-- Node7&#45;&gt;Node8 -->
<g id="edge8" class="edge"><title>Node7&#45;&gt;Node8</title>
<path fill="none" stroke="midnightblue" d="M459.5,-45.8045C459.5,-36.9102 459.5,-26.7798 459.5,-19.7511"/>
<polygon fill="midnightblue" stroke="midnightblue" points="456,-46.083 459.5,-56.083 463,-46.083 456,-46.083"/>
</g>
</g>
</svg>
