<?xml version="1.0" encoding="UTF-8" standalone="no"?>
<!DOCTYPE svg PUBLIC "-//W3C//DTD SVG 1.1//EN"
 "http://www.w3.org/Graphics/SVG/1.1/DTD/svg11.dtd">
<!-- Generated by graphviz version 2.38.0 (20140413.2041)
 -->
<!-- Title: codec.h Pages: 1 -->
<svg width="292pt" height="252pt"
 viewBox="0.00 0.00 292.15 252.00" xmlns="http://www.w3.org/2000/svg" xmlns:xlink="http://www.w3.org/1999/xlink">
<g id="graph0" class="graph" transform="scale(1 1) rotate(0) translate(4 248)">
<title>codec.h</title>
<polygon fill="white" stroke="none" points="-4,4 -4,-248 288.147,-248 288.147,4 -4,4"/>
<!-- Node1 -->
<g id="node1" class="node"><title>Node1</title>
<polygon fill="#bfbfbf" stroke="black" points="108.647,-224.5 108.647,-243.5 159.647,-243.5 159.647,-224.5 108.647,-224.5"/>
<text text-anchor="middle" x="134.147" y="-231.5" font-family="Helvetica,sans-Serif" font-size="10.00">codec.h</text>
</g>
<!-- Node2 -->
<g id="node2" class="node"><title>Node2</title>
<g id="a_node2"><a xlink:href="erpc__common_8h_source.html" target="_top" xlink:title="erpc_common.h">
<polygon fill="white" stroke="black" points="96.1469,-56.5 96.1469,-75.5 182.147,-75.5 182.147,-56.5 96.1469,-56.5"/>
<text text-anchor="middle" x="139.147" y="-63.5" font-family="Helvetica,sans-Serif" font-size="10.00">erpc_common.h</text>
</a>
</g>
</g>
<!-- Node1&#45;&gt;Node2 -->
<g id="edge1" class="edge"><title>Node1&#45;&gt;Node2</title>
<path fill="none" stroke="midnightblue" d="M134.416,-224.075C135.203,-197.945 137.514,-121.211 138.587,-85.577"/>
<polygon fill="midnightblue" stroke="midnightblue" points="142.086,-85.669 138.889,-75.5681 135.089,-85.4582 142.086,-85.669"/>
</g>
<!-- Node3 -->
<g id="node3" class="node"><title>Node3</title>
<polygon fill="white" stroke="#bfbfbf" points="45.6469,-0.5 45.6469,-19.5 94.6469,-19.5 94.6469,-0.5 45.6469,-0.5"/>
<text text-anchor="middle" x="70.1469" y="-7.5" font-family="Helvetica,sans-Serif" font-size="10.00">stdint.h</text>
</g>
<!-- Node1&#45;&gt;Node3 -->
<g id="edge13" class="edge"><title>Node1&#45;&gt;Node3</title>
<path fill="none" stroke="midnightblue" d="M113.671,-224.435C83.0023,-210.336 26.2731,-179.032 3.14691,-132 -5.90284,-113.596 7.09486,-69.19 15.1469,-56 22.7555,-43.5364 35.0853,-32.9785 46.1444,-25.2284"/>
<polygon fill="midnightblue" stroke="midnightblue" points="48.207,-28.0606 54.6265,-19.6321 44.352,-22.2177 48.207,-28.0606"/>
</g>
<!-- Node4 -->
<g id="node4" class="node"><title>Node4</title>
<g id="a_node4"><a xlink:href="message__buffer_8h.html" target="_top" xlink:title="message_buffer.h">
<polygon fill="white" stroke="black" points="12.6469,-112.5 12.6469,-131.5 105.647,-131.5 105.647,-112.5 12.6469,-112.5"/>
<text text-anchor="middle" x="59.1469" y="-119.5" font-family="Helvetica,sans-Serif" font-size="10.00">message_buffer.h</text>
</a>
</g>
</g>
<!-- Node1&#45;&gt;Node4 -->
<g id="edge3" class="edge"><title>Node1&#45;&gt;Node4</title>
<path fill="none" stroke="midnightblue" d="M128.262,-224.368C115.885,-206.215 86.9661,-163.802 70.7311,-139.99"/>
<polygon fill="midnightblue" stroke="midnightblue" points="73.5299,-137.882 65.0047,-131.591 67.7463,-141.825 73.5299,-137.882"/>
</g>
<!-- Node6 -->
<g id="node6" class="node"><title>Node6</title>
<g id="a_node6"><a xlink:href="transport_8h.html" target="_top" xlink:title="transport.h">
<polygon fill="white" stroke="black" points="162.647,-168.5 162.647,-187.5 225.647,-187.5 225.647,-168.5 162.647,-168.5"/>
<text text-anchor="middle" x="194.147" y="-175.5" font-family="Helvetica,sans-Serif" font-size="10.00">transport.h</text>
</a>
</g>
</g>
<!-- Node1&#45;&gt;Node6 -->
<g id="edge7" class="edge"><title>Node1&#45;&gt;Node6</title>
<path fill="none" stroke="midnightblue" d="M143.787,-224.324C152.656,-216.341 166.022,-204.313 176.755,-194.653"/>
<polygon fill="midnightblue" stroke="midnightblue" points="179.24,-197.125 184.331,-187.834 174.557,-191.922 179.24,-197.125"/>
</g>
<!-- Node7 -->
<g id="node7" class="node"><title>Node7</title>
<polygon fill="white" stroke="#bfbfbf" points="238.147,-112.5 238.147,-131.5 284.147,-131.5 284.147,-112.5 238.147,-112.5"/>
<text text-anchor="middle" x="261.147" y="-119.5" font-family="Helvetica,sans-Serif" font-size="10.00">cstring</text>
</g>
<!-- Node1&#45;&gt;Node7 -->
<g id="edge12" class="edge"><title>Node1&#45;&gt;Node7</title>
<path fill="none" stroke="midnightblue" d="M159.829,-227.155C182.097,-220.887 213.853,-208.895 234.147,-188 246.508,-175.273 253.532,-156.075 257.298,-141.84"/>
<polygon fill="midnightblue" stroke="midnightblue" points="260.798,-142.239 259.658,-131.705 253.981,-140.65 260.798,-142.239"/>
</g>
<!-- Node2&#45;&gt;Node3 -->
<g id="edge2" class="edge"><title>Node2&#45;&gt;Node3</title>
<path fill="none" stroke="midnightblue" d="M128.061,-56.324C117.661,-48.1849 101.886,-35.8395 89.4253,-26.0874"/>
<polygon fill="midnightblue" stroke="midnightblue" points="91.4668,-23.2407 81.4347,-19.8339 87.1526,-28.7533 91.4668,-23.2407"/>
</g>
<!-- Node4&#45;&gt;Node2 -->
<g id="edge4" class="edge"><title>Node4&#45;&gt;Node2</title>
<path fill="none" stroke="midnightblue" d="M72.0003,-112.324C84.3633,-103.979 103.277,-91.2122 117.884,-81.3524"/>
<polygon fill="midnightblue" stroke="midnightblue" points="119.995,-84.1503 126.325,-75.6545 116.079,-78.3483 119.995,-84.1503"/>
</g>
<!-- Node4&#45;&gt;Node3 -->
<g id="edge6" class="edge"><title>Node4&#45;&gt;Node3</title>
<path fill="none" stroke="midnightblue" d="M47.6223,-112.095C33.3241,-99.887 11.8929,-77.0629 21.1469,-56 26.5369,-43.732 37.105,-33.3414 47.051,-25.6461"/>
<polygon fill="midnightblue" stroke="midnightblue" points="49.3984,-28.2697 55.4855,-19.598 45.3193,-22.5811 49.3984,-28.2697"/>
</g>
<!-- Node5 -->
<g id="node5" class="node"><title>Node5</title>
<polygon fill="white" stroke="#bfbfbf" points="30.1469,-56.5 30.1469,-75.5 78.1469,-75.5 78.1469,-56.5 30.1469,-56.5"/>
<text text-anchor="middle" x="54.1469" y="-63.5" font-family="Helvetica,sans-Serif" font-size="10.00">cstddef</text>
</g>
<!-- Node4&#45;&gt;Node5 -->
<g id="edge5" class="edge"><title>Node4&#45;&gt;Node5</title>
<path fill="none" stroke="midnightblue" d="M58.3213,-112.083C57.666,-105.006 56.7266,-94.8611 55.9049,-85.9865"/>
<polygon fill="midnightblue" stroke="midnightblue" points="59.3644,-85.3858 54.9572,-75.7511 52.3942,-86.0312 59.3644,-85.3858"/>
</g>
<!-- Node6&#45;&gt;Node2 -->
<g id="edge8" class="edge"><title>Node6&#45;&gt;Node2</title>
<path fill="none" stroke="midnightblue" d="M189.831,-168.368C180.835,-150.376 159.922,-108.55 147.96,-84.6267"/>
<polygon fill="midnightblue" stroke="midnightblue" points="151.045,-82.9704 143.443,-75.5914 144.784,-86.101 151.045,-82.9704"/>
</g>
<!-- Node6&#45;&gt;Node3 -->
<g id="edge11" class="edge"><title>Node6&#45;&gt;Node3</title>
<path fill="none" stroke="midnightblue" d="M196.908,-168.37C203.167,-147.012 216.046,-90.8946 191.147,-56 171.581,-28.5792 133.281,-17.845 104.99,-13.6556"/>
<polygon fill="midnightblue" stroke="midnightblue" points="105.058,-10.1362 94.6972,-12.3493 104.177,-17.0805 105.058,-10.1362"/>
</g>
<!-- Node6&#45;&gt;Node4 -->
<g id="edge9" class="edge"><title>Node6&#45;&gt;Node4</title>
<path fill="none" stroke="midnightblue" d="M172.756,-168.444C150.44,-159.517 115.244,-145.439 89.939,-135.317"/>
<polygon fill="midnightblue" stroke="midnightblue" points="91.0226,-131.981 80.438,-131.516 88.4229,-138.48 91.0226,-131.981"/>
</g>
<!-- Node6&#45;&gt;Node7 -->
<g id="edge10" class="edge"><title>Node6&#45;&gt;Node7</title>
<path fill="none" stroke="midnightblue" d="M204.912,-168.324C214.913,-160.263 230.033,-148.077 242.077,-138.369"/>
<polygon fill="midnightblue" stroke="midnightblue" points="244.597,-140.834 250.186,-131.834 240.204,-135.384 244.597,-140.834"/>
</g>
</g>
</svg>
