<?xml version="1.0" encoding="UTF-8" standalone="no"?>
<!DOCTYPE svg PUBLIC "-//W3C//DTD SVG 1.1//EN"
 "http://www.w3.org/Graphics/SVG/1.1/DTD/svg11.dtd">
<!-- Generated by graphviz version 2.38.0 (20140413.2041)
 -->
<!-- Title: setup Pages: 1 -->
<svg width="123pt" height="295pt"
 viewBox="0.00 0.00 123.00 295.00" xmlns="http://www.w3.org/2000/svg" xmlns:xlink="http://www.w3.org/1999/xlink">
<g id="graph0" class="graph" transform="scale(1 1) rotate(0) translate(4 291)">
<title>setup</title>
<polygon fill="white" stroke="none" points="-4,4 -4,-291 119,-291 119,4 -4,4"/>
<g id="clust1" class="cluster"><title>clusterdir_ecce72d14eab190b8175cc3cd0696eeb</title>
<g id="a_clust1"><a xlink:href="dir_ecce72d14eab190b8175cc3cd0696eeb.html" target="_top" xlink:title="erpc_c">
<polygon fill="#ddddee" stroke="black" points="37,-208 37,-279 107,-279 107,-208 37,-208"/>
<text text-anchor="middle" x="72" y="-267" font-family="Helvetica,sans-Serif" font-size="10.00">erpc_c</text>
</a>
</g>
</g>
<!-- dir_318b660cd76dff0271d6acfa47597bac -->
<g id="node1" class="node"><title>dir_318b660cd76dff0271d6acfa47597bac</title>
<g id="a_node1"><a xlink:href="dir_318b660cd76dff0271d6acfa47597bac.html" target="_top" xlink:title="setup">
<polygon fill="#eeeeff" stroke="black" points="99,-252 45,-252 45,-216 99,-216 99,-252"/>
<text text-anchor="middle" x="72" y="-231.5" font-family="Helvetica,sans-Serif" font-size="10.00">setup</text>
</a>
</g>
</g>
<!-- dir_65f3d2eaa0376abba9fa4e8a5e7d2f88 -->
<g id="node2" class="node"><title>dir_65f3d2eaa0376abba9fa4e8a5e7d2f88</title>
<g id="a_node2"><a xlink:href="dir_65f3d2eaa0376abba9fa4e8a5e7d2f88.html" target="_top" xlink:title="transports">
<polygon fill="none" stroke="black" points="102,-180 42,-180 42,-144 102,-144 102,-180"/>
<text text-anchor="middle" x="72" y="-159.5" font-family="Helvetica,sans-Serif" font-size="10.00">transports</text>
</a>
</g>
</g>
<!-- dir_318b660cd76dff0271d6acfa47597bac&#45;&gt;dir_65f3d2eaa0376abba9fa4e8a5e7d2f88 -->
<g id="edge3" class="edge"><title>dir_318b660cd76dff0271d6acfa47597bac&#45;&gt;dir_65f3d2eaa0376abba9fa4e8a5e7d2f88</title>
<path fill="none" stroke="black" d="M72,-215.697C72,-207.983 72,-198.712 72,-190.112"/>
<polygon fill="black" stroke="black" points="75.5001,-190.104 72,-180.104 68.5001,-190.104 75.5001,-190.104"/>
<g id="a_edge3&#45;headlabel"><a xlink:href="dir_000002_000005.html" target="_top" xlink:title="20">
<text text-anchor="middle" x="78.3393" y="-191.199" font-family="Helvetica,sans-Serif" font-size="10.00">20</text>
</a>
</g>
</g>
<!-- dir_4c1986dc9092ab2d1c997193a3634562 -->
<g id="node3" class="node"><title>dir_4c1986dc9092ab2d1c997193a3634562</title>
<g id="a_node3"><a xlink:href="dir_4c1986dc9092ab2d1c997193a3634562.html" target="_top" xlink:title="infra">
<polygon fill="none" stroke="black" points="54,-108 0,-108 0,-72 54,-72 54,-108"/>
<text text-anchor="middle" x="27" y="-87.5" font-family="Helvetica,sans-Serif" font-size="10.00">infra</text>
</a>
</g>
</g>
<!-- dir_318b660cd76dff0271d6acfa47597bac&#45;&gt;dir_4c1986dc9092ab2d1c997193a3634562 -->
<g id="edge4" class="edge"><title>dir_318b660cd76dff0271d6acfa47597bac&#45;&gt;dir_4c1986dc9092ab2d1c997193a3634562</title>
<path fill="none" stroke="black" d="M55.4696,-215.869C47.171,-206.153 37.8687,-193.303 33,-180 25.7814,-160.277 24.5273,-136.472 24.9439,-118.447"/>
<polygon fill="black" stroke="black" points="28.4466,-118.454 25.3653,-108.318 21.4526,-118.163 28.4466,-118.454"/>
<g id="a_edge4&#45;headlabel"><a xlink:href="dir_000002_000001.html" target="_top" xlink:title="47">
<text text-anchor="middle" x="31.1341" y="-119.664" font-family="Helvetica,sans-Serif" font-size="10.00">47</text>
</a>
</g>
</g>
<!-- dir_62e9b24ece508051f26d84717c79c815 -->
<g id="node4" class="node"><title>dir_62e9b24ece508051f26d84717c79c815</title>
<g id="a_node4"><a xlink:href="dir_62e9b24ece508051f26d84717c79c815.html" target="_top" xlink:title="port">
<polygon fill="none" stroke="black" points="81,-36 27,-36 27,-0 81,-0 81,-36"/>
<text text-anchor="middle" x="54" y="-15.5" font-family="Helvetica,sans-Serif" font-size="10.00">port</text>
</a>
</g>
</g>
<!-- dir_318b660cd76dff0271d6acfa47597bac&#45;&gt;dir_62e9b24ece508051f26d84717c79c815 -->
<g id="edge5" class="edge"><title>dir_318b660cd76dff0271d6acfa47597bac&#45;&gt;dir_62e9b24ece508051f26d84717c79c815</title>
<path fill="none" stroke="black" d="M88.8897,-215.993C97.2935,-206.315 106.582,-193.459 111,-180 115.99,-164.798 114.23,-159.671 111,-144 103.528,-107.751 84.1712,-69.5189 70.083,-45.0267"/>
<polygon fill="black" stroke="black" points="73.0638,-43.1908 64.9774,-36.3454 67.0299,-46.7395 73.0638,-43.1908"/>
<g id="a_edge5&#45;headlabel"><a xlink:href="dir_000002_000004.html" target="_top" xlink:title="1">
<text text-anchor="middle" x="77.3334" y="-42.35" font-family="Helvetica,sans-Serif" font-size="10.00">1</text>
</a>
</g>
</g>
<!-- dir_65f3d2eaa0376abba9fa4e8a5e7d2f88&#45;&gt;dir_4c1986dc9092ab2d1c997193a3634562 -->
<g id="edge1" class="edge"><title>dir_65f3d2eaa0376abba9fa4e8a5e7d2f88&#45;&gt;dir_4c1986dc9092ab2d1c997193a3634562</title>
<path fill="none" stroke="black" d="M60.8764,-143.697C55.645,-135.559 49.3001,-125.689 43.5222,-116.701"/>
<polygon fill="black" stroke="black" points="46.3474,-114.623 37.9956,-108.104 40.4591,-118.409 46.3474,-114.623"/>
<g id="a_edge1&#45;headlabel"><a xlink:href="dir_000005_000001.html" target="_top" xlink:title="28">
<text text-anchor="middle" x="50.6795" y="-113.612" font-family="Helvetica,sans-Serif" font-size="10.00">28</text>
</a>
</g>
</g>
<!-- dir_65f3d2eaa0376abba9fa4e8a5e7d2f88&#45;&gt;dir_62e9b24ece508051f26d84717c79c815 -->
<g id="edge2" class="edge"><title>dir_65f3d2eaa0376abba9fa4e8a5e7d2f88&#45;&gt;dir_62e9b24ece508051f26d84717c79c815</title>
<path fill="none" stroke="black" d="M70.6153,-143.898C69.0815,-125.949 66.3735,-96.9317 63,-72 61.8561,-63.546 60.3817,-54.3722 58.9586,-46.0704"/>
<polygon fill="black" stroke="black" points="62.3916,-45.3835 57.2122,-36.1409 55.4974,-46.5961 62.3916,-45.3835"/>
<g id="a_edge2&#45;headlabel"><a xlink:href="dir_000005_000004.html" target="_top" xlink:title="11">
<text text-anchor="middle" x="65.8105" y="-45.932" font-family="Helvetica,sans-Serif" font-size="10.00">11</text>
</a>
</g>
</g>
<!-- dir_4c1986dc9092ab2d1c997193a3634562&#45;&gt;dir_62e9b24ece508051f26d84717c79c815 -->
<g id="edge6" class="edge"><title>dir_4c1986dc9092ab2d1c997193a3634562&#45;&gt;dir_62e9b24ece508051f26d84717c79c815</title>
<path fill="none" stroke="black" d="M27.7584,-71.6966C30.01,-63.7284 33.5093,-54.0995 37.31,-45.2641"/>
<polygon fill="black" stroke="black" points="40.5233,-46.6534 41.5076,-36.1043 34.1597,-43.7371 40.5233,-46.6534"/>
<g id="a_edge6&#45;headlabel"><a xlink:href="dir_000001_000004.html" target="_top" xlink:title="2">
<text text-anchor="middle" x="41.607" y="-48.604" font-family="Helvetica,sans-Serif" font-size="10.00">2</text>
</a>
</g>
</g>
<!-- dir_62e9b24ece508051f26d84717c79c815&#45;&gt;dir_4c1986dc9092ab2d1c997193a3634562 -->
<g id="edge7" class="edge"><title>dir_62e9b24ece508051f26d84717c79c815&#45;&gt;dir_4c1986dc9092ab2d1c997193a3634562</title>
<path fill="none" stroke="black" d="M53.2976,-36.1043C51.067,-44.0447 47.5806,-53.6661 43.785,-62.5146"/>
<polygon fill="black" stroke="black" points="40.5621,-61.1465 39.5899,-71.6966 46.9291,-64.0555 40.5621,-61.1465"/>
<g id="a_edge7&#45;headlabel"><a xlink:href="dir_000004_000001.html" target="_top" xlink:title="1">
<text text-anchor="middle" x="39.4734" y="-54.1971" font-family="Helvetica,sans-Serif" font-size="10.00">1</text>
</a>
</g>
</g>
</g>
</svg>
