<?xml version="1.0" encoding="UTF-8" standalone="no"?>
<!DOCTYPE svg PUBLIC "-//W3C//DTD SVG 1.1//EN"
 "http://www.w3.org/Graphics/SVG/1.1/DTD/svg11.dtd">
<!-- Generated by graphviz version 2.38.0 (20140413.2041)
 -->
<!-- Title: infra Pages: 1 -->
<svg width="94pt" height="151pt"
 viewBox="0.00 0.00 94.00 151.00" xmlns="http://www.w3.org/2000/svg" xmlns:xlink="http://www.w3.org/1999/xlink">
<g id="graph0" class="graph" transform="scale(1 1) rotate(0) translate(4 147)">
<title>infra</title>
<polygon fill="white" stroke="none" points="-4,4 -4,-147 90,-147 90,4 -4,4"/>
<g id="clust1" class="cluster"><title>clusterdir_ecce72d14eab190b8175cc3cd0696eeb</title>
<g id="a_clust1"><a xlink:href="dir_ecce72d14eab190b8175cc3cd0696eeb.html" target="_top" xlink:title="erpc_c">
<polygon fill="#ddddee" stroke="black" points="8,-64 8,-135 78,-135 78,-64 8,-64"/>
<text text-anchor="middle" x="43" y="-123" font-family="Helvetica,sans-Serif" font-size="10.00">erpc_c</text>
</a>
</g>
</g>
<!-- dir_4c1986dc9092ab2d1c997193a3634562 -->
<g id="node1" class="node"><title>dir_4c1986dc9092ab2d1c997193a3634562</title>
<g id="a_node1"><a xlink:href="dir_4c1986dc9092ab2d1c997193a3634562.html" target="_top" xlink:title="infra">
<polygon fill="#eeeeff" stroke="black" points="70,-108 16,-108 16,-72 70,-72 70,-108"/>
<text text-anchor="middle" x="43" y="-87.5" font-family="Helvetica,sans-Serif" font-size="10.00">infra</text>
</a>
</g>
</g>
<!-- dir_62e9b24ece508051f26d84717c79c815 -->
<g id="node2" class="node"><title>dir_62e9b24ece508051f26d84717c79c815</title>
<g id="a_node2"><a xlink:href="dir_62e9b24ece508051f26d84717c79c815.html" target="_top" xlink:title="port">
<polygon fill="none" stroke="black" points="70,-36 16,-36 16,-0 70,-0 70,-36"/>
<text text-anchor="middle" x="43" y="-15.5" font-family="Helvetica,sans-Serif" font-size="10.00">port</text>
</a>
</g>
</g>
<!-- dir_4c1986dc9092ab2d1c997193a3634562&#45;&gt;dir_62e9b24ece508051f26d84717c79c815 -->
<g id="edge1" class="edge"><title>dir_4c1986dc9092ab2d1c997193a3634562&#45;&gt;dir_62e9b24ece508051f26d84717c79c815</title>
<path fill="none" stroke="black" d="M37.0843,-71.6966C36.2886,-63.9827 36.0621,-54.7125 36.4047,-46.1124"/>
<polygon fill="black" stroke="black" points="39.8984,-46.3243 37.105,-36.1043 32.9154,-45.8356 39.8984,-46.3243"/>
<g id="a_edge1&#45;headlabel"><a xlink:href="dir_000001_000004.html" target="_top" xlink:title="2">
<text text-anchor="middle" x="42.4799" y="-47.6083" font-family="Helvetica,sans-Serif" font-size="10.00">2</text>
</a>
</g>
</g>
<!-- dir_62e9b24ece508051f26d84717c79c815&#45;&gt;dir_4c1986dc9092ab2d1c997193a3634562 -->
<g id="edge2" class="edge"><title>dir_62e9b24ece508051f26d84717c79c815&#45;&gt;dir_4c1986dc9092ab2d1c997193a3634562</title>
<path fill="none" stroke="black" d="M48.895,-36.1043C49.7005,-43.7913 49.9369,-53.0537 49.604,-61.6651"/>
<polygon fill="black" stroke="black" points="46.1085,-61.4805 48.9157,-71.6966 53.0921,-61.9597 46.1085,-61.4805"/>
<g id="a_edge2&#45;headlabel"><a xlink:href="dir_000004_000001.html" target="_top" xlink:title="1">
<text text-anchor="middle" x="43.5219" y="-55.2" font-family="Helvetica,sans-Serif" font-size="10.00">1</text>
</a>
</g>
</g>
</g>
</svg>
