<?xml version="1.0" encoding="UTF-8" standalone="no"?>
<!DOCTYPE svg PUBLIC "-//W3C//DTD SVG 1.1//EN"
 "http://www.w3.org/Graphics/SVG/1.1/DTD/svg11.dtd">
<!-- Generated by graphviz version 2.38.0 (20140413.2041)
 -->
<!-- Title: erpc_c Pages: 1 -->
<svg width="166pt" height="364pt"
 viewBox="0.00 0.00 166.00 364.00" xmlns="http://www.w3.org/2000/svg" xmlns:xlink="http://www.w3.org/1999/xlink">
<g id="graph0" class="graph" transform="scale(1 1) rotate(0) translate(4 360)">
<title>erpc_c</title>
<polygon fill="white" stroke="none" points="-4,4 -4,-360 162,-360 162,4 -4,4"/>
<g id="clust1" class="cluster"><title>clusterdir_ecce72d14eab190b8175cc3cd0696eeb</title>
<g id="a_clust1"><a xlink:href="dir_ecce72d14eab190b8175cc3cd0696eeb.html" target="_top">
<polygon fill="#eeeeff" stroke="black" points="8,-8 8,-348 150,-348 150,-8 8,-8"/>
</a>
</g>
</g>
<!-- dir_ecce72d14eab190b8175cc3cd0696eeb -->
<g id="node1" class="node"><title>dir_ecce72d14eab190b8175cc3cd0696eeb</title>
<text text-anchor="middle" x="115" y="-319.5" font-family="Helvetica,sans-Serif" font-size="10.00">erpc_c</text>
</g>
<!-- dir_52949f44d4caf8ec53681e2fdb42569d -->
<g id="node2" class="node"><title>dir_52949f44d4caf8ec53681e2fdb42569d</title>
<g id="a_node2"><a xlink:href="dir_52949f44d4caf8ec53681e2fdb42569d.html" target="_top" xlink:title="config">
<polygon fill="white" stroke="black" points="93,-52 39,-52 39,-16 93,-16 93,-52"/>
<text text-anchor="middle" x="66" y="-31.5" font-family="Helvetica,sans-Serif" font-size="10.00">config</text>
</a>
</g>
</g>
<!-- dir_4c1986dc9092ab2d1c997193a3634562 -->
<g id="node3" class="node"><title>dir_4c1986dc9092ab2d1c997193a3634562</title>
<g id="a_node3"><a xlink:href="dir_4c1986dc9092ab2d1c997193a3634562.html" target="_top" xlink:title="infra">
<polygon fill="white" stroke="black" points="93,-196 39,-196 39,-160 93,-160 93,-196"/>
<text text-anchor="middle" x="66" y="-175.5" font-family="Helvetica,sans-Serif" font-size="10.00">infra</text>
</a>
</g>
</g>
<!-- dir_62e9b24ece508051f26d84717c79c815 -->
<g id="node4" class="node"><title>dir_62e9b24ece508051f26d84717c79c815</title>
<g id="a_node4"><a xlink:href="dir_62e9b24ece508051f26d84717c79c815.html" target="_top" xlink:title="port">
<polygon fill="white" stroke="black" points="93,-124 39,-124 39,-88 93,-88 93,-124"/>
<text text-anchor="middle" x="66" y="-103.5" font-family="Helvetica,sans-Serif" font-size="10.00">port</text>
</a>
</g>
</g>
<!-- dir_4c1986dc9092ab2d1c997193a3634562&#45;&gt;dir_62e9b24ece508051f26d84717c79c815 -->
<g id="edge6" class="edge"><title>dir_4c1986dc9092ab2d1c997193a3634562&#45;&gt;dir_62e9b24ece508051f26d84717c79c815</title>
<path fill="none" stroke="black" d="M66,-159.697C66,-151.983 66,-142.712 66,-134.112"/>
<polygon fill="black" stroke="black" points="69.5001,-134.104 66,-124.104 62.5001,-134.104 69.5001,-134.104"/>
<g id="a_edge6&#45;headlabel"><a xlink:href="dir_000001_000005.html" target="_top" xlink:title="2">
<text text-anchor="middle" x="72.3393" y="-135.199" font-family="Helvetica,sans-Serif" font-size="10.00">2</text>
</a>
</g>
</g>
<!-- dir_62e9b24ece508051f26d84717c79c815&#45;&gt;dir_52949f44d4caf8ec53681e2fdb42569d -->
<g id="edge7" class="edge"><title>dir_62e9b24ece508051f26d84717c79c815&#45;&gt;dir_52949f44d4caf8ec53681e2fdb42569d</title>
<path fill="none" stroke="black" d="M66,-87.6966C66,-79.9827 66,-70.7125 66,-62.1124"/>
<polygon fill="black" stroke="black" points="69.5001,-62.1043 66,-52.1043 62.5001,-62.1044 69.5001,-62.1043"/>
<g id="a_edge7&#45;headlabel"><a xlink:href="dir_000005_000004.html" target="_top" xlink:title="1">
<text text-anchor="middle" x="72.3393" y="-63.199" font-family="Helvetica,sans-Serif" font-size="10.00">1</text>
</a>
</g>
</g>
<!-- dir_318b660cd76dff0271d6acfa47597bac -->
<g id="node5" class="node"><title>dir_318b660cd76dff0271d6acfa47597bac</title>
<g id="a_node5"><a xlink:href="dir_318b660cd76dff0271d6acfa47597bac.html" target="_top" xlink:title="setup">
<polygon fill="white" stroke="black" points="70,-340 16,-340 16,-304 70,-304 70,-340"/>
<text text-anchor="middle" x="43" y="-319.5" font-family="Helvetica,sans-Serif" font-size="10.00">setup</text>
</a>
</g>
</g>
<!-- dir_318b660cd76dff0271d6acfa47597bac&#45;&gt;dir_4c1986dc9092ab2d1c997193a3634562 -->
<g id="edge4" class="edge"><title>dir_318b660cd76dff0271d6acfa47597bac&#45;&gt;dir_4c1986dc9092ab2d1c997193a3634562</title>
<path fill="none" stroke="black" d="M44.2686,-303.844C45.7528,-285.852 48.5844,-256.799 53,-232 54.5181,-223.474 56.6095,-214.28 58.6712,-205.981"/>
<polygon fill="black" stroke="black" points="62.1199,-206.623 61.2214,-196.067 55.3406,-204.88 62.1199,-206.623"/>
<g id="a_edge4&#45;headlabel"><a xlink:href="dir_000003_000001.html" target="_top" xlink:title="27">
<text text-anchor="middle" x="63.9743" y="-208.312" font-family="Helvetica,sans-Serif" font-size="10.00">27</text>
</a>
</g>
</g>
<!-- dir_318b660cd76dff0271d6acfa47597bac&#45;&gt;dir_62e9b24ece508051f26d84717c79c815 -->
<g id="edge5" class="edge"><title>dir_318b660cd76dff0271d6acfa47597bac&#45;&gt;dir_62e9b24ece508051f26d84717c79c815</title>
<path fill="none" stroke="black" d="M37.4556,-303.622C28.779,-273.599 14.5044,-210.391 30,-160 33.0089,-150.215 38.507,-140.616 44.3157,-132.334"/>
<polygon fill="black" stroke="black" points="47.1948,-134.328 50.3901,-124.226 41.5928,-130.131 47.1948,-134.328"/>
<g id="a_edge5&#45;headlabel"><a xlink:href="dir_000003_000005.html" target="_top" xlink:title="1">
<text text-anchor="middle" x="47.3117" y="-136.407" font-family="Helvetica,sans-Serif" font-size="10.00">1</text>
</a>
</g>
</g>
<!-- dir_65f3d2eaa0376abba9fa4e8a5e7d2f88 -->
<g id="node6" class="node"><title>dir_65f3d2eaa0376abba9fa4e8a5e7d2f88</title>
<g id="a_node6"><a xlink:href="dir_65f3d2eaa0376abba9fa4e8a5e7d2f88.html" target="_top" xlink:title="transports">
<polygon fill="white" stroke="black" points="122,-268 62,-268 62,-232 122,-232 122,-268"/>
<text text-anchor="middle" x="92" y="-247.5" font-family="Helvetica,sans-Serif" font-size="10.00">transports</text>
</a>
</g>
</g>
<!-- dir_318b660cd76dff0271d6acfa47597bac&#45;&gt;dir_65f3d2eaa0376abba9fa4e8a5e7d2f88 -->
<g id="edge3" class="edge"><title>dir_318b660cd76dff0271d6acfa47597bac&#45;&gt;dir_65f3d2eaa0376abba9fa4e8a5e7d2f88</title>
<path fill="none" stroke="black" d="M55.1124,-303.697C60.8681,-295.474 67.8617,-285.483 74.2055,-276.421"/>
<polygon fill="black" stroke="black" points="77.1596,-278.304 80.027,-268.104 71.425,-274.29 77.1596,-278.304"/>
<g id="a_edge3&#45;headlabel"><a xlink:href="dir_000003_000002.html" target="_top" xlink:title="11">
<text text-anchor="middle" x="77.4243" y="-280.377" font-family="Helvetica,sans-Serif" font-size="10.00">11</text>
</a>
</g>
</g>
<!-- dir_65f3d2eaa0376abba9fa4e8a5e7d2f88&#45;&gt;dir_4c1986dc9092ab2d1c997193a3634562 -->
<g id="edge1" class="edge"><title>dir_65f3d2eaa0376abba9fa4e8a5e7d2f88&#45;&gt;dir_4c1986dc9092ab2d1c997193a3634562</title>
<path fill="none" stroke="black" d="M85.573,-231.697C82.6449,-223.813 79.113,-214.304 75.8601,-205.546"/>
<polygon fill="black" stroke="black" points="79.116,-204.26 72.353,-196.104 72.554,-206.697 79.116,-204.26"/>
<g id="a_edge1&#45;headlabel"><a xlink:href="dir_000002_000001.html" target="_top" xlink:title="14">
<text text-anchor="middle" x="83.0291" y="-204.141" font-family="Helvetica,sans-Serif" font-size="10.00">14</text>
</a>
</g>
</g>
<!-- dir_65f3d2eaa0376abba9fa4e8a5e7d2f88&#45;&gt;dir_62e9b24ece508051f26d84717c79c815 -->
<g id="edge2" class="edge"><title>dir_65f3d2eaa0376abba9fa4e8a5e7d2f88&#45;&gt;dir_62e9b24ece508051f26d84717c79c815</title>
<path fill="none" stroke="black" d="M97.9497,-231.888C103.358,-213.682 109.449,-184.225 102,-160 98.9911,-150.215 93.493,-140.616 87.6843,-132.334"/>
<polygon fill="black" stroke="black" points="90.4072,-130.131 81.6099,-124.226 84.8052,-134.328 90.4072,-130.131"/>
<g id="a_edge2&#45;headlabel"><a xlink:href="dir_000002_000005.html" target="_top" xlink:title="3">
<text text-anchor="middle" x="94.8348" y="-128.805" font-family="Helvetica,sans-Serif" font-size="10.00">3</text>
</a>
</g>
</g>
</g>
</svg>
