<?xml version="1.0" encoding="UTF-8" standalone="no"?>
<!DOCTYPE svg PUBLIC "-//W3C//DTD SVG 1.1//EN"
 "http://www.w3.org/Graphics/SVG/1.1/DTD/svg11.dtd">
<!-- Generated by graphviz version 2.38.0 (20140413.2041)
 -->
<!-- Title: erpc_codec.hpp Pages: 1 -->
<svg width="392pt" height="196pt"
 viewBox="0.00 0.00 391.50 196.00" xmlns="http://www.w3.org/2000/svg" xmlns:xlink="http://www.w3.org/1999/xlink">
<g id="graph0" class="graph" transform="scale(1 1) rotate(0) translate(4 192)">
<title>erpc_codec.hpp</title>
<polygon fill="white" stroke="none" points="-4,4 -4,-192 387.5,-192 387.5,4 -4,4"/>
<!-- Node1 -->
<g id="node1" class="node"><title>Node1</title>
<polygon fill="#bfbfbf" stroke="black" points="189,-168.5 189,-187.5 275,-187.5 275,-168.5 189,-168.5"/>
<text text-anchor="middle" x="232" y="-175.5" font-family="Helvetica,sans-Serif" font-size="10.00">erpc_codec.hpp</text>
</g>
<!-- Node2 -->
<g id="node2" class="node"><title>Node2</title>
<g id="a_node2"><a xlink:href="erpc__common_8h_source.html" target="_top" xlink:title="erpc_common.h">
<polygon fill="white" stroke="black" points="0,-0.5 0,-19.5 86,-19.5 86,-0.5 0,-0.5"/>
<text text-anchor="middle" x="43" y="-7.5" font-family="Helvetica,sans-Serif" font-size="10.00">erpc_common.h</text>
</a>
</g>
</g>
<!-- Node1&#45;&gt;Node2 -->
<g id="edge1" class="edge"><title>Node1&#45;&gt;Node2</title>
<path fill="none" stroke="midnightblue" d="M194.748,-168.493C150.725,-156.264 79.2648,-129.09 46,-76 37.4715,-62.3886 37.4913,-43.8454 39.1946,-30.0478"/>
<polygon fill="midnightblue" stroke="midnightblue" points="42.7128,-30.2198 40.8706,-19.7864 35.8044,-29.0914 42.7128,-30.2198"/>
</g>
<!-- Node3 -->
<g id="node3" class="node"><title>Node3</title>
<g id="a_node3"><a xlink:href="erpc__message__buffer_8hpp.html" target="_top" xlink:title="erpc_message_buffer.hpp">
<polygon fill="white" stroke="black" points="71,-56.5 71,-75.5 199,-75.5 199,-56.5 71,-56.5"/>
<text text-anchor="middle" x="135" y="-63.5" font-family="Helvetica,sans-Serif" font-size="10.00">erpc_message_buffer.hpp</text>
</a>
</g>
</g>
<!-- Node1&#45;&gt;Node3 -->
<g id="edge2" class="edge"><title>Node1&#45;&gt;Node3</title>
<path fill="none" stroke="midnightblue" d="M217.918,-168.254C205.368,-159.984 187.025,-146.682 174,-132 161.333,-117.723 150.502,-98.7602 143.491,-85.0037"/>
<polygon fill="midnightblue" stroke="midnightblue" points="146.455,-83.0984 138.908,-75.6625 140.17,-86.1818 146.455,-83.0984"/>
</g>
<!-- Node5 -->
<g id="node5" class="node"><title>Node5</title>
<polygon fill="white" stroke="#bfbfbf" points="334.5,-0.5 334.5,-19.5 383.5,-19.5 383.5,-0.5 334.5,-0.5"/>
<text text-anchor="middle" x="359" y="-7.5" font-family="Helvetica,sans-Serif" font-size="10.00">stdint.h</text>
</g>
<!-- Node1&#45;&gt;Node5 -->
<g id="edge13" class="edge"><title>Node1&#45;&gt;Node5</title>
<path fill="none" stroke="midnightblue" d="M257.189,-168.428C291.808,-155.037 352.274,-125.438 374,-76 380.683,-60.7918 375.168,-42.22 369.026,-28.8282"/>
<polygon fill="midnightblue" stroke="midnightblue" points="372.055,-27.0624 364.399,-19.7387 365.817,-30.2383 372.055,-27.0624"/>
</g>
<!-- Node6 -->
<g id="node6" class="node"><title>Node6</title>
<g id="a_node6"><a xlink:href="erpc__transport_8hpp.html" target="_top" xlink:title="erpc_transport.hpp">
<polygon fill="white" stroke="black" points="183,-112.5 183,-131.5 281,-131.5 281,-112.5 183,-112.5"/>
<text text-anchor="middle" x="232" y="-119.5" font-family="Helvetica,sans-Serif" font-size="10.00">erpc_transport.hpp</text>
</a>
</g>
</g>
<!-- Node1&#45;&gt;Node6 -->
<g id="edge6" class="edge"><title>Node1&#45;&gt;Node6</title>
<path fill="none" stroke="midnightblue" d="M232,-168.083C232,-161.006 232,-150.861 232,-141.986"/>
<polygon fill="midnightblue" stroke="midnightblue" points="235.5,-141.751 232,-131.751 228.5,-141.751 235.5,-141.751"/>
</g>
<!-- Node9 -->
<g id="node9" class="node"><title>Node9</title>
<polygon fill="white" stroke="#bfbfbf" points="319,-56.5 319,-75.5 365,-75.5 365,-56.5 319,-56.5"/>
<text text-anchor="middle" x="342" y="-63.5" font-family="Helvetica,sans-Serif" font-size="10.00">cstring</text>
</g>
<!-- Node1&#45;&gt;Node9 -->
<g id="edge12" class="edge"><title>Node1&#45;&gt;Node9</title>
<path fill="none" stroke="midnightblue" d="M244.685,-168.478C256.924,-159.962 275.656,-146.132 290,-132 305.223,-117.002 320.21,-97.6426 330.154,-83.9647"/>
<polygon fill="midnightblue" stroke="midnightblue" points="333.215,-85.7 336.174,-75.5265 327.517,-81.6347 333.215,-85.7"/>
</g>
<!-- Node3&#45;&gt;Node2 -->
<g id="edge3" class="edge"><title>Node3&#45;&gt;Node2</title>
<path fill="none" stroke="midnightblue" d="M120.219,-56.324C105.733,-47.8215 83.4269,-34.7288 66.5068,-24.7975"/>
<polygon fill="midnightblue" stroke="midnightblue" points="68.1406,-21.6981 57.7447,-19.6545 64.5972,-27.735 68.1406,-21.6981"/>
</g>
<!-- Node4 -->
<g id="node4" class="node"><title>Node4</title>
<polygon fill="white" stroke="#bfbfbf" points="111,-0.5 111,-19.5 159,-19.5 159,-0.5 111,-0.5"/>
<text text-anchor="middle" x="135" y="-7.5" font-family="Helvetica,sans-Serif" font-size="10.00">cstddef</text>
</g>
<!-- Node3&#45;&gt;Node4 -->
<g id="edge4" class="edge"><title>Node3&#45;&gt;Node4</title>
<path fill="none" stroke="midnightblue" d="M135,-56.083C135,-49.0059 135,-38.8611 135,-29.9865"/>
<polygon fill="midnightblue" stroke="midnightblue" points="138.5,-29.751 135,-19.7511 131.5,-29.7511 138.5,-29.751"/>
</g>
<!-- Node3&#45;&gt;Node5 -->
<g id="edge5" class="edge"><title>Node3&#45;&gt;Node5</title>
<path fill="none" stroke="midnightblue" d="M170.493,-56.4435C212.686,-46.2722 282.625,-29.4118 324.414,-19.3376"/>
<polygon fill="midnightblue" stroke="midnightblue" points="325.497,-22.677 334.398,-16.9308 323.856,-15.8719 325.497,-22.677"/>
</g>
<!-- Node6&#45;&gt;Node2 -->
<g id="edge7" class="edge"><title>Node6&#45;&gt;Node2</title>
<path fill="none" stroke="midnightblue" d="M182.879,-120.479C145.073,-117.444 94.0292,-107.219 62,-76 49.7764,-64.0855 45.3064,-44.7784 43.7271,-30.2961"/>
<polygon fill="midnightblue" stroke="midnightblue" points="47.1916,-29.6743 42.9872,-19.9495 40.2095,-30.1737 47.1916,-29.6743"/>
</g>
<!-- Node6&#45;&gt;Node3 -->
<g id="edge10" class="edge"><title>Node6&#45;&gt;Node3</title>
<path fill="none" stroke="midnightblue" d="M216.415,-112.324C201.001,-103.743 177.188,-90.486 159.29,-80.5224"/>
<polygon fill="midnightblue" stroke="midnightblue" points="160.986,-77.4606 150.546,-75.6545 157.581,-83.5767 160.986,-77.4606"/>
</g>
<!-- Node7 -->
<g id="node7" class="node"><title>Node7</title>
<g id="a_node7"><a xlink:href="erpc__crc16_8hpp.html" target="_top" xlink:title="erpc_crc16.hpp">
<polygon fill="white" stroke="black" points="217.5,-56.5 217.5,-75.5 300.5,-75.5 300.5,-56.5 217.5,-56.5"/>
<text text-anchor="middle" x="259" y="-63.5" font-family="Helvetica,sans-Serif" font-size="10.00">erpc_crc16.hpp</text>
</a>
</g>
</g>
<!-- Node6&#45;&gt;Node7 -->
<g id="edge8" class="edge"><title>Node6&#45;&gt;Node7</title>
<path fill="none" stroke="midnightblue" d="M236.459,-112.083C240.154,-104.691 245.523,-93.9533 250.094,-84.8111"/>
<polygon fill="midnightblue" stroke="midnightblue" points="253.283,-86.2606 254.624,-75.7511 247.022,-83.1301 253.283,-86.2606"/>
</g>
<!-- Node6&#45;&gt;Node9 -->
<g id="edge11" class="edge"><title>Node6&#45;&gt;Node9</title>
<path fill="none" stroke="midnightblue" d="M249.673,-112.324C267.394,-103.625 294.903,-90.1202 315.288,-80.113"/>
<polygon fill="midnightblue" stroke="midnightblue" points="316.936,-83.2031 324.37,-75.6545 313.851,-76.9195 316.936,-83.2031"/>
</g>
<!-- Node8 -->
<g id="node8" class="node"><title>Node8</title>
<polygon fill="white" stroke="#bfbfbf" points="236,-0.5 236,-19.5 282,-19.5 282,-0.5 236,-0.5"/>
<text text-anchor="middle" x="259" y="-7.5" font-family="Helvetica,sans-Serif" font-size="10.00">cstdint</text>
</g>
<!-- Node7&#45;&gt;Node8 -->
<g id="edge9" class="edge"><title>Node7&#45;&gt;Node8</title>
<path fill="none" stroke="midnightblue" d="M259,-56.083C259,-49.0059 259,-38.8611 259,-29.9865"/>
<polygon fill="midnightblue" stroke="midnightblue" points="262.5,-29.751 259,-19.7511 255.5,-29.7511 262.5,-29.751"/>
</g>
</g>
</svg>
