<?xml version="1.0" encoding="UTF-8" standalone="no"?>
<!DOCTYPE svg PUBLIC "-//W3C//DTD SVG 1.1//EN"
 "http://www.w3.org/Graphics/SVG/1.1/DTD/svg11.dtd">
<!-- Generated by graphviz version 2.38.0 (20140413.2041)
 -->
<!-- Title: erpc_message_buffer.hpp Pages: 1 -->
<svg width="3090pt" height="341pt"
 viewBox="0.00 0.00 3089.50 341.00" xmlns="http://www.w3.org/2000/svg" xmlns:xlink="http://www.w3.org/1999/xlink">
<g id="graph0" class="graph" transform="scale(1 1) rotate(0) translate(4 337)">
<title>erpc_message_buffer.hpp</title>
<polygon fill="white" stroke="none" points="-4,4 -4,-337 3085.5,-337 3085.5,4 -4,4"/>
<!-- Node1 -->
<g id="node1" class="node"><title>Node1</title>
<polygon fill="#bfbfbf" stroke="black" points="2535.5,-313.5 2535.5,-332.5 2663.5,-332.5 2663.5,-313.5 2535.5,-313.5"/>
<text text-anchor="middle" x="2599.5" y="-320.5" font-family="Helvetica,sans-Serif" font-size="10.00">erpc_message_buffer.hpp</text>
</g>
<!-- Node2 -->
<g id="node2" class="node"><title>Node2</title>
<g id="a_node2"><a xlink:href="erpc__codec_8hpp.html" target="_top" xlink:title="erpc_codec.hpp">
<polygon fill="white" stroke="black" points="354.5,-196 354.5,-215 440.5,-215 440.5,-196 354.5,-196"/>
<text text-anchor="middle" x="397.5" y="-203" font-family="Helvetica,sans-Serif" font-size="10.00">erpc_codec.hpp</text>
</a>
</g>
</g>
<!-- Node1&#45;&gt;Node2 -->
<g id="edge1" class="edge"><title>Node1&#45;&gt;Node2</title>
<path fill="none" stroke="midnightblue" d="M2525.16,-318.101C2176.88,-299.832 712.034,-222.998 440.799,-208.771"/>
<polygon fill="midnightblue" stroke="midnightblue" points="2525.21,-321.608 2535.38,-318.637 2525.58,-314.618 2525.21,-321.608"/>
</g>
<!-- Node12 -->
<g id="node12" class="node"><title>Node12</title>
<g id="a_node12"><a xlink:href="erpc__transport_8hpp.html" target="_top" xlink:title="erpc_transport.hpp">
<polygon fill="white" stroke="black" points="2459.5,-257.5 2459.5,-276.5 2557.5,-276.5 2557.5,-257.5 2459.5,-257.5"/>
<text text-anchor="middle" x="2508.5" y="-264.5" font-family="Helvetica,sans-Serif" font-size="10.00">erpc_transport.hpp</text>
</a>
</g>
</g>
<!-- Node1&#45;&gt;Node12 -->
<g id="edge12" class="edge"><title>Node1&#45;&gt;Node12</title>
<path fill="none" stroke="midnightblue" d="M2576.21,-308.177C2559.46,-298.241 2537.4,-285.149 2523.08,-276.655"/>
<polygon fill="midnightblue" stroke="midnightblue" points="2574.49,-311.231 2584.88,-313.324 2578.07,-305.211 2574.49,-311.231"/>
</g>
<!-- Node13 -->
<g id="node13" class="node"><title>Node13</title>
<g id="a_node13"><a xlink:href="erpc__framed__transport_8hpp.html" target="_top" xlink:title="erpc_framed_transport.hpp">
<polygon fill="white" stroke="black" points="1478.5,-196 1478.5,-215 1610.5,-215 1610.5,-196 1478.5,-196"/>
<text text-anchor="middle" x="1544.5" y="-203" font-family="Helvetica,sans-Serif" font-size="10.00">erpc_framed_transport.hpp</text>
</a>
</g>
</g>
<!-- Node1&#45;&gt;Node13 -->
<g id="edge36" class="edge"><title>Node1&#45;&gt;Node13</title>
<path fill="none" stroke="midnightblue" d="M2525.27,-313.873C2328.87,-292.372 1797.91,-234.243 1610.83,-213.762"/>
<polygon fill="midnightblue" stroke="midnightblue" points="2525.17,-317.383 2535.49,-314.992 2525.93,-310.424 2525.17,-317.383"/>
</g>
<!-- Node27 -->
<g id="node27" class="node"><title>Node27</title>
<g id="a_node27"><a xlink:href="erpc__inter__thread__buffer__transport_8hpp.html" target="_top" xlink:title="erpc_inter_thread_buffer\l_transport.hpp">
<polygon fill="white" stroke="black" points="2734.5,-190.5 2734.5,-220.5 2854.5,-220.5 2854.5,-190.5 2734.5,-190.5"/>
<text text-anchor="start" x="2742.5" y="-208.5" font-family="Helvetica,sans-Serif" font-size="10.00">erpc_inter_thread_buffer</text>
<text text-anchor="middle" x="2794.5" y="-197.5" font-family="Helvetica,sans-Serif" font-size="10.00">_transport.hpp</text>
</a>
</g>
</g>
<!-- Node1&#45;&gt;Node27 -->
<g id="edge37" class="edge"><title>Node1&#45;&gt;Node27</title>
<path fill="none" stroke="midnightblue" d="M2622.86,-308.166C2660.25,-286.017 2733.17,-242.828 2770.79,-220.545"/>
<polygon fill="midnightblue" stroke="midnightblue" points="2620.98,-305.211 2614.16,-313.319 2624.54,-311.234 2620.98,-305.211"/>
</g>
<!-- Node28 -->
<g id="node28" class="node"><title>Node28</title>
<g id="a_node28"><a xlink:href="erpc__mu__transport_8hpp.html" target="_top" xlink:title="erpc_mu_transport.hpp">
<polygon fill="white" stroke="black" points="2872.5,-196 2872.5,-215 2988.5,-215 2988.5,-196 2872.5,-196"/>
<text text-anchor="middle" x="2930.5" y="-203" font-family="Helvetica,sans-Serif" font-size="10.00">erpc_mu_transport.hpp</text>
</a>
</g>
</g>
<!-- Node1&#45;&gt;Node28 -->
<g id="edge38" class="edge"><title>Node1&#45;&gt;Node28</title>
<path fill="none" stroke="midnightblue" d="M2633.76,-310.045C2700.67,-286.697 2847.28,-235.539 2905.73,-215.143"/>
<polygon fill="midnightblue" stroke="midnightblue" points="2632.4,-306.814 2624.11,-313.413 2634.7,-313.423 2632.4,-306.814"/>
</g>
<!-- Node31 -->
<g id="node31" class="node"><title>Node31</title>
<g id="a_node31"><a xlink:href="erpc__rpmsg__lite__rtos__transport_8hpp.html" target="_top" xlink:title="erpc_rpmsg_lite_rtos\l_transport.hpp">
<polygon fill="white" stroke="black" points="2525,-123.5 2525,-153.5 2632,-153.5 2632,-123.5 2525,-123.5"/>
<text text-anchor="start" x="2533" y="-141.5" font-family="Helvetica,sans-Serif" font-size="10.00">erpc_rpmsg_lite_rtos</text>
<text text-anchor="middle" x="2578.5" y="-130.5" font-family="Helvetica,sans-Serif" font-size="10.00">_transport.hpp</text>
</a>
</g>
</g>
<!-- Node1&#45;&gt;Node31 -->
<g id="edge39" class="edge"><title>Node1&#45;&gt;Node31</title>
<path fill="none" stroke="midnightblue" d="M2535.34,-311.704C2448.17,-296.254 2299.47,-264.212 2267.5,-221 2259.31,-209.924 2258.57,-200.494 2267.5,-190 2299.93,-151.878 2444.92,-142.453 2524.97,-140.178"/>
<polygon fill="midnightblue" stroke="midnightblue" points="2534.94,-315.187 2545.39,-313.46 2536.14,-308.291 2534.94,-315.187"/>
</g>
<!-- Node32 -->
<g id="node32" class="node"><title>Node32</title>
<g id="a_node32"><a xlink:href="erpc__rpmsg__lite__transport_8hpp.html" target="_top" xlink:title="erpc_rpmsg_lite_transport.hpp">
<polygon fill="white" stroke="black" points="2758.5,-129 2758.5,-148 2906.5,-148 2906.5,-129 2758.5,-129"/>
<text text-anchor="middle" x="2832.5" y="-136" font-family="Helvetica,sans-Serif" font-size="10.00">erpc_rpmsg_lite_transport.hpp</text>
</a>
</g>
</g>
<!-- Node1&#45;&gt;Node32 -->
<g id="edge40" class="edge"><title>Node1&#45;&gt;Node32</title>
<path fill="none" stroke="midnightblue" d="M2673.9,-313.919C2777.82,-300.923 2958.16,-271.574 2997.5,-221 3029.13,-180.336 2955.45,-158.564 2896.58,-148.018"/>
<polygon fill="midnightblue" stroke="midnightblue" points="2673.28,-310.469 2663.78,-315.163 2674.13,-317.416 2673.28,-310.469"/>
</g>
<!-- Node33 -->
<g id="node33" class="node"><title>Node33</title>
<g id="a_node33"><a xlink:href="erpc__rpmsg__tty__rtos__transport_8hpp.html" target="_top" xlink:title="erpc_rpmsg_tty_rtos\l_transport.hpp">
<polygon fill="white" stroke="black" points="2975.5,-123.5 2975.5,-153.5 3081.5,-153.5 3081.5,-123.5 2975.5,-123.5"/>
<text text-anchor="start" x="2983.5" y="-141.5" font-family="Helvetica,sans-Serif" font-size="10.00">erpc_rpmsg_tty_rtos</text>
<text text-anchor="middle" x="3028.5" y="-130.5" font-family="Helvetica,sans-Serif" font-size="10.00">_transport.hpp</text>
</a>
</g>
</g>
<!-- Node1&#45;&gt;Node33 -->
<g id="edge41" class="edge"><title>Node1&#45;&gt;Node33</title>
<path fill="none" stroke="midnightblue" d="M2674.05,-319.889C2740.41,-316.075 2839.25,-305.585 2920.5,-277 2966.37,-260.861 2986.97,-261.086 3014.5,-221 3028.4,-200.763 3029.98,-171.198 3029.49,-153.795"/>
<polygon fill="midnightblue" stroke="midnightblue" points="2673.49,-316.414 2663.69,-320.446 2673.86,-323.404 2673.49,-316.414"/>
</g>
<!-- Node3 -->
<g id="node3" class="node"><title>Node3</title>
<g id="a_node3"><a xlink:href="erpc__client__server__common_8hpp.html" target="_top" xlink:title="erpc_client_server\l_common.hpp">
<polygon fill="white" stroke="black" points="269,-123.5 269,-153.5 364,-153.5 364,-123.5 269,-123.5"/>
<text text-anchor="start" x="277" y="-141.5" font-family="Helvetica,sans-Serif" font-size="10.00">erpc_client_server</text>
<text text-anchor="middle" x="316.5" y="-130.5" font-family="Helvetica,sans-Serif" font-size="10.00">_common.hpp</text>
</a>
</g>
</g>
<!-- Node2&#45;&gt;Node3 -->
<g id="edge2" class="edge"><title>Node2&#45;&gt;Node3</title>
<path fill="none" stroke="midnightblue" d="M378.48,-189.237C365.04,-178.452 347.158,-164.102 334.057,-153.589"/>
<polygon fill="midnightblue" stroke="midnightblue" points="376.586,-192.205 386.576,-195.734 380.967,-186.745 376.586,-192.205"/>
</g>
<!-- Node6 -->
<g id="node6" class="node"><title>Node6</title>
<g id="a_node6"><a xlink:href="erpc__transport__arbitrator_8hpp.html" target="_top" xlink:title="erpc_transport_arbitrator.hpp">
<polygon fill="white" stroke="black" points="513,-6 513,-25 654,-25 654,-6 513,-6"/>
<text text-anchor="middle" x="583.5" y="-13" font-family="Helvetica,sans-Serif" font-size="10.00">erpc_transport_arbitrator.hpp</text>
</a>
</g>
</g>
<!-- Node2&#45;&gt;Node6 -->
<g id="edge10" class="edge"><title>Node2&#45;&gt;Node6</title>
<path fill="none" stroke="midnightblue" d="M397.921,-185.606C399.177,-167.944 403.347,-141.579 416.5,-123 452.862,-71.6408 522.575,-39.2875 559.376,-25.0123"/>
<polygon fill="midnightblue" stroke="midnightblue" points="394.416,-185.635 397.451,-195.786 401.409,-185.958 394.416,-185.635"/>
</g>
<!-- Node11 -->
<g id="node11" class="node"><title>Node11</title>
<g id="a_node11"><a xlink:href="erpc__basic__codec_8hpp.html" target="_top" xlink:title="erpc_basic_codec.hpp">
<polygon fill="white" stroke="black" points="136.5,-129 136.5,-148 250.5,-148 250.5,-129 136.5,-129"/>
<text text-anchor="middle" x="193.5" y="-136" font-family="Helvetica,sans-Serif" font-size="10.00">erpc_basic_codec.hpp</text>
</a>
</g>
</g>
<!-- Node2&#45;&gt;Node11 -->
<g id="edge11" class="edge"><title>Node2&#45;&gt;Node11</title>
<path fill="none" stroke="midnightblue" d="M360.671,-192.765C320.25,-179.886 256.336,-159.521 220.377,-148.064"/>
<polygon fill="midnightblue" stroke="midnightblue" points="359.82,-196.167 370.41,-195.869 361.945,-189.498 359.82,-196.167"/>
</g>
<!-- Node4 -->
<g id="node4" class="node"><title>Node4</title>
<g id="a_node4"><a xlink:href="erpc__client__manager_8h.html" target="_top" xlink:title="erpc_client_manager.h">
<polygon fill="white" stroke="black" points="254,-67.5 254,-86.5 369,-86.5 369,-67.5 254,-67.5"/>
<text text-anchor="middle" x="311.5" y="-74.5" font-family="Helvetica,sans-Serif" font-size="10.00">erpc_client_manager.h</text>
</a>
</g>
</g>
<!-- Node3&#45;&gt;Node4 -->
<g id="edge3" class="edge"><title>Node3&#45;&gt;Node4</title>
<path fill="none" stroke="midnightblue" d="M314.465,-113.289C313.673,-103.857 312.816,-93.6548 312.228,-86.6578"/>
<polygon fill="midnightblue" stroke="midnightblue" points="310.99,-113.728 315.315,-123.399 317.965,-113.141 310.99,-113.728"/>
</g>
<!-- Node9 -->
<g id="node9" class="node"><title>Node9</title>
<g id="a_node9"><a xlink:href="erpc__server_8hpp.html" target="_top" xlink:title="erpc_server.hpp">
<polygon fill="white" stroke="black" points="84,-67.5 84,-86.5 169,-86.5 169,-67.5 84,-67.5"/>
<text text-anchor="middle" x="126.5" y="-74.5" font-family="Helvetica,sans-Serif" font-size="10.00">erpc_server.hpp</text>
</a>
</g>
</g>
<!-- Node3&#45;&gt;Node9 -->
<g id="edge8" class="edge"><title>Node3&#45;&gt;Node9</title>
<path fill="none" stroke="midnightblue" d="M261.767,-120.36C226.424,-109.292 181.956,-95.3665 153.869,-86.5709"/>
<polygon fill="midnightblue" stroke="midnightblue" points="260.884,-123.751 271.473,-123.399 262.976,-117.071 260.884,-123.751"/>
</g>
<!-- Node5 -->
<g id="node5" class="node"><title>Node5</title>
<g id="a_node5"><a xlink:href="erpc__arbitrated__client__manager_8hpp.html" target="_top" xlink:title="erpc_arbitrated_client\l_manager.hpp">
<polygon fill="white" stroke="black" points="256.5,-0.5 256.5,-30.5 366.5,-30.5 366.5,-0.5 256.5,-0.5"/>
<text text-anchor="start" x="264.5" y="-18.5" font-family="Helvetica,sans-Serif" font-size="10.00">erpc_arbitrated_client</text>
<text text-anchor="middle" x="311.5" y="-7.5" font-family="Helvetica,sans-Serif" font-size="10.00">_manager.hpp</text>
</a>
</g>
</g>
<!-- Node4&#45;&gt;Node5 -->
<g id="edge4" class="edge"><title>Node4&#45;&gt;Node5</title>
<path fill="none" stroke="midnightblue" d="M311.5,-57.2349C311.5,-48.5864 311.5,-38.4969 311.5,-30.523"/>
<polygon fill="midnightblue" stroke="midnightblue" points="308,-57.4751 311.5,-67.4751 315,-57.4751 308,-57.4751"/>
</g>
<!-- Node4&#45;&gt;Node6 -->
<g id="edge5" class="edge"><title>Node4&#45;&gt;Node6</title>
<path fill="none" stroke="midnightblue" d="M360.275,-65.3304C413.024,-53.7915 496.059,-35.6277 544.601,-25.0091"/>
<polygon fill="midnightblue" stroke="midnightblue" points="359.492,-61.9189 350.471,-67.4751 360.988,-68.7572 359.492,-61.9189"/>
</g>
<!-- Node7 -->
<g id="node7" class="node"><title>Node7</title>
<g id="a_node7"><a xlink:href="erpc__arbitrated__client__setup_8h.html" target="_top" xlink:title="erpc_arbitrated_client\l_setup.h">
<polygon fill="white" stroke="black" points="384.5,-0.5 384.5,-30.5 494.5,-30.5 494.5,-0.5 384.5,-0.5"/>
<text text-anchor="start" x="392.5" y="-18.5" font-family="Helvetica,sans-Serif" font-size="10.00">erpc_arbitrated_client</text>
<text text-anchor="middle" x="439.5" y="-7.5" font-family="Helvetica,sans-Serif" font-size="10.00">_setup.h</text>
</a>
</g>
</g>
<!-- Node4&#45;&gt;Node7 -->
<g id="edge6" class="edge"><title>Node4&#45;&gt;Node7</title>
<path fill="none" stroke="midnightblue" d="M339.035,-63.2003C359.722,-53.5845 388.035,-40.4232 409.333,-30.523"/>
<polygon fill="midnightblue" stroke="midnightblue" points="337.432,-60.0859 329.839,-67.4751 340.383,-66.4336 337.432,-60.0859"/>
</g>
<!-- Node8 -->
<g id="node8" class="node"><title>Node8</title>
<g id="a_node8"><a xlink:href="erpc__client__setup_8h.html" target="_top" xlink:title="erpc_client_setup.h">
<polygon fill="white" stroke="black" points="137,-6 137,-25 238,-25 238,-6 137,-6"/>
<text text-anchor="middle" x="187.5" y="-13" font-family="Helvetica,sans-Serif" font-size="10.00">erpc_client_setup.h</text>
</a>
</g>
</g>
<!-- Node4&#45;&gt;Node8 -->
<g id="edge7" class="edge"><title>Node4&#45;&gt;Node8</title>
<path fill="none" stroke="midnightblue" d="M284.451,-63.0207C260.403,-51.4816 225.937,-34.9433 205.233,-25.0091"/>
<polygon fill="midnightblue" stroke="midnightblue" points="283.204,-66.3044 293.734,-67.4751 286.232,-59.9934 283.204,-66.3044"/>
</g>
<!-- Node10 -->
<g id="node10" class="node"><title>Node10</title>
<g id="a_node10"><a xlink:href="erpc__simple__server_8hpp.html" target="_top" xlink:title="erpc_simple_server.hpp">
<polygon fill="white" stroke="black" points="0,-6 0,-25 119,-25 119,-6 0,-6"/>
<text text-anchor="middle" x="59.5" y="-13" font-family="Helvetica,sans-Serif" font-size="10.00">erpc_simple_server.hpp</text>
</a>
</g>
</g>
<!-- Node9&#45;&gt;Node10 -->
<g id="edge9" class="edge"><title>Node9&#45;&gt;Node10</title>
<path fill="none" stroke="midnightblue" d="M109.215,-60.6496C96.441,-49.3058 79.5224,-34.2811 69.0817,-25.0091"/>
<polygon fill="midnightblue" stroke="midnightblue" points="107.099,-63.4519 116.901,-67.4751 111.747,-58.2179 107.099,-63.4519"/>
</g>
<!-- Node12&#45;&gt;Node2 -->
<g id="edge13" class="edge"><title>Node12&#45;&gt;Node2</title>
<path fill="none" stroke="midnightblue" d="M2449.31,-264.332C2139.54,-255.601 709.085,-215.282 440.895,-207.723"/>
<polygon fill="midnightblue" stroke="midnightblue" points="2449.33,-267.834 2459.43,-264.617 2449.53,-260.836 2449.33,-267.834"/>
</g>
<!-- Node12&#45;&gt;Node6 -->
<g id="edge14" class="edge"><title>Node12&#45;&gt;Node6</title>
<path fill="none" stroke="midnightblue" d="M2449.01,-263.339C2385.25,-259.093 2290.14,-248.255 2267.5,-221 2258.7,-210.401 2261.53,-202.418 2267.5,-190 2278.6,-166.915 2301.4,-177.085 2312.5,-154 2318.47,-141.582 2321.94,-133.037 2312.5,-123 2254.75,-61.5845 971.453,-26.0449 654.024,-18.1741"/>
<polygon fill="midnightblue" stroke="midnightblue" points="2449.15,-266.854 2459.35,-263.989 2449.58,-259.868 2449.15,-266.854"/>
</g>
<!-- Node12&#45;&gt;Node13 -->
<g id="edge15" class="edge"><title>Node12&#45;&gt;Node13</title>
<path fill="none" stroke="midnightblue" d="M2449.35,-262.349C2279.24,-251.849 1789.48,-221.621 1610.78,-210.591"/>
<polygon fill="midnightblue" stroke="midnightblue" points="2449.17,-265.845 2459.37,-262.968 2449.6,-258.858 2449.17,-265.845"/>
</g>
<!-- Node26 -->
<g id="node26" class="node"><title>Node26</title>
<g id="a_node26"><a xlink:href="erpc__message__loggers_8hpp.html" target="_top" xlink:title="erpc_message_loggers.hpp">
<polygon fill="white" stroke="black" points="2276.5,-196 2276.5,-215 2412.5,-215 2412.5,-196 2276.5,-196"/>
<text text-anchor="middle" x="2344.5" y="-203" font-family="Helvetica,sans-Serif" font-size="10.00">erpc_message_loggers.hpp</text>
</a>
</g>
</g>
<!-- Node12&#45;&gt;Node26 -->
<g id="edge28" class="edge"><title>Node12&#45;&gt;Node26</title>
<path fill="none" stroke="midnightblue" d="M2475.24,-253.933C2443.36,-242.368 2396.07,-225.208 2367.95,-215.009"/>
<polygon fill="midnightblue" stroke="midnightblue" points="2474.41,-257.355 2485,-257.475 2476.8,-250.774 2474.41,-257.355"/>
</g>
<!-- Node12&#45;&gt;Node27 -->
<g id="edge29" class="edge"><title>Node12&#45;&gt;Node27</title>
<path fill="none" stroke="midnightblue" d="M2559.58,-255.447C2603.56,-246.352 2668.72,-232.853 2725.5,-221 2728.38,-220.4 2731.32,-219.784 2734.29,-219.162"/>
<polygon fill="midnightblue" stroke="midnightblue" points="2558.79,-252.037 2549.7,-257.489 2560.21,-258.892 2558.79,-252.037"/>
</g>
<!-- Node12&#45;&gt;Node28 -->
<g id="edge30" class="edge"><title>Node12&#45;&gt;Node28</title>
<path fill="none" stroke="midnightblue" d="M2567.55,-260.105C2638.19,-252.687 2759.91,-238.741 2863.5,-221 2873.35,-219.313 2883.95,-217.171 2893.75,-215.056"/>
<polygon fill="midnightblue" stroke="midnightblue" points="2567.09,-256.634 2557.51,-261.152 2567.82,-263.596 2567.09,-256.634"/>
</g>
<!-- Node29 -->
<g id="node29" class="node"><title>Node29</title>
<g id="a_node29"><a xlink:href="erpc__rpmsg__linux__transport_8hpp_source.html" target="_top" xlink:title="erpc_rpmsg_linux_transport.hpp">
<polygon fill="white" stroke="black" points="2431,-196 2431,-215 2586,-215 2586,-196 2431,-196"/>
<text text-anchor="middle" x="2508.5" y="-203" font-family="Helvetica,sans-Serif" font-size="10.00">erpc_rpmsg_linux_transport.hpp</text>
</a>
</g>
</g>
<!-- Node12&#45;&gt;Node29 -->
<g id="edge31" class="edge"><title>Node12&#45;&gt;Node29</title>
<path fill="none" stroke="midnightblue" d="M2508.5,-247.317C2508.5,-236.496 2508.5,-223.398 2508.5,-215.009"/>
<polygon fill="midnightblue" stroke="midnightblue" points="2505,-247.475 2508.5,-257.475 2512,-247.475 2505,-247.475"/>
</g>
<!-- Node30 -->
<g id="node30" class="node"><title>Node30</title>
<g id="a_node30"><a xlink:href="erpc__rpmsg__lite__base__transport_8hpp.html" target="_top" xlink:title="erpc_rpmsg_lite_base\l_transport.hpp">
<polygon fill="white" stroke="black" points="2604.5,-190.5 2604.5,-220.5 2716.5,-220.5 2716.5,-190.5 2604.5,-190.5"/>
<text text-anchor="start" x="2612.5" y="-208.5" font-family="Helvetica,sans-Serif" font-size="10.00">erpc_rpmsg_lite_base</text>
<text text-anchor="middle" x="2660.5" y="-197.5" font-family="Helvetica,sans-Serif" font-size="10.00">_transport.hpp</text>
</a>
</g>
</g>
<!-- Node12&#45;&gt;Node30 -->
<g id="edge32" class="edge"><title>Node12&#45;&gt;Node30</title>
<path fill="none" stroke="midnightblue" d="M2539.87,-253.719C2564.54,-244.062 2598.93,-230.602 2624.68,-220.523"/>
<polygon fill="midnightblue" stroke="midnightblue" points="2538.31,-250.571 2530.28,-257.475 2540.87,-257.089 2538.31,-250.571"/>
</g>
<!-- Node14 -->
<g id="node14" class="node"><title>Node14</title>
<g id="a_node14"><a xlink:href="erpc__dspi__master__transport_8hpp.html" target="_top" xlink:title="erpc_dspi_master_transport.hpp">
<polygon fill="white" stroke="black" points="2147.5,-129 2147.5,-148 2303.5,-148 2303.5,-129 2147.5,-129"/>
<text text-anchor="middle" x="2225.5" y="-136" font-family="Helvetica,sans-Serif" font-size="10.00">erpc_dspi_master_transport.hpp</text>
</a>
</g>
</g>
<!-- Node13&#45;&gt;Node14 -->
<g id="edge16" class="edge"><title>Node13&#45;&gt;Node14</title>
<path fill="none" stroke="midnightblue" d="M1620.9,-199.974C1734.19,-192.819 1953.28,-177.27 2138.5,-154 2151.57,-152.358 2165.67,-150.183 2178.64,-148.019"/>
<polygon fill="midnightblue" stroke="midnightblue" points="1620.37,-196.501 1610.61,-200.62 1620.81,-203.487 1620.37,-196.501"/>
</g>
<!-- Node15 -->
<g id="node15" class="node"><title>Node15</title>
<g id="a_node15"><a xlink:href="erpc__dspi__slave__transport_8hpp.html" target="_top" xlink:title="erpc_dspi_slave_transport.hpp">
<polygon fill="white" stroke="black" points="425.5,-129 425.5,-148 573.5,-148 573.5,-129 425.5,-129"/>
<text text-anchor="middle" x="499.5" y="-136" font-family="Helvetica,sans-Serif" font-size="10.00">erpc_dspi_slave_transport.hpp</text>
</a>
</g>
</g>
<!-- Node13&#45;&gt;Node15 -->
<g id="edge17" class="edge"><title>Node13&#45;&gt;Node15</title>
<path fill="none" stroke="midnightblue" d="M1467.96,-203.61C1304.74,-201.026 910.571,-191.131 582.5,-154 569.418,-152.519 555.276,-150.288 542.436,-148.016"/>
<polygon fill="midnightblue" stroke="midnightblue" points="1468.32,-207.116 1478.38,-203.77 1468.43,-200.117 1468.32,-207.116"/>
</g>
<!-- Node16 -->
<g id="node16" class="node"><title>Node16</title>
<g id="a_node16"><a xlink:href="erpc__i2c__slave__transport_8hpp.html" target="_top" xlink:title="erpc_i2c_slave_transport.hpp">
<polygon fill="white" stroke="black" points="592,-129 592,-148 735,-148 735,-129 592,-129"/>
<text text-anchor="middle" x="663.5" y="-136" font-family="Helvetica,sans-Serif" font-size="10.00">erpc_i2c_slave_transport.hpp</text>
</a>
</g>
</g>
<!-- Node13&#45;&gt;Node16 -->
<g id="edge18" class="edge"><title>Node13&#45;&gt;Node16</title>
<path fill="none" stroke="midnightblue" d="M1468.03,-202.576C1325.35,-198.341 1009.03,-185.92 744.5,-154 731.877,-152.477 718.241,-150.26 705.822,-148.016"/>
<polygon fill="midnightblue" stroke="midnightblue" points="1468.32,-206.085 1478.42,-202.878 1468.52,-199.088 1468.32,-206.085"/>
</g>
<!-- Node17 -->
<g id="node17" class="node"><title>Node17</title>
<g id="a_node17"><a xlink:href="erpc__lpi2c__slave__transport_8hpp.html" target="_top" xlink:title="erpc_lpi2c_slave_transport.hpp">
<polygon fill="white" stroke="black" points="753.5,-129 753.5,-148 903.5,-148 903.5,-129 753.5,-129"/>
<text text-anchor="middle" x="828.5" y="-136" font-family="Helvetica,sans-Serif" font-size="10.00">erpc_lpi2c_slave_transport.hpp</text>
</a>
</g>
</g>
<!-- Node13&#45;&gt;Node17 -->
<g id="edge19" class="edge"><title>Node13&#45;&gt;Node17</title>
<path fill="none" stroke="midnightblue" d="M1468.23,-200.657C1349.22,-194.153 1112.26,-179.169 912.5,-154 899.726,-152.391 885.933,-150.2 873.288,-148.01"/>
<polygon fill="midnightblue" stroke="midnightblue" points="1468.16,-204.158 1478.33,-201.204 1468.54,-197.168 1468.16,-204.158"/>
</g>
<!-- Node18 -->
<g id="node18" class="node"><title>Node18</title>
<g id="a_node18"><a xlink:href="erpc__lpspi__slave__transport_8hpp.html" target="_top" xlink:title="erpc_lpspi_slave_transport.hpp">
<polygon fill="white" stroke="black" points="921.5,-129 921.5,-148 1071.5,-148 1071.5,-129 921.5,-129"/>
<text text-anchor="middle" x="996.5" y="-136" font-family="Helvetica,sans-Serif" font-size="10.00">erpc_lpspi_slave_transport.hpp</text>
</a>
</g>
</g>
<!-- Node13&#45;&gt;Node18 -->
<g id="edge20" class="edge"><title>Node13&#45;&gt;Node18</title>
<path fill="none" stroke="midnightblue" d="M1468.19,-197.67C1376.09,-189.087 1216.62,-173.137 1080.5,-154 1068.34,-152.29 1055.23,-150.165 1043.07,-148.073"/>
<polygon fill="midnightblue" stroke="midnightblue" points="1467.98,-201.165 1478.26,-198.604 1468.62,-194.195 1467.98,-201.165"/>
</g>
<!-- Node19 -->
<g id="node19" class="node"><title>Node19</title>
<g id="a_node19"><a xlink:href="erpc__serial__transport_8hpp.html" target="_top" xlink:title="erpc_serial_transport.hpp">
<polygon fill="white" stroke="black" points="1089.5,-129 1089.5,-148 1215.5,-148 1215.5,-129 1089.5,-129"/>
<text text-anchor="middle" x="1152.5" y="-136" font-family="Helvetica,sans-Serif" font-size="10.00">erpc_serial_transport.hpp</text>
</a>
</g>
</g>
<!-- Node13&#45;&gt;Node19 -->
<g id="edge21" class="edge"><title>Node13&#45;&gt;Node19</title>
<path fill="none" stroke="midnightblue" d="M1476.1,-194.463C1411.42,-184.783 1311.69,-169.377 1225.5,-154 1215.32,-152.185 1204.38,-150.088 1194.14,-148.063"/>
<polygon fill="midnightblue" stroke="midnightblue" points="1475.77,-197.951 1486.18,-195.966 1476.8,-191.028 1475.77,-197.951"/>
</g>
<!-- Node20 -->
<g id="node20" class="node"><title>Node20</title>
<g id="a_node20"><a xlink:href="erpc__spi__master__transport_8hpp.html" target="_top" xlink:title="erpc_spi_master_transport.hpp">
<polygon fill="white" stroke="black" points="1234,-129 1234,-148 1385,-148 1385,-129 1234,-129"/>
<text text-anchor="middle" x="1309.5" y="-136" font-family="Helvetica,sans-Serif" font-size="10.00">erpc_spi_master_transport.hpp</text>
</a>
</g>
</g>
<!-- Node13&#45;&gt;Node20 -->
<g id="edge22" class="edge"><title>Node13&#45;&gt;Node20</title>
<path fill="none" stroke="midnightblue" d="M1503.55,-193.172C1457.08,-180.319 1382.32,-159.643 1340.46,-148.064"/>
<polygon fill="midnightblue" stroke="midnightblue" points="1502.72,-196.576 1513.29,-195.869 1504.59,-189.829 1502.72,-196.576"/>
</g>
<!-- Node21 -->
<g id="node21" class="node"><title>Node21</title>
<g id="a_node21"><a xlink:href="erpc__spi__slave__transport_8hpp.html" target="_top" xlink:title="erpc_spi_slave_transport.hpp">
<polygon fill="white" stroke="black" points="1403,-129 1403,-148 1546,-148 1546,-129 1403,-129"/>
<text text-anchor="middle" x="1474.5" y="-136" font-family="Helvetica,sans-Serif" font-size="10.00">erpc_spi_slave_transport.hpp</text>
</a>
</g>
</g>
<!-- Node13&#45;&gt;Node21 -->
<g id="edge23" class="edge"><title>Node13&#45;&gt;Node21</title>
<path fill="none" stroke="midnightblue" d="M1527.65,-188.856C1513.89,-176.078 1494.95,-158.492 1483.79,-148.127"/>
<polygon fill="midnightblue" stroke="midnightblue" points="1525.35,-191.494 1535.06,-195.734 1530.11,-186.364 1525.35,-191.494"/>
</g>
<!-- Node22 -->
<g id="node22" class="node"><title>Node22</title>
<g id="a_node22"><a xlink:href="erpc__spidev__master__transport_8hpp.html" target="_top" xlink:title="erpc_spidev_master\l_transport.hpp">
<polygon fill="white" stroke="black" points="1564,-123.5 1564,-153.5 1667,-153.5 1667,-123.5 1564,-123.5"/>
<text text-anchor="start" x="1572" y="-141.5" font-family="Helvetica,sans-Serif" font-size="10.00">erpc_spidev_master</text>
<text text-anchor="middle" x="1615.5" y="-130.5" font-family="Helvetica,sans-Serif" font-size="10.00">_transport.hpp</text>
</a>
</g>
</g>
<!-- Node13&#45;&gt;Node22 -->
<g id="edge24" class="edge"><title>Node13&#45;&gt;Node22</title>
<path fill="none" stroke="midnightblue" d="M1561.51,-188.928C1573.25,-178.179 1588.74,-164.002 1600.11,-153.589"/>
<polygon fill="midnightblue" stroke="midnightblue" points="1559.09,-186.4 1554.08,-195.734 1563.81,-191.563 1559.09,-186.4"/>
</g>
<!-- Node23 -->
<g id="node23" class="node"><title>Node23</title>
<g id="a_node23"><a xlink:href="erpc__tcp__transport_8hpp.html" target="_top" xlink:title="erpc_tcp_transport.hpp">
<polygon fill="white" stroke="black" points="1685.5,-129 1685.5,-148 1801.5,-148 1801.5,-129 1685.5,-129"/>
<text text-anchor="middle" x="1743.5" y="-136" font-family="Helvetica,sans-Serif" font-size="10.00">erpc_tcp_transport.hpp</text>
</a>
</g>
</g>
<!-- Node13&#45;&gt;Node23 -->
<g id="edge25" class="edge"><title>Node13&#45;&gt;Node23</title>
<path fill="none" stroke="midnightblue" d="M1580.68,-192.683C1620.12,-179.8 1682.28,-159.497 1717.28,-148.064"/>
<polygon fill="midnightblue" stroke="midnightblue" points="1579.34,-189.437 1570.93,-195.869 1581.52,-196.091 1579.34,-189.437"/>
</g>
<!-- Node24 -->
<g id="node24" class="node"><title>Node24</title>
<g id="a_node24"><a xlink:href="erpc__uart__cmsis__transport_8hpp.html" target="_top" xlink:title="erpc_uart_cmsis_transport.hpp">
<polygon fill="white" stroke="black" points="1820,-129 1820,-148 1971,-148 1971,-129 1820,-129"/>
<text text-anchor="middle" x="1895.5" y="-136" font-family="Helvetica,sans-Serif" font-size="10.00">erpc_uart_cmsis_transport.hpp</text>
</a>
</g>
</g>
<!-- Node13&#45;&gt;Node24 -->
<g id="edge26" class="edge"><title>Node13&#45;&gt;Node24</title>
<path fill="none" stroke="midnightblue" d="M1601,-194.037C1670.04,-181.253 1785.51,-159.868 1849.43,-148.032"/>
<polygon fill="midnightblue" stroke="midnightblue" points="1599.94,-190.673 1590.75,-195.936 1601.22,-197.556 1599.94,-190.673"/>
</g>
<!-- Node25 -->
<g id="node25" class="node"><title>Node25</title>
<g id="a_node25"><a xlink:href="erpc__usb__cdc__transport_8hpp.html" target="_top" xlink:title="erpc_usb_cdc_transport.hpp">
<polygon fill="white" stroke="black" points="1989.5,-129 1989.5,-148 2129.5,-148 2129.5,-129 1989.5,-129"/>
<text text-anchor="middle" x="2059.5" y="-136" font-family="Helvetica,sans-Serif" font-size="10.00">erpc_usb_cdc_transport.hpp</text>
</a>
</g>
</g>
<!-- Node13&#45;&gt;Node25 -->
<g id="edge27" class="edge"><title>Node13&#45;&gt;Node25</title>
<path fill="none" stroke="midnightblue" d="M1620.86,-197.202C1708.06,-188.509 1854.91,-172.778 1980.5,-154 1991.95,-152.289 2004.28,-150.163 2015.71,-148.071"/>
<polygon fill="midnightblue" stroke="midnightblue" points="1620.39,-193.731 1610.79,-198.201 1621.09,-200.697 1620.39,-193.731"/>
</g>
<!-- Node30&#45;&gt;Node31 -->
<g id="edge33" class="edge"><title>Node30&#45;&gt;Node31</title>
<path fill="none" stroke="midnightblue" d="M2634.85,-184.168C2622.31,-174.228 2607.53,-162.514 2596.26,-153.577"/>
<polygon fill="midnightblue" stroke="midnightblue" points="2632.7,-186.927 2642.71,-190.396 2637.04,-181.441 2632.7,-186.927"/>
</g>
<!-- Node30&#45;&gt;Node32 -->
<g id="edge34" class="edge"><title>Node30&#45;&gt;Node32</title>
<path fill="none" stroke="midnightblue" d="M2707.38,-186.784C2740.73,-174.181 2784.05,-157.808 2809.99,-148.007"/>
<polygon fill="midnightblue" stroke="midnightblue" points="2705.94,-183.587 2697.82,-190.396 2708.41,-190.135 2705.94,-183.587"/>
</g>
<!-- Node30&#45;&gt;Node33 -->
<g id="edge35" class="edge"><title>Node30&#45;&gt;Node33</title>
<path fill="none" stroke="midnightblue" d="M2726.68,-189.828C2819.58,-171.925 2916.69,-156.454 2975.25,-147.478"/>
<polygon fill="midnightblue" stroke="midnightblue" points="2725.98,-186.397 2716.83,-191.737 2727.31,-193.269 2725.98,-186.397"/>
</g>
</g>
</svg>
