<?xml version="1.0" encoding="UTF-8" standalone="no"?>
<!DOCTYPE svg PUBLIC "-//W3C//DTD SVG 1.1//EN"
 "http://www.w3.org/Graphics/SVG/1.1/DTD/svg11.dtd">
<!-- Generated by graphviz version 2.38.0 (20140413.2041)
 -->
<!-- Title: erpc_static_queue.hpp Pages: 1 -->
<svg width="123pt" height="84pt"
 viewBox="0.00 0.00 123.00 84.00" xmlns="http://www.w3.org/2000/svg" xmlns:xlink="http://www.w3.org/1999/xlink">
<g id="graph0" class="graph" transform="scale(1 1) rotate(0) translate(4 80)">
<title>erpc_static_queue.hpp</title>
<polygon fill="white" stroke="none" points="-4,4 -4,-80 119,-80 119,4 -4,4"/>
<!-- Node1 -->
<g id="node1" class="node"><title>Node1</title>
<polygon fill="#bfbfbf" stroke="black" points="0,-56.5 0,-75.5 115,-75.5 115,-56.5 0,-56.5"/>
<text text-anchor="middle" x="57.5" y="-63.5" font-family="Helvetica,sans-Serif" font-size="10.00">erpc_static_queue.hpp</text>
</g>
<!-- Node2 -->
<g id="node2" class="node"><title>Node2</title>
<polygon fill="white" stroke="#bfbfbf" points="2.5,-0.5 2.5,-19.5 48.5,-19.5 48.5,-0.5 2.5,-0.5"/>
<text text-anchor="middle" x="25.5" y="-7.5" font-family="Helvetica,sans-Serif" font-size="10.00">cstring</text>
</g>
<!-- Node1&#45;&gt;Node2 -->
<g id="edge1" class="edge"><title>Node1&#45;&gt;Node2</title>
<path fill="none" stroke="midnightblue" d="M52.2159,-56.083C47.789,-48.6127 41.3367,-37.7244 35.8821,-28.5199"/>
<polygon fill="midnightblue" stroke="midnightblue" points="38.7949,-26.5697 30.6858,-19.7511 32.7729,-30.1383 38.7949,-26.5697"/>
</g>
<!-- Node3 -->
<g id="node3" class="node"><title>Node3</title>
<polygon fill="white" stroke="#bfbfbf" points="66.5,-0.5 66.5,-19.5 112.5,-19.5 112.5,-0.5 66.5,-0.5"/>
<text text-anchor="middle" x="89.5" y="-7.5" font-family="Helvetica,sans-Serif" font-size="10.00">cstdint</text>
</g>
<!-- Node1&#45;&gt;Node3 -->
<g id="edge2" class="edge"><title>Node1&#45;&gt;Node3</title>
<path fill="none" stroke="midnightblue" d="M62.7841,-56.083C67.211,-48.6127 73.6633,-37.7244 79.1179,-28.5199"/>
<polygon fill="midnightblue" stroke="midnightblue" points="82.2271,-30.1383 84.3142,-19.7511 76.2051,-26.5697 82.2271,-30.1383"/>
</g>
</g>
</svg>
