<?xml version="1.0" encoding="UTF-8" standalone="no"?>
<!DOCTYPE svg PUBLIC "-//W3C//DTD SVG 1.1//EN"
 "http://www.w3.org/Graphics/SVG/1.1/DTD/svg11.dtd">
<!-- Generated by graphviz version 2.38.0 (20140413.2041)
 -->
<!-- Title: erpc_rpmsg_lite_rtos_transport.hpp Pages: 1 -->
<svg width="686pt" height="207pt"
 viewBox="0.00 0.00 685.50 207.00" xmlns="http://www.w3.org/2000/svg" xmlns:xlink="http://www.w3.org/1999/xlink">
<g id="graph0" class="graph" transform="scale(1 1) rotate(0) translate(4 203)">
<title>erpc_rpmsg_lite_rtos_transport.hpp</title>
<polygon fill="white" stroke="none" points="-4,4 -4,-203 681.5,-203 681.5,4 -4,4"/>
<!-- Node1 -->
<g id="node1" class="node"><title>Node1</title>
<polygon fill="#bfbfbf" stroke="black" points="305,-168.5 305,-198.5 412,-198.5 412,-168.5 305,-168.5"/>
<text text-anchor="start" x="313" y="-186.5" font-family="Helvetica,sans-Serif" font-size="10.00">erpc_rpmsg_lite_rtos</text>
<text text-anchor="middle" x="358.5" y="-175.5" font-family="Helvetica,sans-Serif" font-size="10.00">_transport.hpp</text>
</g>
<!-- Node2 -->
<g id="node2" class="node"><title>Node2</title>
<g id="a_node2"><a xlink:href="erpc__crc16_8hpp.html" target="_top" xlink:title="erpc_crc16.hpp">
<polygon fill="white" stroke="black" points="0,-56.5 0,-75.5 83,-75.5 83,-56.5 0,-56.5"/>
<text text-anchor="middle" x="41.5" y="-63.5" font-family="Helvetica,sans-Serif" font-size="10.00">erpc_crc16.hpp</text>
</a>
</g>
</g>
<!-- Node1&#45;&gt;Node2 -->
<g id="edge1" class="edge"><title>Node1&#45;&gt;Node2</title>
<path fill="none" stroke="midnightblue" d="M304.786,-181.035C251.102,-177.528 167.677,-166.402 104.5,-132 83.2409,-120.424 64.7568,-99.2463 53.4047,-84.2125"/>
<polygon fill="midnightblue" stroke="midnightblue" points="55.9998,-81.8289 47.297,-75.7864 50.3321,-85.9372 55.9998,-81.8289"/>
</g>
<!-- Node4 -->
<g id="node4" class="node"><title>Node4</title>
<g id="a_node4"><a xlink:href="erpc__message__buffer_8hpp.html" target="_top" xlink:title="erpc_message_buffer.hpp">
<polygon fill="white" stroke="black" points="203.5,-56.5 203.5,-75.5 331.5,-75.5 331.5,-56.5 203.5,-56.5"/>
<text text-anchor="middle" x="267.5" y="-63.5" font-family="Helvetica,sans-Serif" font-size="10.00">erpc_message_buffer.hpp</text>
</a>
</g>
</g>
<!-- Node1&#45;&gt;Node4 -->
<g id="edge3" class="edge"><title>Node1&#45;&gt;Node4</title>
<path fill="none" stroke="midnightblue" d="M347.342,-168.337C330.498,-146.96 298.645,-106.53 280.682,-83.7309"/>
<polygon fill="midnightblue" stroke="midnightblue" points="283.268,-81.3583 274.33,-75.6695 277.77,-85.6905 283.268,-81.3583"/>
</g>
<!-- Node8 -->
<g id="node8" class="node"><title>Node8</title>
<g id="a_node8"><a xlink:href="erpc__rpmsg__lite__base_8hpp.html" target="_top" xlink:title="erpc_rpmsg_lite_base.hpp">
<polygon fill="white" stroke="black" points="340,-112.5 340,-131.5 471,-131.5 471,-112.5 340,-112.5"/>
<text text-anchor="middle" x="405.5" y="-119.5" font-family="Helvetica,sans-Serif" font-size="10.00">erpc_rpmsg_lite_base.hpp</text>
</a>
</g>
</g>
<!-- Node1&#45;&gt;Node8 -->
<g id="edge7" class="edge"><title>Node1&#45;&gt;Node8</title>
<path fill="none" stroke="midnightblue" d="M369.638,-168.399C376.468,-159.753 385.245,-148.642 392.406,-139.576"/>
<polygon fill="midnightblue" stroke="midnightblue" points="395.209,-141.674 398.661,-131.658 389.716,-137.335 395.209,-141.674"/>
</g>
<!-- Node13 -->
<g id="node13" class="node"><title>Node13</title>
<polygon fill="white" stroke="#bfbfbf" points="607.5,-56.5 607.5,-75.5 677.5,-75.5 677.5,-56.5 607.5,-56.5"/>
<text text-anchor="middle" x="642.5" y="-63.5" font-family="Helvetica,sans-Serif" font-size="10.00">rpmsg_lite.h</text>
</g>
<!-- Node1&#45;&gt;Node13 -->
<g id="edge18" class="edge"><title>Node1&#45;&gt;Node13</title>
<path fill="none" stroke="midnightblue" d="M394.293,-168.421C418.549,-158.671 451.214,-145.131 479.5,-132 497.169,-123.798 500.642,-119.782 518.5,-112 547.47,-99.3748 581.236,-87.2857 606.211,-78.8229"/>
<polygon fill="midnightblue" stroke="midnightblue" points="607.631,-82.0385 615.998,-75.5396 605.404,-75.402 607.631,-82.0385"/>
</g>
<!-- Node14 -->
<g id="node14" class="node"><title>Node14</title>
<g id="a_node14"><a xlink:href="erpc__transport_8hpp.html" target="_top" xlink:title="erpc_transport.hpp">
<polygon fill="white" stroke="black" points="113.5,-112.5 113.5,-131.5 211.5,-131.5 211.5,-112.5 113.5,-112.5"/>
<text text-anchor="middle" x="162.5" y="-119.5" font-family="Helvetica,sans-Serif" font-size="10.00">erpc_transport.hpp</text>
</a>
</g>
</g>
<!-- Node1&#45;&gt;Node14 -->
<g id="edge13" class="edge"><title>Node1&#45;&gt;Node14</title>
<path fill="none" stroke="midnightblue" d="M312.051,-168.399C278.035,-158.073 232.437,-144.231 200.567,-134.556"/>
<polygon fill="midnightblue" stroke="midnightblue" points="201.319,-131.127 190.734,-131.571 199.286,-137.825 201.319,-131.127"/>
</g>
<!-- Node16 -->
<g id="node16" class="node"><title>Node16</title>
<polygon fill="white" stroke="#bfbfbf" points="528,-112.5 528,-131.5 611,-131.5 611,-112.5 528,-112.5"/>
<text text-anchor="middle" x="569.5" y="-119.5" font-family="Helvetica,sans-Serif" font-size="10.00">rpmsg_queue.h</text>
</g>
<!-- Node1&#45;&gt;Node16 -->
<g id="edge19" class="edge"><title>Node1&#45;&gt;Node16</title>
<path fill="none" stroke="midnightblue" d="M408.237,-168.475C445.275,-158.03 495.18,-143.958 529.616,-134.247"/>
<polygon fill="midnightblue" stroke="midnightblue" points="530.66,-137.589 539.335,-131.506 528.76,-130.852 530.66,-137.589"/>
</g>
<!-- Node3 -->
<g id="node3" class="node"><title>Node3</title>
<polygon fill="white" stroke="#bfbfbf" points="18.5,-0.5 18.5,-19.5 64.5,-19.5 64.5,-0.5 18.5,-0.5"/>
<text text-anchor="middle" x="41.5" y="-7.5" font-family="Helvetica,sans-Serif" font-size="10.00">cstdint</text>
</g>
<!-- Node2&#45;&gt;Node3 -->
<g id="edge2" class="edge"><title>Node2&#45;&gt;Node3</title>
<path fill="none" stroke="midnightblue" d="M41.5,-56.083C41.5,-49.0059 41.5,-38.8611 41.5,-29.9865"/>
<polygon fill="midnightblue" stroke="midnightblue" points="45.0001,-29.751 41.5,-19.7511 38.0001,-29.7511 45.0001,-29.751"/>
</g>
<!-- Node5 -->
<g id="node5" class="node"><title>Node5</title>
<g id="a_node5"><a xlink:href="erpc__common_8h_source.html" target="_top" xlink:title="erpc_common.h">
<polygon fill="white" stroke="black" points="106.5,-0.5 106.5,-19.5 192.5,-19.5 192.5,-0.5 106.5,-0.5"/>
<text text-anchor="middle" x="149.5" y="-7.5" font-family="Helvetica,sans-Serif" font-size="10.00">erpc_common.h</text>
</a>
</g>
</g>
<!-- Node4&#45;&gt;Node5 -->
<g id="edge4" class="edge"><title>Node4&#45;&gt;Node5</title>
<path fill="none" stroke="midnightblue" d="M248.803,-56.4435C229.556,-47.6356 199.348,-33.8116 177.3,-23.722"/>
<polygon fill="midnightblue" stroke="midnightblue" points="178.66,-20.4951 168.11,-19.5164 175.747,-26.8603 178.66,-20.4951"/>
</g>
<!-- Node6 -->
<g id="node6" class="node"><title>Node6</title>
<polygon fill="white" stroke="#bfbfbf" points="222.5,-0.5 222.5,-19.5 270.5,-19.5 270.5,-0.5 222.5,-0.5"/>
<text text-anchor="middle" x="246.5" y="-7.5" font-family="Helvetica,sans-Serif" font-size="10.00">cstddef</text>
</g>
<!-- Node4&#45;&gt;Node6 -->
<g id="edge5" class="edge"><title>Node4&#45;&gt;Node6</title>
<path fill="none" stroke="midnightblue" d="M264.032,-56.083C261.188,-48.77 257.071,-38.1814 253.54,-29.1034"/>
<polygon fill="midnightblue" stroke="midnightblue" points="256.79,-27.8025 249.903,-19.7511 250.266,-30.3397 256.79,-27.8025"/>
</g>
<!-- Node7 -->
<g id="node7" class="node"><title>Node7</title>
<polygon fill="white" stroke="#bfbfbf" points="289,-0.5 289,-19.5 338,-19.5 338,-0.5 289,-0.5"/>
<text text-anchor="middle" x="313.5" y="-7.5" font-family="Helvetica,sans-Serif" font-size="10.00">stdint.h</text>
</g>
<!-- Node4&#45;&gt;Node7 -->
<g id="edge6" class="edge"><title>Node4&#45;&gt;Node7</title>
<path fill="none" stroke="midnightblue" d="M275.096,-56.083C281.727,-48.2982 291.521,-36.8015 299.558,-27.3665"/>
<polygon fill="midnightblue" stroke="midnightblue" points="302.225,-29.6332 306.045,-19.7511 296.896,-25.0939 302.225,-29.6332"/>
</g>
<!-- Node9 -->
<g id="node9" class="node"><title>Node9</title>
<g id="a_node9"><a xlink:href="erpc__config__internal_8h_source.html" target="_top" xlink:title="erpc_config_internal.h">
<polygon fill="white" stroke="black" points="350,-56.5 350,-75.5 461,-75.5 461,-56.5 350,-56.5"/>
<text text-anchor="middle" x="405.5" y="-63.5" font-family="Helvetica,sans-Serif" font-size="10.00">erpc_config_internal.h</text>
</a>
</g>
</g>
<!-- Node8&#45;&gt;Node9 -->
<g id="edge8" class="edge"><title>Node8&#45;&gt;Node9</title>
<path fill="none" stroke="midnightblue" d="M405.5,-112.083C405.5,-105.006 405.5,-94.8611 405.5,-85.9865"/>
<polygon fill="midnightblue" stroke="midnightblue" points="409,-85.751 405.5,-75.7511 402,-85.7511 409,-85.751"/>
</g>
<!-- Node12 -->
<g id="node12" class="node"><title>Node12</title>
<polygon fill="white" stroke="#bfbfbf" points="479.5,-56.5 479.5,-75.5 589.5,-75.5 589.5,-56.5 479.5,-56.5"/>
<text text-anchor="middle" x="534.5" y="-63.5" font-family="Helvetica,sans-Serif" font-size="10.00">rpmsg_env_specific.h</text>
</g>
<!-- Node8&#45;&gt;Node12 -->
<g id="edge11" class="edge"><title>Node8&#45;&gt;Node12</title>
<path fill="none" stroke="midnightblue" d="M425.94,-112.444C447.17,-103.557 480.599,-89.5632 504.755,-79.4514"/>
<polygon fill="midnightblue" stroke="midnightblue" points="506.282,-82.6064 514.155,-75.5164 503.579,-76.1493 506.282,-82.6064"/>
</g>
<!-- Node8&#45;&gt;Node13 -->
<g id="edge12" class="edge"><title>Node8&#45;&gt;Node13</title>
<path fill="none" stroke="midnightblue" d="M443.053,-112.444C484.951,-102.897 552.708,-87.459 597.431,-77.2688"/>
<polygon fill="midnightblue" stroke="midnightblue" points="598.468,-80.6225 607.44,-74.9883 596.913,-73.7974 598.468,-80.6225"/>
</g>
<!-- Node10 -->
<g id="node10" class="node"><title>Node10</title>
<g id="a_node10"><a xlink:href="erpc__config_8h.html" target="_top" xlink:title="erpc_config.h">
<polygon fill="white" stroke="black" points="362.5,-0.5 362.5,-19.5 436.5,-19.5 436.5,-0.5 362.5,-0.5"/>
<text text-anchor="middle" x="399.5" y="-7.5" font-family="Helvetica,sans-Serif" font-size="10.00">erpc_config.h</text>
</a>
</g>
</g>
<!-- Node9&#45;&gt;Node10 -->
<g id="edge9" class="edge"><title>Node9&#45;&gt;Node10</title>
<path fill="none" stroke="midnightblue" d="M404.509,-56.083C403.714,-48.9272 402.571,-38.6353 401.577,-29.6911"/>
<polygon fill="midnightblue" stroke="midnightblue" points="405.055,-29.3034 400.472,-19.7511 398.098,-30.0765 405.055,-29.3034"/>
</g>
<!-- Node11 -->
<g id="node11" class="node"><title>Node11</title>
<polygon fill="white" stroke="#bfbfbf" points="455,-0.5 455,-19.5 504,-19.5 504,-0.5 455,-0.5"/>
<text text-anchor="middle" x="479.5" y="-7.5" font-family="Helvetica,sans-Serif" font-size="10.00">cassert</text>
</g>
<!-- Node9&#45;&gt;Node11 -->
<g id="edge10" class="edge"><title>Node9&#45;&gt;Node11</title>
<path fill="none" stroke="midnightblue" d="M417.389,-56.324C428.65,-48.1066 445.787,-35.6017 459.209,-25.8069"/>
<polygon fill="midnightblue" stroke="midnightblue" points="461.38,-28.5559 467.394,-19.8339 457.253,-22.9014 461.38,-28.5559"/>
</g>
<!-- Node14&#45;&gt;Node2 -->
<g id="edge15" class="edge"><title>Node14&#45;&gt;Node2</title>
<path fill="none" stroke="midnightblue" d="M143.327,-112.444C123.591,-103.636 92.6148,-89.8116 70.0066,-79.722"/>
<polygon fill="midnightblue" stroke="midnightblue" points="71.1414,-76.3957 60.5831,-75.5164 68.2886,-82.788 71.1414,-76.3957"/>
</g>
<!-- Node14&#45;&gt;Node4 -->
<g id="edge16" class="edge"><title>Node14&#45;&gt;Node4</title>
<path fill="none" stroke="midnightblue" d="M179.37,-112.324C196.209,-103.664 222.307,-90.2424 241.738,-80.249"/>
<polygon fill="midnightblue" stroke="midnightblue" points="243.38,-83.3405 250.672,-75.6545 240.178,-77.1155 243.38,-83.3405"/>
</g>
<!-- Node14&#45;&gt;Node5 -->
<g id="edge14" class="edge"><title>Node14&#45;&gt;Node5</title>
<path fill="none" stroke="midnightblue" d="M153.749,-112.286C145.937,-103.84 135.049,-90.2462 130.5,-76 125.427,-60.1137 131.809,-41.8768 138.509,-28.7712"/>
<polygon fill="midnightblue" stroke="midnightblue" points="141.662,-30.3057 143.51,-19.8734 135.56,-26.8758 141.662,-30.3057"/>
</g>
<!-- Node15 -->
<g id="node15" class="node"><title>Node15</title>
<polygon fill="white" stroke="#bfbfbf" points="139.5,-56.5 139.5,-75.5 185.5,-75.5 185.5,-56.5 139.5,-56.5"/>
<text text-anchor="middle" x="162.5" y="-63.5" font-family="Helvetica,sans-Serif" font-size="10.00">cstring</text>
</g>
<!-- Node14&#45;&gt;Node15 -->
<g id="edge17" class="edge"><title>Node14&#45;&gt;Node15</title>
<path fill="none" stroke="midnightblue" d="M162.5,-112.083C162.5,-105.006 162.5,-94.8611 162.5,-85.9865"/>
<polygon fill="midnightblue" stroke="midnightblue" points="166,-85.751 162.5,-75.7511 159,-85.7511 166,-85.751"/>
</g>
</g>
</svg>
