<?xml version="1.0" encoding="UTF-8" standalone="no"?>
<!DOCTYPE svg PUBLIC "-//W3C//DTD SVG 1.1//EN"
 "http://www.w3.org/Graphics/SVG/1.1/DTD/svg11.dtd">
<!-- Generated by graphviz version 2.38.0 (20140413.2041)
 -->
<!-- Title: erpc_config.h Pages: 1 -->
<svg width="879pt" height="263pt"
 viewBox="0.00 0.00 879.00 263.00" xmlns="http://www.w3.org/2000/svg" xmlns:xlink="http://www.w3.org/1999/xlink">
<g id="graph0" class="graph" transform="scale(1 1) rotate(0) translate(4 259)">
<title>erpc_config.h</title>
<polygon fill="white" stroke="none" points="-4,4 -4,-259 875,-259 875,4 -4,4"/>
<!-- Node1 -->
<g id="node1" class="node"><title>Node1</title>
<polygon fill="#bfbfbf" stroke="black" points="576,-235.5 576,-254.5 650,-254.5 650,-235.5 576,-235.5"/>
<text text-anchor="middle" x="613" y="-242.5" font-family="Helvetica,sans-Serif" font-size="10.00">erpc_config.h</text>
</g>
<!-- Node2 -->
<g id="node2" class="node"><title>Node2</title>
<g id="a_node2"><a xlink:href="erpc__config__internal_8h_source.html" target="_top" xlink:title="erpc_config_internal.h">
<polygon fill="white" stroke="black" points="557.5,-179.5 557.5,-198.5 668.5,-198.5 668.5,-179.5 557.5,-179.5"/>
<text text-anchor="middle" x="613" y="-186.5" font-family="Helvetica,sans-Serif" font-size="10.00">erpc_config_internal.h</text>
</a>
</g>
</g>
<!-- Node1&#45;&gt;Node2 -->
<g id="edge1" class="edge"><title>Node1&#45;&gt;Node2</title>
<path fill="none" stroke="midnightblue" d="M613,-224.805C613,-215.91 613,-205.78 613,-198.751"/>
<polygon fill="midnightblue" stroke="midnightblue" points="609.5,-225.083 613,-235.083 616.5,-225.083 609.5,-225.083"/>
</g>
<!-- Node3 -->
<g id="node3" class="node"><title>Node3</title>
<g id="a_node3"><a xlink:href="framed__transport_8h.html" target="_top" xlink:title="framed_transport.h">
<polygon fill="white" stroke="black" points="456,-62 456,-81 554,-81 554,-62 456,-62"/>
<text text-anchor="middle" x="505" y="-69" font-family="Helvetica,sans-Serif" font-size="10.00">framed_transport.h</text>
</a>
</g>
</g>
<!-- Node2&#45;&gt;Node3 -->
<g id="edge2" class="edge"><title>Node2&#45;&gt;Node3</title>
<path fill="none" stroke="midnightblue" d="M572.684,-175.939C555.437,-168.892 536.446,-158.298 524,-143 509.12,-124.71 505.833,-95.7814 505.147,-81.3284"/>
<polygon fill="midnightblue" stroke="midnightblue" points="571.442,-179.211 582.033,-179.496 573.931,-172.669 571.442,-179.211"/>
</g>
<!-- Node11 -->
<g id="node11" class="node"><title>Node11</title>
<g id="a_node11"><a xlink:href="erpc__port_8h.html" target="_top" xlink:title="erpc_port.h">
<polygon fill="white" stroke="black" points="533.5,-123.5 533.5,-142.5 598.5,-142.5 598.5,-123.5 533.5,-123.5"/>
<text text-anchor="middle" x="566" y="-130.5" font-family="Helvetica,sans-Serif" font-size="10.00">erpc_port.h</text>
</a>
</g>
</g>
<!-- Node2&#45;&gt;Node11 -->
<g id="edge10" class="edge"><title>Node2&#45;&gt;Node11</title>
<path fill="none" stroke="midnightblue" d="M598.579,-171.431C590.342,-161.967 580.346,-150.483 573.617,-142.751"/>
<polygon fill="midnightblue" stroke="midnightblue" points="596.034,-173.838 605.239,-179.083 601.314,-169.242 596.034,-173.838"/>
</g>
<!-- Node12 -->
<g id="node12" class="node"><title>Node12</title>
<g id="a_node12"><a xlink:href="erpc__threading_8h.html" target="_top" xlink:title="erpc_threading.h">
<polygon fill="white" stroke="black" points="616.5,-123.5 616.5,-142.5 705.5,-142.5 705.5,-123.5 616.5,-123.5"/>
<text text-anchor="middle" x="661" y="-130.5" font-family="Helvetica,sans-Serif" font-size="10.00">erpc_threading.h</text>
</a>
</g>
</g>
<!-- Node2&#45;&gt;Node12 -->
<g id="edge11" class="edge"><title>Node2&#45;&gt;Node12</title>
<path fill="none" stroke="midnightblue" d="M627.728,-171.431C636.14,-161.967 646.349,-150.483 653.221,-142.751"/>
<polygon fill="midnightblue" stroke="midnightblue" points="624.954,-169.284 620.926,-179.083 630.186,-173.934 624.954,-169.284"/>
</g>
<!-- Node15 -->
<g id="node15" class="node"><title>Node15</title>
<g id="a_node15"><a xlink:href="rpmsg__lite__zc__transport_8h.html" target="_top" xlink:title="rpmsg_lite_zc_transport.h">
<polygon fill="white" stroke="black" points="723.5,-123.5 723.5,-142.5 852.5,-142.5 852.5,-123.5 723.5,-123.5"/>
<text text-anchor="middle" x="788" y="-130.5" font-family="Helvetica,sans-Serif" font-size="10.00">rpmsg_lite_zc_transport.h</text>
</a>
</g>
</g>
<!-- Node2&#45;&gt;Node15 -->
<g id="edge16" class="edge"><title>Node2&#45;&gt;Node15</title>
<path fill="none" stroke="midnightblue" d="M650.475,-176.436C683.47,-166.255 730.756,-151.664 760.4,-142.516"/>
<polygon fill="midnightblue" stroke="midnightblue" points="649.253,-173.151 640.729,-179.444 651.317,-179.839 649.253,-173.151"/>
</g>
<!-- Node4 -->
<g id="node4" class="node"><title>Node4</title>
<g id="a_node4"><a xlink:href="dspi__master__transport_8h.html" target="_top" xlink:title="dspi_master_transport.h">
<polygon fill="white" stroke="black" points="0,-0.5 0,-19.5 122,-19.5 122,-0.5 0,-0.5"/>
<text text-anchor="middle" x="61" y="-7.5" font-family="Helvetica,sans-Serif" font-size="10.00">dspi_master_transport.h</text>
</a>
</g>
</g>
<!-- Node3&#45;&gt;Node4 -->
<g id="edge3" class="edge"><title>Node3&#45;&gt;Node4</title>
<path fill="none" stroke="midnightblue" d="M445.859,-62.5746C361.533,-51.2741 207.525,-30.6357 122.123,-19.191"/>
<polygon fill="midnightblue" stroke="midnightblue" points="445.411,-66.0458 455.788,-63.9051 446.341,-59.1078 445.411,-66.0458"/>
</g>
<!-- Node5 -->
<g id="node5" class="node"><title>Node5</title>
<g id="a_node5"><a xlink:href="dspi__slave__transport_8h.html" target="_top" xlink:title="dspi_slave_transport.h">
<polygon fill="white" stroke="black" points="140.5,-0.5 140.5,-19.5 253.5,-19.5 253.5,-0.5 140.5,-0.5"/>
<text text-anchor="middle" x="197" y="-7.5" font-family="Helvetica,sans-Serif" font-size="10.00">dspi_slave_transport.h</text>
</a>
</g>
</g>
<!-- Node3&#45;&gt;Node5 -->
<g id="edge4" class="edge"><title>Node3&#45;&gt;Node5</title>
<path fill="none" stroke="midnightblue" d="M450.883,-60.0456C391.213,-48.5184 296.357,-30.1939 241.047,-19.5091"/>
<polygon fill="midnightblue" stroke="midnightblue" points="450.389,-63.5147 460.871,-61.9751 451.717,-56.6418 450.389,-63.5147"/>
</g>
<!-- Node6 -->
<g id="node6" class="node"><title>Node6</title>
<g id="a_node6"><a xlink:href="serial__transport_8h.html" target="_top" xlink:title="serial_transport.h">
<polygon fill="white" stroke="black" points="272,-0.5 272,-19.5 364,-19.5 364,-0.5 272,-0.5"/>
<text text-anchor="middle" x="318" y="-7.5" font-family="Helvetica,sans-Serif" font-size="10.00">serial_transport.h</text>
</a>
</g>
</g>
<!-- Node3&#45;&gt;Node6 -->
<g id="edge5" class="edge"><title>Node3&#45;&gt;Node6</title>
<path fill="none" stroke="midnightblue" d="M468.482,-58.8806C432.134,-47.3152 377.214,-29.8407 344.743,-19.5091"/>
<polygon fill="midnightblue" stroke="midnightblue" points="467.617,-62.2782 478.207,-61.9751 469.739,-55.6078 467.617,-62.2782"/>
</g>
<!-- Node7 -->
<g id="node7" class="node"><title>Node7</title>
<g id="a_node7"><a xlink:href="spi__master__transport_8h.html" target="_top" xlink:title="spi_master_transport.h">
<polygon fill="white" stroke="black" points="382,-0.5 382,-19.5 498,-19.5 498,-0.5 382,-0.5"/>
<text text-anchor="middle" x="440" y="-7.5" font-family="Helvetica,sans-Serif" font-size="10.00">spi_master_transport.h</text>
</a>
</g>
</g>
<!-- Node3&#45;&gt;Node7 -->
<g id="edge6" class="edge"><title>Node3&#45;&gt;Node7</title>
<path fill="none" stroke="midnightblue" d="M488.231,-55.1496C475.838,-43.8058 459.425,-28.7811 449.296,-19.5091"/>
<polygon fill="midnightblue" stroke="midnightblue" points="485.948,-57.8047 495.687,-61.9751 490.674,-52.6413 485.948,-57.8047"/>
</g>
<!-- Node8 -->
<g id="node8" class="node"><title>Node8</title>
<g id="a_node8"><a xlink:href="spi__slave__transport_8h.html" target="_top" xlink:title="spi_slave_transport.h">
<polygon fill="white" stroke="black" points="516,-0.5 516,-19.5 624,-19.5 624,-0.5 516,-0.5"/>
<text text-anchor="middle" x="570" y="-7.5" font-family="Helvetica,sans-Serif" font-size="10.00">spi_slave_transport.h</text>
</a>
</g>
</g>
<!-- Node3&#45;&gt;Node8 -->
<g id="edge7" class="edge"><title>Node3&#45;&gt;Node8</title>
<path fill="none" stroke="midnightblue" d="M521.769,-55.1496C534.162,-43.8058 550.575,-28.7811 560.704,-19.5091"/>
<polygon fill="midnightblue" stroke="midnightblue" points="519.326,-52.6413 514.313,-61.9751 524.052,-57.8047 519.326,-52.6413"/>
</g>
<!-- Node9 -->
<g id="node9" class="node"><title>Node9</title>
<g id="a_node9"><a xlink:href="tcp__transport_8h.html" target="_top" xlink:title="tcp_transport.h">
<polygon fill="white" stroke="black" points="776,-0.5 776,-19.5 858,-19.5 858,-0.5 776,-0.5"/>
<text text-anchor="middle" x="817" y="-7.5" font-family="Helvetica,sans-Serif" font-size="10.00">tcp_transport.h</text>
</a>
</g>
</g>
<!-- Node3&#45;&gt;Node9 -->
<g id="edge8" class="edge"><title>Node3&#45;&gt;Node9</title>
<path fill="none" stroke="midnightblue" d="M559.647,-60.0786C621.351,-48.3113 720.359,-29.4299 775.863,-18.845"/>
<polygon fill="midnightblue" stroke="midnightblue" points="558.869,-56.6637 549.702,-61.9751 560.181,-63.5398 558.869,-56.6637"/>
</g>
<!-- Node10 -->
<g id="node10" class="node"><title>Node10</title>
<g id="a_node10"><a xlink:href="uart__cmsis__transport_8h.html" target="_top" xlink:title="uart_cmsis_transport.h">
<polygon fill="white" stroke="black" points="642,-0.5 642,-19.5 758,-19.5 758,-0.5 642,-0.5"/>
<text text-anchor="middle" x="700" y="-7.5" font-family="Helvetica,sans-Serif" font-size="10.00">uart_cmsis_transport.h</text>
</a>
</g>
</g>
<!-- Node3&#45;&gt;Node10 -->
<g id="edge9" class="edge"><title>Node3&#45;&gt;Node10</title>
<path fill="none" stroke="midnightblue" d="M542.595,-59.0286C580.494,-47.4647 638.108,-29.8849 672.113,-19.5091"/>
<polygon fill="midnightblue" stroke="midnightblue" points="541.482,-55.709 532.939,-61.9751 543.525,-62.4042 541.482,-55.709"/>
</g>
<!-- Node12&#45;&gt;Node3 -->
<g id="edge13" class="edge"><title>Node12&#45;&gt;Node3</title>
<path fill="none" stroke="midnightblue" d="M628.967,-119.782C598.652,-108.22 553.934,-91.1641 527.31,-81.0091"/>
<polygon fill="midnightblue" stroke="midnightblue" points="628.058,-123.182 638.649,-123.475 630.553,-116.641 628.058,-123.182"/>
</g>
<!-- Node12&#45;&gt;Node9 -->
<g id="edge15" class="edge"><title>Node12&#45;&gt;Node9</title>
<path fill="none" stroke="midnightblue" d="M648.12,-114.355C637.717,-97.7561 626.794,-72.9829 640,-56 648.418,-45.1744 726.291,-28.4297 775.902,-18.7097"/>
<polygon fill="midnightblue" stroke="midnightblue" points="645.502,-116.733 653.998,-123.062 651.304,-112.816 645.502,-116.733"/>
</g>
<!-- Node13 -->
<g id="node13" class="node"><title>Node13</title>
<g id="a_node13"><a xlink:href="transport__arbitrator_8h.html" target="_top" xlink:title="transport_arbitrator.h">
<polygon fill="white" stroke="black" points="649.5,-62 649.5,-81 756.5,-81 756.5,-62 649.5,-62"/>
<text text-anchor="middle" x="703" y="-69" font-family="Helvetica,sans-Serif" font-size="10.00">transport_arbitrator.h</text>
</a>
</g>
</g>
<!-- Node12&#45;&gt;Node13 -->
<g id="edge12" class="edge"><title>Node12&#45;&gt;Node13</title>
<path fill="none" stroke="midnightblue" d="M672.996,-115.005C680.844,-103.888 690.76,-89.8395 696.994,-81.0091"/>
<polygon fill="midnightblue" stroke="midnightblue" points="669.925,-113.287 667.018,-123.475 675.644,-117.324 669.925,-113.287"/>
</g>
<!-- Node14 -->
<g id="node14" class="node"><title>Node14</title>
<g id="a_node14"><a xlink:href="inter__thread__buffer__transport_8h.html" target="_top" xlink:title="inter_thread_buffer\l_transport.h">
<polygon fill="white" stroke="black" points="775,-56.5 775,-86.5 871,-86.5 871,-56.5 775,-56.5"/>
<text text-anchor="start" x="783" y="-74.5" font-family="Helvetica,sans-Serif" font-size="10.00">inter_thread_buffer</text>
<text text-anchor="middle" x="823" y="-63.5" font-family="Helvetica,sans-Serif" font-size="10.00">_transport.h</text>
</a>
</g>
</g>
<!-- Node12&#45;&gt;Node14 -->
<g id="edge14" class="edge"><title>Node12&#45;&gt;Node14</title>
<path fill="none" stroke="midnightblue" d="M693.739,-119.976C720.078,-110.302 757.133,-96.6919 784.82,-86.523"/>
<polygon fill="midnightblue" stroke="midnightblue" points="692.391,-116.742 684.211,-123.475 694.804,-123.313 692.391,-116.742"/>
</g>
</g>
</svg>
