<?xml version="1.0" encoding="UTF-8" standalone="no"?>
<!DOCTYPE svg PUBLIC "-//W3C//DTD SVG 1.1//EN"
 "http://www.w3.org/Graphics/SVG/1.1/DTD/svg11.dtd">
<!-- Generated by graphviz version 2.38.0 (20140413.2041)
 -->
<!-- Title: erpc_message_loggers.hpp Pages: 1 -->
<svg width="343pt" height="196pt"
 viewBox="0.00 0.00 342.50 196.00" xmlns="http://www.w3.org/2000/svg" xmlns:xlink="http://www.w3.org/1999/xlink">
<g id="graph0" class="graph" transform="scale(1 1) rotate(0) translate(4 192)">
<title>erpc_message_loggers.hpp</title>
<polygon fill="white" stroke="none" points="-4,4 -4,-192 338.5,-192 338.5,4 -4,4"/>
<!-- Node1 -->
<g id="node1" class="node"><title>Node1</title>
<polygon fill="#bfbfbf" stroke="black" points="92.5,-168.5 92.5,-187.5 228.5,-187.5 228.5,-168.5 92.5,-168.5"/>
<text text-anchor="middle" x="160.5" y="-175.5" font-family="Helvetica,sans-Serif" font-size="10.00">erpc_message_loggers.hpp</text>
</g>
<!-- Node2 -->
<g id="node2" class="node"><title>Node2</title>
<g id="a_node2"><a xlink:href="erpc__transport_8hpp.html" target="_top" xlink:title="erpc_transport.hpp">
<polygon fill="white" stroke="black" points="111.5,-112.5 111.5,-131.5 209.5,-131.5 209.5,-112.5 111.5,-112.5"/>
<text text-anchor="middle" x="160.5" y="-119.5" font-family="Helvetica,sans-Serif" font-size="10.00">erpc_transport.hpp</text>
</a>
</g>
</g>
<!-- Node1&#45;&gt;Node2 -->
<g id="edge1" class="edge"><title>Node1&#45;&gt;Node2</title>
<path fill="none" stroke="midnightblue" d="M160.5,-168.083C160.5,-161.006 160.5,-150.861 160.5,-141.986"/>
<polygon fill="midnightblue" stroke="midnightblue" points="164,-141.751 160.5,-131.751 157,-141.751 164,-141.751"/>
</g>
<!-- Node3 -->
<g id="node3" class="node"><title>Node3</title>
<g id="a_node3"><a xlink:href="erpc__common_8h_source.html" target="_top" xlink:title="erpc_common.h">
<polygon fill="white" stroke="black" points="78.5,-0.5 78.5,-19.5 164.5,-19.5 164.5,-0.5 78.5,-0.5"/>
<text text-anchor="middle" x="121.5" y="-7.5" font-family="Helvetica,sans-Serif" font-size="10.00">erpc_common.h</text>
</a>
</g>
</g>
<!-- Node2&#45;&gt;Node3 -->
<g id="edge2" class="edge"><title>Node2&#45;&gt;Node3</title>
<path fill="none" stroke="midnightblue" d="M153.897,-112.185C147.683,-103.45 138.591,-89.4648 133.5,-76 127.85,-61.0566 124.796,-43.143 123.186,-29.9091"/>
<polygon fill="midnightblue" stroke="midnightblue" points="126.637,-29.257 122.113,-19.6763 119.675,-29.9867 126.637,-29.257"/>
</g>
<!-- Node4 -->
<g id="node4" class="node"><title>Node4</title>
<g id="a_node4"><a xlink:href="erpc__crc16_8hpp.html" target="_top" xlink:title="erpc_crc16.hpp">
<polygon fill="white" stroke="black" points="0,-56.5 0,-75.5 83,-75.5 83,-56.5 0,-56.5"/>
<text text-anchor="middle" x="41.5" y="-63.5" font-family="Helvetica,sans-Serif" font-size="10.00">erpc_crc16.hpp</text>
</a>
</g>
</g>
<!-- Node2&#45;&gt;Node4 -->
<g id="edge3" class="edge"><title>Node2&#45;&gt;Node4</title>
<path fill="none" stroke="midnightblue" d="M141.644,-112.444C122.234,-103.636 91.7699,-89.8116 69.5355,-79.722"/>
<polygon fill="midnightblue" stroke="midnightblue" points="70.8203,-76.4615 60.2677,-75.5164 67.9277,-82.836 70.8203,-76.4615"/>
</g>
<!-- Node6 -->
<g id="node6" class="node"><title>Node6</title>
<g id="a_node6"><a xlink:href="erpc__message__buffer_8hpp.html" target="_top" xlink:title="erpc_message_buffer.hpp">
<polygon fill="white" stroke="black" points="142.5,-56.5 142.5,-75.5 270.5,-75.5 270.5,-56.5 142.5,-56.5"/>
<text text-anchor="middle" x="206.5" y="-63.5" font-family="Helvetica,sans-Serif" font-size="10.00">erpc_message_buffer.hpp</text>
</a>
</g>
</g>
<!-- Node2&#45;&gt;Node6 -->
<g id="edge5" class="edge"><title>Node2&#45;&gt;Node6</title>
<path fill="none" stroke="midnightblue" d="M168.096,-112.083C174.727,-104.298 184.521,-92.8015 192.558,-83.3665"/>
<polygon fill="midnightblue" stroke="midnightblue" points="195.225,-85.6332 199.045,-75.7511 189.896,-81.0939 195.225,-85.6332"/>
</g>
<!-- Node9 -->
<g id="node9" class="node"><title>Node9</title>
<polygon fill="white" stroke="#bfbfbf" points="288.5,-56.5 288.5,-75.5 334.5,-75.5 334.5,-56.5 288.5,-56.5"/>
<text text-anchor="middle" x="311.5" y="-63.5" font-family="Helvetica,sans-Serif" font-size="10.00">cstring</text>
</g>
<!-- Node2&#45;&gt;Node9 -->
<g id="edge9" class="edge"><title>Node2&#45;&gt;Node9</title>
<path fill="none" stroke="midnightblue" d="M184.426,-112.444C209.868,-103.345 250.274,-88.8952 278.679,-78.7372"/>
<polygon fill="midnightblue" stroke="midnightblue" points="279.944,-82.002 288.182,-75.339 277.587,-75.4108 279.944,-82.002"/>
</g>
<!-- Node5 -->
<g id="node5" class="node"><title>Node5</title>
<polygon fill="white" stroke="#bfbfbf" points="14.5,-0.5 14.5,-19.5 60.5,-19.5 60.5,-0.5 14.5,-0.5"/>
<text text-anchor="middle" x="37.5" y="-7.5" font-family="Helvetica,sans-Serif" font-size="10.00">cstdint</text>
</g>
<!-- Node4&#45;&gt;Node5 -->
<g id="edge4" class="edge"><title>Node4&#45;&gt;Node5</title>
<path fill="none" stroke="midnightblue" d="M40.8395,-56.083C40.3152,-49.0059 39.5638,-38.8611 38.9064,-29.9865"/>
<polygon fill="midnightblue" stroke="midnightblue" points="42.3775,-29.4652 38.1482,-19.7511 35.3966,-29.9823 42.3775,-29.4652"/>
</g>
<!-- Node6&#45;&gt;Node3 -->
<g id="edge6" class="edge"><title>Node6&#45;&gt;Node3</title>
<path fill="none" stroke="midnightblue" d="M192.843,-56.324C179.584,-47.9002 159.232,-34.9709 143.654,-25.0741"/>
<polygon fill="midnightblue" stroke="midnightblue" points="145.44,-22.0626 135.123,-19.6545 141.687,-27.9711 145.44,-22.0626"/>
</g>
<!-- Node7 -->
<g id="node7" class="node"><title>Node7</title>
<polygon fill="white" stroke="#bfbfbf" points="182.5,-0.5 182.5,-19.5 230.5,-19.5 230.5,-0.5 182.5,-0.5"/>
<text text-anchor="middle" x="206.5" y="-7.5" font-family="Helvetica,sans-Serif" font-size="10.00">cstddef</text>
</g>
<!-- Node6&#45;&gt;Node7 -->
<g id="edge7" class="edge"><title>Node6&#45;&gt;Node7</title>
<path fill="none" stroke="midnightblue" d="M206.5,-56.083C206.5,-49.0059 206.5,-38.8611 206.5,-29.9865"/>
<polygon fill="midnightblue" stroke="midnightblue" points="210,-29.751 206.5,-19.7511 203,-29.7511 210,-29.751"/>
</g>
<!-- Node8 -->
<g id="node8" class="node"><title>Node8</title>
<polygon fill="white" stroke="#bfbfbf" points="249,-0.5 249,-19.5 298,-19.5 298,-0.5 249,-0.5"/>
<text text-anchor="middle" x="273.5" y="-7.5" font-family="Helvetica,sans-Serif" font-size="10.00">stdint.h</text>
</g>
<!-- Node6&#45;&gt;Node8 -->
<g id="edge8" class="edge"><title>Node6&#45;&gt;Node8</title>
<path fill="none" stroke="midnightblue" d="M217.265,-56.324C227.266,-48.2631 242.387,-36.0765 254.43,-26.3695"/>
<polygon fill="midnightblue" stroke="midnightblue" points="256.95,-28.8343 262.539,-19.8339 252.557,-23.3841 256.95,-28.8343"/>
</g>
</g>
</svg>
