<?xml version="1.0" encoding="UTF-8" standalone="no"?>
<!DOCTYPE svg PUBLIC "-//W3C//DTD SVG 1.1//EN"
 "http://www.w3.org/Graphics/SVG/1.1/DTD/svg11.dtd">
<!-- Generated by graphviz version 2.38.0 (20140413.2041)
 -->
<!-- Title: erpc_usb_cdc_transport.hpp Pages: 1 -->
<svg width="559pt" height="263pt"
 viewBox="0.00 0.00 559.00 263.00" xmlns="http://www.w3.org/2000/svg" xmlns:xlink="http://www.w3.org/1999/xlink">
<g id="graph0" class="graph" transform="scale(1 1) rotate(0) translate(4 259)">
<title>erpc_usb_cdc_transport.hpp</title>
<polygon fill="white" stroke="none" points="-4,4 -4,-259 555,-259 555,4 -4,4"/>
<!-- Node1 -->
<g id="node1" class="node"><title>Node1</title>
<polygon fill="#bfbfbf" stroke="black" points="99,-235.5 99,-254.5 239,-254.5 239,-235.5 99,-235.5"/>
<text text-anchor="middle" x="169" y="-242.5" font-family="Helvetica,sans-Serif" font-size="10.00">erpc_usb_cdc_transport.hpp</text>
</g>
<!-- Node2 -->
<g id="node2" class="node"><title>Node2</title>
<polygon fill="white" stroke="#bfbfbf" points="35.5,-174 35.5,-193 78.5,-193 78.5,-174 35.5,-174"/>
<text text-anchor="middle" x="57" y="-181" font-family="Helvetica,sans-Serif" font-size="10.00">cstdio</text>
</g>
<!-- Node1&#45;&gt;Node2 -->
<g id="edge1" class="edge"><title>Node1&#45;&gt;Node2</title>
<path fill="none" stroke="midnightblue" d="M152.953,-235.475C134.407,-225.622 103.66,-209.288 81.9783,-197.77"/>
<polygon fill="midnightblue" stroke="midnightblue" points="83.4903,-194.61 73.0171,-193.009 80.2062,-200.792 83.4903,-194.61"/>
</g>
<!-- Node3 -->
<g id="node3" class="node"><title>Node3</title>
<g id="a_node3"><a xlink:href="erpc__config__internal_8h_source.html" target="_top" xlink:title="erpc_config_internal.h">
<polygon fill="white" stroke="black" points="51.5,-56.5 51.5,-75.5 162.5,-75.5 162.5,-56.5 51.5,-56.5"/>
<text text-anchor="middle" x="107" y="-63.5" font-family="Helvetica,sans-Serif" font-size="10.00">erpc_config_internal.h</text>
</a>
</g>
</g>
<!-- Node1&#45;&gt;Node3 -->
<g id="edge2" class="edge"><title>Node1&#45;&gt;Node3</title>
<path fill="none" stroke="midnightblue" d="M165.409,-235.375C157.698,-216.705 139.187,-171.075 126,-132 120.772,-116.509 115.617,-98.6675 111.999,-85.6004"/>
<polygon fill="midnightblue" stroke="midnightblue" points="115.362,-84.6292 109.353,-75.9033 108.609,-86.4719 115.362,-84.6292"/>
</g>
<!-- Node6 -->
<g id="node6" class="node"><title>Node6</title>
<g id="a_node6"><a xlink:href="erpc__threading_8h.html" target="_top" xlink:title="erpc_threading.h">
<polygon fill="white" stroke="black" points="135.5,-112.5 135.5,-131.5 224.5,-131.5 224.5,-112.5 135.5,-112.5"/>
<text text-anchor="middle" x="180" y="-119.5" font-family="Helvetica,sans-Serif" font-size="10.00">erpc_threading.h</text>
</a>
</g>
</g>
<!-- Node1&#45;&gt;Node6 -->
<g id="edge5" class="edge"><title>Node1&#45;&gt;Node6</title>
<path fill="none" stroke="midnightblue" d="M169.791,-235.298C171.559,-215.85 175.865,-168.49 178.281,-141.904"/>
<polygon fill="midnightblue" stroke="midnightblue" points="181.796,-141.899 179.216,-131.623 174.825,-141.265 181.796,-141.899"/>
</g>
<!-- Node8 -->
<g id="node8" class="node"><title>Node8</title>
<g id="a_node8"><a xlink:href="erpc__framed__transport_8hpp.html" target="_top" xlink:title="erpc_framed_transport.hpp">
<polygon fill="white" stroke="black" points="197,-174 197,-193 329,-193 329,-174 197,-174"/>
<text text-anchor="middle" x="263" y="-181" font-family="Helvetica,sans-Serif" font-size="10.00">erpc_framed_transport.hpp</text>
</a>
</g>
</g>
<!-- Node1&#45;&gt;Node8 -->
<g id="edge8" class="edge"><title>Node1&#45;&gt;Node8</title>
<path fill="none" stroke="midnightblue" d="M182.468,-235.475C197.685,-225.843 222.687,-210.017 240.801,-198.552"/>
<polygon fill="midnightblue" stroke="midnightblue" points="242.979,-201.315 249.557,-193.009 239.236,-195.4 242.979,-201.315"/>
</g>
<!-- Node16 -->
<g id="node16" class="node"><title>Node16</title>
<polygon fill="white" stroke="#bfbfbf" points="347,-168.5 347,-198.5 455,-198.5 455,-168.5 347,-168.5"/>
<text text-anchor="start" x="355" y="-186.5" font-family="Helvetica,sans-Serif" font-size="10.00">fsl_component_serial</text>
<text text-anchor="middle" x="401" y="-175.5" font-family="Helvetica,sans-Serif" font-size="10.00">_manager.h</text>
</g>
<!-- Node1&#45;&gt;Node16 -->
<g id="edge22" class="edge"><title>Node1&#45;&gt;Node16</title>
<path fill="none" stroke="midnightblue" d="M202.24,-235.475C237.228,-226.502 293.175,-212.153 336.811,-200.962"/>
<polygon fill="midnightblue" stroke="midnightblue" points="337.952,-204.283 346.769,-198.408 336.213,-197.502 337.952,-204.283"/>
</g>
<!-- Node4 -->
<g id="node4" class="node"><title>Node4</title>
<g id="a_node4"><a xlink:href="erpc__config_8h.html" target="_top" xlink:title="erpc_config.h">
<polygon fill="white" stroke="black" points="0,-0.5 0,-19.5 74,-19.5 74,-0.5 0,-0.5"/>
<text text-anchor="middle" x="37" y="-7.5" font-family="Helvetica,sans-Serif" font-size="10.00">erpc_config.h</text>
</a>
</g>
</g>
<!-- Node3&#45;&gt;Node4 -->
<g id="edge3" class="edge"><title>Node3&#45;&gt;Node4</title>
<path fill="none" stroke="midnightblue" d="M95.7533,-56.324C85.2026,-48.1849 69.1993,-35.8395 56.5578,-26.0874"/>
<polygon fill="midnightblue" stroke="midnightblue" points="58.507,-23.1707 48.4513,-19.8339 54.2314,-28.7132 58.507,-23.1707"/>
</g>
<!-- Node5 -->
<g id="node5" class="node"><title>Node5</title>
<polygon fill="white" stroke="#bfbfbf" points="92.5,-0.5 92.5,-19.5 141.5,-19.5 141.5,-0.5 92.5,-0.5"/>
<text text-anchor="middle" x="117" y="-7.5" font-family="Helvetica,sans-Serif" font-size="10.00">cassert</text>
</g>
<!-- Node3&#45;&gt;Node5 -->
<g id="edge4" class="edge"><title>Node3&#45;&gt;Node5</title>
<path fill="none" stroke="midnightblue" d="M108.651,-56.083C109.976,-48.9272 111.882,-38.6353 113.539,-29.6911"/>
<polygon fill="midnightblue" stroke="midnightblue" points="117,-30.2212 115.379,-19.7511 110.117,-28.9466 117,-30.2212"/>
</g>
<!-- Node6&#45;&gt;Node3 -->
<g id="edge6" class="edge"><title>Node6&#45;&gt;Node3</title>
<path fill="none" stroke="midnightblue" d="M168.271,-112.324C157.163,-104.107 140.258,-91.6017 127.017,-81.8069"/>
<polygon fill="midnightblue" stroke="midnightblue" points="129.063,-78.9671 118.942,-75.8339 124.9,-84.5948 129.063,-78.9671"/>
</g>
<!-- Node7 -->
<g id="node7" class="node"><title>Node7</title>
<polygon fill="white" stroke="#bfbfbf" points="178.5,-0.5 178.5,-19.5 227.5,-19.5 227.5,-0.5 178.5,-0.5"/>
<text text-anchor="middle" x="203" y="-7.5" font-family="Helvetica,sans-Serif" font-size="10.00">stdint.h</text>
</g>
<!-- Node6&#45;&gt;Node7 -->
<g id="edge7" class="edge"><title>Node6&#45;&gt;Node7</title>
<path fill="none" stroke="midnightblue" d="M181.805,-112.368C185.516,-94.617 194.079,-53.6664 199.111,-29.5974"/>
<polygon fill="midnightblue" stroke="midnightblue" points="202.583,-30.0961 201.204,-19.5914 195.731,-28.6634 202.583,-30.0961"/>
</g>
<!-- Node8&#45;&gt;Node3 -->
<g id="edge9" class="edge"><title>Node8&#45;&gt;Node3</title>
<path fill="none" stroke="midnightblue" d="M261.627,-173.85C258.847,-159.132 251.199,-129.151 233,-112 215.403,-95.4168 191.284,-84.8794 168.856,-78.213"/>
<polygon fill="midnightblue" stroke="midnightblue" points="169.607,-74.7897 159.036,-75.5008 167.744,-81.537 169.607,-74.7897"/>
</g>
<!-- Node8&#45;&gt;Node6 -->
<g id="edge21" class="edge"><title>Node8&#45;&gt;Node6</title>
<path fill="none" stroke="midnightblue" d="M251.108,-173.975C237.795,-164.431 216,-148.807 200.043,-137.368"/>
<polygon fill="midnightblue" stroke="midnightblue" points="202.036,-134.491 191.87,-131.509 197.958,-140.18 202.036,-134.491"/>
</g>
<!-- Node9 -->
<g id="node9" class="node"><title>Node9</title>
<g id="a_node9"><a xlink:href="erpc__message__buffer_8hpp.html" target="_top" xlink:title="erpc_message_buffer.hpp">
<polygon fill="white" stroke="black" points="219,-56.5 219,-75.5 347,-75.5 347,-56.5 219,-56.5"/>
<text text-anchor="middle" x="283" y="-63.5" font-family="Helvetica,sans-Serif" font-size="10.00">erpc_message_buffer.hpp</text>
</a>
</g>
</g>
<!-- Node8&#45;&gt;Node9 -->
<g id="edge10" class="edge"><title>Node8&#45;&gt;Node9</title>
<path fill="none" stroke="midnightblue" d="M264.503,-173.819C267.717,-155.257 275.322,-111.339 279.715,-85.9734"/>
<polygon fill="midnightblue" stroke="midnightblue" points="283.222,-86.2326 281.479,-75.782 276.324,-85.0382 283.222,-86.2326"/>
</g>
<!-- Node12 -->
<g id="node12" class="node"><title>Node12</title>
<g id="a_node12"><a xlink:href="erpc__transport_8hpp.html" target="_top" xlink:title="erpc_transport.hpp">
<polygon fill="white" stroke="black" points="326,-112.5 326,-131.5 424,-131.5 424,-112.5 326,-112.5"/>
<text text-anchor="middle" x="375" y="-119.5" font-family="Helvetica,sans-Serif" font-size="10.00">erpc_transport.hpp</text>
</a>
</g>
</g>
<!-- Node8&#45;&gt;Node12 -->
<g id="edge14" class="edge"><title>Node8&#45;&gt;Node12</title>
<path fill="none" stroke="midnightblue" d="M279.047,-173.975C297.593,-164.122 328.34,-147.788 350.022,-136.27"/>
<polygon fill="midnightblue" stroke="midnightblue" points="351.794,-139.292 358.983,-131.509 348.51,-133.11 351.794,-139.292"/>
</g>
<!-- Node15 -->
<g id="node15" class="node"><title>Node15</title>
<polygon fill="white" stroke="#bfbfbf" points="505,-56.5 505,-75.5 551,-75.5 551,-56.5 505,-56.5"/>
<text text-anchor="middle" x="528" y="-63.5" font-family="Helvetica,sans-Serif" font-size="10.00">cstring</text>
</g>
<!-- Node8&#45;&gt;Node15 -->
<g id="edge20" class="edge"><title>Node8&#45;&gt;Node15</title>
<path fill="none" stroke="midnightblue" d="M304.503,-173.989C339.763,-165.873 391.164,-151.921 433,-132 461.686,-118.341 491.382,-96.5779 509.769,-82.0447"/>
<polygon fill="midnightblue" stroke="midnightblue" points="512.235,-84.5531 517.834,-75.5582 507.848,-79.0985 512.235,-84.5531"/>
</g>
<!-- Node9&#45;&gt;Node7 -->
<g id="edge13" class="edge"><title>Node9&#45;&gt;Node7</title>
<path fill="none" stroke="midnightblue" d="M270.147,-56.324C257.784,-47.979 238.87,-35.2122 224.263,-25.3524"/>
<polygon fill="midnightblue" stroke="midnightblue" points="226.068,-22.3483 215.821,-19.6545 222.152,-28.1503 226.068,-22.3483"/>
</g>
<!-- Node10 -->
<g id="node10" class="node"><title>Node10</title>
<g id="a_node10"><a xlink:href="erpc__common_8h_source.html" target="_top" xlink:title="erpc_common.h">
<polygon fill="white" stroke="black" points="322,-0.5 322,-19.5 408,-19.5 408,-0.5 322,-0.5"/>
<text text-anchor="middle" x="365" y="-7.5" font-family="Helvetica,sans-Serif" font-size="10.00">erpc_common.h</text>
</a>
</g>
</g>
<!-- Node9&#45;&gt;Node10 -->
<g id="edge11" class="edge"><title>Node9&#45;&gt;Node10</title>
<path fill="none" stroke="midnightblue" d="M296.175,-56.324C308.847,-47.979 328.233,-35.2122 343.206,-25.3524"/>
<polygon fill="midnightblue" stroke="midnightblue" points="345.431,-28.0776 351.858,-19.6545 341.581,-22.2313 345.431,-28.0776"/>
</g>
<!-- Node11 -->
<g id="node11" class="node"><title>Node11</title>
<polygon fill="white" stroke="#bfbfbf" points="256,-0.5 256,-19.5 304,-19.5 304,-0.5 256,-0.5"/>
<text text-anchor="middle" x="280" y="-7.5" font-family="Helvetica,sans-Serif" font-size="10.00">cstddef</text>
</g>
<!-- Node9&#45;&gt;Node11 -->
<g id="edge12" class="edge"><title>Node9&#45;&gt;Node11</title>
<path fill="none" stroke="midnightblue" d="M282.505,-56.083C282.111,-49.0059 281.548,-38.8611 281.055,-29.9865"/>
<polygon fill="midnightblue" stroke="midnightblue" points="284.536,-29.5415 280.486,-19.7511 277.546,-29.9299 284.536,-29.5415"/>
</g>
<!-- Node12&#45;&gt;Node9 -->
<g id="edge18" class="edge"><title>Node12&#45;&gt;Node9</title>
<path fill="none" stroke="midnightblue" d="M360.219,-112.324C345.733,-103.822 323.427,-90.7288 306.507,-80.7975"/>
<polygon fill="midnightblue" stroke="midnightblue" points="308.141,-77.6981 297.745,-75.6545 304.597,-83.735 308.141,-77.6981"/>
</g>
<!-- Node12&#45;&gt;Node10 -->
<g id="edge15" class="edge"><title>Node12&#45;&gt;Node10</title>
<path fill="none" stroke="midnightblue" d="M374.215,-112.368C372.602,-94.617 368.879,-53.6664 366.691,-29.5974"/>
<polygon fill="midnightblue" stroke="midnightblue" points="370.172,-29.2334 365.781,-19.5914 363.201,-29.8673 370.172,-29.2334"/>
</g>
<!-- Node13 -->
<g id="node13" class="node"><title>Node13</title>
<g id="a_node13"><a xlink:href="erpc__crc16_8hpp.html" target="_top" xlink:title="erpc_crc16.hpp">
<polygon fill="white" stroke="black" points="403.5,-56.5 403.5,-75.5 486.5,-75.5 486.5,-56.5 403.5,-56.5"/>
<text text-anchor="middle" x="445" y="-63.5" font-family="Helvetica,sans-Serif" font-size="10.00">erpc_crc16.hpp</text>
</a>
</g>
</g>
<!-- Node12&#45;&gt;Node13 -->
<g id="edge16" class="edge"><title>Node12&#45;&gt;Node13</title>
<path fill="none" stroke="midnightblue" d="M386.247,-112.324C396.797,-104.185 412.801,-91.8395 425.442,-82.0874"/>
<polygon fill="midnightblue" stroke="midnightblue" points="427.769,-84.7132 433.549,-75.8339 423.493,-79.1707 427.769,-84.7132"/>
</g>
<!-- Node12&#45;&gt;Node15 -->
<g id="edge19" class="edge"><title>Node12&#45;&gt;Node15</title>
<path fill="none" stroke="midnightblue" d="M399.243,-112.444C425.172,-103.292 466.443,-88.726 495.248,-78.5594"/>
<polygon fill="midnightblue" stroke="midnightblue" points="496.607,-81.7917 504.872,-75.1629 494.277,-75.1907 496.607,-81.7917"/>
</g>
<!-- Node14 -->
<g id="node14" class="node"><title>Node14</title>
<polygon fill="white" stroke="#bfbfbf" points="426,-0.5 426,-19.5 472,-19.5 472,-0.5 426,-0.5"/>
<text text-anchor="middle" x="449" y="-7.5" font-family="Helvetica,sans-Serif" font-size="10.00">cstdint</text>
</g>
<!-- Node13&#45;&gt;Node14 -->
<g id="edge17" class="edge"><title>Node13&#45;&gt;Node14</title>
<path fill="none" stroke="midnightblue" d="M445.661,-56.083C446.185,-49.0059 446.936,-38.8611 447.594,-29.9865"/>
<polygon fill="midnightblue" stroke="midnightblue" points="451.103,-29.9823 448.352,-19.7511 444.123,-29.4652 451.103,-29.9823"/>
</g>
</g>
</svg>
