<?xml version="1.0" encoding="UTF-8" standalone="no"?>
<!DOCTYPE svg PUBLIC "-//W3C//DTD SVG 1.1//EN"
 "http://www.w3.org/Graphics/SVG/1.1/DTD/svg11.dtd">
<!-- Generated by graphviz version 2.38.0 (20140413.2041)
 -->
<!-- Title: erpc_arbitrated_client_setup.h Pages: 1 -->
<svg width="636pt" height="386pt"
 viewBox="0.00 0.00 636.00 386.00" xmlns="http://www.w3.org/2000/svg" xmlns:xlink="http://www.w3.org/1999/xlink">
<g id="graph0" class="graph" transform="scale(1 1) rotate(0) translate(4 382)">
<title>erpc_arbitrated_client_setup.h</title>
<polygon fill="white" stroke="none" points="-4,4 -4,-382 632,-382 632,4 -4,4"/>
<!-- Node1 -->
<g id="node1" class="node"><title>Node1</title>
<polygon fill="#bfbfbf" stroke="black" points="370,-347.5 370,-377.5 480,-377.5 480,-347.5 370,-347.5"/>
<text text-anchor="start" x="378" y="-365.5" font-family="Helvetica,sans-Serif" font-size="10.00">erpc_arbitrated_client</text>
<text text-anchor="middle" x="425" y="-354.5" font-family="Helvetica,sans-Serif" font-size="10.00">_setup.h</text>
</g>
<!-- Node2 -->
<g id="node2" class="node"><title>Node2</title>
<g id="a_node2"><a xlink:href="erpc__common_8h_source.html" target="_top" xlink:title="erpc_common.h">
<polygon fill="white" stroke="black" points="218,-0.5 218,-19.5 304,-19.5 304,-0.5 218,-0.5"/>
<text text-anchor="middle" x="261" y="-7.5" font-family="Helvetica,sans-Serif" font-size="10.00">erpc_common.h</text>
</a>
</g>
</g>
<!-- Node1&#45;&gt;Node2 -->
<g id="edge1" class="edge"><title>Node1&#45;&gt;Node2</title>
<path fill="none" stroke="midnightblue" d="M369.874,-357.415C254.88,-347.375 0,-316.546 0,-240.5 0,-240.5 0,-240.5 0,-121 0,-82.5768 23.926,-75.5565 57,-56 103.387,-28.5713 164.652,-17.823 207.896,-13.6322"/>
<polygon fill="midnightblue" stroke="midnightblue" points="208.279,-17.1121 217.932,-12.7455 207.663,-10.1393 208.279,-17.1121"/>
</g>
<!-- Node3 -->
<g id="node3" class="node"><title>Node3</title>
<g id="a_node3"><a xlink:href="erpc__config__internal_8h_source.html" target="_top" xlink:title="erpc_config_internal.h">
<polygon fill="white" stroke="black" points="323.5,-168.5 323.5,-187.5 434.5,-187.5 434.5,-168.5 323.5,-168.5"/>
<text text-anchor="middle" x="379" y="-175.5" font-family="Helvetica,sans-Serif" font-size="10.00">erpc_config_internal.h</text>
</a>
</g>
</g>
<!-- Node1&#45;&gt;Node3 -->
<g id="edge2" class="edge"><title>Node1&#45;&gt;Node3</title>
<path fill="none" stroke="midnightblue" d="M421.467,-347.483C413.269,-314.957 392.949,-234.343 383.709,-197.683"/>
<polygon fill="midnightblue" stroke="midnightblue" points="387.061,-196.66 381.223,-187.819 380.273,-198.371 387.061,-196.66"/>
</g>
<!-- Node6 -->
<g id="node6" class="node"><title>Node6</title>
<g id="a_node6"><a xlink:href="erpc__mbf__setup_8h.html" target="_top" xlink:title="erpc_mbf_setup.h">
<polygon fill="white" stroke="black" points="453,-291.5 453,-310.5 547,-310.5 547,-291.5 453,-291.5"/>
<text text-anchor="middle" x="500" y="-298.5" font-family="Helvetica,sans-Serif" font-size="10.00">erpc_mbf_setup.h</text>
</a>
</g>
</g>
<!-- Node1&#45;&gt;Node6 -->
<g id="edge5" class="edge"><title>Node1&#45;&gt;Node6</title>
<path fill="none" stroke="midnightblue" d="M442.774,-347.399C454.346,-338.218 469.423,-326.258 481.196,-316.918"/>
<polygon fill="midnightblue" stroke="midnightblue" points="483.428,-319.615 489.087,-310.658 479.077,-314.131 483.428,-319.615"/>
</g>
<!-- Node7 -->
<g id="node7" class="node"><title>Node7</title>
<g id="a_node7"><a xlink:href="erpc__transport__setup_8h.html" target="_top" xlink:title="erpc_transport_setup.h">
<polygon fill="white" stroke="black" points="437,-230 437,-249 553,-249 553,-230 437,-230"/>
<text text-anchor="middle" x="495" y="-237" font-family="Helvetica,sans-Serif" font-size="10.00">erpc_transport_setup.h</text>
</a>
</g>
</g>
<!-- Node1&#45;&gt;Node7 -->
<g id="edge26" class="edge"><title>Node1&#45;&gt;Node7</title>
<path fill="none" stroke="midnightblue" d="M426.588,-347.419C428.75,-332.559 433.612,-308.861 444,-291 451.909,-277.401 464.421,-264.933 475.072,-255.788"/>
<polygon fill="midnightblue" stroke="midnightblue" points="477.581,-258.257 483.092,-249.208 473.141,-252.845 477.581,-258.257"/>
</g>
<!-- Node8 -->
<g id="node8" class="node"><title>Node8</title>
<polygon fill="white" stroke="#bfbfbf" points="544,-168.5 544,-187.5 600,-187.5 600,-168.5 544,-168.5"/>
<text text-anchor="middle" x="572" y="-175.5" font-family="Helvetica,sans-Serif" font-size="10.00">stdbool.h</text>
</g>
<!-- Node1&#45;&gt;Node8 -->
<g id="edge27" class="edge"><title>Node1&#45;&gt;Node8</title>
<path fill="none" stroke="midnightblue" d="M480.082,-353.759C507.119,-347.029 537.727,-334.46 556,-311 581.808,-277.867 579.014,-225.159 575.238,-197.434"/>
<polygon fill="midnightblue" stroke="midnightblue" points="578.69,-196.856 573.693,-187.513 571.773,-197.933 578.69,-196.856"/>
</g>
<!-- Node9 -->
<g id="node9" class="node"><title>Node9</title>
<polygon fill="white" stroke="#bfbfbf" points="491.5,-0.5 491.5,-19.5 540.5,-19.5 540.5,-0.5 491.5,-0.5"/>
<text text-anchor="middle" x="516" y="-7.5" font-family="Helvetica,sans-Serif" font-size="10.00">stdint.h</text>
</g>
<!-- Node1&#45;&gt;Node9 -->
<g id="edge28" class="edge"><title>Node1&#45;&gt;Node9</title>
<path fill="none" stroke="midnightblue" d="M480.203,-352.928C540.315,-340.09 628,-309.531 628,-240.5 628,-240.5 628,-240.5 628,-121 628,-74.6136 578.495,-41.2849 545.31,-24.1547"/>
<polygon fill="midnightblue" stroke="midnightblue" points="546.538,-20.8574 536.023,-19.5583 543.433,-27.131 546.538,-20.8574"/>
</g>
<!-- Node10 -->
<g id="node10" class="node"><title>Node10</title>
<g id="a_node10"><a xlink:href="erpc__client__manager_8h.html" target="_top" xlink:title="erpc_client_manager.h">
<polygon fill="white" stroke="black" points="243.5,-291.5 243.5,-310.5 358.5,-310.5 358.5,-291.5 243.5,-291.5"/>
<text text-anchor="middle" x="301" y="-298.5" font-family="Helvetica,sans-Serif" font-size="10.00">erpc_client_manager.h</text>
</a>
</g>
</g>
<!-- Node1&#45;&gt;Node10 -->
<g id="edge9" class="edge"><title>Node1&#45;&gt;Node10</title>
<path fill="none" stroke="midnightblue" d="M395.614,-347.399C375.18,-337.595 348.14,-324.619 328.201,-315.052"/>
<polygon fill="midnightblue" stroke="midnightblue" points="329.573,-311.828 319.043,-310.658 326.545,-318.139 329.573,-311.828"/>
</g>
<!-- Node4 -->
<g id="node4" class="node"><title>Node4</title>
<g id="a_node4"><a xlink:href="erpc__config_8h.html" target="_top" xlink:title="erpc_config.h">
<polygon fill="white" stroke="black" points="414,-112.5 414,-131.5 488,-131.5 488,-112.5 414,-112.5"/>
<text text-anchor="middle" x="451" y="-119.5" font-family="Helvetica,sans-Serif" font-size="10.00">erpc_config.h</text>
</a>
</g>
</g>
<!-- Node3&#45;&gt;Node4 -->
<g id="edge3" class="edge"><title>Node3&#45;&gt;Node4</title>
<path fill="none" stroke="midnightblue" d="M390.568,-168.324C401.42,-160.185 417.881,-147.839 430.883,-138.087"/>
<polygon fill="midnightblue" stroke="midnightblue" points="433.321,-140.634 439.221,-131.834 429.121,-135.034 433.321,-140.634"/>
</g>
<!-- Node5 -->
<g id="node5" class="node"><title>Node5</title>
<polygon fill="white" stroke="#bfbfbf" points="346.5,-112.5 346.5,-131.5 395.5,-131.5 395.5,-112.5 346.5,-112.5"/>
<text text-anchor="middle" x="371" y="-119.5" font-family="Helvetica,sans-Serif" font-size="10.00">cassert</text>
</g>
<!-- Node3&#45;&gt;Node5 -->
<g id="edge4" class="edge"><title>Node3&#45;&gt;Node5</title>
<path fill="none" stroke="midnightblue" d="M377.679,-168.083C376.619,-160.927 375.094,-150.635 373.769,-141.691"/>
<polygon fill="midnightblue" stroke="midnightblue" points="377.224,-141.13 372.296,-131.751 370.3,-142.156 377.224,-141.13"/>
</g>
<!-- Node6&#45;&gt;Node7 -->
<g id="edge6" class="edge"><title>Node6&#45;&gt;Node7</title>
<path fill="none" stroke="midnightblue" d="M499.284,-291.475C498.578,-283.08 497.477,-269.981 496.568,-259.163"/>
<polygon fill="midnightblue" stroke="midnightblue" points="500.04,-258.681 495.715,-249.009 493.065,-259.267 500.04,-258.681"/>
</g>
<!-- Node7&#45;&gt;Node8 -->
<g id="edge7" class="edge"><title>Node7&#45;&gt;Node8</title>
<path fill="none" stroke="midnightblue" d="M506.032,-229.975C518.268,-220.52 538.229,-205.096 552.993,-193.687"/>
<polygon fill="midnightblue" stroke="midnightblue" points="555.215,-196.393 560.988,-187.509 550.935,-190.854 555.215,-196.393"/>
</g>
<!-- Node7&#45;&gt;Node9 -->
<g id="edge8" class="edge"><title>Node7&#45;&gt;Node9</title>
<path fill="none" stroke="midnightblue" d="M495.798,-229.86C498.864,-196.638 509.939,-76.6602 514.258,-29.8705"/>
<polygon fill="midnightblue" stroke="midnightblue" points="517.768,-29.9285 515.202,-19.6491 510.797,-29.285 517.768,-29.9285"/>
</g>
<!-- Node11 -->
<g id="node11" class="node"><title>Node11</title>
<g id="a_node11"><a xlink:href="erpc__client__server__common_8hpp.html" target="_top" xlink:title="erpc_client_server\l_common.hpp">
<polygon fill="white" stroke="black" points="253.5,-224.5 253.5,-254.5 348.5,-254.5 348.5,-224.5 253.5,-224.5"/>
<text text-anchor="start" x="261.5" y="-242.5" font-family="Helvetica,sans-Serif" font-size="10.00">erpc_client_server</text>
<text text-anchor="middle" x="301" y="-231.5" font-family="Helvetica,sans-Serif" font-size="10.00">_common.hpp</text>
</a>
</g>
</g>
<!-- Node10&#45;&gt;Node11 -->
<g id="edge10" class="edge"><title>Node10&#45;&gt;Node11</title>
<path fill="none" stroke="midnightblue" d="M301,-291.475C301,-284.471 301,-274.192 301,-264.696"/>
<polygon fill="midnightblue" stroke="midnightblue" points="304.5,-264.523 301,-254.523 297.5,-264.523 304.5,-264.523"/>
</g>
<!-- Node11&#45;&gt;Node3 -->
<g id="edge25" class="edge"><title>Node11&#45;&gt;Node3</title>
<path fill="none" stroke="midnightblue" d="M319.485,-224.399C331.52,-215.218 347.2,-203.258 359.443,-193.918"/>
<polygon fill="midnightblue" stroke="midnightblue" points="361.822,-196.506 367.65,-187.658 357.577,-190.94 361.822,-196.506"/>
</g>
<!-- Node12 -->
<g id="node12" class="node"><title>Node12</title>
<g id="a_node12"><a xlink:href="erpc__codec_8hpp.html" target="_top" xlink:title="erpc_codec.hpp">
<polygon fill="white" stroke="black" points="189,-168.5 189,-187.5 275,-187.5 275,-168.5 189,-168.5"/>
<text text-anchor="middle" x="232" y="-175.5" font-family="Helvetica,sans-Serif" font-size="10.00">erpc_codec.hpp</text>
</a>
</g>
</g>
<!-- Node11&#45;&gt;Node12 -->
<g id="edge11" class="edge"><title>Node11&#45;&gt;Node12</title>
<path fill="none" stroke="midnightblue" d="M284.648,-224.399C274.105,-215.308 260.4,-203.49 249.616,-194.191"/>
<polygon fill="midnightblue" stroke="midnightblue" points="251.899,-191.538 242.04,-187.658 247.328,-196.839 251.899,-191.538"/>
</g>
<!-- Node12&#45;&gt;Node2 -->
<g id="edge12" class="edge"><title>Node12&#45;&gt;Node2</title>
<path fill="none" stroke="midnightblue" d="M239.673,-168.459C246.779,-159.927 256.854,-146.088 261,-132 271.292,-97.0319 267.632,-53.8766 264.205,-29.6981"/>
<polygon fill="midnightblue" stroke="midnightblue" points="267.652,-29.0866 262.651,-19.7464 260.736,-30.1668 267.652,-29.0866"/>
</g>
<!-- Node13 -->
<g id="node13" class="node"><title>Node13</title>
<g id="a_node13"><a xlink:href="erpc__message__buffer_8hpp.html" target="_top" xlink:title="erpc_message_buffer.hpp">
<polygon fill="white" stroke="black" points="308,-56.5 308,-75.5 436,-75.5 436,-56.5 308,-56.5"/>
<text text-anchor="middle" x="372" y="-63.5" font-family="Helvetica,sans-Serif" font-size="10.00">erpc_message_buffer.hpp</text>
</a>
</g>
</g>
<!-- Node12&#45;&gt;Node13 -->
<g id="edge13" class="edge"><title>Node12&#45;&gt;Node13</title>
<path fill="none" stroke="midnightblue" d="M244.532,-168.275C257.185,-159.38 277.205,-145.069 294,-132 315.128,-115.559 338.64,-95.7481 354.271,-82.3525"/>
<polygon fill="midnightblue" stroke="midnightblue" points="356.783,-84.8087 362.079,-75.6327 352.216,-79.5031 356.783,-84.8087"/>
</g>
<!-- Node15 -->
<g id="node15" class="node"><title>Node15</title>
<g id="a_node15"><a xlink:href="erpc__transport_8hpp.html" target="_top" xlink:title="erpc_transport.hpp">
<polygon fill="white" stroke="black" points="154,-112.5 154,-131.5 252,-131.5 252,-112.5 154,-112.5"/>
<text text-anchor="middle" x="203" y="-119.5" font-family="Helvetica,sans-Serif" font-size="10.00">erpc_transport.hpp</text>
</a>
</g>
</g>
<!-- Node12&#45;&gt;Node15 -->
<g id="edge17" class="edge"><title>Node12&#45;&gt;Node15</title>
<path fill="none" stroke="midnightblue" d="M227.211,-168.083C223.242,-160.691 217.475,-149.953 212.565,-140.811"/>
<polygon fill="midnightblue" stroke="midnightblue" points="215.514,-138.905 207.7,-131.751 209.347,-142.217 215.514,-138.905"/>
</g>
<!-- Node17 -->
<g id="node17" class="node"><title>Node17</title>
<polygon fill="white" stroke="#bfbfbf" points="94,-0.5 94,-19.5 140,-19.5 140,-0.5 94,-0.5"/>
<text text-anchor="middle" x="117" y="-7.5" font-family="Helvetica,sans-Serif" font-size="10.00">cstdint</text>
</g>
<!-- Node12&#45;&gt;Node17 -->
<g id="edge23" class="edge"><title>Node12&#45;&gt;Node17</title>
<path fill="none" stroke="midnightblue" d="M192.813,-168.425C149.108,-156.392 81.3519,-129.666 57,-76 47.5346,-55.1405 69.4674,-36.5226 89.4237,-24.6154"/>
<polygon fill="midnightblue" stroke="midnightblue" points="91.3142,-27.5684 98.3339,-19.6328 87.8976,-21.4587 91.3142,-27.5684"/>
</g>
<!-- Node18 -->
<g id="node18" class="node"><title>Node18</title>
<polygon fill="white" stroke="#bfbfbf" points="66,-56.5 66,-75.5 112,-75.5 112,-56.5 66,-56.5"/>
<text text-anchor="middle" x="89" y="-63.5" font-family="Helvetica,sans-Serif" font-size="10.00">cstring</text>
</g>
<!-- Node12&#45;&gt;Node18 -->
<g id="edge24" class="edge"><title>Node12&#45;&gt;Node18</title>
<path fill="none" stroke="midnightblue" d="M209.9,-168.375C191.446,-160.542 165.017,-147.81 145,-132 127.357,-118.065 111.051,-97.9666 100.639,-83.8165"/>
<polygon fill="midnightblue" stroke="midnightblue" points="103.357,-81.6 94.6934,-75.5015 97.6631,-85.6717 103.357,-81.6"/>
</g>
<!-- Node13&#45;&gt;Node2 -->
<g id="edge14" class="edge"><title>Node13&#45;&gt;Node2</title>
<path fill="none" stroke="midnightblue" d="M354.166,-56.324C336.284,-47.6247 308.525,-34.1202 287.954,-24.113"/>
<polygon fill="midnightblue" stroke="midnightblue" points="289.313,-20.8819 278.79,-19.6545 286.251,-27.1765 289.313,-20.8819"/>
</g>
<!-- Node13&#45;&gt;Node9 -->
<g id="edge16" class="edge"><title>Node13&#45;&gt;Node9</title>
<path fill="none" stroke="midnightblue" d="M394.817,-56.4435C418.832,-47.4381 456.829,-33.1891 483.869,-23.049"/>
<polygon fill="midnightblue" stroke="midnightblue" points="485.155,-26.3049 493.29,-19.5164 482.697,-19.7506 485.155,-26.3049"/>
</g>
<!-- Node14 -->
<g id="node14" class="node"><title>Node14</title>
<polygon fill="white" stroke="#bfbfbf" points="348,-0.5 348,-19.5 396,-19.5 396,-0.5 348,-0.5"/>
<text text-anchor="middle" x="372" y="-7.5" font-family="Helvetica,sans-Serif" font-size="10.00">cstddef</text>
</g>
<!-- Node13&#45;&gt;Node14 -->
<g id="edge15" class="edge"><title>Node13&#45;&gt;Node14</title>
<path fill="none" stroke="midnightblue" d="M372,-56.083C372,-49.0059 372,-38.8611 372,-29.9865"/>
<polygon fill="midnightblue" stroke="midnightblue" points="375.5,-29.751 372,-19.7511 368.5,-29.7511 375.5,-29.751"/>
</g>
<!-- Node15&#45;&gt;Node2 -->
<g id="edge18" class="edge"><title>Node15&#45;&gt;Node2</title>
<path fill="none" stroke="midnightblue" d="M207.551,-112.368C217.038,-94.376 239.092,-52.5503 251.706,-28.6267"/>
<polygon fill="midnightblue" stroke="midnightblue" points="254.902,-30.0696 256.47,-19.5914 248.71,-26.8047 254.902,-30.0696"/>
</g>
<!-- Node15&#45;&gt;Node13 -->
<g id="edge21" class="edge"><title>Node15&#45;&gt;Node13</title>
<path fill="none" stroke="midnightblue" d="M229.779,-112.444C258.333,-103.32 303.733,-88.8133 335.537,-78.6509"/>
<polygon fill="midnightblue" stroke="midnightblue" points="336.886,-81.8941 345.347,-75.5164 334.756,-75.2262 336.886,-81.8941"/>
</g>
<!-- Node16 -->
<g id="node16" class="node"><title>Node16</title>
<g id="a_node16"><a xlink:href="erpc__crc16_8hpp.html" target="_top" xlink:title="erpc_crc16.hpp">
<polygon fill="white" stroke="black" points="130.5,-56.5 130.5,-75.5 213.5,-75.5 213.5,-56.5 130.5,-56.5"/>
<text text-anchor="middle" x="172" y="-63.5" font-family="Helvetica,sans-Serif" font-size="10.00">erpc_crc16.hpp</text>
</a>
</g>
</g>
<!-- Node15&#45;&gt;Node16 -->
<g id="edge19" class="edge"><title>Node15&#45;&gt;Node16</title>
<path fill="none" stroke="midnightblue" d="M197.881,-112.083C193.592,-104.613 187.342,-93.7244 182.058,-84.5199"/>
<polygon fill="midnightblue" stroke="midnightblue" points="185.038,-82.6811 177.024,-75.7511 178.967,-86.1662 185.038,-82.6811"/>
</g>
<!-- Node15&#45;&gt;Node18 -->
<g id="edge22" class="edge"><title>Node15&#45;&gt;Node18</title>
<path fill="none" stroke="midnightblue" d="M184.936,-112.444C166.425,-103.675 137.419,-89.9355 116.145,-79.8579"/>
<polygon fill="midnightblue" stroke="midnightblue" points="117.515,-76.6343 106.979,-75.5164 114.518,-82.9604 117.515,-76.6343"/>
</g>
<!-- Node16&#45;&gt;Node17 -->
<g id="edge20" class="edge"><title>Node16&#45;&gt;Node17</title>
<path fill="none" stroke="midnightblue" d="M162.918,-56.083C154.829,-48.1409 142.805,-36.3354 133.09,-26.7973"/>
<polygon fill="midnightblue" stroke="midnightblue" points="135.501,-24.2595 125.913,-19.7511 130.597,-29.2545 135.501,-24.2595"/>
</g>
</g>
</svg>
