<?xml version="1.0" encoding="UTF-8" standalone="no"?>
<!DOCTYPE svg PUBLIC "-//W3C//DTD SVG 1.1//EN"
 "http://www.w3.org/Graphics/SVG/1.1/DTD/svg11.dtd">
<!-- Generated by graphviz version 2.38.0 (20140413.2041)
 -->
<!-- Title: erpc_crc16.hpp Pages: 1 -->
<svg width="2624pt" height="341pt"
 viewBox="0.00 0.00 2624.00 341.00" xmlns="http://www.w3.org/2000/svg" xmlns:xlink="http://www.w3.org/1999/xlink">
<g id="graph0" class="graph" transform="scale(1 1) rotate(0) translate(4 337)">
<title>erpc_crc16.hpp</title>
<polygon fill="white" stroke="none" points="-4,4 -4,-337 2620,-337 2620,4 -4,4"/>
<!-- Node1 -->
<g id="node1" class="node"><title>Node1</title>
<polygon fill="#bfbfbf" stroke="black" points="2303.5,-313.5 2303.5,-332.5 2386.5,-332.5 2386.5,-313.5 2303.5,-313.5"/>
<text text-anchor="middle" x="2345" y="-320.5" font-family="Helvetica,sans-Serif" font-size="10.00">erpc_crc16.hpp</text>
</g>
<!-- Node2 -->
<g id="node2" class="node"><title>Node2</title>
<g id="a_node2"><a xlink:href="erpc__transport_8hpp.html" target="_top" xlink:title="erpc_transport.hpp">
<polygon fill="white" stroke="black" points="1931,-257.5 1931,-276.5 2029,-276.5 2029,-257.5 1931,-257.5"/>
<text text-anchor="middle" x="1980" y="-264.5" font-family="Helvetica,sans-Serif" font-size="10.00">erpc_transport.hpp</text>
</a>
</g>
</g>
<!-- Node1&#45;&gt;Node2 -->
<g id="edge1" class="edge"><title>Node1&#45;&gt;Node2</title>
<path fill="none" stroke="midnightblue" d="M2293.52,-314.384C2223.21,-303.982 2098.01,-285.459 2029.01,-275.251"/>
<polygon fill="midnightblue" stroke="midnightblue" points="2293.08,-317.857 2303.49,-315.858 2294.11,-310.932 2293.08,-317.857"/>
</g>
<!-- Node31 -->
<g id="node31" class="node"><title>Node31</title>
<g id="a_node31"><a xlink:href="erpc__rpmsg__lite__rtos__transport_8hpp.html" target="_top" xlink:title="erpc_rpmsg_lite_rtos\l_transport.hpp">
<polygon fill="white" stroke="black" points="2218.5,-123.5 2218.5,-153.5 2325.5,-153.5 2325.5,-123.5 2218.5,-123.5"/>
<text text-anchor="start" x="2226.5" y="-141.5" font-family="Helvetica,sans-Serif" font-size="10.00">erpc_rpmsg_lite_rtos</text>
<text text-anchor="middle" x="2272" y="-130.5" font-family="Helvetica,sans-Serif" font-size="10.00">_transport.hpp</text>
</a>
</g>
</g>
<!-- Node1&#45;&gt;Node31 -->
<g id="edge35" class="edge"><title>Node1&#45;&gt;Node31</title>
<path fill="none" stroke="midnightblue" d="M2330.9,-305.621C2315.47,-286.652 2291.41,-253.791 2280,-221 2272.15,-198.441 2271.16,-170.392 2271.4,-153.773"/>
<polygon fill="midnightblue" stroke="midnightblue" points="2328.22,-307.867 2337.31,-313.309 2333.6,-303.386 2328.22,-307.867"/>
</g>
<!-- Node32 -->
<g id="node32" class="node"><title>Node32</title>
<g id="a_node32"><a xlink:href="erpc__rpmsg__lite__transport_8hpp.html" target="_top" xlink:title="erpc_rpmsg_lite_transport.hpp">
<polygon fill="white" stroke="black" points="2344,-129 2344,-148 2492,-148 2492,-129 2344,-129"/>
<text text-anchor="middle" x="2418" y="-136" font-family="Helvetica,sans-Serif" font-size="10.00">erpc_rpmsg_lite_transport.hpp</text>
</a>
</g>
</g>
<!-- Node1&#45;&gt;Node32 -->
<g id="edge36" class="edge"><title>Node1&#45;&gt;Node32</title>
<path fill="none" stroke="midnightblue" d="M2359.1,-305.621C2374.53,-286.652 2398.59,-253.791 2410,-221 2418.78,-195.756 2418.98,-163.636 2418.47,-148.353"/>
<polygon fill="midnightblue" stroke="midnightblue" points="2356.4,-303.386 2352.69,-313.309 2361.78,-307.867 2356.4,-303.386"/>
</g>
<!-- Node33 -->
<g id="node33" class="node"><title>Node33</title>
<g id="a_node33"><a xlink:href="erpc__rpmsg__tty__rtos__transport_8hpp.html" target="_top" xlink:title="erpc_rpmsg_tty_rtos\l_transport.hpp">
<polygon fill="white" stroke="black" points="2510,-123.5 2510,-153.5 2616,-153.5 2616,-123.5 2510,-123.5"/>
<text text-anchor="start" x="2518" y="-141.5" font-family="Helvetica,sans-Serif" font-size="10.00">erpc_rpmsg_tty_rtos</text>
<text text-anchor="middle" x="2563" y="-130.5" font-family="Helvetica,sans-Serif" font-size="10.00">_transport.hpp</text>
</a>
</g>
</g>
<!-- Node1&#45;&gt;Node33 -->
<g id="edge37" class="edge"><title>Node1&#45;&gt;Node33</title>
<path fill="none" stroke="midnightblue" d="M2363.81,-307.09C2374.73,-298.386 2388.71,-287.153 2401,-277 2454.76,-232.601 2517.44,-178.814 2546.57,-153.701"/>
<polygon fill="midnightblue" stroke="midnightblue" points="2361.45,-304.494 2355.8,-313.458 2365.81,-309.973 2361.45,-304.494"/>
</g>
<!-- Node3 -->
<g id="node3" class="node"><title>Node3</title>
<g id="a_node3"><a xlink:href="erpc__codec_8hpp.html" target="_top" xlink:title="erpc_codec.hpp">
<polygon fill="white" stroke="black" points="2076,-196 2076,-215 2162,-215 2162,-196 2076,-196"/>
<text text-anchor="middle" x="2119" y="-203" font-family="Helvetica,sans-Serif" font-size="10.00">erpc_codec.hpp</text>
</a>
</g>
</g>
<!-- Node2&#45;&gt;Node3 -->
<g id="edge2" class="edge"><title>Node2&#45;&gt;Node3</title>
<path fill="none" stroke="midnightblue" d="M2009.25,-253.48C2036.25,-241.924 2075.6,-225.076 2099.12,-215.009"/>
<polygon fill="midnightblue" stroke="midnightblue" points="2007.73,-250.322 1999.92,-257.475 2010.49,-256.757 2007.73,-250.322"/>
</g>
<!-- Node7 -->
<g id="node7" class="node"><title>Node7</title>
<g id="a_node7"><a xlink:href="erpc__transport__arbitrator_8hpp.html" target="_top" xlink:title="erpc_transport_arbitrator.hpp">
<polygon fill="white" stroke="black" points="2127.5,-6 2127.5,-25 2268.5,-25 2268.5,-6 2127.5,-6"/>
<text text-anchor="middle" x="2198" y="-13" font-family="Helvetica,sans-Serif" font-size="10.00">erpc_transport_arbitrator.hpp</text>
</a>
</g>
</g>
<!-- Node2&#45;&gt;Node7 -->
<g id="edge13" class="edge"><title>Node2&#45;&gt;Node7</title>
<path fill="none" stroke="midnightblue" d="M2038.97,-259.451C2088.34,-252.695 2153.47,-240.382 2171,-221 2223.13,-163.369 2206.28,-56.5031 2199.94,-25.2798"/>
<polygon fill="midnightblue" stroke="midnightblue" points="2038.47,-255.987 2029.01,-260.769 2039.39,-262.927 2038.47,-255.987"/>
</g>
<!-- Node13 -->
<g id="node13" class="node"><title>Node13</title>
<g id="a_node13"><a xlink:href="erpc__framed__transport_8hpp.html" target="_top" xlink:title="erpc_framed_transport.hpp">
<polygon fill="white" stroke="black" points="908,-196 908,-215 1040,-215 1040,-196 908,-196"/>
<text text-anchor="middle" x="974" y="-203" font-family="Helvetica,sans-Serif" font-size="10.00">erpc_framed_transport.hpp</text>
</a>
</g>
</g>
<!-- Node2&#45;&gt;Node13 -->
<g id="edge14" class="edge"><title>Node2&#45;&gt;Node13</title>
<path fill="none" stroke="midnightblue" d="M1920.68,-262.492C1744.48,-252.07 1225.01,-221.346 1040.2,-210.415"/>
<polygon fill="midnightblue" stroke="midnightblue" points="1920.61,-265.993 1930.8,-263.09 1921.02,-259.006 1920.61,-265.993"/>
</g>
<!-- Node26 -->
<g id="node26" class="node"><title>Node26</title>
<g id="a_node26"><a xlink:href="erpc__message__loggers_8hpp.html" target="_top" xlink:title="erpc_message_loggers.hpp">
<polygon fill="white" stroke="black" points="1476,-196 1476,-215 1612,-215 1612,-196 1476,-196"/>
<text text-anchor="middle" x="1544" y="-203" font-family="Helvetica,sans-Serif" font-size="10.00">erpc_message_loggers.hpp</text>
</a>
</g>
</g>
<!-- Node2&#45;&gt;Node26 -->
<g id="edge27" class="edge"><title>Node2&#45;&gt;Node26</title>
<path fill="none" stroke="midnightblue" d="M1920.66,-259.692C1849.35,-251.851 1726.14,-237.473 1621,-221 1609.85,-219.252 1597.83,-217.114 1586.68,-215.021"/>
<polygon fill="midnightblue" stroke="midnightblue" points="1920.48,-263.193 1930.8,-260.801 1921.24,-256.234 1920.48,-263.193"/>
</g>
<!-- Node27 -->
<g id="node27" class="node"><title>Node27</title>
<g id="a_node27"><a xlink:href="erpc__inter__thread__buffer__transport_8hpp.html" target="_top" xlink:title="erpc_inter_thread_buffer\l_transport.hpp">
<polygon fill="white" stroke="black" points="1630,-190.5 1630,-220.5 1750,-220.5 1750,-190.5 1630,-190.5"/>
<text text-anchor="start" x="1638" y="-208.5" font-family="Helvetica,sans-Serif" font-size="10.00">erpc_inter_thread_buffer</text>
<text text-anchor="middle" x="1690" y="-197.5" font-family="Helvetica,sans-Serif" font-size="10.00">_transport.hpp</text>
</a>
</g>
</g>
<!-- Node2&#45;&gt;Node27 -->
<g id="edge28" class="edge"><title>Node2&#45;&gt;Node27</title>
<path fill="none" stroke="midnightblue" d="M1927.55,-255.417C1882.76,-246.356 1816.63,-232.922 1759,-221 1756.12,-220.405 1753.18,-219.794 1750.21,-219.175"/>
<polygon fill="midnightblue" stroke="midnightblue" points="1927.12,-258.9 1937.62,-257.452 1928.51,-252.039 1927.12,-258.9"/>
</g>
<!-- Node28 -->
<g id="node28" class="node"><title>Node28</title>
<g id="a_node28"><a xlink:href="erpc__mu__transport_8hpp.html" target="_top" xlink:title="erpc_mu_transport.hpp">
<polygon fill="white" stroke="black" points="1768,-196 1768,-215 1884,-215 1884,-196 1768,-196"/>
<text text-anchor="middle" x="1826" y="-203" font-family="Helvetica,sans-Serif" font-size="10.00">erpc_mu_transport.hpp</text>
</a>
</g>
</g>
<!-- Node2&#45;&gt;Node28 -->
<g id="edge29" class="edge"><title>Node2&#45;&gt;Node28</title>
<path fill="none" stroke="midnightblue" d="M1948.38,-253.782C1918.45,-242.22 1874.31,-225.164 1848.02,-215.009"/>
<polygon fill="midnightblue" stroke="midnightblue" points="1947.35,-257.136 1957.94,-257.475 1949.87,-250.606 1947.35,-257.136"/>
</g>
<!-- Node29 -->
<g id="node29" class="node"><title>Node29</title>
<g id="a_node29"><a xlink:href="erpc__rpmsg__linux__transport_8hpp_source.html" target="_top" xlink:title="erpc_rpmsg_linux_transport.hpp">
<polygon fill="white" stroke="black" points="1902.5,-196 1902.5,-215 2057.5,-215 2057.5,-196 1902.5,-196"/>
<text text-anchor="middle" x="1980" y="-203" font-family="Helvetica,sans-Serif" font-size="10.00">erpc_rpmsg_linux_transport.hpp</text>
</a>
</g>
</g>
<!-- Node2&#45;&gt;Node29 -->
<g id="edge30" class="edge"><title>Node2&#45;&gt;Node29</title>
<path fill="none" stroke="midnightblue" d="M1980,-247.317C1980,-236.496 1980,-223.398 1980,-215.009"/>
<polygon fill="midnightblue" stroke="midnightblue" points="1976.5,-247.475 1980,-257.475 1983.5,-247.475 1976.5,-247.475"/>
</g>
<!-- Node30 -->
<g id="node30" class="node"><title>Node30</title>
<g id="a_node30"><a xlink:href="erpc__rpmsg__lite__base__transport_8hpp.html" target="_top" xlink:title="erpc_rpmsg_lite_base\l_transport.hpp">
<polygon fill="white" stroke="black" points="2289,-190.5 2289,-220.5 2401,-220.5 2401,-190.5 2289,-190.5"/>
<text text-anchor="start" x="2297" y="-208.5" font-family="Helvetica,sans-Serif" font-size="10.00">erpc_rpmsg_lite_base</text>
<text text-anchor="middle" x="2345" y="-197.5" font-family="Helvetica,sans-Serif" font-size="10.00">_transport.hpp</text>
</a>
</g>
</g>
<!-- Node2&#45;&gt;Node30 -->
<g id="edge31" class="edge"><title>Node2&#45;&gt;Node30</title>
<path fill="none" stroke="midnightblue" d="M2039.49,-256.303C2108.45,-245.061 2221.26,-226.672 2288.79,-215.663"/>
<polygon fill="midnightblue" stroke="midnightblue" points="2038.53,-252.912 2029.23,-257.976 2039.66,-259.821 2038.53,-252.912"/>
</g>
<!-- Node4 -->
<g id="node4" class="node"><title>Node4</title>
<g id="a_node4"><a xlink:href="erpc__client__server__common_8hpp.html" target="_top" xlink:title="erpc_client_server\l_common.hpp">
<polygon fill="white" stroke="black" points="2028.5,-123.5 2028.5,-153.5 2123.5,-153.5 2123.5,-123.5 2028.5,-123.5"/>
<text text-anchor="start" x="2036.5" y="-141.5" font-family="Helvetica,sans-Serif" font-size="10.00">erpc_client_server</text>
<text text-anchor="middle" x="2076" y="-130.5" font-family="Helvetica,sans-Serif" font-size="10.00">_common.hpp</text>
</a>
</g>
</g>
<!-- Node3&#45;&gt;Node4 -->
<g id="edge3" class="edge"><title>Node3&#45;&gt;Node4</title>
<path fill="none" stroke="midnightblue" d="M2107.66,-187.355C2100.69,-176.824 2091.88,-163.502 2085.32,-153.589"/>
<polygon fill="midnightblue" stroke="midnightblue" points="2104.76,-189.325 2113.2,-195.734 2110.6,-185.463 2104.76,-189.325"/>
</g>
<!-- Node3&#45;&gt;Node7 -->
<g id="edge11" class="edge"><title>Node3&#45;&gt;Node7</title>
<path fill="none" stroke="midnightblue" d="M2126.4,-186.349C2137.18,-160 2157.88,-109.641 2176,-67 2182.28,-52.2141 2189.8,-35.0862 2194.22,-25.0579"/>
<polygon fill="midnightblue" stroke="midnightblue" points="2123.09,-185.209 2122.55,-195.79 2129.57,-187.856 2123.09,-185.209"/>
</g>
<!-- Node12 -->
<g id="node12" class="node"><title>Node12</title>
<g id="a_node12"><a xlink:href="erpc__basic__codec_8hpp.html" target="_top" xlink:title="erpc_basic_codec.hpp">
<polygon fill="white" stroke="black" points="1896,-129 1896,-148 2010,-148 2010,-129 1896,-129"/>
<text text-anchor="middle" x="1953" y="-136" font-family="Helvetica,sans-Serif" font-size="10.00">erpc_basic_codec.hpp</text>
</a>
</g>
</g>
<!-- Node3&#45;&gt;Node12 -->
<g id="edge12" class="edge"><title>Node3&#45;&gt;Node12</title>
<path fill="none" stroke="midnightblue" d="M2087.34,-192.104C2054.38,-179.198 2003.64,-159.327 1974.87,-148.064"/>
<polygon fill="midnightblue" stroke="midnightblue" points="2086.37,-195.481 2096.96,-195.869 2088.92,-188.963 2086.37,-195.481"/>
</g>
<!-- Node5 -->
<g id="node5" class="node"><title>Node5</title>
<g id="a_node5"><a xlink:href="erpc__client__manager_8h.html" target="_top" xlink:title="erpc_client_manager.h">
<polygon fill="white" stroke="black" points="2001.5,-67.5 2001.5,-86.5 2116.5,-86.5 2116.5,-67.5 2001.5,-67.5"/>
<text text-anchor="middle" x="2059" y="-74.5" font-family="Helvetica,sans-Serif" font-size="10.00">erpc_client_manager.h</text>
</a>
</g>
</g>
<!-- Node4&#45;&gt;Node5 -->
<g id="edge4" class="edge"><title>Node4&#45;&gt;Node5</title>
<path fill="none" stroke="midnightblue" d="M2069.17,-113.593C2066.45,-104.077 2063.49,-93.73 2061.47,-86.6578"/>
<polygon fill="midnightblue" stroke="midnightblue" points="2065.86,-114.746 2071.97,-123.399 2072.59,-112.823 2065.86,-114.746"/>
</g>
<!-- Node10 -->
<g id="node10" class="node"><title>Node10</title>
<g id="a_node10"><a xlink:href="erpc__server_8hpp.html" target="_top" xlink:title="erpc_server.hpp">
<polygon fill="white" stroke="black" points="1764.5,-67.5 1764.5,-86.5 1849.5,-86.5 1849.5,-67.5 1764.5,-67.5"/>
<text text-anchor="middle" x="1807" y="-74.5" font-family="Helvetica,sans-Serif" font-size="10.00">erpc_server.hpp</text>
</a>
</g>
</g>
<!-- Node4&#45;&gt;Node10 -->
<g id="edge9" class="edge"><title>Node4&#45;&gt;Node10</title>
<path fill="none" stroke="midnightblue" d="M2018.51,-122.939C1953.98,-108.004 1890.55,-94.8302 1849.75,-86.5515"/>
<polygon fill="midnightblue" stroke="midnightblue" points="2017.92,-126.395 2028.45,-125.253 2019.5,-119.577 2017.92,-126.395"/>
</g>
<!-- Node6 -->
<g id="node6" class="node"><title>Node6</title>
<g id="a_node6"><a xlink:href="erpc__arbitrated__client__manager_8hpp.html" target="_top" xlink:title="erpc_arbitrated_client\l_manager.hpp">
<polygon fill="white" stroke="black" points="1752,-0.5 1752,-30.5 1862,-30.5 1862,-0.5 1752,-0.5"/>
<text text-anchor="start" x="1760" y="-18.5" font-family="Helvetica,sans-Serif" font-size="10.00">erpc_arbitrated_client</text>
<text text-anchor="middle" x="1807" y="-7.5" font-family="Helvetica,sans-Serif" font-size="10.00">_manager.hpp</text>
</a>
</g>
</g>
<!-- Node5&#45;&gt;Node6 -->
<g id="edge5" class="edge"><title>Node5&#45;&gt;Node6</title>
<path fill="none" stroke="midnightblue" d="M2013.09,-65.1603C1970.58,-55.1225 1907.29,-40.1789 1862.07,-29.5029"/>
<polygon fill="midnightblue" stroke="midnightblue" points="2012.36,-68.5834 2022.89,-67.4751 2013.97,-61.7708 2012.36,-68.5834"/>
</g>
<!-- Node5&#45;&gt;Node7 -->
<g id="edge6" class="edge"><title>Node5&#45;&gt;Node7</title>
<path fill="none" stroke="midnightblue" d="M2088.25,-63.4795C2115.25,-51.9238 2154.6,-35.0758 2178.12,-25.0091"/>
<polygon fill="midnightblue" stroke="midnightblue" points="2086.73,-60.3222 2078.92,-67.4751 2089.49,-66.7574 2086.73,-60.3222"/>
</g>
<!-- Node8 -->
<g id="node8" class="node"><title>Node8</title>
<g id="a_node8"><a xlink:href="erpc__arbitrated__client__setup_8h.html" target="_top" xlink:title="erpc_arbitrated_client\l_setup.h">
<polygon fill="white" stroke="black" points="1880,-0.5 1880,-30.5 1990,-30.5 1990,-0.5 1880,-0.5"/>
<text text-anchor="start" x="1888" y="-18.5" font-family="Helvetica,sans-Serif" font-size="10.00">erpc_arbitrated_client</text>
<text text-anchor="middle" x="1935" y="-7.5" font-family="Helvetica,sans-Serif" font-size="10.00">_setup.h</text>
</a>
</g>
</g>
<!-- Node5&#45;&gt;Node8 -->
<g id="edge7" class="edge"><title>Node5&#45;&gt;Node8</title>
<path fill="none" stroke="midnightblue" d="M2032.05,-63.0696C2012.04,-53.4655 1984.76,-40.3784 1964.22,-30.523"/>
<polygon fill="midnightblue" stroke="midnightblue" points="2030.7,-66.3044 2041.23,-67.4751 2033.73,-59.9934 2030.7,-66.3044"/>
</g>
<!-- Node9 -->
<g id="node9" class="node"><title>Node9</title>
<g id="a_node9"><a xlink:href="erpc__client__setup_8h.html" target="_top" xlink:title="erpc_client_setup.h">
<polygon fill="white" stroke="black" points="2008.5,-6 2008.5,-25 2109.5,-25 2109.5,-6 2008.5,-6"/>
<text text-anchor="middle" x="2059" y="-13" font-family="Helvetica,sans-Serif" font-size="10.00">erpc_client_setup.h</text>
</a>
</g>
</g>
<!-- Node5&#45;&gt;Node9 -->
<g id="edge8" class="edge"><title>Node5&#45;&gt;Node9</title>
<path fill="none" stroke="midnightblue" d="M2059,-57.3165C2059,-46.4962 2059,-33.398 2059,-25.0091"/>
<polygon fill="midnightblue" stroke="midnightblue" points="2055.5,-57.4751 2059,-67.4751 2062.5,-57.4751 2055.5,-57.4751"/>
</g>
<!-- Node11 -->
<g id="node11" class="node"><title>Node11</title>
<g id="a_node11"><a xlink:href="erpc__simple__server_8hpp.html" target="_top" xlink:title="erpc_simple_server.hpp">
<polygon fill="white" stroke="black" points="1614.5,-6 1614.5,-25 1733.5,-25 1733.5,-6 1614.5,-6"/>
<text text-anchor="middle" x="1674" y="-13" font-family="Helvetica,sans-Serif" font-size="10.00">erpc_simple_server.hpp</text>
</a>
</g>
</g>
<!-- Node10&#45;&gt;Node11 -->
<g id="edge10" class="edge"><title>Node10&#45;&gt;Node11</title>
<path fill="none" stroke="midnightblue" d="M1778.67,-63.3272C1752.85,-51.7761 1715.42,-35.0316 1693.02,-25.0091"/>
<polygon fill="midnightblue" stroke="midnightblue" points="1777.39,-66.5862 1787.94,-67.4751 1780.25,-60.1965 1777.39,-66.5862"/>
</g>
<!-- Node14 -->
<g id="node14" class="node"><title>Node14</title>
<g id="a_node14"><a xlink:href="erpc__dspi__master__transport_8hpp.html" target="_top" xlink:title="erpc_dspi_master_transport.hpp">
<polygon fill="white" stroke="black" points="1226,-129 1226,-148 1382,-148 1382,-129 1226,-129"/>
<text text-anchor="middle" x="1304" y="-136" font-family="Helvetica,sans-Serif" font-size="10.00">erpc_dspi_master_transport.hpp</text>
</a>
</g>
</g>
<!-- Node13&#45;&gt;Node14 -->
<g id="edge15" class="edge"><title>Node13&#45;&gt;Node14</title>
<path fill="none" stroke="midnightblue" d="M1027.52,-193.958C1092.47,-181.165 1200.72,-159.843 1260.69,-148.032"/>
<polygon fill="midnightblue" stroke="midnightblue" points="1026.62,-190.569 1017.48,-195.936 1027.97,-197.437 1026.62,-190.569"/>
</g>
<!-- Node15 -->
<g id="node15" class="node"><title>Node15</title>
<g id="a_node15"><a xlink:href="erpc__dspi__slave__transport_8hpp.html" target="_top" xlink:title="erpc_dspi_slave_transport.hpp">
<polygon fill="white" stroke="black" points="1400,-129 1400,-148 1548,-148 1548,-129 1400,-129"/>
<text text-anchor="middle" x="1474" y="-136" font-family="Helvetica,sans-Serif" font-size="10.00">erpc_dspi_slave_transport.hpp</text>
</a>
</g>
</g>
<!-- Node13&#45;&gt;Node15 -->
<g id="edge16" class="edge"><title>Node13&#45;&gt;Node15</title>
<path fill="none" stroke="midnightblue" d="M1050.42,-196.462C1134.17,-187.369 1272.4,-171.528 1391,-154 1402.87,-152.246 1415.65,-150.128 1427.54,-148.059"/>
<polygon fill="midnightblue" stroke="midnightblue" points="1049.79,-193.009 1040.23,-197.564 1050.55,-199.968 1049.79,-193.009"/>
</g>
<!-- Node16 -->
<g id="node16" class="node"><title>Node16</title>
<g id="a_node16"><a xlink:href="erpc__i2c__slave__transport_8hpp.html" target="_top" xlink:title="erpc_i2c_slave_transport.hpp">
<polygon fill="white" stroke="black" points="1566.5,-129 1566.5,-148 1709.5,-148 1709.5,-129 1566.5,-129"/>
<text text-anchor="middle" x="1638" y="-136" font-family="Helvetica,sans-Serif" font-size="10.00">erpc_i2c_slave_transport.hpp</text>
</a>
</g>
</g>
<!-- Node13&#45;&gt;Node16 -->
<g id="edge17" class="edge"><title>Node13&#45;&gt;Node16</title>
<path fill="none" stroke="midnightblue" d="M1050.37,-200.102C1161.99,-193.172 1376.08,-177.979 1557,-154 1569.18,-152.386 1582.32,-150.22 1594.39,-148.055"/>
<polygon fill="midnightblue" stroke="midnightblue" points="1049.99,-196.619 1040.22,-200.727 1050.42,-203.605 1049.99,-196.619"/>
</g>
<!-- Node17 -->
<g id="node17" class="node"><title>Node17</title>
<g id="a_node17"><a xlink:href="erpc__lpi2c__slave__transport_8hpp.html" target="_top" xlink:title="erpc_lpi2c_slave_transport.hpp">
<polygon fill="white" stroke="black" points="1728,-129 1728,-148 1878,-148 1878,-129 1728,-129"/>
<text text-anchor="middle" x="1803" y="-136" font-family="Helvetica,sans-Serif" font-size="10.00">erpc_lpi2c_slave_transport.hpp</text>
</a>
</g>
</g>
<!-- Node13&#45;&gt;Node17 -->
<g id="edge18" class="edge"><title>Node13&#45;&gt;Node17</title>
<path fill="none" stroke="midnightblue" d="M1050.38,-201.867C1185.44,-196.643 1475.09,-182.888 1718,-154 1731.08,-152.444 1745.21,-150.245 1758.13,-148.028"/>
<polygon fill="midnightblue" stroke="midnightblue" points="1050,-198.379 1040.15,-202.258 1050.27,-205.374 1050,-198.379"/>
</g>
<!-- Node18 -->
<g id="node18" class="node"><title>Node18</title>
<g id="a_node18"><a xlink:href="erpc__lpspi__slave__transport_8hpp.html" target="_top" xlink:title="erpc_lpspi_slave_transport.hpp">
<polygon fill="white" stroke="black" points="0,-129 0,-148 150,-148 150,-129 0,-129"/>
<text text-anchor="middle" x="75" y="-136" font-family="Helvetica,sans-Serif" font-size="10.00">erpc_lpspi_slave_transport.hpp</text>
</a>
</g>
</g>
<!-- Node13&#45;&gt;Node18 -->
<g id="edge19" class="edge"><title>Node13&#45;&gt;Node18</title>
<path fill="none" stroke="midnightblue" d="M897.659,-202.546C753.077,-198.231 429.541,-185.636 159,-154 145.918,-152.47 131.779,-150.252 118.9,-148.008"/>
<polygon fill="midnightblue" stroke="midnightblue" points="897.658,-206.048 907.757,-202.843 897.864,-199.051 897.658,-206.048"/>
</g>
<!-- Node19 -->
<g id="node19" class="node"><title>Node19</title>
<g id="a_node19"><a xlink:href="erpc__serial__transport_8hpp.html" target="_top" xlink:title="erpc_serial_transport.hpp">
<polygon fill="white" stroke="black" points="168,-129 168,-148 294,-148 294,-129 168,-129"/>
<text text-anchor="middle" x="231" y="-136" font-family="Helvetica,sans-Serif" font-size="10.00">erpc_serial_transport.hpp</text>
</a>
</g>
</g>
<!-- Node13&#45;&gt;Node19 -->
<g id="edge20" class="edge"><title>Node13&#45;&gt;Node19</title>
<path fill="none" stroke="midnightblue" d="M897.784,-201.833C772.978,-196.778 517.436,-183.546 303,-154 291.884,-152.468 279.903,-150.276 268.964,-148.059"/>
<polygon fill="midnightblue" stroke="midnightblue" points="897.865,-205.339 907.996,-202.24 898.144,-198.344 897.865,-205.339"/>
</g>
<!-- Node20 -->
<g id="node20" class="node"><title>Node20</title>
<g id="a_node20"><a xlink:href="erpc__spi__master__transport_8hpp.html" target="_top" xlink:title="erpc_spi_master_transport.hpp">
<polygon fill="white" stroke="black" points="312.5,-129 312.5,-148 463.5,-148 463.5,-129 312.5,-129"/>
<text text-anchor="middle" x="388" y="-136" font-family="Helvetica,sans-Serif" font-size="10.00">erpc_spi_master_transport.hpp</text>
</a>
</g>
</g>
<!-- Node13&#45;&gt;Node20 -->
<g id="edge21" class="edge"><title>Node13&#45;&gt;Node20</title>
<path fill="none" stroke="midnightblue" d="M897.469,-198.494C798.864,-190.368 622.251,-174.499 472,-154 459.683,-152.32 446.405,-150.181 434.123,-148.065"/>
<polygon fill="midnightblue" stroke="midnightblue" points="897.388,-201.999 907.64,-199.328 897.96,-195.023 897.388,-201.999"/>
</g>
<!-- Node21 -->
<g id="node21" class="node"><title>Node21</title>
<g id="a_node21"><a xlink:href="erpc__spi__slave__transport_8hpp.html" target="_top" xlink:title="erpc_spi_slave_transport.hpp">
<polygon fill="white" stroke="black" points="481.5,-129 481.5,-148 624.5,-148 624.5,-129 481.5,-129"/>
<text text-anchor="middle" x="553" y="-136" font-family="Helvetica,sans-Serif" font-size="10.00">erpc_spi_slave_transport.hpp</text>
</a>
</g>
</g>
<!-- Node13&#45;&gt;Node21 -->
<g id="edge22" class="edge"><title>Node13&#45;&gt;Node21</title>
<path fill="none" stroke="midnightblue" d="M902.398,-194.581C833.325,-184.851 725.869,-169.289 633,-154 621.858,-152.166 609.867,-150.062 598.646,-148.036"/>
<polygon fill="midnightblue" stroke="midnightblue" points="901.914,-198.048 912.304,-195.974 902.889,-191.116 901.914,-198.048"/>
</g>
<!-- Node22 -->
<g id="node22" class="node"><title>Node22</title>
<g id="a_node22"><a xlink:href="erpc__spidev__master__transport_8hpp.html" target="_top" xlink:title="erpc_spidev_master\l_transport.hpp">
<polygon fill="white" stroke="black" points="642.5,-123.5 642.5,-153.5 745.5,-153.5 745.5,-123.5 642.5,-123.5"/>
<text text-anchor="start" x="650.5" y="-141.5" font-family="Helvetica,sans-Serif" font-size="10.00">erpc_spidev_master</text>
<text text-anchor="middle" x="694" y="-130.5" font-family="Helvetica,sans-Serif" font-size="10.00">_transport.hpp</text>
</a>
</g>
</g>
<!-- Node13&#45;&gt;Node22 -->
<g id="edge23" class="edge"><title>Node13&#45;&gt;Node22</title>
<path fill="none" stroke="midnightblue" d="M926.866,-193.728C882.501,-183.566 814.213,-167.864 755,-154 751.926,-153.28 748.766,-152.538 745.579,-151.786"/>
<polygon fill="midnightblue" stroke="midnightblue" points="926.254,-197.178 936.783,-195.998 927.816,-190.355 926.254,-197.178"/>
</g>
<!-- Node23 -->
<g id="node23" class="node"><title>Node23</title>
<g id="a_node23"><a xlink:href="erpc__tcp__transport_8hpp.html" target="_top" xlink:title="erpc_tcp_transport.hpp">
<polygon fill="white" stroke="black" points="764,-129 764,-148 880,-148 880,-129 764,-129"/>
<text text-anchor="middle" x="822" y="-136" font-family="Helvetica,sans-Serif" font-size="10.00">erpc_tcp_transport.hpp</text>
</a>
</g>
</g>
<!-- Node13&#45;&gt;Node23 -->
<g id="edge24" class="edge"><title>Node13&#45;&gt;Node23</title>
<path fill="none" stroke="midnightblue" d="M944.257,-191.781C914.155,-178.909 868.429,-159.355 842.268,-148.167"/>
<polygon fill="midnightblue" stroke="midnightblue" points="943.245,-195.155 953.816,-195.869 945.997,-188.718 943.245,-195.155"/>
</g>
<!-- Node24 -->
<g id="node24" class="node"><title>Node24</title>
<g id="a_node24"><a xlink:href="erpc__uart__cmsis__transport_8hpp.html" target="_top" xlink:title="erpc_uart_cmsis_transport.hpp">
<polygon fill="white" stroke="black" points="898.5,-129 898.5,-148 1049.5,-148 1049.5,-129 898.5,-129"/>
<text text-anchor="middle" x="974" y="-136" font-family="Helvetica,sans-Serif" font-size="10.00">erpc_uart_cmsis_transport.hpp</text>
</a>
</g>
</g>
<!-- Node13&#45;&gt;Node24 -->
<g id="edge25" class="edge"><title>Node13&#45;&gt;Node24</title>
<path fill="none" stroke="midnightblue" d="M974,-185.537C974,-173.17 974,-157.62 974,-148.127"/>
<polygon fill="midnightblue" stroke="midnightblue" points="970.5,-185.734 974,-195.734 977.5,-185.734 970.5,-185.734"/>
</g>
<!-- Node25 -->
<g id="node25" class="node"><title>Node25</title>
<g id="a_node25"><a xlink:href="erpc__usb__cdc__transport_8hpp.html" target="_top" xlink:title="erpc_usb_cdc_transport.hpp">
<polygon fill="white" stroke="black" points="1068,-129 1068,-148 1208,-148 1208,-129 1068,-129"/>
<text text-anchor="middle" x="1138" y="-136" font-family="Helvetica,sans-Serif" font-size="10.00">erpc_usb_cdc_transport.hpp</text>
</a>
</g>
</g>
<!-- Node13&#45;&gt;Node25 -->
<g id="edge26" class="edge"><title>Node13&#45;&gt;Node25</title>
<path fill="none" stroke="midnightblue" d="M1005.28,-192.104C1037.84,-179.198 1087.97,-159.327 1116.39,-148.064"/>
<polygon fill="midnightblue" stroke="midnightblue" points="1003.78,-188.93 995.778,-195.869 1006.36,-195.438 1003.78,-188.93"/>
</g>
<!-- Node30&#45;&gt;Node31 -->
<g id="edge32" class="edge"><title>Node30&#45;&gt;Node31</title>
<path fill="none" stroke="midnightblue" d="M2321.53,-183.598C2310.5,-173.783 2297.66,-162.344 2287.81,-153.577"/>
<polygon fill="midnightblue" stroke="midnightblue" points="2319.36,-186.36 2329.16,-190.396 2324.02,-181.132 2319.36,-186.36"/>
</g>
<!-- Node30&#45;&gt;Node32 -->
<g id="edge33" class="edge"><title>Node30&#45;&gt;Node32</title>
<path fill="none" stroke="midnightblue" d="M2368.39,-183.672C2381.87,-171.671 2398.1,-157.22 2408.24,-148.195"/>
<polygon fill="midnightblue" stroke="midnightblue" points="2365.98,-181.132 2360.84,-190.396 2370.64,-186.36 2365.98,-181.132"/>
</g>
<!-- Node30&#45;&gt;Node33 -->
<g id="edge34" class="edge"><title>Node30&#45;&gt;Node33</title>
<path fill="none" stroke="midnightblue" d="M2401.75,-187.58C2437.16,-177.022 2482.2,-163.592 2515.67,-153.611"/>
<polygon fill="midnightblue" stroke="midnightblue" points="2400.62,-184.264 2392.03,-190.476 2402.62,-190.973 2400.62,-184.264"/>
</g>
</g>
</svg>
