<?xml version="1.0" encoding="UTF-8" standalone="no"?>
<!DOCTYPE svg PUBLIC "-//W3C//DTD SVG 1.1//EN"
 "http://www.w3.org/Graphics/SVG/1.1/DTD/svg11.dtd">
<!-- Generated by graphviz version 2.38.0 (20140413.2041)
 -->
<!-- Title: erpc_rpmsg_lite_transport.hpp Pages: 1 -->
<svg width="771pt" height="196pt"
 viewBox="0.00 0.00 770.50 196.00" xmlns="http://www.w3.org/2000/svg" xmlns:xlink="http://www.w3.org/1999/xlink">
<g id="graph0" class="graph" transform="scale(1 1) rotate(0) translate(4 192)">
<title>erpc_rpmsg_lite_transport.hpp</title>
<polygon fill="white" stroke="none" points="-4,4 -4,-192 766.5,-192 766.5,4 -4,4"/>
<!-- Node1 -->
<g id="node1" class="node"><title>Node1</title>
<polygon fill="#bfbfbf" stroke="black" points="326,-168.5 326,-187.5 474,-187.5 474,-168.5 326,-168.5"/>
<text text-anchor="middle" x="400" y="-175.5" font-family="Helvetica,sans-Serif" font-size="10.00">erpc_rpmsg_lite_transport.hpp</text>
</g>
<!-- Node2 -->
<g id="node2" class="node"><title>Node2</title>
<g id="a_node2"><a xlink:href="erpc__config__internal_8h_source.html" target="_top" xlink:title="erpc_config_internal.h">
<polygon fill="white" stroke="black" points="21.5,-56.5 21.5,-75.5 132.5,-75.5 132.5,-56.5 21.5,-56.5"/>
<text text-anchor="middle" x="77" y="-63.5" font-family="Helvetica,sans-Serif" font-size="10.00">erpc_config_internal.h</text>
</a>
</g>
</g>
<!-- Node1&#45;&gt;Node2 -->
<g id="edge1" class="edge"><title>Node1&#45;&gt;Node2</title>
<path fill="none" stroke="midnightblue" d="M325.894,-176.715C271.059,-173.647 196.119,-163.27 138,-132 117.008,-120.706 99.1937,-99.4709 88.3327,-84.3466"/>
<polygon fill="midnightblue" stroke="midnightblue" points="91.0508,-82.122 82.5025,-75.8628 85.2817,-86.0866 91.0508,-82.122"/>
</g>
<!-- Node5 -->
<g id="node5" class="node"><title>Node5</title>
<g id="a_node5"><a xlink:href="erpc__crc16_8hpp.html" target="_top" xlink:title="erpc_crc16.hpp">
<polygon fill="white" stroke="black" points="469.5,-56.5 469.5,-75.5 552.5,-75.5 552.5,-56.5 469.5,-56.5"/>
<text text-anchor="middle" x="511" y="-63.5" font-family="Helvetica,sans-Serif" font-size="10.00">erpc_crc16.hpp</text>
</a>
</g>
</g>
<!-- Node1&#45;&gt;Node5 -->
<g id="edge4" class="edge"><title>Node1&#45;&gt;Node5</title>
<path fill="none" stroke="midnightblue" d="M415.866,-168.428C430.039,-160.276 450.845,-147.048 466,-132 480.264,-117.837 492.935,-98.6059 501.168,-84.7405"/>
<polygon fill="midnightblue" stroke="midnightblue" points="504.391,-86.1564 506.337,-75.7418 498.321,-82.6695 504.391,-86.1564"/>
</g>
<!-- Node7 -->
<g id="node7" class="node"><title>Node7</title>
<g id="a_node7"><a xlink:href="erpc__message__buffer_8hpp.html" target="_top" xlink:title="erpc_message_buffer.hpp">
<polygon fill="white" stroke="black" points="609,-56.5 609,-75.5 737,-75.5 737,-56.5 609,-56.5"/>
<text text-anchor="middle" x="673" y="-63.5" font-family="Helvetica,sans-Serif" font-size="10.00">erpc_message_buffer.hpp</text>
</a>
</g>
</g>
<!-- Node1&#45;&gt;Node7 -->
<g id="edge6" class="edge"><title>Node1&#45;&gt;Node7</title>
<path fill="none" stroke="midnightblue" d="M474.022,-174.547C519.3,-170.112 576.812,-158.998 621,-132 639.816,-120.504 654.675,-99.6215 663.609,-84.6253"/>
<polygon fill="midnightblue" stroke="midnightblue" points="666.736,-86.2067 668.607,-75.7785 660.641,-82.7635 666.736,-86.2067"/>
</g>
<!-- Node11 -->
<g id="node11" class="node"><title>Node11</title>
<g id="a_node11"><a xlink:href="erpc__rpmsg__lite__base_8hpp.html" target="_top" xlink:title="erpc_rpmsg_lite_base.hpp">
<polygon fill="white" stroke="black" points="147.5,-112.5 147.5,-131.5 278.5,-131.5 278.5,-112.5 147.5,-112.5"/>
<text text-anchor="middle" x="213" y="-119.5" font-family="Helvetica,sans-Serif" font-size="10.00">erpc_rpmsg_lite_base.hpp</text>
</a>
</g>
</g>
<!-- Node1&#45;&gt;Node11 -->
<g id="edge10" class="edge"><title>Node1&#45;&gt;Node11</title>
<path fill="none" stroke="midnightblue" d="M370.369,-168.444C338.5,-159.241 287.667,-144.562 252.436,-134.388"/>
<polygon fill="midnightblue" stroke="midnightblue" points="253.071,-130.928 242.492,-131.516 251.128,-137.653 253.071,-130.928"/>
</g>
<!-- Node13 -->
<g id="node13" class="node"><title>Node13</title>
<polygon fill="white" stroke="#bfbfbf" points="279,-56.5 279,-75.5 349,-75.5 349,-56.5 279,-56.5"/>
<text text-anchor="middle" x="314" y="-63.5" font-family="Helvetica,sans-Serif" font-size="10.00">rpmsg_lite.h</text>
</g>
<!-- Node1&#45;&gt;Node13 -->
<g id="edge22" class="edge"><title>Node1&#45;&gt;Node13</title>
<path fill="none" stroke="midnightblue" d="M380.213,-168.358C365.176,-160.823 345.083,-148.508 333,-132 323.126,-118.511 318.359,-99.9539 316.072,-86.1202"/>
<polygon fill="midnightblue" stroke="midnightblue" points="319.488,-85.2648 314.677,-75.8256 312.552,-86.2051 319.488,-85.2648"/>
</g>
<!-- Node14 -->
<g id="node14" class="node"><title>Node14</title>
<g id="a_node14"><a xlink:href="erpc__static__queue_8hpp.html" target="_top" xlink:title="erpc_static_queue.hpp">
<polygon fill="white" stroke="black" points="342.5,-112.5 342.5,-131.5 457.5,-131.5 457.5,-112.5 342.5,-112.5"/>
<text text-anchor="middle" x="400" y="-119.5" font-family="Helvetica,sans-Serif" font-size="10.00">erpc_static_queue.hpp</text>
</a>
</g>
</g>
<!-- Node1&#45;&gt;Node14 -->
<g id="edge14" class="edge"><title>Node1&#45;&gt;Node14</title>
<path fill="none" stroke="midnightblue" d="M400,-168.083C400,-161.006 400,-150.861 400,-141.986"/>
<polygon fill="midnightblue" stroke="midnightblue" points="403.5,-141.751 400,-131.751 396.5,-141.751 403.5,-141.751"/>
</g>
<!-- Node16 -->
<g id="node16" class="node"><title>Node16</title>
<g id="a_node16"><a xlink:href="erpc__transport_8hpp.html" target="_top" xlink:title="erpc_transport.hpp">
<polygon fill="white" stroke="black" points="514,-112.5 514,-131.5 612,-131.5 612,-112.5 514,-112.5"/>
<text text-anchor="middle" x="563" y="-119.5" font-family="Helvetica,sans-Serif" font-size="10.00">erpc_transport.hpp</text>
</a>
</g>
</g>
<!-- Node1&#45;&gt;Node16 -->
<g id="edge17" class="edge"><title>Node1&#45;&gt;Node16</title>
<path fill="none" stroke="midnightblue" d="M425.828,-168.444C453.249,-159.359 496.777,-144.939 527.432,-134.783"/>
<polygon fill="midnightblue" stroke="midnightblue" points="528.901,-137.984 537.293,-131.516 526.7,-131.339 528.901,-137.984"/>
</g>
<!-- Node3 -->
<g id="node3" class="node"><title>Node3</title>
<g id="a_node3"><a xlink:href="erpc__config_8h.html" target="_top" xlink:title="erpc_config.h">
<polygon fill="white" stroke="black" points="0,-0.5 0,-19.5 74,-19.5 74,-0.5 0,-0.5"/>
<text text-anchor="middle" x="37" y="-7.5" font-family="Helvetica,sans-Serif" font-size="10.00">erpc_config.h</text>
</a>
</g>
</g>
<!-- Node2&#45;&gt;Node3 -->
<g id="edge2" class="edge"><title>Node2&#45;&gt;Node3</title>
<path fill="none" stroke="midnightblue" d="M70.3948,-56.083C64.7448,-48.4554 56.4552,-37.2645 49.5488,-27.9408"/>
<polygon fill="midnightblue" stroke="midnightblue" points="52.2471,-25.7034 43.4823,-19.7511 46.6221,-29.87 52.2471,-25.7034"/>
</g>
<!-- Node4 -->
<g id="node4" class="node"><title>Node4</title>
<polygon fill="white" stroke="#bfbfbf" points="92.5,-0.5 92.5,-19.5 141.5,-19.5 141.5,-0.5 92.5,-0.5"/>
<text text-anchor="middle" x="117" y="-7.5" font-family="Helvetica,sans-Serif" font-size="10.00">cassert</text>
</g>
<!-- Node2&#45;&gt;Node4 -->
<g id="edge3" class="edge"><title>Node2&#45;&gt;Node4</title>
<path fill="none" stroke="midnightblue" d="M83.6052,-56.083C89.2552,-48.4554 97.5448,-37.2645 104.451,-27.9408"/>
<polygon fill="midnightblue" stroke="midnightblue" points="107.378,-29.87 110.518,-19.7511 101.753,-25.7034 107.378,-29.87"/>
</g>
<!-- Node6 -->
<g id="node6" class="node"><title>Node6</title>
<polygon fill="white" stroke="#bfbfbf" points="415,-0.5 415,-19.5 461,-19.5 461,-0.5 415,-0.5"/>
<text text-anchor="middle" x="438" y="-7.5" font-family="Helvetica,sans-Serif" font-size="10.00">cstdint</text>
</g>
<!-- Node5&#45;&gt;Node6 -->
<g id="edge5" class="edge"><title>Node5&#45;&gt;Node6</title>
<path fill="none" stroke="midnightblue" d="M499.271,-56.324C488.163,-48.1066 471.258,-35.6017 458.017,-25.8069"/>
<polygon fill="midnightblue" stroke="midnightblue" points="460.063,-22.9671 449.942,-19.8339 455.9,-28.5948 460.063,-22.9671"/>
</g>
<!-- Node8 -->
<g id="node8" class="node"><title>Node8</title>
<g id="a_node8"><a xlink:href="erpc__common_8h_source.html" target="_top" xlink:title="erpc_common.h">
<polygon fill="white" stroke="black" points="540,-0.5 540,-19.5 626,-19.5 626,-0.5 540,-0.5"/>
<text text-anchor="middle" x="583" y="-7.5" font-family="Helvetica,sans-Serif" font-size="10.00">erpc_common.h</text>
</a>
</g>
</g>
<!-- Node7&#45;&gt;Node8 -->
<g id="edge7" class="edge"><title>Node7&#45;&gt;Node8</title>
<path fill="none" stroke="midnightblue" d="M658.54,-56.324C644.5,-47.9002 622.952,-34.9709 606.457,-25.0741"/>
<polygon fill="midnightblue" stroke="midnightblue" points="607.8,-21.7983 597.424,-19.6545 604.198,-27.8007 607.8,-21.7983"/>
</g>
<!-- Node9 -->
<g id="node9" class="node"><title>Node9</title>
<polygon fill="white" stroke="#bfbfbf" points="647,-0.5 647,-19.5 695,-19.5 695,-0.5 647,-0.5"/>
<text text-anchor="middle" x="671" y="-7.5" font-family="Helvetica,sans-Serif" font-size="10.00">cstddef</text>
</g>
<!-- Node7&#45;&gt;Node9 -->
<g id="edge8" class="edge"><title>Node7&#45;&gt;Node9</title>
<path fill="none" stroke="midnightblue" d="M672.67,-56.083C672.408,-49.0059 672.032,-38.8611 671.703,-29.9865"/>
<polygon fill="midnightblue" stroke="midnightblue" points="675.192,-29.6147 671.324,-19.7511 668.197,-29.8738 675.192,-29.6147"/>
</g>
<!-- Node10 -->
<g id="node10" class="node"><title>Node10</title>
<polygon fill="white" stroke="#bfbfbf" points="713.5,-0.5 713.5,-19.5 762.5,-19.5 762.5,-0.5 713.5,-0.5"/>
<text text-anchor="middle" x="738" y="-7.5" font-family="Helvetica,sans-Serif" font-size="10.00">stdint.h</text>
</g>
<!-- Node7&#45;&gt;Node10 -->
<g id="edge9" class="edge"><title>Node7&#45;&gt;Node10</title>
<path fill="none" stroke="midnightblue" d="M683.443,-56.324C693.146,-48.2631 707.815,-36.0765 719.5,-26.3695"/>
<polygon fill="midnightblue" stroke="midnightblue" points="721.911,-28.9163 727.367,-19.8339 717.438,-23.532 721.911,-28.9163"/>
</g>
<!-- Node11&#45;&gt;Node2 -->
<g id="edge11" class="edge"><title>Node11&#45;&gt;Node2</title>
<path fill="none" stroke="midnightblue" d="M191.45,-112.444C168.969,-103.517 133.512,-89.4387 108.02,-79.3168"/>
<polygon fill="midnightblue" stroke="midnightblue" points="109.035,-75.9539 98.4488,-75.5164 106.451,-82.4598 109.035,-75.9539"/>
</g>
<!-- Node12 -->
<g id="node12" class="node"><title>Node12</title>
<polygon fill="white" stroke="#bfbfbf" points="151,-56.5 151,-75.5 261,-75.5 261,-56.5 151,-56.5"/>
<text text-anchor="middle" x="206" y="-63.5" font-family="Helvetica,sans-Serif" font-size="10.00">rpmsg_env_specific.h</text>
</g>
<!-- Node11&#45;&gt;Node12 -->
<g id="edge12" class="edge"><title>Node11&#45;&gt;Node12</title>
<path fill="none" stroke="midnightblue" d="M211.844,-112.083C210.916,-104.927 209.582,-94.6353 208.423,-85.6911"/>
<polygon fill="midnightblue" stroke="midnightblue" points="211.891,-85.2181 207.134,-75.7511 204.949,-86.1181 211.891,-85.2181"/>
</g>
<!-- Node11&#45;&gt;Node13 -->
<g id="edge13" class="edge"><title>Node11&#45;&gt;Node13</title>
<path fill="none" stroke="midnightblue" d="M229.227,-112.324C245.351,-103.703 270.3,-90.3643 288.964,-80.3855"/>
<polygon fill="midnightblue" stroke="midnightblue" points="290.644,-83.456 297.813,-75.6545 287.344,-77.283 290.644,-83.456"/>
</g>
<!-- Node14&#45;&gt;Node6 -->
<g id="edge16" class="edge"><title>Node14&#45;&gt;Node6</title>
<path fill="none" stroke="midnightblue" d="M397.179,-112.221C393.547,-99.3766 388.537,-74.9332 396,-56 400.514,-44.5479 409.469,-34.291 417.955,-26.4724"/>
<polygon fill="midnightblue" stroke="midnightblue" points="420.469,-28.9275 425.786,-19.7638 415.915,-23.6113 420.469,-28.9275"/>
</g>
<!-- Node15 -->
<g id="node15" class="node"><title>Node15</title>
<polygon fill="white" stroke="#bfbfbf" points="405,-56.5 405,-75.5 451,-75.5 451,-56.5 405,-56.5"/>
<text text-anchor="middle" x="428" y="-63.5" font-family="Helvetica,sans-Serif" font-size="10.00">cstring</text>
</g>
<!-- Node14&#45;&gt;Node15 -->
<g id="edge15" class="edge"><title>Node14&#45;&gt;Node15</title>
<path fill="none" stroke="midnightblue" d="M404.624,-112.083C408.456,-104.691 414.024,-93.9533 418.765,-84.8111"/>
<polygon fill="midnightblue" stroke="midnightblue" points="421.966,-86.2398 423.462,-75.7511 415.752,-83.0175 421.966,-86.2398"/>
</g>
<!-- Node16&#45;&gt;Node5 -->
<g id="edge19" class="edge"><title>Node16&#45;&gt;Node5</title>
<path fill="none" stroke="midnightblue" d="M554.413,-112.083C546.841,-104.22 535.622,-92.5688 526.486,-83.0813"/>
<polygon fill="midnightblue" stroke="midnightblue" points="528.885,-80.5266 519.427,-75.7511 523.842,-85.3821 528.885,-80.5266"/>
</g>
<!-- Node16&#45;&gt;Node7 -->
<g id="edge20" class="edge"><title>Node16&#45;&gt;Node7</title>
<path fill="none" stroke="midnightblue" d="M580.673,-112.324C598.394,-103.625 625.903,-90.1202 646.288,-80.113"/>
<polygon fill="midnightblue" stroke="midnightblue" points="647.936,-83.2031 655.37,-75.6545 644.851,-76.9195 647.936,-83.2031"/>
</g>
<!-- Node16&#45;&gt;Node8 -->
<g id="edge18" class="edge"><title>Node16&#45;&gt;Node8</title>
<path fill="none" stroke="midnightblue" d="M564.569,-112.368C567.797,-94.617 575.242,-53.6664 579.619,-29.5974"/>
<polygon fill="midnightblue" stroke="midnightblue" points="583.093,-30.0562 581.438,-19.5914 576.205,-28.804 583.093,-30.0562"/>
</g>
<!-- Node16&#45;&gt;Node15 -->
<g id="edge21" class="edge"><title>Node16&#45;&gt;Node15</title>
<path fill="none" stroke="midnightblue" d="M541.609,-112.444C519.293,-103.517 484.097,-89.4387 458.792,-79.3168"/>
<polygon fill="midnightblue" stroke="midnightblue" points="459.876,-75.9807 449.291,-75.5164 457.276,-82.4801 459.876,-75.9807"/>
</g>
</g>
</svg>
