<?xml version="1.0" encoding="UTF-8" standalone="no"?>
<!DOCTYPE svg PUBLIC "-//W3C//DTD SVG 1.1//EN"
 "http://www.w3.org/Graphics/SVG/1.1/DTD/svg11.dtd">
<!-- Generated by graphviz version 2.38.0 (20140413.2041)
 -->
<!-- Title: erpc_rpmsg_lite_base.hpp Pages: 1 -->
<svg width="357pt" height="140pt"
 viewBox="0.00 0.00 357.00 140.00" xmlns="http://www.w3.org/2000/svg" xmlns:xlink="http://www.w3.org/1999/xlink">
<g id="graph0" class="graph" transform="scale(1 1) rotate(0) translate(4 136)">
<title>erpc_rpmsg_lite_base.hpp</title>
<polygon fill="white" stroke="none" points="-4,4 -4,-136 353,-136 353,4 -4,4"/>
<!-- Node1 -->
<g id="node1" class="node"><title>Node1</title>
<polygon fill="#bfbfbf" stroke="black" points="140.5,-112.5 140.5,-131.5 271.5,-131.5 271.5,-112.5 140.5,-112.5"/>
<text text-anchor="middle" x="206" y="-119.5" font-family="Helvetica,sans-Serif" font-size="10.00">erpc_rpmsg_lite_base.hpp</text>
</g>
<!-- Node2 -->
<g id="node2" class="node"><title>Node2</title>
<g id="a_node2"><a xlink:href="erpc__config__internal_8h_source.html" target="_top" xlink:title="erpc_config_internal.h">
<polygon fill="white" stroke="black" points="21.5,-56.5 21.5,-75.5 132.5,-75.5 132.5,-56.5 21.5,-56.5"/>
<text text-anchor="middle" x="77" y="-63.5" font-family="Helvetica,sans-Serif" font-size="10.00">erpc_config_internal.h</text>
</a>
</g>
</g>
<!-- Node1&#45;&gt;Node2 -->
<g id="edge1" class="edge"><title>Node1&#45;&gt;Node2</title>
<path fill="none" stroke="midnightblue" d="M185.56,-112.444C164.33,-103.557 130.901,-89.5632 106.745,-79.4514"/>
<polygon fill="midnightblue" stroke="midnightblue" points="107.921,-76.1493 97.3448,-75.5164 105.218,-82.6064 107.921,-76.1493"/>
</g>
<!-- Node5 -->
<g id="node5" class="node"><title>Node5</title>
<polygon fill="white" stroke="#bfbfbf" points="151,-56.5 151,-75.5 261,-75.5 261,-56.5 151,-56.5"/>
<text text-anchor="middle" x="206" y="-63.5" font-family="Helvetica,sans-Serif" font-size="10.00">rpmsg_env_specific.h</text>
</g>
<!-- Node1&#45;&gt;Node5 -->
<g id="edge4" class="edge"><title>Node1&#45;&gt;Node5</title>
<path fill="none" stroke="midnightblue" d="M206,-112.083C206,-105.006 206,-94.8611 206,-85.9865"/>
<polygon fill="midnightblue" stroke="midnightblue" points="209.5,-85.751 206,-75.7511 202.5,-85.7511 209.5,-85.751"/>
</g>
<!-- Node6 -->
<g id="node6" class="node"><title>Node6</title>
<polygon fill="white" stroke="#bfbfbf" points="279,-56.5 279,-75.5 349,-75.5 349,-56.5 279,-56.5"/>
<text text-anchor="middle" x="314" y="-63.5" font-family="Helvetica,sans-Serif" font-size="10.00">rpmsg_lite.h</text>
</g>
<!-- Node1&#45;&gt;Node6 -->
<g id="edge5" class="edge"><title>Node1&#45;&gt;Node6</title>
<path fill="none" stroke="midnightblue" d="M223.352,-112.324C240.672,-103.664 267.515,-90.2424 287.502,-80.249"/>
<polygon fill="midnightblue" stroke="midnightblue" points="289.312,-83.2572 296.691,-75.6545 286.181,-76.9962 289.312,-83.2572"/>
</g>
<!-- Node3 -->
<g id="node3" class="node"><title>Node3</title>
<g id="a_node3"><a xlink:href="erpc__config_8h.html" target="_top" xlink:title="erpc_config.h">
<polygon fill="white" stroke="black" points="0,-0.5 0,-19.5 74,-19.5 74,-0.5 0,-0.5"/>
<text text-anchor="middle" x="37" y="-7.5" font-family="Helvetica,sans-Serif" font-size="10.00">erpc_config.h</text>
</a>
</g>
</g>
<!-- Node2&#45;&gt;Node3 -->
<g id="edge2" class="edge"><title>Node2&#45;&gt;Node3</title>
<path fill="none" stroke="midnightblue" d="M70.3948,-56.083C64.7448,-48.4554 56.4552,-37.2645 49.5488,-27.9408"/>
<polygon fill="midnightblue" stroke="midnightblue" points="52.2471,-25.7034 43.4823,-19.7511 46.6221,-29.87 52.2471,-25.7034"/>
</g>
<!-- Node4 -->
<g id="node4" class="node"><title>Node4</title>
<polygon fill="white" stroke="#bfbfbf" points="92.5,-0.5 92.5,-19.5 141.5,-19.5 141.5,-0.5 92.5,-0.5"/>
<text text-anchor="middle" x="117" y="-7.5" font-family="Helvetica,sans-Serif" font-size="10.00">cassert</text>
</g>
<!-- Node2&#45;&gt;Node4 -->
<g id="edge3" class="edge"><title>Node2&#45;&gt;Node4</title>
<path fill="none" stroke="midnightblue" d="M83.6052,-56.083C89.2552,-48.4554 97.5448,-37.2645 104.451,-27.9408"/>
<polygon fill="midnightblue" stroke="midnightblue" points="107.378,-29.87 110.518,-19.7511 101.753,-25.7034 107.378,-29.87"/>
</g>
</g>
</svg>
