<?xml version="1.0" encoding="UTF-8" standalone="no"?>
<!DOCTYPE svg PUBLIC "-//W3C//DTD SVG 1.1//EN"
 "http://www.w3.org/Graphics/SVG/1.1/DTD/svg11.dtd">
<!-- Generated by graphviz version 2.38.0 (20140413.2041)
 -->
<!-- Title: erpc_mbf_setup.h Pages: 1 -->
<svg width="132pt" height="140pt"
 viewBox="0.00 0.00 131.50 140.00" xmlns="http://www.w3.org/2000/svg" xmlns:xlink="http://www.w3.org/1999/xlink">
<g id="graph0" class="graph" transform="scale(1 1) rotate(0) translate(4 136)">
<title>erpc_mbf_setup.h</title>
<polygon fill="white" stroke="none" points="-4,4 -4,-136 127.5,-136 127.5,4 -4,4"/>
<!-- Node1 -->
<g id="node1" class="node"><title>Node1</title>
<polygon fill="#bfbfbf" stroke="black" points="16,-112.5 16,-131.5 110,-131.5 110,-112.5 16,-112.5"/>
<text text-anchor="middle" x="63" y="-119.5" font-family="Helvetica,sans-Serif" font-size="10.00">erpc_mbf_setup.h</text>
</g>
<!-- Node2 -->
<g id="node2" class="node"><title>Node2</title>
<g id="a_node2"><a xlink:href="erpc__transport__setup_8h.html" target="_top" xlink:title="erpc_transport_setup.h">
<polygon fill="white" stroke="black" points="5,-56.5 5,-75.5 121,-75.5 121,-56.5 5,-56.5"/>
<text text-anchor="middle" x="63" y="-63.5" font-family="Helvetica,sans-Serif" font-size="10.00">erpc_transport_setup.h</text>
</a>
</g>
</g>
<!-- Node1&#45;&gt;Node2 -->
<g id="edge1" class="edge"><title>Node1&#45;&gt;Node2</title>
<path fill="none" stroke="midnightblue" d="M63,-112.083C63,-105.006 63,-94.8611 63,-85.9865"/>
<polygon fill="midnightblue" stroke="midnightblue" points="66.5001,-85.751 63,-75.7511 59.5001,-85.7511 66.5001,-85.751"/>
</g>
<!-- Node3 -->
<g id="node3" class="node"><title>Node3</title>
<polygon fill="white" stroke="#bfbfbf" points="0,-0.5 0,-19.5 56,-19.5 56,-0.5 0,-0.5"/>
<text text-anchor="middle" x="28" y="-7.5" font-family="Helvetica,sans-Serif" font-size="10.00">stdbool.h</text>
</g>
<!-- Node2&#45;&gt;Node3 -->
<g id="edge2" class="edge"><title>Node2&#45;&gt;Node3</title>
<path fill="none" stroke="midnightblue" d="M57.2205,-56.083C52.3276,-48.5341 45.1726,-37.4948 39.1674,-28.2298"/>
<polygon fill="midnightblue" stroke="midnightblue" points="42.048,-26.239 33.672,-19.7511 36.174,-30.0463 42.048,-26.239"/>
</g>
<!-- Node4 -->
<g id="node4" class="node"><title>Node4</title>
<polygon fill="white" stroke="#bfbfbf" points="74.5,-0.5 74.5,-19.5 123.5,-19.5 123.5,-0.5 74.5,-0.5"/>
<text text-anchor="middle" x="99" y="-7.5" font-family="Helvetica,sans-Serif" font-size="10.00">stdint.h</text>
</g>
<!-- Node2&#45;&gt;Node4 -->
<g id="edge3" class="edge"><title>Node2&#45;&gt;Node4</title>
<path fill="none" stroke="midnightblue" d="M68.9447,-56.083C73.9773,-48.5341 81.3368,-37.4948 87.5135,-28.2298"/>
<polygon fill="midnightblue" stroke="midnightblue" points="90.5311,-30.0131 93.1659,-19.7511 84.7067,-26.1301 90.5311,-30.0131"/>
</g>
</g>
</svg>
