<?xml version="1.0" encoding="UTF-8" standalone="no"?>
<!DOCTYPE svg PUBLIC "-//W3C//DTD SVG 1.1//EN"
 "http://www.w3.org/Graphics/SVG/1.1/DTD/svg11.dtd">
<!-- Generated by graphviz version 2.38.0 (20140413.2041)
 -->
<!-- Title: erpc_crc16.hpp Pages: 1 -->
<svg width="2881pt" height="341pt"
 viewBox="0.00 0.00 2881.00 341.00" xmlns="http://www.w3.org/2000/svg" xmlns:xlink="http://www.w3.org/1999/xlink">
<g id="graph0" class="graph" transform="scale(1 1) rotate(0) translate(4 337)">
<title>erpc_crc16.hpp</title>
<polygon fill="white" stroke="none" points="-4,4 -4,-337 2877,-337 2877,4 -4,4"/>
<!-- Node1 -->
<g id="node1" class="node"><title>Node1</title>
<polygon fill="#bfbfbf" stroke="black" points="2289.5,-313.5 2289.5,-332.5 2372.5,-332.5 2372.5,-313.5 2289.5,-313.5"/>
<text text-anchor="middle" x="2331" y="-320.5" font-family="Helvetica,sans-Serif" font-size="10.00">erpc_crc16.hpp</text>
</g>
<!-- Node2 -->
<g id="node2" class="node"><title>Node2</title>
<g id="a_node2"><a xlink:href="erpc__transport_8hpp.html" target="_top" xlink:title="erpc_transport.hpp">
<polygon fill="white" stroke="black" points="1870,-257.5 1870,-276.5 1968,-276.5 1968,-257.5 1870,-257.5"/>
<text text-anchor="middle" x="1919" y="-264.5" font-family="Helvetica,sans-Serif" font-size="10.00">erpc_transport.hpp</text>
</a>
</g>
</g>
<!-- Node1&#45;&gt;Node2 -->
<g id="edge1" class="edge"><title>Node1&#45;&gt;Node2</title>
<path fill="none" stroke="midnightblue" d="M2278.89,-315.17C2198.79,-304.671 2046.49,-284.709 1968.19,-274.447"/>
<polygon fill="midnightblue" stroke="midnightblue" points="2278.86,-318.696 2289.23,-316.525 2279.77,-311.755 2278.86,-318.696"/>
</g>
<!-- Node19 -->
<g id="node19" class="node"><title>Node19</title>
<g id="a_node19"><a xlink:href="erpc__rpmsg__tty__rtos__transport_8hpp.html" target="_top" xlink:title="erpc_rpmsg_tty_rtos\l_transport.hpp">
<polygon fill="white" stroke="black" points="2767,-123.5 2767,-153.5 2873,-153.5 2873,-123.5 2767,-123.5"/>
<text text-anchor="start" x="2775" y="-141.5" font-family="Helvetica,sans-Serif" font-size="10.00">erpc_rpmsg_tty_rtos</text>
<text text-anchor="middle" x="2820" y="-130.5" font-family="Helvetica,sans-Serif" font-size="10.00">_transport.hpp</text>
</a>
</g>
</g>
<!-- Node1&#45;&gt;Node19 -->
<g id="edge37" class="edge"><title>Node1&#45;&gt;Node19</title>
<path fill="none" stroke="midnightblue" d="M2363.56,-309.85C2450.74,-277.312 2689.17,-188.326 2782.16,-153.623"/>
<polygon fill="midnightblue" stroke="midnightblue" points="2362.07,-306.667 2353.93,-313.442 2364.52,-313.225 2362.07,-306.667"/>
</g>
<!-- Node32 -->
<g id="node32" class="node"><title>Node32</title>
<g id="a_node32"><a xlink:href="erpc__rpmsg__lite__rtos__transport_8hpp.html" target="_top" xlink:title="erpc_rpmsg_lite_rtos\l_transport.hpp">
<polygon fill="white" stroke="black" points="2204.5,-190.5 2204.5,-220.5 2311.5,-220.5 2311.5,-190.5 2204.5,-190.5"/>
<text text-anchor="start" x="2212.5" y="-208.5" font-family="Helvetica,sans-Serif" font-size="10.00">erpc_rpmsg_lite_rtos</text>
<text text-anchor="middle" x="2258" y="-197.5" font-family="Helvetica,sans-Serif" font-size="10.00">_transport.hpp</text>
</a>
</g>
</g>
<!-- Node1&#45;&gt;Node32 -->
<g id="edge35" class="edge"><title>Node1&#45;&gt;Node32</title>
<path fill="none" stroke="midnightblue" d="M2320.02,-304.63C2305.52,-281.679 2280.24,-241.695 2266.88,-220.545"/>
<polygon fill="midnightblue" stroke="midnightblue" points="2317.21,-306.736 2325.51,-313.319 2323.13,-302.996 2317.21,-306.736"/>
</g>
<!-- Node33 -->
<g id="node33" class="node"><title>Node33</title>
<g id="a_node33"><a xlink:href="erpc__rpmsg__lite__transport_8hpp.html" target="_top" xlink:title="erpc_rpmsg_lite_transport.hpp">
<polygon fill="white" stroke="black" points="2330,-196 2330,-215 2478,-215 2478,-196 2330,-196"/>
<text text-anchor="middle" x="2404" y="-203" font-family="Helvetica,sans-Serif" font-size="10.00">erpc_rpmsg_lite_transport.hpp</text>
</a>
</g>
</g>
<!-- Node1&#45;&gt;Node33 -->
<g id="edge36" class="edge"><title>Node1&#45;&gt;Node33</title>
<path fill="none" stroke="midnightblue" d="M2341.84,-304.844C2357.64,-279.857 2386.39,-234.355 2398.45,-215.282"/>
<polygon fill="midnightblue" stroke="midnightblue" points="2338.87,-302.996 2336.49,-313.319 2344.79,-306.736 2338.87,-302.996"/>
</g>
<!-- Node3 -->
<g id="node3" class="node"><title>Node3</title>
<g id="a_node3"><a xlink:href="erpc__codec_8hpp.html" target="_top" xlink:title="erpc_codec.hpp">
<polygon fill="white" stroke="black" points="543,-196 543,-215 629,-215 629,-196 543,-196"/>
<text text-anchor="middle" x="586" y="-203" font-family="Helvetica,sans-Serif" font-size="10.00">erpc_codec.hpp</text>
</a>
</g>
</g>
<!-- Node2&#45;&gt;Node3 -->
<g id="edge2" class="edge"><title>Node2&#45;&gt;Node3</title>
<path fill="none" stroke="midnightblue" d="M1859.68,-265.19C1642.97,-262.029 894.349,-249.27 657,-221 645.507,-219.631 633.105,-217.373 621.931,-215.043"/>
<polygon fill="midnightblue" stroke="midnightblue" points="1859.85,-268.693 1869.9,-265.338 1859.95,-261.694 1859.85,-268.693"/>
</g>
<!-- Node7 -->
<g id="node7" class="node"><title>Node7</title>
<g id="a_node7"><a xlink:href="erpc__transport__arbitrator_8hpp.html" target="_top" xlink:title="erpc_transport_arbitrator.hpp">
<polygon fill="white" stroke="black" points="513.5,-6 513.5,-25 654.5,-25 654.5,-6 513.5,-6"/>
<text text-anchor="middle" x="584" y="-13" font-family="Helvetica,sans-Serif" font-size="10.00">erpc_transport_arbitrator.hpp</text>
</a>
</g>
</g>
<!-- Node2&#45;&gt;Node7 -->
<g id="edge13" class="edge"><title>Node2&#45;&gt;Node7</title>
<path fill="none" stroke="midnightblue" d="M1859.42,-263.362C1627.58,-252.72 793.329,-210.78 690,-154 661.735,-138.468 606.654,-52.8198 589.341,-25.1345"/>
<polygon fill="midnightblue" stroke="midnightblue" points="1859.53,-266.871 1869.68,-263.831 1859.85,-259.878 1859.53,-266.871"/>
</g>
<!-- Node13 -->
<g id="node13" class="node"><title>Node13</title>
<g id="a_node13"><a xlink:href="erpc__framed__transport_8hpp.html" target="_top" xlink:title="erpc_framed_transport.hpp">
<polygon fill="white" stroke="black" points="1628,-196 1628,-215 1760,-215 1760,-196 1628,-196"/>
<text text-anchor="middle" x="1694" y="-203" font-family="Helvetica,sans-Serif" font-size="10.00">erpc_framed_transport.hpp</text>
</a>
</g>
</g>
<!-- Node2&#45;&gt;Node13 -->
<g id="edge14" class="edge"><title>Node2&#45;&gt;Node13</title>
<path fill="none" stroke="midnightblue" d="M1877.01,-254.896C1833.31,-243.34 1765.83,-225.495 1726.18,-215.009"/>
<polygon fill="midnightblue" stroke="midnightblue" points="1876.2,-258.302 1886.76,-257.475 1877.99,-251.535 1876.2,-258.302"/>
</g>
<!-- Node28 -->
<g id="node28" class="node"><title>Node28</title>
<g id="a_node28"><a xlink:href="erpc__message__loggers_8hpp.html" target="_top" xlink:title="erpc_message_loggers.hpp">
<polygon fill="white" stroke="black" points="1778,-196 1778,-215 1914,-215 1914,-196 1778,-196"/>
<text text-anchor="middle" x="1846" y="-203" font-family="Helvetica,sans-Serif" font-size="10.00">erpc_message_loggers.hpp</text>
</a>
</g>
</g>
<!-- Node2&#45;&gt;Node28 -->
<g id="edge29" class="edge"><title>Node2&#45;&gt;Node28</title>
<path fill="none" stroke="midnightblue" d="M1900.56,-250.973C1886.6,-239.593 1867.92,-224.369 1856.44,-215.009"/>
<polygon fill="midnightblue" stroke="midnightblue" points="1898.58,-253.87 1908.54,-257.475 1903,-248.444 1898.58,-253.87"/>
</g>
<!-- Node29 -->
<g id="node29" class="node"><title>Node29</title>
<g id="a_node29"><a xlink:href="erpc__inter__thread__buffer__transport_8hpp.html" target="_top" xlink:title="erpc_inter_thread_buffer\l_transport.hpp">
<polygon fill="white" stroke="black" points="1932,-190.5 1932,-220.5 2052,-220.5 2052,-190.5 1932,-190.5"/>
<text text-anchor="start" x="1940" y="-208.5" font-family="Helvetica,sans-Serif" font-size="10.00">erpc_inter_thread_buffer</text>
<text text-anchor="middle" x="1992" y="-197.5" font-family="Helvetica,sans-Serif" font-size="10.00">_transport.hpp</text>
</a>
</g>
</g>
<!-- Node2&#45;&gt;Node29 -->
<g id="edge30" class="edge"><title>Node2&#45;&gt;Node29</title>
<path fill="none" stroke="midnightblue" d="M1937.5,-250.921C1948.96,-241.579 1963.58,-229.662 1974.8,-220.523"/>
<polygon fill="midnightblue" stroke="midnightblue" points="1935,-248.444 1929.46,-257.475 1939.42,-253.87 1935,-248.444"/>
</g>
<!-- Node30 -->
<g id="node30" class="node"><title>Node30</title>
<g id="a_node30"><a xlink:href="erpc__mu__transport_8hpp.html" target="_top" xlink:title="erpc_mu_transport.hpp">
<polygon fill="white" stroke="black" points="2070,-196 2070,-215 2186,-215 2186,-196 2070,-196"/>
<text text-anchor="middle" x="2128" y="-203" font-family="Helvetica,sans-Serif" font-size="10.00">erpc_mu_transport.hpp</text>
</a>
</g>
</g>
<!-- Node2&#45;&gt;Node30 -->
<g id="edge31" class="edge"><title>Node2&#45;&gt;Node30</title>
<path fill="none" stroke="midnightblue" d="M1958.78,-254.676C1999.39,-243.114 2061.51,-225.429 2098.11,-215.009"/>
<polygon fill="midnightblue" stroke="midnightblue" points="1957.6,-251.371 1948.94,-257.475 1959.52,-258.103 1957.6,-251.371"/>
</g>
<!-- Node31 -->
<g id="node31" class="node"><title>Node31</title>
<g id="a_node31"><a xlink:href="erpc__rpmsg__linux__transport_8hpp_source.html" target="_top" xlink:title="erpc_rpmsg_linux_transport.hpp">
<polygon fill="white" stroke="black" points="369.5,-196 369.5,-215 524.5,-215 524.5,-196 369.5,-196"/>
<text text-anchor="middle" x="447" y="-203" font-family="Helvetica,sans-Serif" font-size="10.00">erpc_rpmsg_linux_transport.hpp</text>
</a>
</g>
</g>
<!-- Node2&#45;&gt;Node31 -->
<g id="edge32" class="edge"><title>Node2&#45;&gt;Node31</title>
<path fill="none" stroke="midnightblue" d="M1859.75,-265.123C1629.94,-261.559 797.19,-247.092 534,-221 519.981,-219.61 504.802,-217.347 491.108,-215.017"/>
<polygon fill="midnightblue" stroke="midnightblue" points="1859.87,-268.625 1869.92,-265.28 1859.97,-261.626 1859.87,-268.625"/>
</g>
<!-- Node2&#45;&gt;Node32 -->
<g id="edge33" class="edge"><title>Node2&#45;&gt;Node32</title>
<path fill="none" stroke="midnightblue" d="M1978.13,-257.49C2034.15,-249.16 2120.55,-235.621 2195,-221 2198.08,-220.394 2201.25,-219.748 2204.43,-219.076"/>
<polygon fill="midnightblue" stroke="midnightblue" points="1977.41,-254.058 1968.03,-258.984 1978.43,-260.982 1977.41,-254.058"/>
</g>
<!-- Node2&#45;&gt;Node33 -->
<g id="edge34" class="edge"><title>Node2&#45;&gt;Node33</title>
<path fill="none" stroke="midnightblue" d="M1978.36,-260.447C2056.75,-252.86 2199.03,-238.213 2320,-221 2332.16,-219.27 2345.27,-217.137 2357.42,-215.045"/>
<polygon fill="midnightblue" stroke="midnightblue" points="1977.81,-256.983 1968.19,-261.426 1978.48,-263.951 1977.81,-256.983"/>
</g>
<!-- Node4 -->
<g id="node4" class="node"><title>Node4</title>
<g id="a_node4"><a xlink:href="erpc__client__server__common_8hpp.html" target="_top" xlink:title="erpc_client_server\l_common.hpp">
<polygon fill="white" stroke="black" points="377.5,-123.5 377.5,-153.5 472.5,-153.5 472.5,-123.5 377.5,-123.5"/>
<text text-anchor="start" x="385.5" y="-141.5" font-family="Helvetica,sans-Serif" font-size="10.00">erpc_client_server</text>
<text text-anchor="middle" x="425" y="-130.5" font-family="Helvetica,sans-Serif" font-size="10.00">_common.hpp</text>
</a>
</g>
</g>
<!-- Node3&#45;&gt;Node4 -->
<g id="edge3" class="edge"><title>Node3&#45;&gt;Node4</title>
<path fill="none" stroke="midnightblue" d="M555.182,-192.058C527.909,-181.047 488.142,-164.992 459.746,-153.528"/>
<polygon fill="midnightblue" stroke="midnightblue" points="554.037,-195.37 564.62,-195.869 556.658,-188.879 554.037,-195.37"/>
</g>
<!-- Node3&#45;&gt;Node7 -->
<g id="edge11" class="edge"><title>Node3&#45;&gt;Node7</title>
<path fill="none" stroke="midnightblue" d="M557.728,-190.833C543.623,-182.363 527.915,-170.023 520,-154 496.21,-105.841 550.976,-47.1216 574.206,-25.2538"/>
<polygon fill="midnightblue" stroke="midnightblue" points="556.233,-194.007 566.669,-195.84 559.654,-187.9 556.233,-194.007"/>
</g>
<!-- Node12 -->
<g id="node12" class="node"><title>Node12</title>
<g id="a_node12"><a xlink:href="erpc__basic__codec_8hpp.html" target="_top" xlink:title="erpc_basic_codec.hpp">
<polygon fill="white" stroke="black" points="529,-129 529,-148 643,-148 643,-129 529,-129"/>
<text text-anchor="middle" x="586" y="-136" font-family="Helvetica,sans-Serif" font-size="10.00">erpc_basic_codec.hpp</text>
</a>
</g>
</g>
<!-- Node3&#45;&gt;Node12 -->
<g id="edge12" class="edge"><title>Node3&#45;&gt;Node12</title>
<path fill="none" stroke="midnightblue" d="M586,-185.537C586,-173.17 586,-157.62 586,-148.127"/>
<polygon fill="midnightblue" stroke="midnightblue" points="582.5,-185.734 586,-195.734 589.5,-185.734 582.5,-185.734"/>
</g>
<!-- Node5 -->
<g id="node5" class="node"><title>Node5</title>
<g id="a_node5"><a xlink:href="erpc__client__manager_8h.html" target="_top" xlink:title="erpc_client_manager.h">
<polygon fill="white" stroke="black" points="245.5,-67.5 245.5,-86.5 360.5,-86.5 360.5,-67.5 245.5,-67.5"/>
<text text-anchor="middle" x="303" y="-74.5" font-family="Helvetica,sans-Serif" font-size="10.00">erpc_client_manager.h</text>
</a>
</g>
</g>
<!-- Node4&#45;&gt;Node5 -->
<g id="edge4" class="edge"><title>Node4&#45;&gt;Node5</title>
<path fill="none" stroke="midnightblue" d="M386.944,-118.94C364.84,-108.159 338.03,-95.0843 320.752,-86.6578"/>
<polygon fill="midnightblue" stroke="midnightblue" points="385.565,-122.162 396.088,-123.399 388.634,-115.87 385.565,-122.162"/>
</g>
<!-- Node10 -->
<g id="node10" class="node"><title>Node10</title>
<g id="a_node10"><a xlink:href="erpc__server_8hpp.html" target="_top" xlink:title="erpc_server.hpp">
<polygon fill="white" stroke="black" points="385.5,-67.5 385.5,-86.5 470.5,-86.5 470.5,-67.5 385.5,-67.5"/>
<text text-anchor="middle" x="428" y="-74.5" font-family="Helvetica,sans-Serif" font-size="10.00">erpc_server.hpp</text>
</a>
</g>
</g>
<!-- Node4&#45;&gt;Node10 -->
<g id="edge9" class="edge"><title>Node4&#45;&gt;Node10</title>
<path fill="none" stroke="midnightblue" d="M426.221,-113.289C426.696,-103.857 427.211,-93.6548 427.563,-86.6578"/>
<polygon fill="midnightblue" stroke="midnightblue" points="422.719,-113.236 425.711,-123.399 429.71,-113.588 422.719,-113.236"/>
</g>
<!-- Node6 -->
<g id="node6" class="node"><title>Node6</title>
<g id="a_node6"><a xlink:href="erpc__arbitrated__client__manager_8hpp.html" target="_top" xlink:title="erpc_arbitrated_client\l_manager.hpp">
<polygon fill="white" stroke="black" points="248,-0.5 248,-30.5 358,-30.5 358,-0.5 248,-0.5"/>
<text text-anchor="start" x="256" y="-18.5" font-family="Helvetica,sans-Serif" font-size="10.00">erpc_arbitrated_client</text>
<text text-anchor="middle" x="303" y="-7.5" font-family="Helvetica,sans-Serif" font-size="10.00">_manager.hpp</text>
</a>
</g>
</g>
<!-- Node5&#45;&gt;Node6 -->
<g id="edge5" class="edge"><title>Node5&#45;&gt;Node6</title>
<path fill="none" stroke="midnightblue" d="M303,-57.2349C303,-48.5864 303,-38.4969 303,-30.523"/>
<polygon fill="midnightblue" stroke="midnightblue" points="299.5,-57.4751 303,-67.4751 306.5,-57.4751 299.5,-57.4751"/>
</g>
<!-- Node5&#45;&gt;Node7 -->
<g id="edge6" class="edge"><title>Node5&#45;&gt;Node7</title>
<path fill="none" stroke="midnightblue" d="M353.05,-65.4023C407.527,-53.8671 493.562,-35.6498 543.814,-25.0091"/>
<polygon fill="midnightblue" stroke="midnightblue" points="352.318,-61.9794 343.26,-67.4751 353.769,-68.8276 352.318,-61.9794"/>
</g>
<!-- Node8 -->
<g id="node8" class="node"><title>Node8</title>
<g id="a_node8"><a xlink:href="erpc__arbitrated__client__setup_8h.html" target="_top" xlink:title="erpc_arbitrated_client\l_setup.h">
<polygon fill="white" stroke="black" points="0,-0.5 0,-30.5 110,-30.5 110,-0.5 0,-0.5"/>
<text text-anchor="start" x="8" y="-18.5" font-family="Helvetica,sans-Serif" font-size="10.00">erpc_arbitrated_client</text>
<text text-anchor="middle" x="55" y="-7.5" font-family="Helvetica,sans-Serif" font-size="10.00">_setup.h</text>
</a>
</g>
</g>
<!-- Node5&#45;&gt;Node8 -->
<g id="edge7" class="edge"><title>Node5&#45;&gt;Node8</title>
<path fill="none" stroke="midnightblue" d="M257.621,-65.1127C216.078,-55.1456 154.495,-40.3707 110.133,-29.7275"/>
<polygon fill="midnightblue" stroke="midnightblue" points="256.927,-68.5455 267.468,-67.4751 258.56,-61.7386 256.927,-68.5455"/>
</g>
<!-- Node9 -->
<g id="node9" class="node"><title>Node9</title>
<g id="a_node9"><a xlink:href="erpc__client__setup_8h.html" target="_top" xlink:title="erpc_client_setup.h">
<polygon fill="white" stroke="black" points="128.5,-6 128.5,-25 229.5,-25 229.5,-6 128.5,-6"/>
<text text-anchor="middle" x="179" y="-13" font-family="Helvetica,sans-Serif" font-size="10.00">erpc_client_setup.h</text>
</a>
</g>
</g>
<!-- Node5&#45;&gt;Node9 -->
<g id="edge8" class="edge"><title>Node5&#45;&gt;Node9</title>
<path fill="none" stroke="midnightblue" d="M275.951,-63.0207C251.903,-51.4816 217.437,-34.9433 196.733,-25.0091"/>
<polygon fill="midnightblue" stroke="midnightblue" points="274.704,-66.3044 285.234,-67.4751 277.732,-59.9934 274.704,-66.3044"/>
</g>
<!-- Node11 -->
<g id="node11" class="node"><title>Node11</title>
<g id="a_node11"><a xlink:href="erpc__simple__server_8hpp.html" target="_top" xlink:title="erpc_simple_server.hpp">
<polygon fill="white" stroke="black" points="376.5,-6 376.5,-25 495.5,-25 495.5,-6 376.5,-6"/>
<text text-anchor="middle" x="436" y="-13" font-family="Helvetica,sans-Serif" font-size="10.00">erpc_simple_server.hpp</text>
</a>
</g>
</g>
<!-- Node10&#45;&gt;Node11 -->
<g id="edge10" class="edge"><title>Node10&#45;&gt;Node11</title>
<path fill="none" stroke="midnightblue" d="M430.512,-57.3165C431.967,-46.4962 433.728,-33.398 434.856,-25.0091"/>
<polygon fill="midnightblue" stroke="midnightblue" points="427.01,-57.0979 429.146,-67.4751 433.948,-58.0307 427.01,-57.0979"/>
</g>
<!-- Node14 -->
<g id="node14" class="node"><title>Node14</title>
<g id="a_node14"><a xlink:href="erpc__dspi__master__transport_8hpp.html" target="_top" xlink:title="erpc_dspi_master_transport.hpp">
<polygon fill="white" stroke="black" points="1199,-129 1199,-148 1355,-148 1355,-129 1199,-129"/>
<text text-anchor="middle" x="1277" y="-136" font-family="Helvetica,sans-Serif" font-size="10.00">erpc_dspi_master_transport.hpp</text>
</a>
</g>
</g>
<!-- Node13&#45;&gt;Node14 -->
<g id="edge15" class="edge"><title>Node13&#45;&gt;Node14</title>
<path fill="none" stroke="midnightblue" d="M1626.77,-194.479C1560.06,-184.472 1454.91,-168.531 1364,-154 1352.21,-152.115 1339.52,-150.032 1327.59,-148.048"/>
<polygon fill="midnightblue" stroke="midnightblue" points="1626.32,-197.952 1636.73,-195.972 1627.36,-191.029 1626.32,-197.952"/>
</g>
<!-- Node15 -->
<g id="node15" class="node"><title>Node15</title>
<g id="a_node15"><a xlink:href="erpc__dspi__slave__transport_8hpp.html" target="_top" xlink:title="erpc_dspi_slave_transport.hpp">
<polygon fill="white" stroke="black" points="1373,-129 1373,-148 1521,-148 1521,-129 1373,-129"/>
<text text-anchor="middle" x="1447" y="-136" font-family="Helvetica,sans-Serif" font-size="10.00">erpc_dspi_slave_transport.hpp</text>
</a>
</g>
</g>
<!-- Node13&#45;&gt;Node15 -->
<g id="edge16" class="edge"><title>Node13&#45;&gt;Node15</title>
<path fill="none" stroke="midnightblue" d="M1651.53,-193.323C1602.76,-180.489 1523.8,-159.712 1479.62,-148.083"/>
<polygon fill="midnightblue" stroke="midnightblue" points="1650.89,-196.775 1661.46,-195.936 1652.68,-190.006 1650.89,-196.775"/>
</g>
<!-- Node16 -->
<g id="node16" class="node"><title>Node16</title>
<g id="a_node16"><a xlink:href="erpc__i2c__slave__transport_8hpp.html" target="_top" xlink:title="erpc_i2c_slave_transport.hpp">
<polygon fill="white" stroke="black" points="1539.5,-129 1539.5,-148 1682.5,-148 1682.5,-129 1539.5,-129"/>
<text text-anchor="middle" x="1611" y="-136" font-family="Helvetica,sans-Serif" font-size="10.00">erpc_i2c_slave_transport.hpp</text>
</a>
</g>
</g>
<!-- Node13&#45;&gt;Node16 -->
<g id="edge17" class="edge"><title>Node13&#45;&gt;Node16</title>
<path fill="none" stroke="midnightblue" d="M1674.93,-189.568C1658.55,-176.738 1635.5,-158.685 1622.02,-148.127"/>
<polygon fill="midnightblue" stroke="midnightblue" points="1672.78,-192.324 1682.81,-195.734 1677.09,-186.813 1672.78,-192.324"/>
</g>
<!-- Node17 -->
<g id="node17" class="node"><title>Node17</title>
<g id="a_node17"><a xlink:href="erpc__lpi2c__slave__transport_8hpp.html" target="_top" xlink:title="erpc_lpi2c_slave_transport.hpp">
<polygon fill="white" stroke="black" points="1701,-129 1701,-148 1851,-148 1851,-129 1701,-129"/>
<text text-anchor="middle" x="1776" y="-136" font-family="Helvetica,sans-Serif" font-size="10.00">erpc_lpi2c_slave_transport.hpp</text>
</a>
</g>
</g>
<!-- Node13&#45;&gt;Node17 -->
<g id="edge18" class="edge"><title>Node13&#45;&gt;Node17</title>
<path fill="none" stroke="midnightblue" d="M1713.28,-189.213C1729.44,-176.407 1751.92,-158.588 1765.12,-148.127"/>
<polygon fill="midnightblue" stroke="midnightblue" points="1710.72,-186.779 1705.06,-195.734 1715.07,-192.265 1710.72,-186.779"/>
</g>
<!-- Node18 -->
<g id="node18" class="node"><title>Node18</title>
<g id="a_node18"><a xlink:href="erpc__lpspi__slave__transport_8hpp.html" target="_top" xlink:title="erpc_lpspi_slave_transport.hpp">
<polygon fill="white" stroke="black" points="1869,-129 1869,-148 2019,-148 2019,-129 1869,-129"/>
<text text-anchor="middle" x="1944" y="-136" font-family="Helvetica,sans-Serif" font-size="10.00">erpc_lpspi_slave_transport.hpp</text>
</a>
</g>
</g>
<!-- Node13&#45;&gt;Node18 -->
<g id="edge19" class="edge"><title>Node13&#45;&gt;Node18</title>
<path fill="none" stroke="midnightblue" d="M1736.68,-193.404C1786.02,-180.576 1866.17,-159.736 1910.99,-148.083"/>
<polygon fill="midnightblue" stroke="midnightblue" points="1735.74,-190.032 1726.94,-195.936 1737.5,-196.807 1735.74,-190.032"/>
</g>
<!-- Node13&#45;&gt;Node19 -->
<g id="edge20" class="edge"><title>Node13&#45;&gt;Node19</title>
<path fill="none" stroke="midnightblue" d="M1741.9,-194.097C1750.87,-192.475 1760.19,-191.006 1769,-190 2206.01,-140.106 2322.04,-212.355 2758,-154 2760.85,-153.619 2763.76,-153.165 2766.69,-152.658"/>
<polygon fill="midnightblue" stroke="midnightblue" points="1741.15,-190.677 1731.98,-195.976 1742.45,-197.554 1741.15,-190.677"/>
</g>
<!-- Node20 -->
<g id="node20" class="node"><title>Node20</title>
<g id="a_node20"><a xlink:href="erpc__serial__transport_8hpp.html" target="_top" xlink:title="erpc_serial_transport.hpp">
<polygon fill="white" stroke="black" points="2037,-129 2037,-148 2163,-148 2163,-129 2037,-129"/>
<text text-anchor="middle" x="2100" y="-136" font-family="Helvetica,sans-Serif" font-size="10.00">erpc_serial_transport.hpp</text>
</a>
</g>
</g>
<!-- Node13&#45;&gt;Node20 -->
<g id="edge21" class="edge"><title>Node13&#45;&gt;Node20</title>
<path fill="none" stroke="midnightblue" d="M1745.98,-194.082C1753.68,-192.645 1761.54,-191.239 1769,-190 1883.65,-170.963 1913.43,-173.481 2028,-154 2038.31,-152.247 2049.4,-150.13 2059.72,-148.061"/>
<polygon fill="midnightblue" stroke="midnightblue" points="1745.15,-190.677 1735.98,-195.979 1746.45,-197.554 1745.15,-190.677"/>
</g>
<!-- Node21 -->
<g id="node21" class="node"><title>Node21</title>
<g id="a_node21"><a xlink:href="erpc__spi__master__transport_8hpp.html" target="_top" xlink:title="erpc_spi_master_transport.hpp">
<polygon fill="white" stroke="black" points="2181.5,-129 2181.5,-148 2332.5,-148 2332.5,-129 2181.5,-129"/>
<text text-anchor="middle" x="2257" y="-136" font-family="Helvetica,sans-Serif" font-size="10.00">erpc_spi_master_transport.hpp</text>
</a>
</g>
</g>
<!-- Node13&#45;&gt;Node21 -->
<g id="edge22" class="edge"><title>Node13&#45;&gt;Node21</title>
<path fill="none" stroke="midnightblue" d="M1743.97,-194.106C1752.3,-192.583 1760.88,-191.145 1769,-190 1947.06,-164.9 1993.67,-177.138 2172,-154 2184.62,-152.363 2198.23,-150.214 2210.78,-148.074"/>
<polygon fill="midnightblue" stroke="midnightblue" points="1743.14,-190.699 1733.96,-195.991 1744.44,-197.578 1743.14,-190.699"/>
</g>
<!-- Node22 -->
<g id="node22" class="node"><title>Node22</title>
<g id="a_node22"><a xlink:href="erpc__spi__slave__transport_8hpp.html" target="_top" xlink:title="erpc_spi_slave_transport.hpp">
<polygon fill="white" stroke="black" points="2350.5,-129 2350.5,-148 2493.5,-148 2493.5,-129 2350.5,-129"/>
<text text-anchor="middle" x="2422" y="-136" font-family="Helvetica,sans-Serif" font-size="10.00">erpc_spi_slave_transport.hpp</text>
</a>
</g>
</g>
<!-- Node13&#45;&gt;Node22 -->
<g id="edge23" class="edge"><title>Node13&#45;&gt;Node22</title>
<path fill="none" stroke="midnightblue" d="M1743.09,-194.076C1751.69,-192.516 1760.58,-191.074 1769,-190 2021.68,-157.758 2088.11,-184.492 2341,-154 2353.62,-152.478 2367.26,-150.262 2379.68,-148.018"/>
<polygon fill="midnightblue" stroke="midnightblue" points="1742.34,-190.655 1733.16,-195.946 1743.64,-197.534 1742.34,-190.655"/>
</g>
<!-- Node23 -->
<g id="node23" class="node"><title>Node23</title>
<g id="a_node23"><a xlink:href="erpc__spidev__master__transport_8hpp.html" target="_top" xlink:title="erpc_spidev_master\l_transport.hpp">
<polygon fill="white" stroke="black" points="2511.5,-123.5 2511.5,-153.5 2614.5,-153.5 2614.5,-123.5 2511.5,-123.5"/>
<text text-anchor="start" x="2519.5" y="-141.5" font-family="Helvetica,sans-Serif" font-size="10.00">erpc_spidev_master</text>
<text text-anchor="middle" x="2563" y="-130.5" font-family="Helvetica,sans-Serif" font-size="10.00">_transport.hpp</text>
</a>
</g>
</g>
<!-- Node13&#45;&gt;Node23 -->
<g id="edge24" class="edge"><title>Node13&#45;&gt;Node23</title>
<path fill="none" stroke="midnightblue" d="M1742.21,-194.134C1751.08,-192.524 1760.29,-191.05 1769,-190 2093.27,-150.903 2179.72,-200.567 2503,-154 2505.76,-153.603 2508.57,-153.137 2511.41,-152.62"/>
<polygon fill="midnightblue" stroke="midnightblue" points="1741.55,-190.697 1732.37,-195.994 1742.85,-197.575 1741.55,-190.697"/>
</g>
<!-- Node24 -->
<g id="node24" class="node"><title>Node24</title>
<g id="a_node24"><a xlink:href="erpc__tcp__transport_8hpp.html" target="_top" xlink:title="erpc_tcp_transport.hpp">
<polygon fill="white" stroke="black" points="2633,-129 2633,-148 2749,-148 2749,-129 2633,-129"/>
<text text-anchor="middle" x="2691" y="-136" font-family="Helvetica,sans-Serif" font-size="10.00">erpc_tcp_transport.hpp</text>
</a>
</g>
</g>
<!-- Node13&#45;&gt;Node24 -->
<g id="edge25" class="edge"><title>Node13&#45;&gt;Node24</title>
<path fill="none" stroke="midnightblue" d="M1742.2,-194.085C1751.08,-192.48 1760.29,-191.019 1769,-190 2146.76,-145.78 2246.76,-202.402 2624,-154 2634.86,-152.607 2646.57,-150.342 2657.11,-148.012"/>
<polygon fill="midnightblue" stroke="midnightblue" points="1741.54,-190.647 1732.37,-195.943 1742.84,-197.525 1741.54,-190.647"/>
</g>
<!-- Node25 -->
<g id="node25" class="node"><title>Node25</title>
<g id="a_node25"><a xlink:href="erpc__uart__cmsis__transport_8hpp.html" target="_top" xlink:title="erpc_uart_cmsis_transport.hpp">
<polygon fill="white" stroke="black" points="699.5,-129 699.5,-148 850.5,-148 850.5,-129 699.5,-129"/>
<text text-anchor="middle" x="775" y="-136" font-family="Helvetica,sans-Serif" font-size="10.00">erpc_uart_cmsis_transport.hpp</text>
</a>
</g>
</g>
<!-- Node13&#45;&gt;Node25 -->
<g id="edge26" class="edge"><title>Node13&#45;&gt;Node25</title>
<path fill="none" stroke="midnightblue" d="M1617.57,-202.644C1470.47,-198.459 1137.93,-186.025 860,-154 846.764,-152.475 832.458,-150.258 819.425,-148.014"/>
<polygon fill="midnightblue" stroke="midnightblue" points="1617.74,-206.15 1627.84,-202.931 1617.94,-199.153 1617.74,-206.15"/>
</g>
<!-- Node26 -->
<g id="node26" class="node"><title>Node26</title>
<g id="a_node26"><a xlink:href="erpc__uart__zephyr__transport_8hpp.html" target="_top" xlink:title="erpc_uart_zephyr_transport.hpp">
<polygon fill="white" stroke="black" points="869,-129 869,-148 1023,-148 1023,-129 869,-129"/>
<text text-anchor="middle" x="946" y="-136" font-family="Helvetica,sans-Serif" font-size="10.00">erpc_uart_zephyr_transport.hpp</text>
</a>
</g>
</g>
<!-- Node13&#45;&gt;Node26 -->
<g id="edge27" class="edge"><title>Node13&#45;&gt;Node26</title>
<path fill="none" stroke="midnightblue" d="M1617.45,-200.925C1493.93,-194.648 1243.16,-179.802 1032,-154 1018.92,-152.402 1004.8,-150.216 991.858,-148.025"/>
<polygon fill="midnightblue" stroke="midnightblue" points="1617.4,-204.427 1627.56,-201.434 1617.75,-197.435 1617.4,-204.427"/>
</g>
<!-- Node27 -->
<g id="node27" class="node"><title>Node27</title>
<g id="a_node27"><a xlink:href="erpc__usb__cdc__transport_8hpp.html" target="_top" xlink:title="erpc_usb_cdc_transport.hpp">
<polygon fill="white" stroke="black" points="1041,-129 1041,-148 1181,-148 1181,-129 1041,-129"/>
<text text-anchor="middle" x="1111" y="-136" font-family="Helvetica,sans-Serif" font-size="10.00">erpc_usb_cdc_transport.hpp</text>
</a>
</g>
</g>
<!-- Node13&#45;&gt;Node27 -->
<g id="edge28" class="edge"><title>Node13&#45;&gt;Node27</title>
<path fill="none" stroke="midnightblue" d="M1617.54,-198.794C1518.59,-190.962 1340.95,-175.379 1190,-154 1178.26,-152.338 1165.61,-150.181 1153.95,-148.041"/>
<polygon fill="midnightblue" stroke="midnightblue" points="1617.5,-202.302 1627.75,-199.596 1618.05,-195.323 1617.5,-202.302"/>
</g>
</g>
</svg>
