<?xml version="1.0" encoding="UTF-8" standalone="no"?>
<!DOCTYPE svg PUBLIC "-//W3C//DTD SVG 1.1//EN"
 "http://www.w3.org/Graphics/SVG/1.1/DTD/svg11.dtd">
<!-- Generated by graphviz version 2.38.0 (20140413.2041)
 -->
<!-- Title: erpc_threading.h Pages: 1 -->
<svg width="2183pt" height="162pt"
 viewBox="0.00 0.00 2183.00 162.00" xmlns="http://www.w3.org/2000/svg" xmlns:xlink="http://www.w3.org/1999/xlink">
<g id="graph0" class="graph" transform="scale(1 1) rotate(0) translate(4 158)">
<title>erpc_threading.h</title>
<polygon fill="white" stroke="none" points="-4,4 -4,-158 2179,-158 2179,4 -4,4"/>
<!-- Node1 -->
<g id="node1" class="node"><title>Node1</title>
<polygon fill="#bfbfbf" stroke="black" points="1226.5,-134.5 1226.5,-153.5 1315.5,-153.5 1315.5,-134.5 1226.5,-134.5"/>
<text text-anchor="middle" x="1271" y="-141.5" font-family="Helvetica,sans-Serif" font-size="10.00">erpc_threading.h</text>
</g>
<!-- Node2 -->
<g id="node2" class="node"><title>Node2</title>
<g id="a_node2"><a xlink:href="erpc__transport__arbitrator_8hpp.html" target="_top" xlink:title="erpc_transport_arbitrator.hpp">
<polygon fill="white" stroke="black" points="799.5,-73 799.5,-92 940.5,-92 940.5,-73 799.5,-73"/>
<text text-anchor="middle" x="870" y="-80" font-family="Helvetica,sans-Serif" font-size="10.00">erpc_transport_arbitrator.hpp</text>
</a>
</g>
</g>
<!-- Node1&#45;&gt;Node2 -->
<g id="edge1" class="edge"><title>Node1&#45;&gt;Node2</title>
<path fill="none" stroke="midnightblue" d="M1216.35,-135.682C1153.29,-127.131 1046.54,-112.322 955,-98 943.168,-96.1487 930.43,-94.0384 918.508,-92.0118"/>
<polygon fill="midnightblue" stroke="midnightblue" points="1216.08,-139.178 1226.46,-137.05 1217.02,-132.241 1216.08,-139.178"/>
</g>
<!-- Node3 -->
<g id="node3" class="node"><title>Node3</title>
<g id="a_node3"><a xlink:href="erpc__framed__transport_8hpp.html" target="_top" xlink:title="erpc_framed_transport.hpp">
<polygon fill="white" stroke="black" points="1111,-73 1111,-92 1243,-92 1243,-73 1111,-73"/>
<text text-anchor="middle" x="1177" y="-80" font-family="Helvetica,sans-Serif" font-size="10.00">erpc_framed_transport.hpp</text>
</a>
</g>
</g>
<!-- Node1&#45;&gt;Node3 -->
<g id="edge2" class="edge"><title>Node1&#45;&gt;Node3</title>
<path fill="none" stroke="midnightblue" d="M1248.77,-128.93C1230.65,-117.459 1205.65,-101.634 1190.44,-92.0091"/>
<polygon fill="midnightblue" stroke="midnightblue" points="1247.21,-132.084 1257.53,-134.475 1250.95,-126.169 1247.21,-132.084"/>
</g>
<!-- Node5 -->
<g id="node5" class="node"><title>Node5</title>
<g id="a_node5"><a xlink:href="erpc__dspi__slave__transport_8hpp.html" target="_top" xlink:title="erpc_dspi_slave_transport.hpp">
<polygon fill="white" stroke="black" points="0,-6 0,-25 148,-25 148,-6 0,-6"/>
<text text-anchor="middle" x="74" y="-13" font-family="Helvetica,sans-Serif" font-size="10.00">erpc_dspi_slave_transport.hpp</text>
</a>
</g>
</g>
<!-- Node1&#45;&gt;Node5 -->
<g id="edge17" class="edge"><title>Node1&#45;&gt;Node5</title>
<path fill="none" stroke="midnightblue" d="M1216.45,-143.675C1156.4,-142.381 1058.38,-134.147 983,-98 964.561,-89.158 967.895,-74.819 949,-67 867.603,-33.3175 244.566,-40.5994 157,-31 143.913,-29.5654 129.77,-27.3473 116.93,-25.074"/>
<polygon fill="midnightblue" stroke="midnightblue" points="1216.43,-147.175 1226.48,-143.834 1216.54,-140.176 1216.43,-147.175"/>
</g>
<!-- Node6 -->
<g id="node6" class="node"><title>Node6</title>
<g id="a_node6"><a xlink:href="erpc__i2c__slave__transport_8hpp.html" target="_top" xlink:title="erpc_i2c_slave_transport.hpp">
<polygon fill="white" stroke="black" points="166.5,-6 166.5,-25 309.5,-25 309.5,-6 166.5,-6"/>
<text text-anchor="middle" x="238" y="-13" font-family="Helvetica,sans-Serif" font-size="10.00">erpc_i2c_slave_transport.hpp</text>
</a>
</g>
</g>
<!-- Node1&#45;&gt;Node6 -->
<g id="edge18" class="edge"><title>Node1&#45;&gt;Node6</title>
<path fill="none" stroke="midnightblue" d="M1216.01,-141.001C1163.71,-137.311 1083.91,-126.944 1021,-98 1001.2,-88.8903 1003.33,-74.8661 983,-67 845.187,-13.6695 465.785,-48.0518 319,-31 306.228,-29.5164 292.426,-27.2837 279.895,-25.0122"/>
<polygon fill="midnightblue" stroke="midnightblue" points="1215.88,-144.5 1226.08,-141.654 1216.33,-137.515 1215.88,-144.5"/>
</g>
<!-- Node7 -->
<g id="node7" class="node"><title>Node7</title>
<g id="a_node7"><a xlink:href="erpc__lpi2c__slave__transport_8hpp.html" target="_top" xlink:title="erpc_lpi2c_slave_transport.hpp">
<polygon fill="white" stroke="black" points="328,-6 328,-25 478,-25 478,-6 328,-6"/>
<text text-anchor="middle" x="403" y="-13" font-family="Helvetica,sans-Serif" font-size="10.00">erpc_lpi2c_slave_transport.hpp</text>
</a>
</g>
</g>
<!-- Node1&#45;&gt;Node7 -->
<g id="edge20" class="edge"><title>Node1&#45;&gt;Node7</title>
<path fill="none" stroke="midnightblue" d="M1216.43,-138.573C1172.21,-133.335 1109.21,-122.053 1059,-98 1039.34,-88.5838 1041.27,-74.9996 1021,-67 910.364,-23.348 605.093,-45.1347 487,-31 474.069,-29.4523 460.102,-27.2553 447.34,-25.0382"/>
<polygon fill="midnightblue" stroke="midnightblue" points="1216.08,-142.055 1226.41,-139.69 1216.86,-135.099 1216.08,-142.055"/>
</g>
<!-- Node8 -->
<g id="node8" class="node"><title>Node8</title>
<g id="a_node8"><a xlink:href="erpc__lpspi__slave__transport_8hpp.html" target="_top" xlink:title="erpc_lpspi_slave_transport.hpp">
<polygon fill="white" stroke="black" points="496,-6 496,-25 646,-25 646,-6 496,-6"/>
<text text-anchor="middle" x="571" y="-13" font-family="Helvetica,sans-Serif" font-size="10.00">erpc_lpspi_slave_transport.hpp</text>
</a>
</g>
</g>
<!-- Node1&#45;&gt;Node8 -->
<g id="edge21" class="edge"><title>Node1&#45;&gt;Node8</title>
<path fill="none" stroke="midnightblue" d="M1216.19,-133.682C1182.23,-126.641 1138.31,-115.2 1102,-98 1080.71,-87.9131 1081.08,-75.2279 1059,-67 890.083,-4.04441 833.748,-54.3517 655,-31 642.38,-29.3513 628.759,-27.174 616.235,-25.0092"/>
<polygon fill="midnightblue" stroke="midnightblue" points="1215.9,-137.193 1226.4,-135.727 1217.28,-130.33 1215.9,-137.193"/>
</g>
<!-- Node12 -->
<g id="node12" class="node"><title>Node12</title>
<g id="a_node12"><a xlink:href="erpc__spi__slave__transport_8hpp.html" target="_top" xlink:title="erpc_spi_slave_transport.hpp">
<polygon fill="white" stroke="black" points="1397.5,-6 1397.5,-25 1540.5,-25 1540.5,-6 1397.5,-6"/>
<text text-anchor="middle" x="1469" y="-13" font-family="Helvetica,sans-Serif" font-size="10.00">erpc_spi_slave_transport.hpp</text>
</a>
</g>
</g>
<!-- Node1&#45;&gt;Node12 -->
<g id="edge23" class="edge"><title>Node1&#45;&gt;Node12</title>
<path fill="none" stroke="midnightblue" d="M1272.09,-123.906C1274.08,-106.746 1279.64,-82.0048 1295,-67 1313,-49.4159 1376.47,-34.0854 1421.54,-25.0602"/>
<polygon fill="midnightblue" stroke="midnightblue" points="1268.56,-124.101 1271.2,-134.361 1275.53,-124.693 1268.56,-124.101"/>
</g>
<!-- Node14 -->
<g id="node14" class="node"><title>Node14</title>
<g id="a_node14"><a xlink:href="erpc__tcp__transport_8hpp.html" target="_top" xlink:title="erpc_tcp_transport.hpp">
<polygon fill="white" stroke="black" points="1559,-6 1559,-25 1675,-25 1675,-6 1559,-6"/>
<text text-anchor="middle" x="1617" y="-13" font-family="Helvetica,sans-Serif" font-size="10.00">erpc_tcp_transport.hpp</text>
</a>
</g>
</g>
<!-- Node1&#45;&gt;Node14 -->
<g id="edge24" class="edge"><title>Node1&#45;&gt;Node14</title>
<path fill="none" stroke="midnightblue" d="M1280.29,-125.381C1290.65,-107.596 1309.14,-80.837 1333,-67 1417.57,-17.9619 1453.97,-49.3449 1550,-31 1559.47,-29.1911 1569.65,-27.0752 1579.15,-25.0278"/>
<polygon fill="midnightblue" stroke="midnightblue" points="1277.18,-123.759 1275.38,-134.2 1283.3,-127.16 1277.18,-123.759"/>
</g>
<!-- Node15 -->
<g id="node15" class="node"><title>Node15</title>
<g id="a_node15"><a xlink:href="erpc__uart__cmsis__transport_8hpp.html" target="_top" xlink:title="erpc_uart_cmsis_transport.hpp">
<polygon fill="white" stroke="black" points="1693.5,-6 1693.5,-25 1844.5,-25 1844.5,-6 1693.5,-6"/>
<text text-anchor="middle" x="1769" y="-13" font-family="Helvetica,sans-Serif" font-size="10.00">erpc_uart_cmsis_transport.hpp</text>
</a>
</g>
</g>
<!-- Node1&#45;&gt;Node15 -->
<g id="edge25" class="edge"><title>Node1&#45;&gt;Node15</title>
<path fill="none" stroke="midnightblue" d="M1290.76,-128.302C1302.49,-119.547 1317.63,-108.191 1331,-98 1348.89,-84.3632 1350.17,-75.4868 1371,-67 1500.68,-14.1632 1545.38,-50.7808 1684,-31 1696.3,-29.2448 1709.56,-27.1035 1721.86,-25.011"/>
<polygon fill="midnightblue" stroke="midnightblue" points="1288.47,-125.645 1282.54,-134.427 1292.65,-131.257 1288.47,-125.645"/>
</g>
<!-- Node16 -->
<g id="node16" class="node"><title>Node16</title>
<g id="a_node16"><a xlink:href="erpc__uart__zephyr__transport_8hpp.html" target="_top" xlink:title="erpc_uart_zephyr_transport.hpp">
<polygon fill="white" stroke="black" points="1863,-6 1863,-25 2017,-25 2017,-6 1863,-6"/>
<text text-anchor="middle" x="1940" y="-13" font-family="Helvetica,sans-Serif" font-size="10.00">erpc_uart_zephyr_transport.hpp</text>
</a>
</g>
</g>
<!-- Node1&#45;&gt;Node16 -->
<g id="edge26" class="edge"><title>Node1&#45;&gt;Node16</title>
<path fill="none" stroke="midnightblue" d="M1300.58,-130.376C1319.42,-121.96 1344.13,-110.231 1365,-98 1385.64,-85.9042 1386.51,-75.1408 1409,-67 1595.58,0.525648 1657.1,-55.5176 1854,-31 1866.92,-29.391 1880.87,-27.2267 1893.69,-25.0617"/>
<polygon fill="midnightblue" stroke="midnightblue" points="1299.05,-127.225 1291.31,-134.46 1301.87,-133.631 1299.05,-127.225"/>
</g>
<!-- Node17 -->
<g id="node17" class="node"><title>Node17</title>
<g id="a_node17"><a xlink:href="erpc__usb__cdc__transport_8hpp.html" target="_top" xlink:title="erpc_usb_cdc_transport.hpp">
<polygon fill="white" stroke="black" points="2035,-6 2035,-25 2175,-25 2175,-6 2035,-6"/>
<text text-anchor="middle" x="2105" y="-13" font-family="Helvetica,sans-Serif" font-size="10.00">erpc_usb_cdc_transport.hpp</text>
</a>
</g>
</g>
<!-- Node1&#45;&gt;Node17 -->
<g id="edge27" class="edge"><title>Node1&#45;&gt;Node17</title>
<path fill="none" stroke="midnightblue" d="M1314.71,-131.613C1340.63,-123.957 1373.66,-112.595 1401,-98 1421.15,-87.2423 1420.58,-74.9294 1442,-67 1563.94,-21.8684 1896.94,-46.7649 2026,-31 2038.32,-29.4953 2051.62,-27.2843 2063.73,-25.0399"/>
<polygon fill="midnightblue" stroke="midnightblue" points="1313.43,-128.337 1304.79,-134.465 1315.37,-135.065 1313.43,-128.337"/>
</g>
<!-- Node18 -->
<g id="node18" class="node"><title>Node18</title>
<g id="a_node18"><a xlink:href="erpc__inter__thread__buffer__transport_8hpp.html" target="_top" xlink:title="erpc_inter_thread_buffer\l_transport.hpp">
<polygon fill="white" stroke="black" points="1451,-67.5 1451,-97.5 1571,-97.5 1571,-67.5 1451,-67.5"/>
<text text-anchor="start" x="1459" y="-85.5" font-family="Helvetica,sans-Serif" font-size="10.00">erpc_inter_thread_buffer</text>
<text text-anchor="middle" x="1511" y="-74.5" font-family="Helvetica,sans-Serif" font-size="10.00">_transport.hpp</text>
</a>
</g>
</g>
<!-- Node1&#45;&gt;Node18 -->
<g id="edge19" class="edge"><title>Node1&#45;&gt;Node18</title>
<path fill="none" stroke="midnightblue" d="M1315.19,-132.045C1354.39,-122.326 1411.88,-108.073 1454.44,-97.523"/>
<polygon fill="midnightblue" stroke="midnightblue" points="1314.25,-128.672 1305.39,-134.475 1315.93,-135.466 1314.25,-128.672"/>
</g>
<!-- Node19 -->
<g id="node19" class="node"><title>Node19</title>
<g id="a_node19"><a xlink:href="erpc__mu__transport_8hpp.html" target="_top" xlink:title="erpc_mu_transport.hpp">
<polygon fill="white" stroke="black" points="1589,-73 1589,-92 1705,-92 1705,-73 1589,-73"/>
<text text-anchor="middle" x="1647" y="-80" font-family="Helvetica,sans-Serif" font-size="10.00">erpc_mu_transport.hpp</text>
</a>
</g>
</g>
<!-- Node1&#45;&gt;Node19 -->
<g id="edge22" class="edge"><title>Node1&#45;&gt;Node19</title>
<path fill="none" stroke="midnightblue" d="M1325.61,-136.197C1387.5,-128.221 1491.31,-114.035 1580,-98 1589.72,-96.2425 1600.18,-94.1004 1609.88,-92.0079"/>
<polygon fill="midnightblue" stroke="midnightblue" points="1325.15,-132.728 1315.67,-137.471 1326.04,-139.671 1325.15,-132.728"/>
</g>
<!-- Node4 -->
<g id="node4" class="node"><title>Node4</title>
<g id="a_node4"><a xlink:href="erpc__dspi__master__transport_8hpp.html" target="_top" xlink:title="erpc_dspi_master_transport.hpp">
<polygon fill="white" stroke="black" points="1099,-6 1099,-25 1255,-25 1255,-6 1099,-6"/>
<text text-anchor="middle" x="1177" y="-13" font-family="Helvetica,sans-Serif" font-size="10.00">erpc_dspi_master_transport.hpp</text>
</a>
</g>
</g>
<!-- Node3&#45;&gt;Node4 -->
<g id="edge3" class="edge"><title>Node3&#45;&gt;Node4</title>
<path fill="none" stroke="midnightblue" d="M1177,-62.537C1177,-50.1703 1177,-34.6198 1177,-25.1273"/>
<polygon fill="midnightblue" stroke="midnightblue" points="1173.5,-62.7338 1177,-72.7338 1180.5,-62.7338 1173.5,-62.7338"/>
</g>
<!-- Node3&#45;&gt;Node5 -->
<g id="edge4" class="edge"><title>Node3&#45;&gt;Node5</title>
<path fill="none" stroke="midnightblue" d="M1100.26,-75.2132C1064.62,-72.4348 1021.66,-69.287 983,-67 616.181,-45.3032 522.309,-70.7016 157,-31 143.766,-29.5618 129.453,-27.3139 116.501,-25.0136"/>
<polygon fill="midnightblue" stroke="midnightblue" points="1100.35,-78.7307 1110.59,-76.024 1100.9,-71.7521 1100.35,-78.7307"/>
</g>
<!-- Node3&#45;&gt;Node6 -->
<g id="edge5" class="edge"><title>Node3&#45;&gt;Node6</title>
<path fill="none" stroke="midnightblue" d="M1100.37,-73.74C1075.11,-71.3525 1046.87,-68.8649 1021,-67 709.399,-44.5384 629.376,-66.5956 319,-31 306.226,-29.535 292.423,-27.308 279.892,-25.0357"/>
<polygon fill="midnightblue" stroke="midnightblue" points="1100.34,-77.2529 1110.63,-74.7193 1101.01,-70.2845 1100.34,-77.2529"/>
</g>
<!-- Node3&#45;&gt;Node7 -->
<g id="edge6" class="edge"><title>Node3&#45;&gt;Node7</title>
<path fill="none" stroke="midnightblue" d="M1103.35,-71.765C1088.67,-70.0187 1073.36,-68.333 1059,-67 805.365,-43.456 739.987,-60.7082 487,-31 474.066,-29.4811 460.098,-27.2931 447.336,-25.0754"/>
<polygon fill="midnightblue" stroke="midnightblue" points="1103.04,-75.253 1113.39,-72.9802 1103.88,-68.3037 1103.04,-75.253"/>
</g>
<!-- Node3&#45;&gt;Node8 -->
<g id="edge7" class="edge"><title>Node3&#45;&gt;Node8</title>
<path fill="none" stroke="midnightblue" d="M1124.28,-71.1878C1115.2,-69.6299 1105.85,-68.1592 1097,-67 901.575,-41.3939 850.53,-55.7882 655,-31 642.374,-29.3993 628.751,-27.2377 616.226,-25.0727"/>
<polygon fill="midnightblue" stroke="midnightblue" points="1123.9,-74.6758 1134.36,-72.9716 1125.12,-67.7828 1123.9,-74.6758"/>
</g>
<!-- Node9 -->
<g id="node9" class="node"><title>Node9</title>
<g id="a_node9"><a xlink:href="erpc__rpmsg__tty__rtos__transport_8hpp.html" target="_top" xlink:title="erpc_rpmsg_tty_rtos\l_transport.hpp">
<polygon fill="white" stroke="black" points="1273,-0.5 1273,-30.5 1379,-30.5 1379,-0.5 1273,-0.5"/>
<text text-anchor="start" x="1281" y="-18.5" font-family="Helvetica,sans-Serif" font-size="10.00">erpc_rpmsg_tty_rtos</text>
<text text-anchor="middle" x="1326" y="-7.5" font-family="Helvetica,sans-Serif" font-size="10.00">_transport.hpp</text>
</a>
</g>
</g>
<!-- Node3&#45;&gt;Node9 -->
<g id="edge8" class="edge"><title>Node3&#45;&gt;Node9</title>
<path fill="none" stroke="midnightblue" d="M1206.19,-68.767C1231.41,-57.7656 1267.79,-41.8916 1293.84,-30.5281"/>
<polygon fill="midnightblue" stroke="midnightblue" points="1204.55,-65.6619 1196.79,-72.8685 1207.35,-72.078 1204.55,-65.6619"/>
</g>
<!-- Node10 -->
<g id="node10" class="node"><title>Node10</title>
<g id="a_node10"><a xlink:href="erpc__serial__transport_8hpp.html" target="_top" xlink:title="erpc_serial_transport.hpp">
<polygon fill="white" stroke="black" points="664,-6 664,-25 790,-25 790,-6 664,-6"/>
<text text-anchor="middle" x="727" y="-13" font-family="Helvetica,sans-Serif" font-size="10.00">erpc_serial_transport.hpp</text>
</a>
</g>
</g>
<!-- Node3&#45;&gt;Node10 -->
<g id="edge9" class="edge"><title>Node3&#45;&gt;Node10</title>
<path fill="none" stroke="midnightblue" d="M1122.7,-71.2124C1114.12,-69.7146 1105.33,-68.2564 1097,-67 965.086,-47.0951 930.715,-52.1853 799,-31 788.425,-29.2991 777.038,-27.1533 766.51,-25.0376"/>
<polygon fill="midnightblue" stroke="midnightblue" points="1122.19,-74.6759 1132.65,-72.9791 1123.41,-67.7838 1122.19,-74.6759"/>
</g>
<!-- Node11 -->
<g id="node11" class="node"><title>Node11</title>
<g id="a_node11"><a xlink:href="erpc__spi__master__transport_8hpp.html" target="_top" xlink:title="erpc_spi_master_transport.hpp">
<polygon fill="white" stroke="black" points="808.5,-6 808.5,-25 959.5,-25 959.5,-6 808.5,-6"/>
<text text-anchor="middle" x="884" y="-13" font-family="Helvetica,sans-Serif" font-size="10.00">erpc_spi_master_transport.hpp</text>
</a>
</g>
</g>
<!-- Node3&#45;&gt;Node11 -->
<g id="edge10" class="edge"><title>Node3&#45;&gt;Node11</title>
<path fill="none" stroke="midnightblue" d="M1128.42,-70.7236C1070.73,-57.9244 975.657,-36.8334 922.691,-25.0834"/>
<polygon fill="midnightblue" stroke="midnightblue" points="1127.87,-74.1866 1138.39,-72.9355 1129.39,-67.3528 1127.87,-74.1866"/>
</g>
<!-- Node3&#45;&gt;Node12 -->
<g id="edge11" class="edge"><title>Node3&#45;&gt;Node12</title>
<path fill="none" stroke="midnightblue" d="M1225.41,-70.7236C1282.91,-57.9244 1377.66,-36.8334 1430.44,-25.0834"/>
<polygon fill="midnightblue" stroke="midnightblue" points="1224.47,-67.3462 1215.47,-72.9355 1226,-74.179 1224.47,-67.3462"/>
</g>
<!-- Node13 -->
<g id="node13" class="node"><title>Node13</title>
<g id="a_node13"><a xlink:href="erpc__spidev__master__transport_8hpp.html" target="_top" xlink:title="erpc_spidev_master\l_transport.hpp">
<polygon fill="white" stroke="black" points="977.5,-0.5 977.5,-30.5 1080.5,-30.5 1080.5,-0.5 977.5,-0.5"/>
<text text-anchor="start" x="985.5" y="-18.5" font-family="Helvetica,sans-Serif" font-size="10.00">erpc_spidev_master</text>
<text text-anchor="middle" x="1029" y="-7.5" font-family="Helvetica,sans-Serif" font-size="10.00">_transport.hpp</text>
</a>
</g>
</g>
<!-- Node3&#45;&gt;Node13 -->
<g id="edge12" class="edge"><title>Node3&#45;&gt;Node13</title>
<path fill="none" stroke="midnightblue" d="M1148.01,-68.767C1122.96,-57.7656 1086.81,-41.8916 1060.94,-30.5281"/>
<polygon fill="midnightblue" stroke="midnightblue" points="1146.78,-72.0518 1157.35,-72.8685 1149.6,-65.6427 1146.78,-72.0518"/>
</g>
<!-- Node3&#45;&gt;Node14 -->
<g id="edge13" class="edge"><title>Node3&#45;&gt;Node14</title>
<path fill="none" stroke="midnightblue" d="M1253.16,-71.9069C1345.21,-60.1874 1494.63,-40.724 1550,-31 1559.73,-29.2913 1570.19,-27.1664 1579.89,-25.0748"/>
<polygon fill="midnightblue" stroke="midnightblue" points="1252.54,-68.4579 1243.06,-73.1913 1253.42,-75.4019 1252.54,-68.4579"/>
</g>
<!-- Node3&#45;&gt;Node15 -->
<g id="edge14" class="edge"><title>Node3&#45;&gt;Node15</title>
<path fill="none" stroke="midnightblue" d="M1253.33,-74.1941C1384.45,-61.5988 1642.46,-36.6054 1684,-31 1696.46,-29.3185 1709.9,-27.1793 1722.33,-25.0639"/>
<polygon fill="midnightblue" stroke="midnightblue" points="1252.96,-70.7128 1243.34,-75.1527 1253.63,-77.6808 1252.96,-70.7128"/>
</g>
<!-- Node3&#45;&gt;Node16 -->
<g id="edge15" class="edge"><title>Node3&#45;&gt;Node16</title>
<path fill="none" stroke="midnightblue" d="M1253.78,-75.758C1289.42,-73.0927 1332.37,-69.8829 1371,-67 1585.67,-50.9778 1640.3,-56.9223 1854,-31 1867.08,-29.4137 1881.2,-27.2309 1894.14,-25.0403"/>
<polygon fill="midnightblue" stroke="midnightblue" points="1253.15,-72.2946 1243.44,-76.5305 1253.68,-79.2751 1253.15,-72.2946"/>
</g>
<!-- Node3&#45;&gt;Node17 -->
<g id="edge16" class="edge"><title>Node3&#45;&gt;Node17</title>
<path fill="none" stroke="midnightblue" d="M1253.28,-76.6528C1298.54,-73.7969 1357.04,-70.1397 1409,-67 1683.19,-50.4327 1753.28,-63.8569 2026,-31 2038.32,-29.5155 2051.62,-27.3107 2063.74,-25.0658"/>
<polygon fill="midnightblue" stroke="midnightblue" points="1253.01,-73.163 1243.25,-77.2865 1253.45,-80.1491 1253.01,-73.163"/>
</g>
</g>
</svg>
