<?xml version="1.0" encoding="UTF-8" standalone="no"?>
<!DOCTYPE svg PUBLIC "-//W3C//DTD SVG 1.1//EN"
 "http://www.w3.org/Graphics/SVG/1.1/DTD/svg11.dtd">
<!-- Generated by graphviz version 2.38.0 (20140413.2041)
 -->
<!-- Title: erpc_codec.hpp Pages: 1 -->
<svg width="687pt" height="218pt"
 viewBox="0.00 0.00 686.50 218.00" xmlns="http://www.w3.org/2000/svg" xmlns:xlink="http://www.w3.org/1999/xlink">
<g id="graph0" class="graph" transform="scale(1 1) rotate(0) translate(4 214)">
<title>erpc_codec.hpp</title>
<polygon fill="white" stroke="none" points="-4,4 -4,-214 682.5,-214 682.5,4 -4,4"/>
<!-- Node1 -->
<g id="node1" class="node"><title>Node1</title>
<polygon fill="#bfbfbf" stroke="black" points="493.5,-190.5 493.5,-209.5 579.5,-209.5 579.5,-190.5 493.5,-190.5"/>
<text text-anchor="middle" x="536.5" y="-197.5" font-family="Helvetica,sans-Serif" font-size="10.00">erpc_codec.hpp</text>
</g>
<!-- Node2 -->
<g id="node2" class="node"><title>Node2</title>
<g id="a_node2"><a xlink:href="erpc__client__server__common_8hpp.html" target="_top" xlink:title="erpc_client_server\l_common.hpp">
<polygon fill="white" stroke="black" points="310,-123.5 310,-153.5 405,-153.5 405,-123.5 310,-123.5"/>
<text text-anchor="start" x="318" y="-141.5" font-family="Helvetica,sans-Serif" font-size="10.00">erpc_client_server</text>
<text text-anchor="middle" x="357.5" y="-130.5" font-family="Helvetica,sans-Serif" font-size="10.00">_common.hpp</text>
</a>
</g>
</g>
<!-- Node1&#45;&gt;Node2 -->
<g id="edge1" class="edge"><title>Node1&#45;&gt;Node2</title>
<path fill="none" stroke="midnightblue" d="M501.092,-187.23C471.945,-177.542 430.549,-163.782 399.687,-153.523"/>
<polygon fill="midnightblue" stroke="midnightblue" points="500.26,-190.642 510.854,-190.475 502.468,-183.999 500.26,-190.642"/>
</g>
<!-- Node5 -->
<g id="node5" class="node"><title>Node5</title>
<g id="a_node5"><a xlink:href="erpc__transport__arbitrator_8hpp.html" target="_top" xlink:title="erpc_transport_arbitrator.hpp">
<polygon fill="white" stroke="black" points="513,-6 513,-25 654,-25 654,-6 513,-6"/>
<text text-anchor="middle" x="583.5" y="-13" font-family="Helvetica,sans-Serif" font-size="10.00">erpc_transport_arbitrator.hpp</text>
</a>
</g>
</g>
<!-- Node1&#45;&gt;Node5 -->
<g id="edge9" class="edge"><title>Node1&#45;&gt;Node5</title>
<path fill="none" stroke="midnightblue" d="M541.117,-180.264C544.926,-164.872 550.498,-142.506 555.5,-123 564.856,-86.5182 576.393,-43.1172 581.215,-25.0498"/>
<polygon fill="midnightblue" stroke="midnightblue" points="537.688,-179.551 538.688,-190.099 544.484,-181.23 537.688,-179.551"/>
</g>
<!-- Node10 -->
<g id="node10" class="node"><title>Node10</title>
<g id="a_node10"><a xlink:href="erpc__basic__codec_8hpp.html" target="_top" xlink:title="erpc_basic_codec.hpp">
<polygon fill="white" stroke="black" points="564.5,-129 564.5,-148 678.5,-148 678.5,-129 564.5,-129"/>
<text text-anchor="middle" x="621.5" y="-136" font-family="Helvetica,sans-Serif" font-size="10.00">erpc_basic_codec.hpp</text>
</a>
</g>
</g>
<!-- Node1&#45;&gt;Node10 -->
<g id="edge10" class="edge"><title>Node1&#45;&gt;Node10</title>
<path fill="none" stroke="midnightblue" d="M557.053,-184.613C573.401,-173.169 595.72,-157.546 609.344,-148.009"/>
<polygon fill="midnightblue" stroke="midnightblue" points="554.864,-181.873 548.678,-190.475 558.878,-187.608 554.864,-181.873"/>
</g>
<!-- Node3 -->
<g id="node3" class="node"><title>Node3</title>
<g id="a_node3"><a xlink:href="erpc__client__manager_8h.html" target="_top" xlink:title="erpc_client_manager.h">
<polygon fill="white" stroke="black" points="300,-67.5 300,-86.5 415,-86.5 415,-67.5 300,-67.5"/>
<text text-anchor="middle" x="357.5" y="-74.5" font-family="Helvetica,sans-Serif" font-size="10.00">erpc_client_manager.h</text>
</a>
</g>
</g>
<!-- Node2&#45;&gt;Node3 -->
<g id="edge2" class="edge"><title>Node2&#45;&gt;Node3</title>
<path fill="none" stroke="midnightblue" d="M357.5,-113.289C357.5,-103.857 357.5,-93.6548 357.5,-86.6578"/>
<polygon fill="midnightblue" stroke="midnightblue" points="354,-113.399 357.5,-123.399 361,-113.399 354,-113.399"/>
</g>
<!-- Node8 -->
<g id="node8" class="node"><title>Node8</title>
<g id="a_node8"><a xlink:href="erpc__server_8hpp.html" target="_top" xlink:title="erpc_server.hpp">
<polygon fill="white" stroke="black" points="130,-67.5 130,-86.5 215,-86.5 215,-67.5 130,-67.5"/>
<text text-anchor="middle" x="172.5" y="-74.5" font-family="Helvetica,sans-Serif" font-size="10.00">erpc_server.hpp</text>
</a>
</g>
</g>
<!-- Node2&#45;&gt;Node8 -->
<g id="edge7" class="edge"><title>Node2&#45;&gt;Node8</title>
<path fill="none" stroke="midnightblue" d="M303.766,-120.218C269.424,-109.173 226.38,-95.3289 199.149,-86.5709"/>
<polygon fill="midnightblue" stroke="midnightblue" points="303.066,-123.669 313.658,-123.399 305.209,-117.006 303.066,-123.669"/>
</g>
<!-- Node4 -->
<g id="node4" class="node"><title>Node4</title>
<g id="a_node4"><a xlink:href="erpc__arbitrated__client__manager_8hpp.html" target="_top" xlink:title="erpc_arbitrated_client\l_manager.hpp">
<polygon fill="white" stroke="black" points="256.5,-0.5 256.5,-30.5 366.5,-30.5 366.5,-0.5 256.5,-0.5"/>
<text text-anchor="start" x="264.5" y="-18.5" font-family="Helvetica,sans-Serif" font-size="10.00">erpc_arbitrated_client</text>
<text text-anchor="middle" x="311.5" y="-7.5" font-family="Helvetica,sans-Serif" font-size="10.00">_manager.hpp</text>
</a>
</g>
</g>
<!-- Node3&#45;&gt;Node4 -->
<g id="edge3" class="edge"><title>Node3&#45;&gt;Node4</title>
<path fill="none" stroke="midnightblue" d="M344.767,-59.5296C337.722,-50.4173 329.06,-39.2136 322.341,-30.523"/>
<polygon fill="midnightblue" stroke="midnightblue" points="342.024,-61.7044 350.909,-67.4751 347.562,-57.423 342.024,-61.7044"/>
</g>
<!-- Node3&#45;&gt;Node5 -->
<g id="edge4" class="edge"><title>Node3&#45;&gt;Node5</title>
<path fill="none" stroke="midnightblue" d="M399.678,-64.8956C443.572,-53.3396 511.35,-35.4952 551.18,-25.0091"/>
<polygon fill="midnightblue" stroke="midnightblue" points="398.66,-61.5444 389.88,-67.4751 400.442,-68.3137 398.66,-61.5444"/>
</g>
<!-- Node6 -->
<g id="node6" class="node"><title>Node6</title>
<g id="a_node6"><a xlink:href="erpc__arbitrated__client__setup_8h.html" target="_top" xlink:title="erpc_arbitrated_client\l_setup.h">
<polygon fill="white" stroke="black" points="384.5,-0.5 384.5,-30.5 494.5,-30.5 494.5,-0.5 384.5,-0.5"/>
<text text-anchor="start" x="392.5" y="-18.5" font-family="Helvetica,sans-Serif" font-size="10.00">erpc_arbitrated_client</text>
<text text-anchor="middle" x="439.5" y="-7.5" font-family="Helvetica,sans-Serif" font-size="10.00">_setup.h</text>
</a>
</g>
</g>
<!-- Node3&#45;&gt;Node6 -->
<g id="edge5" class="edge"><title>Node3&#45;&gt;Node6</title>
<path fill="none" stroke="midnightblue" d="M377.527,-61.468C390.51,-52.0474 407.333,-39.8408 420.174,-30.523"/>
<polygon fill="midnightblue" stroke="midnightblue" points="375.287,-58.7693 369.249,-67.4751 379.398,-64.435 375.287,-58.7693"/>
</g>
<!-- Node7 -->
<g id="node7" class="node"><title>Node7</title>
<g id="a_node7"><a xlink:href="erpc__client__setup_8h.html" target="_top" xlink:title="erpc_client_setup.h">
<polygon fill="white" stroke="black" points="137,-6 137,-25 238,-25 238,-6 137,-6"/>
<text text-anchor="middle" x="187.5" y="-13" font-family="Helvetica,sans-Serif" font-size="10.00">erpc_client_setup.h</text>
</a>
</g>
</g>
<!-- Node3&#45;&gt;Node7 -->
<g id="edge6" class="edge"><title>Node3&#45;&gt;Node7</title>
<path fill="none" stroke="midnightblue" d="M323.451,-64.0828C290.406,-52.517 241.078,-35.2524 211.812,-25.0091"/>
<polygon fill="midnightblue" stroke="midnightblue" points="322.548,-67.475 333.143,-67.4751 324.861,-60.868 322.548,-67.475"/>
</g>
<!-- Node9 -->
<g id="node9" class="node"><title>Node9</title>
<g id="a_node9"><a xlink:href="erpc__simple__server_8hpp.html" target="_top" xlink:title="erpc_simple_server.hpp">
<polygon fill="white" stroke="black" points="0,-6 0,-25 119,-25 119,-6 0,-6"/>
<text text-anchor="middle" x="59.5" y="-13" font-family="Helvetica,sans-Serif" font-size="10.00">erpc_simple_server.hpp</text>
</a>
</g>
</g>
<!-- Node8&#45;&gt;Node9 -->
<g id="edge8" class="edge"><title>Node8&#45;&gt;Node9</title>
<path fill="none" stroke="midnightblue" d="M147.264,-62.7118C125.378,-51.1881 94.3591,-34.855 75.6601,-25.0091"/>
<polygon fill="midnightblue" stroke="midnightblue" points="145.831,-65.9129 156.31,-67.4751 149.092,-59.7191 145.831,-65.9129"/>
</g>
</g>
</svg>
