<?xml version="1.0" encoding="UTF-8" standalone="no"?>
<!DOCTYPE svg PUBLIC "-//W3C//DTD SVG 1.1//EN"
 "http://www.w3.org/Graphics/SVG/1.1/DTD/svg11.dtd">
<!-- Generated by graphviz version 2.38.0 (20140413.2041)
 -->
<!-- Title: erpc_rpmsg_tty_rtos_transport.hpp Pages: 1 -->
<svg width="708pt" height="263pt"
 viewBox="0.00 0.00 708.00 263.00" xmlns="http://www.w3.org/2000/svg" xmlns:xlink="http://www.w3.org/1999/xlink">
<g id="graph0" class="graph" transform="scale(1 1) rotate(0) translate(4 259)">
<title>erpc_rpmsg_tty_rtos_transport.hpp</title>
<polygon fill="white" stroke="none" points="-4,4 -4,-259 704,-259 704,4 -4,4"/>
<!-- Node1 -->
<g id="node1" class="node"><title>Node1</title>
<polygon fill="#bfbfbf" stroke="black" points="366.5,-224.5 366.5,-254.5 472.5,-254.5 472.5,-224.5 366.5,-224.5"/>
<text text-anchor="start" x="374.5" y="-242.5" font-family="Helvetica,sans-Serif" font-size="10.00">erpc_rpmsg_tty_rtos</text>
<text text-anchor="middle" x="419.5" y="-231.5" font-family="Helvetica,sans-Serif" font-size="10.00">_transport.hpp</text>
</g>
<!-- Node2 -->
<g id="node2" class="node"><title>Node2</title>
<g id="a_node2"><a xlink:href="erpc__crc16_8hpp.html" target="_top" xlink:title="erpc_crc16.hpp">
<polygon fill="white" stroke="black" points="0,-56.5 0,-75.5 83,-75.5 83,-56.5 0,-56.5"/>
<text text-anchor="middle" x="41.5" y="-63.5" font-family="Helvetica,sans-Serif" font-size="10.00">erpc_crc16.hpp</text>
</a>
</g>
</g>
<!-- Node1&#45;&gt;Node2 -->
<g id="edge1" class="edge"><title>Node1&#45;&gt;Node2</title>
<path fill="none" stroke="midnightblue" d="M366.26,-228.815C300.815,-215.107 188.272,-185.54 105.5,-132 85.238,-118.894 66.4226,-98.3615 54.51,-83.8865"/>
<polygon fill="midnightblue" stroke="midnightblue" points="57.009,-81.4068 48.0336,-75.777 51.5392,-85.7751 57.009,-81.4068"/>
</g>
<!-- Node4 -->
<g id="node4" class="node"><title>Node4</title>
<g id="a_node4"><a xlink:href="erpc__framed__transport_8hpp.html" target="_top" xlink:title="erpc_framed_transport.hpp">
<polygon fill="white" stroke="black" points="278.5,-168.5 278.5,-187.5 410.5,-187.5 410.5,-168.5 278.5,-168.5"/>
<text text-anchor="middle" x="344.5" y="-175.5" font-family="Helvetica,sans-Serif" font-size="10.00">erpc_framed_transport.hpp</text>
</a>
</g>
</g>
<!-- Node1&#45;&gt;Node4 -->
<g id="edge3" class="edge"><title>Node1&#45;&gt;Node4</title>
<path fill="none" stroke="midnightblue" d="M401.726,-224.399C390.154,-215.218 375.077,-203.258 363.304,-193.918"/>
<polygon fill="midnightblue" stroke="midnightblue" points="365.423,-191.131 355.413,-187.658 361.072,-196.615 365.423,-191.131"/>
</g>
<!-- Node8 -->
<g id="node8" class="node"><title>Node8</title>
<g id="a_node8"><a xlink:href="erpc__message__buffer_8hpp.html" target="_top" xlink:title="erpc_message_buffer.hpp">
<polygon fill="white" stroke="black" points="203.5,-56.5 203.5,-75.5 331.5,-75.5 331.5,-56.5 203.5,-56.5"/>
<text text-anchor="middle" x="267.5" y="-63.5" font-family="Helvetica,sans-Serif" font-size="10.00">erpc_message_buffer.hpp</text>
</a>
</g>
</g>
<!-- Node1&#45;&gt;Node8 -->
<g id="edge20" class="edge"><title>Node1&#45;&gt;Node8</title>
<path fill="none" stroke="midnightblue" d="M366.43,-235.554C332.812,-230.625 291.636,-218.278 269.5,-188 247.465,-157.861 255.058,-111.26 261.763,-85.5744"/>
<polygon fill="midnightblue" stroke="midnightblue" points="265.212,-86.2426 264.583,-75.6664 258.479,-84.3265 265.212,-86.2426"/>
</g>
<!-- Node15 -->
<g id="node15" class="node"><title>Node15</title>
<g id="a_node15"><a xlink:href="erpc__rpmsg__lite__base_8hpp.html" target="_top" xlink:title="erpc_rpmsg_lite_base.hpp">
<polygon fill="white" stroke="black" points="429,-168.5 429,-187.5 560,-187.5 560,-168.5 429,-168.5"/>
<text text-anchor="middle" x="494.5" y="-175.5" font-family="Helvetica,sans-Serif" font-size="10.00">erpc_rpmsg_lite_base.hpp</text>
</a>
</g>
</g>
<!-- Node1&#45;&gt;Node15 -->
<g id="edge21" class="edge"><title>Node1&#45;&gt;Node15</title>
<path fill="none" stroke="midnightblue" d="M437.274,-224.399C448.846,-215.218 463.923,-203.258 475.696,-193.918"/>
<polygon fill="midnightblue" stroke="midnightblue" points="477.928,-196.615 483.587,-187.658 473.577,-191.131 477.928,-196.615"/>
</g>
<!-- Node17 -->
<g id="node17" class="node"><title>Node17</title>
<polygon fill="white" stroke="#bfbfbf" points="628.5,-112.5 628.5,-131.5 698.5,-131.5 698.5,-112.5 628.5,-112.5"/>
<text text-anchor="middle" x="663.5" y="-119.5" font-family="Helvetica,sans-Serif" font-size="10.00">rpmsg_lite.h</text>
</g>
<!-- Node1&#45;&gt;Node17 -->
<g id="edge25" class="edge"><title>Node1&#45;&gt;Node17</title>
<path fill="none" stroke="midnightblue" d="M472.278,-224.456C501.429,-215.758 537.837,-203.323 568.5,-188 596.896,-173.811 626.628,-152.205 645.106,-137.849"/>
<polygon fill="midnightblue" stroke="midnightblue" points="647.304,-140.573 652.989,-131.632 642.969,-135.077 647.304,-140.573"/>
</g>
<!-- Node18 -->
<g id="node18" class="node"><title>Node18</title>
<polygon fill="white" stroke="#bfbfbf" points="617,-168.5 617,-187.5 700,-187.5 700,-168.5 617,-168.5"/>
<text text-anchor="middle" x="658.5" y="-175.5" font-family="Helvetica,sans-Serif" font-size="10.00">rpmsg_queue.h</text>
</g>
<!-- Node1&#45;&gt;Node18 -->
<g id="edge26" class="edge"><title>Node1&#45;&gt;Node18</title>
<path fill="none" stroke="midnightblue" d="M472.542,-225.295C515.139,-214.69 574.256,-199.973 614.314,-190"/>
<polygon fill="midnightblue" stroke="midnightblue" points="615.208,-193.385 624.066,-187.572 613.517,-186.592 615.208,-193.385"/>
</g>
<!-- Node3 -->
<g id="node3" class="node"><title>Node3</title>
<polygon fill="white" stroke="#bfbfbf" points="18.5,-0.5 18.5,-19.5 64.5,-19.5 64.5,-0.5 18.5,-0.5"/>
<text text-anchor="middle" x="41.5" y="-7.5" font-family="Helvetica,sans-Serif" font-size="10.00">cstdint</text>
</g>
<!-- Node2&#45;&gt;Node3 -->
<g id="edge2" class="edge"><title>Node2&#45;&gt;Node3</title>
<path fill="none" stroke="midnightblue" d="M41.5,-56.083C41.5,-49.0059 41.5,-38.8611 41.5,-29.9865"/>
<polygon fill="midnightblue" stroke="midnightblue" points="45.0001,-29.751 41.5,-19.7511 38.0001,-29.7511 45.0001,-29.751"/>
</g>
<!-- Node5 -->
<g id="node5" class="node"><title>Node5</title>
<g id="a_node5"><a xlink:href="erpc__config__internal_8h_source.html" target="_top" xlink:title="erpc_config_internal.h">
<polygon fill="white" stroke="black" points="388,-56.5 388,-75.5 499,-75.5 499,-56.5 388,-56.5"/>
<text text-anchor="middle" x="443.5" y="-63.5" font-family="Helvetica,sans-Serif" font-size="10.00">erpc_config_internal.h</text>
</a>
</g>
</g>
<!-- Node4&#45;&gt;Node5 -->
<g id="edge4" class="edge"><title>Node4&#45;&gt;Node5</title>
<path fill="none" stroke="midnightblue" d="M363.926,-168.392C379.35,-160.727 400.57,-148.222 414.5,-132 426.061,-118.537 433.777,-99.724 438.324,-85.7999"/>
<polygon fill="midnightblue" stroke="midnightblue" points="441.78,-86.461 441.304,-75.8768 435.076,-84.4476 441.78,-86.461"/>
</g>
<!-- Node4&#45;&gt;Node8 -->
<g id="edge7" class="edge"><title>Node4&#45;&gt;Node8</title>
<path fill="none" stroke="midnightblue" d="M336.759,-168.319C329.004,-159.457 316.901,-145.172 307.5,-132 296.458,-116.53 285.233,-97.9901 277.495,-84.6766"/>
<polygon fill="midnightblue" stroke="midnightblue" points="280.331,-82.5853 272.319,-75.652 274.258,-86.0679 280.331,-82.5853"/>
</g>
<!-- Node12 -->
<g id="node12" class="node"><title>Node12</title>
<g id="a_node12"><a xlink:href="erpc__transport_8hpp.html" target="_top" xlink:title="erpc_transport.hpp">
<polygon fill="white" stroke="black" points="124.5,-112.5 124.5,-131.5 222.5,-131.5 222.5,-112.5 124.5,-112.5"/>
<text text-anchor="middle" x="173.5" y="-119.5" font-family="Helvetica,sans-Serif" font-size="10.00">erpc_transport.hpp</text>
</a>
</g>
</g>
<!-- Node4&#45;&gt;Node12 -->
<g id="edge11" class="edge"><title>Node4&#45;&gt;Node12</title>
<path fill="none" stroke="midnightblue" d="M317.405,-168.444C288.512,-159.32 242.575,-144.813 210.395,-134.651"/>
<polygon fill="midnightblue" stroke="midnightblue" points="211.059,-131.19 200.469,-131.516 208.951,-137.865 211.059,-131.19"/>
</g>
<!-- Node13 -->
<g id="node13" class="node"><title>Node13</title>
<polygon fill="white" stroke="#bfbfbf" points="101.5,-56.5 101.5,-75.5 147.5,-75.5 147.5,-56.5 101.5,-56.5"/>
<text text-anchor="middle" x="124.5" y="-63.5" font-family="Helvetica,sans-Serif" font-size="10.00">cstring</text>
</g>
<!-- Node4&#45;&gt;Node13 -->
<g id="edge16" class="edge"><title>Node4&#45;&gt;Node13</title>
<path fill="none" stroke="midnightblue" d="M278.457,-173.133C218.3,-168.067 135.835,-156.719 115.5,-132 104.784,-118.973 109.474,-99.2719 115.334,-84.9743"/>
<polygon fill="midnightblue" stroke="midnightblue" points="118.605,-86.2387 119.605,-75.6911 112.246,-83.3133 118.605,-86.2387"/>
</g>
<!-- Node14 -->
<g id="node14" class="node"><title>Node14</title>
<g id="a_node14"><a xlink:href="erpc__threading_8h.html" target="_top" xlink:title="erpc_threading.h">
<polygon fill="white" stroke="black" points="317,-112.5 317,-131.5 406,-131.5 406,-112.5 317,-112.5"/>
<text text-anchor="middle" x="361.5" y="-119.5" font-family="Helvetica,sans-Serif" font-size="10.00">erpc_threading.h</text>
</a>
</g>
</g>
<!-- Node4&#45;&gt;Node14 -->
<g id="edge17" class="edge"><title>Node4&#45;&gt;Node14</title>
<path fill="none" stroke="midnightblue" d="M347.307,-168.083C349.585,-160.849 352.871,-150.409 355.708,-141.397"/>
<polygon fill="midnightblue" stroke="midnightblue" points="359.081,-142.341 358.745,-131.751 352.404,-140.239 359.081,-142.341"/>
</g>
<!-- Node6 -->
<g id="node6" class="node"><title>Node6</title>
<g id="a_node6"><a xlink:href="erpc__config_8h.html" target="_top" xlink:title="erpc_config.h">
<polygon fill="white" stroke="black" points="397.5,-0.5 397.5,-19.5 471.5,-19.5 471.5,-0.5 397.5,-0.5"/>
<text text-anchor="middle" x="434.5" y="-7.5" font-family="Helvetica,sans-Serif" font-size="10.00">erpc_config.h</text>
</a>
</g>
</g>
<!-- Node5&#45;&gt;Node6 -->
<g id="edge5" class="edge"><title>Node5&#45;&gt;Node6</title>
<path fill="none" stroke="midnightblue" d="M442.014,-56.083C440.821,-48.9272 439.106,-38.6353 437.615,-29.6911"/>
<polygon fill="midnightblue" stroke="midnightblue" points="441.055,-29.0396 435.959,-19.7511 434.15,-30.1904 441.055,-29.0396"/>
</g>
<!-- Node7 -->
<g id="node7" class="node"><title>Node7</title>
<polygon fill="white" stroke="#bfbfbf" points="490,-0.5 490,-19.5 539,-19.5 539,-0.5 490,-0.5"/>
<text text-anchor="middle" x="514.5" y="-7.5" font-family="Helvetica,sans-Serif" font-size="10.00">cassert</text>
</g>
<!-- Node5&#45;&gt;Node7 -->
<g id="edge6" class="edge"><title>Node5&#45;&gt;Node7</title>
<path fill="none" stroke="midnightblue" d="M454.907,-56.324C465.609,-48.1849 481.841,-35.8395 494.663,-26.0874"/>
<polygon fill="midnightblue" stroke="midnightblue" points="497.044,-28.6734 502.885,-19.8339 492.807,-23.1018 497.044,-28.6734"/>
</g>
<!-- Node9 -->
<g id="node9" class="node"><title>Node9</title>
<g id="a_node9"><a xlink:href="erpc__common_8h_source.html" target="_top" xlink:title="erpc_common.h">
<polygon fill="white" stroke="black" points="135.5,-0.5 135.5,-19.5 221.5,-19.5 221.5,-0.5 135.5,-0.5"/>
<text text-anchor="middle" x="178.5" y="-7.5" font-family="Helvetica,sans-Serif" font-size="10.00">erpc_common.h</text>
</a>
</g>
</g>
<!-- Node8&#45;&gt;Node9 -->
<g id="edge8" class="edge"><title>Node8&#45;&gt;Node9</title>
<path fill="none" stroke="midnightblue" d="M253.201,-56.324C239.317,-47.9002 218.008,-34.9709 201.696,-25.0741"/>
<polygon fill="midnightblue" stroke="midnightblue" points="203.129,-21.8495 192.764,-19.6545 199.498,-27.8341 203.129,-21.8495"/>
</g>
<!-- Node10 -->
<g id="node10" class="node"><title>Node10</title>
<polygon fill="white" stroke="#bfbfbf" points="243.5,-0.5 243.5,-19.5 291.5,-19.5 291.5,-0.5 243.5,-0.5"/>
<text text-anchor="middle" x="267.5" y="-7.5" font-family="Helvetica,sans-Serif" font-size="10.00">cstddef</text>
</g>
<!-- Node8&#45;&gt;Node10 -->
<g id="edge9" class="edge"><title>Node8&#45;&gt;Node10</title>
<path fill="none" stroke="midnightblue" d="M267.5,-56.083C267.5,-49.0059 267.5,-38.8611 267.5,-29.9865"/>
<polygon fill="midnightblue" stroke="midnightblue" points="271,-29.751 267.5,-19.7511 264,-29.7511 271,-29.751"/>
</g>
<!-- Node11 -->
<g id="node11" class="node"><title>Node11</title>
<polygon fill="white" stroke="#bfbfbf" points="322,-0.5 322,-19.5 371,-19.5 371,-0.5 322,-0.5"/>
<text text-anchor="middle" x="346.5" y="-7.5" font-family="Helvetica,sans-Serif" font-size="10.00">stdint.h</text>
</g>
<!-- Node8&#45;&gt;Node11 -->
<g id="edge10" class="edge"><title>Node8&#45;&gt;Node11</title>
<path fill="none" stroke="midnightblue" d="M280.193,-56.324C292.401,-47.979 311.078,-35.2122 325.503,-25.3524"/>
<polygon fill="midnightblue" stroke="midnightblue" points="327.558,-28.1871 333.839,-19.6545 323.608,-22.4082 327.558,-28.1871"/>
</g>
<!-- Node12&#45;&gt;Node2 -->
<g id="edge13" class="edge"><title>Node12&#45;&gt;Node2</title>
<path fill="none" stroke="midnightblue" d="M152.584,-112.444C130.764,-103.517 96.3502,-89.4387 71.6078,-79.3168"/>
<polygon fill="midnightblue" stroke="midnightblue" points="72.8987,-76.0634 62.3179,-75.5164 70.2482,-82.5422 72.8987,-76.0634"/>
</g>
<!-- Node12&#45;&gt;Node8 -->
<g id="edge14" class="edge"><title>Node12&#45;&gt;Node8</title>
<path fill="none" stroke="midnightblue" d="M188.603,-112.324C203.403,-103.822 226.194,-90.7288 243.482,-80.7975"/>
<polygon fill="midnightblue" stroke="midnightblue" points="245.507,-83.6707 252.435,-75.6545 242.02,-77.6009 245.507,-83.6707"/>
</g>
<!-- Node12&#45;&gt;Node9 -->
<g id="edge12" class="edge"><title>Node12&#45;&gt;Node9</title>
<path fill="none" stroke="midnightblue" d="M173.892,-112.368C174.699,-94.617 176.561,-53.6664 177.655,-29.5974"/>
<polygon fill="midnightblue" stroke="midnightblue" points="181.152,-29.7401 178.109,-19.5914 174.159,-29.4221 181.152,-29.7401"/>
</g>
<!-- Node12&#45;&gt;Node13 -->
<g id="edge15" class="edge"><title>Node12&#45;&gt;Node13</title>
<path fill="none" stroke="midnightblue" d="M165.409,-112.083C158.345,-104.298 147.912,-92.8015 139.351,-83.3665"/>
<polygon fill="midnightblue" stroke="midnightblue" points="141.753,-80.8047 132.441,-75.7511 136.569,-85.5087 141.753,-80.8047"/>
</g>
<!-- Node14&#45;&gt;Node5 -->
<g id="edge18" class="edge"><title>Node14&#45;&gt;Node5</title>
<path fill="none" stroke="midnightblue" d="M374.675,-112.324C387.347,-103.979 406.733,-91.2122 421.706,-81.3524"/>
<polygon fill="midnightblue" stroke="midnightblue" points="423.931,-84.0776 430.358,-75.6545 420.081,-78.2313 423.931,-84.0776"/>
</g>
<!-- Node14&#45;&gt;Node11 -->
<g id="edge19" class="edge"><title>Node14&#45;&gt;Node11</title>
<path fill="none" stroke="midnightblue" d="M360.323,-112.368C357.902,-94.617 352.318,-53.6664 349.036,-29.5974"/>
<polygon fill="midnightblue" stroke="midnightblue" points="352.491,-29.0268 347.672,-19.5914 345.555,-29.9726 352.491,-29.0268"/>
</g>
<!-- Node15&#45;&gt;Node5 -->
<g id="edge22" class="edge"><title>Node15&#45;&gt;Node5</title>
<path fill="none" stroke="midnightblue" d="M490.498,-168.368C482.193,-150.456 462.937,-108.923 451.821,-84.9482"/>
<polygon fill="midnightblue" stroke="midnightblue" points="454.865,-83.1916 447.483,-75.5914 448.514,-86.136 454.865,-83.1916"/>
</g>
<!-- Node16 -->
<g id="node16" class="node"><title>Node16</title>
<polygon fill="white" stroke="#bfbfbf" points="500.5,-112.5 500.5,-131.5 610.5,-131.5 610.5,-112.5 500.5,-112.5"/>
<text text-anchor="middle" x="555.5" y="-119.5" font-family="Helvetica,sans-Serif" font-size="10.00">rpmsg_env_specific.h</text>
</g>
<!-- Node15&#45;&gt;Node16 -->
<g id="edge23" class="edge"><title>Node15&#45;&gt;Node16</title>
<path fill="none" stroke="midnightblue" d="M504.301,-168.324C513.318,-160.341 526.906,-148.313 537.818,-138.653"/>
<polygon fill="midnightblue" stroke="midnightblue" points="540.353,-141.083 545.521,-131.834 535.713,-135.842 540.353,-141.083"/>
</g>
<!-- Node15&#45;&gt;Node17 -->
<g id="edge24" class="edge"><title>Node15&#45;&gt;Node17</title>
<path fill="none" stroke="midnightblue" d="M521.279,-168.444C549.833,-159.32 595.233,-144.813 627.037,-134.651"/>
<polygon fill="midnightblue" stroke="midnightblue" points="628.386,-137.894 636.847,-131.516 626.256,-131.226 628.386,-137.894"/>
</g>
</g>
</svg>
