<?xml version="1.0" encoding="UTF-8" standalone="no"?>
<!DOCTYPE svg PUBLIC "-//W3C//DTD SVG 1.1//EN"
 "http://www.w3.org/Graphics/SVG/1.1/DTD/svg11.dtd">
<!-- Generated by graphviz version 2.38.0 (20140413.2041)
 -->
<!-- Title: erpc_transport_setup.h Pages: 1 -->
<svg width="360pt" height="151pt"
 viewBox="0.00 0.00 360.00 151.00" xmlns="http://www.w3.org/2000/svg" xmlns:xlink="http://www.w3.org/1999/xlink">
<g id="graph0" class="graph" transform="scale(1 1) rotate(0) translate(4 147)">
<title>erpc_transport_setup.h</title>
<polygon fill="white" stroke="none" points="-4,4 -4,-147 356,-147 356,4 -4,4"/>
<!-- Node1 -->
<g id="node1" class="node"><title>Node1</title>
<polygon fill="#bfbfbf" stroke="black" points="130,-123.5 130,-142.5 246,-142.5 246,-123.5 130,-123.5"/>
<text text-anchor="middle" x="188" y="-130.5" font-family="Helvetica,sans-Serif" font-size="10.00">erpc_transport_setup.h</text>
</g>
<!-- Node2 -->
<g id="node2" class="node"><title>Node2</title>
<g id="a_node2"><a xlink:href="erpc__mbf__setup_8h.html" target="_top" xlink:title="erpc_mbf_setup.h">
<polygon fill="white" stroke="black" points="104,-67.5 104,-86.5 198,-86.5 198,-67.5 104,-67.5"/>
<text text-anchor="middle" x="151" y="-74.5" font-family="Helvetica,sans-Serif" font-size="10.00">erpc_mbf_setup.h</text>
</a>
</g>
</g>
<!-- Node1&#45;&gt;Node2 -->
<g id="edge1" class="edge"><title>Node1&#45;&gt;Node2</title>
<path fill="none" stroke="midnightblue" d="M176.054,-114.566C169.688,-105.275 162.133,-94.2484 156.996,-86.7511"/>
<polygon fill="midnightblue" stroke="midnightblue" points="173.351,-116.812 181.89,-123.083 179.125,-112.855 173.351,-116.812"/>
</g>
<!-- Node3 -->
<g id="node3" class="node"><title>Node3</title>
<g id="a_node3"><a xlink:href="erpc__arbitrated__client__setup_8h.html" target="_top" xlink:title="erpc_arbitrated_client\l_setup.h">
<polygon fill="white" stroke="black" points="0,-0.5 0,-30.5 110,-30.5 110,-0.5 0,-0.5"/>
<text text-anchor="start" x="8" y="-18.5" font-family="Helvetica,sans-Serif" font-size="10.00">erpc_arbitrated_client</text>
<text text-anchor="middle" x="55" y="-7.5" font-family="Helvetica,sans-Serif" font-size="10.00">_setup.h</text>
</a>
</g>
</g>
<!-- Node1&#45;&gt;Node3 -->
<g id="edge5" class="edge"><title>Node1&#45;&gt;Node3</title>
<path fill="none" stroke="midnightblue" d="M150.227,-119.763C131.954,-112.435 110.646,-101.655 95,-87 77.9504,-71.0309 66.1932,-46.1285 60.0336,-30.5927"/>
<polygon fill="midnightblue" stroke="midnightblue" points="149.143,-123.096 159.734,-123.382 151.634,-116.554 149.143,-123.096"/>
</g>
<!-- Node4 -->
<g id="node4" class="node"><title>Node4</title>
<g id="a_node4"><a xlink:href="erpc__client__setup_8h.html" target="_top" xlink:title="erpc_client_setup.h">
<polygon fill="white" stroke="black" points="128.5,-6 128.5,-25 229.5,-25 229.5,-6 128.5,-6"/>
<text text-anchor="middle" x="179" y="-13" font-family="Helvetica,sans-Serif" font-size="10.00">erpc_client_setup.h</text>
</a>
</g>
</g>
<!-- Node1&#45;&gt;Node4 -->
<g id="edge6" class="edge"><title>Node1&#45;&gt;Node4</title>
<path fill="none" stroke="midnightblue" d="M198.456,-114.383C204.892,-101.354 211.176,-83.1451 207,-67 202.883,-51.0832 192.549,-34.8346 185.654,-25.2115"/>
<polygon fill="midnightblue" stroke="midnightblue" points="195.357,-112.756 193.676,-123.217 201.514,-116.088 195.357,-112.756"/>
</g>
<!-- Node5 -->
<g id="node5" class="node"><title>Node5</title>
<g id="a_node5"><a xlink:href="erpc__server__setup_8h.html" target="_top" xlink:title="erpc_server_setup.h">
<polygon fill="white" stroke="black" points="248,-6 248,-25 352,-25 352,-6 248,-6"/>
<text text-anchor="middle" x="300" y="-13" font-family="Helvetica,sans-Serif" font-size="10.00">erpc_server_setup.h</text>
</a>
</g>
</g>
<!-- Node1&#45;&gt;Node5 -->
<g id="edge7" class="edge"><title>Node1&#45;&gt;Node5</title>
<path fill="none" stroke="midnightblue" d="M203.686,-115.824C227.695,-91.0641 272.744,-44.6075 291.484,-25.282"/>
<polygon fill="midnightblue" stroke="midnightblue" points="200.867,-113.703 196.418,-123.319 205.892,-118.576 200.867,-113.703"/>
</g>
<!-- Node2&#45;&gt;Node3 -->
<g id="edge2" class="edge"><title>Node2&#45;&gt;Node3</title>
<path fill="none" stroke="midnightblue" d="M128.425,-62.0084C113.113,-52.518 92.9482,-40.02 77.6253,-30.523"/>
<polygon fill="midnightblue" stroke="midnightblue" points="126.902,-65.1819 137.246,-67.4751 130.59,-59.232 126.902,-65.1819"/>
</g>
<!-- Node2&#45;&gt;Node4 -->
<g id="edge3" class="edge"><title>Node2&#45;&gt;Node4</title>
<path fill="none" stroke="midnightblue" d="M159.313,-58.3346C164.493,-47.3281 170.923,-33.6629 174.996,-25.0091"/>
<polygon fill="midnightblue" stroke="midnightblue" points="156.103,-56.9366 155.012,-67.4751 162.437,-59.9172 156.103,-56.9366"/>
</g>
<!-- Node2&#45;&gt;Node5 -->
<g id="edge4" class="edge"><title>Node2&#45;&gt;Node5</title>
<path fill="none" stroke="midnightblue" d="M181.974,-63.6313C210.921,-52.0717 253.372,-35.12 278.692,-25.0091"/>
<polygon fill="midnightblue" stroke="midnightblue" points="180.337,-60.5161 172.348,-67.4751 182.933,-67.0169 180.337,-60.5161"/>
</g>
</g>
</svg>
