<?xml version="1.0" encoding="UTF-8" standalone="no"?>
<!DOCTYPE svg PUBLIC "-//W3C//DTD SVG 1.1//EN"
 "http://www.w3.org/Graphics/SVG/1.1/DTD/svg11.dtd">
<!-- Generated by graphviz version 2.38.0 (20140413.2041)
 -->
<!-- Title: erpc_tcp_transport.hpp Pages: 1 -->
<svg width="559pt" height="252pt"
 viewBox="0.00 0.00 559.00 252.00" xmlns="http://www.w3.org/2000/svg" xmlns:xlink="http://www.w3.org/1999/xlink">
<g id="graph0" class="graph" transform="scale(1 1) rotate(0) translate(4 248)">
<title>erpc_tcp_transport.hpp</title>
<polygon fill="white" stroke="none" points="-4,4 -4,-248 555,-248 555,4 -4,4"/>
<!-- Node1 -->
<g id="node1" class="node"><title>Node1</title>
<polygon fill="#bfbfbf" stroke="black" points="178,-224.5 178,-243.5 294,-243.5 294,-224.5 178,-224.5"/>
<text text-anchor="middle" x="236" y="-231.5" font-family="Helvetica,sans-Serif" font-size="10.00">erpc_tcp_transport.hpp</text>
</g>
<!-- Node2 -->
<g id="node2" class="node"><title>Node2</title>
<g id="a_node2"><a xlink:href="erpc__framed__transport_8hpp.html" target="_top" xlink:title="erpc_framed_transport.hpp">
<polygon fill="white" stroke="black" points="219,-168.5 219,-187.5 351,-187.5 351,-168.5 219,-168.5"/>
<text text-anchor="middle" x="285" y="-175.5" font-family="Helvetica,sans-Serif" font-size="10.00">erpc_framed_transport.hpp</text>
</a>
</g>
</g>
<!-- Node1&#45;&gt;Node2 -->
<g id="edge1" class="edge"><title>Node1&#45;&gt;Node2</title>
<path fill="none" stroke="midnightblue" d="M244.091,-224.083C251.155,-216.298 261.588,-204.801 270.149,-195.367"/>
<polygon fill="midnightblue" stroke="midnightblue" points="272.931,-197.509 277.059,-187.751 267.747,-192.805 272.931,-197.509"/>
</g>
<!-- Node14 -->
<g id="node14" class="node"><title>Node14</title>
<g id="a_node14"><a xlink:href="erpc__threading_8h.html" target="_top" xlink:title="erpc_threading.h">
<polygon fill="white" stroke="black" points="134.5,-112.5 134.5,-131.5 223.5,-131.5 223.5,-112.5 134.5,-112.5"/>
<text text-anchor="middle" x="179" y="-119.5" font-family="Helvetica,sans-Serif" font-size="10.00">erpc_threading.h</text>
</a>
</g>
</g>
<!-- Node1&#45;&gt;Node14 -->
<g id="edge19" class="edge"><title>Node1&#45;&gt;Node14</title>
<path fill="none" stroke="midnightblue" d="M230.811,-224.486C225.411,-215.519 216.808,-200.935 210,-188 201.73,-172.286 193.094,-154.001 187.044,-140.834"/>
<polygon fill="midnightblue" stroke="midnightblue" points="190.132,-139.17 182.803,-131.519 183.762,-142.071 190.132,-139.17"/>
</g>
<!-- Node3 -->
<g id="node3" class="node"><title>Node3</title>
<g id="a_node3"><a xlink:href="erpc__config__internal_8h_source.html" target="_top" xlink:title="erpc_config_internal.h">
<polygon fill="white" stroke="black" points="51.5,-56.5 51.5,-75.5 162.5,-75.5 162.5,-56.5 51.5,-56.5"/>
<text text-anchor="middle" x="107" y="-63.5" font-family="Helvetica,sans-Serif" font-size="10.00">erpc_config_internal.h</text>
</a>
</g>
</g>
<!-- Node2&#45;&gt;Node3 -->
<g id="edge2" class="edge"><title>Node2&#45;&gt;Node3</title>
<path fill="none" stroke="midnightblue" d="M279.97,-168.141C271.679,-154.288 253.865,-127.483 232,-112 209.583,-96.1261 180.971,-85.2828 156.78,-78.2249"/>
<polygon fill="midnightblue" stroke="midnightblue" points="157.632,-74.8292 147.06,-75.5199 155.755,-81.5729 157.632,-74.8292"/>
</g>
<!-- Node6 -->
<g id="node6" class="node"><title>Node6</title>
<g id="a_node6"><a xlink:href="erpc__message__buffer_8hpp.html" target="_top" xlink:title="erpc_message_buffer.hpp">
<polygon fill="white" stroke="black" points="219,-56.5 219,-75.5 347,-75.5 347,-56.5 219,-56.5"/>
<text text-anchor="middle" x="283" y="-63.5" font-family="Helvetica,sans-Serif" font-size="10.00">erpc_message_buffer.hpp</text>
</a>
</g>
</g>
<!-- Node2&#45;&gt;Node6 -->
<g id="edge5" class="edge"><title>Node2&#45;&gt;Node6</title>
<path fill="none" stroke="midnightblue" d="M284.843,-168.368C284.52,-150.617 283.776,-109.666 283.338,-85.5974"/>
<polygon fill="midnightblue" stroke="midnightblue" points="286.838,-85.5261 283.156,-75.5914 279.839,-85.6534 286.838,-85.5261"/>
</g>
<!-- Node10 -->
<g id="node10" class="node"><title>Node10</title>
<g id="a_node10"><a xlink:href="erpc__transport_8hpp.html" target="_top" xlink:title="erpc_transport.hpp">
<polygon fill="white" stroke="black" points="326,-112.5 326,-131.5 424,-131.5 424,-112.5 326,-112.5"/>
<text text-anchor="middle" x="375" y="-119.5" font-family="Helvetica,sans-Serif" font-size="10.00">erpc_transport.hpp</text>
</a>
</g>
</g>
<!-- Node2&#45;&gt;Node10 -->
<g id="edge9" class="edge"><title>Node2&#45;&gt;Node10</title>
<path fill="none" stroke="midnightblue" d="M299.46,-168.324C313.5,-159.9 335.048,-146.971 351.543,-137.074"/>
<polygon fill="midnightblue" stroke="midnightblue" points="353.802,-139.801 360.576,-131.655 350.2,-133.798 353.802,-139.801"/>
</g>
<!-- Node13 -->
<g id="node13" class="node"><title>Node13</title>
<polygon fill="white" stroke="#bfbfbf" points="505,-56.5 505,-75.5 551,-75.5 551,-56.5 505,-56.5"/>
<text text-anchor="middle" x="528" y="-63.5" font-family="Helvetica,sans-Serif" font-size="10.00">cstring</text>
</g>
<!-- Node2&#45;&gt;Node13 -->
<g id="edge15" class="edge"><title>Node2&#45;&gt;Node13</title>
<path fill="none" stroke="midnightblue" d="M324.545,-168.462C355.077,-161.052 397.895,-148.854 433,-132 461.642,-118.249 491.348,-96.5082 509.75,-82.0051"/>
<polygon fill="midnightblue" stroke="midnightblue" points="512.21,-84.5197 517.822,-75.5335 507.831,-79.0583 512.21,-84.5197"/>
</g>
<!-- Node2&#45;&gt;Node14 -->
<g id="edge16" class="edge"><title>Node2&#45;&gt;Node14</title>
<path fill="none" stroke="midnightblue" d="M267.969,-168.324C250.97,-159.664 224.624,-146.242 205.007,-136.249"/>
<polygon fill="midnightblue" stroke="midnightblue" points="206.488,-133.075 195.988,-131.655 203.31,-139.312 206.488,-133.075"/>
</g>
<!-- Node4 -->
<g id="node4" class="node"><title>Node4</title>
<g id="a_node4"><a xlink:href="erpc__config_8h.html" target="_top" xlink:title="erpc_config.h">
<polygon fill="white" stroke="black" points="0,-0.5 0,-19.5 74,-19.5 74,-0.5 0,-0.5"/>
<text text-anchor="middle" x="37" y="-7.5" font-family="Helvetica,sans-Serif" font-size="10.00">erpc_config.h</text>
</a>
</g>
</g>
<!-- Node3&#45;&gt;Node4 -->
<g id="edge3" class="edge"><title>Node3&#45;&gt;Node4</title>
<path fill="none" stroke="midnightblue" d="M95.7533,-56.324C85.2026,-48.1849 69.1993,-35.8395 56.5578,-26.0874"/>
<polygon fill="midnightblue" stroke="midnightblue" points="58.507,-23.1707 48.4513,-19.8339 54.2314,-28.7132 58.507,-23.1707"/>
</g>
<!-- Node5 -->
<g id="node5" class="node"><title>Node5</title>
<polygon fill="white" stroke="#bfbfbf" points="92.5,-0.5 92.5,-19.5 141.5,-19.5 141.5,-0.5 92.5,-0.5"/>
<text text-anchor="middle" x="117" y="-7.5" font-family="Helvetica,sans-Serif" font-size="10.00">cassert</text>
</g>
<!-- Node3&#45;&gt;Node5 -->
<g id="edge4" class="edge"><title>Node3&#45;&gt;Node5</title>
<path fill="none" stroke="midnightblue" d="M108.651,-56.083C109.976,-48.9272 111.882,-38.6353 113.539,-29.6911"/>
<polygon fill="midnightblue" stroke="midnightblue" points="117,-30.2212 115.379,-19.7511 110.117,-28.9466 117,-30.2212"/>
</g>
<!-- Node7 -->
<g id="node7" class="node"><title>Node7</title>
<g id="a_node7"><a xlink:href="erpc__common_8h_source.html" target="_top" xlink:title="erpc_common.h">
<polygon fill="white" stroke="black" points="322,-0.5 322,-19.5 408,-19.5 408,-0.5 322,-0.5"/>
<text text-anchor="middle" x="365" y="-7.5" font-family="Helvetica,sans-Serif" font-size="10.00">erpc_common.h</text>
</a>
</g>
</g>
<!-- Node6&#45;&gt;Node7 -->
<g id="edge6" class="edge"><title>Node6&#45;&gt;Node7</title>
<path fill="none" stroke="midnightblue" d="M296.175,-56.324C308.847,-47.979 328.233,-35.2122 343.206,-25.3524"/>
<polygon fill="midnightblue" stroke="midnightblue" points="345.431,-28.0776 351.858,-19.6545 341.581,-22.2313 345.431,-28.0776"/>
</g>
<!-- Node8 -->
<g id="node8" class="node"><title>Node8</title>
<polygon fill="white" stroke="#bfbfbf" points="256,-0.5 256,-19.5 304,-19.5 304,-0.5 256,-0.5"/>
<text text-anchor="middle" x="280" y="-7.5" font-family="Helvetica,sans-Serif" font-size="10.00">cstddef</text>
</g>
<!-- Node6&#45;&gt;Node8 -->
<g id="edge7" class="edge"><title>Node6&#45;&gt;Node8</title>
<path fill="none" stroke="midnightblue" d="M282.505,-56.083C282.111,-49.0059 281.548,-38.8611 281.055,-29.9865"/>
<polygon fill="midnightblue" stroke="midnightblue" points="284.536,-29.5415 280.486,-19.7511 277.546,-29.9299 284.536,-29.5415"/>
</g>
<!-- Node9 -->
<g id="node9" class="node"><title>Node9</title>
<polygon fill="white" stroke="#bfbfbf" points="178.5,-0.5 178.5,-19.5 227.5,-19.5 227.5,-0.5 178.5,-0.5"/>
<text text-anchor="middle" x="203" y="-7.5" font-family="Helvetica,sans-Serif" font-size="10.00">stdint.h</text>
</g>
<!-- Node6&#45;&gt;Node9 -->
<g id="edge8" class="edge"><title>Node6&#45;&gt;Node9</title>
<path fill="none" stroke="midnightblue" d="M270.147,-56.324C257.784,-47.979 238.87,-35.2122 224.263,-25.3524"/>
<polygon fill="midnightblue" stroke="midnightblue" points="226.068,-22.3483 215.821,-19.6545 222.152,-28.1503 226.068,-22.3483"/>
</g>
<!-- Node10&#45;&gt;Node6 -->
<g id="edge13" class="edge"><title>Node10&#45;&gt;Node6</title>
<path fill="none" stroke="midnightblue" d="M360.219,-112.324C345.733,-103.822 323.427,-90.7288 306.507,-80.7975"/>
<polygon fill="midnightblue" stroke="midnightblue" points="308.141,-77.6981 297.745,-75.6545 304.597,-83.735 308.141,-77.6981"/>
</g>
<!-- Node10&#45;&gt;Node7 -->
<g id="edge10" class="edge"><title>Node10&#45;&gt;Node7</title>
<path fill="none" stroke="midnightblue" d="M374.215,-112.368C372.602,-94.617 368.879,-53.6664 366.691,-29.5974"/>
<polygon fill="midnightblue" stroke="midnightblue" points="370.172,-29.2334 365.781,-19.5914 363.201,-29.8673 370.172,-29.2334"/>
</g>
<!-- Node11 -->
<g id="node11" class="node"><title>Node11</title>
<g id="a_node11"><a xlink:href="erpc__crc16_8hpp.html" target="_top" xlink:title="erpc_crc16.hpp">
<polygon fill="white" stroke="black" points="403.5,-56.5 403.5,-75.5 486.5,-75.5 486.5,-56.5 403.5,-56.5"/>
<text text-anchor="middle" x="445" y="-63.5" font-family="Helvetica,sans-Serif" font-size="10.00">erpc_crc16.hpp</text>
</a>
</g>
</g>
<!-- Node10&#45;&gt;Node11 -->
<g id="edge11" class="edge"><title>Node10&#45;&gt;Node11</title>
<path fill="none" stroke="midnightblue" d="M386.247,-112.324C396.797,-104.185 412.801,-91.8395 425.442,-82.0874"/>
<polygon fill="midnightblue" stroke="midnightblue" points="427.769,-84.7132 433.549,-75.8339 423.493,-79.1707 427.769,-84.7132"/>
</g>
<!-- Node10&#45;&gt;Node13 -->
<g id="edge14" class="edge"><title>Node10&#45;&gt;Node13</title>
<path fill="none" stroke="midnightblue" d="M399.243,-112.444C425.172,-103.292 466.443,-88.726 495.248,-78.5594"/>
<polygon fill="midnightblue" stroke="midnightblue" points="496.607,-81.7917 504.872,-75.1629 494.277,-75.1907 496.607,-81.7917"/>
</g>
<!-- Node12 -->
<g id="node12" class="node"><title>Node12</title>
<polygon fill="white" stroke="#bfbfbf" points="426,-0.5 426,-19.5 472,-19.5 472,-0.5 426,-0.5"/>
<text text-anchor="middle" x="449" y="-7.5" font-family="Helvetica,sans-Serif" font-size="10.00">cstdint</text>
</g>
<!-- Node11&#45;&gt;Node12 -->
<g id="edge12" class="edge"><title>Node11&#45;&gt;Node12</title>
<path fill="none" stroke="midnightblue" d="M445.661,-56.083C446.185,-49.0059 446.936,-38.8611 447.594,-29.9865"/>
<polygon fill="midnightblue" stroke="midnightblue" points="451.103,-29.9823 448.352,-19.7511 444.123,-29.4652 451.103,-29.9823"/>
</g>
<!-- Node14&#45;&gt;Node3 -->
<g id="edge17" class="edge"><title>Node14&#45;&gt;Node3</title>
<path fill="none" stroke="midnightblue" d="M167.432,-112.324C156.58,-104.185 140.119,-91.8395 127.117,-82.0874"/>
<polygon fill="midnightblue" stroke="midnightblue" points="128.879,-79.0339 118.779,-75.8339 124.679,-84.6339 128.879,-79.0339"/>
</g>
<!-- Node14&#45;&gt;Node9 -->
<g id="edge18" class="edge"><title>Node14&#45;&gt;Node9</title>
<path fill="none" stroke="midnightblue" d="M180.883,-112.368C184.756,-94.617 193.691,-53.6664 198.942,-29.5974"/>
<polygon fill="midnightblue" stroke="midnightblue" points="202.413,-30.1077 201.126,-19.5914 195.574,-28.6155 202.413,-30.1077"/>
</g>
</g>
</svg>
