<?xml version="1.0" encoding="UTF-8" standalone="no"?>
<!DOCTYPE svg PUBLIC "-//W3C//DTD SVG 1.1//EN"
 "http://www.w3.org/Graphics/SVG/1.1/DTD/svg11.dtd">
<!-- Generated by graphviz version 2.38.0 (20140413.2041)
 -->
<!-- Title: erpc_server_setup.h Pages: 1 -->
<svg width="356pt" height="196pt"
 viewBox="0.00 0.00 356.00 196.00" xmlns="http://www.w3.org/2000/svg" xmlns:xlink="http://www.w3.org/1999/xlink">
<g id="graph0" class="graph" transform="scale(1 1) rotate(0) translate(4 192)">
<title>erpc_server_setup.h</title>
<polygon fill="white" stroke="none" points="-4,4 -4,-192 352,-192 352,4 -4,4"/>
<!-- Node1 -->
<g id="node1" class="node"><title>Node1</title>
<polygon fill="#bfbfbf" stroke="black" points="137,-168.5 137,-187.5 241,-187.5 241,-168.5 137,-168.5"/>
<text text-anchor="middle" x="189" y="-175.5" font-family="Helvetica,sans-Serif" font-size="10.00">erpc_server_setup.h</text>
</g>
<!-- Node2 -->
<g id="node2" class="node"><title>Node2</title>
<g id="a_node2"><a xlink:href="erpc__common_8h_source.html" target="_top" xlink:title="erpc_common.h">
<polygon fill="white" stroke="black" points="0,-56.5 0,-75.5 86,-75.5 86,-56.5 0,-56.5"/>
<text text-anchor="middle" x="43" y="-63.5" font-family="Helvetica,sans-Serif" font-size="10.00">erpc_common.h</text>
</a>
</g>
</g>
<!-- Node1&#45;&gt;Node2 -->
<g id="edge1" class="edge"><title>Node1&#45;&gt;Node2</title>
<path fill="none" stroke="midnightblue" d="M166.417,-168.429C147.553,-160.628 120.525,-147.913 100,-132 82.0964,-118.119 65.4899,-98.0108 54.8748,-83.8437"/>
<polygon fill="midnightblue" stroke="midnightblue" points="57.5271,-81.5403 48.8109,-75.5171 51.8686,-85.6611 57.5271,-81.5403"/>
</g>
<!-- Node3 -->
<g id="node3" class="node"><title>Node3</title>
<polygon fill="white" stroke="#bfbfbf" points="89.5,-0.5 89.5,-19.5 138.5,-19.5 138.5,-0.5 89.5,-0.5"/>
<text text-anchor="middle" x="114" y="-7.5" font-family="Helvetica,sans-Serif" font-size="10.00">stdint.h</text>
</g>
<!-- Node1&#45;&gt;Node3 -->
<g id="edge9" class="edge"><title>Node1&#45;&gt;Node3</title>
<path fill="none" stroke="midnightblue" d="M172.709,-168.416C159.754,-160.688 142.311,-148.083 133,-132 114.328,-99.7503 112.316,-54.9515 112.905,-29.8974"/>
<polygon fill="midnightblue" stroke="midnightblue" points="116.414,-29.7422 113.325,-19.6078 109.42,-29.4569 116.414,-29.7422"/>
</g>
<!-- Node4 -->
<g id="node4" class="node"><title>Node4</title>
<g id="a_node4"><a xlink:href="erpc__mbf__setup_8h.html" target="_top" xlink:title="erpc_mbf_setup.h">
<polygon fill="white" stroke="black" points="142,-112.5 142,-131.5 236,-131.5 236,-112.5 142,-112.5"/>
<text text-anchor="middle" x="189" y="-119.5" font-family="Helvetica,sans-Serif" font-size="10.00">erpc_mbf_setup.h</text>
</a>
</g>
</g>
<!-- Node1&#45;&gt;Node4 -->
<g id="edge3" class="edge"><title>Node1&#45;&gt;Node4</title>
<path fill="none" stroke="midnightblue" d="M189,-168.083C189,-161.006 189,-150.861 189,-141.986"/>
<polygon fill="midnightblue" stroke="midnightblue" points="192.5,-141.751 189,-131.751 185.5,-141.751 192.5,-141.751"/>
</g>
<!-- Node5 -->
<g id="node5" class="node"><title>Node5</title>
<g id="a_node5"><a xlink:href="erpc__transport__setup_8h.html" target="_top" xlink:title="erpc_transport_setup.h">
<polygon fill="white" stroke="black" points="142,-56.5 142,-75.5 258,-75.5 258,-56.5 142,-56.5"/>
<text text-anchor="middle" x="200" y="-63.5" font-family="Helvetica,sans-Serif" font-size="10.00">erpc_transport_setup.h</text>
</a>
</g>
</g>
<!-- Node1&#45;&gt;Node5 -->
<g id="edge7" class="edge"><title>Node1&#45;&gt;Node5</title>
<path fill="none" stroke="midnightblue" d="M206.502,-168.465C219.787,-160.917 237.076,-148.533 245,-132 253.809,-113.62 237.256,-94.6919 221.801,-82.0362"/>
<polygon fill="midnightblue" stroke="midnightblue" points="223.568,-78.9814 213.496,-75.6938 219.319,-84.5447 223.568,-78.9814"/>
</g>
<!-- Node7 -->
<g id="node7" class="node"><title>Node7</title>
<polygon fill="white" stroke="#bfbfbf" points="292,-112.5 292,-131.5 348,-131.5 348,-112.5 292,-112.5"/>
<text text-anchor="middle" x="320" y="-119.5" font-family="Helvetica,sans-Serif" font-size="10.00">stdbool.h</text>
</g>
<!-- Node1&#45;&gt;Node7 -->
<g id="edge8" class="edge"><title>Node1&#45;&gt;Node7</title>
<path fill="none" stroke="midnightblue" d="M209.757,-168.444C231.316,-159.557 265.263,-145.563 289.794,-135.451"/>
<polygon fill="midnightblue" stroke="midnightblue" points="291.428,-138.563 299.34,-131.516 288.761,-132.092 291.428,-138.563"/>
</g>
<!-- Node2&#45;&gt;Node3 -->
<g id="edge2" class="edge"><title>Node2&#45;&gt;Node3</title>
<path fill="none" stroke="midnightblue" d="M54.4074,-56.324C65.1088,-48.1849 81.3407,-35.8395 94.1628,-26.0874"/>
<polygon fill="midnightblue" stroke="midnightblue" points="96.5444,-28.6734 102.385,-19.8339 92.3068,-23.1018 96.5444,-28.6734"/>
</g>
<!-- Node4&#45;&gt;Node5 -->
<g id="edge4" class="edge"><title>Node4&#45;&gt;Node5</title>
<path fill="none" stroke="midnightblue" d="M190.816,-112.083C192.274,-104.927 194.371,-94.6353 196.193,-85.6911"/>
<polygon fill="midnightblue" stroke="midnightblue" points="199.651,-86.2485 198.217,-75.7511 192.792,-84.8512 199.651,-86.2485"/>
</g>
<!-- Node5&#45;&gt;Node3 -->
<g id="edge6" class="edge"><title>Node5&#45;&gt;Node3</title>
<path fill="none" stroke="midnightblue" d="M186.183,-56.324C172.767,-47.9002 152.176,-34.9709 136.414,-25.0741"/>
<polygon fill="midnightblue" stroke="midnightblue" points="138.113,-22.0081 127.783,-19.6545 134.391,-27.9364 138.113,-22.0081"/>
</g>
<!-- Node6 -->
<g id="node6" class="node"><title>Node6</title>
<g id="a_node6"><a xlink:href="erpc__version_8h_source.html" target="_top" xlink:title="erpc_version.h">
<polygon fill="white" stroke="black" points="160.5,-0.5 160.5,-19.5 239.5,-19.5 239.5,-0.5 160.5,-0.5"/>
<text text-anchor="middle" x="200" y="-7.5" font-family="Helvetica,sans-Serif" font-size="10.00">erpc_version.h</text>
</a>
</g>
</g>
<!-- Node5&#45;&gt;Node6 -->
<g id="edge5" class="edge"><title>Node5&#45;&gt;Node6</title>
<path fill="none" stroke="midnightblue" d="M200,-56.083C200,-49.0059 200,-38.8611 200,-29.9865"/>
<polygon fill="midnightblue" stroke="midnightblue" points="203.5,-29.751 200,-19.7511 196.5,-29.7511 203.5,-29.751"/>
</g>
</g>
</svg>
