<?xml version="1.0" encoding="UTF-8" standalone="no"?>
<!DOCTYPE svg PUBLIC "-//W3C//DTD SVG 1.1//EN"
 "http://www.w3.org/Graphics/SVG/1.1/DTD/svg11.dtd">
<!-- Generated by graphviz version 2.38.0 (20140413.2041)
 -->
<!-- Title: erpc_transport_arbitrator.hpp Pages: 1 -->
<svg width="589pt" height="375pt"
 viewBox="0.00 0.00 588.97 375.00" xmlns="http://www.w3.org/2000/svg" xmlns:xlink="http://www.w3.org/1999/xlink">
<g id="graph0" class="graph" transform="scale(1 1) rotate(0) translate(4 371)">
<title>erpc_transport_arbitrator.hpp</title>
<polygon fill="white" stroke="none" points="-4,4 -4,-371 584.974,-371 584.974,4 -4,4"/>
<!-- Node1 -->
<g id="node1" class="node"><title>Node1</title>
<polygon fill="#bfbfbf" stroke="black" points="220.974,-347.5 220.974,-366.5 361.974,-366.5 361.974,-347.5 220.974,-347.5"/>
<text text-anchor="middle" x="291.474" y="-354.5" font-family="Helvetica,sans-Serif" font-size="10.00">erpc_transport_arbitrator.hpp</text>
</g>
<!-- Node2 -->
<g id="node2" class="node"><title>Node2</title>
<g id="a_node2"><a xlink:href="erpc__client__manager_8h.html" target="_top" xlink:title="erpc_client_manager.h">
<polygon fill="white" stroke="black" points="190.974,-291.5 190.974,-310.5 305.974,-310.5 305.974,-291.5 190.974,-291.5"/>
<text text-anchor="middle" x="248.474" y="-298.5" font-family="Helvetica,sans-Serif" font-size="10.00">erpc_client_manager.h</text>
</a>
</g>
</g>
<!-- Node1&#45;&gt;Node2 -->
<g id="edge1" class="edge"><title>Node1&#45;&gt;Node2</title>
<path fill="none" stroke="midnightblue" d="M284.373,-347.083C278.237,-339.377 269.204,-328.033 261.734,-318.653"/>
<polygon fill="midnightblue" stroke="midnightblue" points="264.409,-316.394 255.442,-310.751 258.933,-320.754 264.409,-316.394"/>
</g>
<!-- Node7 -->
<g id="node7" class="node"><title>Node7</title>
<g id="a_node7"><a xlink:href="erpc__codec_8hpp.html" target="_top" xlink:title="erpc_codec.hpp">
<polygon fill="white" stroke="black" points="291.474,-168.5 291.474,-187.5 377.474,-187.5 377.474,-168.5 291.474,-168.5"/>
<text text-anchor="middle" x="334.474" y="-175.5" font-family="Helvetica,sans-Serif" font-size="10.00">erpc_codec.hpp</text>
</a>
</g>
</g>
<!-- Node1&#45;&gt;Node7 -->
<g id="edge20" class="edge"><title>Node1&#45;&gt;Node7</title>
<path fill="none" stroke="midnightblue" d="M296.936,-347.399C302.263,-338.6 310.172,-324.363 314.474,-311 327.038,-271.969 331.788,-223.847 333.524,-197.837"/>
<polygon fill="midnightblue" stroke="midnightblue" points="337.035,-197.743 334.127,-187.555 330.047,-197.333 337.035,-197.743"/>
</g>
<!-- Node12 -->
<g id="node12" class="node"><title>Node12</title>
<g id="a_node12"><a xlink:href="erpc__transport_8hpp.html" target="_top" xlink:title="erpc_transport.hpp">
<polygon fill="white" stroke="black" points="420.474,-112.5 420.474,-131.5 518.474,-131.5 518.474,-112.5 420.474,-112.5"/>
<text text-anchor="middle" x="469.474" y="-119.5" font-family="Helvetica,sans-Serif" font-size="10.00">erpc_transport.hpp</text>
</a>
</g>
</g>
<!-- Node1&#45;&gt;Node12 -->
<g id="edge24" class="edge"><title>Node1&#45;&gt;Node12</title>
<path fill="none" stroke="midnightblue" d="M299.694,-347.248C307.962,-338.332 320.958,-324.005 331.474,-311 380.803,-249.989 434.524,-173.622 457.723,-140.106"/>
<polygon fill="midnightblue" stroke="midnightblue" points="460.63,-142.055 463.428,-131.837 454.868,-138.08 460.63,-142.055"/>
</g>
<!-- Node16 -->
<g id="node16" class="node"><title>Node16</title>
<g id="a_node16"><a xlink:href="erpc__threading_8h.html" target="_top" xlink:title="erpc_threading.h">
<polygon fill="white" stroke="black" points="87.9735,-230 87.9735,-249 176.974,-249 176.974,-230 87.9735,-230"/>
<text text-anchor="middle" x="132.474" y="-237" font-family="Helvetica,sans-Serif" font-size="10.00">erpc_threading.h</text>
</a>
</g>
</g>
<!-- Node1&#45;&gt;Node16 -->
<g id="edge21" class="edge"><title>Node1&#45;&gt;Node16</title>
<path fill="none" stroke="midnightblue" d="M257.065,-347.485C233.917,-340.497 203.688,-328.813 181.474,-311 163.54,-296.62 149.431,-273.981 141.047,-258.252"/>
<polygon fill="midnightblue" stroke="midnightblue" points="144.031,-256.399 136.381,-249.07 137.791,-259.57 144.031,-256.399"/>
</g>
<!-- Node3 -->
<g id="node3" class="node"><title>Node3</title>
<g id="a_node3"><a xlink:href="erpc__client__server__common_8hpp.html" target="_top" xlink:title="erpc_client_server\l_common.hpp">
<polygon fill="white" stroke="black" points="200.974,-224.5 200.974,-254.5 295.974,-254.5 295.974,-224.5 200.974,-224.5"/>
<text text-anchor="start" x="208.974" y="-242.5" font-family="Helvetica,sans-Serif" font-size="10.00">erpc_client_server</text>
<text text-anchor="middle" x="248.474" y="-231.5" font-family="Helvetica,sans-Serif" font-size="10.00">_common.hpp</text>
</a>
</g>
</g>
<!-- Node2&#45;&gt;Node3 -->
<g id="edge2" class="edge"><title>Node2&#45;&gt;Node3</title>
<path fill="none" stroke="midnightblue" d="M248.474,-291.475C248.474,-284.471 248.474,-274.192 248.474,-264.696"/>
<polygon fill="midnightblue" stroke="midnightblue" points="251.974,-264.523 248.474,-254.523 244.974,-264.523 251.974,-264.523"/>
</g>
<!-- Node4 -->
<g id="node4" class="node"><title>Node4</title>
<g id="a_node4"><a xlink:href="erpc__config__internal_8h_source.html" target="_top" xlink:title="erpc_config_internal.h">
<polygon fill="white" stroke="black" points="76.9735,-168.5 76.9735,-187.5 187.974,-187.5 187.974,-168.5 76.9735,-168.5"/>
<text text-anchor="middle" x="132.474" y="-175.5" font-family="Helvetica,sans-Serif" font-size="10.00">erpc_config_internal.h</text>
</a>
</g>
</g>
<!-- Node3&#45;&gt;Node4 -->
<g id="edge3" class="edge"><title>Node3&#45;&gt;Node4</title>
<path fill="none" stroke="midnightblue" d="M220.983,-224.399C202.042,-214.684 177.031,-201.855 158.43,-192.314"/>
<polygon fill="midnightblue" stroke="midnightblue" points="159.848,-189.108 149.353,-187.658 156.653,-195.336 159.848,-189.108"/>
</g>
<!-- Node3&#45;&gt;Node7 -->
<g id="edge6" class="edge"><title>Node3&#45;&gt;Node7</title>
<path fill="none" stroke="midnightblue" d="M268.854,-224.399C282.382,-215.04 300.084,-202.792 313.693,-193.377"/>
<polygon fill="midnightblue" stroke="midnightblue" points="315.727,-196.226 321.96,-187.658 311.745,-190.469 315.727,-196.226"/>
</g>
<!-- Node5 -->
<g id="node5" class="node"><title>Node5</title>
<g id="a_node5"><a xlink:href="erpc__config_8h.html" target="_top" xlink:title="erpc_config.h">
<polygon fill="white" stroke="black" points="15.4735,-112.5 15.4735,-131.5 89.4735,-131.5 89.4735,-112.5 15.4735,-112.5"/>
<text text-anchor="middle" x="52.4735" y="-119.5" font-family="Helvetica,sans-Serif" font-size="10.00">erpc_config.h</text>
</a>
</g>
</g>
<!-- Node4&#45;&gt;Node5 -->
<g id="edge4" class="edge"><title>Node4&#45;&gt;Node5</title>
<path fill="none" stroke="midnightblue" d="M119.62,-168.324C107.257,-159.979 88.3434,-147.212 73.7364,-137.352"/>
<polygon fill="midnightblue" stroke="midnightblue" points="75.5417,-134.348 65.295,-131.655 71.6253,-140.15 75.5417,-134.348"/>
</g>
<!-- Node6 -->
<g id="node6" class="node"><title>Node6</title>
<polygon fill="white" stroke="#bfbfbf" points="107.974,-112.5 107.974,-131.5 156.974,-131.5 156.974,-112.5 107.974,-112.5"/>
<text text-anchor="middle" x="132.474" y="-119.5" font-family="Helvetica,sans-Serif" font-size="10.00">cassert</text>
</g>
<!-- Node4&#45;&gt;Node6 -->
<g id="edge5" class="edge"><title>Node4&#45;&gt;Node6</title>
<path fill="none" stroke="midnightblue" d="M132.474,-168.083C132.474,-161.006 132.474,-150.861 132.474,-141.986"/>
<polygon fill="midnightblue" stroke="midnightblue" points="135.974,-141.751 132.474,-131.751 128.974,-141.751 135.974,-141.751"/>
</g>
<!-- Node8 -->
<g id="node8" class="node"><title>Node8</title>
<g id="a_node8"><a xlink:href="erpc__common_8h_source.html" target="_top" xlink:title="erpc_common.h">
<polygon fill="white" stroke="black" points="388.474,-0.5 388.474,-19.5 474.474,-19.5 474.474,-0.5 388.474,-0.5"/>
<text text-anchor="middle" x="431.474" y="-7.5" font-family="Helvetica,sans-Serif" font-size="10.00">erpc_common.h</text>
</a>
</g>
</g>
<!-- Node7&#45;&gt;Node8 -->
<g id="edge7" class="edge"><title>Node7&#45;&gt;Node8</title>
<path fill="none" stroke="midnightblue" d="M343.042,-168.326C358.947,-151.765 393.171,-113.906 412.474,-76 419.976,-61.267 424.969,-43.1065 427.946,-29.7297"/>
<polygon fill="midnightblue" stroke="midnightblue" points="431.402,-30.298 429.983,-19.7986 424.545,-28.8913 431.402,-30.298"/>
</g>
<!-- Node9 -->
<g id="node9" class="node"><title>Node9</title>
<g id="a_node9"><a xlink:href="erpc__message__buffer_8hpp.html" target="_top" xlink:title="erpc_message_buffer.hpp">
<polygon fill="white" stroke="black" points="275.474,-56.5 275.474,-75.5 403.474,-75.5 403.474,-56.5 275.474,-56.5"/>
<text text-anchor="middle" x="339.474" y="-63.5" font-family="Helvetica,sans-Serif" font-size="10.00">erpc_message_buffer.hpp</text>
</a>
</g>
</g>
<!-- Node7&#45;&gt;Node9 -->
<g id="edge8" class="edge"><title>Node7&#45;&gt;Node9</title>
<path fill="none" stroke="midnightblue" d="M334.866,-168.368C335.673,-150.617 337.534,-109.666 338.628,-85.5974"/>
<polygon fill="midnightblue" stroke="midnightblue" points="342.125,-85.7401 339.083,-75.5914 335.132,-85.4221 342.125,-85.7401"/>
</g>
<!-- Node11 -->
<g id="node11" class="node"><title>Node11</title>
<polygon fill="white" stroke="#bfbfbf" points="158.974,-0.5 158.974,-19.5 207.974,-19.5 207.974,-0.5 158.974,-0.5"/>
<text text-anchor="middle" x="183.474" y="-7.5" font-family="Helvetica,sans-Serif" font-size="10.00">stdint.h</text>
</g>
<!-- Node7&#45;&gt;Node11 -->
<g id="edge19" class="edge"><title>Node7&#45;&gt;Node11</title>
<path fill="none" stroke="midnightblue" d="M316.963,-168.477C288.491,-153.703 232.344,-120.591 202.474,-76 193.17,-62.1113 188.34,-43.5988 185.884,-29.8833"/>
<polygon fill="midnightblue" stroke="midnightblue" points="189.298,-29.0567 184.333,-19.6974 182.378,-30.1103 189.298,-29.0567"/>
</g>
<!-- Node7&#45;&gt;Node12 -->
<g id="edge12" class="edge"><title>Node7&#45;&gt;Node12</title>
<path fill="none" stroke="midnightblue" d="M355.865,-168.444C378.181,-159.517 413.377,-145.439 438.681,-135.317"/>
<polygon fill="midnightblue" stroke="midnightblue" points="440.198,-138.48 448.182,-131.516 437.598,-131.981 440.198,-138.48"/>
</g>
<!-- Node15 -->
<g id="node15" class="node"><title>Node15</title>
<polygon fill="white" stroke="#bfbfbf" points="211.474,-56.5 211.474,-75.5 257.474,-75.5 257.474,-56.5 211.474,-56.5"/>
<text text-anchor="middle" x="234.474" y="-63.5" font-family="Helvetica,sans-Serif" font-size="10.00">cstring</text>
</g>
<!-- Node7&#45;&gt;Node15 -->
<g id="edge18" class="edge"><title>Node7&#45;&gt;Node15</title>
<path fill="none" stroke="midnightblue" d="M326.627,-168.368C309.905,-149.974 270.538,-106.671 249.066,-83.0519"/>
<polygon fill="midnightblue" stroke="midnightblue" points="251.6,-80.6365 242.284,-75.5914 246.421,-85.3452 251.6,-80.6365"/>
</g>
<!-- Node9&#45;&gt;Node8 -->
<g id="edge9" class="edge"><title>Node9&#45;&gt;Node8</title>
<path fill="none" stroke="midnightblue" d="M354.255,-56.324C368.741,-47.8215 391.047,-34.7288 407.967,-24.7975"/>
<polygon fill="midnightblue" stroke="midnightblue" points="409.876,-27.735 416.729,-19.6545 406.333,-21.6981 409.876,-27.735"/>
</g>
<!-- Node10 -->
<g id="node10" class="node"><title>Node10</title>
<polygon fill="white" stroke="#bfbfbf" points="315.474,-0.5 315.474,-19.5 363.474,-19.5 363.474,-0.5 315.474,-0.5"/>
<text text-anchor="middle" x="339.474" y="-7.5" font-family="Helvetica,sans-Serif" font-size="10.00">cstddef</text>
</g>
<!-- Node9&#45;&gt;Node10 -->
<g id="edge10" class="edge"><title>Node9&#45;&gt;Node10</title>
<path fill="none" stroke="midnightblue" d="M339.474,-56.083C339.474,-49.0059 339.474,-38.8611 339.474,-29.9865"/>
<polygon fill="midnightblue" stroke="midnightblue" points="342.974,-29.751 339.474,-19.7511 335.974,-29.7511 342.974,-29.751"/>
</g>
<!-- Node9&#45;&gt;Node11 -->
<g id="edge11" class="edge"><title>Node9&#45;&gt;Node11</title>
<path fill="none" stroke="midnightblue" d="M314.755,-56.4435C288.625,-47.3986 247.214,-33.064 217.897,-22.9158"/>
<polygon fill="midnightblue" stroke="midnightblue" points="218.671,-19.4801 208.077,-19.5164 216.381,-26.0951 218.671,-19.4801"/>
</g>
<!-- Node12&#45;&gt;Node8 -->
<g id="edge13" class="edge"><title>Node12&#45;&gt;Node8</title>
<path fill="none" stroke="midnightblue" d="M466.492,-112.368C460.332,-94.5366 446.085,-53.2953 437.786,-29.2717"/>
<polygon fill="midnightblue" stroke="midnightblue" points="441.015,-27.9005 434.441,-19.5914 434.399,-30.1862 441.015,-27.9005"/>
</g>
<!-- Node12&#45;&gt;Node9 -->
<g id="edge16" class="edge"><title>Node12&#45;&gt;Node9</title>
<path fill="none" stroke="midnightblue" d="M448.875,-112.444C427.48,-103.557 393.792,-89.5632 369.449,-79.4514"/>
<polygon fill="midnightblue" stroke="midnightblue" points="370.554,-76.1203 359.976,-75.5164 367.868,-82.5848 370.554,-76.1203"/>
</g>
<!-- Node13 -->
<g id="node13" class="node"><title>Node13</title>
<g id="a_node13"><a xlink:href="erpc__crc16_8hpp.html" target="_top" xlink:title="erpc_crc16.hpp">
<polygon fill="white" stroke="black" points="497.974,-56.5 497.974,-75.5 580.974,-75.5 580.974,-56.5 497.974,-56.5"/>
<text text-anchor="middle" x="539.474" y="-63.5" font-family="Helvetica,sans-Serif" font-size="10.00">erpc_crc16.hpp</text>
</a>
</g>
</g>
<!-- Node12&#45;&gt;Node13 -->
<g id="edge14" class="edge"><title>Node12&#45;&gt;Node13</title>
<path fill="none" stroke="midnightblue" d="M480.72,-112.324C491.271,-104.185 507.274,-91.8395 519.916,-82.0874"/>
<polygon fill="midnightblue" stroke="midnightblue" points="522.242,-84.7132 528.022,-75.8339 517.967,-79.1707 522.242,-84.7132"/>
</g>
<!-- Node12&#45;&gt;Node15 -->
<g id="edge17" class="edge"><title>Node12&#45;&gt;Node15</title>
<path fill="none" stroke="midnightblue" d="M427.713,-112.457C388.649,-104.306 328.465,-91.3432 267.322,-76.108"/>
<polygon fill="midnightblue" stroke="midnightblue" points="268.056,-72.6835 257.504,-73.6437 266.351,-79.4729 268.056,-72.6835"/>
</g>
<!-- Node14 -->
<g id="node14" class="node"><title>Node14</title>
<polygon fill="white" stroke="#bfbfbf" points="516.474,-0.5 516.474,-19.5 562.474,-19.5 562.474,-0.5 516.474,-0.5"/>
<text text-anchor="middle" x="539.474" y="-7.5" font-family="Helvetica,sans-Serif" font-size="10.00">cstdint</text>
</g>
<!-- Node13&#45;&gt;Node14 -->
<g id="edge15" class="edge"><title>Node13&#45;&gt;Node14</title>
<path fill="none" stroke="midnightblue" d="M539.474,-56.083C539.474,-49.0059 539.474,-38.8611 539.474,-29.9865"/>
<polygon fill="midnightblue" stroke="midnightblue" points="542.974,-29.751 539.474,-19.7511 535.974,-29.7511 542.974,-29.751"/>
</g>
<!-- Node16&#45;&gt;Node4 -->
<g id="edge22" class="edge"><title>Node16&#45;&gt;Node4</title>
<path fill="none" stroke="midnightblue" d="M132.474,-229.975C132.474,-221.58 132.474,-208.481 132.474,-197.663"/>
<polygon fill="midnightblue" stroke="midnightblue" points="135.974,-197.509 132.474,-187.509 128.974,-197.509 135.974,-197.509"/>
</g>
<!-- Node16&#45;&gt;Node11 -->
<g id="edge23" class="edge"><title>Node16&#45;&gt;Node11</title>
<path fill="none" stroke="midnightblue" d="M110.925,-229.995C67.4163,-211.487 -24.2704,-164.94 6.47353,-112 37.0859,-59.2864 106.667,-31.7788 148.896,-19.4259"/>
<polygon fill="midnightblue" stroke="midnightblue" points="150.058,-22.7355 158.747,-16.6737 148.174,-15.9937 150.058,-22.7355"/>
</g>
</g>
</svg>
