<?xml version="1.0" encoding="UTF-8" standalone="no"?>
<!DOCTYPE svg PUBLIC "-//W3C//DTD SVG 1.1//EN"
 "http://www.w3.org/Graphics/SVG/1.1/DTD/svg11.dtd">
<!-- Generated by graphviz version 2.38.0 (20140413.2041)
 -->
<!-- Title: erpc_arbitrated_client_setup.h Pages: 1 -->
<svg width="266pt" height="207pt"
 viewBox="0.00 0.00 266.00 207.00" xmlns="http://www.w3.org/2000/svg" xmlns:xlink="http://www.w3.org/1999/xlink">
<g id="graph0" class="graph" transform="scale(1 1) rotate(0) translate(4 203)">
<title>erpc_arbitrated_client_setup.h</title>
<polygon fill="white" stroke="none" points="-4,4 -4,-203 262,-203 262,4 -4,4"/>
<!-- Node1 -->
<g id="node1" class="node"><title>Node1</title>
<polygon fill="#bfbfbf" stroke="black" points="96,-168.5 96,-198.5 206,-198.5 206,-168.5 96,-168.5"/>
<text text-anchor="start" x="104" y="-186.5" font-family="Helvetica,sans-Serif" font-size="10.00">erpc_arbitrated_client</text>
<text text-anchor="middle" x="151" y="-175.5" font-family="Helvetica,sans-Serif" font-size="10.00">_setup.h</text>
</g>
<!-- Node2 -->
<g id="node2" class="node"><title>Node2</title>
<g id="a_node2"><a xlink:href="erpc__common_8h_source.html" target="_top" xlink:title="erpc_common.h">
<polygon fill="white" stroke="black" points="0,-56.5 0,-75.5 86,-75.5 86,-56.5 0,-56.5"/>
<text text-anchor="middle" x="43" y="-63.5" font-family="Helvetica,sans-Serif" font-size="10.00">erpc_common.h</text>
</a>
</g>
</g>
<!-- Node1&#45;&gt;Node2 -->
<g id="edge1" class="edge"><title>Node1&#45;&gt;Node2</title>
<path fill="none" stroke="midnightblue" d="M135.994,-168.184C125.685,-158.218 111.785,-144.522 100,-132 84.8108,-115.862 68.1807,-96.7162 56.825,-83.401"/>
<polygon fill="midnightblue" stroke="midnightblue" points="59.3307,-80.9444 50.1924,-75.5832 53.9929,-85.473 59.3307,-80.9444"/>
</g>
<!-- Node3 -->
<g id="node3" class="node"><title>Node3</title>
<polygon fill="white" stroke="#bfbfbf" points="89.5,-0.5 89.5,-19.5 138.5,-19.5 138.5,-0.5 89.5,-0.5"/>
<text text-anchor="middle" x="114" y="-7.5" font-family="Helvetica,sans-Serif" font-size="10.00">stdint.h</text>
</g>
<!-- Node1&#45;&gt;Node3 -->
<g id="edge8" class="edge"><title>Node1&#45;&gt;Node3</title>
<path fill="none" stroke="midnightblue" d="M145.071,-168.137C141.15,-158.15 136.166,-144.448 133,-132 123.946,-96.4026 118.46,-53.7547 115.849,-29.7776"/>
<polygon fill="midnightblue" stroke="midnightblue" points="119.308,-29.205 114.795,-19.6195 112.346,-29.9273 119.308,-29.205"/>
</g>
<!-- Node4 -->
<g id="node4" class="node"><title>Node4</title>
<g id="a_node4"><a xlink:href="erpc__mbf__setup_8h.html" target="_top" xlink:title="erpc_mbf_setup.h">
<polygon fill="white" stroke="black" points="142,-112.5 142,-131.5 236,-131.5 236,-112.5 142,-112.5"/>
<text text-anchor="middle" x="189" y="-119.5" font-family="Helvetica,sans-Serif" font-size="10.00">erpc_mbf_setup.h</text>
</a>
</g>
</g>
<!-- Node1&#45;&gt;Node4 -->
<g id="edge3" class="edge"><title>Node1&#45;&gt;Node4</title>
<path fill="none" stroke="midnightblue" d="M160.005,-168.399C165.413,-159.932 172.332,-149.099 178.054,-140.139"/>
<polygon fill="midnightblue" stroke="midnightblue" points="181.038,-141.97 183.471,-131.658 175.138,-138.202 181.038,-141.97"/>
</g>
<!-- Node5 -->
<g id="node5" class="node"><title>Node5</title>
<g id="a_node5"><a xlink:href="erpc__transport__setup_8h.html" target="_top" xlink:title="erpc_transport_setup.h">
<polygon fill="white" stroke="black" points="142,-56.5 142,-75.5 258,-75.5 258,-56.5 142,-56.5"/>
<text text-anchor="middle" x="200" y="-63.5" font-family="Helvetica,sans-Serif" font-size="10.00">erpc_transport_setup.h</text>
</a>
</g>
</g>
<!-- Node1&#45;&gt;Node5 -->
<g id="edge7" class="edge"><title>Node1&#45;&gt;Node5</title>
<path fill="none" stroke="midnightblue" d="M199.124,-168.382C216.737,-160.626 234.827,-149.013 245,-132 255.677,-114.144 237.934,-94.6453 221.683,-81.709"/>
<polygon fill="midnightblue" stroke="midnightblue" points="223.586,-78.7624 213.479,-75.5859 219.399,-84.3722 223.586,-78.7624"/>
</g>
<!-- Node2&#45;&gt;Node3 -->
<g id="edge2" class="edge"><title>Node2&#45;&gt;Node3</title>
<path fill="none" stroke="midnightblue" d="M54.4074,-56.324C65.1088,-48.1849 81.3407,-35.8395 94.1628,-26.0874"/>
<polygon fill="midnightblue" stroke="midnightblue" points="96.5444,-28.6734 102.385,-19.8339 92.3068,-23.1018 96.5444,-28.6734"/>
</g>
<!-- Node4&#45;&gt;Node5 -->
<g id="edge4" class="edge"><title>Node4&#45;&gt;Node5</title>
<path fill="none" stroke="midnightblue" d="M190.816,-112.083C192.274,-104.927 194.371,-94.6353 196.193,-85.6911"/>
<polygon fill="midnightblue" stroke="midnightblue" points="199.651,-86.2485 198.217,-75.7511 192.792,-84.8512 199.651,-86.2485"/>
</g>
<!-- Node5&#45;&gt;Node3 -->
<g id="edge6" class="edge"><title>Node5&#45;&gt;Node3</title>
<path fill="none" stroke="midnightblue" d="M186.183,-56.324C172.767,-47.9002 152.176,-34.9709 136.414,-25.0741"/>
<polygon fill="midnightblue" stroke="midnightblue" points="138.113,-22.0081 127.783,-19.6545 134.391,-27.9364 138.113,-22.0081"/>
</g>
<!-- Node6 -->
<g id="node6" class="node"><title>Node6</title>
<g id="a_node6"><a xlink:href="erpc__version_8h_source.html" target="_top" xlink:title="erpc_version.h">
<polygon fill="white" stroke="black" points="160.5,-0.5 160.5,-19.5 239.5,-19.5 239.5,-0.5 160.5,-0.5"/>
<text text-anchor="middle" x="200" y="-7.5" font-family="Helvetica,sans-Serif" font-size="10.00">erpc_version.h</text>
</a>
</g>
</g>
<!-- Node5&#45;&gt;Node6 -->
<g id="edge5" class="edge"><title>Node5&#45;&gt;Node6</title>
<path fill="none" stroke="midnightblue" d="M200,-56.083C200,-49.0059 200,-38.8611 200,-29.9865"/>
<polygon fill="midnightblue" stroke="midnightblue" points="203.5,-29.751 200,-19.7511 196.5,-29.7511 203.5,-29.751"/>
</g>
</g>
</svg>
