<?xml version="1.0" encoding="UTF-8" standalone="no"?>
<!DOCTYPE svg PUBLIC "-//W3C//DTD SVG 1.1//EN"
 "http://www.w3.org/Graphics/SVG/1.1/DTD/svg11.dtd">
<!-- Generated by graphviz version 2.38.0 (20140413.2041)
 -->
<!-- Title: erpc_mu_transport.hpp Pages: 1 -->
<svg width="617pt" height="196pt"
 viewBox="0.00 0.00 616.50 196.00" xmlns="http://www.w3.org/2000/svg" xmlns:xlink="http://www.w3.org/1999/xlink">
<g id="graph0" class="graph" transform="scale(1 1) rotate(0) translate(4 192)">
<title>erpc_mu_transport.hpp</title>
<polygon fill="white" stroke="none" points="-4,4 -4,-192 612.5,-192 612.5,4 -4,4"/>
<!-- Node1 -->
<g id="node1" class="node"><title>Node1</title>
<polygon fill="#bfbfbf" stroke="black" points="263,-168.5 263,-187.5 379,-187.5 379,-168.5 263,-168.5"/>
<text text-anchor="middle" x="321" y="-175.5" font-family="Helvetica,sans-Serif" font-size="10.00">erpc_mu_transport.hpp</text>
</g>
<!-- Node2 -->
<g id="node2" class="node"><title>Node2</title>
<g id="a_node2"><a xlink:href="erpc__config__internal_8h_source.html" target="_top" xlink:title="erpc_config_internal.h">
<polygon fill="white" stroke="black" points="51.5,-56.5 51.5,-75.5 162.5,-75.5 162.5,-56.5 51.5,-56.5"/>
<text text-anchor="middle" x="107" y="-63.5" font-family="Helvetica,sans-Serif" font-size="10.00">erpc_config_internal.h</text>
</a>
</g>
</g>
<!-- Node1&#45;&gt;Node2 -->
<g id="edge1" class="edge"><title>Node1&#45;&gt;Node2</title>
<path fill="none" stroke="midnightblue" d="M262.938,-175.607C223.494,-171.835 172.28,-161.066 137,-132 122.782,-120.286 114.971,-100.348 110.915,-85.6346"/>
<polygon fill="midnightblue" stroke="midnightblue" points="114.248,-84.5254 108.5,-75.6249 107.443,-86.1668 114.248,-84.5254"/>
</g>
<!-- Node5 -->
<g id="node5" class="node"><title>Node5</title>
<g id="a_node5"><a xlink:href="erpc__threading_8h.html" target="_top" xlink:title="erpc_threading.h">
<polygon fill="white" stroke="black" points="146.5,-112.5 146.5,-131.5 235.5,-131.5 235.5,-112.5 146.5,-112.5"/>
<text text-anchor="middle" x="191" y="-119.5" font-family="Helvetica,sans-Serif" font-size="10.00">erpc_threading.h</text>
</a>
</g>
</g>
<!-- Node1&#45;&gt;Node5 -->
<g id="edge4" class="edge"><title>Node1&#45;&gt;Node5</title>
<path fill="none" stroke="midnightblue" d="M300.401,-168.444C279.007,-159.557 245.319,-145.563 220.976,-135.451"/>
<polygon fill="midnightblue" stroke="midnightblue" points="222.08,-132.12 211.503,-131.516 219.395,-138.585 222.08,-132.12"/>
</g>
<!-- Node7 -->
<g id="node7" class="node"><title>Node7</title>
<g id="a_node7"><a xlink:href="erpc__message__buffer_8hpp.html" target="_top" xlink:title="erpc_message_buffer.hpp">
<polygon fill="white" stroke="black" points="219,-56.5 219,-75.5 347,-75.5 347,-56.5 219,-56.5"/>
<text text-anchor="middle" x="283" y="-63.5" font-family="Helvetica,sans-Serif" font-size="10.00">erpc_message_buffer.hpp</text>
</a>
</g>
</g>
<!-- Node1&#45;&gt;Node7 -->
<g id="edge7" class="edge"><title>Node1&#45;&gt;Node7</title>
<path fill="none" stroke="midnightblue" d="M317.059,-168.489C312.992,-159.525 306.607,-144.943 302,-132 296.456,-116.424 291.27,-98.3467 287.721,-85.2161"/>
<polygon fill="midnightblue" stroke="midnightblue" points="291.095,-84.2851 285.153,-75.5133 284.328,-86.076 291.095,-84.2851"/>
</g>
<!-- Node10 -->
<g id="node10" class="node"><title>Node10</title>
<g id="a_node10"><a xlink:href="erpc__transport_8hpp.html" target="_top" xlink:title="erpc_transport.hpp">
<polygon fill="white" stroke="black" points="311,-112.5 311,-131.5 409,-131.5 409,-112.5 311,-112.5"/>
<text text-anchor="middle" x="360" y="-119.5" font-family="Helvetica,sans-Serif" font-size="10.00">erpc_transport.hpp</text>
</a>
</g>
</g>
<!-- Node1&#45;&gt;Node10 -->
<g id="edge11" class="edge"><title>Node1&#45;&gt;Node10</title>
<path fill="none" stroke="midnightblue" d="M327.44,-168.083C332.949,-160.455 341.031,-149.264 347.765,-139.941"/>
<polygon fill="midnightblue" stroke="midnightblue" points="350.662,-141.907 353.68,-131.751 344.987,-137.809 350.662,-141.907"/>
</g>
<!-- Node14 -->
<g id="node14" class="node"><title>Node14</title>
<polygon fill="white" stroke="#bfbfbf" points="427,-112.5 427,-131.5 537,-131.5 537,-112.5 427,-112.5"/>
<text text-anchor="middle" x="482" y="-119.5" font-family="Helvetica,sans-Serif" font-size="10.00">fsl_device_registers.h</text>
</g>
<!-- Node1&#45;&gt;Node14 -->
<g id="edge17" class="edge"><title>Node1&#45;&gt;Node14</title>
<path fill="none" stroke="midnightblue" d="M346.511,-168.444C373.596,-159.359 416.59,-144.939 446.869,-134.783"/>
<polygon fill="midnightblue" stroke="midnightblue" points="448.24,-138.015 456.608,-131.516 446.014,-131.378 448.24,-138.015"/>
</g>
<!-- Node15 -->
<g id="node15" class="node"><title>Node15</title>
<polygon fill="white" stroke="#bfbfbf" points="555.5,-112.5 555.5,-131.5 608.5,-131.5 608.5,-112.5 555.5,-112.5"/>
<text text-anchor="middle" x="582" y="-119.5" font-family="Helvetica,sans-Serif" font-size="10.00">fsl_mu.h</text>
</g>
<!-- Node1&#45;&gt;Node15 -->
<g id="edge18" class="edge"><title>Node1&#45;&gt;Node15</title>
<path fill="none" stroke="midnightblue" d="M366.814,-168.499C410.239,-160.293 477.527,-147.196 545.298,-132.072"/>
<polygon fill="midnightblue" stroke="midnightblue" points="546.307,-135.432 555.297,-129.826 544.773,-128.602 546.307,-135.432"/>
</g>
<!-- Node3 -->
<g id="node3" class="node"><title>Node3</title>
<g id="a_node3"><a xlink:href="erpc__config_8h.html" target="_top" xlink:title="erpc_config.h">
<polygon fill="white" stroke="black" points="0,-0.5 0,-19.5 74,-19.5 74,-0.5 0,-0.5"/>
<text text-anchor="middle" x="37" y="-7.5" font-family="Helvetica,sans-Serif" font-size="10.00">erpc_config.h</text>
</a>
</g>
</g>
<!-- Node2&#45;&gt;Node3 -->
<g id="edge2" class="edge"><title>Node2&#45;&gt;Node3</title>
<path fill="none" stroke="midnightblue" d="M95.7533,-56.324C85.2026,-48.1849 69.1993,-35.8395 56.5578,-26.0874"/>
<polygon fill="midnightblue" stroke="midnightblue" points="58.507,-23.1707 48.4513,-19.8339 54.2314,-28.7132 58.507,-23.1707"/>
</g>
<!-- Node4 -->
<g id="node4" class="node"><title>Node4</title>
<polygon fill="white" stroke="#bfbfbf" points="92.5,-0.5 92.5,-19.5 141.5,-19.5 141.5,-0.5 92.5,-0.5"/>
<text text-anchor="middle" x="117" y="-7.5" font-family="Helvetica,sans-Serif" font-size="10.00">cassert</text>
</g>
<!-- Node2&#45;&gt;Node4 -->
<g id="edge3" class="edge"><title>Node2&#45;&gt;Node4</title>
<path fill="none" stroke="midnightblue" d="M108.651,-56.083C109.976,-48.9272 111.882,-38.6353 113.539,-29.6911"/>
<polygon fill="midnightblue" stroke="midnightblue" points="117,-30.2212 115.379,-19.7511 110.117,-28.9466 117,-30.2212"/>
</g>
<!-- Node5&#45;&gt;Node2 -->
<g id="edge5" class="edge"><title>Node5&#45;&gt;Node2</title>
<path fill="none" stroke="midnightblue" d="M177.504,-112.324C164.4,-103.9 144.288,-90.9709 128.893,-81.0741"/>
<polygon fill="midnightblue" stroke="midnightblue" points="130.767,-78.118 120.463,-75.6545 126.982,-84.0063 130.767,-78.118"/>
</g>
<!-- Node6 -->
<g id="node6" class="node"><title>Node6</title>
<polygon fill="white" stroke="#bfbfbf" points="178.5,-0.5 178.5,-19.5 227.5,-19.5 227.5,-0.5 178.5,-0.5"/>
<text text-anchor="middle" x="203" y="-7.5" font-family="Helvetica,sans-Serif" font-size="10.00">stdint.h</text>
</g>
<!-- Node5&#45;&gt;Node6 -->
<g id="edge6" class="edge"><title>Node5&#45;&gt;Node6</title>
<path fill="none" stroke="midnightblue" d="M191.942,-112.368C193.878,-94.617 198.345,-53.6664 200.971,-29.5974"/>
<polygon fill="midnightblue" stroke="midnightblue" points="204.458,-29.912 202.063,-19.5914 197.499,-29.1528 204.458,-29.912"/>
</g>
<!-- Node7&#45;&gt;Node6 -->
<g id="edge10" class="edge"><title>Node7&#45;&gt;Node6</title>
<path fill="none" stroke="midnightblue" d="M270.147,-56.324C257.784,-47.979 238.87,-35.2122 224.263,-25.3524"/>
<polygon fill="midnightblue" stroke="midnightblue" points="226.068,-22.3483 215.821,-19.6545 222.152,-28.1503 226.068,-22.3483"/>
</g>
<!-- Node8 -->
<g id="node8" class="node"><title>Node8</title>
<g id="a_node8"><a xlink:href="erpc__common_8h_source.html" target="_top" xlink:title="erpc_common.h">
<polygon fill="white" stroke="black" points="322,-0.5 322,-19.5 408,-19.5 408,-0.5 322,-0.5"/>
<text text-anchor="middle" x="365" y="-7.5" font-family="Helvetica,sans-Serif" font-size="10.00">erpc_common.h</text>
</a>
</g>
</g>
<!-- Node7&#45;&gt;Node8 -->
<g id="edge8" class="edge"><title>Node7&#45;&gt;Node8</title>
<path fill="none" stroke="midnightblue" d="M296.175,-56.324C308.847,-47.979 328.233,-35.2122 343.206,-25.3524"/>
<polygon fill="midnightblue" stroke="midnightblue" points="345.431,-28.0776 351.858,-19.6545 341.581,-22.2313 345.431,-28.0776"/>
</g>
<!-- Node9 -->
<g id="node9" class="node"><title>Node9</title>
<polygon fill="white" stroke="#bfbfbf" points="256,-0.5 256,-19.5 304,-19.5 304,-0.5 256,-0.5"/>
<text text-anchor="middle" x="280" y="-7.5" font-family="Helvetica,sans-Serif" font-size="10.00">cstddef</text>
</g>
<!-- Node7&#45;&gt;Node9 -->
<g id="edge9" class="edge"><title>Node7&#45;&gt;Node9</title>
<path fill="none" stroke="midnightblue" d="M282.505,-56.083C282.111,-49.0059 281.548,-38.8611 281.055,-29.9865"/>
<polygon fill="midnightblue" stroke="midnightblue" points="284.536,-29.5415 280.486,-19.7511 277.546,-29.9299 284.536,-29.5415"/>
</g>
<!-- Node10&#45;&gt;Node7 -->
<g id="edge15" class="edge"><title>Node10&#45;&gt;Node7</title>
<path fill="none" stroke="midnightblue" d="M347.629,-112.324C335.842,-104.058 317.868,-91.4527 303.864,-81.6322"/>
<polygon fill="midnightblue" stroke="midnightblue" points="305.538,-78.5307 295.341,-75.6545 301.518,-84.2619 305.538,-78.5307"/>
</g>
<!-- Node10&#45;&gt;Node8 -->
<g id="edge12" class="edge"><title>Node10&#45;&gt;Node8</title>
<path fill="none" stroke="midnightblue" d="M360.392,-112.368C361.199,-94.617 363.061,-53.6664 364.155,-29.5974"/>
<polygon fill="midnightblue" stroke="midnightblue" points="367.652,-29.7401 364.609,-19.5914 360.659,-29.4221 367.652,-29.7401"/>
</g>
<!-- Node11 -->
<g id="node11" class="node"><title>Node11</title>
<g id="a_node11"><a xlink:href="erpc__crc16_8hpp.html" target="_top" xlink:title="erpc_crc16.hpp">
<polygon fill="white" stroke="black" points="403.5,-56.5 403.5,-75.5 486.5,-75.5 486.5,-56.5 403.5,-56.5"/>
<text text-anchor="middle" x="445" y="-63.5" font-family="Helvetica,sans-Serif" font-size="10.00">erpc_crc16.hpp</text>
</a>
</g>
</g>
<!-- Node10&#45;&gt;Node11 -->
<g id="edge13" class="edge"><title>Node10&#45;&gt;Node11</title>
<path fill="none" stroke="midnightblue" d="M373.657,-112.324C386.916,-103.9 407.268,-90.9709 422.846,-81.0741"/>
<polygon fill="midnightblue" stroke="midnightblue" points="424.813,-83.9711 431.377,-75.6545 421.06,-78.0626 424.813,-83.9711"/>
</g>
<!-- Node13 -->
<g id="node13" class="node"><title>Node13</title>
<polygon fill="white" stroke="#bfbfbf" points="505,-56.5 505,-75.5 551,-75.5 551,-56.5 505,-56.5"/>
<text text-anchor="middle" x="528" y="-63.5" font-family="Helvetica,sans-Serif" font-size="10.00">cstring</text>
</g>
<!-- Node10&#45;&gt;Node13 -->
<g id="edge16" class="edge"><title>Node10&#45;&gt;Node13</title>
<path fill="none" stroke="midnightblue" d="M386.62,-112.444C416.008,-102.998 463.343,-87.7826 495.048,-77.5916"/>
<polygon fill="midnightblue" stroke="midnightblue" points="496.301,-80.8653 504.751,-74.473 494.159,-74.2011 496.301,-80.8653"/>
</g>
<!-- Node12 -->
<g id="node12" class="node"><title>Node12</title>
<polygon fill="white" stroke="#bfbfbf" points="426,-0.5 426,-19.5 472,-19.5 472,-0.5 426,-0.5"/>
<text text-anchor="middle" x="449" y="-7.5" font-family="Helvetica,sans-Serif" font-size="10.00">cstdint</text>
</g>
<!-- Node11&#45;&gt;Node12 -->
<g id="edge14" class="edge"><title>Node11&#45;&gt;Node12</title>
<path fill="none" stroke="midnightblue" d="M445.661,-56.083C446.185,-49.0059 446.936,-38.8611 447.594,-29.9865"/>
<polygon fill="midnightblue" stroke="midnightblue" points="451.103,-29.9823 448.352,-19.7511 444.123,-29.4652 451.103,-29.9823"/>
</g>
</g>
</svg>
