<?xml version="1.0" encoding="UTF-8" standalone="no"?>
<!DOCTYPE svg PUBLIC "-//W3C//DTD SVG 1.1//EN"
 "http://www.w3.org/Graphics/SVG/1.1/DTD/svg11.dtd">
<!-- Generated by graphviz version 2.38.0 (20140413.2041)
 -->
<!-- Title: erpc_client_manager.h Pages: 1 -->
<svg width="526pt" height="95pt"
 viewBox="0.00 0.00 525.50 95.00" xmlns="http://www.w3.org/2000/svg" xmlns:xlink="http://www.w3.org/1999/xlink">
<g id="graph0" class="graph" transform="scale(1 1) rotate(0) translate(4 91)">
<title>erpc_client_manager.h</title>
<polygon fill="white" stroke="none" points="-4,4 -4,-91 521.5,-91 521.5,4 -4,4"/>
<!-- Node1 -->
<g id="node1" class="node"><title>Node1</title>
<polygon fill="#bfbfbf" stroke="black" points="213.5,-67.5 213.5,-86.5 328.5,-86.5 328.5,-67.5 213.5,-67.5"/>
<text text-anchor="middle" x="271" y="-74.5" font-family="Helvetica,sans-Serif" font-size="10.00">erpc_client_manager.h</text>
</g>
<!-- Node2 -->
<g id="node2" class="node"><title>Node2</title>
<g id="a_node2"><a xlink:href="erpc__arbitrated__client__manager_8hpp.html" target="_top" xlink:title="erpc_arbitrated_client\l_manager.hpp">
<polygon fill="white" stroke="black" points="0,-0.5 0,-30.5 110,-30.5 110,-0.5 0,-0.5"/>
<text text-anchor="start" x="8" y="-18.5" font-family="Helvetica,sans-Serif" font-size="10.00">erpc_arbitrated_client</text>
<text text-anchor="middle" x="55" y="-7.5" font-family="Helvetica,sans-Serif" font-size="10.00">_manager.hpp</text>
</a>
</g>
</g>
<!-- Node1&#45;&gt;Node2 -->
<g id="edge1" class="edge"><title>Node1&#45;&gt;Node2</title>
<path fill="none" stroke="midnightblue" d="M230.103,-64.7343C194.85,-55.0234 143.799,-40.9607 105.907,-30.523"/>
<polygon fill="midnightblue" stroke="midnightblue" points="229.482,-68.1936 240.052,-67.4751 231.341,-61.445 229.482,-68.1936"/>
</g>
<!-- Node3 -->
<g id="node3" class="node"><title>Node3</title>
<g id="a_node3"><a xlink:href="erpc__transport__arbitrator_8hpp.html" target="_top" xlink:title="erpc_transport_arbitrator.hpp">
<polygon fill="white" stroke="black" points="128.5,-6 128.5,-25 269.5,-25 269.5,-6 128.5,-6"/>
<text text-anchor="middle" x="199" y="-13" font-family="Helvetica,sans-Serif" font-size="10.00">erpc_transport_arbitrator.hpp</text>
</a>
</g>
</g>
<!-- Node1&#45;&gt;Node3 -->
<g id="edge2" class="edge"><title>Node1&#45;&gt;Node3</title>
<path fill="none" stroke="midnightblue" d="M252.816,-60.9727C239.045,-49.5925 220.623,-34.3694 209.297,-25.0091"/>
<polygon fill="midnightblue" stroke="midnightblue" points="250.746,-63.8028 260.684,-67.4751 255.205,-58.4069 250.746,-63.8028"/>
</g>
<!-- Node4 -->
<g id="node4" class="node"><title>Node4</title>
<g id="a_node4"><a xlink:href="erpc__arbitrated__client__setup_8h.html" target="_top" xlink:title="erpc_arbitrated_client\l_setup.h">
<polygon fill="white" stroke="black" points="288,-0.5 288,-30.5 398,-30.5 398,-0.5 288,-0.5"/>
<text text-anchor="start" x="296" y="-18.5" font-family="Helvetica,sans-Serif" font-size="10.00">erpc_arbitrated_client</text>
<text text-anchor="middle" x="343" y="-7.5" font-family="Helvetica,sans-Serif" font-size="10.00">_setup.h</text>
</a>
</g>
</g>
<!-- Node1&#45;&gt;Node4 -->
<g id="edge3" class="edge"><title>Node1&#45;&gt;Node4</title>
<path fill="none" stroke="midnightblue" d="M289.246,-60.9215C300.551,-51.579 314.973,-39.6616 326.031,-30.523"/>
<polygon fill="midnightblue" stroke="midnightblue" points="286.795,-58.4069 281.316,-67.4751 291.254,-63.8028 286.795,-58.4069"/>
</g>
<!-- Node5 -->
<g id="node5" class="node"><title>Node5</title>
<g id="a_node5"><a xlink:href="erpc__client__setup_8h.html" target="_top" xlink:title="erpc_client_setup.h">
<polygon fill="white" stroke="black" points="416.5,-6 416.5,-25 517.5,-25 517.5,-6 416.5,-6"/>
<text text-anchor="middle" x="467" y="-13" font-family="Helvetica,sans-Serif" font-size="10.00">erpc_client_setup.h</text>
</a>
</g>
</g>
<!-- Node1&#45;&gt;Node5 -->
<g id="edge4" class="edge"><title>Node1&#45;&gt;Node5</title>
<path fill="none" stroke="midnightblue" d="M308.788,-64.5286C346.881,-52.9647 404.791,-35.3849 438.97,-25.0091"/>
<polygon fill="midnightblue" stroke="midnightblue" points="307.634,-61.2211 299.082,-67.4751 309.668,-67.9193 307.634,-61.2211"/>
</g>
</g>
</svg>
