<?xml version="1.0" encoding="UTF-8" standalone="no"?>
<!DOCTYPE svg PUBLIC "-//W3C//DTD SVG 1.1//EN"
 "http://www.w3.org/Graphics/SVG/1.1/DTD/svg11.dtd">
<!-- Generated by graphviz version 2.38.0 (20140413.2041)
 -->
<!-- Title: erpc_transport.hpp Pages: 1 -->
<svg width="2684pt" height="285pt"
 viewBox="0.00 0.00 2684.00 285.00" xmlns="http://www.w3.org/2000/svg" xmlns:xlink="http://www.w3.org/1999/xlink">
<g id="graph0" class="graph" transform="scale(1 1) rotate(0) translate(4 281)">
<title>erpc_transport.hpp</title>
<polygon fill="white" stroke="none" points="-4,4 -4,-281 2680,-281 2680,4 -4,4"/>
<!-- Node1 -->
<g id="node1" class="node"><title>Node1</title>
<polygon fill="#bfbfbf" stroke="black" points="1380.5,-257.5 1380.5,-276.5 1478.5,-276.5 1478.5,-257.5 1380.5,-257.5"/>
<text text-anchor="middle" x="1429.5" y="-264.5" font-family="Helvetica,sans-Serif" font-size="10.00">erpc_transport.hpp</text>
</g>
<!-- Node2 -->
<g id="node2" class="node"><title>Node2</title>
<g id="a_node2"><a xlink:href="erpc__codec_8hpp.html" target="_top" xlink:title="erpc_codec.hpp">
<polygon fill="white" stroke="black" points="212.5,-196 212.5,-215 298.5,-215 298.5,-196 212.5,-196"/>
<text text-anchor="middle" x="255.5" y="-203" font-family="Helvetica,sans-Serif" font-size="10.00">erpc_codec.hpp</text>
</a>
</g>
</g>
<!-- Node1&#45;&gt;Node2 -->
<g id="edge1" class="edge"><title>Node1&#45;&gt;Node2</title>
<path fill="none" stroke="midnightblue" d="M1370.12,-262.99C1163.33,-252.51 477.675,-217.76 298.595,-208.684"/>
<polygon fill="midnightblue" stroke="midnightblue" points="1370.01,-266.49 1380.18,-263.5 1370.37,-259.498 1370.01,-266.49"/>
</g>
<!-- Node6 -->
<g id="node6" class="node"><title>Node6</title>
<g id="a_node6"><a xlink:href="erpc__transport__arbitrator_8hpp.html" target="_top" xlink:title="erpc_transport_arbitrator.hpp">
<polygon fill="white" stroke="black" points="0,-6 0,-25 141,-25 141,-6 0,-6"/>
<text text-anchor="middle" x="70.5" y="-13" font-family="Helvetica,sans-Serif" font-size="10.00">erpc_transport_arbitrator.hpp</text>
</a>
</g>
</g>
<!-- Node1&#45;&gt;Node6 -->
<g id="edge12" class="edge"><title>Node1&#45;&gt;Node6</title>
<path fill="none" stroke="midnightblue" d="M1370.17,-265.755C1140.18,-264.541 314.762,-257.647 203.5,-221 153.387,-204.494 136.9,-196.401 105.5,-154 75.1546,-113.023 70.9996,-48.4127 70.5207,-25.1803"/>
<polygon fill="midnightblue" stroke="midnightblue" points="1370.33,-269.255 1380.34,-265.807 1370.36,-262.256 1370.33,-269.255"/>
</g>
<!-- Node12 -->
<g id="node12" class="node"><title>Node12</title>
<g id="a_node12"><a xlink:href="erpc__framed__transport_8hpp.html" target="_top" xlink:title="erpc_framed_transport.hpp">
<polygon fill="white" stroke="black" points="1138.5,-196 1138.5,-215 1270.5,-215 1270.5,-196 1138.5,-196"/>
<text text-anchor="middle" x="1204.5" y="-203" font-family="Helvetica,sans-Serif" font-size="10.00">erpc_framed_transport.hpp</text>
</a>
</g>
</g>
<!-- Node1&#45;&gt;Node12 -->
<g id="edge13" class="edge"><title>Node1&#45;&gt;Node12</title>
<path fill="none" stroke="midnightblue" d="M1387.51,-254.896C1343.81,-243.34 1276.33,-225.495 1236.68,-215.009"/>
<polygon fill="midnightblue" stroke="midnightblue" points="1386.7,-258.302 1397.26,-257.475 1388.49,-251.535 1386.7,-258.302"/>
</g>
<!-- Node25 -->
<g id="node25" class="node"><title>Node25</title>
<g id="a_node25"><a xlink:href="erpc__message__loggers_8hpp.html" target="_top" xlink:title="erpc_message_loggers.hpp">
<polygon fill="white" stroke="black" points="1288.5,-196 1288.5,-215 1424.5,-215 1424.5,-196 1288.5,-196"/>
<text text-anchor="middle" x="1356.5" y="-203" font-family="Helvetica,sans-Serif" font-size="10.00">erpc_message_loggers.hpp</text>
</a>
</g>
</g>
<!-- Node1&#45;&gt;Node25 -->
<g id="edge26" class="edge"><title>Node1&#45;&gt;Node25</title>
<path fill="none" stroke="midnightblue" d="M1411.06,-250.973C1397.1,-239.593 1378.42,-224.369 1366.94,-215.009"/>
<polygon fill="midnightblue" stroke="midnightblue" points="1409.08,-253.87 1419.04,-257.475 1413.5,-248.444 1409.08,-253.87"/>
</g>
<!-- Node26 -->
<g id="node26" class="node"><title>Node26</title>
<g id="a_node26"><a xlink:href="erpc__inter__thread__buffer__transport_8hpp.html" target="_top" xlink:title="erpc_inter_thread_buffer\l_transport.hpp">
<polygon fill="white" stroke="black" points="1442.5,-190.5 1442.5,-220.5 1562.5,-220.5 1562.5,-190.5 1442.5,-190.5"/>
<text text-anchor="start" x="1450.5" y="-208.5" font-family="Helvetica,sans-Serif" font-size="10.00">erpc_inter_thread_buffer</text>
<text text-anchor="middle" x="1502.5" y="-197.5" font-family="Helvetica,sans-Serif" font-size="10.00">_transport.hpp</text>
</a>
</g>
</g>
<!-- Node1&#45;&gt;Node26 -->
<g id="edge27" class="edge"><title>Node1&#45;&gt;Node26</title>
<path fill="none" stroke="midnightblue" d="M1448,-250.921C1459.46,-241.579 1474.08,-229.662 1485.3,-220.523"/>
<polygon fill="midnightblue" stroke="midnightblue" points="1445.5,-248.444 1439.96,-257.475 1449.92,-253.87 1445.5,-248.444"/>
</g>
<!-- Node27 -->
<g id="node27" class="node"><title>Node27</title>
<g id="a_node27"><a xlink:href="erpc__mu__transport_8hpp.html" target="_top" xlink:title="erpc_mu_transport.hpp">
<polygon fill="white" stroke="black" points="1580.5,-196 1580.5,-215 1696.5,-215 1696.5,-196 1580.5,-196"/>
<text text-anchor="middle" x="1638.5" y="-203" font-family="Helvetica,sans-Serif" font-size="10.00">erpc_mu_transport.hpp</text>
</a>
</g>
</g>
<!-- Node1&#45;&gt;Node27 -->
<g id="edge28" class="edge"><title>Node1&#45;&gt;Node27</title>
<path fill="none" stroke="midnightblue" d="M1469.28,-254.676C1509.89,-243.114 1572.01,-225.429 1608.61,-215.009"/>
<polygon fill="midnightblue" stroke="midnightblue" points="1468.1,-251.371 1459.44,-257.475 1470.02,-258.103 1468.1,-251.371"/>
</g>
<!-- Node28 -->
<g id="node28" class="node"><title>Node28</title>
<g id="a_node28"><a xlink:href="erpc__rpmsg__linux__transport_8hpp_source.html" target="_top" xlink:title="erpc_rpmsg_linux_transport.hpp">
<polygon fill="white" stroke="black" points="1715,-196 1715,-215 1870,-215 1870,-196 1715,-196"/>
<text text-anchor="middle" x="1792.5" y="-203" font-family="Helvetica,sans-Serif" font-size="10.00">erpc_rpmsg_linux_transport.hpp</text>
</a>
</g>
</g>
<!-- Node1&#45;&gt;Node28 -->
<g id="edge29" class="edge"><title>Node1&#45;&gt;Node28</title>
<path fill="none" stroke="midnightblue" d="M1488.69,-256.411C1544.59,-247.342 1630.75,-233.322 1705.5,-221 1717.13,-219.082 1729.64,-217.006 1741.44,-215.041"/>
<polygon fill="midnightblue" stroke="midnightblue" points="1487.93,-252.989 1478.62,-258.045 1489.05,-259.899 1487.93,-252.989"/>
</g>
<!-- Node29 -->
<g id="node29" class="node"><title>Node29</title>
<g id="a_node29"><a xlink:href="erpc__rpmsg__lite__base__transport_8hpp.html" target="_top" xlink:title="erpc_rpmsg_lite_base\l_transport.hpp">
<polygon fill="white" stroke="black" points="2368.5,-190.5 2368.5,-220.5 2480.5,-220.5 2480.5,-190.5 2368.5,-190.5"/>
<text text-anchor="start" x="2376.5" y="-208.5" font-family="Helvetica,sans-Serif" font-size="10.00">erpc_rpmsg_lite_base</text>
<text text-anchor="middle" x="2424.5" y="-197.5" font-family="Helvetica,sans-Serif" font-size="10.00">_transport.hpp</text>
</a>
</g>
</g>
<!-- Node1&#45;&gt;Node29 -->
<g id="edge30" class="edge"><title>Node1&#45;&gt;Node29</title>
<path fill="none" stroke="midnightblue" d="M1488.71,-262.459C1666.61,-251.821 2194.75,-220.239 2368.44,-209.852"/>
<polygon fill="midnightblue" stroke="midnightblue" points="1488.28,-258.979 1478.5,-263.07 1488.69,-265.966 1488.28,-258.979"/>
</g>
<!-- Node3 -->
<g id="node3" class="node"><title>Node3</title>
<g id="a_node3"><a xlink:href="erpc__client__server__common_8hpp.html" target="_top" xlink:title="erpc_client_server\l_common.hpp">
<polygon fill="white" stroke="black" points="269,-123.5 269,-153.5 364,-153.5 364,-123.5 269,-123.5"/>
<text text-anchor="start" x="277" y="-141.5" font-family="Helvetica,sans-Serif" font-size="10.00">erpc_client_server</text>
<text text-anchor="middle" x="316.5" y="-130.5" font-family="Helvetica,sans-Serif" font-size="10.00">_common.hpp</text>
</a>
</g>
</g>
<!-- Node2&#45;&gt;Node3 -->
<g id="edge2" class="edge"><title>Node2&#45;&gt;Node3</title>
<path fill="none" stroke="midnightblue" d="M270.699,-188.304C280.712,-177.635 293.693,-163.802 303.278,-153.589"/>
<polygon fill="midnightblue" stroke="midnightblue" points="268.018,-186.047 263.727,-195.734 273.122,-190.837 268.018,-186.047"/>
</g>
<!-- Node2&#45;&gt;Node6 -->
<g id="edge10" class="edge"><title>Node2&#45;&gt;Node6</title>
<path fill="none" stroke="midnightblue" d="M202.576,-193.83C177.161,-186.37 147.88,-174.032 127.5,-154 107.873,-134.708 81.4468,-52.3311 73.123,-25.2019"/>
<polygon fill="midnightblue" stroke="midnightblue" points="201.893,-197.272 212.463,-196.549 203.749,-190.522 201.893,-197.272"/>
</g>
<!-- Node11 -->
<g id="node11" class="node"><title>Node11</title>
<g id="a_node11"><a xlink:href="erpc__basic__codec_8hpp.html" target="_top" xlink:title="erpc_basic_codec.hpp">
<polygon fill="white" stroke="black" points="136.5,-129 136.5,-148 250.5,-148 250.5,-129 136.5,-129"/>
<text text-anchor="middle" x="193.5" y="-136" font-family="Helvetica,sans-Serif" font-size="10.00">erpc_basic_codec.hpp</text>
</a>
</g>
</g>
<!-- Node2&#45;&gt;Node11 -->
<g id="edge11" class="edge"><title>Node2&#45;&gt;Node11</title>
<path fill="none" stroke="midnightblue" d="M240.235,-188.497C228.077,-175.75 211.523,-158.395 201.729,-148.127"/>
<polygon fill="midnightblue" stroke="midnightblue" points="237.704,-190.913 247.138,-195.734 242.769,-186.082 237.704,-190.913"/>
</g>
<!-- Node4 -->
<g id="node4" class="node"><title>Node4</title>
<g id="a_node4"><a xlink:href="erpc__client__manager_8h.html" target="_top" xlink:title="erpc_client_manager.h">
<polygon fill="white" stroke="black" points="259,-67.5 259,-86.5 374,-86.5 374,-67.5 259,-67.5"/>
<text text-anchor="middle" x="316.5" y="-74.5" font-family="Helvetica,sans-Serif" font-size="10.00">erpc_client_manager.h</text>
</a>
</g>
</g>
<!-- Node3&#45;&gt;Node4 -->
<g id="edge3" class="edge"><title>Node3&#45;&gt;Node4</title>
<path fill="none" stroke="midnightblue" d="M316.5,-113.289C316.5,-103.857 316.5,-93.6548 316.5,-86.6578"/>
<polygon fill="midnightblue" stroke="midnightblue" points="313,-113.399 316.5,-123.399 320,-113.399 313,-113.399"/>
</g>
<!-- Node9 -->
<g id="node9" class="node"><title>Node9</title>
<g id="a_node9"><a xlink:href="erpc__server_8hpp.html" target="_top" xlink:title="erpc_server.hpp">
<polygon fill="white" stroke="black" points="472,-67.5 472,-86.5 557,-86.5 557,-67.5 472,-67.5"/>
<text text-anchor="middle" x="514.5" y="-74.5" font-family="Helvetica,sans-Serif" font-size="10.00">erpc_server.hpp</text>
</a>
</g>
</g>
<!-- Node3&#45;&gt;Node9 -->
<g id="edge8" class="edge"><title>Node3&#45;&gt;Node9</title>
<path fill="none" stroke="midnightblue" d="M372.845,-120.568C409.876,-109.44 456.753,-95.3534 486.193,-86.5064"/>
<polygon fill="midnightblue" stroke="midnightblue" points="371.742,-117.245 363.173,-123.475 373.757,-123.949 371.742,-117.245"/>
</g>
<!-- Node5 -->
<g id="node5" class="node"><title>Node5</title>
<g id="a_node5"><a xlink:href="erpc__arbitrated__client__manager_8hpp.html" target="_top" xlink:title="erpc_arbitrated_client\l_manager.hpp">
<polygon fill="white" stroke="black" points="278.5,-0.5 278.5,-30.5 388.5,-30.5 388.5,-0.5 278.5,-0.5"/>
<text text-anchor="start" x="286.5" y="-18.5" font-family="Helvetica,sans-Serif" font-size="10.00">erpc_arbitrated_client</text>
<text text-anchor="middle" x="333.5" y="-7.5" font-family="Helvetica,sans-Serif" font-size="10.00">_manager.hpp</text>
</a>
</g>
</g>
<!-- Node4&#45;&gt;Node5 -->
<g id="edge4" class="edge"><title>Node4&#45;&gt;Node5</title>
<path fill="none" stroke="midnightblue" d="M321.695,-57.8158C324.203,-49.0409 327.164,-38.6761 329.493,-30.523"/>
<polygon fill="midnightblue" stroke="midnightblue" points="318.318,-56.8983 318.936,-67.4751 325.048,-58.8214 318.318,-56.8983"/>
</g>
<!-- Node4&#45;&gt;Node6 -->
<g id="edge5" class="edge"><title>Node4&#45;&gt;Node6</title>
<path fill="none" stroke="midnightblue" d="M271.491,-65.1138C223.745,-53.5653 149.309,-35.5615 105.68,-25.0091"/>
<polygon fill="midnightblue" stroke="midnightblue" points="270.712,-68.526 281.254,-67.4751 272.357,-61.7222 270.712,-68.526"/>
</g>
<!-- Node7 -->
<g id="node7" class="node"><title>Node7</title>
<g id="a_node7"><a xlink:href="erpc__arbitrated__client__setup_8h.html" target="_top" xlink:title="erpc_arbitrated_client\l_setup.h">
<polygon fill="white" stroke="black" points="406.5,-0.5 406.5,-30.5 516.5,-30.5 516.5,-0.5 406.5,-0.5"/>
<text text-anchor="start" x="414.5" y="-18.5" font-family="Helvetica,sans-Serif" font-size="10.00">erpc_arbitrated_client</text>
<text text-anchor="middle" x="461.5" y="-7.5" font-family="Helvetica,sans-Serif" font-size="10.00">_setup.h</text>
</a>
</g>
</g>
<!-- Node4&#45;&gt;Node7 -->
<g id="edge6" class="edge"><title>Node4&#45;&gt;Node7</title>
<path fill="none" stroke="midnightblue" d="M346.743,-63.5899C370.254,-53.9425 402.872,-40.5575 427.326,-30.523"/>
<polygon fill="midnightblue" stroke="midnightblue" points="345.198,-60.4408 337.275,-67.4751 347.855,-66.9168 345.198,-60.4408"/>
</g>
<!-- Node8 -->
<g id="node8" class="node"><title>Node8</title>
<g id="a_node8"><a xlink:href="erpc__client__setup_8h.html" target="_top" xlink:title="erpc_client_setup.h">
<polygon fill="white" stroke="black" points="159,-6 159,-25 260,-25 260,-6 159,-6"/>
<text text-anchor="middle" x="209.5" y="-13" font-family="Helvetica,sans-Serif" font-size="10.00">erpc_client_setup.h</text>
</a>
</g>
</g>
<!-- Node4&#45;&gt;Node8 -->
<g id="edge7" class="edge"><title>Node4&#45;&gt;Node8</title>
<path fill="none" stroke="midnightblue" d="M292.324,-62.5565C271.617,-51.0417 242.429,-34.8109 224.802,-25.0091"/>
<polygon fill="midnightblue" stroke="midnightblue" points="290.729,-65.674 301.17,-67.4751 294.131,-59.5563 290.729,-65.674"/>
</g>
<!-- Node10 -->
<g id="node10" class="node"><title>Node10</title>
<g id="a_node10"><a xlink:href="erpc__simple__server_8hpp.html" target="_top" xlink:title="erpc_simple_server.hpp">
<polygon fill="white" stroke="black" points="535,-6 535,-25 654,-25 654,-6 535,-6"/>
<text text-anchor="middle" x="594.5" y="-13" font-family="Helvetica,sans-Serif" font-size="10.00">erpc_simple_server.hpp</text>
</a>
</g>
</g>
<!-- Node9&#45;&gt;Node10 -->
<g id="edge9" class="edge"><title>Node9&#45;&gt;Node10</title>
<path fill="none" stroke="midnightblue" d="M534.273,-61.2938C549.619,-49.8803 570.355,-34.4577 583.059,-25.0091"/>
<polygon fill="midnightblue" stroke="midnightblue" points="531.897,-58.6988 525.962,-67.4751 536.075,-64.3156 531.897,-58.6988"/>
</g>
<!-- Node13 -->
<g id="node13" class="node"><title>Node13</title>
<g id="a_node13"><a xlink:href="erpc__dspi__master__transport_8hpp.html" target="_top" xlink:title="erpc_dspi_master_transport.hpp">
<polygon fill="white" stroke="black" points="1126.5,-129 1126.5,-148 1282.5,-148 1282.5,-129 1126.5,-129"/>
<text text-anchor="middle" x="1204.5" y="-136" font-family="Helvetica,sans-Serif" font-size="10.00">erpc_dspi_master_transport.hpp</text>
</a>
</g>
</g>
<!-- Node12&#45;&gt;Node13 -->
<g id="edge14" class="edge"><title>Node12&#45;&gt;Node13</title>
<path fill="none" stroke="midnightblue" d="M1204.5,-185.537C1204.5,-173.17 1204.5,-157.62 1204.5,-148.127"/>
<polygon fill="midnightblue" stroke="midnightblue" points="1201,-185.734 1204.5,-195.734 1208,-185.734 1201,-185.734"/>
</g>
<!-- Node14 -->
<g id="node14" class="node"><title>Node14</title>
<g id="a_node14"><a xlink:href="erpc__dspi__slave__transport_8hpp.html" target="_top" xlink:title="erpc_dspi_slave_transport.hpp">
<polygon fill="white" stroke="black" points="1300.5,-129 1300.5,-148 1448.5,-148 1448.5,-129 1300.5,-129"/>
<text text-anchor="middle" x="1374.5" y="-136" font-family="Helvetica,sans-Serif" font-size="10.00">erpc_dspi_slave_transport.hpp</text>
</a>
</g>
</g>
<!-- Node12&#45;&gt;Node14 -->
<g id="edge15" class="edge"><title>Node12&#45;&gt;Node14</title>
<path fill="none" stroke="midnightblue" d="M1236.48,-192.271C1270.22,-179.37 1322.52,-159.376 1352.1,-148.064"/>
<polygon fill="midnightblue" stroke="midnightblue" points="1235.17,-189.028 1227.07,-195.869 1237.67,-195.566 1235.17,-189.028"/>
</g>
<!-- Node15 -->
<g id="node15" class="node"><title>Node15</title>
<g id="a_node15"><a xlink:href="erpc__i2c__slave__transport_8hpp.html" target="_top" xlink:title="erpc_i2c_slave_transport.hpp">
<polygon fill="white" stroke="black" points="1467,-129 1467,-148 1610,-148 1610,-129 1467,-129"/>
<text text-anchor="middle" x="1538.5" y="-136" font-family="Helvetica,sans-Serif" font-size="10.00">erpc_i2c_slave_transport.hpp</text>
</a>
</g>
</g>
<!-- Node12&#45;&gt;Node15 -->
<g id="edge16" class="edge"><title>Node12&#45;&gt;Node15</title>
<path fill="none" stroke="midnightblue" d="M1258.67,-193.958C1324.41,-181.165 1433.97,-159.843 1494.66,-148.032"/>
<polygon fill="midnightblue" stroke="midnightblue" points="1257.66,-190.59 1248.51,-195.936 1258.99,-197.461 1257.66,-190.59"/>
</g>
<!-- Node16 -->
<g id="node16" class="node"><title>Node16</title>
<g id="a_node16"><a xlink:href="erpc__lpi2c__slave__transport_8hpp.html" target="_top" xlink:title="erpc_lpi2c_slave_transport.hpp">
<polygon fill="white" stroke="black" points="1628.5,-129 1628.5,-148 1778.5,-148 1778.5,-129 1628.5,-129"/>
<text text-anchor="middle" x="1703.5" y="-136" font-family="Helvetica,sans-Serif" font-size="10.00">erpc_lpi2c_slave_transport.hpp</text>
</a>
</g>
</g>
<!-- Node12&#45;&gt;Node16 -->
<g id="edge17" class="edge"><title>Node12&#45;&gt;Node16</title>
<path fill="none" stroke="midnightblue" d="M1255.33,-194.068C1263.39,-192.587 1271.66,-191.172 1279.5,-190 1429.35,-167.6 1468.41,-174.75 1618.5,-154 1630.96,-152.278 1644.39,-150.125 1656.82,-148.009"/>
<polygon fill="midnightblue" stroke="midnightblue" points="1254.44,-190.673 1245.26,-195.965 1255.74,-197.552 1254.44,-190.673"/>
</g>
<!-- Node17 -->
<g id="node17" class="node"><title>Node17</title>
<g id="a_node17"><a xlink:href="erpc__lpspi__slave__transport_8hpp.html" target="_top" xlink:title="erpc_lpspi_slave_transport.hpp">
<polygon fill="white" stroke="black" points="1796.5,-129 1796.5,-148 1946.5,-148 1946.5,-129 1796.5,-129"/>
<text text-anchor="middle" x="1871.5" y="-136" font-family="Helvetica,sans-Serif" font-size="10.00">erpc_lpspi_slave_transport.hpp</text>
</a>
</g>
</g>
<!-- Node12&#45;&gt;Node17 -->
<g id="edge18" class="edge"><title>Node12&#45;&gt;Node17</title>
<path fill="none" stroke="midnightblue" d="M1254.16,-194.029C1262.59,-192.502 1271.27,-191.083 1279.5,-190 1503.91,-160.465 1562.81,-181.285 1787.5,-154 1800.43,-152.43 1814.39,-150.226 1827.16,-148.01"/>
<polygon fill="midnightblue" stroke="midnightblue" points="1253.24,-190.642 1244.06,-195.93 1254.53,-197.521 1253.24,-190.642"/>
</g>
<!-- Node18 -->
<g id="node18" class="node"><title>Node18</title>
<g id="a_node18"><a xlink:href="erpc__serial__transport_8hpp.html" target="_top" xlink:title="erpc_serial_transport.hpp">
<polygon fill="white" stroke="black" points="1964.5,-129 1964.5,-148 2090.5,-148 2090.5,-129 1964.5,-129"/>
<text text-anchor="middle" x="2027.5" y="-136" font-family="Helvetica,sans-Serif" font-size="10.00">erpc_serial_transport.hpp</text>
</a>
</g>
</g>
<!-- Node12&#45;&gt;Node18 -->
<g id="edge19" class="edge"><title>Node12&#45;&gt;Node18</title>
<path fill="none" stroke="midnightblue" d="M1253.29,-194.06C1261.98,-192.487 1270.99,-191.045 1279.5,-190 1578.13,-153.358 1657.01,-191.8 1955.5,-154 1966.88,-152.558 1979.16,-150.338 1990.3,-148.065"/>
<polygon fill="midnightblue" stroke="midnightblue" points="1252.44,-190.658 1243.26,-195.95 1253.74,-197.536 1252.44,-190.658"/>
</g>
<!-- Node19 -->
<g id="node19" class="node"><title>Node19</title>
<g id="a_node19"><a xlink:href="erpc__spi__master__transport_8hpp.html" target="_top" xlink:title="erpc_spi_master_transport.hpp">
<polygon fill="white" stroke="black" points="2109,-129 2109,-148 2260,-148 2260,-129 2109,-129"/>
<text text-anchor="middle" x="2184.5" y="-136" font-family="Helvetica,sans-Serif" font-size="10.00">erpc_spi_master_transport.hpp</text>
</a>
</g>
</g>
<!-- Node12&#45;&gt;Node19 -->
<g id="edge20" class="edge"><title>Node12&#45;&gt;Node19</title>
<path fill="none" stroke="midnightblue" d="M1252.7,-194.098C1261.58,-192.491 1270.79,-191.027 1279.5,-190 1641.78,-147.262 1736.77,-192.748 2099.5,-154 2113.05,-152.553 2127.7,-150.303 2140.97,-148.003"/>
<polygon fill="midnightblue" stroke="midnightblue" points="1252.05,-190.66 1242.87,-195.956 1253.35,-197.538 1252.05,-190.66"/>
</g>
<!-- Node20 -->
<g id="node20" class="node"><title>Node20</title>
<g id="a_node20"><a xlink:href="erpc__spi__slave__transport_8hpp.html" target="_top" xlink:title="erpc_spi_slave_transport.hpp">
<polygon fill="white" stroke="black" points="382,-129 382,-148 525,-148 525,-129 382,-129"/>
<text text-anchor="middle" x="453.5" y="-136" font-family="Helvetica,sans-Serif" font-size="10.00">erpc_spi_slave_transport.hpp</text>
</a>
</g>
</g>
<!-- Node12&#45;&gt;Node20 -->
<g id="edge21" class="edge"><title>Node12&#45;&gt;Node20</title>
<path fill="none" stroke="midnightblue" d="M1127.86,-201.333C1002.96,-195.589 747.931,-181.426 533.5,-154 521.179,-152.424 507.876,-150.218 495.721,-148.002"/>
<polygon fill="midnightblue" stroke="midnightblue" points="1127.93,-204.84 1138.08,-201.798 1128.25,-197.847 1127.93,-204.84"/>
</g>
<!-- Node21 -->
<g id="node21" class="node"><title>Node21</title>
<g id="a_node21"><a xlink:href="erpc__spidev__master__transport_8hpp.html" target="_top" xlink:title="erpc_spidev_master\l_transport.hpp">
<polygon fill="white" stroke="black" points="543,-123.5 543,-153.5 646,-153.5 646,-123.5 543,-123.5"/>
<text text-anchor="start" x="551" y="-141.5" font-family="Helvetica,sans-Serif" font-size="10.00">erpc_spidev_master</text>
<text text-anchor="middle" x="594.5" y="-130.5" font-family="Helvetica,sans-Serif" font-size="10.00">_transport.hpp</text>
</a>
</g>
</g>
<!-- Node12&#45;&gt;Node21 -->
<g id="edge22" class="edge"><title>Node12&#45;&gt;Node21</title>
<path fill="none" stroke="midnightblue" d="M1128.19,-200.901C1021.76,-195.106 822.948,-181.461 655.5,-154 652.492,-153.507 649.413,-152.948 646.313,-152.344"/>
<polygon fill="midnightblue" stroke="midnightblue" points="1128.03,-204.397 1138.2,-201.438 1128.4,-197.407 1128.03,-204.397"/>
</g>
<!-- Node22 -->
<g id="node22" class="node"><title>Node22</title>
<g id="a_node22"><a xlink:href="erpc__tcp__transport_8hpp.html" target="_top" xlink:title="erpc_tcp_transport.hpp">
<polygon fill="white" stroke="black" points="664.5,-129 664.5,-148 780.5,-148 780.5,-129 664.5,-129"/>
<text text-anchor="middle" x="722.5" y="-136" font-family="Helvetica,sans-Serif" font-size="10.00">erpc_tcp_transport.hpp</text>
</a>
</g>
</g>
<!-- Node12&#45;&gt;Node22 -->
<g id="edge23" class="edge"><title>Node12&#45;&gt;Node22</title>
<path fill="none" stroke="midnightblue" d="M1128.31,-197.352C1044.84,-189.028 907.155,-173.847 789.5,-154 779.525,-152.317 768.787,-150.154 758.894,-148.014"/>
<polygon fill="midnightblue" stroke="midnightblue" points="1128.17,-200.856 1138.46,-198.358 1128.86,-193.89 1128.17,-200.856"/>
</g>
<!-- Node23 -->
<g id="node23" class="node"><title>Node23</title>
<g id="a_node23"><a xlink:href="erpc__uart__cmsis__transport_8hpp.html" target="_top" xlink:title="erpc_uart_cmsis_transport.hpp">
<polygon fill="white" stroke="black" points="799,-129 799,-148 950,-148 950,-129 799,-129"/>
<text text-anchor="middle" x="874.5" y="-136" font-family="Helvetica,sans-Serif" font-size="10.00">erpc_uart_cmsis_transport.hpp</text>
</a>
</g>
</g>
<!-- Node12&#45;&gt;Node23 -->
<g id="edge24" class="edge"><title>Node12&#45;&gt;Node23</title>
<path fill="none" stroke="midnightblue" d="M1150.98,-193.958C1086.03,-181.165 977.782,-159.843 917.815,-148.032"/>
<polygon fill="midnightblue" stroke="midnightblue" points="1150.53,-197.437 1161.02,-195.936 1151.88,-190.569 1150.53,-197.437"/>
</g>
<!-- Node24 -->
<g id="node24" class="node"><title>Node24</title>
<g id="a_node24"><a xlink:href="erpc__usb__cdc__transport_8hpp.html" target="_top" xlink:title="erpc_usb_cdc_transport.hpp">
<polygon fill="white" stroke="black" points="968.5,-129 968.5,-148 1108.5,-148 1108.5,-129 968.5,-129"/>
<text text-anchor="middle" x="1038.5" y="-136" font-family="Helvetica,sans-Serif" font-size="10.00">erpc_usb_cdc_transport.hpp</text>
</a>
</g>
</g>
<!-- Node12&#45;&gt;Node24 -->
<g id="edge25" class="edge"><title>Node12&#45;&gt;Node24</title>
<path fill="none" stroke="midnightblue" d="M1172.84,-192.104C1139.88,-179.198 1089.14,-159.327 1060.37,-148.064"/>
<polygon fill="midnightblue" stroke="midnightblue" points="1171.87,-195.481 1182.46,-195.869 1174.42,-188.963 1171.87,-195.481"/>
</g>
<!-- Node30 -->
<g id="node30" class="node"><title>Node30</title>
<g id="a_node30"><a xlink:href="erpc__rpmsg__lite__rtos__transport_8hpp.html" target="_top" xlink:title="erpc_rpmsg_lite_rtos\l_transport.hpp">
<polygon fill="white" stroke="black" points="2569,-123.5 2569,-153.5 2676,-153.5 2676,-123.5 2569,-123.5"/>
<text text-anchor="start" x="2577" y="-141.5" font-family="Helvetica,sans-Serif" font-size="10.00">erpc_rpmsg_lite_rtos</text>
<text text-anchor="middle" x="2622.5" y="-130.5" font-family="Helvetica,sans-Serif" font-size="10.00">_transport.hpp</text>
</a>
</g>
</g>
<!-- Node29&#45;&gt;Node30 -->
<g id="edge31" class="edge"><title>Node29&#45;&gt;Node30</title>
<path fill="none" stroke="midnightblue" d="M2477.11,-187.228C2509.14,-176.713 2549.54,-163.451 2579.62,-153.577"/>
<polygon fill="midnightblue" stroke="midnightblue" points="2475.87,-183.951 2467.46,-190.396 2478.06,-190.602 2475.87,-183.951"/>
</g>
<!-- Node31 -->
<g id="node31" class="node"><title>Node31</title>
<g id="a_node31"><a xlink:href="erpc__rpmsg__lite__transport_8hpp.html" target="_top" xlink:title="erpc_rpmsg_lite_transport.hpp">
<polygon fill="white" stroke="black" points="2278.5,-129 2278.5,-148 2426.5,-148 2426.5,-129 2278.5,-129"/>
<text text-anchor="middle" x="2352.5" y="-136" font-family="Helvetica,sans-Serif" font-size="10.00">erpc_rpmsg_lite_transport.hpp</text>
</a>
</g>
</g>
<!-- Node29&#45;&gt;Node31 -->
<g id="edge32" class="edge"><title>Node29&#45;&gt;Node31</title>
<path fill="none" stroke="midnightblue" d="M2401.43,-183.672C2388.14,-171.671 2372.13,-157.22 2362.13,-148.195"/>
<polygon fill="midnightblue" stroke="midnightblue" points="2399.11,-186.293 2408.88,-190.396 2403.8,-181.097 2399.11,-186.293"/>
</g>
<!-- Node32 -->
<g id="node32" class="node"><title>Node32</title>
<g id="a_node32"><a xlink:href="erpc__rpmsg__tty__rtos__transport_8hpp.html" target="_top" xlink:title="erpc_rpmsg_tty_rtos\l_transport.hpp">
<polygon fill="white" stroke="black" points="2444.5,-123.5 2444.5,-153.5 2550.5,-153.5 2550.5,-123.5 2444.5,-123.5"/>
<text text-anchor="start" x="2452.5" y="-141.5" font-family="Helvetica,sans-Serif" font-size="10.00">erpc_rpmsg_tty_rtos</text>
<text text-anchor="middle" x="2497.5" y="-130.5" font-family="Helvetica,sans-Serif" font-size="10.00">_transport.hpp</text>
</a>
</g>
</g>
<!-- Node29&#45;&gt;Node32 -->
<g id="edge33" class="edge"><title>Node29&#45;&gt;Node32</title>
<path fill="none" stroke="midnightblue" d="M2447.97,-183.598C2459,-173.783 2471.84,-162.344 2481.69,-153.577"/>
<polygon fill="midnightblue" stroke="midnightblue" points="2445.48,-181.132 2440.34,-190.396 2450.14,-186.36 2445.48,-181.132"/>
</g>
</g>
</svg>
