<?xml version="1.0" encoding="UTF-8" standalone="no"?>
<!DOCTYPE svg PUBLIC "-//W3C//DTD SVG 1.1//EN"
 "http://www.w3.org/Graphics/SVG/1.1/DTD/svg11.dtd">
<!-- Generated by graphviz version 2.38.0 (20140413.2041)
 -->
<!-- Title: erpc_config.h Pages: 1 -->
<svg width="2854pt" height="285pt"
 viewBox="0.00 0.00 2854.00 285.00" xmlns="http://www.w3.org/2000/svg" xmlns:xlink="http://www.w3.org/1999/xlink">
<g id="graph0" class="graph" transform="scale(1 1) rotate(0) translate(4 281)">
<title>erpc_config.h</title>
<polygon fill="white" stroke="none" points="-4,4 -4,-281 2850,-281 2850,4 -4,4"/>
<!-- Node1 -->
<g id="node1" class="node"><title>Node1</title>
<polygon fill="#bfbfbf" stroke="black" points="1447,-257.5 1447,-276.5 1521,-276.5 1521,-257.5 1447,-257.5"/>
<text text-anchor="middle" x="1484" y="-264.5" font-family="Helvetica,sans-Serif" font-size="10.00">erpc_config.h</text>
</g>
<!-- Node2 -->
<g id="node2" class="node"><title>Node2</title>
<g id="a_node2"><a xlink:href="erpc__config__internal_8h_source.html" target="_top" xlink:title="erpc_config_internal.h">
<polygon fill="white" stroke="black" points="1428.5,-201.5 1428.5,-220.5 1539.5,-220.5 1539.5,-201.5 1428.5,-201.5"/>
<text text-anchor="middle" x="1484" y="-208.5" font-family="Helvetica,sans-Serif" font-size="10.00">erpc_config_internal.h</text>
</a>
</g>
</g>
<!-- Node1&#45;&gt;Node2 -->
<g id="edge1" class="edge"><title>Node1&#45;&gt;Node2</title>
<path fill="none" stroke="midnightblue" d="M1484,-246.805C1484,-237.91 1484,-227.78 1484,-220.751"/>
<polygon fill="midnightblue" stroke="midnightblue" points="1480.5,-247.083 1484,-257.083 1487.5,-247.083 1480.5,-247.083"/>
</g>
<!-- Node3 -->
<g id="node3" class="node"><title>Node3</title>
<g id="a_node3"><a xlink:href="erpc__client__server__common_8hpp.html" target="_top" xlink:title="erpc_client_server\l_common.hpp">
<polygon fill="white" stroke="black" points="558.5,-134.5 558.5,-164.5 653.5,-164.5 653.5,-134.5 558.5,-134.5"/>
<text text-anchor="start" x="566.5" y="-152.5" font-family="Helvetica,sans-Serif" font-size="10.00">erpc_client_server</text>
<text text-anchor="middle" x="606" y="-141.5" font-family="Helvetica,sans-Serif" font-size="10.00">_common.hpp</text>
</a>
</g>
</g>
<!-- Node2&#45;&gt;Node3 -->
<g id="edge2" class="edge"><title>Node2&#45;&gt;Node3</title>
<path fill="none" stroke="midnightblue" d="M1418.2,-208.812C1281.92,-205.794 959.057,-195.745 690,-165 678.237,-163.656 665.623,-161.736 653.838,-159.731"/>
<polygon fill="midnightblue" stroke="midnightblue" points="1418.39,-212.317 1428.46,-209.034 1418.54,-205.319 1418.39,-212.317"/>
</g>
<!-- Node7 -->
<g id="node7" class="node"><title>Node7</title>
<g id="a_node7"><a xlink:href="erpc__arbitrated__client__setup_8h.html" target="_top" xlink:title="erpc_arbitrated_client\l_setup.h">
<polygon fill="white" stroke="black" points="0,-0.5 0,-30.5 110,-30.5 110,-0.5 0,-0.5"/>
<text text-anchor="start" x="8" y="-18.5" font-family="Helvetica,sans-Serif" font-size="10.00">erpc_arbitrated_client</text>
<text text-anchor="middle" x="55" y="-7.5" font-family="Helvetica,sans-Serif" font-size="10.00">_setup.h</text>
</a>
</g>
</g>
<!-- Node2&#45;&gt;Node7 -->
<g id="edge43" class="edge"><title>Node2&#45;&gt;Node7</title>
<path fill="none" stroke="midnightblue" d="M1418.31,-209.418C1185.49,-207.092 407.959,-196.984 301,-165 205.409,-136.416 109.032,-61.8572 71.4419,-30.6056"/>
<polygon fill="midnightblue" stroke="midnightblue" points="1418.29,-212.918 1428.32,-209.517 1418.36,-205.918 1418.29,-212.918"/>
</g>
<!-- Node8 -->
<g id="node8" class="node"><title>Node8</title>
<g id="a_node8"><a xlink:href="erpc__client__setup_8h.html" target="_top" xlink:title="erpc_client_setup.h">
<polygon fill="white" stroke="black" points="128.5,-6 128.5,-25 229.5,-25 229.5,-6 128.5,-6"/>
<text text-anchor="middle" x="179" y="-13" font-family="Helvetica,sans-Serif" font-size="10.00">erpc_client_setup.h</text>
</a>
</g>
</g>
<!-- Node2&#45;&gt;Node8 -->
<g id="edge44" class="edge"><title>Node2&#45;&gt;Node8</title>
<path fill="none" stroke="midnightblue" d="M1418.22,-210.501C1265.09,-210.869 873.127,-207.205 549,-165 407.928,-146.631 354.553,-176.638 236,-98 207.942,-79.3886 189.556,-41.843 182.387,-25.0068"/>
<polygon fill="midnightblue" stroke="midnightblue" points="1418.4,-214.001 1428.39,-210.47 1418.38,-207.001 1418.4,-214.001"/>
</g>
<!-- Node9 -->
<g id="node9" class="node"><title>Node9</title>
<g id="a_node9"><a xlink:href="erpc__server_8hpp.html" target="_top" xlink:title="erpc_server.hpp">
<polygon fill="white" stroke="black" points="563.5,-73 563.5,-92 648.5,-92 648.5,-73 563.5,-73"/>
<text text-anchor="middle" x="606" y="-80" font-family="Helvetica,sans-Serif" font-size="10.00">erpc_server.hpp</text>
</a>
</g>
</g>
<!-- Node2&#45;&gt;Node9 -->
<g id="edge26" class="edge"><title>Node2&#45;&gt;Node9</title>
<path fill="none" stroke="midnightblue" d="M1418.41,-210.228C1260.16,-210.111 861.18,-205.66 735,-165 685.58,-149.075 636.217,-109.761 615.793,-92.2078"/>
<polygon fill="midnightblue" stroke="midnightblue" points="1418.48,-213.728 1428.48,-210.23 1418.48,-206.728 1418.48,-213.728"/>
</g>
<!-- Node11 -->
<g id="node11" class="node"><title>Node11</title>
<g id="a_node11"><a xlink:href="erpc__manually__constructed_8hpp.html" target="_top" xlink:title="erpc_manually_constructed.hpp">
<polygon fill="white" stroke="black" points="744.5,-140 744.5,-159 899.5,-159 899.5,-140 744.5,-140"/>
<text text-anchor="middle" x="822" y="-147" font-family="Helvetica,sans-Serif" font-size="10.00">erpc_manually_constructed.hpp</text>
</a>
</g>
</g>
<!-- Node2&#45;&gt;Node11 -->
<g id="edge10" class="edge"><title>Node2&#45;&gt;Node11</title>
<path fill="none" stroke="midnightblue" d="M1418.19,-206.467C1311.9,-200.388 1095.98,-186.492 914,-165 900.19,-163.369 885.276,-161.198 871.559,-159.033"/>
<polygon fill="midnightblue" stroke="midnightblue" points="1418.25,-209.976 1428.44,-207.048 1418.65,-202.987 1418.25,-209.976"/>
</g>
<!-- Node12 -->
<g id="node12" class="node"><title>Node12</title>
<g id="a_node12"><a xlink:href="erpc__framed__transport_8hpp.html" target="_top" xlink:title="erpc_framed_transport.hpp">
<polygon fill="white" stroke="black" points="1512,-73 1512,-92 1644,-92 1644,-73 1512,-73"/>
<text text-anchor="middle" x="1578" y="-80" font-family="Helvetica,sans-Serif" font-size="10.00">erpc_framed_transport.hpp</text>
</a>
</g>
</g>
<!-- Node2&#45;&gt;Node12 -->
<g id="edge11" class="edge"><title>Node2&#45;&gt;Node12</title>
<path fill="none" stroke="midnightblue" d="M1496.54,-193.12C1516.8,-165.856 1556.02,-113.081 1571.49,-92.2557"/>
<polygon fill="midnightblue" stroke="midnightblue" points="1493.62,-191.191 1490.46,-201.305 1499.23,-195.366 1493.62,-191.191"/>
</g>
<!-- Node14 -->
<g id="node14" class="node"><title>Node14</title>
<g id="a_node14"><a xlink:href="erpc__dspi__slave__transport_8hpp.html" target="_top" xlink:title="erpc_dspi_slave_transport.hpp">
<polygon fill="white" stroke="black" points="1175,-6 1175,-25 1323,-25 1323,-6 1175,-6"/>
<text text-anchor="middle" x="1249" y="-13" font-family="Helvetica,sans-Serif" font-size="10.00">erpc_dspi_slave_transport.hpp</text>
</a>
</g>
</g>
<!-- Node2&#45;&gt;Node14 -->
<g id="edge46" class="edge"><title>Node2&#45;&gt;Node14</title>
<path fill="none" stroke="midnightblue" d="M1418.06,-203.776C1352.98,-193.676 1257.01,-167.222 1213,-98 1197.23,-73.1987 1224.7,-40.3182 1239.91,-25.0126"/>
<polygon fill="midnightblue" stroke="midnightblue" points="1417.83,-207.279 1428.23,-205.26 1418.84,-200.352 1417.83,-207.279"/>
</g>
<!-- Node15 -->
<g id="node15" class="node"><title>Node15</title>
<g id="a_node15"><a xlink:href="erpc__i2c__slave__transport_8hpp.html" target="_top" xlink:title="erpc_i2c_slave_transport.hpp">
<polygon fill="white" stroke="black" points="1341.5,-6 1341.5,-25 1484.5,-25 1484.5,-6 1341.5,-6"/>
<text text-anchor="middle" x="1413" y="-13" font-family="Helvetica,sans-Serif" font-size="10.00">erpc_i2c_slave_transport.hpp</text>
</a>
</g>
</g>
<!-- Node2&#45;&gt;Node15 -->
<g id="edge47" class="edge"><title>Node2&#45;&gt;Node15</title>
<path fill="none" stroke="midnightblue" d="M1479.64,-191.569C1475.79,-176.047 1469.75,-153.343 1463,-134 1448.46,-92.3492 1426.31,-44.4514 1417.17,-25.1868"/>
<polygon fill="midnightblue" stroke="midnightblue" points="1476.27,-192.557 1482.03,-201.452 1483.08,-190.909 1476.27,-192.557"/>
</g>
<!-- Node16 -->
<g id="node16" class="node"><title>Node16</title>
<g id="a_node16"><a xlink:href="erpc__lpi2c__slave__transport_8hpp.html" target="_top" xlink:title="erpc_lpi2c_slave_transport.hpp">
<polygon fill="white" stroke="black" points="2246,-6 2246,-25 2396,-25 2396,-6 2246,-6"/>
<text text-anchor="middle" x="2321" y="-13" font-family="Helvetica,sans-Serif" font-size="10.00">erpc_lpi2c_slave_transport.hpp</text>
</a>
</g>
</g>
<!-- Node2&#45;&gt;Node16 -->
<g id="edge48" class="edge"><title>Node2&#45;&gt;Node16</title>
<path fill="none" stroke="midnightblue" d="M1507.08,-196.424C1558.52,-166.919 1687.34,-97.1843 1805,-67 1991.62,-19.1255 2045.89,-55.41 2237,-31 2249.62,-29.3875 2263.25,-27.222 2275.77,-25.0571"/>
<polygon fill="midnightblue" stroke="midnightblue" points="1505.3,-193.41 1498.4,-201.446 1508.81,-199.47 1505.3,-193.41"/>
</g>
<!-- Node17 -->
<g id="node17" class="node"><title>Node17</title>
<g id="a_node17"><a xlink:href="erpc__lpspi__slave__transport_8hpp.html" target="_top" xlink:title="erpc_lpspi_slave_transport.hpp">
<polygon fill="white" stroke="black" points="2414,-6 2414,-25 2564,-25 2564,-6 2414,-6"/>
<text text-anchor="middle" x="2489" y="-13" font-family="Helvetica,sans-Serif" font-size="10.00">erpc_lpspi_slave_transport.hpp</text>
</a>
</g>
</g>
<!-- Node2&#45;&gt;Node17 -->
<g id="edge49" class="edge"><title>Node2&#45;&gt;Node17</title>
<path fill="none" stroke="midnightblue" d="M1521.81,-198.552C1574.45,-182.835 1672.95,-154.223 1758,-134 1837.8,-115.026 1859.86,-119.541 1939,-98 1979.42,-86.9991 1987.08,-75.944 2028,-67 2192.44,-31.059 2238.17,-53.3317 2405,-31 2417.47,-29.331 2430.92,-27.1718 2443.32,-25.0319"/>
<polygon fill="midnightblue" stroke="midnightblue" points="1520.8,-195.203 1512.22,-201.425 1522.8,-201.909 1520.8,-195.203"/>
</g>
<!-- Node21 -->
<g id="node21" class="node"><title>Node21</title>
<g id="a_node21"><a xlink:href="erpc__spi__slave__transport_8hpp.html" target="_top" xlink:title="erpc_spi_slave_transport.hpp">
<polygon fill="white" stroke="black" points="672.5,-6 672.5,-25 815.5,-25 815.5,-6 672.5,-6"/>
<text text-anchor="middle" x="744" y="-13" font-family="Helvetica,sans-Serif" font-size="10.00">erpc_spi_slave_transport.hpp</text>
</a>
</g>
</g>
<!-- Node2&#45;&gt;Node21 -->
<g id="edge56" class="edge"><title>Node2&#45;&gt;Node21</title>
<path fill="none" stroke="midnightblue" d="M1418.25,-207.222C1343.33,-202.865 1217.73,-191.926 1113,-165 971.548,-128.632 811.959,-50.9962 760.751,-25.1046"/>
<polygon fill="midnightblue" stroke="midnightblue" points="1418.3,-210.73 1428.48,-207.793 1418.69,-203.74 1418.3,-210.73"/>
</g>
<!-- Node24 -->
<g id="node24" class="node"><title>Node24</title>
<g id="a_node24"><a xlink:href="erpc__uart__cmsis__transport_8hpp.html" target="_top" xlink:title="erpc_uart_cmsis_transport.hpp">
<polygon fill="white" stroke="black" points="833.5,-6 833.5,-25 984.5,-25 984.5,-6 833.5,-6"/>
<text text-anchor="middle" x="909" y="-13" font-family="Helvetica,sans-Serif" font-size="10.00">erpc_uart_cmsis_transport.hpp</text>
</a>
</g>
</g>
<!-- Node2&#45;&gt;Node24 -->
<g id="edge57" class="edge"><title>Node2&#45;&gt;Node24</title>
<path fill="none" stroke="midnightblue" d="M1418.26,-206.081C1358.11,-201.052 1267.3,-189.793 1192,-165 1080.53,-128.3 960.084,-50.8808 921.577,-25.0745"/>
<polygon fill="midnightblue" stroke="midnightblue" points="1418.13,-209.582 1428.38,-206.893 1418.69,-202.605 1418.13,-209.582"/>
</g>
<!-- Node25 -->
<g id="node25" class="node"><title>Node25</title>
<g id="a_node25"><a xlink:href="erpc__uart__zephyr__transport_8hpp.html" target="_top" xlink:title="erpc_uart_zephyr_transport.hpp">
<polygon fill="white" stroke="black" points="1003,-6 1003,-25 1157,-25 1157,-6 1003,-6"/>
<text text-anchor="middle" x="1080" y="-13" font-family="Helvetica,sans-Serif" font-size="10.00">erpc_uart_zephyr_transport.hpp</text>
</a>
</g>
</g>
<!-- Node2&#45;&gt;Node25 -->
<g id="edge58" class="edge"><title>Node2&#45;&gt;Node25</title>
<path fill="none" stroke="midnightblue" d="M1418.24,-207.563C1367.73,-203.433 1297.45,-192.672 1242,-165 1169.97,-129.052 1106.62,-51.4804 1086.58,-25.3201"/>
<polygon fill="midnightblue" stroke="midnightblue" points="1418.16,-211.066 1428.39,-208.325 1418.68,-204.086 1418.16,-211.066"/>
</g>
<!-- Node26 -->
<g id="node26" class="node"><title>Node26</title>
<g id="a_node26"><a xlink:href="erpc__usb__cdc__transport_8hpp.html" target="_top" xlink:title="erpc_usb_cdc_transport.hpp">
<polygon fill="white" stroke="black" points="2582,-6 2582,-25 2722,-25 2722,-6 2582,-6"/>
<text text-anchor="middle" x="2652" y="-13" font-family="Helvetica,sans-Serif" font-size="10.00">erpc_usb_cdc_transport.hpp</text>
</a>
</g>
</g>
<!-- Node2&#45;&gt;Node26 -->
<g id="edge59" class="edge"><title>Node2&#45;&gt;Node26</title>
<path fill="none" stroke="midnightblue" d="M1549.99,-207.576C1669.97,-202.622 1919.08,-189.667 2002,-165 2013.05,-161.712 2173.96,-70.3209 2185,-67 2350.85,-17.1309 2401.44,-54.6559 2573,-31 2584.88,-29.362 2597.69,-27.1881 2609.47,-25.0233"/>
<polygon fill="midnightblue" stroke="midnightblue" points="1549.69,-204.085 1539.84,-207.989 1549.97,-211.08 1549.69,-204.085"/>
</g>
<!-- Node27 -->
<g id="node27" class="node"><title>Node27</title>
<g id="a_node27"><a xlink:href="erpc__port_8h.html" target="_top" xlink:title="erpc_port.h">
<polygon fill="white" stroke="black" points="1767.5,-140 1767.5,-159 1832.5,-159 1832.5,-140 1767.5,-140"/>
<text text-anchor="middle" x="1800" y="-147" font-family="Helvetica,sans-Serif" font-size="10.00">erpc_port.h</text>
</a>
</g>
</g>
<!-- Node2&#45;&gt;Node27 -->
<g id="edge27" class="edge"><title>Node2&#45;&gt;Node27</title>
<path fill="none" stroke="midnightblue" d="M1549.48,-201.54C1604.26,-193.869 1684.25,-181.279 1753,-165 1759.98,-163.347 1767.44,-161.218 1774.31,-159.103"/>
<polygon fill="midnightblue" stroke="midnightblue" points="1548.98,-198.076 1539.56,-202.915 1549.94,-205.009 1548.98,-198.076"/>
</g>
<!-- Node28 -->
<g id="node28" class="node"><title>Node28</title>
<g id="a_node28"><a xlink:href="erpc__setup__extensions_8h.html" target="_top" xlink:title="erpc_setup_extensions.h">
<polygon fill="white" stroke="black" points="1850.5,-140 1850.5,-159 1975.5,-159 1975.5,-140 1850.5,-140"/>
<text text-anchor="middle" x="1913" y="-147" font-family="Helvetica,sans-Serif" font-size="10.00">erpc_setup_extensions.h</text>
</a>
</g>
</g>
<!-- Node2&#45;&gt;Node28 -->
<g id="edge28" class="edge"><title>Node2&#45;&gt;Node28</title>
<path fill="none" stroke="midnightblue" d="M1549.97,-203.236C1621.97,-195.498 1740.52,-181.714 1842,-165 1852.43,-163.282 1863.66,-161.131 1874.04,-159.015"/>
<polygon fill="midnightblue" stroke="midnightblue" points="1549.26,-199.791 1539.69,-204.333 1550.01,-206.752 1549.26,-199.791"/>
</g>
<!-- Node29 -->
<g id="node29" class="node"><title>Node29</title>
<g id="a_node29"><a xlink:href="erpc__threading_8h.html" target="_top" xlink:title="erpc_threading.h">
<polygon fill="white" stroke="black" points="1365.5,-140 1365.5,-159 1454.5,-159 1454.5,-140 1365.5,-140"/>
<text text-anchor="middle" x="1410" y="-147" font-family="Helvetica,sans-Serif" font-size="10.00">erpc_threading.h</text>
</a>
</g>
</g>
<!-- Node2&#45;&gt;Node29 -->
<g id="edge29" class="edge"><title>Node2&#45;&gt;Node29</title>
<path fill="none" stroke="midnightblue" d="M1465.31,-194.973C1451.16,-183.593 1432.22,-168.369 1420.58,-159.009"/>
<polygon fill="midnightblue" stroke="midnightblue" points="1463.41,-197.937 1473.4,-201.475 1467.8,-192.481 1463.41,-197.937"/>
</g>
<!-- Node31 -->
<g id="node31" class="node"><title>Node31</title>
<g id="a_node31"><a xlink:href="erpc__mu__transport_8hpp.html" target="_top" xlink:title="erpc_mu_transport.hpp">
<polygon fill="white" stroke="black" points="1814,-73 1814,-92 1930,-92 1930,-73 1814,-73"/>
<text text-anchor="middle" x="1872" y="-80" font-family="Helvetica,sans-Serif" font-size="10.00">erpc_mu_transport.hpp</text>
</a>
</g>
</g>
<!-- Node2&#45;&gt;Node31 -->
<g id="edge50" class="edge"><title>Node2&#45;&gt;Node31</title>
<path fill="none" stroke="midnightblue" d="M1549.98,-208.924C1679.33,-206.129 1956.21,-196.495 1985,-165 2014.54,-132.687 1945.82,-105.325 1903.02,-92.0666"/>
<polygon fill="midnightblue" stroke="midnightblue" points="1549.73,-205.429 1539.8,-209.137 1549.87,-212.427 1549.73,-205.429"/>
</g>
<!-- Node32 -->
<g id="node32" class="node"><title>Node32</title>
<g id="a_node32"><a xlink:href="erpc__server__setup_8h.html" target="_top" xlink:title="erpc_server_setup.h">
<polygon fill="white" stroke="black" points="2070,-140 2070,-159 2174,-159 2174,-140 2070,-140"/>
<text text-anchor="middle" x="2122" y="-147" font-family="Helvetica,sans-Serif" font-size="10.00">erpc_server_setup.h</text>
</a>
</g>
</g>
<!-- Node2&#45;&gt;Node32 -->
<g id="edge45" class="edge"><title>Node2&#45;&gt;Node32</title>
<path fill="none" stroke="midnightblue" d="M1549.79,-207.77C1656.54,-203.492 1873.87,-192.04 2056,-165 2066.33,-163.467 2077.45,-161.247 2087.57,-159.003"/>
<polygon fill="midnightblue" stroke="midnightblue" points="1549.36,-204.284 1539.5,-208.174 1549.63,-211.279 1549.36,-204.284"/>
</g>
<!-- Node33 -->
<g id="node33" class="node"><title>Node33</title>
<g id="a_node33"><a xlink:href="erpc__rpmsg__lite__base_8hpp.html" target="_top" xlink:title="erpc_rpmsg_lite_base.hpp">
<polygon fill="white" stroke="black" points="2192.5,-140 2192.5,-159 2323.5,-159 2323.5,-140 2192.5,-140"/>
<text text-anchor="middle" x="2258" y="-147" font-family="Helvetica,sans-Serif" font-size="10.00">erpc_rpmsg_lite_base.hpp</text>
</a>
</g>
</g>
<!-- Node2&#45;&gt;Node33 -->
<g id="edge51" class="edge"><title>Node2&#45;&gt;Node33</title>
<path fill="none" stroke="midnightblue" d="M1549.6,-208.546C1673.73,-205.183 1951.3,-194.735 2183,-165 2194.71,-163.498 2207.34,-161.287 2218.84,-159.043"/>
<polygon fill="midnightblue" stroke="midnightblue" points="1549.41,-205.05 1539.5,-208.813 1549.59,-212.048 1549.41,-205.05"/>
</g>
<!-- Node35 -->
<g id="node35" class="node"><title>Node35</title>
<g id="a_node35"><a xlink:href="erpc__rpmsg__lite__transport_8hpp.html" target="_top" xlink:title="erpc_rpmsg_lite_transport.hpp">
<polygon fill="white" stroke="black" points="2330,-73 2330,-92 2478,-92 2478,-73 2330,-73"/>
<text text-anchor="middle" x="2404" y="-80" font-family="Helvetica,sans-Serif" font-size="10.00">erpc_rpmsg_lite_transport.hpp</text>
</a>
</g>
</g>
<!-- Node2&#45;&gt;Node35 -->
<g id="edge55" class="edge"><title>Node2&#45;&gt;Node35</title>
<path fill="none" stroke="midnightblue" d="M1549.89,-209.45C1737.13,-207.476 2263.37,-198.938 2333,-165 2366.06,-148.884 2390.12,-109.672 2399.58,-92.1765"/>
<polygon fill="midnightblue" stroke="midnightblue" points="1549.6,-205.952 1539.64,-209.555 1549.67,-212.952 1549.6,-205.952"/>
</g>
<!-- Node4 -->
<g id="node4" class="node"><title>Node4</title>
<g id="a_node4"><a xlink:href="erpc__client__manager_8h.html" target="_top" xlink:title="erpc_client_manager.h">
<polygon fill="white" stroke="black" points="245.5,-73 245.5,-92 360.5,-92 360.5,-73 245.5,-73"/>
<text text-anchor="middle" x="303" y="-80" font-family="Helvetica,sans-Serif" font-size="10.00">erpc_client_manager.h</text>
</a>
</g>
</g>
<!-- Node3&#45;&gt;Node4 -->
<g id="edge3" class="edge"><title>Node3&#45;&gt;Node4</title>
<path fill="none" stroke="midnightblue" d="M548.207,-136.102C487.951,-123.176 395.132,-103.264 342.673,-92.0108"/>
<polygon fill="midnightblue" stroke="midnightblue" points="547.811,-139.597 558.323,-138.272 549.28,-132.753 547.811,-139.597"/>
</g>
<!-- Node3&#45;&gt;Node9 -->
<g id="edge8" class="edge"><title>Node3&#45;&gt;Node9</title>
<path fill="none" stroke="midnightblue" d="M606,-124.25C606,-113.017 606,-100.377 606,-92.1945"/>
<polygon fill="midnightblue" stroke="midnightblue" points="602.5,-124.396 606,-134.396 609.5,-124.396 602.5,-124.396"/>
</g>
<!-- Node5 -->
<g id="node5" class="node"><title>Node5</title>
<g id="a_node5"><a xlink:href="erpc__arbitrated__client__manager_8hpp.html" target="_top" xlink:title="erpc_arbitrated_client\l_manager.hpp">
<polygon fill="white" stroke="black" points="248,-0.5 248,-30.5 358,-30.5 358,-0.5 248,-0.5"/>
<text text-anchor="start" x="256" y="-18.5" font-family="Helvetica,sans-Serif" font-size="10.00">erpc_arbitrated_client</text>
<text text-anchor="middle" x="303" y="-7.5" font-family="Helvetica,sans-Serif" font-size="10.00">_manager.hpp</text>
</a>
</g>
</g>
<!-- Node4&#45;&gt;Node5 -->
<g id="edge4" class="edge"><title>Node4&#45;&gt;Node5</title>
<path fill="none" stroke="midnightblue" d="M303,-62.4107C303,-52.222 303,-39.901 303,-30.589"/>
<polygon fill="midnightblue" stroke="midnightblue" points="299.5,-62.7338 303,-72.7338 306.5,-62.7338 299.5,-62.7338"/>
</g>
<!-- Node6 -->
<g id="node6" class="node"><title>Node6</title>
<g id="a_node6"><a xlink:href="erpc__transport__arbitrator_8hpp.html" target="_top" xlink:title="erpc_transport_arbitrator.hpp">
<polygon fill="white" stroke="black" points="376.5,-6 376.5,-25 517.5,-25 517.5,-6 376.5,-6"/>
<text text-anchor="middle" x="447" y="-13" font-family="Helvetica,sans-Serif" font-size="10.00">erpc_transport_arbitrator.hpp</text>
</a>
</g>
</g>
<!-- Node4&#45;&gt;Node6 -->
<g id="edge5" class="edge"><title>Node4&#45;&gt;Node6</title>
<path fill="none" stroke="midnightblue" d="M331.55,-68.6127C360.071,-55.7387 403.122,-36.3059 427.799,-25.1672"/>
<polygon fill="midnightblue" stroke="midnightblue" points="329.797,-65.5642 322.122,-72.8685 332.677,-71.9443 329.797,-65.5642"/>
</g>
<!-- Node4&#45;&gt;Node7 -->
<g id="edge6" class="edge"><title>Node4&#45;&gt;Node7</title>
<path fill="none" stroke="midnightblue" d="M260.414,-70.3384C218.42,-59.3319 154.102,-42.4743 108.641,-30.5592"/>
<polygon fill="midnightblue" stroke="midnightblue" points="259.763,-73.7858 270.323,-72.9355 261.537,-67.0145 259.763,-73.7858"/>
</g>
<!-- Node4&#45;&gt;Node8 -->
<g id="edge7" class="edge"><title>Node4&#45;&gt;Node8</title>
<path fill="none" stroke="midnightblue" d="M277.443,-68.1034C252.887,-55.2309 216.505,-36.16 195.534,-25.1672"/>
<polygon fill="midnightblue" stroke="midnightblue" points="276.052,-71.3256 286.534,-72.8685 279.302,-65.1258 276.052,-71.3256"/>
</g>
<!-- Node10 -->
<g id="node10" class="node"><title>Node10</title>
<g id="a_node10"><a xlink:href="erpc__simple__server_8hpp.html" target="_top" xlink:title="erpc_simple_server.hpp">
<polygon fill="white" stroke="black" points="535.5,-6 535.5,-25 654.5,-25 654.5,-6 535.5,-6"/>
<text text-anchor="middle" x="595" y="-13" font-family="Helvetica,sans-Serif" font-size="10.00">erpc_simple_server.hpp</text>
</a>
</g>
</g>
<!-- Node9&#45;&gt;Node10 -->
<g id="edge9" class="edge"><title>Node9&#45;&gt;Node10</title>
<path fill="none" stroke="midnightblue" d="M602.791,-62.537C600.698,-50.1703 598.066,-34.6198 596.46,-25.1273"/>
<polygon fill="midnightblue" stroke="midnightblue" points="599.397,-63.458 604.516,-72.7338 606.299,-62.29 599.397,-63.458"/>
</g>
<!-- Node13 -->
<g id="node13" class="node"><title>Node13</title>
<g id="a_node13"><a xlink:href="erpc__dspi__master__transport_8hpp.html" target="_top" xlink:title="erpc_dspi_master_transport.hpp">
<polygon fill="white" stroke="black" points="2072,-6 2072,-25 2228,-25 2228,-6 2072,-6"/>
<text text-anchor="middle" x="2150" y="-13" font-family="Helvetica,sans-Serif" font-size="10.00">erpc_dspi_master_transport.hpp</text>
</a>
</g>
</g>
<!-- Node12&#45;&gt;Node13 -->
<g id="edge12" class="edge"><title>Node12&#45;&gt;Node13</title>
<path fill="none" stroke="midnightblue" d="M1631.04,-71.1894C1640.02,-69.645 1649.26,-68.1781 1658,-67 1837.09,-42.8609 1883.74,-53.871 2063,-31 2075.91,-29.3527 2089.84,-27.2008 2102.69,-25.0609"/>
<polygon fill="midnightblue" stroke="midnightblue" points="1630.3,-67.7662 1621.07,-72.9549 1631.52,-74.6592 1630.3,-67.7662"/>
</g>
<!-- Node12&#45;&gt;Node14 -->
<g id="edge13" class="edge"><title>Node12&#45;&gt;Node14</title>
<path fill="none" stroke="midnightblue" d="M1524.64,-70.9583C1459.89,-58.1649 1351.97,-36.8434 1292.18,-25.0317"/>
<polygon fill="midnightblue" stroke="midnightblue" points="1524.16,-74.4309 1534.65,-72.9355 1525.52,-67.5636 1524.16,-74.4309"/>
</g>
<!-- Node12&#45;&gt;Node15 -->
<g id="edge14" class="edge"><title>Node12&#45;&gt;Node15</title>
<path fill="none" stroke="midnightblue" d="M1546.53,-69.1041C1513.77,-56.1984 1463.33,-36.3272 1434.74,-25.0637"/>
<polygon fill="midnightblue" stroke="midnightblue" points="1545.5,-72.4596 1556.09,-72.8685 1548.07,-65.9468 1545.5,-72.4596"/>
</g>
<!-- Node12&#45;&gt;Node16 -->
<g id="edge15" class="edge"><title>Node12&#45;&gt;Node16</title>
<path fill="none" stroke="midnightblue" d="M1629.78,-71.2009C1639.14,-69.5996 1648.84,-68.1108 1658,-67 1913.95,-35.9554 1980.92,-60.9733 2237,-31 2250.08,-29.4688 2264.22,-27.2498 2277.1,-25.0062"/>
<polygon fill="midnightblue" stroke="midnightblue" points="1629.03,-67.7795 1619.79,-72.9701 1630.25,-74.6722 1629.03,-67.7795"/>
</g>
<!-- Node12&#45;&gt;Node17 -->
<g id="edge16" class="edge"><title>Node12&#45;&gt;Node17</title>
<path fill="none" stroke="midnightblue" d="M1650.62,-71.7482C1665.6,-69.9688 1681.3,-68.275 1696,-67 2010.34,-39.7417 2091.42,-65.8983 2405,-31 2418.24,-29.5268 2432.55,-27.2973 2445.54,-25.0254"/>
<polygon fill="midnightblue" stroke="midnightblue" points="1649.88,-68.3115 1640.38,-72.9896 1650.73,-75.2606 1649.88,-68.3115"/>
</g>
<!-- Node18 -->
<g id="node18" class="node"><title>Node18</title>
<g id="a_node18"><a xlink:href="erpc__rpmsg__tty__rtos__transport_8hpp.html" target="_top" xlink:title="erpc_rpmsg_tty_rtos\l_transport.hpp">
<polygon fill="white" stroke="black" points="2740,-0.5 2740,-30.5 2846,-30.5 2846,-0.5 2740,-0.5"/>
<text text-anchor="start" x="2748" y="-18.5" font-family="Helvetica,sans-Serif" font-size="10.00">erpc_rpmsg_tty_rtos</text>
<text text-anchor="middle" x="2793" y="-7.5" font-family="Helvetica,sans-Serif" font-size="10.00">_transport.hpp</text>
</a>
</g>
</g>
<!-- Node12&#45;&gt;Node18 -->
<g id="edge17" class="edge"><title>Node12&#45;&gt;Node18</title>
<path fill="none" stroke="midnightblue" d="M1654.09,-76.1644C1698.16,-73.1934 1754.69,-69.5843 1805,-67 2216.32,-45.8708 2322.84,-86.1473 2731,-31 2733.85,-30.6152 2736.76,-30.1589 2739.69,-29.6498"/>
<polygon fill="midnightblue" stroke="midnightblue" points="1653.77,-72.678 1644.03,-76.8462 1654.24,-79.662 1653.77,-72.678"/>
</g>
<!-- Node19 -->
<g id="node19" class="node"><title>Node19</title>
<g id="a_node19"><a xlink:href="erpc__serial__transport_8hpp.html" target="_top" xlink:title="erpc_serial_transport.hpp">
<polygon fill="white" stroke="black" points="1637,-6 1637,-25 1763,-25 1763,-6 1637,-6"/>
<text text-anchor="middle" x="1700" y="-13" font-family="Helvetica,sans-Serif" font-size="10.00">erpc_serial_transport.hpp</text>
</a>
</g>
</g>
<!-- Node12&#45;&gt;Node19 -->
<g id="edge18" class="edge"><title>Node12&#45;&gt;Node19</title>
<path fill="none" stroke="midnightblue" d="M1603.14,-68.1034C1627.31,-55.2309 1663.1,-36.16 1683.73,-25.1672"/>
<polygon fill="midnightblue" stroke="midnightblue" points="1601.38,-65.0774 1594.2,-72.8685 1604.67,-71.2553 1601.38,-65.0774"/>
</g>
<!-- Node20 -->
<g id="node20" class="node"><title>Node20</title>
<g id="a_node20"><a xlink:href="erpc__spi__master__transport_8hpp.html" target="_top" xlink:title="erpc_spi_master_transport.hpp">
<polygon fill="white" stroke="black" points="1781.5,-6 1781.5,-25 1932.5,-25 1932.5,-6 1781.5,-6"/>
<text text-anchor="middle" x="1857" y="-13" font-family="Helvetica,sans-Serif" font-size="10.00">erpc_spi_master_transport.hpp</text>
</a>
</g>
</g>
<!-- Node12&#45;&gt;Node20 -->
<g id="edge19" class="edge"><title>Node12&#45;&gt;Node20</title>
<path fill="none" stroke="midnightblue" d="M1624.6,-70.644C1679.57,-57.8371 1769.83,-36.8091 1820.16,-25.0834"/>
<polygon fill="midnightblue" stroke="midnightblue" points="1623.71,-67.2578 1614.76,-72.9355 1625.29,-74.0752 1623.71,-67.2578"/>
</g>
<!-- Node12&#45;&gt;Node21 -->
<g id="edge20" class="edge"><title>Node12&#45;&gt;Node21</title>
<path fill="none" stroke="midnightblue" d="M1501.8,-76.6286C1316.92,-64.7776 857.225,-35.1104 824,-31 811.673,-29.4749 798.367,-27.2849 786.213,-25.0674"/>
<polygon fill="midnightblue" stroke="midnightblue" points="1501.78,-80.1346 1511.99,-77.2813 1502.23,-73.1489 1501.78,-80.1346"/>
</g>
<!-- Node22 -->
<g id="node22" class="node"><title>Node22</title>
<g id="a_node22"><a xlink:href="erpc__spidev__master__transport_8hpp.html" target="_top" xlink:title="erpc_spidev_master\l_transport.hpp">
<polygon fill="white" stroke="black" points="1950.5,-0.5 1950.5,-30.5 2053.5,-30.5 2053.5,-0.5 1950.5,-0.5"/>
<text text-anchor="start" x="1958.5" y="-18.5" font-family="Helvetica,sans-Serif" font-size="10.00">erpc_spidev_master</text>
<text text-anchor="middle" x="2002" y="-7.5" font-family="Helvetica,sans-Serif" font-size="10.00">_transport.hpp</text>
</a>
</g>
</g>
<!-- Node12&#45;&gt;Node22 -->
<g id="edge21" class="edge"><title>Node12&#45;&gt;Node22</title>
<path fill="none" stroke="midnightblue" d="M1632.89,-71.1528C1641.29,-69.6851 1649.87,-68.2516 1658,-67 1783.75,-47.6476 1816.86,-53.9791 1942,-31 1944.74,-30.4968 1947.54,-29.9462 1950.37,-29.3631"/>
<polygon fill="midnightblue" stroke="midnightblue" points="1632.01,-67.7541 1622.78,-72.95 1633.24,-74.6461 1632.01,-67.7541"/>
</g>
<!-- Node23 -->
<g id="node23" class="node"><title>Node23</title>
<g id="a_node23"><a xlink:href="erpc__tcp__transport_8hpp.html" target="_top" xlink:title="erpc_tcp_transport.hpp">
<polygon fill="white" stroke="black" points="1503,-6 1503,-25 1619,-25 1619,-6 1503,-6"/>
<text text-anchor="middle" x="1561" y="-13" font-family="Helvetica,sans-Serif" font-size="10.00">erpc_tcp_transport.hpp</text>
</a>
</g>
</g>
<!-- Node12&#45;&gt;Node23 -->
<g id="edge22" class="edge"><title>Node12&#45;&gt;Node23</title>
<path fill="none" stroke="midnightblue" d="M1573.14,-62.9145C1569.89,-50.4883 1565.76,-34.7166 1563.26,-25.1273"/>
<polygon fill="midnightblue" stroke="midnightblue" points="1569.79,-63.9448 1575.71,-72.7338 1576.56,-62.1736 1569.79,-63.9448"/>
</g>
<!-- Node12&#45;&gt;Node24 -->
<g id="edge23" class="edge"><title>Node12&#45;&gt;Node24</title>
<path fill="none" stroke="midnightblue" d="M1501.52,-76.9114C1389.74,-69.7464 1175.33,-54.2659 994,-31 981.23,-29.3616 967.448,-27.1876 954.774,-25.0228"/>
<polygon fill="midnightblue" stroke="midnightblue" points="1501.48,-80.416 1511.69,-77.5581 1501.93,-73.4301 1501.48,-80.416"/>
</g>
<!-- Node12&#45;&gt;Node25 -->
<g id="edge24" class="edge"><title>Node12&#45;&gt;Node25</title>
<path fill="none" stroke="midnightblue" d="M1501.8,-73.2004C1419,-63.9401 1282.89,-48.009 1166,-31 1153.71,-29.2122 1140.47,-27.0819 1128.15,-25.0121"/>
<polygon fill="midnightblue" stroke="midnightblue" points="1501.55,-76.6942 1511.87,-74.3239 1502.32,-69.7373 1501.55,-76.6942"/>
</g>
<!-- Node12&#45;&gt;Node26 -->
<g id="edge25" class="edge"><title>Node12&#45;&gt;Node26</title>
<path fill="none" stroke="midnightblue" d="M1654.74,-75.2372C1690.38,-72.4637 1733.34,-69.3132 1772,-67 2127.72,-45.7171 2218.92,-71.2604 2573,-31 2585.61,-29.5664 2599.23,-27.3198 2611.56,-25.0193"/>
<polygon fill="midnightblue" stroke="midnightblue" points="1654.11,-71.776 1644.41,-76.0463 1654.65,-78.7546 1654.11,-71.776"/>
</g>
<!-- Node29&#45;&gt;Node6 -->
<g id="edge30" class="edge"><title>Node29&#45;&gt;Node6</title>
<path fill="none" stroke="midnightblue" d="M1355.32,-142.603C1273.57,-133.668 1114.7,-115.845 980,-98 777.803,-71.213 727.226,-64.3046 526,-31 514.994,-29.1784 503.152,-27.0793 492.071,-25.0541"/>
<polygon fill="midnightblue" stroke="midnightblue" points="1355.06,-146.095 1365.38,-143.7 1355.81,-139.136 1355.06,-146.095"/>
</g>
<!-- Node29&#45;&gt;Node12 -->
<g id="edge31" class="edge"><title>Node29&#45;&gt;Node12</title>
<path fill="none" stroke="midnightblue" d="M1442.04,-136.104C1475.39,-123.198 1526.75,-103.327 1555.87,-92.0637"/>
<polygon fill="midnightblue" stroke="midnightblue" points="1440.37,-132.996 1432.31,-139.869 1442.9,-139.524 1440.37,-132.996"/>
</g>
<!-- Node29&#45;&gt;Node14 -->
<g id="edge32" class="edge"><title>Node29&#45;&gt;Node14</title>
<path fill="none" stroke="midnightblue" d="M1400.72,-130.995C1390.49,-113.055 1372.61,-85.2722 1351,-67 1328.07,-47.6061 1296.41,-33.4392 1274.47,-25.1294"/>
<polygon fill="midnightblue" stroke="midnightblue" points="1397.69,-132.757 1405.58,-139.826 1403.82,-129.379 1397.69,-132.757"/>
</g>
<!-- Node29&#45;&gt;Node15 -->
<g id="edge33" class="edge"><title>Node29&#45;&gt;Node15</title>
<path fill="none" stroke="midnightblue" d="M1410.43,-129.775C1411.09,-100.746 1412.33,-46.0381 1412.81,-25.0212"/>
<polygon fill="midnightblue" stroke="midnightblue" points="1406.93,-129.762 1410.2,-139.839 1413.92,-129.921 1406.93,-129.762"/>
</g>
<!-- Node29&#45;&gt;Node16 -->
<g id="edge35" class="edge"><title>Node29&#45;&gt;Node16</title>
<path fill="none" stroke="midnightblue" d="M1464.79,-143.723C1515.39,-137.8 1591.76,-124.966 1653,-98 1674.56,-88.5059 1673.83,-74.9798 1696,-67 1809.37,-26.19 2117.36,-45.2672 2237,-31 2249.93,-29.4579 2263.9,-27.2626 2276.66,-25.0454"/>
<polygon fill="midnightblue" stroke="midnightblue" points="1464.26,-140.261 1454.71,-144.851 1465.04,-147.217 1464.26,-140.261"/>
</g>
<!-- Node29&#45;&gt;Node17 -->
<g id="edge36" class="edge"><title>Node29&#45;&gt;Node17</title>
<path fill="none" stroke="midnightblue" d="M1464.7,-141.543C1521.43,-133.646 1612.37,-119.065 1689,-98 1726.97,-87.5628 1733.46,-75.0982 1772,-67 2047.76,-9.04965 2125.04,-63.0186 2405,-31 2418.09,-29.5034 2432.23,-27.2949 2445.1,-25.0503"/>
<polygon fill="midnightblue" stroke="midnightblue" points="1463.95,-138.113 1454.52,-142.94 1464.9,-145.048 1463.95,-138.113"/>
</g>
<!-- Node29&#45;&gt;Node21 -->
<g id="edge38" class="edge"><title>Node29&#45;&gt;Node21</title>
<path fill="none" stroke="midnightblue" d="M1355.09,-144.652C1285.15,-138.837 1160.99,-125.44 1058,-98 1021.95,-88.3956 1015.7,-77.8297 980,-67 944.716,-56.2958 846.401,-36.4407 788.399,-25.0767"/>
<polygon fill="midnightblue" stroke="midnightblue" points="1355.18,-148.17 1365.43,-145.488 1355.74,-141.193 1355.18,-148.17"/>
</g>
<!-- Node29&#45;&gt;Node23 -->
<g id="edge39" class="edge"><title>Node29&#45;&gt;Node23</title>
<path fill="none" stroke="midnightblue" d="M1427.46,-133.171C1446.14,-116.778 1476.64,-90.0255 1503,-67 1519.89,-52.2437 1539.59,-35.1065 1551.14,-25.0684"/>
<polygon fill="midnightblue" stroke="midnightblue" points="1424.97,-130.697 1419.77,-139.924 1429.59,-135.957 1424.97,-130.697"/>
</g>
<!-- Node29&#45;&gt;Node24 -->
<g id="edge40" class="edge"><title>Node29&#45;&gt;Node24</title>
<path fill="none" stroke="midnightblue" d="M1355.42,-139.868C1303.08,-131.098 1222.04,-116.232 1153,-98 1131.19,-92.2411 991.881,-44.827 934.079,-25.0804"/>
<polygon fill="midnightblue" stroke="midnightblue" points="1355.06,-143.355 1365.5,-141.54 1356.2,-136.45 1355.06,-143.355"/>
</g>
<!-- Node29&#45;&gt;Node25 -->
<g id="edge41" class="edge"><title>Node29&#45;&gt;Node25</title>
<path fill="none" stroke="midnightblue" d="M1355.43,-139.074C1315.07,-131.022 1259.31,-117.599 1213,-98 1164.87,-77.6298 1113.72,-41.6515 1091.45,-25.1771"/>
<polygon fill="midnightblue" stroke="midnightblue" points="1354.86,-142.528 1365.34,-141.006 1356.2,-135.658 1354.86,-142.528"/>
</g>
<!-- Node29&#45;&gt;Node26 -->
<g id="edge42" class="edge"><title>Node29&#45;&gt;Node26</title>
<path fill="none" stroke="midnightblue" d="M1465.07,-145.715C1532.51,-141.06 1649.53,-128.925 1745,-98 1773.55,-88.7505 1776.01,-74.7706 1805,-67 1970.03,-22.7687 2403.26,-50.4661 2573,-31 2585.61,-29.5542 2599.23,-27.3041 2611.56,-25.0042"/>
<polygon fill="midnightblue" stroke="midnightblue" points="1464.43,-142.249 1454.69,-146.399 1464.89,-149.234 1464.43,-142.249"/>
</g>
<!-- Node30 -->
<g id="node30" class="node"><title>Node30</title>
<g id="a_node30"><a xlink:href="erpc__inter__thread__buffer__transport_8hpp.html" target="_top" xlink:title="erpc_inter_thread_buffer\l_transport.hpp">
<polygon fill="white" stroke="black" points="1222,-67.5 1222,-97.5 1342,-97.5 1342,-67.5 1222,-67.5"/>
<text text-anchor="start" x="1230" y="-85.5" font-family="Helvetica,sans-Serif" font-size="10.00">erpc_inter_thread_buffer</text>
<text text-anchor="middle" x="1282" y="-74.5" font-family="Helvetica,sans-Serif" font-size="10.00">_transport.hpp</text>
</a>
</g>
</g>
<!-- Node29&#45;&gt;Node30 -->
<g id="edge34" class="edge"><title>Node29&#45;&gt;Node30</title>
<path fill="none" stroke="midnightblue" d="M1383.8,-135.194C1362.27,-124.261 1331.84,-108.81 1309.87,-97.6516"/>
<polygon fill="midnightblue" stroke="midnightblue" points="1382.5,-138.461 1393,-139.869 1385.67,-132.22 1382.5,-138.461"/>
</g>
<!-- Node29&#45;&gt;Node31 -->
<g id="edge37" class="edge"><title>Node29&#45;&gt;Node31</title>
<path fill="none" stroke="midnightblue" d="M1464.83,-142.625C1540.47,-134.241 1680.98,-117.665 1800,-98 1810.44,-96.2747 1821.68,-94.144 1832.1,-92.052"/>
<polygon fill="midnightblue" stroke="midnightblue" points="1464.16,-139.178 1454.6,-143.753 1464.92,-146.136 1464.16,-139.178"/>
</g>
<!-- Node33&#45;&gt;Node18 -->
<g id="edge54" class="edge"><title>Node33&#45;&gt;Node18</title>
<path fill="none" stroke="midnightblue" d="M2234.7,-134.55C2209.46,-117.759 2175.36,-89.0715 2196,-67 2236.69,-23.4801 2672.08,-39.8129 2731,-31 2733.84,-30.5749 2736.75,-30.0865 2739.67,-29.5522"/>
<polygon fill="midnightblue" stroke="midnightblue" points="2232.85,-137.52 2243.16,-139.962 2236.63,-131.624 2232.85,-137.52"/>
</g>
<!-- Node34 -->
<g id="node34" class="node"><title>Node34</title>
<g id="a_node34"><a xlink:href="erpc__rpmsg__lite__rtos__transport_8hpp.html" target="_top" xlink:title="erpc_rpmsg_lite_rtos\l_transport.hpp">
<polygon fill="white" stroke="black" points="2204.5,-67.5 2204.5,-97.5 2311.5,-97.5 2311.5,-67.5 2204.5,-67.5"/>
<text text-anchor="start" x="2212.5" y="-85.5" font-family="Helvetica,sans-Serif" font-size="10.00">erpc_rpmsg_lite_rtos</text>
<text text-anchor="middle" x="2258" y="-74.5" font-family="Helvetica,sans-Serif" font-size="10.00">_transport.hpp</text>
</a>
</g>
</g>
<!-- Node33&#45;&gt;Node34 -->
<g id="edge52" class="edge"><title>Node33&#45;&gt;Node34</title>
<path fill="none" stroke="midnightblue" d="M2258,-129.411C2258,-119.222 2258,-106.901 2258,-97.589"/>
<polygon fill="midnightblue" stroke="midnightblue" points="2254.5,-129.734 2258,-139.734 2261.5,-129.734 2254.5,-129.734"/>
</g>
<!-- Node33&#45;&gt;Node35 -->
<g id="edge53" class="edge"><title>Node33&#45;&gt;Node35</title>
<path fill="none" stroke="midnightblue" d="M2286.57,-135.781C2315.48,-122.909 2359.4,-103.355 2384.53,-92.1672"/>
<polygon fill="midnightblue" stroke="midnightblue" points="2285.1,-132.604 2277.39,-139.869 2287.95,-138.999 2285.1,-132.604"/>
</g>
</g>
</svg>
