<?xml version="1.0" encoding="UTF-8" standalone="no"?>
<!DOCTYPE svg PUBLIC "-//W3C//DTD SVG 1.1//EN"
 "http://www.w3.org/Graphics/SVG/1.1/DTD/svg11.dtd">
<!-- Generated by graphviz version 2.38.0 (20140413.2041)
 -->
<!-- Title: erpc_transport_arbitrator.hpp Pages: 1 -->
<svg width="460pt" height="375pt"
 viewBox="0.00 0.00 459.50 375.00" xmlns="http://www.w3.org/2000/svg" xmlns:xlink="http://www.w3.org/1999/xlink">
<g id="graph0" class="graph" transform="scale(1 1) rotate(0) translate(4 371)">
<title>erpc_transport_arbitrator.hpp</title>
<polygon fill="white" stroke="none" points="-4,4 -4,-371 455.5,-371 455.5,4 -4,4"/>
<!-- Node1 -->
<g id="node1" class="node"><title>Node1</title>
<polygon fill="#bfbfbf" stroke="black" points="147.5,-347.5 147.5,-366.5 288.5,-366.5 288.5,-347.5 147.5,-347.5"/>
<text text-anchor="middle" x="218" y="-354.5" font-family="Helvetica,sans-Serif" font-size="10.00">erpc_transport_arbitrator.hpp</text>
</g>
<!-- Node2 -->
<g id="node2" class="node"><title>Node2</title>
<g id="a_node2"><a xlink:href="erpc__client__manager_8h.html" target="_top" xlink:title="erpc_client_manager.h">
<polygon fill="white" stroke="black" points="203.5,-291.5 203.5,-310.5 318.5,-310.5 318.5,-291.5 203.5,-291.5"/>
<text text-anchor="middle" x="261" y="-298.5" font-family="Helvetica,sans-Serif" font-size="10.00">erpc_client_manager.h</text>
</a>
</g>
</g>
<!-- Node1&#45;&gt;Node2 -->
<g id="edge1" class="edge"><title>Node1&#45;&gt;Node2</title>
<path fill="none" stroke="midnightblue" d="M225.101,-347.083C231.237,-339.377 240.27,-328.033 247.739,-318.653"/>
<polygon fill="midnightblue" stroke="midnightblue" points="250.54,-320.754 254.032,-310.751 245.064,-316.394 250.54,-320.754"/>
</g>
<!-- Node4 -->
<g id="node4" class="node"><title>Node4</title>
<g id="a_node4"><a xlink:href="erpc__codec_8hpp.html" target="_top" xlink:title="erpc_codec.hpp">
<polygon fill="white" stroke="black" points="149,-168.5 149,-187.5 235,-187.5 235,-168.5 149,-168.5"/>
<text text-anchor="middle" x="192" y="-175.5" font-family="Helvetica,sans-Serif" font-size="10.00">erpc_codec.hpp</text>
</a>
</g>
</g>
<!-- Node1&#45;&gt;Node4 -->
<g id="edge20" class="edge"><title>Node1&#45;&gt;Node4</title>
<path fill="none" stroke="midnightblue" d="M211.678,-347.221C205.818,-338.512 197.496,-324.546 194,-311 183.869,-271.741 186.784,-223.706 189.553,-197.772"/>
<polygon fill="midnightblue" stroke="midnightblue" points="193.067,-197.865 190.768,-187.523 186.115,-197.041 193.067,-197.865"/>
</g>
<!-- Node9 -->
<g id="node9" class="node"><title>Node9</title>
<g id="a_node9"><a xlink:href="erpc__transport_8hpp.html" target="_top" xlink:title="erpc_transport.hpp">
<polygon fill="white" stroke="black" points="66,-112.5 66,-131.5 164,-131.5 164,-112.5 66,-112.5"/>
<text text-anchor="middle" x="115" y="-119.5" font-family="Helvetica,sans-Serif" font-size="10.00">erpc_transport.hpp</text>
</a>
</g>
</g>
<!-- Node1&#45;&gt;Node9 -->
<g id="edge24" class="edge"><title>Node1&#45;&gt;Node9</title>
<path fill="none" stroke="midnightblue" d="M211.174,-347.428C204.412,-338.652 194.07,-324.432 187,-311 155.713,-251.556 130.821,-175.401 120.357,-141.134"/>
<polygon fill="midnightblue" stroke="midnightblue" points="123.708,-140.123 117.477,-131.555 117.005,-142.139 123.708,-140.123"/>
</g>
<!-- Node16 -->
<g id="node16" class="node"><title>Node16</title>
<g id="a_node16"><a xlink:href="erpc__threading_8h.html" target="_top" xlink:title="erpc_threading.h">
<polygon fill="white" stroke="black" points="321.5,-230 321.5,-249 410.5,-249 410.5,-230 321.5,-230"/>
<text text-anchor="middle" x="366" y="-237" font-family="Helvetica,sans-Serif" font-size="10.00">erpc_threading.h</text>
</a>
</g>
</g>
<!-- Node1&#45;&gt;Node16 -->
<g id="edge21" class="edge"><title>Node1&#45;&gt;Node16</title>
<path fill="none" stroke="midnightblue" d="M254.98,-347.449C277.841,-340.652 306.606,-329.196 327,-311 342.942,-296.775 353.745,-274.426 359.865,-258.712"/>
<polygon fill="midnightblue" stroke="midnightblue" points="363.241,-259.669 363.36,-249.074 356.661,-257.282 363.241,-259.669"/>
</g>
<!-- Node3 -->
<g id="node3" class="node"><title>Node3</title>
<g id="a_node3"><a xlink:href="erpc__client__server__common_8hpp.html" target="_top" xlink:title="erpc_client_server\l_common.hpp">
<polygon fill="white" stroke="black" points="208.5,-224.5 208.5,-254.5 303.5,-254.5 303.5,-224.5 208.5,-224.5"/>
<text text-anchor="start" x="216.5" y="-242.5" font-family="Helvetica,sans-Serif" font-size="10.00">erpc_client_server</text>
<text text-anchor="middle" x="256" y="-231.5" font-family="Helvetica,sans-Serif" font-size="10.00">_common.hpp</text>
</a>
</g>
</g>
<!-- Node2&#45;&gt;Node3 -->
<g id="edge2" class="edge"><title>Node2&#45;&gt;Node3</title>
<path fill="none" stroke="midnightblue" d="M260.284,-291.475C259.695,-284.471 258.831,-274.192 258.033,-264.696"/>
<polygon fill="midnightblue" stroke="midnightblue" points="261.504,-264.195 257.178,-254.523 254.528,-264.781 261.504,-264.195"/>
</g>
<!-- Node3&#45;&gt;Node4 -->
<g id="edge3" class="edge"><title>Node3&#45;&gt;Node4</title>
<path fill="none" stroke="midnightblue" d="M240.833,-224.399C231.245,-215.486 218.839,-203.952 208.931,-194.741"/>
<polygon fill="midnightblue" stroke="midnightblue" points="211.02,-191.903 201.313,-187.658 206.253,-197.03 211.02,-191.903"/>
</g>
<!-- Node13 -->
<g id="node13" class="node"><title>Node13</title>
<g id="a_node13"><a xlink:href="erpc__config__internal_8h_source.html" target="_top" xlink:title="erpc_config_internal.h">
<polygon fill="white" stroke="black" points="292.5,-168.5 292.5,-187.5 403.5,-187.5 403.5,-168.5 292.5,-168.5"/>
<text text-anchor="middle" x="348" y="-175.5" font-family="Helvetica,sans-Serif" font-size="10.00">erpc_config_internal.h</text>
</a>
</g>
</g>
<!-- Node3&#45;&gt;Node13 -->
<g id="edge17" class="edge"><title>Node3&#45;&gt;Node13</title>
<path fill="none" stroke="midnightblue" d="M277.803,-224.399C292.412,-214.951 311.573,-202.559 326.185,-193.109"/>
<polygon fill="midnightblue" stroke="midnightblue" points="328.117,-196.027 334.613,-187.658 324.316,-190.15 328.117,-196.027"/>
</g>
<!-- Node5 -->
<g id="node5" class="node"><title>Node5</title>
<g id="a_node5"><a xlink:href="erpc__common_8h_source.html" target="_top" xlink:title="erpc_common.h">
<polygon fill="white" stroke="black" points="187,-0.5 187,-19.5 273,-19.5 273,-0.5 187,-0.5"/>
<text text-anchor="middle" x="230" y="-7.5" font-family="Helvetica,sans-Serif" font-size="10.00">erpc_common.h</text>
</a>
</g>
</g>
<!-- Node4&#45;&gt;Node5 -->
<g id="edge4" class="edge"><title>Node4&#45;&gt;Node5</title>
<path fill="none" stroke="midnightblue" d="M194.043,-168.075C200.025,-141.945 217.59,-65.2106 225.747,-29.577"/>
<polygon fill="midnightblue" stroke="midnightblue" points="229.219,-30.097 228.039,-19.5681 222.395,-28.5349 229.219,-30.097"/>
</g>
<!-- Node6 -->
<g id="node6" class="node"><title>Node6</title>
<g id="a_node6"><a xlink:href="erpc__message__buffer_8hpp.html" target="_top" xlink:title="erpc_message_buffer.hpp">
<polygon fill="white" stroke="black" points="258,-56.5 258,-75.5 386,-75.5 386,-56.5 258,-56.5"/>
<text text-anchor="middle" x="322" y="-63.5" font-family="Helvetica,sans-Serif" font-size="10.00">erpc_message_buffer.hpp</text>
</a>
</g>
</g>
<!-- Node4&#45;&gt;Node6 -->
<g id="edge5" class="edge"><title>Node4&#45;&gt;Node6</title>
<path fill="none" stroke="midnightblue" d="M202.201,-168.368C224.224,-149.733 276.462,-105.532 304.115,-82.1338"/>
<polygon fill="midnightblue" stroke="midnightblue" points="306.473,-84.7227 311.847,-75.5914 301.952,-79.379 306.473,-84.7227"/>
</g>
<!-- Node4&#45;&gt;Node9 -->
<g id="edge9" class="edge"><title>Node4&#45;&gt;Node9</title>
<path fill="none" stroke="midnightblue" d="M179.629,-168.324C167.842,-160.058 149.868,-147.453 135.864,-137.632"/>
<polygon fill="midnightblue" stroke="midnightblue" points="137.538,-134.531 127.341,-131.655 133.518,-140.262 137.538,-134.531"/>
</g>
<!-- Node11 -->
<g id="node11" class="node"><title>Node11</title>
<polygon fill="white" stroke="#bfbfbf" points="0,-0.5 0,-19.5 46,-19.5 46,-0.5 0,-0.5"/>
<text text-anchor="middle" x="23" y="-7.5" font-family="Helvetica,sans-Serif" font-size="10.00">cstdint</text>
</g>
<!-- Node4&#45;&gt;Node11 -->
<g id="edge15" class="edge"><title>Node4&#45;&gt;Node11</title>
<path fill="none" stroke="midnightblue" d="M148.706,-168.628C120.883,-161.841 84.864,-150.329 57,-132 29.1245,-113.663 18.8921,-107.175 7,-76 1.05868,-60.425 6.79826,-41.8974 12.9943,-28.6155"/>
<polygon fill="midnightblue" stroke="midnightblue" points="16.1621,-30.1089 17.6355,-19.617 9.94084,-26.9001 16.1621,-30.1089"/>
</g>
<!-- Node12 -->
<g id="node12" class="node"><title>Node12</title>
<polygon fill="white" stroke="#bfbfbf" points="156,-56.5 156,-75.5 202,-75.5 202,-56.5 156,-56.5"/>
<text text-anchor="middle" x="179" y="-63.5" font-family="Helvetica,sans-Serif" font-size="10.00">cstring</text>
</g>
<!-- Node4&#45;&gt;Node12 -->
<g id="edge16" class="edge"><title>Node4&#45;&gt;Node12</title>
<path fill="none" stroke="midnightblue" d="M190.98,-168.368C188.882,-150.617 184.042,-109.666 181.198,-85.5974"/>
<polygon fill="midnightblue" stroke="midnightblue" points="184.665,-85.1115 180.015,-75.5914 177.713,-85.9331 184.665,-85.1115"/>
</g>
<!-- Node6&#45;&gt;Node5 -->
<g id="edge6" class="edge"><title>Node6&#45;&gt;Node5</title>
<path fill="none" stroke="midnightblue" d="M307.219,-56.324C292.733,-47.8215 270.427,-34.7288 253.507,-24.7975"/>
<polygon fill="midnightblue" stroke="midnightblue" points="255.141,-21.6981 244.745,-19.6545 251.597,-27.735 255.141,-21.6981"/>
</g>
<!-- Node7 -->
<g id="node7" class="node"><title>Node7</title>
<polygon fill="white" stroke="#bfbfbf" points="298,-0.5 298,-19.5 346,-19.5 346,-0.5 298,-0.5"/>
<text text-anchor="middle" x="322" y="-7.5" font-family="Helvetica,sans-Serif" font-size="10.00">cstddef</text>
</g>
<!-- Node6&#45;&gt;Node7 -->
<g id="edge7" class="edge"><title>Node6&#45;&gt;Node7</title>
<path fill="none" stroke="midnightblue" d="M322,-56.083C322,-49.0059 322,-38.8611 322,-29.9865"/>
<polygon fill="midnightblue" stroke="midnightblue" points="325.5,-29.751 322,-19.7511 318.5,-29.7511 325.5,-29.751"/>
</g>
<!-- Node8 -->
<g id="node8" class="node"><title>Node8</title>
<polygon fill="white" stroke="#bfbfbf" points="402.5,-0.5 402.5,-19.5 451.5,-19.5 451.5,-0.5 402.5,-0.5"/>
<text text-anchor="middle" x="427" y="-7.5" font-family="Helvetica,sans-Serif" font-size="10.00">stdint.h</text>
</g>
<!-- Node6&#45;&gt;Node8 -->
<g id="edge8" class="edge"><title>Node6&#45;&gt;Node8</title>
<path fill="none" stroke="midnightblue" d="M338.87,-56.324C355.709,-47.6641 381.807,-34.2424 401.238,-24.249"/>
<polygon fill="midnightblue" stroke="midnightblue" points="402.88,-27.3405 410.172,-19.6545 399.678,-21.1155 402.88,-27.3405"/>
</g>
<!-- Node9&#45;&gt;Node5 -->
<g id="edge10" class="edge"><title>Node9&#45;&gt;Node5</title>
<path fill="none" stroke="midnightblue" d="M117.364,-112.426C121.446,-98.9637 130.96,-72.6838 147,-56 160.675,-41.7764 179.841,-30.9795 196.311,-23.5316"/>
<polygon fill="midnightblue" stroke="midnightblue" points="197.823,-26.6911 205.634,-19.5328 195.064,-20.2579 197.823,-26.6911"/>
</g>
<!-- Node9&#45;&gt;Node6 -->
<g id="edge13" class="edge"><title>Node9&#45;&gt;Node6</title>
<path fill="none" stroke="midnightblue" d="M147.8,-112.444C183.38,-103.162 240.314,-88.3093 279.347,-78.127"/>
<polygon fill="midnightblue" stroke="midnightblue" points="280.561,-81.4274 289.354,-75.5164 278.794,-74.6541 280.561,-81.4274"/>
</g>
<!-- Node10 -->
<g id="node10" class="node"><title>Node10</title>
<g id="a_node10"><a xlink:href="erpc__crc16_8hpp.html" target="_top" xlink:title="erpc_crc16.hpp">
<polygon fill="white" stroke="black" points="16.5,-56.5 16.5,-75.5 99.5,-75.5 99.5,-56.5 16.5,-56.5"/>
<text text-anchor="middle" x="58" y="-63.5" font-family="Helvetica,sans-Serif" font-size="10.00">erpc_crc16.hpp</text>
</a>
</g>
</g>
<!-- Node9&#45;&gt;Node10 -->
<g id="edge11" class="edge"><title>Node9&#45;&gt;Node10</title>
<path fill="none" stroke="midnightblue" d="M105.842,-112.324C97.4985,-104.42 84.9676,-92.5482 74.8231,-82.9377"/>
<polygon fill="midnightblue" stroke="midnightblue" points="76.9913,-80.1705 67.3247,-75.8339 72.1771,-85.2522 76.9913,-80.1705"/>
</g>
<!-- Node9&#45;&gt;Node12 -->
<g id="edge14" class="edge"><title>Node9&#45;&gt;Node12</title>
<path fill="none" stroke="midnightblue" d="M125.283,-112.324C134.836,-104.263 149.28,-92.0765 160.784,-82.3695"/>
<polygon fill="midnightblue" stroke="midnightblue" points="163.144,-84.9577 168.53,-75.8339 158.63,-79.6076 163.144,-84.9577"/>
</g>
<!-- Node10&#45;&gt;Node11 -->
<g id="edge12" class="edge"><title>Node10&#45;&gt;Node11</title>
<path fill="none" stroke="midnightblue" d="M52.2205,-56.083C47.3276,-48.5341 40.1726,-37.4948 34.1674,-28.2298"/>
<polygon fill="midnightblue" stroke="midnightblue" points="37.048,-26.239 28.672,-19.7511 31.174,-30.0463 37.048,-26.239"/>
</g>
<!-- Node14 -->
<g id="node14" class="node"><title>Node14</title>
<g id="a_node14"><a xlink:href="erpc__config_8h.html" target="_top" xlink:title="erpc_config.h">
<polygon fill="white" stroke="black" points="296,-112.5 296,-131.5 370,-131.5 370,-112.5 296,-112.5"/>
<text text-anchor="middle" x="333" y="-119.5" font-family="Helvetica,sans-Serif" font-size="10.00">erpc_config.h</text>
</a>
</g>
</g>
<!-- Node13&#45;&gt;Node14 -->
<g id="edge18" class="edge"><title>Node13&#45;&gt;Node14</title>
<path fill="none" stroke="midnightblue" d="M345.523,-168.083C343.514,-160.849 340.614,-150.409 338.11,-141.397"/>
<polygon fill="midnightblue" stroke="midnightblue" points="341.48,-140.449 335.431,-131.751 334.735,-142.323 341.48,-140.449"/>
</g>
<!-- Node15 -->
<g id="node15" class="node"><title>Node15</title>
<polygon fill="white" stroke="#bfbfbf" points="388.5,-112.5 388.5,-131.5 437.5,-131.5 437.5,-112.5 388.5,-112.5"/>
<text text-anchor="middle" x="413" y="-119.5" font-family="Helvetica,sans-Serif" font-size="10.00">cassert</text>
</g>
<!-- Node13&#45;&gt;Node15 -->
<g id="edge19" class="edge"><title>Node13&#45;&gt;Node15</title>
<path fill="none" stroke="midnightblue" d="M358.443,-168.324C368.146,-160.263 382.815,-148.077 394.5,-138.369"/>
<polygon fill="midnightblue" stroke="midnightblue" points="396.911,-140.916 402.367,-131.834 392.438,-135.532 396.911,-140.916"/>
</g>
<!-- Node16&#45;&gt;Node8 -->
<g id="edge23" class="edge"><title>Node16&#45;&gt;Node8</title>
<path fill="none" stroke="midnightblue" d="M376.257,-229.876C395.018,-213.285 434.036,-174.758 446,-132 455.987,-96.3062 443.566,-53.1237 434.621,-29.1977"/>
<polygon fill="midnightblue" stroke="midnightblue" points="437.78,-27.6687 430.849,-19.6558 431.271,-30.2423 437.78,-27.6687"/>
</g>
<!-- Node16&#45;&gt;Node13 -->
<g id="edge22" class="edge"><title>Node16&#45;&gt;Node13</title>
<path fill="none" stroke="midnightblue" d="M363.421,-229.975C360.855,-221.492 356.835,-208.204 353.543,-197.322"/>
<polygon fill="midnightblue" stroke="midnightblue" points="356.82,-196.067 350.574,-187.509 350.12,-198.094 356.82,-196.067"/>
</g>
</g>
</svg>
