<?xml version="1.0" encoding="UTF-8" standalone="no"?>
<!DOCTYPE svg PUBLIC "-//W3C//DTD SVG 1.1//EN"
 "http://www.w3.org/Graphics/SVG/1.1/DTD/svg11.dtd">
<!-- Generated by graphviz version 2.38.0 (20140413.2041)
 -->
<!-- Title: erpc_lpspi_slave_transport.hpp Pages: 1 -->
<svg width="566pt" height="252pt"
 viewBox="0.00 0.00 566.00 252.00" xmlns="http://www.w3.org/2000/svg" xmlns:xlink="http://www.w3.org/1999/xlink">
<g id="graph0" class="graph" transform="scale(1 1) rotate(0) translate(4 248)">
<title>erpc_lpspi_slave_transport.hpp</title>
<polygon fill="white" stroke="none" points="-4,4 -4,-248 562,-248 562,4 -4,4"/>
<!-- Node1 -->
<g id="node1" class="node"><title>Node1</title>
<polygon fill="#bfbfbf" stroke="black" points="252,-224.5 252,-243.5 402,-243.5 402,-224.5 252,-224.5"/>
<text text-anchor="middle" x="327" y="-231.5" font-family="Helvetica,sans-Serif" font-size="10.00">erpc_lpspi_slave_transport.hpp</text>
</g>
<!-- Node2 -->
<g id="node2" class="node"><title>Node2</title>
<g id="a_node2"><a xlink:href="erpc__config__internal_8h_source.html" target="_top" xlink:title="erpc_config_internal.h">
<polygon fill="white" stroke="black" points="51.5,-56.5 51.5,-75.5 162.5,-75.5 162.5,-56.5 51.5,-56.5"/>
<text text-anchor="middle" x="107" y="-63.5" font-family="Helvetica,sans-Serif" font-size="10.00">erpc_config_internal.h</text>
</a>
</g>
</g>
<!-- Node1&#45;&gt;Node2 -->
<g id="edge1" class="edge"><title>Node1&#45;&gt;Node2</title>
<path fill="none" stroke="midnightblue" d="M281.926,-224.454C252.6,-217.573 214.314,-206.021 184,-188 153.2,-169.689 144.535,-162.666 126,-132 117.353,-117.693 112.45,-99.2272 109.8,-85.6355"/>
<polygon fill="midnightblue" stroke="midnightblue" points="113.212,-84.8269 108.07,-75.5633 106.313,-86.0113 113.212,-84.8269"/>
</g>
<!-- Node5 -->
<g id="node5" class="node"><title>Node5</title>
<polygon fill="white" stroke="#bfbfbf" points="358.5,-168.5 358.5,-187.5 403.5,-187.5 403.5,-168.5 358.5,-168.5"/>
<text text-anchor="middle" x="381" y="-175.5" font-family="Helvetica,sans-Serif" font-size="10.00">cstdlib</text>
</g>
<!-- Node1&#45;&gt;Node5 -->
<g id="edge4" class="edge"><title>Node1&#45;&gt;Node5</title>
<path fill="none" stroke="midnightblue" d="M335.917,-224.083C343.78,-216.22 355.431,-204.569 364.919,-195.081"/>
<polygon fill="midnightblue" stroke="midnightblue" points="367.653,-197.297 372.249,-187.751 362.703,-192.347 367.653,-197.297"/>
</g>
<!-- Node6 -->
<g id="node6" class="node"><title>Node6</title>
<g id="a_node6"><a xlink:href="erpc__threading_8h.html" target="_top" xlink:title="erpc_threading.h">
<polygon fill="white" stroke="black" points="135.5,-112.5 135.5,-131.5 224.5,-131.5 224.5,-112.5 135.5,-112.5"/>
<text text-anchor="middle" x="180" y="-119.5" font-family="Helvetica,sans-Serif" font-size="10.00">erpc_threading.h</text>
</a>
</g>
</g>
<!-- Node1&#45;&gt;Node6 -->
<g id="edge5" class="edge"><title>Node1&#45;&gt;Node6</title>
<path fill="none" stroke="midnightblue" d="M268.289,-224.48C243.916,-218.156 217.148,-207.149 199,-188 187.258,-175.61 182.724,-156.367 180.998,-142.029"/>
<polygon fill="midnightblue" stroke="midnightblue" points="184.464,-141.475 180.132,-131.807 177.489,-142.066 184.464,-141.475"/>
</g>
<!-- Node8 -->
<g id="node8" class="node"><title>Node8</title>
<g id="a_node8"><a xlink:href="erpc__framed__transport_8hpp.html" target="_top" xlink:title="erpc_framed_transport.hpp">
<polygon fill="white" stroke="black" points="208,-168.5 208,-187.5 340,-187.5 340,-168.5 208,-168.5"/>
<text text-anchor="middle" x="274" y="-175.5" font-family="Helvetica,sans-Serif" font-size="10.00">erpc_framed_transport.hpp</text>
</a>
</g>
</g>
<!-- Node1&#45;&gt;Node8 -->
<g id="edge8" class="edge"><title>Node1&#45;&gt;Node8</title>
<path fill="none" stroke="midnightblue" d="M318.248,-224.083C310.53,-216.22 299.095,-204.569 289.783,-195.081"/>
<polygon fill="midnightblue" stroke="midnightblue" points="292.092,-192.436 282.589,-187.751 287.096,-197.34 292.092,-192.436"/>
</g>
<!-- Node16 -->
<g id="node16" class="node"><title>Node16</title>
<polygon fill="white" stroke="#bfbfbf" points="422,-168.5 422,-187.5 480,-187.5 480,-168.5 422,-168.5"/>
<text text-anchor="middle" x="451" y="-175.5" font-family="Helvetica,sans-Serif" font-size="10.00">fsl_gpio.h</text>
</g>
<!-- Node1&#45;&gt;Node16 -->
<g id="edge22" class="edge"><title>Node1&#45;&gt;Node16</title>
<path fill="none" stroke="midnightblue" d="M346.648,-224.444C366.965,-215.596 398.903,-201.687 422.098,-191.586"/>
<polygon fill="midnightblue" stroke="midnightblue" points="423.673,-194.718 431.444,-187.516 420.878,-188.3 423.673,-194.718"/>
</g>
<!-- Node17 -->
<g id="node17" class="node"><title>Node17</title>
<polygon fill="white" stroke="#bfbfbf" points="498,-168.5 498,-187.5 558,-187.5 558,-168.5 498,-168.5"/>
<text text-anchor="middle" x="528" y="-175.5" font-family="Helvetica,sans-Serif" font-size="10.00">fsl_lpspi.h</text>
</g>
<!-- Node1&#45;&gt;Node17 -->
<g id="edge23" class="edge"><title>Node1&#45;&gt;Node17</title>
<path fill="none" stroke="midnightblue" d="M358.849,-224.444C393.907,-215.025 450.313,-199.871 488.244,-189.681"/>
<polygon fill="midnightblue" stroke="midnightblue" points="489.192,-193.05 497.941,-187.075 487.376,-186.29 489.192,-193.05"/>
</g>
<!-- Node3 -->
<g id="node3" class="node"><title>Node3</title>
<g id="a_node3"><a xlink:href="erpc__config_8h.html" target="_top" xlink:title="erpc_config.h">
<polygon fill="white" stroke="black" points="0,-0.5 0,-19.5 74,-19.5 74,-0.5 0,-0.5"/>
<text text-anchor="middle" x="37" y="-7.5" font-family="Helvetica,sans-Serif" font-size="10.00">erpc_config.h</text>
</a>
</g>
</g>
<!-- Node2&#45;&gt;Node3 -->
<g id="edge2" class="edge"><title>Node2&#45;&gt;Node3</title>
<path fill="none" stroke="midnightblue" d="M95.7533,-56.324C85.2026,-48.1849 69.1993,-35.8395 56.5578,-26.0874"/>
<polygon fill="midnightblue" stroke="midnightblue" points="58.507,-23.1707 48.4513,-19.8339 54.2314,-28.7132 58.507,-23.1707"/>
</g>
<!-- Node4 -->
<g id="node4" class="node"><title>Node4</title>
<polygon fill="white" stroke="#bfbfbf" points="92.5,-0.5 92.5,-19.5 141.5,-19.5 141.5,-0.5 92.5,-0.5"/>
<text text-anchor="middle" x="117" y="-7.5" font-family="Helvetica,sans-Serif" font-size="10.00">cassert</text>
</g>
<!-- Node2&#45;&gt;Node4 -->
<g id="edge3" class="edge"><title>Node2&#45;&gt;Node4</title>
<path fill="none" stroke="midnightblue" d="M108.651,-56.083C109.976,-48.9272 111.882,-38.6353 113.539,-29.6911"/>
<polygon fill="midnightblue" stroke="midnightblue" points="117,-30.2212 115.379,-19.7511 110.117,-28.9466 117,-30.2212"/>
</g>
<!-- Node6&#45;&gt;Node2 -->
<g id="edge6" class="edge"><title>Node6&#45;&gt;Node2</title>
<path fill="none" stroke="midnightblue" d="M168.271,-112.324C157.163,-104.107 140.258,-91.6017 127.017,-81.8069"/>
<polygon fill="midnightblue" stroke="midnightblue" points="129.063,-78.9671 118.942,-75.8339 124.9,-84.5948 129.063,-78.9671"/>
</g>
<!-- Node7 -->
<g id="node7" class="node"><title>Node7</title>
<polygon fill="white" stroke="#bfbfbf" points="178.5,-0.5 178.5,-19.5 227.5,-19.5 227.5,-0.5 178.5,-0.5"/>
<text text-anchor="middle" x="203" y="-7.5" font-family="Helvetica,sans-Serif" font-size="10.00">stdint.h</text>
</g>
<!-- Node6&#45;&gt;Node7 -->
<g id="edge7" class="edge"><title>Node6&#45;&gt;Node7</title>
<path fill="none" stroke="midnightblue" d="M181.805,-112.368C185.516,-94.617 194.079,-53.6664 199.111,-29.5974"/>
<polygon fill="midnightblue" stroke="midnightblue" points="202.583,-30.0961 201.204,-19.5914 195.731,-28.6634 202.583,-30.0961"/>
</g>
<!-- Node8&#45;&gt;Node2 -->
<g id="edge9" class="edge"><title>Node8&#45;&gt;Node2</title>
<path fill="none" stroke="midnightblue" d="M270.641,-168.11C264.957,-154.214 252.158,-127.351 233,-112 212.698,-95.7319 186.043,-85.0851 162.48,-78.2548"/>
<polygon fill="midnightblue" stroke="midnightblue" points="163.167,-74.8144 152.598,-75.5559 161.323,-81.567 163.167,-74.8144"/>
</g>
<!-- Node8&#45;&gt;Node6 -->
<g id="edge21" class="edge"><title>Node8&#45;&gt;Node6</title>
<path fill="none" stroke="midnightblue" d="M258.897,-168.324C244.097,-159.822 221.306,-146.729 204.018,-136.797"/>
<polygon fill="midnightblue" stroke="midnightblue" points="205.48,-133.601 195.065,-131.655 201.993,-139.671 205.48,-133.601"/>
</g>
<!-- Node9 -->
<g id="node9" class="node"><title>Node9</title>
<g id="a_node9"><a xlink:href="erpc__message__buffer_8hpp.html" target="_top" xlink:title="erpc_message_buffer.hpp">
<polygon fill="white" stroke="black" points="219,-56.5 219,-75.5 347,-75.5 347,-56.5 219,-56.5"/>
<text text-anchor="middle" x="283" y="-63.5" font-family="Helvetica,sans-Serif" font-size="10.00">erpc_message_buffer.hpp</text>
</a>
</g>
</g>
<!-- Node8&#45;&gt;Node9 -->
<g id="edge10" class="edge"><title>Node8&#45;&gt;Node9</title>
<path fill="none" stroke="midnightblue" d="M274.706,-168.368C276.159,-150.617 279.509,-109.666 281.478,-85.5974"/>
<polygon fill="midnightblue" stroke="midnightblue" points="284.97,-85.8436 282.297,-75.5914 277.993,-85.2727 284.97,-85.8436"/>
</g>
<!-- Node12 -->
<g id="node12" class="node"><title>Node12</title>
<g id="a_node12"><a xlink:href="erpc__transport_8hpp.html" target="_top" xlink:title="erpc_transport.hpp">
<polygon fill="white" stroke="black" points="326,-112.5 326,-131.5 424,-131.5 424,-112.5 326,-112.5"/>
<text text-anchor="middle" x="375" y="-119.5" font-family="Helvetica,sans-Serif" font-size="10.00">erpc_transport.hpp</text>
</a>
</g>
</g>
<!-- Node8&#45;&gt;Node12 -->
<g id="edge14" class="edge"><title>Node8&#45;&gt;Node12</title>
<path fill="none" stroke="midnightblue" d="M290.227,-168.324C306.351,-159.703 331.3,-146.364 349.964,-136.386"/>
<polygon fill="midnightblue" stroke="midnightblue" points="351.644,-139.456 358.813,-131.655 348.344,-133.283 351.644,-139.456"/>
</g>
<!-- Node15 -->
<g id="node15" class="node"><title>Node15</title>
<polygon fill="white" stroke="#bfbfbf" points="505,-56.5 505,-75.5 551,-75.5 551,-56.5 505,-56.5"/>
<text text-anchor="middle" x="528" y="-63.5" font-family="Helvetica,sans-Serif" font-size="10.00">cstring</text>
</g>
<!-- Node8&#45;&gt;Node15 -->
<g id="edge20" class="edge"><title>Node8&#45;&gt;Node15</title>
<path fill="none" stroke="midnightblue" d="M318.561,-168.454C351.221,-161.231 396.107,-149.275 433,-132 461.773,-118.527 491.448,-96.7189 509.807,-82.1249"/>
<polygon fill="midnightblue" stroke="midnightblue" points="512.287,-84.6205 517.857,-75.6082 507.883,-79.1798 512.287,-84.6205"/>
</g>
<!-- Node9&#45;&gt;Node7 -->
<g id="edge13" class="edge"><title>Node9&#45;&gt;Node7</title>
<path fill="none" stroke="midnightblue" d="M270.147,-56.324C257.784,-47.979 238.87,-35.2122 224.263,-25.3524"/>
<polygon fill="midnightblue" stroke="midnightblue" points="226.068,-22.3483 215.821,-19.6545 222.152,-28.1503 226.068,-22.3483"/>
</g>
<!-- Node10 -->
<g id="node10" class="node"><title>Node10</title>
<g id="a_node10"><a xlink:href="erpc__common_8h_source.html" target="_top" xlink:title="erpc_common.h">
<polygon fill="white" stroke="black" points="322,-0.5 322,-19.5 408,-19.5 408,-0.5 322,-0.5"/>
<text text-anchor="middle" x="365" y="-7.5" font-family="Helvetica,sans-Serif" font-size="10.00">erpc_common.h</text>
</a>
</g>
</g>
<!-- Node9&#45;&gt;Node10 -->
<g id="edge11" class="edge"><title>Node9&#45;&gt;Node10</title>
<path fill="none" stroke="midnightblue" d="M296.175,-56.324C308.847,-47.979 328.233,-35.2122 343.206,-25.3524"/>
<polygon fill="midnightblue" stroke="midnightblue" points="345.431,-28.0776 351.858,-19.6545 341.581,-22.2313 345.431,-28.0776"/>
</g>
<!-- Node11 -->
<g id="node11" class="node"><title>Node11</title>
<polygon fill="white" stroke="#bfbfbf" points="256,-0.5 256,-19.5 304,-19.5 304,-0.5 256,-0.5"/>
<text text-anchor="middle" x="280" y="-7.5" font-family="Helvetica,sans-Serif" font-size="10.00">cstddef</text>
</g>
<!-- Node9&#45;&gt;Node11 -->
<g id="edge12" class="edge"><title>Node9&#45;&gt;Node11</title>
<path fill="none" stroke="midnightblue" d="M282.505,-56.083C282.111,-49.0059 281.548,-38.8611 281.055,-29.9865"/>
<polygon fill="midnightblue" stroke="midnightblue" points="284.536,-29.5415 280.486,-19.7511 277.546,-29.9299 284.536,-29.5415"/>
</g>
<!-- Node12&#45;&gt;Node9 -->
<g id="edge18" class="edge"><title>Node12&#45;&gt;Node9</title>
<path fill="none" stroke="midnightblue" d="M360.219,-112.324C345.733,-103.822 323.427,-90.7288 306.507,-80.7975"/>
<polygon fill="midnightblue" stroke="midnightblue" points="308.141,-77.6981 297.745,-75.6545 304.597,-83.735 308.141,-77.6981"/>
</g>
<!-- Node12&#45;&gt;Node10 -->
<g id="edge15" class="edge"><title>Node12&#45;&gt;Node10</title>
<path fill="none" stroke="midnightblue" d="M374.215,-112.368C372.602,-94.617 368.879,-53.6664 366.691,-29.5974"/>
<polygon fill="midnightblue" stroke="midnightblue" points="370.172,-29.2334 365.781,-19.5914 363.201,-29.8673 370.172,-29.2334"/>
</g>
<!-- Node13 -->
<g id="node13" class="node"><title>Node13</title>
<g id="a_node13"><a xlink:href="erpc__crc16_8hpp.html" target="_top" xlink:title="erpc_crc16.hpp">
<polygon fill="white" stroke="black" points="403.5,-56.5 403.5,-75.5 486.5,-75.5 486.5,-56.5 403.5,-56.5"/>
<text text-anchor="middle" x="445" y="-63.5" font-family="Helvetica,sans-Serif" font-size="10.00">erpc_crc16.hpp</text>
</a>
</g>
</g>
<!-- Node12&#45;&gt;Node13 -->
<g id="edge16" class="edge"><title>Node12&#45;&gt;Node13</title>
<path fill="none" stroke="midnightblue" d="M386.247,-112.324C396.797,-104.185 412.801,-91.8395 425.442,-82.0874"/>
<polygon fill="midnightblue" stroke="midnightblue" points="427.769,-84.7132 433.549,-75.8339 423.493,-79.1707 427.769,-84.7132"/>
</g>
<!-- Node12&#45;&gt;Node15 -->
<g id="edge19" class="edge"><title>Node12&#45;&gt;Node15</title>
<path fill="none" stroke="midnightblue" d="M399.243,-112.444C425.172,-103.292 466.443,-88.726 495.248,-78.5594"/>
<polygon fill="midnightblue" stroke="midnightblue" points="496.607,-81.7917 504.872,-75.1629 494.277,-75.1907 496.607,-81.7917"/>
</g>
<!-- Node14 -->
<g id="node14" class="node"><title>Node14</title>
<polygon fill="white" stroke="#bfbfbf" points="426,-0.5 426,-19.5 472,-19.5 472,-0.5 426,-0.5"/>
<text text-anchor="middle" x="449" y="-7.5" font-family="Helvetica,sans-Serif" font-size="10.00">cstdint</text>
</g>
<!-- Node13&#45;&gt;Node14 -->
<g id="edge17" class="edge"><title>Node13&#45;&gt;Node14</title>
<path fill="none" stroke="midnightblue" d="M445.661,-56.083C446.185,-49.0059 446.936,-38.8611 447.594,-29.9865"/>
<polygon fill="midnightblue" stroke="midnightblue" points="451.103,-29.9823 448.352,-19.7511 444.123,-29.4652 451.103,-29.9823"/>
</g>
</g>
</svg>
