<?xml version="1.0" encoding="UTF-8" standalone="no"?>
<!DOCTYPE svg PUBLIC "-//W3C//DTD SVG 1.1//EN"
 "http://www.w3.org/Graphics/SVG/1.1/DTD/svg11.dtd">
<!-- Generated by graphviz version 2.38.0 (20140413.2041)
 -->
<!-- Title: erpc_server_setup.h Pages: 1 -->
<svg width="418pt" height="196pt"
 viewBox="0.00 0.00 418.40 196.00" xmlns="http://www.w3.org/2000/svg" xmlns:xlink="http://www.w3.org/1999/xlink">
<g id="graph0" class="graph" transform="scale(1 1) rotate(0) translate(4 192)">
<title>erpc_server_setup.h</title>
<polygon fill="white" stroke="none" points="-4,4 -4,-192 414.398,-192 414.398,4 -4,4"/>
<!-- Node1 -->
<g id="node1" class="node"><title>Node1</title>
<polygon fill="#bfbfbf" stroke="black" points="229,-168.5 229,-187.5 333,-187.5 333,-168.5 229,-168.5"/>
<text text-anchor="middle" x="281" y="-175.5" font-family="Helvetica,sans-Serif" font-size="10.00">erpc_server_setup.h</text>
</g>
<!-- Node2 -->
<g id="node2" class="node"><title>Node2</title>
<g id="a_node2"><a xlink:href="erpc__common_8h_source.html" target="_top" xlink:title="erpc_common.h">
<polygon fill="white" stroke="black" points="0,-112.5 0,-131.5 86,-131.5 86,-112.5 0,-112.5"/>
<text text-anchor="middle" x="43" y="-119.5" font-family="Helvetica,sans-Serif" font-size="10.00">erpc_common.h</text>
</a>
</g>
</g>
<!-- Node1&#45;&gt;Node2 -->
<g id="edge1" class="edge"><title>Node1&#45;&gt;Node2</title>
<path fill="none" stroke="midnightblue" d="M243.288,-168.444C201.857,-159.043 135.243,-143.929 90.3325,-133.739"/>
<polygon fill="midnightblue" stroke="midnightblue" points="91.062,-130.316 80.5354,-131.516 89.513,-137.142 91.062,-130.316"/>
</g>
<!-- Node3 -->
<g id="node3" class="node"><title>Node3</title>
<g id="a_node3"><a xlink:href="erpc__config__internal_8h_source.html" target="_top" xlink:title="erpc_config_internal.h">
<polygon fill="white" stroke="black" points="104.5,-112.5 104.5,-131.5 215.5,-131.5 215.5,-112.5 104.5,-112.5"/>
<text text-anchor="middle" x="160" y="-119.5" font-family="Helvetica,sans-Serif" font-size="10.00">erpc_config_internal.h</text>
</a>
</g>
</g>
<!-- Node1&#45;&gt;Node3 -->
<g id="edge2" class="edge"><title>Node1&#45;&gt;Node3</title>
<path fill="none" stroke="midnightblue" d="M261.827,-168.444C242.091,-159.636 211.115,-145.812 188.507,-135.722"/>
<polygon fill="midnightblue" stroke="midnightblue" points="189.641,-132.396 179.083,-131.516 186.789,-138.788 189.641,-132.396"/>
</g>
<!-- Node6 -->
<g id="node6" class="node"><title>Node6</title>
<g id="a_node6"><a xlink:href="erpc__mbf__setup_8h.html" target="_top" xlink:title="erpc_mbf_setup.h">
<polygon fill="white" stroke="black" points="272,-112.5 272,-131.5 366,-131.5 366,-112.5 272,-112.5"/>
<text text-anchor="middle" x="319" y="-119.5" font-family="Helvetica,sans-Serif" font-size="10.00">erpc_mbf_setup.h</text>
</a>
</g>
</g>
<!-- Node1&#45;&gt;Node6 -->
<g id="edge5" class="edge"><title>Node1&#45;&gt;Node6</title>
<path fill="none" stroke="midnightblue" d="M287.275,-168.083C292.642,-160.455 300.518,-149.264 307.079,-139.941"/>
<polygon fill="midnightblue" stroke="midnightblue" points="309.949,-141.943 312.842,-131.751 304.225,-137.915 309.949,-141.943"/>
</g>
<!-- Node7 -->
<g id="node7" class="node"><title>Node7</title>
<g id="a_node7"><a xlink:href="erpc__transport__setup_8h.html" target="_top" xlink:title="erpc_transport_setup.h">
<polygon fill="white" stroke="black" points="280,-56.5 280,-75.5 396,-75.5 396,-56.5 280,-56.5"/>
<text text-anchor="middle" x="338" y="-63.5" font-family="Helvetica,sans-Serif" font-size="10.00">erpc_transport_setup.h</text>
</a>
</g>
</g>
<!-- Node1&#45;&gt;Node7 -->
<g id="edge9" class="edge"><title>Node1&#45;&gt;Node7</title>
<path fill="none" stroke="midnightblue" d="M321.147,-168.429C340.975,-161.953 363.138,-150.83 375,-132 385.511,-115.314 370.528,-95.549 356.601,-82.2311"/>
<polygon fill="midnightblue" stroke="midnightblue" points="358.927,-79.6157 349.141,-75.556 354.259,-84.8324 358.927,-79.6157"/>
</g>
<!-- Node8 -->
<g id="node8" class="node"><title>Node8</title>
<polygon fill="white" stroke="#bfbfbf" points="269,-0.5 269,-19.5 325,-19.5 325,-0.5 269,-0.5"/>
<text text-anchor="middle" x="297" y="-7.5" font-family="Helvetica,sans-Serif" font-size="10.00">stdbool.h</text>
</g>
<!-- Node1&#45;&gt;Node8 -->
<g id="edge10" class="edge"><title>Node1&#45;&gt;Node8</title>
<path fill="none" stroke="midnightblue" d="M276.379,-168.339C271.941,-159.493 265.546,-145.22 263,-132 258.734,-109.848 270.857,-56.413 271,-56 274.348,-46.3161 279.843,-36.3685 284.92,-28.2969"/>
<polygon fill="midnightblue" stroke="midnightblue" points="287.935,-30.0823 290.535,-19.8113 282.097,-26.2194 287.935,-30.0823"/>
</g>
<!-- Node9 -->
<g id="node9" class="node"><title>Node9</title>
<polygon fill="white" stroke="#bfbfbf" points="354.5,-0.5 354.5,-19.5 403.5,-19.5 403.5,-0.5 354.5,-0.5"/>
<text text-anchor="middle" x="379" y="-7.5" font-family="Helvetica,sans-Serif" font-size="10.00">stdint.h</text>
</g>
<!-- Node1&#45;&gt;Node9 -->
<g id="edge11" class="edge"><title>Node1&#45;&gt;Node9</title>
<path fill="none" stroke="midnightblue" d="M325.512,-168.426C347.784,-161.96 373.454,-150.847 390,-132 412.715,-106.127 413.916,-89.2548 405,-56 402.346,-46.1031 396.931,-36.1315 391.726,-28.099"/>
<polygon fill="midnightblue" stroke="midnightblue" points="394.464,-25.9055 385.89,-19.6811 388.711,-29.8935 394.464,-25.9055"/>
</g>
<!-- Node4 -->
<g id="node4" class="node"><title>Node4</title>
<g id="a_node4"><a xlink:href="erpc__config_8h.html" target="_top" xlink:title="erpc_config.h">
<polygon fill="white" stroke="black" points="132,-56.5 132,-75.5 206,-75.5 206,-56.5 132,-56.5"/>
<text text-anchor="middle" x="169" y="-63.5" font-family="Helvetica,sans-Serif" font-size="10.00">erpc_config.h</text>
</a>
</g>
</g>
<!-- Node3&#45;&gt;Node4 -->
<g id="edge3" class="edge"><title>Node3&#45;&gt;Node4</title>
<path fill="none" stroke="midnightblue" d="M161.486,-112.083C162.679,-104.927 164.394,-94.6353 165.885,-85.6911"/>
<polygon fill="midnightblue" stroke="midnightblue" points="169.35,-86.1904 167.541,-75.7511 162.445,-85.0396 169.35,-86.1904"/>
</g>
<!-- Node5 -->
<g id="node5" class="node"><title>Node5</title>
<polygon fill="white" stroke="#bfbfbf" points="64.5,-56.5 64.5,-75.5 113.5,-75.5 113.5,-56.5 64.5,-56.5"/>
<text text-anchor="middle" x="89" y="-63.5" font-family="Helvetica,sans-Serif" font-size="10.00">cassert</text>
</g>
<!-- Node3&#45;&gt;Node5 -->
<g id="edge4" class="edge"><title>Node3&#45;&gt;Node5</title>
<path fill="none" stroke="midnightblue" d="M148.593,-112.324C137.891,-104.185 121.659,-91.8395 108.837,-82.0874"/>
<polygon fill="midnightblue" stroke="midnightblue" points="110.693,-79.1018 100.615,-75.8339 106.456,-84.6734 110.693,-79.1018"/>
</g>
<!-- Node6&#45;&gt;Node7 -->
<g id="edge6" class="edge"><title>Node6&#45;&gt;Node7</title>
<path fill="none" stroke="midnightblue" d="M322.137,-112.083C324.683,-104.849 328.356,-94.4087 331.527,-85.3968"/>
<polygon fill="midnightblue" stroke="midnightblue" points="334.903,-86.3459 334.921,-75.7511 328.3,-84.0225 334.903,-86.3459"/>
</g>
<!-- Node7&#45;&gt;Node8 -->
<g id="edge7" class="edge"><title>Node7&#45;&gt;Node8</title>
<path fill="none" stroke="midnightblue" d="M331.23,-56.083C325.438,-48.4554 316.942,-37.2645 309.862,-27.9408"/>
<polygon fill="midnightblue" stroke="midnightblue" points="312.479,-25.5991 303.644,-19.7511 306.904,-29.8321 312.479,-25.5991"/>
</g>
<!-- Node7&#45;&gt;Node9 -->
<g id="edge8" class="edge"><title>Node7&#45;&gt;Node9</title>
<path fill="none" stroke="midnightblue" d="M344.77,-56.083C350.562,-48.4554 359.058,-37.2645 366.138,-27.9408"/>
<polygon fill="midnightblue" stroke="midnightblue" points="369.096,-29.8321 372.356,-19.7511 363.521,-25.5991 369.096,-29.8321"/>
</g>
</g>
</svg>
