<?xml version="1.0" encoding="UTF-8" standalone="no"?>
<!DOCTYPE svg PUBLIC "-//W3C//DTD SVG 1.1//EN"
 "http://www.w3.org/Graphics/SVG/1.1/DTD/svg11.dtd">
<!-- Generated by graphviz version 2.38.0 (20140413.2041)
 -->
<!-- Title: erpc_rpmsg_lite_transport.hpp Pages: 1 -->
<svg width="646pt" height="263pt"
 viewBox="0.00 0.00 645.50 263.00" xmlns="http://www.w3.org/2000/svg" xmlns:xlink="http://www.w3.org/1999/xlink">
<g id="graph0" class="graph" transform="scale(1 1) rotate(0) translate(4 259)">
<title>erpc_rpmsg_lite_transport.hpp</title>
<polygon fill="white" stroke="none" points="-4,4 -4,-259 641.5,-259 641.5,4 -4,4"/>
<!-- Node1 -->
<g id="node1" class="node"><title>Node1</title>
<polygon fill="#bfbfbf" stroke="black" points="207,-235.5 207,-254.5 355,-254.5 355,-235.5 207,-235.5"/>
<text text-anchor="middle" x="281" y="-242.5" font-family="Helvetica,sans-Serif" font-size="10.00">erpc_rpmsg_lite_transport.hpp</text>
</g>
<!-- Node2 -->
<g id="node2" class="node"><title>Node2</title>
<g id="a_node2"><a xlink:href="erpc__crc16_8hpp.html" target="_top" xlink:title="erpc_crc16.hpp">
<polygon fill="white" stroke="black" points="159.5,-56.5 159.5,-75.5 242.5,-75.5 242.5,-56.5 159.5,-56.5"/>
<text text-anchor="middle" x="201" y="-63.5" font-family="Helvetica,sans-Serif" font-size="10.00">erpc_crc16.hpp</text>
</a>
</g>
</g>
<!-- Node1&#45;&gt;Node2 -->
<g id="edge1" class="edge"><title>Node1&#45;&gt;Node2</title>
<path fill="none" stroke="midnightblue" d="M273.075,-235.263C265.538,-226.586 254.297,-212.642 247,-199 226.568,-160.802 212.265,-111.697 205.477,-85.4658"/>
<polygon fill="midnightblue" stroke="midnightblue" points="208.861,-84.5703 203.032,-75.7228 202.072,-86.274 208.861,-84.5703"/>
</g>
<!-- Node4 -->
<g id="node4" class="node"><title>Node4</title>
<g id="a_node4"><a xlink:href="erpc__config__internal_8h_source.html" target="_top" xlink:title="erpc_config_internal.h">
<polygon fill="white" stroke="black" points="61.5,-112.5 61.5,-131.5 172.5,-131.5 172.5,-112.5 61.5,-112.5"/>
<text text-anchor="middle" x="117" y="-119.5" font-family="Helvetica,sans-Serif" font-size="10.00">erpc_config_internal.h</text>
</a>
</g>
</g>
<!-- Node1&#45;&gt;Node4 -->
<g id="edge3" class="edge"><title>Node1&#45;&gt;Node4</title>
<path fill="none" stroke="midnightblue" d="M256.825,-235.385C236.967,-227.639 208.68,-215.023 187,-199 163.873,-181.908 142.261,-156.419 129.335,-139.753"/>
<polygon fill="midnightblue" stroke="midnightblue" points="131.921,-137.369 123.094,-131.51 126.341,-141.595 131.921,-137.369"/>
</g>
<!-- Node7 -->
<g id="node7" class="node"><title>Node7</title>
<g id="a_node7"><a xlink:href="erpc__message__buffer_8hpp.html" target="_top" xlink:title="erpc_message_buffer.hpp">
<polygon fill="white" stroke="black" points="261,-56.5 261,-75.5 389,-75.5 389,-56.5 261,-56.5"/>
<text text-anchor="middle" x="325" y="-63.5" font-family="Helvetica,sans-Serif" font-size="10.00">erpc_message_buffer.hpp</text>
</a>
</g>
</g>
<!-- Node1&#45;&gt;Node7 -->
<g id="edge6" class="edge"><title>Node1&#45;&gt;Node7</title>
<path fill="none" stroke="midnightblue" d="M274.895,-235.191C269.245,-226.46 261.245,-212.478 258,-199 248.95,-161.407 239.813,-146.123 258,-112 265.55,-97.8339 279.761,-87.3348 293.158,-80.0576"/>
<polygon fill="midnightblue" stroke="midnightblue" points="294.834,-83.1329 302.212,-75.5289 291.702,-76.8724 294.834,-83.1329"/>
</g>
<!-- Node11 -->
<g id="node11" class="node"><title>Node11</title>
<g id="a_node11"><a xlink:href="erpc__rpmsg__lite__base__transport_8hpp.html" target="_top" xlink:title="erpc_rpmsg_lite_base\l_transport.hpp">
<polygon fill="white" stroke="black" points="267,-168.5 267,-198.5 379,-198.5 379,-168.5 267,-168.5"/>
<text text-anchor="start" x="275" y="-186.5" font-family="Helvetica,sans-Serif" font-size="10.00">erpc_rpmsg_lite_base</text>
<text text-anchor="middle" x="323" y="-175.5" font-family="Helvetica,sans-Serif" font-size="10.00">_transport.hpp</text>
</a>
</g>
</g>
<!-- Node1&#45;&gt;Node11 -->
<g id="edge10" class="edge"><title>Node1&#45;&gt;Node11</title>
<path fill="none" stroke="midnightblue" d="M287.018,-235.475C292.281,-228.019 300.163,-216.852 307.21,-206.869"/>
<polygon fill="midnightblue" stroke="midnightblue" points="310.194,-208.711 313.101,-198.523 304.475,-204.674 310.194,-208.711"/>
</g>
<!-- Node14 -->
<g id="node14" class="node"><title>Node14</title>
<polygon fill="white" stroke="#bfbfbf" points="511,-112.5 511,-131.5 581,-131.5 581,-112.5 511,-112.5"/>
<text text-anchor="middle" x="546" y="-119.5" font-family="Helvetica,sans-Serif" font-size="10.00">rpmsg_lite.h</text>
</g>
<!-- Node1&#45;&gt;Node14 -->
<g id="edge21" class="edge"><title>Node1&#45;&gt;Node14</title>
<path fill="none" stroke="midnightblue" d="M302.453,-235.348C324.154,-226.51 358.601,-212.243 388,-199 434.58,-178.018 487.996,-151.882 519.263,-136.368"/>
<polygon fill="midnightblue" stroke="midnightblue" points="521.204,-139.311 528.599,-131.724 518.087,-133.043 521.204,-139.311"/>
</g>
<!-- Node16 -->
<g id="node16" class="node"><title>Node16</title>
<g id="a_node16"><a xlink:href="erpc__static__queue_8hpp.html" target="_top" xlink:title="erpc_static_queue.hpp">
<polygon fill="white" stroke="black" points="522.5,-174 522.5,-193 637.5,-193 637.5,-174 522.5,-174"/>
<text text-anchor="middle" x="580" y="-181" font-family="Helvetica,sans-Serif" font-size="10.00">erpc_static_queue.hpp</text>
</a>
</g>
</g>
<!-- Node1&#45;&gt;Node16 -->
<g id="edge19" class="edge"><title>Node1&#45;&gt;Node16</title>
<path fill="none" stroke="midnightblue" d="M323.839,-235.475C377.46,-224.805 469.277,-206.534 527.191,-195.009"/>
<polygon fill="midnightblue" stroke="midnightblue" points="528.115,-198.394 537.24,-193.009 526.749,-191.528 528.115,-198.394"/>
</g>
<!-- Node3 -->
<g id="node3" class="node"><title>Node3</title>
<polygon fill="white" stroke="#bfbfbf" points="176,-0.5 176,-19.5 222,-19.5 222,-0.5 176,-0.5"/>
<text text-anchor="middle" x="199" y="-7.5" font-family="Helvetica,sans-Serif" font-size="10.00">cstdint</text>
</g>
<!-- Node2&#45;&gt;Node3 -->
<g id="edge2" class="edge"><title>Node2&#45;&gt;Node3</title>
<path fill="none" stroke="midnightblue" d="M200.67,-56.083C200.408,-49.0059 200.032,-38.8611 199.703,-29.9865"/>
<polygon fill="midnightblue" stroke="midnightblue" points="203.192,-29.6147 199.324,-19.7511 196.197,-29.8738 203.192,-29.6147"/>
</g>
<!-- Node5 -->
<g id="node5" class="node"><title>Node5</title>
<g id="a_node5"><a xlink:href="erpc__config_8h.html" target="_top" xlink:title="erpc_config.h">
<polygon fill="white" stroke="black" points="0,-56.5 0,-75.5 74,-75.5 74,-56.5 0,-56.5"/>
<text text-anchor="middle" x="37" y="-63.5" font-family="Helvetica,sans-Serif" font-size="10.00">erpc_config.h</text>
</a>
</g>
</g>
<!-- Node4&#45;&gt;Node5 -->
<g id="edge4" class="edge"><title>Node4&#45;&gt;Node5</title>
<path fill="none" stroke="midnightblue" d="M104.147,-112.324C91.7836,-103.979 72.8699,-91.2122 58.2628,-81.3524"/>
<polygon fill="midnightblue" stroke="midnightblue" points="60.0682,-78.3483 49.8215,-75.6545 56.1518,-84.1503 60.0682,-78.3483"/>
</g>
<!-- Node6 -->
<g id="node6" class="node"><title>Node6</title>
<polygon fill="white" stroke="#bfbfbf" points="92.5,-56.5 92.5,-75.5 141.5,-75.5 141.5,-56.5 92.5,-56.5"/>
<text text-anchor="middle" x="117" y="-63.5" font-family="Helvetica,sans-Serif" font-size="10.00">cassert</text>
</g>
<!-- Node4&#45;&gt;Node6 -->
<g id="edge5" class="edge"><title>Node4&#45;&gt;Node6</title>
<path fill="none" stroke="midnightblue" d="M117,-112.083C117,-105.006 117,-94.8611 117,-85.9865"/>
<polygon fill="midnightblue" stroke="midnightblue" points="120.5,-85.751 117,-75.7511 113.5,-85.7511 120.5,-85.751"/>
</g>
<!-- Node8 -->
<g id="node8" class="node"><title>Node8</title>
<g id="a_node8"><a xlink:href="erpc__common_8h_source.html" target="_top" xlink:title="erpc_common.h">
<polygon fill="white" stroke="black" points="374,-0.5 374,-19.5 460,-19.5 460,-0.5 374,-0.5"/>
<text text-anchor="middle" x="417" y="-7.5" font-family="Helvetica,sans-Serif" font-size="10.00">erpc_common.h</text>
</a>
</g>
</g>
<!-- Node7&#45;&gt;Node8 -->
<g id="edge7" class="edge"><title>Node7&#45;&gt;Node8</title>
<path fill="none" stroke="midnightblue" d="M339.781,-56.324C354.267,-47.8215 376.573,-34.7288 393.493,-24.7975"/>
<polygon fill="midnightblue" stroke="midnightblue" points="395.403,-27.735 402.255,-19.6545 391.859,-21.6981 395.403,-27.735"/>
</g>
<!-- Node9 -->
<g id="node9" class="node"><title>Node9</title>
<polygon fill="white" stroke="#bfbfbf" points="308,-0.5 308,-19.5 356,-19.5 356,-0.5 308,-0.5"/>
<text text-anchor="middle" x="332" y="-7.5" font-family="Helvetica,sans-Serif" font-size="10.00">cstddef</text>
</g>
<!-- Node7&#45;&gt;Node9 -->
<g id="edge8" class="edge"><title>Node7&#45;&gt;Node9</title>
<path fill="none" stroke="midnightblue" d="M326.156,-56.083C327.084,-48.9272 328.418,-38.6353 329.577,-29.6911"/>
<polygon fill="midnightblue" stroke="midnightblue" points="333.051,-30.1181 330.866,-19.7511 326.109,-29.2181 333.051,-30.1181"/>
</g>
<!-- Node10 -->
<g id="node10" class="node"><title>Node10</title>
<polygon fill="white" stroke="#bfbfbf" points="240.5,-0.5 240.5,-19.5 289.5,-19.5 289.5,-0.5 240.5,-0.5"/>
<text text-anchor="middle" x="265" y="-7.5" font-family="Helvetica,sans-Serif" font-size="10.00">stdint.h</text>
</g>
<!-- Node7&#45;&gt;Node10 -->
<g id="edge9" class="edge"><title>Node7&#45;&gt;Node10</title>
<path fill="none" stroke="midnightblue" d="M315.36,-56.324C306.49,-48.3414 293.125,-36.3128 282.392,-26.6529"/>
<polygon fill="midnightblue" stroke="midnightblue" points="284.59,-23.922 274.815,-19.8339 279.907,-29.1251 284.59,-23.922"/>
</g>
<!-- Node11&#45;&gt;Node4 -->
<g id="edge11" class="edge"><title>Node11&#45;&gt;Node4</title>
<path fill="none" stroke="midnightblue" d="M274.442,-168.475C238.437,-158.075 189.977,-144.078 156.372,-134.372"/>
<polygon fill="midnightblue" stroke="midnightblue" points="157.029,-130.919 146.451,-131.506 155.087,-137.644 157.029,-130.919"/>
</g>
<!-- Node12 -->
<g id="node12" class="node"><title>Node12</title>
<g id="a_node12"><a xlink:href="erpc__transport_8hpp.html" target="_top" xlink:title="erpc_transport.hpp">
<polygon fill="white" stroke="black" points="267,-112.5 267,-131.5 365,-131.5 365,-112.5 267,-112.5"/>
<text text-anchor="middle" x="316" y="-119.5" font-family="Helvetica,sans-Serif" font-size="10.00">erpc_transport.hpp</text>
</a>
</g>
</g>
<!-- Node11&#45;&gt;Node12 -->
<g id="edge12" class="edge"><title>Node11&#45;&gt;Node12</title>
<path fill="none" stroke="midnightblue" d="M321.341,-168.399C320.408,-160.466 319.23,-150.458 318.219,-141.858"/>
<polygon fill="midnightblue" stroke="midnightblue" points="321.663,-141.18 317.019,-131.658 314.711,-141.998 321.663,-141.18"/>
</g>
<!-- Node11&#45;&gt;Node14 -->
<g id="edge17" class="edge"><title>Node11&#45;&gt;Node14</title>
<path fill="none" stroke="midnightblue" d="M375.566,-168.475C414.878,-157.986 467.906,-143.837 504.316,-134.122"/>
<polygon fill="midnightblue" stroke="midnightblue" points="505.359,-137.466 514.119,-131.506 503.555,-130.703 505.359,-137.466"/>
</g>
<!-- Node15 -->
<g id="node15" class="node"><title>Node15</title>
<polygon fill="white" stroke="#bfbfbf" points="383,-112.5 383,-131.5 493,-131.5 493,-112.5 383,-112.5"/>
<text text-anchor="middle" x="438" y="-119.5" font-family="Helvetica,sans-Serif" font-size="10.00">rpmsg_env_specific.h</text>
</g>
<!-- Node11&#45;&gt;Node15 -->
<g id="edge18" class="edge"><title>Node11&#45;&gt;Node15</title>
<path fill="none" stroke="midnightblue" d="M350.253,-168.399C369.032,-158.684 393.826,-145.855 412.268,-136.314"/>
<polygon fill="midnightblue" stroke="midnightblue" points="413.993,-139.362 421.266,-131.658 410.776,-133.145 413.993,-139.362"/>
</g>
<!-- Node12&#45;&gt;Node2 -->
<g id="edge14" class="edge"><title>Node12&#45;&gt;Node2</title>
<path fill="none" stroke="midnightblue" d="M297.778,-112.444C279.104,-103.675 249.844,-89.9355 228.383,-79.8579"/>
<polygon fill="midnightblue" stroke="midnightblue" points="229.676,-76.5988 219.137,-75.5164 226.701,-82.935 229.676,-76.5988"/>
</g>
<!-- Node12&#45;&gt;Node7 -->
<g id="edge15" class="edge"><title>Node12&#45;&gt;Node7</title>
<path fill="none" stroke="midnightblue" d="M317.486,-112.083C318.679,-104.927 320.394,-94.6353 321.885,-85.6911"/>
<polygon fill="midnightblue" stroke="midnightblue" points="325.35,-86.1904 323.541,-75.7511 318.445,-85.0396 325.35,-86.1904"/>
</g>
<!-- Node12&#45;&gt;Node8 -->
<g id="edge13" class="edge"><title>Node12&#45;&gt;Node8</title>
<path fill="none" stroke="midnightblue" d="M342.871,-112.421C360.906,-105.353 383.866,-93.5991 398,-76 408.689,-62.6911 413.365,-43.5712 415.41,-29.5123"/>
<polygon fill="midnightblue" stroke="midnightblue" points="418.893,-29.8629 416.551,-19.5301 411.938,-29.0679 418.893,-29.8629"/>
</g>
<!-- Node13 -->
<g id="node13" class="node"><title>Node13</title>
<polygon fill="white" stroke="#bfbfbf" points="515,-56.5 515,-75.5 561,-75.5 561,-56.5 515,-56.5"/>
<text text-anchor="middle" x="538" y="-63.5" font-family="Helvetica,sans-Serif" font-size="10.00">cstring</text>
</g>
<!-- Node12&#45;&gt;Node13 -->
<g id="edge16" class="edge"><title>Node12&#45;&gt;Node13</title>
<path fill="none" stroke="midnightblue" d="M351.177,-112.444C393.443,-102.163 463.805,-85.0475 505.053,-75.0141"/>
<polygon fill="midnightblue" stroke="midnightblue" points="505.988,-78.3888 514.878,-72.6243 504.334,-71.5871 505.988,-78.3888"/>
</g>
<!-- Node16&#45;&gt;Node13 -->
<g id="edge20" class="edge"><title>Node16&#45;&gt;Node13</title>
<path fill="none" stroke="midnightblue" d="M584.172,-173.816C590.153,-160.057 599.456,-132.688 590,-112 584.223,-99.3602 572.948,-88.911 562.369,-81.2737"/>
<polygon fill="midnightblue" stroke="midnightblue" points="564.042,-78.1817 553.783,-75.5333 560.151,-84.0009 564.042,-78.1817"/>
</g>
</g>
</svg>
