<?xml version="1.0" encoding="UTF-8" standalone="no"?>
<!DOCTYPE svg PUBLIC "-//W3C//DTD SVG 1.1//EN"
 "http://www.w3.org/Graphics/SVG/1.1/DTD/svg11.dtd">
<!-- Generated by graphviz version 2.38.0 (20140413.2041)
 -->
<!-- Title: erpc_client_setup.h Pages: 1 -->
<svg width="759pt" height="375pt"
 viewBox="0.00 0.00 759.00 375.00" xmlns="http://www.w3.org/2000/svg" xmlns:xlink="http://www.w3.org/1999/xlink">
<g id="graph0" class="graph" transform="scale(1 1) rotate(0) translate(4 371)">
<title>erpc_client_setup.h</title>
<polygon fill="white" stroke="none" points="-4,4 -4,-371 755,-371 755,4 -4,4"/>
<!-- Node1 -->
<g id="node1" class="node"><title>Node1</title>
<polygon fill="#bfbfbf" stroke="black" points="451.5,-347.5 451.5,-366.5 552.5,-366.5 552.5,-347.5 451.5,-347.5"/>
<text text-anchor="middle" x="502" y="-354.5" font-family="Helvetica,sans-Serif" font-size="10.00">erpc_client_setup.h</text>
</g>
<!-- Node2 -->
<g id="node2" class="node"><title>Node2</title>
<g id="a_node2"><a xlink:href="erpc__common_8h_source.html" target="_top" xlink:title="erpc_common.h">
<polygon fill="white" stroke="black" points="39,-0.5 39,-19.5 125,-19.5 125,-0.5 39,-0.5"/>
<text text-anchor="middle" x="82" y="-7.5" font-family="Helvetica,sans-Serif" font-size="10.00">erpc_common.h</text>
</a>
</g>
</g>
<!-- Node1&#45;&gt;Node2 -->
<g id="edge1" class="edge"><title>Node1&#45;&gt;Node2</title>
<path fill="none" stroke="midnightblue" d="M451.103,-355.017C323.48,-351.179 0,-332.389 0,-240.5 0,-240.5 0,-240.5 0,-121 0,-80.2686 36.5869,-44.8717 60.883,-25.8565"/>
<polygon fill="midnightblue" stroke="midnightblue" points="63.2981,-28.4196 69.1875,-19.6125 59.0913,-22.8246 63.2981,-28.4196"/>
</g>
<!-- Node3 -->
<g id="node3" class="node"><title>Node3</title>
<g id="a_node3"><a xlink:href="erpc__config__internal_8h_source.html" target="_top" xlink:title="erpc_config_internal.h">
<polygon fill="white" stroke="black" points="492.5,-168.5 492.5,-187.5 603.5,-187.5 603.5,-168.5 492.5,-168.5"/>
<text text-anchor="middle" x="548" y="-175.5" font-family="Helvetica,sans-Serif" font-size="10.00">erpc_config_internal.h</text>
</a>
</g>
</g>
<!-- Node1&#45;&gt;Node3 -->
<g id="edge2" class="edge"><title>Node1&#45;&gt;Node3</title>
<path fill="none" stroke="midnightblue" d="M504.219,-347.463C511.275,-320.311 533.313,-235.512 543.161,-197.618"/>
<polygon fill="midnightblue" stroke="midnightblue" points="546.567,-198.427 545.695,-187.868 539.792,-196.666 546.567,-198.427"/>
</g>
<!-- Node6 -->
<g id="node6" class="node"><title>Node6</title>
<g id="a_node6"><a xlink:href="erpc__mbf__setup_8h.html" target="_top" xlink:title="erpc_mbf_setup.h">
<polygon fill="white" stroke="black" points="530,-291.5 530,-310.5 624,-310.5 624,-291.5 530,-291.5"/>
<text text-anchor="middle" x="577" y="-298.5" font-family="Helvetica,sans-Serif" font-size="10.00">erpc_mbf_setup.h</text>
</a>
</g>
</g>
<!-- Node1&#45;&gt;Node6 -->
<g id="edge5" class="edge"><title>Node1&#45;&gt;Node6</title>
<path fill="none" stroke="midnightblue" d="M514.05,-347.324C525.463,-339.107 542.831,-326.602 556.435,-316.807"/>
<polygon fill="midnightblue" stroke="midnightblue" points="558.66,-319.517 564.731,-310.834 554.57,-313.837 558.66,-319.517"/>
</g>
<!-- Node7 -->
<g id="node7" class="node"><title>Node7</title>
<g id="a_node7"><a xlink:href="erpc__transport__setup_8h.html" target="_top" xlink:title="erpc_transport_setup.h">
<polygon fill="white" stroke="black" points="589,-230 589,-249 705,-249 705,-230 589,-230"/>
<text text-anchor="middle" x="647" y="-237" font-family="Helvetica,sans-Serif" font-size="10.00">erpc_transport_setup.h</text>
</a>
</g>
</g>
<!-- Node1&#45;&gt;Node7 -->
<g id="edge26" class="edge"><title>Node1&#45;&gt;Node7</title>
<path fill="none" stroke="midnightblue" d="M552.638,-350.823C580.256,-345.344 612.83,-334.092 633,-311 645.419,-296.782 648.049,-274.749 648.123,-259.102"/>
<polygon fill="midnightblue" stroke="midnightblue" points="651.619,-258.933 647.828,-249.04 644.622,-259.138 651.619,-258.933"/>
</g>
<!-- Node8 -->
<g id="node8" class="node"><title>Node8</title>
<polygon fill="white" stroke="#bfbfbf" points="695,-168.5 695,-187.5 751,-187.5 751,-168.5 695,-168.5"/>
<text text-anchor="middle" x="723" y="-175.5" font-family="Helvetica,sans-Serif" font-size="10.00">stdbool.h</text>
</g>
<!-- Node1&#45;&gt;Node8 -->
<g id="edge27" class="edge"><title>Node1&#45;&gt;Node8</title>
<path fill="none" stroke="midnightblue" d="M550.13,-347.483C580.945,-340.658 621.001,-329.158 653,-311 685.008,-292.836 697.234,-287.763 714,-255 723.157,-237.107 724.634,-213.821 724.311,-197.765"/>
<polygon fill="midnightblue" stroke="midnightblue" points="727.796,-197.36 723.841,-187.531 720.803,-197.681 727.796,-197.36"/>
</g>
<!-- Node9 -->
<g id="node9" class="node"><title>Node9</title>
<polygon fill="white" stroke="#bfbfbf" points="420.5,-0.5 420.5,-19.5 469.5,-19.5 469.5,-0.5 420.5,-0.5"/>
<text text-anchor="middle" x="445" y="-7.5" font-family="Helvetica,sans-Serif" font-size="10.00">stdint.h</text>
</g>
<!-- Node1&#45;&gt;Node9 -->
<g id="edge28" class="edge"><title>Node1&#45;&gt;Node9</title>
<path fill="none" stroke="midnightblue" d="M497.032,-347.337C486.732,-328.532 464,-282.297 464,-240.5 464,-240.5 464,-240.5 464,-121 464,-88.4885 455.841,-51.3503 450.216,-29.6103"/>
<polygon fill="midnightblue" stroke="midnightblue" points="453.541,-28.498 447.562,-19.7514 446.782,-30.3175 453.541,-28.498"/>
</g>
<!-- Node10 -->
<g id="node10" class="node"><title>Node10</title>
<g id="a_node10"><a xlink:href="erpc__client__manager_8h.html" target="_top" xlink:title="erpc_client_manager.h">
<polygon fill="white" stroke="black" points="320.5,-291.5 320.5,-310.5 435.5,-310.5 435.5,-291.5 320.5,-291.5"/>
<text text-anchor="middle" x="378" y="-298.5" font-family="Helvetica,sans-Serif" font-size="10.00">erpc_client_manager.h</text>
</a>
</g>
</g>
<!-- Node1&#45;&gt;Node10 -->
<g id="edge9" class="edge"><title>Node1&#45;&gt;Node10</title>
<path fill="none" stroke="midnightblue" d="M482.352,-347.444C462.035,-338.596 430.097,-324.687 406.902,-314.586"/>
<polygon fill="midnightblue" stroke="midnightblue" points="408.122,-311.3 397.556,-310.516 405.327,-317.718 408.122,-311.3"/>
</g>
<!-- Node4 -->
<g id="node4" class="node"><title>Node4</title>
<g id="a_node4"><a xlink:href="erpc__config_8h.html" target="_top" xlink:title="erpc_config.h">
<polygon fill="white" stroke="black" points="560,-112.5 560,-131.5 634,-131.5 634,-112.5 560,-112.5"/>
<text text-anchor="middle" x="597" y="-119.5" font-family="Helvetica,sans-Serif" font-size="10.00">erpc_config.h</text>
</a>
</g>
</g>
<!-- Node3&#45;&gt;Node4 -->
<g id="edge3" class="edge"><title>Node3&#45;&gt;Node4</title>
<path fill="none" stroke="midnightblue" d="M556.091,-168.083C563.155,-160.298 573.588,-148.801 582.149,-139.367"/>
<polygon fill="midnightblue" stroke="midnightblue" points="584.931,-141.509 589.059,-131.751 579.747,-136.805 584.931,-141.509"/>
</g>
<!-- Node5 -->
<g id="node5" class="node"><title>Node5</title>
<polygon fill="white" stroke="#bfbfbf" points="492.5,-112.5 492.5,-131.5 541.5,-131.5 541.5,-112.5 492.5,-112.5"/>
<text text-anchor="middle" x="517" y="-119.5" font-family="Helvetica,sans-Serif" font-size="10.00">cassert</text>
</g>
<!-- Node3&#45;&gt;Node5 -->
<g id="edge4" class="edge"><title>Node3&#45;&gt;Node5</title>
<path fill="none" stroke="midnightblue" d="M542.881,-168.083C538.592,-160.613 532.342,-149.724 527.058,-140.52"/>
<polygon fill="midnightblue" stroke="midnightblue" points="530.038,-138.681 522.024,-131.751 523.967,-142.166 530.038,-138.681"/>
</g>
<!-- Node6&#45;&gt;Node7 -->
<g id="edge6" class="edge"><title>Node6&#45;&gt;Node7</title>
<path fill="none" stroke="midnightblue" d="M587.029,-291.475C598.049,-282.108 615.96,-266.884 629.343,-255.508"/>
<polygon fill="midnightblue" stroke="midnightblue" points="631.637,-258.152 636.989,-249.009 627.103,-252.819 631.637,-258.152"/>
</g>
<!-- Node7&#45;&gt;Node8 -->
<g id="edge7" class="edge"><title>Node7&#45;&gt;Node8</title>
<path fill="none" stroke="midnightblue" d="M657.889,-229.975C669.966,-220.52 689.667,-205.096 704.24,-193.687"/>
<polygon fill="midnightblue" stroke="midnightblue" points="706.415,-196.429 712.131,-187.509 702.1,-190.918 706.415,-196.429"/>
</g>
<!-- Node7&#45;&gt;Node9 -->
<g id="edge8" class="edge"><title>Node7&#45;&gt;Node9</title>
<path fill="none" stroke="midnightblue" d="M649.46,-229.967C655.18,-208.273 667.131,-150.035 643,-112 606.387,-54.2912 525.668,-28.0905 479.393,-17.4224"/>
<polygon fill="midnightblue" stroke="midnightblue" points="480.036,-13.9802 469.519,-15.2615 478.539,-20.8184 480.036,-13.9802"/>
</g>
<!-- Node11 -->
<g id="node11" class="node"><title>Node11</title>
<g id="a_node11"><a xlink:href="erpc__client__server__common_8hpp.html" target="_top" xlink:title="erpc_client_server\l_common.hpp">
<polygon fill="white" stroke="black" points="330.5,-224.5 330.5,-254.5 425.5,-254.5 425.5,-224.5 330.5,-224.5"/>
<text text-anchor="start" x="338.5" y="-242.5" font-family="Helvetica,sans-Serif" font-size="10.00">erpc_client_server</text>
<text text-anchor="middle" x="378" y="-231.5" font-family="Helvetica,sans-Serif" font-size="10.00">_common.hpp</text>
</a>
</g>
</g>
<!-- Node10&#45;&gt;Node11 -->
<g id="edge10" class="edge"><title>Node10&#45;&gt;Node11</title>
<path fill="none" stroke="midnightblue" d="M378,-291.475C378,-284.471 378,-274.192 378,-264.696"/>
<polygon fill="midnightblue" stroke="midnightblue" points="381.5,-264.523 378,-254.523 374.5,-264.523 381.5,-264.523"/>
</g>
<!-- Node11&#45;&gt;Node3 -->
<g id="edge11" class="edge"><title>Node11&#45;&gt;Node3</title>
<path fill="none" stroke="midnightblue" d="M418.288,-224.399C447.32,-214.238 486.081,-200.672 513.651,-191.022"/>
<polygon fill="midnightblue" stroke="midnightblue" points="514.981,-194.265 523.263,-187.658 512.669,-187.658 514.981,-194.265"/>
</g>
<!-- Node12 -->
<g id="node12" class="node"><title>Node12</title>
<g id="a_node12"><a xlink:href="erpc__codec_8hpp.html" target="_top" xlink:title="erpc_codec.hpp">
<polygon fill="white" stroke="black" points="229,-168.5 229,-187.5 315,-187.5 315,-168.5 229,-168.5"/>
<text text-anchor="middle" x="272" y="-175.5" font-family="Helvetica,sans-Serif" font-size="10.00">erpc_codec.hpp</text>
</a>
</g>
</g>
<!-- Node11&#45;&gt;Node12 -->
<g id="edge12" class="edge"><title>Node11&#45;&gt;Node12</title>
<path fill="none" stroke="midnightblue" d="M352.879,-224.399C335.73,-214.773 313.135,-202.09 296.188,-192.577"/>
<polygon fill="midnightblue" stroke="midnightblue" points="297.857,-189.501 287.424,-187.658 294.431,-195.605 297.857,-189.501"/>
</g>
<!-- Node12&#45;&gt;Node2 -->
<g id="edge13" class="edge"><title>Node12&#45;&gt;Node2</title>
<path fill="none" stroke="midnightblue" d="M228.919,-172.453C175.437,-164.098 87.537,-140.707 57,-76 49.4533,-60.0088 58.6886,-41.0746 67.9942,-27.7792"/>
<polygon fill="midnightblue" stroke="midnightblue" points="70.9644,-29.656 74.2423,-19.5809 65.397,-25.4128 70.9644,-29.656"/>
</g>
<!-- Node12&#45;&gt;Node9 -->
<g id="edge25" class="edge"><title>Node12&#45;&gt;Node9</title>
<path fill="none" stroke="midnightblue" d="M287.33,-168.347C314.133,-152.653 370.159,-117.27 407,-76 419.625,-61.8573 430.141,-42.877 436.886,-29.0796"/>
<polygon fill="midnightblue" stroke="midnightblue" points="440.206,-30.2449 441.282,-19.7049 433.867,-27.2734 440.206,-30.2449"/>
</g>
<!-- Node13 -->
<g id="node13" class="node"><title>Node13</title>
<g id="a_node13"><a xlink:href="erpc__message__buffer_8hpp.html" target="_top" xlink:title="erpc_message_buffer.hpp">
<polygon fill="white" stroke="black" points="270,-56.5 270,-75.5 398,-75.5 398,-56.5 270,-56.5"/>
<text text-anchor="middle" x="334" y="-63.5" font-family="Helvetica,sans-Serif" font-size="10.00">erpc_message_buffer.hpp</text>
</a>
</g>
</g>
<!-- Node12&#45;&gt;Node13 -->
<g id="edge14" class="edge"><title>Node12&#45;&gt;Node13</title>
<path fill="none" stroke="midnightblue" d="M276.865,-168.368C287.052,-150.296 310.791,-108.176 324.245,-84.3074"/>
<polygon fill="midnightblue" stroke="midnightblue" points="327.296,-86.0215 329.158,-75.5914 321.198,-82.5844 327.296,-86.0215"/>
</g>
<!-- Node15 -->
<g id="node15" class="node"><title>Node15</title>
<g id="a_node15"><a xlink:href="erpc__transport_8hpp.html" target="_top" xlink:title="erpc_transport.hpp">
<polygon fill="white" stroke="black" points="161,-112.5 161,-131.5 259,-131.5 259,-112.5 161,-112.5"/>
<text text-anchor="middle" x="210" y="-119.5" font-family="Helvetica,sans-Serif" font-size="10.00">erpc_transport.hpp</text>
</a>
</g>
</g>
<!-- Node12&#45;&gt;Node15 -->
<g id="edge18" class="edge"><title>Node12&#45;&gt;Node15</title>
<path fill="none" stroke="midnightblue" d="M262.039,-168.324C252.873,-160.341 239.063,-148.313 227.972,-138.653"/>
<polygon fill="midnightblue" stroke="midnightblue" points="229.982,-135.762 220.143,-131.834 225.385,-141.041 229.982,-135.762"/>
</g>
<!-- Node18 -->
<g id="node18" class="node"><title>Node18</title>
<polygon fill="white" stroke="#bfbfbf" points="66,-56.5 66,-75.5 112,-75.5 112,-56.5 66,-56.5"/>
<text text-anchor="middle" x="89" y="-63.5" font-family="Helvetica,sans-Serif" font-size="10.00">cstring</text>
</g>
<!-- Node12&#45;&gt;Node18 -->
<g id="edge24" class="edge"><title>Node12&#45;&gt;Node18</title>
<path fill="none" stroke="midnightblue" d="M237.528,-168.476C212.46,-161.264 178.43,-149.312 152,-132 131.968,-118.879 113.463,-98.3493 101.764,-83.8791"/>
<polygon fill="midnightblue" stroke="midnightblue" points="104.332,-81.4815 95.4069,-75.7727 98.824,-85.8014 104.332,-81.4815"/>
</g>
<!-- Node13&#45;&gt;Node2 -->
<g id="edge15" class="edge"><title>Node13&#45;&gt;Node2</title>
<path fill="none" stroke="midnightblue" d="M294.07,-56.4435C250.109,-47.0234 179.373,-31.8656 131.817,-21.6752"/>
<polygon fill="midnightblue" stroke="midnightblue" points="132.255,-18.1895 121.743,-19.5164 130.788,-25.0341 132.255,-18.1895"/>
</g>
<!-- Node13&#45;&gt;Node9 -->
<g id="edge17" class="edge"><title>Node13&#45;&gt;Node9</title>
<path fill="none" stroke="midnightblue" d="M351.834,-56.324C369.716,-47.6247 397.475,-34.1202 418.046,-24.113"/>
<polygon fill="midnightblue" stroke="midnightblue" points="419.749,-27.1765 427.21,-19.6545 416.687,-20.8819 419.749,-27.1765"/>
</g>
<!-- Node14 -->
<g id="node14" class="node"><title>Node14</title>
<polygon fill="white" stroke="#bfbfbf" points="310,-0.5 310,-19.5 358,-19.5 358,-0.5 310,-0.5"/>
<text text-anchor="middle" x="334" y="-7.5" font-family="Helvetica,sans-Serif" font-size="10.00">cstddef</text>
</g>
<!-- Node13&#45;&gt;Node14 -->
<g id="edge16" class="edge"><title>Node13&#45;&gt;Node14</title>
<path fill="none" stroke="midnightblue" d="M334,-56.083C334,-49.0059 334,-38.8611 334,-29.9865"/>
<polygon fill="midnightblue" stroke="midnightblue" points="337.5,-29.751 334,-19.7511 330.5,-29.7511 337.5,-29.751"/>
</g>
<!-- Node15&#45;&gt;Node2 -->
<g id="edge19" class="edge"><title>Node15&#45;&gt;Node2</title>
<path fill="none" stroke="midnightblue" d="M199.956,-112.368C178.272,-93.7334 126.838,-49.5324 99.6103,-26.1338"/>
<polygon fill="midnightblue" stroke="midnightblue" points="101.863,-23.4546 91.9973,-19.5914 97.3003,-28.7636 101.863,-23.4546"/>
</g>
<!-- Node15&#45;&gt;Node13 -->
<g id="edge22" class="edge"><title>Node15&#45;&gt;Node13</title>
<path fill="none" stroke="midnightblue" d="M229.648,-112.444C249.965,-103.596 281.903,-89.6875 305.098,-79.5865"/>
<polygon fill="midnightblue" stroke="midnightblue" points="306.673,-82.7181 314.444,-75.5164 303.878,-76.3002 306.673,-82.7181"/>
</g>
<!-- Node16 -->
<g id="node16" class="node"><title>Node16</title>
<g id="a_node16"><a xlink:href="erpc__crc16_8hpp.html" target="_top" xlink:title="erpc_crc16.hpp">
<polygon fill="white" stroke="black" points="168.5,-56.5 168.5,-75.5 251.5,-75.5 251.5,-56.5 168.5,-56.5"/>
<text text-anchor="middle" x="210" y="-63.5" font-family="Helvetica,sans-Serif" font-size="10.00">erpc_crc16.hpp</text>
</a>
</g>
</g>
<!-- Node15&#45;&gt;Node16 -->
<g id="edge20" class="edge"><title>Node15&#45;&gt;Node16</title>
<path fill="none" stroke="midnightblue" d="M210,-112.083C210,-105.006 210,-94.8611 210,-85.9865"/>
<polygon fill="midnightblue" stroke="midnightblue" points="213.5,-85.751 210,-75.7511 206.5,-85.7511 213.5,-85.751"/>
</g>
<!-- Node15&#45;&gt;Node18 -->
<g id="edge23" class="edge"><title>Node15&#45;&gt;Node18</title>
<path fill="none" stroke="midnightblue" d="M190.827,-112.444C171.091,-103.636 140.115,-89.8116 117.507,-79.722"/>
<polygon fill="midnightblue" stroke="midnightblue" points="118.641,-76.3957 108.083,-75.5164 115.789,-82.788 118.641,-76.3957"/>
</g>
<!-- Node17 -->
<g id="node17" class="node"><title>Node17</title>
<polygon fill="white" stroke="#bfbfbf" points="187,-0.5 187,-19.5 233,-19.5 233,-0.5 187,-0.5"/>
<text text-anchor="middle" x="210" y="-7.5" font-family="Helvetica,sans-Serif" font-size="10.00">cstdint</text>
</g>
<!-- Node16&#45;&gt;Node17 -->
<g id="edge21" class="edge"><title>Node16&#45;&gt;Node17</title>
<path fill="none" stroke="midnightblue" d="M210,-56.083C210,-49.0059 210,-38.8611 210,-29.9865"/>
<polygon fill="midnightblue" stroke="midnightblue" points="213.5,-29.751 210,-19.7511 206.5,-29.7511 213.5,-29.751"/>
</g>
</g>
</svg>
