<?xml version="1.0" encoding="UTF-8" standalone="no"?>
<!DOCTYPE svg PUBLIC "-//W3C//DTD SVG 1.1//EN"
 "http://www.w3.org/Graphics/SVG/1.1/DTD/svg11.dtd">
<!-- Generated by graphviz version 2.38.0 (20140413.2041)
 -->
<!-- Title: erpc_inter_thread_buffer_transport.hpp Pages: 1 -->
<svg width="550pt" height="207pt"
 viewBox="0.00 0.00 549.50 207.00" xmlns="http://www.w3.org/2000/svg" xmlns:xlink="http://www.w3.org/1999/xlink">
<g id="graph0" class="graph" transform="scale(1 1) rotate(0) translate(4 203)">
<title>erpc_inter_thread_buffer_transport.hpp</title>
<polygon fill="white" stroke="none" points="-4,4 -4,-203 545.5,-203 545.5,4 -4,4"/>
<!-- Node1 -->
<g id="node1" class="node"><title>Node1</title>
<polygon fill="#bfbfbf" stroke="black" points="213.5,-168.5 213.5,-198.5 333.5,-198.5 333.5,-168.5 213.5,-168.5"/>
<text text-anchor="start" x="221.5" y="-186.5" font-family="Helvetica,sans-Serif" font-size="10.00">erpc_inter_thread_buffer</text>
<text text-anchor="middle" x="273.5" y="-175.5" font-family="Helvetica,sans-Serif" font-size="10.00">_transport.hpp</text>
</g>
<!-- Node2 -->
<g id="node2" class="node"><title>Node2</title>
<g id="a_node2"><a xlink:href="erpc__message__buffer_8hpp.html" target="_top" xlink:title="erpc_message_buffer.hpp">
<polygon fill="white" stroke="black" points="209.5,-56.5 209.5,-75.5 337.5,-75.5 337.5,-56.5 209.5,-56.5"/>
<text text-anchor="middle" x="273.5" y="-63.5" font-family="Helvetica,sans-Serif" font-size="10.00">erpc_message_buffer.hpp</text>
</a>
</g>
</g>
<!-- Node1&#45;&gt;Node2 -->
<g id="edge1" class="edge"><title>Node1&#45;&gt;Node2</title>
<path fill="none" stroke="midnightblue" d="M273.5,-168.337C273.5,-147.622 273.5,-109.016 273.5,-85.8991"/>
<polygon fill="midnightblue" stroke="midnightblue" points="277,-85.6694 273.5,-75.6695 270,-85.6695 277,-85.6694"/>
</g>
<!-- Node6 -->
<g id="node6" class="node"><title>Node6</title>
<g id="a_node6"><a xlink:href="erpc__threading_8h.html" target="_top" xlink:title="erpc_threading.h">
<polygon fill="white" stroke="black" points="137,-112.5 137,-131.5 226,-131.5 226,-112.5 137,-112.5"/>
<text text-anchor="middle" x="181.5" y="-119.5" font-family="Helvetica,sans-Serif" font-size="10.00">erpc_threading.h</text>
</a>
</g>
</g>
<!-- Node1&#45;&gt;Node6 -->
<g id="edge5" class="edge"><title>Node1&#45;&gt;Node6</title>
<path fill="none" stroke="midnightblue" d="M251.697,-168.399C237.088,-158.951 217.927,-146.559 203.315,-137.109"/>
<polygon fill="midnightblue" stroke="midnightblue" points="205.184,-134.15 194.887,-131.658 201.383,-140.027 205.184,-134.15"/>
</g>
<!-- Node10 -->
<g id="node10" class="node"><title>Node10</title>
<g id="a_node10"><a xlink:href="erpc__transport_8hpp.html" target="_top" xlink:title="erpc_transport.hpp">
<polygon fill="white" stroke="black" points="316.5,-112.5 316.5,-131.5 414.5,-131.5 414.5,-112.5 316.5,-112.5"/>
<text text-anchor="middle" x="365.5" y="-119.5" font-family="Helvetica,sans-Serif" font-size="10.00">erpc_transport.hpp</text>
</a>
</g>
</g>
<!-- Node1&#45;&gt;Node10 -->
<g id="edge10" class="edge"><title>Node1&#45;&gt;Node10</title>
<path fill="none" stroke="midnightblue" d="M295.303,-168.399C309.912,-158.951 329.073,-146.559 343.685,-137.109"/>
<polygon fill="midnightblue" stroke="midnightblue" points="345.617,-140.027 352.113,-131.658 341.816,-134.15 345.617,-140.027"/>
</g>
<!-- Node3 -->
<g id="node3" class="node"><title>Node3</title>
<g id="a_node3"><a xlink:href="erpc__common_8h_source.html" target="_top" xlink:title="erpc_common.h">
<polygon fill="white" stroke="black" points="312.5,-0.5 312.5,-19.5 398.5,-19.5 398.5,-0.5 312.5,-0.5"/>
<text text-anchor="middle" x="355.5" y="-7.5" font-family="Helvetica,sans-Serif" font-size="10.00">erpc_common.h</text>
</a>
</g>
</g>
<!-- Node2&#45;&gt;Node3 -->
<g id="edge2" class="edge"><title>Node2&#45;&gt;Node3</title>
<path fill="none" stroke="midnightblue" d="M286.675,-56.324C299.347,-47.979 318.733,-35.2122 333.706,-25.3524"/>
<polygon fill="midnightblue" stroke="midnightblue" points="335.931,-28.0776 342.358,-19.6545 332.081,-22.2313 335.931,-28.0776"/>
</g>
<!-- Node4 -->
<g id="node4" class="node"><title>Node4</title>
<polygon fill="white" stroke="#bfbfbf" points="246.5,-0.5 246.5,-19.5 294.5,-19.5 294.5,-0.5 246.5,-0.5"/>
<text text-anchor="middle" x="270.5" y="-7.5" font-family="Helvetica,sans-Serif" font-size="10.00">cstddef</text>
</g>
<!-- Node2&#45;&gt;Node4 -->
<g id="edge3" class="edge"><title>Node2&#45;&gt;Node4</title>
<path fill="none" stroke="midnightblue" d="M273.005,-56.083C272.611,-49.0059 272.048,-38.8611 271.555,-29.9865"/>
<polygon fill="midnightblue" stroke="midnightblue" points="275.036,-29.5415 270.986,-19.7511 268.046,-29.9299 275.036,-29.5415"/>
</g>
<!-- Node5 -->
<g id="node5" class="node"><title>Node5</title>
<polygon fill="white" stroke="#bfbfbf" points="173,-0.5 173,-19.5 222,-19.5 222,-0.5 173,-0.5"/>
<text text-anchor="middle" x="197.5" y="-7.5" font-family="Helvetica,sans-Serif" font-size="10.00">stdint.h</text>
</g>
<!-- Node2&#45;&gt;Node5 -->
<g id="edge4" class="edge"><title>Node2&#45;&gt;Node5</title>
<path fill="none" stroke="midnightblue" d="M261.289,-56.324C249.724,-48.1066 232.125,-35.6017 218.339,-25.8069"/>
<polygon fill="midnightblue" stroke="midnightblue" points="220.112,-22.7729 209.933,-19.8339 216.057,-28.4791 220.112,-22.7729"/>
</g>
<!-- Node6&#45;&gt;Node5 -->
<g id="edge9" class="edge"><title>Node6&#45;&gt;Node5</title>
<path fill="none" stroke="midnightblue" d="M182.755,-112.368C185.338,-94.617 191.294,-53.6664 194.795,-29.5974"/>
<polygon fill="midnightblue" stroke="midnightblue" points="198.274,-29.9911 196.25,-19.5914 191.347,-28.9835 198.274,-29.9911"/>
</g>
<!-- Node7 -->
<g id="node7" class="node"><title>Node7</title>
<g id="a_node7"><a xlink:href="erpc__config__internal_8h_source.html" target="_top" xlink:title="erpc_config_internal.h">
<polygon fill="white" stroke="black" points="42,-56.5 42,-75.5 153,-75.5 153,-56.5 42,-56.5"/>
<text text-anchor="middle" x="97.5" y="-63.5" font-family="Helvetica,sans-Serif" font-size="10.00">erpc_config_internal.h</text>
</a>
</g>
</g>
<!-- Node6&#45;&gt;Node7 -->
<g id="edge6" class="edge"><title>Node6&#45;&gt;Node7</title>
<path fill="none" stroke="midnightblue" d="M168.004,-112.324C154.9,-103.9 134.788,-90.9709 119.393,-81.0741"/>
<polygon fill="midnightblue" stroke="midnightblue" points="121.267,-78.118 110.963,-75.6545 117.482,-84.0063 121.267,-78.118"/>
</g>
<!-- Node8 -->
<g id="node8" class="node"><title>Node8</title>
<g id="a_node8"><a xlink:href="erpc__config_8h.html" target="_top" xlink:title="erpc_config.h">
<polygon fill="white" stroke="black" points="67.5,-0.5 67.5,-19.5 141.5,-19.5 141.5,-0.5 67.5,-0.5"/>
<text text-anchor="middle" x="104.5" y="-7.5" font-family="Helvetica,sans-Serif" font-size="10.00">erpc_config.h</text>
</a>
</g>
</g>
<!-- Node7&#45;&gt;Node8 -->
<g id="edge7" class="edge"><title>Node7&#45;&gt;Node8</title>
<path fill="none" stroke="midnightblue" d="M98.6559,-56.083C99.5835,-48.9272 100.918,-38.6353 102.077,-29.6911"/>
<polygon fill="midnightblue" stroke="midnightblue" points="105.551,-30.1181 103.366,-19.7511 98.609,-29.2181 105.551,-30.1181"/>
</g>
<!-- Node9 -->
<g id="node9" class="node"><title>Node9</title>
<polygon fill="white" stroke="#bfbfbf" points="0,-0.5 0,-19.5 49,-19.5 49,-0.5 0,-0.5"/>
<text text-anchor="middle" x="24.5" y="-7.5" font-family="Helvetica,sans-Serif" font-size="10.00">cassert</text>
</g>
<!-- Node7&#45;&gt;Node9 -->
<g id="edge8" class="edge"><title>Node7&#45;&gt;Node9</title>
<path fill="none" stroke="midnightblue" d="M85.7713,-56.324C74.6626,-48.1066 57.7578,-35.6017 44.5167,-25.8069"/>
<polygon fill="midnightblue" stroke="midnightblue" points="46.5631,-22.9671 36.4421,-19.8339 42.4001,-28.5948 46.5631,-22.9671"/>
</g>
<!-- Node10&#45;&gt;Node2 -->
<g id="edge14" class="edge"><title>Node10&#45;&gt;Node2</title>
<path fill="none" stroke="midnightblue" d="M350.719,-112.324C336.233,-103.822 313.927,-90.7288 297.007,-80.7975"/>
<polygon fill="midnightblue" stroke="midnightblue" points="298.641,-77.6981 288.245,-75.6545 295.097,-83.735 298.641,-77.6981"/>
</g>
<!-- Node10&#45;&gt;Node3 -->
<g id="edge11" class="edge"><title>Node10&#45;&gt;Node3</title>
<path fill="none" stroke="midnightblue" d="M364.715,-112.368C363.102,-94.617 359.379,-53.6664 357.191,-29.5974"/>
<polygon fill="midnightblue" stroke="midnightblue" points="360.672,-29.2334 356.281,-19.5914 353.701,-29.8673 360.672,-29.2334"/>
</g>
<!-- Node11 -->
<g id="node11" class="node"><title>Node11</title>
<g id="a_node11"><a xlink:href="erpc__crc16_8hpp.html" target="_top" xlink:title="erpc_crc16.hpp">
<polygon fill="white" stroke="black" points="394,-56.5 394,-75.5 477,-75.5 477,-56.5 394,-56.5"/>
<text text-anchor="middle" x="435.5" y="-63.5" font-family="Helvetica,sans-Serif" font-size="10.00">erpc_crc16.hpp</text>
</a>
</g>
</g>
<!-- Node10&#45;&gt;Node11 -->
<g id="edge12" class="edge"><title>Node10&#45;&gt;Node11</title>
<path fill="none" stroke="midnightblue" d="M376.747,-112.324C387.297,-104.185 403.301,-91.8395 415.942,-82.0874"/>
<polygon fill="midnightblue" stroke="midnightblue" points="418.269,-84.7132 424.049,-75.8339 413.993,-79.1707 418.269,-84.7132"/>
</g>
<!-- Node13 -->
<g id="node13" class="node"><title>Node13</title>
<polygon fill="white" stroke="#bfbfbf" points="495.5,-56.5 495.5,-75.5 541.5,-75.5 541.5,-56.5 495.5,-56.5"/>
<text text-anchor="middle" x="518.5" y="-63.5" font-family="Helvetica,sans-Serif" font-size="10.00">cstring</text>
</g>
<!-- Node10&#45;&gt;Node13 -->
<g id="edge15" class="edge"><title>Node10&#45;&gt;Node13</title>
<path fill="none" stroke="midnightblue" d="M389.743,-112.444C415.672,-103.292 456.943,-88.726 485.748,-78.5594"/>
<polygon fill="midnightblue" stroke="midnightblue" points="487.107,-81.7917 495.372,-75.1629 484.777,-75.1907 487.107,-81.7917"/>
</g>
<!-- Node12 -->
<g id="node12" class="node"><title>Node12</title>
<polygon fill="white" stroke="#bfbfbf" points="416.5,-0.5 416.5,-19.5 462.5,-19.5 462.5,-0.5 416.5,-0.5"/>
<text text-anchor="middle" x="439.5" y="-7.5" font-family="Helvetica,sans-Serif" font-size="10.00">cstdint</text>
</g>
<!-- Node11&#45;&gt;Node12 -->
<g id="edge13" class="edge"><title>Node11&#45;&gt;Node12</title>
<path fill="none" stroke="midnightblue" d="M436.161,-56.083C436.685,-49.0059 437.436,-38.8611 438.094,-29.9865"/>
<polygon fill="midnightblue" stroke="midnightblue" points="441.603,-29.9823 438.852,-19.7511 434.623,-29.4652 441.603,-29.9823"/>
</g>
</g>
</svg>
