<?xml version="1.0" encoding="UTF-8" standalone="no"?>
<!DOCTYPE svg PUBLIC "-//W3C//DTD SVG 1.1//EN"
 "http://www.w3.org/Graphics/SVG/1.1/DTD/svg11.dtd">
<!-- Generated by graphviz version 2.38.0 (20140413.2041)
 -->
<!-- Title: erpc_threading.h Pages: 1 -->
<svg width="866pt" height="151pt"
 viewBox="0.00 0.00 866.00 151.00" xmlns="http://www.w3.org/2000/svg" xmlns:xlink="http://www.w3.org/1999/xlink">
<g id="graph0" class="graph" transform="scale(1 1) rotate(0) translate(4 147)">
<title>erpc_threading.h</title>
<polygon fill="white" stroke="none" points="-4,4 -4,-147 862,-147 862,4 -4,4"/>
<!-- Node1 -->
<g id="node1" class="node"><title>Node1</title>
<polygon fill="#bfbfbf" stroke="black" points="498.5,-123.5 498.5,-142.5 587.5,-142.5 587.5,-123.5 498.5,-123.5"/>
<text text-anchor="middle" x="543" y="-130.5" font-family="Helvetica,sans-Serif" font-size="10.00">erpc_threading.h</text>
</g>
<!-- Node2 -->
<g id="node2" class="node"><title>Node2</title>
<g id="a_node2"><a xlink:href="transport__arbitrator_8h.html" target="_top" xlink:title="transport_arbitrator.h">
<polygon fill="white" stroke="black" points="330.5,-62 330.5,-81 437.5,-81 437.5,-62 330.5,-62"/>
<text text-anchor="middle" x="384" y="-69" font-family="Helvetica,sans-Serif" font-size="10.00">transport_arbitrator.h</text>
</a>
</g>
</g>
<!-- Node1&#45;&gt;Node2 -->
<g id="edge1" class="edge"><title>Node1&#45;&gt;Node2</title>
<path fill="none" stroke="midnightblue" d="M510.753,-119.933C479.85,-108.368 433.993,-91.2083 406.739,-81.0091"/>
<polygon fill="midnightblue" stroke="midnightblue" points="509.627,-123.248 520.219,-123.475 512.08,-116.692 509.627,-123.248"/>
</g>
<!-- Node3 -->
<g id="node3" class="node"><title>Node3</title>
<g id="a_node3"><a xlink:href="framed__transport_8h.html" target="_top" xlink:title="framed_transport.h">
<polygon fill="white" stroke="black" points="456,-62 456,-81 554,-81 554,-62 456,-62"/>
<text text-anchor="middle" x="505" y="-69" font-family="Helvetica,sans-Serif" font-size="10.00">framed_transport.h</text>
</a>
</g>
</g>
<!-- Node1&#45;&gt;Node3 -->
<g id="edge2" class="edge"><title>Node1&#45;&gt;Node3</title>
<path fill="none" stroke="midnightblue" d="M532.146,-115.005C525.046,-103.888 516.074,-89.8395 510.434,-81.0091"/>
<polygon fill="midnightblue" stroke="midnightblue" points="529.223,-116.931 537.556,-123.475 535.123,-113.163 529.223,-116.931"/>
</g>
<!-- Node9 -->
<g id="node9" class="node"><title>Node9</title>
<g id="a_node9"><a xlink:href="tcp__transport_8h.html" target="_top" xlink:title="tcp_transport.h">
<polygon fill="white" stroke="black" points="776,-0.5 776,-19.5 858,-19.5 858,-0.5 776,-0.5"/>
<text text-anchor="middle" x="817" y="-7.5" font-family="Helvetica,sans-Serif" font-size="10.00">tcp_transport.h</text>
</a>
</g>
</g>
<!-- Node1&#45;&gt;Node9 -->
<g id="edge11" class="edge"><title>Node1&#45;&gt;Node9</title>
<path fill="none" stroke="midnightblue" d="M551.782,-114.09C561.385,-96.4673 578.46,-70.1993 601,-56 608.394,-51.3423 715.02,-30.4559 775.637,-18.8464"/>
<polygon fill="midnightblue" stroke="midnightblue" points="548.498,-112.821 547.007,-123.31 554.714,-116.04 548.498,-112.821"/>
</g>
<!-- Node11 -->
<g id="node11" class="node"><title>Node11</title>
<g id="a_node11"><a xlink:href="inter__thread__buffer__transport_8h.html" target="_top" xlink:title="inter_thread_buffer\l_transport.h">
<polygon fill="white" stroke="black" points="610,-56.5 610,-86.5 706,-86.5 706,-56.5 610,-56.5"/>
<text text-anchor="start" x="618" y="-74.5" font-family="Helvetica,sans-Serif" font-size="10.00">inter_thread_buffer</text>
<text text-anchor="middle" x="658" y="-63.5" font-family="Helvetica,sans-Serif" font-size="10.00">_transport.h</text>
</a>
</g>
</g>
<!-- Node1&#45;&gt;Node11 -->
<g id="edge10" class="edge"><title>Node1&#45;&gt;Node11</title>
<path fill="none" stroke="midnightblue" d="M568.499,-118.807C587.013,-109.228 612.022,-96.2888 630.897,-86.523"/>
<polygon fill="midnightblue" stroke="midnightblue" points="566.75,-115.771 559.477,-123.475 569.967,-121.988 566.75,-115.771"/>
</g>
<!-- Node4 -->
<g id="node4" class="node"><title>Node4</title>
<g id="a_node4"><a xlink:href="dspi__master__transport_8h.html" target="_top" xlink:title="dspi_master_transport.h">
<polygon fill="white" stroke="black" points="0,-0.5 0,-19.5 122,-19.5 122,-0.5 0,-0.5"/>
<text text-anchor="middle" x="61" y="-7.5" font-family="Helvetica,sans-Serif" font-size="10.00">dspi_master_transport.h</text>
</a>
</g>
</g>
<!-- Node3&#45;&gt;Node4 -->
<g id="edge3" class="edge"><title>Node3&#45;&gt;Node4</title>
<path fill="none" stroke="midnightblue" d="M463.16,-59.5225C457.419,-58.22 451.581,-57.0004 446,-56 307.3,-31.1347 270.884,-36.985 131,-20 128.081,-19.6455 125.094,-19.2784 122.077,-18.9042"/>
<polygon fill="midnightblue" stroke="midnightblue" points="462.776,-63.0284 473.314,-61.9273 464.39,-56.2168 462.776,-63.0284"/>
</g>
<!-- Node5 -->
<g id="node5" class="node"><title>Node5</title>
<g id="a_node5"><a xlink:href="dspi__slave__transport_8h.html" target="_top" xlink:title="dspi_slave_transport.h">
<polygon fill="white" stroke="black" points="140.5,-0.5 140.5,-19.5 253.5,-19.5 253.5,-0.5 140.5,-0.5"/>
<text text-anchor="middle" x="197" y="-7.5" font-family="Helvetica,sans-Serif" font-size="10.00">dspi_slave_transport.h</text>
</a>
</g>
</g>
<!-- Node3&#45;&gt;Node5 -->
<g id="edge4" class="edge"><title>Node3&#45;&gt;Node5</title>
<path fill="none" stroke="midnightblue" d="M461.688,-59.5296C456.414,-58.2903 451.092,-57.0848 446,-56 378.544,-41.6301 300.175,-27.9607 249.649,-19.5372"/>
<polygon fill="midnightblue" stroke="midnightblue" points="461.156,-63.0014 471.697,-61.9318 462.79,-56.1947 461.156,-63.0014"/>
</g>
<!-- Node6 -->
<g id="node6" class="node"><title>Node6</title>
<g id="a_node6"><a xlink:href="serial__transport_8h.html" target="_top" xlink:title="serial_transport.h">
<polygon fill="white" stroke="black" points="272,-0.5 272,-19.5 364,-19.5 364,-0.5 272,-0.5"/>
<text text-anchor="middle" x="318" y="-7.5" font-family="Helvetica,sans-Serif" font-size="10.00">serial_transport.h</text>
</a>
</g>
</g>
<!-- Node3&#45;&gt;Node6 -->
<g id="edge5" class="edge"><title>Node3&#45;&gt;Node6</title>
<path fill="none" stroke="midnightblue" d="M468.482,-58.8806C432.134,-47.3152 377.214,-29.8407 344.743,-19.5091"/>
<polygon fill="midnightblue" stroke="midnightblue" points="467.617,-62.2782 478.207,-61.9751 469.739,-55.6078 467.617,-62.2782"/>
</g>
<!-- Node7 -->
<g id="node7" class="node"><title>Node7</title>
<g id="a_node7"><a xlink:href="spi__master__transport_8h.html" target="_top" xlink:title="spi_master_transport.h">
<polygon fill="white" stroke="black" points="382,-0.5 382,-19.5 498,-19.5 498,-0.5 382,-0.5"/>
<text text-anchor="middle" x="440" y="-7.5" font-family="Helvetica,sans-Serif" font-size="10.00">spi_master_transport.h</text>
</a>
</g>
</g>
<!-- Node3&#45;&gt;Node7 -->
<g id="edge6" class="edge"><title>Node3&#45;&gt;Node7</title>
<path fill="none" stroke="midnightblue" d="M488.231,-55.1496C475.838,-43.8058 459.425,-28.7811 449.296,-19.5091"/>
<polygon fill="midnightblue" stroke="midnightblue" points="485.948,-57.8047 495.687,-61.9751 490.674,-52.6413 485.948,-57.8047"/>
</g>
<!-- Node8 -->
<g id="node8" class="node"><title>Node8</title>
<g id="a_node8"><a xlink:href="spi__slave__transport_8h.html" target="_top" xlink:title="spi_slave_transport.h">
<polygon fill="white" stroke="black" points="516,-0.5 516,-19.5 624,-19.5 624,-0.5 516,-0.5"/>
<text text-anchor="middle" x="570" y="-7.5" font-family="Helvetica,sans-Serif" font-size="10.00">spi_slave_transport.h</text>
</a>
</g>
</g>
<!-- Node3&#45;&gt;Node8 -->
<g id="edge7" class="edge"><title>Node3&#45;&gt;Node8</title>
<path fill="none" stroke="midnightblue" d="M521.769,-55.1496C534.162,-43.8058 550.575,-28.7811 560.704,-19.5091"/>
<polygon fill="midnightblue" stroke="midnightblue" points="519.326,-52.6413 514.313,-61.9751 524.052,-57.8047 519.326,-52.6413"/>
</g>
<!-- Node3&#45;&gt;Node9 -->
<g id="edge8" class="edge"><title>Node3&#45;&gt;Node9</title>
<path fill="none" stroke="midnightblue" d="M550.404,-59.7796C556.314,-58.4636 562.295,-57.1713 568,-56 573.083,-54.9563 706.38,-30.926 775.805,-18.4192"/>
<polygon fill="midnightblue" stroke="midnightblue" points="549.568,-56.3803 540.586,-61.9996 551.111,-63.208 549.568,-56.3803"/>
</g>
<!-- Node10 -->
<g id="node10" class="node"><title>Node10</title>
<g id="a_node10"><a xlink:href="uart__cmsis__transport_8h.html" target="_top" xlink:title="uart_cmsis_transport.h">
<polygon fill="white" stroke="black" points="642,-0.5 642,-19.5 758,-19.5 758,-0.5 642,-0.5"/>
<text text-anchor="middle" x="700" y="-7.5" font-family="Helvetica,sans-Serif" font-size="10.00">uart_cmsis_transport.h</text>
</a>
</g>
</g>
<!-- Node3&#45;&gt;Node10 -->
<g id="edge9" class="edge"><title>Node3&#45;&gt;Node10</title>
<path fill="none" stroke="midnightblue" d="M542.595,-59.0286C580.494,-47.4647 638.108,-29.8849 672.113,-19.5091"/>
<polygon fill="midnightblue" stroke="midnightblue" points="541.482,-55.709 532.939,-61.9751 543.525,-62.4042 541.482,-55.709"/>
</g>
</g>
</svg>
