<?xml version="1.0" encoding="UTF-8" standalone="no"?>
<!DOCTYPE svg PUBLIC "-//W3C//DTD SVG 1.1//EN"
 "http://www.w3.org/Graphics/SVG/1.1/DTD/svg11.dtd">
<!-- Generated by graphviz version 2.38.0 (20140413.2041)
 -->
<!-- Title: erpc_simple_server.hpp Pages: 1 -->
<svg width="576pt" height="375pt"
 viewBox="0.00 0.00 575.50 375.00" xmlns="http://www.w3.org/2000/svg" xmlns:xlink="http://www.w3.org/1999/xlink">
<g id="graph0" class="graph" transform="scale(1 1) rotate(0) translate(4 371)">
<title>erpc_simple_server.hpp</title>
<polygon fill="white" stroke="none" points="-4,4 -4,-371 571.5,-371 571.5,4 -4,4"/>
<!-- Node1 -->
<g id="node1" class="node"><title>Node1</title>
<polygon fill="#bfbfbf" stroke="black" points="83,-347.5 83,-366.5 202,-366.5 202,-347.5 83,-347.5"/>
<text text-anchor="middle" x="142.5" y="-354.5" font-family="Helvetica,sans-Serif" font-size="10.00">erpc_simple_server.hpp</text>
</g>
<!-- Node2 -->
<g id="node2" class="node"><title>Node2</title>
<g id="a_node2"><a xlink:href="erpc__server_8hpp.html" target="_top" xlink:title="erpc_server.hpp">
<polygon fill="white" stroke="black" points="100,-291.5 100,-310.5 185,-310.5 185,-291.5 100,-291.5"/>
<text text-anchor="middle" x="142.5" y="-298.5" font-family="Helvetica,sans-Serif" font-size="10.00">erpc_server.hpp</text>
</a>
</g>
</g>
<!-- Node1&#45;&gt;Node2 -->
<g id="edge1" class="edge"><title>Node1&#45;&gt;Node2</title>
<path fill="none" stroke="midnightblue" d="M142.5,-347.083C142.5,-340.006 142.5,-329.861 142.5,-320.986"/>
<polygon fill="midnightblue" stroke="midnightblue" points="146,-320.751 142.5,-310.751 139,-320.751 146,-320.751"/>
</g>
<!-- Node3 -->
<g id="node3" class="node"><title>Node3</title>
<g id="a_node3"><a xlink:href="erpc__client__server__common_8hpp.html" target="_top" xlink:title="erpc_client_server\l_common.hpp">
<polygon fill="white" stroke="black" points="133,-224.5 133,-254.5 228,-254.5 228,-224.5 133,-224.5"/>
<text text-anchor="start" x="141" y="-242.5" font-family="Helvetica,sans-Serif" font-size="10.00">erpc_client_server</text>
<text text-anchor="middle" x="180.5" y="-231.5" font-family="Helvetica,sans-Serif" font-size="10.00">_common.hpp</text>
</a>
</g>
</g>
<!-- Node2&#45;&gt;Node3 -->
<g id="edge2" class="edge"><title>Node2&#45;&gt;Node3</title>
<path fill="none" stroke="midnightblue" d="M147.944,-291.475C152.658,-284.094 159.694,-273.077 166.021,-263.171"/>
<polygon fill="midnightblue" stroke="midnightblue" points="169.111,-264.835 171.544,-254.523 163.212,-261.067 169.111,-264.835"/>
</g>
<!-- Node4 -->
<g id="node4" class="node"><title>Node4</title>
<g id="a_node4"><a xlink:href="erpc__config__internal_8h_source.html" target="_top" xlink:title="erpc_config_internal.h">
<polygon fill="white" stroke="black" points="49,-168.5 49,-187.5 160,-187.5 160,-168.5 49,-168.5"/>
<text text-anchor="middle" x="104.5" y="-175.5" font-family="Helvetica,sans-Serif" font-size="10.00">erpc_config_internal.h</text>
</a>
</g>
</g>
<!-- Node2&#45;&gt;Node4 -->
<g id="edge20" class="edge"><title>Node2&#45;&gt;Node4</title>
<path fill="none" stroke="midnightblue" d="M138.301,-291.191C134.145,-282.231 127.797,-267.87 123.5,-255 117.053,-235.692 111.65,-212.982 108.274,-197.449"/>
<polygon fill="midnightblue" stroke="midnightblue" points="111.676,-196.62 106.188,-187.557 104.827,-198.064 111.676,-196.62"/>
</g>
<!-- Node3&#45;&gt;Node4 -->
<g id="edge3" class="edge"><title>Node3&#45;&gt;Node4</title>
<path fill="none" stroke="midnightblue" d="M162.489,-224.399C150.762,-215.218 135.485,-203.258 123.555,-193.918"/>
<polygon fill="midnightblue" stroke="midnightblue" points="125.59,-191.066 115.559,-187.658 121.275,-196.578 125.59,-191.066"/>
</g>
<!-- Node7 -->
<g id="node7" class="node"><title>Node7</title>
<g id="a_node7"><a xlink:href="erpc__codec_8hpp.html" target="_top" xlink:title="erpc_codec.hpp">
<polygon fill="white" stroke="black" points="277.5,-168.5 277.5,-187.5 363.5,-187.5 363.5,-168.5 277.5,-168.5"/>
<text text-anchor="middle" x="320.5" y="-175.5" font-family="Helvetica,sans-Serif" font-size="10.00">erpc_codec.hpp</text>
</a>
</g>
</g>
<!-- Node3&#45;&gt;Node7 -->
<g id="edge6" class="edge"><title>Node3&#45;&gt;Node7</title>
<path fill="none" stroke="midnightblue" d="M213.678,-224.399C237.063,-214.461 268.112,-201.265 290.706,-191.662"/>
<polygon fill="midnightblue" stroke="midnightblue" points="292.294,-194.79 300.129,-187.658 289.556,-188.348 292.294,-194.79"/>
</g>
<!-- Node5 -->
<g id="node5" class="node"><title>Node5</title>
<g id="a_node5"><a xlink:href="erpc__config_8h.html" target="_top" xlink:title="erpc_config.h">
<polygon fill="white" stroke="black" points="67.5,-112.5 67.5,-131.5 141.5,-131.5 141.5,-112.5 67.5,-112.5"/>
<text text-anchor="middle" x="104.5" y="-119.5" font-family="Helvetica,sans-Serif" font-size="10.00">erpc_config.h</text>
</a>
</g>
</g>
<!-- Node4&#45;&gt;Node5 -->
<g id="edge4" class="edge"><title>Node4&#45;&gt;Node5</title>
<path fill="none" stroke="midnightblue" d="M104.5,-168.083C104.5,-161.006 104.5,-150.861 104.5,-141.986"/>
<polygon fill="midnightblue" stroke="midnightblue" points="108,-141.751 104.5,-131.751 101,-141.751 108,-141.751"/>
</g>
<!-- Node6 -->
<g id="node6" class="node"><title>Node6</title>
<polygon fill="white" stroke="#bfbfbf" points="0,-112.5 0,-131.5 49,-131.5 49,-112.5 0,-112.5"/>
<text text-anchor="middle" x="24.5" y="-119.5" font-family="Helvetica,sans-Serif" font-size="10.00">cassert</text>
</g>
<!-- Node4&#45;&gt;Node6 -->
<g id="edge5" class="edge"><title>Node4&#45;&gt;Node6</title>
<path fill="none" stroke="midnightblue" d="M91.6466,-168.324C79.2836,-159.979 60.3699,-147.212 45.7628,-137.352"/>
<polygon fill="midnightblue" stroke="midnightblue" points="47.5682,-134.348 37.3215,-131.655 43.6518,-140.15 47.5682,-134.348"/>
</g>
<!-- Node8 -->
<g id="node8" class="node"><title>Node8</title>
<g id="a_node8"><a xlink:href="erpc__common_8h_source.html" target="_top" xlink:title="erpc_common.h">
<polygon fill="white" stroke="black" points="310.5,-0.5 310.5,-19.5 396.5,-19.5 396.5,-0.5 310.5,-0.5"/>
<text text-anchor="middle" x="353.5" y="-7.5" font-family="Helvetica,sans-Serif" font-size="10.00">erpc_common.h</text>
</a>
</g>
</g>
<!-- Node7&#45;&gt;Node8 -->
<g id="edge7" class="edge"><title>Node7&#45;&gt;Node8</title>
<path fill="none" stroke="midnightblue" d="M322.274,-168.075C327.469,-141.945 342.723,-65.2106 349.807,-29.577"/>
<polygon fill="midnightblue" stroke="midnightblue" points="353.28,-30.0586 351.797,-19.5681 346.414,-28.6937 353.28,-30.0586"/>
</g>
<!-- Node9 -->
<g id="node9" class="node"><title>Node9</title>
<g id="a_node9"><a xlink:href="erpc__message__buffer_8hpp.html" target="_top" xlink:title="erpc_message_buffer.hpp">
<polygon fill="white" stroke="black" points="197.5,-56.5 197.5,-75.5 325.5,-75.5 325.5,-56.5 197.5,-56.5"/>
<text text-anchor="middle" x="261.5" y="-63.5" font-family="Helvetica,sans-Serif" font-size="10.00">erpc_message_buffer.hpp</text>
</a>
</g>
</g>
<!-- Node7&#45;&gt;Node9 -->
<g id="edge8" class="edge"><title>Node7&#45;&gt;Node9</title>
<path fill="none" stroke="midnightblue" d="M315.87,-168.368C306.22,-150.376 283.786,-108.55 270.954,-84.6267"/>
<polygon fill="midnightblue" stroke="midnightblue" points="273.919,-82.7495 266.108,-75.5914 267.75,-86.0582 273.919,-82.7495"/>
</g>
<!-- Node11 -->
<g id="node11" class="node"><title>Node11</title>
<polygon fill="white" stroke="#bfbfbf" points="158,-0.5 158,-19.5 207,-19.5 207,-0.5 158,-0.5"/>
<text text-anchor="middle" x="182.5" y="-7.5" font-family="Helvetica,sans-Serif" font-size="10.00">stdint.h</text>
</g>
<!-- Node7&#45;&gt;Node11 -->
<g id="edge19" class="edge"><title>Node7&#45;&gt;Node11</title>
<path fill="none" stroke="midnightblue" d="M300.652,-168.32C270.519,-153.97 214.041,-122.218 188.5,-76 180.706,-61.8966 179.719,-43.4079 180.382,-29.756"/>
<polygon fill="midnightblue" stroke="midnightblue" points="183.883,-29.8814 181.213,-19.6285 176.907,-29.3085 183.883,-29.8814"/>
</g>
<!-- Node12 -->
<g id="node12" class="node"><title>Node12</title>
<g id="a_node12"><a xlink:href="erpc__transport_8hpp.html" target="_top" xlink:title="erpc_transport.hpp">
<polygon fill="white" stroke="black" points="381.5,-112.5 381.5,-131.5 479.5,-131.5 479.5,-112.5 381.5,-112.5"/>
<text text-anchor="middle" x="430.5" y="-119.5" font-family="Helvetica,sans-Serif" font-size="10.00">erpc_transport.hpp</text>
</a>
</g>
</g>
<!-- Node7&#45;&gt;Node12 -->
<g id="edge12" class="edge"><title>Node7&#45;&gt;Node12</title>
<path fill="none" stroke="midnightblue" d="M338.173,-168.324C355.894,-159.625 383.403,-146.12 403.788,-136.113"/>
<polygon fill="midnightblue" stroke="midnightblue" points="405.436,-139.203 412.87,-131.655 402.351,-132.919 405.436,-139.203"/>
</g>
<!-- Node15 -->
<g id="node15" class="node"><title>Node15</title>
<polygon fill="white" stroke="#bfbfbf" points="521.5,-56.5 521.5,-75.5 567.5,-75.5 567.5,-56.5 521.5,-56.5"/>
<text text-anchor="middle" x="544.5" y="-63.5" font-family="Helvetica,sans-Serif" font-size="10.00">cstring</text>
</g>
<!-- Node7&#45;&gt;Node15 -->
<g id="edge18" class="edge"><title>Node7&#45;&gt;Node15</title>
<path fill="none" stroke="midnightblue" d="M363.686,-172.579C399.397,-167.319 450.27,-156.004 488.5,-132 507.747,-119.915 523.944,-99.1457 533.89,-84.337"/>
<polygon fill="midnightblue" stroke="midnightblue" points="537.031,-85.9226 539.492,-75.6175 531.142,-82.1388 537.031,-85.9226"/>
</g>
<!-- Node9&#45;&gt;Node8 -->
<g id="edge9" class="edge"><title>Node9&#45;&gt;Node8</title>
<path fill="none" stroke="midnightblue" d="M276.281,-56.324C290.767,-47.8215 313.073,-34.7288 329.993,-24.7975"/>
<polygon fill="midnightblue" stroke="midnightblue" points="331.903,-27.735 338.755,-19.6545 328.359,-21.6981 331.903,-27.735"/>
</g>
<!-- Node10 -->
<g id="node10" class="node"><title>Node10</title>
<polygon fill="white" stroke="#bfbfbf" points="237.5,-0.5 237.5,-19.5 285.5,-19.5 285.5,-0.5 237.5,-0.5"/>
<text text-anchor="middle" x="261.5" y="-7.5" font-family="Helvetica,sans-Serif" font-size="10.00">cstddef</text>
</g>
<!-- Node9&#45;&gt;Node10 -->
<g id="edge10" class="edge"><title>Node9&#45;&gt;Node10</title>
<path fill="none" stroke="midnightblue" d="M261.5,-56.083C261.5,-49.0059 261.5,-38.8611 261.5,-29.9865"/>
<polygon fill="midnightblue" stroke="midnightblue" points="265,-29.751 261.5,-19.7511 258,-29.7511 265,-29.751"/>
</g>
<!-- Node9&#45;&gt;Node11 -->
<g id="edge11" class="edge"><title>Node9&#45;&gt;Node11</title>
<path fill="none" stroke="midnightblue" d="M248.807,-56.324C236.599,-47.979 217.922,-35.2122 203.497,-25.3524"/>
<polygon fill="midnightblue" stroke="midnightblue" points="205.392,-22.4082 195.161,-19.6545 201.442,-28.1871 205.392,-22.4082"/>
</g>
<!-- Node12&#45;&gt;Node8 -->
<g id="edge13" class="edge"><title>Node12&#45;&gt;Node8</title>
<path fill="none" stroke="midnightblue" d="M424.458,-112.368C411.751,-94.2153 382.061,-51.8015 365.393,-27.9902"/>
<polygon fill="midnightblue" stroke="midnightblue" points="368.116,-25.7766 359.514,-19.5914 362.381,-29.7909 368.116,-25.7766"/>
</g>
<!-- Node12&#45;&gt;Node9 -->
<g id="edge16" class="edge"><title>Node12&#45;&gt;Node9</title>
<path fill="none" stroke="midnightblue" d="M403.721,-112.444C375.167,-103.32 329.767,-88.8133 297.963,-78.6509"/>
<polygon fill="midnightblue" stroke="midnightblue" points="298.744,-75.2262 288.153,-75.5164 296.614,-81.8941 298.744,-75.2262"/>
</g>
<!-- Node13 -->
<g id="node13" class="node"><title>Node13</title>
<g id="a_node13"><a xlink:href="erpc__crc16_8hpp.html" target="_top" xlink:title="erpc_crc16.hpp">
<polygon fill="white" stroke="black" points="420,-56.5 420,-75.5 503,-75.5 503,-56.5 420,-56.5"/>
<text text-anchor="middle" x="461.5" y="-63.5" font-family="Helvetica,sans-Serif" font-size="10.00">erpc_crc16.hpp</text>
</a>
</g>
</g>
<!-- Node12&#45;&gt;Node13 -->
<g id="edge14" class="edge"><title>Node12&#45;&gt;Node13</title>
<path fill="none" stroke="midnightblue" d="M435.619,-112.083C439.908,-104.613 446.158,-93.7244 451.442,-84.5199"/>
<polygon fill="midnightblue" stroke="midnightblue" points="454.533,-86.1662 456.476,-75.7511 448.462,-82.6811 454.533,-86.1662"/>
</g>
<!-- Node12&#45;&gt;Node15 -->
<g id="edge17" class="edge"><title>Node12&#45;&gt;Node15</title>
<path fill="none" stroke="midnightblue" d="M448.564,-112.444C467.075,-103.675 496.081,-89.9355 517.355,-79.8579"/>
<polygon fill="midnightblue" stroke="midnightblue" points="518.982,-82.9604 526.521,-75.5164 515.985,-76.6343 518.982,-82.9604"/>
</g>
<!-- Node14 -->
<g id="node14" class="node"><title>Node14</title>
<polygon fill="white" stroke="#bfbfbf" points="438.5,-0.5 438.5,-19.5 484.5,-19.5 484.5,-0.5 438.5,-0.5"/>
<text text-anchor="middle" x="461.5" y="-7.5" font-family="Helvetica,sans-Serif" font-size="10.00">cstdint</text>
</g>
<!-- Node13&#45;&gt;Node14 -->
<g id="edge15" class="edge"><title>Node13&#45;&gt;Node14</title>
<path fill="none" stroke="midnightblue" d="M461.5,-56.083C461.5,-49.0059 461.5,-38.8611 461.5,-29.9865"/>
<polygon fill="midnightblue" stroke="midnightblue" points="465,-29.751 461.5,-19.7511 458,-29.7511 465,-29.751"/>
</g>
</g>
</svg>
