<?xml version="1.0" encoding="UTF-8" standalone="no"?>
<!DOCTYPE svg PUBLIC "-//W3C//DTD SVG 1.1//EN"
 "http://www.w3.org/Graphics/SVG/1.1/DTD/svg11.dtd">
<!-- Generated by graphviz version 2.38.0 (20140413.2041)
 -->
<!-- Title: erpc_threading.h Pages: 1 -->
<svg width="1886pt" height="162pt"
 viewBox="0.00 0.00 1886.00 162.00" xmlns="http://www.w3.org/2000/svg" xmlns:xlink="http://www.w3.org/1999/xlink">
<g id="graph0" class="graph" transform="scale(1 1) rotate(0) translate(4 158)">
<title>erpc_threading.h</title>
<polygon fill="white" stroke="none" points="-4,4 -4,-158 1882,-158 1882,4 -4,4"/>
<!-- Node1 -->
<g id="node1" class="node"><title>Node1</title>
<polygon fill="#bfbfbf" stroke="black" points="981.5,-134.5 981.5,-153.5 1070.5,-153.5 1070.5,-134.5 981.5,-134.5"/>
<text text-anchor="middle" x="1026" y="-141.5" font-family="Helvetica,sans-Serif" font-size="10.00">erpc_threading.h</text>
</g>
<!-- Node2 -->
<g id="node2" class="node"><title>Node2</title>
<g id="a_node2"><a xlink:href="erpc__transport__arbitrator_8hpp.html" target="_top" xlink:title="erpc_transport_arbitrator.hpp">
<polygon fill="white" stroke="black" points="601.5,-73 601.5,-92 742.5,-92 742.5,-73 601.5,-73"/>
<text text-anchor="middle" x="672" y="-80" font-family="Helvetica,sans-Serif" font-size="10.00">erpc_transport_arbitrator.hpp</text>
</a>
</g>
</g>
<!-- Node1&#45;&gt;Node2 -->
<g id="edge1" class="edge"><title>Node1&#45;&gt;Node2</title>
<path fill="none" stroke="midnightblue" d="M971.141,-133.876C916.774,-124.821 831.127,-110.523 757,-98 745.634,-96.0799 733.416,-94.003 721.886,-92.0374"/>
<polygon fill="midnightblue" stroke="midnightblue" points="970.813,-137.369 981.252,-135.559 971.962,-130.464 970.813,-137.369"/>
</g>
<!-- Node3 -->
<g id="node3" class="node"><title>Node3</title>
<g id="a_node3"><a xlink:href="erpc__framed__transport_8hpp.html" target="_top" xlink:title="erpc_framed_transport.hpp">
<polygon fill="white" stroke="black" points="913,-73 913,-92 1045,-92 1045,-73 913,-73"/>
<text text-anchor="middle" x="979" y="-80" font-family="Helvetica,sans-Serif" font-size="10.00">erpc_framed_transport.hpp</text>
</a>
</g>
</g>
<!-- Node1&#45;&gt;Node3 -->
<g id="edge2" class="edge"><title>Node1&#45;&gt;Node3</title>
<path fill="none" stroke="midnightblue" d="M1012.84,-126.338C1004.02,-115.169 992.767,-100.928 985.721,-92.0091"/>
<polygon fill="midnightblue" stroke="midnightblue" points="1010.32,-128.797 1019.27,-134.475 1015.81,-124.458 1010.32,-128.797"/>
</g>
<!-- Node5 -->
<g id="node5" class="node"><title>Node5</title>
<g id="a_node5"><a xlink:href="erpc__dspi__slave__transport_8hpp.html" target="_top" xlink:title="erpc_dspi_slave_transport.hpp">
<polygon fill="white" stroke="black" points="0,-6 0,-25 148,-25 148,-6 0,-6"/>
<text text-anchor="middle" x="74" y="-13" font-family="Helvetica,sans-Serif" font-size="10.00">erpc_dspi_slave_transport.hpp</text>
</a>
</g>
</g>
<!-- Node1&#45;&gt;Node5 -->
<g id="edge15" class="edge"><title>Node1&#45;&gt;Node5</title>
<path fill="none" stroke="midnightblue" d="M971.392,-141.296C920.703,-137.799 844.352,-127.549 785,-98 766.694,-88.8861 769.836,-74.9615 751,-67 629.192,-15.5141 288.342,-46.4033 157,-31 144.07,-29.4836 130.098,-27.269 117.372,-25.025"/>
<polygon fill="midnightblue" stroke="midnightblue" points="971.29,-144.796 981.489,-141.927 971.727,-137.81 971.29,-144.796"/>
</g>
<!-- Node6 -->
<g id="node6" class="node"><title>Node6</title>
<g id="a_node6"><a xlink:href="erpc__i2c__slave__transport_8hpp.html" target="_top" xlink:title="erpc_i2c_slave_transport.hpp">
<polygon fill="white" stroke="black" points="166.5,-6 166.5,-25 309.5,-25 309.5,-6 166.5,-6"/>
<text text-anchor="middle" x="238" y="-13" font-family="Helvetica,sans-Serif" font-size="10.00">erpc_i2c_slave_transport.hpp</text>
</a>
</g>
</g>
<!-- Node1&#45;&gt;Node6 -->
<g id="edge16" class="edge"><title>Node1&#45;&gt;Node6</title>
<path fill="none" stroke="midnightblue" d="M971.205,-137.834C929.007,-132.237 870.118,-120.831 823,-98 803.386,-88.4956 805.235,-75.0987 785,-67 688.572,-28.4074 422.026,-44.1675 319,-31 306.671,-29.4243 293.367,-27.2449 281.175,-25.0542"/>
<polygon fill="midnightblue" stroke="midnightblue" points="970.928,-141.327 981.286,-139.104 971.802,-134.382 970.928,-141.327"/>
</g>
<!-- Node7 -->
<g id="node7" class="node"><title>Node7</title>
<g id="a_node7"><a xlink:href="erpc__lpi2c__slave__transport_8hpp.html" target="_top" xlink:title="erpc_lpi2c_slave_transport.hpp">
<polygon fill="white" stroke="black" points="328,-6 328,-25 478,-25 478,-6 328,-6"/>
<text text-anchor="middle" x="403" y="-13" font-family="Helvetica,sans-Serif" font-size="10.00">erpc_lpi2c_slave_transport.hpp</text>
</a>
</g>
</g>
<!-- Node1&#45;&gt;Node7 -->
<g id="edge18" class="edge"><title>Node1&#45;&gt;Node7</title>
<path fill="none" stroke="midnightblue" d="M971.446,-134.085C938.244,-127.235 895.693,-115.854 861,-98 841.62,-88.0266 843.113,-75.3976 823,-67 684.407,-9.135 635.743,-51.7844 487,-31 474.688,-29.2797 461.412,-27.1271 449.13,-25.0113"/>
<polygon fill="midnightblue" stroke="midnightblue" points="970.94,-137.553 981.43,-136.067 972.303,-130.687 970.94,-137.553"/>
</g>
<!-- Node8 -->
<g id="node8" class="node"><title>Node8</title>
<g id="a_node8"><a xlink:href="erpc__lpspi__slave__transport_8hpp.html" target="_top" xlink:title="erpc_lpspi_slave_transport.hpp">
<polygon fill="white" stroke="black" points="496,-6 496,-25 646,-25 646,-6 496,-6"/>
<text text-anchor="middle" x="571" y="-13" font-family="Helvetica,sans-Serif" font-size="10.00">erpc_lpspi_slave_transport.hpp</text>
</a>
</g>
</g>
<!-- Node1&#45;&gt;Node8 -->
<g id="edge19" class="edge"><title>Node1&#45;&gt;Node8</title>
<path fill="none" stroke="midnightblue" d="M986.284,-131.378C961.842,-123.496 930.274,-111.981 904,-98 883.201,-86.9329 882.713,-76.1425 861,-67 859.611,-66.4151 702.621,-39.24 620.236,-25.0028"/>
<polygon fill="midnightblue" stroke="midnightblue" points="985.358,-134.756 995.948,-134.425 987.463,-128.08 985.358,-134.756"/>
</g>
<!-- Node11 -->
<g id="node11" class="node"><title>Node11</title>
<g id="a_node11"><a xlink:href="erpc__spi__slave__transport_8hpp.html" target="_top" xlink:title="erpc_spi_slave_transport.hpp">
<polygon fill="white" stroke="black" points="1272.5,-6 1272.5,-25 1415.5,-25 1415.5,-6 1272.5,-6"/>
<text text-anchor="middle" x="1344" y="-13" font-family="Helvetica,sans-Serif" font-size="10.00">erpc_spi_slave_transport.hpp</text>
</a>
</g>
</g>
<!-- Node1&#45;&gt;Node11 -->
<g id="edge21" class="edge"><title>Node1&#45;&gt;Node11</title>
<path fill="none" stroke="midnightblue" d="M1037.37,-125.566C1049.83,-107.931 1071.48,-81.2935 1097,-67 1105.8,-62.0742 1229.88,-38.0795 1298.74,-25.0163"/>
<polygon fill="midnightblue" stroke="midnightblue" points="1034.15,-124.065 1031.42,-134.301 1039.94,-128.002 1034.15,-124.065"/>
</g>
<!-- Node13 -->
<g id="node13" class="node"><title>Node13</title>
<g id="a_node13"><a xlink:href="erpc__tcp__transport_8hpp.html" target="_top" xlink:title="erpc_tcp_transport.hpp">
<polygon fill="white" stroke="black" points="1434,-6 1434,-25 1550,-25 1550,-6 1434,-6"/>
<text text-anchor="middle" x="1492" y="-13" font-family="Helvetica,sans-Serif" font-size="10.00">erpc_tcp_transport.hpp</text>
</a>
</g>
</g>
<!-- Node1&#45;&gt;Node13 -->
<g id="edge22" class="edge"><title>Node1&#45;&gt;Node13</title>
<path fill="none" stroke="midnightblue" d="M1047.89,-128.65C1061.06,-119.93 1078.11,-108.489 1093,-98 1111.97,-84.64 1113.45,-75.5985 1135,-67 1255.63,-18.8651 1296.96,-52.7578 1425,-31 1434.86,-29.3252 1445.46,-27.1884 1455.25,-25.073"/>
<polygon fill="midnightblue" stroke="midnightblue" points="1045.89,-125.78 1039.47,-134.208 1049.74,-131.623 1045.89,-125.78"/>
</g>
<!-- Node14 -->
<g id="node14" class="node"><title>Node14</title>
<g id="a_node14"><a xlink:href="erpc__uart__cmsis__transport_8hpp.html" target="_top" xlink:title="erpc_uart_cmsis_transport.hpp">
<polygon fill="white" stroke="black" points="1568.5,-6 1568.5,-25 1719.5,-25 1719.5,-6 1568.5,-6"/>
<text text-anchor="middle" x="1644" y="-13" font-family="Helvetica,sans-Serif" font-size="10.00">erpc_uart_cmsis_transport.hpp</text>
</a>
</g>
</g>
<!-- Node1&#45;&gt;Node14 -->
<g id="edge23" class="edge"><title>Node1&#45;&gt;Node14</title>
<path fill="none" stroke="midnightblue" d="M1058.35,-130.549C1078.79,-122.244 1105.49,-110.572 1128,-98 1149.2,-86.1575 1150.17,-75.2847 1173,-67 1334.97,-8.22429 1388.18,-53.5031 1559,-31 1571.62,-29.3381 1585.22,-27.1813 1597.78,-25.0414"/>
<polygon fill="midnightblue" stroke="midnightblue" points="1056.86,-127.379 1048.87,-134.345 1059.46,-133.878 1056.86,-127.379"/>
</g>
<!-- Node15 -->
<g id="node15" class="node"><title>Node15</title>
<g id="a_node15"><a xlink:href="erpc__usb__cdc__transport_8hpp.html" target="_top" xlink:title="erpc_usb_cdc_transport.hpp">
<polygon fill="white" stroke="black" points="1738,-6 1738,-25 1878,-25 1878,-6 1738,-6"/>
<text text-anchor="middle" x="1808" y="-13" font-family="Helvetica,sans-Serif" font-size="10.00">erpc_usb_cdc_transport.hpp</text>
</a>
</g>
</g>
<!-- Node1&#45;&gt;Node15 -->
<g id="edge24" class="edge"><title>Node1&#45;&gt;Node15</title>
<path fill="none" stroke="midnightblue" d="M1073.46,-131.872C1101.08,-124.372 1136.05,-113.081 1165,-98 1185.26,-87.4459 1184.6,-75.006 1206,-67 1315.11,-26.1728 1613.41,-45.5387 1729,-31 1741.18,-29.4686 1754.31,-27.2766 1766.32,-25.0592"/>
<polygon fill="midnightblue" stroke="midnightblue" points="1072.41,-128.527 1063.64,-134.463 1074.2,-135.295 1072.41,-128.527"/>
</g>
<!-- Node16 -->
<g id="node16" class="node"><title>Node16</title>
<g id="a_node16"><a xlink:href="erpc__inter__thread__buffer__transport_8hpp.html" target="_top" xlink:title="erpc_inter_thread_buffer\l_transport.hpp">
<polygon fill="white" stroke="black" points="1215,-67.5 1215,-97.5 1335,-97.5 1335,-67.5 1215,-67.5"/>
<text text-anchor="start" x="1223" y="-85.5" font-family="Helvetica,sans-Serif" font-size="10.00">erpc_inter_thread_buffer</text>
<text text-anchor="middle" x="1275" y="-74.5" font-family="Helvetica,sans-Serif" font-size="10.00">_transport.hpp</text>
</a>
</g>
</g>
<!-- Node1&#45;&gt;Node16 -->
<g id="edge17" class="edge"><title>Node1&#45;&gt;Node16</title>
<path fill="none" stroke="midnightblue" d="M1071.59,-132.107C1112.27,-122.386 1172.07,-108.095 1216.32,-97.523"/>
<polygon fill="midnightblue" stroke="midnightblue" points="1070.59,-128.747 1061.68,-134.475 1072.22,-135.555 1070.59,-128.747"/>
</g>
<!-- Node17 -->
<g id="node17" class="node"><title>Node17</title>
<g id="a_node17"><a xlink:href="erpc__mu__transport_8hpp.html" target="_top" xlink:title="erpc_mu_transport.hpp">
<polygon fill="white" stroke="black" points="1353,-73 1353,-92 1469,-92 1469,-73 1353,-73"/>
<text text-anchor="middle" x="1411" y="-80" font-family="Helvetica,sans-Serif" font-size="10.00">erpc_mu_transport.hpp</text>
</a>
</g>
</g>
<!-- Node1&#45;&gt;Node17 -->
<g id="edge20" class="edge"><title>Node1&#45;&gt;Node17</title>
<path fill="none" stroke="midnightblue" d="M1080.85,-136.466C1144.39,-128.613 1252.1,-114.424 1344,-98 1353.72,-96.2621 1364.19,-94.127 1373.88,-92.0348"/>
<polygon fill="midnightblue" stroke="midnightblue" points="1080.16,-133.024 1070.66,-137.717 1081.02,-139.972 1080.16,-133.024"/>
</g>
<!-- Node4 -->
<g id="node4" class="node"><title>Node4</title>
<g id="a_node4"><a xlink:href="erpc__dspi__master__transport_8hpp.html" target="_top" xlink:title="erpc_dspi_master_transport.hpp">
<polygon fill="white" stroke="black" points="664,-6 664,-25 820,-25 820,-6 664,-6"/>
<text text-anchor="middle" x="742" y="-13" font-family="Helvetica,sans-Serif" font-size="10.00">erpc_dspi_master_transport.hpp</text>
</a>
</g>
</g>
<!-- Node3&#45;&gt;Node4 -->
<g id="edge3" class="edge"><title>Node3&#45;&gt;Node4</title>
<path fill="none" stroke="midnightblue" d="M937.697,-70.1721C890.831,-57.3186 815.443,-36.6427 773.224,-25.0637"/>
<polygon fill="midnightblue" stroke="midnightblue" points="936.959,-73.5988 947.528,-72.8685 938.81,-66.8481 936.959,-73.5988"/>
</g>
<!-- Node3&#45;&gt;Node5 -->
<g id="edge4" class="edge"><title>Node3&#45;&gt;Node5</title>
<path fill="none" stroke="midnightblue" d="M902.246,-75.4554C866.601,-72.7272 823.648,-69.5519 785,-67 506.038,-48.5805 434.719,-63.1096 157,-31 144.067,-29.5047 130.095,-27.2966 117.369,-25.052"/>
<polygon fill="midnightblue" stroke="midnightblue" points="902.339,-78.9727 912.577,-76.2492 902.875,-71.9933 902.339,-78.9727"/>
</g>
<!-- Node3&#45;&gt;Node6 -->
<g id="edge5" class="edge"><title>Node3&#45;&gt;Node6</title>
<path fill="none" stroke="midnightblue" d="M902.699,-74.0793C877.35,-71.7017 848.97,-69.1342 823,-67 599.184,-48.607 541.84,-58.8249 319,-31 306.525,-29.4423 293.055,-27.2422 280.749,-25.0253"/>
<polygon fill="midnightblue" stroke="midnightblue" points="902.705,-77.5953 912.989,-75.0496 903.362,-70.6262 902.705,-77.5953"/>
</g>
<!-- Node3&#45;&gt;Node7 -->
<g id="edge6" class="edge"><title>Node3&#45;&gt;Node7</title>
<path fill="none" stroke="midnightblue" d="M902.853,-71.8447C888.937,-70.165 874.538,-68.4831 861,-67 695.003,-48.815 652.506,-53.2184 487,-31 474.533,-29.3263 461.084,-27.1655 448.68,-25.0256"/>
<polygon fill="midnightblue" stroke="midnightblue" points="902.532,-75.3313 912.882,-73.0644 903.378,-68.3826 902.532,-75.3313"/>
</g>
<!-- Node3&#45;&gt;Node8 -->
<g id="edge7" class="edge"><title>Node3&#45;&gt;Node8</title>
<path fill="none" stroke="midnightblue" d="M923.47,-71.1922C915.272,-69.7411 906.922,-68.3019 899,-67 790.833,-49.2227 763.241,-48.3245 655,-31 643.456,-29.1523 631.037,-27.0641 619.383,-25.0599"/>
<polygon fill="midnightblue" stroke="midnightblue" points="922.895,-74.6448 933.355,-72.9598 924.127,-67.7541 922.895,-74.6448"/>
</g>
<!-- Node9 -->
<g id="node9" class="node"><title>Node9</title>
<g id="a_node9"><a xlink:href="erpc__serial__transport_8hpp.html" target="_top" xlink:title="erpc_serial_transport.hpp">
<polygon fill="white" stroke="black" points="838,-6 838,-25 964,-25 964,-6 838,-6"/>
<text text-anchor="middle" x="901" y="-13" font-family="Helvetica,sans-Serif" font-size="10.00">erpc_serial_transport.hpp</text>
</a>
</g>
</g>
<!-- Node3&#45;&gt;Node9 -->
<g id="edge8" class="edge"><title>Node3&#45;&gt;Node9</title>
<path fill="none" stroke="midnightblue" d="M960.656,-66.2134C945.288,-53.407 923.906,-35.5884 911.353,-25.1273"/>
<polygon fill="midnightblue" stroke="midnightblue" points="958.558,-69.0207 968.481,-72.7338 963.039,-63.6431 958.558,-69.0207"/>
</g>
<!-- Node10 -->
<g id="node10" class="node"><title>Node10</title>
<g id="a_node10"><a xlink:href="erpc__spi__master__transport_8hpp.html" target="_top" xlink:title="erpc_spi_master_transport.hpp">
<polygon fill="white" stroke="black" points="982.5,-6 982.5,-25 1133.5,-25 1133.5,-6 982.5,-6"/>
<text text-anchor="middle" x="1058" y="-13" font-family="Helvetica,sans-Serif" font-size="10.00">erpc_spi_master_transport.hpp</text>
</a>
</g>
</g>
<!-- Node3&#45;&gt;Node10 -->
<g id="edge9" class="edge"><title>Node3&#45;&gt;Node10</title>
<path fill="none" stroke="midnightblue" d="M997.579,-66.2134C1013.14,-53.407 1034.8,-35.5884 1047.51,-25.1273"/>
<polygon fill="midnightblue" stroke="midnightblue" points="995.153,-63.6774 989.654,-72.7338 999.6,-69.0829 995.153,-63.6774"/>
</g>
<!-- Node3&#45;&gt;Node11 -->
<g id="edge10" class="edge"><title>Node3&#45;&gt;Node11</title>
<path fill="none" stroke="midnightblue" d="M1036.01,-71.1281C1043.73,-69.7339 1051.56,-68.3274 1059,-67 1150.07,-50.751 1172.93,-47.249 1264,-31 1274.7,-29.0909 1286.2,-27.0184 1297.05,-25.0536"/>
<polygon fill="midnightblue" stroke="midnightblue" points="1035.17,-67.7234 1025.95,-72.9464 1036.41,-74.6117 1035.17,-67.7234"/>
</g>
<!-- Node12 -->
<g id="node12" class="node"><title>Node12</title>
<g id="a_node12"><a xlink:href="erpc__spidev__master__transport_8hpp.html" target="_top" xlink:title="erpc_spidev_master\l_transport.hpp">
<polygon fill="white" stroke="black" points="1151.5,-0.5 1151.5,-30.5 1254.5,-30.5 1254.5,-0.5 1151.5,-0.5"/>
<text text-anchor="start" x="1159.5" y="-18.5" font-family="Helvetica,sans-Serif" font-size="10.00">erpc_spidev_master</text>
<text text-anchor="middle" x="1203" y="-7.5" font-family="Helvetica,sans-Serif" font-size="10.00">_transport.hpp</text>
</a>
</g>
</g>
<!-- Node3&#45;&gt;Node12 -->
<g id="edge11" class="edge"><title>Node3&#45;&gt;Node12</title>
<path fill="none" stroke="midnightblue" d="M1018.43,-70.0575C1056.41,-59.0371 1113.94,-42.3441 1154.66,-30.5281"/>
<polygon fill="midnightblue" stroke="midnightblue" points="1017.37,-66.7203 1008.75,-72.8685 1019.32,-73.4429 1017.37,-66.7203"/>
</g>
<!-- Node3&#45;&gt;Node13 -->
<g id="edge12" class="edge"><title>Node3&#45;&gt;Node13</title>
<path fill="none" stroke="midnightblue" d="M1055.16,-71.9941C1069.08,-70.2992 1083.47,-68.5735 1097,-67 1242.67,-50.0564 1280.25,-54.5418 1425,-31 1435.1,-29.357 1445.98,-27.1815 1455.97,-25.0167"/>
<polygon fill="midnightblue" stroke="midnightblue" points="1054.64,-68.5323 1045.14,-73.2201 1055.49,-75.4805 1054.64,-68.5323"/>
</g>
<!-- Node3&#45;&gt;Node14 -->
<g id="edge13" class="edge"><title>Node3&#45;&gt;Node14</title>
<path fill="none" stroke="midnightblue" d="M1055.32,-74.2836C1080.67,-71.9193 1109.04,-69.3081 1135,-67 1323.38,-50.2482 1371.4,-54.9226 1559,-31 1571.77,-29.3715 1585.55,-27.2008 1598.23,-25.0359"/>
<polygon fill="midnightblue" stroke="midnightblue" points="1054.66,-70.83 1045.03,-75.2453 1055.31,-77.7996 1054.66,-70.83"/>
</g>
<!-- Node3&#45;&gt;Node15 -->
<g id="edge14" class="edge"><title>Node3&#45;&gt;Node15</title>
<path fill="none" stroke="midnightblue" d="M1055.76,-75.586C1091.41,-72.885 1134.36,-69.6948 1173,-67 1420.03,-49.7714 1483.25,-61.4039 1729,-31 1741.32,-29.4762 1754.62,-27.2594 1766.73,-25.0156"/>
<polygon fill="midnightblue" stroke="midnightblue" points="1055.14,-72.1233 1045.43,-76.3706 1055.67,-79.1032 1055.14,-72.1233"/>
</g>
</g>
</svg>
