<?xml version="1.0" encoding="UTF-8" standalone="no"?>
<!DOCTYPE svg PUBLIC "-//W3C//DTD SVG 1.1//EN"
 "http://www.w3.org/Graphics/SVG/1.1/DTD/svg11.dtd">
<!-- Generated by graphviz version 2.38.0 (20140413.2041)
 -->
<!-- Title: erpc_codec.hpp Pages: 1 -->
<svg width="413pt" height="196pt"
 viewBox="0.00 0.00 413.44 196.00" xmlns="http://www.w3.org/2000/svg" xmlns:xlink="http://www.w3.org/1999/xlink">
<g id="graph0" class="graph" transform="scale(1 1) rotate(0) translate(4 192)">
<title>erpc_codec.hpp</title>
<polygon fill="white" stroke="none" points="-4,4 -4,-192 409.438,-192 409.438,4 -4,4"/>
<!-- Node1 -->
<g id="node1" class="node"><title>Node1</title>
<polygon fill="#bfbfbf" stroke="black" points="223,-168.5 223,-187.5 309,-187.5 309,-168.5 223,-168.5"/>
<text text-anchor="middle" x="266" y="-175.5" font-family="Helvetica,sans-Serif" font-size="10.00">erpc_codec.hpp</text>
</g>
<!-- Node2 -->
<g id="node2" class="node"><title>Node2</title>
<g id="a_node2"><a xlink:href="erpc__common_8h_source.html" target="_top" xlink:title="erpc_common.h">
<polygon fill="white" stroke="black" points="137,-0.5 137,-19.5 223,-19.5 223,-0.5 137,-0.5"/>
<text text-anchor="middle" x="180" y="-7.5" font-family="Helvetica,sans-Serif" font-size="10.00">erpc_common.h</text>
</a>
</g>
</g>
<!-- Node1&#45;&gt;Node2 -->
<g id="edge1" class="edge"><title>Node1&#45;&gt;Node2</title>
<path fill="none" stroke="midnightblue" d="M249.436,-168.371C236.203,-160.616 218.234,-147.996 208,-132 187.543,-100.027 181.98,-54.8096 180.501,-29.6821"/>
<polygon fill="midnightblue" stroke="midnightblue" points="183.997,-29.5106 180.07,-19.6704 177.004,-29.8118 183.997,-29.5106"/>
</g>
<!-- Node3 -->
<g id="node3" class="node"><title>Node3</title>
<g id="a_node3"><a xlink:href="erpc__message__buffer_8hpp.html" target="_top" xlink:title="erpc_message_buffer.hpp">
<polygon fill="white" stroke="black" points="24,-56.5 24,-75.5 152,-75.5 152,-56.5 24,-56.5"/>
<text text-anchor="middle" x="88" y="-63.5" font-family="Helvetica,sans-Serif" font-size="10.00">erpc_message_buffer.hpp</text>
</a>
</g>
</g>
<!-- Node1&#45;&gt;Node3 -->
<g id="edge2" class="edge"><title>Node1&#45;&gt;Node3</title>
<path fill="none" stroke="midnightblue" d="M242.046,-168.35C221.189,-160.329 190.536,-147.342 166,-132 143.048,-117.649 119.566,-97.1264 104.448,-83.0002"/>
<polygon fill="midnightblue" stroke="midnightblue" points="106.626,-80.2417 96.9657,-75.8901 101.804,-85.3159 106.626,-80.2417"/>
</g>
<!-- Node6 -->
<g id="node6" class="node"><title>Node6</title>
<g id="a_node6"><a xlink:href="erpc__transport_8hpp.html" target="_top" xlink:title="erpc_transport.hpp">
<polygon fill="white" stroke="black" points="217,-112.5 217,-131.5 315,-131.5 315,-112.5 217,-112.5"/>
<text text-anchor="middle" x="266" y="-119.5" font-family="Helvetica,sans-Serif" font-size="10.00">erpc_transport.hpp</text>
</a>
</g>
</g>
<!-- Node1&#45;&gt;Node6 -->
<g id="edge6" class="edge"><title>Node1&#45;&gt;Node6</title>
<path fill="none" stroke="midnightblue" d="M266,-168.083C266,-161.006 266,-150.861 266,-141.986"/>
<polygon fill="midnightblue" stroke="midnightblue" points="269.5,-141.751 266,-131.751 262.5,-141.751 269.5,-141.751"/>
</g>
<!-- Node8 -->
<g id="node8" class="node"><title>Node8</title>
<polygon fill="white" stroke="#bfbfbf" points="332,-0.5 332,-19.5 378,-19.5 378,-0.5 332,-0.5"/>
<text text-anchor="middle" x="355" y="-7.5" font-family="Helvetica,sans-Serif" font-size="10.00">cstdint</text>
</g>
<!-- Node1&#45;&gt;Node8 -->
<g id="edge12" class="edge"><title>Node1&#45;&gt;Node8</title>
<path fill="none" stroke="midnightblue" d="M289.894,-168.437C323.384,-154.889 382.485,-124.914 403,-76 411.085,-56.7217 393.492,-37.8617 377.376,-25.4658"/>
<polygon fill="midnightblue" stroke="midnightblue" points="379.389,-22.6023 369.227,-19.6048 375.302,-28.2852 379.389,-22.6023"/>
</g>
<!-- Node9 -->
<g id="node9" class="node"><title>Node9</title>
<polygon fill="white" stroke="#bfbfbf" points="348,-56.5 348,-75.5 394,-75.5 394,-56.5 348,-56.5"/>
<text text-anchor="middle" x="371" y="-63.5" font-family="Helvetica,sans-Serif" font-size="10.00">cstring</text>
</g>
<!-- Node1&#45;&gt;Node9 -->
<g id="edge13" class="edge"><title>Node1&#45;&gt;Node9</title>
<path fill="none" stroke="midnightblue" d="M279.31,-168.308C291.666,-159.878 310.181,-146.294 324,-132 338.313,-117.195 351.773,-97.8055 360.589,-84.0679"/>
<polygon fill="midnightblue" stroke="midnightblue" points="363.56,-85.9182 365.905,-75.586 357.629,-82.2011 363.56,-85.9182"/>
</g>
<!-- Node3&#45;&gt;Node2 -->
<g id="edge3" class="edge"><title>Node3&#45;&gt;Node2</title>
<path fill="none" stroke="midnightblue" d="M102.781,-56.324C117.267,-47.8215 139.573,-34.7288 156.493,-24.7975"/>
<polygon fill="midnightblue" stroke="midnightblue" points="158.403,-27.735 165.255,-19.6545 154.859,-21.6981 158.403,-27.735"/>
</g>
<!-- Node4 -->
<g id="node4" class="node"><title>Node4</title>
<polygon fill="white" stroke="#bfbfbf" points="0,-0.5 0,-19.5 48,-19.5 48,-0.5 0,-0.5"/>
<text text-anchor="middle" x="24" y="-7.5" font-family="Helvetica,sans-Serif" font-size="10.00">cstddef</text>
</g>
<!-- Node3&#45;&gt;Node4 -->
<g id="edge4" class="edge"><title>Node3&#45;&gt;Node4</title>
<path fill="none" stroke="midnightblue" d="M77.7173,-56.324C68.1637,-48.2631 53.7203,-36.0765 42.2157,-26.3695"/>
<polygon fill="midnightblue" stroke="midnightblue" points="44.3698,-23.6076 34.4698,-19.8339 39.8557,-28.9577 44.3698,-23.6076"/>
</g>
<!-- Node5 -->
<g id="node5" class="node"><title>Node5</title>
<polygon fill="white" stroke="#bfbfbf" points="66.5,-0.5 66.5,-19.5 115.5,-19.5 115.5,-0.5 66.5,-0.5"/>
<text text-anchor="middle" x="91" y="-7.5" font-family="Helvetica,sans-Serif" font-size="10.00">stdint.h</text>
</g>
<!-- Node3&#45;&gt;Node5 -->
<g id="edge5" class="edge"><title>Node3&#45;&gt;Node5</title>
<path fill="none" stroke="midnightblue" d="M88.4954,-56.083C88.8886,-49.0059 89.4522,-38.8611 89.9452,-29.9865"/>
<polygon fill="midnightblue" stroke="midnightblue" points="93.4536,-29.9299 90.5138,-19.7511 86.4644,-29.5415 93.4536,-29.9299"/>
</g>
<!-- Node6&#45;&gt;Node2 -->
<g id="edge7" class="edge"><title>Node6&#45;&gt;Node2</title>
<path fill="none" stroke="midnightblue" d="M259.252,-112.368C244.996,-94.135 211.606,-51.4257 193.037,-27.6752"/>
<polygon fill="midnightblue" stroke="midnightblue" points="195.634,-25.3138 186.717,-19.5914 190.119,-29.6253 195.634,-25.3138"/>
</g>
<!-- Node6&#45;&gt;Node3 -->
<g id="edge10" class="edge"><title>Node6&#45;&gt;Node3</title>
<path fill="none" stroke="midnightblue" d="M237.795,-112.444C207.59,-103.28 159.489,-88.6876 125.971,-78.5192"/>
<polygon fill="midnightblue" stroke="midnightblue" points="126.658,-75.0703 116.073,-75.5164 124.626,-81.7688 126.658,-75.0703"/>
</g>
<!-- Node7 -->
<g id="node7" class="node"><title>Node7</title>
<g id="a_node7"><a xlink:href="erpc__crc16_8hpp.html" target="_top" xlink:title="erpc_crc16.hpp">
<polygon fill="white" stroke="black" points="246.5,-56.5 246.5,-75.5 329.5,-75.5 329.5,-56.5 246.5,-56.5"/>
<text text-anchor="middle" x="288" y="-63.5" font-family="Helvetica,sans-Serif" font-size="10.00">erpc_crc16.hpp</text>
</a>
</g>
</g>
<!-- Node6&#45;&gt;Node7 -->
<g id="edge8" class="edge"><title>Node6&#45;&gt;Node7</title>
<path fill="none" stroke="midnightblue" d="M269.633,-112.083C272.612,-104.77 276.926,-94.1814 280.625,-85.1034"/>
<polygon fill="midnightblue" stroke="midnightblue" points="283.903,-86.3326 284.435,-75.7511 277.42,-83.6914 283.903,-86.3326"/>
</g>
<!-- Node6&#45;&gt;Node9 -->
<g id="edge11" class="edge"><title>Node6&#45;&gt;Node9</title>
<path fill="none" stroke="midnightblue" d="M282.87,-112.324C299.709,-103.664 325.807,-90.2424 345.238,-80.249"/>
<polygon fill="midnightblue" stroke="midnightblue" points="346.88,-83.3405 354.172,-75.6545 343.678,-77.1155 346.88,-83.3405"/>
</g>
<!-- Node7&#45;&gt;Node8 -->
<g id="edge9" class="edge"><title>Node7&#45;&gt;Node8</title>
<path fill="none" stroke="midnightblue" d="M298.765,-56.324C308.766,-48.2631 323.887,-36.0765 335.93,-26.3695"/>
<polygon fill="midnightblue" stroke="midnightblue" points="338.45,-28.8343 344.039,-19.8339 334.057,-23.3841 338.45,-28.8343"/>
</g>
</g>
</svg>
