<?xml version="1.0" encoding="UTF-8" standalone="no"?>
<!DOCTYPE svg PUBLIC "-//W3C//DTD SVG 1.1//EN"
 "http://www.w3.org/Graphics/SVG/1.1/DTD/svg11.dtd">
<!-- Generated by graphviz version 2.38.0 (20140413.2041)
 -->
<!-- Title: erpc_config.h Pages: 1 -->
<svg width="2841pt" height="285pt"
 viewBox="0.00 0.00 2841.00 285.00" xmlns="http://www.w3.org/2000/svg" xmlns:xlink="http://www.w3.org/1999/xlink">
<g id="graph0" class="graph" transform="scale(1 1) rotate(0) translate(4 281)">
<title>erpc_config.h</title>
<polygon fill="white" stroke="none" points="-4,4 -4,-281 2837,-281 2837,4 -4,4"/>
<!-- Node1 -->
<g id="node1" class="node"><title>Node1</title>
<polygon fill="#bfbfbf" stroke="black" points="1777,-257.5 1777,-276.5 1851,-276.5 1851,-257.5 1777,-257.5"/>
<text text-anchor="middle" x="1814" y="-264.5" font-family="Helvetica,sans-Serif" font-size="10.00">erpc_config.h</text>
</g>
<!-- Node2 -->
<g id="node2" class="node"><title>Node2</title>
<g id="a_node2"><a xlink:href="erpc__config__internal_8h_source.html" target="_top" xlink:title="erpc_config_internal.h">
<polygon fill="white" stroke="black" points="1758.5,-201.5 1758.5,-220.5 1869.5,-220.5 1869.5,-201.5 1758.5,-201.5"/>
<text text-anchor="middle" x="1814" y="-208.5" font-family="Helvetica,sans-Serif" font-size="10.00">erpc_config_internal.h</text>
</a>
</g>
</g>
<!-- Node1&#45;&gt;Node2 -->
<g id="edge1" class="edge"><title>Node1&#45;&gt;Node2</title>
<path fill="none" stroke="midnightblue" d="M1814,-246.805C1814,-237.91 1814,-227.78 1814,-220.751"/>
<polygon fill="midnightblue" stroke="midnightblue" points="1810.5,-247.083 1814,-257.083 1817.5,-247.083 1810.5,-247.083"/>
</g>
<!-- Node3 -->
<g id="node3" class="node"><title>Node3</title>
<g id="a_node3"><a xlink:href="erpc__client__server__common_8hpp.html" target="_top" xlink:title="erpc_client_server\l_common.hpp">
<polygon fill="white" stroke="black" points="1861.5,-134.5 1861.5,-164.5 1956.5,-164.5 1956.5,-134.5 1861.5,-134.5"/>
<text text-anchor="start" x="1869.5" y="-152.5" font-family="Helvetica,sans-Serif" font-size="10.00">erpc_client_server</text>
<text text-anchor="middle" x="1909" y="-141.5" font-family="Helvetica,sans-Serif" font-size="10.00">_common.hpp</text>
</a>
</g>
</g>
<!-- Node2&#45;&gt;Node3 -->
<g id="edge2" class="edge"><title>Node2&#45;&gt;Node3</title>
<path fill="none" stroke="midnightblue" d="M1836.34,-196.008C1851.49,-186.518 1871.45,-174.02 1886.61,-164.523"/>
<polygon fill="midnightblue" stroke="midnightblue" points="1834.23,-193.201 1827.61,-201.475 1837.94,-199.133 1834.23,-193.201"/>
</g>
<!-- Node7 -->
<g id="node7" class="node"><title>Node7</title>
<g id="a_node7"><a xlink:href="erpc__arbitrated__client__setup_8h.html" target="_top" xlink:title="erpc_arbitrated_client\l_setup.h">
<polygon fill="white" stroke="black" points="2056,-0.5 2056,-30.5 2166,-30.5 2166,-0.5 2056,-0.5"/>
<text text-anchor="start" x="2064" y="-18.5" font-family="Helvetica,sans-Serif" font-size="10.00">erpc_arbitrated_client</text>
<text text-anchor="middle" x="2111" y="-7.5" font-family="Helvetica,sans-Serif" font-size="10.00">_setup.h</text>
</a>
</g>
</g>
<!-- Node2&#45;&gt;Node7 -->
<g id="edge40" class="edge"><title>Node2&#45;&gt;Node7</title>
<path fill="none" stroke="midnightblue" d="M1816.52,-190.944C1821.55,-156.017 1833.89,-83.7834 1852,-67 1916.33,-7.39948 1960.08,-48.5495 2046,-31 2049.17,-30.3521 2052.43,-29.6725 2055.71,-28.9759"/>
<polygon fill="midnightblue" stroke="midnightblue" points="1813.01,-190.839 1815.1,-201.224 1819.94,-191.797 1813.01,-190.839"/>
</g>
<!-- Node8 -->
<g id="node8" class="node"><title>Node8</title>
<g id="a_node8"><a xlink:href="erpc__client__setup_8h.html" target="_top" xlink:title="erpc_client_setup.h">
<polygon fill="white" stroke="black" points="2312.5,-6 2312.5,-25 2413.5,-25 2413.5,-6 2312.5,-6"/>
<text text-anchor="middle" x="2363" y="-13" font-family="Helvetica,sans-Serif" font-size="10.00">erpc_client_setup.h</text>
</a>
</g>
</g>
<!-- Node2&#45;&gt;Node8 -->
<g id="edge41" class="edge"><title>Node2&#45;&gt;Node8</title>
<path fill="none" stroke="midnightblue" d="M1879.72,-201.313C1908.19,-194.951 1940.53,-183.96 1965,-165 2005.19,-133.859 1981.44,-94.8019 2024,-67 2128.68,1.3719 2180.05,-53.7184 2303,-31 2311.96,-29.3448 2321.58,-27.1902 2330.44,-25.0504"/>
<polygon fill="midnightblue" stroke="midnightblue" points="1878.9,-197.908 1869.83,-203.376 1880.33,-204.761 1878.9,-197.908"/>
</g>
<!-- Node9 -->
<g id="node9" class="node"><title>Node9</title>
<g id="a_node9"><a xlink:href="erpc__server_8hpp.html" target="_top" xlink:title="erpc_server.hpp">
<polygon fill="white" stroke="black" points="2033.5,-73 2033.5,-92 2118.5,-92 2118.5,-73 2033.5,-73"/>
<text text-anchor="middle" x="2076" y="-80" font-family="Helvetica,sans-Serif" font-size="10.00">erpc_server.hpp</text>
</a>
</g>
</g>
<!-- Node2&#45;&gt;Node9 -->
<g id="edge24" class="edge"><title>Node2&#45;&gt;Node9</title>
<path fill="none" stroke="midnightblue" d="M1879.88,-203.305C1916.85,-197.333 1962.68,-186.093 1999,-165 2031.65,-146.034 2059.04,-109.009 2070.38,-92.1882"/>
<polygon fill="midnightblue" stroke="midnightblue" points="1879.07,-199.889 1869.71,-204.854 1880.12,-206.809 1879.07,-199.889"/>
</g>
<!-- Node11 -->
<g id="node11" class="node"><title>Node11</title>
<g id="a_node11"><a xlink:href="erpc__manually__constructed_8hpp.html" target="_top" xlink:title="erpc_manually_constructed.hpp">
<polygon fill="white" stroke="black" points="2051.5,-140 2051.5,-159 2206.5,-159 2206.5,-140 2051.5,-140"/>
<text text-anchor="middle" x="2129" y="-147" font-family="Helvetica,sans-Serif" font-size="10.00">erpc_manually_constructed.hpp</text>
</a>
</g>
</g>
<!-- Node2&#45;&gt;Node11 -->
<g id="edge10" class="edge"><title>Node2&#45;&gt;Node11</title>
<path fill="none" stroke="midnightblue" d="M1868.97,-199.617C1929.97,-188.094 2027.27,-169.716 2083.95,-159.009"/>
<polygon fill="midnightblue" stroke="midnightblue" points="1868.31,-196.18 1859.13,-201.475 1869.61,-203.058 1868.31,-196.18"/>
</g>
<!-- Node12 -->
<g id="node12" class="node"><title>Node12</title>
<g id="a_node12"><a xlink:href="erpc__framed__transport_8hpp.html" target="_top" xlink:title="erpc_framed_transport.hpp">
<polygon fill="white" stroke="black" points="989,-73 989,-92 1121,-92 1121,-73 989,-73"/>
<text text-anchor="middle" x="1055" y="-80" font-family="Helvetica,sans-Serif" font-size="10.00">erpc_framed_transport.hpp</text>
</a>
</g>
</g>
<!-- Node2&#45;&gt;Node12 -->
<g id="edge11" class="edge"><title>Node2&#45;&gt;Node12</title>
<path fill="none" stroke="midnightblue" d="M1747.76,-210.003C1604.9,-209.265 1272.28,-203.341 1167,-165 1122.71,-148.871 1080.59,-109.666 1063.27,-92.1743"/>
<polygon fill="midnightblue" stroke="midnightblue" points="1748.1,-213.504 1758.12,-210.049 1748.13,-206.504 1748.1,-213.504"/>
</g>
<!-- Node14 -->
<g id="node14" class="node"><title>Node14</title>
<g id="a_node14"><a xlink:href="erpc__dspi__slave__transport_8hpp.html" target="_top" xlink:title="erpc_dspi_slave_transport.hpp">
<polygon fill="white" stroke="black" points="1107,-6 1107,-25 1255,-25 1255,-6 1107,-6"/>
<text text-anchor="middle" x="1181" y="-13" font-family="Helvetica,sans-Serif" font-size="10.00">erpc_dspi_slave_transport.hpp</text>
</a>
</g>
</g>
<!-- Node2&#45;&gt;Node14 -->
<g id="edge43" class="edge"><title>Node2&#45;&gt;Node14</title>
<path fill="none" stroke="midnightblue" d="M1748.19,-210.889C1655.6,-210.542 1482.41,-204.018 1341,-165 1274.12,-146.546 1243.53,-152.031 1200,-98 1182.5,-76.2766 1180.56,-41.2945 1180.69,-25.1612"/>
<polygon fill="midnightblue" stroke="midnightblue" points="1748.25,-214.389 1758.25,-210.903 1748.26,-207.389 1748.25,-214.389"/>
</g>
<!-- Node15 -->
<g id="node15" class="node"><title>Node15</title>
<g id="a_node15"><a xlink:href="erpc__i2c__slave__transport_8hpp.html" target="_top" xlink:title="erpc_i2c_slave_transport.hpp">
<polygon fill="white" stroke="black" points="168.5,-6 168.5,-25 311.5,-25 311.5,-6 168.5,-6"/>
<text text-anchor="middle" x="240" y="-13" font-family="Helvetica,sans-Serif" font-size="10.00">erpc_i2c_slave_transport.hpp</text>
</a>
</g>
</g>
<!-- Node2&#45;&gt;Node15 -->
<g id="edge44" class="edge"><title>Node2&#45;&gt;Node15</title>
<path fill="none" stroke="midnightblue" d="M1748.14,-210.245C1600.38,-210.012 1231.47,-205.069 926,-165 784.515,-146.441 751.474,-128.158 612,-98 490.188,-71.6607 346.073,-39.9225 278.543,-25.0168"/>
<polygon fill="midnightblue" stroke="midnightblue" points="1748.39,-213.745 1758.39,-210.254 1748.39,-206.745 1748.39,-213.745"/>
</g>
<!-- Node16 -->
<g id="node16" class="node"><title>Node16</title>
<g id="a_node16"><a xlink:href="erpc__lpi2c__slave__transport_8hpp.html" target="_top" xlink:title="erpc_lpi2c_slave_transport.hpp">
<polygon fill="white" stroke="black" points="330,-6 330,-25 480,-25 480,-6 330,-6"/>
<text text-anchor="middle" x="405" y="-13" font-family="Helvetica,sans-Serif" font-size="10.00">erpc_lpi2c_slave_transport.hpp</text>
</a>
</g>
</g>
<!-- Node2&#45;&gt;Node16 -->
<g id="edge45" class="edge"><title>Node2&#45;&gt;Node16</title>
<path fill="none" stroke="midnightblue" d="M1747.97,-208.926C1623.06,-206.196 1343.78,-196.764 1111,-165 848.215,-129.141 537.127,-51.0034 437.435,-25.0625"/>
<polygon fill="midnightblue" stroke="midnightblue" points="1748.07,-212.428 1758.14,-209.14 1748.21,-205.43 1748.07,-212.428"/>
</g>
<!-- Node17 -->
<g id="node17" class="node"><title>Node17</title>
<g id="a_node17"><a xlink:href="erpc__lpspi__slave__transport_8hpp.html" target="_top" xlink:title="erpc_lpspi_slave_transport.hpp">
<polygon fill="white" stroke="black" points="0,-6 0,-25 150,-25 150,-6 0,-6"/>
<text text-anchor="middle" x="75" y="-13" font-family="Helvetica,sans-Serif" font-size="10.00">erpc_lpspi_slave_transport.hpp</text>
</a>
</g>
</g>
<!-- Node2&#45;&gt;Node17 -->
<g id="edge46" class="edge"><title>Node2&#45;&gt;Node17</title>
<path fill="none" stroke="midnightblue" d="M1748.35,-208.683C1548.61,-204.444 950.146,-189.951 757,-165 501.621,-132.009 200.293,-51.4674 105.262,-25.0483"/>
<polygon fill="midnightblue" stroke="midnightblue" points="1748.33,-212.184 1758.4,-208.895 1748.48,-205.185 1748.33,-212.184"/>
</g>
<!-- Node20 -->
<g id="node20" class="node"><title>Node20</title>
<g id="a_node20"><a xlink:href="erpc__spi__slave__transport_8hpp.html" target="_top" xlink:title="erpc_spi_slave_transport.hpp">
<polygon fill="white" stroke="black" points="1735.5,-6 1735.5,-25 1878.5,-25 1878.5,-6 1735.5,-6"/>
<text text-anchor="middle" x="1807" y="-13" font-family="Helvetica,sans-Serif" font-size="10.00">erpc_spi_slave_transport.hpp</text>
</a>
</g>
</g>
<!-- Node2&#45;&gt;Node20 -->
<g id="edge53" class="edge"><title>Node2&#45;&gt;Node20</title>
<path fill="none" stroke="midnightblue" d="M1813.32,-191.286C1811.85,-150.526 1808.39,-55.0085 1807.32,-25.4068"/>
<polygon fill="midnightblue" stroke="midnightblue" points="1809.83,-191.569 1813.69,-201.436 1816.83,-191.316 1809.83,-191.569"/>
</g>
<!-- Node23 -->
<g id="node23" class="node"><title>Node23</title>
<g id="a_node23"><a xlink:href="erpc__uart__cmsis__transport_8hpp.html" target="_top" xlink:title="erpc_uart_cmsis_transport.hpp">
<polygon fill="white" stroke="black" points="1407.5,-6 1407.5,-25 1558.5,-25 1558.5,-6 1407.5,-6"/>
<text text-anchor="middle" x="1483" y="-13" font-family="Helvetica,sans-Serif" font-size="10.00">erpc_uart_cmsis_transport.hpp</text>
</a>
</g>
</g>
<!-- Node2&#45;&gt;Node23 -->
<g id="edge54" class="edge"><title>Node2&#45;&gt;Node23</title>
<path fill="none" stroke="midnightblue" d="M1800.47,-193.719C1793.42,-185.201 1784.7,-174.578 1777,-165 1759.65,-143.413 1723.37,-81.8694 1700,-67 1685.44,-57.7328 1585.68,-36.8369 1526.62,-25.0345"/>
<polygon fill="midnightblue" stroke="midnightblue" points="1797.77,-195.954 1806.85,-201.42 1803.16,-191.487 1797.77,-195.954"/>
</g>
<!-- Node24 -->
<g id="node24" class="node"><title>Node24</title>
<g id="a_node24"><a xlink:href="erpc__usb__cdc__transport_8hpp.html" target="_top" xlink:title="erpc_usb_cdc_transport.hpp">
<polygon fill="white" stroke="black" points="1577,-6 1577,-25 1717,-25 1717,-6 1577,-6"/>
<text text-anchor="middle" x="1647" y="-13" font-family="Helvetica,sans-Serif" font-size="10.00">erpc_usb_cdc_transport.hpp</text>
</a>
</g>
</g>
<!-- Node2&#45;&gt;Node24 -->
<g id="edge55" class="edge"><title>Node2&#45;&gt;Node24</title>
<path fill="none" stroke="midnightblue" d="M1807.36,-191.901C1795.91,-162.7 1770.08,-104.665 1733,-67 1714.29,-47.9992 1686.97,-33.5839 1668.17,-25.1132"/>
<polygon fill="midnightblue" stroke="midnightblue" points="1804.09,-193.16 1810.92,-201.264 1810.63,-190.673 1804.09,-193.16"/>
</g>
<!-- Node25 -->
<g id="node25" class="node"><title>Node25</title>
<g id="a_node25"><a xlink:href="erpc__port_8h.html" target="_top" xlink:title="erpc_port.h">
<polygon fill="white" stroke="black" points="2224.5,-140 2224.5,-159 2289.5,-159 2289.5,-140 2224.5,-140"/>
<text text-anchor="middle" x="2257" y="-147" font-family="Helvetica,sans-Serif" font-size="10.00">erpc_port.h</text>
</a>
</g>
</g>
<!-- Node2&#45;&gt;Node25 -->
<g id="edge25" class="edge"><title>Node2&#45;&gt;Node25</title>
<path fill="none" stroke="midnightblue" d="M1880.21,-207.048C1960.32,-202.452 2098.92,-191.213 2215,-165 2221.62,-163.505 2228.65,-161.324 2235.03,-159.106"/>
<polygon fill="midnightblue" stroke="midnightblue" points="1879.57,-203.578 1869.78,-207.627 1879.96,-210.567 1879.57,-203.578"/>
</g>
<!-- Node26 -->
<g id="node26" class="node"><title>Node26</title>
<g id="a_node26"><a xlink:href="erpc__setup__extensions_8h.html" target="_top" xlink:title="erpc_setup_extensions.h">
<polygon fill="white" stroke="black" points="2307.5,-140 2307.5,-159 2432.5,-159 2432.5,-140 2307.5,-140"/>
<text text-anchor="middle" x="2370" y="-147" font-family="Helvetica,sans-Serif" font-size="10.00">erpc_setup_extensions.h</text>
</a>
</g>
</g>
<!-- Node2&#45;&gt;Node26 -->
<g id="edge26" class="edge"><title>Node2&#45;&gt;Node26</title>
<path fill="none" stroke="midnightblue" d="M1879.91,-206.095C1973.29,-200.058 2149.32,-186.821 2298,-165 2308.98,-163.389 2320.81,-161.199 2331.64,-159.008"/>
<polygon fill="midnightblue" stroke="midnightblue" points="1879.51,-202.613 1869.76,-206.744 1879.96,-209.599 1879.51,-202.613"/>
</g>
<!-- Node27 -->
<g id="node27" class="node"><title>Node27</title>
<g id="a_node27"><a xlink:href="erpc__threading_8h.html" target="_top" xlink:title="erpc_threading.h">
<polygon fill="white" stroke="black" points="1350.5,-140 1350.5,-159 1439.5,-159 1439.5,-140 1350.5,-140"/>
<text text-anchor="middle" x="1395" y="-147" font-family="Helvetica,sans-Serif" font-size="10.00">erpc_threading.h</text>
</a>
</g>
</g>
<!-- Node2&#45;&gt;Node27 -->
<g id="edge27" class="edge"><title>Node2&#45;&gt;Node27</title>
<path fill="none" stroke="midnightblue" d="M1748.45,-200.691C1662.43,-188.477 1513.75,-167.362 1439.65,-156.841"/>
<polygon fill="midnightblue" stroke="midnightblue" points="1747.97,-204.158 1758.36,-202.099 1748.95,-197.228 1747.97,-204.158"/>
</g>
<!-- Node29 -->
<g id="node29" class="node"><title>Node29</title>
<g id="a_node29"><a xlink:href="erpc__mu__transport_8hpp.html" target="_top" xlink:title="erpc_mu_transport.hpp">
<polygon fill="white" stroke="black" points="1575,-73 1575,-92 1691,-92 1691,-73 1575,-73"/>
<text text-anchor="middle" x="1633" y="-80" font-family="Helvetica,sans-Serif" font-size="10.00">erpc_mu_transport.hpp</text>
</a>
</g>
</g>
<!-- Node2&#45;&gt;Node29 -->
<g id="edge47" class="edge"><title>Node2&#45;&gt;Node29</title>
<path fill="none" stroke="midnightblue" d="M1773.44,-198.202C1751.89,-190.757 1725.67,-179.738 1705,-165 1675.48,-143.956 1649.74,-108.634 1638.72,-92.2887"/>
<polygon fill="midnightblue" stroke="midnightblue" points="1772.38,-201.537 1782.97,-201.371 1774.59,-194.895 1772.38,-201.537"/>
</g>
<!-- Node30 -->
<g id="node30" class="node"><title>Node30</title>
<g id="a_node30"><a xlink:href="erpc__server__setup_8h.html" target="_top" xlink:title="erpc_server_setup.h">
<polygon fill="white" stroke="black" points="2451,-140 2451,-159 2555,-159 2555,-140 2451,-140"/>
<text text-anchor="middle" x="2503" y="-147" font-family="Helvetica,sans-Serif" font-size="10.00">erpc_server_setup.h</text>
</a>
</g>
</g>
<!-- Node2&#45;&gt;Node30 -->
<g id="edge42" class="edge"><title>Node2&#45;&gt;Node30</title>
<path fill="none" stroke="midnightblue" d="M1879.7,-208.697C1994.27,-205.665 2237.81,-195.853 2441,-165 2450.73,-163.523 2461.18,-161.32 2470.69,-159.075"/>
<polygon fill="midnightblue" stroke="midnightblue" points="1879.59,-205.198 1869.68,-208.953 1879.77,-212.196 1879.59,-205.198"/>
</g>
<!-- Node31 -->
<g id="node31" class="node"><title>Node31</title>
<g id="a_node31"><a xlink:href="erpc__rpmsg__lite__base__transport_8hpp.html" target="_top" xlink:title="erpc_rpmsg_lite_base\l_transport.hpp">
<polygon fill="white" stroke="black" points="2573,-134.5 2573,-164.5 2685,-164.5 2685,-134.5 2573,-134.5"/>
<text text-anchor="start" x="2581" y="-152.5" font-family="Helvetica,sans-Serif" font-size="10.00">erpc_rpmsg_lite_base</text>
<text text-anchor="middle" x="2629" y="-141.5" font-family="Helvetica,sans-Serif" font-size="10.00">_transport.hpp</text>
</a>
</g>
</g>
<!-- Node2&#45;&gt;Node31 -->
<g id="edge48" class="edge"><title>Node2&#45;&gt;Node31</title>
<path fill="none" stroke="midnightblue" d="M1880.08,-209.567C2011.16,-207.93 2313.1,-200.282 2564,-165 2566.86,-164.597 2569.79,-164.135 2572.73,-163.629"/>
<polygon fill="midnightblue" stroke="midnightblue" points="1879.77,-206.07 1869.81,-209.687 1879.85,-213.07 1879.77,-206.07"/>
</g>
<!-- Node33 -->
<g id="node33" class="node"><title>Node33</title>
<g id="a_node33"><a xlink:href="erpc__rpmsg__lite__transport_8hpp.html" target="_top" xlink:title="erpc_rpmsg_lite_transport.hpp">
<polygon fill="white" stroke="black" points="2685,-73 2685,-92 2833,-92 2833,-73 2685,-73"/>
<text text-anchor="middle" x="2759" y="-80" font-family="Helvetica,sans-Serif" font-size="10.00">erpc_rpmsg_lite_transport.hpp</text>
</a>
</g>
</g>
<!-- Node2&#45;&gt;Node33 -->
<g id="edge52" class="edge"><title>Node2&#45;&gt;Node33</title>
<path fill="none" stroke="midnightblue" d="M1880.05,-209.73C2072.26,-208.512 2622.3,-201.812 2694,-165 2725.56,-148.798 2746.89,-109.632 2755.16,-92.1623"/>
<polygon fill="midnightblue" stroke="midnightblue" points="1879.79,-206.231 1869.81,-209.791 1879.83,-213.231 1879.79,-206.231"/>
</g>
<!-- Node4 -->
<g id="node4" class="node"><title>Node4</title>
<g id="a_node4"><a xlink:href="erpc__client__manager_8h.html" target="_top" xlink:title="erpc_client_manager.h">
<polygon fill="white" stroke="black" points="1861.5,-73 1861.5,-92 1976.5,-92 1976.5,-73 1861.5,-73"/>
<text text-anchor="middle" x="1919" y="-80" font-family="Helvetica,sans-Serif" font-size="10.00">erpc_client_manager.h</text>
</a>
</g>
</g>
<!-- Node3&#45;&gt;Node4 -->
<g id="edge3" class="edge"><title>Node3&#45;&gt;Node4</title>
<path fill="none" stroke="midnightblue" d="M1912.73,-124.25C1914.46,-113.017 1916.4,-100.377 1917.66,-92.1945"/>
<polygon fill="midnightblue" stroke="midnightblue" points="1909.23,-123.98 1911.17,-134.396 1916.15,-125.044 1909.23,-123.98"/>
</g>
<!-- Node3&#45;&gt;Node9 -->
<g id="edge8" class="edge"><title>Node3&#45;&gt;Node9</title>
<path fill="none" stroke="midnightblue" d="M1954.93,-130.621C1987.26,-118.04 2029.07,-101.766 2054.14,-92.007"/>
<polygon fill="midnightblue" stroke="midnightblue" points="1953.29,-127.507 1945.24,-134.396 1955.83,-134.03 1953.29,-127.507"/>
</g>
<!-- Node5 -->
<g id="node5" class="node"><title>Node5</title>
<g id="a_node5"><a xlink:href="erpc__arbitrated__client__manager_8hpp.html" target="_top" xlink:title="erpc_arbitrated_client\l_manager.hpp">
<polygon fill="white" stroke="black" points="2184,-0.5 2184,-30.5 2294,-30.5 2294,-0.5 2184,-0.5"/>
<text text-anchor="start" x="2192" y="-18.5" font-family="Helvetica,sans-Serif" font-size="10.00">erpc_arbitrated_client</text>
<text text-anchor="middle" x="2239" y="-7.5" font-family="Helvetica,sans-Serif" font-size="10.00">_manager.hpp</text>
</a>
</g>
</g>
<!-- Node4&#45;&gt;Node5 -->
<g id="edge4" class="edge"><title>Node4&#45;&gt;Node5</title>
<path fill="none" stroke="midnightblue" d="M1971.48,-70.8964C1978.05,-69.5789 1984.68,-68.2546 1991,-67 2072.73,-50.7744 2093.47,-48.2081 2175,-31 2177.9,-30.3883 2180.87,-29.7513 2183.86,-29.1004"/>
<polygon fill="midnightblue" stroke="midnightblue" points="1970.37,-67.5496 1961.25,-72.9504 1971.75,-74.4126 1970.37,-67.5496"/>
</g>
<!-- Node6 -->
<g id="node6" class="node"><title>Node6</title>
<g id="a_node6"><a xlink:href="erpc__transport__arbitrator_8hpp.html" target="_top" xlink:title="erpc_transport_arbitrator.hpp">
<polygon fill="white" stroke="black" points="1896.5,-6 1896.5,-25 2037.5,-25 2037.5,-6 1896.5,-6"/>
<text text-anchor="middle" x="1967" y="-13" font-family="Helvetica,sans-Serif" font-size="10.00">erpc_transport_arbitrator.hpp</text>
</a>
</g>
</g>
<!-- Node4&#45;&gt;Node6 -->
<g id="edge5" class="edge"><title>Node4&#45;&gt;Node6</title>
<path fill="none" stroke="midnightblue" d="M1931.62,-64.4037C1940.95,-51.7729 1953.26,-35.1041 1960.63,-25.1273"/>
<polygon fill="midnightblue" stroke="midnightblue" points="1928.6,-62.6103 1925.47,-72.7338 1934.23,-66.7686 1928.6,-62.6103"/>
</g>
<!-- Node4&#45;&gt;Node7 -->
<g id="edge6" class="edge"><title>Node4&#45;&gt;Node7</title>
<path fill="none" stroke="midnightblue" d="M1954.05,-69.6327C1986.61,-58.6117 2035.11,-42.1933 2069.56,-30.5281"/>
<polygon fill="midnightblue" stroke="midnightblue" points="1952.85,-66.3466 1944.5,-72.8685 1955.09,-72.977 1952.85,-66.3466"/>
</g>
<!-- Node4&#45;&gt;Node8 -->
<g id="edge7" class="edge"><title>Node4&#45;&gt;Node8</title>
<path fill="none" stroke="midnightblue" d="M1968.05,-71.0502C1975.71,-69.5831 1983.56,-68.1768 1991,-67 2128.87,-45.2019 2165.57,-55.4404 2303,-31 2312.07,-29.3863 2321.82,-27.2204 2330.77,-25.0555"/>
<polygon fill="midnightblue" stroke="midnightblue" points="1967.27,-67.6371 1958.13,-72.9996 1968.62,-74.5057 1967.27,-67.6371"/>
</g>
<!-- Node10 -->
<g id="node10" class="node"><title>Node10</title>
<g id="a_node10"><a xlink:href="erpc__simple__server_8hpp.html" target="_top" xlink:title="erpc_simple_server.hpp">
<polygon fill="white" stroke="black" points="2431.5,-6 2431.5,-25 2550.5,-25 2550.5,-6 2431.5,-6"/>
<text text-anchor="middle" x="2491" y="-13" font-family="Helvetica,sans-Serif" font-size="10.00">erpc_simple_server.hpp</text>
</a>
</g>
</g>
<!-- Node9&#45;&gt;Node10 -->
<g id="edge9" class="edge"><title>Node9&#45;&gt;Node10</title>
<path fill="none" stroke="midnightblue" d="M2128.79,-74.834C2196.78,-66.0099 2318.53,-49.4037 2422,-31 2431.88,-29.2422 2442.51,-27.1228 2452.4,-25.0538"/>
<polygon fill="midnightblue" stroke="midnightblue" points="2128.22,-71.3782 2118.75,-76.1307 2129.12,-78.3205 2128.22,-71.3782"/>
</g>
<!-- Node13 -->
<g id="node13" class="node"><title>Node13</title>
<g id="a_node13"><a xlink:href="erpc__dspi__master__transport_8hpp.html" target="_top" xlink:title="erpc_dspi_master_transport.hpp">
<polygon fill="white" stroke="black" points="789,-6 789,-25 945,-25 945,-6 789,-6"/>
<text text-anchor="middle" x="867" y="-13" font-family="Helvetica,sans-Serif" font-size="10.00">erpc_dspi_master_transport.hpp</text>
</a>
</g>
</g>
<!-- Node12&#45;&gt;Node13 -->
<g id="edge12" class="edge"><title>Node12&#45;&gt;Node13</title>
<path fill="none" stroke="midnightblue" d="M1020.11,-69.4363C982.813,-56.5417 924.627,-36.4243 891.769,-25.0637"/>
<polygon fill="midnightblue" stroke="midnightblue" points="1019.44,-72.9087 1030.04,-72.8685 1021.73,-66.2929 1019.44,-72.9087"/>
</g>
<!-- Node12&#45;&gt;Node14 -->
<g id="edge13" class="edge"><title>Node12&#45;&gt;Node14</title>
<path fill="none" stroke="midnightblue" d="M1080.64,-68.2739C1105.59,-55.3999 1142.8,-36.2086 1164.2,-25.1672"/>
<polygon fill="midnightblue" stroke="midnightblue" points="1079.01,-65.1733 1071.73,-72.8685 1082.22,-71.3943 1079.01,-65.1733"/>
</g>
<!-- Node12&#45;&gt;Node15 -->
<g id="edge14" class="edge"><title>Node12&#45;&gt;Node15</title>
<path fill="none" stroke="midnightblue" d="M978.502,-73.5293C955.236,-71.2469 929.585,-68.8727 906,-67 646.325,-46.3814 579.64,-62.0026 321,-31 308.376,-29.4868 294.739,-27.2732 282.32,-25.0291"/>
<polygon fill="midnightblue" stroke="midnightblue" points="978.364,-77.0326 988.66,-74.5346 979.054,-70.0666 978.364,-77.0326"/>
</g>
<!-- Node12&#45;&gt;Node16 -->
<g id="edge15" class="edge"><title>Node12&#45;&gt;Node16</title>
<path fill="none" stroke="midnightblue" d="M996.97,-71.4146C986.357,-69.7798 975.362,-68.2244 965,-67 754.306,-42.1049 699.551,-57.0742 489,-31 476.222,-29.4177 462.428,-27.2362 449.784,-25.0455"/>
<polygon fill="midnightblue" stroke="midnightblue" points="996.572,-74.8951 1007,-72.9981 997.664,-67.9808 996.572,-74.8951"/>
</g>
<!-- Node12&#45;&gt;Node17 -->
<g id="edge16" class="edge"><title>Node12&#45;&gt;Node17</title>
<path fill="none" stroke="midnightblue" d="M978.706,-78.3279C792.197,-70.3912 316.908,-49.0188 159,-31 145.914,-29.5067 131.774,-27.2992 118.895,-25.0546"/>
<polygon fill="midnightblue" stroke="midnightblue" points="978.83,-81.8362 988.97,-78.7635 979.127,-74.8425 978.83,-81.8362"/>
</g>
<!-- Node18 -->
<g id="node18" class="node"><title>Node18</title>
<g id="a_node18"><a xlink:href="erpc__serial__transport_8hpp.html" target="_top" xlink:title="erpc_serial_transport.hpp">
<polygon fill="white" stroke="black" points="963,-6 963,-25 1089,-25 1089,-6 963,-6"/>
<text text-anchor="middle" x="1026" y="-13" font-family="Helvetica,sans-Serif" font-size="10.00">erpc_serial_transport.hpp</text>
</a>
</g>
</g>
<!-- Node12&#45;&gt;Node18 -->
<g id="edge17" class="edge"><title>Node12&#45;&gt;Node18</title>
<path fill="none" stroke="midnightblue" d="M1046.88,-63.29C1041.31,-50.8076 1034.17,-34.8135 1029.85,-25.1273"/>
<polygon fill="midnightblue" stroke="midnightblue" points="1043.82,-65.0276 1051.09,-72.7338 1050.21,-62.1754 1043.82,-65.0276"/>
</g>
<!-- Node19 -->
<g id="node19" class="node"><title>Node19</title>
<g id="a_node19"><a xlink:href="erpc__spi__master__transport_8hpp.html" target="_top" xlink:title="erpc_spi_master_transport.hpp">
<polygon fill="white" stroke="black" points="498.5,-6 498.5,-25 649.5,-25 649.5,-6 498.5,-6"/>
<text text-anchor="middle" x="574" y="-13" font-family="Helvetica,sans-Serif" font-size="10.00">erpc_spi_master_transport.hpp</text>
</a>
</g>
</g>
<!-- Node12&#45;&gt;Node19 -->
<g id="edge18" class="edge"><title>Node12&#45;&gt;Node19</title>
<path fill="none" stroke="midnightblue" d="M994.471,-71.3824C984.631,-69.8429 974.54,-68.3272 965,-67 828.931,-48.0698 793.961,-50.6916 658,-31 645.844,-29.2394 632.74,-27.0962 620.581,-25.0036"/>
<polygon fill="midnightblue" stroke="midnightblue" points="994.176,-74.8794 1004.6,-72.9884 995.272,-67.9657 994.176,-74.8794"/>
</g>
<!-- Node12&#45;&gt;Node20 -->
<g id="edge19" class="edge"><title>Node12&#45;&gt;Node20</title>
<path fill="none" stroke="midnightblue" d="M1131.05,-73.4424C1153.26,-71.2114 1177.59,-68.8868 1200,-67 1433.5,-47.3395 1493.44,-59.6878 1726,-31 1738.48,-29.4609 1751.95,-27.2665 1764.25,-25.0493"/>
<polygon fill="midnightblue" stroke="midnightblue" points="1130.6,-69.9695 1121.01,-74.4589 1131.31,-76.934 1130.6,-69.9695"/>
</g>
<!-- Node21 -->
<g id="node21" class="node"><title>Node21</title>
<g id="a_node21"><a xlink:href="erpc__spidev__master__transport_8hpp.html" target="_top" xlink:title="erpc_spidev_master\l_transport.hpp">
<polygon fill="white" stroke="black" points="667.5,-0.5 667.5,-30.5 770.5,-30.5 770.5,-0.5 667.5,-0.5"/>
<text text-anchor="start" x="675.5" y="-18.5" font-family="Helvetica,sans-Serif" font-size="10.00">erpc_spidev_master</text>
<text text-anchor="middle" x="719" y="-7.5" font-family="Helvetica,sans-Serif" font-size="10.00">_transport.hpp</text>
</a>
</g>
</g>
<!-- Node12&#45;&gt;Node21 -->
<g id="edge20" class="edge"><title>Node12&#45;&gt;Node21</title>
<path fill="none" stroke="midnightblue" d="M994.081,-71.245C938.237,-61.6234 853.336,-46.4389 780,-31 776.911,-30.3497 773.739,-29.6606 770.543,-28.95"/>
<polygon fill="midnightblue" stroke="midnightblue" points="993.713,-74.7329 1004.16,-72.9756 994.897,-67.8338 993.713,-74.7329"/>
</g>
<!-- Node22 -->
<g id="node22" class="node"><title>Node22</title>
<g id="a_node22"><a xlink:href="erpc__tcp__transport_8hpp.html" target="_top" xlink:title="erpc_tcp_transport.hpp">
<polygon fill="white" stroke="black" points="1273,-6 1273,-25 1389,-25 1389,-6 1273,-6"/>
<text text-anchor="middle" x="1331" y="-13" font-family="Helvetica,sans-Serif" font-size="10.00">erpc_tcp_transport.hpp</text>
</a>
</g>
</g>
<!-- Node12&#45;&gt;Node22 -->
<g id="edge21" class="edge"><title>Node12&#45;&gt;Node22</title>
<path fill="none" stroke="midnightblue" d="M1101.44,-70.5642C1155.85,-57.7499 1244.87,-36.7848 1294.55,-25.0834"/>
<polygon fill="midnightblue" stroke="midnightblue" points="1100.3,-67.2363 1091.37,-72.9355 1101.9,-74.0499 1100.3,-67.2363"/>
</g>
<!-- Node12&#45;&gt;Node23 -->
<g id="edge22" class="edge"><title>Node12&#45;&gt;Node23</title>
<path fill="none" stroke="midnightblue" d="M1125.73,-71.5661C1195.13,-61.7057 1303.95,-45.9439 1398,-31 1409.68,-29.1442 1422.25,-27.0529 1434.04,-25.0483"/>
<polygon fill="midnightblue" stroke="midnightblue" points="1125.19,-68.1073 1115.78,-72.9773 1126.18,-75.0379 1125.19,-68.1073"/>
</g>
<!-- Node12&#45;&gt;Node24 -->
<g id="edge23" class="edge"><title>Node12&#45;&gt;Node24</title>
<path fill="none" stroke="midnightblue" d="M1131.09,-73.8638C1153.3,-71.6418 1177.62,-69.2165 1200,-67 1363.1,-50.846 1404.68,-53.6336 1567,-31 1578.88,-29.3431 1591.69,-27.1879 1603.51,-25.0481"/>
<polygon fill="midnightblue" stroke="midnightblue" points="1130.65,-70.3905 1121.04,-74.869 1131.34,-77.3557 1130.65,-70.3905"/>
</g>
<!-- Node27&#45;&gt;Node6 -->
<g id="edge28" class="edge"><title>Node27&#45;&gt;Node6</title>
<path fill="none" stroke="midnightblue" d="M1433.1,-136.814C1459.7,-127.92 1495.56,-114.424 1525,-98 1544.95,-86.8686 1544.78,-75.4637 1566,-67 1699.34,-13.8119 1744.96,-51.8135 1887,-31 1898.73,-29.281 1911.38,-27.1289 1923.07,-25.0131"/>
<polygon fill="midnightblue" stroke="midnightblue" points="1431.81,-133.555 1423.39,-139.995 1433.99,-140.207 1431.81,-133.555"/>
</g>
<!-- Node27&#45;&gt;Node12 -->
<g id="edge29" class="edge"><title>Node27&#45;&gt;Node12</title>
<path fill="none" stroke="midnightblue" d="M1340.27,-138.037C1273.4,-125.253 1161.54,-103.868 1099.63,-92.0317"/>
<polygon fill="midnightblue" stroke="midnightblue" points="1339.72,-141.495 1350.2,-139.936 1341.04,-134.62 1339.72,-141.495"/>
</g>
<!-- Node27&#45;&gt;Node14 -->
<g id="edge30" class="edge"><title>Node27&#45;&gt;Node14</title>
<path fill="none" stroke="midnightblue" d="M1386.98,-130.898C1377.7,-112.425 1360.74,-83.7842 1338,-67 1307.94,-44.8105 1267.73,-32.1209 1235.53,-25.0119"/>
<polygon fill="midnightblue" stroke="midnightblue" points="1383.85,-132.47 1391.33,-139.975 1390.17,-129.444 1383.85,-132.47"/>
</g>
<!-- Node27&#45;&gt;Node15 -->
<g id="edge31" class="edge"><title>Node27&#45;&gt;Node15</title>
<path fill="none" stroke="midnightblue" d="M1340.39,-143.761C1249.92,-135.707 1063.31,-118.241 906,-98 816.35,-86.4648 794.704,-78.1123 705,-67 534.885,-45.9266 490.848,-54.1229 321,-31 308.968,-29.362 295.996,-27.2131 284.035,-25.0733"/>
<polygon fill="midnightblue" stroke="midnightblue" points="1340.14,-147.252 1350.41,-144.649 1340.76,-140.28 1340.14,-147.252"/>
</g>
<!-- Node27&#45;&gt;Node16 -->
<g id="edge33" class="edge"><title>Node27&#45;&gt;Node16</title>
<path fill="none" stroke="midnightblue" d="M1339.96,-146.614C1259.61,-142.785 1106.07,-131.388 980,-98 945.53,-88.8709 940.624,-75.525 906,-67 725.372,-22.5266 673.488,-54.843 489,-31 476.378,-29.3687 462.756,-27.1971 450.232,-25.0322"/>
<polygon fill="midnightblue" stroke="midnightblue" points="1340.18,-150.127 1350.33,-147.085 1340.49,-143.134 1340.18,-150.127"/>
</g>
<!-- Node27&#45;&gt;Node17 -->
<g id="edge34" class="edge"><title>Node27&#45;&gt;Node17</title>
<path fill="none" stroke="midnightblue" d="M1340,-145.393C1223,-138.583 940.848,-121.087 705,-98 461.676,-74.181 400.867,-66.6935 159,-31 146.995,-29.2283 134.062,-27.1039 122.028,-25.0346"/>
<polygon fill="midnightblue" stroke="midnightblue" points="1339.95,-148.896 1350.13,-145.981 1340.35,-141.908 1339.95,-148.896"/>
</g>
<!-- Node27&#45;&gt;Node20 -->
<g id="edge36" class="edge"><title>Node27&#45;&gt;Node20</title>
<path fill="none" stroke="midnightblue" d="M1421.35,-135.426C1440.46,-125.684 1466.75,-111.743 1489,-98 1509.35,-85.4276 1510.95,-76.2718 1533,-67 1538.21,-64.8088 1682.01,-38.8728 1759.15,-25.0508"/>
<polygon fill="midnightblue" stroke="midnightblue" points="1419.68,-132.349 1412.33,-139.983 1422.83,-138.597 1419.68,-132.349"/>
</g>
<!-- Node27&#45;&gt;Node22 -->
<g id="edge37" class="edge"><title>Node27&#45;&gt;Node22</title>
<path fill="none" stroke="midnightblue" d="M1391.6,-129.673C1388.03,-112.636 1381.47,-87.1963 1371,-67 1362.56,-50.7146 1348.52,-34.5696 1339.51,-25.0687"/>
<polygon fill="midnightblue" stroke="midnightblue" points="1388.17,-130.371 1393.52,-139.515 1395.04,-129.03 1388.17,-130.371"/>
</g>
<!-- Node27&#45;&gt;Node23 -->
<g id="edge38" class="edge"><title>Node27&#45;&gt;Node23</title>
<path fill="none" stroke="midnightblue" d="M1406.47,-131.292C1425.54,-102.693 1463.06,-46.4101 1477.32,-25.0212"/>
<polygon fill="midnightblue" stroke="midnightblue" points="1403.41,-129.577 1400.77,-139.839 1409.23,-133.46 1403.41,-129.577"/>
</g>
<!-- Node27&#45;&gt;Node24 -->
<g id="edge39" class="edge"><title>Node27&#45;&gt;Node24</title>
<path fill="none" stroke="midnightblue" d="M1412.32,-133.089C1436,-112.254 1477.53,-76.5971 1495,-67 1531.44,-46.9859 1577.15,-33.1252 1608.89,-25.0565"/>
<polygon fill="midnightblue" stroke="midnightblue" points="1409.94,-130.529 1404.76,-139.774 1414.57,-135.774 1409.94,-130.529"/>
</g>
<!-- Node28 -->
<g id="node28" class="node"><title>Node28</title>
<g id="a_node28"><a xlink:href="erpc__inter__thread__buffer__transport_8hpp.html" target="_top" xlink:title="erpc_inter_thread_buffer\l_transport.hpp">
<polygon fill="white" stroke="black" points="1209,-67.5 1209,-97.5 1329,-97.5 1329,-67.5 1209,-67.5"/>
<text text-anchor="start" x="1217" y="-85.5" font-family="Helvetica,sans-Serif" font-size="10.00">erpc_inter_thread_buffer</text>
<text text-anchor="middle" x="1269" y="-74.5" font-family="Helvetica,sans-Serif" font-size="10.00">_transport.hpp</text>
</a>
</g>
</g>
<!-- Node27&#45;&gt;Node28 -->
<g id="edge32" class="edge"><title>Node27&#45;&gt;Node28</title>
<path fill="none" stroke="midnightblue" d="M1369.21,-135.194C1348.01,-124.261 1318.06,-108.81 1296.43,-97.6516"/>
<polygon fill="midnightblue" stroke="midnightblue" points="1367.78,-138.394 1378.27,-139.869 1370.99,-132.173 1367.78,-138.394"/>
</g>
<!-- Node27&#45;&gt;Node29 -->
<g id="edge35" class="edge"><title>Node27&#45;&gt;Node29</title>
<path fill="none" stroke="midnightblue" d="M1436.48,-137.172C1483.54,-124.319 1559.25,-103.643 1601.64,-92.0637"/>
<polygon fill="midnightblue" stroke="midnightblue" points="1435.33,-133.857 1426.6,-139.869 1437.17,-140.61 1435.33,-133.857"/>
</g>
<!-- Node32 -->
<g id="node32" class="node"><title>Node32</title>
<g id="a_node32"><a xlink:href="erpc__rpmsg__lite__rtos__transport_8hpp.html" target="_top" xlink:title="erpc_rpmsg_lite_rtos\l_transport.hpp">
<polygon fill="white" stroke="black" points="2435.5,-67.5 2435.5,-97.5 2542.5,-97.5 2542.5,-67.5 2435.5,-67.5"/>
<text text-anchor="start" x="2443.5" y="-85.5" font-family="Helvetica,sans-Serif" font-size="10.00">erpc_rpmsg_lite_rtos</text>
<text text-anchor="middle" x="2489" y="-74.5" font-family="Helvetica,sans-Serif" font-size="10.00">_transport.hpp</text>
</a>
</g>
</g>
<!-- Node31&#45;&gt;Node32 -->
<g id="edge49" class="edge"><title>Node31&#45;&gt;Node32</title>
<path fill="none" stroke="midnightblue" d="M2589.43,-130.131C2567.19,-119.802 2539.85,-107.11 2519.32,-97.5765"/>
<polygon fill="midnightblue" stroke="midnightblue" points="2588.08,-133.359 2598.62,-134.396 2591.03,-127.01 2588.08,-133.359"/>
</g>
<!-- Node31&#45;&gt;Node33 -->
<g id="edge50" class="edge"><title>Node31&#45;&gt;Node33</title>
<path fill="none" stroke="midnightblue" d="M2666.39,-129.803C2691.32,-117.342 2722.89,-101.556 2741.99,-92.007"/>
<polygon fill="midnightblue" stroke="midnightblue" points="2664.59,-126.793 2657.21,-134.396 2667.72,-133.054 2664.59,-126.793"/>
</g>
<!-- Node34 -->
<g id="node34" class="node"><title>Node34</title>
<g id="a_node34"><a xlink:href="erpc__rpmsg__tty__rtos__transport_8hpp.html" target="_top" xlink:title="erpc_rpmsg_tty_rtos\l_transport.hpp">
<polygon fill="white" stroke="black" points="2561,-67.5 2561,-97.5 2667,-97.5 2667,-67.5 2561,-67.5"/>
<text text-anchor="start" x="2569" y="-85.5" font-family="Helvetica,sans-Serif" font-size="10.00">erpc_rpmsg_tty_rtos</text>
<text text-anchor="middle" x="2614" y="-74.5" font-family="Helvetica,sans-Serif" font-size="10.00">_transport.hpp</text>
</a>
</g>
</g>
<!-- Node31&#45;&gt;Node34 -->
<g id="edge51" class="edge"><title>Node31&#45;&gt;Node34</title>
<path fill="none" stroke="midnightblue" d="M2623.44,-124.403C2621.35,-115.37 2619.06,-105.408 2617.25,-97.5765"/>
<polygon fill="midnightblue" stroke="midnightblue" points="2620.09,-125.439 2625.75,-134.396 2626.91,-123.865 2620.09,-125.439"/>
</g>
</g>
</svg>
