<?xml version="1.0" encoding="UTF-8" standalone="no"?>
<!DOCTYPE svg PUBLIC "-//W3C//DTD SVG 1.1//EN"
 "http://www.w3.org/Graphics/SVG/1.1/DTD/svg11.dtd">
<!-- Generated by graphviz version 2.38.0 (20140413.2041)
 -->
<!-- Title: erpc_message_buffer.hpp Pages: 1 -->
<svg width="2727pt" height="341pt"
 viewBox="0.00 0.00 2727.14 341.00" xmlns="http://www.w3.org/2000/svg" xmlns:xlink="http://www.w3.org/1999/xlink">
<g id="graph0" class="graph" transform="scale(1 1) rotate(0) translate(4 337)">
<title>erpc_message_buffer.hpp</title>
<polygon fill="white" stroke="none" points="-4,4 -4,-337 2723.14,-337 2723.14,4 -4,4"/>
<!-- Node1 -->
<g id="node1" class="node"><title>Node1</title>
<polygon fill="#bfbfbf" stroke="black" points="2074,-313.5 2074,-332.5 2202,-332.5 2202,-313.5 2074,-313.5"/>
<text text-anchor="middle" x="2138" y="-320.5" font-family="Helvetica,sans-Serif" font-size="10.00">erpc_message_buffer.hpp</text>
</g>
<!-- Node2 -->
<g id="node2" class="node"><title>Node2</title>
<g id="a_node2"><a xlink:href="erpc__codec_8hpp.html" target="_top" xlink:title="erpc_codec.hpp">
<polygon fill="white" stroke="black" points="458,-196 458,-215 544,-215 544,-196 458,-196"/>
<text text-anchor="middle" x="501" y="-203" font-family="Helvetica,sans-Serif" font-size="10.00">erpc_codec.hpp</text>
</a>
</g>
</g>
<!-- Node1&#45;&gt;Node2 -->
<g id="edge1" class="edge"><title>Node1&#45;&gt;Node2</title>
<path fill="none" stroke="midnightblue" d="M2063.44,-318.605C1920.5,-311.931 1598.03,-296.082 1327,-277 1027.3,-255.9 667.14,-222.334 544.4,-210.662"/>
<polygon fill="midnightblue" stroke="midnightblue" points="2063.68,-322.12 2073.83,-319.088 2064,-315.127 2063.68,-322.12"/>
</g>
<!-- Node12 -->
<g id="node12" class="node"><title>Node12</title>
<g id="a_node12"><a xlink:href="erpc__transport_8hpp.html" target="_top" xlink:title="erpc_transport.hpp">
<polygon fill="white" stroke="black" points="2034,-257.5 2034,-276.5 2132,-276.5 2132,-257.5 2034,-257.5"/>
<text text-anchor="middle" x="2083" y="-264.5" font-family="Helvetica,sans-Serif" font-size="10.00">erpc_transport.hpp</text>
</a>
</g>
</g>
<!-- Node1&#45;&gt;Node12 -->
<g id="edge12" class="edge"><title>Node1&#45;&gt;Node12</title>
<path fill="none" stroke="midnightblue" d="M2121.71,-306.002C2111.96,-296.433 2099.95,-284.639 2091.91,-276.751"/>
<polygon fill="midnightblue" stroke="midnightblue" points="2119.33,-308.575 2128.92,-313.083 2124.23,-303.58 2119.33,-308.575"/>
</g>
<!-- Node13 -->
<g id="node13" class="node"><title>Node13</title>
<g id="a_node13"><a xlink:href="erpc__framed__transport_8hpp.html" target="_top" xlink:title="erpc_framed_transport.hpp">
<polygon fill="white" stroke="black" points="1636,-196 1636,-215 1768,-215 1768,-196 1636,-196"/>
<text text-anchor="middle" x="1702" y="-203" font-family="Helvetica,sans-Serif" font-size="10.00">erpc_framed_transport.hpp</text>
</a>
</g>
</g>
<!-- Node1&#45;&gt;Node13 -->
<g id="edge36" class="edge"><title>Node1&#45;&gt;Node13</title>
<path fill="none" stroke="midnightblue" d="M2095.8,-310.822C2008.98,-287.822 1811.98,-235.636 1734.33,-215.065"/>
<polygon fill="midnightblue" stroke="midnightblue" points="2095.02,-314.236 2105.59,-313.413 2096.82,-307.469 2095.02,-314.236"/>
</g>
<!-- Node19 -->
<g id="node19" class="node"><title>Node19</title>
<g id="a_node19"><a xlink:href="erpc__rpmsg__tty__rtos__transport_8hpp.html" target="_top" xlink:title="erpc_rpmsg_tty_rtos\l_transport.hpp">
<polygon fill="white" stroke="black" points="529,-123.5 529,-153.5 635,-153.5 635,-123.5 529,-123.5"/>
<text text-anchor="start" x="537" y="-141.5" font-family="Helvetica,sans-Serif" font-size="10.00">erpc_rpmsg_tty_rtos</text>
<text text-anchor="middle" x="582" y="-130.5" font-family="Helvetica,sans-Serif" font-size="10.00">_transport.hpp</text>
</a>
</g>
</g>
<!-- Node1&#45;&gt;Node19 -->
<g id="edge41" class="edge"><title>Node1&#45;&gt;Node19</title>
<path fill="none" stroke="midnightblue" d="M2063.84,-316.77C1845.25,-300.688 1184.88,-247.325 644,-154 641.059,-153.493 638.048,-152.931 635.016,-152.332"/>
<polygon fill="midnightblue" stroke="midnightblue" points="2063.68,-320.268 2073.91,-317.507 2064.19,-313.286 2063.68,-320.268"/>
</g>
<!-- Node29 -->
<g id="node29" class="node"><title>Node29</title>
<g id="a_node29"><a xlink:href="erpc__inter__thread__buffer__transport_8hpp.html" target="_top" xlink:title="erpc_inter_thread_buffer\l_transport.hpp">
<polygon fill="white" stroke="black" points="2152,-190.5 2152,-220.5 2272,-220.5 2272,-190.5 2152,-190.5"/>
<text text-anchor="start" x="2160" y="-208.5" font-family="Helvetica,sans-Serif" font-size="10.00">erpc_inter_thread_buffer</text>
<text text-anchor="middle" x="2212" y="-197.5" font-family="Helvetica,sans-Serif" font-size="10.00">_transport.hpp</text>
</a>
</g>
</g>
<!-- Node1&#45;&gt;Node29 -->
<g id="edge37" class="edge"><title>Node1&#45;&gt;Node29</title>
<path fill="none" stroke="midnightblue" d="M2149.13,-304.63C2163.83,-281.679 2189.45,-241.695 2203,-220.545"/>
<polygon fill="midnightblue" stroke="midnightblue" points="2146.01,-303.01 2143.56,-313.319 2151.9,-306.787 2146.01,-303.01"/>
</g>
<!-- Node30 -->
<g id="node30" class="node"><title>Node30</title>
<g id="a_node30"><a xlink:href="erpc__mu__transport_8hpp.html" target="_top" xlink:title="erpc_mu_transport.hpp">
<polygon fill="white" stroke="black" points="2290,-196 2290,-215 2406,-215 2406,-196 2290,-196"/>
<text text-anchor="middle" x="2348" y="-203" font-family="Helvetica,sans-Serif" font-size="10.00">erpc_mu_transport.hpp</text>
</a>
</g>
</g>
<!-- Node1&#45;&gt;Node30 -->
<g id="edge38" class="edge"><title>Node1&#45;&gt;Node30</title>
<path fill="none" stroke="midnightblue" d="M2162.61,-308.465C2206.27,-284.454 2296.07,-235.059 2332.32,-215.124"/>
<polygon fill="midnightblue" stroke="midnightblue" points="2160.86,-305.433 2153.78,-313.319 2164.23,-311.566 2160.86,-305.433"/>
</g>
<!-- Node32 -->
<g id="node32" class="node"><title>Node32</title>
<g id="a_node32"><a xlink:href="erpc__rpmsg__lite__rtos__transport_8hpp.html" target="_top" xlink:title="erpc_rpmsg_lite_rtos\l_transport.hpp">
<polygon fill="white" stroke="black" points="2424.5,-190.5 2424.5,-220.5 2531.5,-220.5 2531.5,-190.5 2424.5,-190.5"/>
<text text-anchor="start" x="2432.5" y="-208.5" font-family="Helvetica,sans-Serif" font-size="10.00">erpc_rpmsg_lite_rtos</text>
<text text-anchor="middle" x="2478" y="-197.5" font-family="Helvetica,sans-Serif" font-size="10.00">_transport.hpp</text>
</a>
</g>
</g>
<!-- Node1&#45;&gt;Node32 -->
<g id="edge39" class="edge"><title>Node1&#45;&gt;Node32</title>
<path fill="none" stroke="midnightblue" d="M2172.78,-310.184C2235.87,-288.753 2368.89,-243.565 2436.57,-220.575"/>
<polygon fill="midnightblue" stroke="midnightblue" points="2171.62,-306.882 2163.28,-313.413 2173.87,-313.51 2171.62,-306.882"/>
</g>
<!-- Node33 -->
<g id="node33" class="node"><title>Node33</title>
<g id="a_node33"><a xlink:href="erpc__rpmsg__lite__transport_8hpp.html" target="_top" xlink:title="erpc_rpmsg_lite_transport.hpp">
<polygon fill="white" stroke="black" points="2550,-196 2550,-215 2698,-215 2698,-196 2550,-196"/>
<text text-anchor="middle" x="2624" y="-203" font-family="Helvetica,sans-Serif" font-size="10.00">erpc_rpmsg_lite_transport.hpp</text>
</a>
</g>
</g>
<!-- Node1&#45;&gt;Node33 -->
<g id="edge40" class="edge"><title>Node1&#45;&gt;Node33</title>
<path fill="none" stroke="midnightblue" d="M2183.86,-311.101C2280.03,-288.247 2501.05,-235.719 2587.96,-215.065"/>
<polygon fill="midnightblue" stroke="midnightblue" points="2183.05,-307.696 2174.13,-313.413 2184.67,-314.506 2183.05,-307.696"/>
</g>
<!-- Node3 -->
<g id="node3" class="node"><title>Node3</title>
<g id="a_node3"><a xlink:href="erpc__client__server__common_8hpp.html" target="_top" xlink:title="erpc_client_server\l_common.hpp">
<polygon fill="white" stroke="black" points="377.5,-123.5 377.5,-153.5 472.5,-153.5 472.5,-123.5 377.5,-123.5"/>
<text text-anchor="start" x="385.5" y="-141.5" font-family="Helvetica,sans-Serif" font-size="10.00">erpc_client_server</text>
<text text-anchor="middle" x="425" y="-130.5" font-family="Helvetica,sans-Serif" font-size="10.00">_common.hpp</text>
</a>
</g>
</g>
<!-- Node2&#45;&gt;Node3 -->
<g id="edge2" class="edge"><title>Node2&#45;&gt;Node3</title>
<path fill="none" stroke="midnightblue" d="M482.793,-188.928C470.224,-178.179 453.649,-164.002 441.473,-153.589"/>
<polygon fill="midnightblue" stroke="midnightblue" points="480.876,-191.894 490.75,-195.734 485.426,-186.574 480.876,-191.894"/>
</g>
<!-- Node6 -->
<g id="node6" class="node"><title>Node6</title>
<g id="a_node6"><a xlink:href="erpc__transport__arbitrator_8hpp.html" target="_top" xlink:title="erpc_transport_arbitrator.hpp">
<polygon fill="white" stroke="black" points="513.5,-6 513.5,-25 654.5,-25 654.5,-6 513.5,-6"/>
<text text-anchor="middle" x="584" y="-13" font-family="Helvetica,sans-Serif" font-size="10.00">erpc_transport_arbitrator.hpp</text>
</a>
</g>
</g>
<!-- Node2&#45;&gt;Node6 -->
<g id="edge10" class="edge"><title>Node2&#45;&gt;Node6</title>
<path fill="none" stroke="midnightblue" d="M503.711,-185.459C506.511,-168.607 511.664,-143.567 520,-123 535.8,-84.0163 564.664,-42.6289 577.522,-25.1186"/>
<polygon fill="midnightblue" stroke="midnightblue" points="500.203,-185.245 502.138,-195.662 507.121,-186.312 500.203,-185.245"/>
</g>
<!-- Node11 -->
<g id="node11" class="node"><title>Node11</title>
<g id="a_node11"><a xlink:href="erpc__basic__codec_8hpp.html" target="_top" xlink:title="erpc_basic_codec.hpp">
<polygon fill="white" stroke="black" points="245,-129 245,-148 359,-148 359,-129 245,-129"/>
<text text-anchor="middle" x="302" y="-136" font-family="Helvetica,sans-Serif" font-size="10.00">erpc_basic_codec.hpp</text>
</a>
</g>
</g>
<!-- Node2&#45;&gt;Node11 -->
<g id="edge11" class="edge"><title>Node2&#45;&gt;Node11</title>
<path fill="none" stroke="midnightblue" d="M464.823,-192.683C425.38,-179.8 363.222,-159.497 328.218,-148.064"/>
<polygon fill="midnightblue" stroke="midnightblue" points="463.982,-196.091 474.574,-195.869 466.155,-189.437 463.982,-196.091"/>
</g>
<!-- Node4 -->
<g id="node4" class="node"><title>Node4</title>
<g id="a_node4"><a xlink:href="erpc__client__manager_8h.html" target="_top" xlink:title="erpc_client_manager.h">
<polygon fill="white" stroke="black" points="245.5,-67.5 245.5,-86.5 360.5,-86.5 360.5,-67.5 245.5,-67.5"/>
<text text-anchor="middle" x="303" y="-74.5" font-family="Helvetica,sans-Serif" font-size="10.00">erpc_client_manager.h</text>
</a>
</g>
</g>
<!-- Node3&#45;&gt;Node4 -->
<g id="edge3" class="edge"><title>Node3&#45;&gt;Node4</title>
<path fill="none" stroke="midnightblue" d="M386.944,-118.94C364.84,-108.159 338.03,-95.0843 320.752,-86.6578"/>
<polygon fill="midnightblue" stroke="midnightblue" points="385.565,-122.162 396.088,-123.399 388.634,-115.87 385.565,-122.162"/>
</g>
<!-- Node9 -->
<g id="node9" class="node"><title>Node9</title>
<g id="a_node9"><a xlink:href="erpc__server_8hpp.html" target="_top" xlink:title="erpc_server.hpp">
<polygon fill="white" stroke="black" points="385.5,-67.5 385.5,-86.5 470.5,-86.5 470.5,-67.5 385.5,-67.5"/>
<text text-anchor="middle" x="428" y="-74.5" font-family="Helvetica,sans-Serif" font-size="10.00">erpc_server.hpp</text>
</a>
</g>
</g>
<!-- Node3&#45;&gt;Node9 -->
<g id="edge8" class="edge"><title>Node3&#45;&gt;Node9</title>
<path fill="none" stroke="midnightblue" d="M426.221,-113.289C426.696,-103.857 427.211,-93.6548 427.563,-86.6578"/>
<polygon fill="midnightblue" stroke="midnightblue" points="422.719,-113.236 425.711,-123.399 429.71,-113.588 422.719,-113.236"/>
</g>
<!-- Node5 -->
<g id="node5" class="node"><title>Node5</title>
<g id="a_node5"><a xlink:href="erpc__arbitrated__client__manager_8hpp.html" target="_top" xlink:title="erpc_arbitrated_client\l_manager.hpp">
<polygon fill="white" stroke="black" points="248,-0.5 248,-30.5 358,-30.5 358,-0.5 248,-0.5"/>
<text text-anchor="start" x="256" y="-18.5" font-family="Helvetica,sans-Serif" font-size="10.00">erpc_arbitrated_client</text>
<text text-anchor="middle" x="303" y="-7.5" font-family="Helvetica,sans-Serif" font-size="10.00">_manager.hpp</text>
</a>
</g>
</g>
<!-- Node4&#45;&gt;Node5 -->
<g id="edge4" class="edge"><title>Node4&#45;&gt;Node5</title>
<path fill="none" stroke="midnightblue" d="M303,-57.2349C303,-48.5864 303,-38.4969 303,-30.523"/>
<polygon fill="midnightblue" stroke="midnightblue" points="299.5,-57.4751 303,-67.4751 306.5,-57.4751 299.5,-57.4751"/>
</g>
<!-- Node4&#45;&gt;Node6 -->
<g id="edge5" class="edge"><title>Node4&#45;&gt;Node6</title>
<path fill="none" stroke="midnightblue" d="M353.05,-65.4023C407.527,-53.8671 493.562,-35.6498 543.814,-25.0091"/>
<polygon fill="midnightblue" stroke="midnightblue" points="352.318,-61.9794 343.26,-67.4751 353.769,-68.8276 352.318,-61.9794"/>
</g>
<!-- Node7 -->
<g id="node7" class="node"><title>Node7</title>
<g id="a_node7"><a xlink:href="erpc__arbitrated__client__setup_8h.html" target="_top" xlink:title="erpc_arbitrated_client\l_setup.h">
<polygon fill="white" stroke="black" points="0,-0.5 0,-30.5 110,-30.5 110,-0.5 0,-0.5"/>
<text text-anchor="start" x="8" y="-18.5" font-family="Helvetica,sans-Serif" font-size="10.00">erpc_arbitrated_client</text>
<text text-anchor="middle" x="55" y="-7.5" font-family="Helvetica,sans-Serif" font-size="10.00">_setup.h</text>
</a>
</g>
</g>
<!-- Node4&#45;&gt;Node7 -->
<g id="edge6" class="edge"><title>Node4&#45;&gt;Node7</title>
<path fill="none" stroke="midnightblue" d="M257.621,-65.1127C216.078,-55.1456 154.495,-40.3707 110.133,-29.7275"/>
<polygon fill="midnightblue" stroke="midnightblue" points="256.927,-68.5455 267.468,-67.4751 258.56,-61.7386 256.927,-68.5455"/>
</g>
<!-- Node8 -->
<g id="node8" class="node"><title>Node8</title>
<g id="a_node8"><a xlink:href="erpc__client__setup_8h.html" target="_top" xlink:title="erpc_client_setup.h">
<polygon fill="white" stroke="black" points="128.5,-6 128.5,-25 229.5,-25 229.5,-6 128.5,-6"/>
<text text-anchor="middle" x="179" y="-13" font-family="Helvetica,sans-Serif" font-size="10.00">erpc_client_setup.h</text>
</a>
</g>
</g>
<!-- Node4&#45;&gt;Node8 -->
<g id="edge7" class="edge"><title>Node4&#45;&gt;Node8</title>
<path fill="none" stroke="midnightblue" d="M275.951,-63.0207C251.903,-51.4816 217.437,-34.9433 196.733,-25.0091"/>
<polygon fill="midnightblue" stroke="midnightblue" points="274.704,-66.3044 285.234,-67.4751 277.732,-59.9934 274.704,-66.3044"/>
</g>
<!-- Node10 -->
<g id="node10" class="node"><title>Node10</title>
<g id="a_node10"><a xlink:href="erpc__simple__server_8hpp.html" target="_top" xlink:title="erpc_simple_server.hpp">
<polygon fill="white" stroke="black" points="376.5,-6 376.5,-25 495.5,-25 495.5,-6 376.5,-6"/>
<text text-anchor="middle" x="436" y="-13" font-family="Helvetica,sans-Serif" font-size="10.00">erpc_simple_server.hpp</text>
</a>
</g>
</g>
<!-- Node9&#45;&gt;Node10 -->
<g id="edge9" class="edge"><title>Node9&#45;&gt;Node10</title>
<path fill="none" stroke="midnightblue" d="M430.512,-57.3165C431.967,-46.4962 433.728,-33.398 434.856,-25.0091"/>
<polygon fill="midnightblue" stroke="midnightblue" points="427.01,-57.0979 429.146,-67.4751 433.948,-58.0307 427.01,-57.0979"/>
</g>
<!-- Node12&#45;&gt;Node2 -->
<g id="edge13" class="edge"><title>Node12&#45;&gt;Node2</title>
<path fill="none" stroke="midnightblue" d="M2023.74,-263.771C1768.4,-254.168 765.16,-216.435 544.203,-208.125"/>
<polygon fill="midnightblue" stroke="midnightblue" points="2023.79,-267.276 2033.92,-264.154 2024.06,-260.281 2023.79,-267.276"/>
</g>
<!-- Node12&#45;&gt;Node6 -->
<g id="edge14" class="edge"><title>Node12&#45;&gt;Node6</title>
<path fill="none" stroke="midnightblue" d="M2023.74,-260.055C1949.2,-251.97 1829.28,-236.706 1816,-221 1807.1,-210.479 1806.46,-199.936 1816,-190 1885.02,-118.146 2642.98,-225.854 2712,-154 2721.54,-144.064 2721.5,-132.983 2712,-123 2639.5,-46.7815 1015.3,-21.9224 654.555,-17.332"/>
<polygon fill="midnightblue" stroke="midnightblue" points="2023.62,-263.562 2033.94,-261.147 2024.37,-256.602 2023.62,-263.562"/>
</g>
<!-- Node12&#45;&gt;Node13 -->
<g id="edge15" class="edge"><title>Node12&#45;&gt;Node13</title>
<path fill="none" stroke="midnightblue" d="M2023.75,-257.693C1962.98,-249.045 1865.77,-234.851 1782,-221 1770.86,-219.158 1758.87,-217.051 1747.65,-215.025"/>
<polygon fill="midnightblue" stroke="midnightblue" points="2023.53,-261.197 2033.92,-259.137 2024.51,-254.266 2023.53,-261.197"/>
</g>
<!-- Node28 -->
<g id="node28" class="node"><title>Node28</title>
<g id="a_node28"><a xlink:href="erpc__message__loggers_8hpp.html" target="_top" xlink:title="erpc_message_loggers.hpp">
<polygon fill="white" stroke="black" points="1998,-196 1998,-215 2134,-215 2134,-196 1998,-196"/>
<text text-anchor="middle" x="2066" y="-203" font-family="Helvetica,sans-Serif" font-size="10.00">erpc_message_loggers.hpp</text>
</a>
</g>
</g>
<!-- Node12&#45;&gt;Node28 -->
<g id="edge30" class="edge"><title>Node12&#45;&gt;Node28</title>
<path fill="none" stroke="midnightblue" d="M2077.76,-247.657C2074.65,-236.772 2070.85,-223.486 2068.43,-215.009"/>
<polygon fill="midnightblue" stroke="midnightblue" points="2074.45,-248.821 2080.56,-257.475 2081.18,-246.898 2074.45,-248.821"/>
</g>
<!-- Node12&#45;&gt;Node29 -->
<g id="edge31" class="edge"><title>Node12&#45;&gt;Node29</title>
<path fill="none" stroke="midnightblue" d="M2110.75,-253.2C2131.6,-243.585 2160.13,-230.423 2181.6,-220.523"/>
<polygon fill="midnightblue" stroke="midnightblue" points="2109.1,-250.108 2101.48,-257.475 2112.03,-256.465 2109.1,-250.108"/>
</g>
<!-- Node12&#45;&gt;Node30 -->
<g id="edge32" class="edge"><title>Node12&#45;&gt;Node30</title>
<path fill="none" stroke="midnightblue" d="M2130.84,-255.258C2182.25,-243.716 2262.91,-225.606 2310.1,-215.009"/>
<polygon fill="midnightblue" stroke="midnightblue" points="2129.96,-251.869 2120.97,-257.475 2131.49,-258.699 2129.96,-251.869"/>
</g>
<!-- Node31 -->
<g id="node31" class="node"><title>Node31</title>
<g id="a_node31"><a xlink:href="erpc__rpmsg__linux__transport_8hpp_source.html" target="_top" xlink:title="erpc_rpmsg_linux_transport.hpp">
<polygon fill="white" stroke="black" points="1824.5,-196 1824.5,-215 1979.5,-215 1979.5,-196 1824.5,-196"/>
<text text-anchor="middle" x="1902" y="-203" font-family="Helvetica,sans-Serif" font-size="10.00">erpc_rpmsg_linux_transport.hpp</text>
</a>
</g>
</g>
<!-- Node12&#45;&gt;Node31 -->
<g id="edge33" class="edge"><title>Node12&#45;&gt;Node31</title>
<path fill="none" stroke="midnightblue" d="M2047.2,-254.232C2012.02,-242.666 1959.18,-225.297 1927.88,-215.009"/>
<polygon fill="midnightblue" stroke="midnightblue" points="2046.47,-257.677 2057.07,-257.475 2048.66,-251.027 2046.47,-257.677"/>
</g>
<!-- Node12&#45;&gt;Node32 -->
<g id="edge34" class="edge"><title>Node12&#45;&gt;Node32</title>
<path fill="none" stroke="midnightblue" d="M2142.47,-259.602C2209.1,-252.047 2320.22,-238.293 2415,-221 2418.09,-220.436 2421.26,-219.822 2424.45,-219.175"/>
<polygon fill="midnightblue" stroke="midnightblue" points="2141.71,-256.165 2132.16,-260.761 2142.49,-263.121 2141.71,-256.165"/>
</g>
<!-- Node12&#45;&gt;Node33 -->
<g id="edge35" class="edge"><title>Node12&#45;&gt;Node33</title>
<path fill="none" stroke="midnightblue" d="M2142.28,-261.605C2229.74,-254.797 2398.41,-240.432 2541,-221 2553.32,-219.321 2566.61,-217.158 2578.87,-215.019"/>
<polygon fill="midnightblue" stroke="midnightblue" points="2141.98,-258.117 2132.28,-262.378 2142.52,-265.097 2141.98,-258.117"/>
</g>
<!-- Node14 -->
<g id="node14" class="node"><title>Node14</title>
<g id="a_node14"><a xlink:href="erpc__dspi__master__transport_8hpp.html" target="_top" xlink:title="erpc_dspi_master_transport.hpp">
<polygon fill="white" stroke="black" points="2547,-129 2547,-148 2703,-148 2703,-129 2547,-129"/>
<text text-anchor="middle" x="2625" y="-136" font-family="Helvetica,sans-Serif" font-size="10.00">erpc_dspi_master_transport.hpp</text>
</a>
</g>
</g>
<!-- Node13&#45;&gt;Node14 -->
<g id="edge16" class="edge"><title>Node13&#45;&gt;Node14</title>
<path fill="none" stroke="midnightblue" d="M1753.45,-194.144C1762.92,-192.533 1772.73,-191.056 1782,-190 2116.22,-151.922 2203.52,-189.712 2538,-154 2551.7,-152.537 2566.52,-150.31 2579.98,-148.038"/>
<polygon fill="midnightblue" stroke="midnightblue" points="1752.6,-190.74 1743.37,-195.93 1753.82,-197.633 1752.6,-190.74"/>
</g>
<!-- Node15 -->
<g id="node15" class="node"><title>Node15</title>
<g id="a_node15"><a xlink:href="erpc__dspi__slave__transport_8hpp.html" target="_top" xlink:title="erpc_dspi_slave_transport.hpp">
<polygon fill="white" stroke="black" points="653,-129 653,-148 801,-148 801,-129 653,-129"/>
<text text-anchor="middle" x="727" y="-136" font-family="Helvetica,sans-Serif" font-size="10.00">erpc_dspi_slave_transport.hpp</text>
</a>
</g>
</g>
<!-- Node13&#45;&gt;Node15 -->
<g id="edge17" class="edge"><title>Node13&#45;&gt;Node15</title>
<path fill="none" stroke="midnightblue" d="M1625.46,-201.29C1439.53,-193.309 967.838,-171.922 811,-154 797.914,-152.505 783.774,-150.297 770.895,-148.052"/>
<polygon fill="midnightblue" stroke="midnightblue" points="1625.56,-204.797 1635.7,-201.728 1625.85,-197.803 1625.56,-204.797"/>
</g>
<!-- Node16 -->
<g id="node16" class="node"><title>Node16</title>
<g id="a_node16"><a xlink:href="erpc__i2c__slave__transport_8hpp.html" target="_top" xlink:title="erpc_i2c_slave_transport.hpp">
<polygon fill="white" stroke="black" points="819.5,-129 819.5,-148 962.5,-148 962.5,-129 819.5,-129"/>
<text text-anchor="middle" x="891" y="-136" font-family="Helvetica,sans-Serif" font-size="10.00">erpc_i2c_slave_transport.hpp</text>
</a>
</g>
</g>
<!-- Node13&#45;&gt;Node16 -->
<g id="edge18" class="edge"><title>Node13&#45;&gt;Node16</title>
<path fill="none" stroke="midnightblue" d="M1625.74,-201.939C1492.65,-196.864 1209.46,-183.38 972,-154 959.523,-152.456 946.053,-150.261 933.747,-148.043"/>
<polygon fill="midnightblue" stroke="midnightblue" points="1625.71,-205.44 1635.84,-202.319 1625.98,-198.445 1625.71,-205.44"/>
</g>
<!-- Node17 -->
<g id="node17" class="node"><title>Node17</title>
<g id="a_node17"><a xlink:href="erpc__lpi2c__slave__transport_8hpp.html" target="_top" xlink:title="erpc_lpi2c_slave_transport.hpp">
<polygon fill="white" stroke="black" points="981,-129 981,-148 1131,-148 1131,-129 981,-129"/>
<text text-anchor="middle" x="1056" y="-136" font-family="Helvetica,sans-Serif" font-size="10.00">erpc_lpi2c_slave_transport.hpp</text>
</a>
</g>
</g>
<!-- Node13&#45;&gt;Node17 -->
<g id="edge19" class="edge"><title>Node13&#45;&gt;Node17</title>
<path fill="none" stroke="midnightblue" d="M1625.44,-199.602C1517.08,-192.22 1312.9,-176.653 1140,-154 1127.38,-152.347 1113.76,-150.168 1101.24,-148.003"/>
<polygon fill="midnightblue" stroke="midnightblue" points="1625.41,-203.108 1635.62,-200.291 1625.88,-196.124 1625.41,-203.108"/>
</g>
<!-- Node18 -->
<g id="node18" class="node"><title>Node18</title>
<g id="a_node18"><a xlink:href="erpc__lpspi__slave__transport_8hpp.html" target="_top" xlink:title="erpc_lpspi_slave_transport.hpp">
<polygon fill="white" stroke="black" points="1149,-129 1149,-148 1299,-148 1299,-129 1149,-129"/>
<text text-anchor="middle" x="1224" y="-136" font-family="Helvetica,sans-Serif" font-size="10.00">erpc_lpspi_slave_transport.hpp</text>
</a>
</g>
</g>
<!-- Node13&#45;&gt;Node18 -->
<g id="edge20" class="edge"><title>Node13&#45;&gt;Node18</title>
<path fill="none" stroke="midnightblue" d="M1625.59,-195.704C1546.12,-186.321 1418.14,-170.556 1308,-154 1296.15,-152.218 1283.38,-150.112 1271.48,-148.066"/>
<polygon fill="midnightblue" stroke="midnightblue" points="1625.66,-199.236 1636,-196.929 1626.48,-192.284 1625.66,-199.236"/>
</g>
<!-- Node13&#45;&gt;Node19 -->
<g id="edge21" class="edge"><title>Node13&#45;&gt;Node19</title>
<path fill="none" stroke="midnightblue" d="M1625.63,-201.237C1390.83,-191.152 692.425,-160.761 644,-154 641.153,-153.603 638.246,-153.136 635.318,-152.619"/>
<polygon fill="midnightblue" stroke="midnightblue" points="1625.65,-204.741 1635.79,-201.673 1625.95,-197.747 1625.65,-204.741"/>
</g>
<!-- Node20 -->
<g id="node20" class="node"><title>Node20</title>
<g id="a_node20"><a xlink:href="erpc__serial__transport_8hpp.html" target="_top" xlink:title="erpc_serial_transport.hpp">
<polygon fill="white" stroke="black" points="1317,-129 1317,-148 1443,-148 1443,-129 1317,-129"/>
<text text-anchor="middle" x="1380" y="-136" font-family="Helvetica,sans-Serif" font-size="10.00">erpc_serial_transport.hpp</text>
</a>
</g>
</g>
<!-- Node13&#45;&gt;Node20 -->
<g id="edge22" class="edge"><title>Node13&#45;&gt;Node20</title>
<path fill="none" stroke="midnightblue" d="M1649.39,-193.879C1585.97,-181.077 1480.66,-159.819 1422.26,-148.032"/>
<polygon fill="midnightblue" stroke="midnightblue" points="1649.08,-197.388 1659.57,-195.936 1650.46,-190.526 1649.08,-197.388"/>
</g>
<!-- Node21 -->
<g id="node21" class="node"><title>Node21</title>
<g id="a_node21"><a xlink:href="erpc__spi__master__transport_8hpp.html" target="_top" xlink:title="erpc_spi_master_transport.hpp">
<polygon fill="white" stroke="black" points="1461.5,-129 1461.5,-148 1612.5,-148 1612.5,-129 1461.5,-129"/>
<text text-anchor="middle" x="1537" y="-136" font-family="Helvetica,sans-Serif" font-size="10.00">erpc_spi_master_transport.hpp</text>
</a>
</g>
</g>
<!-- Node13&#45;&gt;Node21 -->
<g id="edge23" class="edge"><title>Node13&#45;&gt;Node21</title>
<path fill="none" stroke="midnightblue" d="M1670.53,-192.104C1637.77,-179.198 1587.33,-159.327 1558.74,-148.064"/>
<polygon fill="midnightblue" stroke="midnightblue" points="1669.5,-195.46 1680.09,-195.869 1672.07,-188.947 1669.5,-195.46"/>
</g>
<!-- Node22 -->
<g id="node22" class="node"><title>Node22</title>
<g id="a_node22"><a xlink:href="erpc__spi__slave__transport_8hpp.html" target="_top" xlink:title="erpc_spi_slave_transport.hpp">
<polygon fill="white" stroke="black" points="1630.5,-129 1630.5,-148 1773.5,-148 1773.5,-129 1630.5,-129"/>
<text text-anchor="middle" x="1702" y="-136" font-family="Helvetica,sans-Serif" font-size="10.00">erpc_spi_slave_transport.hpp</text>
</a>
</g>
</g>
<!-- Node13&#45;&gt;Node22 -->
<g id="edge24" class="edge"><title>Node13&#45;&gt;Node22</title>
<path fill="none" stroke="midnightblue" d="M1702,-185.537C1702,-173.17 1702,-157.62 1702,-148.127"/>
<polygon fill="midnightblue" stroke="midnightblue" points="1698.5,-185.734 1702,-195.734 1705.5,-185.734 1698.5,-185.734"/>
</g>
<!-- Node23 -->
<g id="node23" class="node"><title>Node23</title>
<g id="a_node23"><a xlink:href="erpc__spidev__master__transport_8hpp.html" target="_top" xlink:title="erpc_spidev_master\l_transport.hpp">
<polygon fill="white" stroke="black" points="1791.5,-123.5 1791.5,-153.5 1894.5,-153.5 1894.5,-123.5 1791.5,-123.5"/>
<text text-anchor="start" x="1799.5" y="-141.5" font-family="Helvetica,sans-Serif" font-size="10.00">erpc_spidev_master</text>
<text text-anchor="middle" x="1843" y="-130.5" font-family="Helvetica,sans-Serif" font-size="10.00">_transport.hpp</text>
</a>
</g>
</g>
<!-- Node13&#45;&gt;Node23 -->
<g id="edge25" class="edge"><title>Node13&#45;&gt;Node23</title>
<path fill="none" stroke="midnightblue" d="M1729.94,-191.621C1753.79,-180.625 1788.03,-164.841 1812.57,-153.528"/>
<polygon fill="midnightblue" stroke="midnightblue" points="1728.34,-188.503 1720.72,-195.869 1731.27,-194.86 1728.34,-188.503"/>
</g>
<!-- Node24 -->
<g id="node24" class="node"><title>Node24</title>
<g id="a_node24"><a xlink:href="erpc__tcp__transport_8hpp.html" target="_top" xlink:title="erpc_tcp_transport.hpp">
<polygon fill="white" stroke="black" points="1913,-129 1913,-148 2029,-148 2029,-129 1913,-129"/>
<text text-anchor="middle" x="1971" y="-136" font-family="Helvetica,sans-Serif" font-size="10.00">erpc_tcp_transport.hpp</text>
</a>
</g>
</g>
<!-- Node13&#45;&gt;Node24 -->
<g id="edge26" class="edge"><title>Node13&#45;&gt;Node24</title>
<path fill="none" stroke="midnightblue" d="M1747.26,-193.564C1800.29,-180.75 1887.05,-159.785 1935.48,-148.083"/>
<polygon fill="midnightblue" stroke="midnightblue" points="1746.34,-190.185 1737.44,-195.936 1747.99,-196.989 1746.34,-190.185"/>
</g>
<!-- Node25 -->
<g id="node25" class="node"><title>Node25</title>
<g id="a_node25"><a xlink:href="erpc__uart__cmsis__transport_8hpp.html" target="_top" xlink:title="erpc_uart_cmsis_transport.hpp">
<polygon fill="white" stroke="black" points="2047.5,-129 2047.5,-148 2198.5,-148 2198.5,-129 2047.5,-129"/>
<text text-anchor="middle" x="2123" y="-136" font-family="Helvetica,sans-Serif" font-size="10.00">erpc_uart_cmsis_transport.hpp</text>
</a>
</g>
</g>
<!-- Node13&#45;&gt;Node25 -->
<g id="edge27" class="edge"><title>Node13&#45;&gt;Node25</title>
<path fill="none" stroke="midnightblue" d="M1757.21,-194.198C1765.51,-192.735 1773.97,-191.291 1782,-190 1895.44,-171.751 1924.47,-171.662 2038,-154 2049.83,-152.159 2062.57,-150.053 2074.49,-148.026"/>
<polygon fill="midnightblue" stroke="midnightblue" points="1756.45,-190.779 1747.22,-195.982 1757.68,-197.671 1756.45,-190.779"/>
</g>
<!-- Node26 -->
<g id="node26" class="node"><title>Node26</title>
<g id="a_node26"><a xlink:href="erpc__uart__zephyr__transport_8hpp.html" target="_top" xlink:title="erpc_uart_zephyr_transport.hpp">
<polygon fill="white" stroke="black" points="2217,-129 2217,-148 2371,-148 2371,-129 2217,-129"/>
<text text-anchor="middle" x="2294" y="-136" font-family="Helvetica,sans-Serif" font-size="10.00">erpc_uart_zephyr_transport.hpp</text>
</a>
</g>
</g>
<!-- Node13&#45;&gt;Node26 -->
<g id="edge28" class="edge"><title>Node13&#45;&gt;Node26</title>
<path fill="none" stroke="midnightblue" d="M1754.73,-194.211C1763.8,-192.65 1773.16,-191.173 1782,-190 1970.36,-165.028 2019.49,-177.816 2208,-154 2220.92,-152.368 2234.86,-150.196 2247.69,-148.031"/>
<polygon fill="midnightblue" stroke="midnightblue" points="1753.88,-190.806 1744.65,-195.996 1755.1,-197.699 1753.88,-190.806"/>
</g>
<!-- Node27 -->
<g id="node27" class="node"><title>Node27</title>
<g id="a_node27"><a xlink:href="erpc__usb__cdc__transport_8hpp.html" target="_top" xlink:title="erpc_usb_cdc_transport.hpp">
<polygon fill="white" stroke="black" points="2389,-129 2389,-148 2529,-148 2529,-129 2389,-129"/>
<text text-anchor="middle" x="2459" y="-136" font-family="Helvetica,sans-Serif" font-size="10.00">erpc_usb_cdc_transport.hpp</text>
</a>
</g>
</g>
<!-- Node13&#45;&gt;Node27 -->
<g id="edge29" class="edge"><title>Node13&#45;&gt;Node27</title>
<path fill="none" stroke="midnightblue" d="M1753.78,-194.186C1763.14,-192.586 1772.84,-191.102 1782,-190 2046.35,-158.201 2115.68,-186.093 2380,-154 2392.32,-152.504 2405.62,-150.296 2417.73,-148.051"/>
<polygon fill="midnightblue" stroke="midnightblue" points="1753.03,-190.764 1743.79,-195.954 1754.25,-197.657 1753.03,-190.764"/>
</g>
</g>
</svg>
