<?xml version="1.0" encoding="UTF-8" standalone="no"?>
<!DOCTYPE svg PUBLIC "-//W3C//DTD SVG 1.1//EN"
 "http://www.w3.org/Graphics/SVG/1.1/DTD/svg11.dtd">
<!-- Generated by graphviz version 2.38.0 (20140413.2041)
 -->
<!-- Title: erpc_rpmsg_lite_rtos_transport.hpp Pages: 1 -->
<svg width="657pt" height="274pt"
 viewBox="0.00 0.00 656.50 274.00" xmlns="http://www.w3.org/2000/svg" xmlns:xlink="http://www.w3.org/1999/xlink">
<g id="graph0" class="graph" transform="scale(1 1) rotate(0) translate(4 270)">
<title>erpc_rpmsg_lite_rtos_transport.hpp</title>
<polygon fill="white" stroke="none" points="-4,4 -4,-270 652.5,-270 652.5,4 -4,4"/>
<!-- Node1 -->
<g id="node1" class="node"><title>Node1</title>
<polygon fill="#bfbfbf" stroke="black" points="323,-235.5 323,-265.5 430,-265.5 430,-235.5 323,-235.5"/>
<text text-anchor="start" x="331" y="-253.5" font-family="Helvetica,sans-Serif" font-size="10.00">erpc_rpmsg_lite_rtos</text>
<text text-anchor="middle" x="376.5" y="-242.5" font-family="Helvetica,sans-Serif" font-size="10.00">_transport.hpp</text>
</g>
<!-- Node2 -->
<g id="node2" class="node"><title>Node2</title>
<g id="a_node2"><a xlink:href="erpc__crc16_8hpp.html" target="_top" xlink:title="erpc_crc16.hpp">
<polygon fill="white" stroke="black" points="0,-56.5 0,-75.5 83,-75.5 83,-56.5 0,-56.5"/>
<text text-anchor="middle" x="41.5" y="-63.5" font-family="Helvetica,sans-Serif" font-size="10.00">erpc_crc16.hpp</text>
</a>
</g>
</g>
<!-- Node1&#45;&gt;Node2 -->
<g id="edge1" class="edge"><title>Node1&#45;&gt;Node2</title>
<path fill="none" stroke="midnightblue" d="M325.454,-235.453C297.021,-226.718 261.428,-214.246 231.5,-199 163.494,-164.356 91.7632,-108.416 59.3055,-81.8815"/>
<polygon fill="midnightblue" stroke="midnightblue" points="61.5179,-79.1694 51.5756,-75.5087 57.065,-84.5706 61.5179,-79.1694"/>
</g>
<!-- Node4 -->
<g id="node4" class="node"><title>Node4</title>
<g id="a_node4"><a xlink:href="erpc__message__buffer_8hpp.html" target="_top" xlink:title="erpc_message_buffer.hpp">
<polygon fill="white" stroke="black" points="101.5,-56.5 101.5,-75.5 229.5,-75.5 229.5,-56.5 101.5,-56.5"/>
<text text-anchor="middle" x="165.5" y="-63.5" font-family="Helvetica,sans-Serif" font-size="10.00">erpc_message_buffer.hpp</text>
</a>
</g>
</g>
<!-- Node1&#45;&gt;Node4 -->
<g id="edge3" class="edge"><title>Node1&#45;&gt;Node4</title>
<path fill="none" stroke="midnightblue" d="M344.106,-235.421C304.499,-216.797 237.561,-180.57 195.5,-132 183.816,-118.507 175.8,-99.6978 171.013,-85.7827"/>
<polygon fill="midnightblue" stroke="midnightblue" points="174.226,-84.3356 167.859,-75.8674 167.555,-86.4578 174.226,-84.3356"/>
</g>
<!-- Node8 -->
<g id="node8" class="node"><title>Node8</title>
<g id="a_node8"><a xlink:href="erpc__rpmsg__lite__base__transport_8hpp.html" target="_top" xlink:title="erpc_rpmsg_lite_base\l_transport.hpp">
<polygon fill="white" stroke="black" points="320.5,-168.5 320.5,-198.5 432.5,-198.5 432.5,-168.5 320.5,-168.5"/>
<text text-anchor="start" x="328.5" y="-186.5" font-family="Helvetica,sans-Serif" font-size="10.00">erpc_rpmsg_lite_base</text>
<text text-anchor="middle" x="376.5" y="-175.5" font-family="Helvetica,sans-Serif" font-size="10.00">_transport.hpp</text>
</a>
</g>
</g>
<!-- Node1&#45;&gt;Node8 -->
<g id="edge7" class="edge"><title>Node1&#45;&gt;Node8</title>
<path fill="none" stroke="midnightblue" d="M376.5,-235.396C376.5,-227.645 376.5,-217.812 376.5,-208.86"/>
<polygon fill="midnightblue" stroke="midnightblue" points="380,-208.576 376.5,-198.577 373,-208.577 380,-208.576"/>
</g>
<!-- Node14 -->
<g id="node14" class="node"><title>Node14</title>
<polygon fill="white" stroke="#bfbfbf" points="578.5,-112.5 578.5,-131.5 648.5,-131.5 648.5,-112.5 578.5,-112.5"/>
<text text-anchor="middle" x="613.5" y="-119.5" font-family="Helvetica,sans-Serif" font-size="10.00">rpmsg_lite.h</text>
</g>
<!-- Node1&#45;&gt;Node14 -->
<g id="edge18" class="edge"><title>Node1&#45;&gt;Node14</title>
<path fill="none" stroke="midnightblue" d="M394.802,-235.466C407.876,-225.396 425.848,-211.461 441.5,-199 458.552,-185.424 460.416,-178.529 479.5,-168 507.509,-152.548 541.735,-141.165 568.586,-133.713"/>
<polygon fill="midnightblue" stroke="midnightblue" points="569.74,-137.027 578.487,-131.05 567.921,-130.268 569.74,-137.027"/>
</g>
<!-- Node16 -->
<g id="node16" class="node"><title>Node16</title>
<polygon fill="white" stroke="#bfbfbf" points="489,-174 489,-193 572,-193 572,-174 489,-174"/>
<text text-anchor="middle" x="530.5" y="-181" font-family="Helvetica,sans-Serif" font-size="10.00">rpmsg_queue.h</text>
</g>
<!-- Node1&#45;&gt;Node16 -->
<g id="edge19" class="edge"><title>Node1&#45;&gt;Node16</title>
<path fill="none" stroke="midnightblue" d="M409.916,-235.396C437.056,-223.941 474.969,-207.938 500.998,-196.952"/>
<polygon fill="midnightblue" stroke="midnightblue" points="502.493,-200.12 510.345,-193.007 499.771,-193.671 502.493,-200.12"/>
</g>
<!-- Node3 -->
<g id="node3" class="node"><title>Node3</title>
<polygon fill="white" stroke="#bfbfbf" points="16.5,-0.5 16.5,-19.5 62.5,-19.5 62.5,-0.5 16.5,-0.5"/>
<text text-anchor="middle" x="39.5" y="-7.5" font-family="Helvetica,sans-Serif" font-size="10.00">cstdint</text>
</g>
<!-- Node2&#45;&gt;Node3 -->
<g id="edge2" class="edge"><title>Node2&#45;&gt;Node3</title>
<path fill="none" stroke="midnightblue" d="M41.1697,-56.083C40.9076,-49.0059 40.5319,-38.8611 40.2032,-29.9865"/>
<polygon fill="midnightblue" stroke="midnightblue" points="43.6919,-29.6147 39.8241,-19.7511 36.6967,-29.8738 43.6919,-29.6147"/>
</g>
<!-- Node5 -->
<g id="node5" class="node"><title>Node5</title>
<g id="a_node5"><a xlink:href="erpc__common_8h_source.html" target="_top" xlink:title="erpc_common.h">
<polygon fill="white" stroke="black" points="214.5,-0.5 214.5,-19.5 300.5,-19.5 300.5,-0.5 214.5,-0.5"/>
<text text-anchor="middle" x="257.5" y="-7.5" font-family="Helvetica,sans-Serif" font-size="10.00">erpc_common.h</text>
</a>
</g>
</g>
<!-- Node4&#45;&gt;Node5 -->
<g id="edge4" class="edge"><title>Node4&#45;&gt;Node5</title>
<path fill="none" stroke="midnightblue" d="M180.281,-56.324C194.767,-47.8215 217.073,-34.7288 233.993,-24.7975"/>
<polygon fill="midnightblue" stroke="midnightblue" points="235.903,-27.735 242.755,-19.6545 232.359,-21.6981 235.903,-27.735"/>
</g>
<!-- Node6 -->
<g id="node6" class="node"><title>Node6</title>
<polygon fill="white" stroke="#bfbfbf" points="148.5,-0.5 148.5,-19.5 196.5,-19.5 196.5,-0.5 148.5,-0.5"/>
<text text-anchor="middle" x="172.5" y="-7.5" font-family="Helvetica,sans-Serif" font-size="10.00">cstddef</text>
</g>
<!-- Node4&#45;&gt;Node6 -->
<g id="edge5" class="edge"><title>Node4&#45;&gt;Node6</title>
<path fill="none" stroke="midnightblue" d="M166.656,-56.083C167.584,-48.9272 168.918,-38.6353 170.077,-29.6911"/>
<polygon fill="midnightblue" stroke="midnightblue" points="173.551,-30.1181 171.366,-19.7511 166.609,-29.2181 173.551,-30.1181"/>
</g>
<!-- Node7 -->
<g id="node7" class="node"><title>Node7</title>
<polygon fill="white" stroke="#bfbfbf" points="81,-0.5 81,-19.5 130,-19.5 130,-0.5 81,-0.5"/>
<text text-anchor="middle" x="105.5" y="-7.5" font-family="Helvetica,sans-Serif" font-size="10.00">stdint.h</text>
</g>
<!-- Node4&#45;&gt;Node7 -->
<g id="edge6" class="edge"><title>Node4&#45;&gt;Node7</title>
<path fill="none" stroke="midnightblue" d="M155.86,-56.324C146.99,-48.3414 133.625,-36.3128 122.892,-26.6529"/>
<polygon fill="midnightblue" stroke="midnightblue" points="125.09,-23.922 115.315,-19.8339 120.407,-29.1251 125.09,-23.922"/>
</g>
<!-- Node9 -->
<g id="node9" class="node"><title>Node9</title>
<g id="a_node9"><a xlink:href="erpc__config__internal_8h_source.html" target="_top" xlink:title="erpc_config_internal.h">
<polygon fill="white" stroke="black" points="321,-112.5 321,-131.5 432,-131.5 432,-112.5 321,-112.5"/>
<text text-anchor="middle" x="376.5" y="-119.5" font-family="Helvetica,sans-Serif" font-size="10.00">erpc_config_internal.h</text>
</a>
</g>
</g>
<!-- Node8&#45;&gt;Node9 -->
<g id="edge8" class="edge"><title>Node8&#45;&gt;Node9</title>
<path fill="none" stroke="midnightblue" d="M376.5,-168.399C376.5,-160.466 376.5,-150.458 376.5,-141.858"/>
<polygon fill="midnightblue" stroke="midnightblue" points="380,-141.658 376.5,-131.658 373,-141.658 380,-141.658"/>
</g>
<!-- Node12 -->
<g id="node12" class="node"><title>Node12</title>
<g id="a_node12"><a xlink:href="erpc__transport_8hpp.html" target="_top" xlink:title="erpc_transport.hpp">
<polygon fill="white" stroke="black" points="204.5,-112.5 204.5,-131.5 302.5,-131.5 302.5,-112.5 204.5,-112.5"/>
<text text-anchor="middle" x="253.5" y="-119.5" font-family="Helvetica,sans-Serif" font-size="10.00">erpc_transport.hpp</text>
</a>
</g>
</g>
<!-- Node8&#45;&gt;Node12 -->
<g id="edge11" class="edge"><title>Node8&#45;&gt;Node12</title>
<path fill="none" stroke="midnightblue" d="M347.351,-168.399C327.082,-158.595 300.259,-145.619 280.481,-136.052"/>
<polygon fill="midnightblue" stroke="midnightblue" points="281.924,-132.862 271.398,-131.658 278.876,-139.163 281.924,-132.862"/>
</g>
<!-- Node8&#45;&gt;Node14 -->
<g id="edge16" class="edge"><title>Node8&#45;&gt;Node14</title>
<path fill="none" stroke="midnightblue" d="M432.366,-168.475C474.324,-157.941 530.985,-143.716 569.694,-133.998"/>
<polygon fill="midnightblue" stroke="midnightblue" points="570.771,-137.336 579.617,-131.506 569.066,-130.547 570.771,-137.336"/>
</g>
<!-- Node15 -->
<g id="node15" class="node"><title>Node15</title>
<polygon fill="white" stroke="#bfbfbf" points="450.5,-112.5 450.5,-131.5 560.5,-131.5 560.5,-112.5 450.5,-112.5"/>
<text text-anchor="middle" x="505.5" y="-119.5" font-family="Helvetica,sans-Serif" font-size="10.00">rpmsg_env_specific.h</text>
</g>
<!-- Node8&#45;&gt;Node15 -->
<g id="edge17" class="edge"><title>Node8&#45;&gt;Node15</title>
<path fill="none" stroke="midnightblue" d="M407.071,-168.399C428.425,-158.55 456.715,-145.501 477.485,-135.922"/>
<polygon fill="midnightblue" stroke="midnightblue" points="479.115,-139.024 486.729,-131.658 476.183,-132.668 479.115,-139.024"/>
</g>
<!-- Node10 -->
<g id="node10" class="node"><title>Node10</title>
<g id="a_node10"><a xlink:href="erpc__config_8h.html" target="_top" xlink:title="erpc_config.h">
<polygon fill="white" stroke="black" points="349.5,-56.5 349.5,-75.5 423.5,-75.5 423.5,-56.5 349.5,-56.5"/>
<text text-anchor="middle" x="386.5" y="-63.5" font-family="Helvetica,sans-Serif" font-size="10.00">erpc_config.h</text>
</a>
</g>
</g>
<!-- Node9&#45;&gt;Node10 -->
<g id="edge9" class="edge"><title>Node9&#45;&gt;Node10</title>
<path fill="none" stroke="midnightblue" d="M378.151,-112.083C379.476,-104.927 381.382,-94.6353 383.039,-85.6911"/>
<polygon fill="midnightblue" stroke="midnightblue" points="386.5,-86.2212 384.879,-75.7511 379.617,-84.9466 386.5,-86.2212"/>
</g>
<!-- Node11 -->
<g id="node11" class="node"><title>Node11</title>
<polygon fill="white" stroke="#bfbfbf" points="442,-56.5 442,-75.5 491,-75.5 491,-56.5 442,-56.5"/>
<text text-anchor="middle" x="466.5" y="-63.5" font-family="Helvetica,sans-Serif" font-size="10.00">cassert</text>
</g>
<!-- Node9&#45;&gt;Node11 -->
<g id="edge10" class="edge"><title>Node9&#45;&gt;Node11</title>
<path fill="none" stroke="midnightblue" d="M390.96,-112.324C405,-103.9 426.548,-90.9709 443.043,-81.0741"/>
<polygon fill="midnightblue" stroke="midnightblue" points="445.302,-83.8007 452.076,-75.6545 441.7,-77.7983 445.302,-83.8007"/>
</g>
<!-- Node12&#45;&gt;Node2 -->
<g id="edge13" class="edge"><title>Node12&#45;&gt;Node2</title>
<path fill="none" stroke="midnightblue" d="M219.908,-112.444C183.313,-103.122 124.662,-88.1828 84.6743,-77.9972"/>
<polygon fill="midnightblue" stroke="midnightblue" points="85.4894,-74.5932 74.9349,-75.5164 83.7615,-81.3766 85.4894,-74.5932"/>
</g>
<!-- Node12&#45;&gt;Node4 -->
<g id="edge14" class="edge"><title>Node12&#45;&gt;Node4</title>
<path fill="none" stroke="midnightblue" d="M239.361,-112.324C225.634,-103.9 204.564,-90.9709 188.436,-81.0741"/>
<polygon fill="midnightblue" stroke="midnightblue" points="189.957,-77.9016 179.604,-75.6545 186.296,-83.8678 189.957,-77.9016"/>
</g>
<!-- Node12&#45;&gt;Node5 -->
<g id="edge12" class="edge"><title>Node12&#45;&gt;Node5</title>
<path fill="none" stroke="midnightblue" d="M253.814,-112.368C254.459,-94.617 255.948,-53.6664 256.824,-29.5974"/>
<polygon fill="midnightblue" stroke="midnightblue" points="260.322,-29.712 257.188,-19.5914 253.326,-29.4576 260.322,-29.712"/>
</g>
<!-- Node13 -->
<g id="node13" class="node"><title>Node13</title>
<polygon fill="white" stroke="#bfbfbf" points="285.5,-56.5 285.5,-75.5 331.5,-75.5 331.5,-56.5 285.5,-56.5"/>
<text text-anchor="middle" x="308.5" y="-63.5" font-family="Helvetica,sans-Serif" font-size="10.00">cstring</text>
</g>
<!-- Node12&#45;&gt;Node13 -->
<g id="edge15" class="edge"><title>Node12&#45;&gt;Node13</title>
<path fill="none" stroke="midnightblue" d="M262.582,-112.083C270.671,-104.141 282.695,-92.3354 292.41,-82.7973"/>
<polygon fill="midnightblue" stroke="midnightblue" points="294.903,-85.2545 299.587,-75.7511 289.999,-80.2595 294.903,-85.2545"/>
</g>
</g>
</svg>
