<?xml version="1.0" encoding="UTF-8" standalone="no"?>
<!DOCTYPE svg PUBLIC "-//W3C//DTD SVG 1.1//EN"
 "http://www.w3.org/Graphics/SVG/1.1/DTD/svg11.dtd">
<!-- Generated by graphviz version 2.38.0 (20140413.2041)
 -->
<!-- Title: erpc_client_setup.h Pages: 1 -->
<svg width="510pt" height="364pt"
 viewBox="0.00 0.00 510.00 364.00" xmlns="http://www.w3.org/2000/svg" xmlns:xlink="http://www.w3.org/1999/xlink">
<g id="graph0" class="graph" transform="scale(1 1) rotate(0) translate(4 360)">
<title>erpc_client_setup.h</title>
<polygon fill="white" stroke="none" points="-4,4 -4,-360 506,-360 506,4 -4,4"/>
<!-- Node1 -->
<g id="node1" class="node"><title>Node1</title>
<polygon fill="#bfbfbf" stroke="black" points="240.5,-336.5 240.5,-355.5 341.5,-355.5 341.5,-336.5 240.5,-336.5"/>
<text text-anchor="middle" x="291" y="-343.5" font-family="Helvetica,sans-Serif" font-size="10.00">erpc_client_setup.h</text>
</g>
<!-- Node2 -->
<g id="node2" class="node"><title>Node2</title>
<g id="a_node2"><a xlink:href="erpc__common_8h_source.html" target="_top" xlink:title="erpc_common.h">
<polygon fill="white" stroke="black" points="8,-56.5 8,-75.5 94,-75.5 94,-56.5 8,-56.5"/>
<text text-anchor="middle" x="51" y="-63.5" font-family="Helvetica,sans-Serif" font-size="10.00">erpc_common.h</text>
</a>
</g>
</g>
<!-- Node1&#45;&gt;Node2 -->
<g id="edge1" class="edge"><title>Node1&#45;&gt;Node2</title>
<path fill="none" stroke="midnightblue" d="M240.312,-336.586C156.938,-321.295 0,-285.769 0,-235 0,-235 0,-235 0,-177 0,-141.244 22.4538,-104.508 37.5639,-83.8357"/>
<polygon fill="midnightblue" stroke="midnightblue" points="40.4302,-85.8485 43.6929,-75.7686 34.8564,-81.6137 40.4302,-85.8485"/>
</g>
<!-- Node3 -->
<g id="node3" class="node"><title>Node3</title>
<polygon fill="white" stroke="#bfbfbf" points="252.5,-0.5 252.5,-19.5 301.5,-19.5 301.5,-0.5 252.5,-0.5"/>
<text text-anchor="middle" x="277" y="-7.5" font-family="Helvetica,sans-Serif" font-size="10.00">stdint.h</text>
</g>
<!-- Node1&#45;&gt;Node3 -->
<g id="edge22" class="edge"><title>Node1&#45;&gt;Node3</title>
<path fill="none" stroke="midnightblue" d="M341.54,-340.571C403.962,-332.009 502,-307.088 502,-235 502,-235 502,-235 502,-121 502,-37.3554 374.948,-17.3058 311.79,-12.5065"/>
<polygon fill="midnightblue" stroke="midnightblue" points="311.719,-8.99393 301.507,-11.8173 311.251,-15.9783 311.719,-8.99393"/>
</g>
<!-- Node4 -->
<g id="node4" class="node"><title>Node4</title>
<g id="a_node4"><a xlink:href="erpc__mbf__setup_8h.html" target="_top" xlink:title="erpc_mbf_setup.h">
<polygon fill="white" stroke="black" points="319,-280.5 319,-299.5 413,-299.5 413,-280.5 319,-280.5"/>
<text text-anchor="middle" x="366" y="-287.5" font-family="Helvetica,sans-Serif" font-size="10.00">erpc_mbf_setup.h</text>
</a>
</g>
</g>
<!-- Node1&#45;&gt;Node4 -->
<g id="edge3" class="edge"><title>Node1&#45;&gt;Node4</title>
<path fill="none" stroke="midnightblue" d="M303.05,-336.324C314.463,-328.107 331.831,-315.602 345.435,-305.807"/>
<polygon fill="midnightblue" stroke="midnightblue" points="347.66,-308.517 353.731,-299.834 343.57,-302.837 347.66,-308.517"/>
</g>
<!-- Node5 -->
<g id="node5" class="node"><title>Node5</title>
<g id="a_node5"><a xlink:href="erpc__transport__setup_8h.html" target="_top" xlink:title="erpc_transport_setup.h">
<polygon fill="white" stroke="black" points="308,-224.5 308,-243.5 424,-243.5 424,-224.5 308,-224.5"/>
<text text-anchor="middle" x="366" y="-231.5" font-family="Helvetica,sans-Serif" font-size="10.00">erpc_transport_setup.h</text>
</a>
</g>
</g>
<!-- Node1&#45;&gt;Node5 -->
<g id="edge7" class="edge"><title>Node1&#45;&gt;Node5</title>
<path fill="none" stroke="midnightblue" d="M291.865,-336.306C293.523,-323.138 298.111,-297.79 310,-280 318.257,-267.645 330.959,-257.042 342.179,-249.238"/>
<polygon fill="midnightblue" stroke="midnightblue" points="344.318,-252.02 350.747,-243.598 340.47,-246.173 344.318,-252.02"/>
</g>
<!-- Node7 -->
<g id="node7" class="node"><title>Node7</title>
<g id="a_node7"><a xlink:href="client__manager_8h.html" target="_top" xlink:title="client_manager.h">
<polygon fill="white" stroke="black" points="171.5,-280.5 171.5,-299.5 262.5,-299.5 262.5,-280.5 171.5,-280.5"/>
<text text-anchor="middle" x="217" y="-287.5" font-family="Helvetica,sans-Serif" font-size="10.00">client_manager.h</text>
</a>
</g>
</g>
<!-- Node1&#45;&gt;Node7 -->
<g id="edge8" class="edge"><title>Node1&#45;&gt;Node7</title>
<path fill="none" stroke="midnightblue" d="M279.111,-336.324C267.85,-328.107 250.713,-315.602 237.291,-305.807"/>
<polygon fill="midnightblue" stroke="midnightblue" points="239.247,-302.901 229.106,-299.834 235.12,-308.556 239.247,-302.901"/>
</g>
<!-- Node2&#45;&gt;Node3 -->
<g id="edge2" class="edge"><title>Node2&#45;&gt;Node3</title>
<path fill="none" stroke="midnightblue" d="M86.8104,-56.4435C129.469,-46.2507 200.242,-29.3403 242.373,-19.2737"/>
<polygon fill="midnightblue" stroke="midnightblue" points="243.266,-22.659 252.179,-16.9308 241.639,-15.8506 243.266,-22.659"/>
</g>
<!-- Node4&#45;&gt;Node5 -->
<g id="edge4" class="edge"><title>Node4&#45;&gt;Node5</title>
<path fill="none" stroke="midnightblue" d="M366,-280.083C366,-273.006 366,-262.861 366,-253.986"/>
<polygon fill="midnightblue" stroke="midnightblue" points="369.5,-253.751 366,-243.751 362.5,-253.751 369.5,-253.751"/>
</g>
<!-- Node5&#45;&gt;Node3 -->
<g id="edge6" class="edge"><title>Node5&#45;&gt;Node3</title>
<path fill="none" stroke="midnightblue" d="M365.111,-224.355C362.08,-197.726 350.471,-115.175 318,-56 311.989,-45.0463 302.787,-34.6129 294.622,-26.5552"/>
<polygon fill="midnightblue" stroke="midnightblue" points="296.931,-23.9223 287.25,-19.6183 292.134,-29.0202 296.931,-23.9223"/>
</g>
<!-- Node6 -->
<g id="node6" class="node"><title>Node6</title>
<g id="a_node6"><a xlink:href="erpc__version_8h_source.html" target="_top" xlink:title="erpc_version.h">
<polygon fill="white" stroke="black" points="394.5,-168.5 394.5,-187.5 473.5,-187.5 473.5,-168.5 394.5,-168.5"/>
<text text-anchor="middle" x="434" y="-175.5" font-family="Helvetica,sans-Serif" font-size="10.00">erpc_version.h</text>
</a>
</g>
</g>
<!-- Node5&#45;&gt;Node6 -->
<g id="edge5" class="edge"><title>Node5&#45;&gt;Node6</title>
<path fill="none" stroke="midnightblue" d="M376.925,-224.324C387.175,-216.185 402.721,-203.839 415.001,-194.087"/>
<polygon fill="midnightblue" stroke="midnightblue" points="417.221,-196.794 422.876,-187.834 412.868,-191.312 417.221,-196.794"/>
</g>
<!-- Node8 -->
<g id="node8" class="node"><title>Node8</title>
<g id="a_node8"><a xlink:href="codec_8h.html" target="_top" xlink:title="codec.h">
<polygon fill="white" stroke="black" points="191.5,-224.5 191.5,-243.5 242.5,-243.5 242.5,-224.5 191.5,-224.5"/>
<text text-anchor="middle" x="217" y="-231.5" font-family="Helvetica,sans-Serif" font-size="10.00">codec.h</text>
</a>
</g>
</g>
<!-- Node7&#45;&gt;Node8 -->
<g id="edge9" class="edge"><title>Node7&#45;&gt;Node8</title>
<path fill="none" stroke="midnightblue" d="M217,-280.083C217,-273.006 217,-262.861 217,-253.986"/>
<polygon fill="midnightblue" stroke="midnightblue" points="220.5,-253.751 217,-243.751 213.5,-253.751 220.5,-253.751"/>
</g>
<!-- Node8&#45;&gt;Node2 -->
<g id="edge10" class="edge"><title>Node8&#45;&gt;Node2</title>
<path fill="none" stroke="midnightblue" d="M197.934,-224.348C167.505,-209.613 107.939,-176.832 74,-132 63.6242,-118.294 57.6516,-99.5103 54.4072,-85.6592"/>
<polygon fill="midnightblue" stroke="midnightblue" points="57.8198,-84.8782 52.3582,-75.7995 50.9662,-86.3025 57.8198,-84.8782"/>
</g>
<!-- Node8&#45;&gt;Node3 -->
<g id="edge21" class="edge"><title>Node8&#45;&gt;Node3</title>
<path fill="none" stroke="midnightblue" d="M231.364,-224.328C244.156,-216.109 262.831,-202.838 276,-188 295.176,-166.393 301.399,-159.871 309,-132 319.055,-95.1305 300.191,-51.8103 287.397,-28.3048"/>
<polygon fill="midnightblue" stroke="midnightblue" points="290.382,-26.4735 282.388,-19.5206 284.301,-29.9413 290.382,-26.4735"/>
</g>
<!-- Node9 -->
<g id="node9" class="node"><title>Node9</title>
<g id="a_node9"><a xlink:href="message__buffer_8h.html" target="_top" xlink:title="message_buffer.h">
<polygon fill="white" stroke="black" points="104.5,-112.5 104.5,-131.5 197.5,-131.5 197.5,-112.5 104.5,-112.5"/>
<text text-anchor="middle" x="151" y="-119.5" font-family="Helvetica,sans-Serif" font-size="10.00">message_buffer.h</text>
</a>
</g>
</g>
<!-- Node8&#45;&gt;Node9 -->
<g id="edge11" class="edge"><title>Node8&#45;&gt;Node9</title>
<path fill="none" stroke="midnightblue" d="M207.084,-224.187C197.991,-215.671 184.661,-202.03 176,-188 166.98,-173.387 160.273,-154.981 156.09,-141.489"/>
<polygon fill="midnightblue" stroke="midnightblue" points="159.448,-140.502 153.279,-131.888 152.73,-142.469 159.448,-140.502"/>
</g>
<!-- Node11 -->
<g id="node11" class="node"><title>Node11</title>
<g id="a_node11"><a xlink:href="transport_8h.html" target="_top" xlink:title="transport.h">
<polygon fill="white" stroke="black" points="185.5,-168.5 185.5,-187.5 248.5,-187.5 248.5,-168.5 185.5,-168.5"/>
<text text-anchor="middle" x="217" y="-175.5" font-family="Helvetica,sans-Serif" font-size="10.00">transport.h</text>
</a>
</g>
</g>
<!-- Node8&#45;&gt;Node11 -->
<g id="edge15" class="edge"><title>Node8&#45;&gt;Node11</title>
<path fill="none" stroke="midnightblue" d="M217,-224.083C217,-217.006 217,-206.861 217,-197.986"/>
<polygon fill="midnightblue" stroke="midnightblue" points="220.5,-197.751 217,-187.751 213.5,-197.751 220.5,-197.751"/>
</g>
<!-- Node12 -->
<g id="node12" class="node"><title>Node12</title>
<polygon fill="white" stroke="#bfbfbf" points="254,-112.5 254,-131.5 300,-131.5 300,-112.5 254,-112.5"/>
<text text-anchor="middle" x="277" y="-119.5" font-family="Helvetica,sans-Serif" font-size="10.00">cstring</text>
</g>
<!-- Node8&#45;&gt;Node12 -->
<g id="edge20" class="edge"><title>Node8&#45;&gt;Node12</title>
<path fill="none" stroke="midnightblue" d="M226.881,-224.27C235.899,-215.812 249.003,-202.211 257,-188 265.143,-173.53 270.374,-155.344 273.436,-141.89"/>
<polygon fill="midnightblue" stroke="midnightblue" points="276.907,-142.391 275.514,-131.888 270.053,-140.967 276.907,-142.391"/>
</g>
<!-- Node9&#45;&gt;Node2 -->
<g id="edge12" class="edge"><title>Node9&#45;&gt;Node2</title>
<path fill="none" stroke="midnightblue" d="M134.933,-112.324C119.042,-103.743 94.4926,-90.486 76.0415,-80.5224"/>
<polygon fill="midnightblue" stroke="midnightblue" points="77.489,-77.3264 67.0269,-75.6545 74.1629,-83.4857 77.489,-77.3264"/>
</g>
<!-- Node9&#45;&gt;Node3 -->
<g id="edge14" class="edge"><title>Node9&#45;&gt;Node3</title>
<path fill="none" stroke="midnightblue" d="M145.926,-112.069C139.019,-98.5911 128.831,-72.8441 141,-56 163.899,-24.3038 209.969,-14.5671 242.112,-11.7721"/>
<polygon fill="midnightblue" stroke="midnightblue" points="242.686,-15.2411 252.425,-11.0686 242.21,-8.25736 242.686,-15.2411"/>
</g>
<!-- Node10 -->
<g id="node10" class="node"><title>Node10</title>
<polygon fill="white" stroke="#bfbfbf" points="150,-56.5 150,-75.5 198,-75.5 198,-56.5 150,-56.5"/>
<text text-anchor="middle" x="174" y="-63.5" font-family="Helvetica,sans-Serif" font-size="10.00">cstddef</text>
</g>
<!-- Node9&#45;&gt;Node10 -->
<g id="edge13" class="edge"><title>Node9&#45;&gt;Node10</title>
<path fill="none" stroke="midnightblue" d="M154.798,-112.083C157.913,-104.77 162.423,-94.1814 166.289,-85.1034"/>
<polygon fill="midnightblue" stroke="midnightblue" points="169.574,-86.3229 170.273,-75.7511 163.134,-83.5798 169.574,-86.3229"/>
</g>
<!-- Node11&#45;&gt;Node2 -->
<g id="edge16" class="edge"><title>Node11&#45;&gt;Node2</title>
<path fill="none" stroke="midnightblue" d="M185.283,-170.985C158.961,-164.744 121.657,-152.884 95,-132 78.9629,-119.436 66.6509,-99.3791 59.1826,-84.8653"/>
<polygon fill="midnightblue" stroke="midnightblue" points="62.3241,-83.3221 54.7997,-75.8632 56.0303,-86.3863 62.3241,-83.3221"/>
</g>
<!-- Node11&#45;&gt;Node3 -->
<g id="edge19" class="edge"><title>Node11&#45;&gt;Node3</title>
<path fill="none" stroke="midnightblue" d="M220.226,-168.075C229.711,-141.832 257.646,-64.5453 270.452,-29.1165"/>
<polygon fill="midnightblue" stroke="midnightblue" points="273.795,-30.1624 273.903,-19.5681 267.212,-27.7829 273.795,-30.1624"/>
</g>
<!-- Node11&#45;&gt;Node9 -->
<g id="edge17" class="edge"><title>Node11&#45;&gt;Node9</title>
<path fill="none" stroke="midnightblue" d="M206.396,-168.324C196.544,-160.263 181.649,-148.077 169.785,-138.369"/>
<polygon fill="midnightblue" stroke="midnightblue" points="171.753,-135.457 161.797,-131.834 167.32,-140.875 171.753,-135.457"/>
</g>
<!-- Node11&#45;&gt;Node12 -->
<g id="edge18" class="edge"><title>Node11&#45;&gt;Node12</title>
<path fill="none" stroke="midnightblue" d="M226.64,-168.324C235.51,-160.341 248.875,-148.313 259.608,-138.653"/>
<polygon fill="midnightblue" stroke="midnightblue" points="262.093,-141.125 267.185,-131.834 257.41,-135.922 262.093,-141.125"/>
</g>
</g>
</svg>
