<?xml version="1.0" encoding="UTF-8" standalone="no"?>
<!DOCTYPE svg PUBLIC "-//W3C//DTD SVG 1.1//EN"
 "http://www.w3.org/Graphics/SVG/1.1/DTD/svg11.dtd">
<!-- Generated by graphviz version 2.38.0 (20140413.2041)
 -->
<!-- Title: erpc_framed_transport.hpp Pages: 1 -->
<svg width="2182pt" height="95pt"
 viewBox="0.00 0.00 2182.00 95.00" xmlns="http://www.w3.org/2000/svg" xmlns:xlink="http://www.w3.org/1999/xlink">
<g id="graph0" class="graph" transform="scale(1 1) rotate(0) translate(4 91)">
<title>erpc_framed_transport.hpp</title>
<polygon fill="white" stroke="none" points="-4,4 -4,-91 2178,-91 2178,4 -4,4"/>
<!-- Node1 -->
<g id="node1" class="node"><title>Node1</title>
<polygon fill="#bfbfbf" stroke="black" points="1037,-67.5 1037,-86.5 1169,-86.5 1169,-67.5 1037,-67.5"/>
<text text-anchor="middle" x="1103" y="-74.5" font-family="Helvetica,sans-Serif" font-size="10.00">erpc_framed_transport.hpp</text>
</g>
<!-- Node2 -->
<g id="node2" class="node"><title>Node2</title>
<g id="a_node2"><a xlink:href="erpc__dspi__master__transport_8hpp.html" target="_top" xlink:title="erpc_dspi_master_transport.hpp">
<polygon fill="white" stroke="black" points="0,-6 0,-25 156,-25 156,-6 0,-6"/>
<text text-anchor="middle" x="78" y="-13" font-family="Helvetica,sans-Serif" font-size="10.00">erpc_dspi_master_transport.hpp</text>
</a>
</g>
</g>
<!-- Node1&#45;&gt;Node2 -->
<g id="edge1" class="edge"><title>Node1&#45;&gt;Node2</title>
<path fill="none" stroke="midnightblue" d="M1026.61,-75.3639C866.428,-73.3645 483.841,-65.0994 165,-31 151.297,-29.5345 136.476,-27.3073 123.017,-25.035"/>
<polygon fill="midnightblue" stroke="midnightblue" points="1026.79,-78.8663 1036.84,-75.4867 1026.88,-71.8668 1026.79,-78.8663"/>
</g>
<!-- Node3 -->
<g id="node3" class="node"><title>Node3</title>
<g id="a_node3"><a xlink:href="erpc__dspi__slave__transport_8hpp.html" target="_top" xlink:title="erpc_dspi_slave_transport.hpp">
<polygon fill="white" stroke="black" points="174,-6 174,-25 322,-25 322,-6 174,-6"/>
<text text-anchor="middle" x="248" y="-13" font-family="Helvetica,sans-Serif" font-size="10.00">erpc_dspi_slave_transport.hpp</text>
</a>
</g>
</g>
<!-- Node1&#45;&gt;Node3 -->
<g id="edge2" class="edge"><title>Node1&#45;&gt;Node3</title>
<path fill="none" stroke="midnightblue" d="M1026.84,-74.4552C888.051,-70.9973 584.865,-60.4753 331,-31 318.068,-29.4985 304.096,-27.2885 291.37,-25.0441"/>
<polygon fill="midnightblue" stroke="midnightblue" points="1026.86,-77.9568 1036.94,-74.7017 1027.03,-70.9588 1026.86,-77.9568"/>
</g>
<!-- Node4 -->
<g id="node4" class="node"><title>Node4</title>
<g id="a_node4"><a xlink:href="erpc__i2c__slave__transport_8hpp.html" target="_top" xlink:title="erpc_i2c_slave_transport.hpp">
<polygon fill="white" stroke="black" points="340.5,-6 340.5,-25 483.5,-25 483.5,-6 340.5,-6"/>
<text text-anchor="middle" x="412" y="-13" font-family="Helvetica,sans-Serif" font-size="10.00">erpc_i2c_slave_transport.hpp</text>
</a>
</g>
</g>
<!-- Node1&#45;&gt;Node4 -->
<g id="edge3" class="edge"><title>Node1&#45;&gt;Node4</title>
<path fill="none" stroke="midnightblue" d="M1026.71,-72.9108C910.973,-67.6514 684.245,-55.1061 493,-31 480.527,-29.4278 467.058,-27.2231 454.751,-25.0065"/>
<polygon fill="midnightblue" stroke="midnightblue" points="1026.74,-76.4153 1036.88,-73.3672 1027.05,-69.4224 1026.74,-76.4153"/>
</g>
<!-- Node5 -->
<g id="node5" class="node"><title>Node5</title>
<g id="a_node5"><a xlink:href="erpc__lpi2c__slave__transport_8hpp.html" target="_top" xlink:title="erpc_lpi2c_slave_transport.hpp">
<polygon fill="white" stroke="black" points="502,-6 502,-25 652,-25 652,-6 502,-6"/>
<text text-anchor="middle" x="577" y="-13" font-family="Helvetica,sans-Serif" font-size="10.00">erpc_lpi2c_slave_transport.hpp</text>
</a>
</g>
</g>
<!-- Node1&#45;&gt;Node5 -->
<g id="edge4" class="edge"><title>Node1&#45;&gt;Node5</title>
<path fill="none" stroke="midnightblue" d="M1026.74,-69.8568C938.496,-62.3724 788.904,-48.5287 661,-31 648.684,-29.3121 635.406,-27.1708 623.124,-25.0553"/>
<polygon fill="midnightblue" stroke="midnightblue" points="1026.67,-73.3632 1036.93,-70.7157 1027.26,-66.3879 1026.67,-73.3632"/>
</g>
<!-- Node6 -->
<g id="node6" class="node"><title>Node6</title>
<g id="a_node6"><a xlink:href="erpc__lpspi__slave__transport_8hpp.html" target="_top" xlink:title="erpc_lpspi_slave_transport.hpp">
<polygon fill="white" stroke="black" points="670,-6 670,-25 820,-25 820,-6 670,-6"/>
<text text-anchor="middle" x="745" y="-13" font-family="Helvetica,sans-Serif" font-size="10.00">erpc_lpspi_slave_transport.hpp</text>
</a>
</g>
</g>
<!-- Node1&#45;&gt;Node6 -->
<g id="edge5" class="edge"><title>Node1&#45;&gt;Node6</title>
<path fill="none" stroke="midnightblue" d="M1040.15,-65.8279C984.602,-56.8008 901.386,-43.1915 829,-31 817.617,-29.0829 805.373,-26.9879 793.848,-25.0014"/>
<polygon fill="midnightblue" stroke="midnightblue" points="1039.76,-69.3104 1050.2,-67.4587 1040.89,-62.4009 1039.76,-69.3104"/>
</g>
<!-- Node7 -->
<g id="node7" class="node"><title>Node7</title>
<g id="a_node7"><a xlink:href="erpc__rpmsg__tty__rtos__transport_8hpp.html" target="_top" xlink:title="erpc_rpmsg_tty_rtos\l_transport.hpp">
<polygon fill="white" stroke="black" points="838,-0.5 838,-30.5 944,-30.5 944,-0.5 838,-0.5"/>
<text text-anchor="start" x="846" y="-18.5" font-family="Helvetica,sans-Serif" font-size="10.00">erpc_rpmsg_tty_rtos</text>
<text text-anchor="middle" x="891" y="-7.5" font-family="Helvetica,sans-Serif" font-size="10.00">_transport.hpp</text>
</a>
</g>
</g>
<!-- Node1&#45;&gt;Node7 -->
<g id="edge6" class="edge"><title>Node1&#45;&gt;Node7</title>
<path fill="none" stroke="midnightblue" d="M1062.86,-64.7343C1028.26,-55.0234 978.154,-40.9607 940.964,-30.523"/>
<polygon fill="midnightblue" stroke="midnightblue" points="1062.05,-68.1426 1072.63,-67.4751 1063.94,-61.403 1062.05,-68.1426"/>
</g>
<!-- Node8 -->
<g id="node8" class="node"><title>Node8</title>
<g id="a_node8"><a xlink:href="erpc__serial__transport_8hpp.html" target="_top" xlink:title="erpc_serial_transport.hpp">
<polygon fill="white" stroke="black" points="962,-6 962,-25 1088,-25 1088,-6 962,-6"/>
<text text-anchor="middle" x="1025" y="-13" font-family="Helvetica,sans-Serif" font-size="10.00">erpc_serial_transport.hpp</text>
</a>
</g>
</g>
<!-- Node1&#45;&gt;Node8 -->
<g id="edge7" class="edge"><title>Node1&#45;&gt;Node8</title>
<path fill="none" stroke="midnightblue" d="M1083.72,-61.2938C1068.76,-49.8803 1048.54,-34.4577 1036.15,-25.0091"/>
<polygon fill="midnightblue" stroke="midnightblue" points="1081.75,-64.1928 1091.82,-67.4751 1086,-58.6272 1081.75,-64.1928"/>
</g>
<!-- Node9 -->
<g id="node9" class="node"><title>Node9</title>
<g id="a_node9"><a xlink:href="erpc__spi__master__transport_8hpp.html" target="_top" xlink:title="erpc_spi_master_transport.hpp">
<polygon fill="white" stroke="black" points="1106.5,-6 1106.5,-25 1257.5,-25 1257.5,-6 1106.5,-6"/>
<text text-anchor="middle" x="1182" y="-13" font-family="Helvetica,sans-Serif" font-size="10.00">erpc_spi_master_transport.hpp</text>
</a>
</g>
</g>
<!-- Node1&#45;&gt;Node9 -->
<g id="edge8" class="edge"><title>Node1&#45;&gt;Node9</title>
<path fill="none" stroke="midnightblue" d="M1122.53,-61.2938C1137.68,-49.8803 1158.16,-34.4577 1170.7,-25.0091"/>
<polygon fill="midnightblue" stroke="midnightblue" points="1120.2,-58.6631 1114.32,-67.4751 1124.41,-64.2547 1120.2,-58.6631"/>
</g>
<!-- Node10 -->
<g id="node10" class="node"><title>Node10</title>
<g id="a_node10"><a xlink:href="erpc__spi__slave__transport_8hpp.html" target="_top" xlink:title="erpc_spi_slave_transport.hpp">
<polygon fill="white" stroke="black" points="1275.5,-6 1275.5,-25 1418.5,-25 1418.5,-6 1275.5,-6"/>
<text text-anchor="middle" x="1347" y="-13" font-family="Helvetica,sans-Serif" font-size="10.00">erpc_spi_slave_transport.hpp</text>
</a>
</g>
</g>
<!-- Node1&#45;&gt;Node10 -->
<g id="edge9" class="edge"><title>Node1&#45;&gt;Node10</title>
<path fill="none" stroke="midnightblue" d="M1147.94,-65.0412C1195.31,-53.49 1268.92,-35.5394 1312.11,-25.0091"/>
<polygon fill="midnightblue" stroke="midnightblue" points="1146.85,-61.7056 1137.96,-67.4751 1148.5,-68.5063 1146.85,-61.7056"/>
</g>
<!-- Node11 -->
<g id="node11" class="node"><title>Node11</title>
<g id="a_node11"><a xlink:href="erpc__spidev__master__transport_8hpp.html" target="_top" xlink:title="erpc_spidev_master\l_transport.hpp">
<polygon fill="white" stroke="black" points="1436.5,-0.5 1436.5,-30.5 1539.5,-30.5 1539.5,-0.5 1436.5,-0.5"/>
<text text-anchor="start" x="1444.5" y="-18.5" font-family="Helvetica,sans-Serif" font-size="10.00">erpc_spidev_master</text>
<text text-anchor="middle" x="1488" y="-7.5" font-family="Helvetica,sans-Serif" font-size="10.00">_transport.hpp</text>
</a>
</g>
</g>
<!-- Node1&#45;&gt;Node11 -->
<g id="edge10" class="edge"><title>Node1&#45;&gt;Node11</title>
<path fill="none" stroke="midnightblue" d="M1179.62,-67.5731C1245.7,-59.7856 1343.53,-47.0128 1428,-31 1430.74,-30.481 1433.54,-29.9179 1436.36,-29.3249"/>
<polygon fill="midnightblue" stroke="midnightblue" points="1178.82,-64.1426 1169.29,-68.7798 1179.63,-71.0953 1178.82,-64.1426"/>
</g>
<!-- Node12 -->
<g id="node12" class="node"><title>Node12</title>
<g id="a_node12"><a xlink:href="erpc__tcp__transport_8hpp.html" target="_top" xlink:title="erpc_tcp_transport.hpp">
<polygon fill="white" stroke="black" points="1558,-6 1558,-25 1674,-25 1674,-6 1558,-6"/>
<text text-anchor="middle" x="1616" y="-13" font-family="Helvetica,sans-Serif" font-size="10.00">erpc_tcp_transport.hpp</text>
</a>
</g>
</g>
<!-- Node1&#45;&gt;Node12 -->
<g id="edge11" class="edge"><title>Node1&#45;&gt;Node12</title>
<path fill="none" stroke="midnightblue" d="M1179.05,-70.946C1268.1,-64.424 1419.84,-51.4253 1549,-31 1559.11,-29.4013 1569.99,-27.2403 1579.98,-25.0753"/>
<polygon fill="midnightblue" stroke="midnightblue" points="1178.76,-67.4577 1169.04,-71.6712 1179.27,-74.4394 1178.76,-67.4577"/>
</g>
<!-- Node13 -->
<g id="node13" class="node"><title>Node13</title>
<g id="a_node13"><a xlink:href="erpc__uart__cmsis__transport_8hpp.html" target="_top" xlink:title="erpc_uart_cmsis_transport.hpp">
<polygon fill="white" stroke="black" points="1692.5,-6 1692.5,-25 1843.5,-25 1843.5,-6 1692.5,-6"/>
<text text-anchor="middle" x="1768" y="-13" font-family="Helvetica,sans-Serif" font-size="10.00">erpc_uart_cmsis_transport.hpp</text>
</a>
</g>
</g>
<!-- Node1&#45;&gt;Node13 -->
<g id="edge12" class="edge"><title>Node1&#45;&gt;Node13</title>
<path fill="none" stroke="midnightblue" d="M1179.41,-72.3046C1290.56,-66.4236 1503.19,-53.2653 1683,-31 1695.93,-29.3995 1709.88,-27.2122 1722.68,-25.0218"/>
<polygon fill="midnightblue" stroke="midnightblue" points="1179.11,-68.8157 1169.3,-72.8342 1179.47,-75.8061 1179.11,-68.8157"/>
</g>
<!-- Node14 -->
<g id="node14" class="node"><title>Node14</title>
<g id="a_node14"><a xlink:href="erpc__uart__zephyr__transport_8hpp.html" target="_top" xlink:title="erpc_uart_zephyr_transport.hpp">
<polygon fill="white" stroke="black" points="1862,-6 1862,-25 2016,-25 2016,-6 1862,-6"/>
<text text-anchor="middle" x="1939" y="-13" font-family="Helvetica,sans-Serif" font-size="10.00">erpc_uart_zephyr_transport.hpp</text>
</a>
</g>
</g>
<!-- Node1&#45;&gt;Node14 -->
<g id="edge13" class="edge"><title>Node1&#45;&gt;Node14</title>
<path fill="none" stroke="midnightblue" d="M1179.47,-74.1154C1315.38,-70.1638 1607.8,-58.9461 1853,-31 1866.39,-29.474 1880.86,-27.2566 1894.05,-25.0128"/>
<polygon fill="midnightblue" stroke="midnightblue" points="1179.07,-70.6254 1169.17,-74.4096 1179.26,-77.6225 1179.07,-70.6254"/>
</g>
<!-- Node15 -->
<g id="node15" class="node"><title>Node15</title>
<g id="a_node15"><a xlink:href="erpc__usb__cdc__transport_8hpp.html" target="_top" xlink:title="erpc_usb_cdc_transport.hpp">
<polygon fill="white" stroke="black" points="2034,-6 2034,-25 2174,-25 2174,-6 2034,-6"/>
<text text-anchor="middle" x="2104" y="-13" font-family="Helvetica,sans-Serif" font-size="10.00">erpc_usb_cdc_transport.hpp</text>
</a>
</g>
</g>
<!-- Node1&#45;&gt;Node15 -->
<g id="edge14" class="edge"><title>Node1&#45;&gt;Node15</title>
<path fill="none" stroke="midnightblue" d="M1179.31,-75.6943C1337.54,-74.3088 1712.66,-67.124 2025,-31 2037.47,-29.5581 2050.93,-27.3379 2063.15,-25.0649"/>
<polygon fill="midnightblue" stroke="midnightblue" points="1179.18,-72.1951 1169.21,-75.7774 1179.24,-79.1949 1179.18,-72.1951"/>
</g>
</g>
</svg>
