<?xml version="1.0" encoding="UTF-8" standalone="no"?>
<!DOCTYPE svg PUBLIC "-//W3C//DTD SVG 1.1//EN"
 "http://www.w3.org/Graphics/SVG/1.1/DTD/svg11.dtd">
<!-- Generated by graphviz version 2.38.0 (20140413.2041)
 -->
<!-- Title: erpc_message_buffer.hpp Pages: 1 -->
<svg width="228pt" height="84pt"
 viewBox="0.00 0.00 227.50 84.00" xmlns="http://www.w3.org/2000/svg" xmlns:xlink="http://www.w3.org/1999/xlink">
<g id="graph0" class="graph" transform="scale(1 1) rotate(0) translate(4 80)">
<title>erpc_message_buffer.hpp</title>
<polygon fill="white" stroke="none" points="-4,4 -4,-80 223.5,-80 223.5,4 -4,4"/>
<!-- Node1 -->
<g id="node1" class="node"><title>Node1</title>
<polygon fill="#bfbfbf" stroke="black" points="64,-56.5 64,-75.5 192,-75.5 192,-56.5 64,-56.5"/>
<text text-anchor="middle" x="128" y="-63.5" font-family="Helvetica,sans-Serif" font-size="10.00">erpc_message_buffer.hpp</text>
</g>
<!-- Node2 -->
<g id="node2" class="node"><title>Node2</title>
<g id="a_node2"><a xlink:href="erpc__common_8h_source.html" target="_top" xlink:title="erpc_common.h">
<polygon fill="white" stroke="black" points="0,-0.5 0,-19.5 86,-19.5 86,-0.5 0,-0.5"/>
<text text-anchor="middle" x="43" y="-7.5" font-family="Helvetica,sans-Serif" font-size="10.00">erpc_common.h</text>
</a>
</g>
</g>
<!-- Node1&#45;&gt;Node2 -->
<g id="edge1" class="edge"><title>Node1&#45;&gt;Node2</title>
<path fill="none" stroke="midnightblue" d="M114.343,-56.324C101.084,-47.9002 80.732,-34.9709 65.1538,-25.0741"/>
<polygon fill="midnightblue" stroke="midnightblue" points="66.9404,-22.0626 56.6228,-19.6545 63.1867,-27.9711 66.9404,-22.0626"/>
</g>
<!-- Node3 -->
<g id="node3" class="node"><title>Node3</title>
<polygon fill="white" stroke="#bfbfbf" points="104,-0.5 104,-19.5 152,-19.5 152,-0.5 104,-0.5"/>
<text text-anchor="middle" x="128" y="-7.5" font-family="Helvetica,sans-Serif" font-size="10.00">cstddef</text>
</g>
<!-- Node1&#45;&gt;Node3 -->
<g id="edge2" class="edge"><title>Node1&#45;&gt;Node3</title>
<path fill="none" stroke="midnightblue" d="M128,-56.083C128,-49.0059 128,-38.8611 128,-29.9865"/>
<polygon fill="midnightblue" stroke="midnightblue" points="131.5,-29.751 128,-19.7511 124.5,-29.7511 131.5,-29.751"/>
</g>
<!-- Node4 -->
<g id="node4" class="node"><title>Node4</title>
<polygon fill="white" stroke="#bfbfbf" points="170.5,-0.5 170.5,-19.5 219.5,-19.5 219.5,-0.5 170.5,-0.5"/>
<text text-anchor="middle" x="195" y="-7.5" font-family="Helvetica,sans-Serif" font-size="10.00">stdint.h</text>
</g>
<!-- Node1&#45;&gt;Node4 -->
<g id="edge3" class="edge"><title>Node1&#45;&gt;Node4</title>
<path fill="none" stroke="midnightblue" d="M138.765,-56.324C148.766,-48.2631 163.887,-36.0765 175.93,-26.3695"/>
<polygon fill="midnightblue" stroke="midnightblue" points="178.45,-28.8343 184.039,-19.8339 174.057,-23.3841 178.45,-28.8343"/>
</g>
</g>
</svg>
