<?xml version="1.0" encoding="UTF-8" standalone="no"?>
<!DOCTYPE svg PUBLIC "-//W3C//DTD SVG 1.1//EN"
 "http://www.w3.org/Graphics/SVG/1.1/DTD/svg11.dtd">
<!-- Generated by graphviz version 2.38.0 (20140413.2041)
 -->
<!-- Title: erpc_client_server_common.hpp Pages: 1 -->
<svg width="663pt" height="162pt"
 viewBox="0.00 0.00 662.50 162.00" xmlns="http://www.w3.org/2000/svg" xmlns:xlink="http://www.w3.org/1999/xlink">
<g id="graph0" class="graph" transform="scale(1 1) rotate(0) translate(4 158)">
<title>erpc_client_server_common.hpp</title>
<polygon fill="white" stroke="none" points="-4,4 -4,-158 658.5,-158 658.5,4 -4,4"/>
<!-- Node1 -->
<g id="node1" class="node"><title>Node1</title>
<polygon fill="#bfbfbf" stroke="black" points="387.5,-123.5 387.5,-153.5 482.5,-153.5 482.5,-123.5 387.5,-123.5"/>
<text text-anchor="start" x="395.5" y="-141.5" font-family="Helvetica,sans-Serif" font-size="10.00">erpc_client_server</text>
<text text-anchor="middle" x="435" y="-130.5" font-family="Helvetica,sans-Serif" font-size="10.00">_common.hpp</text>
</g>
<!-- Node2 -->
<g id="node2" class="node"><title>Node2</title>
<g id="a_node2"><a xlink:href="erpc__client__manager_8h.html" target="_top" xlink:title="erpc_client_manager.h">
<polygon fill="white" stroke="black" points="285.5,-67.5 285.5,-86.5 400.5,-86.5 400.5,-67.5 285.5,-67.5"/>
<text text-anchor="middle" x="343" y="-74.5" font-family="Helvetica,sans-Serif" font-size="10.00">erpc_client_manager.h</text>
</a>
</g>
</g>
<!-- Node1&#45;&gt;Node2 -->
<g id="edge1" class="edge"><title>Node1&#45;&gt;Node2</title>
<path fill="none" stroke="midnightblue" d="M404.503,-117.776C388.198,-107.231 368.951,-94.7834 356.387,-86.6578"/>
<polygon fill="midnightblue" stroke="midnightblue" points="402.9,-120.908 413.197,-123.399 406.701,-115.03 402.9,-120.908"/>
</g>
<!-- Node7 -->
<g id="node7" class="node"><title>Node7</title>
<g id="a_node7"><a xlink:href="erpc__server_8hpp.html" target="_top" xlink:title="erpc_server.hpp">
<polygon fill="white" stroke="black" points="485.5,-67.5 485.5,-86.5 570.5,-86.5 570.5,-67.5 485.5,-67.5"/>
<text text-anchor="middle" x="528" y="-74.5" font-family="Helvetica,sans-Serif" font-size="10.00">erpc_server.hpp</text>
</a>
</g>
</g>
<!-- Node1&#45;&gt;Node7 -->
<g id="edge6" class="edge"><title>Node1&#45;&gt;Node7</title>
<path fill="none" stroke="midnightblue" d="M465.829,-117.776C482.31,-107.231 501.767,-94.7834 514.468,-86.6578"/>
<polygon fill="midnightblue" stroke="midnightblue" points="463.577,-115.062 457.04,-123.399 467.35,-120.958 463.577,-115.062"/>
</g>
<!-- Node3 -->
<g id="node3" class="node"><title>Node3</title>
<g id="a_node3"><a xlink:href="erpc__arbitrated__client__manager_8hpp.html" target="_top" xlink:title="erpc_arbitrated_client\l_manager.hpp">
<polygon fill="white" stroke="black" points="0,-0.5 0,-30.5 110,-30.5 110,-0.5 0,-0.5"/>
<text text-anchor="start" x="8" y="-18.5" font-family="Helvetica,sans-Serif" font-size="10.00">erpc_arbitrated_client</text>
<text text-anchor="middle" x="55" y="-7.5" font-family="Helvetica,sans-Serif" font-size="10.00">_manager.hpp</text>
</a>
</g>
</g>
<!-- Node2&#45;&gt;Node3 -->
<g id="edge2" class="edge"><title>Node2&#45;&gt;Node3</title>
<path fill="none" stroke="midnightblue" d="M288.803,-65.4989C243.389,-56.6069 176.881,-43.3687 119,-31 116.103,-30.381 113.135,-29.7382 110.139,-29.0827"/>
<polygon fill="midnightblue" stroke="midnightblue" points="288.246,-68.9563 298.732,-67.4396 289.589,-62.0863 288.246,-68.9563"/>
</g>
<!-- Node4 -->
<g id="node4" class="node"><title>Node4</title>
<g id="a_node4"><a xlink:href="erpc__transport__arbitrator_8hpp.html" target="_top" xlink:title="erpc_transport_arbitrator.hpp">
<polygon fill="white" stroke="black" points="128.5,-6 128.5,-25 269.5,-25 269.5,-6 128.5,-6"/>
<text text-anchor="middle" x="199" y="-13" font-family="Helvetica,sans-Serif" font-size="10.00">erpc_transport_arbitrator.hpp</text>
</a>
</g>
</g>
<!-- Node2&#45;&gt;Node4 -->
<g id="edge3" class="edge"><title>Node2&#45;&gt;Node4</title>
<path fill="none" stroke="midnightblue" d="M313.066,-63.6313C285.09,-52.0717 244.063,-35.12 219.593,-25.0091"/>
<polygon fill="midnightblue" stroke="midnightblue" points="311.79,-66.891 322.368,-67.4751 314.463,-60.4215 311.79,-66.891"/>
</g>
<!-- Node5 -->
<g id="node5" class="node"><title>Node5</title>
<g id="a_node5"><a xlink:href="erpc__arbitrated__client__setup_8h.html" target="_top" xlink:title="erpc_arbitrated_client\l_setup.h">
<polygon fill="white" stroke="black" points="288,-0.5 288,-30.5 398,-30.5 398,-0.5 288,-0.5"/>
<text text-anchor="start" x="296" y="-18.5" font-family="Helvetica,sans-Serif" font-size="10.00">erpc_arbitrated_client</text>
<text text-anchor="middle" x="343" y="-7.5" font-family="Helvetica,sans-Serif" font-size="10.00">_setup.h</text>
</a>
</g>
</g>
<!-- Node2&#45;&gt;Node5 -->
<g id="edge4" class="edge"><title>Node2&#45;&gt;Node5</title>
<path fill="none" stroke="midnightblue" d="M343,-57.2349C343,-48.5864 343,-38.4969 343,-30.523"/>
<polygon fill="midnightblue" stroke="midnightblue" points="339.5,-57.4751 343,-67.4751 346.5,-57.4751 339.5,-57.4751"/>
</g>
<!-- Node6 -->
<g id="node6" class="node"><title>Node6</title>
<g id="a_node6"><a xlink:href="erpc__client__setup_8h.html" target="_top" xlink:title="erpc_client_setup.h">
<polygon fill="white" stroke="black" points="416.5,-6 416.5,-25 517.5,-25 517.5,-6 416.5,-6"/>
<text text-anchor="middle" x="467" y="-13" font-family="Helvetica,sans-Serif" font-size="10.00">erpc_client_setup.h</text>
</a>
</g>
</g>
<!-- Node2&#45;&gt;Node6 -->
<g id="edge5" class="edge"><title>Node2&#45;&gt;Node6</title>
<path fill="none" stroke="midnightblue" d="M370.049,-63.0207C394.097,-51.4816 428.563,-34.9433 449.267,-25.0091"/>
<polygon fill="midnightblue" stroke="midnightblue" points="368.268,-59.9934 360.766,-67.4751 371.296,-66.3044 368.268,-59.9934"/>
</g>
<!-- Node8 -->
<g id="node8" class="node"><title>Node8</title>
<g id="a_node8"><a xlink:href="erpc__simple__server_8hpp.html" target="_top" xlink:title="erpc_simple_server.hpp">
<polygon fill="white" stroke="black" points="535.5,-6 535.5,-25 654.5,-25 654.5,-6 535.5,-6"/>
<text text-anchor="middle" x="595" y="-13" font-family="Helvetica,sans-Serif" font-size="10.00">erpc_simple_server.hpp</text>
</a>
</g>
</g>
<!-- Node7&#45;&gt;Node8 -->
<g id="edge7" class="edge"><title>Node7&#45;&gt;Node8</title>
<path fill="none" stroke="midnightblue" d="M545.285,-60.6496C558.059,-49.3058 574.978,-34.2811 585.418,-25.0091"/>
<polygon fill="midnightblue" stroke="midnightblue" points="542.753,-58.2179 537.599,-67.4751 547.401,-63.4519 542.753,-58.2179"/>
</g>
</g>
</svg>
