<?xml version="1.0" encoding="UTF-8" standalone="no"?>
<!DOCTYPE svg PUBLIC "-//W3C//DTD SVG 1.1//EN"
 "http://www.w3.org/Graphics/SVG/1.1/DTD/svg11.dtd">
<!-- Generated by graphviz version 2.38.0 (20140413.2041)
 -->
<!-- Title: erpc_transport.hpp Pages: 1 -->
<svg width="2573pt" height="285pt"
 viewBox="0.00 0.00 2573.00 285.00" xmlns="http://www.w3.org/2000/svg" xmlns:xlink="http://www.w3.org/1999/xlink">
<g id="graph0" class="graph" transform="scale(1 1) rotate(0) translate(4 281)">
<title>erpc_transport.hpp</title>
<polygon fill="white" stroke="none" points="-4,4 -4,-281 2569,-281 2569,4 -4,4"/>
<!-- Node1 -->
<g id="node1" class="node"><title>Node1</title>
<polygon fill="#bfbfbf" stroke="black" points="1631.5,-257.5 1631.5,-276.5 1729.5,-276.5 1729.5,-257.5 1631.5,-257.5"/>
<text text-anchor="middle" x="1680.5" y="-264.5" font-family="Helvetica,sans-Serif" font-size="10.00">erpc_transport.hpp</text>
</g>
<!-- Node2 -->
<g id="node2" class="node"><title>Node2</title>
<g id="a_node2"><a xlink:href="erpc__codec_8hpp.html" target="_top" xlink:title="erpc_codec.hpp">
<polygon fill="white" stroke="black" points="212.5,-196 212.5,-215 298.5,-215 298.5,-196 212.5,-196"/>
<text text-anchor="middle" x="255.5" y="-203" font-family="Helvetica,sans-Serif" font-size="10.00">erpc_codec.hpp</text>
</a>
</g>
</g>
<!-- Node1&#45;&gt;Node2 -->
<g id="edge1" class="edge"><title>Node1&#45;&gt;Node2</title>
<path fill="none" stroke="midnightblue" d="M1621.29,-263.528C1383.93,-253.617 504.191,-216.884 298.645,-208.301"/>
<polygon fill="midnightblue" stroke="midnightblue" points="1621.31,-267.032 1631.45,-263.952 1621.6,-260.038 1621.31,-267.032"/>
</g>
<!-- Node6 -->
<g id="node6" class="node"><title>Node6</title>
<g id="a_node6"><a xlink:href="erpc__transport__arbitrator_8hpp.html" target="_top" xlink:title="erpc_transport_arbitrator.hpp">
<polygon fill="white" stroke="black" points="0,-6 0,-25 141,-25 141,-6 0,-6"/>
<text text-anchor="middle" x="70.5" y="-13" font-family="Helvetica,sans-Serif" font-size="10.00">erpc_transport_arbitrator.hpp</text>
</a>
</g>
</g>
<!-- Node1&#45;&gt;Node6 -->
<g id="edge12" class="edge"><title>Node1&#45;&gt;Node6</title>
<path fill="none" stroke="midnightblue" d="M1620.92,-266.274C1361.67,-267.182 338.856,-267.75 203.5,-221 156.028,-204.604 142.76,-194.085 112.5,-154 81.3697,-112.763 73.1223,-48.3132 71.1056,-25.1518"/>
<polygon fill="midnightblue" stroke="midnightblue" points="1621.27,-269.773 1631.25,-266.236 1621.24,-262.773 1621.27,-269.773"/>
</g>
<!-- Node12 -->
<g id="node12" class="node"><title>Node12</title>
<g id="a_node12"><a xlink:href="erpc__framed__transport_8hpp.html" target="_top" xlink:title="erpc_framed_transport.hpp">
<polygon fill="white" stroke="black" points="1316.5,-196 1316.5,-215 1448.5,-215 1448.5,-196 1316.5,-196"/>
<text text-anchor="middle" x="1382.5" y="-203" font-family="Helvetica,sans-Serif" font-size="10.00">erpc_framed_transport.hpp</text>
</a>
</g>
</g>
<!-- Node1&#45;&gt;Node12 -->
<g id="edge13" class="edge"><title>Node1&#45;&gt;Node12</title>
<path fill="none" stroke="midnightblue" d="M1627.78,-255.474C1570.03,-243.943 1478.52,-225.672 1425.12,-215.009"/>
<polygon fill="midnightblue" stroke="midnightblue" points="1627.31,-258.949 1637.8,-257.475 1628.68,-252.085 1627.31,-258.949"/>
</g>
<!-- Node27 -->
<g id="node27" class="node"><title>Node27</title>
<g id="a_node27"><a xlink:href="erpc__message__loggers_8hpp.html" target="_top" xlink:title="erpc_message_loggers.hpp">
<polygon fill="white" stroke="black" points="1466.5,-196 1466.5,-215 1602.5,-215 1602.5,-196 1466.5,-196"/>
<text text-anchor="middle" x="1534.5" y="-203" font-family="Helvetica,sans-Serif" font-size="10.00">erpc_message_loggers.hpp</text>
</a>
</g>
</g>
<!-- Node1&#45;&gt;Node27 -->
<g id="edge28" class="edge"><title>Node1&#45;&gt;Node27</title>
<path fill="none" stroke="midnightblue" d="M1650.15,-253.631C1621.79,-242.072 1580.19,-225.12 1555.38,-215.009"/>
<polygon fill="midnightblue" stroke="midnightblue" points="1649,-256.942 1659.58,-257.475 1651.64,-250.46 1649,-256.942"/>
</g>
<!-- Node28 -->
<g id="node28" class="node"><title>Node28</title>
<g id="a_node28"><a xlink:href="erpc__inter__thread__buffer__transport_8hpp.html" target="_top" xlink:title="erpc_inter_thread_buffer\l_transport.hpp">
<polygon fill="white" stroke="black" points="1620.5,-190.5 1620.5,-220.5 1740.5,-220.5 1740.5,-190.5 1620.5,-190.5"/>
<text text-anchor="start" x="1628.5" y="-208.5" font-family="Helvetica,sans-Serif" font-size="10.00">erpc_inter_thread_buffer</text>
<text text-anchor="middle" x="1680.5" y="-197.5" font-family="Helvetica,sans-Serif" font-size="10.00">_transport.hpp</text>
</a>
</g>
</g>
<!-- Node1&#45;&gt;Node28 -->
<g id="edge29" class="edge"><title>Node1&#45;&gt;Node28</title>
<path fill="none" stroke="midnightblue" d="M1680.5,-247.235C1680.5,-238.586 1680.5,-228.497 1680.5,-220.523"/>
<polygon fill="midnightblue" stroke="midnightblue" points="1677,-247.475 1680.5,-257.475 1684,-247.475 1677,-247.475"/>
</g>
<!-- Node29 -->
<g id="node29" class="node"><title>Node29</title>
<g id="a_node29"><a xlink:href="erpc__mu__transport_8hpp.html" target="_top" xlink:title="erpc_mu_transport.hpp">
<polygon fill="white" stroke="black" points="1758.5,-196 1758.5,-215 1874.5,-215 1874.5,-196 1758.5,-196"/>
<text text-anchor="middle" x="1816.5" y="-203" font-family="Helvetica,sans-Serif" font-size="10.00">erpc_mu_transport.hpp</text>
</a>
</g>
</g>
<!-- Node1&#45;&gt;Node29 -->
<g id="edge30" class="edge"><title>Node1&#45;&gt;Node29</title>
<path fill="none" stroke="midnightblue" d="M1709.47,-253.327C1735.87,-241.776 1774.14,-225.032 1797.05,-215.009"/>
<polygon fill="midnightblue" stroke="midnightblue" points="1707.74,-250.26 1699.99,-257.475 1710.55,-256.673 1707.74,-250.26"/>
</g>
<!-- Node30 -->
<g id="node30" class="node"><title>Node30</title>
<g id="a_node30"><a xlink:href="erpc__rpmsg__linux__transport_8hpp_source.html" target="_top" xlink:title="erpc_rpmsg_linux_transport.hpp">
<polygon fill="white" stroke="black" points="1893,-196 1893,-215 2048,-215 2048,-196 1893,-196"/>
<text text-anchor="middle" x="1970.5" y="-203" font-family="Helvetica,sans-Serif" font-size="10.00">erpc_rpmsg_linux_transport.hpp</text>
</a>
</g>
</g>
<!-- Node1&#45;&gt;Node30 -->
<g id="edge31" class="edge"><title>Node1&#45;&gt;Node30</title>
<path fill="none" stroke="midnightblue" d="M1732.15,-255.402C1788.37,-243.867 1877.16,-225.65 1929.03,-215.009"/>
<polygon fill="midnightblue" stroke="midnightblue" points="1731.14,-252.037 1722.05,-257.475 1732.55,-258.894 1731.14,-252.037"/>
</g>
<!-- Node31 -->
<g id="node31" class="node"><title>Node31</title>
<g id="a_node31"><a xlink:href="erpc__rpmsg__lite__rtos__transport_8hpp.html" target="_top" xlink:title="erpc_rpmsg_lite_rtos\l_transport.hpp">
<polygon fill="white" stroke="black" points="2066,-190.5 2066,-220.5 2173,-220.5 2173,-190.5 2066,-190.5"/>
<text text-anchor="start" x="2074" y="-208.5" font-family="Helvetica,sans-Serif" font-size="10.00">erpc_rpmsg_lite_rtos</text>
<text text-anchor="middle" x="2119.5" y="-197.5" font-family="Helvetica,sans-Serif" font-size="10.00">_transport.hpp</text>
</a>
</g>
</g>
<!-- Node1&#45;&gt;Node31 -->
<g id="edge32" class="edge"><title>Node1&#45;&gt;Node31</title>
<path fill="none" stroke="midnightblue" d="M1739.68,-260.984C1814.17,-254.201 1945.9,-240.648 2057.5,-221 2060.22,-220.521 2063,-219.997 2065.81,-219.442"/>
<polygon fill="midnightblue" stroke="midnightblue" points="1739.2,-257.513 1729.56,-261.896 1739.83,-264.485 1739.2,-257.513"/>
</g>
<!-- Node32 -->
<g id="node32" class="node"><title>Node32</title>
<g id="a_node32"><a xlink:href="erpc__rpmsg__lite__transport_8hpp.html" target="_top" xlink:title="erpc_rpmsg_lite_transport.hpp">
<polygon fill="white" stroke="black" points="2191.5,-196 2191.5,-215 2339.5,-215 2339.5,-196 2191.5,-196"/>
<text text-anchor="middle" x="2265.5" y="-203" font-family="Helvetica,sans-Serif" font-size="10.00">erpc_rpmsg_lite_transport.hpp</text>
</a>
</g>
</g>
<!-- Node1&#45;&gt;Node32 -->
<g id="edge33" class="edge"><title>Node1&#45;&gt;Node32</title>
<path fill="none" stroke="midnightblue" d="M1740,-262.282C1834.17,-256.035 2023.21,-242.016 2182.5,-221 2194.97,-219.355 2208.43,-217.178 2220.81,-215.013"/>
<polygon fill="midnightblue" stroke="midnightblue" points="1739.57,-258.803 1729.82,-262.952 1740.02,-265.788 1739.57,-258.803"/>
</g>
<!-- Node3 -->
<g id="node3" class="node"><title>Node3</title>
<g id="a_node3"><a xlink:href="erpc__client__server__common_8hpp.html" target="_top" xlink:title="erpc_client_server\l_common.hpp">
<polygon fill="white" stroke="black" points="146,-123.5 146,-153.5 241,-153.5 241,-123.5 146,-123.5"/>
<text text-anchor="start" x="154" y="-141.5" font-family="Helvetica,sans-Serif" font-size="10.00">erpc_client_server</text>
<text text-anchor="middle" x="193.5" y="-130.5" font-family="Helvetica,sans-Serif" font-size="10.00">_common.hpp</text>
</a>
</g>
</g>
<!-- Node2&#45;&gt;Node3 -->
<g id="edge2" class="edge"><title>Node2&#45;&gt;Node3</title>
<path fill="none" stroke="midnightblue" d="M240.052,-188.304C229.875,-177.635 216.68,-163.802 206.939,-153.589"/>
<polygon fill="midnightblue" stroke="midnightblue" points="237.704,-190.913 247.138,-195.734 242.769,-186.082 237.704,-190.913"/>
</g>
<!-- Node2&#45;&gt;Node6 -->
<g id="edge10" class="edge"><title>Node2&#45;&gt;Node6</title>
<path fill="none" stroke="midnightblue" d="M208.195,-193.05C184.334,-185.298 156.33,-172.935 136.5,-154 116.104,-134.525 83.9581,-52.2697 73.7344,-25.1865"/>
<polygon fill="midnightblue" stroke="midnightblue" points="207.202,-196.407 217.789,-195.997 209.258,-189.715 207.202,-196.407"/>
</g>
<!-- Node11 -->
<g id="node11" class="node"><title>Node11</title>
<g id="a_node11"><a xlink:href="erpc__basic__codec_8hpp.html" target="_top" xlink:title="erpc_basic_codec.hpp">
<polygon fill="white" stroke="black" points="259.5,-129 259.5,-148 373.5,-148 373.5,-129 259.5,-129"/>
<text text-anchor="middle" x="316.5" y="-136" font-family="Helvetica,sans-Serif" font-size="10.00">erpc_basic_codec.hpp</text>
</a>
</g>
</g>
<!-- Node2&#45;&gt;Node11 -->
<g id="edge11" class="edge"><title>Node2&#45;&gt;Node11</title>
<path fill="none" stroke="midnightblue" d="M270.858,-188.135C282.788,-175.423 298.859,-158.298 308.404,-148.127"/>
<polygon fill="midnightblue" stroke="midnightblue" points="268.018,-186.047 263.727,-195.734 273.122,-190.837 268.018,-186.047"/>
</g>
<!-- Node4 -->
<g id="node4" class="node"><title>Node4</title>
<g id="a_node4"><a xlink:href="erpc__client__manager_8h.html" target="_top" xlink:title="erpc_client_manager.h">
<polygon fill="white" stroke="black" points="289,-67.5 289,-86.5 404,-86.5 404,-67.5 289,-67.5"/>
<text text-anchor="middle" x="346.5" y="-74.5" font-family="Helvetica,sans-Serif" font-size="10.00">erpc_client_manager.h</text>
</a>
</g>
</g>
<!-- Node3&#45;&gt;Node4 -->
<g id="edge3" class="edge"><title>Node3&#45;&gt;Node4</title>
<path fill="none" stroke="midnightblue" d="M239.379,-119.658C267.44,-108.746 302.085,-95.2724 324.237,-86.6578"/>
<polygon fill="midnightblue" stroke="midnightblue" points="237.81,-116.513 229.759,-123.399 240.348,-123.037 237.81,-116.513"/>
</g>
<!-- Node9 -->
<g id="node9" class="node"><title>Node9</title>
<g id="a_node9"><a xlink:href="erpc__server_8hpp.html" target="_top" xlink:title="erpc_server.hpp">
<polygon fill="white" stroke="black" points="159,-67.5 159,-86.5 244,-86.5 244,-67.5 159,-67.5"/>
<text text-anchor="middle" x="201.5" y="-74.5" font-family="Helvetica,sans-Serif" font-size="10.00">erpc_server.hpp</text>
</a>
</g>
</g>
<!-- Node3&#45;&gt;Node9 -->
<g id="edge8" class="edge"><title>Node3&#45;&gt;Node9</title>
<path fill="none" stroke="midnightblue" d="M196.755,-113.289C198.023,-103.857 199.395,-93.6548 200.336,-86.6578"/>
<polygon fill="midnightblue" stroke="midnightblue" points="193.26,-113.022 195.396,-123.399 200.197,-113.955 193.26,-113.022"/>
</g>
<!-- Node5 -->
<g id="node5" class="node"><title>Node5</title>
<g id="a_node5"><a xlink:href="erpc__arbitrated__client__manager_8hpp.html" target="_top" xlink:title="erpc_arbitrated_client\l_manager.hpp">
<polygon fill="white" stroke="black" points="415.5,-0.5 415.5,-30.5 525.5,-30.5 525.5,-0.5 415.5,-0.5"/>
<text text-anchor="start" x="423.5" y="-18.5" font-family="Helvetica,sans-Serif" font-size="10.00">erpc_arbitrated_client</text>
<text text-anchor="middle" x="470.5" y="-7.5" font-family="Helvetica,sans-Serif" font-size="10.00">_manager.hpp</text>
</a>
</g>
</g>
<!-- Node4&#45;&gt;Node5 -->
<g id="edge4" class="edge"><title>Node4&#45;&gt;Node5</title>
<path fill="none" stroke="midnightblue" d="M373.447,-63.0696C393.463,-53.4655 420.737,-40.3784 441.276,-30.523"/>
<polygon fill="midnightblue" stroke="midnightblue" points="371.768,-59.9934 364.266,-67.4751 374.796,-66.3044 371.768,-59.9934"/>
</g>
<!-- Node4&#45;&gt;Node6 -->
<g id="edge5" class="edge"><title>Node4&#45;&gt;Node6</title>
<path fill="none" stroke="midnightblue" d="M297.008,-65.3304C243.483,-53.7915 159.227,-35.6277 109.971,-25.0091"/>
<polygon fill="midnightblue" stroke="midnightblue" points="296.443,-68.789 306.956,-67.4751 297.918,-61.9462 296.443,-68.789"/>
</g>
<!-- Node7 -->
<g id="node7" class="node"><title>Node7</title>
<g id="a_node7"><a xlink:href="erpc__arbitrated__client__setup_8h.html" target="_top" xlink:title="erpc_arbitrated_client\l_setup.h">
<polygon fill="white" stroke="black" points="543.5,-0.5 543.5,-30.5 653.5,-30.5 653.5,-0.5 543.5,-0.5"/>
<text text-anchor="start" x="551.5" y="-18.5" font-family="Helvetica,sans-Serif" font-size="10.00">erpc_arbitrated_client</text>
<text text-anchor="middle" x="598.5" y="-7.5" font-family="Helvetica,sans-Serif" font-size="10.00">_setup.h</text>
</a>
</g>
</g>
<!-- Node4&#45;&gt;Node7 -->
<g id="edge6" class="edge"><title>Node4&#45;&gt;Node7</title>
<path fill="none" stroke="midnightblue" d="M392.409,-65.1603C434.923,-55.1225 498.213,-40.1789 543.429,-29.5029"/>
<polygon fill="midnightblue" stroke="midnightblue" points="391.534,-61.7708 382.605,-67.4751 393.142,-68.5834 391.534,-61.7708"/>
</g>
<!-- Node8 -->
<g id="node8" class="node"><title>Node8</title>
<g id="a_node8"><a xlink:href="erpc__client__setup_8h.html" target="_top" xlink:title="erpc_client_setup.h">
<polygon fill="white" stroke="black" points="296,-6 296,-25 397,-25 397,-6 296,-6"/>
<text text-anchor="middle" x="346.5" y="-13" font-family="Helvetica,sans-Serif" font-size="10.00">erpc_client_setup.h</text>
</a>
</g>
</g>
<!-- Node4&#45;&gt;Node8 -->
<g id="edge7" class="edge"><title>Node4&#45;&gt;Node8</title>
<path fill="none" stroke="midnightblue" d="M346.5,-57.3165C346.5,-46.4962 346.5,-33.398 346.5,-25.0091"/>
<polygon fill="midnightblue" stroke="midnightblue" points="343,-57.4751 346.5,-67.4751 350,-57.4751 343,-57.4751"/>
</g>
<!-- Node10 -->
<g id="node10" class="node"><title>Node10</title>
<g id="a_node10"><a xlink:href="erpc__simple__server_8hpp.html" target="_top" xlink:title="erpc_simple_server.hpp">
<polygon fill="white" stroke="black" points="159,-6 159,-25 278,-25 278,-6 159,-6"/>
<text text-anchor="middle" x="218.5" y="-13" font-family="Helvetica,sans-Serif" font-size="10.00">erpc_simple_server.hpp</text>
</a>
</g>
</g>
<!-- Node9&#45;&gt;Node10 -->
<g id="edge9" class="edge"><title>Node9&#45;&gt;Node10</title>
<path fill="none" stroke="midnightblue" d="M206.741,-57.6575C209.851,-46.7724 213.647,-33.4863 216.069,-25.0091"/>
<polygon fill="midnightblue" stroke="midnightblue" points="203.318,-56.8983 203.936,-67.4751 210.048,-58.8214 203.318,-56.8983"/>
</g>
<!-- Node13 -->
<g id="node13" class="node"><title>Node13</title>
<g id="a_node13"><a xlink:href="erpc__dspi__master__transport_8hpp.html" target="_top" xlink:title="erpc_dspi_master_transport.hpp">
<polygon fill="white" stroke="black" points="721.5,-129 721.5,-148 877.5,-148 877.5,-129 721.5,-129"/>
<text text-anchor="middle" x="799.5" y="-136" font-family="Helvetica,sans-Serif" font-size="10.00">erpc_dspi_master_transport.hpp</text>
</a>
</g>
</g>
<!-- Node12&#45;&gt;Node13 -->
<g id="edge14" class="edge"><title>Node12&#45;&gt;Node13</title>
<path fill="none" stroke="midnightblue" d="M1306.09,-198.241C1208.53,-189.901 1034.61,-173.861 886.5,-154 873.752,-152.29 860.002,-150.142 847.282,-148.026"/>
<polygon fill="midnightblue" stroke="midnightblue" points="1305.89,-201.737 1316.15,-199.098 1306.49,-194.762 1305.89,-201.737"/>
</g>
<!-- Node14 -->
<g id="node14" class="node"><title>Node14</title>
<g id="a_node14"><a xlink:href="erpc__dspi__slave__transport_8hpp.html" target="_top" xlink:title="erpc_dspi_slave_transport.hpp">
<polygon fill="white" stroke="black" points="895.5,-129 895.5,-148 1043.5,-148 1043.5,-129 895.5,-129"/>
<text text-anchor="middle" x="969.5" y="-136" font-family="Helvetica,sans-Serif" font-size="10.00">erpc_dspi_slave_transport.hpp</text>
</a>
</g>
</g>
<!-- Node12&#45;&gt;Node14 -->
<g id="edge15" class="edge"><title>Node12&#45;&gt;Node14</title>
<path fill="none" stroke="midnightblue" d="M1314.86,-194.493C1248.3,-184.559 1143.82,-168.727 1053.5,-154 1041.96,-152.119 1029.54,-150.018 1017.89,-148.012"/>
<polygon fill="midnightblue" stroke="midnightblue" points="1314.39,-197.963 1324.8,-195.976 1315.43,-191.039 1314.39,-197.963"/>
</g>
<!-- Node15 -->
<g id="node15" class="node"><title>Node15</title>
<g id="a_node15"><a xlink:href="erpc__i2c__slave__transport_8hpp.html" target="_top" xlink:title="erpc_i2c_slave_transport.hpp">
<polygon fill="white" stroke="black" points="1062,-129 1062,-148 1205,-148 1205,-129 1062,-129"/>
<text text-anchor="middle" x="1133.5" y="-136" font-family="Helvetica,sans-Serif" font-size="10.00">erpc_i2c_slave_transport.hpp</text>
</a>
</g>
</g>
<!-- Node12&#45;&gt;Node15 -->
<g id="edge16" class="edge"><title>Node12&#45;&gt;Node15</title>
<path fill="none" stroke="midnightblue" d="M1339.99,-193.404C1290.85,-180.576 1211.02,-159.736 1166.38,-148.083"/>
<polygon fill="midnightblue" stroke="midnightblue" points="1339.13,-196.796 1349.69,-195.936 1340.9,-190.023 1339.13,-196.796"/>
</g>
<!-- Node16 -->
<g id="node16" class="node"><title>Node16</title>
<g id="a_node16"><a xlink:href="erpc__lpi2c__slave__transport_8hpp.html" target="_top" xlink:title="erpc_lpi2c_slave_transport.hpp">
<polygon fill="white" stroke="black" points="1223.5,-129 1223.5,-148 1373.5,-148 1373.5,-129 1223.5,-129"/>
<text text-anchor="middle" x="1298.5" y="-136" font-family="Helvetica,sans-Serif" font-size="10.00">erpc_lpi2c_slave_transport.hpp</text>
</a>
</g>
</g>
<!-- Node12&#45;&gt;Node16 -->
<g id="edge17" class="edge"><title>Node12&#45;&gt;Node16</title>
<path fill="none" stroke="midnightblue" d="M1363.2,-189.568C1346.62,-176.738 1323.29,-158.685 1309.65,-148.127"/>
<polygon fill="midnightblue" stroke="midnightblue" points="1361.12,-192.382 1371.17,-195.734 1365.4,-186.846 1361.12,-192.382"/>
</g>
<!-- Node17 -->
<g id="node17" class="node"><title>Node17</title>
<g id="a_node17"><a xlink:href="erpc__lpspi__slave__transport_8hpp.html" target="_top" xlink:title="erpc_lpspi_slave_transport.hpp">
<polygon fill="white" stroke="black" points="1391.5,-129 1391.5,-148 1541.5,-148 1541.5,-129 1391.5,-129"/>
<text text-anchor="middle" x="1466.5" y="-136" font-family="Helvetica,sans-Serif" font-size="10.00">erpc_lpspi_slave_transport.hpp</text>
</a>
</g>
</g>
<!-- Node12&#45;&gt;Node17 -->
<g id="edge18" class="edge"><title>Node12&#45;&gt;Node17</title>
<path fill="none" stroke="midnightblue" d="M1401.8,-189.568C1418.38,-176.738 1441.71,-158.685 1455.35,-148.127"/>
<polygon fill="midnightblue" stroke="midnightblue" points="1399.6,-186.846 1393.83,-195.734 1403.88,-192.382 1399.6,-186.846"/>
</g>
<!-- Node18 -->
<g id="node18" class="node"><title>Node18</title>
<g id="a_node18"><a xlink:href="erpc__rpmsg__tty__rtos__transport_8hpp.html" target="_top" xlink:title="erpc_rpmsg_tty_rtos\l_transport.hpp">
<polygon fill="white" stroke="black" points="1559.5,-123.5 1559.5,-153.5 1665.5,-153.5 1665.5,-123.5 1559.5,-123.5"/>
<text text-anchor="start" x="1567.5" y="-141.5" font-family="Helvetica,sans-Serif" font-size="10.00">erpc_rpmsg_tty_rtos</text>
<text text-anchor="middle" x="1612.5" y="-130.5" font-family="Helvetica,sans-Serif" font-size="10.00">_transport.hpp</text>
</a>
</g>
</g>
<!-- Node12&#45;&gt;Node18 -->
<g id="edge19" class="edge"><title>Node12&#45;&gt;Node18</title>
<path fill="none" stroke="midnightblue" d="M1422.99,-193.058C1461.98,-182.037 1521.05,-165.344 1562.86,-153.528"/>
<polygon fill="midnightblue" stroke="midnightblue" points="1421.71,-189.781 1413.04,-195.869 1423.62,-196.517 1421.71,-189.781"/>
</g>
<!-- Node19 -->
<g id="node19" class="node"><title>Node19</title>
<g id="a_node19"><a xlink:href="erpc__serial__transport_8hpp.html" target="_top" xlink:title="erpc_serial_transport.hpp">
<polygon fill="white" stroke="black" points="1683.5,-129 1683.5,-148 1809.5,-148 1809.5,-129 1683.5,-129"/>
<text text-anchor="middle" x="1746.5" y="-136" font-family="Helvetica,sans-Serif" font-size="10.00">erpc_serial_transport.hpp</text>
</a>
</g>
</g>
<!-- Node12&#45;&gt;Node19 -->
<g id="edge20" class="edge"><title>Node12&#45;&gt;Node19</title>
<path fill="none" stroke="midnightblue" d="M1435.6,-194.052C1442.95,-192.659 1450.41,-191.273 1457.5,-190 1553.72,-172.72 1578.34,-171.653 1674.5,-154 1684.53,-152.158 1695.33,-150.051 1705.43,-148.025"/>
<polygon fill="midnightblue" stroke="midnightblue" points="1434.86,-190.631 1425.69,-195.946 1436.17,-197.506 1434.86,-190.631"/>
</g>
<!-- Node20 -->
<g id="node20" class="node"><title>Node20</title>
<g id="a_node20"><a xlink:href="erpc__spi__master__transport_8hpp.html" target="_top" xlink:title="erpc_spi_master_transport.hpp">
<polygon fill="white" stroke="black" points="1828,-129 1828,-148 1979,-148 1979,-129 1828,-129"/>
<text text-anchor="middle" x="1903.5" y="-136" font-family="Helvetica,sans-Serif" font-size="10.00">erpc_spi_master_transport.hpp</text>
</a>
</g>
</g>
<!-- Node12&#45;&gt;Node20 -->
<g id="edge21" class="edge"><title>Node12&#45;&gt;Node20</title>
<path fill="none" stroke="midnightblue" d="M1432.76,-194.125C1441.01,-192.613 1449.48,-191.173 1457.5,-190 1617.04,-166.672 1658.71,-175.57 1818.5,-154 1830.96,-152.318 1844.4,-150.178 1856.83,-148.063"/>
<polygon fill="midnightblue" stroke="midnightblue" points="1432.04,-190.699 1422.86,-195.993 1433.34,-197.578 1432.04,-190.699"/>
</g>
<!-- Node21 -->
<g id="node21" class="node"><title>Node21</title>
<g id="a_node21"><a xlink:href="erpc__spi__slave__transport_8hpp.html" target="_top" xlink:title="erpc_spi_slave_transport.hpp">
<polygon fill="white" stroke="black" points="1997,-129 1997,-148 2140,-148 2140,-129 1997,-129"/>
<text text-anchor="middle" x="2068.5" y="-136" font-family="Helvetica,sans-Serif" font-size="10.00">erpc_spi_slave_transport.hpp</text>
</a>
</g>
</g>
<!-- Node12&#45;&gt;Node21 -->
<g id="edge22" class="edge"><title>Node12&#45;&gt;Node21</title>
<path fill="none" stroke="midnightblue" d="M1431.59,-194.111C1440.2,-192.547 1449.09,-191.094 1457.5,-190 1692.07,-159.492 1753.76,-183.138 1988.5,-154 2000.83,-152.47 2014.13,-150.278 2026.29,-148.061"/>
<polygon fill="midnightblue" stroke="midnightblue" points="1430.84,-190.69 1421.67,-195.983 1432.14,-197.568 1430.84,-190.69"/>
</g>
<!-- Node22 -->
<g id="node22" class="node"><title>Node22</title>
<g id="a_node22"><a xlink:href="erpc__spidev__master__transport_8hpp.html" target="_top" xlink:title="erpc_spidev_master\l_transport.hpp">
<polygon fill="white" stroke="black" points="2158,-123.5 2158,-153.5 2261,-153.5 2261,-123.5 2158,-123.5"/>
<text text-anchor="start" x="2166" y="-141.5" font-family="Helvetica,sans-Serif" font-size="10.00">erpc_spidev_master</text>
<text text-anchor="middle" x="2209.5" y="-130.5" font-family="Helvetica,sans-Serif" font-size="10.00">_transport.hpp</text>
</a>
</g>
</g>
<!-- Node12&#45;&gt;Node22 -->
<g id="edge23" class="edge"><title>Node12&#45;&gt;Node22</title>
<path fill="none" stroke="midnightblue" d="M1431.29,-194.051C1439.98,-192.48 1448.98,-191.04 1457.5,-190 1763.2,-152.681 1844.74,-198.362 2149.5,-154 2152.26,-153.599 2155.07,-153.129 2157.91,-152.61"/>
<polygon fill="midnightblue" stroke="midnightblue" points="1430.44,-190.649 1421.26,-195.941 1431.74,-197.528 1430.44,-190.649"/>
</g>
<!-- Node23 -->
<g id="node23" class="node"><title>Node23</title>
<g id="a_node23"><a xlink:href="erpc__tcp__transport_8hpp.html" target="_top" xlink:title="erpc_tcp_transport.hpp">
<polygon fill="white" stroke="black" points="2279.5,-129 2279.5,-148 2395.5,-148 2395.5,-129 2279.5,-129"/>
<text text-anchor="middle" x="2337.5" y="-136" font-family="Helvetica,sans-Serif" font-size="10.00">erpc_tcp_transport.hpp</text>
</a>
</g>
</g>
<!-- Node12&#45;&gt;Node23 -->
<g id="edge24" class="edge"><title>Node12&#45;&gt;Node23</title>
<path fill="none" stroke="midnightblue" d="M1430.7,-194.1C1439.58,-192.494 1448.79,-191.029 1457.5,-190 1816.69,-147.558 1911.8,-200.418 2270.5,-154 2281.24,-152.61 2292.81,-150.376 2303.26,-148.074"/>
<polygon fill="midnightblue" stroke="midnightblue" points="1430.05,-190.662 1420.87,-195.959 1431.35,-197.541 1430.05,-190.662"/>
</g>
<!-- Node24 -->
<g id="node24" class="node"><title>Node24</title>
<g id="a_node24"><a xlink:href="erpc__uart__cmsis__transport_8hpp.html" target="_top" xlink:title="erpc_uart_cmsis_transport.hpp">
<polygon fill="white" stroke="black" points="2414,-129 2414,-148 2565,-148 2565,-129 2414,-129"/>
<text text-anchor="middle" x="2489.5" y="-136" font-family="Helvetica,sans-Serif" font-size="10.00">erpc_uart_cmsis_transport.hpp</text>
</a>
</g>
</g>
<!-- Node12&#45;&gt;Node24 -->
<g id="edge25" class="edge"><title>Node12&#45;&gt;Node24</title>
<path fill="none" stroke="midnightblue" d="M1430.41,-194.108C1439.37,-192.485 1448.69,-191.013 1457.5,-190 1875.94,-141.884 1985.56,-197.507 2404.5,-154 2418.05,-152.593 2432.71,-150.354 2445.97,-148.052"/>
<polygon fill="midnightblue" stroke="midnightblue" points="1429.65,-190.688 1420.48,-195.988 1430.96,-197.566 1429.65,-190.688"/>
</g>
<!-- Node25 -->
<g id="node25" class="node"><title>Node25</title>
<g id="a_node25"><a xlink:href="erpc__uart__zephyr__transport_8hpp.html" target="_top" xlink:title="erpc_uart_zephyr_transport.hpp">
<polygon fill="white" stroke="black" points="391.5,-129 391.5,-148 545.5,-148 545.5,-129 391.5,-129"/>
<text text-anchor="middle" x="468.5" y="-136" font-family="Helvetica,sans-Serif" font-size="10.00">erpc_uart_zephyr_transport.hpp</text>
</a>
</g>
</g>
<!-- Node12&#45;&gt;Node25 -->
<g id="edge26" class="edge"><title>Node12&#45;&gt;Node25</title>
<path fill="none" stroke="midnightblue" d="M1306.07,-202.548C1159.75,-198.212 830.116,-185.55 554.5,-154 541.112,-152.467 526.638,-150.248 513.452,-148.004"/>
<polygon fill="midnightblue" stroke="midnightblue" points="1306.19,-206.053 1316.28,-202.846 1306.39,-199.056 1306.19,-206.053"/>
</g>
<!-- Node26 -->
<g id="node26" class="node"><title>Node26</title>
<g id="a_node26"><a xlink:href="erpc__usb__cdc__transport_8hpp.html" target="_top" xlink:title="erpc_usb_cdc_transport.hpp">
<polygon fill="white" stroke="black" points="563.5,-129 563.5,-148 703.5,-148 703.5,-129 563.5,-129"/>
<text text-anchor="middle" x="633.5" y="-136" font-family="Helvetica,sans-Serif" font-size="10.00">erpc_usb_cdc_transport.hpp</text>
</a>
</g>
</g>
<!-- Node12&#45;&gt;Node26 -->
<g id="edge27" class="edge"><title>Node12&#45;&gt;Node26</title>
<path fill="none" stroke="midnightblue" d="M1305.96,-201.381C1181.24,-195.705 926.581,-181.635 712.5,-154 700.33,-152.429 687.192,-150.225 675.189,-148.008"/>
<polygon fill="midnightblue" stroke="midnightblue" points="1306.02,-204.887 1316.17,-201.84 1306.34,-197.894 1306.02,-204.887"/>
</g>
</g>
</svg>
