<?xml version="1.0" encoding="UTF-8" standalone="no"?>
<!DOCTYPE svg PUBLIC "-//W3C//DTD SVG 1.1//EN"
 "http://www.w3.org/Graphics/SVG/1.1/DTD/svg11.dtd">
<!-- Generated by graphviz version 2.38.0 (20140413.2041)
 -->
<!-- Title: erpc_framed_transport.hpp Pages: 1 -->
<svg width="1886pt" height="95pt"
 viewBox="0.00 0.00 1886.00 95.00" xmlns="http://www.w3.org/2000/svg" xmlns:xlink="http://www.w3.org/1999/xlink">
<g id="graph0" class="graph" transform="scale(1 1) rotate(0) translate(4 91)">
<title>erpc_framed_transport.hpp</title>
<polygon fill="white" stroke="none" points="-4,4 -4,-91 1882,-91 1882,4 -4,4"/>
<!-- Node1 -->
<g id="node1" class="node"><title>Node1</title>
<polygon fill="#bfbfbf" stroke="black" points="913,-67.5 913,-86.5 1045,-86.5 1045,-67.5 913,-67.5"/>
<text text-anchor="middle" x="979" y="-74.5" font-family="Helvetica,sans-Serif" font-size="10.00">erpc_framed_transport.hpp</text>
</g>
<!-- Node2 -->
<g id="node2" class="node"><title>Node2</title>
<g id="a_node2"><a xlink:href="erpc__dspi__master__transport_8hpp.html" target="_top" xlink:title="erpc_dspi_master_transport.hpp">
<polygon fill="white" stroke="black" points="0,-6 0,-25 156,-25 156,-6 0,-6"/>
<text text-anchor="middle" x="78" y="-13" font-family="Helvetica,sans-Serif" font-size="10.00">erpc_dspi_master_transport.hpp</text>
</a>
</g>
</g>
<!-- Node1&#45;&gt;Node2 -->
<g id="edge1" class="edge"><title>Node1&#45;&gt;Node2</title>
<path fill="none" stroke="midnightblue" d="M902.769,-74.5789C758.391,-71.2688 435.295,-60.9042 165,-31 151.455,-29.5014 136.812,-27.2922 123.473,-25.0477"/>
<polygon fill="midnightblue" stroke="midnightblue" points="902.776,-78.0799 912.852,-74.8052 902.933,-71.0816 902.776,-78.0799"/>
</g>
<!-- Node3 -->
<g id="node3" class="node"><title>Node3</title>
<g id="a_node3"><a xlink:href="erpc__dspi__slave__transport_8hpp.html" target="_top" xlink:title="erpc_dspi_slave_transport.hpp">
<polygon fill="white" stroke="black" points="174,-6 174,-25 322,-25 322,-6 174,-6"/>
<text text-anchor="middle" x="248" y="-13" font-family="Helvetica,sans-Serif" font-size="10.00">erpc_dspi_slave_transport.hpp</text>
</a>
</g>
</g>
<!-- Node1&#45;&gt;Node3 -->
<g id="edge2" class="edge"><title>Node1&#45;&gt;Node3</title>
<path fill="none" stroke="midnightblue" d="M902.24,-73.2457C780.683,-68.305 536.583,-56.0276 331,-31 318.222,-29.4444 304.421,-27.2449 291.81,-25.028"/>
<polygon fill="midnightblue" stroke="midnightblue" points="902.42,-76.7557 912.552,-73.6592 902.7,-69.7613 902.42,-76.7557"/>
</g>
<!-- Node4 -->
<g id="node4" class="node"><title>Node4</title>
<g id="a_node4"><a xlink:href="erpc__i2c__slave__transport_8hpp.html" target="_top" xlink:title="erpc_i2c_slave_transport.hpp">
<polygon fill="white" stroke="black" points="340.5,-6 340.5,-25 483.5,-25 483.5,-6 340.5,-6"/>
<text text-anchor="middle" x="412" y="-13" font-family="Helvetica,sans-Serif" font-size="10.00">erpc_i2c_slave_transport.hpp</text>
</a>
</g>
</g>
<!-- Node1&#45;&gt;Node4 -->
<g id="edge3" class="edge"><title>Node1&#45;&gt;Node4</title>
<path fill="none" stroke="midnightblue" d="M902.579,-70.9374C806.658,-64.1206 637.208,-50.548 493,-31 480.825,-29.3497 467.689,-27.1718 455.612,-25.007"/>
<polygon fill="midnightblue" stroke="midnightblue" points="902.545,-74.4436 912.767,-71.6556 903.038,-67.4609 902.545,-74.4436"/>
</g>
<!-- Node5 -->
<g id="node5" class="node"><title>Node5</title>
<g id="a_node5"><a xlink:href="erpc__lpi2c__slave__transport_8hpp.html" target="_top" xlink:title="erpc_lpi2c_slave_transport.hpp">
<polygon fill="white" stroke="black" points="502,-6 502,-25 652,-25 652,-6 502,-6"/>
<text text-anchor="middle" x="577" y="-13" font-family="Helvetica,sans-Serif" font-size="10.00">erpc_lpi2c_slave_transport.hpp</text>
</a>
</g>
</g>
<!-- Node1&#45;&gt;Node5 -->
<g id="edge4" class="edge"><title>Node1&#45;&gt;Node5</title>
<path fill="none" stroke="midnightblue" d="M904.581,-66.119C840.074,-57.399 744.266,-44.075 661,-31 649.304,-29.1634 636.715,-27.0587 624.933,-25.0328"/>
<polygon fill="midnightblue" stroke="midnightblue" points="904.28,-69.6101 914.658,-67.4783 905.216,-62.6729 904.28,-69.6101"/>
</g>
<!-- Node6 -->
<g id="node6" class="node"><title>Node6</title>
<g id="a_node6"><a xlink:href="erpc__lpspi__slave__transport_8hpp.html" target="_top" xlink:title="erpc_lpspi_slave_transport.hpp">
<polygon fill="white" stroke="black" points="670,-6 670,-25 820,-25 820,-6 670,-6"/>
<text text-anchor="middle" x="745" y="-13" font-family="Helvetica,sans-Serif" font-size="10.00">erpc_lpspi_slave_transport.hpp</text>
</a>
</g>
</g>
<!-- Node1&#45;&gt;Node6 -->
<g id="edge5" class="edge"><title>Node1&#45;&gt;Node6</title>
<path fill="none" stroke="midnightblue" d="M935.615,-64.9685C890.177,-53.4147 819.791,-35.5173 778.464,-25.0091"/>
<polygon fill="midnightblue" stroke="midnightblue" points="934.919,-68.4028 945.474,-67.4751 936.644,-61.6186 934.919,-68.4028"/>
</g>
<!-- Node7 -->
<g id="node7" class="node"><title>Node7</title>
<g id="a_node7"><a xlink:href="erpc__serial__transport_8hpp.html" target="_top" xlink:title="erpc_serial_transport.hpp">
<polygon fill="white" stroke="black" points="838,-6 838,-25 964,-25 964,-6 838,-6"/>
<text text-anchor="middle" x="901" y="-13" font-family="Helvetica,sans-Serif" font-size="10.00">erpc_serial_transport.hpp</text>
</a>
</g>
</g>
<!-- Node1&#45;&gt;Node7 -->
<g id="edge6" class="edge"><title>Node1&#45;&gt;Node7</title>
<path fill="none" stroke="midnightblue" d="M959.721,-61.2938C944.759,-49.8803 924.541,-34.4577 912.155,-25.0091"/>
<polygon fill="midnightblue" stroke="midnightblue" points="957.751,-64.1928 967.825,-67.4751 961.996,-58.6272 957.751,-64.1928"/>
</g>
<!-- Node8 -->
<g id="node8" class="node"><title>Node8</title>
<g id="a_node8"><a xlink:href="erpc__spi__master__transport_8hpp.html" target="_top" xlink:title="erpc_spi_master_transport.hpp">
<polygon fill="white" stroke="black" points="982.5,-6 982.5,-25 1133.5,-25 1133.5,-6 982.5,-6"/>
<text text-anchor="middle" x="1058" y="-13" font-family="Helvetica,sans-Serif" font-size="10.00">erpc_spi_master_transport.hpp</text>
</a>
</g>
</g>
<!-- Node1&#45;&gt;Node8 -->
<g id="edge7" class="edge"><title>Node1&#45;&gt;Node8</title>
<path fill="none" stroke="midnightblue" d="M998.526,-61.2938C1013.68,-49.8803 1034.16,-34.4577 1046.7,-25.0091"/>
<polygon fill="midnightblue" stroke="midnightblue" points="996.201,-58.6631 990.319,-67.4751 1000.41,-64.2547 996.201,-58.6631"/>
</g>
<!-- Node9 -->
<g id="node9" class="node"><title>Node9</title>
<g id="a_node9"><a xlink:href="erpc__spi__slave__transport_8hpp.html" target="_top" xlink:title="erpc_spi_slave_transport.hpp">
<polygon fill="white" stroke="black" points="1151.5,-6 1151.5,-25 1294.5,-25 1294.5,-6 1151.5,-6"/>
<text text-anchor="middle" x="1223" y="-13" font-family="Helvetica,sans-Serif" font-size="10.00">erpc_spi_slave_transport.hpp</text>
</a>
</g>
</g>
<!-- Node1&#45;&gt;Node9 -->
<g id="edge8" class="edge"><title>Node1&#45;&gt;Node9</title>
<path fill="none" stroke="midnightblue" d="M1023.94,-65.0412C1071.31,-53.49 1144.92,-35.5394 1188.11,-25.0091"/>
<polygon fill="midnightblue" stroke="midnightblue" points="1022.85,-61.7056 1013.96,-67.4751 1024.5,-68.5063 1022.85,-61.7056"/>
</g>
<!-- Node10 -->
<g id="node10" class="node"><title>Node10</title>
<g id="a_node10"><a xlink:href="erpc__spidev__master__transport_8hpp.html" target="_top" xlink:title="erpc_spidev_master\l_transport.hpp">
<polygon fill="white" stroke="black" points="1312.5,-0.5 1312.5,-30.5 1415.5,-30.5 1415.5,-0.5 1312.5,-0.5"/>
<text text-anchor="start" x="1320.5" y="-18.5" font-family="Helvetica,sans-Serif" font-size="10.00">erpc_spidev_master</text>
<text text-anchor="middle" x="1364" y="-7.5" font-family="Helvetica,sans-Serif" font-size="10.00">_transport.hpp</text>
</a>
</g>
</g>
<!-- Node1&#45;&gt;Node10 -->
<g id="edge9" class="edge"><title>Node1&#45;&gt;Node10</title>
<path fill="none" stroke="midnightblue" d="M1055.62,-67.5731C1121.7,-59.7856 1219.53,-47.0128 1304,-31 1306.74,-30.481 1309.54,-29.9179 1312.36,-29.3249"/>
<polygon fill="midnightblue" stroke="midnightblue" points="1054.82,-64.1426 1045.29,-68.7798 1055.63,-71.0953 1054.82,-64.1426"/>
</g>
<!-- Node11 -->
<g id="node11" class="node"><title>Node11</title>
<g id="a_node11"><a xlink:href="erpc__tcp__transport_8hpp.html" target="_top" xlink:title="erpc_tcp_transport.hpp">
<polygon fill="white" stroke="black" points="1434,-6 1434,-25 1550,-25 1550,-6 1434,-6"/>
<text text-anchor="middle" x="1492" y="-13" font-family="Helvetica,sans-Serif" font-size="10.00">erpc_tcp_transport.hpp</text>
</a>
</g>
</g>
<!-- Node1&#45;&gt;Node11 -->
<g id="edge10" class="edge"><title>Node1&#45;&gt;Node11</title>
<path fill="none" stroke="midnightblue" d="M1055.05,-70.946C1144.1,-64.424 1295.84,-51.4253 1425,-31 1435.11,-29.4013 1445.99,-27.2403 1455.98,-25.0753"/>
<polygon fill="midnightblue" stroke="midnightblue" points="1054.76,-67.4577 1045.04,-71.6712 1055.27,-74.4394 1054.76,-67.4577"/>
</g>
<!-- Node12 -->
<g id="node12" class="node"><title>Node12</title>
<g id="a_node12"><a xlink:href="erpc__uart__cmsis__transport_8hpp.html" target="_top" xlink:title="erpc_uart_cmsis_transport.hpp">
<polygon fill="white" stroke="black" points="1568.5,-6 1568.5,-25 1719.5,-25 1719.5,-6 1568.5,-6"/>
<text text-anchor="middle" x="1644" y="-13" font-family="Helvetica,sans-Serif" font-size="10.00">erpc_uart_cmsis_transport.hpp</text>
</a>
</g>
</g>
<!-- Node1&#45;&gt;Node12 -->
<g id="edge11" class="edge"><title>Node1&#45;&gt;Node12</title>
<path fill="none" stroke="midnightblue" d="M1055.41,-72.3046C1166.56,-66.4236 1379.19,-53.2653 1559,-31 1571.93,-29.3995 1585.88,-27.2122 1598.68,-25.0218"/>
<polygon fill="midnightblue" stroke="midnightblue" points="1055.11,-68.8157 1045.3,-72.8342 1055.47,-75.8061 1055.11,-68.8157"/>
</g>
<!-- Node13 -->
<g id="node13" class="node"><title>Node13</title>
<g id="a_node13"><a xlink:href="erpc__usb__cdc__transport_8hpp.html" target="_top" xlink:title="erpc_usb_cdc_transport.hpp">
<polygon fill="white" stroke="black" points="1738,-6 1738,-25 1878,-25 1878,-6 1738,-6"/>
<text text-anchor="middle" x="1808" y="-13" font-family="Helvetica,sans-Serif" font-size="10.00">erpc_usb_cdc_transport.hpp</text>
</a>
</g>
</g>
<!-- Node1&#45;&gt;Node13 -->
<g id="edge12" class="edge"><title>Node1&#45;&gt;Node13</title>
<path fill="none" stroke="midnightblue" d="M1055.51,-74.4781C1191.49,-71.0906 1484,-60.7219 1729,-31 1741.32,-29.5054 1754.62,-27.2974 1766.73,-25.0528"/>
<polygon fill="midnightblue" stroke="midnightblue" points="1055.12,-70.9866 1045.21,-74.7289 1055.29,-77.9845 1055.12,-70.9866"/>
</g>
</g>
</svg>
