<?xml version="1.0" encoding="UTF-8" standalone="no"?>
<!DOCTYPE svg PUBLIC "-//W3C//DTD SVG 1.1//EN"
 "http://www.w3.org/Graphics/SVG/1.1/DTD/svg11.dtd">
<!-- Generated by graphviz version 2.38.0 (20140413.2041)
 -->
<!-- Title: erpc_client_manager.h Pages: 1 -->
<svg width="441pt" height="319pt"
 viewBox="0.00 0.00 441.17 319.00" xmlns="http://www.w3.org/2000/svg" xmlns:xlink="http://www.w3.org/1999/xlink">
<g id="graph0" class="graph" transform="scale(1 1) rotate(0) translate(4 315)">
<title>erpc_client_manager.h</title>
<polygon fill="white" stroke="none" points="-4,4 -4,-315 437.174,-315 437.174,4 -4,4"/>
<!-- Node1 -->
<g id="node1" class="node"><title>Node1</title>
<polygon fill="#bfbfbf" stroke="black" points="212.174,-291.5 212.174,-310.5 327.174,-310.5 327.174,-291.5 212.174,-291.5"/>
<text text-anchor="middle" x="269.674" y="-298.5" font-family="Helvetica,sans-Serif" font-size="10.00">erpc_client_manager.h</text>
</g>
<!-- Node2 -->
<g id="node2" class="node"><title>Node2</title>
<g id="a_node2"><a xlink:href="erpc__client__server__common_8hpp.html" target="_top" xlink:title="erpc_client_server\l_common.hpp">
<polygon fill="white" stroke="black" points="222.174,-224.5 222.174,-254.5 317.174,-254.5 317.174,-224.5 222.174,-224.5"/>
<text text-anchor="start" x="230.174" y="-242.5" font-family="Helvetica,sans-Serif" font-size="10.00">erpc_client_server</text>
<text text-anchor="middle" x="269.674" y="-231.5" font-family="Helvetica,sans-Serif" font-size="10.00">_common.hpp</text>
</a>
</g>
</g>
<!-- Node1&#45;&gt;Node2 -->
<g id="edge1" class="edge"><title>Node1&#45;&gt;Node2</title>
<path fill="none" stroke="midnightblue" d="M269.674,-291.475C269.674,-284.471 269.674,-274.192 269.674,-264.696"/>
<polygon fill="midnightblue" stroke="midnightblue" points="273.174,-264.523 269.674,-254.523 266.174,-264.523 273.174,-264.523"/>
</g>
<!-- Node3 -->
<g id="node3" class="node"><title>Node3</title>
<g id="a_node3"><a xlink:href="erpc__codec_8hpp.html" target="_top" xlink:title="erpc_codec.hpp">
<polygon fill="white" stroke="black" points="136.674,-168.5 136.674,-187.5 222.674,-187.5 222.674,-168.5 136.674,-168.5"/>
<text text-anchor="middle" x="179.674" y="-175.5" font-family="Helvetica,sans-Serif" font-size="10.00">erpc_codec.hpp</text>
</a>
</g>
</g>
<!-- Node2&#45;&gt;Node3 -->
<g id="edge2" class="edge"><title>Node2&#45;&gt;Node3</title>
<path fill="none" stroke="midnightblue" d="M248.345,-224.399C234.189,-215.04 215.663,-202.792 201.421,-193.377"/>
<polygon fill="midnightblue" stroke="midnightblue" points="203.042,-190.253 192.77,-187.658 199.181,-196.092 203.042,-190.253"/>
</g>
<!-- Node12 -->
<g id="node12" class="node"><title>Node12</title>
<g id="a_node12"><a xlink:href="erpc__config__internal_8h_source.html" target="_top" xlink:title="erpc_config_internal.h">
<polygon fill="white" stroke="black" points="273.174,-168.5 273.174,-187.5 384.174,-187.5 384.174,-168.5 273.174,-168.5"/>
<text text-anchor="middle" x="328.674" y="-175.5" font-family="Helvetica,sans-Serif" font-size="10.00">erpc_config_internal.h</text>
</a>
</g>
</g>
<!-- Node2&#45;&gt;Node12 -->
<g id="edge16" class="edge"><title>Node2&#45;&gt;Node12</title>
<path fill="none" stroke="midnightblue" d="M283.656,-224.399C292.406,-215.575 303.703,-204.183 312.791,-195.018"/>
<polygon fill="midnightblue" stroke="midnightblue" points="315.533,-197.223 320.089,-187.658 310.562,-192.294 315.533,-197.223"/>
</g>
<!-- Node4 -->
<g id="node4" class="node"><title>Node4</title>
<g id="a_node4"><a xlink:href="erpc__common_8h_source.html" target="_top" xlink:title="erpc_common.h">
<polygon fill="white" stroke="black" points="182.674,-0.5 182.674,-19.5 268.674,-19.5 268.674,-0.5 182.674,-0.5"/>
<text text-anchor="middle" x="225.674" y="-7.5" font-family="Helvetica,sans-Serif" font-size="10.00">erpc_common.h</text>
</a>
</g>
</g>
<!-- Node3&#45;&gt;Node4 -->
<g id="edge3" class="edge"><title>Node3&#45;&gt;Node4</title>
<path fill="none" stroke="midnightblue" d="M186.356,-168.214C192.63,-159.502 201.764,-145.532 206.674,-132 219.26,-97.3151 223.513,-54.0591 224.947,-29.7863"/>
<polygon fill="midnightblue" stroke="midnightblue" points="228.443,-29.9516 225.439,-19.7919 221.452,-29.6079 228.443,-29.9516"/>
</g>
<!-- Node5 -->
<g id="node5" class="node"><title>Node5</title>
<g id="a_node5"><a xlink:href="erpc__message__buffer_8hpp.html" target="_top" xlink:title="erpc_message_buffer.hpp">
<polygon fill="white" stroke="black" points="253.674,-56.5 253.674,-75.5 381.674,-75.5 381.674,-56.5 253.674,-56.5"/>
<text text-anchor="middle" x="317.674" y="-63.5" font-family="Helvetica,sans-Serif" font-size="10.00">erpc_message_buffer.hpp</text>
</a>
</g>
</g>
<!-- Node3&#45;&gt;Node5 -->
<g id="edge4" class="edge"><title>Node3&#45;&gt;Node5</title>
<path fill="none" stroke="midnightblue" d="M191.765,-168.214C203.981,-159.27 223.333,-144.923 239.674,-132 260.673,-115.394 284.209,-95.6139 299.881,-82.2706"/>
<polygon fill="midnightblue" stroke="midnightblue" points="302.382,-84.7372 307.713,-75.581 297.836,-79.4147 302.382,-84.7372"/>
</g>
<!-- Node8 -->
<g id="node8" class="node"><title>Node8</title>
<g id="a_node8"><a xlink:href="erpc__transport_8hpp.html" target="_top" xlink:title="erpc_transport.hpp">
<polygon fill="white" stroke="black" points="99.674,-112.5 99.674,-131.5 197.674,-131.5 197.674,-112.5 99.674,-112.5"/>
<text text-anchor="middle" x="148.674" y="-119.5" font-family="Helvetica,sans-Serif" font-size="10.00">erpc_transport.hpp</text>
</a>
</g>
</g>
<!-- Node3&#45;&gt;Node8 -->
<g id="edge8" class="edge"><title>Node3&#45;&gt;Node8</title>
<path fill="none" stroke="midnightblue" d="M174.555,-168.083C170.266,-160.613 164.016,-149.724 158.732,-140.52"/>
<polygon fill="midnightblue" stroke="midnightblue" points="161.712,-138.681 153.698,-131.751 155.641,-142.166 161.712,-138.681"/>
</g>
<!-- Node10 -->
<g id="node10" class="node"><title>Node10</title>
<polygon fill="white" stroke="#bfbfbf" points="27.674,-0.5 27.674,-19.5 73.674,-19.5 73.674,-0.5 27.674,-0.5"/>
<text text-anchor="middle" x="50.674" y="-7.5" font-family="Helvetica,sans-Serif" font-size="10.00">cstdint</text>
</g>
<!-- Node3&#45;&gt;Node10 -->
<g id="edge14" class="edge"><title>Node3&#45;&gt;Node10</title>
<path fill="none" stroke="midnightblue" d="M139.619,-168.482C95.3796,-156.551 27.1619,-129.966 2.67402,-76 -5.96437,-56.963 11.7201,-38.0634 28.0083,-25.5922"/>
<polygon fill="midnightblue" stroke="midnightblue" points="30.1587,-28.3572 36.252,-19.6899 26.0836,-22.6657 30.1587,-28.3572"/>
</g>
<!-- Node11 -->
<g id="node11" class="node"><title>Node11</title>
<polygon fill="white" stroke="#bfbfbf" points="11.674,-56.5 11.674,-75.5 57.674,-75.5 57.674,-56.5 11.674,-56.5"/>
<text text-anchor="middle" x="34.674" y="-63.5" font-family="Helvetica,sans-Serif" font-size="10.00">cstring</text>
</g>
<!-- Node3&#45;&gt;Node11 -->
<g id="edge15" class="edge"><title>Node3&#45;&gt;Node11</title>
<path fill="none" stroke="midnightblue" d="M157.055,-168.475C138.169,-160.702 111.129,-148.003 90.674,-132 72.9668,-118.147 56.6728,-98.0334 46.281,-83.8577"/>
<polygon fill="midnightblue" stroke="midnightblue" points="48.9998,-81.6417 40.3489,-75.5251 43.2973,-85.7014 48.9998,-81.6417"/>
</g>
<!-- Node5&#45;&gt;Node4 -->
<g id="edge5" class="edge"><title>Node5&#45;&gt;Node4</title>
<path fill="none" stroke="midnightblue" d="M302.893,-56.324C288.407,-47.8215 266.101,-34.7288 249.181,-24.7975"/>
<polygon fill="midnightblue" stroke="midnightblue" points="250.815,-21.6981 240.419,-19.6545 247.271,-27.735 250.815,-21.6981"/>
</g>
<!-- Node6 -->
<g id="node6" class="node"><title>Node6</title>
<polygon fill="white" stroke="#bfbfbf" points="289.674,-0.5 289.674,-19.5 337.674,-19.5 337.674,-0.5 289.674,-0.5"/>
<text text-anchor="middle" x="313.674" y="-7.5" font-family="Helvetica,sans-Serif" font-size="10.00">cstddef</text>
</g>
<!-- Node5&#45;&gt;Node6 -->
<g id="edge6" class="edge"><title>Node5&#45;&gt;Node6</title>
<path fill="none" stroke="midnightblue" d="M317.014,-56.083C316.489,-49.0059 315.738,-38.8611 315.08,-29.9865"/>
<polygon fill="midnightblue" stroke="midnightblue" points="318.551,-29.4652 314.322,-19.7511 311.571,-29.9823 318.551,-29.4652"/>
</g>
<!-- Node7 -->
<g id="node7" class="node"><title>Node7</title>
<polygon fill="white" stroke="#bfbfbf" points="356.174,-0.5 356.174,-19.5 405.174,-19.5 405.174,-0.5 356.174,-0.5"/>
<text text-anchor="middle" x="380.674" y="-7.5" font-family="Helvetica,sans-Serif" font-size="10.00">stdint.h</text>
</g>
<!-- Node5&#45;&gt;Node7 -->
<g id="edge7" class="edge"><title>Node5&#45;&gt;Node7</title>
<path fill="none" stroke="midnightblue" d="M327.796,-56.324C337.2,-48.2631 351.418,-36.0765 362.743,-26.3695"/>
<polygon fill="midnightblue" stroke="midnightblue" points="365.053,-28.9993 370.368,-19.8339 360.497,-23.6844 365.053,-28.9993"/>
</g>
<!-- Node8&#45;&gt;Node4 -->
<g id="edge9" class="edge"><title>Node8&#45;&gt;Node4</title>
<path fill="none" stroke="midnightblue" d="M154.716,-112.368C167.423,-94.2153 197.113,-51.8015 213.781,-27.9902"/>
<polygon fill="midnightblue" stroke="midnightblue" points="216.793,-29.7909 219.66,-19.5914 211.058,-25.7766 216.793,-29.7909"/>
</g>
<!-- Node8&#45;&gt;Node5 -->
<g id="edge12" class="edge"><title>Node8&#45;&gt;Node5</title>
<path fill="none" stroke="midnightblue" d="M175.453,-112.444C204.007,-103.32 249.407,-88.8133 281.211,-78.6509"/>
<polygon fill="midnightblue" stroke="midnightblue" points="282.561,-81.8941 291.021,-75.5164 280.43,-75.2262 282.561,-81.8941"/>
</g>
<!-- Node9 -->
<g id="node9" class="node"><title>Node9</title>
<g id="a_node9"><a xlink:href="erpc__crc16_8hpp.html" target="_top" xlink:title="erpc_crc16.hpp">
<polygon fill="white" stroke="black" points="76.174,-56.5 76.174,-75.5 159.174,-75.5 159.174,-56.5 76.174,-56.5"/>
<text text-anchor="middle" x="117.674" y="-63.5" font-family="Helvetica,sans-Serif" font-size="10.00">erpc_crc16.hpp</text>
</a>
</g>
</g>
<!-- Node8&#45;&gt;Node9 -->
<g id="edge10" class="edge"><title>Node8&#45;&gt;Node9</title>
<path fill="none" stroke="midnightblue" d="M143.555,-112.083C139.266,-104.613 133.016,-93.7244 127.732,-84.5199"/>
<polygon fill="midnightblue" stroke="midnightblue" points="130.712,-82.6811 122.698,-75.7511 124.641,-86.1662 130.712,-82.6811"/>
</g>
<!-- Node8&#45;&gt;Node11 -->
<g id="edge13" class="edge"><title>Node8&#45;&gt;Node11</title>
<path fill="none" stroke="midnightblue" d="M130.61,-112.444C112.099,-103.675 83.0933,-89.9355 61.8185,-79.8579"/>
<polygon fill="midnightblue" stroke="midnightblue" points="63.1889,-76.6343 52.6531,-75.5164 60.1922,-82.9604 63.1889,-76.6343"/>
</g>
<!-- Node9&#45;&gt;Node10 -->
<g id="edge11" class="edge"><title>Node9&#45;&gt;Node10</title>
<path fill="none" stroke="midnightblue" d="M106.909,-56.324C96.9079,-48.2631 81.7875,-36.0765 69.7435,-26.3695"/>
<polygon fill="midnightblue" stroke="midnightblue" points="71.6169,-23.3841 61.6346,-19.8339 67.2242,-28.8343 71.6169,-23.3841"/>
</g>
<!-- Node13 -->
<g id="node13" class="node"><title>Node13</title>
<g id="a_node13"><a xlink:href="erpc__config_8h.html" target="_top" xlink:title="erpc_config.h">
<polygon fill="white" stroke="black" points="291.674,-112.5 291.674,-131.5 365.674,-131.5 365.674,-112.5 291.674,-112.5"/>
<text text-anchor="middle" x="328.674" y="-119.5" font-family="Helvetica,sans-Serif" font-size="10.00">erpc_config.h</text>
</a>
</g>
</g>
<!-- Node12&#45;&gt;Node13 -->
<g id="edge17" class="edge"><title>Node12&#45;&gt;Node13</title>
<path fill="none" stroke="midnightblue" d="M328.674,-168.083C328.674,-161.006 328.674,-150.861 328.674,-141.986"/>
<polygon fill="midnightblue" stroke="midnightblue" points="332.174,-141.751 328.674,-131.751 325.174,-141.751 332.174,-141.751"/>
</g>
<!-- Node14 -->
<g id="node14" class="node"><title>Node14</title>
<polygon fill="white" stroke="#bfbfbf" points="384.174,-112.5 384.174,-131.5 433.174,-131.5 433.174,-112.5 384.174,-112.5"/>
<text text-anchor="middle" x="408.674" y="-119.5" font-family="Helvetica,sans-Serif" font-size="10.00">cassert</text>
</g>
<!-- Node12&#45;&gt;Node14 -->
<g id="edge18" class="edge"><title>Node12&#45;&gt;Node14</title>
<path fill="none" stroke="midnightblue" d="M341.527,-168.324C353.89,-159.979 372.804,-147.212 387.411,-137.352"/>
<polygon fill="midnightblue" stroke="midnightblue" points="389.522,-140.15 395.853,-131.655 385.606,-134.348 389.522,-140.15"/>
</g>
</g>
</svg>
