<?xml version="1.0" encoding="UTF-8" standalone="no"?>
<!DOCTYPE svg PUBLIC "-//W3C//DTD SVG 1.1//EN"
 "http://www.w3.org/Graphics/SVG/1.1/DTD/svg11.dtd">
<!-- Generated by graphviz version 2.38.0 (20140413.2041)
 -->
<!-- Title: erpc_rpmsg_lite_base_transport.hpp Pages: 1 -->
<svg width="602pt" height="207pt"
 viewBox="0.00 0.00 602.00 207.00" xmlns="http://www.w3.org/2000/svg" xmlns:xlink="http://www.w3.org/1999/xlink">
<g id="graph0" class="graph" transform="scale(1 1) rotate(0) translate(4 203)">
<title>erpc_rpmsg_lite_base_transport.hpp</title>
<polygon fill="white" stroke="none" points="-4,4 -4,-203 598,-203 598,4 -4,4"/>
<!-- Node1 -->
<g id="node1" class="node"><title>Node1</title>
<polygon fill="#bfbfbf" stroke="black" points="324,-168.5 324,-198.5 436,-198.5 436,-168.5 324,-168.5"/>
<text text-anchor="start" x="332" y="-186.5" font-family="Helvetica,sans-Serif" font-size="10.00">erpc_rpmsg_lite_base</text>
<text text-anchor="middle" x="380" y="-175.5" font-family="Helvetica,sans-Serif" font-size="10.00">_transport.hpp</text>
</g>
<!-- Node2 -->
<g id="node2" class="node"><title>Node2</title>
<g id="a_node2"><a xlink:href="erpc__config__internal_8h_source.html" target="_top" xlink:title="erpc_config_internal.h">
<polygon fill="white" stroke="black" points="61.5,-112.5 61.5,-131.5 172.5,-131.5 172.5,-112.5 61.5,-112.5"/>
<text text-anchor="middle" x="117" y="-119.5" font-family="Helvetica,sans-Serif" font-size="10.00">erpc_config_internal.h</text>
</a>
</g>
</g>
<!-- Node1&#45;&gt;Node2 -->
<g id="edge1" class="edge"><title>Node1&#45;&gt;Node2</title>
<path fill="none" stroke="midnightblue" d="M323.902,-169.809C276.497,-159.084 209.346,-143.892 164.543,-133.756"/>
<polygon fill="midnightblue" stroke="midnightblue" points="165.305,-130.34 154.779,-131.547 163.76,-137.167 165.305,-130.34"/>
</g>
<!-- Node5 -->
<g id="node5" class="node"><title>Node5</title>
<g id="a_node5"><a xlink:href="erpc__transport_8hpp.html" target="_top" xlink:title="erpc_transport.hpp">
<polygon fill="white" stroke="black" points="280,-112.5 280,-131.5 378,-131.5 378,-112.5 280,-112.5"/>
<text text-anchor="middle" x="329" y="-119.5" font-family="Helvetica,sans-Serif" font-size="10.00">erpc_transport.hpp</text>
</a>
</g>
</g>
<!-- Node1&#45;&gt;Node5 -->
<g id="edge4" class="edge"><title>Node1&#45;&gt;Node5</title>
<path fill="none" stroke="midnightblue" d="M367.914,-168.399C360.426,-159.664 350.782,-148.413 342.968,-139.296"/>
<polygon fill="midnightblue" stroke="midnightblue" points="345.586,-136.973 336.421,-131.658 340.271,-141.528 345.586,-136.973"/>
</g>
<!-- Node13 -->
<g id="node13" class="node"><title>Node13</title>
<polygon fill="white" stroke="#bfbfbf" points="396,-112.5 396,-131.5 466,-131.5 466,-112.5 396,-112.5"/>
<text text-anchor="middle" x="431" y="-119.5" font-family="Helvetica,sans-Serif" font-size="10.00">rpmsg_lite.h</text>
</g>
<!-- Node1&#45;&gt;Node13 -->
<g id="edge13" class="edge"><title>Node1&#45;&gt;Node13</title>
<path fill="none" stroke="midnightblue" d="M392.086,-168.399C399.574,-159.664 409.218,-148.413 417.032,-139.296"/>
<polygon fill="midnightblue" stroke="midnightblue" points="419.729,-141.528 423.579,-131.658 414.414,-136.973 419.729,-141.528"/>
</g>
<!-- Node14 -->
<g id="node14" class="node"><title>Node14</title>
<polygon fill="white" stroke="#bfbfbf" points="484,-112.5 484,-131.5 594,-131.5 594,-112.5 484,-112.5"/>
<text text-anchor="middle" x="539" y="-119.5" font-family="Helvetica,sans-Serif" font-size="10.00">rpmsg_env_specific.h</text>
</g>
<!-- Node1&#45;&gt;Node14 -->
<g id="edge14" class="edge"><title>Node1&#45;&gt;Node14</title>
<path fill="none" stroke="midnightblue" d="M417.681,-168.399C444.596,-158.327 480.452,-144.909 506.193,-135.277"/>
<polygon fill="midnightblue" stroke="midnightblue" points="507.725,-138.441 515.864,-131.658 505.272,-131.885 507.725,-138.441"/>
</g>
<!-- Node3 -->
<g id="node3" class="node"><title>Node3</title>
<g id="a_node3"><a xlink:href="erpc__config_8h.html" target="_top" xlink:title="erpc_config.h">
<polygon fill="white" stroke="black" points="0,-56.5 0,-75.5 74,-75.5 74,-56.5 0,-56.5"/>
<text text-anchor="middle" x="37" y="-63.5" font-family="Helvetica,sans-Serif" font-size="10.00">erpc_config.h</text>
</a>
</g>
</g>
<!-- Node2&#45;&gt;Node3 -->
<g id="edge2" class="edge"><title>Node2&#45;&gt;Node3</title>
<path fill="none" stroke="midnightblue" d="M104.147,-112.324C91.7836,-103.979 72.8699,-91.2122 58.2628,-81.3524"/>
<polygon fill="midnightblue" stroke="midnightblue" points="60.0682,-78.3483 49.8215,-75.6545 56.1518,-84.1503 60.0682,-78.3483"/>
</g>
<!-- Node4 -->
<g id="node4" class="node"><title>Node4</title>
<polygon fill="white" stroke="#bfbfbf" points="92.5,-56.5 92.5,-75.5 141.5,-75.5 141.5,-56.5 92.5,-56.5"/>
<text text-anchor="middle" x="117" y="-63.5" font-family="Helvetica,sans-Serif" font-size="10.00">cassert</text>
</g>
<!-- Node2&#45;&gt;Node4 -->
<g id="edge3" class="edge"><title>Node2&#45;&gt;Node4</title>
<path fill="none" stroke="midnightblue" d="M117,-112.083C117,-105.006 117,-94.8611 117,-85.9865"/>
<polygon fill="midnightblue" stroke="midnightblue" points="120.5,-85.751 117,-75.7511 113.5,-85.7511 120.5,-85.751"/>
</g>
<!-- Node6 -->
<g id="node6" class="node"><title>Node6</title>
<g id="a_node6"><a xlink:href="erpc__common_8h_source.html" target="_top" xlink:title="erpc_common.h">
<polygon fill="white" stroke="black" points="309,-0.5 309,-19.5 395,-19.5 395,-0.5 309,-0.5"/>
<text text-anchor="middle" x="352" y="-7.5" font-family="Helvetica,sans-Serif" font-size="10.00">erpc_common.h</text>
</a>
</g>
</g>
<!-- Node5&#45;&gt;Node6 -->
<g id="edge5" class="edge"><title>Node5&#45;&gt;Node6</title>
<path fill="none" stroke="midnightblue" d="M337.751,-112.286C345.563,-103.84 356.451,-90.2462 361,-76 365.873,-60.7386 362.677,-42.6302 358.806,-29.4077"/>
<polygon fill="midnightblue" stroke="midnightblue" points="362.029,-28.0086 355.558,-19.6198 355.385,-30.2132 362.029,-28.0086"/>
</g>
<!-- Node7 -->
<g id="node7" class="node"><title>Node7</title>
<g id="a_node7"><a xlink:href="erpc__crc16_8hpp.html" target="_top" xlink:title="erpc_crc16.hpp">
<polygon fill="white" stroke="black" points="408.5,-56.5 408.5,-75.5 491.5,-75.5 491.5,-56.5 408.5,-56.5"/>
<text text-anchor="middle" x="450" y="-63.5" font-family="Helvetica,sans-Serif" font-size="10.00">erpc_crc16.hpp</text>
</a>
</g>
</g>
<!-- Node5&#45;&gt;Node7 -->
<g id="edge6" class="edge"><title>Node5&#45;&gt;Node7</title>
<path fill="none" stroke="midnightblue" d="M348.173,-112.444C367.909,-103.636 398.885,-89.8116 421.493,-79.722"/>
<polygon fill="midnightblue" stroke="midnightblue" points="423.211,-82.788 430.917,-75.5164 420.359,-76.3957 423.211,-82.788"/>
</g>
<!-- Node9 -->
<g id="node9" class="node"><title>Node9</title>
<g id="a_node9"><a xlink:href="erpc__message__buffer_8hpp.html" target="_top" xlink:title="erpc_message_buffer.hpp">
<polygon fill="white" stroke="black" points="160,-56.5 160,-75.5 288,-75.5 288,-56.5 160,-56.5"/>
<text text-anchor="middle" x="224" y="-63.5" font-family="Helvetica,sans-Serif" font-size="10.00">erpc_message_buffer.hpp</text>
</a>
</g>
</g>
<!-- Node5&#45;&gt;Node9 -->
<g id="edge8" class="edge"><title>Node5&#45;&gt;Node9</title>
<path fill="none" stroke="midnightblue" d="M312.13,-112.324C295.291,-103.664 269.193,-90.2424 249.762,-80.249"/>
<polygon fill="midnightblue" stroke="midnightblue" points="251.322,-77.1155 240.828,-75.6545 248.12,-83.3405 251.322,-77.1155"/>
</g>
<!-- Node12 -->
<g id="node12" class="node"><title>Node12</title>
<polygon fill="white" stroke="#bfbfbf" points="306,-56.5 306,-75.5 352,-75.5 352,-56.5 306,-56.5"/>
<text text-anchor="middle" x="329" y="-63.5" font-family="Helvetica,sans-Serif" font-size="10.00">cstring</text>
</g>
<!-- Node5&#45;&gt;Node12 -->
<g id="edge12" class="edge"><title>Node5&#45;&gt;Node12</title>
<path fill="none" stroke="midnightblue" d="M329,-112.083C329,-105.006 329,-94.8611 329,-85.9865"/>
<polygon fill="midnightblue" stroke="midnightblue" points="332.5,-85.751 329,-75.7511 325.5,-85.7511 332.5,-85.751"/>
</g>
<!-- Node8 -->
<g id="node8" class="node"><title>Node8</title>
<polygon fill="white" stroke="#bfbfbf" points="427,-0.5 427,-19.5 473,-19.5 473,-0.5 427,-0.5"/>
<text text-anchor="middle" x="450" y="-7.5" font-family="Helvetica,sans-Serif" font-size="10.00">cstdint</text>
</g>
<!-- Node7&#45;&gt;Node8 -->
<g id="edge7" class="edge"><title>Node7&#45;&gt;Node8</title>
<path fill="none" stroke="midnightblue" d="M450,-56.083C450,-49.0059 450,-38.8611 450,-29.9865"/>
<polygon fill="midnightblue" stroke="midnightblue" points="453.5,-29.751 450,-19.7511 446.5,-29.7511 453.5,-29.751"/>
</g>
<!-- Node9&#45;&gt;Node6 -->
<g id="edge9" class="edge"><title>Node9&#45;&gt;Node6</title>
<path fill="none" stroke="midnightblue" d="M244.282,-56.4435C265.347,-47.5566 298.517,-33.5632 322.486,-23.4514"/>
<polygon fill="midnightblue" stroke="midnightblue" points="323.96,-26.6283 331.813,-19.5164 321.239,-20.1787 323.96,-26.6283"/>
</g>
<!-- Node10 -->
<g id="node10" class="node"><title>Node10</title>
<polygon fill="white" stroke="#bfbfbf" points="147,-0.5 147,-19.5 195,-19.5 195,-0.5 147,-0.5"/>
<text text-anchor="middle" x="171" y="-7.5" font-family="Helvetica,sans-Serif" font-size="10.00">cstddef</text>
</g>
<!-- Node9&#45;&gt;Node10 -->
<g id="edge10" class="edge"><title>Node9&#45;&gt;Node10</title>
<path fill="none" stroke="midnightblue" d="M215.248,-56.083C207.53,-48.2195 196.095,-36.5688 186.783,-27.0813"/>
<polygon fill="midnightblue" stroke="midnightblue" points="189.092,-24.4363 179.589,-19.7511 184.096,-29.3396 189.092,-24.4363"/>
</g>
<!-- Node11 -->
<g id="node11" class="node"><title>Node11</title>
<polygon fill="white" stroke="#bfbfbf" points="213.5,-0.5 213.5,-19.5 262.5,-19.5 262.5,-0.5 213.5,-0.5"/>
<text text-anchor="middle" x="238" y="-7.5" font-family="Helvetica,sans-Serif" font-size="10.00">stdint.h</text>
</g>
<!-- Node9&#45;&gt;Node11 -->
<g id="edge11" class="edge"><title>Node9&#45;&gt;Node11</title>
<path fill="none" stroke="midnightblue" d="M226.312,-56.083C228.167,-48.9272 230.835,-38.6353 233.154,-29.6911"/>
<polygon fill="midnightblue" stroke="midnightblue" points="236.609,-30.3094 235.731,-19.7511 229.834,-28.5527 236.609,-30.3094"/>
</g>
</g>
</svg>
