<?xml version="1.0" encoding="UTF-8" standalone="no"?>
<!DOCTYPE svg PUBLIC "-//W3C//DTD SVG 1.1//EN"
 "http://www.w3.org/Graphics/SVG/1.1/DTD/svg11.dtd">
<!-- Generated by graphviz version 2.38.0 (20140413.2041)
 -->
<!-- Title: framed_transport.h Pages: 1 -->
<svg width="463pt" height="252pt"
 viewBox="0.00 0.00 463.33 252.00" xmlns="http://www.w3.org/2000/svg" xmlns:xlink="http://www.w3.org/1999/xlink">
<g id="graph0" class="graph" transform="scale(1 1) rotate(0) translate(4 248)">
<title>framed_transport.h</title>
<polygon fill="white" stroke="none" points="-4,4 -4,-248 459.331,-248 459.331,4 -4,4"/>
<!-- Node1 -->
<g id="node1" class="node"><title>Node1</title>
<polygon fill="#bfbfbf" stroke="black" points="235,-224.5 235,-243.5 333,-243.5 333,-224.5 235,-224.5"/>
<text text-anchor="middle" x="284" y="-231.5" font-family="Helvetica,sans-Serif" font-size="10.00">framed_transport.h</text>
</g>
<!-- Node2 -->
<g id="node2" class="node"><title>Node2</title>
<g id="a_node2"><a xlink:href="erpc__config__internal_8h_source.html" target="_top" xlink:title="erpc_config_internal.h">
<polygon fill="white" stroke="black" points="333.5,-112.5 333.5,-131.5 444.5,-131.5 444.5,-112.5 333.5,-112.5"/>
<text text-anchor="middle" x="389" y="-119.5" font-family="Helvetica,sans-Serif" font-size="10.00">erpc_config_internal.h</text>
</a>
</g>
</g>
<!-- Node1&#45;&gt;Node2 -->
<g id="edge1" class="edge"><title>Node1&#45;&gt;Node2</title>
<path fill="none" stroke="midnightblue" d="M316.411,-224.46C335.896,-217.688 359.627,-206.255 374,-188 384.402,-174.789 387.83,-155.656 388.848,-141.567"/>
<polygon fill="midnightblue" stroke="midnightblue" points="392.346,-141.688 389.236,-131.559 385.352,-141.416 392.346,-141.688"/>
</g>
<!-- Node4 -->
<g id="node4" class="node"><title>Node4</title>
<g id="a_node4"><a xlink:href="message__buffer_8h.html" target="_top" xlink:title="message_buffer.h">
<polygon fill="white" stroke="black" points="43.5,-112.5 43.5,-131.5 136.5,-131.5 136.5,-112.5 43.5,-112.5"/>
<text text-anchor="middle" x="90" y="-119.5" font-family="Helvetica,sans-Serif" font-size="10.00">message_buffer.h</text>
</a>
</g>
</g>
<!-- Node1&#45;&gt;Node4 -->
<g id="edge3" class="edge"><title>Node1&#45;&gt;Node4</title>
<path fill="none" stroke="midnightblue" d="M238.431,-224.458C210.399,-217.705 174.671,-206.293 147,-188 128.102,-175.507 111.674,-155.15 101.372,-140.545"/>
<polygon fill="midnightblue" stroke="midnightblue" points="104.032,-138.231 95.5232,-131.919 98.2384,-142.16 104.032,-138.231"/>
</g>
<!-- Node6 -->
<g id="node6" class="node"><title>Node6</title>
<polygon fill="white" stroke="#bfbfbf" points="193.5,-0.5 193.5,-19.5 242.5,-19.5 242.5,-0.5 193.5,-0.5"/>
<text text-anchor="middle" x="218" y="-7.5" font-family="Helvetica,sans-Serif" font-size="10.00">stdint.h</text>
</g>
<!-- Node1&#45;&gt;Node6 -->
<g id="edge14" class="edge"><title>Node1&#45;&gt;Node6</title>
<path fill="none" stroke="midnightblue" d="M322.416,-224.469C375.767,-210.208 464.647,-176.516 454,-112 449.721,-86.0683 454.688,-73.4108 435,-56 408.385,-32.4635 307.23,-19.466 252.939,-14.0511"/>
<polygon fill="midnightblue" stroke="midnightblue" points="253.031,-10.5439 242.742,-13.0684 252.36,-17.5116 253.031,-10.5439"/>
</g>
<!-- Node8 -->
<g id="node8" class="node"><title>Node8</title>
<g id="a_node8"><a xlink:href="transport_8h.html" target="_top" xlink:title="transport.h">
<polygon fill="white" stroke="black" points="156.5,-168.5 156.5,-187.5 219.5,-187.5 219.5,-168.5 156.5,-168.5"/>
<text text-anchor="middle" x="188" y="-175.5" font-family="Helvetica,sans-Serif" font-size="10.00">transport.h</text>
</a>
</g>
</g>
<!-- Node1&#45;&gt;Node8 -->
<g id="edge8" class="edge"><title>Node1&#45;&gt;Node8</title>
<path fill="none" stroke="midnightblue" d="M268.576,-224.324C253.46,-215.822 230.185,-202.729 212.529,-192.797"/>
<polygon fill="midnightblue" stroke="midnightblue" points="213.817,-189.507 203.386,-187.655 210.386,-195.608 213.817,-189.507"/>
</g>
<!-- Node9 -->
<g id="node9" class="node"><title>Node9</title>
<polygon fill="white" stroke="#bfbfbf" points="231,-112.5 231,-131.5 277,-131.5 277,-112.5 231,-112.5"/>
<text text-anchor="middle" x="254" y="-119.5" font-family="Helvetica,sans-Serif" font-size="10.00">cstring</text>
</g>
<!-- Node1&#45;&gt;Node9 -->
<g id="edge13" class="edge"><title>Node1&#45;&gt;Node9</title>
<path fill="none" stroke="midnightblue" d="M280.175,-224.18C276.403,-215.211 270.684,-200.844 267,-188 262.583,-172.599 259.126,-154.726 256.89,-141.624"/>
<polygon fill="midnightblue" stroke="midnightblue" points="260.307,-140.828 255.247,-131.52 253.398,-141.952 260.307,-140.828"/>
</g>
<!-- Node10 -->
<g id="node10" class="node"><title>Node10</title>
<g id="a_node10"><a xlink:href="erpc__threading_8h.html" target="_top" xlink:title="erpc_threading.h">
<polygon fill="white" stroke="black" points="276.5,-168.5 276.5,-187.5 365.5,-187.5 365.5,-168.5 276.5,-168.5"/>
<text text-anchor="middle" x="321" y="-175.5" font-family="Helvetica,sans-Serif" font-size="10.00">erpc_threading.h</text>
</a>
</g>
</g>
<!-- Node1&#45;&gt;Node10 -->
<g id="edge15" class="edge"><title>Node1&#45;&gt;Node10</title>
<path fill="none" stroke="midnightblue" d="M290.11,-224.083C295.282,-216.534 302.846,-205.495 309.194,-196.23"/>
<polygon fill="midnightblue" stroke="midnightblue" points="312.239,-197.979 315.004,-187.751 306.464,-194.022 312.239,-197.979"/>
</g>
<!-- Node3 -->
<g id="node3" class="node"><title>Node3</title>
<g id="a_node3"><a xlink:href="erpc__config_8h.html" target="_top" xlink:title="erpc_config.h">
<polygon fill="white" stroke="black" points="352,-56.5 352,-75.5 426,-75.5 426,-56.5 352,-56.5"/>
<text text-anchor="middle" x="389" y="-63.5" font-family="Helvetica,sans-Serif" font-size="10.00">erpc_config.h</text>
</a>
</g>
</g>
<!-- Node2&#45;&gt;Node3 -->
<g id="edge2" class="edge"><title>Node2&#45;&gt;Node3</title>
<path fill="none" stroke="midnightblue" d="M389,-112.083C389,-105.006 389,-94.8611 389,-85.9865"/>
<polygon fill="midnightblue" stroke="midnightblue" points="392.5,-85.751 389,-75.7511 385.5,-85.7511 392.5,-85.751"/>
</g>
<!-- Node5 -->
<g id="node5" class="node"><title>Node5</title>
<g id="a_node5"><a xlink:href="erpc__common_8h_source.html" target="_top" xlink:title="erpc_common.h">
<polygon fill="white" stroke="black" points="104,-56.5 104,-75.5 190,-75.5 190,-56.5 104,-56.5"/>
<text text-anchor="middle" x="147" y="-63.5" font-family="Helvetica,sans-Serif" font-size="10.00">erpc_common.h</text>
</a>
</g>
</g>
<!-- Node4&#45;&gt;Node5 -->
<g id="edge4" class="edge"><title>Node4&#45;&gt;Node5</title>
<path fill="none" stroke="midnightblue" d="M99.158,-112.324C107.501,-104.42 120.032,-92.5482 130.177,-82.9377"/>
<polygon fill="midnightblue" stroke="midnightblue" points="132.823,-85.2522 137.675,-75.8339 128.009,-80.1705 132.823,-85.2522"/>
</g>
<!-- Node4&#45;&gt;Node6 -->
<g id="edge7" class="edge"><title>Node4&#45;&gt;Node6</title>
<path fill="none" stroke="midnightblue" d="M87.9795,-112.406C85.3425,-98.9158 82.4231,-72.5985 95,-56 115.731,-28.6407 154.783,-17.9004 183.341,-13.6927"/>
<polygon fill="midnightblue" stroke="midnightblue" points="183.856,-17.1554 193.334,-12.4194 182.971,-10.2116 183.856,-17.1554"/>
</g>
<!-- Node7 -->
<g id="node7" class="node"><title>Node7</title>
<polygon fill="white" stroke="#bfbfbf" points="0,-56.5 0,-75.5 48,-75.5 48,-56.5 0,-56.5"/>
<text text-anchor="middle" x="24" y="-63.5" font-family="Helvetica,sans-Serif" font-size="10.00">cstddef</text>
</g>
<!-- Node4&#45;&gt;Node7 -->
<g id="edge6" class="edge"><title>Node4&#45;&gt;Node7</title>
<path fill="none" stroke="midnightblue" d="M79.396,-112.324C69.5438,-104.263 54.6491,-92.0765 42.7849,-82.3695"/>
<polygon fill="midnightblue" stroke="midnightblue" points="44.7529,-79.4575 34.797,-75.8339 40.3202,-84.8752 44.7529,-79.4575"/>
</g>
<!-- Node5&#45;&gt;Node6 -->
<g id="edge5" class="edge"><title>Node5&#45;&gt;Node6</title>
<path fill="none" stroke="midnightblue" d="M158.407,-56.324C169.109,-48.1849 185.341,-35.8395 198.163,-26.0874"/>
<polygon fill="midnightblue" stroke="midnightblue" points="200.544,-28.6734 206.385,-19.8339 196.307,-23.1018 200.544,-28.6734"/>
</g>
<!-- Node8&#45;&gt;Node4 -->
<g id="edge10" class="edge"><title>Node8&#45;&gt;Node4</title>
<path fill="none" stroke="midnightblue" d="M172.255,-168.324C156.681,-159.743 132.623,-146.486 114.541,-136.522"/>
<polygon fill="midnightblue" stroke="midnightblue" points="116.154,-133.415 105.706,-131.655 112.776,-139.546 116.154,-133.415"/>
</g>
<!-- Node8&#45;&gt;Node5 -->
<g id="edge9" class="edge"><title>Node8&#45;&gt;Node5</title>
<path fill="none" stroke="midnightblue" d="M184.783,-168.368C178.136,-150.537 162.765,-109.295 153.81,-85.2717"/>
<polygon fill="midnightblue" stroke="midnightblue" points="156.974,-83.7393 150.202,-75.5914 150.415,-86.1841 156.974,-83.7393"/>
</g>
<!-- Node8&#45;&gt;Node6 -->
<g id="edge12" class="edge"><title>Node8&#45;&gt;Node6</title>
<path fill="none" stroke="midnightblue" d="M189.613,-168.075C194.335,-141.945 208.203,-65.2106 214.643,-29.577"/>
<polygon fill="midnightblue" stroke="midnightblue" points="218.117,-30.0312 216.452,-19.5681 211.229,-28.7862 218.117,-30.0312"/>
</g>
<!-- Node8&#45;&gt;Node9 -->
<g id="edge11" class="edge"><title>Node8&#45;&gt;Node9</title>
<path fill="none" stroke="midnightblue" d="M198.604,-168.324C208.456,-160.263 223.351,-148.077 235.215,-138.369"/>
<polygon fill="midnightblue" stroke="midnightblue" points="237.68,-140.875 243.203,-131.834 233.247,-135.457 237.68,-140.875"/>
</g>
<!-- Node10&#45;&gt;Node2 -->
<g id="edge16" class="edge"><title>Node10&#45;&gt;Node2</title>
<path fill="none" stroke="midnightblue" d="M331.925,-168.324C342.175,-160.185 357.721,-147.839 370.001,-138.087"/>
<polygon fill="midnightblue" stroke="midnightblue" points="372.221,-140.794 377.876,-131.834 367.868,-135.312 372.221,-140.794"/>
</g>
<!-- Node10&#45;&gt;Node6 -->
<g id="edge17" class="edge"><title>Node10&#45;&gt;Node6</title>
<path fill="none" stroke="midnightblue" d="M316.731,-168.437C310.384,-155.861 297.925,-131.749 286,-112 267.7,-81.6946 244.241,-47.8147 230.205,-28.0074"/>
<polygon fill="midnightblue" stroke="midnightblue" points="232.957,-25.8383 224.303,-19.7257 227.257,-29.9007 232.957,-25.8383"/>
</g>
</g>
</svg>
