<?xml version="1.0" encoding="UTF-8" standalone="no"?>
<!DOCTYPE svg PUBLIC "-//W3C//DTD SVG 1.1//EN"
 "http://www.w3.org/Graphics/SVG/1.1/DTD/svg11.dtd">
<!-- Generated by graphviz version 2.38.0 (20140413.2041)
 -->
<!-- Title: Transport Layers Pages: 1 -->
<svg width="230pt" height="370pt"
 viewBox="0.00 0.00 230.00 370.00" xmlns="http://www.w3.org/2000/svg" xmlns:xlink="http://www.w3.org/1999/xlink">
<g id="graph0" class="graph" transform="scale(1 1) rotate(0) translate(4 366)">
<title>Transport Layers</title>
<polygon fill="white" stroke="none" points="-4,4 -4,-366 226,-366 226,4 -4,4"/>
<!-- Node0 -->
<g id="node1" class="node"><title>Node0</title>
<polygon fill="#bfbfbf" stroke="black" points="0,-171.5 0,-190.5 89,-190.5 89,-171.5 0,-171.5"/>
<text text-anchor="middle" x="44.5" y="-178.5" font-family="Helvetica,sans-Serif" font-size="10.00">Transport Layers</text>
</g>
<!-- Node2 -->
<g id="node2" class="node"><title>Node2</title>
<g id="a_node2"><a xlink:href="group__dspi__slave__transport.html" target="_top" xlink:title="Kinetis SDK DSPI slave driver transport. ">
<polygon fill="white" stroke="black" points="141,-342.5 141,-361.5 206,-361.5 206,-342.5 141,-342.5"/>
<text text-anchor="middle" x="173.5" y="-349.5" font-family="Helvetica,sans-Serif" font-size="10.00">DSPI Slave</text>
</a>
</g>
</g>
<!-- Node0&#45;&gt;Node2 -->
<g id="edge2" class="edge"><title>Node0&#45;&gt;Node2</title>
<path fill="none" stroke="black" d="M50.8524,-200.518C60.5391,-232.411 83.884,-295.855 125,-333 129.482,-337.049 134.934,-340.287 140.525,-342.86"/>
<polygon fill="black" stroke="black" points="54.1366,-199.277 47.9889,-190.648 47.4138,-201.227 54.1366,-199.277"/>
</g>
<!-- Node10 -->
<g id="node3" class="node"><title>Node10</title>
<g id="a_node3"><a xlink:href="group__tcp__transport.html" target="_top" xlink:title="Simple TCP/IP transport. ">
<polygon fill="white" stroke="black" points="150,-304.5 150,-323.5 197,-323.5 197,-304.5 150,-304.5"/>
<text text-anchor="middle" x="173.5" y="-311.5" font-family="Helvetica,sans-Serif" font-size="10.00">TCP/IP</text>
</a>
</g>
</g>
<!-- Node0&#45;&gt;Node10 -->
<g id="edge10" class="edge"><title>Node0&#45;&gt;Node10</title>
<path fill="none" stroke="black" d="M54.2423,-199.796C66.7015,-224.72 91.7857,-268.622 125,-295 132.233,-300.745 141.429,-304.957 149.799,-307.935"/>
<polygon fill="black" stroke="black" points="57.3318,-198.145 49.8233,-190.67 51.0316,-201.196 57.3318,-198.145"/>
</g>
<!-- Node7 -->
<g id="node4" class="node"><title>Node7</title>
<g id="a_node4"><a xlink:href="group__serial__transport.html" target="_top" xlink:title="POSIX and Win32 serial port transport. ">
<polygon fill="white" stroke="black" points="143,-266.5 143,-285.5 204,-285.5 204,-266.5 143,-266.5"/>
<text text-anchor="middle" x="173.5" y="-273.5" font-family="Helvetica,sans-Serif" font-size="10.00">Serial port</text>
</a>
</g>
</g>
<!-- Node0&#45;&gt;Node7 -->
<g id="edge7" class="edge"><title>Node0&#45;&gt;Node7</title>
<path fill="none" stroke="black" d="M60.2666,-198.584C75.1714,-215.428 99.5657,-240.636 125,-257 130.677,-260.652 137.169,-263.811 143.493,-266.446"/>
<polygon fill="black" stroke="black" points="62.5727,-195.9 53.3821,-190.629 57.2796,-200.481 62.5727,-195.9"/>
</g>
<!-- Node4 -->
<g id="node5" class="node"><title>Node4</title>
<g id="a_node5"><a xlink:href="group__spi__slave__transport.html" target="_top" xlink:title="Kinetis SDK SPI slave driver transport. ">
<polygon fill="white" stroke="black" points="144,-228.5 144,-247.5 203,-247.5 203,-228.5 144,-228.5"/>
<text text-anchor="middle" x="173.5" y="-235.5" font-family="Helvetica,sans-Serif" font-size="10.00">SPI Slave</text>
</a>
</g>
</g>
<!-- Node0&#45;&gt;Node4 -->
<g id="edge4" class="edge"><title>Node0&#45;&gt;Node4</title>
<path fill="none" stroke="black" d="M73.9096,-195.134C88.9808,-202.491 107.876,-211.492 125,-219 132.321,-222.21 140.365,-225.511 147.719,-228.443"/>
<polygon fill="black" stroke="black" points="75.1337,-191.836 64.6149,-190.569 72.0479,-198.119 75.1337,-191.836"/>
</g>
<!-- Node6 -->
<g id="node6" class="node"><title>Node6</title>
<g id="a_node6"><a xlink:href="group__uart__transport.html" target="_top" xlink:title="CMSIS UART driver transport. ">
<polygon fill="white" stroke="black" points="135.5,-190.5 135.5,-209.5 211.5,-209.5 211.5,-190.5 135.5,-190.5"/>
<text text-anchor="middle" x="173.5" y="-197.5" font-family="Helvetica,sans-Serif" font-size="10.00">CMSIS UART</text>
</a>
</g>
</g>
<!-- Node0&#45;&gt;Node6 -->
<g id="edge6" class="edge"><title>Node0&#45;&gt;Node6</title>
<path fill="none" stroke="black" d="M99.2908,-189.047C111.482,-190.871 124.162,-192.768 135.476,-194.461"/>
<polygon fill="black" stroke="black" points="99.614,-185.557 89.2062,-187.539 98.5782,-192.48 99.614,-185.557"/>
</g>
<!-- Node3 -->
<g id="node7" class="node"><title>Node3</title>
<g id="a_node7"><a xlink:href="group__spi__master__transport.html" target="_top" xlink:title="Kinetis SDK SPI master driver transport. ">
<polygon fill="white" stroke="black" points="141,-152.5 141,-171.5 206,-171.5 206,-152.5 141,-152.5"/>
<text text-anchor="middle" x="173.5" y="-159.5" font-family="Helvetica,sans-Serif" font-size="10.00">SPI Master</text>
</a>
</g>
</g>
<!-- Node0&#45;&gt;Node3 -->
<g id="edge3" class="edge"><title>Node0&#45;&gt;Node3</title>
<path fill="none" stroke="black" d="M99.3257,-172.947C113.438,-170.836 128.203,-168.627 140.744,-166.751"/>
<polygon fill="black" stroke="black" points="98.5782,-169.52 89.2062,-174.461 99.614,-176.443 98.5782,-169.52"/>
</g>
<!-- Node5 -->
<g id="node8" class="node"><title>Node5</title>
<g id="a_node8"><a xlink:href="group__itbp__transport.html" target="_top" xlink:title="Simple inter&#45;thread communications transport. ">
<polygon fill="white" stroke="black" points="141,-114.5 141,-133.5 206,-133.5 206,-114.5 141,-114.5"/>
<text text-anchor="middle" x="173.5" y="-121.5" font-family="Helvetica,sans-Serif" font-size="10.00">Inter&#45;thread</text>
</a>
</g>
</g>
<!-- Node0&#45;&gt;Node5 -->
<g id="edge5" class="edge"><title>Node0&#45;&gt;Node5</title>
<path fill="none" stroke="black" d="M73.9096,-166.866C88.9808,-159.509 107.876,-150.508 125,-143 132.321,-139.79 140.365,-136.489 147.719,-133.557"/>
<polygon fill="black" stroke="black" points="72.0479,-163.881 64.6149,-171.431 75.1337,-170.164 72.0479,-163.881"/>
</g>
<!-- Node1 -->
<g id="node9" class="node"><title>Node1</title>
<g id="a_node9"><a xlink:href="group__dspi__master__transport.html" target="_top" xlink:title="Kinetis SDK DSPI master driver transport. ">
<polygon fill="white" stroke="black" points="137.5,-76.5 137.5,-95.5 209.5,-95.5 209.5,-76.5 137.5,-76.5"/>
<text text-anchor="middle" x="173.5" y="-83.5" font-family="Helvetica,sans-Serif" font-size="10.00">DSPI Master</text>
</a>
</g>
</g>
<!-- Node0&#45;&gt;Node1 -->
<g id="edge1" class="edge"><title>Node0&#45;&gt;Node1</title>
<path fill="none" stroke="black" d="M60.2666,-163.416C75.1714,-146.572 99.5657,-121.364 125,-105 130.677,-101.348 137.169,-98.1895 143.493,-95.5537"/>
<polygon fill="black" stroke="black" points="57.2796,-161.519 53.3821,-171.371 62.5727,-166.1 57.2796,-161.519"/>
</g>
<!-- Node8 -->
<g id="node10" class="node"><title>Node8</title>
<g id="a_node10"><a xlink:href="group__rpmsg__lite__rtos__transport.html" target="_top" xlink:title="RPMsg&#45;Lite zero copy transport using RTOS API. ">
<polygon fill="white" stroke="black" points="125,-38.5 125,-57.5 222,-57.5 222,-38.5 125,-38.5"/>
<text text-anchor="middle" x="173.5" y="-45.5" font-family="Helvetica,sans-Serif" font-size="10.00">RPMsg&#45;Lite RTOS</text>
</a>
</g>
</g>
<!-- Node0&#45;&gt;Node8 -->
<g id="edge8" class="edge"><title>Node0&#45;&gt;Node8</title>
<path fill="none" stroke="black" d="M54.2423,-162.204C66.7015,-137.28 91.7857,-93.3776 125,-67 129.73,-63.2439 135.298,-60.1427 140.926,-57.6134"/>
<polygon fill="black" stroke="black" points="51.0316,-160.804 49.8233,-171.33 57.3318,-163.855 51.0316,-160.804"/>
</g>
<!-- Node9 -->
<g id="node11" class="node"><title>Node9</title>
<g id="a_node11"><a xlink:href="group__rpmsg__lite__transport.html" target="_top" xlink:title="RPMsg&#45;Lite zero copy transport. ">
<polygon fill="white" stroke="black" points="139.5,-0.5 139.5,-19.5 207.5,-19.5 207.5,-0.5 139.5,-0.5"/>
<text text-anchor="middle" x="173.5" y="-7.5" font-family="Helvetica,sans-Serif" font-size="10.00">RPMsg&#45;Lite</text>
</a>
</g>
</g>
<!-- Node0&#45;&gt;Node9 -->
<g id="edge9" class="edge"><title>Node0&#45;&gt;Node9</title>
<path fill="none" stroke="black" d="M50.8524,-161.482C60.5391,-129.589 83.884,-66.1451 125,-29 129.218,-25.1894 134.296,-22.0966 139.54,-19.6009"/>
<polygon fill="black" stroke="black" points="47.4138,-160.773 47.9889,-171.352 54.1366,-162.723 47.4138,-160.773"/>
</g>
</g>
</svg>
