<?xml version="1.0" encoding="UTF-8" standalone="no"?>
<!DOCTYPE svg PUBLIC "-//W3C//DTD SVG 1.1//EN"
 "http://www.w3.org/Graphics/SVG/1.1/DTD/svg11.dtd">
<!-- Generated by graphviz version 2.38.0 (20140413.2041)
 -->
<!-- Title: Inter&#45;thread Pages: 1 -->
<svg width="364pt" height="864pt"
 viewBox="0.00 0.00 364.00 864.00" xmlns="http://www.w3.org/2000/svg" xmlns:xlink="http://www.w3.org/1999/xlink">
<g id="graph0" class="graph" transform="scale(1 1) rotate(0) translate(4 860)">
<title>Inter&#45;thread</title>
<polygon fill="white" stroke="none" points="-4,4 -4,-860 360,-860 360,4 -4,4"/>
<!-- Node1 -->
<g id="node1" class="node"><title>Node1</title>
<g id="a_node1"><a xlink:href="group__transports.html" target="_top" xlink:title="Transport layer classes. ">
<polygon fill="white" stroke="black" points="0,-418.5 0,-437.5 89,-437.5 89,-418.5 0,-418.5"/>
<text text-anchor="middle" x="44.5" y="-425.5" font-family="Helvetica,sans-Serif" font-size="10.00">Transport Layers</text>
</a>
</g>
</g>
<!-- Node0 -->
<g id="node18" class="node"><title>Node0</title>
<polygon fill="#bfbfbf" stroke="black" points="126,-418.5 126,-437.5 191,-437.5 191,-418.5 126,-418.5"/>
<text text-anchor="middle" x="158.5" y="-425.5" font-family="Helvetica,sans-Serif" font-size="10.00">Inter&#45;thread</text>
</g>
<!-- Node1&#45;&gt;Node0 -->
<g id="edge1" class="edge"><title>Node1&#45;&gt;Node0</title>
<path fill="none" stroke="black" d="M99.3357,-428C108.456,-428 117.653,-428 125.957,-428"/>
<polygon fill="black" stroke="black" points="99.1229,-424.5 89.1228,-428 99.1228,-431.5 99.1229,-424.5"/>
</g>
<!-- Node10 -->
<g id="node2" class="node"><title>Node10</title>
<g id="a_node2"><a xlink:href="group__dspi__slave__transport.html" target="_top" xlink:title="MCUXpressoSDK DSPI slave driver transport. ">
<polygon fill="white" stroke="black" points="268.5,-836.5 268.5,-855.5 333.5,-855.5 333.5,-836.5 268.5,-836.5"/>
<text text-anchor="middle" x="301" y="-843.5" font-family="Helvetica,sans-Serif" font-size="10.00">DSPI Slave</text>
</a>
</g>
</g>
<!-- Node11 -->
<g id="node3" class="node"><title>Node11</title>
<g id="a_node3"><a xlink:href="group__i2c__slave__transport.html" target="_top" xlink:title="MCUXpressoSDK I2C slave driver transport. ">
<polygon fill="white" stroke="black" points="272.5,-798.5 272.5,-817.5 329.5,-817.5 329.5,-798.5 272.5,-798.5"/>
<text text-anchor="middle" x="301" y="-805.5" font-family="Helvetica,sans-Serif" font-size="10.00">I2C Slave</text>
</a>
</g>
</g>
<!-- Node8 -->
<g id="node4" class="node"><title>Node8</title>
<g id="a_node4"><a xlink:href="group__port__threads.html" target="_top" xlink:title="Threading model. ">
<polygon fill="white" stroke="black" points="275.5,-760.5 275.5,-779.5 326.5,-779.5 326.5,-760.5 275.5,-760.5"/>
<text text-anchor="middle" x="301" y="-767.5" font-family="Helvetica,sans-Serif" font-size="10.00">Threads</text>
</a>
</g>
</g>
<!-- Node14 -->
<g id="node5" class="node"><title>Node14</title>
<g id="a_node5"><a xlink:href="group__mu__transport.html" target="_top" xlink:title="Messaging Unit transport. ">
<polygon fill="white" stroke="black" points="259,-722.5 259,-741.5 343,-741.5 343,-722.5 259,-722.5"/>
<text text-anchor="middle" x="301" y="-729.5" font-family="Helvetica,sans-Serif" font-size="10.00">Messaging Unit</text>
</a>
</g>
</g>
<!-- Node22 -->
<g id="node6" class="node"><title>Node22</title>
<g id="a_node6"><a xlink:href="group__tcp__transport.html" target="_top" xlink:title="Simple TCP/IP transport. ">
<polygon fill="white" stroke="black" points="277.5,-684.5 277.5,-703.5 324.5,-703.5 324.5,-684.5 277.5,-684.5"/>
<text text-anchor="middle" x="301" y="-691.5" font-family="Helvetica,sans-Serif" font-size="10.00">TCP/IP</text>
</a>
</g>
</g>
<!-- Node2 -->
<g id="node7" class="node"><title>Node2</title>
<g id="a_node7"><a xlink:href="group__infra__client.html" target="_top" xlink:title="Client classes. ">
<polygon fill="white" stroke="black" points="280.5,-646.5 280.5,-665.5 321.5,-665.5 321.5,-646.5 280.5,-646.5"/>
<text text-anchor="middle" x="301" y="-653.5" font-family="Helvetica,sans-Serif" font-size="10.00">Client</text>
</a>
</g>
</g>
<!-- Node4 -->
<g id="node8" class="node"><title>Node4</title>
<g id="a_node8"><a xlink:href="group__infra__transport.html" target="_top" xlink:title="Superclasses for building transports. ">
<polygon fill="white" stroke="black" points="270,-608.5 270,-627.5 332,-627.5 332,-608.5 270,-608.5"/>
<text text-anchor="middle" x="301" y="-615.5" font-family="Helvetica,sans-Serif" font-size="10.00">Transports</text>
</a>
</g>
</g>
<!-- Node18 -->
<g id="node9" class="node"><title>Node18</title>
<g id="a_node9"><a xlink:href="group__serial__transport.html" target="_top" xlink:title="POSIX and Win32 serial port transport. ">
<polygon fill="white" stroke="black" points="270.5,-570.5 270.5,-589.5 331.5,-589.5 331.5,-570.5 270.5,-570.5"/>
<text text-anchor="middle" x="301" y="-577.5" font-family="Helvetica,sans-Serif" font-size="10.00">Serial port</text>
</a>
</g>
</g>
<!-- Node5 -->
<g id="node10" class="node"><title>Node5</title>
<g id="a_node10"><a xlink:href="group__infra__utility.html" target="_top" xlink:title="Utility code used by the infrastructure. ">
<polygon fill="white" stroke="black" points="276.5,-532.5 276.5,-551.5 325.5,-551.5 325.5,-532.5 276.5,-532.5"/>
<text text-anchor="middle" x="301" y="-539.5" font-family="Helvetica,sans-Serif" font-size="10.00">Utilities</text>
</a>
</g>
</g>
<!-- Node20 -->
<g id="node11" class="node"><title>Node20</title>
<g id="a_node11"><a xlink:href="group__spi__slave__transport.html" target="_top" xlink:title="MCUXpressoSDK SPI slave driver transport. ">
<polygon fill="white" stroke="black" points="271.5,-494.5 271.5,-513.5 330.5,-513.5 330.5,-494.5 271.5,-494.5"/>
<text text-anchor="middle" x="301" y="-501.5" font-family="Helvetica,sans-Serif" font-size="10.00">SPI Slave</text>
</a>
</g>
</g>
<!-- Node23 -->
<g id="node12" class="node"><title>Node23</title>
<g id="a_node12"><a xlink:href="group__uart__transport.html" target="_top" xlink:title="CMSIS UART driver transport. ">
<polygon fill="white" stroke="black" points="263,-456.5 263,-475.5 339,-475.5 339,-456.5 263,-456.5"/>
<text text-anchor="middle" x="301" y="-463.5" font-family="Helvetica,sans-Serif" font-size="10.00">CMSIS UART</text>
</a>
</g>
</g>
<!-- Node21 -->
<g id="node13" class="node"><title>Node21</title>
<g id="a_node13"><a xlink:href="group__spidev__master__transport.html" target="_top" xlink:title="SPIdev Linux transport. ">
<polygon fill="white" stroke="black" points="248,-418.5 248,-437.5 354,-437.5 354,-418.5 248,-418.5"/>
<text text-anchor="middle" x="301" y="-425.5" font-family="Helvetica,sans-Serif" font-size="10.00">SPIdev Linux Master</text>
</a>
</g>
</g>
<!-- Node19 -->
<g id="node14" class="node"><title>Node19</title>
<g id="a_node14"><a xlink:href="group__spi__master__transport.html" target="_top" xlink:title="MCUXpressoSDK SPI master driver transport. ">
<polygon fill="white" stroke="black" points="268.5,-380.5 268.5,-399.5 333.5,-399.5 333.5,-380.5 268.5,-380.5"/>
<text text-anchor="middle" x="301" y="-387.5" font-family="Helvetica,sans-Serif" font-size="10.00">SPI Master</text>
</a>
</g>
</g>
<!-- Node17 -->
<g id="node15" class="node"><title>Node17</title>
<g id="a_node15"><a xlink:href="group__rpmsg__tty__rtos__transport.html" target="_top" xlink:title="RPMsg TTY RTOS transport. ">
<polygon fill="white" stroke="black" points="252,-342.5 252,-361.5 350,-361.5 350,-342.5 252,-342.5"/>
<text text-anchor="middle" x="301" y="-349.5" font-family="Helvetica,sans-Serif" font-size="10.00">RPMsg TTY RTOS</text>
</a>
</g>
</g>
<!-- Node6 -->
<g id="node16" class="node"><title>Node6</title>
<g id="a_node16"><a xlink:href="group__infra__server.html" target="_top" xlink:title="Server classes. ">
<polygon fill="white" stroke="black" points="279,-304.5 279,-323.5 323,-323.5 323,-304.5 279,-304.5"/>
<text text-anchor="middle" x="301" y="-311.5" font-family="Helvetica,sans-Serif" font-size="10.00">Server</text>
</a>
</g>
</g>
<!-- Node12 -->
<g id="node17" class="node"><title>Node12</title>
<g id="a_node17"><a xlink:href="group__lpi2c__slave__transport.html" target="_top" xlink:title="Lpi2c_slave_transport">
<polygon fill="white" stroke="black" points="246,-266.5 246,-285.5 356,-285.5 356,-266.5 246,-266.5"/>
<text text-anchor="middle" x="301" y="-273.5" font-family="Helvetica,sans-Serif" font-size="10.00">Lpi2c_slave_transport</text>
</a>
</g>
</g>
<!-- Node0&#45;&gt;Node10 -->
<g id="edge10" class="edge"><title>Node0&#45;&gt;Node10</title>
<path fill="none" stroke="blueviolet" stroke-dasharray="5,2" d="M159.975,-437.754C162.591,-488.903 176.336,-726.266 209,-791 219.336,-811.484 226.5,-814.91 246,-827 252.842,-831.242 260.76,-834.702 268.389,-837.45"/>
<text text-anchor="middle" x="218.5" y="-818" font-family="Helvetica,sans-Serif" font-size="10.00">erpc</text>
</g>
<!-- Node0&#45;&gt;Node11 -->
<g id="edge11" class="edge"><title>Node0&#45;&gt;Node11</title>
<path fill="none" stroke="blueviolet" stroke-dasharray="5,2" d="M160.143,-437.663C163.436,-485.34 179.432,-695.523 209,-753 219.496,-773.403 226.5,-776.91 246,-789 254.024,-793.975 263.529,-797.874 272.311,-800.811"/>
<text text-anchor="middle" x="218.5" y="-779" font-family="Helvetica,sans-Serif" font-size="10.00">erpc</text>
</g>
<!-- Node0&#45;&gt;Node8 -->
<g id="edge8" class="edge"><title>Node0&#45;&gt;Node8</title>
<path fill="none" stroke="blueviolet" stroke-dasharray="5,2" d="M159.085,-437.592C157.859,-475.365 157.146,-616.589 209,-715 219.695,-735.298 226.5,-738.91 246,-751 254.953,-756.551 265.75,-760.763 275.329,-763.793"/>
<text text-anchor="middle" x="218.5" y="-741" font-family="Helvetica,sans-Serif" font-size="10.00">erpc</text>
</g>
<!-- Node0&#45;&gt;Node14 -->
<g id="edge14" class="edge"><title>Node0&#45;&gt;Node14</title>
<path fill="none" stroke="blueviolet" stroke-dasharray="5,2" d="M159.417,-437.725C159.522,-472.482 163.342,-592.959 209,-677 219.953,-697.161 226.5,-700.91 246,-713 251.997,-716.718 258.821,-719.836 265.553,-722.399"/>
<text text-anchor="middle" x="218.5" y="-703" font-family="Helvetica,sans-Serif" font-size="10.00">erpc</text>
</g>
<!-- Node0&#45;&gt;Node22 -->
<g id="edge22" class="edge"><title>Node0&#45;&gt;Node22</title>
<path fill="none" stroke="blueviolet" stroke-dasharray="5,2" d="M159.859,-437.515C161.402,-468.558 169.357,-568.914 209,-639 220.296,-658.971 226.5,-662.91 246,-675 255.629,-680.97 267.391,-685.391 277.476,-688.458"/>
<text text-anchor="middle" x="218.5" y="-665" font-family="Helvetica,sans-Serif" font-size="10.00">erpc</text>
</g>
<!-- Node0&#45;&gt;Node2 -->
<g id="edge2" class="edge"><title>Node0&#45;&gt;Node2</title>
<path fill="none" stroke="blueviolet" stroke-dasharray="5,2" d="M160.557,-437.607C163.895,-464.818 176.012,-544.059 209,-600 220.813,-620.032 226.319,-624.61 246,-637 256.513,-643.618 269.634,-648.304 280.31,-651.365"/>
<text text-anchor="middle" x="218.5" y="-627" font-family="Helvetica,sans-Serif" font-size="10.00">erpc</text>
</g>
<!-- Node0&#45;&gt;Node4 -->
<g id="edge4" class="edge"><title>Node0&#45;&gt;Node4</title>
<path fill="none" stroke="blueviolet" stroke-dasharray="5,2" d="M161.679,-437.547C167.12,-460.131 182.783,-518.084 209,-560 221.67,-580.257 225.95,-586.006 246,-599 253.256,-603.702 261.817,-607.403 269.958,-610.24"/>
<text text-anchor="middle" x="218.5" y="-588" font-family="Helvetica,sans-Serif" font-size="10.00">erpc</text>
</g>
<!-- Node0&#45;&gt;Node18 -->
<g id="edge18" class="edge"><title>Node0&#45;&gt;Node18</title>
<path fill="none" stroke="blueviolet" stroke-dasharray="5,2" d="M162.638,-437.743C171.311,-462.946 198.185,-530.451 246,-561 253.37,-565.709 262.054,-569.425 270.278,-572.275"/>
<text text-anchor="middle" x="218.5" y="-548" font-family="Helvetica,sans-Serif" font-size="10.00">erpc</text>
</g>
<!-- Node0&#45;&gt;Node5 -->
<g id="edge5" class="edge"><title>Node0&#45;&gt;Node5</title>
<path fill="none" stroke="blueviolet" stroke-dasharray="5,2" d="M165.351,-437.501C177.726,-456.763 208.519,-500.494 246,-523 255.372,-528.628 266.661,-532.927 276.488,-536.001"/>
<text text-anchor="middle" x="218.5" y="-511" font-family="Helvetica,sans-Serif" font-size="10.00">erpc</text>
</g>
<!-- Node0&#45;&gt;Node20 -->
<g id="edge20" class="edge"><title>Node0&#45;&gt;Node20</title>
<path fill="none" stroke="blueviolet" stroke-dasharray="5,2" d="M171.755,-437.632C187.964,-449.997 217.785,-471.466 246,-485 253.975,-488.825 262.932,-492.287 271.224,-495.176"/>
<text text-anchor="middle" x="218.5" y="-477" font-family="Helvetica,sans-Serif" font-size="10.00">erpc</text>
</g>
<!-- Node0&#45;&gt;Node23 -->
<g id="edge23" class="edge"><title>Node0&#45;&gt;Node23</title>
<path fill="none" stroke="blueviolet" stroke-dasharray="5,2" d="M190.065,-437.506C196.314,-439.38 202.857,-441.294 209,-443 226.585,-447.884 246.201,-452.897 262.705,-456.991"/>
<text text-anchor="middle" x="218.5" y="-450" font-family="Helvetica,sans-Serif" font-size="10.00">erpc</text>
</g>
<!-- Node0&#45;&gt;Node21 -->
<g id="edge21" class="edge"><title>Node0&#45;&gt;Node21</title>
<path fill="none" stroke="blueviolet" stroke-dasharray="5,2" d="M191.031,-428C207.779,-428 228.796,-428 247.893,-428"/>
<text text-anchor="middle" x="218.5" y="-431" font-family="Helvetica,sans-Serif" font-size="10.00">erpc</text>
</g>
<!-- Node0&#45;&gt;Node19 -->
<g id="edge19" class="edge"><title>Node0&#45;&gt;Node19</title>
<path fill="none" stroke="blueviolet" stroke-dasharray="5,2" d="M190.065,-418.494C196.314,-416.62 202.857,-414.706 209,-413 228.626,-407.549 250.783,-401.938 268.319,-397.622"/>
<text text-anchor="middle" x="218.5" y="-416" font-family="Helvetica,sans-Serif" font-size="10.00">erpc</text>
</g>
<!-- Node0&#45;&gt;Node17 -->
<g id="edge17" class="edge"><title>Node0&#45;&gt;Node17</title>
<path fill="none" stroke="blueviolet" stroke-dasharray="5,2" d="M171.436,-418.496C187.537,-406.072 217.49,-384.331 246,-371 253.472,-367.506 261.776,-364.28 269.586,-361.517"/>
<text text-anchor="middle" x="218.5" y="-393" font-family="Helvetica,sans-Serif" font-size="10.00">erpc</text>
</g>
<!-- Node0&#45;&gt;Node6 -->
<g id="edge6" class="edge"><title>Node0&#45;&gt;Node6</title>
<path fill="none" stroke="blueviolet" stroke-dasharray="5,2" d="M165.323,-418.453C177.648,-399.106 208.352,-355.227 246,-333 256.184,-326.987 268.569,-322.459 278.907,-319.334"/>
<text text-anchor="middle" x="218.5" y="-364" font-family="Helvetica,sans-Serif" font-size="10.00">erpc</text>
</g>
<!-- Node0&#45;&gt;Node12 -->
<g id="edge12" class="edge"><title>Node0&#45;&gt;Node12</title>
<path fill="none" stroke="blueviolet" stroke-dasharray="5,2" d="M162.615,-418.221C171.232,-392.929 197.982,-325.229 246,-295 251.971,-291.241 258.784,-288.105 265.512,-285.537"/>
<text text-anchor="middle" x="218.5" y="-329" font-family="Helvetica,sans-Serif" font-size="10.00">erpc</text>
</g>
<!-- Node9 -->
<g id="node19" class="node"><title>Node9</title>
<g id="a_node19"><a xlink:href="group__dspi__master__transport.html" target="_top" xlink:title="MCUXpressoSDK DSPI master driver transport. ">
<polygon fill="white" stroke="black" points="265,-228.5 265,-247.5 337,-247.5 337,-228.5 265,-228.5"/>
<text text-anchor="middle" x="301" y="-235.5" font-family="Helvetica,sans-Serif" font-size="10.00">DSPI Master</text>
</a>
</g>
</g>
<!-- Node0&#45;&gt;Node9 -->
<g id="edge9" class="edge"><title>Node0&#45;&gt;Node9</title>
<path fill="none" stroke="blueviolet" stroke-dasharray="5,2" d="M161.626,-418.357C166.953,-395.551 182.388,-337.055 209,-295 221.605,-275.081 226.136,-269.691 246,-257 251.863,-253.254 258.556,-250.137 265.189,-247.583"/>
<text text-anchor="middle" x="218.5" y="-298" font-family="Helvetica,sans-Serif" font-size="10.00">erpc</text>
</g>
<!-- Node24 -->
<g id="node20" class="node"><title>Node24</title>
<g id="a_node20"><a xlink:href="group___u_s_b___c_d_c__transport.html" target="_top" xlink:title="USB CDC transport. ">
<polygon fill="white" stroke="black" points="271,-190.5 271,-209.5 331,-209.5 331,-190.5 271,-190.5"/>
<text text-anchor="middle" x="301" y="-197.5" font-family="Helvetica,sans-Serif" font-size="10.00">USB CDC</text>
</a>
</g>
</g>
<!-- Node0&#45;&gt;Node24 -->
<g id="edge24" class="edge"><title>Node0&#45;&gt;Node24</title>
<path fill="none" stroke="blueviolet" stroke-dasharray="5,2" d="M160.505,-418.314C163.704,-390.884 175.494,-311.038 209,-255 220.774,-235.308 226.5,-231.09 246,-219 253.602,-214.287 262.533,-210.539 270.919,-207.661"/>
<text text-anchor="middle" x="218.5" y="-258" font-family="Helvetica,sans-Serif" font-size="10.00">erpc</text>
</g>
<!-- Node3 -->
<g id="node21" class="node"><title>Node3</title>
<g id="a_node21"><a xlink:href="group__infra__codec.html" target="_top" xlink:title="Classes used for message serialization. ">
<polygon fill="white" stroke="black" points="266,-152.5 266,-171.5 336,-171.5 336,-152.5 266,-152.5"/>
<text text-anchor="middle" x="301" y="-159.5" font-family="Helvetica,sans-Serif" font-size="10.00">Serialization</text>
</a>
</g>
</g>
<!-- Node0&#45;&gt;Node3 -->
<g id="edge3" class="edge"><title>Node0&#45;&gt;Node3</title>
<path fill="none" stroke="blueviolet" stroke-dasharray="5,2" d="M159.807,-418.417C161.193,-387.158 168.722,-286.14 209,-216 220.272,-196.37 226.678,-192.793 246,-181 252.108,-177.272 259.052,-174.138 265.878,-171.559"/>
<text text-anchor="middle" x="218.5" y="-219" font-family="Helvetica,sans-Serif" font-size="10.00">erpc</text>
</g>
<!-- Node15 -->
<g id="node22" class="node"><title>Node15</title>
<g id="a_node22"><a xlink:href="group__rpmsg__lite__rtos__transport.html" target="_top" xlink:title="RPMsg&#45;Lite zero copy transport using RTOS API. ">
<polygon fill="white" stroke="black" points="252.5,-114.5 252.5,-133.5 349.5,-133.5 349.5,-114.5 252.5,-114.5"/>
<text text-anchor="middle" x="301" y="-121.5" font-family="Helvetica,sans-Serif" font-size="10.00">RPMsg&#45;Lite RTOS</text>
</a>
</g>
</g>
<!-- Node0&#45;&gt;Node15 -->
<g id="edge15" class="edge"><title>Node0&#45;&gt;Node15</title>
<path fill="none" stroke="blueviolet" stroke-dasharray="5,2" d="M159.314,-418.152C159.067,-382.961 161.85,-261.062 209,-177 219.925,-157.522 226.853,-154.497 246,-143 252.22,-139.265 259.283,-136.116 266.204,-133.521"/>
<text text-anchor="middle" x="218.5" y="-180" font-family="Helvetica,sans-Serif" font-size="10.00">erpc</text>
</g>
<!-- Node16 -->
<g id="node23" class="node"><title>Node16</title>
<g id="a_node23"><a xlink:href="group__rpmsg__lite__transport.html" target="_top" xlink:title="RPMsg&#45;Lite zero copy transport. ">
<polygon fill="white" stroke="black" points="267,-76.5 267,-95.5 335,-95.5 335,-76.5 267,-76.5"/>
<text text-anchor="middle" x="301" y="-83.5" font-family="Helvetica,sans-Serif" font-size="10.00">RPMsg&#45;Lite</text>
</a>
</g>
</g>
<!-- Node0&#45;&gt;Node16 -->
<g id="edge16" class="edge"><title>Node0&#45;&gt;Node16</title>
<path fill="none" stroke="blueviolet" stroke-dasharray="5,2" d="M160.323,-418.229C164.208,-373.604 181.674,-189.183 209,-139 219.68,-119.386 226.853,-116.497 246,-105 252.39,-101.163 259.671,-97.9434 266.772,-95.3089"/>
<text text-anchor="middle" x="218.5" y="-142" font-family="Helvetica,sans-Serif" font-size="10.00">erpc</text>
</g>
<!-- Node7 -->
<g id="node24" class="node"><title>Node7</title>
<g id="a_node24"><a xlink:href="group__port__setup__extensions.html" target="_top" xlink:title="Extension setup functions. ">
<polygon fill="white" stroke="black" points="256.5,-38.5 256.5,-57.5 345.5,-57.5 345.5,-38.5 256.5,-38.5"/>
<text text-anchor="middle" x="301" y="-45.5" font-family="Helvetica,sans-Serif" font-size="10.00">Extension Setup</text>
</a>
</g>
</g>
<!-- Node0&#45;&gt;Node7 -->
<g id="edge7" class="edge"><title>Node0&#45;&gt;Node7</title>
<path fill="none" stroke="blueviolet" stroke-dasharray="5,2" d="M160.104,-418.261C163.212,-370.209 178.459,-158.407 209,-101 220.678,-79.0486 245.631,-65.4626 266.458,-57.549"/>
<text text-anchor="middle" x="218.5" y="-104" font-family="Helvetica,sans-Serif" font-size="10.00">erpc</text>
</g>
<!-- Node13 -->
<g id="node25" class="node"><title>Node13</title>
<g id="a_node25"><a xlink:href="group__lpspi__slave__transport.html" target="_top" xlink:title="Lpspi_slave_transport">
<polygon fill="white" stroke="black" points="246,-0.5 246,-19.5 356,-19.5 356,-0.5 246,-0.5"/>
<text text-anchor="middle" x="301" y="-7.5" font-family="Helvetica,sans-Serif" font-size="10.00">Lpspi_slave_transport</text>
</a>
</g>
</g>
<!-- Node0&#45;&gt;Node13 -->
<g id="edge13" class="edge"><title>Node0&#45;&gt;Node13</title>
<path fill="none" stroke="blueviolet" stroke-dasharray="5,2" d="M159.956,-418.21C162.474,-366.879 175.803,-128.684 209,-64 219.336,-43.8612 226.678,-40.7925 246,-29 252.108,-25.2722 259.052,-22.1384 265.878,-19.5592"/>
<text text-anchor="middle" x="218.5" y="-67" font-family="Helvetica,sans-Serif" font-size="10.00">erpc</text>
</g>
</g>
</svg>
