<?xml version="1.0" encoding="UTF-8" standalone="no"?>
<!DOCTYPE svg PUBLIC "-//W3C//DTD SVG 1.1//EN"
 "http://www.w3.org/Graphics/SVG/1.1/DTD/svg11.dtd">
<!-- Generated by graphviz version 2.38.0 (20140413.2041)
 -->
<!-- Title: Server Pages: 1 -->
<svg width="327pt" height="864pt"
 viewBox="0.00 0.00 327.00 864.00" xmlns="http://www.w3.org/2000/svg" xmlns:xlink="http://www.w3.org/1999/xlink">
<g id="graph0" class="graph" transform="scale(1 1) rotate(0) translate(4 860)">
<title>Server</title>
<polygon fill="white" stroke="none" points="-4,4 -4,-860 323,-860 323,4 -4,4"/>
<!-- Node9 -->
<g id="node1" class="node"><title>Node9</title>
<g id="a_node1"><a xlink:href="group__dspi__slave__transport.html" target="_top" xlink:title="MCUXpressoSDK DSPI slave driver transport. ">
<polygon fill="white" stroke="black" points="231.5,-836.5 231.5,-855.5 296.5,-855.5 296.5,-836.5 231.5,-836.5"/>
<text text-anchor="middle" x="264" y="-843.5" font-family="Helvetica,sans-Serif" font-size="10.00">DSPI Slave</text>
</a>
</g>
</g>
<!-- Node10 -->
<g id="node2" class="node"><title>Node10</title>
<g id="a_node2"><a xlink:href="group__i2c__slave__transport.html" target="_top" xlink:title="MCUXpressoSDK I2C slave driver transport. ">
<polygon fill="white" stroke="black" points="235.5,-798.5 235.5,-817.5 292.5,-817.5 292.5,-798.5 235.5,-798.5"/>
<text text-anchor="middle" x="264" y="-805.5" font-family="Helvetica,sans-Serif" font-size="10.00">I2C Slave</text>
</a>
</g>
</g>
<!-- Node7 -->
<g id="node3" class="node"><title>Node7</title>
<g id="a_node3"><a xlink:href="group__port__threads.html" target="_top" xlink:title="Threading model. ">
<polygon fill="white" stroke="black" points="238.5,-760.5 238.5,-779.5 289.5,-779.5 289.5,-760.5 238.5,-760.5"/>
<text text-anchor="middle" x="264" y="-767.5" font-family="Helvetica,sans-Serif" font-size="10.00">Threads</text>
</a>
</g>
</g>
<!-- Node14 -->
<g id="node4" class="node"><title>Node14</title>
<g id="a_node4"><a xlink:href="group__mu__transport.html" target="_top" xlink:title="Messaging Unit transport. ">
<polygon fill="white" stroke="black" points="222,-722.5 222,-741.5 306,-741.5 306,-722.5 222,-722.5"/>
<text text-anchor="middle" x="264" y="-729.5" font-family="Helvetica,sans-Serif" font-size="10.00">Messaging Unit</text>
</a>
</g>
</g>
<!-- Node22 -->
<g id="node5" class="node"><title>Node22</title>
<g id="a_node5"><a xlink:href="group__tcp__transport.html" target="_top" xlink:title="Simple TCP/IP transport. ">
<polygon fill="white" stroke="black" points="240.5,-684.5 240.5,-703.5 287.5,-703.5 287.5,-684.5 240.5,-684.5"/>
<text text-anchor="middle" x="264" y="-691.5" font-family="Helvetica,sans-Serif" font-size="10.00">TCP/IP</text>
</a>
</g>
</g>
<!-- Node1 -->
<g id="node6" class="node"><title>Node1</title>
<g id="a_node6"><a xlink:href="group__infra.html" target="_top" xlink:title="C++ core. ">
<polygon fill="white" stroke="black" points="0,-418.5 0,-437.5 73,-437.5 73,-418.5 0,-418.5"/>
<text text-anchor="middle" x="36.5" y="-425.5" font-family="Helvetica,sans-Serif" font-size="10.00">Infrastructure</text>
</a>
</g>
</g>
<!-- Node0 -->
<g id="node16" class="node"><title>Node0</title>
<polygon fill="#bfbfbf" stroke="black" points="110,-418.5 110,-437.5 154,-437.5 154,-418.5 110,-418.5"/>
<text text-anchor="middle" x="132" y="-425.5" font-family="Helvetica,sans-Serif" font-size="10.00">Server</text>
</g>
<!-- Node1&#45;&gt;Node0 -->
<g id="edge1" class="edge"><title>Node1&#45;&gt;Node0</title>
<path fill="none" stroke="black" d="M83.1489,-428C92.4819,-428 101.873,-428 109.835,-428"/>
<polygon fill="black" stroke="black" points="83.1151,-424.5 73.1151,-428 83.115,-431.5 83.1151,-424.5"/>
</g>
<!-- Node2 -->
<g id="node7" class="node"><title>Node2</title>
<g id="a_node7"><a xlink:href="group__infra__client.html" target="_top" xlink:title="Client classes. ">
<polygon fill="white" stroke="black" points="243.5,-646.5 243.5,-665.5 284.5,-665.5 284.5,-646.5 243.5,-646.5"/>
<text text-anchor="middle" x="264" y="-653.5" font-family="Helvetica,sans-Serif" font-size="10.00">Client</text>
</a>
</g>
</g>
<!-- Node4 -->
<g id="node8" class="node"><title>Node4</title>
<g id="a_node8"><a xlink:href="group__infra__transport.html" target="_top" xlink:title="Superclasses for building transports. ">
<polygon fill="white" stroke="black" points="233,-608.5 233,-627.5 295,-627.5 295,-608.5 233,-608.5"/>
<text text-anchor="middle" x="264" y="-615.5" font-family="Helvetica,sans-Serif" font-size="10.00">Transports</text>
</a>
</g>
</g>
<!-- Node18 -->
<g id="node9" class="node"><title>Node18</title>
<g id="a_node9"><a xlink:href="group__serial__transport.html" target="_top" xlink:title="POSIX and Win32 serial port transport. ">
<polygon fill="white" stroke="black" points="233.5,-570.5 233.5,-589.5 294.5,-589.5 294.5,-570.5 233.5,-570.5"/>
<text text-anchor="middle" x="264" y="-577.5" font-family="Helvetica,sans-Serif" font-size="10.00">Serial port</text>
</a>
</g>
</g>
<!-- Node5 -->
<g id="node10" class="node"><title>Node5</title>
<g id="a_node10"><a xlink:href="group__infra__utility.html" target="_top" xlink:title="Utility code used by the infrastructure. ">
<polygon fill="white" stroke="black" points="239.5,-532.5 239.5,-551.5 288.5,-551.5 288.5,-532.5 239.5,-532.5"/>
<text text-anchor="middle" x="264" y="-539.5" font-family="Helvetica,sans-Serif" font-size="10.00">Utilities</text>
</a>
</g>
</g>
<!-- Node20 -->
<g id="node11" class="node"><title>Node20</title>
<g id="a_node11"><a xlink:href="group__spi__slave__transport.html" target="_top" xlink:title="MCUXpressoSDK SPI slave driver transport. ">
<polygon fill="white" stroke="black" points="234.5,-494.5 234.5,-513.5 293.5,-513.5 293.5,-494.5 234.5,-494.5"/>
<text text-anchor="middle" x="264" y="-501.5" font-family="Helvetica,sans-Serif" font-size="10.00">SPI Slave</text>
</a>
</g>
</g>
<!-- Node23 -->
<g id="node12" class="node"><title>Node23</title>
<g id="a_node12"><a xlink:href="group__uart__transport.html" target="_top" xlink:title="CMSIS UART driver transport. ">
<polygon fill="white" stroke="black" points="226,-456.5 226,-475.5 302,-475.5 302,-456.5 226,-456.5"/>
<text text-anchor="middle" x="264" y="-463.5" font-family="Helvetica,sans-Serif" font-size="10.00">CMSIS UART</text>
</a>
</g>
</g>
<!-- Node21 -->
<g id="node13" class="node"><title>Node21</title>
<g id="a_node13"><a xlink:href="group__spidev__master__transport.html" target="_top" xlink:title="SPIdev Linux transport. ">
<polygon fill="white" stroke="black" points="211,-418.5 211,-437.5 317,-437.5 317,-418.5 211,-418.5"/>
<text text-anchor="middle" x="264" y="-425.5" font-family="Helvetica,sans-Serif" font-size="10.00">SPIdev Linux Master</text>
</a>
</g>
</g>
<!-- Node19 -->
<g id="node14" class="node"><title>Node19</title>
<g id="a_node14"><a xlink:href="group__spi__master__transport.html" target="_top" xlink:title="MCUXpressoSDK SPI master driver transport. ">
<polygon fill="white" stroke="black" points="231.5,-380.5 231.5,-399.5 296.5,-399.5 296.5,-380.5 231.5,-380.5"/>
<text text-anchor="middle" x="264" y="-387.5" font-family="Helvetica,sans-Serif" font-size="10.00">SPI Master</text>
</a>
</g>
</g>
<!-- Node17 -->
<g id="node15" class="node"><title>Node17</title>
<g id="a_node15"><a xlink:href="group__rpmsg__tty__rtos__transport.html" target="_top" xlink:title="RPMsg TTY RTOS transport. ">
<polygon fill="white" stroke="black" points="215,-342.5 215,-361.5 313,-361.5 313,-342.5 215,-342.5"/>
<text text-anchor="middle" x="264" y="-349.5" font-family="Helvetica,sans-Serif" font-size="10.00">RPMsg TTY RTOS</text>
</a>
</g>
</g>
<!-- Node0&#45;&gt;Node9 -->
<g id="edge9" class="edge"><title>Node0&#45;&gt;Node9</title>
<path fill="none" stroke="blueviolet" stroke-dasharray="5,2" d="M133.143,-437.781C134.029,-489.068 139.837,-727.076 172,-792 183.498,-815.211 209.936,-829.235 231.369,-837.151"/>
<text text-anchor="middle" x="181.5" y="-816" font-family="Helvetica,sans-Serif" font-size="10.00">erpc</text>
</g>
<!-- Node0&#45;&gt;Node10 -->
<g id="edge10" class="edge"><title>Node0&#45;&gt;Node10</title>
<path fill="none" stroke="blueviolet" stroke-dasharray="5,2" d="M133.279,-437.692C134.784,-485.513 142.988,-696.333 172,-754 182.173,-774.221 189.678,-777.207 209,-789 217.059,-793.919 226.573,-797.803 235.353,-800.744"/>
<text text-anchor="middle" x="181.5" y="-780" font-family="Helvetica,sans-Serif" font-size="10.00">erpc</text>
</g>
<!-- Node0&#45;&gt;Node7 -->
<g id="edge7" class="edge"><title>Node0&#45;&gt;Node7</title>
<path fill="none" stroke="blueviolet" stroke-dasharray="5,2" d="M133.472,-437.677C135.753,-481.881 146.584,-664.602 172,-715 182.331,-735.486 189.5,-738.91 209,-751 217.953,-756.551 228.75,-760.763 238.329,-763.793"/>
<text text-anchor="middle" x="181.5" y="-742" font-family="Helvetica,sans-Serif" font-size="10.00">erpc</text>
</g>
<!-- Node0&#45;&gt;Node14 -->
<g id="edge14" class="edge"><title>Node0&#45;&gt;Node14</title>
<path fill="none" stroke="blueviolet" stroke-dasharray="5,2" d="M133.701,-437.727C136.746,-478.289 149.691,-633.857 172,-677 182.539,-697.38 189.5,-700.91 209,-713 214.997,-716.718 221.821,-719.836 228.553,-722.399"/>
<text text-anchor="middle" x="181.5" y="-703" font-family="Helvetica,sans-Serif" font-size="10.00">erpc</text>
</g>
<!-- Node0&#45;&gt;Node22 -->
<g id="edge22" class="edge"><title>Node0&#45;&gt;Node22</title>
<path fill="none" stroke="blueviolet" stroke-dasharray="5,2" d="M132.765,-437.936C132.434,-469.422 134.592,-569.024 172,-639 182.817,-659.234 189.5,-662.91 209,-675 218.629,-680.97 230.391,-685.391 240.476,-688.458"/>
<text text-anchor="middle" x="181.5" y="-665" font-family="Helvetica,sans-Serif" font-size="10.00">erpc</text>
</g>
<!-- Node0&#45;&gt;Node2 -->
<g id="edge2" class="edge"><title>Node0&#45;&gt;Node2</title>
<path fill="none" stroke="blueviolet" stroke-dasharray="5,2" d="M133.282,-437.675C134.463,-465.076 140.564,-544.854 172,-601 183.209,-621.019 189.5,-624.91 209,-637 219.558,-643.546 232.68,-648.23 243.345,-651.309"/>
<text text-anchor="middle" x="181.5" y="-627" font-family="Helvetica,sans-Serif" font-size="10.00">erpc</text>
</g>
<!-- Node0&#45;&gt;Node4 -->
<g id="edge4" class="edge"><title>Node0&#45;&gt;Node4</title>
<path fill="none" stroke="blueviolet" stroke-dasharray="5,2" d="M134.147,-437.749C137.203,-460.799 147.076,-519.879 172,-562 183.843,-582.015 189.319,-586.61 209,-599 216.233,-603.554 224.7,-607.192 232.757,-610.016"/>
<text text-anchor="middle" x="181.5" y="-589" font-family="Helvetica,sans-Serif" font-size="10.00">erpc</text>
</g>
<!-- Node0&#45;&gt;Node18 -->
<g id="edge18" class="edge"><title>Node0&#45;&gt;Node18</title>
<path fill="none" stroke="blueviolet" stroke-dasharray="5,2" d="M135.514,-437.603C140.517,-455.608 152.909,-495.216 172,-524 184.854,-543.381 189.319,-548.61 209,-561 216.401,-565.659 225.095,-569.361 233.318,-572.212"/>
<text text-anchor="middle" x="181.5" y="-550" font-family="Helvetica,sans-Serif" font-size="10.00">erpc</text>
</g>
<!-- Node0&#45;&gt;Node5 -->
<g id="edge5" class="edge"><title>Node0&#45;&gt;Node5</title>
<path fill="none" stroke="blueviolet" stroke-dasharray="5,2" d="M137.693,-437.741C147.74,-457.447 173.351,-501.953 209,-523 218.328,-528.507 229.503,-532.769 239.26,-535.848"/>
<text text-anchor="middle" x="181.5" y="-512" font-family="Helvetica,sans-Serif" font-size="10.00">erpc</text>
</g>
<!-- Node0&#45;&gt;Node20 -->
<g id="edge20" class="edge"><title>Node0&#45;&gt;Node20</title>
<path fill="none" stroke="blueviolet" stroke-dasharray="5,2" d="M142.802,-437.78C150.424,-445.136 161.445,-455.24 172,-463 187.415,-474.332 191.669,-476.896 209,-485 217.013,-488.747 225.981,-492.184 234.271,-495.076"/>
<text text-anchor="middle" x="181.5" y="-478" font-family="Helvetica,sans-Serif" font-size="10.00">erpc</text>
</g>
<!-- Node0&#45;&gt;Node23 -->
<g id="edge23" class="edge"><title>Node0&#45;&gt;Node23</title>
<path fill="none" stroke="blueviolet" stroke-dasharray="5,2" d="M154.293,-436.718C159.996,-438.908 166.192,-441.156 172,-443 189.551,-448.571 209.338,-453.705 225.968,-457.703"/>
<text text-anchor="middle" x="181.5" y="-451" font-family="Helvetica,sans-Serif" font-size="10.00">erpc</text>
</g>
<!-- Node0&#45;&gt;Node21 -->
<g id="edge21" class="edge"><title>Node0&#45;&gt;Node21</title>
<path fill="none" stroke="blueviolet" stroke-dasharray="5,2" d="M154.176,-428C169.573,-428 191.11,-428 210.965,-428"/>
<text text-anchor="middle" x="181.5" y="-431" font-family="Helvetica,sans-Serif" font-size="10.00">erpc</text>
</g>
<!-- Node0&#45;&gt;Node19 -->
<g id="edge19" class="edge"><title>Node0&#45;&gt;Node19</title>
<path fill="none" stroke="blueviolet" stroke-dasharray="5,2" d="M154.293,-419.282C159.996,-417.092 166.192,-414.844 172,-413 191.415,-406.837 213.566,-401.209 231.152,-397.063"/>
<text text-anchor="middle" x="181.5" y="-416" font-family="Helvetica,sans-Serif" font-size="10.00">erpc</text>
</g>
<!-- Node0&#45;&gt;Node17 -->
<g id="edge17" class="edge"><title>Node0&#45;&gt;Node17</title>
<path fill="none" stroke="blueviolet" stroke-dasharray="5,2" d="M142.802,-418.22C150.424,-410.864 161.445,-400.76 172,-393 187.415,-381.668 191.669,-379.104 209,-371 216.472,-367.506 224.776,-364.28 232.586,-361.517"/>
<text text-anchor="middle" x="181.5" y="-396" font-family="Helvetica,sans-Serif" font-size="10.00">erpc</text>
</g>
<!-- Node12 -->
<g id="node17" class="node"><title>Node12</title>
<g id="a_node17"><a xlink:href="group__lpi2c__slave__transport.html" target="_top" xlink:title="Lpi2c_slave_transport">
<polygon fill="white" stroke="black" points="209,-304.5 209,-323.5 319,-323.5 319,-304.5 209,-304.5"/>
<text text-anchor="middle" x="264" y="-311.5" font-family="Helvetica,sans-Serif" font-size="10.00">Lpi2c_slave_transport</text>
</a>
</g>
</g>
<!-- Node0&#45;&gt;Node12 -->
<g id="edge12" class="edge"><title>Node0&#45;&gt;Node12</title>
<path fill="none" stroke="blueviolet" stroke-dasharray="5,2" d="M137.693,-418.259C147.74,-398.553 173.351,-354.047 209,-333 215.247,-329.312 222.323,-326.182 229.246,-323.592"/>
<text text-anchor="middle" x="181.5" y="-369" font-family="Helvetica,sans-Serif" font-size="10.00">erpc</text>
</g>
<!-- Node11 -->
<g id="node18" class="node"><title>Node11</title>
<g id="a_node18"><a xlink:href="group__itbp__transport.html" target="_top" xlink:title="Simple inter&#45;thread communications transport. ">
<polygon fill="white" stroke="black" points="231.5,-266.5 231.5,-285.5 296.5,-285.5 296.5,-266.5 231.5,-266.5"/>
<text text-anchor="middle" x="264" y="-273.5" font-family="Helvetica,sans-Serif" font-size="10.00">Inter&#45;thread</text>
</a>
</g>
</g>
<!-- Node0&#45;&gt;Node11 -->
<g id="edge11" class="edge"><title>Node0&#45;&gt;Node11</title>
<path fill="none" stroke="blueviolet" stroke-dasharray="5,2" d="M135.514,-418.397C140.517,-400.392 152.909,-360.784 172,-332 184.854,-312.619 189.319,-307.39 209,-295 215.813,-290.711 223.72,-287.234 231.348,-284.485"/>
<text text-anchor="middle" x="181.5" y="-335" font-family="Helvetica,sans-Serif" font-size="10.00">erpc</text>
</g>
<!-- Node8 -->
<g id="node19" class="node"><title>Node8</title>
<g id="a_node19"><a xlink:href="group__dspi__master__transport.html" target="_top" xlink:title="MCUXpressoSDK DSPI master driver transport. ">
<polygon fill="white" stroke="black" points="228,-228.5 228,-247.5 300,-247.5 300,-228.5 228,-228.5"/>
<text text-anchor="middle" x="264" y="-235.5" font-family="Helvetica,sans-Serif" font-size="10.00">DSPI Master</text>
</a>
</g>
</g>
<!-- Node0&#45;&gt;Node8 -->
<g id="edge8" class="edge"><title>Node0&#45;&gt;Node8</title>
<path fill="none" stroke="blueviolet" stroke-dasharray="5,2" d="M134.147,-418.251C137.203,-395.201 147.076,-336.121 172,-294 183.843,-273.985 189.319,-269.39 209,-257 214.971,-253.241 221.784,-250.105 228.512,-247.537"/>
<text text-anchor="middle" x="181.5" y="-297" font-family="Helvetica,sans-Serif" font-size="10.00">erpc</text>
</g>
<!-- Node24 -->
<g id="node20" class="node"><title>Node24</title>
<g id="a_node20"><a xlink:href="group___u_s_b___c_d_c__transport.html" target="_top" xlink:title="USB CDC transport. ">
<polygon fill="white" stroke="black" points="234,-190.5 234,-209.5 294,-209.5 294,-190.5 234,-190.5"/>
<text text-anchor="middle" x="264" y="-197.5" font-family="Helvetica,sans-Serif" font-size="10.00">USB CDC</text>
</a>
</g>
</g>
<!-- Node0&#45;&gt;Node24 -->
<g id="edge24" class="edge"><title>Node0&#45;&gt;Node24</title>
<path fill="none" stroke="blueviolet" stroke-dasharray="5,2" d="M133.282,-418.325C134.463,-390.924 140.564,-311.146 172,-255 183.209,-234.981 189.5,-231.09 209,-219 216.602,-214.287 225.533,-210.539 233.919,-207.661"/>
<text text-anchor="middle" x="181.5" y="-258" font-family="Helvetica,sans-Serif" font-size="10.00">erpc</text>
</g>
<!-- Node3 -->
<g id="node21" class="node"><title>Node3</title>
<g id="a_node21"><a xlink:href="group__infra__codec.html" target="_top" xlink:title="Classes used for message serialization. ">
<polygon fill="white" stroke="black" points="229,-152.5 229,-171.5 299,-171.5 299,-152.5 229,-152.5"/>
<text text-anchor="middle" x="264" y="-159.5" font-family="Helvetica,sans-Serif" font-size="10.00">Serialization</text>
</a>
</g>
</g>
<!-- Node0&#45;&gt;Node3 -->
<g id="edge3" class="edge"><title>Node0&#45;&gt;Node3</title>
<path fill="none" stroke="blueviolet" stroke-dasharray="5,2" d="M132.765,-418.064C132.434,-386.578 134.592,-286.976 172,-217 182.817,-196.766 189.5,-193.09 209,-181 215.082,-177.229 222.014,-174.077 228.837,-171.493"/>
<text text-anchor="middle" x="181.5" y="-220" font-family="Helvetica,sans-Serif" font-size="10.00">erpc</text>
</g>
<!-- Node15 -->
<g id="node22" class="node"><title>Node15</title>
<g id="a_node22"><a xlink:href="group__rpmsg__lite__rtos__transport.html" target="_top" xlink:title="RPMsg&#45;Lite zero copy transport using RTOS API. ">
<polygon fill="white" stroke="black" points="215.5,-114.5 215.5,-133.5 312.5,-133.5 312.5,-114.5 215.5,-114.5"/>
<text text-anchor="middle" x="264" y="-121.5" font-family="Helvetica,sans-Serif" font-size="10.00">RPMsg&#45;Lite RTOS</text>
</a>
</g>
</g>
<!-- Node0&#45;&gt;Node15 -->
<g id="edge15" class="edge"><title>Node0&#45;&gt;Node15</title>
<path fill="none" stroke="blueviolet" stroke-dasharray="5,2" d="M133.701,-418.273C136.746,-377.711 149.691,-222.143 172,-179 182.539,-158.62 189.5,-155.09 209,-143 214.997,-139.282 221.821,-136.164 228.553,-133.601"/>
<text text-anchor="middle" x="181.5" y="-182" font-family="Helvetica,sans-Serif" font-size="10.00">erpc</text>
</g>
<!-- Node16 -->
<g id="node23" class="node"><title>Node16</title>
<g id="a_node23"><a xlink:href="group__rpmsg__lite__transport.html" target="_top" xlink:title="RPMsg&#45;Lite zero copy transport. ">
<polygon fill="white" stroke="black" points="230,-76.5 230,-95.5 298,-95.5 298,-76.5 230,-76.5"/>
<text text-anchor="middle" x="264" y="-83.5" font-family="Helvetica,sans-Serif" font-size="10.00">RPMsg&#45;Lite</text>
</a>
</g>
</g>
<!-- Node0&#45;&gt;Node16 -->
<g id="edge16" class="edge"><title>Node0&#45;&gt;Node16</title>
<path fill="none" stroke="blueviolet" stroke-dasharray="5,2" d="M133.472,-418.323C135.753,-374.119 146.584,-191.398 172,-141 182.331,-120.514 189.5,-117.09 209,-105 215.419,-101.02 222.787,-97.7283 229.973,-95.0674"/>
<text text-anchor="middle" x="181.5" y="-144" font-family="Helvetica,sans-Serif" font-size="10.00">erpc</text>
</g>
<!-- Node6 -->
<g id="node24" class="node"><title>Node6</title>
<g id="a_node24"><a xlink:href="group__port__setup__extensions.html" target="_top" xlink:title="Extension setup functions. ">
<polygon fill="white" stroke="black" points="219.5,-38.5 219.5,-57.5 308.5,-57.5 308.5,-38.5 219.5,-38.5"/>
<text text-anchor="middle" x="264" y="-45.5" font-family="Helvetica,sans-Serif" font-size="10.00">Extension Setup</text>
</a>
</g>
</g>
<!-- Node0&#45;&gt;Node6 -->
<g id="edge6" class="edge"><title>Node0&#45;&gt;Node6</title>
<path fill="none" stroke="blueviolet" stroke-dasharray="5,2" d="M133.279,-418.308C134.784,-370.487 142.988,-159.667 172,-102 182.173,-81.7787 189.678,-78.7925 209,-67 215.108,-63.2722 222.052,-60.1384 228.878,-57.5592"/>
<text text-anchor="middle" x="181.5" y="-105" font-family="Helvetica,sans-Serif" font-size="10.00">erpc</text>
</g>
<!-- Node13 -->
<g id="node25" class="node"><title>Node13</title>
<g id="a_node25"><a xlink:href="group__lpspi__slave__transport.html" target="_top" xlink:title="Lpspi_slave_transport">
<polygon fill="white" stroke="black" points="209,-0.5 209,-19.5 319,-19.5 319,-0.5 209,-0.5"/>
<text text-anchor="middle" x="264" y="-7.5" font-family="Helvetica,sans-Serif" font-size="10.00">Lpspi_slave_transport</text>
</a>
</g>
</g>
<!-- Node0&#45;&gt;Node13 -->
<g id="edge13" class="edge"><title>Node0&#45;&gt;Node13</title>
<path fill="none" stroke="blueviolet" stroke-dasharray="5,2" d="M133.143,-418.219C134.029,-366.932 139.837,-128.924 172,-64 183.172,-41.4476 208.448,-27.5681 229.533,-19.5377"/>
<text text-anchor="middle" x="181.5" y="-67" font-family="Helvetica,sans-Serif" font-size="10.00">erpc</text>
</g>
</g>
</svg>
