<?xml version="1.0" encoding="UTF-8" standalone="no"?>
<!DOCTYPE svg PUBLIC "-//W3C//DTD SVG 1.1//EN"
 "http://www.w3.org/Graphics/SVG/1.1/DTD/svg11.dtd">
<!-- Generated by graphviz version 2.38.0 (20140413.2041)
 -->
<!-- Title: TCP/IP Pages: 1 -->
<svg width="361pt" height="572pt"
 viewBox="0.00 0.00 361.00 571.50" xmlns="http://www.w3.org/2000/svg" xmlns:xlink="http://www.w3.org/1999/xlink">
<g id="graph0" class="graph" transform="scale(1 1) rotate(0) translate(4 567.5)">
<title>TCP/IP</title>
<polygon fill="white" stroke="none" points="-4,4 -4,-567.5 357,-567.5 357,4 -4,4"/>
<!-- Node1 -->
<g id="node1" class="node"><title>Node1</title>
<g id="a_node1"><a xlink:href="group__transports.html" target="_top" xlink:title="Transport layer classes. ">
<polygon fill="white" stroke="black" points="0,-278 0,-297 89,-297 89,-278 0,-278"/>
<text text-anchor="middle" x="44.5" y="-285" font-family="Helvetica,sans-Serif" font-size="10.00">Transport Layers</text>
</a>
</g>
</g>
<!-- Node0 -->
<g id="node4" class="node"><title>Node0</title>
<polygon fill="#bfbfbf" stroke="black" points="126,-278 126,-297 173,-297 173,-278 126,-278"/>
<text text-anchor="middle" x="149.5" y="-285" font-family="Helvetica,sans-Serif" font-size="10.00">TCP/IP</text>
</g>
<!-- Node1&#45;&gt;Node0 -->
<g id="edge1" class="edge"><title>Node1&#45;&gt;Node0</title>
<path fill="none" stroke="black" d="M99.3075,-287.5C108.657,-287.5 117.904,-287.5 125.815,-287.5"/>
<polygon fill="black" stroke="black" points="99.1813,-284 89.1813,-287.5 99.1812,-291 99.1813,-284"/>
</g>
<!-- Node9 -->
<g id="node2" class="node"><title>Node9</title>
<g id="a_node2"><a xlink:href="group__dspi__slave__transport.html" target="_top" xlink:title="Kinetis SDK DSPI slave driver transport. ">
<polygon fill="white" stroke="black" points="258,-544 258,-563 323,-563 323,-544 258,-544"/>
<text text-anchor="middle" x="290.5" y="-551" font-family="Helvetica,sans-Serif" font-size="10.00">DSPI Slave</text>
</a>
</g>
</g>
<!-- Node7 -->
<g id="node3" class="node"><title>Node7</title>
<g id="a_node3"><a xlink:href="group__port__threads.html" target="_top" xlink:title="Threading model. ">
<polygon fill="white" stroke="black" points="265,-506 265,-525 316,-525 316,-506 265,-506"/>
<text text-anchor="middle" x="290.5" y="-513" font-family="Helvetica,sans-Serif" font-size="10.00">Threads</text>
</a>
</g>
</g>
<!-- Node0&#45;&gt;Node9 -->
<g id="edge9" class="edge"><title>Node0&#45;&gt;Node9</title>
<path fill="none" stroke="blueviolet" stroke-dasharray="5,2" d="M150.25,-297.134C149.847,-328.561 151.833,-430.11 191,-500.5 201.859,-520.015 208.635,-523.376 228,-534.5 237.109,-539.732 247.82,-543.684 257.729,-546.59"/>
<text text-anchor="middle" x="200.5" y="-525.5" font-family="Helvetica,sans-Serif" font-size="10.00">erpc</text>
</g>
<!-- Node0&#45;&gt;Node7 -->
<g id="edge7" class="edge"><title>Node0&#45;&gt;Node7</title>
<path fill="none" stroke="blueviolet" stroke-dasharray="5,2" d="M150.776,-297.335C151.959,-325.181 158.19,-406.184 191,-462.5 202.242,-481.797 208.635,-485.376 228,-496.5 239.337,-503.013 253.158,-507.541 264.823,-510.538"/>
<text text-anchor="middle" x="200.5" y="-488.5" font-family="Helvetica,sans-Serif" font-size="10.00">erpc</text>
</g>
<!-- Node2 -->
<g id="node5" class="node"><title>Node2</title>
<g id="a_node5"><a xlink:href="group__infra__client.html" target="_top" xlink:title="Client classes. ">
<polygon fill="white" stroke="black" points="270,-468 270,-487 311,-487 311,-468 270,-468"/>
<text text-anchor="middle" x="290.5" y="-475" font-family="Helvetica,sans-Serif" font-size="10.00">Client</text>
</a>
</g>
</g>
<!-- Node0&#45;&gt;Node2 -->
<g id="edge2" class="edge"><title>Node0&#45;&gt;Node2</title>
<path fill="none" stroke="blueviolet" stroke-dasharray="5,2" d="M151.621,-297.096C154.687,-320.344 164.805,-380.899 191,-423.5 202.857,-442.782 208.454,-447.083 228,-458.5 240.93,-466.052 257.175,-470.904 269.72,-473.813"/>
<text text-anchor="middle" x="200.5" y="-450.5" font-family="Helvetica,sans-Serif" font-size="10.00">erpc</text>
</g>
<!-- Node12 -->
<g id="node6" class="node"><title>Node12</title>
<g id="a_node6"><a xlink:href="group__rpmsg__lite__zc__transport.html" target="_top" xlink:title="Rpmsg_lite_zc_transport">
<polygon fill="white" stroke="black" points="228,-430 228,-449 353,-449 353,-430 228,-430"/>
<text text-anchor="middle" x="290.5" y="-437" font-family="Helvetica,sans-Serif" font-size="10.00">Rpmsg_lite_zc_transport</text>
</a>
</g>
</g>
<!-- Node0&#45;&gt;Node12 -->
<g id="edge12" class="edge"><title>Node0&#45;&gt;Node12</title>
<path fill="none" stroke="blueviolet" stroke-dasharray="5,2" d="M152.932,-297.191C157.905,-315.752 170.528,-357.082 191,-386.5 203.757,-404.831 208.635,-409.376 228,-420.5 234.589,-424.285 242.017,-427.4 249.373,-429.933"/>
<text text-anchor="middle" x="200.5" y="-411.5" font-family="Helvetica,sans-Serif" font-size="10.00">erpc</text>
</g>
<!-- Node4 -->
<g id="node7" class="node"><title>Node4</title>
<g id="a_node7"><a xlink:href="group__infra__transport.html" target="_top" xlink:title="Superclasses for building transports. ">
<polygon fill="white" stroke="black" points="259.5,-392 259.5,-411 321.5,-411 321.5,-392 259.5,-392"/>
<text text-anchor="middle" x="290.5" y="-399" font-family="Helvetica,sans-Serif" font-size="10.00">Transports</text>
</a>
</g>
</g>
<!-- Node0&#45;&gt;Node4 -->
<g id="edge4" class="edge"><title>Node0&#45;&gt;Node4</title>
<path fill="none" stroke="blueviolet" stroke-dasharray="5,2" d="M155.429,-297.241C162.333,-310.365 175.761,-334.083 191,-351.5 205.127,-367.646 209.158,-372.243 228,-382.5 237.717,-387.79 249.116,-391.829 259.442,-394.795"/>
<text text-anchor="middle" x="200.5" y="-374.5" font-family="Helvetica,sans-Serif" font-size="10.00">erpc</text>
</g>
<!-- Node13 -->
<g id="node8" class="node"><title>Node13</title>
<g id="a_node8"><a xlink:href="group__serial__transport.html" target="_top" xlink:title="POSIX and Win32 serial port transport. ">
<polygon fill="white" stroke="black" points="260,-354 260,-373 321,-373 321,-354 260,-354"/>
<text text-anchor="middle" x="290.5" y="-361" font-family="Helvetica,sans-Serif" font-size="10.00">Serial port</text>
</a>
</g>
</g>
<!-- Node0&#45;&gt;Node13 -->
<g id="edge13" class="edge"><title>Node0&#45;&gt;Node13</title>
<path fill="none" stroke="blueviolet" stroke-dasharray="5,2" d="M160.321,-297.299C168.23,-304.919 179.833,-315.503 191,-323.5 206.373,-334.509 210.643,-336.999 228,-344.5 238.155,-348.889 249.654,-352.725 259.937,-355.779"/>
<text text-anchor="middle" x="200.5" y="-339.5" font-family="Helvetica,sans-Serif" font-size="10.00">erpc</text>
</g>
<!-- Node5 -->
<g id="node9" class="node"><title>Node5</title>
<g id="a_node9"><a xlink:href="group__infra__utility.html" target="_top" xlink:title="Utility code used by the infrastructure. ">
<polygon fill="white" stroke="black" points="266,-316 266,-335 315,-335 315,-316 266,-316"/>
<text text-anchor="middle" x="290.5" y="-323" font-family="Helvetica,sans-Serif" font-size="10.00">Utilities</text>
</a>
</g>
</g>
<!-- Node0&#45;&gt;Node5 -->
<g id="edge5" class="edge"><title>Node0&#45;&gt;Node5</title>
<path fill="none" stroke="blueviolet" stroke-dasharray="5,2" d="M173.036,-296.416C178.841,-298.555 185.112,-300.73 191,-302.5 216.226,-310.084 245.707,-316.677 265.797,-320.836"/>
<text text-anchor="middle" x="200.5" y="-311.5" font-family="Helvetica,sans-Serif" font-size="10.00">erpc</text>
</g>
<!-- Node15 -->
<g id="node10" class="node"><title>Node15</title>
<g id="a_node10"><a xlink:href="group__spi__slave__transport.html" target="_top" xlink:title="Kinetis SDK SPI slave driver transport. ">
<polygon fill="white" stroke="black" points="261,-278 261,-297 320,-297 320,-278 261,-278"/>
<text text-anchor="middle" x="290.5" y="-285" font-family="Helvetica,sans-Serif" font-size="10.00">SPI Slave</text>
</a>
</g>
</g>
<!-- Node0&#45;&gt;Node15 -->
<g id="edge15" class="edge"><title>Node0&#45;&gt;Node15</title>
<path fill="none" stroke="blueviolet" stroke-dasharray="5,2" d="M173.142,-287.5C197.067,-287.5 234.858,-287.5 260.843,-287.5"/>
<text text-anchor="middle" x="200.5" y="-290.5" font-family="Helvetica,sans-Serif" font-size="10.00">erpc</text>
</g>
<!-- Node16 -->
<g id="node11" class="node"><title>Node16</title>
<g id="a_node11"><a xlink:href="group__uart__transport.html" target="_top" xlink:title="CMSIS UART driver transport. ">
<polygon fill="white" stroke="black" points="252.5,-240 252.5,-259 328.5,-259 328.5,-240 252.5,-240"/>
<text text-anchor="middle" x="290.5" y="-247" font-family="Helvetica,sans-Serif" font-size="10.00">CMSIS UART</text>
</a>
</g>
</g>
<!-- Node0&#45;&gt;Node16 -->
<g id="edge16" class="edge"><title>Node0&#45;&gt;Node16</title>
<path fill="none" stroke="blueviolet" stroke-dasharray="5,2" d="M173.036,-278.584C178.841,-276.445 185.112,-274.27 191,-272.5 211.012,-266.483 233.703,-261.09 252.258,-257.042"/>
<text text-anchor="middle" x="200.5" y="-275.5" font-family="Helvetica,sans-Serif" font-size="10.00">erpc</text>
</g>
<!-- Node14 -->
<g id="node12" class="node"><title>Node14</title>
<g id="a_node12"><a xlink:href="group__spi__master__transport.html" target="_top" xlink:title="Kinetis SDK SPI master driver transport. ">
<polygon fill="white" stroke="black" points="258,-202 258,-221 323,-221 323,-202 258,-202"/>
<text text-anchor="middle" x="290.5" y="-209" font-family="Helvetica,sans-Serif" font-size="10.00">SPI Master</text>
</a>
</g>
</g>
<!-- Node0&#45;&gt;Node14 -->
<g id="edge14" class="edge"><title>Node0&#45;&gt;Node14</title>
<path fill="none" stroke="blueviolet" stroke-dasharray="5,2" d="M160.739,-277.757C168.687,-270.421 180.144,-260.325 191,-252.5 206.52,-241.313 210.516,-238.267 228,-230.5 237.396,-226.326 247.981,-222.699 257.687,-219.763"/>
<text text-anchor="middle" x="200.5" y="-255.5" font-family="Helvetica,sans-Serif" font-size="10.00">erpc</text>
</g>
<!-- Node6 -->
<g id="node13" class="node"><title>Node6</title>
<g id="a_node13"><a xlink:href="group__infra__server.html" target="_top" xlink:title="Server classes. ">
<polygon fill="white" stroke="black" points="268.5,-164 268.5,-183 312.5,-183 312.5,-164 268.5,-164"/>
<text text-anchor="middle" x="290.5" y="-171" font-family="Helvetica,sans-Serif" font-size="10.00">Server</text>
</a>
</g>
</g>
<!-- Node0&#45;&gt;Node6 -->
<g id="edge6" class="edge"><title>Node0&#45;&gt;Node6</title>
<path fill="none" stroke="blueviolet" stroke-dasharray="5,2" d="M155.109,-277.928C165.204,-258.131 191.33,-212.836 228,-192.5 240.607,-185.509 256.125,-180.739 268.418,-177.727"/>
<text text-anchor="middle" x="200.5" y="-225.5" font-family="Helvetica,sans-Serif" font-size="10.00">erpc</text>
</g>
<!-- Node10 -->
<g id="node14" class="node"><title>Node10</title>
<g id="a_node14"><a xlink:href="group__itbp__transport.html" target="_top" xlink:title="Simple inter&#45;thread communications transport. ">
<polygon fill="white" stroke="black" points="258,-126 258,-145 323,-145 323,-126 258,-126"/>
<text text-anchor="middle" x="290.5" y="-133" font-family="Helvetica,sans-Serif" font-size="10.00">Inter&#45;thread</text>
</a>
</g>
</g>
<!-- Node0&#45;&gt;Node10 -->
<g id="edge10" class="edge"><title>Node0&#45;&gt;Node10</title>
<path fill="none" stroke="blueviolet" stroke-dasharray="5,2" d="M152.724,-277.887C159.192,-252.392 180.624,-183.061 228,-154.5 237.092,-149.019 247.905,-144.989 257.91,-142.089"/>
<text text-anchor="middle" x="200.5" y="-191.5" font-family="Helvetica,sans-Serif" font-size="10.00">erpc</text>
</g>
<!-- Node8 -->
<g id="node15" class="node"><title>Node8</title>
<g id="a_node15"><a xlink:href="group__dspi__master__transport.html" target="_top" xlink:title="Kinetis SDK DSPI master driver transport. ">
<polygon fill="white" stroke="black" points="254.5,-88 254.5,-107 326.5,-107 326.5,-88 254.5,-88"/>
<text text-anchor="middle" x="290.5" y="-95" font-family="Helvetica,sans-Serif" font-size="10.00">DSPI Master</text>
</a>
</g>
</g>
<!-- Node0&#45;&gt;Node8 -->
<g id="edge8" class="edge"><title>Node0&#45;&gt;Node8</title>
<path fill="none" stroke="blueviolet" stroke-dasharray="5,2" d="M151.887,-277.94C155.485,-255.328 166.588,-197.318 191,-155.5 203.045,-134.866 207.702,-129.104 228,-116.5 235.975,-111.548 245.337,-107.8 254.319,-105"/>
<text text-anchor="middle" x="200.5" y="-158.5" font-family="Helvetica,sans-Serif" font-size="10.00">erpc</text>
</g>
<!-- Node3 -->
<g id="node16" class="node"><title>Node3</title>
<g id="a_node16"><a xlink:href="group__infra__codec.html" target="_top" xlink:title="Classes used for message serialization. ">
<polygon fill="white" stroke="black" points="255.5,-50 255.5,-69 325.5,-69 325.5,-50 255.5,-50"/>
<text text-anchor="middle" x="290.5" y="-57" font-family="Helvetica,sans-Serif" font-size="10.00">Serialization</text>
</a>
</g>
</g>
<!-- Node0&#45;&gt;Node3 -->
<g id="edge3" class="edge"><title>Node0&#45;&gt;Node3</title>
<path fill="none" stroke="blueviolet" stroke-dasharray="5,2" d="M150.939,-277.9C152.547,-250.707 159.794,-171.51 191,-115.5 202.319,-95.1845 208.083,-90.5069 228,-78.5 236.326,-73.4804 246.096,-69.6782 255.367,-66.8457"/>
<text text-anchor="middle" x="200.5" y="-118.5" font-family="Helvetica,sans-Serif" font-size="10.00">erpc</text>
</g>
<!-- Node11 -->
<g id="node17" class="node"><title>Node11</title>
<g id="a_node17"><a xlink:href="group__rpmsg__lite__zc__rtos__transport.html" target="_top" xlink:title="Rpmsg_lite_zc_rtos\l_transport">
<polygon fill="white" stroke="black" points="239,-0.5 239,-30.5 342,-30.5 342,-0.5 239,-0.5"/>
<text text-anchor="start" x="247" y="-18.5" font-family="Helvetica,sans-Serif" font-size="10.00">Rpmsg_lite_zc_rtos</text>
<text text-anchor="middle" x="290.5" y="-7.5" font-family="Helvetica,sans-Serif" font-size="10.00">_transport</text>
</a>
</g>
</g>
<!-- Node0&#45;&gt;Node11 -->
<g id="edge11" class="edge"><title>Node0&#45;&gt;Node11</title>
<path fill="none" stroke="blueviolet" stroke-dasharray="5,2" d="M150.354,-277.999C150.272,-247.001 153.126,-146.766 191,-76.5 202.596,-54.9871 225.372,-40.1542 246.104,-30.5063"/>
<text text-anchor="middle" x="200.5" y="-79.5" font-family="Helvetica,sans-Serif" font-size="10.00">erpc</text>
</g>
</g>
</svg>
