<?xml version="1.0" encoding="UTF-8" standalone="no"?>
<!DOCTYPE svg PUBLIC "-//W3C//DTD SVG 1.1//EN"
 "http://www.w3.org/Graphics/SVG/1.1/DTD/svg11.dtd">
<!-- Generated by graphviz version 2.38.0 (20140413.2041)
 -->
<!-- Title: USB CDC Pages: 1 -->
<svg width="359pt" height="864pt"
 viewBox="0.00 0.00 359.00 864.00" xmlns="http://www.w3.org/2000/svg" xmlns:xlink="http://www.w3.org/1999/xlink">
<g id="graph0" class="graph" transform="scale(1 1) rotate(0) translate(4 860)">
<title>USB CDC</title>
<polygon fill="white" stroke="none" points="-4,4 -4,-860 355,-860 355,4 -4,4"/>
<!-- Node1 -->
<g id="node1" class="node"><title>Node1</title>
<g id="a_node1"><a xlink:href="group__transports.html" target="_top" xlink:title="Transport layer classes. ">
<polygon fill="white" stroke="black" points="0,-418.5 0,-437.5 89,-437.5 89,-418.5 0,-418.5"/>
<text text-anchor="middle" x="44.5" y="-425.5" font-family="Helvetica,sans-Serif" font-size="10.00">Transport Layers</text>
</a>
</g>
</g>
<!-- Node0 -->
<g id="node20" class="node"><title>Node0</title>
<polygon fill="#bfbfbf" stroke="black" points="126,-418.5 126,-437.5 186,-437.5 186,-418.5 126,-418.5"/>
<text text-anchor="middle" x="156" y="-425.5" font-family="Helvetica,sans-Serif" font-size="10.00">USB CDC</text>
</g>
<!-- Node1&#45;&gt;Node0 -->
<g id="edge1" class="edge"><title>Node1&#45;&gt;Node0</title>
<path fill="none" stroke="black" d="M99.2923,-428C108.388,-428 117.518,-428 125.68,-428"/>
<polygon fill="black" stroke="black" points="99.092,-424.5 89.0919,-428 99.0919,-431.5 99.092,-424.5"/>
</g>
<!-- Node10 -->
<g id="node2" class="node"><title>Node10</title>
<g id="a_node2"><a xlink:href="group__dspi__slave__transport.html" target="_top" xlink:title="MCUXpressoSDK DSPI slave driver transport. ">
<polygon fill="white" stroke="black" points="263.5,-836.5 263.5,-855.5 328.5,-855.5 328.5,-836.5 263.5,-836.5"/>
<text text-anchor="middle" x="296" y="-843.5" font-family="Helvetica,sans-Serif" font-size="10.00">DSPI Slave</text>
</a>
</g>
</g>
<!-- Node11 -->
<g id="node3" class="node"><title>Node11</title>
<g id="a_node3"><a xlink:href="group__i2c__slave__transport.html" target="_top" xlink:title="MCUXpressoSDK I2C slave driver transport. ">
<polygon fill="white" stroke="black" points="267.5,-798.5 267.5,-817.5 324.5,-817.5 324.5,-798.5 267.5,-798.5"/>
<text text-anchor="middle" x="296" y="-805.5" font-family="Helvetica,sans-Serif" font-size="10.00">I2C Slave</text>
</a>
</g>
</g>
<!-- Node8 -->
<g id="node4" class="node"><title>Node8</title>
<g id="a_node4"><a xlink:href="group__port__threads.html" target="_top" xlink:title="Threading model. ">
<polygon fill="white" stroke="black" points="270.5,-760.5 270.5,-779.5 321.5,-779.5 321.5,-760.5 270.5,-760.5"/>
<text text-anchor="middle" x="296" y="-767.5" font-family="Helvetica,sans-Serif" font-size="10.00">Threads</text>
</a>
</g>
</g>
<!-- Node15 -->
<g id="node5" class="node"><title>Node15</title>
<g id="a_node5"><a xlink:href="group__mu__transport.html" target="_top" xlink:title="Messaging Unit transport. ">
<polygon fill="white" stroke="black" points="254,-722.5 254,-741.5 338,-741.5 338,-722.5 254,-722.5"/>
<text text-anchor="middle" x="296" y="-729.5" font-family="Helvetica,sans-Serif" font-size="10.00">Messaging Unit</text>
</a>
</g>
</g>
<!-- Node23 -->
<g id="node6" class="node"><title>Node23</title>
<g id="a_node6"><a xlink:href="group__tcp__transport.html" target="_top" xlink:title="Simple TCP/IP transport. ">
<polygon fill="white" stroke="black" points="272.5,-684.5 272.5,-703.5 319.5,-703.5 319.5,-684.5 272.5,-684.5"/>
<text text-anchor="middle" x="296" y="-691.5" font-family="Helvetica,sans-Serif" font-size="10.00">TCP/IP</text>
</a>
</g>
</g>
<!-- Node2 -->
<g id="node7" class="node"><title>Node2</title>
<g id="a_node7"><a xlink:href="group__infra__client.html" target="_top" xlink:title="Client classes. ">
<polygon fill="white" stroke="black" points="275.5,-646.5 275.5,-665.5 316.5,-665.5 316.5,-646.5 275.5,-646.5"/>
<text text-anchor="middle" x="296" y="-653.5" font-family="Helvetica,sans-Serif" font-size="10.00">Client</text>
</a>
</g>
</g>
<!-- Node4 -->
<g id="node8" class="node"><title>Node4</title>
<g id="a_node8"><a xlink:href="group__infra__transport.html" target="_top" xlink:title="Superclasses for building transports. ">
<polygon fill="white" stroke="black" points="265,-608.5 265,-627.5 327,-627.5 327,-608.5 265,-608.5"/>
<text text-anchor="middle" x="296" y="-615.5" font-family="Helvetica,sans-Serif" font-size="10.00">Transports</text>
</a>
</g>
</g>
<!-- Node19 -->
<g id="node9" class="node"><title>Node19</title>
<g id="a_node9"><a xlink:href="group__serial__transport.html" target="_top" xlink:title="POSIX and Win32 serial port transport. ">
<polygon fill="white" stroke="black" points="265.5,-570.5 265.5,-589.5 326.5,-589.5 326.5,-570.5 265.5,-570.5"/>
<text text-anchor="middle" x="296" y="-577.5" font-family="Helvetica,sans-Serif" font-size="10.00">Serial port</text>
</a>
</g>
</g>
<!-- Node5 -->
<g id="node10" class="node"><title>Node5</title>
<g id="a_node10"><a xlink:href="group__infra__utility.html" target="_top" xlink:title="Utility code used by the infrastructure. ">
<polygon fill="white" stroke="black" points="271.5,-532.5 271.5,-551.5 320.5,-551.5 320.5,-532.5 271.5,-532.5"/>
<text text-anchor="middle" x="296" y="-539.5" font-family="Helvetica,sans-Serif" font-size="10.00">Utilities</text>
</a>
</g>
</g>
<!-- Node21 -->
<g id="node11" class="node"><title>Node21</title>
<g id="a_node11"><a xlink:href="group__spi__slave__transport.html" target="_top" xlink:title="MCUXpressoSDK SPI slave driver transport. ">
<polygon fill="white" stroke="black" points="266.5,-494.5 266.5,-513.5 325.5,-513.5 325.5,-494.5 266.5,-494.5"/>
<text text-anchor="middle" x="296" y="-501.5" font-family="Helvetica,sans-Serif" font-size="10.00">SPI Slave</text>
</a>
</g>
</g>
<!-- Node24 -->
<g id="node12" class="node"><title>Node24</title>
<g id="a_node12"><a xlink:href="group__uart__transport.html" target="_top" xlink:title="CMSIS UART driver transport. ">
<polygon fill="white" stroke="black" points="258,-456.5 258,-475.5 334,-475.5 334,-456.5 258,-456.5"/>
<text text-anchor="middle" x="296" y="-463.5" font-family="Helvetica,sans-Serif" font-size="10.00">CMSIS UART</text>
</a>
</g>
</g>
<!-- Node22 -->
<g id="node13" class="node"><title>Node22</title>
<g id="a_node13"><a xlink:href="group__spidev__master__transport.html" target="_top" xlink:title="SPIdev Linux transport. ">
<polygon fill="white" stroke="black" points="243,-418.5 243,-437.5 349,-437.5 349,-418.5 243,-418.5"/>
<text text-anchor="middle" x="296" y="-425.5" font-family="Helvetica,sans-Serif" font-size="10.00">SPIdev Linux Master</text>
</a>
</g>
</g>
<!-- Node20 -->
<g id="node14" class="node"><title>Node20</title>
<g id="a_node14"><a xlink:href="group__spi__master__transport.html" target="_top" xlink:title="MCUXpressoSDK SPI master driver transport. ">
<polygon fill="white" stroke="black" points="263.5,-380.5 263.5,-399.5 328.5,-399.5 328.5,-380.5 263.5,-380.5"/>
<text text-anchor="middle" x="296" y="-387.5" font-family="Helvetica,sans-Serif" font-size="10.00">SPI Master</text>
</a>
</g>
</g>
<!-- Node18 -->
<g id="node15" class="node"><title>Node18</title>
<g id="a_node15"><a xlink:href="group__rpmsg__tty__rtos__transport.html" target="_top" xlink:title="RPMsg TTY RTOS transport. ">
<polygon fill="white" stroke="black" points="247,-342.5 247,-361.5 345,-361.5 345,-342.5 247,-342.5"/>
<text text-anchor="middle" x="296" y="-349.5" font-family="Helvetica,sans-Serif" font-size="10.00">RPMsg TTY RTOS</text>
</a>
</g>
</g>
<!-- Node6 -->
<g id="node16" class="node"><title>Node6</title>
<g id="a_node16"><a xlink:href="group__infra__server.html" target="_top" xlink:title="Server classes. ">
<polygon fill="white" stroke="black" points="274,-304.5 274,-323.5 318,-323.5 318,-304.5 274,-304.5"/>
<text text-anchor="middle" x="296" y="-311.5" font-family="Helvetica,sans-Serif" font-size="10.00">Server</text>
</a>
</g>
</g>
<!-- Node13 -->
<g id="node17" class="node"><title>Node13</title>
<g id="a_node17"><a xlink:href="group__lpi2c__slave__transport.html" target="_top" xlink:title="Lpi2c_slave_transport">
<polygon fill="white" stroke="black" points="241,-266.5 241,-285.5 351,-285.5 351,-266.5 241,-266.5"/>
<text text-anchor="middle" x="296" y="-273.5" font-family="Helvetica,sans-Serif" font-size="10.00">Lpi2c_slave_transport</text>
</a>
</g>
</g>
<!-- Node12 -->
<g id="node18" class="node"><title>Node12</title>
<g id="a_node18"><a xlink:href="group__itbp__transport.html" target="_top" xlink:title="Simple inter&#45;thread communications transport. ">
<polygon fill="white" stroke="black" points="263.5,-228.5 263.5,-247.5 328.5,-247.5 328.5,-228.5 263.5,-228.5"/>
<text text-anchor="middle" x="296" y="-235.5" font-family="Helvetica,sans-Serif" font-size="10.00">Inter&#45;thread</text>
</a>
</g>
</g>
<!-- Node9 -->
<g id="node19" class="node"><title>Node9</title>
<g id="a_node19"><a xlink:href="group__dspi__master__transport.html" target="_top" xlink:title="MCUXpressoSDK DSPI master driver transport. ">
<polygon fill="white" stroke="black" points="260,-190.5 260,-209.5 332,-209.5 332,-190.5 260,-190.5"/>
<text text-anchor="middle" x="296" y="-197.5" font-family="Helvetica,sans-Serif" font-size="10.00">DSPI Master</text>
</a>
</g>
</g>
<!-- Node0&#45;&gt;Node10 -->
<g id="edge10" class="edge"><title>Node0&#45;&gt;Node10</title>
<path fill="none" stroke="blueviolet" stroke-dasharray="5,2" d="M157.4,-437.753C159.628,-488.892 171.584,-726.214 204,-791 214.267,-811.519 221.5,-814.91 241,-827 247.842,-831.242 255.76,-834.702 263.389,-837.45"/>
<text text-anchor="middle" x="213.5" y="-818" font-family="Helvetica,sans-Serif" font-size="10.00">erpc</text>
</g>
<!-- Node0&#45;&gt;Node11 -->
<g id="edge11" class="edge"><title>Node0&#45;&gt;Node11</title>
<path fill="none" stroke="blueviolet" stroke-dasharray="5,2" d="M157.561,-437.661C160.451,-485.329 174.682,-695.476 204,-753 214.419,-773.442 221.5,-776.91 241,-789 249.024,-793.975 258.529,-797.874 267.311,-800.811"/>
<text text-anchor="middle" x="213.5" y="-779" font-family="Helvetica,sans-Serif" font-size="10.00">erpc</text>
</g>
<!-- Node0&#45;&gt;Node8 -->
<g id="edge8" class="edge"><title>Node0&#45;&gt;Node8</title>
<path fill="none" stroke="blueviolet" stroke-dasharray="5,2" d="M157.769,-437.684C161.405,-481.917 177.793,-664.748 204,-715 214.609,-735.344 221.5,-738.91 241,-751 249.953,-756.551 260.75,-760.763 270.329,-763.793"/>
<text text-anchor="middle" x="213.5" y="-741" font-family="Helvetica,sans-Serif" font-size="10.00">erpc</text>
</g>
<!-- Node0&#45;&gt;Node15 -->
<g id="edge15" class="edge"><title>Node0&#45;&gt;Node15</title>
<path fill="none" stroke="blueviolet" stroke-dasharray="5,2" d="M156.795,-437.72C156.468,-472.463 158.834,-592.897 204,-677 214.855,-697.213 221.5,-700.91 241,-713 246.997,-716.718 253.821,-719.836 260.553,-722.399"/>
<text text-anchor="middle" x="213.5" y="-703" font-family="Helvetica,sans-Serif" font-size="10.00">erpc</text>
</g>
<!-- Node0&#45;&gt;Node23 -->
<g id="edge23" class="edge"><title>Node0&#45;&gt;Node23</title>
<path fill="none" stroke="blueviolet" stroke-dasharray="5,2" d="M157.219,-437.512C158.312,-468.544 164.853,-568.873 204,-639 215.183,-659.034 221.5,-662.91 241,-675 250.629,-680.97 262.391,-685.391 272.476,-688.458"/>
<text text-anchor="middle" x="213.5" y="-665" font-family="Helvetica,sans-Serif" font-size="10.00">erpc</text>
</g>
<!-- Node0&#45;&gt;Node2 -->
<g id="edge2" class="edge"><title>Node0&#45;&gt;Node2</title>
<path fill="none" stroke="blueviolet" stroke-dasharray="5,2" d="M157.886,-437.606C160.745,-464.815 171.513,-544.05 204,-600 215.678,-620.111 221.319,-624.61 241,-637 251.513,-643.618 264.634,-648.304 275.31,-651.365"/>
<text text-anchor="middle" x="213.5" y="-627" font-family="Helvetica,sans-Serif" font-size="10.00">erpc</text>
</g>
<!-- Node0&#45;&gt;Node4 -->
<g id="edge4" class="edge"><title>Node0&#45;&gt;Node4</title>
<path fill="none" stroke="blueviolet" stroke-dasharray="5,2" d="M158.96,-437.552C163.891,-460.147 178.292,-518.123 204,-560 216.5,-580.362 220.95,-586.006 241,-599 248.256,-603.702 256.817,-607.403 264.958,-610.24"/>
<text text-anchor="middle" x="213.5" y="-588" font-family="Helvetica,sans-Serif" font-size="10.00">erpc</text>
</g>
<!-- Node0&#45;&gt;Node19 -->
<g id="edge19" class="edge"><title>Node0&#45;&gt;Node19</title>
<path fill="none" stroke="blueviolet" stroke-dasharray="5,2" d="M159.936,-437.772C168.089,-463.048 193.591,-530.711 241,-561 248.37,-565.709 257.054,-569.425 265.278,-572.275"/>
<text text-anchor="middle" x="213.5" y="-548" font-family="Helvetica,sans-Serif" font-size="10.00">erpc</text>
</g>
<!-- Node0&#45;&gt;Node5 -->
<g id="edge5" class="edge"><title>Node0&#45;&gt;Node5</title>
<path fill="none" stroke="blueviolet" stroke-dasharray="5,2" d="M162.583,-437.549C174.42,-456.9 204.006,-500.787 241,-523 250.372,-528.628 261.661,-532.927 271.488,-536.001"/>
<text text-anchor="middle" x="213.5" y="-511" font-family="Helvetica,sans-Serif" font-size="10.00">erpc</text>
</g>
<!-- Node0&#45;&gt;Node21 -->
<g id="edge21" class="edge"><title>Node0&#45;&gt;Node21</title>
<path fill="none" stroke="blueviolet" stroke-dasharray="5,2" d="M168.555,-437.502C184.149,-449.923 213.192,-471.661 241,-485 248.975,-488.825 257.932,-492.287 266.224,-495.176"/>
<text text-anchor="middle" x="213.5" y="-477" font-family="Helvetica,sans-Serif" font-size="10.00">erpc</text>
</g>
<!-- Node0&#45;&gt;Node24 -->
<g id="edge24" class="edge"><title>Node0&#45;&gt;Node24</title>
<path fill="none" stroke="blueviolet" stroke-dasharray="5,2" d="M185.999,-437.562C191.933,-439.432 198.153,-441.33 204,-443 221.549,-448.013 241.16,-453.042 257.671,-457.113"/>
<text text-anchor="middle" x="213.5" y="-450" font-family="Helvetica,sans-Serif" font-size="10.00">erpc</text>
</g>
<!-- Node0&#45;&gt;Node22 -->
<g id="edge22" class="edge"><title>Node0&#45;&gt;Node22</title>
<path fill="none" stroke="blueviolet" stroke-dasharray="5,2" d="M186.266,-428C202.723,-428 223.754,-428 242.926,-428"/>
<text text-anchor="middle" x="213.5" y="-431" font-family="Helvetica,sans-Serif" font-size="10.00">erpc</text>
</g>
<!-- Node0&#45;&gt;Node20 -->
<g id="edge20" class="edge"><title>Node0&#45;&gt;Node20</title>
<path fill="none" stroke="blueviolet" stroke-dasharray="5,2" d="M185.999,-418.438C191.933,-416.568 198.153,-414.67 204,-413 223.586,-407.405 245.741,-401.79 263.287,-397.509"/>
<text text-anchor="middle" x="213.5" y="-416" font-family="Helvetica,sans-Serif" font-size="10.00">erpc</text>
</g>
<!-- Node0&#45;&gt;Node18 -->
<g id="edge18" class="edge"><title>Node0&#45;&gt;Node18</title>
<path fill="none" stroke="blueviolet" stroke-dasharray="5,2" d="M168.516,-418.415C184.067,-405.903 213.062,-384.064 241,-371 248.472,-367.506 256.776,-364.28 264.586,-361.517"/>
<text text-anchor="middle" x="213.5" y="-394" font-family="Helvetica,sans-Serif" font-size="10.00">erpc</text>
</g>
<!-- Node0&#45;&gt;Node6 -->
<g id="edge6" class="edge"><title>Node0&#45;&gt;Node6</title>
<path fill="none" stroke="blueviolet" stroke-dasharray="5,2" d="M162.556,-418.406C174.343,-398.971 203.842,-354.938 241,-333 251.184,-326.987 263.569,-322.459 273.907,-319.334"/>
<text text-anchor="middle" x="213.5" y="-364" font-family="Helvetica,sans-Serif" font-size="10.00">erpc</text>
</g>
<!-- Node0&#45;&gt;Node13 -->
<g id="edge13" class="edge"><title>Node0&#45;&gt;Node13</title>
<path fill="none" stroke="blueviolet" stroke-dasharray="5,2" d="M159.889,-418.154C167.931,-392.701 193.186,-324.646 241,-295 246.997,-291.282 253.821,-288.164 260.553,-285.601"/>
<text text-anchor="middle" x="213.5" y="-332" font-family="Helvetica,sans-Serif" font-size="10.00">erpc</text>
</g>
<!-- Node0&#45;&gt;Node12 -->
<g id="edge12" class="edge"><title>Node0&#45;&gt;Node12</title>
<path fill="none" stroke="blueviolet" stroke-dasharray="5,2" d="M158.907,-418.352C163.724,-395.536 177.896,-337.021 204,-295 216.439,-274.977 221.136,-269.691 241,-257 247.784,-252.666 255.681,-249.172 263.307,-246.421"/>
<text text-anchor="middle" x="213.5" y="-298" font-family="Helvetica,sans-Serif" font-size="10.00">erpc</text>
</g>
<!-- Node0&#45;&gt;Node9 -->
<g id="edge9" class="edge"><title>Node0&#45;&gt;Node9</title>
<path fill="none" stroke="blueviolet" stroke-dasharray="5,2" d="M157.833,-418.315C160.554,-390.889 170.994,-311.052 204,-255 215.642,-235.229 221.5,-231.09 241,-219 246.997,-215.282 253.821,-212.164 260.553,-209.601"/>
<text text-anchor="middle" x="213.5" y="-258" font-family="Helvetica,sans-Serif" font-size="10.00">erpc</text>
</g>
<!-- Node3 -->
<g id="node21" class="node"><title>Node3</title>
<g id="a_node21"><a xlink:href="group__infra__codec.html" target="_top" xlink:title="Classes used for message serialization. ">
<polygon fill="white" stroke="black" points="261,-152.5 261,-171.5 331,-171.5 331,-152.5 261,-152.5"/>
<text text-anchor="middle" x="296" y="-159.5" font-family="Helvetica,sans-Serif" font-size="10.00">Serialization</text>
</a>
</g>
</g>
<!-- Node0&#45;&gt;Node3 -->
<g id="edge3" class="edge"><title>Node0&#45;&gt;Node3</title>
<path fill="none" stroke="blueviolet" stroke-dasharray="5,2" d="M157.168,-418.421C158.103,-387.173 164.217,-286.185 204,-216 215.162,-196.307 221.678,-192.793 241,-181 247.108,-177.272 254.052,-174.138 260.878,-171.559"/>
<text text-anchor="middle" x="213.5" y="-219" font-family="Helvetica,sans-Serif" font-size="10.00">erpc</text>
</g>
<!-- Node16 -->
<g id="node22" class="node"><title>Node16</title>
<g id="a_node22"><a xlink:href="group__rpmsg__lite__rtos__transport.html" target="_top" xlink:title="RPMsg&#45;Lite zero copy transport using RTOS API. ">
<polygon fill="white" stroke="black" points="247.5,-114.5 247.5,-133.5 344.5,-133.5 344.5,-114.5 247.5,-114.5"/>
<text text-anchor="middle" x="296" y="-121.5" font-family="Helvetica,sans-Serif" font-size="10.00">RPMsg&#45;Lite RTOS</text>
</a>
</g>
</g>
<!-- Node0&#45;&gt;Node16 -->
<g id="edge16" class="edge"><title>Node0&#45;&gt;Node16</title>
<path fill="none" stroke="blueviolet" stroke-dasharray="5,2" d="M156.691,-418.157C156.013,-382.983 157.341,-261.132 204,-177 214.832,-157.469 221.853,-154.497 241,-143 247.22,-139.265 254.283,-136.116 261.204,-133.521"/>
<text text-anchor="middle" x="213.5" y="-180" font-family="Helvetica,sans-Serif" font-size="10.00">erpc</text>
</g>
<!-- Node17 -->
<g id="node23" class="node"><title>Node17</title>
<g id="a_node23"><a xlink:href="group__rpmsg__lite__transport.html" target="_top" xlink:title="RPMsg&#45;Lite zero copy transport. ">
<polygon fill="white" stroke="black" points="262,-76.5 262,-95.5 330,-95.5 330,-76.5 262,-76.5"/>
<text text-anchor="middle" x="296" y="-83.5" font-family="Helvetica,sans-Serif" font-size="10.00">RPMsg&#45;Lite</text>
</a>
</g>
</g>
<!-- Node0&#45;&gt;Node17 -->
<g id="edge17" class="edge"><title>Node0&#45;&gt;Node17</title>
<path fill="none" stroke="blueviolet" stroke-dasharray="5,2" d="M157.73,-418.231C161.192,-373.615 176.924,-189.226 204,-139 215.886,-116.952 241.112,-103.324 261.996,-95.4174"/>
<text text-anchor="middle" x="213.5" y="-142" font-family="Helvetica,sans-Serif" font-size="10.00">erpc</text>
</g>
<!-- Node7 -->
<g id="node24" class="node"><title>Node7</title>
<g id="a_node24"><a xlink:href="group__port__setup__extensions.html" target="_top" xlink:title="Extension setup functions. ">
<polygon fill="white" stroke="black" points="251.5,-38.5 251.5,-57.5 340.5,-57.5 340.5,-38.5 251.5,-38.5"/>
<text text-anchor="middle" x="296" y="-45.5" font-family="Helvetica,sans-Serif" font-size="10.00">Extension Setup</text>
</a>
</g>
</g>
<!-- Node0&#45;&gt;Node7 -->
<g id="edge7" class="edge"><title>Node0&#45;&gt;Node7</title>
<path fill="none" stroke="blueviolet" stroke-dasharray="5,2" d="M157.541,-418.301C160.34,-370.447 174.2,-159.495 204,-102 214.416,-81.9028 221.678,-78.7925 241,-67 247.108,-63.2722 254.052,-60.1384 260.878,-57.5592"/>
<text text-anchor="middle" x="213.5" y="-105" font-family="Helvetica,sans-Serif" font-size="10.00">erpc</text>
</g>
<!-- Node14 -->
<g id="node25" class="node"><title>Node14</title>
<g id="a_node25"><a xlink:href="group__lpspi__slave__transport.html" target="_top" xlink:title="Lpspi_slave_transport">
<polygon fill="white" stroke="black" points="241,-0.5 241,-19.5 351,-19.5 351,-0.5 241,-0.5"/>
<text text-anchor="middle" x="296" y="-7.5" font-family="Helvetica,sans-Serif" font-size="10.00">Lpspi_slave_transport</text>
</a>
</g>
</g>
<!-- Node0&#45;&gt;Node14 -->
<g id="edge14" class="edge"><title>Node0&#45;&gt;Node14</title>
<path fill="none" stroke="blueviolet" stroke-dasharray="5,2" d="M157.362,-418.177C159.392,-366.671 170.505,-127.678 204,-63 215.35,-41.0828 240.036,-27.5426 260.836,-19.6392"/>
<text text-anchor="middle" x="213.5" y="-66" font-family="Helvetica,sans-Serif" font-size="10.00">erpc</text>
</g>
</g>
</svg>
