<?xml version="1.0" encoding="UTF-8" standalone="no"?>
<!DOCTYPE svg PUBLIC "-//W3C//DTD SVG 1.1//EN"
 "http://www.w3.org/Graphics/SVG/1.1/DTD/svg11.dtd">
<!-- Generated by graphviz version 2.38.0 (20140413.2041)
 -->
<!-- Title: Rpmsg_lite_zc_transport Pages: 1 -->
<svg width="291pt" height="572pt"
 viewBox="0.00 0.00 291.00 571.50" xmlns="http://www.w3.org/2000/svg" xmlns:xlink="http://www.w3.org/1999/xlink">
<g id="graph0" class="graph" transform="scale(1 1) rotate(0) translate(4 567.5)">
<title>Rpmsg_lite_zc_transport</title>
<polygon fill="white" stroke="none" points="-4,4 -4,-567.5 287,-567.5 287,4 -4,4"/>
<!-- Node8 -->
<g id="node1" class="node"><title>Node8</title>
<g id="a_node1"><a xlink:href="group__dspi__slave__transport.html" target="_top" xlink:title="Kinetis SDK DSPI slave driver transport. ">
<polygon fill="white" stroke="black" points="199,-544 199,-563 264,-563 264,-544 199,-544"/>
<text text-anchor="middle" x="231.5" y="-551" font-family="Helvetica,sans-Serif" font-size="10.00">DSPI Slave</text>
</a>
</g>
</g>
<!-- Node6 -->
<g id="node2" class="node"><title>Node6</title>
<g id="a_node2"><a xlink:href="group__port__threads.html" target="_top" xlink:title="Threading model. ">
<polygon fill="white" stroke="black" points="206,-506 206,-525 257,-525 257,-506 206,-506"/>
<text text-anchor="middle" x="231.5" y="-513" font-family="Helvetica,sans-Serif" font-size="10.00">Threads</text>
</a>
</g>
</g>
<!-- Node14 -->
<g id="node3" class="node"><title>Node14</title>
<g id="a_node3"><a xlink:href="group__tcp__transport.html" target="_top" xlink:title="Simple TCP/IP transport. ">
<polygon fill="white" stroke="black" points="208,-468 208,-487 255,-487 255,-468 208,-468"/>
<text text-anchor="middle" x="231.5" y="-475" font-family="Helvetica,sans-Serif" font-size="10.00">TCP/IP</text>
</a>
</g>
</g>
<!-- Node1 -->
<g id="node4" class="node"><title>Node1</title>
<g id="a_node4"><a xlink:href="group__infra__client.html" target="_top" xlink:title="Client classes. ">
<polygon fill="white" stroke="black" points="211,-430 211,-449 252,-449 252,-430 211,-430"/>
<text text-anchor="middle" x="231.5" y="-437" font-family="Helvetica,sans-Serif" font-size="10.00">Client</text>
</a>
</g>
</g>
<!-- Node0 -->
<g id="node5" class="node"><title>Node0</title>
<polygon fill="#bfbfbf" stroke="black" points="0,-278 0,-297 125,-297 125,-278 0,-278"/>
<text text-anchor="middle" x="62.5" y="-285" font-family="Helvetica,sans-Serif" font-size="10.00">Rpmsg_lite_zc_transport</text>
</g>
<!-- Node0&#45;&gt;Node8 -->
<g id="edge8" class="edge"><title>Node0&#45;&gt;Node8</title>
<path fill="none" stroke="blueviolet" stroke-dasharray="5,2" d="M65.6613,-297.381C72.8257,-328.693 97.9371,-427.757 143,-497.5 155.621,-517.033 160.454,-521.899 180,-534.5 185.747,-538.205 192.323,-541.342 198.788,-543.934"/>
<text text-anchor="middle" x="152.5" y="-523.5" font-family="Helvetica,sans-Serif" font-size="10.00">erpc</text>
</g>
<!-- Node0&#45;&gt;Node6 -->
<g id="edge6" class="edge"><title>Node0&#45;&gt;Node6</title>
<path fill="none" stroke="blueviolet" stroke-dasharray="5,2" d="M66.8111,-297.282C76.2044,-324.274 104.832,-401.501 143,-457.5 156.457,-477.243 160.091,-483.291 180,-496.5 187.806,-501.679 197.219,-505.711 205.793,-508.702"/>
<text text-anchor="middle" x="152.5" y="-485.5" font-family="Helvetica,sans-Serif" font-size="10.00">erpc</text>
</g>
<!-- Node0&#45;&gt;Node14 -->
<g id="edge14" class="edge"><title>Node0&#45;&gt;Node14</title>
<path fill="none" stroke="blueviolet" stroke-dasharray="5,2" d="M66.9441,-297.3C78.0062,-327.196 115.711,-417.675 180,-458.5 188.54,-463.923 198.863,-468.152 207.943,-471.229"/>
<text text-anchor="middle" x="152.5" y="-445.5" font-family="Helvetica,sans-Serif" font-size="10.00">erpc</text>
</g>
<!-- Node0&#45;&gt;Node1 -->
<g id="edge1" class="edge"><title>Node0&#45;&gt;Node1</title>
<path fill="none" stroke="blueviolet" stroke-dasharray="5,2" d="M69.2039,-297.216C84.1289,-321.773 126.879,-386.767 180,-420.5 189.489,-426.526 201.178,-431.077 210.92,-434.213"/>
<text text-anchor="middle" x="152.5" y="-410.5" font-family="Helvetica,sans-Serif" font-size="10.00">erpc</text>
</g>
<!-- Node3 -->
<g id="node6" class="node"><title>Node3</title>
<g id="a_node6"><a xlink:href="group__infra__transport.html" target="_top" xlink:title="Superclasses for building transports. ">
<polygon fill="white" stroke="black" points="200.5,-392 200.5,-411 262.5,-411 262.5,-392 200.5,-392"/>
<text text-anchor="middle" x="231.5" y="-399" font-family="Helvetica,sans-Serif" font-size="10.00">Transports</text>
</a>
</g>
</g>
<!-- Node0&#45;&gt;Node3 -->
<g id="edge3" class="edge"><title>Node0&#45;&gt;Node3</title>
<path fill="none" stroke="blueviolet" stroke-dasharray="5,2" d="M72.9673,-297.076C91.8382,-315.716 136.112,-357.256 180,-382.5 186.334,-386.143 193.496,-389.33 200.394,-392"/>
<text text-anchor="middle" x="152.5" y="-372.5" font-family="Helvetica,sans-Serif" font-size="10.00">erpc</text>
</g>
<!-- Node11 -->
<g id="node7" class="node"><title>Node11</title>
<g id="a_node7"><a xlink:href="group__serial__transport.html" target="_top" xlink:title="POSIX and Win32 serial port transport. ">
<polygon fill="white" stroke="black" points="201,-354 201,-373 262,-373 262,-354 201,-354"/>
<text text-anchor="middle" x="231.5" y="-361" font-family="Helvetica,sans-Serif" font-size="10.00">Serial port</text>
</a>
</g>
</g>
<!-- Node0&#45;&gt;Node11 -->
<g id="edge11" class="edge"><title>Node0&#45;&gt;Node11</title>
<path fill="none" stroke="blueviolet" stroke-dasharray="5,2" d="M81.8096,-297.133C104.544,-308.936 144.648,-329.242 180,-344.5 187.568,-347.766 195.901,-351.032 203.578,-353.912"/>
<text text-anchor="middle" x="152.5" y="-339.5" font-family="Helvetica,sans-Serif" font-size="10.00">erpc</text>
</g>
<!-- Node4 -->
<g id="node8" class="node"><title>Node4</title>
<g id="a_node8"><a xlink:href="group__infra__utility.html" target="_top" xlink:title="Utility code used by the infrastructure. ">
<polygon fill="white" stroke="black" points="207,-316 207,-335 256,-335 256,-316 207,-316"/>
<text text-anchor="middle" x="231.5" y="-323" font-family="Helvetica,sans-Serif" font-size="10.00">Utilities</text>
</a>
</g>
</g>
<!-- Node0&#45;&gt;Node4 -->
<g id="edge4" class="edge"><title>Node0&#45;&gt;Node4</title>
<path fill="none" stroke="blueviolet" stroke-dasharray="5,2" d="M105.641,-297.089C137.721,-304.389 180.697,-314.168 206.949,-320.141"/>
<text text-anchor="middle" x="152.5" y="-313.5" font-family="Helvetica,sans-Serif" font-size="10.00">erpc</text>
</g>
<!-- Node13 -->
<g id="node9" class="node"><title>Node13</title>
<g id="a_node9"><a xlink:href="group__spi__slave__transport.html" target="_top" xlink:title="Kinetis SDK SPI slave driver transport. ">
<polygon fill="white" stroke="black" points="202,-278 202,-297 261,-297 261,-278 202,-278"/>
<text text-anchor="middle" x="231.5" y="-285" font-family="Helvetica,sans-Serif" font-size="10.00">SPI Slave</text>
</a>
</g>
</g>
<!-- Node0&#45;&gt;Node13 -->
<g id="edge13" class="edge"><title>Node0&#45;&gt;Node13</title>
<path fill="none" stroke="blueviolet" stroke-dasharray="5,2" d="M125.21,-287.5C151.412,-287.5 180.692,-287.5 201.71,-287.5"/>
<text text-anchor="middle" x="152.5" y="-290.5" font-family="Helvetica,sans-Serif" font-size="10.00">erpc</text>
</g>
<!-- Node15 -->
<g id="node10" class="node"><title>Node15</title>
<g id="a_node10"><a xlink:href="group__uart__transport.html" target="_top" xlink:title="CMSIS UART driver transport. ">
<polygon fill="white" stroke="black" points="193.5,-240 193.5,-259 269.5,-259 269.5,-240 193.5,-240"/>
<text text-anchor="middle" x="231.5" y="-247" font-family="Helvetica,sans-Serif" font-size="10.00">CMSIS UART</text>
</a>
</g>
</g>
<!-- Node0&#45;&gt;Node15 -->
<g id="edge15" class="edge"><title>Node0&#45;&gt;Node15</title>
<path fill="none" stroke="blueviolet" stroke-dasharray="5,2" d="M105.641,-277.911C132.696,-271.755 167.502,-263.835 193.489,-257.922"/>
<text text-anchor="middle" x="152.5" y="-271.5" font-family="Helvetica,sans-Serif" font-size="10.00">erpc</text>
</g>
<!-- Node12 -->
<g id="node11" class="node"><title>Node12</title>
<g id="a_node11"><a xlink:href="group__spi__master__transport.html" target="_top" xlink:title="Kinetis SDK SPI master driver transport. ">
<polygon fill="white" stroke="black" points="199,-202 199,-221 264,-221 264,-202 199,-202"/>
<text text-anchor="middle" x="231.5" y="-209" font-family="Helvetica,sans-Serif" font-size="10.00">SPI Master</text>
</a>
</g>
</g>
<!-- Node0&#45;&gt;Node12 -->
<g id="edge12" class="edge"><title>Node0&#45;&gt;Node12</title>
<path fill="none" stroke="blueviolet" stroke-dasharray="5,2" d="M81.8096,-277.867C104.544,-266.064 144.648,-245.758 180,-230.5 187.568,-227.234 195.901,-223.968 203.578,-221.088"/>
<text text-anchor="middle" x="152.5" y="-250.5" font-family="Helvetica,sans-Serif" font-size="10.00">erpc</text>
</g>
<!-- Node5 -->
<g id="node12" class="node"><title>Node5</title>
<g id="a_node12"><a xlink:href="group__infra__server.html" target="_top" xlink:title="Server classes. ">
<polygon fill="white" stroke="black" points="209.5,-164 209.5,-183 253.5,-183 253.5,-164 209.5,-164"/>
<text text-anchor="middle" x="231.5" y="-171" font-family="Helvetica,sans-Serif" font-size="10.00">Server</text>
</a>
</g>
</g>
<!-- Node0&#45;&gt;Node5 -->
<g id="edge5" class="edge"><title>Node0&#45;&gt;Node5</title>
<path fill="none" stroke="blueviolet" stroke-dasharray="5,2" d="M72.9673,-277.924C91.8382,-259.284 136.112,-217.744 180,-192.5 189.094,-187.269 199.897,-182.978 209.173,-179.807"/>
<text text-anchor="middle" x="152.5" y="-218.5" font-family="Helvetica,sans-Serif" font-size="10.00">erpc</text>
</g>
<!-- Node9 -->
<g id="node13" class="node"><title>Node9</title>
<g id="a_node13"><a xlink:href="group__itbp__transport.html" target="_top" xlink:title="Simple inter&#45;thread communications transport. ">
<polygon fill="white" stroke="black" points="199,-126 199,-145 264,-145 264,-126 199,-126"/>
<text text-anchor="middle" x="231.5" y="-133" font-family="Helvetica,sans-Serif" font-size="10.00">Inter&#45;thread</text>
</a>
</g>
</g>
<!-- Node0&#45;&gt;Node9 -->
<g id="edge9" class="edge"><title>Node0&#45;&gt;Node9</title>
<path fill="none" stroke="blueviolet" stroke-dasharray="5,2" d="M69.2316,-277.827C84.2215,-253.372 127.111,-188.596 180,-154.5 185.747,-150.795 192.323,-147.658 198.788,-145.066"/>
<text text-anchor="middle" x="152.5" y="-184.5" font-family="Helvetica,sans-Serif" font-size="10.00">erpc</text>
</g>
<!-- Node7 -->
<g id="node14" class="node"><title>Node7</title>
<g id="a_node14"><a xlink:href="group__dspi__master__transport.html" target="_top" xlink:title="Kinetis SDK DSPI master driver transport. ">
<polygon fill="white" stroke="black" points="195.5,-88 195.5,-107 267.5,-107 267.5,-88 195.5,-88"/>
<text text-anchor="middle" x="231.5" y="-95" font-family="Helvetica,sans-Serif" font-size="10.00">DSPI Master</text>
</a>
</g>
</g>
<!-- Node0&#45;&gt;Node7 -->
<g id="edge7" class="edge"><title>Node0&#45;&gt;Node7</title>
<path fill="none" stroke="blueviolet" stroke-dasharray="5,2" d="M66.9935,-277.777C78.1979,-248.101 116.269,-158.19 180,-116.5 185.723,-112.757 192.288,-109.603 198.75,-107.008"/>
<text text-anchor="middle" x="152.5" y="-148.5" font-family="Helvetica,sans-Serif" font-size="10.00">erpc</text>
</g>
<!-- Node2 -->
<g id="node15" class="node"><title>Node2</title>
<g id="a_node15"><a xlink:href="group__infra__codec.html" target="_top" xlink:title="Classes used for message serialization. ">
<polygon fill="white" stroke="black" points="196.5,-50 196.5,-69 266.5,-69 266.5,-50 196.5,-50"/>
<text text-anchor="middle" x="231.5" y="-57" font-family="Helvetica,sans-Serif" font-size="10.00">Serialization</text>
</a>
</g>
</g>
<!-- Node0&#45;&gt;Node2 -->
<g id="edge2" class="edge"><title>Node0&#45;&gt;Node2</title>
<path fill="none" stroke="blueviolet" stroke-dasharray="5,2" d="M66.9097,-277.886C76.555,-251.347 105.766,-175.342 143,-119.5 156.617,-99.0781 159.718,-92.3237 180,-78.5 185.496,-74.7543 191.828,-71.6248 198.109,-69.0579"/>
<text text-anchor="middle" x="152.5" y="-122.5" font-family="Helvetica,sans-Serif" font-size="10.00">erpc</text>
</g>
<!-- Node10 -->
<g id="node16" class="node"><title>Node10</title>
<g id="a_node16"><a xlink:href="group__rpmsg__lite__zc__rtos__transport.html" target="_top" xlink:title="Rpmsg_lite_zc_rtos\l_transport">
<polygon fill="white" stroke="black" points="180,-0.5 180,-30.5 283,-30.5 283,-0.5 180,-0.5"/>
<text text-anchor="start" x="188" y="-18.5" font-family="Helvetica,sans-Serif" font-size="10.00">Rpmsg_lite_zc_rtos</text>
<text text-anchor="middle" x="231.5" y="-7.5" font-family="Helvetica,sans-Serif" font-size="10.00">_transport</text>
</a>
</g>
</g>
<!-- Node0&#45;&gt;Node10 -->
<g id="edge10" class="edge"><title>Node0&#45;&gt;Node10</title>
<path fill="none" stroke="blueviolet" stroke-dasharray="5,2" d="M65.761,-277.763C73.2215,-246.9 99.1151,-149.175 143,-79.5 155.734,-59.2832 160.774,-54.686 180,-40.5 184.881,-36.8988 190.359,-33.5755 195.86,-30.6068"/>
<text text-anchor="middle" x="152.5" y="-82.5" font-family="Helvetica,sans-Serif" font-size="10.00">erpc</text>
</g>
</g>
</svg>
