<?xml version="1.0" encoding="UTF-8" standalone="no"?>
<!DOCTYPE svg PUBLIC "-//W3C//DTD SVG 1.1//EN"
 "http://www.w3.org/Graphics/SVG/1.1/DTD/svg11.dtd">
<!-- Generated by graphviz version 2.38.0 (20140413.2041)
 -->
<!-- Title: Client Pages: 1 -->
<svg width="339pt" height="572pt"
 viewBox="0.00 0.00 339.00 571.50" xmlns="http://www.w3.org/2000/svg" xmlns:xlink="http://www.w3.org/1999/xlink">
<g id="graph0" class="graph" transform="scale(1 1) rotate(0) translate(4 567.5)">
<title>Client</title>
<polygon fill="white" stroke="none" points="-4,4 -4,-567.5 335,-567.5 335,4 -4,4"/>
<!-- Node8 -->
<g id="node1" class="node"><title>Node8</title>
<g id="a_node1"><a xlink:href="group__dspi__slave__transport.html" target="_top" xlink:title="Kinetis SDK DSPI slave driver transport. ">
<polygon fill="white" stroke="black" points="236,-544 236,-563 301,-563 301,-544 236,-544"/>
<text text-anchor="middle" x="268.5" y="-551" font-family="Helvetica,sans-Serif" font-size="10.00">DSPI Slave</text>
</a>
</g>
</g>
<!-- Node6 -->
<g id="node2" class="node"><title>Node6</title>
<g id="a_node2"><a xlink:href="group__port__threads.html" target="_top" xlink:title="Threading model. ">
<polygon fill="white" stroke="black" points="243,-506 243,-525 294,-525 294,-506 243,-506"/>
<text text-anchor="middle" x="268.5" y="-513" font-family="Helvetica,sans-Serif" font-size="10.00">Threads</text>
</a>
</g>
</g>
<!-- Node15 -->
<g id="node3" class="node"><title>Node15</title>
<g id="a_node3"><a xlink:href="group__tcp__transport.html" target="_top" xlink:title="Simple TCP/IP transport. ">
<polygon fill="white" stroke="black" points="245,-468 245,-487 292,-487 292,-468 245,-468"/>
<text text-anchor="middle" x="268.5" y="-475" font-family="Helvetica,sans-Serif" font-size="10.00">TCP/IP</text>
</a>
</g>
</g>
<!-- Node1 -->
<g id="node4" class="node"><title>Node1</title>
<g id="a_node4"><a xlink:href="group__infra.html" target="_top" xlink:title="C++ core. ">
<polygon fill="white" stroke="black" points="0,-278 0,-297 73,-297 73,-278 0,-278"/>
<text text-anchor="middle" x="36.5" y="-285" font-family="Helvetica,sans-Serif" font-size="10.00">Infrastructure</text>
</a>
</g>
</g>
<!-- Node0 -->
<g id="node5" class="node"><title>Node0</title>
<polygon fill="#bfbfbf" stroke="black" points="110,-278 110,-297 151,-297 151,-278 110,-278"/>
<text text-anchor="middle" x="130.5" y="-285" font-family="Helvetica,sans-Serif" font-size="10.00">Client</text>
</g>
<!-- Node1&#45;&gt;Node0 -->
<g id="edge1" class="edge"><title>Node1&#45;&gt;Node0</title>
<path fill="none" stroke="black" d="M83.2184,-287.5C92.6461,-287.5 102.089,-287.5 109.965,-287.5"/>
<polygon fill="black" stroke="black" points="83.0696,-284 73.0696,-287.5 83.0696,-291 83.0696,-284"/>
</g>
<!-- Node0&#45;&gt;Node8 -->
<g id="edge8" class="edge"><title>Node0&#45;&gt;Node8</title>
<path fill="none" stroke="blueviolet" stroke-dasharray="5,2" d="M131.081,-297.127C130.133,-328.531 130.41,-430.021 169,-500.5 179.726,-520.089 186.635,-523.376 206,-534.5 215.109,-539.732 225.82,-543.684 235.729,-546.59"/>
<text text-anchor="middle" x="178.5" y="-526.5" font-family="Helvetica,sans-Serif" font-size="10.00">erpc</text>
</g>
<!-- Node0&#45;&gt;Node6 -->
<g id="edge6" class="edge"><title>Node0&#45;&gt;Node6</title>
<path fill="none" stroke="blueviolet" stroke-dasharray="5,2" d="M131.569,-297.329C132.171,-325.158 136.769,-406.123 169,-462.5 180.084,-481.888 186.635,-485.376 206,-496.5 217.337,-503.013 231.158,-507.541 242.823,-510.538"/>
<text text-anchor="middle" x="178.5" y="-488.5" font-family="Helvetica,sans-Serif" font-size="10.00">erpc</text>
</g>
<!-- Node0&#45;&gt;Node15 -->
<g id="edge15" class="edge"><title>Node0&#45;&gt;Node15</title>
<path fill="none" stroke="blueviolet" stroke-dasharray="5,2" d="M132.306,-297.189C134.632,-320.656 142.946,-381.756 169,-424.5 180.624,-443.57 186.635,-447.376 206,-458.5 218.016,-465.402 232.82,-470.076 244.893,-473.06"/>
<text text-anchor="middle" x="178.5" y="-450.5" font-family="Helvetica,sans-Serif" font-size="10.00">erpc</text>
</g>
<!-- Node11 -->
<g id="node6" class="node"><title>Node11</title>
<g id="a_node6"><a xlink:href="group__rpmsg__lite__zc__transport.html" target="_top" xlink:title="Rpmsg_lite_zc_transport">
<polygon fill="white" stroke="black" points="206,-430 206,-449 331,-449 331,-430 206,-430"/>
<text text-anchor="middle" x="268.5" y="-437" font-family="Helvetica,sans-Serif" font-size="10.00">Rpmsg_lite_zc_transport</text>
</a>
</g>
</g>
<!-- Node0&#45;&gt;Node11 -->
<g id="edge11" class="edge"><title>Node0&#45;&gt;Node11</title>
<path fill="none" stroke="blueviolet" stroke-dasharray="5,2" d="M133.584,-297.198C137.902,-315.771 149.122,-357.121 169,-386.5 181.515,-404.997 186.635,-409.376 206,-420.5 212.589,-424.285 220.017,-427.4 227.373,-429.933"/>
<text text-anchor="middle" x="178.5" y="-412.5" font-family="Helvetica,sans-Serif" font-size="10.00">erpc</text>
</g>
<!-- Node3 -->
<g id="node7" class="node"><title>Node3</title>
<g id="a_node7"><a xlink:href="group__infra__transport.html" target="_top" xlink:title="Superclasses for building transports. ">
<polygon fill="white" stroke="black" points="237.5,-392 237.5,-411 299.5,-411 299.5,-392 237.5,-392"/>
<text text-anchor="middle" x="268.5" y="-399" font-family="Helvetica,sans-Serif" font-size="10.00">Transports</text>
</a>
</g>
</g>
<!-- Node0&#45;&gt;Node3 -->
<g id="edge3" class="edge"><title>Node0&#45;&gt;Node3</title>
<path fill="none" stroke="blueviolet" stroke-dasharray="5,2" d="M135.911,-297.272C142.131,-310.431 154.369,-334.19 169,-351.5 182.849,-367.885 187.158,-372.243 206,-382.5 215.717,-387.79 227.116,-391.829 237.442,-394.795"/>
<text text-anchor="middle" x="178.5" y="-374.5" font-family="Helvetica,sans-Serif" font-size="10.00">erpc</text>
</g>
<!-- Node12 -->
<g id="node8" class="node"><title>Node12</title>
<g id="a_node8"><a xlink:href="group__serial__transport.html" target="_top" xlink:title="POSIX and Win32 serial port transport. ">
<polygon fill="white" stroke="black" points="238,-354 238,-373 299,-373 299,-354 238,-354"/>
<text text-anchor="middle" x="268.5" y="-361" font-family="Helvetica,sans-Serif" font-size="10.00">Serial port</text>
</a>
</g>
</g>
<!-- Node0&#45;&gt;Node12 -->
<g id="edge12" class="edge"><title>Node0&#45;&gt;Node12</title>
<path fill="none" stroke="blueviolet" stroke-dasharray="5,2" d="M140.174,-297.053C147.431,-304.732 158.291,-315.517 169,-323.5 184.16,-334.801 188.643,-336.999 206,-344.5 216.155,-348.889 227.654,-352.725 237.937,-355.779"/>
<text text-anchor="middle" x="178.5" y="-339.5" font-family="Helvetica,sans-Serif" font-size="10.00">erpc</text>
</g>
<!-- Node4 -->
<g id="node9" class="node"><title>Node4</title>
<g id="a_node9"><a xlink:href="group__infra__utility.html" target="_top" xlink:title="Utility code used by the infrastructure. ">
<polygon fill="white" stroke="black" points="244,-316 244,-335 293,-335 293,-316 244,-316"/>
<text text-anchor="middle" x="268.5" y="-323" font-family="Helvetica,sans-Serif" font-size="10.00">Utilities</text>
</a>
</g>
</g>
<!-- Node0&#45;&gt;Node4 -->
<g id="edge4" class="edge"><title>Node0&#45;&gt;Node4</title>
<path fill="none" stroke="blueviolet" stroke-dasharray="5,2" d="M151.149,-296.008C156.844,-298.296 163.114,-300.647 169,-302.5 194.126,-310.409 223.625,-316.946 243.745,-321.003"/>
<text text-anchor="middle" x="178.5" y="-311.5" font-family="Helvetica,sans-Serif" font-size="10.00">erpc</text>
</g>
<!-- Node14 -->
<g id="node10" class="node"><title>Node14</title>
<g id="a_node10"><a xlink:href="group__spi__slave__transport.html" target="_top" xlink:title="Kinetis SDK SPI slave driver transport. ">
<polygon fill="white" stroke="black" points="239,-278 239,-297 298,-297 298,-278 239,-278"/>
<text text-anchor="middle" x="268.5" y="-285" font-family="Helvetica,sans-Serif" font-size="10.00">SPI Slave</text>
</a>
</g>
</g>
<!-- Node0&#45;&gt;Node14 -->
<g id="edge14" class="edge"><title>Node0&#45;&gt;Node14</title>
<path fill="none" stroke="blueviolet" stroke-dasharray="5,2" d="M151.276,-287.5C174.334,-287.5 212.636,-287.5 238.926,-287.5"/>
<text text-anchor="middle" x="178.5" y="-290.5" font-family="Helvetica,sans-Serif" font-size="10.00">erpc</text>
</g>
<!-- Node16 -->
<g id="node11" class="node"><title>Node16</title>
<g id="a_node11"><a xlink:href="group__uart__transport.html" target="_top" xlink:title="CMSIS UART driver transport. ">
<polygon fill="white" stroke="black" points="230.5,-240 230.5,-259 306.5,-259 306.5,-240 230.5,-240"/>
<text text-anchor="middle" x="268.5" y="-247" font-family="Helvetica,sans-Serif" font-size="10.00">CMSIS UART</text>
</a>
</g>
</g>
<!-- Node0&#45;&gt;Node16 -->
<g id="edge16" class="edge"><title>Node0&#45;&gt;Node16</title>
<path fill="none" stroke="blueviolet" stroke-dasharray="5,2" d="M151.149,-278.992C156.844,-276.704 163.114,-274.353 169,-272.5 188.933,-266.226 211.618,-260.815 230.19,-256.82"/>
<text text-anchor="middle" x="178.5" y="-275.5" font-family="Helvetica,sans-Serif" font-size="10.00">erpc</text>
</g>
<!-- Node13 -->
<g id="node12" class="node"><title>Node13</title>
<g id="a_node12"><a xlink:href="group__spi__master__transport.html" target="_top" xlink:title="Kinetis SDK SPI master driver transport. ">
<polygon fill="white" stroke="black" points="236,-202 236,-221 301,-221 301,-202 236,-202"/>
<text text-anchor="middle" x="268.5" y="-209" font-family="Helvetica,sans-Serif" font-size="10.00">SPI Master</text>
</a>
</g>
</g>
<!-- Node0&#45;&gt;Node13 -->
<g id="edge13" class="edge"><title>Node0&#45;&gt;Node13</title>
<path fill="none" stroke="blueviolet" stroke-dasharray="5,2" d="M140.56,-277.989C147.865,-270.59 158.6,-260.303 169,-252.5 184.303,-241.018 188.516,-238.267 206,-230.5 215.396,-226.326 225.981,-222.699 235.687,-219.763"/>
<text text-anchor="middle" x="178.5" y="-255.5" font-family="Helvetica,sans-Serif" font-size="10.00">erpc</text>
</g>
<!-- Node5 -->
<g id="node13" class="node"><title>Node5</title>
<g id="a_node13"><a xlink:href="group__infra__server.html" target="_top" xlink:title="Server classes. ">
<polygon fill="white" stroke="black" points="246.5,-164 246.5,-183 290.5,-183 290.5,-164 246.5,-164"/>
<text text-anchor="middle" x="268.5" y="-171" font-family="Helvetica,sans-Serif" font-size="10.00">Server</text>
</a>
</g>
</g>
<!-- Node0&#45;&gt;Node5 -->
<g id="edge5" class="edge"><title>Node0&#45;&gt;Node5</title>
<path fill="none" stroke="blueviolet" stroke-dasharray="5,2" d="M135.983,-277.919C142.284,-265.01 154.614,-241.673 169,-224.5 182.962,-207.834 186.987,-203.044 206,-192.5 218.607,-185.509 234.125,-180.739 246.418,-177.727"/>
<text text-anchor="middle" x="178.5" y="-227.5" font-family="Helvetica,sans-Serif" font-size="10.00">erpc</text>
</g>
<!-- Node9 -->
<g id="node14" class="node"><title>Node9</title>
<g id="a_node14"><a xlink:href="group__itbp__transport.html" target="_top" xlink:title="Simple inter&#45;thread communications transport. ">
<polygon fill="white" stroke="black" points="236,-126 236,-145 301,-145 301,-126 236,-126"/>
<text text-anchor="middle" x="268.5" y="-133" font-family="Helvetica,sans-Serif" font-size="10.00">Inter&#45;thread</text>
</a>
</g>
</g>
<!-- Node0&#45;&gt;Node9 -->
<g id="edge9" class="edge"><title>Node0&#45;&gt;Node9</title>
<path fill="none" stroke="blueviolet" stroke-dasharray="5,2" d="M133.776,-277.766C138.35,-259.523 149.887,-219.42 169,-190.5 181.65,-171.359 186.27,-166.211 206,-154.5 215.129,-149.081 225.952,-145.068 235.954,-142.163"/>
<text text-anchor="middle" x="178.5" y="-193.5" font-family="Helvetica,sans-Serif" font-size="10.00">erpc</text>
</g>
<!-- Node7 -->
<g id="node15" class="node"><title>Node7</title>
<g id="a_node15"><a xlink:href="group__dspi__master__transport.html" target="_top" xlink:title="Kinetis SDK DSPI master driver transport. ">
<polygon fill="white" stroke="black" points="232.5,-88 232.5,-107 304.5,-107 304.5,-88 232.5,-88"/>
<text text-anchor="middle" x="268.5" y="-95" font-family="Helvetica,sans-Serif" font-size="10.00">DSPI Master</text>
</a>
</g>
</g>
<!-- Node0&#45;&gt;Node7 -->
<g id="edge7" class="edge"><title>Node0&#45;&gt;Node7</title>
<path fill="none" stroke="blueviolet" stroke-dasharray="5,2" d="M132.419,-277.999C134.995,-254.977 143.823,-194.979 169,-152.5 180.698,-132.762 186.27,-128.211 206,-116.5 214.072,-111.709 223.468,-108.016 232.451,-105.217"/>
<text text-anchor="middle" x="178.5" y="-155.5" font-family="Helvetica,sans-Serif" font-size="10.00">erpc</text>
</g>
<!-- Node2 -->
<g id="node16" class="node"><title>Node2</title>
<g id="a_node16"><a xlink:href="group__infra__codec.html" target="_top" xlink:title="Classes used for message serialization. ">
<polygon fill="white" stroke="black" points="233.5,-50 233.5,-69 303.5,-69 303.5,-50 233.5,-50"/>
<text text-anchor="middle" x="268.5" y="-57" font-family="Helvetica,sans-Serif" font-size="10.00">Serialization</text>
</a>
</g>
</g>
<!-- Node0&#45;&gt;Node2 -->
<g id="edge2" class="edge"><title>Node0&#45;&gt;Node2</title>
<path fill="none" stroke="blueviolet" stroke-dasharray="5,2" d="M131.678,-277.828C132.569,-250.434 137.853,-170.673 169,-114.5 180.126,-94.4343 186.27,-90.2109 206,-78.5 214.36,-73.5376 224.141,-69.7537 233.411,-66.9204"/>
<text text-anchor="middle" x="178.5" y="-117.5" font-family="Helvetica,sans-Serif" font-size="10.00">erpc</text>
</g>
<!-- Node10 -->
<g id="node17" class="node"><title>Node10</title>
<g id="a_node17"><a xlink:href="group__rpmsg__lite__zc__rtos__transport.html" target="_top" xlink:title="Rpmsg_lite_zc_rtos\l_transport">
<polygon fill="white" stroke="black" points="217,-0.5 217,-30.5 320,-30.5 320,-0.5 217,-0.5"/>
<text text-anchor="start" x="225" y="-18.5" font-family="Helvetica,sans-Serif" font-size="10.00">Rpmsg_lite_zc_rtos</text>
<text text-anchor="middle" x="268.5" y="-7.5" font-family="Helvetica,sans-Serif" font-size="10.00">_transport</text>
</a>
</g>
</g>
<!-- Node0&#45;&gt;Node10 -->
<g id="edge10" class="edge"><title>Node0&#45;&gt;Node10</title>
<path fill="none" stroke="blueviolet" stroke-dasharray="5,2" d="M131.134,-277.94C130.348,-246.75 131.066,-145.919 169,-75.5 180.348,-54.4341 202.565,-39.9612 223.03,-30.5164"/>
<text text-anchor="middle" x="178.5" y="-78.5" font-family="Helvetica,sans-Serif" font-size="10.00">erpc</text>
</g>
</g>
</svg>
