<?xml version="1.0" encoding="UTF-8" standalone="no"?>
<!DOCTYPE svg PUBLIC "-//W3C//DTD SVG 1.1//EN"
 "http://www.w3.org/Graphics/SVG/1.1/DTD/svg11.dtd">
<!-- Generated by graphviz version 2.38.0 (20140413.2041)
 -->
<!-- Title: Utilities Pages: 1 -->
<svg width="347pt" height="572pt"
 viewBox="0.00 0.00 347.00 571.50" xmlns="http://www.w3.org/2000/svg" xmlns:xlink="http://www.w3.org/1999/xlink">
<g id="graph0" class="graph" transform="scale(1 1) rotate(0) translate(4 567.5)">
<title>Utilities</title>
<polygon fill="white" stroke="none" points="-4,4 -4,-567.5 343,-567.5 343,4 -4,4"/>
<!-- Node8 -->
<g id="node1" class="node"><title>Node8</title>
<g id="a_node1"><a xlink:href="group__dspi__slave__transport.html" target="_top" xlink:title="Kinetis SDK DSPI slave driver transport. ">
<polygon fill="white" stroke="black" points="244,-544 244,-563 309,-563 309,-544 244,-544"/>
<text text-anchor="middle" x="276.5" y="-551" font-family="Helvetica,sans-Serif" font-size="10.00">DSPI Slave</text>
</a>
</g>
</g>
<!-- Node6 -->
<g id="node2" class="node"><title>Node6</title>
<g id="a_node2"><a xlink:href="group__port__threads.html" target="_top" xlink:title="Threading model. ">
<polygon fill="white" stroke="black" points="251,-506 251,-525 302,-525 302,-506 251,-506"/>
<text text-anchor="middle" x="276.5" y="-513" font-family="Helvetica,sans-Serif" font-size="10.00">Threads</text>
</a>
</g>
</g>
<!-- Node15 -->
<g id="node3" class="node"><title>Node15</title>
<g id="a_node3"><a xlink:href="group__tcp__transport.html" target="_top" xlink:title="Simple TCP/IP transport. ">
<polygon fill="white" stroke="black" points="253,-468 253,-487 300,-487 300,-468 253,-468"/>
<text text-anchor="middle" x="276.5" y="-475" font-family="Helvetica,sans-Serif" font-size="10.00">TCP/IP</text>
</a>
</g>
</g>
<!-- Node1 -->
<g id="node4" class="node"><title>Node1</title>
<g id="a_node4"><a xlink:href="group__infra.html" target="_top" xlink:title="C++ core. ">
<polygon fill="white" stroke="black" points="0,-278 0,-297 73,-297 73,-278 0,-278"/>
<text text-anchor="middle" x="36.5" y="-285" font-family="Helvetica,sans-Serif" font-size="10.00">Infrastructure</text>
</a>
</g>
</g>
<!-- Node0 -->
<g id="node9" class="node"><title>Node0</title>
<polygon fill="#bfbfbf" stroke="black" points="110,-278 110,-297 159,-297 159,-278 110,-278"/>
<text text-anchor="middle" x="134.5" y="-285" font-family="Helvetica,sans-Serif" font-size="10.00">Utilities</text>
</g>
<!-- Node1&#45;&gt;Node0 -->
<g id="edge1" class="edge"><title>Node1&#45;&gt;Node0</title>
<path fill="none" stroke="black" d="M83.4896,-287.5C92.662,-287.5 101.933,-287.5 109.958,-287.5"/>
<polygon fill="black" stroke="black" points="83.2469,-284 73.2469,-287.5 83.2468,-291 83.2469,-284"/>
</g>
<!-- Node2 -->
<g id="node5" class="node"><title>Node2</title>
<g id="a_node5"><a xlink:href="group__infra__client.html" target="_top" xlink:title="Client classes. ">
<polygon fill="white" stroke="black" points="256,-430 256,-449 297,-449 297,-430 256,-430"/>
<text text-anchor="middle" x="276.5" y="-437" font-family="Helvetica,sans-Serif" font-size="10.00">Client</text>
</a>
</g>
</g>
<!-- Node11 -->
<g id="node6" class="node"><title>Node11</title>
<g id="a_node6"><a xlink:href="group__rpmsg__lite__zc__transport.html" target="_top" xlink:title="Rpmsg_lite_zc_transport">
<polygon fill="white" stroke="black" points="214,-392 214,-411 339,-411 339,-392 214,-392"/>
<text text-anchor="middle" x="276.5" y="-399" font-family="Helvetica,sans-Serif" font-size="10.00">Rpmsg_lite_zc_transport</text>
</a>
</g>
</g>
<!-- Node4 -->
<g id="node7" class="node"><title>Node4</title>
<g id="a_node7"><a xlink:href="group__infra__transport.html" target="_top" xlink:title="Superclasses for building transports. ">
<polygon fill="white" stroke="black" points="245.5,-354 245.5,-373 307.5,-373 307.5,-354 245.5,-354"/>
<text text-anchor="middle" x="276.5" y="-361" font-family="Helvetica,sans-Serif" font-size="10.00">Transports</text>
</a>
</g>
</g>
<!-- Node12 -->
<g id="node8" class="node"><title>Node12</title>
<g id="a_node8"><a xlink:href="group__serial__transport.html" target="_top" xlink:title="POSIX and Win32 serial port transport. ">
<polygon fill="white" stroke="black" points="246,-316 246,-335 307,-335 307,-316 246,-316"/>
<text text-anchor="middle" x="276.5" y="-323" font-family="Helvetica,sans-Serif" font-size="10.00">Serial port</text>
</a>
</g>
</g>
<!-- Node0&#45;&gt;Node8 -->
<g id="edge8" class="edge"><title>Node0&#45;&gt;Node8</title>
<path fill="none" stroke="blueviolet" stroke-dasharray="5,2" d="M135.306,-297.137C135.085,-328.57 137.64,-430.137 177,-500.5 187.903,-519.991 194.635,-523.376 214,-534.5 223.109,-539.732 233.82,-543.684 243.729,-546.59"/>
<text text-anchor="middle" x="186.5" y="-526.5" font-family="Helvetica,sans-Serif" font-size="10.00">erpc</text>
</g>
<!-- Node0&#45;&gt;Node6 -->
<g id="edge6" class="edge"><title>Node0&#45;&gt;Node6</title>
<path fill="none" stroke="blueviolet" stroke-dasharray="5,2" d="M135.845,-297.337C137.221,-325.187 143.996,-406.202 177,-462.5 188.295,-481.766 194.635,-485.376 214,-496.5 225.337,-503.013 239.158,-507.541 250.823,-510.538"/>
<text text-anchor="middle" x="186.5" y="-488.5" font-family="Helvetica,sans-Serif" font-size="10.00">erpc</text>
</g>
<!-- Node0&#45;&gt;Node15 -->
<g id="edge15" class="edge"><title>Node0&#45;&gt;Node15</title>
<path fill="none" stroke="blueviolet" stroke-dasharray="5,2" d="M136.706,-297.096C139.977,-320.345 150.608,-380.901 177,-423.5 188.922,-442.742 194.454,-447.083 214,-458.5 225.965,-465.489 240.768,-470.165 252.853,-473.129"/>
<text text-anchor="middle" x="186.5" y="-450.5" font-family="Helvetica,sans-Serif" font-size="10.00">erpc</text>
</g>
<!-- Node0&#45;&gt;Node2 -->
<g id="edge2" class="edge"><title>Node0&#45;&gt;Node2</title>
<path fill="none" stroke="blueviolet" stroke-dasharray="5,2" d="M138.252,-297.22C143.703,-315.441 157.094,-355.508 177,-384.5 189.987,-403.415 194.27,-408.789 214,-420.5 226.973,-428.2 243.366,-433.063 255.965,-435.939"/>
<text text-anchor="middle" x="186.5" y="-411.5" font-family="Helvetica,sans-Serif" font-size="10.00">erpc</text>
</g>
<!-- Node0&#45;&gt;Node11 -->
<g id="edge11" class="edge"><title>Node0&#45;&gt;Node11</title>
<path fill="none" stroke="blueviolet" stroke-dasharray="5,2" d="M140.188,-297.101C150.451,-316.954 176.981,-362.348 214,-382.5 220.87,-386.24 228.582,-389.355 236.161,-391.908"/>
<text text-anchor="middle" x="186.5" y="-372.5" font-family="Helvetica,sans-Serif" font-size="10.00">erpc</text>
</g>
<!-- Node0&#45;&gt;Node4 -->
<g id="edge4" class="edge"><title>Node0&#45;&gt;Node4</title>
<path fill="none" stroke="blueviolet" stroke-dasharray="5,2" d="M145.604,-297.275C153.73,-304.882 165.629,-315.461 177,-323.5 192.44,-334.415 196.643,-336.999 214,-344.5 223.95,-348.8 235.19,-352.57 245.313,-355.593"/>
<text text-anchor="middle" x="186.5" y="-339.5" font-family="Helvetica,sans-Serif" font-size="10.00">erpc</text>
</g>
<!-- Node0&#45;&gt;Node12 -->
<g id="edge12" class="edge"><title>Node0&#45;&gt;Node12</title>
<path fill="none" stroke="blueviolet" stroke-dasharray="5,2" d="M159.042,-296.552C164.867,-298.641 171.124,-300.759 177,-302.5 199.898,-309.286 226.266,-315.353 245.955,-319.55"/>
<text text-anchor="middle" x="186.5" y="-311.5" font-family="Helvetica,sans-Serif" font-size="10.00">erpc</text>
</g>
<!-- Node14 -->
<g id="node10" class="node"><title>Node14</title>
<g id="a_node10"><a xlink:href="group__spi__slave__transport.html" target="_top" xlink:title="Kinetis SDK SPI slave driver transport. ">
<polygon fill="white" stroke="black" points="247,-278 247,-297 306,-297 306,-278 247,-278"/>
<text text-anchor="middle" x="276.5" y="-285" font-family="Helvetica,sans-Serif" font-size="10.00">SPI Slave</text>
</a>
</g>
</g>
<!-- Node0&#45;&gt;Node14 -->
<g id="edge14" class="edge"><title>Node0&#45;&gt;Node14</title>
<path fill="none" stroke="blueviolet" stroke-dasharray="5,2" d="M159.249,-287.5C183.433,-287.5 220.948,-287.5 246.786,-287.5"/>
<text text-anchor="middle" x="186.5" y="-290.5" font-family="Helvetica,sans-Serif" font-size="10.00">erpc</text>
</g>
<!-- Node16 -->
<g id="node11" class="node"><title>Node16</title>
<g id="a_node11"><a xlink:href="group__uart__transport.html" target="_top" xlink:title="CMSIS UART driver transport. ">
<polygon fill="white" stroke="black" points="238.5,-240 238.5,-259 314.5,-259 314.5,-240 238.5,-240"/>
<text text-anchor="middle" x="276.5" y="-247" font-family="Helvetica,sans-Serif" font-size="10.00">CMSIS UART</text>
</a>
</g>
</g>
<!-- Node0&#45;&gt;Node16 -->
<g id="edge16" class="edge"><title>Node0&#45;&gt;Node16</title>
<path fill="none" stroke="blueviolet" stroke-dasharray="5,2" d="M159.042,-278.448C164.867,-276.359 171.124,-274.241 177,-272.5 197.036,-266.562 219.729,-261.175 238.279,-257.109"/>
<text text-anchor="middle" x="186.5" y="-275.5" font-family="Helvetica,sans-Serif" font-size="10.00">erpc</text>
</g>
<!-- Node13 -->
<g id="node12" class="node"><title>Node13</title>
<g id="a_node12"><a xlink:href="group__spi__master__transport.html" target="_top" xlink:title="Kinetis SDK SPI master driver transport. ">
<polygon fill="white" stroke="black" points="244,-202 244,-221 309,-221 309,-202 244,-202"/>
<text text-anchor="middle" x="276.5" y="-209" font-family="Helvetica,sans-Serif" font-size="10.00">SPI Master</text>
</a>
</g>
</g>
<!-- Node0&#45;&gt;Node13 -->
<g id="edge13" class="edge"><title>Node0&#45;&gt;Node13</title>
<path fill="none" stroke="blueviolet" stroke-dasharray="5,2" d="M146.03,-277.783C154.194,-270.46 165.942,-260.37 177,-252.5 192.587,-241.407 196.516,-238.267 214,-230.5 223.396,-226.326 233.981,-222.699 243.687,-219.763"/>
<text text-anchor="middle" x="186.5" y="-255.5" font-family="Helvetica,sans-Serif" font-size="10.00">erpc</text>
</g>
<!-- Node5 -->
<g id="node13" class="node"><title>Node5</title>
<g id="a_node13"><a xlink:href="group__infra__server.html" target="_top" xlink:title="Server classes. ">
<polygon fill="white" stroke="black" points="254.5,-164 254.5,-183 298.5,-183 298.5,-164 254.5,-164"/>
<text text-anchor="middle" x="276.5" y="-171" font-family="Helvetica,sans-Serif" font-size="10.00">Server</text>
</a>
</g>
</g>
<!-- Node0&#45;&gt;Node5 -->
<g id="edge5" class="edge"><title>Node0&#45;&gt;Node5</title>
<path fill="none" stroke="blueviolet" stroke-dasharray="5,2" d="M140.238,-277.99C150.596,-258.309 177.297,-213.222 214,-192.5 226.553,-185.413 242.071,-180.643 254.379,-177.656"/>
<text text-anchor="middle" x="186.5" y="-225.5" font-family="Helvetica,sans-Serif" font-size="10.00">erpc</text>
</g>
<!-- Node9 -->
<g id="node14" class="node"><title>Node9</title>
<g id="a_node14"><a xlink:href="group__itbp__transport.html" target="_top" xlink:title="Simple inter&#45;thread communications transport. ">
<polygon fill="white" stroke="black" points="244,-126 244,-145 309,-145 309,-126 244,-126"/>
<text text-anchor="middle" x="276.5" y="-133" font-family="Helvetica,sans-Serif" font-size="10.00">Inter&#45;thread</text>
</a>
</g>
</g>
<!-- Node0&#45;&gt;Node9 -->
<g id="edge9" class="edge"><title>Node0&#45;&gt;Node9</title>
<path fill="none" stroke="blueviolet" stroke-dasharray="5,2" d="M137.803,-277.897C144.479,-252.428 166.468,-183.155 214,-154.5 223.092,-149.019 233.905,-144.989 243.91,-142.089"/>
<text text-anchor="middle" x="186.5" y="-192.5" font-family="Helvetica,sans-Serif" font-size="10.00">erpc</text>
</g>
<!-- Node7 -->
<g id="node15" class="node"><title>Node7</title>
<g id="a_node15"><a xlink:href="group__dspi__master__transport.html" target="_top" xlink:title="Kinetis SDK DSPI master driver transport. ">
<polygon fill="white" stroke="black" points="240.5,-88 240.5,-107 312.5,-107 312.5,-88 240.5,-88"/>
<text text-anchor="middle" x="276.5" y="-95" font-family="Helvetica,sans-Serif" font-size="10.00">DSPI Master</text>
</a>
</g>
</g>
<!-- Node0&#45;&gt;Node7 -->
<g id="edge7" class="edge"><title>Node0&#45;&gt;Node7</title>
<path fill="none" stroke="blueviolet" stroke-dasharray="5,2" d="M136.976,-277.941C140.78,-255.33 152.391,-197.323 177,-155.5 189.117,-134.908 193.702,-129.104 214,-116.5 221.975,-111.548 231.337,-107.8 240.319,-105"/>
<text text-anchor="middle" x="186.5" y="-158.5" font-family="Helvetica,sans-Serif" font-size="10.00">erpc</text>
</g>
<!-- Node3 -->
<g id="node16" class="node"><title>Node3</title>
<g id="a_node16"><a xlink:href="group__infra__codec.html" target="_top" xlink:title="Classes used for message serialization. ">
<polygon fill="white" stroke="black" points="241.5,-50 241.5,-69 311.5,-69 311.5,-50 241.5,-50"/>
<text text-anchor="middle" x="276.5" y="-57" font-family="Helvetica,sans-Serif" font-size="10.00">Serialization</text>
</a>
</g>
</g>
<!-- Node0&#45;&gt;Node3 -->
<g id="edge3" class="edge"><title>Node0&#45;&gt;Node3</title>
<path fill="none" stroke="blueviolet" stroke-dasharray="5,2" d="M136.008,-277.899C137.809,-250.703 145.598,-171.497 177,-115.5 188.375,-95.2157 194.083,-90.5069 214,-78.5 222.326,-73.4804 232.096,-69.6782 241.367,-66.8457"/>
<text text-anchor="middle" x="186.5" y="-118.5" font-family="Helvetica,sans-Serif" font-size="10.00">erpc</text>
</g>
<!-- Node10 -->
<g id="node17" class="node"><title>Node10</title>
<g id="a_node17"><a xlink:href="group__rpmsg__lite__zc__rtos__transport.html" target="_top" xlink:title="Rpmsg_lite_zc_rtos\l_transport">
<polygon fill="white" stroke="black" points="225,-0.5 225,-30.5 328,-30.5 328,-0.5 225,-0.5"/>
<text text-anchor="start" x="233" y="-18.5" font-family="Helvetica,sans-Serif" font-size="10.00">Rpmsg_lite_zc_rtos</text>
<text text-anchor="middle" x="276.5" y="-7.5" font-family="Helvetica,sans-Serif" font-size="10.00">_transport</text>
</a>
</g>
</g>
<!-- Node0&#45;&gt;Node10 -->
<g id="edge10" class="edge"><title>Node0&#45;&gt;Node10</title>
<path fill="none" stroke="blueviolet" stroke-dasharray="5,2" d="M135.411,-277.997C135.509,-246.993 138.932,-146.742 177,-76.5 188.645,-55.0137 211.424,-40.1821 232.145,-30.5283"/>
<text text-anchor="middle" x="186.5" y="-79.5" font-family="Helvetica,sans-Serif" font-size="10.00">erpc</text>
</g>
</g>
</svg>
