<?xml version="1.0" encoding="UTF-8" standalone="no"?>
<!DOCTYPE svg PUBLIC "-//W3C//DTD SVG 1.1//EN"
 "http://www.w3.org/Graphics/SVG/1.1/DTD/svg11.dtd">
<!-- Generated by graphviz version 2.38.0 (20140413.2041)
 -->
<!-- Title: Extension Setup Pages: 1 -->
<svg width="360pt" height="864pt"
 viewBox="0.00 0.00 360.00 864.00" xmlns="http://www.w3.org/2000/svg" xmlns:xlink="http://www.w3.org/1999/xlink">
<g id="graph0" class="graph" transform="scale(1 1) rotate(0) translate(4 860)">
<title>Extension Setup</title>
<polygon fill="white" stroke="none" points="-4,4 -4,-860 356,-860 356,4 -4,4"/>
<!-- Node9 -->
<g id="node1" class="node"><title>Node9</title>
<g id="a_node1"><a xlink:href="group__dspi__slave__transport.html" target="_top" xlink:title="MCUXpressoSDK DSPI slave driver transport. ">
<polygon fill="white" stroke="black" points="264.5,-836.5 264.5,-855.5 329.5,-855.5 329.5,-836.5 264.5,-836.5"/>
<text text-anchor="middle" x="297" y="-843.5" font-family="Helvetica,sans-Serif" font-size="10.00">DSPI Slave</text>
</a>
</g>
</g>
<!-- Node10 -->
<g id="node2" class="node"><title>Node10</title>
<g id="a_node2"><a xlink:href="group__i2c__slave__transport.html" target="_top" xlink:title="MCUXpressoSDK I2C slave driver transport. ">
<polygon fill="white" stroke="black" points="268.5,-798.5 268.5,-817.5 325.5,-817.5 325.5,-798.5 268.5,-798.5"/>
<text text-anchor="middle" x="297" y="-805.5" font-family="Helvetica,sans-Serif" font-size="10.00">I2C Slave</text>
</a>
</g>
</g>
<!-- Node7 -->
<g id="node3" class="node"><title>Node7</title>
<g id="a_node3"><a xlink:href="group__port__threads.html" target="_top" xlink:title="Threading model. ">
<polygon fill="white" stroke="black" points="271.5,-760.5 271.5,-779.5 322.5,-779.5 322.5,-760.5 271.5,-760.5"/>
<text text-anchor="middle" x="297" y="-767.5" font-family="Helvetica,sans-Serif" font-size="10.00">Threads</text>
</a>
</g>
</g>
<!-- Node14 -->
<g id="node4" class="node"><title>Node14</title>
<g id="a_node4"><a xlink:href="group__mu__transport.html" target="_top" xlink:title="Messaging Unit transport. ">
<polygon fill="white" stroke="black" points="255,-722.5 255,-741.5 339,-741.5 339,-722.5 255,-722.5"/>
<text text-anchor="middle" x="297" y="-729.5" font-family="Helvetica,sans-Serif" font-size="10.00">Messaging Unit</text>
</a>
</g>
</g>
<!-- Node22 -->
<g id="node5" class="node"><title>Node22</title>
<g id="a_node5"><a xlink:href="group__tcp__transport.html" target="_top" xlink:title="Simple TCP/IP transport. ">
<polygon fill="white" stroke="black" points="273.5,-684.5 273.5,-703.5 320.5,-703.5 320.5,-684.5 273.5,-684.5"/>
<text text-anchor="middle" x="297" y="-691.5" font-family="Helvetica,sans-Serif" font-size="10.00">TCP/IP</text>
</a>
</g>
</g>
<!-- Node2 -->
<g id="node6" class="node"><title>Node2</title>
<g id="a_node6"><a xlink:href="group__infra__client.html" target="_top" xlink:title="Client classes. ">
<polygon fill="white" stroke="black" points="276.5,-646.5 276.5,-665.5 317.5,-665.5 317.5,-646.5 276.5,-646.5"/>
<text text-anchor="middle" x="297" y="-653.5" font-family="Helvetica,sans-Serif" font-size="10.00">Client</text>
</a>
</g>
</g>
<!-- Node4 -->
<g id="node7" class="node"><title>Node4</title>
<g id="a_node7"><a xlink:href="group__infra__transport.html" target="_top" xlink:title="Superclasses for building transports. ">
<polygon fill="white" stroke="black" points="266,-608.5 266,-627.5 328,-627.5 328,-608.5 266,-608.5"/>
<text text-anchor="middle" x="297" y="-615.5" font-family="Helvetica,sans-Serif" font-size="10.00">Transports</text>
</a>
</g>
</g>
<!-- Node18 -->
<g id="node8" class="node"><title>Node18</title>
<g id="a_node8"><a xlink:href="group__serial__transport.html" target="_top" xlink:title="POSIX and Win32 serial port transport. ">
<polygon fill="white" stroke="black" points="266.5,-570.5 266.5,-589.5 327.5,-589.5 327.5,-570.5 266.5,-570.5"/>
<text text-anchor="middle" x="297" y="-577.5" font-family="Helvetica,sans-Serif" font-size="10.00">Serial port</text>
</a>
</g>
</g>
<!-- Node5 -->
<g id="node9" class="node"><title>Node5</title>
<g id="a_node9"><a xlink:href="group__infra__utility.html" target="_top" xlink:title="Utility code used by the infrastructure. ">
<polygon fill="white" stroke="black" points="272.5,-532.5 272.5,-551.5 321.5,-551.5 321.5,-532.5 272.5,-532.5"/>
<text text-anchor="middle" x="297" y="-539.5" font-family="Helvetica,sans-Serif" font-size="10.00">Utilities</text>
</a>
</g>
</g>
<!-- Node20 -->
<g id="node10" class="node"><title>Node20</title>
<g id="a_node10"><a xlink:href="group__spi__slave__transport.html" target="_top" xlink:title="MCUXpressoSDK SPI slave driver transport. ">
<polygon fill="white" stroke="black" points="267.5,-494.5 267.5,-513.5 326.5,-513.5 326.5,-494.5 267.5,-494.5"/>
<text text-anchor="middle" x="297" y="-501.5" font-family="Helvetica,sans-Serif" font-size="10.00">SPI Slave</text>
</a>
</g>
</g>
<!-- Node23 -->
<g id="node11" class="node"><title>Node23</title>
<g id="a_node11"><a xlink:href="group__uart__transport.html" target="_top" xlink:title="CMSIS UART driver transport. ">
<polygon fill="white" stroke="black" points="259,-456.5 259,-475.5 335,-475.5 335,-456.5 259,-456.5"/>
<text text-anchor="middle" x="297" y="-463.5" font-family="Helvetica,sans-Serif" font-size="10.00">CMSIS UART</text>
</a>
</g>
</g>
<!-- Node21 -->
<g id="node12" class="node"><title>Node21</title>
<g id="a_node12"><a xlink:href="group__spidev__master__transport.html" target="_top" xlink:title="SPIdev Linux transport. ">
<polygon fill="white" stroke="black" points="244,-418.5 244,-437.5 350,-437.5 350,-418.5 244,-418.5"/>
<text text-anchor="middle" x="297" y="-425.5" font-family="Helvetica,sans-Serif" font-size="10.00">SPIdev Linux Master</text>
</a>
</g>
</g>
<!-- Node19 -->
<g id="node13" class="node"><title>Node19</title>
<g id="a_node13"><a xlink:href="group__spi__master__transport.html" target="_top" xlink:title="MCUXpressoSDK SPI master driver transport. ">
<polygon fill="white" stroke="black" points="264.5,-380.5 264.5,-399.5 329.5,-399.5 329.5,-380.5 264.5,-380.5"/>
<text text-anchor="middle" x="297" y="-387.5" font-family="Helvetica,sans-Serif" font-size="10.00">SPI Master</text>
</a>
</g>
</g>
<!-- Node17 -->
<g id="node14" class="node"><title>Node17</title>
<g id="a_node14"><a xlink:href="group__rpmsg__tty__rtos__transport.html" target="_top" xlink:title="RPMsg TTY RTOS transport. ">
<polygon fill="white" stroke="black" points="248,-342.5 248,-361.5 346,-361.5 346,-342.5 248,-342.5"/>
<text text-anchor="middle" x="297" y="-349.5" font-family="Helvetica,sans-Serif" font-size="10.00">RPMsg TTY RTOS</text>
</a>
</g>
</g>
<!-- Node6 -->
<g id="node15" class="node"><title>Node6</title>
<g id="a_node15"><a xlink:href="group__infra__server.html" target="_top" xlink:title="Server classes. ">
<polygon fill="white" stroke="black" points="275,-304.5 275,-323.5 319,-323.5 319,-304.5 275,-304.5"/>
<text text-anchor="middle" x="297" y="-311.5" font-family="Helvetica,sans-Serif" font-size="10.00">Server</text>
</a>
</g>
</g>
<!-- Node12 -->
<g id="node16" class="node"><title>Node12</title>
<g id="a_node16"><a xlink:href="group__lpi2c__slave__transport.html" target="_top" xlink:title="Lpi2c_slave_transport">
<polygon fill="white" stroke="black" points="242,-266.5 242,-285.5 352,-285.5 352,-266.5 242,-266.5"/>
<text text-anchor="middle" x="297" y="-273.5" font-family="Helvetica,sans-Serif" font-size="10.00">Lpi2c_slave_transport</text>
</a>
</g>
</g>
<!-- Node11 -->
<g id="node17" class="node"><title>Node11</title>
<g id="a_node17"><a xlink:href="group__itbp__transport.html" target="_top" xlink:title="Simple inter&#45;thread communications transport. ">
<polygon fill="white" stroke="black" points="264.5,-228.5 264.5,-247.5 329.5,-247.5 329.5,-228.5 264.5,-228.5"/>
<text text-anchor="middle" x="297" y="-235.5" font-family="Helvetica,sans-Serif" font-size="10.00">Inter&#45;thread</text>
</a>
</g>
</g>
<!-- Node8 -->
<g id="node18" class="node"><title>Node8</title>
<g id="a_node18"><a xlink:href="group__dspi__master__transport.html" target="_top" xlink:title="MCUXpressoSDK DSPI master driver transport. ">
<polygon fill="white" stroke="black" points="261,-190.5 261,-209.5 333,-209.5 333,-190.5 261,-190.5"/>
<text text-anchor="middle" x="297" y="-197.5" font-family="Helvetica,sans-Serif" font-size="10.00">DSPI Master</text>
</a>
</g>
</g>
<!-- Node24 -->
<g id="node19" class="node"><title>Node24</title>
<g id="a_node19"><a xlink:href="group___u_s_b___c_d_c__transport.html" target="_top" xlink:title="USB CDC transport. ">
<polygon fill="white" stroke="black" points="267,-152.5 267,-171.5 327,-171.5 327,-152.5 267,-152.5"/>
<text text-anchor="middle" x="297" y="-159.5" font-family="Helvetica,sans-Serif" font-size="10.00">USB CDC</text>
</a>
</g>
</g>
<!-- Node1 -->
<g id="node20" class="node"><title>Node1</title>
<g id="a_node20"><a xlink:href="group__setup.html" target="_top" xlink:title="C language setup functions. ">
<polygon fill="white" stroke="black" points="0,-418.5 0,-437.5 61,-437.5 61,-418.5 0,-418.5"/>
<text text-anchor="middle" x="30.5" y="-425.5" font-family="Helvetica,sans-Serif" font-size="10.00">Setup API</text>
</a>
</g>
</g>
<!-- Node0 -->
<g id="node24" class="node"><title>Node0</title>
<polygon fill="#bfbfbf" stroke="black" points="98,-418.5 98,-437.5 187,-437.5 187,-418.5 98,-418.5"/>
<text text-anchor="middle" x="142.5" y="-425.5" font-family="Helvetica,sans-Serif" font-size="10.00">Extension Setup</text>
</g>
<!-- Node1&#45;&gt;Node0 -->
<g id="edge1" class="edge"><title>Node1&#45;&gt;Node0</title>
<path fill="none" stroke="black" d="M71.3637,-428C79.906,-428 88.9765,-428 97.6596,-428"/>
<polygon fill="black" stroke="black" points="71.2676,-424.5 61.2676,-428 71.2675,-431.5 71.2676,-424.5"/>
</g>
<!-- Node3 -->
<g id="node21" class="node"><title>Node3</title>
<g id="a_node21"><a xlink:href="group__infra__codec.html" target="_top" xlink:title="Classes used for message serialization. ">
<polygon fill="white" stroke="black" points="262,-114.5 262,-133.5 332,-133.5 332,-114.5 262,-114.5"/>
<text text-anchor="middle" x="297" y="-121.5" font-family="Helvetica,sans-Serif" font-size="10.00">Serialization</text>
</a>
</g>
</g>
<!-- Node15 -->
<g id="node22" class="node"><title>Node15</title>
<g id="a_node22"><a xlink:href="group__rpmsg__lite__rtos__transport.html" target="_top" xlink:title="RPMsg&#45;Lite zero copy transport using RTOS API. ">
<polygon fill="white" stroke="black" points="248.5,-76.5 248.5,-95.5 345.5,-95.5 345.5,-76.5 248.5,-76.5"/>
<text text-anchor="middle" x="297" y="-83.5" font-family="Helvetica,sans-Serif" font-size="10.00">RPMsg&#45;Lite RTOS</text>
</a>
</g>
</g>
<!-- Node16 -->
<g id="node23" class="node"><title>Node16</title>
<g id="a_node23"><a xlink:href="group__rpmsg__lite__transport.html" target="_top" xlink:title="RPMsg&#45;Lite zero copy transport. ">
<polygon fill="white" stroke="black" points="263,-38.5 263,-57.5 331,-57.5 331,-38.5 263,-38.5"/>
<text text-anchor="middle" x="297" y="-45.5" font-family="Helvetica,sans-Serif" font-size="10.00">RPMsg&#45;Lite</text>
</a>
</g>
</g>
<!-- Node0&#45;&gt;Node9 -->
<g id="edge9" class="edge"><title>Node0&#45;&gt;Node9</title>
<path fill="none" stroke="blueviolet" stroke-dasharray="5,2" d="M144.331,-437.762C148.808,-488.951 171.128,-726.484 205,-791 215.665,-811.314 222.5,-814.91 242,-827 248.842,-831.242 256.76,-834.702 264.389,-837.45"/>
<text text-anchor="middle" x="214.5" y="-817" font-family="Helvetica,sans-Serif" font-size="10.00">erpc</text>
</g>
<!-- Node0&#45;&gt;Node10 -->
<g id="edge10" class="edge"><title>Node0&#45;&gt;Node10</title>
<path fill="none" stroke="blueviolet" stroke-dasharray="5,2" d="M143.273,-437.733C142.723,-478.766 144.659,-640.701 205,-753 215.86,-773.211 222.5,-776.91 242,-789 250.024,-793.975 259.529,-797.874 268.311,-800.811"/>
<text text-anchor="middle" x="214.5" y="-779" font-family="Helvetica,sans-Serif" font-size="10.00">erpc</text>
</g>
<!-- Node0&#45;&gt;Node7 -->
<g id="edge7" class="edge"><title>Node0&#45;&gt;Node7</title>
<path fill="none" stroke="blueviolet" stroke-dasharray="5,2" d="M143.588,-437.61C144.324,-475.45 150.753,-616.892 205,-715 216.102,-735.079 222.5,-738.91 242,-751 250.953,-756.551 261.75,-760.763 271.329,-763.793"/>
<text text-anchor="middle" x="214.5" y="-741" font-family="Helvetica,sans-Serif" font-size="10.00">erpc</text>
</g>
<!-- Node0&#45;&gt;Node14 -->
<g id="edge14" class="edge"><title>Node0&#45;&gt;Node14</title>
<path fill="none" stroke="blueviolet" stroke-dasharray="5,2" d="M144.001,-437.74C146.167,-472.548 156.936,-593.176 205,-677 216.413,-696.904 222.5,-700.91 242,-713 247.997,-716.718 254.821,-719.836 261.553,-722.399"/>
<text text-anchor="middle" x="214.5" y="-703" font-family="Helvetica,sans-Serif" font-size="10.00">erpc</text>
</g>
<!-- Node0&#45;&gt;Node22 -->
<g id="edge22" class="edge"><title>Node0&#45;&gt;Node22</title>
<path fill="none" stroke="blueviolet" stroke-dasharray="5,2" d="M144.63,-437.893C148.562,-469.239 163.735,-568.395 205,-638 216.86,-658.005 222.319,-662.61 242,-675 251.588,-681.036 263.345,-685.464 273.438,-688.519"/>
<text text-anchor="middle" x="214.5" y="-665" font-family="Helvetica,sans-Serif" font-size="10.00">erpc</text>
</g>
<!-- Node0&#45;&gt;Node2 -->
<g id="edge2" class="edge"><title>Node0&#45;&gt;Node2</title>
<path fill="none" stroke="blueviolet" stroke-dasharray="5,2" d="M145.609,-437.749C151.718,-464.643 171.181,-541.558 205,-597 217.611,-617.674 221.761,-623.701 242,-637 252.465,-643.876 265.71,-648.587 276.463,-651.597"/>
<text text-anchor="middle" x="214.5" y="-626" font-family="Helvetica,sans-Serif" font-size="10.00">erpc</text>
</g>
<!-- Node0&#45;&gt;Node4 -->
<g id="edge4" class="edge"><title>Node0&#45;&gt;Node4</title>
<path fill="none" stroke="blueviolet" stroke-dasharray="5,2" d="M145.85,-437.883C153.584,-468.019 181.299,-559.115 242,-599 249.226,-603.748 257.777,-607.463 265.919,-610.299"/>
<text text-anchor="middle" x="214.5" y="-585" font-family="Helvetica,sans-Serif" font-size="10.00">erpc</text>
</g>
<!-- Node0&#45;&gt;Node18 -->
<g id="edge18" class="edge"><title>Node0&#45;&gt;Node18</title>
<path fill="none" stroke="blueviolet" stroke-dasharray="5,2" d="M147.548,-437.669C158.568,-462.696 191.694,-529.809 242,-561 249.433,-565.609 258.137,-569.294 266.359,-572.146"/>
<text text-anchor="middle" x="214.5" y="-547" font-family="Helvetica,sans-Serif" font-size="10.00">erpc</text>
</g>
<!-- Node0&#45;&gt;Node5 -->
<g id="edge5" class="edge"><title>Node0&#45;&gt;Node5</title>
<path fill="none" stroke="blueviolet" stroke-dasharray="5,2" d="M150.817,-437.599C165.836,-456.655 202.105,-499.447 242,-523 251.328,-528.507 262.503,-532.769 272.26,-535.848"/>
<text text-anchor="middle" x="214.5" y="-513" font-family="Helvetica,sans-Serif" font-size="10.00">erpc</text>
</g>
<!-- Node0&#45;&gt;Node20 -->
<g id="edge20" class="edge"><title>Node0&#45;&gt;Node20</title>
<path fill="none" stroke="blueviolet" stroke-dasharray="5,2" d="M158.057,-437.582C176.884,-449.7 210.952,-470.706 242,-485 250.035,-488.699 259.009,-492.122 267.299,-495.015"/>
<text text-anchor="middle" x="214.5" y="-478" font-family="Helvetica,sans-Serif" font-size="10.00">erpc</text>
</g>
<!-- Node0&#45;&gt;Node23 -->
<g id="edge23" class="edge"><title>Node0&#45;&gt;Node23</title>
<path fill="none" stroke="blueviolet" stroke-dasharray="5,2" d="M181.982,-437.589C205.541,-443.459 235.536,-450.933 258.847,-456.742"/>
<text text-anchor="middle" x="214.5" y="-450" font-family="Helvetica,sans-Serif" font-size="10.00">erpc</text>
</g>
<!-- Node0&#45;&gt;Node21 -->
<g id="edge21" class="edge"><title>Node0&#45;&gt;Node21</title>
<path fill="none" stroke="blueviolet" stroke-dasharray="5,2" d="M187.2,-428C204.891,-428 225.46,-428 243.921,-428"/>
<text text-anchor="middle" x="214.5" y="-431" font-family="Helvetica,sans-Serif" font-size="10.00">erpc</text>
</g>
<!-- Node0&#45;&gt;Node19 -->
<g id="edge19" class="edge"><title>Node0&#45;&gt;Node19</title>
<path fill="none" stroke="blueviolet" stroke-dasharray="5,2" d="M181.982,-418.411C207.394,-412.079 240.294,-403.881 264.217,-397.92"/>
<text text-anchor="middle" x="214.5" y="-416" font-family="Helvetica,sans-Serif" font-size="10.00">erpc</text>
</g>
<!-- Node0&#45;&gt;Node17 -->
<g id="edge17" class="edge"><title>Node0&#45;&gt;Node17</title>
<path fill="none" stroke="blueviolet" stroke-dasharray="5,2" d="M158.057,-418.418C176.884,-406.3 210.952,-385.294 242,-371 249.493,-367.55 257.803,-364.34 265.614,-361.577"/>
<text text-anchor="middle" x="214.5" y="-393" font-family="Helvetica,sans-Serif" font-size="10.00">erpc</text>
</g>
<!-- Node0&#45;&gt;Node6 -->
<g id="edge6" class="edge"><title>Node0&#45;&gt;Node6</title>
<path fill="none" stroke="blueviolet" stroke-dasharray="5,2" d="M150.817,-418.401C165.836,-399.345 202.105,-356.553 242,-333 252.184,-326.987 264.569,-322.459 274.907,-319.334"/>
<text text-anchor="middle" x="214.5" y="-363" font-family="Helvetica,sans-Serif" font-size="10.00">erpc</text>
</g>
<!-- Node0&#45;&gt;Node12 -->
<g id="edge12" class="edge"><title>Node0&#45;&gt;Node12</title>
<path fill="none" stroke="blueviolet" stroke-dasharray="5,2" d="M147.548,-418.331C158.568,-393.304 191.694,-326.191 242,-295 247.997,-291.282 254.821,-288.164 261.553,-285.601"/>
<text text-anchor="middle" x="214.5" y="-327" font-family="Helvetica,sans-Serif" font-size="10.00">erpc</text>
</g>
<!-- Node0&#45;&gt;Node11 -->
<g id="edge11" class="edge"><title>Node0&#45;&gt;Node11</title>
<path fill="none" stroke="blueviolet" stroke-dasharray="5,2" d="M145.85,-418.117C153.584,-387.981 181.299,-296.885 242,-257 248.728,-252.579 256.604,-249.054 264.229,-246.3"/>
<text text-anchor="middle" x="214.5" y="-293" font-family="Helvetica,sans-Serif" font-size="10.00">erpc</text>
</g>
<!-- Node0&#45;&gt;Node8 -->
<g id="edge8" class="edge"><title>Node0&#45;&gt;Node8</title>
<path fill="none" stroke="blueviolet" stroke-dasharray="5,2" d="M145.609,-418.251C151.718,-391.357 171.181,-314.442 205,-259 217.611,-238.326 221.761,-232.299 242,-219 247.731,-215.234 254.296,-212.118 260.828,-209.575"/>
<text text-anchor="middle" x="214.5" y="-262" font-family="Helvetica,sans-Serif" font-size="10.00">erpc</text>
</g>
<!-- Node0&#45;&gt;Node24 -->
<g id="edge24" class="edge"><title>Node0&#45;&gt;Node24</title>
<path fill="none" stroke="blueviolet" stroke-dasharray="5,2" d="M144.63,-418.107C148.562,-386.761 163.735,-287.605 205,-218 216.86,-197.995 222.319,-193.39 242,-181 249.569,-176.235 258.491,-172.472 266.878,-169.595"/>
<text text-anchor="middle" x="214.5" y="-221" font-family="Helvetica,sans-Serif" font-size="10.00">erpc</text>
</g>
<!-- Node0&#45;&gt;Node3 -->
<g id="edge3" class="edge"><title>Node0&#45;&gt;Node3</title>
<path fill="none" stroke="blueviolet" stroke-dasharray="5,2" d="M144.001,-418.26C146.167,-383.452 156.936,-262.824 205,-179 216.413,-159.096 222.5,-155.09 242,-143 248.082,-139.229 255.014,-136.077 261.837,-133.493"/>
<text text-anchor="middle" x="214.5" y="-182" font-family="Helvetica,sans-Serif" font-size="10.00">erpc</text>
</g>
<!-- Node0&#45;&gt;Node15 -->
<g id="edge15" class="edge"><title>Node0&#45;&gt;Node15</title>
<path fill="none" stroke="blueviolet" stroke-dasharray="5,2" d="M143.588,-418.39C144.324,-380.55 150.753,-239.108 205,-141 216.102,-120.921 222.5,-117.09 242,-105 247.997,-101.282 254.821,-98.1644 261.553,-95.6008"/>
<text text-anchor="middle" x="214.5" y="-144" font-family="Helvetica,sans-Serif" font-size="10.00">erpc</text>
</g>
<!-- Node0&#45;&gt;Node16 -->
<g id="edge16" class="edge"><title>Node0&#45;&gt;Node16</title>
<path fill="none" stroke="blueviolet" stroke-dasharray="5,2" d="M143.273,-418.267C142.723,-377.234 144.659,-215.299 205,-103 215.86,-82.789 222.5,-79.0903 242,-67 248.419,-63.0198 255.787,-59.7283 262.973,-57.0674"/>
<text text-anchor="middle" x="214.5" y="-106" font-family="Helvetica,sans-Serif" font-size="10.00">erpc</text>
</g>
<!-- Node13 -->
<g id="node25" class="node"><title>Node13</title>
<g id="a_node25"><a xlink:href="group__lpspi__slave__transport.html" target="_top" xlink:title="Lpspi_slave_transport">
<polygon fill="white" stroke="black" points="242,-0.5 242,-19.5 352,-19.5 352,-0.5 242,-0.5"/>
<text text-anchor="middle" x="297" y="-7.5" font-family="Helvetica,sans-Serif" font-size="10.00">Lpspi_slave_transport</text>
</a>
</g>
</g>
<!-- Node0&#45;&gt;Node13 -->
<g id="edge13" class="edge"><title>Node0&#45;&gt;Node13</title>
<path fill="none" stroke="blueviolet" stroke-dasharray="5,2" d="M144.331,-418.238C148.808,-367.049 171.128,-129.516 205,-65 215.665,-44.6857 222.5,-41.0903 242,-29 247.997,-25.2817 254.821,-22.1644 261.553,-19.6008"/>
<text text-anchor="middle" x="214.5" y="-68" font-family="Helvetica,sans-Serif" font-size="10.00">erpc</text>
</g>
</g>
</svg>
