<?xml version="1.0" encoding="UTF-8" standalone="no"?>
<!DOCTYPE svg PUBLIC "-//W3C//DTD SVG 1.1//EN"
 "http://www.w3.org/Graphics/SVG/1.1/DTD/svg11.dtd">
<!-- Generated by graphviz version 2.38.0 (20140413.2041)
 -->
<!-- Title: Utilities Pages: 1 -->
<svg width="332pt" height="864pt"
 viewBox="0.00 0.00 332.00 864.00" xmlns="http://www.w3.org/2000/svg" xmlns:xlink="http://www.w3.org/1999/xlink">
<g id="graph0" class="graph" transform="scale(1 1) rotate(0) translate(4 860)">
<title>Utilities</title>
<polygon fill="white" stroke="none" points="-4,4 -4,-860 328,-860 328,4 -4,4"/>
<!-- Node9 -->
<g id="node1" class="node"><title>Node9</title>
<g id="a_node1"><a xlink:href="group__dspi__slave__transport.html" target="_top" xlink:title="MCUXpressoSDK DSPI slave driver transport. ">
<polygon fill="white" stroke="black" points="236.5,-836.5 236.5,-855.5 301.5,-855.5 301.5,-836.5 236.5,-836.5"/>
<text text-anchor="middle" x="269" y="-843.5" font-family="Helvetica,sans-Serif" font-size="10.00">DSPI Slave</text>
</a>
</g>
</g>
<!-- Node10 -->
<g id="node2" class="node"><title>Node10</title>
<g id="a_node2"><a xlink:href="group__i2c__slave__transport.html" target="_top" xlink:title="MCUXpressoSDK I2C slave driver transport. ">
<polygon fill="white" stroke="black" points="240.5,-798.5 240.5,-817.5 297.5,-817.5 297.5,-798.5 240.5,-798.5"/>
<text text-anchor="middle" x="269" y="-805.5" font-family="Helvetica,sans-Serif" font-size="10.00">I2C Slave</text>
</a>
</g>
</g>
<!-- Node7 -->
<g id="node3" class="node"><title>Node7</title>
<g id="a_node3"><a xlink:href="group__port__threads.html" target="_top" xlink:title="Threading model. ">
<polygon fill="white" stroke="black" points="243.5,-760.5 243.5,-779.5 294.5,-779.5 294.5,-760.5 243.5,-760.5"/>
<text text-anchor="middle" x="269" y="-767.5" font-family="Helvetica,sans-Serif" font-size="10.00">Threads</text>
</a>
</g>
</g>
<!-- Node14 -->
<g id="node4" class="node"><title>Node14</title>
<g id="a_node4"><a xlink:href="group__mu__transport.html" target="_top" xlink:title="Messaging Unit transport. ">
<polygon fill="white" stroke="black" points="227,-722.5 227,-741.5 311,-741.5 311,-722.5 227,-722.5"/>
<text text-anchor="middle" x="269" y="-729.5" font-family="Helvetica,sans-Serif" font-size="10.00">Messaging Unit</text>
</a>
</g>
</g>
<!-- Node22 -->
<g id="node5" class="node"><title>Node22</title>
<g id="a_node5"><a xlink:href="group__tcp__transport.html" target="_top" xlink:title="Simple TCP/IP transport. ">
<polygon fill="white" stroke="black" points="245.5,-684.5 245.5,-703.5 292.5,-703.5 292.5,-684.5 245.5,-684.5"/>
<text text-anchor="middle" x="269" y="-691.5" font-family="Helvetica,sans-Serif" font-size="10.00">TCP/IP</text>
</a>
</g>
</g>
<!-- Node1 -->
<g id="node6" class="node"><title>Node1</title>
<g id="a_node6"><a xlink:href="group__infra.html" target="_top" xlink:title="C++ core. ">
<polygon fill="white" stroke="black" points="0,-418.5 0,-437.5 73,-437.5 73,-418.5 0,-418.5"/>
<text text-anchor="middle" x="36.5" y="-425.5" font-family="Helvetica,sans-Serif" font-size="10.00">Infrastructure</text>
</a>
</g>
</g>
<!-- Node0 -->
<g id="node10" class="node"><title>Node0</title>
<polygon fill="#bfbfbf" stroke="black" points="110,-418.5 110,-437.5 159,-437.5 159,-418.5 110,-418.5"/>
<text text-anchor="middle" x="134.5" y="-425.5" font-family="Helvetica,sans-Serif" font-size="10.00">Utilities</text>
</g>
<!-- Node1&#45;&gt;Node0 -->
<g id="edge1" class="edge"><title>Node1&#45;&gt;Node0</title>
<path fill="none" stroke="black" d="M83.4896,-428C92.662,-428 101.933,-428 109.958,-428"/>
<polygon fill="black" stroke="black" points="83.2469,-424.5 73.2469,-428 83.2468,-431.5 83.2469,-424.5"/>
</g>
<!-- Node2 -->
<g id="node7" class="node"><title>Node2</title>
<g id="a_node7"><a xlink:href="group__infra__client.html" target="_top" xlink:title="Client classes. ">
<polygon fill="white" stroke="black" points="248.5,-646.5 248.5,-665.5 289.5,-665.5 289.5,-646.5 248.5,-646.5"/>
<text text-anchor="middle" x="269" y="-653.5" font-family="Helvetica,sans-Serif" font-size="10.00">Client</text>
</a>
</g>
</g>
<!-- Node4 -->
<g id="node8" class="node"><title>Node4</title>
<g id="a_node8"><a xlink:href="group__infra__transport.html" target="_top" xlink:title="Superclasses for building transports. ">
<polygon fill="white" stroke="black" points="238,-608.5 238,-627.5 300,-627.5 300,-608.5 238,-608.5"/>
<text text-anchor="middle" x="269" y="-615.5" font-family="Helvetica,sans-Serif" font-size="10.00">Transports</text>
</a>
</g>
</g>
<!-- Node18 -->
<g id="node9" class="node"><title>Node18</title>
<g id="a_node9"><a xlink:href="group__serial__transport.html" target="_top" xlink:title="POSIX and Win32 serial port transport. ">
<polygon fill="white" stroke="black" points="238.5,-570.5 238.5,-589.5 299.5,-589.5 299.5,-570.5 238.5,-570.5"/>
<text text-anchor="middle" x="269" y="-577.5" font-family="Helvetica,sans-Serif" font-size="10.00">Serial port</text>
</a>
</g>
</g>
<!-- Node0&#45;&gt;Node9 -->
<g id="edge9" class="edge"><title>Node0&#45;&gt;Node9</title>
<path fill="none" stroke="blueviolet" stroke-dasharray="5,2" d="M135.718,-437.783C136.993,-489.082 144.593,-727.137 177,-792 188.577,-815.172 215.007,-829.2 236.416,-837.127"/>
<text text-anchor="middle" x="186.5" y="-816" font-family="Helvetica,sans-Serif" font-size="10.00">erpc</text>
</g>
<!-- Node0&#45;&gt;Node10 -->
<g id="edge10" class="edge"><title>Node0&#45;&gt;Node10</title>
<path fill="none" stroke="blueviolet" stroke-dasharray="5,2" d="M135.88,-437.656C137.882,-485.304 148.226,-695.365 177,-753 187.249,-773.528 194.5,-776.91 214,-789 222.024,-793.975 231.529,-797.874 240.311,-800.811"/>
<text text-anchor="middle" x="186.5" y="-780" font-family="Helvetica,sans-Serif" font-size="10.00">erpc</text>
</g>
<!-- Node0&#45;&gt;Node7 -->
<g id="edge7" class="edge"><title>Node0&#45;&gt;Node7</title>
<path fill="none" stroke="blueviolet" stroke-dasharray="5,2" d="M136.065,-437.68C138.769,-481.893 151.339,-664.65 177,-715 187.419,-735.442 194.5,-738.91 214,-751 222.953,-756.551 233.75,-760.763 243.329,-763.793"/>
<text text-anchor="middle" x="186.5" y="-741" font-family="Helvetica,sans-Serif" font-size="10.00">erpc</text>
</g>
<!-- Node0&#45;&gt;Node14 -->
<g id="edge14" class="edge"><title>Node0&#45;&gt;Node14</title>
<path fill="none" stroke="blueviolet" stroke-dasharray="5,2" d="M135.026,-437.709C133.746,-472.415 132.905,-592.739 177,-677 187.638,-697.329 194.5,-700.91 214,-713 219.997,-716.718 226.821,-719.836 233.553,-722.399"/>
<text text-anchor="middle" x="186.5" y="-703" font-family="Helvetica,sans-Serif" font-size="10.00">erpc</text>
</g>
<!-- Node0&#45;&gt;Node22 -->
<g id="edge22" class="edge"><title>Node0&#45;&gt;Node22</title>
<path fill="none" stroke="blueviolet" stroke-dasharray="5,2" d="M135.411,-437.503C135.509,-468.507 138.932,-568.758 177,-639 187.932,-659.172 194.5,-662.91 214,-675 223.629,-680.97 235.391,-685.391 245.476,-688.458"/>
<text text-anchor="middle" x="186.5" y="-665" font-family="Helvetica,sans-Serif" font-size="10.00">erpc</text>
</g>
<!-- Node0&#45;&gt;Node2 -->
<g id="edge2" class="edge"><title>Node0&#45;&gt;Node2</title>
<path fill="none" stroke="blueviolet" stroke-dasharray="5,2" d="M135.955,-437.679C137.618,-465.09 145.078,-544.892 177,-601 188.346,-620.942 194.5,-624.91 214,-637 224.558,-643.546 237.68,-648.23 248.345,-651.309"/>
<text text-anchor="middle" x="186.5" y="-627" font-family="Helvetica,sans-Serif" font-size="10.00">erpc</text>
</g>
<!-- Node0&#45;&gt;Node4 -->
<g id="edge4" class="edge"><title>Node0&#45;&gt;Node4</title>
<path fill="none" stroke="blueviolet" stroke-dasharray="5,2" d="M136.868,-437.749C140.44,-460.799 151.586,-519.878 177,-562 189.014,-581.912 194.319,-586.61 214,-599 221.233,-603.554 229.7,-607.192 237.757,-610.016"/>
<text text-anchor="middle" x="186.5" y="-589" font-family="Helvetica,sans-Serif" font-size="10.00">erpc</text>
</g>
<!-- Node0&#45;&gt;Node18 -->
<g id="edge18" class="edge"><title>Node0&#45;&gt;Node18</title>
<path fill="none" stroke="blueviolet" stroke-dasharray="5,2" d="M138.311,-437.593C143.861,-455.581 157.41,-495.163 177,-524 190.068,-543.237 194.319,-548.61 214,-561 221.401,-565.659 230.095,-569.361 238.318,-572.212"/>
<text text-anchor="middle" x="186.5" y="-550" font-family="Helvetica,sans-Serif" font-size="10.00">erpc</text>
</g>
<!-- Node20 -->
<g id="node11" class="node"><title>Node20</title>
<g id="a_node11"><a xlink:href="group__spi__slave__transport.html" target="_top" xlink:title="MCUXpressoSDK SPI slave driver transport. ">
<polygon fill="white" stroke="black" points="239.5,-532.5 239.5,-551.5 298.5,-551.5 298.5,-532.5 239.5,-532.5"/>
<text text-anchor="middle" x="269" y="-539.5" font-family="Helvetica,sans-Serif" font-size="10.00">SPI Slave</text>
</a>
</g>
</g>
<!-- Node0&#45;&gt;Node20 -->
<g id="edge20" class="edge"><title>Node0&#45;&gt;Node20</title>
<path fill="none" stroke="blueviolet" stroke-dasharray="5,2" d="M140.464,-437.696C151.058,-457.319 177.889,-501.681 214,-523 221.788,-527.598 230.862,-531.328 239.325,-534.226"/>
<text text-anchor="middle" x="186.5" y="-512" font-family="Helvetica,sans-Serif" font-size="10.00">erpc</text>
</g>
<!-- Node23 -->
<g id="node12" class="node"><title>Node23</title>
<g id="a_node12"><a xlink:href="group__uart__transport.html" target="_top" xlink:title="CMSIS UART driver transport. ">
<polygon fill="white" stroke="black" points="231,-494.5 231,-513.5 307,-513.5 307,-494.5 231,-494.5"/>
<text text-anchor="middle" x="269" y="-501.5" font-family="Helvetica,sans-Serif" font-size="10.00">CMSIS UART</text>
</a>
</g>
</g>
<!-- Node0&#45;&gt;Node23 -->
<g id="edge23" class="edge"><title>Node0&#45;&gt;Node23</title>
<path fill="none" stroke="blueviolet" stroke-dasharray="5,2" d="M146.03,-437.717C154.194,-445.04 165.942,-455.13 177,-463 192.587,-474.093 196.669,-476.896 214,-485 221.472,-488.494 229.776,-491.72 237.586,-494.483"/>
<text text-anchor="middle" x="186.5" y="-478" font-family="Helvetica,sans-Serif" font-size="10.00">erpc</text>
</g>
<!-- Node21 -->
<g id="node13" class="node"><title>Node21</title>
<g id="a_node13"><a xlink:href="group__spidev__master__transport.html" target="_top" xlink:title="SPIdev Linux transport. ">
<polygon fill="white" stroke="black" points="216,-456.5 216,-475.5 322,-475.5 322,-456.5 216,-456.5"/>
<text text-anchor="middle" x="269" y="-463.5" font-family="Helvetica,sans-Serif" font-size="10.00">SPIdev Linux Master</text>
</a>
</g>
</g>
<!-- Node0&#45;&gt;Node21 -->
<g id="edge21" class="edge"><title>Node0&#45;&gt;Node21</title>
<path fill="none" stroke="blueviolet" stroke-dasharray="5,2" d="M159.065,-436.976C164.89,-439.067 171.14,-441.205 177,-443 193.048,-447.915 210.914,-452.598 226.537,-456.441"/>
<text text-anchor="middle" x="186.5" y="-451" font-family="Helvetica,sans-Serif" font-size="10.00">erpc</text>
</g>
<!-- Node19 -->
<g id="node14" class="node"><title>Node19</title>
<g id="a_node14"><a xlink:href="group__spi__master__transport.html" target="_top" xlink:title="MCUXpressoSDK SPI master driver transport. ">
<polygon fill="white" stroke="black" points="236.5,-418.5 236.5,-437.5 301.5,-437.5 301.5,-418.5 236.5,-418.5"/>
<text text-anchor="middle" x="269" y="-425.5" font-family="Helvetica,sans-Serif" font-size="10.00">SPI Master</text>
</a>
</g>
</g>
<!-- Node0&#45;&gt;Node19 -->
<g id="edge19" class="edge"><title>Node0&#45;&gt;Node19</title>
<path fill="none" stroke="blueviolet" stroke-dasharray="5,2" d="M159.188,-428C180.626,-428 212.375,-428 236.052,-428"/>
<text text-anchor="middle" x="186.5" y="-431" font-family="Helvetica,sans-Serif" font-size="10.00">erpc</text>
</g>
<!-- Node17 -->
<g id="node15" class="node"><title>Node17</title>
<g id="a_node15"><a xlink:href="group__rpmsg__tty__rtos__transport.html" target="_top" xlink:title="RPMsg TTY RTOS transport. ">
<polygon fill="white" stroke="black" points="220,-380.5 220,-399.5 318,-399.5 318,-380.5 220,-380.5"/>
<text text-anchor="middle" x="269" y="-387.5" font-family="Helvetica,sans-Serif" font-size="10.00">RPMsg TTY RTOS</text>
</a>
</g>
</g>
<!-- Node0&#45;&gt;Node17 -->
<g id="edge17" class="edge"><title>Node0&#45;&gt;Node17</title>
<path fill="none" stroke="blueviolet" stroke-dasharray="5,2" d="M159.065,-419.024C164.89,-416.933 171.14,-414.795 177,-413 193.048,-408.085 210.914,-403.402 226.537,-399.559"/>
<text text-anchor="middle" x="186.5" y="-416" font-family="Helvetica,sans-Serif" font-size="10.00">erpc</text>
</g>
<!-- Node5 -->
<g id="node16" class="node"><title>Node5</title>
<g id="a_node16"><a xlink:href="group__infra__server.html" target="_top" xlink:title="Server classes. ">
<polygon fill="white" stroke="black" points="247,-342.5 247,-361.5 291,-361.5 291,-342.5 247,-342.5"/>
<text text-anchor="middle" x="269" y="-349.5" font-family="Helvetica,sans-Serif" font-size="10.00">Server</text>
</a>
</g>
</g>
<!-- Node0&#45;&gt;Node5 -->
<g id="edge5" class="edge"><title>Node0&#45;&gt;Node5</title>
<path fill="none" stroke="blueviolet" stroke-dasharray="5,2" d="M146.03,-418.283C154.194,-410.96 165.942,-400.87 177,-393 192.587,-381.907 196.669,-379.104 214,-371 224.533,-366.075 236.718,-361.683 246.844,-358.366"/>
<text text-anchor="middle" x="186.5" y="-396" font-family="Helvetica,sans-Serif" font-size="10.00">erpc</text>
</g>
<!-- Node12 -->
<g id="node17" class="node"><title>Node12</title>
<g id="a_node17"><a xlink:href="group__lpi2c__slave__transport.html" target="_top" xlink:title="Lpi2c_slave_transport">
<polygon fill="white" stroke="black" points="214,-304.5 214,-323.5 324,-323.5 324,-304.5 214,-304.5"/>
<text text-anchor="middle" x="269" y="-311.5" font-family="Helvetica,sans-Serif" font-size="10.00">Lpi2c_slave_transport</text>
</a>
</g>
</g>
<!-- Node0&#45;&gt;Node12 -->
<g id="edge12" class="edge"><title>Node0&#45;&gt;Node12</title>
<path fill="none" stroke="blueviolet" stroke-dasharray="5,2" d="M140.464,-418.304C151.058,-398.681 177.889,-354.319 214,-333 220.247,-329.312 227.323,-326.182 234.246,-323.592"/>
<text text-anchor="middle" x="186.5" y="-367" font-family="Helvetica,sans-Serif" font-size="10.00">erpc</text>
</g>
<!-- Node11 -->
<g id="node18" class="node"><title>Node11</title>
<g id="a_node18"><a xlink:href="group__itbp__transport.html" target="_top" xlink:title="Simple inter&#45;thread communications transport. ">
<polygon fill="white" stroke="black" points="236.5,-266.5 236.5,-285.5 301.5,-285.5 301.5,-266.5 236.5,-266.5"/>
<text text-anchor="middle" x="269" y="-273.5" font-family="Helvetica,sans-Serif" font-size="10.00">Inter&#45;thread</text>
</a>
</g>
</g>
<!-- Node0&#45;&gt;Node11 -->
<g id="edge11" class="edge"><title>Node0&#45;&gt;Node11</title>
<path fill="none" stroke="blueviolet" stroke-dasharray="5,2" d="M138.311,-418.407C143.861,-400.419 157.41,-360.837 177,-332 190.068,-312.763 194.319,-307.39 214,-295 220.813,-290.711 228.72,-287.234 236.348,-284.485"/>
<text text-anchor="middle" x="186.5" y="-335" font-family="Helvetica,sans-Serif" font-size="10.00">erpc</text>
</g>
<!-- Node8 -->
<g id="node19" class="node"><title>Node8</title>
<g id="a_node19"><a xlink:href="group__dspi__master__transport.html" target="_top" xlink:title="MCUXpressoSDK DSPI master driver transport. ">
<polygon fill="white" stroke="black" points="233,-228.5 233,-247.5 305,-247.5 305,-228.5 233,-228.5"/>
<text text-anchor="middle" x="269" y="-235.5" font-family="Helvetica,sans-Serif" font-size="10.00">DSPI Master</text>
</a>
</g>
</g>
<!-- Node0&#45;&gt;Node8 -->
<g id="edge8" class="edge"><title>Node0&#45;&gt;Node8</title>
<path fill="none" stroke="blueviolet" stroke-dasharray="5,2" d="M136.868,-418.251C140.44,-395.201 151.586,-336.122 177,-294 189.014,-274.088 194.319,-269.39 214,-257 219.971,-253.241 226.784,-250.105 233.512,-247.537"/>
<text text-anchor="middle" x="186.5" y="-297" font-family="Helvetica,sans-Serif" font-size="10.00">erpc</text>
</g>
<!-- Node24 -->
<g id="node20" class="node"><title>Node24</title>
<g id="a_node20"><a xlink:href="group___u_s_b___c_d_c__transport.html" target="_top" xlink:title="USB CDC transport. ">
<polygon fill="white" stroke="black" points="239,-190.5 239,-209.5 299,-209.5 299,-190.5 239,-190.5"/>
<text text-anchor="middle" x="269" y="-197.5" font-family="Helvetica,sans-Serif" font-size="10.00">USB CDC</text>
</a>
</g>
</g>
<!-- Node0&#45;&gt;Node24 -->
<g id="edge24" class="edge"><title>Node0&#45;&gt;Node24</title>
<path fill="none" stroke="blueviolet" stroke-dasharray="5,2" d="M135.955,-418.321C137.618,-390.91 145.078,-311.108 177,-255 188.346,-235.058 194.5,-231.09 214,-219 221.602,-214.287 230.533,-210.539 238.919,-207.661"/>
<text text-anchor="middle" x="186.5" y="-258" font-family="Helvetica,sans-Serif" font-size="10.00">erpc</text>
</g>
<!-- Node3 -->
<g id="node21" class="node"><title>Node3</title>
<g id="a_node21"><a xlink:href="group__infra__codec.html" target="_top" xlink:title="Classes used for message serialization. ">
<polygon fill="white" stroke="black" points="234,-152.5 234,-171.5 304,-171.5 304,-152.5 234,-152.5"/>
<text text-anchor="middle" x="269" y="-159.5" font-family="Helvetica,sans-Serif" font-size="10.00">Serialization</text>
</a>
</g>
</g>
<!-- Node0&#45;&gt;Node3 -->
<g id="edge3" class="edge"><title>Node0&#45;&gt;Node3</title>
<path fill="none" stroke="blueviolet" stroke-dasharray="5,2" d="M135.411,-418.497C135.509,-387.493 138.932,-287.242 177,-217 187.932,-196.828 194.5,-193.09 214,-181 220.082,-177.229 227.014,-174.077 233.837,-171.493"/>
<text text-anchor="middle" x="186.5" y="-220" font-family="Helvetica,sans-Serif" font-size="10.00">erpc</text>
</g>
<!-- Node15 -->
<g id="node22" class="node"><title>Node15</title>
<g id="a_node22"><a xlink:href="group__rpmsg__lite__rtos__transport.html" target="_top" xlink:title="RPMsg&#45;Lite zero copy transport using RTOS API. ">
<polygon fill="white" stroke="black" points="220.5,-114.5 220.5,-133.5 317.5,-133.5 317.5,-114.5 220.5,-114.5"/>
<text text-anchor="middle" x="269" y="-121.5" font-family="Helvetica,sans-Serif" font-size="10.00">RPMsg&#45;Lite RTOS</text>
</a>
</g>
</g>
<!-- Node0&#45;&gt;Node15 -->
<g id="edge15" class="edge"><title>Node0&#45;&gt;Node15</title>
<path fill="none" stroke="blueviolet" stroke-dasharray="5,2" d="M135.026,-418.291C133.746,-383.585 132.905,-263.261 177,-179 187.638,-158.671 194.5,-155.09 214,-143 219.997,-139.282 226.821,-136.164 233.553,-133.601"/>
<text text-anchor="middle" x="186.5" y="-182" font-family="Helvetica,sans-Serif" font-size="10.00">erpc</text>
</g>
<!-- Node16 -->
<g id="node23" class="node"><title>Node16</title>
<g id="a_node23"><a xlink:href="group__rpmsg__lite__transport.html" target="_top" xlink:title="RPMsg&#45;Lite zero copy transport. ">
<polygon fill="white" stroke="black" points="235,-76.5 235,-95.5 303,-95.5 303,-76.5 235,-76.5"/>
<text text-anchor="middle" x="269" y="-83.5" font-family="Helvetica,sans-Serif" font-size="10.00">RPMsg&#45;Lite</text>
</a>
</g>
</g>
<!-- Node0&#45;&gt;Node16 -->
<g id="edge16" class="edge"><title>Node0&#45;&gt;Node16</title>
<path fill="none" stroke="blueviolet" stroke-dasharray="5,2" d="M136.065,-418.32C138.769,-374.107 151.339,-191.35 177,-141 187.419,-120.558 194.5,-117.09 214,-105 220.419,-101.02 227.787,-97.7283 234.973,-95.0674"/>
<text text-anchor="middle" x="186.5" y="-144" font-family="Helvetica,sans-Serif" font-size="10.00">erpc</text>
</g>
<!-- Node6 -->
<g id="node24" class="node"><title>Node6</title>
<g id="a_node24"><a xlink:href="group__port__setup__extensions.html" target="_top" xlink:title="Extension setup functions. ">
<polygon fill="white" stroke="black" points="224.5,-38.5 224.5,-57.5 313.5,-57.5 313.5,-38.5 224.5,-38.5"/>
<text text-anchor="middle" x="269" y="-45.5" font-family="Helvetica,sans-Serif" font-size="10.00">Extension Setup</text>
</a>
</g>
</g>
<!-- Node0&#45;&gt;Node6 -->
<g id="edge6" class="edge"><title>Node0&#45;&gt;Node6</title>
<path fill="none" stroke="blueviolet" stroke-dasharray="5,2" d="M135.88,-418.344C137.882,-370.696 148.226,-160.635 177,-103 187.249,-82.4723 194.5,-79.0903 214,-67 219.997,-63.2817 226.821,-60.1644 233.553,-57.6008"/>
<text text-anchor="middle" x="186.5" y="-106" font-family="Helvetica,sans-Serif" font-size="10.00">erpc</text>
</g>
<!-- Node13 -->
<g id="node25" class="node"><title>Node13</title>
<g id="a_node25"><a xlink:href="group__lpspi__slave__transport.html" target="_top" xlink:title="Lpspi_slave_transport">
<polygon fill="white" stroke="black" points="214,-0.5 214,-19.5 324,-19.5 324,-0.5 214,-0.5"/>
<text text-anchor="middle" x="269" y="-7.5" font-family="Helvetica,sans-Serif" font-size="10.00">Lpspi_slave_transport</text>
</a>
</g>
</g>
<!-- Node0&#45;&gt;Node13 -->
<g id="edge13" class="edge"><title>Node0&#45;&gt;Node13</title>
<path fill="none" stroke="blueviolet" stroke-dasharray="5,2" d="M135.718,-418.217C136.993,-366.918 144.593,-128.863 177,-64 188.249,-41.4856 213.519,-27.6035 234.583,-19.5623"/>
<text text-anchor="middle" x="186.5" y="-67" font-family="Helvetica,sans-Serif" font-size="10.00">erpc</text>
</g>
</g>
</svg>
