<?xml version="1.0" encoding="UTF-8" standalone="no"?>
<!DOCTYPE svg PUBLIC "-//W3C//DTD SVG 1.1//EN"
 "http://www.w3.org/Graphics/SVG/1.1/DTD/svg11.dtd">
<!-- Generated by graphviz version 2.38.0 (20140413.2041)
 -->
<!-- Title: Messaging Unit Pages: 1 -->
<svg width="383pt" height="864pt"
 viewBox="0.00 0.00 383.00 864.00" xmlns="http://www.w3.org/2000/svg" xmlns:xlink="http://www.w3.org/1999/xlink">
<g id="graph0" class="graph" transform="scale(1 1) rotate(0) translate(4 860)">
<title>Messaging Unit</title>
<polygon fill="white" stroke="none" points="-4,4 -4,-860 379,-860 379,4 -4,4"/>
<!-- Node1 -->
<g id="node1" class="node"><title>Node1</title>
<g id="a_node1"><a xlink:href="group__transports.html" target="_top" xlink:title="Transport layer classes. ">
<polygon fill="white" stroke="black" points="0,-418.5 0,-437.5 89,-437.5 89,-418.5 0,-418.5"/>
<text text-anchor="middle" x="44.5" y="-425.5" font-family="Helvetica,sans-Serif" font-size="10.00">Transport Layers</text>
</a>
</g>
</g>
<!-- Node0 -->
<g id="node5" class="node"><title>Node0</title>
<polygon fill="#bfbfbf" stroke="black" points="126,-418.5 126,-437.5 210,-437.5 210,-418.5 126,-418.5"/>
<text text-anchor="middle" x="168" y="-425.5" font-family="Helvetica,sans-Serif" font-size="10.00">Messaging Unit</text>
</g>
<!-- Node1&#45;&gt;Node0 -->
<g id="edge1" class="edge"><title>Node1&#45;&gt;Node0</title>
<path fill="none" stroke="black" d="M99.028,-428C108.009,-428 117.204,-428 125.813,-428"/>
<polygon fill="black" stroke="black" points="99.0211,-424.5 89.0211,-428 99.0211,-431.5 99.0211,-424.5"/>
</g>
<!-- Node10 -->
<g id="node2" class="node"><title>Node10</title>
<g id="a_node2"><a xlink:href="group__dspi__slave__transport.html" target="_top" xlink:title="MCUXpressoSDK DSPI slave driver transport. ">
<polygon fill="white" stroke="black" points="287.5,-836.5 287.5,-855.5 352.5,-855.5 352.5,-836.5 287.5,-836.5"/>
<text text-anchor="middle" x="320" y="-843.5" font-family="Helvetica,sans-Serif" font-size="10.00">DSPI Slave</text>
</a>
</g>
</g>
<!-- Node11 -->
<g id="node3" class="node"><title>Node11</title>
<g id="a_node3"><a xlink:href="group__i2c__slave__transport.html" target="_top" xlink:title="MCUXpressoSDK I2C slave driver transport. ">
<polygon fill="white" stroke="black" points="291.5,-798.5 291.5,-817.5 348.5,-817.5 348.5,-798.5 291.5,-798.5"/>
<text text-anchor="middle" x="320" y="-805.5" font-family="Helvetica,sans-Serif" font-size="10.00">I2C Slave</text>
</a>
</g>
</g>
<!-- Node8 -->
<g id="node4" class="node"><title>Node8</title>
<g id="a_node4"><a xlink:href="group__port__threads.html" target="_top" xlink:title="Threading model. ">
<polygon fill="white" stroke="black" points="294.5,-760.5 294.5,-779.5 345.5,-779.5 345.5,-760.5 294.5,-760.5"/>
<text text-anchor="middle" x="320" y="-767.5" font-family="Helvetica,sans-Serif" font-size="10.00">Threads</text>
</a>
</g>
</g>
<!-- Node0&#45;&gt;Node10 -->
<g id="edge10" class="edge"><title>Node0&#45;&gt;Node10</title>
<path fill="none" stroke="blueviolet" stroke-dasharray="5,2" d="M169.757,-437.761C173.846,-488.942 194.382,-726.442 228,-791 238.597,-811.35 245.5,-814.91 265,-827 271.842,-831.242 279.76,-834.702 287.389,-837.45"/>
<text text-anchor="middle" x="237.5" y="-817" font-family="Helvetica,sans-Serif" font-size="10.00">erpc</text>
</g>
<!-- Node0&#45;&gt;Node11 -->
<g id="edge11" class="edge"><title>Node0&#45;&gt;Node11</title>
<path fill="none" stroke="blueviolet" stroke-dasharray="5,2" d="M168.679,-437.729C167.736,-478.748 168.16,-640.633 228,-753 238.785,-773.251 245.5,-776.91 265,-789 273.024,-793.975 282.529,-797.874 291.311,-800.811"/>
<text text-anchor="middle" x="237.5" y="-779" font-family="Helvetica,sans-Serif" font-size="10.00">erpc</text>
</g>
<!-- Node0&#45;&gt;Node8 -->
<g id="edge8" class="edge"><title>Node0&#45;&gt;Node8</title>
<path fill="none" stroke="blueviolet" stroke-dasharray="5,2" d="M168.984,-437.607C169.312,-475.435 174.257,-616.839 228,-715 239.018,-735.125 245.5,-738.91 265,-751 273.953,-756.551 284.75,-760.763 294.329,-763.793"/>
<text text-anchor="middle" x="237.5" y="-741" font-family="Helvetica,sans-Serif" font-size="10.00">erpc</text>
</g>
<!-- Node22 -->
<g id="node6" class="node"><title>Node22</title>
<g id="a_node6"><a xlink:href="group__tcp__transport.html" target="_top" xlink:title="Simple TCP/IP transport. ">
<polygon fill="white" stroke="black" points="296.5,-722.5 296.5,-741.5 343.5,-741.5 343.5,-722.5 296.5,-722.5"/>
<text text-anchor="middle" x="320" y="-729.5" font-family="Helvetica,sans-Serif" font-size="10.00">TCP/IP</text>
</a>
</g>
</g>
<!-- Node0&#45;&gt;Node22 -->
<g id="edge22" class="edge"><title>Node0&#45;&gt;Node22</title>
<path fill="none" stroke="blueviolet" stroke-dasharray="5,2" d="M169.38,-437.737C171.117,-472.538 180.444,-593.141 228,-677 239.318,-696.958 245.5,-700.91 265,-713 274.629,-718.97 286.391,-723.391 296.476,-726.458"/>
<text text-anchor="middle" x="237.5" y="-703" font-family="Helvetica,sans-Serif" font-size="10.00">erpc</text>
</g>
<!-- Node2 -->
<g id="node7" class="node"><title>Node2</title>
<g id="a_node7"><a xlink:href="group__infra__client.html" target="_top" xlink:title="Client classes. ">
<polygon fill="white" stroke="black" points="299.5,-684.5 299.5,-703.5 340.5,-703.5 340.5,-684.5 299.5,-684.5"/>
<text text-anchor="middle" x="320" y="-691.5" font-family="Helvetica,sans-Serif" font-size="10.00">Client</text>
</a>
</g>
</g>
<!-- Node0&#45;&gt;Node2 -->
<g id="edge2" class="edge"><title>Node0&#45;&gt;Node2</title>
<path fill="none" stroke="blueviolet" stroke-dasharray="5,2" d="M169.985,-437.892C173.465,-469.237 187.247,-568.389 228,-638 239.75,-658.07 245.319,-662.61 265,-675 275.513,-681.618 288.634,-686.304 299.31,-689.365"/>
<text text-anchor="middle" x="237.5" y="-665" font-family="Helvetica,sans-Serif" font-size="10.00">erpc</text>
</g>
<!-- Node4 -->
<g id="node8" class="node"><title>Node4</title>
<g id="a_node8"><a xlink:href="group__infra__transport.html" target="_top" xlink:title="Superclasses for building transports. ">
<polygon fill="white" stroke="black" points="289,-646.5 289,-665.5 351,-665.5 351,-646.5 289,-646.5"/>
<text text-anchor="middle" x="320" y="-653.5" font-family="Helvetica,sans-Serif" font-size="10.00">Transports</text>
</a>
</g>
</g>
<!-- Node0&#45;&gt;Node4 -->
<g id="edge4" class="edge"><title>Node0&#45;&gt;Node4</title>
<path fill="none" stroke="blueviolet" stroke-dasharray="5,2" d="M170.755,-437.524C176.034,-464.506 193.572,-543.117 228,-599 240.364,-619.069 245.136,-624.309 265,-637 272.286,-641.655 280.857,-645.341 288.997,-648.178"/>
<text text-anchor="middle" x="237.5" y="-626" font-family="Helvetica,sans-Serif" font-size="10.00">erpc</text>
</g>
<!-- Node18 -->
<g id="node9" class="node"><title>Node18</title>
<g id="a_node9"><a xlink:href="group__serial__transport.html" target="_top" xlink:title="POSIX and Win32 serial port transport. ">
<polygon fill="white" stroke="black" points="289.5,-608.5 289.5,-627.5 350.5,-627.5 350.5,-608.5 289.5,-608.5"/>
<text text-anchor="middle" x="320" y="-615.5" font-family="Helvetica,sans-Serif" font-size="10.00">Serial port</text>
</a>
</g>
</g>
<!-- Node0&#45;&gt;Node18 -->
<g id="edge18" class="edge"><title>Node0&#45;&gt;Node18</title>
<path fill="none" stroke="blueviolet" stroke-dasharray="5,2" d="M172.004,-437.517C179.369,-460.036 199.802,-517.859 228,-560 241.287,-579.857 244.95,-586.006 265,-599 272.339,-603.756 281.014,-607.488 289.238,-610.337"/>
<text text-anchor="middle" x="237.5" y="-587" font-family="Helvetica,sans-Serif" font-size="10.00">erpc</text>
</g>
<!-- Node5 -->
<g id="node10" class="node"><title>Node5</title>
<g id="a_node10"><a xlink:href="group__infra__utility.html" target="_top" xlink:title="Utility code used by the infrastructure. ">
<polygon fill="white" stroke="black" points="295.5,-570.5 295.5,-589.5 344.5,-589.5 344.5,-570.5 295.5,-570.5"/>
<text text-anchor="middle" x="320" y="-577.5" font-family="Helvetica,sans-Serif" font-size="10.00">Utilities</text>
</a>
</g>
</g>
<!-- Node0&#45;&gt;Node5 -->
<g id="edge5" class="edge"><title>Node0&#45;&gt;Node5</title>
<path fill="none" stroke="blueviolet" stroke-dasharray="5,2" d="M172.85,-437.701C183.363,-462.804 215.143,-530.088 265,-561 274.291,-566.761 285.568,-571.079 295.408,-574.13"/>
<text text-anchor="middle" x="237.5" y="-548" font-family="Helvetica,sans-Serif" font-size="10.00">erpc</text>
</g>
<!-- Node20 -->
<g id="node11" class="node"><title>Node20</title>
<g id="a_node11"><a xlink:href="group__spi__slave__transport.html" target="_top" xlink:title="MCUXpressoSDK SPI slave driver transport. ">
<polygon fill="white" stroke="black" points="290.5,-532.5 290.5,-551.5 349.5,-551.5 349.5,-532.5 290.5,-532.5"/>
<text text-anchor="middle" x="320" y="-539.5" font-family="Helvetica,sans-Serif" font-size="10.00">SPI Slave</text>
</a>
</g>
</g>
<!-- Node0&#45;&gt;Node20 -->
<g id="edge20" class="edge"><title>Node0&#45;&gt;Node20</title>
<path fill="none" stroke="blueviolet" stroke-dasharray="5,2" d="M176.048,-437.652C190.535,-456.802 225.627,-499.755 265,-523 272.788,-527.598 281.862,-531.328 290.325,-534.226"/>
<text text-anchor="middle" x="237.5" y="-513" font-family="Helvetica,sans-Serif" font-size="10.00">erpc</text>
</g>
<!-- Node23 -->
<g id="node12" class="node"><title>Node23</title>
<g id="a_node12"><a xlink:href="group__uart__transport.html" target="_top" xlink:title="CMSIS UART driver transport. ">
<polygon fill="white" stroke="black" points="282,-494.5 282,-513.5 358,-513.5 358,-494.5 282,-494.5"/>
<text text-anchor="middle" x="320" y="-501.5" font-family="Helvetica,sans-Serif" font-size="10.00">CMSIS UART</text>
</a>
</g>
</g>
<!-- Node0&#45;&gt;Node23 -->
<g id="edge23" class="edge"><title>Node0&#45;&gt;Node23</title>
<path fill="none" stroke="blueviolet" stroke-dasharray="5,2" d="M183.15,-437.614C201.459,-449.765 234.619,-470.806 265,-485 272.473,-488.492 280.777,-491.716 288.587,-494.48"/>
<text text-anchor="middle" x="237.5" y="-478" font-family="Helvetica,sans-Serif" font-size="10.00">erpc</text>
</g>
<!-- Node21 -->
<g id="node13" class="node"><title>Node21</title>
<g id="a_node13"><a xlink:href="group__spidev__master__transport.html" target="_top" xlink:title="SPIdev Linux transport. ">
<polygon fill="white" stroke="black" points="267,-456.5 267,-475.5 373,-475.5 373,-456.5 267,-456.5"/>
<text text-anchor="middle" x="320" y="-463.5" font-family="Helvetica,sans-Serif" font-size="10.00">SPIdev Linux Master</text>
</a>
</g>
</g>
<!-- Node0&#45;&gt;Node21 -->
<g id="edge21" class="edge"><title>Node0&#45;&gt;Node21</title>
<path fill="none" stroke="blueviolet" stroke-dasharray="5,2" d="M206.452,-437.53C213.605,-439.348 221.033,-441.234 228,-443 245.375,-447.405 264.62,-452.27 280.92,-456.388"/>
<text text-anchor="middle" x="237.5" y="-450" font-family="Helvetica,sans-Serif" font-size="10.00">erpc</text>
</g>
<!-- Node19 -->
<g id="node14" class="node"><title>Node19</title>
<g id="a_node14"><a xlink:href="group__spi__master__transport.html" target="_top" xlink:title="MCUXpressoSDK SPI master driver transport. ">
<polygon fill="white" stroke="black" points="287.5,-418.5 287.5,-437.5 352.5,-437.5 352.5,-418.5 287.5,-418.5"/>
<text text-anchor="middle" x="320" y="-425.5" font-family="Helvetica,sans-Serif" font-size="10.00">SPI Master</text>
</a>
</g>
</g>
<!-- Node0&#45;&gt;Node19 -->
<g id="edge19" class="edge"><title>Node0&#45;&gt;Node19</title>
<path fill="none" stroke="blueviolet" stroke-dasharray="5,2" d="M210.385,-428C234.666,-428 264.873,-428 287.263,-428"/>
<text text-anchor="middle" x="237.5" y="-431" font-family="Helvetica,sans-Serif" font-size="10.00">erpc</text>
</g>
<!-- Node17 -->
<g id="node15" class="node"><title>Node17</title>
<g id="a_node15"><a xlink:href="group__rpmsg__tty__rtos__transport.html" target="_top" xlink:title="RPMsg TTY RTOS transport. ">
<polygon fill="white" stroke="black" points="271,-380.5 271,-399.5 369,-399.5 369,-380.5 271,-380.5"/>
<text text-anchor="middle" x="320" y="-387.5" font-family="Helvetica,sans-Serif" font-size="10.00">RPMsg TTY RTOS</text>
</a>
</g>
</g>
<!-- Node0&#45;&gt;Node17 -->
<g id="edge17" class="edge"><title>Node0&#45;&gt;Node17</title>
<path fill="none" stroke="blueviolet" stroke-dasharray="5,2" d="M206.452,-418.47C213.605,-416.652 221.033,-414.766 228,-413 245.375,-408.595 264.62,-403.73 280.92,-399.612"/>
<text text-anchor="middle" x="237.5" y="-416" font-family="Helvetica,sans-Serif" font-size="10.00">erpc</text>
</g>
<!-- Node6 -->
<g id="node16" class="node"><title>Node6</title>
<g id="a_node16"><a xlink:href="group__infra__server.html" target="_top" xlink:title="Server classes. ">
<polygon fill="white" stroke="black" points="298,-342.5 298,-361.5 342,-361.5 342,-342.5 298,-342.5"/>
<text text-anchor="middle" x="320" y="-349.5" font-family="Helvetica,sans-Serif" font-size="10.00">Server</text>
</a>
</g>
</g>
<!-- Node0&#45;&gt;Node6 -->
<g id="edge6" class="edge"><title>Node0&#45;&gt;Node6</title>
<path fill="none" stroke="blueviolet" stroke-dasharray="5,2" d="M183.15,-418.386C201.459,-406.235 234.619,-385.194 265,-371 275.535,-366.078 287.72,-361.686 297.846,-358.368"/>
<text text-anchor="middle" x="237.5" y="-392" font-family="Helvetica,sans-Serif" font-size="10.00">erpc</text>
</g>
<!-- Node13 -->
<g id="node17" class="node"><title>Node13</title>
<g id="a_node17"><a xlink:href="group__lpi2c__slave__transport.html" target="_top" xlink:title="Lpi2c_slave_transport">
<polygon fill="white" stroke="black" points="265,-304.5 265,-323.5 375,-323.5 375,-304.5 265,-304.5"/>
<text text-anchor="middle" x="320" y="-311.5" font-family="Helvetica,sans-Serif" font-size="10.00">Lpi2c_slave_transport</text>
</a>
</g>
</g>
<!-- Node0&#45;&gt;Node13 -->
<g id="edge13" class="edge"><title>Node0&#45;&gt;Node13</title>
<path fill="none" stroke="blueviolet" stroke-dasharray="5,2" d="M176.018,-418.297C190.452,-399.055 225.451,-355.944 265,-333 271.361,-329.309 278.557,-326.165 285.573,-323.559"/>
<text text-anchor="middle" x="237.5" y="-362" font-family="Helvetica,sans-Serif" font-size="10.00">erpc</text>
</g>
<!-- Node12 -->
<g id="node18" class="node"><title>Node12</title>
<g id="a_node18"><a xlink:href="group__itbp__transport.html" target="_top" xlink:title="Simple inter&#45;thread communications transport. ">
<polygon fill="white" stroke="black" points="287.5,-266.5 287.5,-285.5 352.5,-285.5 352.5,-266.5 287.5,-266.5"/>
<text text-anchor="middle" x="320" y="-273.5" font-family="Helvetica,sans-Serif" font-size="10.00">Inter&#45;thread</text>
</a>
</g>
</g>
<!-- Node0&#45;&gt;Node12 -->
<g id="edge12" class="edge"><title>Node0&#45;&gt;Node12</title>
<path fill="none" stroke="blueviolet" stroke-dasharray="5,2" d="M172.825,-418.259C183.278,-393.058 214.927,-325.561 265,-295 271.871,-290.806 279.801,-287.364 287.43,-284.618"/>
<text text-anchor="middle" x="237.5" y="-329" font-family="Helvetica,sans-Serif" font-size="10.00">erpc</text>
</g>
<!-- Node9 -->
<g id="node19" class="node"><title>Node9</title>
<g id="a_node19"><a xlink:href="group__dspi__master__transport.html" target="_top" xlink:title="MCUXpressoSDK DSPI master driver transport. ">
<polygon fill="white" stroke="black" points="284,-228.5 284,-247.5 356,-247.5 356,-228.5 284,-228.5"/>
<text text-anchor="middle" x="320" y="-235.5" font-family="Helvetica,sans-Serif" font-size="10.00">DSPI Master</text>
</a>
</g>
</g>
<!-- Node0&#45;&gt;Node9 -->
<g id="edge9" class="edge"><title>Node0&#45;&gt;Node9</title>
<path fill="none" stroke="blueviolet" stroke-dasharray="5,2" d="M171.952,-418.385C179.203,-395.638 199.408,-337.263 228,-295 241.209,-275.476 245.136,-269.691 265,-257 270.863,-253.254 277.556,-250.137 284.189,-247.583"/>
<text text-anchor="middle" x="237.5" y="-298" font-family="Helvetica,sans-Serif" font-size="10.00">erpc</text>
</g>
<!-- Node24 -->
<g id="node20" class="node"><title>Node24</title>
<g id="a_node20"><a xlink:href="group___u_s_b___c_d_c__transport.html" target="_top" xlink:title="USB CDC transport. ">
<polygon fill="white" stroke="black" points="290,-190.5 290,-209.5 350,-209.5 350,-190.5 290,-190.5"/>
<text text-anchor="middle" x="320" y="-197.5" font-family="Helvetica,sans-Serif" font-size="10.00">USB CDC</text>
</a>
</g>
</g>
<!-- Node0&#45;&gt;Node24 -->
<g id="edge24" class="edge"><title>Node0&#45;&gt;Node24</title>
<path fill="none" stroke="blueviolet" stroke-dasharray="5,2" d="M170.651,-418.316C175.659,-390.891 192.552,-311.055 228,-255 240.263,-235.608 245.5,-231.09 265,-219 272.602,-214.287 281.533,-210.539 289.919,-207.661"/>
<text text-anchor="middle" x="237.5" y="-258" font-family="Helvetica,sans-Serif" font-size="10.00">erpc</text>
</g>
<!-- Node3 -->
<g id="node21" class="node"><title>Node3</title>
<g id="a_node21"><a xlink:href="group__infra__codec.html" target="_top" xlink:title="Classes used for message serialization. ">
<polygon fill="white" stroke="black" points="285,-152.5 285,-171.5 355,-171.5 355,-152.5 285,-152.5"/>
<text text-anchor="middle" x="320" y="-159.5" font-family="Helvetica,sans-Serif" font-size="10.00">Serialization</text>
</a>
</g>
</g>
<!-- Node0&#45;&gt;Node3 -->
<g id="edge3" class="edge"><title>Node0&#45;&gt;Node3</title>
<path fill="none" stroke="blueviolet" stroke-dasharray="5,2" d="M169.836,-418.408C172.926,-387.121 185.804,-286.027 228,-216 239.683,-196.612 245.678,-192.793 265,-181 271.108,-177.272 278.052,-174.138 284.878,-171.559"/>
<text text-anchor="middle" x="237.5" y="-219" font-family="Helvetica,sans-Serif" font-size="10.00">erpc</text>
</g>
<!-- Node15 -->
<g id="node22" class="node"><title>Node15</title>
<g id="a_node22"><a xlink:href="group__rpmsg__lite__rtos__transport.html" target="_top" xlink:title="RPMsg&#45;Lite zero copy transport using RTOS API. ">
<polygon fill="white" stroke="black" points="271.5,-114.5 271.5,-133.5 368.5,-133.5 368.5,-114.5 271.5,-114.5"/>
<text text-anchor="middle" x="320" y="-121.5" font-family="Helvetica,sans-Serif" font-size="10.00">RPMsg&#45;Lite RTOS</text>
</a>
</g>
</g>
<!-- Node0&#45;&gt;Node15 -->
<g id="edge15" class="edge"><title>Node0&#45;&gt;Node15</title>
<path fill="none" stroke="blueviolet" stroke-dasharray="5,2" d="M169.276,-418.137C170.664,-382.896 178.957,-260.848 228,-177 239.276,-157.722 245.853,-154.497 265,-143 271.22,-139.265 278.283,-136.116 285.204,-133.521"/>
<text text-anchor="middle" x="237.5" y="-180" font-family="Helvetica,sans-Serif" font-size="10.00">erpc</text>
</g>
<!-- Node16 -->
<g id="node23" class="node"><title>Node16</title>
<g id="a_node23"><a xlink:href="group__rpmsg__lite__transport.html" target="_top" xlink:title="RPMsg&#45;Lite zero copy transport. ">
<polygon fill="white" stroke="black" points="286,-76.5 286,-95.5 354,-95.5 354,-76.5 286,-76.5"/>
<text text-anchor="middle" x="320" y="-83.5" font-family="Helvetica,sans-Serif" font-size="10.00">RPMsg&#45;Lite</text>
</a>
</g>
</g>
<!-- Node0&#45;&gt;Node16 -->
<g id="edge16" class="edge"><title>Node0&#45;&gt;Node16</title>
<path fill="none" stroke="blueviolet" stroke-dasharray="5,2" d="M168.883,-418.28C168.835,-380.017 172.56,-237.073 228,-139 238.99,-119.558 245.853,-116.497 265,-105 271.39,-101.163 278.671,-97.9434 285.772,-95.3089"/>
<text text-anchor="middle" x="237.5" y="-142" font-family="Helvetica,sans-Serif" font-size="10.00">erpc</text>
</g>
<!-- Node7 -->
<g id="node24" class="node"><title>Node7</title>
<g id="a_node24"><a xlink:href="group__port__setup__extensions.html" target="_top" xlink:title="Extension setup functions. ">
<polygon fill="white" stroke="black" points="275.5,-38.5 275.5,-57.5 364.5,-57.5 364.5,-38.5 275.5,-38.5"/>
<text text-anchor="middle" x="320" y="-45.5" font-family="Helvetica,sans-Serif" font-size="10.00">Extension Setup</text>
</a>
</g>
</g>
<!-- Node0&#45;&gt;Node7 -->
<g id="edge7" class="edge"><title>Node0&#45;&gt;Node7</title>
<path fill="none" stroke="blueviolet" stroke-dasharray="5,2" d="M168.588,-418.444C167.235,-377.449 166.118,-213.453 228,-101 238.767,-81.4338 245.853,-78.4965 265,-67 271.22,-63.2653 278.283,-60.1156 285.204,-57.5209"/>
<text text-anchor="middle" x="237.5" y="-104" font-family="Helvetica,sans-Serif" font-size="10.00">erpc</text>
</g>
<!-- Node14 -->
<g id="node25" class="node"><title>Node14</title>
<g id="a_node25"><a xlink:href="group__lpspi__slave__transport.html" target="_top" xlink:title="Lpspi_slave_transport">
<polygon fill="white" stroke="black" points="265,-0.5 265,-19.5 375,-19.5 375,-0.5 265,-0.5"/>
<text text-anchor="middle" x="320" y="-7.5" font-family="Helvetica,sans-Serif" font-size="10.00">Lpspi_slave_transport</text>
</a>
</g>
</g>
<!-- Node0&#45;&gt;Node14 -->
<g id="edge14" class="edge"><title>Node0&#45;&gt;Node14</title>
<path fill="none" stroke="blueviolet" stroke-dasharray="5,2" d="M169.718,-418.168C173.611,-366.617 193.307,-127.43 228,-63 239.788,-41.1074 264.734,-27.5177 285.531,-19.5877"/>
<text text-anchor="middle" x="237.5" y="-66" font-family="Helvetica,sans-Serif" font-size="10.00">erpc</text>
</g>
</g>
</svg>
