<?xml version="1.0" encoding="UTF-8" standalone="no"?>
<!DOCTYPE svg PUBLIC "-//W3C//DTD SVG 1.1//EN"
 "http://www.w3.org/Graphics/SVG/1.1/DTD/svg11.dtd">
<!-- Generated by graphviz version 2.38.0 (20140413.2041)
 -->
<!-- Title: Serialization Pages: 1 -->
<svg width="368pt" height="572pt"
 viewBox="0.00 0.00 368.00 571.50" xmlns="http://www.w3.org/2000/svg" xmlns:xlink="http://www.w3.org/1999/xlink">
<g id="graph0" class="graph" transform="scale(1 1) rotate(0) translate(4 567.5)">
<title>Serialization</title>
<polygon fill="white" stroke="none" points="-4,4 -4,-567.5 364,-567.5 364,4 -4,4"/>
<!-- Node8 -->
<g id="node1" class="node"><title>Node8</title>
<g id="a_node1"><a xlink:href="group__dspi__slave__transport.html" target="_top" xlink:title="Kinetis SDK DSPI slave driver transport. ">
<polygon fill="white" stroke="black" points="265,-544 265,-563 330,-563 330,-544 265,-544"/>
<text text-anchor="middle" x="297.5" y="-551" font-family="Helvetica,sans-Serif" font-size="10.00">DSPI Slave</text>
</a>
</g>
</g>
<!-- Node6 -->
<g id="node2" class="node"><title>Node6</title>
<g id="a_node2"><a xlink:href="group__port__threads.html" target="_top" xlink:title="Threading model. ">
<polygon fill="white" stroke="black" points="272,-506 272,-525 323,-525 323,-506 272,-506"/>
<text text-anchor="middle" x="297.5" y="-513" font-family="Helvetica,sans-Serif" font-size="10.00">Threads</text>
</a>
</g>
</g>
<!-- Node15 -->
<g id="node3" class="node"><title>Node15</title>
<g id="a_node3"><a xlink:href="group__tcp__transport.html" target="_top" xlink:title="Simple TCP/IP transport. ">
<polygon fill="white" stroke="black" points="274,-468 274,-487 321,-487 321,-468 274,-468"/>
<text text-anchor="middle" x="297.5" y="-475" font-family="Helvetica,sans-Serif" font-size="10.00">TCP/IP</text>
</a>
</g>
</g>
<!-- Node1 -->
<g id="node4" class="node"><title>Node1</title>
<g id="a_node4"><a xlink:href="group__infra.html" target="_top" xlink:title="C++ core. ">
<polygon fill="white" stroke="black" points="0,-278 0,-297 73,-297 73,-278 0,-278"/>
<text text-anchor="middle" x="36.5" y="-285" font-family="Helvetica,sans-Serif" font-size="10.00">Infrastructure</text>
</a>
</g>
</g>
<!-- Node0 -->
<g id="node16" class="node"><title>Node0</title>
<polygon fill="#bfbfbf" stroke="black" points="110,-278 110,-297 180,-297 180,-278 110,-278"/>
<text text-anchor="middle" x="145" y="-285" font-family="Helvetica,sans-Serif" font-size="10.00">Serialization</text>
</g>
<!-- Node1&#45;&gt;Node0 -->
<g id="edge1" class="edge"><title>Node1&#45;&gt;Node0</title>
<path fill="none" stroke="black" d="M83.5,-287.5C92.3827,-287.5 101.54,-287.5 109.957,-287.5"/>
<polygon fill="black" stroke="black" points="83.2593,-284 73.2592,-287.5 83.2592,-291 83.2593,-284"/>
</g>
<!-- Node2 -->
<g id="node5" class="node"><title>Node2</title>
<g id="a_node5"><a xlink:href="group__infra__client.html" target="_top" xlink:title="Client classes. ">
<polygon fill="white" stroke="black" points="277,-430 277,-449 318,-449 318,-430 277,-430"/>
<text text-anchor="middle" x="297.5" y="-437" font-family="Helvetica,sans-Serif" font-size="10.00">Client</text>
</a>
</g>
</g>
<!-- Node11 -->
<g id="node6" class="node"><title>Node11</title>
<g id="a_node6"><a xlink:href="group__rpmsg__lite__zc__transport.html" target="_top" xlink:title="Rpmsg_lite_zc_transport">
<polygon fill="white" stroke="black" points="235,-392 235,-411 360,-411 360,-392 235,-392"/>
<text text-anchor="middle" x="297.5" y="-399" font-family="Helvetica,sans-Serif" font-size="10.00">Rpmsg_lite_zc_transport</text>
</a>
</g>
</g>
<!-- Node3 -->
<g id="node7" class="node"><title>Node3</title>
<g id="a_node7"><a xlink:href="group__infra__transport.html" target="_top" xlink:title="Superclasses for building transports. ">
<polygon fill="white" stroke="black" points="266.5,-354 266.5,-373 328.5,-373 328.5,-354 266.5,-354"/>
<text text-anchor="middle" x="297.5" y="-361" font-family="Helvetica,sans-Serif" font-size="10.00">Transports</text>
</a>
</g>
</g>
<!-- Node12 -->
<g id="node8" class="node"><title>Node12</title>
<g id="a_node8"><a xlink:href="group__serial__transport.html" target="_top" xlink:title="POSIX and Win32 serial port transport. ">
<polygon fill="white" stroke="black" points="267,-316 267,-335 328,-335 328,-316 267,-316"/>
<text text-anchor="middle" x="297.5" y="-323" font-family="Helvetica,sans-Serif" font-size="10.00">Serial port</text>
</a>
</g>
</g>
<!-- Node4 -->
<g id="node9" class="node"><title>Node4</title>
<g id="a_node9"><a xlink:href="group__infra__utility.html" target="_top" xlink:title="Utility code used by the infrastructure. ">
<polygon fill="white" stroke="black" points="273,-278 273,-297 322,-297 322,-278 273,-278"/>
<text text-anchor="middle" x="297.5" y="-285" font-family="Helvetica,sans-Serif" font-size="10.00">Utilities</text>
</a>
</g>
</g>
<!-- Node14 -->
<g id="node10" class="node"><title>Node14</title>
<g id="a_node10"><a xlink:href="group__spi__slave__transport.html" target="_top" xlink:title="Kinetis SDK SPI slave driver transport. ">
<polygon fill="white" stroke="black" points="268,-240 268,-259 327,-259 327,-240 268,-240"/>
<text text-anchor="middle" x="297.5" y="-247" font-family="Helvetica,sans-Serif" font-size="10.00">SPI Slave</text>
</a>
</g>
</g>
<!-- Node16 -->
<g id="node11" class="node"><title>Node16</title>
<g id="a_node11"><a xlink:href="group__uart__transport.html" target="_top" xlink:title="CMSIS UART driver transport. ">
<polygon fill="white" stroke="black" points="259.5,-202 259.5,-221 335.5,-221 335.5,-202 259.5,-202"/>
<text text-anchor="middle" x="297.5" y="-209" font-family="Helvetica,sans-Serif" font-size="10.00">CMSIS UART</text>
</a>
</g>
</g>
<!-- Node13 -->
<g id="node12" class="node"><title>Node13</title>
<g id="a_node12"><a xlink:href="group__spi__master__transport.html" target="_top" xlink:title="Kinetis SDK SPI master driver transport. ">
<polygon fill="white" stroke="black" points="265,-164 265,-183 330,-183 330,-164 265,-164"/>
<text text-anchor="middle" x="297.5" y="-171" font-family="Helvetica,sans-Serif" font-size="10.00">SPI Master</text>
</a>
</g>
</g>
<!-- Node5 -->
<g id="node13" class="node"><title>Node5</title>
<g id="a_node13"><a xlink:href="group__infra__server.html" target="_top" xlink:title="Server classes. ">
<polygon fill="white" stroke="black" points="275.5,-126 275.5,-145 319.5,-145 319.5,-126 275.5,-126"/>
<text text-anchor="middle" x="297.5" y="-133" font-family="Helvetica,sans-Serif" font-size="10.00">Server</text>
</a>
</g>
</g>
<!-- Node9 -->
<g id="node14" class="node"><title>Node9</title>
<g id="a_node14"><a xlink:href="group__itbp__transport.html" target="_top" xlink:title="Simple inter&#45;thread communications transport. ">
<polygon fill="white" stroke="black" points="265,-88 265,-107 330,-107 330,-88 265,-88"/>
<text text-anchor="middle" x="297.5" y="-95" font-family="Helvetica,sans-Serif" font-size="10.00">Inter&#45;thread</text>
</a>
</g>
</g>
<!-- Node7 -->
<g id="node15" class="node"><title>Node7</title>
<g id="a_node15"><a xlink:href="group__dspi__master__transport.html" target="_top" xlink:title="Kinetis SDK DSPI master driver transport. ">
<polygon fill="white" stroke="black" points="261.5,-50 261.5,-69 333.5,-69 333.5,-50 261.5,-50"/>
<text text-anchor="middle" x="297.5" y="-57" font-family="Helvetica,sans-Serif" font-size="10.00">DSPI Master</text>
</a>
</g>
</g>
<!-- Node0&#45;&gt;Node8 -->
<g id="edge8" class="edge"><title>Node0&#45;&gt;Node8</title>
<path fill="none" stroke="blueviolet" stroke-dasharray="5,2" d="M146.394,-297.155C148.069,-328.643 156.571,-430.362 198,-500.5 209.358,-519.729 215.635,-523.376 235,-534.5 244.109,-539.732 254.82,-543.684 264.729,-546.59"/>
<text text-anchor="middle" x="207.5" y="-526.5" font-family="Helvetica,sans-Serif" font-size="10.00">erpc</text>
</g>
<!-- Node0&#45;&gt;Node6 -->
<g id="edge6" class="edge"><title>Node0&#45;&gt;Node6</title>
<path fill="none" stroke="blueviolet" stroke-dasharray="5,2" d="M147.122,-297.267C150.657,-324.921 163.458,-405.385 198,-461.5 209.866,-480.777 215.454,-485.083 235,-496.5 246.29,-503.094 260.106,-507.63 271.781,-510.611"/>
<text text-anchor="middle" x="207.5" y="-488.5" font-family="Helvetica,sans-Serif" font-size="10.00">erpc</text>
</g>
<!-- Node0&#45;&gt;Node15 -->
<g id="edge15" class="edge"><title>Node0&#45;&gt;Node15</title>
<path fill="none" stroke="blueviolet" stroke-dasharray="5,2" d="M148.344,-297.137C154.18,-319.931 170.874,-378.402 198,-420.5 210.768,-440.315 214.894,-446.195 235,-458.5 246.819,-465.733 261.618,-470.417 273.736,-473.324"/>
<text text-anchor="middle" x="207.5" y="-449.5" font-family="Helvetica,sans-Serif" font-size="10.00">erpc</text>
</g>
<!-- Node0&#45;&gt;Node2 -->
<g id="edge2" class="edge"><title>Node0&#45;&gt;Node2</title>
<path fill="none" stroke="blueviolet" stroke-dasharray="5,2" d="M149.098,-297.026C157.878,-322.304 185.545,-391.145 235,-420.5 247.973,-428.2 264.366,-433.063 276.965,-435.939"/>
<text text-anchor="middle" x="207.5" y="-408.5" font-family="Helvetica,sans-Serif" font-size="10.00">erpc</text>
</g>
<!-- Node0&#45;&gt;Node11 -->
<g id="edge11" class="edge"><title>Node0&#45;&gt;Node11</title>
<path fill="none" stroke="blueviolet" stroke-dasharray="5,2" d="M151.964,-297.219C164.593,-316.885 196.095,-361.321 235,-382.5 241.87,-386.24 249.582,-389.355 257.161,-391.908"/>
<text text-anchor="middle" x="207.5" y="-372.5" font-family="Helvetica,sans-Serif" font-size="10.00">erpc</text>
</g>
<!-- Node0&#45;&gt;Node3 -->
<g id="edge3" class="edge"><title>Node0&#45;&gt;Node3</title>
<path fill="none" stroke="blueviolet" stroke-dasharray="5,2" d="M158.278,-297.093C174.84,-309.615 205.655,-331.464 235,-344.5 244.906,-348.901 256.135,-352.694 266.262,-355.709"/>
<text text-anchor="middle" x="207.5" y="-339.5" font-family="Helvetica,sans-Serif" font-size="10.00">erpc</text>
</g>
<!-- Node0&#45;&gt;Node12 -->
<g id="edge12" class="edge"><title>Node0&#45;&gt;Node12</title>
<path fill="none" stroke="blueviolet" stroke-dasharray="5,2" d="M178.106,-297.041C184.67,-298.913 191.545,-300.817 198,-302.5 220.94,-308.483 247.077,-314.552 266.66,-318.952"/>
<text text-anchor="middle" x="207.5" y="-310.5" font-family="Helvetica,sans-Serif" font-size="10.00">erpc</text>
</g>
<!-- Node0&#45;&gt;Node4 -->
<g id="edge4" class="edge"><title>Node0&#45;&gt;Node4</title>
<path fill="none" stroke="blueviolet" stroke-dasharray="5,2" d="M180.151,-287.5C208.424,-287.5 247.862,-287.5 272.785,-287.5"/>
<text text-anchor="middle" x="207.5" y="-290.5" font-family="Helvetica,sans-Serif" font-size="10.00">erpc</text>
</g>
<!-- Node0&#45;&gt;Node14 -->
<g id="edge14" class="edge"><title>Node0&#45;&gt;Node14</title>
<path fill="none" stroke="blueviolet" stroke-dasharray="5,2" d="M178.106,-277.959C184.67,-276.087 191.545,-274.183 198,-272.5 221.449,-266.384 248.24,-260.179 267.956,-255.757"/>
<text text-anchor="middle" x="207.5" y="-275.5" font-family="Helvetica,sans-Serif" font-size="10.00">erpc</text>
</g>
<!-- Node0&#45;&gt;Node16 -->
<g id="edge16" class="edge"><title>Node0&#45;&gt;Node16</title>
<path fill="none" stroke="blueviolet" stroke-dasharray="5,2" d="M158.317,-277.994C174.923,-265.568 205.785,-243.825 235,-230.5 242.931,-226.883 251.738,-223.706 260.151,-221.037"/>
<text text-anchor="middle" x="207.5" y="-253.5" font-family="Helvetica,sans-Serif" font-size="10.00">erpc</text>
</g>
<!-- Node0&#45;&gt;Node13 -->
<g id="edge13" class="edge"><title>Node0&#45;&gt;Node13</title>
<path fill="none" stroke="blueviolet" stroke-dasharray="5,2" d="M152.018,-277.88C164.749,-258.396 196.427,-214.278 235,-192.5 244.147,-187.335 254.869,-183.402 264.775,-180.492"/>
<text text-anchor="middle" x="207.5" y="-224.5" font-family="Helvetica,sans-Serif" font-size="10.00">erpc</text>
</g>
<!-- Node0&#45;&gt;Node5 -->
<g id="edge5" class="edge"><title>Node0&#45;&gt;Node5</title>
<path fill="none" stroke="blueviolet" stroke-dasharray="5,2" d="M149.25,-277.643C158.224,-252.163 185.985,-184.049 235,-154.5 247.346,-147.057 262.866,-142.291 275.226,-139.393"/>
<text text-anchor="middle" x="207.5" y="-189.5" font-family="Helvetica,sans-Serif" font-size="10.00">erpc</text>
</g>
<!-- Node0&#45;&gt;Node9 -->
<g id="edge9" class="edge"><title>Node0&#45;&gt;Node9</title>
<path fill="none" stroke="blueviolet" stroke-dasharray="5,2" d="M148.397,-277.959C154.347,-255.389 171.269,-197.464 198,-155.5 210.837,-135.348 214.702,-129.104 235,-116.5 244.019,-110.9 254.813,-106.839 264.824,-103.947"/>
<text text-anchor="middle" x="207.5" y="-158.5" font-family="Helvetica,sans-Serif" font-size="10.00">erpc</text>
</g>
<!-- Node0&#45;&gt;Node7 -->
<g id="edge7" class="edge"><title>Node0&#45;&gt;Node7</title>
<path fill="none" stroke="blueviolet" stroke-dasharray="5,2" d="M147.228,-277.893C151.043,-250.681 164.507,-171.439 198,-115.5 209.947,-95.5471 215.083,-90.5069 235,-78.5 243.039,-73.6535 252.424,-69.9419 261.406,-67.1422"/>
<text text-anchor="middle" x="207.5" y="-118.5" font-family="Helvetica,sans-Serif" font-size="10.00">erpc</text>
</g>
<!-- Node10 -->
<g id="node17" class="node"><title>Node10</title>
<g id="a_node17"><a xlink:href="group__rpmsg__lite__zc__rtos__transport.html" target="_top" xlink:title="Rpmsg_lite_zc_rtos\l_transport">
<polygon fill="white" stroke="black" points="246,-0.5 246,-30.5 349,-30.5 349,-0.5 246,-0.5"/>
<text text-anchor="start" x="254" y="-18.5" font-family="Helvetica,sans-Serif" font-size="10.00">Rpmsg_lite_zc_rtos</text>
<text text-anchor="middle" x="297.5" y="-7.5" font-family="Helvetica,sans-Serif" font-size="10.00">_transport</text>
</a>
</g>
</g>
<!-- Node0&#45;&gt;Node10 -->
<g id="edge10" class="edge"><title>Node0&#45;&gt;Node10</title>
<path fill="none" stroke="blueviolet" stroke-dasharray="5,2" d="M146.498,-277.982C148.491,-246.931 157.858,-146.551 198,-76.5 209.408,-56.593 215.795,-53.0527 235,-40.5 240.692,-36.7797 247.027,-33.4463 253.406,-30.5191"/>
<text text-anchor="middle" x="207.5" y="-79.5" font-family="Helvetica,sans-Serif" font-size="10.00">erpc</text>
</g>
</g>
</svg>
