<?xml version="1.0" encoding="UTF-8" standalone="no"?>
<!DOCTYPE svg PUBLIC "-//W3C//DTD SVG 1.1//EN"
 "http://www.w3.org/Graphics/SVG/1.1/DTD/svg11.dtd">
<!-- Generated by graphviz version 2.38.0 (20140413.2041)
 -->
<!-- Title: Porting Pages: 1 -->
<svg width="149pt" height="180pt"
 viewBox="0.00 0.00 149.00 180.00" xmlns="http://www.w3.org/2000/svg" xmlns:xlink="http://www.w3.org/1999/xlink">
<g id="graph0" class="graph" transform="scale(1 1) rotate(0) translate(4 176)">
<title>Porting</title>
<polygon fill="white" stroke="none" points="-4,4 -4,-176 145,-176 145,4 -4,4"/>
<!-- Node2 -->
<g id="node1" class="node"><title>Node2</title>
<g id="a_node1"><a xlink:href="group__port__threads.html" target="_top" xlink:title="Threading model. ">
<polygon fill="white" stroke="black" points="86.5,-152.5 86.5,-171.5 137.5,-171.5 137.5,-152.5 86.5,-152.5"/>
<text text-anchor="middle" x="112" y="-159.5" font-family="Helvetica,sans-Serif" font-size="10.00">Threads</text>
</a>
</g>
</g>
<!-- Node5 -->
<g id="node2" class="node"><title>Node5</title>
<g id="a_node2"><a xlink:href="group__port__sysgpio.html" target="_top" xlink:title="SysGPIO port. ">
<polygon fill="white" stroke="black" points="83,-114.5 83,-133.5 141,-133.5 141,-114.5 83,-114.5"/>
<text text-anchor="middle" x="112" y="-121.5" font-family="Helvetica,sans-Serif" font-size="10.00">SysGPIO</text>
</a>
</g>
</g>
<!-- Node1 -->
<g id="node3" class="node"><title>Node1</title>
<g id="a_node3"><a xlink:href="group__port__mem.html" target="_top" xlink:title="Memory allocation. ">
<polygon fill="white" stroke="black" points="86,-76.5 86,-95.5 138,-95.5 138,-76.5 86,-76.5"/>
<text text-anchor="middle" x="112" y="-83.5" font-family="Helvetica,sans-Serif" font-size="10.00">Memory</text>
</a>
</g>
</g>
<!-- Node3 -->
<g id="node4" class="node"><title>Node3</title>
<g id="a_node4"><a xlink:href="group__port__serial.html" target="_top" xlink:title="Serial port. ">
<polygon fill="white" stroke="black" points="91.5,-38.5 91.5,-57.5 132.5,-57.5 132.5,-38.5 91.5,-38.5"/>
<text text-anchor="middle" x="112" y="-45.5" font-family="Helvetica,sans-Serif" font-size="10.00">Serial</text>
</a>
</g>
</g>
<!-- Node4 -->
<g id="node5" class="node"><title>Node4</title>
<g id="a_node5"><a xlink:href="group__port__spidev.html" target="_top" xlink:title="SPIdev port. ">
<polygon fill="white" stroke="black" points="88.5,-0.5 88.5,-19.5 135.5,-19.5 135.5,-0.5 88.5,-0.5"/>
<text text-anchor="middle" x="112" y="-7.5" font-family="Helvetica,sans-Serif" font-size="10.00">SPIdev</text>
</a>
</g>
</g>
<!-- Node0 -->
<g id="node6" class="node"><title>Node0</title>
<polygon fill="#bfbfbf" stroke="black" points="0,-76.5 0,-95.5 47,-95.5 47,-76.5 0,-76.5"/>
<text text-anchor="middle" x="23.5" y="-83.5" font-family="Helvetica,sans-Serif" font-size="10.00">Porting</text>
</g>
<!-- Node0&#45;&gt;Node2 -->
<g id="edge2" class="edge"><title>Node0&#45;&gt;Node2</title>
<path fill="none" stroke="black" d="M40.6337,-103.251C51.9936,-115.005 67.8234,-130.619 83,-143 87.0058,-146.268 91.5662,-149.534 95.8265,-152.414"/>
<polygon fill="black" stroke="black" points="42.98,-100.639 33.5462,-95.8169 37.9137,-105.47 42.98,-100.639"/>
</g>
<!-- Node0&#45;&gt;Node5 -->
<g id="edge5" class="edge"><title>Node0&#45;&gt;Node5</title>
<path fill="none" stroke="black" d="M55.6997,-99.7062C66.7942,-104.58 79.0385,-109.959 89.1794,-114.414"/>
<polygon fill="black" stroke="black" points="56.8908,-96.4067 46.3276,-95.589 54.0754,-102.816 56.8908,-96.4067"/>
</g>
<!-- Node0&#45;&gt;Node1 -->
<g id="edge1" class="edge"><title>Node0&#45;&gt;Node1</title>
<path fill="none" stroke="black" d="M57.502,-86C66.9559,-86 77.103,-86 85.9915,-86"/>
<polygon fill="black" stroke="black" points="57.2269,-82.5001 47.2269,-86 57.2268,-89.5001 57.2269,-82.5001"/>
</g>
<!-- Node0&#45;&gt;Node3 -->
<g id="edge3" class="edge"><title>Node0&#45;&gt;Node3</title>
<path fill="none" stroke="black" d="M55.5124,-72.376C67.4219,-67.1441 80.6804,-61.3196 91.25,-56.6763"/>
<polygon fill="black" stroke="black" points="54.0754,-69.1844 46.3276,-76.411 56.8908,-75.5933 54.0754,-69.1844"/>
</g>
<!-- Node0&#45;&gt;Node4 -->
<g id="edge4" class="edge"><title>Node0&#45;&gt;Node4</title>
<path fill="none" stroke="black" d="M40.6337,-68.7495C51.9936,-56.9954 67.8234,-41.3812 83,-29 87.0058,-25.7321 91.5662,-22.4657 95.8265,-19.586"/>
<polygon fill="black" stroke="black" points="37.9137,-66.5303 33.5462,-76.1831 42.98,-71.3607 37.9137,-66.5303"/>
</g>
</g>
</svg>
