<?xml version="1.0" encoding="UTF-8" standalone="no"?>
<!DOCTYPE svg PUBLIC "-//W3C//DTD SVG 1.1//EN"
 "http://www.w3.org/Graphics/SVG/1.1/DTD/svg11.dtd">
<!-- Generated by graphviz version 2.38.0 (20140413.2041)
 -->
<!-- Title: Infrastructure Pages: 1 -->
<svg width="187pt" height="180pt"
 viewBox="0.00 0.00 187.00 180.00" xmlns="http://www.w3.org/2000/svg" xmlns:xlink="http://www.w3.org/1999/xlink">
<g id="graph0" class="graph" transform="scale(1 1) rotate(0) translate(4 176)">
<title>Infrastructure</title>
<polygon fill="white" stroke="none" points="-4,4 -4,-176 183,-176 183,4 -4,4"/>
<!-- Node0 -->
<g id="node1" class="node"><title>Node0</title>
<polygon fill="#bfbfbf" stroke="black" points="0,-76.5 0,-95.5 73,-95.5 73,-76.5 0,-76.5"/>
<text text-anchor="middle" x="36.5" y="-83.5" font-family="Helvetica,sans-Serif" font-size="10.00">Infrastructure</text>
</g>
<!-- Node4 -->
<g id="node2" class="node"><title>Node4</title>
<g id="a_node2"><a xlink:href="group__infra__client.html" target="_top" xlink:title="Client classes. ">
<polygon fill="white" stroke="black" points="123.5,-152.5 123.5,-171.5 164.5,-171.5 164.5,-152.5 123.5,-152.5"/>
<text text-anchor="middle" x="144" y="-159.5" font-family="Helvetica,sans-Serif" font-size="10.00">Client</text>
</a>
</g>
</g>
<!-- Node0&#45;&gt;Node4 -->
<g id="edge4" class="edge"><title>Node0&#45;&gt;Node4</title>
<path fill="none" stroke="black" d="M56.6377,-102.674C70.6754,-114.548 90.4457,-130.542 109,-143 113.94,-146.317 119.502,-149.599 124.673,-152.478"/>
<polygon fill="black" stroke="black" points="58.5739,-99.7248 48.7002,-95.8827 54.0229,-105.043 58.5739,-99.7248"/>
</g>
<!-- Node1 -->
<g id="node3" class="node"><title>Node1</title>
<g id="a_node3"><a xlink:href="group__infra__transport.html" target="_top" xlink:title="Superclasses for building transports. ">
<polygon fill="white" stroke="black" points="113,-114.5 113,-133.5 175,-133.5 175,-114.5 113,-114.5"/>
<text text-anchor="middle" x="144" y="-121.5" font-family="Helvetica,sans-Serif" font-size="10.00">Transports</text>
</a>
</g>
</g>
<!-- Node0&#45;&gt;Node1 -->
<g id="edge1" class="edge"><title>Node0&#45;&gt;Node1</title>
<path fill="none" stroke="black" d="M73.9197,-99.118C87.8733,-104.144 103.518,-109.779 116.386,-114.414"/>
<polygon fill="black" stroke="black" points="74.7165,-95.6849 64.1221,-95.589 72.3443,-102.271 74.7165,-95.6849"/>
</g>
<!-- Node2 -->
<g id="node4" class="node"><title>Node2</title>
<g id="a_node4"><a xlink:href="group__infra__utility.html" target="_top" xlink:title="Utility code used by the infrastructure. ">
<polygon fill="white" stroke="black" points="119.5,-76.5 119.5,-95.5 168.5,-95.5 168.5,-76.5 119.5,-76.5"/>
<text text-anchor="middle" x="144" y="-83.5" font-family="Helvetica,sans-Serif" font-size="10.00">Utilities</text>
</a>
</g>
</g>
<!-- Node0&#45;&gt;Node2 -->
<g id="edge2" class="edge"><title>Node0&#45;&gt;Node2</title>
<path fill="none" stroke="black" d="M83.4235,-86C95.7887,-86 108.663,-86 119.266,-86"/>
<polygon fill="black" stroke="black" points="83.2175,-82.5001 73.2175,-86 83.2175,-89.5001 83.2175,-82.5001"/>
</g>
<!-- Node3 -->
<g id="node5" class="node"><title>Node3</title>
<g id="a_node5"><a xlink:href="group__infra__server.html" target="_top" xlink:title="Server classes. ">
<polygon fill="white" stroke="black" points="122,-38.5 122,-57.5 166,-57.5 166,-38.5 122,-38.5"/>
<text text-anchor="middle" x="144" y="-45.5" font-family="Helvetica,sans-Serif" font-size="10.00">Server</text>
</a>
</g>
</g>
<!-- Node0&#45;&gt;Node3 -->
<g id="edge3" class="edge"><title>Node0&#45;&gt;Node3</title>
<path fill="none" stroke="black" d="M73.7244,-72.9524C89.7105,-67.1943 107.949,-60.625 121.698,-55.6727"/>
<polygon fill="black" stroke="black" points="72.3443,-69.7292 64.1221,-76.411 74.7165,-76.3151 72.3443,-69.7292"/>
</g>
<!-- Node5 -->
<g id="node6" class="node"><title>Node5</title>
<g id="a_node6"><a xlink:href="group__infra__codec.html" target="_top" xlink:title="Classes used for message serialization. ">
<polygon fill="white" stroke="black" points="109,-0.5 109,-19.5 179,-19.5 179,-0.5 109,-0.5"/>
<text text-anchor="middle" x="144" y="-7.5" font-family="Helvetica,sans-Serif" font-size="10.00">Serialization</text>
</a>
</g>
</g>
<!-- Node0&#45;&gt;Node5 -->
<g id="edge5" class="edge"><title>Node0&#45;&gt;Node5</title>
<path fill="none" stroke="black" d="M56.6377,-69.3255C70.6754,-57.4524 90.4457,-41.4585 109,-29 113.94,-25.6829 119.502,-22.4012 124.673,-19.5225"/>
<polygon fill="black" stroke="black" points="54.0229,-66.9565 48.7002,-76.1173 58.5739,-72.2752 54.0229,-66.9565"/>
</g>
</g>
</svg>
