<?xml version="1.0" encoding="UTF-8" standalone="no"?>
<!DOCTYPE svg PUBLIC "-//W3C//DTD SVG 1.1//EN"
 "http://www.w3.org/Graphics/SVG/1.1/DTD/svg11.dtd">
<!-- Generated by graphviz version 2.38.0 (20140413.2041)
 -->
<!-- Title: Serialization Pages: 1 -->
<svg width="353pt" height="864pt"
 viewBox="0.00 0.00 353.00 864.00" xmlns="http://www.w3.org/2000/svg" xmlns:xlink="http://www.w3.org/1999/xlink">
<g id="graph0" class="graph" transform="scale(1 1) rotate(0) translate(4 860)">
<title>Serialization</title>
<polygon fill="white" stroke="none" points="-4,4 -4,-860 349,-860 349,4 -4,4"/>
<!-- Node9 -->
<g id="node1" class="node"><title>Node9</title>
<g id="a_node1"><a xlink:href="group__dspi__slave__transport.html" target="_top" xlink:title="MCUXpressoSDK DSPI slave driver transport. ">
<polygon fill="white" stroke="black" points="257.5,-836.5 257.5,-855.5 322.5,-855.5 322.5,-836.5 257.5,-836.5"/>
<text text-anchor="middle" x="290" y="-843.5" font-family="Helvetica,sans-Serif" font-size="10.00">DSPI Slave</text>
</a>
</g>
</g>
<!-- Node10 -->
<g id="node2" class="node"><title>Node10</title>
<g id="a_node2"><a xlink:href="group__i2c__slave__transport.html" target="_top" xlink:title="MCUXpressoSDK I2C slave driver transport. ">
<polygon fill="white" stroke="black" points="261.5,-798.5 261.5,-817.5 318.5,-817.5 318.5,-798.5 261.5,-798.5"/>
<text text-anchor="middle" x="290" y="-805.5" font-family="Helvetica,sans-Serif" font-size="10.00">I2C Slave</text>
</a>
</g>
</g>
<!-- Node7 -->
<g id="node3" class="node"><title>Node7</title>
<g id="a_node3"><a xlink:href="group__port__threads.html" target="_top" xlink:title="Threading model. ">
<polygon fill="white" stroke="black" points="264.5,-760.5 264.5,-779.5 315.5,-779.5 315.5,-760.5 264.5,-760.5"/>
<text text-anchor="middle" x="290" y="-767.5" font-family="Helvetica,sans-Serif" font-size="10.00">Threads</text>
</a>
</g>
</g>
<!-- Node14 -->
<g id="node4" class="node"><title>Node14</title>
<g id="a_node4"><a xlink:href="group__mu__transport.html" target="_top" xlink:title="Messaging Unit transport. ">
<polygon fill="white" stroke="black" points="248,-722.5 248,-741.5 332,-741.5 332,-722.5 248,-722.5"/>
<text text-anchor="middle" x="290" y="-729.5" font-family="Helvetica,sans-Serif" font-size="10.00">Messaging Unit</text>
</a>
</g>
</g>
<!-- Node22 -->
<g id="node5" class="node"><title>Node22</title>
<g id="a_node5"><a xlink:href="group__tcp__transport.html" target="_top" xlink:title="Simple TCP/IP transport. ">
<polygon fill="white" stroke="black" points="266.5,-684.5 266.5,-703.5 313.5,-703.5 313.5,-684.5 266.5,-684.5"/>
<text text-anchor="middle" x="290" y="-691.5" font-family="Helvetica,sans-Serif" font-size="10.00">TCP/IP</text>
</a>
</g>
</g>
<!-- Node1 -->
<g id="node6" class="node"><title>Node1</title>
<g id="a_node6"><a xlink:href="group__infra.html" target="_top" xlink:title="C++ core. ">
<polygon fill="white" stroke="black" points="0,-418.5 0,-437.5 73,-437.5 73,-418.5 0,-418.5"/>
<text text-anchor="middle" x="36.5" y="-425.5" font-family="Helvetica,sans-Serif" font-size="10.00">Infrastructure</text>
</a>
</g>
</g>
<!-- Node0 -->
<g id="node21" class="node"><title>Node0</title>
<polygon fill="#bfbfbf" stroke="black" points="110,-418.5 110,-437.5 180,-437.5 180,-418.5 110,-418.5"/>
<text text-anchor="middle" x="145" y="-425.5" font-family="Helvetica,sans-Serif" font-size="10.00">Serialization</text>
</g>
<!-- Node1&#45;&gt;Node0 -->
<g id="edge1" class="edge"><title>Node1&#45;&gt;Node0</title>
<path fill="none" stroke="black" d="M83.5,-428C92.3827,-428 101.54,-428 109.957,-428"/>
<polygon fill="black" stroke="black" points="83.2593,-424.5 73.2592,-428 83.2592,-431.5 83.2593,-424.5"/>
</g>
<!-- Node2 -->
<g id="node7" class="node"><title>Node2</title>
<g id="a_node7"><a xlink:href="group__infra__client.html" target="_top" xlink:title="Client classes. ">
<polygon fill="white" stroke="black" points="269.5,-646.5 269.5,-665.5 310.5,-665.5 310.5,-646.5 269.5,-646.5"/>
<text text-anchor="middle" x="290" y="-653.5" font-family="Helvetica,sans-Serif" font-size="10.00">Client</text>
</a>
</g>
</g>
<!-- Node3 -->
<g id="node8" class="node"><title>Node3</title>
<g id="a_node8"><a xlink:href="group__infra__transport.html" target="_top" xlink:title="Superclasses for building transports. ">
<polygon fill="white" stroke="black" points="259,-608.5 259,-627.5 321,-627.5 321,-608.5 259,-608.5"/>
<text text-anchor="middle" x="290" y="-615.5" font-family="Helvetica,sans-Serif" font-size="10.00">Transports</text>
</a>
</g>
</g>
<!-- Node18 -->
<g id="node9" class="node"><title>Node18</title>
<g id="a_node9"><a xlink:href="group__serial__transport.html" target="_top" xlink:title="POSIX and Win32 serial port transport. ">
<polygon fill="white" stroke="black" points="259.5,-570.5 259.5,-589.5 320.5,-589.5 320.5,-570.5 259.5,-570.5"/>
<text text-anchor="middle" x="290" y="-577.5" font-family="Helvetica,sans-Serif" font-size="10.00">Serial port</text>
</a>
</g>
</g>
<!-- Node4 -->
<g id="node10" class="node"><title>Node4</title>
<g id="a_node10"><a xlink:href="group__infra__utility.html" target="_top" xlink:title="Utility code used by the infrastructure. ">
<polygon fill="white" stroke="black" points="265.5,-532.5 265.5,-551.5 314.5,-551.5 314.5,-532.5 265.5,-532.5"/>
<text text-anchor="middle" x="290" y="-539.5" font-family="Helvetica,sans-Serif" font-size="10.00">Utilities</text>
</a>
</g>
</g>
<!-- Node20 -->
<g id="node11" class="node"><title>Node20</title>
<g id="a_node11"><a xlink:href="group__spi__slave__transport.html" target="_top" xlink:title="MCUXpressoSDK SPI slave driver transport. ">
<polygon fill="white" stroke="black" points="260.5,-494.5 260.5,-513.5 319.5,-513.5 319.5,-494.5 260.5,-494.5"/>
<text text-anchor="middle" x="290" y="-501.5" font-family="Helvetica,sans-Serif" font-size="10.00">SPI Slave</text>
</a>
</g>
</g>
<!-- Node23 -->
<g id="node12" class="node"><title>Node23</title>
<g id="a_node12"><a xlink:href="group__uart__transport.html" target="_top" xlink:title="CMSIS UART driver transport. ">
<polygon fill="white" stroke="black" points="252,-456.5 252,-475.5 328,-475.5 328,-456.5 252,-456.5"/>
<text text-anchor="middle" x="290" y="-463.5" font-family="Helvetica,sans-Serif" font-size="10.00">CMSIS UART</text>
</a>
</g>
</g>
<!-- Node21 -->
<g id="node13" class="node"><title>Node21</title>
<g id="a_node13"><a xlink:href="group__spidev__master__transport.html" target="_top" xlink:title="SPIdev Linux transport. ">
<polygon fill="white" stroke="black" points="237,-418.5 237,-437.5 343,-437.5 343,-418.5 237,-418.5"/>
<text text-anchor="middle" x="290" y="-425.5" font-family="Helvetica,sans-Serif" font-size="10.00">SPIdev Linux Master</text>
</a>
</g>
</g>
<!-- Node19 -->
<g id="node14" class="node"><title>Node19</title>
<g id="a_node14"><a xlink:href="group__spi__master__transport.html" target="_top" xlink:title="MCUXpressoSDK SPI master driver transport. ">
<polygon fill="white" stroke="black" points="257.5,-380.5 257.5,-399.5 322.5,-399.5 322.5,-380.5 257.5,-380.5"/>
<text text-anchor="middle" x="290" y="-387.5" font-family="Helvetica,sans-Serif" font-size="10.00">SPI Master</text>
</a>
</g>
</g>
<!-- Node17 -->
<g id="node15" class="node"><title>Node17</title>
<g id="a_node15"><a xlink:href="group__rpmsg__tty__rtos__transport.html" target="_top" xlink:title="RPMsg TTY RTOS transport. ">
<polygon fill="white" stroke="black" points="241,-342.5 241,-361.5 339,-361.5 339,-342.5 241,-342.5"/>
<text text-anchor="middle" x="290" y="-349.5" font-family="Helvetica,sans-Serif" font-size="10.00">RPMsg TTY RTOS</text>
</a>
</g>
</g>
<!-- Node5 -->
<g id="node16" class="node"><title>Node5</title>
<g id="a_node16"><a xlink:href="group__infra__server.html" target="_top" xlink:title="Server classes. ">
<polygon fill="white" stroke="black" points="268,-304.5 268,-323.5 312,-323.5 312,-304.5 268,-304.5"/>
<text text-anchor="middle" x="290" y="-311.5" font-family="Helvetica,sans-Serif" font-size="10.00">Server</text>
</a>
</g>
</g>
<!-- Node12 -->
<g id="node17" class="node"><title>Node12</title>
<g id="a_node17"><a xlink:href="group__lpi2c__slave__transport.html" target="_top" xlink:title="Lpi2c_slave_transport">
<polygon fill="white" stroke="black" points="235,-266.5 235,-285.5 345,-285.5 345,-266.5 235,-266.5"/>
<text text-anchor="middle" x="290" y="-273.5" font-family="Helvetica,sans-Serif" font-size="10.00">Lpi2c_slave_transport</text>
</a>
</g>
</g>
<!-- Node11 -->
<g id="node18" class="node"><title>Node11</title>
<g id="a_node18"><a xlink:href="group__itbp__transport.html" target="_top" xlink:title="Simple inter&#45;thread communications transport. ">
<polygon fill="white" stroke="black" points="257.5,-228.5 257.5,-247.5 322.5,-247.5 322.5,-228.5 257.5,-228.5"/>
<text text-anchor="middle" x="290" y="-235.5" font-family="Helvetica,sans-Serif" font-size="10.00">Inter&#45;thread</text>
</a>
</g>
</g>
<!-- Node8 -->
<g id="node19" class="node"><title>Node8</title>
<g id="a_node19"><a xlink:href="group__dspi__master__transport.html" target="_top" xlink:title="MCUXpressoSDK DSPI master driver transport. ">
<polygon fill="white" stroke="black" points="254,-190.5 254,-209.5 326,-209.5 326,-190.5 254,-190.5"/>
<text text-anchor="middle" x="290" y="-197.5" font-family="Helvetica,sans-Serif" font-size="10.00">DSPI Master</text>
</a>
</g>
</g>
<!-- Node24 -->
<g id="node20" class="node"><title>Node24</title>
<g id="a_node20"><a xlink:href="group___u_s_b___c_d_c__transport.html" target="_top" xlink:title="USB CDC transport. ">
<polygon fill="white" stroke="black" points="260,-152.5 260,-171.5 320,-171.5 320,-152.5 260,-152.5"/>
<text text-anchor="middle" x="290" y="-159.5" font-family="Helvetica,sans-Serif" font-size="10.00">USB CDC</text>
</a>
</g>
</g>
<!-- Node0&#45;&gt;Node9 -->
<g id="edge9" class="edge"><title>Node0&#45;&gt;Node9</title>
<path fill="none" stroke="blueviolet" stroke-dasharray="5,2" d="M146.549,-437.756C149.553,-488.914 165.086,-726.315 198,-791 208.405,-811.449 215.5,-814.91 235,-827 241.842,-831.242 249.76,-834.702 257.389,-837.45"/>
<text text-anchor="middle" x="207.5" y="-817" font-family="Helvetica,sans-Serif" font-size="10.00">erpc</text>
</g>
<!-- Node0&#45;&gt;Node10 -->
<g id="edge10" class="edge"><title>Node0&#45;&gt;Node10</title>
<path fill="none" stroke="blueviolet" stroke-dasharray="5,2" d="M146.725,-437.664C150.422,-485.35 168.182,-695.567 198,-753 208.572,-773.363 215.5,-776.91 235,-789 243.024,-793.975 252.529,-797.874 261.311,-800.811"/>
<text text-anchor="middle" x="207.5" y="-779" font-family="Helvetica,sans-Serif" font-size="10.00">erpc</text>
</g>
<!-- Node0&#45;&gt;Node7 -->
<g id="edge7" class="edge"><title>Node0&#45;&gt;Node7</title>
<path fill="none" stroke="blueviolet" stroke-dasharray="5,2" d="M145.69,-437.596C144.874,-475.386 145.653,-616.662 198,-715 208.781,-735.253 215.5,-738.91 235,-751 243.953,-756.551 254.75,-760.763 264.329,-763.793"/>
<text text-anchor="middle" x="207.5" y="-741" font-family="Helvetica,sans-Serif" font-size="10.00">erpc</text>
</g>
<!-- Node0&#45;&gt;Node14 -->
<g id="edge14" class="edge"><title>Node0&#45;&gt;Node14</title>
<path fill="none" stroke="blueviolet" stroke-dasharray="5,2" d="M146.039,-437.729C146.575,-472.499 151.847,-593.015 198,-677 209.05,-697.108 215.5,-700.91 235,-713 240.997,-716.718 247.821,-719.836 254.553,-722.399"/>
<text text-anchor="middle" x="207.5" y="-703" font-family="Helvetica,sans-Serif" font-size="10.00">erpc</text>
</g>
<!-- Node0&#45;&gt;Node22 -->
<g id="edge22" class="edge"><title>Node0&#45;&gt;Node22</title>
<path fill="none" stroke="blueviolet" stroke-dasharray="5,2" d="M146.579,-437.888C148.786,-469.22 158.661,-568.338 198,-638 209.435,-658.25 215.319,-662.61 235,-675 244.588,-681.036 256.345,-685.464 266.438,-688.519"/>
<text text-anchor="middle" x="207.5" y="-665" font-family="Helvetica,sans-Serif" font-size="10.00">erpc</text>
</g>
<!-- Node0&#45;&gt;Node2 -->
<g id="edge2" class="edge"><title>Node0&#45;&gt;Node2</title>
<path fill="none" stroke="blueviolet" stroke-dasharray="5,2" d="M147.279,-437.529C151.228,-464.523 165.012,-543.165 198,-599 209.99,-619.295 215.136,-624.309 235,-637 245.469,-643.688 258.589,-648.375 269.275,-651.42"/>
<text text-anchor="middle" x="207.5" y="-626" font-family="Helvetica,sans-Serif" font-size="10.00">erpc</text>
</g>
<!-- Node0&#45;&gt;Node3 -->
<g id="edge3" class="edge"><title>Node0&#45;&gt;Node3</title>
<path fill="none" stroke="blueviolet" stroke-dasharray="5,2" d="M148.397,-437.541C154.347,-460.111 171.269,-518.036 198,-560 210.837,-580.152 214.95,-586.006 235,-599 242.256,-603.702 250.817,-607.403 258.958,-610.24"/>
<text text-anchor="middle" x="207.5" y="-587" font-family="Helvetica,sans-Serif" font-size="10.00">erpc</text>
</g>
<!-- Node0&#45;&gt;Node18 -->
<g id="edge18" class="edge"><title>Node0&#45;&gt;Node18</title>
<path fill="none" stroke="blueviolet" stroke-dasharray="5,2" d="M149.34,-437.712C158.531,-462.843 186.77,-530.186 235,-561 242.37,-565.709 251.054,-569.425 259.278,-572.275"/>
<text text-anchor="middle" x="207.5" y="-548" font-family="Helvetica,sans-Serif" font-size="10.00">erpc</text>
</g>
<!-- Node0&#45;&gt;Node4 -->
<g id="edge4" class="edge"><title>Node0&#45;&gt;Node4</title>
<path fill="none" stroke="blueviolet" stroke-dasharray="5,2" d="M152.316,-437.747C165.355,-457.068 197.217,-500.314 235,-523 244.372,-528.628 255.661,-532.927 265.488,-536.001"/>
<text text-anchor="middle" x="207.5" y="-511" font-family="Helvetica,sans-Serif" font-size="10.00">erpc</text>
</g>
<!-- Node0&#45;&gt;Node20 -->
<g id="edge20" class="edge"><title>Node0&#45;&gt;Node20</title>
<path fill="none" stroke="blueviolet" stroke-dasharray="5,2" d="M158.684,-437.548C175.443,-449.822 206.214,-471.192 235,-485 242.975,-488.825 251.932,-492.287 260.224,-495.176"/>
<text text-anchor="middle" x="207.5" y="-477" font-family="Helvetica,sans-Serif" font-size="10.00">erpc</text>
</g>
<!-- Node0&#45;&gt;Node23 -->
<g id="edge23" class="edge"><title>Node0&#45;&gt;Node23</title>
<path fill="none" stroke="blueviolet" stroke-dasharray="5,2" d="M178.408,-437.529C184.886,-439.383 191.651,-441.282 198,-443 215.618,-447.766 235.238,-452.764 251.736,-456.879"/>
<text text-anchor="middle" x="207.5" y="-450" font-family="Helvetica,sans-Serif" font-size="10.00">erpc</text>
</g>
<!-- Node0&#45;&gt;Node21 -->
<g id="edge21" class="edge"><title>Node0&#45;&gt;Node21</title>
<path fill="none" stroke="blueviolet" stroke-dasharray="5,2" d="M180.252,-428C197.191,-428 217.999,-428 236.862,-428"/>
<text text-anchor="middle" x="207.5" y="-431" font-family="Helvetica,sans-Serif" font-size="10.00">erpc</text>
</g>
<!-- Node0&#45;&gt;Node19 -->
<g id="edge19" class="edge"><title>Node0&#45;&gt;Node19</title>
<path fill="none" stroke="blueviolet" stroke-dasharray="5,2" d="M178.408,-418.471C184.886,-416.617 191.651,-414.718 198,-413 217.662,-407.681 239.819,-402.073 257.347,-397.726"/>
<text text-anchor="middle" x="207.5" y="-416" font-family="Helvetica,sans-Serif" font-size="10.00">erpc</text>
</g>
<!-- Node0&#45;&gt;Node17 -->
<g id="edge17" class="edge"><title>Node0&#45;&gt;Node17</title>
<path fill="none" stroke="blueviolet" stroke-dasharray="5,2" d="M158.684,-418.452C175.443,-406.178 206.214,-384.808 235,-371 242.348,-367.475 250.529,-364.259 258.256,-361.516"/>
<text text-anchor="middle" x="207.5" y="-394" font-family="Helvetica,sans-Serif" font-size="10.00">erpc</text>
</g>
<!-- Node0&#45;&gt;Node5 -->
<g id="edge5" class="edge"><title>Node0&#45;&gt;Node5</title>
<path fill="none" stroke="blueviolet" stroke-dasharray="5,2" d="M152.316,-418.253C165.355,-398.932 197.217,-355.686 235,-333 245.139,-326.912 257.521,-322.378 267.868,-319.27"/>
<text text-anchor="middle" x="207.5" y="-365" font-family="Helvetica,sans-Serif" font-size="10.00">erpc</text>
</g>
<!-- Node0&#45;&gt;Node12 -->
<g id="edge12" class="edge"><title>Node0&#45;&gt;Node12</title>
<path fill="none" stroke="blueviolet" stroke-dasharray="5,2" d="M149.34,-418.288C158.531,-393.157 186.77,-325.814 235,-295 240.863,-291.254 247.556,-288.137 254.189,-285.583"/>
<text text-anchor="middle" x="207.5" y="-330" font-family="Helvetica,sans-Serif" font-size="10.00">erpc</text>
</g>
<!-- Node0&#45;&gt;Node11 -->
<g id="edge11" class="edge"><title>Node0&#45;&gt;Node11</title>
<path fill="none" stroke="blueviolet" stroke-dasharray="5,2" d="M148.397,-418.459C154.347,-395.889 171.269,-337.964 198,-296 210.837,-275.848 214.95,-269.994 235,-257 241.756,-252.622 249.642,-249.112 257.268,-246.36"/>
<text text-anchor="middle" x="207.5" y="-299" font-family="Helvetica,sans-Serif" font-size="10.00">erpc</text>
</g>
<!-- Node0&#45;&gt;Node8 -->
<g id="edge8" class="edge"><title>Node0&#45;&gt;Node8</title>
<path fill="none" stroke="blueviolet" stroke-dasharray="5,2" d="M147.279,-418.471C151.228,-391.477 165.012,-312.835 198,-257 209.99,-236.705 215.136,-231.691 235,-219 240.863,-215.254 247.556,-212.137 254.189,-209.583"/>
<text text-anchor="middle" x="207.5" y="-260" font-family="Helvetica,sans-Serif" font-size="10.00">erpc</text>
</g>
<!-- Node0&#45;&gt;Node24 -->
<g id="edge24" class="edge"><title>Node0&#45;&gt;Node24</title>
<path fill="none" stroke="blueviolet" stroke-dasharray="5,2" d="M146.579,-418.112C148.786,-386.78 158.661,-287.662 198,-218 209.435,-197.75 215.319,-193.39 235,-181 242.569,-176.235 251.491,-172.472 259.878,-169.595"/>
<text text-anchor="middle" x="207.5" y="-221" font-family="Helvetica,sans-Serif" font-size="10.00">erpc</text>
</g>
<!-- Node15 -->
<g id="node22" class="node"><title>Node15</title>
<g id="a_node22"><a xlink:href="group__rpmsg__lite__rtos__transport.html" target="_top" xlink:title="RPMsg&#45;Lite zero copy transport using RTOS API. ">
<polygon fill="white" stroke="black" points="241.5,-114.5 241.5,-133.5 338.5,-133.5 338.5,-114.5 241.5,-114.5"/>
<text text-anchor="middle" x="290" y="-121.5" font-family="Helvetica,sans-Serif" font-size="10.00">RPMsg&#45;Lite RTOS</text>
</a>
</g>
</g>
<!-- Node0&#45;&gt;Node15 -->
<g id="edge15" class="edge"><title>Node0&#45;&gt;Node15</title>
<path fill="none" stroke="blueviolet" stroke-dasharray="5,2" d="M146.039,-418.271C146.575,-383.501 151.847,-262.985 198,-179 209.05,-158.892 215.5,-155.09 235,-143 240.997,-139.282 247.821,-136.164 254.553,-133.601"/>
<text text-anchor="middle" x="207.5" y="-182" font-family="Helvetica,sans-Serif" font-size="10.00">erpc</text>
</g>
<!-- Node16 -->
<g id="node23" class="node"><title>Node16</title>
<g id="a_node23"><a xlink:href="group__rpmsg__lite__transport.html" target="_top" xlink:title="RPMsg&#45;Lite zero copy transport. ">
<polygon fill="white" stroke="black" points="256,-76.5 256,-95.5 324,-95.5 324,-76.5 256,-76.5"/>
<text text-anchor="middle" x="290" y="-83.5" font-family="Helvetica,sans-Serif" font-size="10.00">RPMsg&#45;Lite</text>
</a>
</g>
</g>
<!-- Node0&#45;&gt;Node16 -->
<g id="edge16" class="edge"><title>Node0&#45;&gt;Node16</title>
<path fill="none" stroke="blueviolet" stroke-dasharray="5,2" d="M145.69,-418.404C144.874,-380.614 145.653,-239.338 198,-141 208.781,-120.747 215.5,-117.09 235,-105 241.419,-101.02 248.787,-97.7283 255.973,-95.0674"/>
<text text-anchor="middle" x="207.5" y="-144" font-family="Helvetica,sans-Serif" font-size="10.00">erpc</text>
</g>
<!-- Node6 -->
<g id="node24" class="node"><title>Node6</title>
<g id="a_node24"><a xlink:href="group__port__setup__extensions.html" target="_top" xlink:title="Extension setup functions. ">
<polygon fill="white" stroke="black" points="245.5,-38.5 245.5,-57.5 334.5,-57.5 334.5,-38.5 245.5,-38.5"/>
<text text-anchor="middle" x="290" y="-45.5" font-family="Helvetica,sans-Serif" font-size="10.00">Extension Setup</text>
</a>
</g>
</g>
<!-- Node0&#45;&gt;Node6 -->
<g id="edge6" class="edge"><title>Node0&#45;&gt;Node6</title>
<path fill="none" stroke="blueviolet" stroke-dasharray="5,2" d="M146.725,-418.336C150.422,-370.65 168.182,-160.433 198,-103 208.572,-82.637 215.5,-79.0903 235,-67 240.997,-63.2817 247.821,-60.1644 254.553,-57.6008"/>
<text text-anchor="middle" x="207.5" y="-106" font-family="Helvetica,sans-Serif" font-size="10.00">erpc</text>
</g>
<!-- Node13 -->
<g id="node25" class="node"><title>Node13</title>
<g id="a_node25"><a xlink:href="group__lpspi__slave__transport.html" target="_top" xlink:title="Lpspi_slave_transport">
<polygon fill="white" stroke="black" points="235,-0.5 235,-19.5 345,-19.5 345,-0.5 235,-0.5"/>
<text text-anchor="middle" x="290" y="-7.5" font-family="Helvetica,sans-Serif" font-size="10.00">Lpspi_slave_transport</text>
</a>
</g>
</g>
<!-- Node0&#45;&gt;Node13 -->
<g id="edge13" class="edge"><title>Node0&#45;&gt;Node13</title>
<path fill="none" stroke="blueviolet" stroke-dasharray="5,2" d="M146.549,-418.244C149.553,-367.086 165.086,-129.685 198,-65 208.405,-44.5512 215.5,-41.0903 235,-29 240.997,-25.2817 247.821,-22.1644 254.553,-19.6008"/>
<text text-anchor="middle" x="207.5" y="-68" font-family="Helvetica,sans-Serif" font-size="10.00">erpc</text>
</g>
</g>
</svg>
