<?xml version="1.0" encoding="UTF-8" standalone="no"?>
<!DOCTYPE svg PUBLIC "-//W3C//DTD SVG 1.1//EN"
 "http://www.w3.org/Graphics/SVG/1.1/DTD/svg11.dtd">
<!-- Generated by graphviz version 2.38.0 (20140413.2041)
 -->
<!-- Title: RPMsg&#45;Lite Pages: 1 -->
<svg width="469pt" height="898pt"
 viewBox="0.00 0.00 469.00 897.82" xmlns="http://www.w3.org/2000/svg" xmlns:xlink="http://www.w3.org/1999/xlink">
<g id="graph0" class="graph" transform="scale(1 1) rotate(0) translate(4 893.816)">
<title>RPMsg&#45;Lite</title>
<polygon fill="white" stroke="none" points="-4,4 -4,-893.816 465,-893.816 465,4 -4,4"/>
<!-- Node1 -->
<g id="node1" class="node"><title>Node1</title>
<g id="a_node1"><a xlink:href="group__transports.html" target="_top" xlink:title="Transport layer classes. ">
<polygon fill="white" stroke="black" points="0,-421.316 0,-440.316 89,-440.316 89,-421.316 0,-421.316"/>
<text text-anchor="middle" x="44.5" y="-428.316" font-family="Helvetica,sans-Serif" font-size="10.00">Transport Layers</text>
</a>
</g>
</g>
<!-- Node0 -->
<g id="node23" class="node"><title>Node0</title>
<polygon fill="#bfbfbf" stroke="black" points="126,-421.316 126,-440.316 194,-440.316 194,-421.316 126,-421.316"/>
<text text-anchor="middle" x="160" y="-428.316" font-family="Helvetica,sans-Serif" font-size="10.00">RPMsg&#45;Lite</text>
</g>
<!-- Node1&#45;&gt;Node0 -->
<g id="edge1" class="edge"><title>Node1&#45;&gt;Node0</title>
<path fill="none" stroke="black" d="M99.2532,-430.816C108.367,-430.816 117.585,-430.816 125.961,-430.816"/>
<polygon fill="black" stroke="black" points="99.0575,-427.316 89.0575,-430.816 99.0574,-434.316 99.0575,-427.316"/>
</g>
<!-- Node11 -->
<g id="node2" class="node"><title>Node11</title>
<g id="a_node2"><a xlink:href="group__dspi__slave__transport.html" target="_top" xlink:title="MCUXpressoSDK DSPI slave driver transport. ">
<polygon fill="white" stroke="black" points="373.5,-858.316 373.5,-877.316 438.5,-877.316 438.5,-858.316 373.5,-858.316"/>
<text text-anchor="middle" x="406" y="-865.316" font-family="Helvetica,sans-Serif" font-size="10.00">DSPI Slave</text>
</a>
</g>
</g>
<!-- Node12 -->
<g id="node3" class="node"><title>Node12</title>
<g id="a_node3"><a xlink:href="group__i2c__slave__transport.html" target="_top" xlink:title="MCUXpressoSDK I2C slave driver transport. ">
<polygon fill="white" stroke="black" points="377.5,-820.316 377.5,-839.316 434.5,-839.316 434.5,-820.316 377.5,-820.316"/>
<text text-anchor="middle" x="406" y="-827.316" font-family="Helvetica,sans-Serif" font-size="10.00">I2C Slave</text>
</a>
</g>
</g>
<!-- Node9 -->
<g id="node4" class="node"><title>Node9</title>
<g id="a_node4"><a xlink:href="group__port__threads.html" target="_top" xlink:title="Threading model. ">
<polygon fill="white" stroke="black" points="380.5,-782.316 380.5,-801.316 431.5,-801.316 431.5,-782.316 380.5,-782.316"/>
<text text-anchor="middle" x="406" y="-789.316" font-family="Helvetica,sans-Serif" font-size="10.00">Threads</text>
</a>
</g>
</g>
<!-- Node16 -->
<g id="node5" class="node"><title>Node16</title>
<g id="a_node5"><a xlink:href="group__mu__transport.html" target="_top" xlink:title="Messaging Unit transport. ">
<polygon fill="white" stroke="black" points="364,-744.316 364,-763.316 448,-763.316 448,-744.316 364,-744.316"/>
<text text-anchor="middle" x="406" y="-751.316" font-family="Helvetica,sans-Serif" font-size="10.00">Messaging Unit</text>
</a>
</g>
</g>
<!-- Node22 -->
<g id="node6" class="node"><title>Node22</title>
<g id="a_node6"><a xlink:href="group__tcp__transport.html" target="_top" xlink:title="Simple TCP/IP transport. ">
<polygon fill="white" stroke="black" points="382.5,-706.316 382.5,-725.316 429.5,-725.316 429.5,-706.316 382.5,-706.316"/>
<text text-anchor="middle" x="406" y="-713.316" font-family="Helvetica,sans-Serif" font-size="10.00">TCP/IP</text>
</a>
</g>
</g>
<!-- Node3 -->
<g id="node7" class="node"><title>Node3</title>
<g id="a_node7"><a xlink:href="group__infra__client.html" target="_top" xlink:title="Client classes. ">
<polygon fill="white" stroke="black" points="385.5,-668.316 385.5,-687.316 426.5,-687.316 426.5,-668.316 385.5,-668.316"/>
<text text-anchor="middle" x="406" y="-675.316" font-family="Helvetica,sans-Serif" font-size="10.00">Client</text>
</a>
</g>
</g>
<!-- Node5 -->
<g id="node8" class="node"><title>Node5</title>
<g id="a_node8"><a xlink:href="group__infra__transport.html" target="_top" xlink:title="Superclasses for building transports. ">
<polygon fill="white" stroke="black" points="375,-630.316 375,-649.316 437,-649.316 437,-630.316 375,-630.316"/>
<text text-anchor="middle" x="406" y="-637.316" font-family="Helvetica,sans-Serif" font-size="10.00">Transports</text>
</a>
</g>
</g>
<!-- Node18 -->
<g id="node9" class="node"><title>Node18</title>
<g id="a_node9"><a xlink:href="group__serial__transport.html" target="_top" xlink:title="POSIX and Win32 serial port transport. ">
<polygon fill="white" stroke="black" points="375.5,-592.316 375.5,-611.316 436.5,-611.316 436.5,-592.316 375.5,-592.316"/>
<text text-anchor="middle" x="406" y="-599.316" font-family="Helvetica,sans-Serif" font-size="10.00">Serial port</text>
</a>
</g>
</g>
<!-- Node6 -->
<g id="node10" class="node"><title>Node6</title>
<g id="a_node10"><a xlink:href="group__infra__utility.html" target="_top" xlink:title="Utility code used by the infrastructure. ">
<polygon fill="white" stroke="black" points="381.5,-554.316 381.5,-573.316 430.5,-573.316 430.5,-554.316 381.5,-554.316"/>
<text text-anchor="middle" x="406" y="-561.316" font-family="Helvetica,sans-Serif" font-size="10.00">Utilities</text>
</a>
</g>
</g>
<!-- Node20 -->
<g id="node11" class="node"><title>Node20</title>
<g id="a_node11"><a xlink:href="group__spi__slave__transport.html" target="_top" xlink:title="MCUXpressoSDK SPI slave driver transport. ">
<polygon fill="white" stroke="black" points="376.5,-516.316 376.5,-535.316 435.5,-535.316 435.5,-516.316 376.5,-516.316"/>
<text text-anchor="middle" x="406" y="-523.316" font-family="Helvetica,sans-Serif" font-size="10.00">SPI Slave</text>
</a>
</g>
</g>
<!-- Node23 -->
<g id="node12" class="node"><title>Node23</title>
<g id="a_node12"><a xlink:href="group__uart__transport.html" target="_top" xlink:title="CMSIS UART driver transport. ">
<polygon fill="white" stroke="black" points="368,-478.316 368,-497.316 444,-497.316 444,-478.316 368,-478.316"/>
<text text-anchor="middle" x="406" y="-485.316" font-family="Helvetica,sans-Serif" font-size="10.00">CMSIS UART</text>
</a>
</g>
</g>
<!-- Node21 -->
<g id="node13" class="node"><title>Node21</title>
<g id="a_node13"><a xlink:href="group__spidev__master__transport.html" target="_top" xlink:title="SPIdev Linux transport. ">
<polygon fill="white" stroke="black" points="353,-440.316 353,-459.316 459,-459.316 459,-440.316 353,-440.316"/>
<text text-anchor="middle" x="406" y="-447.316" font-family="Helvetica,sans-Serif" font-size="10.00">SPIdev Linux Master</text>
</a>
</g>
</g>
<!-- Node19 -->
<g id="node14" class="node"><title>Node19</title>
<g id="a_node14"><a xlink:href="group__spi__master__transport.html" target="_top" xlink:title="MCUXpressoSDK SPI master driver transport. ">
<polygon fill="white" stroke="black" points="373.5,-402.316 373.5,-421.316 438.5,-421.316 438.5,-402.316 373.5,-402.316"/>
<text text-anchor="middle" x="406" y="-409.316" font-family="Helvetica,sans-Serif" font-size="10.00">SPI Master</text>
</a>
</g>
</g>
<!-- Node17 -->
<g id="node15" class="node"><title>Node17</title>
<g id="a_node15"><a xlink:href="group__rpmsg__tty__rtos__transport.html" target="_top" xlink:title="RPMsg TTY RTOS transport. ">
<polygon fill="white" stroke="black" points="357,-364.316 357,-383.316 455,-383.316 455,-364.316 357,-364.316"/>
<text text-anchor="middle" x="406" y="-371.316" font-family="Helvetica,sans-Serif" font-size="10.00">RPMsg TTY RTOS</text>
</a>
</g>
</g>
<!-- Node7 -->
<g id="node16" class="node"><title>Node7</title>
<g id="a_node16"><a xlink:href="group__infra__server.html" target="_top" xlink:title="Server classes. ">
<polygon fill="white" stroke="black" points="384,-326.316 384,-345.316 428,-345.316 428,-326.316 384,-326.316"/>
<text text-anchor="middle" x="406" y="-333.316" font-family="Helvetica,sans-Serif" font-size="10.00">Server</text>
</a>
</g>
</g>
<!-- Node14 -->
<g id="node17" class="node"><title>Node14</title>
<g id="a_node17"><a xlink:href="group__lpi2c__slave__transport.html" target="_top" xlink:title="Lpi2c_slave_transport">
<polygon fill="white" stroke="black" points="351,-288.316 351,-307.316 461,-307.316 461,-288.316 351,-288.316"/>
<text text-anchor="middle" x="406" y="-295.316" font-family="Helvetica,sans-Serif" font-size="10.00">Lpi2c_slave_transport</text>
</a>
</g>
</g>
<!-- Node13 -->
<g id="node18" class="node"><title>Node13</title>
<g id="a_node18"><a xlink:href="group__itbp__transport.html" target="_top" xlink:title="Simple inter&#45;thread communications transport. ">
<polygon fill="white" stroke="black" points="373.5,-250.316 373.5,-269.316 438.5,-269.316 438.5,-250.316 373.5,-250.316"/>
<text text-anchor="middle" x="406" y="-257.316" font-family="Helvetica,sans-Serif" font-size="10.00">Inter&#45;thread</text>
</a>
</g>
</g>
<!-- Node10 -->
<g id="node19" class="node"><title>Node10</title>
<g id="a_node19"><a xlink:href="group__dspi__master__transport.html" target="_top" xlink:title="MCUXpressoSDK DSPI master driver transport. ">
<polygon fill="white" stroke="black" points="370,-212.316 370,-231.316 442,-231.316 442,-212.316 370,-212.316"/>
<text text-anchor="middle" x="406" y="-219.316" font-family="Helvetica,sans-Serif" font-size="10.00">DSPI Master</text>
</a>
</g>
</g>
<!-- Node24 -->
<g id="node20" class="node"><title>Node24</title>
<g id="a_node20"><a xlink:href="group___u_s_b___c_d_c__transport.html" target="_top" xlink:title="USB CDC transport. ">
<polygon fill="white" stroke="black" points="376,-174.316 376,-193.316 436,-193.316 436,-174.316 376,-174.316"/>
<text text-anchor="middle" x="406" y="-181.316" font-family="Helvetica,sans-Serif" font-size="10.00">USB CDC</text>
</a>
</g>
</g>
<!-- Node4 -->
<g id="node21" class="node"><title>Node4</title>
<g id="a_node21"><a xlink:href="group__infra__codec.html" target="_top" xlink:title="Classes used for message serialization. ">
<polygon fill="white" stroke="black" points="371,-136.316 371,-155.316 441,-155.316 441,-136.316 371,-136.316"/>
<text text-anchor="middle" x="406" y="-143.316" font-family="Helvetica,sans-Serif" font-size="10.00">Serialization</text>
</a>
</g>
</g>
<!-- Node2 -->
<g id="node22" class="node"><title>Node2</title>
<g id="a_node22"><a xlink:href="group__rpmsg__lite__rtos__transport.html" target="_top" xlink:title="RPMsg&#45;Lite zero copy transport using RTOS API. ">
<polygon fill="white" stroke="black" points="357.5,-92.3163 357.5,-111.316 454.5,-111.316 454.5,-92.3163 357.5,-92.3163"/>
<text text-anchor="middle" x="406" y="-99.3163" font-family="Helvetica,sans-Serif" font-size="10.00">RPMsg&#45;Lite RTOS</text>
</a>
</g>
</g>
<!-- Node0&#45;&gt;Node11 -->
<g id="edge11" class="edge"><title>Node0&#45;&gt;Node11</title>
<path fill="none" stroke="blueviolet" stroke-dasharray="5,2" d="M161.5,-440.628C164.638,-500.423 182.447,-814.238 212,-843.816 254.242,-886.094 330.333,-881.383 373.273,-874.449"/>
<text text-anchor="middle" x="272.5" y="-881.816" font-family="Helvetica,sans-Serif" font-size="10.00">erpc</text>
</g>
<!-- Node0&#45;&gt;Node12 -->
<g id="edge12" class="edge"><title>Node0&#45;&gt;Node12</title>
<path fill="none" stroke="blueviolet" stroke-dasharray="5,2" d="M160.803,-440.335C159.912,-493.461 158.383,-752.81 212,-805.816 234.751,-828.308 329.574,-830.652 377.302,-830.352"/>
<text text-anchor="middle" x="272.5" y="-831.816" font-family="Helvetica,sans-Serif" font-size="10.00">erpc</text>
</g>
<!-- Node0&#45;&gt;Node9 -->
<g id="edge9" class="edge"><title>Node0&#45;&gt;Node9</title>
<path fill="none" stroke="blueviolet" stroke-dasharray="5,2" d="M160.962,-440.34C160.975,-490.208 163.673,-720.752 212,-767.816 235.403,-790.608 333.693,-792.657 380.291,-792.299"/>
<text text-anchor="middle" x="272.5" y="-793.816" font-family="Helvetica,sans-Serif" font-size="10.00">erpc</text>
</g>
<!-- Node0&#45;&gt;Node16 -->
<g id="edge16" class="edge"><title>Node0&#45;&gt;Node16</title>
<path fill="none" stroke="blueviolet" stroke-dasharray="5,2" d="M161.165,-440.478C162.171,-487.152 168.983,-688.702 212,-729.816 233.114,-749.996 313.83,-753.862 363.95,-754.248"/>
<text text-anchor="middle" x="272.5" y="-755.816" font-family="Helvetica,sans-Serif" font-size="10.00">erpc</text>
</g>
<!-- Node0&#45;&gt;Node22 -->
<g id="edge23" class="edge"><title>Node0&#45;&gt;Node22</title>
<path fill="none" stroke="blueviolet" stroke-dasharray="5,2" d="M161.429,-440.337C163.555,-482.947 174.408,-655.588 212,-690.816 236.222,-713.515 336.97,-716.097 382.494,-716.071"/>
<text text-anchor="middle" x="272.5" y="-717.816" font-family="Helvetica,sans-Serif" font-size="10.00">erpc</text>
</g>
<!-- Node0&#45;&gt;Node3 -->
<g id="edge3" class="edge"><title>Node0&#45;&gt;Node3</title>
<path fill="none" stroke="blueviolet" stroke-dasharray="5,2" d="M161.785,-440.484C165.143,-479.34 179.639,-623.451 212,-652.816 237.084,-675.578 341.264,-678.021 385.257,-678.01"/>
<text text-anchor="middle" x="272.5" y="-678.816" font-family="Helvetica,sans-Serif" font-size="10.00">erpc</text>
</g>
<!-- Node0&#45;&gt;Node5 -->
<g id="edge5" class="edge"><title>Node0&#45;&gt;Node5</title>
<path fill="none" stroke="blueviolet" stroke-dasharray="5,2" d="M162.299,-440.685C167.078,-475.427 184.833,-591.247 212,-614.816 235.734,-635.408 326.863,-639.275 374.925,-639.85"/>
<text text-anchor="middle" x="272.5" y="-640.816" font-family="Helvetica,sans-Serif" font-size="10.00">erpc</text>
</g>
<!-- Node0&#45;&gt;Node18 -->
<g id="edge19" class="edge"><title>Node0&#45;&gt;Node18</title>
<path fill="none" stroke="blueviolet" stroke-dasharray="5,2" d="M161.133,-440.578C162.071,-467.236 168.638,-541.624 212,-576.816 236.463,-596.671 327.715,-600.865 375.458,-601.679"/>
<text text-anchor="middle" x="272.5" y="-602.816" font-family="Helvetica,sans-Serif" font-size="10.00">erpc</text>
</g>
<!-- Node0&#45;&gt;Node6 -->
<g id="edge6" class="edge"><title>Node0&#45;&gt;Node6</title>
<path fill="none" stroke="blueviolet" stroke-dasharray="5,2" d="M162.27,-440.523C165.725,-462.644 177.476,-516.813 212,-541.816 238.494,-561.004 335.669,-563.744 381.184,-563.946"/>
<text text-anchor="middle" x="272.5" y="-564.816" font-family="Helvetica,sans-Serif" font-size="10.00">erpc</text>
</g>
<!-- Node0&#45;&gt;Node20 -->
<g id="edge21" class="edge"><title>Node0&#45;&gt;Node20</title>
<path fill="none" stroke="blueviolet" stroke-dasharray="5,2" d="M165.381,-440.34C172.73,-455.131 189.025,-483.323 212,-496.816 263.86,-527.274 336.589,-529.437 376.316,-527.9"/>
<text text-anchor="middle" x="272.5" y="-529.816" font-family="Helvetica,sans-Serif" font-size="10.00">erpc</text>
</g>
<!-- Node0&#45;&gt;Node23 -->
<g id="edge24" class="edge"><title>Node0&#45;&gt;Node23</title>
<path fill="none" stroke="blueviolet" stroke-dasharray="5,2" d="M175.1,-440.337C185.005,-446.569 198.793,-454.357 212,-458.816 264.327,-476.484 328.263,-483.41 367.811,-486.11"/>
<text text-anchor="middle" x="272.5" y="-484.816" font-family="Helvetica,sans-Serif" font-size="10.00">erpc</text>
</g>
<!-- Node0&#45;&gt;Node21 -->
<g id="edge22" class="edge"><title>Node0&#45;&gt;Node21</title>
<path fill="none" stroke="blueviolet" stroke-dasharray="5,2" d="M194.161,-433.398C234.945,-436.574 304.659,-442.003 352.69,-445.743"/>
<text text-anchor="middle" x="272.5" y="-446.816" font-family="Helvetica,sans-Serif" font-size="10.00">erpc</text>
</g>
<!-- Node0&#45;&gt;Node19 -->
<g id="edge20" class="edge"><title>Node0&#45;&gt;Node19</title>
<path fill="none" stroke="blueviolet" stroke-dasharray="5,2" d="M190.946,-421.3C197.798,-419.487 205.097,-417.838 212,-416.816 268.367,-408.476 334.981,-409.007 373.375,-410.306"/>
<text text-anchor="middle" x="272.5" y="-419.816" font-family="Helvetica,sans-Serif" font-size="10.00">erpc</text>
</g>
<!-- Node0&#45;&gt;Node17 -->
<g id="edge18" class="edge"><title>Node0&#45;&gt;Node17</title>
<path fill="none" stroke="blueviolet" stroke-dasharray="5,2" d="M170.971,-421.081C180.61,-412.32 196.062,-399.915 212,-393.816 258.878,-375.879 316.568,-372.047 356.604,-371.977"/>
<text text-anchor="middle" x="272.5" y="-396.816" font-family="Helvetica,sans-Serif" font-size="10.00">erpc</text>
</g>
<!-- Node0&#45;&gt;Node7 -->
<g id="edge7" class="edge"><title>Node0&#45;&gt;Node7</title>
<path fill="none" stroke="blueviolet" stroke-dasharray="5,2" d="M164.551,-421.107C171.112,-404.708 186.809,-371.844 212,-356.816 266.852,-324.095 346.251,-328.31 383.8,-332.707"/>
<text text-anchor="middle" x="272.5" y="-359.816" font-family="Helvetica,sans-Serif" font-size="10.00">erpc</text>
</g>
<!-- Node0&#45;&gt;Node14 -->
<g id="edge14" class="edge"><title>Node0&#45;&gt;Node14</title>
<path fill="none" stroke="blueviolet" stroke-dasharray="5,2" d="M161.949,-421.215C164.786,-398.226 175.422,-339.997 212,-313.816 251.917,-285.246 309.078,-284.059 350.831,-288.315"/>
<text text-anchor="middle" x="272.5" y="-316.816" font-family="Helvetica,sans-Serif" font-size="10.00">erpc</text>
</g>
<!-- Node0&#45;&gt;Node13 -->
<g id="edge13" class="edge"><title>Node0&#45;&gt;Node13</title>
<path fill="none" stroke="blueviolet" stroke-dasharray="5,2" d="M160.667,-421.217C160.263,-392.763 163.387,-308.513 212,-270.816 258.413,-234.826 331.56,-242.901 373.201,-251.614"/>
<text text-anchor="middle" x="272.5" y="-273.816" font-family="Helvetica,sans-Serif" font-size="10.00">erpc</text>
</g>
<!-- Node0&#45;&gt;Node10 -->
<g id="edge10" class="edge"><title>Node0&#45;&gt;Node10</title>
<path fill="none" stroke="blueviolet" stroke-dasharray="5,2" d="M161.932,-421.19C165.703,-384.438 181.13,-253.773 212,-228.816 235.401,-209.898 320.873,-214.068 369.866,-218.25"/>
<text text-anchor="middle" x="272.5" y="-231.816" font-family="Helvetica,sans-Serif" font-size="10.00">erpc</text>
</g>
<!-- Node0&#45;&gt;Node24 -->
<g id="edge25" class="edge"><title>Node0&#45;&gt;Node24</title>
<path fill="none" stroke="blueviolet" stroke-dasharray="5,2" d="M161.632,-421.216C164.474,-381.264 177.465,-228.862 212,-198.816 235.707,-178.191 327.762,-179.694 375.662,-182.003"/>
<text text-anchor="middle" x="272.5" y="-201.816" font-family="Helvetica,sans-Serif" font-size="10.00">erpc</text>
</g>
<!-- Node0&#45;&gt;Node4 -->
<g id="edge4" class="edge"><title>Node0&#45;&gt;Node4</title>
<path fill="none" stroke="blueviolet" stroke-dasharray="5,2" d="M161.368,-421.051C163.228,-377.348 173.1,-200.317 212,-164.816 234.507,-144.276 321.667,-143.283 370.806,-144.464"/>
<text text-anchor="middle" x="272.5" y="-167.816" font-family="Helvetica,sans-Serif" font-size="10.00">erpc</text>
</g>
<!-- Node0&#45;&gt;Node2 -->
<g id="edge2" class="edge"><title>Node0&#45;&gt;Node2</title>
<path fill="none" stroke="orange" stroke-dasharray="5,2" d="M161.162,-421.072C162.155,-373.998 168.916,-170.698 212,-128.816 222.28,-118.823 303.556,-110.227 357.307,-105.558"/>
<text text-anchor="middle" x="272.5" y="-131.816" font-family="Helvetica,sans-Serif" font-size="10.00">erpc::RPMsgBaseTransport</text>
</g>
<!-- Node0&#45;&gt;Node2 -->
<g id="edge17" class="edge"><title>Node0&#45;&gt;Node2</title>
<path fill="none" stroke="blueviolet" stroke-dasharray="5,2" d="M160.856,-421.154C160.328,-370.575 160.717,-136.941 212,-92.8163 260.565,-51.0295 344.096,-76.6063 383.384,-92.2885"/>
<text text-anchor="middle" x="272.5" y="-95.8163" font-family="Helvetica,sans-Serif" font-size="10.00">erpc</text>
</g>
<!-- Node8 -->
<g id="node24" class="node"><title>Node8</title>
<g id="a_node24"><a xlink:href="group__port__setup__extensions.html" target="_top" xlink:title="Extension setup functions. ">
<polygon fill="white" stroke="black" points="361.5,-48.3163 361.5,-67.3163 450.5,-67.3163 450.5,-48.3163 361.5,-48.3163"/>
<text text-anchor="middle" x="406" y="-55.3163" font-family="Helvetica,sans-Serif" font-size="10.00">Extension Setup</text>
</a>
</g>
</g>
<!-- Node0&#45;&gt;Node8 -->
<g id="edge8" class="edge"><title>Node0&#45;&gt;Node8</title>
<path fill="none" stroke="blueviolet" stroke-dasharray="5,2" d="M160.705,-421.213C159.284,-367.632 155.349,-106.266 212,-56.8163 233.394,-38.142 311.066,-44.6349 361.114,-51.1548"/>
<text text-anchor="middle" x="272.5" y="-59.8163" font-family="Helvetica,sans-Serif" font-size="10.00">erpc</text>
</g>
<!-- Node15 -->
<g id="node25" class="node"><title>Node15</title>
<g id="a_node25"><a xlink:href="group__lpspi__slave__transport.html" target="_top" xlink:title="Lpspi_slave_transport">
<polygon fill="white" stroke="black" points="351,-10.3163 351,-29.3163 461,-29.3163 461,-10.3163 351,-10.3163"/>
<text text-anchor="middle" x="406" y="-17.3163" font-family="Helvetica,sans-Serif" font-size="10.00">Lpspi_slave_transport</text>
</a>
</g>
</g>
<!-- Node0&#45;&gt;Node15 -->
<g id="edge15" class="edge"><title>Node0&#45;&gt;Node15</title>
<path fill="none" stroke="blueviolet" stroke-dasharray="5,2" d="M161.49,-421.234C164.569,-362.84 182.087,-56.4384 212,-28.8163 255.496,11.3485 330.757,0.407942 373.306,-10.2607"/>
<text text-anchor="middle" x="272.5" y="-31.8163" font-family="Helvetica,sans-Serif" font-size="10.00">erpc</text>
</g>
</g>
</svg>
