<?xml version="1.0" encoding="UTF-8" standalone="no"?>
<!DOCTYPE svg PUBLIC "-//W3C//DTD SVG 1.1//EN"
 "http://www.w3.org/Graphics/SVG/1.1/DTD/svg11.dtd">
<!-- Generated by graphviz version 2.38.0 (20140413.2041)
 -->
<!-- Title: Transports Pages: 1 -->
<svg width="345pt" height="864pt"
 viewBox="0.00 0.00 345.00 864.00" xmlns="http://www.w3.org/2000/svg" xmlns:xlink="http://www.w3.org/1999/xlink">
<g id="graph0" class="graph" transform="scale(1 1) rotate(0) translate(4 860)">
<title>Transports</title>
<polygon fill="white" stroke="none" points="-4,4 -4,-860 341,-860 341,4 -4,4"/>
<!-- Node9 -->
<g id="node1" class="node"><title>Node9</title>
<g id="a_node1"><a xlink:href="group__dspi__slave__transport.html" target="_top" xlink:title="MCUXpressoSDK DSPI slave driver transport. ">
<polygon fill="white" stroke="black" points="249.5,-836.5 249.5,-855.5 314.5,-855.5 314.5,-836.5 249.5,-836.5"/>
<text text-anchor="middle" x="282" y="-843.5" font-family="Helvetica,sans-Serif" font-size="10.00">DSPI Slave</text>
</a>
</g>
</g>
<!-- Node10 -->
<g id="node2" class="node"><title>Node10</title>
<g id="a_node2"><a xlink:href="group__i2c__slave__transport.html" target="_top" xlink:title="MCUXpressoSDK I2C slave driver transport. ">
<polygon fill="white" stroke="black" points="253.5,-798.5 253.5,-817.5 310.5,-817.5 310.5,-798.5 253.5,-798.5"/>
<text text-anchor="middle" x="282" y="-805.5" font-family="Helvetica,sans-Serif" font-size="10.00">I2C Slave</text>
</a>
</g>
</g>
<!-- Node7 -->
<g id="node3" class="node"><title>Node7</title>
<g id="a_node3"><a xlink:href="group__port__threads.html" target="_top" xlink:title="Threading model. ">
<polygon fill="white" stroke="black" points="256.5,-760.5 256.5,-779.5 307.5,-779.5 307.5,-760.5 256.5,-760.5"/>
<text text-anchor="middle" x="282" y="-767.5" font-family="Helvetica,sans-Serif" font-size="10.00">Threads</text>
</a>
</g>
</g>
<!-- Node14 -->
<g id="node4" class="node"><title>Node14</title>
<g id="a_node4"><a xlink:href="group__mu__transport.html" target="_top" xlink:title="Messaging Unit transport. ">
<polygon fill="white" stroke="black" points="240,-722.5 240,-741.5 324,-741.5 324,-722.5 240,-722.5"/>
<text text-anchor="middle" x="282" y="-729.5" font-family="Helvetica,sans-Serif" font-size="10.00">Messaging Unit</text>
</a>
</g>
</g>
<!-- Node22 -->
<g id="node5" class="node"><title>Node22</title>
<g id="a_node5"><a xlink:href="group__tcp__transport.html" target="_top" xlink:title="Simple TCP/IP transport. ">
<polygon fill="white" stroke="black" points="258.5,-684.5 258.5,-703.5 305.5,-703.5 305.5,-684.5 258.5,-684.5"/>
<text text-anchor="middle" x="282" y="-691.5" font-family="Helvetica,sans-Serif" font-size="10.00">TCP/IP</text>
</a>
</g>
</g>
<!-- Node1 -->
<g id="node6" class="node"><title>Node1</title>
<g id="a_node6"><a xlink:href="group__infra.html" target="_top" xlink:title="C++ core. ">
<polygon fill="white" stroke="black" points="0,-418.5 0,-437.5 73,-437.5 73,-418.5 0,-418.5"/>
<text text-anchor="middle" x="36.5" y="-425.5" font-family="Helvetica,sans-Serif" font-size="10.00">Infrastructure</text>
</a>
</g>
</g>
<!-- Node0 -->
<g id="node8" class="node"><title>Node0</title>
<polygon fill="#bfbfbf" stroke="black" points="110,-418.5 110,-437.5 172,-437.5 172,-418.5 110,-418.5"/>
<text text-anchor="middle" x="141" y="-425.5" font-family="Helvetica,sans-Serif" font-size="10.00">Transports</text>
</g>
<!-- Node1&#45;&gt;Node0 -->
<g id="edge1" class="edge"><title>Node1&#45;&gt;Node0</title>
<path fill="none" stroke="black" d="M83.152,-428C92.2329,-428 101.551,-428 109.948,-428"/>
<polygon fill="black" stroke="black" points="83.0619,-424.5 73.0619,-428 83.0618,-431.5 83.0619,-424.5"/>
</g>
<!-- Node2 -->
<g id="node7" class="node"><title>Node2</title>
<g id="a_node7"><a xlink:href="group__infra__client.html" target="_top" xlink:title="Client classes. ">
<polygon fill="white" stroke="black" points="261.5,-646.5 261.5,-665.5 302.5,-665.5 302.5,-646.5 261.5,-646.5"/>
<text text-anchor="middle" x="282" y="-653.5" font-family="Helvetica,sans-Serif" font-size="10.00">Client</text>
</a>
</g>
</g>
<!-- Node0&#45;&gt;Node9 -->
<g id="edge9" class="edge"><title>Node0&#45;&gt;Node9</title>
<path fill="none" stroke="blueviolet" stroke-dasharray="5,2" d="M142.43,-437.753C144.813,-488.896 157.485,-726.235 190,-791 200.294,-811.505 207.5,-814.91 227,-827 233.842,-831.242 241.76,-834.702 249.389,-837.45"/>
<text text-anchor="middle" x="199.5" y="-818" font-family="Helvetica,sans-Serif" font-size="10.00">erpc</text>
</g>
<!-- Node0&#45;&gt;Node10 -->
<g id="edge10" class="edge"><title>Node0&#45;&gt;Node10</title>
<path fill="none" stroke="blueviolet" stroke-dasharray="5,2" d="M142.593,-437.662C145.645,-485.334 160.582,-695.495 190,-753 200.449,-773.426 207.5,-776.91 227,-789 235.024,-793.975 244.529,-797.874 253.311,-800.811"/>
<text text-anchor="middle" x="199.5" y="-779" font-family="Helvetica,sans-Serif" font-size="10.00">erpc</text>
</g>
<!-- Node0&#45;&gt;Node7 -->
<g id="edge7" class="edge"><title>Node0&#45;&gt;Node7</title>
<path fill="none" stroke="blueviolet" stroke-dasharray="5,2" d="M141.522,-437.589C140.05,-475.352 138.441,-616.543 190,-715 200.644,-735.326 207.5,-738.91 227,-751 235.953,-756.551 246.75,-760.763 256.329,-763.793"/>
<text text-anchor="middle" x="199.5" y="-741" font-family="Helvetica,sans-Serif" font-size="10.00">erpc</text>
</g>
<!-- Node0&#45;&gt;Node14 -->
<g id="edge14" class="edge"><title>Node0&#45;&gt;Node14</title>
<path fill="none" stroke="blueviolet" stroke-dasharray="5,2" d="M141.844,-437.722C141.69,-472.471 144.638,-592.922 190,-677 200.894,-697.192 207.5,-700.91 227,-713 232.997,-716.718 239.821,-719.836 246.553,-722.399"/>
<text text-anchor="middle" x="199.5" y="-703" font-family="Helvetica,sans-Serif" font-size="10.00">erpc</text>
</g>
<!-- Node0&#45;&gt;Node22 -->
<g id="edge22" class="edge"><title>Node0&#45;&gt;Node22</title>
<path fill="none" stroke="blueviolet" stroke-dasharray="5,2" d="M142.275,-437.513C143.548,-468.55 150.655,-568.89 190,-639 201.228,-659.009 207.5,-662.91 227,-675 236.629,-680.97 248.391,-685.391 258.476,-688.458"/>
<text text-anchor="middle" x="199.5" y="-665" font-family="Helvetica,sans-Serif" font-size="10.00">erpc</text>
</g>
<!-- Node0&#45;&gt;Node2 -->
<g id="edge2" class="edge"><title>Node0&#45;&gt;Node2</title>
<path fill="none" stroke="blueviolet" stroke-dasharray="5,2" d="M142.954,-437.607C146.005,-464.816 157.313,-544.055 190,-600 201.732,-620.08 207.319,-624.61 227,-637 237.513,-643.618 250.634,-648.304 261.31,-651.365"/>
<text text-anchor="middle" x="199.5" y="-627" font-family="Helvetica,sans-Serif" font-size="10.00">erpc</text>
</g>
<!-- Node18 -->
<g id="node9" class="node"><title>Node18</title>
<g id="a_node9"><a xlink:href="group__serial__transport.html" target="_top" xlink:title="POSIX and Win32 serial port transport. ">
<polygon fill="white" stroke="black" points="251.5,-608.5 251.5,-627.5 312.5,-627.5 312.5,-608.5 251.5,-608.5"/>
<text text-anchor="middle" x="282" y="-615.5" font-family="Helvetica,sans-Serif" font-size="10.00">Serial port</text>
</a>
</g>
</g>
<!-- Node0&#45;&gt;Node18 -->
<g id="edge18" class="edge"><title>Node0&#45;&gt;Node18</title>
<path fill="none" stroke="blueviolet" stroke-dasharray="5,2" d="M144.048,-437.55C149.183,-460.141 164.089,-518.108 190,-560 202.568,-580.32 206.95,-586.006 227,-599 234.339,-603.756 243.014,-607.488 251.238,-610.337"/>
<text text-anchor="middle" x="199.5" y="-588" font-family="Helvetica,sans-Serif" font-size="10.00">erpc</text>
</g>
<!-- Node4 -->
<g id="node10" class="node"><title>Node4</title>
<g id="a_node10"><a xlink:href="group__infra__utility.html" target="_top" xlink:title="Utility code used by the infrastructure. ">
<polygon fill="white" stroke="black" points="257.5,-570.5 257.5,-589.5 306.5,-589.5 306.5,-570.5 257.5,-570.5"/>
<text text-anchor="middle" x="282" y="-577.5" font-family="Helvetica,sans-Serif" font-size="10.00">Utilities</text>
</a>
</g>
</g>
<!-- Node0&#45;&gt;Node4 -->
<g id="edge4" class="edge"><title>Node0&#45;&gt;Node4</title>
<path fill="none" stroke="blueviolet" stroke-dasharray="5,2" d="M145.017,-437.761C153.378,-463.008 179.43,-530.608 227,-561 236.213,-566.886 247.478,-571.222 257.332,-574.252"/>
<text text-anchor="middle" x="199.5" y="-548" font-family="Helvetica,sans-Serif" font-size="10.00">erpc</text>
</g>
<!-- Node20 -->
<g id="node11" class="node"><title>Node20</title>
<g id="a_node11"><a xlink:href="group__spi__slave__transport.html" target="_top" xlink:title="MCUXpressoSDK SPI slave driver transport. ">
<polygon fill="white" stroke="black" points="252.5,-532.5 252.5,-551.5 311.5,-551.5 311.5,-532.5 252.5,-532.5"/>
<text text-anchor="middle" x="282" y="-539.5" font-family="Helvetica,sans-Serif" font-size="10.00">SPI Slave</text>
</a>
</g>
</g>
<!-- Node0&#45;&gt;Node20 -->
<g id="edge20" class="edge"><title>Node0&#45;&gt;Node20</title>
<path fill="none" stroke="blueviolet" stroke-dasharray="5,2" d="M147.69,-437.53C159.743,-456.846 189.812,-500.671 227,-523 234.754,-527.656 243.818,-531.402 252.282,-534.298"/>
<text text-anchor="middle" x="199.5" y="-511" font-family="Helvetica,sans-Serif" font-size="10.00">erpc</text>
</g>
<!-- Node23 -->
<g id="node12" class="node"><title>Node23</title>
<g id="a_node12"><a xlink:href="group__uart__transport.html" target="_top" xlink:title="CMSIS UART driver transport. ">
<polygon fill="white" stroke="black" points="244,-494.5 244,-513.5 320,-513.5 320,-494.5 244,-494.5"/>
<text text-anchor="middle" x="282" y="-501.5" font-family="Helvetica,sans-Serif" font-size="10.00">CMSIS UART</text>
</a>
</g>
</g>
<!-- Node0&#45;&gt;Node23 -->
<g id="edge23" class="edge"><title>Node0&#45;&gt;Node23</title>
<path fill="none" stroke="blueviolet" stroke-dasharray="5,2" d="M153.996,-437.683C169.875,-450.102 199.125,-471.629 227,-485 234.348,-488.525 242.529,-491.741 250.256,-494.484"/>
<text text-anchor="middle" x="199.5" y="-477" font-family="Helvetica,sans-Serif" font-size="10.00">erpc</text>
</g>
<!-- Node21 -->
<g id="node13" class="node"><title>Node21</title>
<g id="a_node13"><a xlink:href="group__spidev__master__transport.html" target="_top" xlink:title="SPIdev Linux transport. ">
<polygon fill="white" stroke="black" points="229,-456.5 229,-475.5 335,-475.5 335,-456.5 229,-456.5"/>
<text text-anchor="middle" x="282" y="-463.5" font-family="Helvetica,sans-Serif" font-size="10.00">SPIdev Linux Master</text>
</a>
</g>
</g>
<!-- Node0&#45;&gt;Node21 -->
<g id="edge21" class="edge"><title>Node0&#45;&gt;Node21</title>
<path fill="none" stroke="blueviolet" stroke-dasharray="5,2" d="M171.625,-437.539C177.686,-439.411 184.034,-441.315 190,-443 206.623,-447.694 225.082,-452.444 241.006,-456.399"/>
<text text-anchor="middle" x="199.5" y="-450" font-family="Helvetica,sans-Serif" font-size="10.00">erpc</text>
</g>
<!-- Node19 -->
<g id="node14" class="node"><title>Node19</title>
<g id="a_node14"><a xlink:href="group__spi__master__transport.html" target="_top" xlink:title="MCUXpressoSDK SPI master driver transport. ">
<polygon fill="white" stroke="black" points="249.5,-418.5 249.5,-437.5 314.5,-437.5 314.5,-418.5 249.5,-418.5"/>
<text text-anchor="middle" x="282" y="-425.5" font-family="Helvetica,sans-Serif" font-size="10.00">SPI Master</text>
</a>
</g>
</g>
<!-- Node0&#45;&gt;Node19 -->
<g id="edge19" class="edge"><title>Node0&#45;&gt;Node19</title>
<path fill="none" stroke="blueviolet" stroke-dasharray="5,2" d="M172.161,-428C194.997,-428 226.281,-428 249.451,-428"/>
<text text-anchor="middle" x="199.5" y="-431" font-family="Helvetica,sans-Serif" font-size="10.00">erpc</text>
</g>
<!-- Node17 -->
<g id="node15" class="node"><title>Node17</title>
<g id="a_node15"><a xlink:href="group__rpmsg__tty__rtos__transport.html" target="_top" xlink:title="RPMsg TTY RTOS transport. ">
<polygon fill="white" stroke="black" points="233,-380.5 233,-399.5 331,-399.5 331,-380.5 233,-380.5"/>
<text text-anchor="middle" x="282" y="-387.5" font-family="Helvetica,sans-Serif" font-size="10.00">RPMsg TTY RTOS</text>
</a>
</g>
</g>
<!-- Node0&#45;&gt;Node17 -->
<g id="edge17" class="edge"><title>Node0&#45;&gt;Node17</title>
<path fill="none" stroke="blueviolet" stroke-dasharray="5,2" d="M171.625,-418.461C177.686,-416.589 184.034,-414.685 190,-413 206.623,-408.306 225.082,-403.556 241.006,-399.601"/>
<text text-anchor="middle" x="199.5" y="-416" font-family="Helvetica,sans-Serif" font-size="10.00">erpc</text>
</g>
<!-- Node5 -->
<g id="node16" class="node"><title>Node5</title>
<g id="a_node16"><a xlink:href="group__infra__server.html" target="_top" xlink:title="Server classes. ">
<polygon fill="white" stroke="black" points="260,-342.5 260,-361.5 304,-361.5 304,-342.5 260,-342.5"/>
<text text-anchor="middle" x="282" y="-349.5" font-family="Helvetica,sans-Serif" font-size="10.00">Server</text>
</a>
</g>
</g>
<!-- Node0&#45;&gt;Node5 -->
<g id="edge5" class="edge"><title>Node0&#45;&gt;Node5</title>
<path fill="none" stroke="blueviolet" stroke-dasharray="5,2" d="M153.996,-418.317C169.875,-405.898 199.125,-384.371 227,-371 237.484,-365.971 249.665,-361.57 259.801,-358.274"/>
<text text-anchor="middle" x="199.5" y="-395" font-family="Helvetica,sans-Serif" font-size="10.00">erpc</text>
</g>
<!-- Node12 -->
<g id="node17" class="node"><title>Node12</title>
<g id="a_node17"><a xlink:href="group__lpi2c__slave__transport.html" target="_top" xlink:title="Lpi2c_slave_transport">
<polygon fill="white" stroke="black" points="227,-304.5 227,-323.5 337,-323.5 337,-304.5 227,-304.5"/>
<text text-anchor="middle" x="282" y="-311.5" font-family="Helvetica,sans-Serif" font-size="10.00">Lpi2c_slave_transport</text>
</a>
</g>
</g>
<!-- Node0&#45;&gt;Node12 -->
<g id="edge12" class="edge"><title>Node0&#45;&gt;Node12</title>
<path fill="none" stroke="blueviolet" stroke-dasharray="5,2" d="M147.69,-418.47C159.743,-399.154 189.812,-355.329 227,-333 233.22,-329.265 240.283,-326.116 247.204,-323.521"/>
<text text-anchor="middle" x="199.5" y="-365" font-family="Helvetica,sans-Serif" font-size="10.00">erpc</text>
</g>
<!-- Node11 -->
<g id="node18" class="node"><title>Node11</title>
<g id="a_node18"><a xlink:href="group__itbp__transport.html" target="_top" xlink:title="Simple inter&#45;thread communications transport. ">
<polygon fill="white" stroke="black" points="249.5,-266.5 249.5,-285.5 314.5,-285.5 314.5,-266.5 249.5,-266.5"/>
<text text-anchor="middle" x="282" y="-273.5" font-family="Helvetica,sans-Serif" font-size="10.00">Inter&#45;thread</text>
</a>
</g>
</g>
<!-- Node0&#45;&gt;Node11 -->
<g id="edge11" class="edge"><title>Node0&#45;&gt;Node11</title>
<path fill="none" stroke="blueviolet" stroke-dasharray="5,2" d="M145.017,-418.239C153.378,-392.992 179.43,-325.392 227,-295 233.784,-290.666 241.681,-287.172 249.307,-284.421"/>
<text text-anchor="middle" x="199.5" y="-334" font-family="Helvetica,sans-Serif" font-size="10.00">erpc</text>
</g>
<!-- Node8 -->
<g id="node19" class="node"><title>Node8</title>
<g id="a_node19"><a xlink:href="group__dspi__master__transport.html" target="_top" xlink:title="MCUXpressoSDK DSPI master driver transport. ">
<polygon fill="white" stroke="black" points="246,-228.5 246,-247.5 318,-247.5 318,-228.5 246,-228.5"/>
<text text-anchor="middle" x="282" y="-235.5" font-family="Helvetica,sans-Serif" font-size="10.00">DSPI Master</text>
</a>
</g>
</g>
<!-- Node0&#45;&gt;Node8 -->
<g id="edge8" class="edge"><title>Node0&#45;&gt;Node8</title>
<path fill="none" stroke="blueviolet" stroke-dasharray="5,2" d="M144.048,-418.45C149.183,-395.859 164.089,-337.892 190,-296 202.568,-275.68 206.95,-269.994 227,-257 232.838,-253.217 239.521,-250.082 246.15,-247.523"/>
<text text-anchor="middle" x="199.5" y="-299" font-family="Helvetica,sans-Serif" font-size="10.00">erpc</text>
</g>
<!-- Node24 -->
<g id="node20" class="node"><title>Node24</title>
<g id="a_node20"><a xlink:href="group___u_s_b___c_d_c__transport.html" target="_top" xlink:title="USB CDC transport. ">
<polygon fill="white" stroke="black" points="252,-190.5 252,-209.5 312,-209.5 312,-190.5 252,-190.5"/>
<text text-anchor="middle" x="282" y="-197.5" font-family="Helvetica,sans-Serif" font-size="10.00">USB CDC</text>
</a>
</g>
</g>
<!-- Node0&#45;&gt;Node24 -->
<g id="edge24" class="edge"><title>Node0&#45;&gt;Node24</title>
<path fill="none" stroke="blueviolet" stroke-dasharray="5,2" d="M142.954,-418.393C146.005,-391.184 157.313,-311.945 190,-256 201.732,-235.92 207.319,-231.39 227,-219 234.569,-214.235 243.491,-210.472 251.878,-207.595"/>
<text text-anchor="middle" x="199.5" y="-259" font-family="Helvetica,sans-Serif" font-size="10.00">erpc</text>
</g>
<!-- Node3 -->
<g id="node21" class="node"><title>Node3</title>
<g id="a_node21"><a xlink:href="group__infra__codec.html" target="_top" xlink:title="Classes used for message serialization. ">
<polygon fill="white" stroke="black" points="247,-152.5 247,-171.5 317,-171.5 317,-152.5 247,-152.5"/>
<text text-anchor="middle" x="282" y="-159.5" font-family="Helvetica,sans-Serif" font-size="10.00">Serialization</text>
</a>
</g>
</g>
<!-- Node0&#45;&gt;Node3 -->
<g id="edge3" class="edge"><title>Node0&#45;&gt;Node3</title>
<path fill="none" stroke="blueviolet" stroke-dasharray="5,2" d="M142.275,-418.487C143.548,-387.45 150.655,-287.11 190,-217 201.228,-196.991 207.5,-193.09 227,-181 233.082,-177.229 240.014,-174.077 246.837,-171.493"/>
<text text-anchor="middle" x="199.5" y="-220" font-family="Helvetica,sans-Serif" font-size="10.00">erpc</text>
</g>
<!-- Node15 -->
<g id="node22" class="node"><title>Node15</title>
<g id="a_node22"><a xlink:href="group__rpmsg__lite__rtos__transport.html" target="_top" xlink:title="RPMsg&#45;Lite zero copy transport using RTOS API. ">
<polygon fill="white" stroke="black" points="233.5,-114.5 233.5,-133.5 330.5,-133.5 330.5,-114.5 233.5,-114.5"/>
<text text-anchor="middle" x="282" y="-121.5" font-family="Helvetica,sans-Serif" font-size="10.00">RPMsg&#45;Lite RTOS</text>
</a>
</g>
</g>
<!-- Node0&#45;&gt;Node15 -->
<g id="edge15" class="edge"><title>Node0&#45;&gt;Node15</title>
<path fill="none" stroke="blueviolet" stroke-dasharray="5,2" d="M141.844,-418.278C141.69,-383.529 144.638,-263.078 190,-179 200.894,-158.808 207.5,-155.09 227,-143 232.997,-139.282 239.821,-136.164 246.553,-133.601"/>
<text text-anchor="middle" x="199.5" y="-182" font-family="Helvetica,sans-Serif" font-size="10.00">erpc</text>
</g>
<!-- Node16 -->
<g id="node23" class="node"><title>Node16</title>
<g id="a_node23"><a xlink:href="group__rpmsg__lite__transport.html" target="_top" xlink:title="RPMsg&#45;Lite zero copy transport. ">
<polygon fill="white" stroke="black" points="248,-76.5 248,-95.5 316,-95.5 316,-76.5 248,-76.5"/>
<text text-anchor="middle" x="282" y="-83.5" font-family="Helvetica,sans-Serif" font-size="10.00">RPMsg&#45;Lite</text>
</a>
</g>
</g>
<!-- Node0&#45;&gt;Node16 -->
<g id="edge16" class="edge"><title>Node0&#45;&gt;Node16</title>
<path fill="none" stroke="blueviolet" stroke-dasharray="5,2" d="M141.522,-418.411C140.05,-380.648 138.441,-239.457 190,-141 200.644,-120.674 207.5,-117.09 227,-105 233.419,-101.02 240.787,-97.7283 247.973,-95.0674"/>
<text text-anchor="middle" x="199.5" y="-144" font-family="Helvetica,sans-Serif" font-size="10.00">erpc</text>
</g>
<!-- Node6 -->
<g id="node24" class="node"><title>Node6</title>
<g id="a_node24"><a xlink:href="group__port__setup__extensions.html" target="_top" xlink:title="Extension setup functions. ">
<polygon fill="white" stroke="black" points="237.5,-38.5 237.5,-57.5 326.5,-57.5 326.5,-38.5 237.5,-38.5"/>
<text text-anchor="middle" x="282" y="-45.5" font-family="Helvetica,sans-Serif" font-size="10.00">Extension Setup</text>
</a>
</g>
</g>
<!-- Node0&#45;&gt;Node6 -->
<g id="edge6" class="edge"><title>Node0&#45;&gt;Node6</title>
<path fill="none" stroke="blueviolet" stroke-dasharray="5,2" d="M142.593,-418.338C145.645,-370.666 160.582,-160.505 190,-103 200.449,-82.5738 207.5,-79.0903 227,-67 232.997,-63.2817 239.821,-60.1644 246.553,-57.6008"/>
<text text-anchor="middle" x="199.5" y="-106" font-family="Helvetica,sans-Serif" font-size="10.00">erpc</text>
</g>
<!-- Node13 -->
<g id="node25" class="node"><title>Node13</title>
<g id="a_node25"><a xlink:href="group__lpspi__slave__transport.html" target="_top" xlink:title="Lpspi_slave_transport">
<polygon fill="white" stroke="black" points="227,-0.5 227,-19.5 337,-19.5 337,-0.5 227,-0.5"/>
<text text-anchor="middle" x="282" y="-7.5" font-family="Helvetica,sans-Serif" font-size="10.00">Lpspi_slave_transport</text>
</a>
</g>
</g>
<!-- Node0&#45;&gt;Node13 -->
<g id="edge13" class="edge"><title>Node0&#45;&gt;Node13</title>
<path fill="none" stroke="blueviolet" stroke-dasharray="5,2" d="M142.43,-418.247C144.813,-367.104 157.485,-129.765 190,-65 200.294,-44.4952 207.5,-41.0903 227,-29 232.997,-25.2817 239.821,-22.1644 246.553,-19.6008"/>
<text text-anchor="middle" x="199.5" y="-68" font-family="Helvetica,sans-Serif" font-size="10.00">erpc</text>
</g>
</g>
</svg>
