<?xml version="1.0" encoding="UTF-8" standalone="no"?>
<!DOCTYPE svg PUBLIC "-//W3C//DTD SVG 1.1//EN"
 "http://www.w3.org/Graphics/SVG/1.1/DTD/svg11.dtd">
<!-- Generated by graphviz version 2.38.0 (20140413.2041)
 -->
<!-- Title: DSPI Master Pages: 1 -->
<svg width="386pt" height="572pt"
 viewBox="0.00 0.00 386.00 571.50" xmlns="http://www.w3.org/2000/svg" xmlns:xlink="http://www.w3.org/1999/xlink">
<g id="graph0" class="graph" transform="scale(1 1) rotate(0) translate(4 567.5)">
<title>DSPI Master</title>
<polygon fill="white" stroke="none" points="-4,4 -4,-567.5 382,-567.5 382,4 -4,4"/>
<!-- Node1 -->
<g id="node1" class="node"><title>Node1</title>
<g id="a_node1"><a xlink:href="group__transports.html" target="_top" xlink:title="Transport layer classes. ">
<polygon fill="white" stroke="black" points="0,-278 0,-297 89,-297 89,-278 0,-278"/>
<text text-anchor="middle" x="44.5" y="-285" font-family="Helvetica,sans-Serif" font-size="10.00">Transport Layers</text>
</a>
</g>
</g>
<!-- Node0 -->
<g id="node15" class="node"><title>Node0</title>
<polygon fill="#bfbfbf" stroke="black" points="126,-278 126,-297 198,-297 198,-278 126,-278"/>
<text text-anchor="middle" x="162" y="-285" font-family="Helvetica,sans-Serif" font-size="10.00">DSPI Master</text>
</g>
<!-- Node1&#45;&gt;Node0 -->
<g id="edge1" class="edge"><title>Node1&#45;&gt;Node0</title>
<path fill="none" stroke="black" d="M99.2729,-287.5C108.316,-287.5 117.491,-287.5 125.903,-287.5"/>
<polygon fill="black" stroke="black" points="99.1656,-284 89.1656,-287.5 99.1656,-291 99.1656,-284"/>
</g>
<!-- Node8 -->
<g id="node2" class="node"><title>Node8</title>
<g id="a_node2"><a xlink:href="group__dspi__slave__transport.html" target="_top" xlink:title="Kinetis SDK DSPI slave driver transport. ">
<polygon fill="white" stroke="black" points="283,-544 283,-563 348,-563 348,-544 283,-544"/>
<text text-anchor="middle" x="315.5" y="-551" font-family="Helvetica,sans-Serif" font-size="10.00">DSPI Slave</text>
</a>
</g>
</g>
<!-- Node7 -->
<g id="node3" class="node"><title>Node7</title>
<g id="a_node3"><a xlink:href="group__port__threads.html" target="_top" xlink:title="Threading model. ">
<polygon fill="white" stroke="black" points="290,-506 290,-525 341,-525 341,-506 290,-506"/>
<text text-anchor="middle" x="315.5" y="-513" font-family="Helvetica,sans-Serif" font-size="10.00">Threads</text>
</a>
</g>
</g>
<!-- Node15 -->
<g id="node4" class="node"><title>Node15</title>
<g id="a_node4"><a xlink:href="group__tcp__transport.html" target="_top" xlink:title="Simple TCP/IP transport. ">
<polygon fill="white" stroke="black" points="292,-468 292,-487 339,-487 339,-468 292,-468"/>
<text text-anchor="middle" x="315.5" y="-475" font-family="Helvetica,sans-Serif" font-size="10.00">TCP/IP</text>
</a>
</g>
</g>
<!-- Node2 -->
<g id="node5" class="node"><title>Node2</title>
<g id="a_node5"><a xlink:href="group__infra__client.html" target="_top" xlink:title="Client classes. ">
<polygon fill="white" stroke="black" points="295,-430 295,-449 336,-449 336,-430 295,-430"/>
<text text-anchor="middle" x="315.5" y="-437" font-family="Helvetica,sans-Serif" font-size="10.00">Client</text>
</a>
</g>
</g>
<!-- Node11 -->
<g id="node6" class="node"><title>Node11</title>
<g id="a_node6"><a xlink:href="group__rpmsg__lite__zc__transport.html" target="_top" xlink:title="Rpmsg_lite_zc_transport">
<polygon fill="white" stroke="black" points="253,-392 253,-411 378,-411 378,-392 253,-392"/>
<text text-anchor="middle" x="315.5" y="-399" font-family="Helvetica,sans-Serif" font-size="10.00">Rpmsg_lite_zc_transport</text>
</a>
</g>
</g>
<!-- Node4 -->
<g id="node7" class="node"><title>Node4</title>
<g id="a_node7"><a xlink:href="group__infra__transport.html" target="_top" xlink:title="Superclasses for building transports. ">
<polygon fill="white" stroke="black" points="284.5,-354 284.5,-373 346.5,-373 346.5,-354 284.5,-354"/>
<text text-anchor="middle" x="315.5" y="-361" font-family="Helvetica,sans-Serif" font-size="10.00">Transports</text>
</a>
</g>
</g>
<!-- Node12 -->
<g id="node8" class="node"><title>Node12</title>
<g id="a_node8"><a xlink:href="group__serial__transport.html" target="_top" xlink:title="POSIX and Win32 serial port transport. ">
<polygon fill="white" stroke="black" points="285,-316 285,-335 346,-335 346,-316 285,-316"/>
<text text-anchor="middle" x="315.5" y="-323" font-family="Helvetica,sans-Serif" font-size="10.00">Serial port</text>
</a>
</g>
</g>
<!-- Node5 -->
<g id="node9" class="node"><title>Node5</title>
<g id="a_node9"><a xlink:href="group__infra__utility.html" target="_top" xlink:title="Utility code used by the infrastructure. ">
<polygon fill="white" stroke="black" points="291,-278 291,-297 340,-297 340,-278 291,-278"/>
<text text-anchor="middle" x="315.5" y="-285" font-family="Helvetica,sans-Serif" font-size="10.00">Utilities</text>
</a>
</g>
</g>
<!-- Node14 -->
<g id="node10" class="node"><title>Node14</title>
<g id="a_node10"><a xlink:href="group__spi__slave__transport.html" target="_top" xlink:title="Kinetis SDK SPI slave driver transport. ">
<polygon fill="white" stroke="black" points="286,-240 286,-259 345,-259 345,-240 286,-240"/>
<text text-anchor="middle" x="315.5" y="-247" font-family="Helvetica,sans-Serif" font-size="10.00">SPI Slave</text>
</a>
</g>
</g>
<!-- Node16 -->
<g id="node11" class="node"><title>Node16</title>
<g id="a_node11"><a xlink:href="group__uart__transport.html" target="_top" xlink:title="CMSIS UART driver transport. ">
<polygon fill="white" stroke="black" points="277.5,-202 277.5,-221 353.5,-221 353.5,-202 277.5,-202"/>
<text text-anchor="middle" x="315.5" y="-209" font-family="Helvetica,sans-Serif" font-size="10.00">CMSIS UART</text>
</a>
</g>
</g>
<!-- Node13 -->
<g id="node12" class="node"><title>Node13</title>
<g id="a_node12"><a xlink:href="group__spi__master__transport.html" target="_top" xlink:title="Kinetis SDK SPI master driver transport. ">
<polygon fill="white" stroke="black" points="283,-164 283,-183 348,-183 348,-164 283,-164"/>
<text text-anchor="middle" x="315.5" y="-171" font-family="Helvetica,sans-Serif" font-size="10.00">SPI Master</text>
</a>
</g>
</g>
<!-- Node6 -->
<g id="node13" class="node"><title>Node6</title>
<g id="a_node13"><a xlink:href="group__infra__server.html" target="_top" xlink:title="Server classes. ">
<polygon fill="white" stroke="black" points="293.5,-126 293.5,-145 337.5,-145 337.5,-126 293.5,-126"/>
<text text-anchor="middle" x="315.5" y="-133" font-family="Helvetica,sans-Serif" font-size="10.00">Server</text>
</a>
</g>
</g>
<!-- Node9 -->
<g id="node14" class="node"><title>Node9</title>
<g id="a_node14"><a xlink:href="group__itbp__transport.html" target="_top" xlink:title="Simple inter&#45;thread communications transport. ">
<polygon fill="white" stroke="black" points="283,-88 283,-107 348,-107 348,-88 283,-88"/>
<text text-anchor="middle" x="315.5" y="-95" font-family="Helvetica,sans-Serif" font-size="10.00">Inter&#45;thread</text>
</a>
</g>
</g>
<!-- Node0&#45;&gt;Node8 -->
<g id="edge8" class="edge"><title>Node0&#45;&gt;Node8</title>
<path fill="none" stroke="blueviolet" stroke-dasharray="5,2" d="M163.45,-297.156C165.304,-328.649 174.371,-430.378 216,-500.5 227.401,-519.704 233.635,-523.376 253,-534.5 262.109,-539.732 272.82,-543.684 282.729,-546.59"/>
<text text-anchor="middle" x="225.5" y="-525.5" font-family="Helvetica,sans-Serif" font-size="10.00">erpc</text>
</g>
<!-- Node0&#45;&gt;Node7 -->
<g id="edge7" class="edge"><title>Node0&#45;&gt;Node7</title>
<path fill="none" stroke="blueviolet" stroke-dasharray="5,2" d="M164.19,-297.267C167.916,-324.922 181.255,-405.387 216,-461.5 227.917,-480.745 233.454,-485.083 253,-496.5 264.29,-503.094 278.106,-507.63 289.781,-510.611"/>
<text text-anchor="middle" x="225.5" y="-488.5" font-family="Helvetica,sans-Serif" font-size="10.00">erpc</text>
</g>
<!-- Node0&#45;&gt;Node15 -->
<g id="edge15" class="edge"><title>Node0&#45;&gt;Node15</title>
<path fill="none" stroke="blueviolet" stroke-dasharray="5,2" d="M165.431,-297.135C171.47,-319.923 188.668,-378.382 216,-420.5 228.832,-440.274 232.894,-446.195 253,-458.5 264.819,-465.733 279.618,-470.417 291.736,-473.324"/>
<text text-anchor="middle" x="225.5" y="-449.5" font-family="Helvetica,sans-Serif" font-size="10.00">erpc</text>
</g>
<!-- Node0&#45;&gt;Node2 -->
<g id="edge2" class="edge"><title>Node0&#45;&gt;Node2</title>
<path fill="none" stroke="blueviolet" stroke-dasharray="5,2" d="M166.175,-297.015C175.158,-322.265 203.372,-391.043 253,-420.5 265.973,-428.2 282.366,-433.063 294.965,-435.939"/>
<text text-anchor="middle" x="225.5" y="-408.5" font-family="Helvetica,sans-Serif" font-size="10.00">erpc</text>
</g>
<!-- Node0&#45;&gt;Node11 -->
<g id="edge11" class="edge"><title>Node0&#45;&gt;Node11</title>
<path fill="none" stroke="blueviolet" stroke-dasharray="5,2" d="M169.097,-297.15C181.99,-316.689 214.058,-360.904 253,-382.5 259.841,-386.294 267.539,-389.434 275.114,-391.993"/>
<text text-anchor="middle" x="225.5" y="-372.5" font-family="Helvetica,sans-Serif" font-size="10.00">erpc</text>
</g>
<!-- Node0&#45;&gt;Node4 -->
<g id="edge4" class="edge"><title>Node0&#45;&gt;Node4</title>
<path fill="none" stroke="blueviolet" stroke-dasharray="5,2" d="M175.445,-297.062C192.225,-309.549 223.421,-331.36 253,-344.5 262.906,-348.901 274.135,-352.694 284.262,-355.709"/>
<text text-anchor="middle" x="225.5" y="-338.5" font-family="Helvetica,sans-Serif" font-size="10.00">erpc</text>
</g>
<!-- Node0&#45;&gt;Node12 -->
<g id="edge12" class="edge"><title>Node0&#45;&gt;Node12</title>
<path fill="none" stroke="blueviolet" stroke-dasharray="5,2" d="M195.731,-297.02C202.422,-298.894 209.426,-300.803 216,-302.5 238.955,-308.425 265.091,-314.497 284.67,-318.913"/>
<text text-anchor="middle" x="225.5" y="-310.5" font-family="Helvetica,sans-Serif" font-size="10.00">erpc</text>
</g>
<!-- Node0&#45;&gt;Node5 -->
<g id="edge5" class="edge"><title>Node0&#45;&gt;Node5</title>
<path fill="none" stroke="blueviolet" stroke-dasharray="5,2" d="M198.138,-287.5C226.634,-287.5 266.017,-287.5 290.87,-287.5"/>
<text text-anchor="middle" x="225.5" y="-290.5" font-family="Helvetica,sans-Serif" font-size="10.00">erpc</text>
</g>
<!-- Node0&#45;&gt;Node14 -->
<g id="edge14" class="edge"><title>Node0&#45;&gt;Node14</title>
<path fill="none" stroke="blueviolet" stroke-dasharray="5,2" d="M195.731,-277.98C202.422,-276.106 209.426,-274.197 216,-272.5 239.465,-266.443 266.255,-260.233 285.966,-255.795"/>
<text text-anchor="middle" x="225.5" y="-275.5" font-family="Helvetica,sans-Serif" font-size="10.00">erpc</text>
</g>
<!-- Node0&#45;&gt;Node16 -->
<g id="edge16" class="edge"><title>Node0&#45;&gt;Node16</title>
<path fill="none" stroke="blueviolet" stroke-dasharray="5,2" d="M175.774,-277.812C192.665,-265.388 223.72,-243.854 253,-230.5 260.931,-226.883 269.738,-223.706 278.151,-221.037"/>
<text text-anchor="middle" x="225.5" y="-253.5" font-family="Helvetica,sans-Serif" font-size="10.00">erpc</text>
</g>
<!-- Node0&#45;&gt;Node13 -->
<g id="edge13" class="edge"><title>Node0&#45;&gt;Node13</title>
<path fill="none" stroke="blueviolet" stroke-dasharray="5,2" d="M169.124,-277.898C182.067,-258.45 214.224,-214.393 253,-192.5 262.147,-187.335 272.869,-183.402 282.775,-180.492"/>
<text text-anchor="middle" x="225.5" y="-224.5" font-family="Helvetica,sans-Serif" font-size="10.00">erpc</text>
</g>
<!-- Node0&#45;&gt;Node6 -->
<g id="edge6" class="edge"><title>Node0&#45;&gt;Node6</title>
<path fill="none" stroke="blueviolet" stroke-dasharray="5,2" d="M166.33,-277.655C175.51,-252.203 203.814,-184.152 253,-154.5 265.346,-147.057 280.866,-142.291 293.226,-139.393"/>
<text text-anchor="middle" x="225.5" y="-189.5" font-family="Helvetica,sans-Serif" font-size="10.00">erpc</text>
</g>
<!-- Node0&#45;&gt;Node9 -->
<g id="edge9" class="edge"><title>Node0&#45;&gt;Node9</title>
<path fill="none" stroke="blueviolet" stroke-dasharray="5,2" d="M165.484,-277.962C171.637,-255.398 189.062,-197.485 216,-155.5 228.902,-135.39 232.702,-129.104 253,-116.5 262.019,-110.9 272.813,-106.839 282.824,-103.947"/>
<text text-anchor="middle" x="225.5" y="-158.5" font-family="Helvetica,sans-Serif" font-size="10.00">erpc</text>
</g>
<!-- Node3 -->
<g id="node16" class="node"><title>Node3</title>
<g id="a_node16"><a xlink:href="group__infra__codec.html" target="_top" xlink:title="Classes used for message serialization. ">
<polygon fill="white" stroke="black" points="280.5,-50 280.5,-69 350.5,-69 350.5,-50 280.5,-50"/>
<text text-anchor="middle" x="315.5" y="-57" font-family="Helvetica,sans-Serif" font-size="10.00">Serialization</text>
</a>
</g>
</g>
<!-- Node0&#45;&gt;Node3 -->
<g id="edge3" class="edge"><title>Node0&#45;&gt;Node3</title>
<path fill="none" stroke="blueviolet" stroke-dasharray="5,2" d="M164.296,-277.893C168.302,-250.682 182.304,-171.441 216,-115.5 228,-95.579 233.083,-90.5069 253,-78.5 261.326,-73.4804 271.096,-69.6782 280.367,-66.8457"/>
<text text-anchor="middle" x="225.5" y="-118.5" font-family="Helvetica,sans-Serif" font-size="10.00">erpc</text>
</g>
<!-- Node10 -->
<g id="node17" class="node"><title>Node10</title>
<g id="a_node17"><a xlink:href="group__rpmsg__lite__zc__rtos__transport.html" target="_top" xlink:title="Rpmsg_lite_zc_rtos\l_transport">
<polygon fill="white" stroke="black" points="264,-0.5 264,-30.5 367,-30.5 367,-0.5 264,-0.5"/>
<text text-anchor="start" x="272" y="-18.5" font-family="Helvetica,sans-Serif" font-size="10.00">Rpmsg_lite_zc_rtos</text>
<text text-anchor="middle" x="315.5" y="-7.5" font-family="Helvetica,sans-Serif" font-size="10.00">_transport</text>
</a>
</g>
</g>
<!-- Node0&#45;&gt;Node10 -->
<g id="edge10" class="edge"><title>Node0&#45;&gt;Node10</title>
<path fill="none" stroke="blueviolet" stroke-dasharray="5,2" d="M163.554,-277.981C165.726,-246.927 175.657,-146.539 216,-76.5 227.452,-56.6185 233.795,-53.0527 253,-40.5 258.692,-36.7797 265.027,-33.4463 271.406,-30.5191"/>
<text text-anchor="middle" x="225.5" y="-79.5" font-family="Helvetica,sans-Serif" font-size="10.00">erpc</text>
</g>
</g>
</svg>
