<?xml version="1.0" encoding="UTF-8" standalone="no"?>
<!DOCTYPE svg PUBLIC "-//W3C//DTD SVG 1.1//EN"
 "http://www.w3.org/Graphics/SVG/1.1/DTD/svg11.dtd">
<!-- Generated by graphviz version 2.38.0 (20140413.2041)
 -->
<!-- Title: Lpi2c_slave_transport Pages: 1 -->
<svg width="283pt" height="864pt"
 viewBox="0.00 0.00 283.00 864.00" xmlns="http://www.w3.org/2000/svg" xmlns:xlink="http://www.w3.org/1999/xlink">
<g id="graph0" class="graph" transform="scale(1 1) rotate(0) translate(4 860)">
<title>Lpi2c_slave_transport</title>
<polygon fill="white" stroke="none" points="-4,4 -4,-860 279,-860 279,4 -4,4"/>
<!-- Node9 -->
<g id="node1" class="node"><title>Node9</title>
<g id="a_node1"><a xlink:href="group__dspi__slave__transport.html" target="_top" xlink:title="MCUXpressoSDK DSPI slave driver transport. ">
<polygon fill="white" stroke="black" points="187.5,-836.5 187.5,-855.5 252.5,-855.5 252.5,-836.5 187.5,-836.5"/>
<text text-anchor="middle" x="220" y="-843.5" font-family="Helvetica,sans-Serif" font-size="10.00">DSPI Slave</text>
</a>
</g>
</g>
<!-- Node10 -->
<g id="node2" class="node"><title>Node10</title>
<g id="a_node2"><a xlink:href="group__i2c__slave__transport.html" target="_top" xlink:title="MCUXpressoSDK I2C slave driver transport. ">
<polygon fill="white" stroke="black" points="191.5,-798.5 191.5,-817.5 248.5,-817.5 248.5,-798.5 191.5,-798.5"/>
<text text-anchor="middle" x="220" y="-805.5" font-family="Helvetica,sans-Serif" font-size="10.00">I2C Slave</text>
</a>
</g>
</g>
<!-- Node7 -->
<g id="node3" class="node"><title>Node7</title>
<g id="a_node3"><a xlink:href="group__port__threads.html" target="_top" xlink:title="Threading model. ">
<polygon fill="white" stroke="black" points="194.5,-760.5 194.5,-779.5 245.5,-779.5 245.5,-760.5 194.5,-760.5"/>
<text text-anchor="middle" x="220" y="-767.5" font-family="Helvetica,sans-Serif" font-size="10.00">Threads</text>
</a>
</g>
</g>
<!-- Node13 -->
<g id="node4" class="node"><title>Node13</title>
<g id="a_node4"><a xlink:href="group__mu__transport.html" target="_top" xlink:title="Messaging Unit transport. ">
<polygon fill="white" stroke="black" points="178,-722.5 178,-741.5 262,-741.5 262,-722.5 178,-722.5"/>
<text text-anchor="middle" x="220" y="-729.5" font-family="Helvetica,sans-Serif" font-size="10.00">Messaging Unit</text>
</a>
</g>
</g>
<!-- Node21 -->
<g id="node5" class="node"><title>Node21</title>
<g id="a_node5"><a xlink:href="group__tcp__transport.html" target="_top" xlink:title="Simple TCP/IP transport. ">
<polygon fill="white" stroke="black" points="196.5,-684.5 196.5,-703.5 243.5,-703.5 243.5,-684.5 196.5,-684.5"/>
<text text-anchor="middle" x="220" y="-691.5" font-family="Helvetica,sans-Serif" font-size="10.00">TCP/IP</text>
</a>
</g>
</g>
<!-- Node1 -->
<g id="node6" class="node"><title>Node1</title>
<g id="a_node6"><a xlink:href="group__infra__client.html" target="_top" xlink:title="Client classes. ">
<polygon fill="white" stroke="black" points="199.5,-646.5 199.5,-665.5 240.5,-665.5 240.5,-646.5 199.5,-646.5"/>
<text text-anchor="middle" x="220" y="-653.5" font-family="Helvetica,sans-Serif" font-size="10.00">Client</text>
</a>
</g>
</g>
<!-- Node3 -->
<g id="node7" class="node"><title>Node3</title>
<g id="a_node7"><a xlink:href="group__infra__transport.html" target="_top" xlink:title="Superclasses for building transports. ">
<polygon fill="white" stroke="black" points="189,-608.5 189,-627.5 251,-627.5 251,-608.5 189,-608.5"/>
<text text-anchor="middle" x="220" y="-615.5" font-family="Helvetica,sans-Serif" font-size="10.00">Transports</text>
</a>
</g>
</g>
<!-- Node17 -->
<g id="node8" class="node"><title>Node17</title>
<g id="a_node8"><a xlink:href="group__serial__transport.html" target="_top" xlink:title="POSIX and Win32 serial port transport. ">
<polygon fill="white" stroke="black" points="189.5,-570.5 189.5,-589.5 250.5,-589.5 250.5,-570.5 189.5,-570.5"/>
<text text-anchor="middle" x="220" y="-577.5" font-family="Helvetica,sans-Serif" font-size="10.00">Serial port</text>
</a>
</g>
</g>
<!-- Node4 -->
<g id="node9" class="node"><title>Node4</title>
<g id="a_node9"><a xlink:href="group__infra__utility.html" target="_top" xlink:title="Utility code used by the infrastructure. ">
<polygon fill="white" stroke="black" points="195.5,-532.5 195.5,-551.5 244.5,-551.5 244.5,-532.5 195.5,-532.5"/>
<text text-anchor="middle" x="220" y="-539.5" font-family="Helvetica,sans-Serif" font-size="10.00">Utilities</text>
</a>
</g>
</g>
<!-- Node19 -->
<g id="node10" class="node"><title>Node19</title>
<g id="a_node10"><a xlink:href="group__spi__slave__transport.html" target="_top" xlink:title="MCUXpressoSDK SPI slave driver transport. ">
<polygon fill="white" stroke="black" points="190.5,-494.5 190.5,-513.5 249.5,-513.5 249.5,-494.5 190.5,-494.5"/>
<text text-anchor="middle" x="220" y="-501.5" font-family="Helvetica,sans-Serif" font-size="10.00">SPI Slave</text>
</a>
</g>
</g>
<!-- Node22 -->
<g id="node11" class="node"><title>Node22</title>
<g id="a_node11"><a xlink:href="group__uart__transport.html" target="_top" xlink:title="CMSIS UART driver transport. ">
<polygon fill="white" stroke="black" points="182,-456.5 182,-475.5 258,-475.5 258,-456.5 182,-456.5"/>
<text text-anchor="middle" x="220" y="-463.5" font-family="Helvetica,sans-Serif" font-size="10.00">CMSIS UART</text>
</a>
</g>
</g>
<!-- Node20 -->
<g id="node12" class="node"><title>Node20</title>
<g id="a_node12"><a xlink:href="group__spidev__master__transport.html" target="_top" xlink:title="SPIdev Linux transport. ">
<polygon fill="white" stroke="black" points="167,-418.5 167,-437.5 273,-437.5 273,-418.5 167,-418.5"/>
<text text-anchor="middle" x="220" y="-425.5" font-family="Helvetica,sans-Serif" font-size="10.00">SPIdev Linux Master</text>
</a>
</g>
</g>
<!-- Node18 -->
<g id="node13" class="node"><title>Node18</title>
<g id="a_node13"><a xlink:href="group__spi__master__transport.html" target="_top" xlink:title="MCUXpressoSDK SPI master driver transport. ">
<polygon fill="white" stroke="black" points="187.5,-380.5 187.5,-399.5 252.5,-399.5 252.5,-380.5 187.5,-380.5"/>
<text text-anchor="middle" x="220" y="-387.5" font-family="Helvetica,sans-Serif" font-size="10.00">SPI Master</text>
</a>
</g>
</g>
<!-- Node16 -->
<g id="node14" class="node"><title>Node16</title>
<g id="a_node14"><a xlink:href="group__rpmsg__tty__rtos__transport.html" target="_top" xlink:title="RPMsg TTY RTOS transport. ">
<polygon fill="white" stroke="black" points="171,-342.5 171,-361.5 269,-361.5 269,-342.5 171,-342.5"/>
<text text-anchor="middle" x="220" y="-349.5" font-family="Helvetica,sans-Serif" font-size="10.00">RPMsg TTY RTOS</text>
</a>
</g>
</g>
<!-- Node5 -->
<g id="node15" class="node"><title>Node5</title>
<g id="a_node15"><a xlink:href="group__infra__server.html" target="_top" xlink:title="Server classes. ">
<polygon fill="white" stroke="black" points="198,-304.5 198,-323.5 242,-323.5 242,-304.5 198,-304.5"/>
<text text-anchor="middle" x="220" y="-311.5" font-family="Helvetica,sans-Serif" font-size="10.00">Server</text>
</a>
</g>
</g>
<!-- Node0 -->
<g id="node16" class="node"><title>Node0</title>
<polygon fill="#bfbfbf" stroke="black" points="0,-418.5 0,-437.5 110,-437.5 110,-418.5 0,-418.5"/>
<text text-anchor="middle" x="55" y="-425.5" font-family="Helvetica,sans-Serif" font-size="10.00">Lpi2c_slave_transport</text>
</g>
<!-- Node0&#45;&gt;Node9 -->
<g id="edge9" class="edge"><title>Node0&#45;&gt;Node9</title>
<path fill="none" stroke="blueviolet" stroke-dasharray="5,2" d="M55.8746,-437.669C55.7062,-481.46 59.3248,-664.526 128,-791 138.948,-811.163 145.5,-814.91 165,-827 171.842,-831.242 179.76,-834.702 187.389,-837.45"/>
<text text-anchor="middle" x="137.5" y="-817" font-family="Helvetica,sans-Serif" font-size="10.00">erpc</text>
</g>
<!-- Node0&#45;&gt;Node10 -->
<g id="edge10" class="edge"><title>Node0&#45;&gt;Node10</title>
<path fill="none" stroke="blueviolet" stroke-dasharray="5,2" d="M56.1669,-437.745C57.2613,-478.829 65.5298,-640.939 128,-753 139.172,-773.04 145.5,-776.91 165,-789 173.024,-793.975 182.529,-797.874 191.311,-800.811"/>
<text text-anchor="middle" x="137.5" y="-779" font-family="Helvetica,sans-Serif" font-size="10.00">erpc</text>
</g>
<!-- Node0&#45;&gt;Node7 -->
<g id="edge7" class="edge"><title>Node0&#45;&gt;Node7</title>
<path fill="none" stroke="blueviolet" stroke-dasharray="5,2" d="M56.5254,-437.62C58.9652,-475.498 71.6053,-617.061 128,-715 139.449,-734.883 145.5,-738.91 165,-751 173.953,-756.551 184.75,-760.763 194.329,-763.793"/>
<text text-anchor="middle" x="137.5" y="-741" font-family="Helvetica,sans-Serif" font-size="10.00">erpc</text>
</g>
<!-- Node0&#45;&gt;Node13 -->
<g id="edge13" class="edge"><title>Node0&#45;&gt;Node13</title>
<path fill="none" stroke="blueviolet" stroke-dasharray="5,2" d="M57.0563,-437.683C61.1796,-472.291 78.4841,-592.255 128,-676 139.836,-696.018 145.319,-700.61 165,-713 170.971,-716.759 177.784,-719.895 184.512,-722.463"/>
<text text-anchor="middle" x="137.5" y="-703" font-family="Helvetica,sans-Serif" font-size="10.00">erpc</text>
</g>
<!-- Node0&#45;&gt;Node21 -->
<g id="edge21" class="edge"><title>Node0&#45;&gt;Node21</title>
<path fill="none" stroke="blueviolet" stroke-dasharray="5,2" d="M57.784,-437.817C63.7579,-468.931 85.1401,-567.393 128,-637 140.359,-657.072 145.136,-662.309 165,-675 174.548,-681.1 186.3,-685.535 196.401,-688.578"/>
<text text-anchor="middle" x="137.5" y="-664" font-family="Helvetica,sans-Serif" font-size="10.00">erpc</text>
</g>
<!-- Node0&#45;&gt;Node1 -->
<g id="edge1" class="edge"><title>Node0&#45;&gt;Node1</title>
<path fill="none" stroke="blueviolet" stroke-dasharray="5,2" d="M58.842,-437.723C66.9487,-464.553 91.9466,-541.317 128,-597 141.162,-617.328 144.761,-623.701 165,-637 175.465,-643.876 188.71,-648.587 199.463,-651.597"/>
<text text-anchor="middle" x="137.5" y="-625" font-family="Helvetica,sans-Serif" font-size="10.00">erpc</text>
</g>
<!-- Node0&#45;&gt;Node3 -->
<g id="edge3" class="edge"><title>Node0&#45;&gt;Node3</title>
<path fill="none" stroke="blueviolet" stroke-dasharray="5,2" d="M58.9554,-437.894C68.5368,-468.061 101.838,-559.237 165,-599 172.233,-603.554 180.7,-607.192 188.757,-610.016"/>
<text text-anchor="middle" x="137.5" y="-585" font-family="Helvetica,sans-Serif" font-size="10.00">erpc</text>
</g>
<!-- Node0&#45;&gt;Node17 -->
<g id="edge17" class="edge"><title>Node0&#45;&gt;Node17</title>
<path fill="none" stroke="blueviolet" stroke-dasharray="5,2" d="M60.8682,-437.53C74.0029,-462.22 112.732,-528.593 165,-561 172.433,-565.609 181.137,-569.294 189.359,-572.146"/>
<text text-anchor="middle" x="137.5" y="-550" font-family="Helvetica,sans-Serif" font-size="10.00">erpc</text>
</g>
<!-- Node0&#45;&gt;Node4 -->
<g id="edge4" class="edge"><title>Node0&#45;&gt;Node4</title>
<path fill="none" stroke="blueviolet" stroke-dasharray="5,2" d="M64.6712,-437.717C82.0002,-456.607 122.877,-498.563 165,-523 174.37,-528.436 185.551,-532.687 195.301,-535.778"/>
<text text-anchor="middle" x="137.5" y="-513" font-family="Helvetica,sans-Serif" font-size="10.00">erpc</text>
</g>
<!-- Node0&#45;&gt;Node19 -->
<g id="edge19" class="edge"><title>Node0&#45;&gt;Node19</title>
<path fill="none" stroke="blueviolet" stroke-dasharray="5,2" d="M72.6251,-437.654C93.6898,-449.659 131.315,-470.356 165,-485 173.112,-488.526 182.11,-491.897 190.398,-494.795"/>
<text text-anchor="middle" x="137.5" y="-479" font-family="Helvetica,sans-Serif" font-size="10.00">erpc</text>
</g>
<!-- Node0&#45;&gt;Node22 -->
<g id="edge22" class="edge"><title>Node0&#45;&gt;Node22</title>
<path fill="none" stroke="blueviolet" stroke-dasharray="5,2" d="M97.1318,-437.589C123.162,-443.657 156.542,-451.439 181.783,-457.324"/>
<text text-anchor="middle" x="137.5" y="-451" font-family="Helvetica,sans-Serif" font-size="10.00">erpc</text>
</g>
<!-- Node0&#45;&gt;Node20 -->
<g id="edge20" class="edge"><title>Node0&#45;&gt;Node20</title>
<path fill="none" stroke="blueviolet" stroke-dasharray="5,2" d="M110.277,-428C128.521,-428 148.822,-428 166.895,-428"/>
<text text-anchor="middle" x="137.5" y="-431" font-family="Helvetica,sans-Serif" font-size="10.00">erpc</text>
</g>
<!-- Node0&#45;&gt;Node18 -->
<g id="edge18" class="edge"><title>Node0&#45;&gt;Node18</title>
<path fill="none" stroke="blueviolet" stroke-dasharray="5,2" d="M97.1318,-418.411C125.142,-411.881 161.664,-403.367 187.397,-397.368"/>
<text text-anchor="middle" x="137.5" y="-413" font-family="Helvetica,sans-Serif" font-size="10.00">erpc</text>
</g>
<!-- Node0&#45;&gt;Node16 -->
<g id="edge16" class="edge"><title>Node0&#45;&gt;Node16</title>
<path fill="none" stroke="blueviolet" stroke-dasharray="5,2" d="M72.6251,-418.346C93.6898,-406.341 131.315,-385.644 165,-371 172.838,-367.592 181.504,-364.33 189.558,-361.5"/>
<text text-anchor="middle" x="137.5" y="-391" font-family="Helvetica,sans-Serif" font-size="10.00">erpc</text>
</g>
<!-- Node0&#45;&gt;Node5 -->
<g id="edge5" class="edge"><title>Node0&#45;&gt;Node5</title>
<path fill="none" stroke="blueviolet" stroke-dasharray="5,2" d="M64.6377,-418.224C81.9081,-399.233 122.687,-357.107 165,-333 175.276,-327.146 187.667,-322.628 197.986,-319.47"/>
<text text-anchor="middle" x="137.5" y="-360" font-family="Helvetica,sans-Serif" font-size="10.00">erpc</text>
</g>
<!-- Node11 -->
<g id="node17" class="node"><title>Node11</title>
<g id="a_node17"><a xlink:href="group__itbp__transport.html" target="_top" xlink:title="Simple inter&#45;thread communications transport. ">
<polygon fill="white" stroke="black" points="187.5,-266.5 187.5,-285.5 252.5,-285.5 252.5,-266.5 187.5,-266.5"/>
<text text-anchor="middle" x="220" y="-273.5" font-family="Helvetica,sans-Serif" font-size="10.00">Inter&#45;thread</text>
</a>
</g>
</g>
<!-- Node0&#45;&gt;Node11 -->
<g id="edge11" class="edge"><title>Node0&#45;&gt;Node11</title>
<path fill="none" stroke="blueviolet" stroke-dasharray="5,2" d="M60.8423,-418.428C73.9144,-393.636 112.505,-327.039 165,-295 171.871,-290.806 179.801,-287.364 187.43,-284.618"/>
<text text-anchor="middle" x="137.5" y="-327" font-family="Helvetica,sans-Serif" font-size="10.00">erpc</text>
</g>
<!-- Node8 -->
<g id="node18" class="node"><title>Node8</title>
<g id="a_node18"><a xlink:href="group__dspi__master__transport.html" target="_top" xlink:title="MCUXpressoSDK DSPI master driver transport. ">
<polygon fill="white" stroke="black" points="184,-228.5 184,-247.5 256,-247.5 256,-228.5 184,-228.5"/>
<text text-anchor="middle" x="220" y="-235.5" font-family="Helvetica,sans-Serif" font-size="10.00">DSPI Master</text>
</a>
</g>
</g>
<!-- Node0&#45;&gt;Node8 -->
<g id="edge8" class="edge"><title>Node0&#45;&gt;Node8</title>
<path fill="none" stroke="blueviolet" stroke-dasharray="5,2" d="M58.7984,-418.492C68.1319,-388.654 101.268,-296.515 165,-257 170.997,-253.282 177.821,-250.164 184.553,-247.601"/>
<text text-anchor="middle" x="137.5" y="-287" font-family="Helvetica,sans-Serif" font-size="10.00">erpc</text>
</g>
<!-- Node23 -->
<g id="node19" class="node"><title>Node23</title>
<g id="a_node19"><a xlink:href="group___u_s_b___c_d_c__transport.html" target="_top" xlink:title="USB CDC transport. ">
<polygon fill="white" stroke="black" points="190,-190.5 190,-209.5 250,-209.5 250,-190.5 190,-190.5"/>
<text text-anchor="middle" x="220" y="-197.5" font-family="Helvetica,sans-Serif" font-size="10.00">USB CDC</text>
</a>
</g>
</g>
<!-- Node0&#45;&gt;Node23 -->
<g id="edge23" class="edge"><title>Node0&#45;&gt;Node23</title>
<path fill="none" stroke="blueviolet" stroke-dasharray="5,2" d="M58.792,-418.194C66.7709,-391.14 91.4725,-313.77 128,-258 141.091,-238.013 144.95,-231.994 165,-219 172.506,-214.136 181.409,-210.343 189.798,-207.47"/>
<text text-anchor="middle" x="137.5" y="-261" font-family="Helvetica,sans-Serif" font-size="10.00">erpc</text>
</g>
<!-- Node2 -->
<g id="node20" class="node"><title>Node2</title>
<g id="a_node20"><a xlink:href="group__infra__codec.html" target="_top" xlink:title="Classes used for message serialization. ">
<polygon fill="white" stroke="black" points="185,-152.5 185,-171.5 255,-171.5 255,-152.5 185,-152.5"/>
<text text-anchor="middle" x="220" y="-159.5" font-family="Helvetica,sans-Serif" font-size="10.00">Serialization</text>
</a>
</g>
</g>
<!-- Node0&#45;&gt;Node2 -->
<g id="edge2" class="edge"><title>Node0&#45;&gt;Node2</title>
<path fill="none" stroke="blueviolet" stroke-dasharray="5,2" d="M57.7335,-418.111C63.5572,-386.775 84.5427,-287.648 128,-218 140.311,-198.27 145.319,-193.39 165,-181 171.056,-177.188 177.976,-174.017 184.797,-171.428"/>
<text text-anchor="middle" x="137.5" y="-221" font-family="Helvetica,sans-Serif" font-size="10.00">erpc</text>
</g>
<!-- Node14 -->
<g id="node21" class="node"><title>Node14</title>
<g id="a_node21"><a xlink:href="group__rpmsg__lite__rtos__transport.html" target="_top" xlink:title="RPMsg&#45;Lite zero copy transport using RTOS API. ">
<polygon fill="white" stroke="black" points="171.5,-114.5 171.5,-133.5 268.5,-133.5 268.5,-114.5 171.5,-114.5"/>
<text text-anchor="middle" x="220" y="-121.5" font-family="Helvetica,sans-Serif" font-size="10.00">RPMsg&#45;Lite RTOS</text>
</a>
</g>
</g>
<!-- Node0&#45;&gt;Node14 -->
<g id="edge14" class="edge"><title>Node0&#45;&gt;Node14</title>
<path fill="none" stroke="blueviolet" stroke-dasharray="5,2" d="M57.0066,-418.254C60.9621,-383.427 77.7704,-262.741 128,-179 139.802,-159.324 145.5,-155.09 165,-143 170.997,-139.282 177.821,-136.164 184.553,-133.601"/>
<text text-anchor="middle" x="137.5" y="-182" font-family="Helvetica,sans-Serif" font-size="10.00">erpc</text>
</g>
<!-- Node15 -->
<g id="node22" class="node"><title>Node15</title>
<g id="a_node22"><a xlink:href="group__rpmsg__lite__transport.html" target="_top" xlink:title="RPMsg&#45;Lite zero copy transport. ">
<polygon fill="white" stroke="black" points="186,-76.5 186,-95.5 254,-95.5 254,-76.5 186,-76.5"/>
<text text-anchor="middle" x="220" y="-83.5" font-family="Helvetica,sans-Serif" font-size="10.00">RPMsg&#45;Lite</text>
</a>
</g>
</g>
<!-- Node0&#45;&gt;Node15 -->
<g id="edge15" class="edge"><title>Node0&#45;&gt;Node15</title>
<path fill="none" stroke="blueviolet" stroke-dasharray="5,2" d="M56.4758,-418.323C58.7304,-380.225 70.7705,-237.883 128,-140 139.425,-120.459 145.678,-116.793 165,-105 171.362,-101.117 178.632,-97.8782 185.73,-95.2397"/>
<text text-anchor="middle" x="137.5" y="-143" font-family="Helvetica,sans-Serif" font-size="10.00">erpc</text>
</g>
<!-- Node6 -->
<g id="node23" class="node"><title>Node6</title>
<g id="a_node23"><a xlink:href="group__port__setup__extensions.html" target="_top" xlink:title="Extension setup functions. ">
<polygon fill="white" stroke="black" points="175.5,-38.5 175.5,-57.5 264.5,-57.5 264.5,-38.5 175.5,-38.5"/>
<text text-anchor="middle" x="220" y="-45.5" font-family="Helvetica,sans-Serif" font-size="10.00">Extension Setup</text>
</a>
</g>
</g>
<!-- Node0&#45;&gt;Node6 -->
<g id="edge6" class="edge"><title>Node0&#45;&gt;Node6</title>
<path fill="none" stroke="blueviolet" stroke-dasharray="5,2" d="M56.062,-418.426C56.7271,-377.357 63.489,-213.104 128,-101 139.139,-81.6431 145.853,-78.4965 165,-67 171.22,-63.2653 178.283,-60.1156 185.204,-57.5209"/>
<text text-anchor="middle" x="137.5" y="-104" font-family="Helvetica,sans-Serif" font-size="10.00">erpc</text>
</g>
<!-- Node12 -->
<g id="node24" class="node"><title>Node12</title>
<g id="a_node24"><a xlink:href="group__lpspi__slave__transport.html" target="_top" xlink:title="Lpspi_slave_transport">
<polygon fill="white" stroke="black" points="165,-0.5 165,-19.5 275,-19.5 275,-0.5 165,-0.5"/>
<text text-anchor="middle" x="220" y="-7.5" font-family="Helvetica,sans-Serif" font-size="10.00">Lpspi_slave_transport</text>
</a>
</g>
</g>
<!-- Node0&#45;&gt;Node12 -->
<g id="edge12" class="edge"><title>Node0&#45;&gt;Node12</title>
<path fill="none" stroke="blueviolet" stroke-dasharray="5,2" d="M55.7759,-418.231C55.18,-373.999 57.22,-189.184 128,-63 138.926,-43.522 145.853,-40.4965 165,-29 171.22,-25.2653 178.283,-22.1156 185.204,-19.5209"/>
<text text-anchor="middle" x="137.5" y="-66" font-family="Helvetica,sans-Serif" font-size="10.00">erpc</text>
</g>
</g>
</svg>
