<?xml version="1.0" encoding="UTF-8" standalone="no"?>
<!DOCTYPE svg PUBLIC "-//W3C//DTD SVG 1.1//EN"
 "http://www.w3.org/Graphics/SVG/1.1/DTD/svg11.dtd">
<!-- Generated by graphviz version 2.38.0 (20140413.2041)
 -->
<!-- Title: Setup API Pages: 1 -->
<svg width="191pt" height="104pt"
 viewBox="0.00 0.00 191.00 104.00" xmlns="http://www.w3.org/2000/svg" xmlns:xlink="http://www.w3.org/1999/xlink">
<g id="graph0" class="graph" transform="scale(1 1) rotate(0) translate(4 100)">
<title>Setup API</title>
<polygon fill="white" stroke="none" points="-4,4 -4,-100 187,-100 187,4 -4,4"/>
<!-- Node3 -->
<g id="node1" class="node"><title>Node3</title>
<g id="a_node1"><a xlink:href="group__transport__setup.html" target="_top" xlink:title="Transport layer initialization. ">
<polygon fill="white" stroke="black" points="97,-76.5 97,-95.5 183,-95.5 183,-76.5 97,-76.5"/>
<text text-anchor="middle" x="140" y="-83.5" font-family="Helvetica,sans-Serif" font-size="10.00">Transport Setup</text>
</a>
</g>
</g>
<!-- Node2 -->
<g id="node2" class="node"><title>Node2</title>
<g id="a_node2"><a xlink:href="group__client__setup.html" target="_top" xlink:title="Client side setup functions. ">
<polygon fill="white" stroke="black" points="105,-38.5 105,-57.5 175,-57.5 175,-38.5 105,-38.5"/>
<text text-anchor="middle" x="140" y="-45.5" font-family="Helvetica,sans-Serif" font-size="10.00">Client Setup</text>
</a>
</g>
</g>
<!-- Node1 -->
<g id="node3" class="node"><title>Node1</title>
<g id="a_node3"><a xlink:href="group__server__setup.html" target="_top" xlink:title="Server side setup and control functions. ">
<polygon fill="white" stroke="black" points="104,-0.5 104,-19.5 176,-19.5 176,-0.5 104,-0.5"/>
<text text-anchor="middle" x="140" y="-7.5" font-family="Helvetica,sans-Serif" font-size="10.00">Server Setup</text>
</a>
</g>
</g>
<!-- Node0 -->
<g id="node4" class="node"><title>Node0</title>
<polygon fill="#bfbfbf" stroke="black" points="0,-38.5 0,-57.5 61,-57.5 61,-38.5 0,-38.5"/>
<text text-anchor="middle" x="30.5" y="-45.5" font-family="Helvetica,sans-Serif" font-size="10.00">Setup API</text>
</g>
<!-- Node0&#45;&gt;Node3 -->
<g id="edge3" class="edge"><title>Node0&#45;&gt;Node3</title>
<path fill="none" stroke="black" d="M68.1965,-60.9718C82.5185,-66.0344 98.6425,-71.7341 111.882,-76.4141"/>
<polygon fill="black" stroke="black" points="69.2216,-57.622 58.6268,-57.589 66.8886,-64.2218 69.2216,-57.622"/>
</g>
<!-- Node0&#45;&gt;Node2 -->
<g id="edge2" class="edge"><title>Node0&#45;&gt;Node2</title>
<path fill="none" stroke="black" d="M71.39,-48C82.3953,-48 94.2327,-48 104.879,-48"/>
<polygon fill="black" stroke="black" points="71.1594,-44.5001 61.1594,-48 71.1594,-51.5001 71.1594,-44.5001"/>
</g>
<!-- Node0&#45;&gt;Node1 -->
<g id="edge1" class="edge"><title>Node0&#45;&gt;Node1</title>
<path fill="none" stroke="black" d="M68.1965,-35.0282C82.5185,-29.9656 98.6425,-24.2659 111.882,-19.5859"/>
<polygon fill="black" stroke="black" points="66.8886,-31.7782 58.6268,-38.411 69.2216,-38.378 66.8886,-31.7782"/>
</g>
</g>
</svg>
