<?xml version="1.0" encoding="UTF-8" standalone="no"?>
<!DOCTYPE svg PUBLIC "-//W3C//DTD SVG 1.1//EN"
 "http://www.w3.org/Graphics/SVG/1.1/DTD/svg11.dtd">
<!-- Generated by graphviz version 2.38.0 (20140413.2041)
 -->
<!-- Title: Client Pages: 1 -->
<svg width="324pt" height="864pt"
 viewBox="0.00 0.00 324.00 864.00" xmlns="http://www.w3.org/2000/svg" xmlns:xlink="http://www.w3.org/1999/xlink">
<g id="graph0" class="graph" transform="scale(1 1) rotate(0) translate(4 860)">
<title>Client</title>
<polygon fill="white" stroke="none" points="-4,4 -4,-860 320,-860 320,4 -4,4"/>
<!-- Node9 -->
<g id="node1" class="node"><title>Node9</title>
<g id="a_node1"><a xlink:href="group__dspi__slave__transport.html" target="_top" xlink:title="MCUXpressoSDK DSPI slave driver transport. ">
<polygon fill="white" stroke="black" points="228.5,-836.5 228.5,-855.5 293.5,-855.5 293.5,-836.5 228.5,-836.5"/>
<text text-anchor="middle" x="261" y="-843.5" font-family="Helvetica,sans-Serif" font-size="10.00">DSPI Slave</text>
</a>
</g>
</g>
<!-- Node10 -->
<g id="node2" class="node"><title>Node10</title>
<g id="a_node2"><a xlink:href="group__i2c__slave__transport.html" target="_top" xlink:title="MCUXpressoSDK I2C slave driver transport. ">
<polygon fill="white" stroke="black" points="232.5,-798.5 232.5,-817.5 289.5,-817.5 289.5,-798.5 232.5,-798.5"/>
<text text-anchor="middle" x="261" y="-805.5" font-family="Helvetica,sans-Serif" font-size="10.00">I2C Slave</text>
</a>
</g>
</g>
<!-- Node7 -->
<g id="node3" class="node"><title>Node7</title>
<g id="a_node3"><a xlink:href="group__port__threads.html" target="_top" xlink:title="Threading model. ">
<polygon fill="white" stroke="black" points="235.5,-760.5 235.5,-779.5 286.5,-779.5 286.5,-760.5 235.5,-760.5"/>
<text text-anchor="middle" x="261" y="-767.5" font-family="Helvetica,sans-Serif" font-size="10.00">Threads</text>
</a>
</g>
</g>
<!-- Node14 -->
<g id="node4" class="node"><title>Node14</title>
<g id="a_node4"><a xlink:href="group__mu__transport.html" target="_top" xlink:title="Messaging Unit transport. ">
<polygon fill="white" stroke="black" points="219,-722.5 219,-741.5 303,-741.5 303,-722.5 219,-722.5"/>
<text text-anchor="middle" x="261" y="-729.5" font-family="Helvetica,sans-Serif" font-size="10.00">Messaging Unit</text>
</a>
</g>
</g>
<!-- Node22 -->
<g id="node5" class="node"><title>Node22</title>
<g id="a_node5"><a xlink:href="group__tcp__transport.html" target="_top" xlink:title="Simple TCP/IP transport. ">
<polygon fill="white" stroke="black" points="237.5,-684.5 237.5,-703.5 284.5,-703.5 284.5,-684.5 237.5,-684.5"/>
<text text-anchor="middle" x="261" y="-691.5" font-family="Helvetica,sans-Serif" font-size="10.00">TCP/IP</text>
</a>
</g>
</g>
<!-- Node1 -->
<g id="node6" class="node"><title>Node1</title>
<g id="a_node6"><a xlink:href="group__infra.html" target="_top" xlink:title="C++ core. ">
<polygon fill="white" stroke="black" points="0,-418.5 0,-437.5 73,-437.5 73,-418.5 0,-418.5"/>
<text text-anchor="middle" x="36.5" y="-425.5" font-family="Helvetica,sans-Serif" font-size="10.00">Infrastructure</text>
</a>
</g>
</g>
<!-- Node0 -->
<g id="node7" class="node"><title>Node0</title>
<polygon fill="#bfbfbf" stroke="black" points="110,-418.5 110,-437.5 151,-437.5 151,-418.5 110,-418.5"/>
<text text-anchor="middle" x="130.5" y="-425.5" font-family="Helvetica,sans-Serif" font-size="10.00">Client</text>
</g>
<!-- Node1&#45;&gt;Node0 -->
<g id="edge1" class="edge"><title>Node1&#45;&gt;Node0</title>
<path fill="none" stroke="black" d="M83.2184,-428C92.6461,-428 102.089,-428 109.965,-428"/>
<polygon fill="black" stroke="black" points="83.0696,-424.5 73.0696,-428 83.0696,-431.5 83.0696,-424.5"/>
</g>
<!-- Node0&#45;&gt;Node9 -->
<g id="edge9" class="edge"><title>Node0&#45;&gt;Node9</title>
<path fill="none" stroke="blueviolet" stroke-dasharray="5,2" d="M131.637,-437.71C132.482,-488.63 138.039,-724.964 169,-790 178.996,-810.998 186.319,-814.61 206,-827 212.813,-831.289 220.72,-834.766 228.348,-837.515"/>
<text text-anchor="middle" x="178.5" y="-817" font-family="Helvetica,sans-Serif" font-size="10.00">erpc</text>
</g>
<!-- Node0&#45;&gt;Node10 -->
<g id="edge10" class="edge"><title>Node0&#45;&gt;Node10</title>
<path fill="none" stroke="blueviolet" stroke-dasharray="5,2" d="M131.729,-437.69C132.992,-485.505 140.135,-696.298 169,-754 181.328,-778.645 210.452,-792.948 232.456,-800.568"/>
<text text-anchor="middle" x="178.5" y="-778" font-family="Helvetica,sans-Serif" font-size="10.00">erpc</text>
</g>
<!-- Node0&#45;&gt;Node7 -->
<g id="edge7" class="edge"><title>Node0&#45;&gt;Node7</title>
<path fill="none" stroke="blueviolet" stroke-dasharray="5,2" d="M131.916,-437.676C133.942,-481.873 143.731,-664.571 169,-715 179.279,-735.513 186.5,-738.91 206,-751 214.953,-756.551 225.75,-760.763 235.329,-763.793"/>
<text text-anchor="middle" x="178.5" y="-742" font-family="Helvetica,sans-Serif" font-size="10.00">erpc</text>
</g>
<!-- Node0&#45;&gt;Node14 -->
<g id="edge14" class="edge"><title>Node0&#45;&gt;Node14</title>
<path fill="none" stroke="blueviolet" stroke-dasharray="5,2" d="M132.136,-437.725C134.913,-478.282 146.838,-633.831 169,-677 179.479,-697.411 186.5,-700.91 206,-713 211.997,-716.718 218.821,-719.836 225.553,-722.399"/>
<text text-anchor="middle" x="178.5" y="-703" font-family="Helvetica,sans-Serif" font-size="10.00">erpc</text>
</g>
<!-- Node0&#45;&gt;Node22 -->
<g id="edge22" class="edge"><title>Node0&#45;&gt;Node22</title>
<path fill="none" stroke="blueviolet" stroke-dasharray="5,2" d="M131.177,-437.933C130.569,-469.408 131.879,-568.983 169,-639 179.747,-659.271 186.5,-662.91 206,-675 215.629,-680.97 227.391,-685.391 237.476,-688.458"/>
<text text-anchor="middle" x="178.5" y="-665" font-family="Helvetica,sans-Serif" font-size="10.00">erpc</text>
</g>
<!-- Node3 -->
<g id="node8" class="node"><title>Node3</title>
<g id="a_node8"><a xlink:href="group__infra__transport.html" target="_top" xlink:title="Superclasses for building transports. ">
<polygon fill="white" stroke="black" points="230,-646.5 230,-665.5 292,-665.5 292,-646.5 230,-646.5"/>
<text text-anchor="middle" x="261" y="-653.5" font-family="Helvetica,sans-Serif" font-size="10.00">Transports</text>
</a>
</g>
</g>
<!-- Node0&#45;&gt;Node3 -->
<g id="edge3" class="edge"><title>Node0&#45;&gt;Node3</title>
<path fill="none" stroke="blueviolet" stroke-dasharray="5,2" d="M131.678,-437.672C132.569,-465.066 137.853,-544.827 169,-601 180.126,-621.066 186.5,-624.91 206,-637 213.264,-641.504 221.742,-645.126 229.798,-647.95"/>
<text text-anchor="middle" x="178.5" y="-627" font-family="Helvetica,sans-Serif" font-size="10.00">erpc</text>
</g>
<!-- Node18 -->
<g id="node9" class="node"><title>Node18</title>
<g id="a_node9"><a xlink:href="group__serial__transport.html" target="_top" xlink:title="POSIX and Win32 serial port transport. ">
<polygon fill="white" stroke="black" points="230.5,-608.5 230.5,-627.5 291.5,-627.5 291.5,-608.5 230.5,-608.5"/>
<text text-anchor="middle" x="261" y="-615.5" font-family="Helvetica,sans-Serif" font-size="10.00">Serial port</text>
</a>
</g>
</g>
<!-- Node0&#45;&gt;Node18 -->
<g id="edge18" class="edge"><title>Node0&#45;&gt;Node18</title>
<path fill="none" stroke="blueviolet" stroke-dasharray="5,2" d="M132.419,-437.501C134.995,-460.523 143.823,-520.521 169,-563 180.698,-582.738 186.5,-586.91 206,-599 213.433,-603.609 222.137,-607.294 230.359,-610.146"/>
<text text-anchor="middle" x="178.5" y="-589" font-family="Helvetica,sans-Serif" font-size="10.00">erpc</text>
</g>
<!-- Node4 -->
<g id="node10" class="node"><title>Node4</title>
<g id="a_node10"><a xlink:href="group__infra__utility.html" target="_top" xlink:title="Utility code used by the infrastructure. ">
<polygon fill="white" stroke="black" points="236.5,-570.5 236.5,-589.5 285.5,-589.5 285.5,-570.5 236.5,-570.5"/>
<text text-anchor="middle" x="261" y="-577.5" font-family="Helvetica,sans-Serif" font-size="10.00">Utilities</text>
</a>
</g>
</g>
<!-- Node0&#45;&gt;Node4 -->
<g id="edge4" class="edge"><title>Node0&#45;&gt;Node4</title>
<path fill="none" stroke="blueviolet" stroke-dasharray="5,2" d="M133.776,-437.734C138.35,-455.977 149.887,-496.08 169,-525 181.65,-544.141 186.5,-548.91 206,-561 215.291,-566.761 226.568,-571.079 236.408,-574.13"/>
<text text-anchor="middle" x="178.5" y="-551" font-family="Helvetica,sans-Serif" font-size="10.00">erpc</text>
</g>
<!-- Node20 -->
<g id="node11" class="node"><title>Node20</title>
<g id="a_node11"><a xlink:href="group__spi__slave__transport.html" target="_top" xlink:title="MCUXpressoSDK SPI slave driver transport. ">
<polygon fill="white" stroke="black" points="231.5,-532.5 231.5,-551.5 290.5,-551.5 290.5,-532.5 231.5,-532.5"/>
<text text-anchor="middle" x="261" y="-539.5" font-family="Helvetica,sans-Serif" font-size="10.00">SPI Slave</text>
</a>
</g>
</g>
<!-- Node0&#45;&gt;Node20 -->
<g id="edge20" class="edge"><title>Node0&#45;&gt;Node20</title>
<path fill="none" stroke="blueviolet" stroke-dasharray="5,2" d="M136.272,-437.826C142.715,-450.572 155.013,-473.164 169,-490 183.081,-506.949 187.025,-511.798 206,-523 213.788,-527.598 222.862,-531.328 231.325,-534.226"/>
<text text-anchor="middle" x="178.5" y="-513" font-family="Helvetica,sans-Serif" font-size="10.00">erpc</text>
</g>
<!-- Node23 -->
<g id="node12" class="node"><title>Node23</title>
<g id="a_node12"><a xlink:href="group__uart__transport.html" target="_top" xlink:title="CMSIS UART driver transport. ">
<polygon fill="white" stroke="black" points="223,-494.5 223,-513.5 299,-513.5 299,-494.5 223,-494.5"/>
<text text-anchor="middle" x="261" y="-501.5" font-family="Helvetica,sans-Serif" font-size="10.00">CMSIS UART</text>
</a>
</g>
</g>
<!-- Node0&#45;&gt;Node23 -->
<g id="edge23" class="edge"><title>Node0&#45;&gt;Node23</title>
<path fill="none" stroke="blueviolet" stroke-dasharray="5,2" d="M140.56,-437.511C147.865,-444.91 158.6,-455.197 169,-463 184.303,-474.482 188.669,-476.896 206,-485 213.472,-488.494 221.776,-491.72 229.586,-494.483"/>
<text text-anchor="middle" x="178.5" y="-478" font-family="Helvetica,sans-Serif" font-size="10.00">erpc</text>
</g>
<!-- Node21 -->
<g id="node13" class="node"><title>Node21</title>
<g id="a_node13"><a xlink:href="group__spidev__master__transport.html" target="_top" xlink:title="SPIdev Linux transport. ">
<polygon fill="white" stroke="black" points="208,-456.5 208,-475.5 314,-475.5 314,-456.5 208,-456.5"/>
<text text-anchor="middle" x="261" y="-463.5" font-family="Helvetica,sans-Serif" font-size="10.00">SPIdev Linux Master</text>
</a>
</g>
</g>
<!-- Node0&#45;&gt;Node21 -->
<g id="edge21" class="edge"><title>Node0&#45;&gt;Node21</title>
<path fill="none" stroke="blueviolet" stroke-dasharray="5,2" d="M151.171,-436.439C156.866,-438.726 163.131,-441.094 169,-443 184.498,-448.034 201.774,-452.644 217.074,-456.394"/>
<text text-anchor="middle" x="178.5" y="-451" font-family="Helvetica,sans-Serif" font-size="10.00">erpc</text>
</g>
<!-- Node19 -->
<g id="node14" class="node"><title>Node19</title>
<g id="a_node14"><a xlink:href="group__spi__master__transport.html" target="_top" xlink:title="MCUXpressoSDK SPI master driver transport. ">
<polygon fill="white" stroke="black" points="228.5,-418.5 228.5,-437.5 293.5,-437.5 293.5,-418.5 228.5,-418.5"/>
<text text-anchor="middle" x="261" y="-425.5" font-family="Helvetica,sans-Serif" font-size="10.00">SPI Master</text>
</a>
</g>
</g>
<!-- Node0&#45;&gt;Node19 -->
<g id="edge19" class="edge"><title>Node0&#45;&gt;Node19</title>
<path fill="none" stroke="blueviolet" stroke-dasharray="5,2" d="M151.016,-428C171.518,-428 204.082,-428 228.282,-428"/>
<text text-anchor="middle" x="178.5" y="-431" font-family="Helvetica,sans-Serif" font-size="10.00">erpc</text>
</g>
<!-- Node17 -->
<g id="node15" class="node"><title>Node17</title>
<g id="a_node15"><a xlink:href="group__rpmsg__tty__rtos__transport.html" target="_top" xlink:title="RPMsg TTY RTOS transport. ">
<polygon fill="white" stroke="black" points="212,-380.5 212,-399.5 310,-399.5 310,-380.5 212,-380.5"/>
<text text-anchor="middle" x="261" y="-387.5" font-family="Helvetica,sans-Serif" font-size="10.00">RPMsg TTY RTOS</text>
</a>
</g>
</g>
<!-- Node0&#45;&gt;Node17 -->
<g id="edge17" class="edge"><title>Node0&#45;&gt;Node17</title>
<path fill="none" stroke="blueviolet" stroke-dasharray="5,2" d="M151.171,-419.561C156.866,-417.274 163.131,-414.906 169,-413 184.498,-407.966 201.774,-403.356 217.074,-399.606"/>
<text text-anchor="middle" x="178.5" y="-416" font-family="Helvetica,sans-Serif" font-size="10.00">erpc</text>
</g>
<!-- Node5 -->
<g id="node16" class="node"><title>Node5</title>
<g id="a_node16"><a xlink:href="group__infra__server.html" target="_top" xlink:title="Server classes. ">
<polygon fill="white" stroke="black" points="239,-342.5 239,-361.5 283,-361.5 283,-342.5 239,-342.5"/>
<text text-anchor="middle" x="261" y="-349.5" font-family="Helvetica,sans-Serif" font-size="10.00">Server</text>
</a>
</g>
</g>
<!-- Node0&#45;&gt;Node5 -->
<g id="edge5" class="edge"><title>Node0&#45;&gt;Node5</title>
<path fill="none" stroke="blueviolet" stroke-dasharray="5,2" d="M140.56,-418.489C147.865,-411.09 158.6,-400.803 169,-393 184.303,-381.518 188.669,-379.104 206,-371 216.533,-366.075 228.718,-361.683 238.844,-358.366"/>
<text text-anchor="middle" x="178.5" y="-396" font-family="Helvetica,sans-Serif" font-size="10.00">erpc</text>
</g>
<!-- Node12 -->
<g id="node17" class="node"><title>Node12</title>
<g id="a_node17"><a xlink:href="group__lpi2c__slave__transport.html" target="_top" xlink:title="Lpi2c_slave_transport">
<polygon fill="white" stroke="black" points="206,-304.5 206,-323.5 316,-323.5 316,-304.5 206,-304.5"/>
<text text-anchor="middle" x="261" y="-311.5" font-family="Helvetica,sans-Serif" font-size="10.00">Lpi2c_slave_transport</text>
</a>
</g>
</g>
<!-- Node0&#45;&gt;Node12 -->
<g id="edge12" class="edge"><title>Node0&#45;&gt;Node12</title>
<path fill="none" stroke="blueviolet" stroke-dasharray="5,2" d="M136.272,-418.174C142.715,-405.428 155.013,-382.836 169,-366 183.081,-349.051 187.025,-344.202 206,-333 212.247,-329.312 219.323,-326.182 226.246,-323.592"/>
<text text-anchor="middle" x="178.5" y="-369" font-family="Helvetica,sans-Serif" font-size="10.00">erpc</text>
</g>
<!-- Node11 -->
<g id="node18" class="node"><title>Node11</title>
<g id="a_node18"><a xlink:href="group__itbp__transport.html" target="_top" xlink:title="Simple inter&#45;thread communications transport. ">
<polygon fill="white" stroke="black" points="228.5,-266.5 228.5,-285.5 293.5,-285.5 293.5,-266.5 228.5,-266.5"/>
<text text-anchor="middle" x="261" y="-273.5" font-family="Helvetica,sans-Serif" font-size="10.00">Inter&#45;thread</text>
</a>
</g>
</g>
<!-- Node0&#45;&gt;Node11 -->
<g id="edge11" class="edge"><title>Node0&#45;&gt;Node11</title>
<path fill="none" stroke="blueviolet" stroke-dasharray="5,2" d="M133.776,-418.266C138.35,-400.023 149.887,-359.92 169,-331 181.65,-311.859 186.5,-307.09 206,-295 212.842,-290.758 220.76,-287.298 228.389,-284.55"/>
<text text-anchor="middle" x="178.5" y="-334" font-family="Helvetica,sans-Serif" font-size="10.00">erpc</text>
</g>
<!-- Node8 -->
<g id="node19" class="node"><title>Node8</title>
<g id="a_node19"><a xlink:href="group__dspi__master__transport.html" target="_top" xlink:title="MCUXpressoSDK DSPI master driver transport. ">
<polygon fill="white" stroke="black" points="225,-228.5 225,-247.5 297,-247.5 297,-228.5 225,-228.5"/>
<text text-anchor="middle" x="261" y="-235.5" font-family="Helvetica,sans-Serif" font-size="10.00">DSPI Master</text>
</a>
</g>
</g>
<!-- Node0&#45;&gt;Node8 -->
<g id="edge8" class="edge"><title>Node0&#45;&gt;Node8</title>
<path fill="none" stroke="blueviolet" stroke-dasharray="5,2" d="M132.419,-418.499C134.995,-395.477 143.823,-335.479 169,-293 180.698,-273.262 186.5,-269.09 206,-257 211.997,-253.282 218.821,-250.164 225.553,-247.601"/>
<text text-anchor="middle" x="178.5" y="-296" font-family="Helvetica,sans-Serif" font-size="10.00">erpc</text>
</g>
<!-- Node24 -->
<g id="node20" class="node"><title>Node24</title>
<g id="a_node20"><a xlink:href="group___u_s_b___c_d_c__transport.html" target="_top" xlink:title="USB CDC transport. ">
<polygon fill="white" stroke="black" points="231,-190.5 231,-209.5 291,-209.5 291,-190.5 231,-190.5"/>
<text text-anchor="middle" x="261" y="-197.5" font-family="Helvetica,sans-Serif" font-size="10.00">USB CDC</text>
</a>
</g>
</g>
<!-- Node0&#45;&gt;Node24 -->
<g id="edge24" class="edge"><title>Node0&#45;&gt;Node24</title>
<path fill="none" stroke="blueviolet" stroke-dasharray="5,2" d="M131.678,-418.328C132.569,-390.934 137.853,-311.173 169,-255 180.126,-234.934 186.5,-231.09 206,-219 213.602,-214.287 222.533,-210.539 230.919,-207.661"/>
<text text-anchor="middle" x="178.5" y="-258" font-family="Helvetica,sans-Serif" font-size="10.00">erpc</text>
</g>
<!-- Node2 -->
<g id="node21" class="node"><title>Node2</title>
<g id="a_node21"><a xlink:href="group__infra__codec.html" target="_top" xlink:title="Classes used for message serialization. ">
<polygon fill="white" stroke="black" points="226,-152.5 226,-171.5 296,-171.5 296,-152.5 226,-152.5"/>
<text text-anchor="middle" x="261" y="-159.5" font-family="Helvetica,sans-Serif" font-size="10.00">Serialization</text>
</a>
</g>
</g>
<!-- Node0&#45;&gt;Node2 -->
<g id="edge2" class="edge"><title>Node0&#45;&gt;Node2</title>
<path fill="none" stroke="blueviolet" stroke-dasharray="5,2" d="M131.177,-418.067C130.569,-386.592 131.879,-287.017 169,-217 179.747,-196.729 186.5,-193.09 206,-181 212.082,-177.229 219.014,-174.077 225.837,-171.493"/>
<text text-anchor="middle" x="178.5" y="-220" font-family="Helvetica,sans-Serif" font-size="10.00">erpc</text>
</g>
<!-- Node15 -->
<g id="node22" class="node"><title>Node15</title>
<g id="a_node22"><a xlink:href="group__rpmsg__lite__rtos__transport.html" target="_top" xlink:title="RPMsg&#45;Lite zero copy transport using RTOS API. ">
<polygon fill="white" stroke="black" points="212.5,-114.5 212.5,-133.5 309.5,-133.5 309.5,-114.5 212.5,-114.5"/>
<text text-anchor="middle" x="261" y="-121.5" font-family="Helvetica,sans-Serif" font-size="10.00">RPMsg&#45;Lite RTOS</text>
</a>
</g>
</g>
<!-- Node0&#45;&gt;Node15 -->
<g id="edge15" class="edge"><title>Node0&#45;&gt;Node15</title>
<path fill="none" stroke="blueviolet" stroke-dasharray="5,2" d="M132.136,-418.275C134.913,-377.718 146.838,-222.169 169,-179 179.479,-158.589 186.5,-155.09 206,-143 211.997,-139.282 218.821,-136.164 225.553,-133.601"/>
<text text-anchor="middle" x="178.5" y="-182" font-family="Helvetica,sans-Serif" font-size="10.00">erpc</text>
</g>
<!-- Node16 -->
<g id="node23" class="node"><title>Node16</title>
<g id="a_node23"><a xlink:href="group__rpmsg__lite__transport.html" target="_top" xlink:title="RPMsg&#45;Lite zero copy transport. ">
<polygon fill="white" stroke="black" points="227,-76.5 227,-95.5 295,-95.5 295,-76.5 227,-76.5"/>
<text text-anchor="middle" x="261" y="-83.5" font-family="Helvetica,sans-Serif" font-size="10.00">RPMsg&#45;Lite</text>
</a>
</g>
</g>
<!-- Node0&#45;&gt;Node16 -->
<g id="edge16" class="edge"><title>Node0&#45;&gt;Node16</title>
<path fill="none" stroke="blueviolet" stroke-dasharray="5,2" d="M131.916,-418.324C133.942,-374.127 143.731,-191.429 169,-141 179.279,-120.487 186.5,-117.09 206,-105 212.419,-101.02 219.787,-97.7283 226.973,-95.0674"/>
<text text-anchor="middle" x="178.5" y="-144" font-family="Helvetica,sans-Serif" font-size="10.00">erpc</text>
</g>
<!-- Node6 -->
<g id="node24" class="node"><title>Node6</title>
<g id="a_node24"><a xlink:href="group__port__setup__extensions.html" target="_top" xlink:title="Extension setup functions. ">
<polygon fill="white" stroke="black" points="216.5,-38.5 216.5,-57.5 305.5,-57.5 305.5,-38.5 216.5,-38.5"/>
<text text-anchor="middle" x="261" y="-45.5" font-family="Helvetica,sans-Serif" font-size="10.00">Extension Setup</text>
</a>
</g>
</g>
<!-- Node0&#45;&gt;Node6 -->
<g id="edge6" class="edge"><title>Node0&#45;&gt;Node6</title>
<path fill="none" stroke="blueviolet" stroke-dasharray="5,2" d="M131.729,-418.31C132.992,-370.495 140.135,-159.702 169,-102 180.26,-79.4913 205.53,-65.6088 226.59,-57.566"/>
<text text-anchor="middle" x="178.5" y="-105" font-family="Helvetica,sans-Serif" font-size="10.00">erpc</text>
</g>
<!-- Node13 -->
<g id="node25" class="node"><title>Node13</title>
<g id="a_node25"><a xlink:href="group__lpspi__slave__transport.html" target="_top" xlink:title="Lpspi_slave_transport">
<polygon fill="white" stroke="black" points="206,-0.5 206,-19.5 316,-19.5 316,-0.5 206,-0.5"/>
<text text-anchor="middle" x="261" y="-7.5" font-family="Helvetica,sans-Serif" font-size="10.00">Lpspi_slave_transport</text>
</a>
</g>
</g>
<!-- Node0&#45;&gt;Node13 -->
<g id="edge13" class="edge"><title>Node0&#45;&gt;Node13</title>
<path fill="none" stroke="blueviolet" stroke-dasharray="5,2" d="M131.637,-418.29C132.482,-367.37 138.039,-131.036 169,-66 178.996,-45.002 186.319,-41.3899 206,-29 211.971,-25.2407 218.784,-22.1052 225.512,-19.5366"/>
<text text-anchor="middle" x="178.5" y="-69" font-family="Helvetica,sans-Serif" font-size="10.00">erpc</text>
</g>
</g>
</svg>
