<?xml version="1.0" encoding="UTF-8" standalone="no"?>
<!DOCTYPE svg PUBLIC "-//W3C//DTD SVG 1.1//EN"
 "http://www.w3.org/Graphics/SVG/1.1/DTD/svg11.dtd">
<!-- Generated by graphviz version 2.38.0 (20140413.2041)
 -->
<!-- Title: RPMsg&#45;Lite RTOS Pages: 1 -->
<svg width="498pt" height="900pt"
 viewBox="0.00 0.00 498.00 899.83" xmlns="http://www.w3.org/2000/svg" xmlns:xlink="http://www.w3.org/1999/xlink">
<g id="graph0" class="graph" transform="scale(1 1) rotate(0) translate(4 895.829)">
<title>RPMsg&#45;Lite RTOS</title>
<polygon fill="white" stroke="none" points="-4,4 -4,-895.829 494,-895.829 494,4 -4,4"/>
<!-- Node1 -->
<g id="node1" class="node"><title>Node1</title>
<g id="a_node1"><a xlink:href="group__transports.html" target="_top" xlink:title="Transport layer classes. ">
<polygon fill="white" stroke="black" points="0,-424.329 0,-443.329 89,-443.329 89,-424.329 0,-424.329"/>
<text text-anchor="middle" x="44.5" y="-431.329" font-family="Helvetica,sans-Serif" font-size="10.00">Transport Layers</text>
</a>
</g>
</g>
<!-- Node0 -->
<g id="node22" class="node"><title>Node0</title>
<polygon fill="#bfbfbf" stroke="black" points="126,-424.329 126,-443.329 223,-443.329 223,-424.329 126,-424.329"/>
<text text-anchor="middle" x="174.5" y="-431.329" font-family="Helvetica,sans-Serif" font-size="10.00">RPMsg&#45;Lite RTOS</text>
</g>
<!-- Node1&#45;&gt;Node0 -->
<g id="edge1" class="edge"><title>Node1&#45;&gt;Node0</title>
<path fill="none" stroke="black" d="M99.2923,-433.829C108.032,-433.829 117.033,-433.829 125.62,-433.829"/>
<polygon fill="black" stroke="black" points="99.1924,-430.329 89.1923,-433.829 99.1923,-437.329 99.1924,-430.329"/>
</g>
<!-- Node11 -->
<g id="node2" class="node"><title>Node11</title>
<g id="a_node2"><a xlink:href="group__dspi__slave__transport.html" target="_top" xlink:title="MCUXpressoSDK DSPI slave driver transport. ">
<polygon fill="white" stroke="black" points="402.5,-861.329 402.5,-880.329 467.5,-880.329 467.5,-861.329 402.5,-861.329"/>
<text text-anchor="middle" x="435" y="-868.329" font-family="Helvetica,sans-Serif" font-size="10.00">DSPI Slave</text>
</a>
</g>
</g>
<!-- Node12 -->
<g id="node3" class="node"><title>Node12</title>
<g id="a_node3"><a xlink:href="group__i2c__slave__transport.html" target="_top" xlink:title="MCUXpressoSDK I2C slave driver transport. ">
<polygon fill="white" stroke="black" points="406.5,-823.329 406.5,-842.329 463.5,-842.329 463.5,-823.329 406.5,-823.329"/>
<text text-anchor="middle" x="435" y="-830.329" font-family="Helvetica,sans-Serif" font-size="10.00">I2C Slave</text>
</a>
</g>
</g>
<!-- Node9 -->
<g id="node4" class="node"><title>Node9</title>
<g id="a_node4"><a xlink:href="group__port__threads.html" target="_top" xlink:title="Threading model. ">
<polygon fill="white" stroke="black" points="409.5,-785.329 409.5,-804.329 460.5,-804.329 460.5,-785.329 409.5,-785.329"/>
<text text-anchor="middle" x="435" y="-792.329" font-family="Helvetica,sans-Serif" font-size="10.00">Threads</text>
</a>
</g>
</g>
<!-- Node16 -->
<g id="node5" class="node"><title>Node16</title>
<g id="a_node5"><a xlink:href="group__mu__transport.html" target="_top" xlink:title="Messaging Unit transport. ">
<polygon fill="white" stroke="black" points="393,-747.329 393,-766.329 477,-766.329 477,-747.329 393,-747.329"/>
<text text-anchor="middle" x="435" y="-754.329" font-family="Helvetica,sans-Serif" font-size="10.00">Messaging Unit</text>
</a>
</g>
</g>
<!-- Node22 -->
<g id="node6" class="node"><title>Node22</title>
<g id="a_node6"><a xlink:href="group__tcp__transport.html" target="_top" xlink:title="Simple TCP/IP transport. ">
<polygon fill="white" stroke="black" points="411.5,-709.329 411.5,-728.329 458.5,-728.329 458.5,-709.329 411.5,-709.329"/>
<text text-anchor="middle" x="435" y="-716.329" font-family="Helvetica,sans-Serif" font-size="10.00">TCP/IP</text>
</a>
</g>
</g>
<!-- Node3 -->
<g id="node7" class="node"><title>Node3</title>
<g id="a_node7"><a xlink:href="group__infra__client.html" target="_top" xlink:title="Client classes. ">
<polygon fill="white" stroke="black" points="414.5,-671.329 414.5,-690.329 455.5,-690.329 455.5,-671.329 414.5,-671.329"/>
<text text-anchor="middle" x="435" y="-678.329" font-family="Helvetica,sans-Serif" font-size="10.00">Client</text>
</a>
</g>
</g>
<!-- Node5 -->
<g id="node8" class="node"><title>Node5</title>
<g id="a_node8"><a xlink:href="group__infra__transport.html" target="_top" xlink:title="Superclasses for building transports. ">
<polygon fill="white" stroke="black" points="404,-633.329 404,-652.329 466,-652.329 466,-633.329 404,-633.329"/>
<text text-anchor="middle" x="435" y="-640.329" font-family="Helvetica,sans-Serif" font-size="10.00">Transports</text>
</a>
</g>
</g>
<!-- Node18 -->
<g id="node9" class="node"><title>Node18</title>
<g id="a_node9"><a xlink:href="group__serial__transport.html" target="_top" xlink:title="POSIX and Win32 serial port transport. ">
<polygon fill="white" stroke="black" points="404.5,-595.329 404.5,-614.329 465.5,-614.329 465.5,-595.329 404.5,-595.329"/>
<text text-anchor="middle" x="435" y="-602.329" font-family="Helvetica,sans-Serif" font-size="10.00">Serial port</text>
</a>
</g>
</g>
<!-- Node6 -->
<g id="node10" class="node"><title>Node6</title>
<g id="a_node10"><a xlink:href="group__infra__utility.html" target="_top" xlink:title="Utility code used by the infrastructure. ">
<polygon fill="white" stroke="black" points="410.5,-557.329 410.5,-576.329 459.5,-576.329 459.5,-557.329 410.5,-557.329"/>
<text text-anchor="middle" x="435" y="-564.329" font-family="Helvetica,sans-Serif" font-size="10.00">Utilities</text>
</a>
</g>
</g>
<!-- Node20 -->
<g id="node11" class="node"><title>Node20</title>
<g id="a_node11"><a xlink:href="group__spi__slave__transport.html" target="_top" xlink:title="MCUXpressoSDK SPI slave driver transport. ">
<polygon fill="white" stroke="black" points="405.5,-519.329 405.5,-538.329 464.5,-538.329 464.5,-519.329 405.5,-519.329"/>
<text text-anchor="middle" x="435" y="-526.329" font-family="Helvetica,sans-Serif" font-size="10.00">SPI Slave</text>
</a>
</g>
</g>
<!-- Node23 -->
<g id="node12" class="node"><title>Node23</title>
<g id="a_node12"><a xlink:href="group__uart__transport.html" target="_top" xlink:title="CMSIS UART driver transport. ">
<polygon fill="white" stroke="black" points="397,-481.329 397,-500.329 473,-500.329 473,-481.329 397,-481.329"/>
<text text-anchor="middle" x="435" y="-488.329" font-family="Helvetica,sans-Serif" font-size="10.00">CMSIS UART</text>
</a>
</g>
</g>
<!-- Node21 -->
<g id="node13" class="node"><title>Node21</title>
<g id="a_node13"><a xlink:href="group__spidev__master__transport.html" target="_top" xlink:title="SPIdev Linux transport. ">
<polygon fill="white" stroke="black" points="382,-443.329 382,-462.329 488,-462.329 488,-443.329 382,-443.329"/>
<text text-anchor="middle" x="435" y="-450.329" font-family="Helvetica,sans-Serif" font-size="10.00">SPIdev Linux Master</text>
</a>
</g>
</g>
<!-- Node19 -->
<g id="node14" class="node"><title>Node19</title>
<g id="a_node14"><a xlink:href="group__spi__master__transport.html" target="_top" xlink:title="MCUXpressoSDK SPI master driver transport. ">
<polygon fill="white" stroke="black" points="402.5,-405.329 402.5,-424.329 467.5,-424.329 467.5,-405.329 402.5,-405.329"/>
<text text-anchor="middle" x="435" y="-412.329" font-family="Helvetica,sans-Serif" font-size="10.00">SPI Master</text>
</a>
</g>
</g>
<!-- Node17 -->
<g id="node15" class="node"><title>Node17</title>
<g id="a_node15"><a xlink:href="group__rpmsg__tty__rtos__transport.html" target="_top" xlink:title="RPMsg TTY RTOS transport. ">
<polygon fill="white" stroke="black" points="386,-367.329 386,-386.329 484,-386.329 484,-367.329 386,-367.329"/>
<text text-anchor="middle" x="435" y="-374.329" font-family="Helvetica,sans-Serif" font-size="10.00">RPMsg TTY RTOS</text>
</a>
</g>
</g>
<!-- Node7 -->
<g id="node16" class="node"><title>Node7</title>
<g id="a_node16"><a xlink:href="group__infra__server.html" target="_top" xlink:title="Server classes. ">
<polygon fill="white" stroke="black" points="413,-329.329 413,-348.329 457,-348.329 457,-329.329 413,-329.329"/>
<text text-anchor="middle" x="435" y="-336.329" font-family="Helvetica,sans-Serif" font-size="10.00">Server</text>
</a>
</g>
</g>
<!-- Node14 -->
<g id="node17" class="node"><title>Node14</title>
<g id="a_node17"><a xlink:href="group__lpi2c__slave__transport.html" target="_top" xlink:title="Lpi2c_slave_transport">
<polygon fill="white" stroke="black" points="380,-291.329 380,-310.329 490,-310.329 490,-291.329 380,-291.329"/>
<text text-anchor="middle" x="435" y="-298.329" font-family="Helvetica,sans-Serif" font-size="10.00">Lpi2c_slave_transport</text>
</a>
</g>
</g>
<!-- Node13 -->
<g id="node18" class="node"><title>Node13</title>
<g id="a_node18"><a xlink:href="group__itbp__transport.html" target="_top" xlink:title="Simple inter&#45;thread communications transport. ">
<polygon fill="white" stroke="black" points="402.5,-253.329 402.5,-272.329 467.5,-272.329 467.5,-253.329 402.5,-253.329"/>
<text text-anchor="middle" x="435" y="-260.329" font-family="Helvetica,sans-Serif" font-size="10.00">Inter&#45;thread</text>
</a>
</g>
</g>
<!-- Node10 -->
<g id="node19" class="node"><title>Node10</title>
<g id="a_node19"><a xlink:href="group__dspi__master__transport.html" target="_top" xlink:title="MCUXpressoSDK DSPI master driver transport. ">
<polygon fill="white" stroke="black" points="399,-215.329 399,-234.329 471,-234.329 471,-215.329 399,-215.329"/>
<text text-anchor="middle" x="435" y="-222.329" font-family="Helvetica,sans-Serif" font-size="10.00">DSPI Master</text>
</a>
</g>
</g>
<!-- Node24 -->
<g id="node20" class="node"><title>Node24</title>
<g id="a_node20"><a xlink:href="group___u_s_b___c_d_c__transport.html" target="_top" xlink:title="USB CDC transport. ">
<polygon fill="white" stroke="black" points="405,-177.329 405,-196.329 465,-196.329 465,-177.329 405,-177.329"/>
<text text-anchor="middle" x="435" y="-184.329" font-family="Helvetica,sans-Serif" font-size="10.00">USB CDC</text>
</a>
</g>
</g>
<!-- Node4 -->
<g id="node21" class="node"><title>Node4</title>
<g id="a_node21"><a xlink:href="group__infra__codec.html" target="_top" xlink:title="Classes used for message serialization. ">
<polygon fill="white" stroke="black" points="400,-139.329 400,-158.329 470,-158.329 470,-139.329 400,-139.329"/>
<text text-anchor="middle" x="435" y="-146.329" font-family="Helvetica,sans-Serif" font-size="10.00">Serialization</text>
</a>
</g>
</g>
<!-- Node0&#45;&gt;Node11 -->
<g id="edge11" class="edge"><title>Node0&#45;&gt;Node11</title>
<path fill="none" stroke="blueviolet" stroke-dasharray="5,2" d="M175.53,-443.574C175.916,-500.421 180.853,-788.667 241,-846.829 283.963,-888.373 359.778,-883.942 402.479,-877.251"/>
<text text-anchor="middle" x="301.5" y="-883.829" font-family="Helvetica,sans-Serif" font-size="10.00">erpc</text>
</g>
<!-- Node0&#45;&gt;Node12 -->
<g id="edge12" class="edge"><title>Node0&#45;&gt;Node12</title>
<path fill="none" stroke="blueviolet" stroke-dasharray="5,2" d="M175.695,-443.371C176.987,-496.621 186.071,-756.538 241,-808.829 264.172,-830.887 358.792,-833.439 406.387,-833.277"/>
<text text-anchor="middle" x="301.5" y="-834.829" font-family="Helvetica,sans-Serif" font-size="10.00">erpc</text>
</g>
<!-- Node0&#45;&gt;Node9 -->
<g id="edge9" class="edge"><title>Node0&#45;&gt;Node9</title>
<path fill="none" stroke="blueviolet" stroke-dasharray="5,2" d="M175.897,-443.377C178.182,-493.371 191.344,-724.451 241,-770.829 264.874,-793.127 362.923,-795.428 409.375,-795.223"/>
<text text-anchor="middle" x="301.5" y="-796.829" font-family="Helvetica,sans-Serif" font-size="10.00">erpc</text>
</g>
<!-- Node0&#45;&gt;Node16 -->
<g id="edge16" class="edge"><title>Node0&#45;&gt;Node16</title>
<path fill="none" stroke="blueviolet" stroke-dasharray="5,2" d="M176.169,-443.481C179.607,-490.103 196.863,-691.396 241,-731.829 262.488,-751.513 342.648,-756.021 392.654,-756.867"/>
<text text-anchor="middle" x="301.5" y="-758.829" font-family="Helvetica,sans-Serif" font-size="10.00">erpc</text>
</g>
<!-- Node0&#45;&gt;Node22 -->
<g id="edge23" class="edge"><title>Node0&#45;&gt;Node22</title>
<path fill="none" stroke="blueviolet" stroke-dasharray="5,2" d="M176.488,-443.377C181.108,-486.109 202.026,-659.201 241,-693.829 265.753,-715.821 365.736,-718.792 411.243,-718.977"/>
<text text-anchor="middle" x="301.5" y="-719.829" font-family="Helvetica,sans-Serif" font-size="10.00">erpc</text>
</g>
<!-- Node0&#45;&gt;Node3 -->
<g id="edge3" class="edge"><title>Node0&#45;&gt;Node3</title>
<path fill="none" stroke="blueviolet" stroke-dasharray="5,2" d="M175.005,-443.72C173.842,-478.823 175.048,-598.337 241,-654.829 266.742,-676.878 370.549,-680.338 414.349,-680.801"/>
<text text-anchor="middle" x="301.5" y="-681.829" font-family="Helvetica,sans-Serif" font-size="10.00">erpc</text>
</g>
<!-- Node0&#45;&gt;Node5 -->
<g id="edge5" class="edge"><title>Node0&#45;&gt;Node5</title>
<path fill="none" stroke="blueviolet" stroke-dasharray="5,2" d="M175.695,-443.756C176.888,-474.95 185.134,-571.606 241,-616.829 265.374,-636.559 355.761,-641.347 403.696,-642.488"/>
<text text-anchor="middle" x="301.5" y="-642.829" font-family="Helvetica,sans-Serif" font-size="10.00">erpc</text>
</g>
<!-- Node0&#45;&gt;Node18 -->
<g id="edge19" class="edge"><title>Node0&#45;&gt;Node18</title>
<path fill="none" stroke="blueviolet" stroke-dasharray="5,2" d="M176.685,-443.59C180.481,-470.235 194.922,-544.507 241,-578.829 266.216,-597.611 356.674,-602.826 404.257,-604.273"/>
<text text-anchor="middle" x="301.5" y="-604.829" font-family="Helvetica,sans-Serif" font-size="10.00">erpc</text>
</g>
<!-- Node0&#45;&gt;Node6 -->
<g id="edge6" class="edge"><title>Node0&#45;&gt;Node6</title>
<path fill="none" stroke="blueviolet" stroke-dasharray="5,2" d="M178.12,-443.41C184.637,-465.236 203.802,-518.632 241,-542.829 268.455,-560.687 365.134,-565.262 410.353,-566.43"/>
<text text-anchor="middle" x="301.5" y="-566.829" font-family="Helvetica,sans-Serif" font-size="10.00">erpc</text>
</g>
<!-- Node0&#45;&gt;Node20 -->
<g id="edge21" class="edge"><title>Node0&#45;&gt;Node20</title>
<path fill="none" stroke="blueviolet" stroke-dasharray="5,2" d="M182.232,-443.686C192.849,-458.373 214.976,-485.679 241,-498.829 294.417,-525.821 365.919,-529.854 405.177,-529.755"/>
<text text-anchor="middle" x="301.5" y="-530.829" font-family="Helvetica,sans-Serif" font-size="10.00">erpc</text>
</g>
<!-- Node0&#45;&gt;Node23 -->
<g id="edge24" class="edge"><title>Node0&#45;&gt;Node23</title>
<path fill="none" stroke="blueviolet" stroke-dasharray="5,2" d="M194.236,-443.356C207.088,-449.509 224.701,-457.202 241,-461.829 293.968,-476.862 357.456,-484.495 396.767,-488.065"/>
<text text-anchor="middle" x="301.5" y="-486.829" font-family="Helvetica,sans-Serif" font-size="10.00">erpc</text>
</g>
<!-- Node0&#45;&gt;Node21 -->
<g id="edge22" class="edge"><title>Node0&#45;&gt;Node21</title>
<path fill="none" stroke="blueviolet" stroke-dasharray="5,2" d="M223.214,-437.336C268.146,-440.638 335.298,-445.574 381.677,-448.983"/>
<text text-anchor="middle" x="301.5" y="-449.829" font-family="Helvetica,sans-Serif" font-size="10.00">erpc</text>
</g>
<!-- Node0&#45;&gt;Node19 -->
<g id="edge20" class="edge"><title>Node0&#45;&gt;Node19</title>
<path fill="none" stroke="blueviolet" stroke-dasharray="5,2" d="M214.441,-424.272C223.132,-422.485 232.34,-420.857 241,-419.829 297.583,-413.107 364.126,-413.108 402.448,-413.867"/>
<text text-anchor="middle" x="301.5" y="-422.829" font-family="Helvetica,sans-Serif" font-size="10.00">erpc</text>
</g>
<!-- Node0&#45;&gt;Node17 -->
<g id="edge18" class="edge"><title>Node0&#45;&gt;Node17</title>
<path fill="none" stroke="blueviolet" stroke-dasharray="5,2" d="M189.332,-424.1C202.11,-415.645 221.942,-403.838 241,-397.829 288.734,-382.776 346.032,-378.121 385.736,-376.865"/>
<text text-anchor="middle" x="301.5" y="-400.829" font-family="Helvetica,sans-Serif" font-size="10.00">erpc</text>
</g>
<!-- Node0&#45;&gt;Node7 -->
<g id="edge7" class="edge"><title>Node0&#45;&gt;Node7</title>
<path fill="none" stroke="blueviolet" stroke-dasharray="5,2" d="M181.131,-424.259C191.014,-408.44 213.107,-377.163 241,-362.829 297.76,-333.661 375.907,-334.48 412.924,-336.906"/>
<text text-anchor="middle" x="301.5" y="-365.829" font-family="Helvetica,sans-Serif" font-size="10.00">erpc</text>
</g>
<!-- Node0&#45;&gt;Node14 -->
<g id="edge14" class="edge"><title>Node0&#45;&gt;Node14</title>
<path fill="none" stroke="blueviolet" stroke-dasharray="5,2" d="M177.881,-424.188C183.995,-401.683 202.545,-345.714 241,-320.829 282.007,-294.291 338.479,-291.399 379.74,-293.881"/>
<text text-anchor="middle" x="301.5" y="-323.829" font-family="Helvetica,sans-Serif" font-size="10.00">erpc</text>
</g>
<!-- Node0&#45;&gt;Node13 -->
<g id="edge13" class="edge"><title>Node0&#45;&gt;Node13</title>
<path fill="none" stroke="blueviolet" stroke-dasharray="5,2" d="M176.24,-424.026C178.952,-395.781 190.991,-313.941 241,-277.829 288.545,-243.495 360.947,-248.998 402.228,-255.982"/>
<text text-anchor="middle" x="301.5" y="-280.829" font-family="Helvetica,sans-Serif" font-size="10.00">erpc</text>
</g>
<!-- Node0&#45;&gt;Node10 -->
<g id="edge10" class="edge"><title>Node0&#45;&gt;Node10</title>
<path fill="none" stroke="blueviolet" stroke-dasharray="5,2" d="M175.225,-424.264C174.859,-391.402 178.566,-282.517 241,-234.829 264.864,-216.601 349.715,-218.974 398.599,-222.051"/>
<text text-anchor="middle" x="301.5" y="-237.829" font-family="Helvetica,sans-Serif" font-size="10.00">erpc</text>
</g>
<!-- Node0&#45;&gt;Node24 -->
<g id="edge25" class="edge"><title>Node0&#45;&gt;Node24</title>
<path fill="none" stroke="blueviolet" stroke-dasharray="5,2" d="M176.828,-424.066C182.465,-384.147 205.756,-234.072 241,-204.829 265.215,-184.737 357.035,-184.393 404.773,-185.668"/>
<text text-anchor="middle" x="301.5" y="-207.829" font-family="Helvetica,sans-Serif" font-size="10.00">erpc</text>
</g>
<!-- Node0&#45;&gt;Node4 -->
<g id="edge4" class="edge"><title>Node0&#45;&gt;Node4</title>
<path fill="none" stroke="blueviolet" stroke-dasharray="5,2" d="M176.447,-424.116C180.893,-380.652 201.167,-204.623 241,-169.829 263.973,-149.762 350.94,-147.573 399.926,-148.013"/>
<text text-anchor="middle" x="301.5" y="-172.829" font-family="Helvetica,sans-Serif" font-size="10.00">erpc</text>
</g>
<!-- Node2 -->
<g id="node23" class="node"><title>Node2</title>
<g id="a_node23"><a xlink:href="group__rpmsg__lite__transport.html" target="_top" xlink:title="RPMsg&#45;Lite zero copy transport. ">
<polygon fill="white" stroke="black" points="401,-95.3286 401,-114.329 469,-114.329 469,-95.3286 401,-95.3286"/>
<text text-anchor="middle" x="435" y="-102.329" font-family="Helvetica,sans-Serif" font-size="10.00">RPMsg&#45;Lite</text>
</a>
</g>
</g>
<!-- Node0&#45;&gt;Node2 -->
<g id="edge2" class="edge"><title>Node0&#45;&gt;Node2</title>
<path fill="none" stroke="orange" stroke-dasharray="5,2" d="M176.166,-424.094C179.591,-377.073 196.795,-174.035 241,-132.829 263.599,-111.762 352.062,-106.502 400.996,-105.218"/>
<text text-anchor="middle" x="301.5" y="-135.829" font-family="Helvetica,sans-Serif" font-size="10.00">erpc::RPMsgBaseTransport</text>
</g>
<!-- Node0&#45;&gt;Node2 -->
<g id="edge17" class="edge"><title>Node0&#45;&gt;Node2</title>
<path fill="none" stroke="blueviolet" stroke-dasharray="5,2" d="M175.783,-424.082C177.485,-373.066 188.158,-137.463 241,-93.8286 264.55,-74.3826 352.163,-88.1461 400.847,-97.728"/>
<text text-anchor="middle" x="301.5" y="-96.8286" font-family="Helvetica,sans-Serif" font-size="10.00">erpc</text>
</g>
<!-- Node8 -->
<g id="node24" class="node"><title>Node8</title>
<g id="a_node24"><a xlink:href="group__port__setup__extensions.html" target="_top" xlink:title="Extension setup functions. ">
<polygon fill="white" stroke="black" points="390.5,-51.3286 390.5,-70.3286 479.5,-70.3286 479.5,-51.3286 390.5,-51.3286"/>
<text text-anchor="middle" x="435" y="-58.3286" font-family="Helvetica,sans-Serif" font-size="10.00">Extension Setup</text>
</a>
</g>
</g>
<!-- Node0&#45;&gt;Node8 -->
<g id="edge8" class="edge"><title>Node0&#45;&gt;Node8</title>
<path fill="none" stroke="blueviolet" stroke-dasharray="5,2" d="M175.678,-424.122C176.87,-371.118 185.451,-117.287 241,-68.8286 285.477,-30.0284 360.021,-40.7972 402.267,-51.3168"/>
<text text-anchor="middle" x="301.5" y="-71.8286" font-family="Helvetica,sans-Serif" font-size="10.00">erpc</text>
</g>
<!-- Node15 -->
<g id="node25" class="node"><title>Node15</title>
<g id="a_node25"><a xlink:href="group__lpspi__slave__transport.html" target="_top" xlink:title="Lpspi_slave_transport">
<polygon fill="white" stroke="black" points="380,-13.3286 380,-32.3286 490,-32.3286 490,-13.3286 380,-13.3286"/>
<text text-anchor="middle" x="435" y="-20.3286" font-family="Helvetica,sans-Serif" font-size="10.00">Lpspi_slave_transport</text>
</a>
</g>
</g>
<!-- Node0&#45;&gt;Node15 -->
<g id="edge15" class="edge"><title>Node0&#45;&gt;Node15</title>
<path fill="none" stroke="blueviolet" stroke-dasharray="5,2" d="M175.46,-424.101C175.446,-367.377 178.491,-79.9467 241,-25.8286 286.983,13.9824 364.777,-1.14939 406.161,-13.3281"/>
<text text-anchor="middle" x="301.5" y="-28.8286" font-family="Helvetica,sans-Serif" font-size="10.00">erpc</text>
</g>
</g>
</svg>
