<?xml version="1.0" encoding="UTF-8" standalone="no"?>
<!DOCTYPE svg PUBLIC "-//W3C//DTD SVG 1.1//EN"
 "http://www.w3.org/Graphics/SVG/1.1/DTD/svg11.dtd">
<!-- Generated by graphviz version 2.38.0 (20140413.2041)
 -->
<!-- Title: Transports Pages: 1 -->
<svg width="360pt" height="572pt"
 viewBox="0.00 0.00 360.00 571.50" xmlns="http://www.w3.org/2000/svg" xmlns:xlink="http://www.w3.org/1999/xlink">
<g id="graph0" class="graph" transform="scale(1 1) rotate(0) translate(4 567.5)">
<title>Transports</title>
<polygon fill="white" stroke="none" points="-4,4 -4,-567.5 356,-567.5 356,4 -4,4"/>
<!-- Node8 -->
<g id="node1" class="node"><title>Node8</title>
<g id="a_node1"><a xlink:href="group__dspi__slave__transport.html" target="_top" xlink:title="Kinetis SDK DSPI slave driver transport. ">
<polygon fill="white" stroke="black" points="257,-544 257,-563 322,-563 322,-544 257,-544"/>
<text text-anchor="middle" x="289.5" y="-551" font-family="Helvetica,sans-Serif" font-size="10.00">DSPI Slave</text>
</a>
</g>
</g>
<!-- Node6 -->
<g id="node2" class="node"><title>Node6</title>
<g id="a_node2"><a xlink:href="group__port__threads.html" target="_top" xlink:title="Threading model. ">
<polygon fill="white" stroke="black" points="264,-506 264,-525 315,-525 315,-506 264,-506"/>
<text text-anchor="middle" x="289.5" y="-513" font-family="Helvetica,sans-Serif" font-size="10.00">Threads</text>
</a>
</g>
</g>
<!-- Node15 -->
<g id="node3" class="node"><title>Node15</title>
<g id="a_node3"><a xlink:href="group__tcp__transport.html" target="_top" xlink:title="Simple TCP/IP transport. ">
<polygon fill="white" stroke="black" points="266,-468 266,-487 313,-487 313,-468 266,-468"/>
<text text-anchor="middle" x="289.5" y="-475" font-family="Helvetica,sans-Serif" font-size="10.00">TCP/IP</text>
</a>
</g>
</g>
<!-- Node1 -->
<g id="node4" class="node"><title>Node1</title>
<g id="a_node4"><a xlink:href="group__infra.html" target="_top" xlink:title="C++ core. ">
<polygon fill="white" stroke="black" points="0,-278 0,-297 73,-297 73,-278 0,-278"/>
<text text-anchor="middle" x="36.5" y="-285" font-family="Helvetica,sans-Serif" font-size="10.00">Infrastructure</text>
</a>
</g>
</g>
<!-- Node0 -->
<g id="node7" class="node"><title>Node0</title>
<polygon fill="#bfbfbf" stroke="black" points="110,-278 110,-297 172,-297 172,-278 110,-278"/>
<text text-anchor="middle" x="141" y="-285" font-family="Helvetica,sans-Serif" font-size="10.00">Transports</text>
</g>
<!-- Node1&#45;&gt;Node0 -->
<g id="edge1" class="edge"><title>Node1&#45;&gt;Node0</title>
<path fill="none" stroke="black" d="M83.152,-287.5C92.2329,-287.5 101.551,-287.5 109.948,-287.5"/>
<polygon fill="black" stroke="black" points="83.0619,-284 73.0619,-287.5 83.0618,-291 83.0619,-284"/>
</g>
<!-- Node2 -->
<g id="node5" class="node"><title>Node2</title>
<g id="a_node5"><a xlink:href="group__infra__client.html" target="_top" xlink:title="Client classes. ">
<polygon fill="white" stroke="black" points="269,-430 269,-449 310,-449 310,-430 269,-430"/>
<text text-anchor="middle" x="289.5" y="-437" font-family="Helvetica,sans-Serif" font-size="10.00">Client</text>
</a>
</g>
</g>
<!-- Node11 -->
<g id="node6" class="node"><title>Node11</title>
<g id="a_node6"><a xlink:href="group__rpmsg__lite__zc__transport.html" target="_top" xlink:title="Rpmsg_lite_zc_transport">
<polygon fill="white" stroke="black" points="227,-392 227,-411 352,-411 352,-392 227,-392"/>
<text text-anchor="middle" x="289.5" y="-399" font-family="Helvetica,sans-Serif" font-size="10.00">Rpmsg_lite_zc_transport</text>
</a>
</g>
</g>
<!-- Node0&#45;&gt;Node8 -->
<g id="edge8" class="edge"><title>Node0&#45;&gt;Node8</title>
<path fill="none" stroke="blueviolet" stroke-dasharray="5,2" d="M142.171,-297.149C143.125,-328.62 149.367,-430.29 190,-500.5 201.187,-519.829 207.635,-523.376 227,-534.5 236.109,-539.732 246.82,-543.684 256.729,-546.59"/>
<text text-anchor="middle" x="199.5" y="-526.5" font-family="Helvetica,sans-Serif" font-size="10.00">erpc</text>
</g>
<!-- Node0&#45;&gt;Node6 -->
<g id="edge6" class="edge"><title>Node0&#45;&gt;Node6</title>
<path fill="none" stroke="blueviolet" stroke-dasharray="5,2" d="M142.848,-297.265C145.619,-324.914 156.262,-405.365 190,-461.5 201.661,-480.902 207.454,-485.083 227,-496.5 238.29,-503.094 252.106,-507.63 263.781,-510.611"/>
<text text-anchor="middle" x="199.5" y="-488.5" font-family="Helvetica,sans-Serif" font-size="10.00">erpc</text>
</g>
<!-- Node0&#45;&gt;Node15 -->
<g id="edge15" class="edge"><title>Node0&#45;&gt;Node15</title>
<path fill="none" stroke="blueviolet" stroke-dasharray="5,2" d="M143.995,-297.146C149.016,-319.959 163.693,-378.466 190,-420.5 202.506,-440.482 206.894,-446.195 227,-458.5 238.819,-465.733 253.618,-470.417 265.736,-473.324"/>
<text text-anchor="middle" x="199.5" y="-449.5" font-family="Helvetica,sans-Serif" font-size="10.00">erpc</text>
</g>
<!-- Node0&#45;&gt;Node2 -->
<g id="edge2" class="edge"><title>Node0&#45;&gt;Node2</title>
<path fill="none" stroke="blueviolet" stroke-dasharray="5,2" d="M144.789,-297.07C152.752,-322.458 178.221,-391.547 227,-420.5 239.973,-428.2 256.366,-433.063 268.965,-435.939"/>
<text text-anchor="middle" x="199.5" y="-408.5" font-family="Helvetica,sans-Serif" font-size="10.00">erpc</text>
</g>
<!-- Node0&#45;&gt;Node11 -->
<g id="edge11" class="edge"><title>Node0&#45;&gt;Node11</title>
<path fill="none" stroke="blueviolet" stroke-dasharray="5,2" d="M147.594,-297.195C159.469,-316.816 189.227,-361.174 227,-382.5 233.714,-386.291 241.277,-389.419 248.743,-391.965"/>
<text text-anchor="middle" x="199.5" y="-372.5" font-family="Helvetica,sans-Serif" font-size="10.00">erpc</text>
</g>
<!-- Node12 -->
<g id="node8" class="node"><title>Node12</title>
<g id="a_node8"><a xlink:href="group__serial__transport.html" target="_top" xlink:title="POSIX and Win32 serial port transport. ">
<polygon fill="white" stroke="black" points="259,-354 259,-373 320,-373 320,-354 259,-354"/>
<text text-anchor="middle" x="289.5" y="-361" font-family="Helvetica,sans-Serif" font-size="10.00">Serial port</text>
</a>
</g>
</g>
<!-- Node0&#45;&gt;Node12 -->
<g id="edge12" class="edge"><title>Node0&#45;&gt;Node12</title>
<path fill="none" stroke="blueviolet" stroke-dasharray="5,2" d="M153.342,-297.001C168.963,-309.624 198.422,-331.805 227,-344.5 237.111,-348.991 248.599,-352.85 258.887,-355.894"/>
<text text-anchor="middle" x="199.5" y="-337.5" font-family="Helvetica,sans-Serif" font-size="10.00">erpc</text>
</g>
<!-- Node4 -->
<g id="node9" class="node"><title>Node4</title>
<g id="a_node9"><a xlink:href="group__infra__utility.html" target="_top" xlink:title="Utility code used by the infrastructure. ">
<polygon fill="white" stroke="black" points="265,-316 265,-335 314,-335 314,-316 265,-316"/>
<text text-anchor="middle" x="289.5" y="-323" font-family="Helvetica,sans-Serif" font-size="10.00">Utilities</text>
</a>
</g>
</g>
<!-- Node0&#45;&gt;Node4 -->
<g id="edge4" class="edge"><title>Node0&#45;&gt;Node4</title>
<path fill="none" stroke="blueviolet" stroke-dasharray="5,2" d="M171.346,-297.046C177.485,-298.937 183.935,-300.847 190,-302.5 215.414,-309.428 244.863,-316.134 264.894,-320.499"/>
<text text-anchor="middle" x="199.5" y="-310.5" font-family="Helvetica,sans-Serif" font-size="10.00">erpc</text>
</g>
<!-- Node14 -->
<g id="node10" class="node"><title>Node14</title>
<g id="a_node10"><a xlink:href="group__spi__slave__transport.html" target="_top" xlink:title="Kinetis SDK SPI slave driver transport. ">
<polygon fill="white" stroke="black" points="260,-278 260,-297 319,-297 319,-278 260,-278"/>
<text text-anchor="middle" x="289.5" y="-285" font-family="Helvetica,sans-Serif" font-size="10.00">SPI Slave</text>
</a>
</g>
</g>
<!-- Node0&#45;&gt;Node14 -->
<g id="edge14" class="edge"><title>Node0&#45;&gt;Node14</title>
<path fill="none" stroke="blueviolet" stroke-dasharray="5,2" d="M172.355,-287.5C198.001,-287.5 234.478,-287.5 259.679,-287.5"/>
<text text-anchor="middle" x="199.5" y="-290.5" font-family="Helvetica,sans-Serif" font-size="10.00">erpc</text>
</g>
<!-- Node16 -->
<g id="node11" class="node"><title>Node16</title>
<g id="a_node11"><a xlink:href="group__uart__transport.html" target="_top" xlink:title="CMSIS UART driver transport. ">
<polygon fill="white" stroke="black" points="251.5,-240 251.5,-259 327.5,-259 327.5,-240 251.5,-240"/>
<text text-anchor="middle" x="289.5" y="-247" font-family="Helvetica,sans-Serif" font-size="10.00">CMSIS UART</text>
</a>
</g>
</g>
<!-- Node0&#45;&gt;Node16 -->
<g id="edge16" class="edge"><title>Node0&#45;&gt;Node16</title>
<path fill="none" stroke="blueviolet" stroke-dasharray="5,2" d="M171.346,-277.954C177.485,-276.063 183.935,-274.153 190,-272.5 210.162,-267.004 232.863,-261.648 251.387,-257.489"/>
<text text-anchor="middle" x="199.5" y="-275.5" font-family="Helvetica,sans-Serif" font-size="10.00">erpc</text>
</g>
<!-- Node13 -->
<g id="node12" class="node"><title>Node13</title>
<g id="a_node12"><a xlink:href="group__spi__master__transport.html" target="_top" xlink:title="Kinetis SDK SPI master driver transport. ">
<polygon fill="white" stroke="black" points="257,-202 257,-221 322,-221 322,-202 257,-202"/>
<text text-anchor="middle" x="289.5" y="-209" font-family="Helvetica,sans-Serif" font-size="10.00">SPI Master</text>
</a>
</g>
</g>
<!-- Node0&#45;&gt;Node13 -->
<g id="edge13" class="edge"><title>Node0&#45;&gt;Node13</title>
<path fill="none" stroke="blueviolet" stroke-dasharray="5,2" d="M153.647,-277.867C169.377,-265.301 198.71,-243.403 227,-230.5 236.456,-226.187 247.158,-222.501 256.952,-219.554"/>
<text text-anchor="middle" x="199.5" y="-254.5" font-family="Helvetica,sans-Serif" font-size="10.00">erpc</text>
</g>
<!-- Node5 -->
<g id="node13" class="node"><title>Node5</title>
<g id="a_node13"><a xlink:href="group__infra__server.html" target="_top" xlink:title="Server classes. ">
<polygon fill="white" stroke="black" points="267.5,-164 267.5,-183 311.5,-183 311.5,-164 267.5,-164"/>
<text text-anchor="middle" x="289.5" y="-171" font-family="Helvetica,sans-Serif" font-size="10.00">Server</text>
</a>
</g>
</g>
<!-- Node0&#45;&gt;Node5 -->
<g id="edge5" class="edge"><title>Node0&#45;&gt;Node5</title>
<path fill="none" stroke="blueviolet" stroke-dasharray="5,2" d="M147.62,-277.851C159.543,-258.315 189.387,-214.106 227,-192.5 239.5,-185.32 255.019,-180.551 267.34,-177.587"/>
<text text-anchor="middle" x="199.5" y="-223.5" font-family="Helvetica,sans-Serif" font-size="10.00">erpc</text>
</g>
<!-- Node9 -->
<g id="node14" class="node"><title>Node9</title>
<g id="a_node14"><a xlink:href="group__itbp__transport.html" target="_top" xlink:title="Simple inter&#45;thread communications transport. ">
<polygon fill="white" stroke="black" points="257,-126 257,-145 322,-145 322,-126 257,-126"/>
<text text-anchor="middle" x="289.5" y="-133" font-family="Helvetica,sans-Serif" font-size="10.00">Inter&#45;thread</text>
</a>
</g>
</g>
<!-- Node0&#45;&gt;Node9 -->
<g id="edge9" class="edge"><title>Node0&#45;&gt;Node9</title>
<path fill="none" stroke="blueviolet" stroke-dasharray="5,2" d="M144.811,-277.966C152.828,-252.67 178.421,-183.787 227,-154.5 236.092,-149.019 246.905,-144.989 256.91,-142.089"/>
<text text-anchor="middle" x="199.5" y="-189.5" font-family="Helvetica,sans-Serif" font-size="10.00">erpc</text>
</g>
<!-- Node7 -->
<g id="node15" class="node"><title>Node7</title>
<g id="a_node15"><a xlink:href="group__dspi__master__transport.html" target="_top" xlink:title="Kinetis SDK DSPI master driver transport. ">
<polygon fill="white" stroke="black" points="253.5,-88 253.5,-107 325.5,-107 325.5,-88 253.5,-88"/>
<text text-anchor="middle" x="289.5" y="-95" font-family="Helvetica,sans-Serif" font-size="10.00">DSPI Master</text>
</a>
</g>
</g>
<!-- Node0&#45;&gt;Node7 -->
<g id="edge7" class="edge"><title>Node0&#45;&gt;Node7</title>
<path fill="none" stroke="blueviolet" stroke-dasharray="5,2" d="M144.048,-277.95C149.183,-255.359 164.089,-197.392 190,-155.5 202.568,-135.18 206.702,-129.104 227,-116.5 234.975,-111.548 244.337,-107.8 253.319,-105"/>
<text text-anchor="middle" x="199.5" y="-158.5" font-family="Helvetica,sans-Serif" font-size="10.00">erpc</text>
</g>
<!-- Node3 -->
<g id="node16" class="node"><title>Node3</title>
<g id="a_node16"><a xlink:href="group__infra__codec.html" target="_top" xlink:title="Classes used for message serialization. ">
<polygon fill="white" stroke="black" points="254.5,-50 254.5,-69 324.5,-69 324.5,-50 254.5,-50"/>
<text text-anchor="middle" x="289.5" y="-57" font-family="Helvetica,sans-Serif" font-size="10.00">Serialization</text>
</a>
</g>
</g>
<!-- Node0&#45;&gt;Node3 -->
<g id="edge3" class="edge"><title>Node0&#45;&gt;Node3</title>
<path fill="none" stroke="blueviolet" stroke-dasharray="5,2" d="M142.954,-277.893C146.005,-250.684 157.313,-171.445 190,-115.5 201.732,-95.4202 207.083,-90.5069 227,-78.5 235.326,-73.4804 245.096,-69.6782 254.367,-66.8457"/>
<text text-anchor="middle" x="199.5" y="-118.5" font-family="Helvetica,sans-Serif" font-size="10.00">erpc</text>
</g>
<!-- Node10 -->
<g id="node17" class="node"><title>Node10</title>
<g id="a_node17"><a xlink:href="group__rpmsg__lite__zc__rtos__transport.html" target="_top" xlink:title="Rpmsg_lite_zc_rtos\l_transport">
<polygon fill="white" stroke="black" points="238,-0.5 238,-30.5 341,-30.5 341,-0.5 238,-0.5"/>
<text text-anchor="start" x="246" y="-18.5" font-family="Helvetica,sans-Serif" font-size="10.00">Rpmsg_lite_zc_rtos</text>
<text text-anchor="middle" x="289.5" y="-7.5" font-family="Helvetica,sans-Serif" font-size="10.00">_transport</text>
</a>
</g>
</g>
<!-- Node0&#45;&gt;Node10 -->
<g id="edge10" class="edge"><title>Node0&#45;&gt;Node10</title>
<path fill="none" stroke="blueviolet" stroke-dasharray="5,2" d="M142.275,-277.987C143.548,-246.95 150.655,-146.61 190,-76.5 201.228,-56.4915 207.795,-53.0527 227,-40.5 232.692,-36.7797 239.027,-33.4463 245.406,-30.5191"/>
<text text-anchor="middle" x="199.5" y="-79.5" font-family="Helvetica,sans-Serif" font-size="10.00">erpc</text>
</g>
</g>
</svg>
