<?xml version="1.0" encoding="UTF-8" standalone="no"?>
<!DOCTYPE svg PUBLIC "-//W3C//DTD SVG 1.1//EN"
 "http://www.w3.org/Graphics/SVG/1.1/DTD/svg11.dtd">
<!-- Generated by graphviz version 2.38.0 (20140413.2041)
 -->
<!-- Title: Serial port Pages: 1 -->
<svg width="375pt" height="572pt"
 viewBox="0.00 0.00 375.00 571.50" xmlns="http://www.w3.org/2000/svg" xmlns:xlink="http://www.w3.org/1999/xlink">
<g id="graph0" class="graph" transform="scale(1 1) rotate(0) translate(4 567.5)">
<title>Serial port</title>
<polygon fill="white" stroke="none" points="-4,4 -4,-567.5 371,-567.5 371,4 -4,4"/>
<!-- Node1 -->
<g id="node1" class="node"><title>Node1</title>
<g id="a_node1"><a xlink:href="group__transports.html" target="_top" xlink:title="Transport layer classes. ">
<polygon fill="white" stroke="black" points="0,-278 0,-297 89,-297 89,-278 0,-278"/>
<text text-anchor="middle" x="44.5" y="-285" font-family="Helvetica,sans-Serif" font-size="10.00">Transport Layers</text>
</a>
</g>
</g>
<!-- Node0 -->
<g id="node8" class="node"><title>Node0</title>
<polygon fill="#bfbfbf" stroke="black" points="126,-278 126,-297 187,-297 187,-278 126,-278"/>
<text text-anchor="middle" x="156.5" y="-285" font-family="Helvetica,sans-Serif" font-size="10.00">Serial port</text>
</g>
<!-- Node1&#45;&gt;Node0 -->
<g id="edge1" class="edge"><title>Node1&#45;&gt;Node0</title>
<path fill="none" stroke="black" d="M99.4378,-287.5C108.486,-287.5 117.572,-287.5 125.717,-287.5"/>
<polygon fill="black" stroke="black" points="99.291,-284 89.291,-287.5 99.2909,-291 99.291,-284"/>
</g>
<!-- Node9 -->
<g id="node2" class="node"><title>Node9</title>
<g id="a_node2"><a xlink:href="group__dspi__slave__transport.html" target="_top" xlink:title="Kinetis SDK DSPI slave driver transport. ">
<polygon fill="white" stroke="black" points="272,-544 272,-563 337,-563 337,-544 272,-544"/>
<text text-anchor="middle" x="304.5" y="-551" font-family="Helvetica,sans-Serif" font-size="10.00">DSPI Slave</text>
</a>
</g>
</g>
<!-- Node7 -->
<g id="node3" class="node"><title>Node7</title>
<g id="a_node3"><a xlink:href="group__port__threads.html" target="_top" xlink:title="Threading model. ">
<polygon fill="white" stroke="black" points="279,-506 279,-525 330,-525 330,-506 279,-506"/>
<text text-anchor="middle" x="304.5" y="-513" font-family="Helvetica,sans-Serif" font-size="10.00">Threads</text>
</a>
</g>
</g>
<!-- Node15 -->
<g id="node4" class="node"><title>Node15</title>
<g id="a_node4"><a xlink:href="group__tcp__transport.html" target="_top" xlink:title="Simple TCP/IP transport. ">
<polygon fill="white" stroke="black" points="281,-468 281,-487 328,-487 328,-468 281,-468"/>
<text text-anchor="middle" x="304.5" y="-475" font-family="Helvetica,sans-Serif" font-size="10.00">TCP/IP</text>
</a>
</g>
</g>
<!-- Node2 -->
<g id="node5" class="node"><title>Node2</title>
<g id="a_node5"><a xlink:href="group__infra__client.html" target="_top" xlink:title="Client classes. ">
<polygon fill="white" stroke="black" points="284,-430 284,-449 325,-449 325,-430 284,-430"/>
<text text-anchor="middle" x="304.5" y="-437" font-family="Helvetica,sans-Serif" font-size="10.00">Client</text>
</a>
</g>
</g>
<!-- Node12 -->
<g id="node6" class="node"><title>Node12</title>
<g id="a_node6"><a xlink:href="group__rpmsg__lite__zc__transport.html" target="_top" xlink:title="Rpmsg_lite_zc_transport">
<polygon fill="white" stroke="black" points="242,-392 242,-411 367,-411 367,-392 242,-392"/>
<text text-anchor="middle" x="304.5" y="-399" font-family="Helvetica,sans-Serif" font-size="10.00">Rpmsg_lite_zc_transport</text>
</a>
</g>
</g>
<!-- Node4 -->
<g id="node7" class="node"><title>Node4</title>
<g id="a_node7"><a xlink:href="group__infra__transport.html" target="_top" xlink:title="Superclasses for building transports. ">
<polygon fill="white" stroke="black" points="273.5,-354 273.5,-373 335.5,-373 335.5,-354 273.5,-354"/>
<text text-anchor="middle" x="304.5" y="-361" font-family="Helvetica,sans-Serif" font-size="10.00">Transports</text>
</a>
</g>
</g>
<!-- Node0&#45;&gt;Node9 -->
<g id="edge9" class="edge"><title>Node0&#45;&gt;Node9</title>
<path fill="none" stroke="blueviolet" stroke-dasharray="5,2" d="M157.643,-297.148C158.507,-328.617 164.466,-430.28 205,-500.5 216.165,-519.842 222.635,-523.376 242,-534.5 251.109,-539.732 261.82,-543.684 271.729,-546.59"/>
<text text-anchor="middle" x="214.5" y="-525.5" font-family="Helvetica,sans-Serif" font-size="10.00">erpc</text>
</g>
<!-- Node0&#45;&gt;Node7 -->
<g id="edge7" class="edge"><title>Node0&#45;&gt;Node7</title>
<path fill="none" stroke="blueviolet" stroke-dasharray="5,2" d="M158.314,-297.265C160.989,-324.912 171.361,-405.361 205,-461.5 216.635,-480.917 222.454,-485.083 242,-496.5 253.29,-503.094 267.106,-507.63 278.781,-510.611"/>
<text text-anchor="middle" x="214.5" y="-488.5" font-family="Helvetica,sans-Serif" font-size="10.00">erpc</text>
</g>
<!-- Node0&#45;&gt;Node15 -->
<g id="edge15" class="edge"><title>Node0&#45;&gt;Node15</title>
<path fill="none" stroke="blueviolet" stroke-dasharray="5,2" d="M159.451,-297.147C164.37,-319.961 178.795,-378.473 205,-420.5 217.472,-440.502 221.894,-446.195 242,-458.5 253.819,-465.733 268.618,-470.417 280.736,-473.324"/>
<text text-anchor="middle" x="214.5" y="-449.5" font-family="Helvetica,sans-Serif" font-size="10.00">erpc</text>
</g>
<!-- Node0&#45;&gt;Node2 -->
<g id="edge2" class="edge"><title>Node0&#45;&gt;Node2</title>
<path fill="none" stroke="blueviolet" stroke-dasharray="5,2" d="M160.25,-297.076C168.111,-322.477 193.304,-391.596 242,-420.5 254.973,-428.2 271.366,-433.063 283.965,-435.939"/>
<text text-anchor="middle" x="214.5" y="-408.5" font-family="Helvetica,sans-Serif" font-size="10.00">erpc</text>
</g>
<!-- Node0&#45;&gt;Node12 -->
<g id="edge12" class="edge"><title>Node0&#45;&gt;Node12</title>
<path fill="none" stroke="blueviolet" stroke-dasharray="5,2" d="M163.041,-297.204C174.808,-316.842 204.326,-361.23 242,-382.5 248.714,-386.291 256.277,-389.419 263.743,-391.965"/>
<text text-anchor="middle" x="214.5" y="-372.5" font-family="Helvetica,sans-Serif" font-size="10.00">erpc</text>
</g>
<!-- Node0&#45;&gt;Node4 -->
<g id="edge4" class="edge"><title>Node0&#45;&gt;Node4</title>
<path fill="none" stroke="blueviolet" stroke-dasharray="5,2" d="M168.76,-297.016C184.271,-309.656 213.537,-331.856 242,-344.5 251.906,-348.901 263.135,-352.694 273.262,-355.709"/>
<text text-anchor="middle" x="214.5" y="-337.5" font-family="Helvetica,sans-Serif" font-size="10.00">erpc</text>
</g>
<!-- Node5 -->
<g id="node9" class="node"><title>Node5</title>
<g id="a_node9"><a xlink:href="group__infra__utility.html" target="_top" xlink:title="Utility code used by the infrastructure. ">
<polygon fill="white" stroke="black" points="280,-316 280,-335 329,-335 329,-316 280,-316"/>
<text text-anchor="middle" x="304.5" y="-323" font-family="Helvetica,sans-Serif" font-size="10.00">Utilities</text>
</a>
</g>
</g>
<!-- Node0&#45;&gt;Node5 -->
<g id="edge5" class="edge"><title>Node0&#45;&gt;Node5</title>
<path fill="none" stroke="blueviolet" stroke-dasharray="5,2" d="M186.535,-297.056C192.611,-298.946 198.995,-300.853 205,-302.5 230.403,-309.466 259.854,-316.165 279.888,-320.519"/>
<text text-anchor="middle" x="214.5" y="-310.5" font-family="Helvetica,sans-Serif" font-size="10.00">erpc</text>
</g>
<!-- Node14 -->
<g id="node10" class="node"><title>Node14</title>
<g id="a_node10"><a xlink:href="group__spi__slave__transport.html" target="_top" xlink:title="Kinetis SDK SPI slave driver transport. ">
<polygon fill="white" stroke="black" points="275,-278 275,-297 334,-297 334,-278 275,-278"/>
<text text-anchor="middle" x="304.5" y="-285" font-family="Helvetica,sans-Serif" font-size="10.00">SPI Slave</text>
</a>
</g>
</g>
<!-- Node0&#45;&gt;Node14 -->
<g id="edge14" class="edge"><title>Node0&#45;&gt;Node14</title>
<path fill="none" stroke="blueviolet" stroke-dasharray="5,2" d="M187.045,-287.5C212.709,-287.5 249.638,-287.5 274.992,-287.5"/>
<text text-anchor="middle" x="214.5" y="-290.5" font-family="Helvetica,sans-Serif" font-size="10.00">erpc</text>
</g>
<!-- Node16 -->
<g id="node11" class="node"><title>Node16</title>
<g id="a_node11"><a xlink:href="group__uart__transport.html" target="_top" xlink:title="CMSIS UART driver transport. ">
<polygon fill="white" stroke="black" points="266.5,-240 266.5,-259 342.5,-259 342.5,-240 266.5,-240"/>
<text text-anchor="middle" x="304.5" y="-247" font-family="Helvetica,sans-Serif" font-size="10.00">CMSIS UART</text>
</a>
</g>
</g>
<!-- Node0&#45;&gt;Node16 -->
<g id="edge16" class="edge"><title>Node0&#45;&gt;Node16</title>
<path fill="none" stroke="blueviolet" stroke-dasharray="5,2" d="M186.535,-277.944C192.611,-276.054 198.995,-274.147 205,-272.5 225.153,-266.974 247.854,-261.615 266.379,-257.463"/>
<text text-anchor="middle" x="214.5" y="-275.5" font-family="Helvetica,sans-Serif" font-size="10.00">erpc</text>
</g>
<!-- Node13 -->
<g id="node12" class="node"><title>Node13</title>
<g id="a_node12"><a xlink:href="group__spi__master__transport.html" target="_top" xlink:title="Kinetis SDK SPI master driver transport. ">
<polygon fill="white" stroke="black" points="272,-202 272,-221 337,-221 337,-202 272,-202"/>
<text text-anchor="middle" x="304.5" y="-209" font-family="Helvetica,sans-Serif" font-size="10.00">SPI Master</text>
</a>
</g>
</g>
<!-- Node0&#45;&gt;Node13 -->
<g id="edge13" class="edge"><title>Node0&#45;&gt;Node13</title>
<path fill="none" stroke="blueviolet" stroke-dasharray="5,2" d="M169.063,-277.851C184.683,-265.268 213.825,-243.35 242,-230.5 251.456,-226.187 262.158,-222.501 271.952,-219.554"/>
<text text-anchor="middle" x="214.5" y="-254.5" font-family="Helvetica,sans-Serif" font-size="10.00">erpc</text>
</g>
<!-- Node6 -->
<g id="node13" class="node"><title>Node6</title>
<g id="a_node13"><a xlink:href="group__infra__server.html" target="_top" xlink:title="Server classes. ">
<polygon fill="white" stroke="black" points="282.5,-164 282.5,-183 326.5,-183 326.5,-164 282.5,-164"/>
<text text-anchor="middle" x="304.5" y="-171" font-family="Helvetica,sans-Serif" font-size="10.00">Server</text>
</a>
</g>
</g>
<!-- Node0&#45;&gt;Node6 -->
<g id="edge6" class="edge"><title>Node0&#45;&gt;Node6</title>
<path fill="none" stroke="blueviolet" stroke-dasharray="5,2" d="M163.067,-277.842C174.883,-258.289 204.485,-214.05 242,-192.5 254.5,-185.32 270.019,-180.551 282.34,-177.587"/>
<text text-anchor="middle" x="214.5" y="-223.5" font-family="Helvetica,sans-Serif" font-size="10.00">erpc</text>
</g>
<!-- Node10 -->
<g id="node14" class="node"><title>Node10</title>
<g id="a_node14"><a xlink:href="group__itbp__transport.html" target="_top" xlink:title="Simple inter&#45;thread communications transport. ">
<polygon fill="white" stroke="black" points="272,-126 272,-145 337,-145 337,-126 272,-126"/>
<text text-anchor="middle" x="304.5" y="-133" font-family="Helvetica,sans-Serif" font-size="10.00">Inter&#45;thread</text>
</a>
</g>
</g>
<!-- Node0&#45;&gt;Node10 -->
<g id="edge10" class="edge"><title>Node0&#45;&gt;Node10</title>
<path fill="none" stroke="blueviolet" stroke-dasharray="5,2" d="M160.272,-277.961C168.187,-252.651 193.503,-183.737 242,-154.5 251.092,-149.019 261.905,-144.989 271.91,-142.089"/>
<text text-anchor="middle" x="214.5" y="-188.5" font-family="Helvetica,sans-Serif" font-size="10.00">erpc</text>
</g>
<!-- Node8 -->
<g id="node15" class="node"><title>Node8</title>
<g id="a_node15"><a xlink:href="group__dspi__master__transport.html" target="_top" xlink:title="Kinetis SDK DSPI master driver transport. ">
<polygon fill="white" stroke="black" points="268.5,-88 268.5,-107 340.5,-107 340.5,-88 268.5,-88"/>
<text text-anchor="middle" x="304.5" y="-95" font-family="Helvetica,sans-Serif" font-size="10.00">DSPI Master</text>
</a>
</g>
</g>
<!-- Node0&#45;&gt;Node8 -->
<g id="edge8" class="edge"><title>Node0&#45;&gt;Node8</title>
<path fill="none" stroke="blueviolet" stroke-dasharray="5,2" d="M159.504,-277.949C164.537,-255.356 179.191,-197.384 205,-155.5 217.534,-135.159 221.702,-129.104 242,-116.5 249.975,-111.548 259.337,-107.8 268.319,-105"/>
<text text-anchor="middle" x="214.5" y="-158.5" font-family="Helvetica,sans-Serif" font-size="10.00">erpc</text>
</g>
<!-- Node3 -->
<g id="node16" class="node"><title>Node3</title>
<g id="a_node16"><a xlink:href="group__infra__codec.html" target="_top" xlink:title="Classes used for message serialization. ">
<polygon fill="white" stroke="black" points="269.5,-50 269.5,-69 339.5,-69 339.5,-50 269.5,-50"/>
<text text-anchor="middle" x="304.5" y="-57" font-family="Helvetica,sans-Serif" font-size="10.00">Serialization</text>
</a>
</g>
</g>
<!-- Node0&#45;&gt;Node3 -->
<g id="edge3" class="edge"><title>Node0&#45;&gt;Node3</title>
<path fill="none" stroke="blueviolet" stroke-dasharray="5,2" d="M158.42,-277.894C161.375,-250.684 172.413,-171.447 205,-115.5 216.705,-95.4044 222.083,-90.5069 242,-78.5 250.326,-73.4804 260.096,-69.6782 269.367,-66.8457"/>
<text text-anchor="middle" x="214.5" y="-118.5" font-family="Helvetica,sans-Serif" font-size="10.00">erpc</text>
</g>
<!-- Node11 -->
<g id="node17" class="node"><title>Node11</title>
<g id="a_node17"><a xlink:href="group__rpmsg__lite__zc__rtos__transport.html" target="_top" xlink:title="Rpmsg_lite_zc_rtos\l_transport">
<polygon fill="white" stroke="black" points="253,-0.5 253,-30.5 356,-30.5 356,-0.5 253,-0.5"/>
<text text-anchor="start" x="261" y="-18.5" font-family="Helvetica,sans-Serif" font-size="10.00">Rpmsg_lite_zc_rtos</text>
<text text-anchor="middle" x="304.5" y="-7.5" font-family="Helvetica,sans-Serif" font-size="10.00">_transport</text>
</a>
</g>
</g>
<!-- Node0&#45;&gt;Node11 -->
<g id="edge11" class="edge"><title>Node0&#45;&gt;Node11</title>
<path fill="none" stroke="blueviolet" stroke-dasharray="5,2" d="M157.747,-277.987C158.93,-246.953 165.755,-146.618 205,-76.5 216.206,-56.4788 222.795,-53.0527 242,-40.5 247.692,-36.7797 254.027,-33.4463 260.406,-30.5191"/>
<text text-anchor="middle" x="214.5" y="-79.5" font-family="Helvetica,sans-Serif" font-size="10.00">erpc</text>
</g>
</g>
</svg>
