<?xml version="1.0" encoding="UTF-8" standalone="no"?>
<!DOCTYPE svg PUBLIC "-//W3C//DTD SVG 1.1//EN"
 "http://www.w3.org/Graphics/SVG/1.1/DTD/svg11.dtd">
<!-- Generated by graphviz version 2.38.0 (20140413.2041)
 -->
<!-- Title: SPIdev Linux Master Pages: 1 -->
<svg width="405pt" height="864pt"
 viewBox="0.00 0.00 405.00 864.00" xmlns="http://www.w3.org/2000/svg" xmlns:xlink="http://www.w3.org/1999/xlink">
<g id="graph0" class="graph" transform="scale(1 1) rotate(0) translate(4 860)">
<title>SPIdev Linux Master</title>
<polygon fill="white" stroke="none" points="-4,4 -4,-860 401,-860 401,4 -4,4"/>
<!-- Node1 -->
<g id="node1" class="node"><title>Node1</title>
<g id="a_node1"><a xlink:href="group__transports.html" target="_top" xlink:title="Transport layer classes. ">
<polygon fill="white" stroke="black" points="0,-418.5 0,-437.5 89,-437.5 89,-418.5 0,-418.5"/>
<text text-anchor="middle" x="44.5" y="-425.5" font-family="Helvetica,sans-Serif" font-size="10.00">Transport Layers</text>
</a>
</g>
</g>
<!-- Node0 -->
<g id="node13" class="node"><title>Node0</title>
<polygon fill="#bfbfbf" stroke="black" points="126,-418.5 126,-437.5 232,-437.5 232,-418.5 126,-418.5"/>
<text text-anchor="middle" x="179" y="-425.5" font-family="Helvetica,sans-Serif" font-size="10.00">SPIdev Linux Master</text>
</g>
<!-- Node1&#45;&gt;Node0 -->
<g id="edge1" class="edge"><title>Node1&#45;&gt;Node0</title>
<path fill="none" stroke="black" d="M99.2581,-428C107.929,-428 116.896,-428 125.536,-428"/>
<polygon fill="black" stroke="black" points="99.2527,-424.5 89.2527,-428 99.2526,-431.5 99.2527,-424.5"/>
</g>
<!-- Node10 -->
<g id="node2" class="node"><title>Node10</title>
<g id="a_node2"><a xlink:href="group__dspi__slave__transport.html" target="_top" xlink:title="MCUXpressoSDK DSPI slave driver transport. ">
<polygon fill="white" stroke="black" points="309.5,-836.5 309.5,-855.5 374.5,-855.5 374.5,-836.5 309.5,-836.5"/>
<text text-anchor="middle" x="342" y="-843.5" font-family="Helvetica,sans-Serif" font-size="10.00">DSPI Slave</text>
</a>
</g>
</g>
<!-- Node11 -->
<g id="node3" class="node"><title>Node11</title>
<g id="a_node3"><a xlink:href="group__i2c__slave__transport.html" target="_top" xlink:title="MCUXpressoSDK I2C slave driver transport. ">
<polygon fill="white" stroke="black" points="313.5,-798.5 313.5,-817.5 370.5,-817.5 370.5,-798.5 313.5,-798.5"/>
<text text-anchor="middle" x="342" y="-805.5" font-family="Helvetica,sans-Serif" font-size="10.00">I2C Slave</text>
</a>
</g>
</g>
<!-- Node8 -->
<g id="node4" class="node"><title>Node8</title>
<g id="a_node4"><a xlink:href="group__port__threads.html" target="_top" xlink:title="Threading model. ">
<polygon fill="white" stroke="black" points="316.5,-760.5 316.5,-779.5 367.5,-779.5 367.5,-760.5 316.5,-760.5"/>
<text text-anchor="middle" x="342" y="-767.5" font-family="Helvetica,sans-Serif" font-size="10.00">Threads</text>
</a>
</g>
</g>
<!-- Node15 -->
<g id="node5" class="node"><title>Node15</title>
<g id="a_node5"><a xlink:href="group__mu__transport.html" target="_top" xlink:title="Messaging Unit transport. ">
<polygon fill="white" stroke="black" points="300,-722.5 300,-741.5 384,-741.5 384,-722.5 300,-722.5"/>
<text text-anchor="middle" x="342" y="-729.5" font-family="Helvetica,sans-Serif" font-size="10.00">Messaging Unit</text>
</a>
</g>
</g>
<!-- Node22 -->
<g id="node6" class="node"><title>Node22</title>
<g id="a_node6"><a xlink:href="group__tcp__transport.html" target="_top" xlink:title="Simple TCP/IP transport. ">
<polygon fill="white" stroke="black" points="318.5,-684.5 318.5,-703.5 365.5,-703.5 365.5,-684.5 318.5,-684.5"/>
<text text-anchor="middle" x="342" y="-691.5" font-family="Helvetica,sans-Serif" font-size="10.00">TCP/IP</text>
</a>
</g>
</g>
<!-- Node2 -->
<g id="node7" class="node"><title>Node2</title>
<g id="a_node7"><a xlink:href="group__infra__client.html" target="_top" xlink:title="Client classes. ">
<polygon fill="white" stroke="black" points="321.5,-646.5 321.5,-665.5 362.5,-665.5 362.5,-646.5 321.5,-646.5"/>
<text text-anchor="middle" x="342" y="-653.5" font-family="Helvetica,sans-Serif" font-size="10.00">Client</text>
</a>
</g>
</g>
<!-- Node4 -->
<g id="node8" class="node"><title>Node4</title>
<g id="a_node8"><a xlink:href="group__infra__transport.html" target="_top" xlink:title="Superclasses for building transports. ">
<polygon fill="white" stroke="black" points="311,-608.5 311,-627.5 373,-627.5 373,-608.5 311,-608.5"/>
<text text-anchor="middle" x="342" y="-615.5" font-family="Helvetica,sans-Serif" font-size="10.00">Transports</text>
</a>
</g>
</g>
<!-- Node19 -->
<g id="node9" class="node"><title>Node19</title>
<g id="a_node9"><a xlink:href="group__serial__transport.html" target="_top" xlink:title="POSIX and Win32 serial port transport. ">
<polygon fill="white" stroke="black" points="311.5,-570.5 311.5,-589.5 372.5,-589.5 372.5,-570.5 311.5,-570.5"/>
<text text-anchor="middle" x="342" y="-577.5" font-family="Helvetica,sans-Serif" font-size="10.00">Serial port</text>
</a>
</g>
</g>
<!-- Node5 -->
<g id="node10" class="node"><title>Node5</title>
<g id="a_node10"><a xlink:href="group__infra__utility.html" target="_top" xlink:title="Utility code used by the infrastructure. ">
<polygon fill="white" stroke="black" points="317.5,-532.5 317.5,-551.5 366.5,-551.5 366.5,-532.5 317.5,-532.5"/>
<text text-anchor="middle" x="342" y="-539.5" font-family="Helvetica,sans-Serif" font-size="10.00">Utilities</text>
</a>
</g>
</g>
<!-- Node21 -->
<g id="node11" class="node"><title>Node21</title>
<g id="a_node11"><a xlink:href="group__spi__slave__transport.html" target="_top" xlink:title="MCUXpressoSDK SPI slave driver transport. ">
<polygon fill="white" stroke="black" points="312.5,-494.5 312.5,-513.5 371.5,-513.5 371.5,-494.5 312.5,-494.5"/>
<text text-anchor="middle" x="342" y="-501.5" font-family="Helvetica,sans-Serif" font-size="10.00">SPI Slave</text>
</a>
</g>
</g>
<!-- Node23 -->
<g id="node12" class="node"><title>Node23</title>
<g id="a_node12"><a xlink:href="group__uart__transport.html" target="_top" xlink:title="CMSIS UART driver transport. ">
<polygon fill="white" stroke="black" points="304,-456.5 304,-475.5 380,-475.5 380,-456.5 304,-456.5"/>
<text text-anchor="middle" x="342" y="-463.5" font-family="Helvetica,sans-Serif" font-size="10.00">CMSIS UART</text>
</a>
</g>
</g>
<!-- Node0&#45;&gt;Node10 -->
<g id="edge10" class="edge"><title>Node0&#45;&gt;Node10</title>
<path fill="none" stroke="blueviolet" stroke-dasharray="5,2" d="M179.808,-437.667C179.339,-481.447 181.732,-664.475 250,-791 260.895,-811.192 267.5,-814.91 287,-827 293.842,-831.242 301.76,-834.702 309.389,-837.45"/>
<text text-anchor="middle" x="259.5" y="-817" font-family="Helvetica,sans-Serif" font-size="10.00">erpc</text>
</g>
<!-- Node0&#45;&gt;Node11 -->
<g id="edge11" class="edge"><title>Node0&#45;&gt;Node11</title>
<path fill="none" stroke="blueviolet" stroke-dasharray="5,2" d="M180.092,-437.743C180.874,-478.819 187.939,-640.9 250,-753 261.113,-773.073 267.5,-776.91 287,-789 295.024,-793.975 304.529,-797.874 313.311,-800.811"/>
<text text-anchor="middle" x="259.5" y="-779" font-family="Helvetica,sans-Serif" font-size="10.00">erpc</text>
</g>
<!-- Node0&#45;&gt;Node8 -->
<g id="edge8" class="edge"><title>Node0&#45;&gt;Node8</title>
<path fill="none" stroke="blueviolet" stroke-dasharray="5,2" d="M180.442,-437.619C182.558,-475.491 194.018,-617.036 250,-715 261.384,-734.921 267.5,-738.91 287,-751 295.953,-756.551 306.75,-760.763 316.329,-763.793"/>
<text text-anchor="middle" x="259.5" y="-741" font-family="Helvetica,sans-Serif" font-size="10.00">erpc</text>
</g>
<!-- Node0&#45;&gt;Node15 -->
<g id="edge15" class="edge"><title>Node0&#45;&gt;Node15</title>
<path fill="none" stroke="blueviolet" stroke-dasharray="5,2" d="M180.911,-437.745C184.526,-472.571 200.187,-593.251 250,-677 261.729,-696.719 267.5,-700.91 287,-713 292.997,-716.718 299.821,-719.836 306.553,-722.399"/>
<text text-anchor="middle" x="259.5" y="-703" font-family="Helvetica,sans-Serif" font-size="10.00">erpc</text>
</g>
<!-- Node0&#45;&gt;Node22 -->
<g id="edge22" class="edge"><title>Node0&#45;&gt;Node22</title>
<path fill="none" stroke="blueviolet" stroke-dasharray="5,2" d="M181.619,-437.89C187.084,-469.23 206.965,-568.368 250,-638 262.226,-657.783 267.319,-662.61 287,-675 296.588,-681.036 308.345,-685.464 318.438,-688.519"/>
<text text-anchor="middle" x="259.5" y="-665" font-family="Helvetica,sans-Serif" font-size="10.00">erpc</text>
</g>
<!-- Node0&#45;&gt;Node2 -->
<g id="edge2" class="edge"><title>Node0&#45;&gt;Node2</title>
<path fill="none" stroke="blueviolet" stroke-dasharray="5,2" d="M182.703,-437.729C190.431,-464.573 214.378,-541.372 250,-597 263.06,-617.394 266.761,-623.701 287,-637 297.465,-643.876 310.71,-648.587 321.463,-651.597"/>
<text text-anchor="middle" x="259.5" y="-626" font-family="Helvetica,sans-Serif" font-size="10.00">erpc</text>
</g>
<!-- Node0&#45;&gt;Node4 -->
<g id="edge4" class="edge"><title>Node0&#45;&gt;Node4</title>
<path fill="none" stroke="blueviolet" stroke-dasharray="5,2" d="M182.828,-437.913C192.023,-468.133 224.17,-559.446 287,-599 294.233,-603.554 302.7,-607.192 310.757,-610.016"/>
<text text-anchor="middle" x="259.5" y="-585" font-family="Helvetica,sans-Serif" font-size="10.00">erpc</text>
</g>
<!-- Node0&#45;&gt;Node19 -->
<g id="edge19" class="edge"><title>Node0&#45;&gt;Node19</title>
<path fill="none" stroke="blueviolet" stroke-dasharray="5,2" d="M184.713,-437.557C197.448,-462.313 235.115,-528.83 287,-561 294.433,-565.609 303.137,-569.294 311.359,-572.146"/>
<text text-anchor="middle" x="259.5" y="-550" font-family="Helvetica,sans-Serif" font-size="10.00">erpc</text>
</g>
<!-- Node0&#45;&gt;Node5 -->
<g id="edge5" class="edge"><title>Node0&#45;&gt;Node5</title>
<path fill="none" stroke="blueviolet" stroke-dasharray="5,2" d="M188.453,-437.762C205.361,-456.729 245.314,-498.816 287,-523 296.37,-528.436 307.551,-532.687 317.301,-535.778"/>
<text text-anchor="middle" x="259.5" y="-513" font-family="Helvetica,sans-Serif" font-size="10.00">erpc</text>
</g>
<!-- Node0&#45;&gt;Node21 -->
<g id="edge21" class="edge"><title>Node0&#45;&gt;Node21</title>
<path fill="none" stroke="blueviolet" stroke-dasharray="5,2" d="M196.295,-437.681C216.947,-449.714 253.855,-470.44 287,-485 295.098,-488.557 304.092,-491.938 312.381,-494.834"/>
<text text-anchor="middle" x="259.5" y="-479" font-family="Helvetica,sans-Serif" font-size="10.00">erpc</text>
</g>
<!-- Node0&#45;&gt;Node23 -->
<g id="edge23" class="edge"><title>Node0&#45;&gt;Node23</title>
<path fill="none" stroke="blueviolet" stroke-dasharray="5,2" d="M220.627,-437.589C246.244,-443.635 279.069,-451.383 303.969,-457.26"/>
<text text-anchor="middle" x="259.5" y="-451" font-family="Helvetica,sans-Serif" font-size="10.00">erpc</text>
</g>
<!-- Node20 -->
<g id="node14" class="node"><title>Node20</title>
<g id="a_node14"><a xlink:href="group__spi__master__transport.html" target="_top" xlink:title="MCUXpressoSDK SPI master driver transport. ">
<polygon fill="white" stroke="black" points="309.5,-418.5 309.5,-437.5 374.5,-437.5 374.5,-418.5 309.5,-418.5"/>
<text text-anchor="middle" x="342" y="-425.5" font-family="Helvetica,sans-Serif" font-size="10.00">SPI Master</text>
</a>
</g>
</g>
<!-- Node0&#45;&gt;Node20 -->
<g id="edge20" class="edge"><title>Node0&#45;&gt;Node20</title>
<path fill="none" stroke="blueviolet" stroke-dasharray="5,2" d="M232.272,-428C257.614,-428 287.229,-428 309.147,-428"/>
<text text-anchor="middle" x="259.5" y="-431" font-family="Helvetica,sans-Serif" font-size="10.00">erpc</text>
</g>
<!-- Node18 -->
<g id="node15" class="node"><title>Node18</title>
<g id="a_node15"><a xlink:href="group__rpmsg__tty__rtos__transport.html" target="_top" xlink:title="RPMsg TTY RTOS transport. ">
<polygon fill="white" stroke="black" points="293,-380.5 293,-399.5 391,-399.5 391,-380.5 293,-380.5"/>
<text text-anchor="middle" x="342" y="-387.5" font-family="Helvetica,sans-Serif" font-size="10.00">RPMsg TTY RTOS</text>
</a>
</g>
</g>
<!-- Node0&#45;&gt;Node18 -->
<g id="edge18" class="edge"><title>Node0&#45;&gt;Node18</title>
<path fill="none" stroke="blueviolet" stroke-dasharray="5,2" d="M220.627,-418.411C245.127,-412.628 276.218,-405.29 300.665,-399.52"/>
<text text-anchor="middle" x="259.5" y="-414" font-family="Helvetica,sans-Serif" font-size="10.00">erpc</text>
</g>
<!-- Node6 -->
<g id="node16" class="node"><title>Node6</title>
<g id="a_node16"><a xlink:href="group__infra__server.html" target="_top" xlink:title="Server classes. ">
<polygon fill="white" stroke="black" points="320,-342.5 320,-361.5 364,-361.5 364,-342.5 320,-342.5"/>
<text text-anchor="middle" x="342" y="-349.5" font-family="Helvetica,sans-Serif" font-size="10.00">Server</text>
</a>
</g>
</g>
<!-- Node0&#45;&gt;Node6 -->
<g id="edge6" class="edge"><title>Node0&#45;&gt;Node6</title>
<path fill="none" stroke="blueviolet" stroke-dasharray="5,2" d="M196.295,-418.319C216.947,-406.286 253.855,-385.56 287,-371 297.646,-366.323 309.84,-361.953 319.944,-358.585"/>
<text text-anchor="middle" x="259.5" y="-391" font-family="Helvetica,sans-Serif" font-size="10.00">erpc</text>
</g>
<!-- Node13 -->
<g id="node17" class="node"><title>Node13</title>
<g id="a_node17"><a xlink:href="group__lpi2c__slave__transport.html" target="_top" xlink:title="Lpi2c_slave_transport">
<polygon fill="white" stroke="black" points="287,-304.5 287,-323.5 397,-323.5 397,-304.5 287,-304.5"/>
<text text-anchor="middle" x="342" y="-311.5" font-family="Helvetica,sans-Serif" font-size="10.00">Lpi2c_slave_transport</text>
</a>
</g>
</g>
<!-- Node0&#45;&gt;Node13 -->
<g id="edge13" class="edge"><title>Node0&#45;&gt;Node13</title>
<path fill="none" stroke="blueviolet" stroke-dasharray="5,2" d="M188.161,-418.473C204.859,-399.548 244.91,-356.979 287,-333 293.476,-329.31 300.793,-326.152 307.901,-323.53"/>
<text text-anchor="middle" x="259.5" y="-360" font-family="Helvetica,sans-Serif" font-size="10.00">erpc</text>
</g>
<!-- Node12 -->
<g id="node18" class="node"><title>Node12</title>
<g id="a_node18"><a xlink:href="group__itbp__transport.html" target="_top" xlink:title="Simple inter&#45;thread communications transport. ">
<polygon fill="white" stroke="black" points="309.5,-266.5 309.5,-285.5 374.5,-285.5 374.5,-266.5 309.5,-266.5"/>
<text text-anchor="middle" x="342" y="-273.5" font-family="Helvetica,sans-Serif" font-size="10.00">Inter&#45;thread</text>
</a>
</g>
</g>
<!-- Node0&#45;&gt;Node12 -->
<g id="edge12" class="edge"><title>Node0&#45;&gt;Node12</title>
<path fill="none" stroke="blueviolet" stroke-dasharray="5,2" d="M184.687,-418.401C197.36,-393.544 234.89,-326.804 287,-295 293.871,-290.806 301.801,-287.364 309.43,-284.618"/>
<text text-anchor="middle" x="259.5" y="-327" font-family="Helvetica,sans-Serif" font-size="10.00">erpc</text>
</g>
<!-- Node9 -->
<g id="node19" class="node"><title>Node9</title>
<g id="a_node19"><a xlink:href="group__dspi__master__transport.html" target="_top" xlink:title="MCUXpressoSDK DSPI master driver transport. ">
<polygon fill="white" stroke="black" points="306,-228.5 306,-247.5 378,-247.5 378,-228.5 306,-228.5"/>
<text text-anchor="middle" x="342" y="-235.5" font-family="Helvetica,sans-Serif" font-size="10.00">DSPI Master</text>
</a>
</g>
</g>
<!-- Node0&#45;&gt;Node9 -->
<g id="edge9" class="edge"><title>Node0&#45;&gt;Node9</title>
<path fill="none" stroke="blueviolet" stroke-dasharray="5,2" d="M183.786,-418.229C193.004,-395.117 218.206,-335.816 250,-293 263.678,-274.579 267.5,-269.09 287,-257 292.997,-253.282 299.821,-250.164 306.553,-247.601"/>
<text text-anchor="middle" x="259.5" y="-296" font-family="Helvetica,sans-Serif" font-size="10.00">erpc</text>
</g>
<!-- Node24 -->
<g id="node20" class="node"><title>Node24</title>
<g id="a_node20"><a xlink:href="group___u_s_b___c_d_c__transport.html" target="_top" xlink:title="USB CDC transport. ">
<polygon fill="white" stroke="black" points="312,-190.5 312,-209.5 372,-209.5 372,-190.5 312,-190.5"/>
<text text-anchor="middle" x="342" y="-197.5" font-family="Helvetica,sans-Serif" font-size="10.00">USB CDC</text>
</a>
</g>
</g>
<!-- Node0&#45;&gt;Node24 -->
<g id="edge24" class="edge"><title>Node0&#45;&gt;Node24</title>
<path fill="none" stroke="blueviolet" stroke-dasharray="5,2" d="M182.392,-418.33C189.473,-390.944 212.224,-311.201 250,-255 262.799,-235.958 267.5,-231.09 287,-219 294.602,-214.287 303.533,-210.539 311.919,-207.661"/>
<text text-anchor="middle" x="259.5" y="-258" font-family="Helvetica,sans-Serif" font-size="10.00">erpc</text>
</g>
<!-- Node3 -->
<g id="node21" class="node"><title>Node3</title>
<g id="a_node21"><a xlink:href="group__infra__codec.html" target="_top" xlink:title="Classes used for message serialization. ">
<polygon fill="white" stroke="black" points="307,-152.5 307,-171.5 377,-171.5 377,-152.5 307,-152.5"/>
<text text-anchor="middle" x="342" y="-159.5" font-family="Helvetica,sans-Serif" font-size="10.00">Serialization</text>
</a>
</g>
</g>
<!-- Node0&#45;&gt;Node3 -->
<g id="edge3" class="edge"><title>Node0&#45;&gt;Node3</title>
<path fill="none" stroke="blueviolet" stroke-dasharray="5,2" d="M181.442,-418.407C186.488,-387.116 205.516,-286.009 250,-216 262.14,-196.894 267.678,-192.793 287,-181 293.108,-177.272 300.052,-174.138 306.878,-171.559"/>
<text text-anchor="middle" x="259.5" y="-219" font-family="Helvetica,sans-Serif" font-size="10.00">erpc</text>
</g>
<!-- Node16 -->
<g id="node22" class="node"><title>Node16</title>
<g id="a_node22"><a xlink:href="group__rpmsg__lite__rtos__transport.html" target="_top" xlink:title="RPMsg&#45;Lite zero copy transport using RTOS API. ">
<polygon fill="white" stroke="black" points="293.5,-114.5 293.5,-133.5 390.5,-133.5 390.5,-114.5 293.5,-114.5"/>
<text text-anchor="middle" x="342" y="-121.5" font-family="Helvetica,sans-Serif" font-size="10.00">RPMsg&#45;Lite RTOS</text>
</a>
</g>
</g>
<!-- Node0&#45;&gt;Node16 -->
<g id="edge16" class="edge"><title>Node0&#45;&gt;Node16</title>
<path fill="none" stroke="blueviolet" stroke-dasharray="5,2" d="M180.86,-418.191C184.303,-383.143 199.455,-261.734 250,-178 261.698,-158.621 267.678,-154.793 287,-143 293.108,-139.272 300.052,-136.138 306.878,-133.559"/>
<text text-anchor="middle" x="259.5" y="-181" font-family="Helvetica,sans-Serif" font-size="10.00">erpc</text>
</g>
<!-- Node17 -->
<g id="node23" class="node"><title>Node17</title>
<g id="a_node23"><a xlink:href="group__rpmsg__lite__transport.html" target="_top" xlink:title="RPMsg&#45;Lite zero copy transport. ">
<polygon fill="white" stroke="black" points="308,-76.5 308,-95.5 376,-95.5 376,-76.5 308,-76.5"/>
<text text-anchor="middle" x="342" y="-83.5" font-family="Helvetica,sans-Serif" font-size="10.00">RPMsg&#45;Lite</text>
</a>
</g>
</g>
<!-- Node0&#45;&gt;Node17 -->
<g id="edge17" class="edge"><title>Node0&#45;&gt;Node17</title>
<path fill="none" stroke="blueviolet" stroke-dasharray="5,2" d="M180.342,-418.267C182.083,-379.952 192.327,-236.841 250,-139 261.341,-119.761 267.853,-116.497 287,-105 293.39,-101.163 300.671,-97.9434 307.772,-95.3089"/>
<text text-anchor="middle" x="259.5" y="-142" font-family="Helvetica,sans-Serif" font-size="10.00">erpc</text>
</g>
<!-- Node7 -->
<g id="node24" class="node"><title>Node7</title>
<g id="a_node24"><a xlink:href="group__port__setup__extensions.html" target="_top" xlink:title="Extension setup functions. ">
<polygon fill="white" stroke="black" points="297.5,-38.5 297.5,-57.5 386.5,-57.5 386.5,-38.5 297.5,-38.5"/>
<text text-anchor="middle" x="342" y="-45.5" font-family="Helvetica,sans-Serif" font-size="10.00">Extension Setup</text>
</a>
</g>
</g>
<!-- Node0&#45;&gt;Node7 -->
<g id="edge7" class="edge"><title>Node0&#45;&gt;Node7</title>
<path fill="none" stroke="blueviolet" stroke-dasharray="5,2" d="M179.989,-418.428C180.345,-377.369 185.898,-213.15 250,-101 261.082,-81.6107 267.853,-78.4965 287,-67 293.22,-63.2653 300.283,-60.1156 307.204,-57.5209"/>
<text text-anchor="middle" x="259.5" y="-104" font-family="Helvetica,sans-Serif" font-size="10.00">erpc</text>
</g>
<!-- Node14 -->
<g id="node25" class="node"><title>Node14</title>
<g id="a_node25"><a xlink:href="group__lpspi__slave__transport.html" target="_top" xlink:title="Lpspi_slave_transport">
<polygon fill="white" stroke="black" points="287,-0.5 287,-19.5 397,-19.5 397,-0.5 287,-0.5"/>
<text text-anchor="middle" x="342" y="-7.5" font-family="Helvetica,sans-Serif" font-size="10.00">Lpspi_slave_transport</text>
</a>
</g>
</g>
<!-- Node0&#45;&gt;Node14 -->
<g id="edge14" class="edge"><title>Node0&#45;&gt;Node14</title>
<path fill="none" stroke="blueviolet" stroke-dasharray="5,2" d="M179.709,-418.234C178.813,-374.013 179.626,-189.241 250,-63 260.874,-43.4932 267.853,-40.4965 287,-29 293.22,-25.2653 300.283,-22.1156 307.204,-19.5209"/>
<text text-anchor="middle" x="259.5" y="-66" font-family="Helvetica,sans-Serif" font-size="10.00">erpc</text>
</g>
</g>
</svg>
