<?xml version="1.0" encoding="UTF-8" standalone="no"?>
<!DOCTYPE svg PUBLIC "-//W3C//DTD SVG 1.1//EN"
 "http://www.w3.org/Graphics/SVG/1.1/DTD/svg11.dtd">
<!-- Generated by graphviz version 2.38.0 (20140413.2041)
 -->
<!-- Title: Setup API Pages: 1 -->
<svg width="225pt" height="192pt"
 viewBox="0.00 0.00 225.00 191.50" xmlns="http://www.w3.org/2000/svg" xmlns:xlink="http://www.w3.org/1999/xlink">
<g id="graph0" class="graph" transform="scale(1 1) rotate(0) translate(4 187.5)">
<title>Setup API</title>
<polygon fill="white" stroke="none" points="-4,4 -4,-187.5 221,-187.5 221,4 -4,4"/>
<!-- Node3 -->
<g id="node1" class="node"><title>Node3</title>
<g id="a_node1"><a xlink:href="group__message__buffer__factory__setup.html" target="_top" xlink:title="Message Buffer Factory setup functions. ">
<polygon fill="white" stroke="black" points="97,-153 97,-183 217,-183 217,-153 97,-153"/>
<text text-anchor="start" x="105" y="-171" font-family="Helvetica,sans-Serif" font-size="10.00">Message Buffer Factory</text>
<text text-anchor="middle" x="157" y="-160" font-family="Helvetica,sans-Serif" font-size="10.00"> Setup</text>
</a>
</g>
</g>
<!-- Node4 -->
<g id="node2" class="node"><title>Node4</title>
<g id="a_node2"><a xlink:href="group__transport__setup.html" target="_top" xlink:title="Transport layer initialization. ">
<polygon fill="white" stroke="black" points="114,-114.5 114,-133.5 200,-133.5 200,-114.5 114,-114.5"/>
<text text-anchor="middle" x="157" y="-121.5" font-family="Helvetica,sans-Serif" font-size="10.00">Transport Setup</text>
</a>
</g>
</g>
<!-- Node2 -->
<g id="node3" class="node"><title>Node2</title>
<g id="a_node3"><a xlink:href="group__client__setup.html" target="_top" xlink:title="Client side setup functions. ">
<polygon fill="white" stroke="black" points="122,-76.5 122,-95.5 192,-95.5 192,-76.5 122,-76.5"/>
<text text-anchor="middle" x="157" y="-83.5" font-family="Helvetica,sans-Serif" font-size="10.00">Client Setup</text>
</a>
</g>
</g>
<!-- Node1 -->
<g id="node4" class="node"><title>Node1</title>
<g id="a_node4"><a xlink:href="group__server__setup.html" target="_top" xlink:title="Server side setup and control functions. ">
<polygon fill="white" stroke="black" points="121,-38.5 121,-57.5 193,-57.5 193,-38.5 121,-38.5"/>
<text text-anchor="middle" x="157" y="-45.5" font-family="Helvetica,sans-Serif" font-size="10.00">Server Setup</text>
</a>
</g>
</g>
<!-- Node0 -->
<g id="node5" class="node"><title>Node0</title>
<polygon fill="#bfbfbf" stroke="black" points="0,-76.5 0,-95.5 61,-95.5 61,-76.5 0,-76.5"/>
<text text-anchor="middle" x="30.5" y="-83.5" font-family="Helvetica,sans-Serif" font-size="10.00">Setup API</text>
</g>
<!-- Node0&#45;&gt;Node3 -->
<g id="edge3" class="edge"><title>Node0&#45;&gt;Node3</title>
<path fill="none" stroke="black" d="M47.9039,-102.905C60.4911,-115.192 78.7525,-131.599 97,-143 102.849,-146.655 109.326,-150.006 115.783,-152.985"/>
<polygon fill="black" stroke="black" points="50.0579,-100.11 40.5088,-95.5202 45.1115,-105.063 50.0579,-100.11"/>
</g>
<!-- Node0&#45;&gt;Node4 -->
<g id="edge4" class="edge"><title>Node0&#45;&gt;Node4</title>
<path fill="none" stroke="black" d="M70.8353,-98.006C88.1551,-103.292 108.225,-109.418 124.531,-114.395"/>
<polygon fill="black" stroke="black" points="71.5909,-94.5773 61.0048,-95.0055 69.5474,-101.272 71.5909,-94.5773"/>
</g>
<!-- Node0&#45;&gt;Node2 -->
<g id="edge2" class="edge"><title>Node0&#45;&gt;Node2</title>
<path fill="none" stroke="black" d="M71.3033,-86C87.5785,-86 106.217,-86 121.859,-86"/>
<polygon fill="black" stroke="black" points="71.0048,-82.5001 61.0048,-86 71.0047,-89.5001 71.0048,-82.5001"/>
</g>
<!-- Node0&#45;&gt;Node1 -->
<g id="edge1" class="edge"><title>Node0&#45;&gt;Node1</title>
<path fill="none" stroke="black" d="M70.8353,-73.994C88.1551,-68.7077 108.225,-62.5818 124.531,-57.6051"/>
<polygon fill="black" stroke="black" points="69.5474,-70.7277 61.0048,-76.9945 71.5909,-77.4227 69.5474,-70.7277"/>
</g>
<!-- Node5 -->
<g id="node6" class="node"><title>Node5</title>
<g id="a_node6"><a xlink:href="group__port__setup__extensions.html" target="_top" xlink:title="Extension setup functions. ">
<polygon fill="white" stroke="black" points="112.5,-0.5 112.5,-19.5 201.5,-19.5 201.5,-0.5 112.5,-0.5"/>
<text text-anchor="middle" x="157" y="-7.5" font-family="Helvetica,sans-Serif" font-size="10.00">Extension Setup</text>
</a>
</g>
</g>
<!-- Node0&#45;&gt;Node5 -->
<g id="edge5" class="edge"><title>Node0&#45;&gt;Node5</title>
<path fill="none" stroke="black" d="M47.262,-68.9671C59.7104,-56.3927 78.0836,-39.6765 97,-29 103.654,-25.2446 111.155,-22.1108 118.522,-19.5427"/>
<polygon fill="black" stroke="black" points="44.7407,-66.5395 40.3248,-76.1702 49.7827,-71.3953 44.7407,-66.5395"/>
</g>
</g>
</svg>
