<?xml version="1.0" encoding="UTF-8" standalone="no"?>
<!DOCTYPE svg PUBLIC "-//W3C//DTD SVG 1.1//EN"
 "http://www.w3.org/Graphics/SVG/1.1/DTD/svg11.dtd">
<!-- Generated by graphviz version 2.38.0 (20140413.2041)
 -->
<!-- Title: TCP/IP Pages: 1 -->
<svg width="346pt" height="864pt"
 viewBox="0.00 0.00 346.00 864.00" xmlns="http://www.w3.org/2000/svg" xmlns:xlink="http://www.w3.org/1999/xlink">
<g id="graph0" class="graph" transform="scale(1 1) rotate(0) translate(4 860)">
<title>TCP/IP</title>
<polygon fill="white" stroke="none" points="-4,4 -4,-860 342,-860 342,4 -4,4"/>
<!-- Node1 -->
<g id="node1" class="node"><title>Node1</title>
<g id="a_node1"><a xlink:href="group__transports.html" target="_top" xlink:title="Transport layer classes. ">
<polygon fill="white" stroke="black" points="0,-418.5 0,-437.5 89,-437.5 89,-418.5 0,-418.5"/>
<text text-anchor="middle" x="44.5" y="-425.5" font-family="Helvetica,sans-Serif" font-size="10.00">Transport Layers</text>
</a>
</g>
</g>
<!-- Node0 -->
<g id="node6" class="node"><title>Node0</title>
<polygon fill="#bfbfbf" stroke="black" points="126,-418.5 126,-437.5 173,-437.5 173,-418.5 126,-418.5"/>
<text text-anchor="middle" x="149.5" y="-425.5" font-family="Helvetica,sans-Serif" font-size="10.00">TCP/IP</text>
</g>
<!-- Node1&#45;&gt;Node0 -->
<g id="edge1" class="edge"><title>Node1&#45;&gt;Node0</title>
<path fill="none" stroke="black" d="M99.3075,-428C108.657,-428 117.904,-428 125.815,-428"/>
<polygon fill="black" stroke="black" points="99.1813,-424.5 89.1813,-428 99.1812,-431.5 99.1813,-424.5"/>
</g>
<!-- Node10 -->
<g id="node2" class="node"><title>Node10</title>
<g id="a_node2"><a xlink:href="group__dspi__slave__transport.html" target="_top" xlink:title="MCUXpressoSDK DSPI slave driver transport. ">
<polygon fill="white" stroke="black" points="250.5,-836.5 250.5,-855.5 315.5,-855.5 315.5,-836.5 250.5,-836.5"/>
<text text-anchor="middle" x="283" y="-843.5" font-family="Helvetica,sans-Serif" font-size="10.00">DSPI Slave</text>
</a>
</g>
</g>
<!-- Node11 -->
<g id="node3" class="node"><title>Node11</title>
<g id="a_node3"><a xlink:href="group__i2c__slave__transport.html" target="_top" xlink:title="MCUXpressoSDK I2C slave driver transport. ">
<polygon fill="white" stroke="black" points="254.5,-798.5 254.5,-817.5 311.5,-817.5 311.5,-798.5 254.5,-798.5"/>
<text text-anchor="middle" x="283" y="-805.5" font-family="Helvetica,sans-Serif" font-size="10.00">I2C Slave</text>
</a>
</g>
</g>
<!-- Node8 -->
<g id="node4" class="node"><title>Node8</title>
<g id="a_node4"><a xlink:href="group__port__threads.html" target="_top" xlink:title="Threading model. ">
<polygon fill="white" stroke="black" points="257.5,-760.5 257.5,-779.5 308.5,-779.5 308.5,-760.5 257.5,-760.5"/>
<text text-anchor="middle" x="283" y="-767.5" font-family="Helvetica,sans-Serif" font-size="10.00">Threads</text>
</a>
</g>
</g>
<!-- Node15 -->
<g id="node5" class="node"><title>Node15</title>
<g id="a_node5"><a xlink:href="group__mu__transport.html" target="_top" xlink:title="Messaging Unit transport. ">
<polygon fill="white" stroke="black" points="241,-722.5 241,-741.5 325,-741.5 325,-722.5 241,-722.5"/>
<text text-anchor="middle" x="283" y="-729.5" font-family="Helvetica,sans-Serif" font-size="10.00">Messaging Unit</text>
</a>
</g>
</g>
<!-- Node0&#45;&gt;Node10 -->
<g id="edge10" class="edge"><title>Node0&#45;&gt;Node10</title>
<path fill="none" stroke="blueviolet" stroke-dasharray="5,2" d="M150.688,-437.782C151.807,-489.076 158.691,-727.113 191,-792 202.546,-815.187 228.979,-829.214 250.397,-837.137"/>
<text text-anchor="middle" x="200.5" y="-816" font-family="Helvetica,sans-Serif" font-size="10.00">erpc</text>
</g>
<!-- Node0&#45;&gt;Node11 -->
<g id="edge11" class="edge"><title>Node0&#45;&gt;Node11</title>
<path fill="none" stroke="blueviolet" stroke-dasharray="5,2" d="M150.847,-437.656C152.687,-485.299 162.324,-695.344 191,-753 201.217,-773.543 208.5,-776.91 228,-789 236.024,-793.975 245.529,-797.874 254.311,-800.811"/>
<text text-anchor="middle" x="200.5" y="-780" font-family="Helvetica,sans-Serif" font-size="10.00">erpc</text>
</g>
<!-- Node0&#45;&gt;Node8 -->
<g id="edge8" class="edge"><title>Node0&#45;&gt;Node8</title>
<path fill="none" stroke="blueviolet" stroke-dasharray="5,2" d="M151.028,-437.679C153.563,-481.888 165.437,-664.631 191,-715 201.384,-735.46 208.5,-738.91 228,-751 236.953,-756.551 247.75,-760.763 257.329,-763.793"/>
<text text-anchor="middle" x="200.5" y="-741" font-family="Helvetica,sans-Serif" font-size="10.00">erpc</text>
</g>
<!-- Node0&#45;&gt;Node15 -->
<g id="edge15" class="edge"><title>Node0&#45;&gt;Node15</title>
<path fill="none" stroke="blueviolet" stroke-dasharray="5,2" d="M151.265,-437.728C154.578,-478.295 168.543,-633.883 191,-677 201.598,-697.349 208.5,-700.91 228,-713 233.997,-716.718 240.821,-719.836 247.553,-722.399"/>
<text text-anchor="middle" x="200.5" y="-703" font-family="Helvetica,sans-Serif" font-size="10.00">erpc</text>
</g>
<!-- Node2 -->
<g id="node7" class="node"><title>Node2</title>
<g id="a_node7"><a xlink:href="group__infra__client.html" target="_top" xlink:title="Client classes. ">
<polygon fill="white" stroke="black" points="262.5,-684.5 262.5,-703.5 303.5,-703.5 303.5,-684.5 262.5,-684.5"/>
<text text-anchor="middle" x="283" y="-691.5" font-family="Helvetica,sans-Serif" font-size="10.00">Client</text>
</a>
</g>
</g>
<!-- Node0&#45;&gt;Node2 -->
<g id="edge2" class="edge"><title>Node0&#45;&gt;Node2</title>
<path fill="none" stroke="blueviolet" stroke-dasharray="5,2" d="M150.354,-437.501C150.272,-468.499 153.126,-568.734 191,-639 201.886,-659.197 208.5,-662.91 228,-675 238.558,-681.546 251.68,-686.23 262.345,-689.309"/>
<text text-anchor="middle" x="200.5" y="-665" font-family="Helvetica,sans-Serif" font-size="10.00">erpc</text>
</g>
<!-- Node4 -->
<g id="node8" class="node"><title>Node4</title>
<g id="a_node8"><a xlink:href="group__infra__transport.html" target="_top" xlink:title="Superclasses for building transports. ">
<polygon fill="white" stroke="black" points="252,-646.5 252,-665.5 314,-665.5 314,-646.5 252,-646.5"/>
<text text-anchor="middle" x="283" y="-653.5" font-family="Helvetica,sans-Serif" font-size="10.00">Transports</text>
</a>
</g>
</g>
<!-- Node0&#45;&gt;Node4 -->
<g id="edge4" class="edge"><title>Node0&#45;&gt;Node4</title>
<path fill="none" stroke="blueviolet" stroke-dasharray="5,2" d="M150.886,-437.677C152.356,-465.085 159.273,-544.878 191,-601 202.291,-620.973 208.5,-624.91 228,-637 235.264,-641.504 243.742,-645.126 251.798,-647.95"/>
<text text-anchor="middle" x="200.5" y="-627" font-family="Helvetica,sans-Serif" font-size="10.00">erpc</text>
</g>
<!-- Node19 -->
<g id="node9" class="node"><title>Node19</title>
<g id="a_node9"><a xlink:href="group__serial__transport.html" target="_top" xlink:title="POSIX and Win32 serial port transport. ">
<polygon fill="white" stroke="black" points="252.5,-608.5 252.5,-627.5 313.5,-627.5 313.5,-608.5 252.5,-608.5"/>
<text text-anchor="middle" x="283" y="-615.5" font-family="Helvetica,sans-Serif" font-size="10.00">Serial port</text>
</a>
</g>
</g>
<!-- Node0&#45;&gt;Node19 -->
<g id="edge19" class="edge"><title>Node0&#45;&gt;Node19</title>
<path fill="none" stroke="blueviolet" stroke-dasharray="5,2" d="M151.78,-437.749C155.145,-460.799 165.783,-519.879 191,-562 202.946,-581.953 208.319,-586.61 228,-599 235.401,-603.659 244.095,-607.361 252.318,-610.212"/>
<text text-anchor="middle" x="200.5" y="-589" font-family="Helvetica,sans-Serif" font-size="10.00">erpc</text>
</g>
<!-- Node5 -->
<g id="node10" class="node"><title>Node5</title>
<g id="a_node10"><a xlink:href="group__infra__utility.html" target="_top" xlink:title="Utility code used by the infrastructure. ">
<polygon fill="white" stroke="black" points="258.5,-570.5 258.5,-589.5 307.5,-589.5 307.5,-570.5 258.5,-570.5"/>
<text text-anchor="middle" x="283" y="-577.5" font-family="Helvetica,sans-Serif" font-size="10.00">Utilities</text>
</a>
</g>
</g>
<!-- Node0&#45;&gt;Node5 -->
<g id="edge5" class="edge"><title>Node0&#45;&gt;Node5</title>
<path fill="none" stroke="blueviolet" stroke-dasharray="5,2" d="M153.193,-437.597C158.524,-455.593 171.61,-495.185 191,-524 203.983,-543.294 208.319,-548.61 228,-561 237.252,-566.824 248.523,-571.151 258.37,-574.192"/>
<text text-anchor="middle" x="200.5" y="-550" font-family="Helvetica,sans-Serif" font-size="10.00">erpc</text>
</g>
<!-- Node21 -->
<g id="node11" class="node"><title>Node21</title>
<g id="a_node11"><a xlink:href="group__spi__slave__transport.html" target="_top" xlink:title="MCUXpressoSDK SPI slave driver transport. ">
<polygon fill="white" stroke="black" points="253.5,-532.5 253.5,-551.5 312.5,-551.5 312.5,-532.5 253.5,-532.5"/>
<text text-anchor="middle" x="283" y="-539.5" font-family="Helvetica,sans-Serif" font-size="10.00">SPI Slave</text>
</a>
</g>
</g>
<!-- Node0&#45;&gt;Node21 -->
<g id="edge21" class="edge"><title>Node0&#45;&gt;Node21</title>
<path fill="none" stroke="blueviolet" stroke-dasharray="5,2" d="M155.356,-437.714C165.731,-457.371 192.075,-501.79 228,-523 235.788,-527.598 244.862,-531.328 253.325,-534.226"/>
<text text-anchor="middle" x="200.5" y="-512" font-family="Helvetica,sans-Serif" font-size="10.00">erpc</text>
</g>
<!-- Node23 -->
<g id="node12" class="node"><title>Node23</title>
<g id="a_node12"><a xlink:href="group__uart__transport.html" target="_top" xlink:title="CMSIS UART driver transport. ">
<polygon fill="white" stroke="black" points="245,-494.5 245,-513.5 321,-513.5 321,-494.5 245,-494.5"/>
<text text-anchor="middle" x="283" y="-501.5" font-family="Helvetica,sans-Serif" font-size="10.00">CMSIS UART</text>
</a>
</g>
</g>
<!-- Node0&#45;&gt;Node23 -->
<g id="edge23" class="edge"><title>Node0&#45;&gt;Node23</title>
<path fill="none" stroke="blueviolet" stroke-dasharray="5,2" d="M160.739,-437.743C168.687,-445.079 180.144,-455.175 191,-463 206.52,-474.187 210.669,-476.896 228,-485 235.472,-488.494 243.776,-491.72 251.586,-494.483"/>
<text text-anchor="middle" x="200.5" y="-478" font-family="Helvetica,sans-Serif" font-size="10.00">erpc</text>
</g>
<!-- Node22 -->
<g id="node13" class="node"><title>Node22</title>
<g id="a_node13"><a xlink:href="group__spidev__master__transport.html" target="_top" xlink:title="SPIdev Linux transport. ">
<polygon fill="white" stroke="black" points="230,-456.5 230,-475.5 336,-475.5 336,-456.5 230,-456.5"/>
<text text-anchor="middle" x="283" y="-463.5" font-family="Helvetica,sans-Serif" font-size="10.00">SPIdev Linux Master</text>
</a>
</g>
</g>
<!-- Node0&#45;&gt;Node22 -->
<g id="edge22" class="edge"><title>Node0&#45;&gt;Node22</title>
<path fill="none" stroke="blueviolet" stroke-dasharray="5,2" d="M173.058,-436.842C178.863,-438.982 185.128,-441.176 191,-443 206.873,-447.93 224.544,-452.583 240.06,-456.396"/>
<text text-anchor="middle" x="200.5" y="-451" font-family="Helvetica,sans-Serif" font-size="10.00">erpc</text>
</g>
<!-- Node20 -->
<g id="node14" class="node"><title>Node20</title>
<g id="a_node14"><a xlink:href="group__spi__master__transport.html" target="_top" xlink:title="MCUXpressoSDK SPI master driver transport. ">
<polygon fill="white" stroke="black" points="250.5,-418.5 250.5,-437.5 315.5,-437.5 315.5,-418.5 250.5,-418.5"/>
<text text-anchor="middle" x="283" y="-425.5" font-family="Helvetica,sans-Serif" font-size="10.00">SPI Master</text>
</a>
</g>
</g>
<!-- Node0&#45;&gt;Node20 -->
<g id="edge20" class="edge"><title>Node0&#45;&gt;Node20</title>
<path fill="none" stroke="blueviolet" stroke-dasharray="5,2" d="M173.106,-428C194.401,-428 226.508,-428 250.347,-428"/>
<text text-anchor="middle" x="200.5" y="-431" font-family="Helvetica,sans-Serif" font-size="10.00">erpc</text>
</g>
<!-- Node18 -->
<g id="node15" class="node"><title>Node18</title>
<g id="a_node15"><a xlink:href="group__rpmsg__tty__rtos__transport.html" target="_top" xlink:title="RPMsg TTY RTOS transport. ">
<polygon fill="white" stroke="black" points="234,-380.5 234,-399.5 332,-399.5 332,-380.5 234,-380.5"/>
<text text-anchor="middle" x="283" y="-387.5" font-family="Helvetica,sans-Serif" font-size="10.00">RPMsg TTY RTOS</text>
</a>
</g>
</g>
<!-- Node0&#45;&gt;Node18 -->
<g id="edge18" class="edge"><title>Node0&#45;&gt;Node18</title>
<path fill="none" stroke="blueviolet" stroke-dasharray="5,2" d="M173.058,-419.158C178.863,-417.018 185.128,-414.824 191,-413 206.873,-408.07 224.544,-403.417 240.06,-399.604"/>
<text text-anchor="middle" x="200.5" y="-416" font-family="Helvetica,sans-Serif" font-size="10.00">erpc</text>
</g>
<!-- Node6 -->
<g id="node16" class="node"><title>Node6</title>
<g id="a_node16"><a xlink:href="group__infra__server.html" target="_top" xlink:title="Server classes. ">
<polygon fill="white" stroke="black" points="261,-342.5 261,-361.5 305,-361.5 305,-342.5 261,-342.5"/>
<text text-anchor="middle" x="283" y="-349.5" font-family="Helvetica,sans-Serif" font-size="10.00">Server</text>
</a>
</g>
</g>
<!-- Node0&#45;&gt;Node6 -->
<g id="edge6" class="edge"><title>Node0&#45;&gt;Node6</title>
<path fill="none" stroke="blueviolet" stroke-dasharray="5,2" d="M160.321,-418.201C168.23,-410.581 179.833,-399.997 191,-392 206.373,-380.991 210.791,-378.836 228,-371 238.583,-366.181 250.771,-361.799 260.888,-358.46"/>
<text text-anchor="middle" x="200.5" y="-395" font-family="Helvetica,sans-Serif" font-size="10.00">erpc</text>
</g>
<!-- Node13 -->
<g id="node17" class="node"><title>Node13</title>
<g id="a_node17"><a xlink:href="group__lpi2c__slave__transport.html" target="_top" xlink:title="Lpi2c_slave_transport">
<polygon fill="white" stroke="black" points="228,-304.5 228,-323.5 338,-323.5 338,-304.5 228,-304.5"/>
<text text-anchor="middle" x="283" y="-311.5" font-family="Helvetica,sans-Serif" font-size="10.00">Lpi2c_slave_transport</text>
</a>
</g>
</g>
<!-- Node0&#45;&gt;Node13 -->
<g id="edge13" class="edge"><title>Node0&#45;&gt;Node13</title>
<path fill="none" stroke="blueviolet" stroke-dasharray="5,2" d="M155.429,-418.259C162.333,-405.135 175.761,-381.417 191,-364 205.127,-347.854 209.36,-343.62 228,-333 234.476,-329.31 241.793,-326.152 248.901,-323.53"/>
<text text-anchor="middle" x="200.5" y="-367" font-family="Helvetica,sans-Serif" font-size="10.00">erpc</text>
</g>
<!-- Node12 -->
<g id="node18" class="node"><title>Node12</title>
<g id="a_node18"><a xlink:href="group__itbp__transport.html" target="_top" xlink:title="Simple inter&#45;thread communications transport. ">
<polygon fill="white" stroke="black" points="250.5,-266.5 250.5,-285.5 315.5,-285.5 315.5,-266.5 250.5,-266.5"/>
<text text-anchor="middle" x="283" y="-273.5" font-family="Helvetica,sans-Serif" font-size="10.00">Inter&#45;thread</text>
</a>
</g>
</g>
<!-- Node0&#45;&gt;Node12 -->
<g id="edge12" class="edge"><title>Node0&#45;&gt;Node12</title>
<path fill="none" stroke="blueviolet" stroke-dasharray="5,2" d="M152.932,-418.309C157.905,-399.748 170.528,-358.418 191,-329 203.757,-310.669 208.853,-306.497 228,-295 234.902,-290.856 242.842,-287.432 250.473,-284.688"/>
<text text-anchor="middle" x="200.5" y="-332" font-family="Helvetica,sans-Serif" font-size="10.00">erpc</text>
</g>
<!-- Node9 -->
<g id="node19" class="node"><title>Node9</title>
<g id="a_node19"><a xlink:href="group__dspi__master__transport.html" target="_top" xlink:title="MCUXpressoSDK DSPI master driver transport. ">
<polygon fill="white" stroke="black" points="247,-228.5 247,-247.5 319,-247.5 319,-228.5 247,-228.5"/>
<text text-anchor="middle" x="283" y="-235.5" font-family="Helvetica,sans-Serif" font-size="10.00">DSPI Master</text>
</a>
</g>
</g>
<!-- Node0&#45;&gt;Node9 -->
<g id="edge9" class="edge"><title>Node0&#45;&gt;Node9</title>
<path fill="none" stroke="blueviolet" stroke-dasharray="5,2" d="M151.621,-418.404C154.687,-395.156 164.805,-334.601 191,-292 202.857,-272.718 208.678,-268.793 228,-257 234.108,-253.272 241.052,-250.138 247.878,-247.559"/>
<text text-anchor="middle" x="200.5" y="-295" font-family="Helvetica,sans-Serif" font-size="10.00">erpc</text>
</g>
<!-- Node24 -->
<g id="node20" class="node"><title>Node24</title>
<g id="a_node20"><a xlink:href="group___u_s_b___c_d_c__transport.html" target="_top" xlink:title="USB CDC transport. ">
<polygon fill="white" stroke="black" points="253,-190.5 253,-209.5 313,-209.5 313,-190.5 253,-190.5"/>
<text text-anchor="middle" x="283" y="-197.5" font-family="Helvetica,sans-Serif" font-size="10.00">USB CDC</text>
</a>
</g>
</g>
<!-- Node0&#45;&gt;Node24 -->
<g id="edge24" class="edge"><title>Node0&#45;&gt;Node24</title>
<path fill="none" stroke="blueviolet" stroke-dasharray="5,2" d="M150.832,-418.244C152.16,-390.619 158.739,-310.225 191,-254 202.266,-234.366 208.678,-230.793 228,-219 235.635,-214.34 244.576,-210.609 252.961,-207.728"/>
<text text-anchor="middle" x="200.5" y="-257" font-family="Helvetica,sans-Serif" font-size="10.00">erpc</text>
</g>
<!-- Node3 -->
<g id="node21" class="node"><title>Node3</title>
<g id="a_node21"><a xlink:href="group__infra__codec.html" target="_top" xlink:title="Classes used for message serialization. ">
<polygon fill="white" stroke="black" points="248,-152.5 248,-171.5 318,-171.5 318,-152.5 248,-152.5"/>
<text text-anchor="middle" x="283" y="-159.5" font-family="Helvetica,sans-Serif" font-size="10.00">Serialization</text>
</a>
</g>
</g>
<!-- Node0&#45;&gt;Node3 -->
<g id="edge3" class="edge"><title>Node0&#45;&gt;Node3</title>
<path fill="none" stroke="blueviolet" stroke-dasharray="5,2" d="M150.25,-418.366C149.847,-386.939 151.833,-285.39 191,-215 201.859,-195.485 208.853,-192.497 228,-181 234.22,-177.265 241.283,-174.116 248.204,-171.521"/>
<text text-anchor="middle" x="200.5" y="-218" font-family="Helvetica,sans-Serif" font-size="10.00">erpc</text>
</g>
<!-- Node16 -->
<g id="node22" class="node"><title>Node16</title>
<g id="a_node22"><a xlink:href="group__rpmsg__lite__rtos__transport.html" target="_top" xlink:title="RPMsg&#45;Lite zero copy transport using RTOS API. ">
<polygon fill="white" stroke="black" points="234.5,-114.5 234.5,-133.5 331.5,-133.5 331.5,-114.5 234.5,-114.5"/>
<text text-anchor="middle" x="283" y="-121.5" font-family="Helvetica,sans-Serif" font-size="10.00">RPMsg&#45;Lite RTOS</text>
</a>
</g>
</g>
<!-- Node0&#45;&gt;Node16 -->
<g id="edge16" class="edge"><title>Node0&#45;&gt;Node16</title>
<path fill="none" stroke="blueviolet" stroke-dasharray="5,2" d="M151.203,-418.452C154.315,-377.923 167.725,-220.239 191,-177 202.785,-155.106 227.731,-141.516 248.529,-133.587"/>
<text text-anchor="middle" x="200.5" y="-180" font-family="Helvetica,sans-Serif" font-size="10.00">erpc</text>
</g>
<!-- Node17 -->
<g id="node23" class="node"><title>Node17</title>
<g id="a_node23"><a xlink:href="group__rpmsg__lite__transport.html" target="_top" xlink:title="RPMsg&#45;Lite zero copy transport. ">
<polygon fill="white" stroke="black" points="249,-76.5 249,-95.5 317,-95.5 317,-76.5 249,-76.5"/>
<text text-anchor="middle" x="283" y="-83.5" font-family="Helvetica,sans-Serif" font-size="10.00">RPMsg&#45;Lite</text>
</a>
</g>
</g>
<!-- Node0&#45;&gt;Node17 -->
<g id="edge17" class="edge"><title>Node0&#45;&gt;Node17</title>
<path fill="none" stroke="blueviolet" stroke-dasharray="5,2" d="M151.008,-418.279C153.457,-373.88 165.007,-190.365 191,-140 201.381,-119.885 208.678,-116.793 228,-105 234.362,-101.117 241.632,-97.8782 248.73,-95.2397"/>
<text text-anchor="middle" x="200.5" y="-143" font-family="Helvetica,sans-Serif" font-size="10.00">erpc</text>
</g>
<!-- Node7 -->
<g id="node24" class="node"><title>Node7</title>
<g id="a_node24"><a xlink:href="group__port__setup__extensions.html" target="_top" xlink:title="Extension setup functions. ">
<polygon fill="white" stroke="black" points="238.5,-38.5 238.5,-57.5 327.5,-57.5 327.5,-38.5 238.5,-38.5"/>
<text text-anchor="middle" x="283" y="-45.5" font-family="Helvetica,sans-Serif" font-size="10.00">Extension Setup</text>
</a>
</g>
</g>
<!-- Node0&#45;&gt;Node7 -->
<g id="edge7" class="edge"><title>Node0&#45;&gt;Node7</title>
<path fill="none" stroke="blueviolet" stroke-dasharray="5,2" d="M150.808,-418.269C152.462,-370.254 161.347,-158.599 191,-101 202.297,-79.0555 226.986,-65.5167 247.8,-57.6208"/>
<text text-anchor="middle" x="200.5" y="-104" font-family="Helvetica,sans-Serif" font-size="10.00">erpc</text>
</g>
<!-- Node14 -->
<g id="node25" class="node"><title>Node14</title>
<g id="a_node25"><a xlink:href="group__lpspi__slave__transport.html" target="_top" xlink:title="Lpspi_slave_transport">
<polygon fill="white" stroke="black" points="228,-0.5 228,-19.5 338,-19.5 338,-0.5 228,-0.5"/>
<text text-anchor="middle" x="283" y="-7.5" font-family="Helvetica,sans-Serif" font-size="10.00">Lpspi_slave_transport</text>
</a>
</g>
</g>
<!-- Node0&#45;&gt;Node14 -->
<g id="edge14" class="edge"><title>Node0&#45;&gt;Node14</title>
<path fill="none" stroke="blueviolet" stroke-dasharray="5,2" d="M150.688,-418.218C151.807,-366.924 158.691,-128.887 191,-64 202.218,-41.4704 227.491,-27.5893 248.563,-19.5525"/>
<text text-anchor="middle" x="200.5" y="-67" font-family="Helvetica,sans-Serif" font-size="10.00">erpc</text>
</g>
</g>
</svg>
