<?xml version="1.0" encoding="UTF-8" standalone="no"?>
<!DOCTYPE svg PUBLIC "-//W3C//DTD SVG 1.1//EN"
 "http://www.w3.org/Graphics/SVG/1.1/DTD/svg11.dtd">
<!-- Generated by graphviz version 2.38.0 (20140413.2041)
 -->
<!-- Title: I2C Slave Pages: 1 -->
<svg width="356pt" height="864pt"
 viewBox="0.00 0.00 356.00 864.00" xmlns="http://www.w3.org/2000/svg" xmlns:xlink="http://www.w3.org/1999/xlink">
<g id="graph0" class="graph" transform="scale(1 1) rotate(0) translate(4 860)">
<title>I2C Slave</title>
<polygon fill="white" stroke="none" points="-4,4 -4,-860 352,-860 352,4 -4,4"/>
<!-- Node1 -->
<g id="node1" class="node"><title>Node1</title>
<g id="a_node1"><a xlink:href="group__transports.html" target="_top" xlink:title="Transport layer classes. ">
<polygon fill="white" stroke="black" points="0,-418.5 0,-437.5 89,-437.5 89,-418.5 0,-418.5"/>
<text text-anchor="middle" x="44.5" y="-425.5" font-family="Helvetica,sans-Serif" font-size="10.00">Transport Layers</text>
</a>
</g>
</g>
<!-- Node0 -->
<g id="node3" class="node"><title>Node0</title>
<polygon fill="#bfbfbf" stroke="black" points="126,-418.5 126,-437.5 183,-437.5 183,-418.5 126,-418.5"/>
<text text-anchor="middle" x="154.5" y="-425.5" font-family="Helvetica,sans-Serif" font-size="10.00">I2C Slave</text>
</g>
<!-- Node1&#45;&gt;Node0 -->
<g id="edge1" class="edge"><title>Node1&#45;&gt;Node0</title>
<path fill="none" stroke="black" d="M99.4116,-428C108.581,-428 117.755,-428 125.874,-428"/>
<polygon fill="black" stroke="black" points="99.1165,-424.5 89.1164,-428 99.1164,-431.5 99.1165,-424.5"/>
</g>
<!-- Node10 -->
<g id="node2" class="node"><title>Node10</title>
<g id="a_node2"><a xlink:href="group__dspi__slave__transport.html" target="_top" xlink:title="MCUXpressoSDK DSPI slave driver transport. ">
<polygon fill="white" stroke="black" points="260.5,-836.5 260.5,-855.5 325.5,-855.5 325.5,-836.5 260.5,-836.5"/>
<text text-anchor="middle" x="293" y="-843.5" font-family="Helvetica,sans-Serif" font-size="10.00">DSPI Slave</text>
</a>
</g>
</g>
<!-- Node0&#45;&gt;Node10 -->
<g id="edge10" class="edge"><title>Node0&#45;&gt;Node10</title>
<path fill="none" stroke="blueviolet" stroke-dasharray="5,2" d="M155.856,-437.751C157.85,-488.885 168.733,-726.182 201,-791 211.225,-811.54 218.5,-814.91 238,-827 244.842,-831.242 252.76,-834.702 260.389,-837.45"/>
<text text-anchor="middle" x="210.5" y="-818" font-family="Helvetica,sans-Serif" font-size="10.00">erpc</text>
</g>
<!-- Node8 -->
<g id="node4" class="node"><title>Node8</title>
<g id="a_node4"><a xlink:href="group__port__threads.html" target="_top" xlink:title="Threading model. ">
<polygon fill="white" stroke="black" points="267.5,-798.5 267.5,-817.5 318.5,-817.5 318.5,-798.5 267.5,-798.5"/>
<text text-anchor="middle" x="293" y="-805.5" font-family="Helvetica,sans-Serif" font-size="10.00">Threads</text>
</a>
</g>
</g>
<!-- Node0&#45;&gt;Node8 -->
<g id="edge8" class="edge"><title>Node0&#45;&gt;Node8</title>
<path fill="none" stroke="blueviolet" stroke-dasharray="5,2" d="M156.011,-437.66C158.659,-485.323 171.83,-695.447 201,-753 211.372,-773.465 218.5,-776.91 238,-789 246.953,-794.551 257.75,-798.763 267.329,-801.793"/>
<text text-anchor="middle" x="210.5" y="-779" font-family="Helvetica,sans-Serif" font-size="10.00">erpc</text>
</g>
<!-- Node14 -->
<g id="node5" class="node"><title>Node14</title>
<g id="a_node5"><a xlink:href="group__mu__transport.html" target="_top" xlink:title="Messaging Unit transport. ">
<polygon fill="white" stroke="black" points="251,-760.5 251,-779.5 335,-779.5 335,-760.5 251,-760.5"/>
<text text-anchor="middle" x="293" y="-767.5" font-family="Helvetica,sans-Serif" font-size="10.00">Messaging Unit</text>
</a>
</g>
</g>
<!-- Node0&#45;&gt;Node14 -->
<g id="edge14" class="edge"><title>Node0&#45;&gt;Node14</title>
<path fill="none" stroke="blueviolet" stroke-dasharray="5,2" d="M156.214,-437.683C159.596,-481.911 174.942,-664.723 201,-715 211.558,-735.371 218.5,-738.91 238,-751 243.997,-754.718 250.821,-757.836 257.553,-760.399"/>
<text text-anchor="middle" x="210.5" y="-741" font-family="Helvetica,sans-Serif" font-size="10.00">erpc</text>
</g>
<!-- Node22 -->
<g id="node6" class="node"><title>Node22</title>
<g id="a_node6"><a xlink:href="group__tcp__transport.html" target="_top" xlink:title="Simple TCP/IP transport. ">
<polygon fill="white" stroke="black" points="269.5,-722.5 269.5,-741.5 316.5,-741.5 316.5,-722.5 269.5,-722.5"/>
<text text-anchor="middle" x="293" y="-729.5" font-family="Helvetica,sans-Serif" font-size="10.00">TCP/IP</text>
</a>
</g>
</g>
<!-- Node0&#45;&gt;Node22 -->
<g id="edge22" class="edge"><title>Node0&#45;&gt;Node22</title>
<path fill="none" stroke="blueviolet" stroke-dasharray="5,2" d="M155.222,-437.718C154.635,-472.451 156.128,-592.856 201,-677 211.796,-697.245 218.5,-700.91 238,-713 247.629,-718.97 259.391,-723.391 269.476,-726.458"/>
<text text-anchor="middle" x="210.5" y="-703" font-family="Helvetica,sans-Serif" font-size="10.00">erpc</text>
</g>
<!-- Node2 -->
<g id="node7" class="node"><title>Node2</title>
<g id="a_node7"><a xlink:href="group__infra__client.html" target="_top" xlink:title="Client classes. ">
<polygon fill="white" stroke="black" points="272.5,-684.5 272.5,-703.5 313.5,-703.5 313.5,-684.5 272.5,-684.5"/>
<text text-anchor="middle" x="293" y="-691.5" font-family="Helvetica,sans-Serif" font-size="10.00">Client</text>
</a>
</g>
</g>
<!-- Node0&#45;&gt;Node2 -->
<g id="edge2" class="edge"><title>Node0&#45;&gt;Node2</title>
<path fill="none" stroke="blueviolet" stroke-dasharray="5,2" d="M155.635,-437.51C156.457,-468.535 162.149,-568.845 201,-639 212.115,-659.072 218.5,-662.91 238,-675 248.558,-681.546 261.68,-686.23 272.345,-689.309"/>
<text text-anchor="middle" x="210.5" y="-665" font-family="Helvetica,sans-Serif" font-size="10.00">erpc</text>
</g>
<!-- Node4 -->
<g id="node8" class="node"><title>Node4</title>
<g id="a_node8"><a xlink:href="group__infra__transport.html" target="_top" xlink:title="Superclasses for building transports. ">
<polygon fill="white" stroke="black" points="262,-646.5 262,-665.5 324,-665.5 324,-646.5 262,-646.5"/>
<text text-anchor="middle" x="293" y="-653.5" font-family="Helvetica,sans-Serif" font-size="10.00">Transports</text>
</a>
</g>
</g>
<!-- Node0&#45;&gt;Node4 -->
<g id="edge4" class="edge"><title>Node0&#45;&gt;Node4</title>
<path fill="none" stroke="blueviolet" stroke-dasharray="5,2" d="M156.283,-437.605C158.854,-464.811 168.811,-544.041 201,-600 212.596,-620.159 218.319,-624.61 238,-637 245.233,-641.554 253.7,-645.192 261.757,-648.016"/>
<text text-anchor="middle" x="210.5" y="-627" font-family="Helvetica,sans-Serif" font-size="10.00">erpc</text>
</g>
<!-- Node18 -->
<g id="node9" class="node"><title>Node18</title>
<g id="a_node9"><a xlink:href="group__serial__transport.html" target="_top" xlink:title="POSIX and Win32 serial port transport. ">
<polygon fill="white" stroke="black" points="262.5,-608.5 262.5,-627.5 323.5,-627.5 323.5,-608.5 262.5,-608.5"/>
<text text-anchor="middle" x="293" y="-615.5" font-family="Helvetica,sans-Serif" font-size="10.00">Serial port</text>
</a>
</g>
</g>
<!-- Node0&#45;&gt;Node18 -->
<g id="edge18" class="edge"><title>Node0&#45;&gt;Node18</title>
<path fill="none" stroke="blueviolet" stroke-dasharray="5,2" d="M157.328,-437.555C161.953,-460.155 175.594,-518.142 201,-560 213.397,-580.425 217.95,-586.006 238,-599 245.339,-603.756 254.014,-607.488 262.238,-610.337"/>
<text text-anchor="middle" x="210.5" y="-588" font-family="Helvetica,sans-Serif" font-size="10.00">erpc</text>
</g>
<!-- Node5 -->
<g id="node10" class="node"><title>Node5</title>
<g id="a_node10"><a xlink:href="group__infra__utility.html" target="_top" xlink:title="Utility code used by the infrastructure. ">
<polygon fill="white" stroke="black" points="268.5,-570.5 268.5,-589.5 317.5,-589.5 317.5,-570.5 268.5,-570.5"/>
<text text-anchor="middle" x="293" y="-577.5" font-family="Helvetica,sans-Serif" font-size="10.00">Utilities</text>
</a>
</g>
</g>
<!-- Node0&#45;&gt;Node5 -->
<g id="edge5" class="edge"><title>Node0&#45;&gt;Node5</title>
<path fill="none" stroke="blueviolet" stroke-dasharray="5,2" d="M158.314,-437.79C166.154,-463.108 190.831,-530.864 238,-561 247.213,-566.886 258.478,-571.222 268.332,-574.252"/>
<text text-anchor="middle" x="210.5" y="-548" font-family="Helvetica,sans-Serif" font-size="10.00">erpc</text>
</g>
<!-- Node20 -->
<g id="node11" class="node"><title>Node20</title>
<g id="a_node11"><a xlink:href="group__spi__slave__transport.html" target="_top" xlink:title="MCUXpressoSDK SPI slave driver transport. ">
<polygon fill="white" stroke="black" points="263.5,-532.5 263.5,-551.5 322.5,-551.5 322.5,-532.5 263.5,-532.5"/>
<text text-anchor="middle" x="293" y="-539.5" font-family="Helvetica,sans-Serif" font-size="10.00">SPI Slave</text>
</a>
</g>
</g>
<!-- Node0&#45;&gt;Node20 -->
<g id="edge20" class="edge"><title>Node0&#45;&gt;Node20</title>
<path fill="none" stroke="blueviolet" stroke-dasharray="5,2" d="M160.922,-437.577C172.434,-456.982 201.294,-500.96 238,-523 245.754,-527.656 254.818,-531.402 263.282,-534.298"/>
<text text-anchor="middle" x="210.5" y="-511" font-family="Helvetica,sans-Serif" font-size="10.00">erpc</text>
</g>
<!-- Node23 -->
<g id="node12" class="node"><title>Node23</title>
<g id="a_node12"><a xlink:href="group__uart__transport.html" target="_top" xlink:title="CMSIS UART driver transport. ">
<polygon fill="white" stroke="black" points="255,-494.5 255,-513.5 331,-513.5 331,-494.5 255,-494.5"/>
<text text-anchor="middle" x="293" y="-501.5" font-family="Helvetica,sans-Serif" font-size="10.00">CMSIS UART</text>
</a>
</g>
</g>
<!-- Node0&#45;&gt;Node23 -->
<g id="edge23" class="edge"><title>Node0&#45;&gt;Node23</title>
<path fill="none" stroke="blueviolet" stroke-dasharray="5,2" d="M166.801,-437.551C182.065,-450.026 210.531,-471.824 238,-485 245.348,-488.525 253.529,-491.741 261.256,-494.484"/>
<text text-anchor="middle" x="210.5" y="-477" font-family="Helvetica,sans-Serif" font-size="10.00">erpc</text>
</g>
<!-- Node21 -->
<g id="node13" class="node"><title>Node21</title>
<g id="a_node13"><a xlink:href="group__spidev__master__transport.html" target="_top" xlink:title="SPIdev Linux transport. ">
<polygon fill="white" stroke="black" points="240,-456.5 240,-475.5 346,-475.5 346,-456.5 240,-456.5"/>
<text text-anchor="middle" x="293" y="-463.5" font-family="Helvetica,sans-Serif" font-size="10.00">SPIdev Linux Master</text>
</a>
</g>
</g>
<!-- Node0&#45;&gt;Node21 -->
<g id="edge21" class="edge"><title>Node0&#45;&gt;Node21</title>
<path fill="none" stroke="blueviolet" stroke-dasharray="5,2" d="M183.315,-437.516C189.135,-439.41 195.25,-441.328 201,-443 217.43,-447.778 235.69,-452.506 251.517,-456.421"/>
<text text-anchor="middle" x="210.5" y="-450" font-family="Helvetica,sans-Serif" font-size="10.00">erpc</text>
</g>
<!-- Node19 -->
<g id="node14" class="node"><title>Node19</title>
<g id="a_node14"><a xlink:href="group__spi__master__transport.html" target="_top" xlink:title="MCUXpressoSDK SPI master driver transport. ">
<polygon fill="white" stroke="black" points="260.5,-418.5 260.5,-437.5 325.5,-437.5 325.5,-418.5 260.5,-418.5"/>
<text text-anchor="middle" x="293" y="-425.5" font-family="Helvetica,sans-Serif" font-size="10.00">SPI Master</text>
</a>
</g>
</g>
<!-- Node0&#45;&gt;Node19 -->
<g id="edge19" class="edge"><title>Node0&#45;&gt;Node19</title>
<path fill="none" stroke="blueviolet" stroke-dasharray="5,2" d="M183.123,-428C205.403,-428 236.764,-428 260.11,-428"/>
<text text-anchor="middle" x="210.5" y="-431" font-family="Helvetica,sans-Serif" font-size="10.00">erpc</text>
</g>
<!-- Node17 -->
<g id="node15" class="node"><title>Node17</title>
<g id="a_node15"><a xlink:href="group__rpmsg__tty__rtos__transport.html" target="_top" xlink:title="RPMsg TTY RTOS transport. ">
<polygon fill="white" stroke="black" points="244,-380.5 244,-399.5 342,-399.5 342,-380.5 244,-380.5"/>
<text text-anchor="middle" x="293" y="-387.5" font-family="Helvetica,sans-Serif" font-size="10.00">RPMsg TTY RTOS</text>
</a>
</g>
</g>
<!-- Node0&#45;&gt;Node17 -->
<g id="edge17" class="edge"><title>Node0&#45;&gt;Node17</title>
<path fill="none" stroke="blueviolet" stroke-dasharray="5,2" d="M183.315,-418.484C189.135,-416.59 195.25,-414.672 201,-413 217.43,-408.222 235.69,-403.494 251.517,-399.579"/>
<text text-anchor="middle" x="210.5" y="-416" font-family="Helvetica,sans-Serif" font-size="10.00">erpc</text>
</g>
<!-- Node6 -->
<g id="node16" class="node"><title>Node6</title>
<g id="a_node16"><a xlink:href="group__infra__server.html" target="_top" xlink:title="Server classes. ">
<polygon fill="white" stroke="black" points="271,-342.5 271,-361.5 315,-361.5 315,-342.5 271,-342.5"/>
<text text-anchor="middle" x="293" y="-349.5" font-family="Helvetica,sans-Serif" font-size="10.00">Server</text>
</a>
</g>
</g>
<!-- Node0&#45;&gt;Node6 -->
<g id="edge6" class="edge"><title>Node0&#45;&gt;Node6</title>
<path fill="none" stroke="blueviolet" stroke-dasharray="5,2" d="M166.763,-418.367C181.983,-405.802 210.402,-383.904 238,-371 248.533,-366.075 260.718,-361.683 270.844,-358.366"/>
<text text-anchor="middle" x="210.5" y="-394" font-family="Helvetica,sans-Serif" font-size="10.00">erpc</text>
</g>
<!-- Node12 -->
<g id="node17" class="node"><title>Node12</title>
<g id="a_node17"><a xlink:href="group__lpi2c__slave__transport.html" target="_top" xlink:title="Lpi2c_slave_transport">
<polygon fill="white" stroke="black" points="238,-304.5 238,-323.5 348,-323.5 348,-304.5 238,-304.5"/>
<text text-anchor="middle" x="293" y="-311.5" font-family="Helvetica,sans-Serif" font-size="10.00">Lpi2c_slave_transport</text>
</a>
</g>
</g>
<!-- Node0&#45;&gt;Node12 -->
<g id="edge12" class="edge"><title>Node0&#45;&gt;Node12</title>
<path fill="none" stroke="blueviolet" stroke-dasharray="5,2" d="M160.896,-418.378C172.358,-398.89 201.131,-354.767 238,-333 244.247,-329.312 251.323,-326.182 258.246,-323.592"/>
<text text-anchor="middle" x="210.5" y="-366" font-family="Helvetica,sans-Serif" font-size="10.00">erpc</text>
</g>
<!-- Node11 -->
<g id="node18" class="node"><title>Node11</title>
<g id="a_node18"><a xlink:href="group__itbp__transport.html" target="_top" xlink:title="Simple inter&#45;thread communications transport. ">
<polygon fill="white" stroke="black" points="260.5,-266.5 260.5,-285.5 325.5,-285.5 325.5,-266.5 260.5,-266.5"/>
<text text-anchor="middle" x="293" y="-273.5" font-family="Helvetica,sans-Serif" font-size="10.00">Inter&#45;thread</text>
</a>
</g>
</g>
<!-- Node0&#45;&gt;Node11 -->
<g id="edge11" class="edge"><title>Node0&#45;&gt;Node11</title>
<path fill="none" stroke="blueviolet" stroke-dasharray="5,2" d="M158.268,-418.137C165.997,-392.642 190.428,-324.496 238,-295 244.842,-290.758 252.76,-287.298 260.389,-284.55"/>
<text text-anchor="middle" x="210.5" y="-332" font-family="Helvetica,sans-Serif" font-size="10.00">erpc</text>
</g>
<!-- Node9 -->
<g id="node19" class="node"><title>Node9</title>
<g id="a_node19"><a xlink:href="group__dspi__master__transport.html" target="_top" xlink:title="MCUXpressoSDK DSPI master driver transport. ">
<polygon fill="white" stroke="black" points="257,-228.5 257,-247.5 329,-247.5 329,-228.5 257,-228.5"/>
<text text-anchor="middle" x="293" y="-235.5" font-family="Helvetica,sans-Serif" font-size="10.00">DSPI Master</text>
</a>
</g>
</g>
<!-- Node0&#45;&gt;Node9 -->
<g id="edge9" class="edge"><title>Node0&#45;&gt;Node9</title>
<path fill="none" stroke="blueviolet" stroke-dasharray="5,2" d="M157.275,-418.35C161.786,-395.529 175.198,-337.004 201,-295 213.338,-274.914 218.136,-269.691 238,-257 243.863,-253.254 250.556,-250.137 257.189,-247.583"/>
<text text-anchor="middle" x="210.5" y="-298" font-family="Helvetica,sans-Serif" font-size="10.00">erpc</text>
</g>
<!-- Node24 -->
<g id="node20" class="node"><title>Node24</title>
<g id="a_node20"><a xlink:href="group___u_s_b___c_d_c__transport.html" target="_top" xlink:title="USB CDC transport. ">
<polygon fill="white" stroke="black" points="263,-190.5 263,-209.5 323,-209.5 323,-190.5 263,-190.5"/>
<text text-anchor="middle" x="293" y="-197.5" font-family="Helvetica,sans-Serif" font-size="10.00">USB CDC</text>
</a>
</g>
</g>
<!-- Node0&#45;&gt;Node24 -->
<g id="edge24" class="edge"><title>Node0&#45;&gt;Node24</title>
<path fill="none" stroke="blueviolet" stroke-dasharray="5,2" d="M156.23,-418.317C158.663,-390.894 168.291,-311.063 201,-255 212.562,-235.182 218.5,-231.09 238,-219 245.602,-214.287 254.533,-210.539 262.919,-207.661"/>
<text text-anchor="middle" x="210.5" y="-258" font-family="Helvetica,sans-Serif" font-size="10.00">erpc</text>
</g>
<!-- Node3 -->
<g id="node21" class="node"><title>Node3</title>
<g id="a_node21"><a xlink:href="group__infra__codec.html" target="_top" xlink:title="Classes used for message serialization. ">
<polygon fill="white" stroke="black" points="258,-152.5 258,-171.5 328,-171.5 328,-152.5 258,-152.5"/>
<text text-anchor="middle" x="293" y="-159.5" font-family="Helvetica,sans-Serif" font-size="10.00">Serialization</text>
</a>
</g>
</g>
<!-- Node0&#45;&gt;Node3 -->
<g id="edge3" class="edge"><title>Node0&#45;&gt;Node3</title>
<path fill="none" stroke="blueviolet" stroke-dasharray="5,2" d="M155.584,-418.423C156.248,-387.183 161.513,-286.216 201,-216 212.096,-196.27 218.678,-192.793 238,-181 244.108,-177.272 251.052,-174.138 257.878,-171.559"/>
<text text-anchor="middle" x="210.5" y="-219" font-family="Helvetica,sans-Serif" font-size="10.00">erpc</text>
</g>
<!-- Node15 -->
<g id="node22" class="node"><title>Node15</title>
<g id="a_node22"><a xlink:href="group__rpmsg__lite__rtos__transport.html" target="_top" xlink:title="RPMsg&#45;Lite zero copy transport using RTOS API. ">
<polygon fill="white" stroke="black" points="244.5,-114.5 244.5,-133.5 341.5,-133.5 341.5,-114.5 244.5,-114.5"/>
<text text-anchor="middle" x="293" y="-121.5" font-family="Helvetica,sans-Serif" font-size="10.00">RPMsg&#45;Lite RTOS</text>
</a>
</g>
</g>
<!-- Node0&#45;&gt;Node15 -->
<g id="edge15" class="edge"><title>Node0&#45;&gt;Node15</title>
<path fill="none" stroke="blueviolet" stroke-dasharray="5,2" d="M155.118,-418.16C154.18,-382.996 154.633,-261.177 201,-177 211.775,-157.438 218.853,-154.497 238,-143 244.22,-139.265 251.283,-136.116 258.204,-133.521"/>
<text text-anchor="middle" x="210.5" y="-180" font-family="Helvetica,sans-Serif" font-size="10.00">erpc</text>
</g>
<!-- Node16 -->
<g id="node23" class="node"><title>Node16</title>
<g id="a_node23"><a xlink:href="group__rpmsg__lite__transport.html" target="_top" xlink:title="RPMsg&#45;Lite zero copy transport. ">
<polygon fill="white" stroke="black" points="259,-76.5 259,-95.5 327,-95.5 327,-76.5 259,-76.5"/>
<text text-anchor="middle" x="293" y="-83.5" font-family="Helvetica,sans-Serif" font-size="10.00">RPMsg&#45;Lite</text>
</a>
</g>
</g>
<!-- Node0&#45;&gt;Node16 -->
<g id="edge16" class="edge"><title>Node0&#45;&gt;Node16</title>
<path fill="none" stroke="blueviolet" stroke-dasharray="5,2" d="M156.174,-418.233C159.382,-373.622 174.073,-189.254 201,-139 212.83,-116.922 238.06,-103.296 258.959,-95.3979"/>
<text text-anchor="middle" x="210.5" y="-142" font-family="Helvetica,sans-Serif" font-size="10.00">erpc</text>
</g>
<!-- Node7 -->
<g id="node24" class="node"><title>Node7</title>
<g id="a_node24"><a xlink:href="group__port__setup__extensions.html" target="_top" xlink:title="Extension setup functions. ">
<polygon fill="white" stroke="black" points="248.5,-38.5 248.5,-57.5 337.5,-57.5 337.5,-38.5 248.5,-38.5"/>
<text text-anchor="middle" x="293" y="-45.5" font-family="Helvetica,sans-Serif" font-size="10.00">Extension Setup</text>
</a>
</g>
</g>
<!-- Node0&#45;&gt;Node7 -->
<g id="edge7" class="edge"><title>Node0&#45;&gt;Node7</title>
<path fill="none" stroke="blueviolet" stroke-dasharray="5,2" d="M155.992,-418.303C158.549,-370.454 171.349,-159.526 201,-102 211.371,-81.8794 218.678,-78.7925 238,-67 244.108,-63.2722 251.052,-60.1384 257.878,-57.5592"/>
<text text-anchor="middle" x="210.5" y="-105" font-family="Helvetica,sans-Serif" font-size="10.00">erpc</text>
</g>
<!-- Node13 -->
<g id="node25" class="node"><title>Node13</title>
<g id="a_node25"><a xlink:href="group__lpspi__slave__transport.html" target="_top" xlink:title="Lpspi_slave_transport">
<polygon fill="white" stroke="black" points="238,-0.5 238,-19.5 348,-19.5 348,-0.5 238,-0.5"/>
<text text-anchor="middle" x="293" y="-7.5" font-family="Helvetica,sans-Serif" font-size="10.00">Lpspi_slave_transport</text>
</a>
</g>
</g>
<!-- Node0&#45;&gt;Node13 -->
<g id="edge13" class="edge"><title>Node0&#45;&gt;Node13</title>
<path fill="none" stroke="blueviolet" stroke-dasharray="5,2" d="M155.817,-418.178C157.614,-366.678 167.653,-127.712 201,-63 212.306,-41.0599 236.994,-27.5209 257.806,-19.6238"/>
<text text-anchor="middle" x="210.5" y="-66" font-family="Helvetica,sans-Serif" font-size="10.00">erpc</text>
</g>
</g>
</svg>
