<?xml version="1.0" encoding="UTF-8" standalone="no"?>
<!DOCTYPE svg PUBLIC "-//W3C//DTD SVG 1.1//EN"
 "http://www.w3.org/Graphics/SVG/1.1/DTD/svg11.dtd">
<!-- Generated by graphviz version 2.38.0 (20140413.2041)
 -->
<!-- Title: CMSIS UART Pages: 1 -->
<svg width="390pt" height="572pt"
 viewBox="0.00 0.00 390.00 571.50" xmlns="http://www.w3.org/2000/svg" xmlns:xlink="http://www.w3.org/1999/xlink">
<g id="graph0" class="graph" transform="scale(1 1) rotate(0) translate(4 567.5)">
<title>CMSIS UART</title>
<polygon fill="white" stroke="none" points="-4,4 -4,-567.5 386,-567.5 386,4 -4,4"/>
<!-- Node1 -->
<g id="node1" class="node"><title>Node1</title>
<g id="a_node1"><a xlink:href="group__transports.html" target="_top" xlink:title="Transport layer classes. ">
<polygon fill="white" stroke="black" points="0,-278 0,-297 89,-297 89,-278 0,-278"/>
<text text-anchor="middle" x="44.5" y="-285" font-family="Helvetica,sans-Serif" font-size="10.00">Transport Layers</text>
</a>
</g>
</g>
<!-- Node0 -->
<g id="node11" class="node"><title>Node0</title>
<polygon fill="#bfbfbf" stroke="black" points="126,-278 126,-297 202,-297 202,-278 126,-278"/>
<text text-anchor="middle" x="164" y="-285" font-family="Helvetica,sans-Serif" font-size="10.00">CMSIS UART</text>
</g>
<!-- Node1&#45;&gt;Node0 -->
<g id="edge1" class="edge"><title>Node1&#45;&gt;Node0</title>
<path fill="none" stroke="black" d="M99.257,-287.5C108.216,-287.5 117.332,-287.5 125.762,-287.5"/>
<polygon fill="black" stroke="black" points="99.2527,-284 89.2527,-287.5 99.2526,-291 99.2527,-284"/>
</g>
<!-- Node9 -->
<g id="node2" class="node"><title>Node9</title>
<g id="a_node2"><a xlink:href="group__dspi__slave__transport.html" target="_top" xlink:title="Kinetis SDK DSPI slave driver transport. ">
<polygon fill="white" stroke="black" points="287,-544 287,-563 352,-563 352,-544 287,-544"/>
<text text-anchor="middle" x="319.5" y="-551" font-family="Helvetica,sans-Serif" font-size="10.00">DSPI Slave</text>
</a>
</g>
</g>
<!-- Node7 -->
<g id="node3" class="node"><title>Node7</title>
<g id="a_node3"><a xlink:href="group__port__threads.html" target="_top" xlink:title="Threading model. ">
<polygon fill="white" stroke="black" points="294,-506 294,-525 345,-525 345,-506 294,-506"/>
<text text-anchor="middle" x="319.5" y="-513" font-family="Helvetica,sans-Serif" font-size="10.00">Threads</text>
</a>
</g>
</g>
<!-- Node16 -->
<g id="node4" class="node"><title>Node16</title>
<g id="a_node4"><a xlink:href="group__tcp__transport.html" target="_top" xlink:title="Simple TCP/IP transport. ">
<polygon fill="white" stroke="black" points="296,-468 296,-487 343,-487 343,-468 296,-468"/>
<text text-anchor="middle" x="319.5" y="-475" font-family="Helvetica,sans-Serif" font-size="10.00">TCP/IP</text>
</a>
</g>
</g>
<!-- Node2 -->
<g id="node5" class="node"><title>Node2</title>
<g id="a_node5"><a xlink:href="group__infra__client.html" target="_top" xlink:title="Client classes. ">
<polygon fill="white" stroke="black" points="299,-430 299,-449 340,-449 340,-430 299,-430"/>
<text text-anchor="middle" x="319.5" y="-437" font-family="Helvetica,sans-Serif" font-size="10.00">Client</text>
</a>
</g>
</g>
<!-- Node12 -->
<g id="node6" class="node"><title>Node12</title>
<g id="a_node6"><a xlink:href="group__rpmsg__lite__zc__transport.html" target="_top" xlink:title="Rpmsg_lite_zc_transport">
<polygon fill="white" stroke="black" points="257,-392 257,-411 382,-411 382,-392 257,-392"/>
<text text-anchor="middle" x="319.5" y="-399" font-family="Helvetica,sans-Serif" font-size="10.00">Rpmsg_lite_zc_transport</text>
</a>
</g>
</g>
<!-- Node4 -->
<g id="node7" class="node"><title>Node4</title>
<g id="a_node7"><a xlink:href="group__infra__transport.html" target="_top" xlink:title="Superclasses for building transports. ">
<polygon fill="white" stroke="black" points="288.5,-354 288.5,-373 350.5,-373 350.5,-354 288.5,-354"/>
<text text-anchor="middle" x="319.5" y="-361" font-family="Helvetica,sans-Serif" font-size="10.00">Transports</text>
</a>
</g>
</g>
<!-- Node13 -->
<g id="node8" class="node"><title>Node13</title>
<g id="a_node8"><a xlink:href="group__serial__transport.html" target="_top" xlink:title="POSIX and Win32 serial port transport. ">
<polygon fill="white" stroke="black" points="289,-316 289,-335 350,-335 350,-316 289,-316"/>
<text text-anchor="middle" x="319.5" y="-323" font-family="Helvetica,sans-Serif" font-size="10.00">Serial port</text>
</a>
</g>
</g>
<!-- Node5 -->
<g id="node9" class="node"><title>Node5</title>
<g id="a_node9"><a xlink:href="group__infra__utility.html" target="_top" xlink:title="Utility code used by the infrastructure. ">
<polygon fill="white" stroke="black" points="295,-278 295,-297 344,-297 344,-278 295,-278"/>
<text text-anchor="middle" x="319.5" y="-285" font-family="Helvetica,sans-Serif" font-size="10.00">Utilities</text>
</a>
</g>
</g>
<!-- Node15 -->
<g id="node10" class="node"><title>Node15</title>
<g id="a_node10"><a xlink:href="group__spi__slave__transport.html" target="_top" xlink:title="Kinetis SDK SPI slave driver transport. ">
<polygon fill="white" stroke="black" points="290,-240 290,-259 349,-259 349,-240 290,-240"/>
<text text-anchor="middle" x="319.5" y="-247" font-family="Helvetica,sans-Serif" font-size="10.00">SPI Slave</text>
</a>
</g>
</g>
<!-- Node0&#45;&gt;Node9 -->
<g id="edge9" class="edge"><title>Node0&#45;&gt;Node9</title>
<path fill="none" stroke="blueviolet" stroke-dasharray="5,2" d="M165.614,-297.089C167.988,-328.367 178.618,-429.437 220,-499.5 231.512,-518.99 237.454,-523.083 257,-534.5 266.167,-539.854 277,-543.851 286.999,-546.761"/>
<text text-anchor="middle" x="229.5" y="-525.5" font-family="Helvetica,sans-Serif" font-size="10.00">erpc</text>
</g>
<!-- Node0&#45;&gt;Node7 -->
<g id="edge7" class="edge"><title>Node0&#45;&gt;Node7</title>
<path fill="none" stroke="blueviolet" stroke-dasharray="5,2" d="M166.38,-297.186C170.629,-324.617 185.378,-404.465 220,-460.5 232.06,-480.019 237.27,-484.789 257,-496.5 268.243,-503.174 282.056,-507.716 293.74,-510.681"/>
<text text-anchor="middle" x="229.5" y="-487.5" font-family="Helvetica,sans-Serif" font-size="10.00">erpc</text>
</g>
<!-- Node0&#45;&gt;Node16 -->
<g id="edge16" class="edge"><title>Node0&#45;&gt;Node16</title>
<path fill="none" stroke="blueviolet" stroke-dasharray="5,2" d="M167.605,-297.129C174.049,-319.905 192.251,-378.339 220,-420.5 232.959,-440.19 236.894,-446.195 257,-458.5 268.819,-465.733 283.618,-470.417 295.736,-473.324"/>
<text text-anchor="middle" x="229.5" y="-448.5" font-family="Helvetica,sans-Serif" font-size="10.00">erpc</text>
</g>
<!-- Node0&#45;&gt;Node2 -->
<g id="edge2" class="edge"><title>Node0&#45;&gt;Node2</title>
<path fill="none" stroke="blueviolet" stroke-dasharray="5,2" d="M168.466,-297.36C178,-322.848 207.264,-390.979 257,-420.5 269.973,-428.2 286.366,-433.063 298.965,-435.939"/>
<text text-anchor="middle" x="229.5" y="-408.5" font-family="Helvetica,sans-Serif" font-size="10.00">erpc</text>
</g>
<!-- Node0&#45;&gt;Node12 -->
<g id="edge12" class="edge"><title>Node0&#45;&gt;Node12</title>
<path fill="none" stroke="blueviolet" stroke-dasharray="5,2" d="M171.307,-297.113C184.624,-316.582 217.646,-360.675 257,-382.5 263.841,-386.294 271.539,-389.434 279.114,-391.993"/>
<text text-anchor="middle" x="229.5" y="-372.5" font-family="Helvetica,sans-Serif" font-size="10.00">erpc</text>
</g>
<!-- Node0&#45;&gt;Node4 -->
<g id="edge4" class="edge"><title>Node0&#45;&gt;Node4</title>
<path fill="none" stroke="blueviolet" stroke-dasharray="5,2" d="M178.074,-297.213C195.358,-309.665 227.122,-331.227 257,-344.5 266.906,-348.901 278.135,-352.694 288.262,-355.709"/>
<text text-anchor="middle" x="229.5" y="-338.5" font-family="Helvetica,sans-Serif" font-size="10.00">erpc</text>
</g>
<!-- Node0&#45;&gt;Node13 -->
<g id="edge13" class="edge"><title>Node0&#45;&gt;Node13</title>
<path fill="none" stroke="blueviolet" stroke-dasharray="5,2" d="M199.275,-297.057C206.128,-298.909 213.284,-300.801 220,-302.5 242.983,-308.315 269.118,-314.393 288.689,-318.84"/>
<text text-anchor="middle" x="229.5" y="-310.5" font-family="Helvetica,sans-Serif" font-size="10.00">erpc</text>
</g>
<!-- Node0&#45;&gt;Node5 -->
<g id="edge5" class="edge"><title>Node0&#45;&gt;Node5</title>
<path fill="none" stroke="blueviolet" stroke-dasharray="5,2" d="M202.158,-287.5C230.906,-287.5 269.859,-287.5 294.589,-287.5"/>
<text text-anchor="middle" x="229.5" y="-290.5" font-family="Helvetica,sans-Serif" font-size="10.00">erpc</text>
</g>
<!-- Node0&#45;&gt;Node15 -->
<g id="edge15" class="edge"><title>Node0&#45;&gt;Node15</title>
<path fill="none" stroke="blueviolet" stroke-dasharray="5,2" d="M199.275,-277.943C206.128,-276.091 213.284,-274.199 220,-272.5 243.493,-266.556 270.281,-260.336 289.984,-255.866"/>
<text text-anchor="middle" x="229.5" y="-275.5" font-family="Helvetica,sans-Serif" font-size="10.00">erpc</text>
</g>
<!-- Node14 -->
<g id="node12" class="node"><title>Node14</title>
<g id="a_node12"><a xlink:href="group__spi__master__transport.html" target="_top" xlink:title="Kinetis SDK SPI master driver transport. ">
<polygon fill="white" stroke="black" points="287,-202 287,-221 352,-221 352,-202 287,-202"/>
<text text-anchor="middle" x="319.5" y="-209" font-family="Helvetica,sans-Serif" font-size="10.00">SPI Master</text>
</a>
</g>
</g>
<!-- Node0&#45;&gt;Node14 -->
<g id="edge14" class="edge"><title>Node0&#45;&gt;Node14</title>
<path fill="none" stroke="blueviolet" stroke-dasharray="5,2" d="M178.112,-277.871C195.436,-265.51 227.244,-244.045 257,-230.5 266.459,-226.194 277.162,-222.51 286.956,-219.563"/>
<text text-anchor="middle" x="229.5" y="-253.5" font-family="Helvetica,sans-Serif" font-size="10.00">erpc</text>
</g>
<!-- Node6 -->
<g id="node13" class="node"><title>Node6</title>
<g id="a_node13"><a xlink:href="group__infra__server.html" target="_top" xlink:title="Server classes. ">
<polygon fill="white" stroke="black" points="297.5,-164 297.5,-183 341.5,-183 341.5,-164 297.5,-164"/>
<text text-anchor="middle" x="319.5" y="-171" font-family="Helvetica,sans-Serif" font-size="10.00">Server</text>
</a>
</g>
</g>
<!-- Node0&#45;&gt;Node6 -->
<g id="edge6" class="edge"><title>Node0&#45;&gt;Node6</title>
<path fill="none" stroke="blueviolet" stroke-dasharray="5,2" d="M171.335,-277.937C184.703,-258.558 217.814,-214.624 257,-192.5 269.553,-185.413 285.071,-180.643 297.379,-177.656"/>
<text text-anchor="middle" x="229.5" y="-221.5" font-family="Helvetica,sans-Serif" font-size="10.00">erpc</text>
</g>
<!-- Node10 -->
<g id="node14" class="node"><title>Node10</title>
<g id="a_node14"><a xlink:href="group__itbp__transport.html" target="_top" xlink:title="Simple inter&#45;thread communications transport. ">
<polygon fill="white" stroke="black" points="287,-126 287,-145 352,-145 352,-126 287,-126"/>
<text text-anchor="middle" x="319.5" y="-133" font-family="Helvetica,sans-Serif" font-size="10.00">Inter&#45;thread</text>
</a>
</g>
</g>
<!-- Node0&#45;&gt;Node10 -->
<g id="edge10" class="edge"><title>Node0&#45;&gt;Node10</title>
<path fill="none" stroke="blueviolet" stroke-dasharray="5,2" d="M168.512,-277.716C178.158,-252.414 207.668,-184.69 257,-154.5 266.055,-148.958 276.859,-144.913 286.866,-142.017"/>
<text text-anchor="middle" x="229.5" y="-189.5" font-family="Helvetica,sans-Serif" font-size="10.00">erpc</text>
</g>
<!-- Node8 -->
<g id="node15" class="node"><title>Node8</title>
<g id="a_node15"><a xlink:href="group__dspi__master__transport.html" target="_top" xlink:title="Kinetis SDK DSPI master driver transport. ">
<polygon fill="white" stroke="black" points="283.5,-88 283.5,-107 355.5,-107 355.5,-88 283.5,-88"/>
<text text-anchor="middle" x="319.5" y="-95" font-family="Helvetica,sans-Serif" font-size="10.00">DSPI Master</text>
</a>
</g>
</g>
<!-- Node0&#45;&gt;Node8 -->
<g id="edge8" class="edge"><title>Node0&#45;&gt;Node8</title>
<path fill="none" stroke="blueviolet" stroke-dasharray="5,2" d="M167.658,-277.969C174.216,-255.418 192.645,-197.532 220,-155.5 233.033,-135.475 236.702,-129.104 257,-116.5 264.975,-111.548 274.337,-107.8 283.319,-105"/>
<text text-anchor="middle" x="229.5" y="-158.5" font-family="Helvetica,sans-Serif" font-size="10.00">erpc</text>
</g>
<!-- Node3 -->
<g id="node16" class="node"><title>Node3</title>
<g id="a_node16"><a xlink:href="group__infra__codec.html" target="_top" xlink:title="Classes used for message serialization. ">
<polygon fill="white" stroke="black" points="284.5,-50 284.5,-69 354.5,-69 354.5,-50 284.5,-50"/>
<text text-anchor="middle" x="319.5" y="-57" font-family="Helvetica,sans-Serif" font-size="10.00">Serialization</text>
</a>
</g>
</g>
<!-- Node0&#45;&gt;Node3 -->
<g id="edge3" class="edge"><title>Node0&#45;&gt;Node3</title>
<path fill="none" stroke="blueviolet" stroke-dasharray="5,2" d="M166.432,-277.894C170.818,-250.684 185.895,-171.447 220,-115.5 232.105,-95.6427 237.083,-90.5069 257,-78.5 265.326,-73.4804 275.096,-69.6782 284.367,-66.8457"/>
<text text-anchor="middle" x="229.5" y="-118.5" font-family="Helvetica,sans-Serif" font-size="10.00">erpc</text>
</g>
<!-- Node11 -->
<g id="node17" class="node"><title>Node11</title>
<g id="a_node17"><a xlink:href="group__rpmsg__lite__zc__rtos__transport.html" target="_top" xlink:title="Rpmsg_lite_zc_rtos\l_transport">
<polygon fill="white" stroke="black" points="268,-0.5 268,-30.5 371,-30.5 371,-0.5 268,-0.5"/>
<text text-anchor="start" x="276" y="-18.5" font-family="Helvetica,sans-Serif" font-size="10.00">Rpmsg_lite_zc_rtos</text>
<text text-anchor="middle" x="319.5" y="-7.5" font-family="Helvetica,sans-Serif" font-size="10.00">_transport</text>
</a>
</g>
</g>
<!-- Node0&#45;&gt;Node11 -->
<g id="edge11" class="edge"><title>Node0&#45;&gt;Node11</title>
<path fill="none" stroke="blueviolet" stroke-dasharray="5,2" d="M165.665,-277.979C168.196,-246.92 179.253,-146.518 220,-76.5 231.54,-56.6697 237.795,-53.0527 257,-40.5 262.692,-36.7797 269.027,-33.4463 275.406,-30.5191"/>
<text text-anchor="middle" x="229.5" y="-79.5" font-family="Helvetica,sans-Serif" font-size="10.00">erpc</text>
</g>
</g>
</svg>
