<?xml version="1.0" encoding="UTF-8" standalone="no"?>
<!DOCTYPE svg PUBLIC "-//W3C//DTD SVG 1.1//EN"
 "http://www.w3.org/Graphics/SVG/1.1/DTD/svg11.dtd">
<!-- Generated by graphviz version 2.38.0 (20140413.2041)
 -->
<!-- Title: CMSIS UART Pages: 1 -->
<svg width="375pt" height="864pt"
 viewBox="0.00 0.00 375.00 864.00" xmlns="http://www.w3.org/2000/svg" xmlns:xlink="http://www.w3.org/1999/xlink">
<g id="graph0" class="graph" transform="scale(1 1) rotate(0) translate(4 860)">
<title>CMSIS UART</title>
<polygon fill="white" stroke="none" points="-4,4 -4,-860 371,-860 371,4 -4,4"/>
<!-- Node1 -->
<g id="node1" class="node"><title>Node1</title>
<g id="a_node1"><a xlink:href="group__transports.html" target="_top" xlink:title="Transport layer classes. ">
<polygon fill="white" stroke="black" points="0,-418.5 0,-437.5 89,-437.5 89,-418.5 0,-418.5"/>
<text text-anchor="middle" x="44.5" y="-425.5" font-family="Helvetica,sans-Serif" font-size="10.00">Transport Layers</text>
</a>
</g>
</g>
<!-- Node0 -->
<g id="node12" class="node"><title>Node0</title>
<polygon fill="#bfbfbf" stroke="black" points="126,-418.5 126,-437.5 202,-437.5 202,-418.5 126,-418.5"/>
<text text-anchor="middle" x="164" y="-425.5" font-family="Helvetica,sans-Serif" font-size="10.00">CMSIS UART</text>
</g>
<!-- Node1&#45;&gt;Node0 -->
<g id="edge1" class="edge"><title>Node1&#45;&gt;Node0</title>
<path fill="none" stroke="black" d="M99.257,-428C108.216,-428 117.332,-428 125.762,-428"/>
<polygon fill="black" stroke="black" points="99.2527,-424.5 89.2527,-428 99.2526,-431.5 99.2527,-424.5"/>
</g>
<!-- Node10 -->
<g id="node2" class="node"><title>Node10</title>
<g id="a_node2"><a xlink:href="group__dspi__slave__transport.html" target="_top" xlink:title="MCUXpressoSDK DSPI slave driver transport. ">
<polygon fill="white" stroke="black" points="279.5,-836.5 279.5,-855.5 344.5,-855.5 344.5,-836.5 279.5,-836.5"/>
<text text-anchor="middle" x="312" y="-843.5" font-family="Helvetica,sans-Serif" font-size="10.00">DSPI Slave</text>
</a>
</g>
</g>
<!-- Node11 -->
<g id="node3" class="node"><title>Node11</title>
<g id="a_node3"><a xlink:href="group__i2c__slave__transport.html" target="_top" xlink:title="MCUXpressoSDK I2C slave driver transport. ">
<polygon fill="white" stroke="black" points="283.5,-798.5 283.5,-817.5 340.5,-817.5 340.5,-798.5 283.5,-798.5"/>
<text text-anchor="middle" x="312" y="-805.5" font-family="Helvetica,sans-Serif" font-size="10.00">I2C Slave</text>
</a>
</g>
</g>
<!-- Node8 -->
<g id="node4" class="node"><title>Node8</title>
<g id="a_node4"><a xlink:href="group__port__threads.html" target="_top" xlink:title="Threading model. ">
<polygon fill="white" stroke="black" points="286.5,-760.5 286.5,-779.5 337.5,-779.5 337.5,-760.5 286.5,-760.5"/>
<text text-anchor="middle" x="312" y="-767.5" font-family="Helvetica,sans-Serif" font-size="10.00">Threads</text>
</a>
</g>
</g>
<!-- Node15 -->
<g id="node5" class="node"><title>Node15</title>
<g id="a_node5"><a xlink:href="group__mu__transport.html" target="_top" xlink:title="Messaging Unit transport. ">
<polygon fill="white" stroke="black" points="270,-722.5 270,-741.5 354,-741.5 354,-722.5 270,-722.5"/>
<text text-anchor="middle" x="312" y="-729.5" font-family="Helvetica,sans-Serif" font-size="10.00">Messaging Unit</text>
</a>
</g>
</g>
<!-- Node23 -->
<g id="node6" class="node"><title>Node23</title>
<g id="a_node6"><a xlink:href="group__tcp__transport.html" target="_top" xlink:title="Simple TCP/IP transport. ">
<polygon fill="white" stroke="black" points="288.5,-684.5 288.5,-703.5 335.5,-703.5 335.5,-684.5 288.5,-684.5"/>
<text text-anchor="middle" x="312" y="-691.5" font-family="Helvetica,sans-Serif" font-size="10.00">TCP/IP</text>
</a>
</g>
</g>
<!-- Node2 -->
<g id="node7" class="node"><title>Node2</title>
<g id="a_node7"><a xlink:href="group__infra__client.html" target="_top" xlink:title="Client classes. ">
<polygon fill="white" stroke="black" points="291.5,-646.5 291.5,-665.5 332.5,-665.5 332.5,-646.5 291.5,-646.5"/>
<text text-anchor="middle" x="312" y="-653.5" font-family="Helvetica,sans-Serif" font-size="10.00">Client</text>
</a>
</g>
</g>
<!-- Node4 -->
<g id="node8" class="node"><title>Node4</title>
<g id="a_node8"><a xlink:href="group__infra__transport.html" target="_top" xlink:title="Superclasses for building transports. ">
<polygon fill="white" stroke="black" points="281,-608.5 281,-627.5 343,-627.5 343,-608.5 281,-608.5"/>
<text text-anchor="middle" x="312" y="-615.5" font-family="Helvetica,sans-Serif" font-size="10.00">Transports</text>
</a>
</g>
</g>
<!-- Node19 -->
<g id="node9" class="node"><title>Node19</title>
<g id="a_node9"><a xlink:href="group__serial__transport.html" target="_top" xlink:title="POSIX and Win32 serial port transport. ">
<polygon fill="white" stroke="black" points="281.5,-570.5 281.5,-589.5 342.5,-589.5 342.5,-570.5 281.5,-570.5"/>
<text text-anchor="middle" x="312" y="-577.5" font-family="Helvetica,sans-Serif" font-size="10.00">Serial port</text>
</a>
</g>
</g>
<!-- Node5 -->
<g id="node10" class="node"><title>Node5</title>
<g id="a_node10"><a xlink:href="group__infra__utility.html" target="_top" xlink:title="Utility code used by the infrastructure. ">
<polygon fill="white" stroke="black" points="287.5,-532.5 287.5,-551.5 336.5,-551.5 336.5,-532.5 287.5,-532.5"/>
<text text-anchor="middle" x="312" y="-539.5" font-family="Helvetica,sans-Serif" font-size="10.00">Utilities</text>
</a>
</g>
</g>
<!-- Node21 -->
<g id="node11" class="node"><title>Node21</title>
<g id="a_node11"><a xlink:href="group__spi__slave__transport.html" target="_top" xlink:title="MCUXpressoSDK SPI slave driver transport. ">
<polygon fill="white" stroke="black" points="282.5,-494.5 282.5,-513.5 341.5,-513.5 341.5,-494.5 282.5,-494.5"/>
<text text-anchor="middle" x="312" y="-501.5" font-family="Helvetica,sans-Serif" font-size="10.00">SPI Slave</text>
</a>
</g>
</g>
<!-- Node0&#45;&gt;Node10 -->
<g id="edge10" class="edge"><title>Node0&#45;&gt;Node10</title>
<path fill="none" stroke="blueviolet" stroke-dasharray="5,2" d="M165.638,-437.758C169.108,-488.926 186.785,-726.372 220,-791 230.488,-811.407 237.5,-814.91 257,-827 263.842,-831.242 271.76,-834.702 279.389,-837.45"/>
<text text-anchor="middle" x="229.5" y="-817" font-family="Helvetica,sans-Serif" font-size="10.00">erpc</text>
</g>
<!-- Node0&#45;&gt;Node11 -->
<g id="edge11" class="edge"><title>Node0&#45;&gt;Node11</title>
<path fill="none" stroke="blueviolet" stroke-dasharray="5,2" d="M165.823,-437.666C170.004,-485.362 189.879,-695.617 220,-753 230.663,-773.315 237.5,-776.91 257,-789 265.024,-793.975 274.529,-797.874 283.311,-800.811"/>
<text text-anchor="middle" x="229.5" y="-779" font-family="Helvetica,sans-Serif" font-size="10.00">erpc</text>
</g>
<!-- Node0&#45;&gt;Node8 -->
<g id="edge8" class="edge"><title>Node0&#45;&gt;Node8</title>
<path fill="none" stroke="blueviolet" stroke-dasharray="5,2" d="M164.816,-437.601C164.491,-475.408 167.057,-616.743 220,-715 230.883,-735.198 237.5,-738.91 257,-751 265.953,-756.551 276.75,-760.763 286.329,-763.793"/>
<text text-anchor="middle" x="229.5" y="-741" font-family="Helvetica,sans-Serif" font-size="10.00">erpc</text>
</g>
<!-- Node0&#45;&gt;Node15 -->
<g id="edge15" class="edge"><title>Node0&#45;&gt;Node15</title>
<path fill="none" stroke="blueviolet" stroke-dasharray="5,2" d="M165.185,-437.733C166.237,-472.517 173.249,-593.075 220,-677 231.165,-697.044 237.5,-700.91 257,-713 262.997,-716.718 269.821,-719.836 276.553,-722.399"/>
<text text-anchor="middle" x="229.5" y="-703" font-family="Helvetica,sans-Serif" font-size="10.00">erpc</text>
</g>
<!-- Node0&#45;&gt;Node23 -->
<g id="edge23" class="edge"><title>Node0&#45;&gt;Node23</title>
<path fill="none" stroke="blueviolet" stroke-dasharray="5,2" d="M165.753,-437.89C168.507,-469.229 180.059,-568.366 220,-638 231.571,-658.173 237.319,-662.61 257,-675 266.588,-681.036 278.345,-685.464 288.438,-688.519"/>
<text text-anchor="middle" x="229.5" y="-665" font-family="Helvetica,sans-Serif" font-size="10.00">erpc</text>
</g>
<!-- Node0&#45;&gt;Node2 -->
<g id="edge2" class="edge"><title>Node0&#45;&gt;Node2</title>
<path fill="none" stroke="blueviolet" stroke-dasharray="5,2" d="M166.483,-437.528C171.004,-464.518 186.399,-543.151 220,-599 232.152,-619.198 237.136,-624.309 257,-637 267.469,-643.688 280.589,-648.375 291.275,-651.42"/>
<text text-anchor="middle" x="229.5" y="-626" font-family="Helvetica,sans-Serif" font-size="10.00">erpc</text>
</g>
<!-- Node0&#45;&gt;Node4 -->
<g id="edge4" class="edge"><title>Node0&#45;&gt;Node4</title>
<path fill="none" stroke="blueviolet" stroke-dasharray="5,2" d="M167.809,-437.769C174.563,-460.33 193.163,-517.312 220,-559 233.109,-579.363 236.761,-585.701 257,-599 264.226,-603.748 272.777,-607.463 280.919,-610.299"/>
<text text-anchor="middle" x="229.5" y="-587" font-family="Helvetica,sans-Serif" font-size="10.00">erpc</text>
</g>
<!-- Node0&#45;&gt;Node19 -->
<g id="edge19" class="edge"><title>Node0&#45;&gt;Node19</title>
<path fill="none" stroke="blueviolet" stroke-dasharray="5,2" d="M168.58,-437.675C178.389,-462.716 208.261,-529.861 257,-561 264.37,-565.709 273.054,-569.425 281.278,-572.275"/>
<text text-anchor="middle" x="229.5" y="-547" font-family="Helvetica,sans-Serif" font-size="10.00">erpc</text>
</g>
<!-- Node0&#45;&gt;Node5 -->
<g id="edge5" class="edge"><title>Node0&#45;&gt;Node5</title>
<path fill="none" stroke="blueviolet" stroke-dasharray="5,2" d="M171.614,-437.734C185.247,-457.032 218.447,-500.239 257,-523 266.328,-528.507 277.503,-532.769 287.26,-535.848"/>
<text text-anchor="middle" x="229.5" y="-511" font-family="Helvetica,sans-Serif" font-size="10.00">erpc</text>
</g>
<!-- Node0&#45;&gt;Node21 -->
<g id="edge21" class="edge"><title>Node0&#45;&gt;Node21</title>
<path fill="none" stroke="blueviolet" stroke-dasharray="5,2" d="M178.496,-437.663C195.974,-449.868 227.681,-470.964 257,-485 264.978,-488.819 273.936,-492.28 282.227,-495.169"/>
<text text-anchor="middle" x="229.5" y="-478" font-family="Helvetica,sans-Serif" font-size="10.00">erpc</text>
</g>
<!-- Node22 -->
<g id="node13" class="node"><title>Node22</title>
<g id="a_node13"><a xlink:href="group__spidev__master__transport.html" target="_top" xlink:title="SPIdev Linux transport. ">
<polygon fill="white" stroke="black" points="259,-456.5 259,-475.5 365,-475.5 365,-456.5 259,-456.5"/>
<text text-anchor="middle" x="312" y="-463.5" font-family="Helvetica,sans-Serif" font-size="10.00">SPIdev Linux Master</text>
</a>
</g>
</g>
<!-- Node0&#45;&gt;Node22 -->
<g id="edge22" class="edge"><title>Node0&#45;&gt;Node22</title>
<path fill="none" stroke="blueviolet" stroke-dasharray="5,2" d="M199.594,-437.541C206.355,-439.375 213.395,-441.265 220,-443 237.179,-447.513 256.226,-452.353 272.437,-456.423"/>
<text text-anchor="middle" x="229.5" y="-450" font-family="Helvetica,sans-Serif" font-size="10.00">erpc</text>
</g>
<!-- Node20 -->
<g id="node14" class="node"><title>Node20</title>
<g id="a_node14"><a xlink:href="group__spi__master__transport.html" target="_top" xlink:title="MCUXpressoSDK SPI master driver transport. ">
<polygon fill="white" stroke="black" points="279.5,-418.5 279.5,-437.5 344.5,-437.5 344.5,-418.5 279.5,-418.5"/>
<text text-anchor="middle" x="312" y="-425.5" font-family="Helvetica,sans-Serif" font-size="10.00">SPI Master</text>
</a>
</g>
</g>
<!-- Node0&#45;&gt;Node20 -->
<g id="edge20" class="edge"><title>Node0&#45;&gt;Node20</title>
<path fill="none" stroke="blueviolet" stroke-dasharray="5,2" d="M202.22,-428C226.044,-428 256.624,-428 279.291,-428"/>
<text text-anchor="middle" x="229.5" y="-431" font-family="Helvetica,sans-Serif" font-size="10.00">erpc</text>
</g>
<!-- Node18 -->
<g id="node15" class="node"><title>Node18</title>
<g id="a_node15"><a xlink:href="group__rpmsg__tty__rtos__transport.html" target="_top" xlink:title="RPMsg TTY RTOS transport. ">
<polygon fill="white" stroke="black" points="263,-380.5 263,-399.5 361,-399.5 361,-380.5 263,-380.5"/>
<text text-anchor="middle" x="312" y="-387.5" font-family="Helvetica,sans-Serif" font-size="10.00">RPMsg TTY RTOS</text>
</a>
</g>
</g>
<!-- Node0&#45;&gt;Node18 -->
<g id="edge18" class="edge"><title>Node0&#45;&gt;Node18</title>
<path fill="none" stroke="blueviolet" stroke-dasharray="5,2" d="M199.594,-418.459C206.355,-416.625 213.395,-414.735 220,-413 237.179,-408.487 256.226,-403.647 272.437,-399.577"/>
<text text-anchor="middle" x="229.5" y="-416" font-family="Helvetica,sans-Serif" font-size="10.00">erpc</text>
</g>
<!-- Node6 -->
<g id="node16" class="node"><title>Node6</title>
<g id="a_node16"><a xlink:href="group__infra__server.html" target="_top" xlink:title="Server classes. ">
<polygon fill="white" stroke="black" points="290,-342.5 290,-361.5 334,-361.5 334,-342.5 290,-342.5"/>
<text text-anchor="middle" x="312" y="-349.5" font-family="Helvetica,sans-Serif" font-size="10.00">Server</text>
</a>
</g>
</g>
<!-- Node0&#45;&gt;Node6 -->
<g id="edge6" class="edge"><title>Node0&#45;&gt;Node6</title>
<path fill="none" stroke="blueviolet" stroke-dasharray="5,2" d="M178.155,-418.464C195.526,-406.204 227.384,-384.848 257,-371 267.533,-366.075 279.718,-361.683 289.844,-358.366"/>
<text text-anchor="middle" x="229.5" y="-393" font-family="Helvetica,sans-Serif" font-size="10.00">erpc</text>
</g>
<!-- Node13 -->
<g id="node17" class="node"><title>Node13</title>
<g id="a_node17"><a xlink:href="group__lpi2c__slave__transport.html" target="_top" xlink:title="Lpi2c_slave_transport">
<polygon fill="white" stroke="black" points="257,-304.5 257,-323.5 367,-323.5 367,-304.5 257,-304.5"/>
<text text-anchor="middle" x="312" y="-311.5" font-family="Helvetica,sans-Serif" font-size="10.00">Lpi2c_slave_transport</text>
</a>
</g>
</g>
<!-- Node0&#45;&gt;Node13 -->
<g id="edge13" class="edge"><title>Node0&#45;&gt;Node13</title>
<path fill="none" stroke="blueviolet" stroke-dasharray="5,2" d="M171.585,-418.216C185.165,-398.827 218.274,-355.467 257,-333 263.361,-329.309 270.557,-326.165 277.573,-323.559"/>
<text text-anchor="middle" x="229.5" y="-362" font-family="Helvetica,sans-Serif" font-size="10.00">erpc</text>
</g>
<!-- Node12 -->
<g id="node18" class="node"><title>Node12</title>
<g id="a_node18"><a xlink:href="group__itbp__transport.html" target="_top" xlink:title="Simple inter&#45;thread communications transport. ">
<polygon fill="white" stroke="black" points="279.5,-266.5 279.5,-285.5 344.5,-285.5 344.5,-266.5 279.5,-266.5"/>
<text text-anchor="middle" x="312" y="-273.5" font-family="Helvetica,sans-Serif" font-size="10.00">Inter&#45;thread</text>
</a>
</g>
</g>
<!-- Node0&#45;&gt;Node12 -->
<g id="edge12" class="edge"><title>Node0&#45;&gt;Node12</title>
<path fill="none" stroke="blueviolet" stroke-dasharray="5,2" d="M168.556,-418.288C178.309,-393.157 208.055,-325.813 257,-295 263.813,-290.711 271.72,-287.234 279.348,-284.485"/>
<text text-anchor="middle" x="229.5" y="-329" font-family="Helvetica,sans-Serif" font-size="10.00">erpc</text>
</g>
<!-- Node9 -->
<g id="node19" class="node"><title>Node9</title>
<g id="a_node19"><a xlink:href="group__dspi__master__transport.html" target="_top" xlink:title="MCUXpressoSDK DSPI master driver transport. ">
<polygon fill="white" stroke="black" points="276,-228.5 276,-247.5 348,-247.5 348,-228.5 276,-228.5"/>
<text text-anchor="middle" x="312" y="-235.5" font-family="Helvetica,sans-Serif" font-size="10.00">DSPI Master</text>
</a>
</g>
</g>
<!-- Node0&#45;&gt;Node9 -->
<g id="edge9" class="edge"><title>Node0&#45;&gt;Node9</title>
<path fill="none" stroke="blueviolet" stroke-dasharray="5,2" d="M167.605,-418.371C174.049,-395.595 192.251,-337.161 220,-295 232.959,-275.31 237.136,-269.691 257,-257 262.863,-253.254 269.556,-250.137 276.189,-247.583"/>
<text text-anchor="middle" x="229.5" y="-298" font-family="Helvetica,sans-Serif" font-size="10.00">erpc</text>
</g>
<!-- Node24 -->
<g id="node20" class="node"><title>Node24</title>
<g id="a_node20"><a xlink:href="group___u_s_b___c_d_c__transport.html" target="_top" xlink:title="USB CDC transport. ">
<polygon fill="white" stroke="black" points="282,-190.5 282,-209.5 342,-209.5 342,-190.5 282,-190.5"/>
<text text-anchor="middle" x="312" y="-197.5" font-family="Helvetica,sans-Serif" font-size="10.00">USB CDC</text>
</a>
</g>
</g>
<!-- Node0&#45;&gt;Node24 -->
<g id="edge24" class="edge"><title>Node0&#45;&gt;Node24</title>
<path fill="none" stroke="blueviolet" stroke-dasharray="5,2" d="M166.38,-418.314C170.629,-390.883 185.378,-311.035 220,-255 232.06,-235.481 237.5,-231.09 257,-219 264.602,-214.287 273.533,-210.539 281.919,-207.661"/>
<text text-anchor="middle" x="229.5" y="-258" font-family="Helvetica,sans-Serif" font-size="10.00">erpc</text>
</g>
<!-- Node3 -->
<g id="node21" class="node"><title>Node3</title>
<g id="a_node21"><a xlink:href="group__infra__codec.html" target="_top" xlink:title="Classes used for message serialization. ">
<polygon fill="white" stroke="black" points="277,-152.5 277,-171.5 347,-171.5 347,-152.5 277,-152.5"/>
<text text-anchor="middle" x="312" y="-159.5" font-family="Helvetica,sans-Serif" font-size="10.00">Serialization</text>
</a>
</g>
</g>
<!-- Node0&#45;&gt;Node3 -->
<g id="edge3" class="edge"><title>Node0&#45;&gt;Node3</title>
<path fill="none" stroke="blueviolet" stroke-dasharray="5,2" d="M165.614,-418.411C167.988,-387.133 178.618,-286.063 220,-216 231.512,-196.51 237.678,-192.793 257,-181 263.108,-177.272 270.052,-174.138 276.878,-171.559"/>
<text text-anchor="middle" x="229.5" y="-219" font-family="Helvetica,sans-Serif" font-size="10.00">erpc</text>
</g>
<!-- Node16 -->
<g id="node22" class="node"><title>Node16</title>
<g id="a_node22"><a xlink:href="group__rpmsg__lite__rtos__transport.html" target="_top" xlink:title="RPMsg&#45;Lite zero copy transport using RTOS API. ">
<polygon fill="white" stroke="black" points="263.5,-114.5 263.5,-133.5 360.5,-133.5 360.5,-114.5 263.5,-114.5"/>
<text text-anchor="middle" x="312" y="-121.5" font-family="Helvetica,sans-Serif" font-size="10.00">RPMsg&#45;Lite RTOS</text>
</a>
</g>
</g>
<!-- Node0&#45;&gt;Node16 -->
<g id="edge16" class="edge"><title>Node0&#45;&gt;Node16</title>
<path fill="none" stroke="blueviolet" stroke-dasharray="5,2" d="M165.082,-418.142C165.783,-382.921 171.76,-260.928 220,-177 231.129,-157.638 237.853,-154.497 257,-143 263.22,-139.265 270.283,-136.116 277.204,-133.521"/>
<text text-anchor="middle" x="229.5" y="-180" font-family="Helvetica,sans-Serif" font-size="10.00">erpc</text>
</g>
<!-- Node17 -->
<g id="node23" class="node"><title>Node17</title>
<g id="a_node23"><a xlink:href="group__rpmsg__lite__transport.html" target="_top" xlink:title="RPMsg&#45;Lite zero copy transport. ">
<polygon fill="white" stroke="black" points="278,-76.5 278,-95.5 346,-95.5 346,-76.5 278,-76.5"/>
<text text-anchor="middle" x="312" y="-83.5" font-family="Helvetica,sans-Serif" font-size="10.00">RPMsg&#45;Lite</text>
</a>
</g>
</g>
<!-- Node0&#45;&gt;Node17 -->
<g id="edge17" class="edge"><title>Node0&#45;&gt;Node17</title>
<path fill="none" stroke="blueviolet" stroke-dasharray="5,2" d="M164.715,-418.287C164.013,-380.048 165.358,-237.182 220,-139 230.86,-119.485 237.853,-116.497 257,-105 263.39,-101.163 270.671,-97.9434 277.772,-95.3089"/>
<text text-anchor="middle" x="229.5" y="-142" font-family="Helvetica,sans-Serif" font-size="10.00">erpc</text>
</g>
<!-- Node7 -->
<g id="node24" class="node"><title>Node7</title>
<g id="a_node24"><a xlink:href="group__port__setup__extensions.html" target="_top" xlink:title="Extension setup functions. ">
<polygon fill="white" stroke="black" points="267.5,-38.5 267.5,-57.5 356.5,-57.5 356.5,-38.5 267.5,-38.5"/>
<text text-anchor="middle" x="312" y="-45.5" font-family="Helvetica,sans-Serif" font-size="10.00">Extension Setup</text>
</a>
</g>
</g>
<!-- Node0&#45;&gt;Node7 -->
<g id="edge7" class="edge"><title>Node0&#45;&gt;Node7</title>
<path fill="none" stroke="blueviolet" stroke-dasharray="5,2" d="M165.784,-418.257C169.78,-370.186 188.908,-158.304 220,-101 231.858,-79.1451 256.8,-65.553 277.577,-57.6126"/>
<text text-anchor="middle" x="229.5" y="-104" font-family="Helvetica,sans-Serif" font-size="10.00">erpc</text>
</g>
<!-- Node14 -->
<g id="node25" class="node"><title>Node14</title>
<g id="a_node25"><a xlink:href="group__lpspi__slave__transport.html" target="_top" xlink:title="Lpspi_slave_transport">
<polygon fill="white" stroke="black" points="257,-0.5 257,-19.5 367,-19.5 367,-0.5 257,-0.5"/>
<text text-anchor="middle" x="312" y="-7.5" font-family="Helvetica,sans-Serif" font-size="10.00">Lpspi_slave_transport</text>
</a>
</g>
</g>
<!-- Node0&#45;&gt;Node14 -->
<g id="edge14" class="edge"><title>Node0&#45;&gt;Node14</title>
<path fill="none" stroke="blueviolet" stroke-dasharray="5,2" d="M165.619,-418.207C168.991,-366.855 186.254,-128.573 220,-64 230.484,-43.9383 237.678,-40.7925 257,-29 263.108,-25.2722 270.052,-22.1384 276.878,-19.5592"/>
<text text-anchor="middle" x="229.5" y="-67" font-family="Helvetica,sans-Serif" font-size="10.00">erpc</text>
</g>
</g>
</svg>
