<?xml version="1.0" encoding="UTF-8" standalone="no"?>
<!DOCTYPE svg PUBLIC "-//W3C//DTD SVG 1.1//EN"
 "http://www.w3.org/Graphics/SVG/1.1/DTD/svg11.dtd">
<!-- Generated by graphviz version 2.38.0 (20140413.2041)
 -->
<!-- Title: Porting Pages: 1 -->
<svg width="143pt" height="104pt"
 viewBox="0.00 0.00 143.00 104.00" xmlns="http://www.w3.org/2000/svg" xmlns:xlink="http://www.w3.org/1999/xlink">
<g id="graph0" class="graph" transform="scale(1 1) rotate(0) translate(4 100)">
<title>Porting</title>
<polygon fill="white" stroke="none" points="-4,4 -4,-100 139,-100 139,4 -4,4"/>
<!-- Node2 -->
<g id="node1" class="node"><title>Node2</title>
<g id="a_node1"><a xlink:href="group__port__threads.html" target="_top" xlink:title="Threading model. ">
<polygon fill="white" stroke="black" points="83.5,-76.5 83.5,-95.5 134.5,-95.5 134.5,-76.5 83.5,-76.5"/>
<text text-anchor="middle" x="109" y="-83.5" font-family="Helvetica,sans-Serif" font-size="10.00">Threads</text>
</a>
</g>
</g>
<!-- Node1 -->
<g id="node2" class="node"><title>Node1</title>
<g id="a_node2"><a xlink:href="group__port__mem.html" target="_top" xlink:title="Memory allocation. ">
<polygon fill="white" stroke="black" points="83,-38.5 83,-57.5 135,-57.5 135,-38.5 83,-38.5"/>
<text text-anchor="middle" x="109" y="-45.5" font-family="Helvetica,sans-Serif" font-size="10.00">Memory</text>
</a>
</g>
</g>
<!-- Node3 -->
<g id="node3" class="node"><title>Node3</title>
<g id="a_node3"><a xlink:href="group__port__serial.html" target="_top" xlink:title="Serial port. ">
<polygon fill="white" stroke="black" points="88.5,-0.5 88.5,-19.5 129.5,-19.5 129.5,-0.5 88.5,-0.5"/>
<text text-anchor="middle" x="109" y="-7.5" font-family="Helvetica,sans-Serif" font-size="10.00">Serial</text>
</a>
</g>
</g>
<!-- Node0 -->
<g id="node4" class="node"><title>Node0</title>
<polygon fill="#bfbfbf" stroke="black" points="0,-38.5 0,-57.5 47,-57.5 47,-38.5 0,-38.5"/>
<text text-anchor="middle" x="23.5" y="-45.5" font-family="Helvetica,sans-Serif" font-size="10.00">Porting</text>
</g>
<!-- Node0&#45;&gt;Node2 -->
<g id="edge2" class="edge"><title>Node0&#45;&gt;Node2</title>
<path fill="none" stroke="black" d="M54.9425,-61.8541C65.5659,-66.6887 77.2458,-72.0041 86.9362,-76.4141"/>
<polygon fill="black" stroke="black" points="56.1221,-58.5456 45.5706,-57.589 53.2226,-64.9168 56.1221,-58.5456"/>
</g>
<!-- Node0&#45;&gt;Node1 -->
<g id="edge1" class="edge"><title>Node0&#45;&gt;Node1</title>
<path fill="none" stroke="black" d="M57.3219,-48C65.8172,-48 74.8299,-48 82.8623,-48"/>
<polygon fill="black" stroke="black" points="57.3168,-44.5001 47.3167,-48 57.3167,-51.5001 57.3168,-44.5001"/>
</g>
<!-- Node0&#45;&gt;Node3 -->
<g id="edge3" class="edge"><title>Node0&#45;&gt;Node3</title>
<path fill="none" stroke="black" d="M54.9772,-34.1301C66.1211,-29.0586 78.4233,-23.46 88.3702,-18.9333"/>
<polygon fill="black" stroke="black" points="53.2226,-31.0832 45.5706,-38.411 56.1221,-37.4544 53.2226,-31.0832"/>
</g>
</g>
</svg>
