<?xml version="1.0" encoding="UTF-8" standalone="no"?>
<!DOCTYPE svg PUBLIC "-//W3C//DTD SVG 1.1//EN"
 "http://www.w3.org/Graphics/SVG/1.1/DTD/svg11.dtd">
<!-- Generated by graphviz version 2.38.0 (20140413.2041)
 -->
<!-- Title: RPMsg&#45;Lite RTOS Pages: 1 -->
<svg width="457pt" height="888pt"
 viewBox="0.00 0.00 457.00 887.57" xmlns="http://www.w3.org/2000/svg" xmlns:xlink="http://www.w3.org/1999/xlink">
<g id="graph0" class="graph" transform="scale(1 1) rotate(0) translate(4 883.574)">
<title>RPMsg&#45;Lite RTOS</title>
<polygon fill="white" stroke="none" points="-4,4 -4,-883.574 453,-883.574 453,4 -4,4"/>
<!-- Node1 -->
<g id="node1" class="node"><title>Node1</title>
<g id="a_node1"><a xlink:href="group__transports.html" target="_top" xlink:title="Transport layer classes. ">
<polygon fill="white" stroke="black" points="0,-418.074 0,-437.074 89,-437.074 89,-418.074 0,-418.074"/>
<text text-anchor="middle" x="44.5" y="-425.074" font-family="Helvetica,sans-Serif" font-size="10.00">Transport Layers</text>
</a>
</g>
</g>
<!-- Node0 -->
<g id="node22" class="node"><title>Node0</title>
<polygon fill="#bfbfbf" stroke="black" points="126,-418.074 126,-437.074 223,-437.074 223,-418.074 126,-418.074"/>
<text text-anchor="middle" x="174.5" y="-425.074" font-family="Helvetica,sans-Serif" font-size="10.00">RPMsg&#45;Lite RTOS</text>
</g>
<!-- Node1&#45;&gt;Node0 -->
<g id="edge1" class="edge"><title>Node1&#45;&gt;Node0</title>
<path fill="none" stroke="black" d="M99.2923,-427.574C108.032,-427.574 117.033,-427.574 125.62,-427.574"/>
<polygon fill="black" stroke="black" points="99.1924,-424.074 89.1923,-427.574 99.1923,-431.074 99.1924,-424.074"/>
</g>
<!-- Node11 -->
<g id="node2" class="node"><title>Node11</title>
<g id="a_node2"><a xlink:href="group__dspi__slave__transport.html" target="_top" xlink:title="MCUXpressoSDK DSPI slave driver transport. ">
<polygon fill="white" stroke="black" points="361.5,-855.074 361.5,-874.074 426.5,-874.074 426.5,-855.074 361.5,-855.074"/>
<text text-anchor="middle" x="394" y="-862.074" font-family="Helvetica,sans-Serif" font-size="10.00">DSPI Slave</text>
</a>
</g>
</g>
<!-- Node12 -->
<g id="node3" class="node"><title>Node12</title>
<g id="a_node3"><a xlink:href="group__i2c__slave__transport.html" target="_top" xlink:title="MCUXpressoSDK I2C slave driver transport. ">
<polygon fill="white" stroke="black" points="365.5,-817.074 365.5,-836.074 422.5,-836.074 422.5,-817.074 365.5,-817.074"/>
<text text-anchor="middle" x="394" y="-824.074" font-family="Helvetica,sans-Serif" font-size="10.00">I2C Slave</text>
</a>
</g>
</g>
<!-- Node9 -->
<g id="node4" class="node"><title>Node9</title>
<g id="a_node4"><a xlink:href="group__port__threads.html" target="_top" xlink:title="Threading model. ">
<polygon fill="white" stroke="black" points="368.5,-779.074 368.5,-798.074 419.5,-798.074 419.5,-779.074 368.5,-779.074"/>
<text text-anchor="middle" x="394" y="-786.074" font-family="Helvetica,sans-Serif" font-size="10.00">Threads</text>
</a>
</g>
</g>
<!-- Node16 -->
<g id="node5" class="node"><title>Node16</title>
<g id="a_node5"><a xlink:href="group__mu__transport.html" target="_top" xlink:title="Messaging Unit transport. ">
<polygon fill="white" stroke="black" points="352,-741.074 352,-760.074 436,-760.074 436,-741.074 352,-741.074"/>
<text text-anchor="middle" x="394" y="-748.074" font-family="Helvetica,sans-Serif" font-size="10.00">Messaging Unit</text>
</a>
</g>
</g>
<!-- Node22 -->
<g id="node6" class="node"><title>Node22</title>
<g id="a_node6"><a xlink:href="group__tcp__transport.html" target="_top" xlink:title="Simple TCP/IP transport. ">
<polygon fill="white" stroke="black" points="370.5,-703.074 370.5,-722.074 417.5,-722.074 417.5,-703.074 370.5,-703.074"/>
<text text-anchor="middle" x="394" y="-710.074" font-family="Helvetica,sans-Serif" font-size="10.00">TCP/IP</text>
</a>
</g>
</g>
<!-- Node3 -->
<g id="node7" class="node"><title>Node3</title>
<g id="a_node7"><a xlink:href="group__infra__client.html" target="_top" xlink:title="Client classes. ">
<polygon fill="white" stroke="black" points="373.5,-665.074 373.5,-684.074 414.5,-684.074 414.5,-665.074 373.5,-665.074"/>
<text text-anchor="middle" x="394" y="-672.074" font-family="Helvetica,sans-Serif" font-size="10.00">Client</text>
</a>
</g>
</g>
<!-- Node5 -->
<g id="node8" class="node"><title>Node5</title>
<g id="a_node8"><a xlink:href="group__infra__transport.html" target="_top" xlink:title="Superclasses for building transports. ">
<polygon fill="white" stroke="black" points="363,-627.074 363,-646.074 425,-646.074 425,-627.074 363,-627.074"/>
<text text-anchor="middle" x="394" y="-634.074" font-family="Helvetica,sans-Serif" font-size="10.00">Transports</text>
</a>
</g>
</g>
<!-- Node18 -->
<g id="node9" class="node"><title>Node18</title>
<g id="a_node9"><a xlink:href="group__serial__transport.html" target="_top" xlink:title="POSIX and Win32 serial port transport. ">
<polygon fill="white" stroke="black" points="363.5,-589.074 363.5,-608.074 424.5,-608.074 424.5,-589.074 363.5,-589.074"/>
<text text-anchor="middle" x="394" y="-596.074" font-family="Helvetica,sans-Serif" font-size="10.00">Serial port</text>
</a>
</g>
</g>
<!-- Node6 -->
<g id="node10" class="node"><title>Node6</title>
<g id="a_node10"><a xlink:href="group__infra__utility.html" target="_top" xlink:title="Utility code used by the infrastructure. ">
<polygon fill="white" stroke="black" points="369.5,-551.074 369.5,-570.074 418.5,-570.074 418.5,-551.074 369.5,-551.074"/>
<text text-anchor="middle" x="394" y="-558.074" font-family="Helvetica,sans-Serif" font-size="10.00">Utilities</text>
</a>
</g>
</g>
<!-- Node20 -->
<g id="node11" class="node"><title>Node20</title>
<g id="a_node11"><a xlink:href="group__spi__slave__transport.html" target="_top" xlink:title="MCUXpressoSDK SPI slave driver transport. ">
<polygon fill="white" stroke="black" points="364.5,-513.074 364.5,-532.074 423.5,-532.074 423.5,-513.074 364.5,-513.074"/>
<text text-anchor="middle" x="394" y="-520.074" font-family="Helvetica,sans-Serif" font-size="10.00">SPI Slave</text>
</a>
</g>
</g>
<!-- Node23 -->
<g id="node12" class="node"><title>Node23</title>
<g id="a_node12"><a xlink:href="group__uart__transport.html" target="_top" xlink:title="CMSIS UART driver transport. ">
<polygon fill="white" stroke="black" points="356,-475.074 356,-494.074 432,-494.074 432,-475.074 356,-475.074"/>
<text text-anchor="middle" x="394" y="-482.074" font-family="Helvetica,sans-Serif" font-size="10.00">CMSIS UART</text>
</a>
</g>
</g>
<!-- Node21 -->
<g id="node13" class="node"><title>Node21</title>
<g id="a_node13"><a xlink:href="group__spidev__master__transport.html" target="_top" xlink:title="SPIdev Linux transport. ">
<polygon fill="white" stroke="black" points="341,-437.074 341,-456.074 447,-456.074 447,-437.074 341,-437.074"/>
<text text-anchor="middle" x="394" y="-444.074" font-family="Helvetica,sans-Serif" font-size="10.00">SPIdev Linux Master</text>
</a>
</g>
</g>
<!-- Node19 -->
<g id="node14" class="node"><title>Node19</title>
<g id="a_node14"><a xlink:href="group__spi__master__transport.html" target="_top" xlink:title="MCUXpressoSDK SPI master driver transport. ">
<polygon fill="white" stroke="black" points="361.5,-399.074 361.5,-418.074 426.5,-418.074 426.5,-399.074 361.5,-399.074"/>
<text text-anchor="middle" x="394" y="-406.074" font-family="Helvetica,sans-Serif" font-size="10.00">SPI Master</text>
</a>
</g>
</g>
<!-- Node17 -->
<g id="node15" class="node"><title>Node17</title>
<g id="a_node15"><a xlink:href="group__rpmsg__tty__rtos__transport.html" target="_top" xlink:title="RPMsg TTY RTOS transport. ">
<polygon fill="white" stroke="black" points="345,-361.074 345,-380.074 443,-380.074 443,-361.074 345,-361.074"/>
<text text-anchor="middle" x="394" y="-368.074" font-family="Helvetica,sans-Serif" font-size="10.00">RPMsg TTY RTOS</text>
</a>
</g>
</g>
<!-- Node7 -->
<g id="node16" class="node"><title>Node7</title>
<g id="a_node16"><a xlink:href="group__infra__server.html" target="_top" xlink:title="Server classes. ">
<polygon fill="white" stroke="black" points="372,-323.074 372,-342.074 416,-342.074 416,-323.074 372,-323.074"/>
<text text-anchor="middle" x="394" y="-330.074" font-family="Helvetica,sans-Serif" font-size="10.00">Server</text>
</a>
</g>
</g>
<!-- Node14 -->
<g id="node17" class="node"><title>Node14</title>
<g id="a_node17"><a xlink:href="group__lpi2c__slave__transport.html" target="_top" xlink:title="Lpi2c_slave_transport">
<polygon fill="white" stroke="black" points="339,-285.074 339,-304.074 449,-304.074 449,-285.074 339,-285.074"/>
<text text-anchor="middle" x="394" y="-292.074" font-family="Helvetica,sans-Serif" font-size="10.00">Lpi2c_slave_transport</text>
</a>
</g>
</g>
<!-- Node13 -->
<g id="node18" class="node"><title>Node13</title>
<g id="a_node18"><a xlink:href="group__itbp__transport.html" target="_top" xlink:title="Simple inter&#45;thread communications transport. ">
<polygon fill="white" stroke="black" points="361.5,-247.074 361.5,-266.074 426.5,-266.074 426.5,-247.074 361.5,-247.074"/>
<text text-anchor="middle" x="394" y="-254.074" font-family="Helvetica,sans-Serif" font-size="10.00">Inter&#45;thread</text>
</a>
</g>
</g>
<!-- Node10 -->
<g id="node19" class="node"><title>Node10</title>
<g id="a_node19"><a xlink:href="group__dspi__master__transport.html" target="_top" xlink:title="MCUXpressoSDK DSPI master driver transport. ">
<polygon fill="white" stroke="black" points="358,-209.074 358,-228.074 430,-228.074 430,-209.074 358,-209.074"/>
<text text-anchor="middle" x="394" y="-216.074" font-family="Helvetica,sans-Serif" font-size="10.00">DSPI Master</text>
</a>
</g>
</g>
<!-- Node24 -->
<g id="node20" class="node"><title>Node24</title>
<g id="a_node20"><a xlink:href="group___u_s_b___c_d_c__transport.html" target="_top" xlink:title="USB CDC transport. ">
<polygon fill="white" stroke="black" points="364,-171.074 364,-190.074 424,-190.074 424,-171.074 364,-171.074"/>
<text text-anchor="middle" x="394" y="-178.074" font-family="Helvetica,sans-Serif" font-size="10.00">USB CDC</text>
</a>
</g>
</g>
<!-- Node4 -->
<g id="node21" class="node"><title>Node4</title>
<g id="a_node21"><a xlink:href="group__infra__codec.html" target="_top" xlink:title="Classes used for message serialization. ">
<polygon fill="white" stroke="black" points="359,-133.074 359,-152.074 429,-152.074 429,-133.074 359,-133.074"/>
<text text-anchor="middle" x="394" y="-140.074" font-family="Helvetica,sans-Serif" font-size="10.00">Serialization</text>
</a>
</g>
</g>
<!-- Node0&#45;&gt;Node11 -->
<g id="edge11" class="edge"><title>Node0&#45;&gt;Node11</title>
<path fill="none" stroke="blueviolet" stroke-dasharray="5,2" d="M175.577,-437.233C176.235,-493.578 182.453,-779.357 241,-838.574 272.246,-870.177 326.881,-871.727 361.435,-868.911"/>
<text text-anchor="middle" x="281" y="-871.574" font-family="Helvetica,sans-Serif" font-size="10.00">erpc</text>
</g>
<!-- Node0&#45;&gt;Node12 -->
<g id="edge12" class="edge"><title>Node0&#45;&gt;Node12</title>
<path fill="none" stroke="blueviolet" stroke-dasharray="5,2" d="M175.703,-437.149C177.042,-490.584 186.34,-751.438 241,-804.574 258.207,-821.301 326.363,-825.382 365.314,-826.331"/>
<text text-anchor="middle" x="281" y="-826.574" font-family="Helvetica,sans-Serif" font-size="10.00">erpc</text>
</g>
<!-- Node0&#45;&gt;Node9 -->
<g id="edge9" class="edge"><title>Node0&#45;&gt;Node9</title>
<path fill="none" stroke="blueviolet" stroke-dasharray="5,2" d="M175.962,-437.354C178.534,-487.525 192.774,-715.476 241,-762.574 274.998,-795.776 334.924,-795.436 368.478,-792.105"/>
<text text-anchor="middle" x="281" y="-795.574" font-family="Helvetica,sans-Serif" font-size="10.00">erpc</text>
</g>
<!-- Node0&#45;&gt;Node16 -->
<g id="edge16" class="edge"><title>Node0&#45;&gt;Node16</title>
<path fill="none" stroke="blueviolet" stroke-dasharray="5,2" d="M176.166,-437.309C179.59,-484.331 196.788,-687.375 241,-728.574 256.655,-743.162 312.426,-748.105 351.859,-749.764"/>
<text text-anchor="middle" x="281" y="-750.574" font-family="Helvetica,sans-Serif" font-size="10.00">erpc</text>
</g>
<!-- Node0&#45;&gt;Node22 -->
<g id="edge23" class="edge"><title>Node0&#45;&gt;Node22</title>
<path fill="none" stroke="blueviolet" stroke-dasharray="5,2" d="M176.57,-437.293C181.472,-479.995 203.178,-650.411 241,-685.574 276.431,-718.514 337.463,-718.426 370.381,-715.509"/>
<text text-anchor="middle" x="281" y="-718.574" font-family="Helvetica,sans-Serif" font-size="10.00">erpc</text>
</g>
<!-- Node0&#45;&gt;Node3 -->
<g id="edge3" class="edge"><title>Node0&#45;&gt;Node3</title>
<path fill="none" stroke="blueviolet" stroke-dasharray="5,2" d="M174.977,-437.128C173.631,-472.138 174.066,-594.384 241,-652.574 260.418,-669.456 336.95,-673.387 373.443,-674.3"/>
<text text-anchor="middle" x="281" y="-673.574" font-family="Helvetica,sans-Serif" font-size="10.00">erpc</text>
</g>
<!-- Node0&#45;&gt;Node5 -->
<g id="edge5" class="edge"><title>Node0&#45;&gt;Node5</title>
<path fill="none" stroke="blueviolet" stroke-dasharray="5,2" d="M175.652,-437.179C176.707,-468.274 184.551,-566.871 241,-613.574 275.239,-641.901 329.238,-643.11 362.81,-640.493"/>
<text text-anchor="middle" x="281" y="-642.574" font-family="Helvetica,sans-Serif" font-size="10.00">erpc</text>
</g>
<!-- Node0&#45;&gt;Node18 -->
<g id="edge19" class="edge"><title>Node0&#45;&gt;Node18</title>
<path fill="none" stroke="blueviolet" stroke-dasharray="5,2" d="M176.819,-437.09C180.956,-463.084 196.19,-535.673 241,-570.574 276.353,-598.109 330.265,-601.635 363.478,-600.758"/>
<text text-anchor="middle" x="281" y="-601.574" font-family="Helvetica,sans-Serif" font-size="10.00">erpc</text>
</g>
<!-- Node0&#45;&gt;Node6 -->
<g id="edge6" class="edge"><title>Node0&#45;&gt;Node6</title>
<path fill="none" stroke="blueviolet" stroke-dasharray="5,2" d="M178.965,-437.369C186.684,-457.679 207.311,-504.409 241,-527.574 280.273,-554.578 337.645,-560.032 369.491,-560.816"/>
<text text-anchor="middle" x="281" y="-558.574" font-family="Helvetica,sans-Serif" font-size="10.00">erpc</text>
</g>
<!-- Node0&#45;&gt;Node20 -->
<g id="edge21" class="edge"><title>Node0&#45;&gt;Node20</title>
<path fill="none" stroke="blueviolet" stroke-dasharray="5,2" d="M183.27,-437.333C194.527,-450.783 216.702,-474.802 241,-487.574 280.67,-508.426 332.575,-516.945 364.316,-520.362"/>
<text text-anchor="middle" x="281" y="-515.574" font-family="Helvetica,sans-Serif" font-size="10.00">erpc</text>
</g>
<!-- Node0&#45;&gt;Node23 -->
<g id="edge24" class="edge"><title>Node0&#45;&gt;Node23</title>
<path fill="none" stroke="blueviolet" stroke-dasharray="5,2" d="M195.775,-437.142C208.527,-442.854 225.456,-449.886 241,-454.574 279.5,-466.186 324.871,-474.466 355.958,-479.346"/>
<text text-anchor="middle" x="281" y="-475.574" font-family="Helvetica,sans-Serif" font-size="10.00">erpc</text>
</g>
<!-- Node0&#45;&gt;Node21 -->
<g id="edge22" class="edge"><title>Node0&#45;&gt;Node21</title>
<path fill="none" stroke="blueviolet" stroke-dasharray="5,2" d="M223.231,-431.744C257.995,-434.78 305.058,-438.892 340.815,-442.015"/>
<text text-anchor="middle" x="281" y="-442.574" font-family="Helvetica,sans-Serif" font-size="10.00">erpc</text>
</g>
<!-- Node0&#45;&gt;Node19 -->
<g id="edge20" class="edge"><title>Node0&#45;&gt;Node19</title>
<path fill="none" stroke="blueviolet" stroke-dasharray="5,2" d="M214.446,-418.063C223.137,-416.273 232.343,-414.633 241,-413.574 282.408,-408.508 330.603,-407.791 361.434,-407.984"/>
<text text-anchor="middle" x="281" y="-416.574" font-family="Helvetica,sans-Serif" font-size="10.00">erpc</text>
</g>
<!-- Node0&#45;&gt;Node17 -->
<g id="edge18" class="edge"><title>Node0&#45;&gt;Node17</title>
<path fill="none" stroke="blueviolet" stroke-dasharray="5,2" d="M189.928,-417.965C202.78,-409.88 222.38,-398.687 241,-392.574 274.693,-381.511 314.404,-376.005 344.785,-373.268"/>
<text text-anchor="middle" x="281" y="-395.574" font-family="Helvetica,sans-Serif" font-size="10.00">erpc</text>
</g>
<!-- Node0&#45;&gt;Node7 -->
<g id="edge7" class="edge"><title>Node0&#45;&gt;Node7</title>
<path fill="none" stroke="blueviolet" stroke-dasharray="5,2" d="M181.86,-417.995C192.303,-403.102 214.583,-374.646 241,-360.574 283.51,-337.93 341.136,-333.275 371.78,-332.514"/>
<text text-anchor="middle" x="281" y="-363.574" font-family="Helvetica,sans-Serif" font-size="10.00">erpc</text>
</g>
<!-- Node0&#45;&gt;Node14 -->
<g id="edge14" class="edge"><title>Node0&#45;&gt;Node14</title>
<path fill="none" stroke="blueviolet" stroke-dasharray="5,2" d="M178.393,-418.066C185.363,-396.905 205.207,-345.88 241,-321.574 269.492,-302.226 307.678,-295.498 338.648,-293.597"/>
<text text-anchor="middle" x="281" y="-324.574" font-family="Helvetica,sans-Serif" font-size="10.00">erpc</text>
</g>
<!-- Node0&#45;&gt;Node13 -->
<g id="edge13" class="edge"><title>Node0&#45;&gt;Node13</title>
<path fill="none" stroke="blueviolet" stroke-dasharray="5,2" d="M176.593,-418.044C180.205,-391.306 194.326,-315.215 241,-279.574 275.682,-253.09 328.064,-251.054 361.39,-253.04"/>
<text text-anchor="middle" x="281" y="-282.574" font-family="Helvetica,sans-Serif" font-size="10.00">erpc</text>
</g>
<!-- Node0&#45;&gt;Node10 -->
<g id="edge10" class="edge"><title>Node0&#45;&gt;Node10</title>
<path fill="none" stroke="blueviolet" stroke-dasharray="5,2" d="M175.528,-417.708C176.203,-385.78 183.015,-284.616 241,-237.574 273.734,-211.017 324.201,-210.062 357.895,-213.186"/>
<text text-anchor="middle" x="281" y="-240.574" font-family="Helvetica,sans-Serif" font-size="10.00">erpc</text>
</g>
<!-- Node0&#45;&gt;Node24 -->
<g id="edge25" class="edge"><title>Node0&#45;&gt;Node24</title>
<path fill="none" stroke="blueviolet" stroke-dasharray="5,2" d="M176.786,-418.009C182.34,-378.204 205.601,-226.371 241,-196.574 275.206,-167.781 330.234,-169.96 363.855,-174.813"/>
<text text-anchor="middle" x="281" y="-199.574" font-family="Helvetica,sans-Serif" font-size="10.00">erpc</text>
</g>
<!-- Node0&#45;&gt;Node4 -->
<g id="edge4" class="edge"><title>Node0&#45;&gt;Node4</title>
<path fill="none" stroke="blueviolet" stroke-dasharray="5,2" d="M176.364,-417.888C180.511,-373.729 199.894,-192.103 241,-156.574 258.042,-141.844 319.479,-140.504 358.834,-141.265"/>
<text text-anchor="middle" x="281" y="-159.574" font-family="Helvetica,sans-Serif" font-size="10.00">erpc</text>
</g>
<!-- Node2 -->
<g id="node23" class="node"><title>Node2</title>
<g id="a_node23"><a xlink:href="group__rpmsg__lite__transport.html" target="_top" xlink:title="RPMsg&#45;Lite zero copy transport. ">
<polygon fill="white" stroke="black" points="360,-89.0739 360,-108.074 428,-108.074 428,-89.0739 360,-89.0739"/>
<text text-anchor="middle" x="394" y="-96.0739" font-family="Helvetica,sans-Serif" font-size="10.00">RPMsg&#45;Lite</text>
</a>
</g>
</g>
<!-- Node0&#45;&gt;Node2 -->
<g id="edge2" class="edge"><title>Node0&#45;&gt;Node2</title>
<path fill="none" stroke="orange" stroke-dasharray="5,2" d="M176.189,-417.836C179.717,-370.796 197.33,-167.624 241,-125.574 257.555,-109.633 320.146,-102.933 359.662,-100.247"/>
<text text-anchor="middle" x="281" y="-128.574" font-family="Helvetica,sans-Serif" font-size="10.00">erpc::RPMsgBase</text>
</g>
<!-- Node0&#45;&gt;Node2 -->
<g id="edge17" class="edge"><title>Node0&#45;&gt;Node2</title>
<path fill="none" stroke="blueviolet" stroke-dasharray="5,2" d="M175.788,-417.856C177.515,-366.988 188.296,-132.07 241,-88.5739 278.224,-57.8534 339.623,-76.0158 371.811,-88.9773"/>
<text text-anchor="middle" x="281" y="-91.5739" font-family="Helvetica,sans-Serif" font-size="10.00">erpc</text>
</g>
<!-- Node8 -->
<g id="node24" class="node"><title>Node8</title>
<g id="a_node24"><a xlink:href="group__port__setup__extensions.html" target="_top" xlink:title="Extension setup functions. ">
<polygon fill="white" stroke="black" points="349.5,-45.0739 349.5,-64.0739 438.5,-64.0739 438.5,-45.0739 349.5,-45.0739"/>
<text text-anchor="middle" x="394" y="-52.0739" font-family="Helvetica,sans-Serif" font-size="10.00">Extension Setup</text>
</a>
</g>
</g>
<!-- Node0&#45;&gt;Node8 -->
<g id="edge8" class="edge"><title>Node0&#45;&gt;Node8</title>
<path fill="none" stroke="blueviolet" stroke-dasharray="5,2" d="M175.622,-418.033C176.52,-364.805 183.819,-105.188 241,-56.5739 274.88,-27.7699 330.011,-36.0172 363.741,-45.0201"/>
<text text-anchor="middle" x="281" y="-59.5739" font-family="Helvetica,sans-Serif" font-size="10.00">erpc</text>
</g>
<!-- Node15 -->
<g id="node25" class="node"><title>Node15</title>
<g id="a_node25"><a xlink:href="group__lpspi__slave__transport.html" target="_top" xlink:title="Lpspi_slave_transport">
<polygon fill="white" stroke="black" points="339,-7.07392 339,-26.0739 449,-26.0739 449,-7.07392 339,-7.07392"/>
<text text-anchor="middle" x="394" y="-14.0739" font-family="Helvetica,sans-Serif" font-size="10.00">Lpspi_slave_transport</text>
</a>
</g>
</g>
<!-- Node0&#45;&gt;Node15 -->
<g id="edge15" class="edge"><title>Node0&#45;&gt;Node15</title>
<path fill="none" stroke="blueviolet" stroke-dasharray="5,2" d="M175.482,-417.91C175.595,-361.552 179.238,-75.947 241,-21.5739 273.6,7.12607 327.066,1.00662 361.121,-7.03426"/>
<text text-anchor="middle" x="281" y="-24.5739" font-family="Helvetica,sans-Serif" font-size="10.00">erpc</text>
</g>
</g>
</svg>
