<?xml version="1.0" encoding="UTF-8" standalone="no"?>
<!DOCTYPE svg PUBLIC "-//W3C//DTD SVG 1.1//EN"
 "http://www.w3.org/Graphics/SVG/1.1/DTD/svg11.dtd">
<!-- Generated by graphviz version 2.38.0 (20140413.2041)
 -->
<!-- Title: DSPI Master Pages: 1 -->
<svg width="371pt" height="864pt"
 viewBox="0.00 0.00 371.00 864.00" xmlns="http://www.w3.org/2000/svg" xmlns:xlink="http://www.w3.org/1999/xlink">
<g id="graph0" class="graph" transform="scale(1 1) rotate(0) translate(4 860)">
<title>DSPI Master</title>
<polygon fill="white" stroke="none" points="-4,4 -4,-860 367,-860 367,4 -4,4"/>
<!-- Node1 -->
<g id="node1" class="node"><title>Node1</title>
<g id="a_node1"><a xlink:href="group__transports.html" target="_top" xlink:title="Transport layer classes. ">
<polygon fill="white" stroke="black" points="0,-418.5 0,-437.5 89,-437.5 89,-418.5 0,-418.5"/>
<text text-anchor="middle" x="44.5" y="-425.5" font-family="Helvetica,sans-Serif" font-size="10.00">Transport Layers</text>
</a>
</g>
</g>
<!-- Node0 -->
<g id="node19" class="node"><title>Node0</title>
<polygon fill="#bfbfbf" stroke="black" points="126,-418.5 126,-437.5 198,-437.5 198,-418.5 126,-418.5"/>
<text text-anchor="middle" x="162" y="-425.5" font-family="Helvetica,sans-Serif" font-size="10.00">DSPI Master</text>
</g>
<!-- Node1&#45;&gt;Node0 -->
<g id="edge1" class="edge"><title>Node1&#45;&gt;Node0</title>
<path fill="none" stroke="black" d="M99.2729,-428C108.316,-428 117.491,-428 125.903,-428"/>
<polygon fill="black" stroke="black" points="99.1656,-424.5 89.1656,-428 99.1656,-431.5 99.1656,-424.5"/>
</g>
<!-- Node9 -->
<g id="node2" class="node"><title>Node9</title>
<g id="a_node2"><a xlink:href="group__dspi__slave__transport.html" target="_top" xlink:title="MCUXpressoSDK DSPI slave driver transport. ">
<polygon fill="white" stroke="black" points="275.5,-836.5 275.5,-855.5 340.5,-855.5 340.5,-836.5 275.5,-836.5"/>
<text text-anchor="middle" x="308" y="-843.5" font-family="Helvetica,sans-Serif" font-size="10.00">DSPI Slave</text>
</a>
</g>
</g>
<!-- Node10 -->
<g id="node3" class="node"><title>Node10</title>
<g id="a_node3"><a xlink:href="group__i2c__slave__transport.html" target="_top" xlink:title="MCUXpressoSDK I2C slave driver transport. ">
<polygon fill="white" stroke="black" points="279.5,-798.5 279.5,-817.5 336.5,-817.5 336.5,-798.5 279.5,-798.5"/>
<text text-anchor="middle" x="308" y="-805.5" font-family="Helvetica,sans-Serif" font-size="10.00">I2C Slave</text>
</a>
</g>
</g>
<!-- Node8 -->
<g id="node4" class="node"><title>Node8</title>
<g id="a_node4"><a xlink:href="group__port__threads.html" target="_top" xlink:title="Threading model. ">
<polygon fill="white" stroke="black" points="282.5,-760.5 282.5,-779.5 333.5,-779.5 333.5,-760.5 282.5,-760.5"/>
<text text-anchor="middle" x="308" y="-767.5" font-family="Helvetica,sans-Serif" font-size="10.00">Threads</text>
</a>
</g>
</g>
<!-- Node14 -->
<g id="node5" class="node"><title>Node14</title>
<g id="a_node5"><a xlink:href="group__mu__transport.html" target="_top" xlink:title="Messaging Unit transport. ">
<polygon fill="white" stroke="black" points="266,-722.5 266,-741.5 350,-741.5 350,-722.5 266,-722.5"/>
<text text-anchor="middle" x="308" y="-729.5" font-family="Helvetica,sans-Serif" font-size="10.00">Messaging Unit</text>
</a>
</g>
</g>
<!-- Node22 -->
<g id="node6" class="node"><title>Node22</title>
<g id="a_node6"><a xlink:href="group__tcp__transport.html" target="_top" xlink:title="Simple TCP/IP transport. ">
<polygon fill="white" stroke="black" points="284.5,-684.5 284.5,-703.5 331.5,-703.5 331.5,-684.5 284.5,-684.5"/>
<text text-anchor="middle" x="308" y="-691.5" font-family="Helvetica,sans-Serif" font-size="10.00">TCP/IP</text>
</a>
</g>
</g>
<!-- Node2 -->
<g id="node7" class="node"><title>Node2</title>
<g id="a_node7"><a xlink:href="group__infra__client.html" target="_top" xlink:title="Client classes. ">
<polygon fill="white" stroke="black" points="287.5,-646.5 287.5,-665.5 328.5,-665.5 328.5,-646.5 287.5,-646.5"/>
<text text-anchor="middle" x="308" y="-653.5" font-family="Helvetica,sans-Serif" font-size="10.00">Client</text>
</a>
</g>
</g>
<!-- Node4 -->
<g id="node8" class="node"><title>Node4</title>
<g id="a_node8"><a xlink:href="group__infra__transport.html" target="_top" xlink:title="Superclasses for building transports. ">
<polygon fill="white" stroke="black" points="277,-608.5 277,-627.5 339,-627.5 339,-608.5 277,-608.5"/>
<text text-anchor="middle" x="308" y="-615.5" font-family="Helvetica,sans-Serif" font-size="10.00">Transports</text>
</a>
</g>
</g>
<!-- Node18 -->
<g id="node9" class="node"><title>Node18</title>
<g id="a_node9"><a xlink:href="group__serial__transport.html" target="_top" xlink:title="POSIX and Win32 serial port transport. ">
<polygon fill="white" stroke="black" points="277.5,-570.5 277.5,-589.5 338.5,-589.5 338.5,-570.5 277.5,-570.5"/>
<text text-anchor="middle" x="308" y="-577.5" font-family="Helvetica,sans-Serif" font-size="10.00">Serial port</text>
</a>
</g>
</g>
<!-- Node5 -->
<g id="node10" class="node"><title>Node5</title>
<g id="a_node10"><a xlink:href="group__infra__utility.html" target="_top" xlink:title="Utility code used by the infrastructure. ">
<polygon fill="white" stroke="black" points="283.5,-532.5 283.5,-551.5 332.5,-551.5 332.5,-532.5 283.5,-532.5"/>
<text text-anchor="middle" x="308" y="-539.5" font-family="Helvetica,sans-Serif" font-size="10.00">Utilities</text>
</a>
</g>
</g>
<!-- Node20 -->
<g id="node11" class="node"><title>Node20</title>
<g id="a_node11"><a xlink:href="group__spi__slave__transport.html" target="_top" xlink:title="MCUXpressoSDK SPI slave driver transport. ">
<polygon fill="white" stroke="black" points="278.5,-494.5 278.5,-513.5 337.5,-513.5 337.5,-494.5 278.5,-494.5"/>
<text text-anchor="middle" x="308" y="-501.5" font-family="Helvetica,sans-Serif" font-size="10.00">SPI Slave</text>
</a>
</g>
</g>
<!-- Node23 -->
<g id="node12" class="node"><title>Node23</title>
<g id="a_node12"><a xlink:href="group__uart__transport.html" target="_top" xlink:title="CMSIS UART driver transport. ">
<polygon fill="white" stroke="black" points="270,-456.5 270,-475.5 346,-475.5 346,-456.5 270,-456.5"/>
<text text-anchor="middle" x="308" y="-463.5" font-family="Helvetica,sans-Serif" font-size="10.00">CMSIS UART</text>
</a>
</g>
</g>
<!-- Node21 -->
<g id="node13" class="node"><title>Node21</title>
<g id="a_node13"><a xlink:href="group__spidev__master__transport.html" target="_top" xlink:title="SPIdev Linux transport. ">
<polygon fill="white" stroke="black" points="255,-418.5 255,-437.5 361,-437.5 361,-418.5 255,-418.5"/>
<text text-anchor="middle" x="308" y="-425.5" font-family="Helvetica,sans-Serif" font-size="10.00">SPIdev Linux Master</text>
</a>
</g>
</g>
<!-- Node19 -->
<g id="node14" class="node"><title>Node19</title>
<g id="a_node14"><a xlink:href="group__spi__master__transport.html" target="_top" xlink:title="MCUXpressoSDK SPI master driver transport. ">
<polygon fill="white" stroke="black" points="275.5,-380.5 275.5,-399.5 340.5,-399.5 340.5,-380.5 275.5,-380.5"/>
<text text-anchor="middle" x="308" y="-387.5" font-family="Helvetica,sans-Serif" font-size="10.00">SPI Master</text>
</a>
</g>
</g>
<!-- Node17 -->
<g id="node15" class="node"><title>Node17</title>
<g id="a_node15"><a xlink:href="group__rpmsg__tty__rtos__transport.html" target="_top" xlink:title="RPMsg TTY RTOS transport. ">
<polygon fill="white" stroke="black" points="259,-342.5 259,-361.5 357,-361.5 357,-342.5 259,-342.5"/>
<text text-anchor="middle" x="308" y="-349.5" font-family="Helvetica,sans-Serif" font-size="10.00">RPMsg TTY RTOS</text>
</a>
</g>
</g>
<!-- Node6 -->
<g id="node16" class="node"><title>Node6</title>
<g id="a_node16"><a xlink:href="group__infra__server.html" target="_top" xlink:title="Server classes. ">
<polygon fill="white" stroke="black" points="286,-304.5 286,-323.5 330,-323.5 330,-304.5 286,-304.5"/>
<text text-anchor="middle" x="308" y="-311.5" font-family="Helvetica,sans-Serif" font-size="10.00">Server</text>
</a>
</g>
</g>
<!-- Node12 -->
<g id="node17" class="node"><title>Node12</title>
<g id="a_node17"><a xlink:href="group__lpi2c__slave__transport.html" target="_top" xlink:title="Lpi2c_slave_transport">
<polygon fill="white" stroke="black" points="253,-266.5 253,-285.5 363,-285.5 363,-266.5 253,-266.5"/>
<text text-anchor="middle" x="308" y="-273.5" font-family="Helvetica,sans-Serif" font-size="10.00">Lpi2c_slave_transport</text>
</a>
</g>
</g>
<!-- Node11 -->
<g id="node18" class="node"><title>Node11</title>
<g id="a_node18"><a xlink:href="group__itbp__transport.html" target="_top" xlink:title="Simple inter&#45;thread communications transport. ">
<polygon fill="white" stroke="black" points="275.5,-228.5 275.5,-247.5 340.5,-247.5 340.5,-228.5 275.5,-228.5"/>
<text text-anchor="middle" x="308" y="-235.5" font-family="Helvetica,sans-Serif" font-size="10.00">Inter&#45;thread</text>
</a>
</g>
</g>
<!-- Node0&#45;&gt;Node9 -->
<g id="edge9" class="edge"><title>Node0&#45;&gt;Node9</title>
<path fill="none" stroke="blueviolet" stroke-dasharray="5,2" d="M163.579,-437.757C166.738,-488.918 182.986,-726.334 216,-791 226.433,-811.435 233.5,-814.91 253,-827 259.842,-831.242 267.76,-834.702 275.389,-837.45"/>
<text text-anchor="middle" x="225.5" y="-817" font-family="Helvetica,sans-Serif" font-size="10.00">erpc</text>
</g>
<!-- Node0&#45;&gt;Node10 -->
<g id="edge10" class="edge"><title>Node0&#45;&gt;Node10</title>
<path fill="none" stroke="blueviolet" stroke-dasharray="5,2" d="M163.757,-437.665C167.616,-485.354 186.081,-695.584 216,-753 226.603,-773.347 233.5,-776.91 253,-789 261.024,-793.975 270.529,-797.874 279.311,-800.811"/>
<text text-anchor="middle" x="225.5" y="-779" font-family="Helvetica,sans-Serif" font-size="10.00">erpc</text>
</g>
<!-- Node0&#45;&gt;Node8 -->
<g id="edge8" class="edge"><title>Node0&#45;&gt;Node8</title>
<path fill="none" stroke="blueviolet" stroke-dasharray="5,2" d="M162.732,-437.598C162.08,-475.393 163.455,-616.69 216,-715 226.815,-735.235 233.5,-738.91 253,-751 261.953,-756.551 272.75,-760.763 282.329,-763.793"/>
<text text-anchor="middle" x="225.5" y="-741" font-family="Helvetica,sans-Serif" font-size="10.00">erpc</text>
</g>
<!-- Node0&#45;&gt;Node14 -->
<g id="edge14" class="edge"><title>Node0&#45;&gt;Node14</title>
<path fill="none" stroke="blueviolet" stroke-dasharray="5,2" d="M163.088,-437.73C163.796,-472.505 169.648,-593.036 216,-677 227.089,-697.086 233.5,-700.91 253,-713 258.997,-716.718 265.821,-719.836 272.553,-722.399"/>
<text text-anchor="middle" x="225.5" y="-703" font-family="Helvetica,sans-Serif" font-size="10.00">erpc</text>
</g>
<!-- Node0&#45;&gt;Node22 -->
<g id="edge22" class="edge"><title>Node0&#45;&gt;Node22</title>
<path fill="none" stroke="blueviolet" stroke-dasharray="5,2" d="M163.637,-437.889C166.027,-469.224 176.461,-568.349 216,-638 227.481,-658.224 233.319,-662.61 253,-675 262.588,-681.036 274.345,-685.464 284.438,-688.519"/>
<text text-anchor="middle" x="225.5" y="-665" font-family="Helvetica,sans-Serif" font-size="10.00">erpc</text>
</g>
<!-- Node0&#45;&gt;Node2 -->
<g id="edge2" class="edge"><title>Node0&#45;&gt;Node2</title>
<path fill="none" stroke="blueviolet" stroke-dasharray="5,2" d="M164.347,-437.529C168.487,-464.522 182.808,-543.161 216,-599 228.045,-619.263 233.136,-624.309 253,-637 263.469,-643.688 276.589,-648.375 287.275,-651.42"/>
<text text-anchor="middle" x="225.5" y="-626" font-family="Helvetica,sans-Serif" font-size="10.00">erpc</text>
</g>
<!-- Node0&#45;&gt;Node4 -->
<g id="edge4" class="edge"><title>Node0&#45;&gt;Node4</title>
<path fill="none" stroke="blueviolet" stroke-dasharray="5,2" d="M165.484,-437.538C171.637,-460.102 189.062,-518.015 216,-560 228.902,-580.11 232.95,-586.006 253,-599 260.256,-603.702 268.817,-607.403 276.958,-610.24"/>
<text text-anchor="middle" x="225.5" y="-587" font-family="Helvetica,sans-Serif" font-size="10.00">erpc</text>
</g>
<!-- Node0&#45;&gt;Node18 -->
<g id="edge18" class="edge"><title>Node0&#45;&gt;Node18</title>
<path fill="none" stroke="blueviolet" stroke-dasharray="5,2" d="M166.42,-437.7C175.817,-462.801 204.601,-530.079 253,-561 260.37,-565.709 269.054,-569.425 277.278,-572.275"/>
<text text-anchor="middle" x="225.5" y="-548" font-family="Helvetica,sans-Serif" font-size="10.00">erpc</text>
</g>
<!-- Node0&#45;&gt;Node5 -->
<g id="edge5" class="edge"><title>Node0&#45;&gt;Node5</title>
<path fill="none" stroke="blueviolet" stroke-dasharray="5,2" d="M169.397,-437.775C182.6,-457.146 214.85,-500.477 253,-523 262.328,-528.507 273.503,-532.769 283.26,-535.848"/>
<text text-anchor="middle" x="225.5" y="-511" font-family="Helvetica,sans-Serif" font-size="10.00">erpc</text>
</g>
<!-- Node0&#45;&gt;Node20 -->
<g id="edge20" class="edge"><title>Node0&#45;&gt;Node20</title>
<path fill="none" stroke="blueviolet" stroke-dasharray="5,2" d="M175.855,-437.514C192.834,-449.751 223.984,-471.082 253,-485 260.975,-488.825 269.932,-492.287 278.224,-495.176"/>
<text text-anchor="middle" x="225.5" y="-478" font-family="Helvetica,sans-Serif" font-size="10.00">erpc</text>
</g>
<!-- Node0&#45;&gt;Node23 -->
<g id="edge23" class="edge"><title>Node0&#45;&gt;Node23</title>
<path fill="none" stroke="blueviolet" stroke-dasharray="5,2" d="M196.039,-437.506C202.641,-439.362 209.534,-441.268 216,-443 233.63,-447.722 253.251,-452.714 269.747,-456.837"/>
<text text-anchor="middle" x="225.5" y="-450" font-family="Helvetica,sans-Serif" font-size="10.00">erpc</text>
</g>
<!-- Node0&#45;&gt;Node21 -->
<g id="edge21" class="edge"><title>Node0&#45;&gt;Node21</title>
<path fill="none" stroke="blueviolet" stroke-dasharray="5,2" d="M198.226,-428C215.295,-428 236.134,-428 254.986,-428"/>
<text text-anchor="middle" x="225.5" y="-431" font-family="Helvetica,sans-Serif" font-size="10.00">erpc</text>
</g>
<!-- Node0&#45;&gt;Node19 -->
<g id="edge19" class="edge"><title>Node0&#45;&gt;Node19</title>
<path fill="none" stroke="blueviolet" stroke-dasharray="5,2" d="M196.039,-418.494C202.641,-416.638 209.534,-414.732 216,-413 235.676,-407.73 257.833,-402.123 275.357,-397.765"/>
<text text-anchor="middle" x="225.5" y="-416" font-family="Helvetica,sans-Serif" font-size="10.00">erpc</text>
</g>
<!-- Node0&#45;&gt;Node17 -->
<g id="edge17" class="edge"><title>Node0&#45;&gt;Node17</title>
<path fill="none" stroke="blueviolet" stroke-dasharray="5,2" d="M175.813,-418.398C192.747,-406.065 223.848,-384.631 253,-371 260.472,-367.506 268.776,-364.28 276.586,-361.517"/>
<text text-anchor="middle" x="225.5" y="-393" font-family="Helvetica,sans-Serif" font-size="10.00">erpc</text>
</g>
<!-- Node0&#45;&gt;Node6 -->
<g id="edge6" class="edge"><title>Node0&#45;&gt;Node6</title>
<path fill="none" stroke="blueviolet" stroke-dasharray="5,2" d="M169.167,-418.473C182.189,-399.162 214.483,-355.345 253,-333 263.23,-327.065 275.617,-322.542 285.946,-319.401"/>
<text text-anchor="middle" x="225.5" y="-364" font-family="Helvetica,sans-Serif" font-size="10.00">erpc</text>
</g>
<!-- Node0&#45;&gt;Node12 -->
<g id="edge12" class="edge"><title>Node0&#45;&gt;Node12</title>
<path fill="none" stroke="blueviolet" stroke-dasharray="5,2" d="M166.396,-418.263C175.737,-393.073 204.396,-325.598 253,-295 258.971,-291.241 265.784,-288.105 272.512,-285.537"/>
<text text-anchor="middle" x="225.5" y="-329" font-family="Helvetica,sans-Serif" font-size="10.00">erpc</text>
</g>
<!-- Node0&#45;&gt;Node11 -->
<g id="edge11" class="edge"><title>Node0&#45;&gt;Node11</title>
<path fill="none" stroke="blueviolet" stroke-dasharray="5,2" d="M165.431,-418.365C171.47,-395.577 188.668,-337.118 216,-295 228.832,-275.226 233.136,-269.691 253,-257 259.784,-252.666 267.681,-249.172 275.307,-246.421"/>
<text text-anchor="middle" x="225.5" y="-298" font-family="Helvetica,sans-Serif" font-size="10.00">erpc</text>
</g>
<!-- Node24 -->
<g id="node20" class="node"><title>Node24</title>
<g id="a_node20"><a xlink:href="group___u_s_b___c_d_c__transport.html" target="_top" xlink:title="USB CDC transport. ">
<polygon fill="white" stroke="black" points="278,-190.5 278,-209.5 338,-209.5 338,-190.5 278,-190.5"/>
<text text-anchor="middle" x="308" y="-197.5" font-family="Helvetica,sans-Serif" font-size="10.00">USB CDC</text>
</a>
</g>
</g>
<!-- Node0&#45;&gt;Node24 -->
<g id="edge24" class="edge"><title>Node0&#45;&gt;Node24</title>
<path fill="none" stroke="blueviolet" stroke-dasharray="5,2" d="M164.244,-418.313C168.111,-390.882 181.786,-311.032 216,-255 227.957,-235.418 233.5,-231.09 253,-219 260.602,-214.287 269.533,-210.539 277.919,-207.661"/>
<text text-anchor="middle" x="225.5" y="-258" font-family="Helvetica,sans-Serif" font-size="10.00">erpc</text>
</g>
<!-- Node3 -->
<g id="node21" class="node"><title>Node3</title>
<g id="a_node21"><a xlink:href="group__infra__codec.html" target="_top" xlink:title="Classes used for message serialization. ">
<polygon fill="white" stroke="black" points="273,-152.5 273,-171.5 343,-171.5 343,-152.5 273,-152.5"/>
<text text-anchor="middle" x="308" y="-159.5" font-family="Helvetica,sans-Serif" font-size="10.00">Serialization</text>
</a>
</g>
</g>
<!-- Node0&#45;&gt;Node3 -->
<g id="edge3" class="edge"><title>Node0&#45;&gt;Node3</title>
<path fill="none" stroke="blueviolet" stroke-dasharray="5,2" d="M163.503,-418.413C165.518,-387.141 175.022,-286.088 216,-216 227.425,-196.459 233.678,-192.793 253,-181 259.108,-177.272 266.052,-174.138 272.878,-171.559"/>
<text text-anchor="middle" x="225.5" y="-219" font-family="Helvetica,sans-Serif" font-size="10.00">erpc</text>
</g>
<!-- Node15 -->
<g id="node22" class="node"><title>Node15</title>
<g id="a_node22"><a xlink:href="group__rpmsg__lite__rtos__transport.html" target="_top" xlink:title="RPMsg&#45;Lite zero copy transport using RTOS API. ">
<polygon fill="white" stroke="black" points="259.5,-114.5 259.5,-133.5 356.5,-133.5 356.5,-114.5 259.5,-114.5"/>
<text text-anchor="middle" x="308" y="-121.5" font-family="Helvetica,sans-Serif" font-size="10.00">RPMsg&#45;Lite RTOS</text>
</a>
</g>
</g>
<!-- Node0&#45;&gt;Node15 -->
<g id="edge15" class="edge"><title>Node0&#45;&gt;Node15</title>
<path fill="none" stroke="blueviolet" stroke-dasharray="5,2" d="M162.984,-418.146C163.342,-382.934 168.158,-260.974 216,-177 227.055,-157.595 233.853,-154.497 253,-143 259.22,-139.265 266.283,-136.116 273.204,-133.521"/>
<text text-anchor="middle" x="225.5" y="-180" font-family="Helvetica,sans-Serif" font-size="10.00">erpc</text>
</g>
<!-- Node16 -->
<g id="node23" class="node"><title>Node16</title>
<g id="a_node23"><a xlink:href="group__rpmsg__lite__transport.html" target="_top" xlink:title="RPMsg&#45;Lite zero copy transport. ">
<polygon fill="white" stroke="black" points="274,-76.5 274,-95.5 342,-95.5 342,-76.5 274,-76.5"/>
<text text-anchor="middle" x="308" y="-83.5" font-family="Helvetica,sans-Serif" font-size="10.00">RPMsg&#45;Lite</text>
</a>
</g>
</g>
<!-- Node0&#45;&gt;Node16 -->
<g id="edge16" class="edge"><title>Node0&#45;&gt;Node16</title>
<path fill="none" stroke="blueviolet" stroke-dasharray="5,2" d="M162.631,-418.29C161.602,-380.064 161.755,-237.242 216,-139 226.795,-119.449 233.853,-116.497 253,-105 259.39,-101.163 266.671,-97.9434 273.772,-95.3089"/>
<text text-anchor="middle" x="225.5" y="-142" font-family="Helvetica,sans-Serif" font-size="10.00">erpc</text>
</g>
<!-- Node7 -->
<g id="node24" class="node"><title>Node7</title>
<g id="a_node24"><a xlink:href="group__port__setup__extensions.html" target="_top" xlink:title="Extension setup functions. ">
<polygon fill="white" stroke="black" points="263.5,-38.5 263.5,-57.5 352.5,-57.5 352.5,-38.5 263.5,-38.5"/>
<text text-anchor="middle" x="308" y="-45.5" font-family="Helvetica,sans-Serif" font-size="10.00">Extension Setup</text>
</a>
</g>
</g>
<!-- Node0&#45;&gt;Node7 -->
<g id="edge7" class="edge"><title>Node0&#45;&gt;Node7</title>
<path fill="none" stroke="blueviolet" stroke-dasharray="5,2" d="M163.719,-418.258C167.392,-370.194 185.109,-158.34 216,-101 227.793,-79.1099 252.739,-65.52 273.534,-57.5894"/>
<text text-anchor="middle" x="225.5" y="-104" font-family="Helvetica,sans-Serif" font-size="10.00">erpc</text>
</g>
<!-- Node13 -->
<g id="node25" class="node"><title>Node13</title>
<g id="a_node25"><a xlink:href="group__lpspi__slave__transport.html" target="_top" xlink:title="Lpspi_slave_transport">
<polygon fill="white" stroke="black" points="253,-0.5 253,-19.5 363,-19.5 363,-0.5 253,-0.5"/>
<text text-anchor="middle" x="308" y="-7.5" font-family="Helvetica,sans-Serif" font-size="10.00">Lpspi_slave_transport</text>
</a>
</g>
</g>
<!-- Node0&#45;&gt;Node13 -->
<g id="edge13" class="edge"><title>Node0&#45;&gt;Node13</title>
<path fill="none" stroke="blueviolet" stroke-dasharray="5,2" d="M163.559,-418.208C166.622,-366.863 182.454,-128.612 216,-64 226.43,-43.9101 233.678,-40.7925 253,-29 259.108,-25.2722 266.052,-22.1384 272.878,-19.5592"/>
<text text-anchor="middle" x="225.5" y="-67" font-family="Helvetica,sans-Serif" font-size="10.00">erpc</text>
</g>
</g>
</svg>
