<?xml version="1.0" encoding="UTF-8" standalone="no"?>
<!DOCTYPE svg PUBLIC "-//W3C//DTD SVG 1.1//EN"
 "http://www.w3.org/Graphics/SVG/1.1/DTD/svg11.dtd">
<!-- Generated by graphviz version 2.38.0 (20140413.2041)
 -->
<!-- Title: Inter&#45;thread Pages: 1 -->
<svg width="379pt" height="572pt"
 viewBox="0.00 0.00 379.00 571.50" xmlns="http://www.w3.org/2000/svg" xmlns:xlink="http://www.w3.org/1999/xlink">
<g id="graph0" class="graph" transform="scale(1 1) rotate(0) translate(4 567.5)">
<title>Inter&#45;thread</title>
<polygon fill="white" stroke="none" points="-4,4 -4,-567.5 375,-567.5 375,4 -4,4"/>
<!-- Node1 -->
<g id="node1" class="node"><title>Node1</title>
<g id="a_node1"><a xlink:href="group__transports.html" target="_top" xlink:title="Transport layer classes. ">
<polygon fill="white" stroke="black" points="0,-278 0,-297 89,-297 89,-278 0,-278"/>
<text text-anchor="middle" x="44.5" y="-285" font-family="Helvetica,sans-Serif" font-size="10.00">Transport Layers</text>
</a>
</g>
</g>
<!-- Node0 -->
<g id="node14" class="node"><title>Node0</title>
<polygon fill="#bfbfbf" stroke="black" points="126,-278 126,-297 191,-297 191,-278 126,-278"/>
<text text-anchor="middle" x="158.5" y="-285" font-family="Helvetica,sans-Serif" font-size="10.00">Inter&#45;thread</text>
</g>
<!-- Node1&#45;&gt;Node0 -->
<g id="edge1" class="edge"><title>Node1&#45;&gt;Node0</title>
<path fill="none" stroke="black" d="M99.3357,-287.5C108.456,-287.5 117.653,-287.5 125.957,-287.5"/>
<polygon fill="black" stroke="black" points="99.1229,-284 89.1228,-287.5 99.1228,-291 99.1229,-284"/>
</g>
<!-- Node9 -->
<g id="node2" class="node"><title>Node9</title>
<g id="a_node2"><a xlink:href="group__dspi__slave__transport.html" target="_top" xlink:title="Kinetis SDK DSPI slave driver transport. ">
<polygon fill="white" stroke="black" points="276,-544 276,-563 341,-563 341,-544 276,-544"/>
<text text-anchor="middle" x="308.5" y="-551" font-family="Helvetica,sans-Serif" font-size="10.00">DSPI Slave</text>
</a>
</g>
</g>
<!-- Node7 -->
<g id="node3" class="node"><title>Node7</title>
<g id="a_node3"><a xlink:href="group__port__threads.html" target="_top" xlink:title="Threading model. ">
<polygon fill="white" stroke="black" points="283,-506 283,-525 334,-525 334,-506 283,-506"/>
<text text-anchor="middle" x="308.5" y="-513" font-family="Helvetica,sans-Serif" font-size="10.00">Threads</text>
</a>
</g>
</g>
<!-- Node15 -->
<g id="node4" class="node"><title>Node15</title>
<g id="a_node4"><a xlink:href="group__tcp__transport.html" target="_top" xlink:title="Simple TCP/IP transport. ">
<polygon fill="white" stroke="black" points="285,-468 285,-487 332,-487 332,-468 285,-468"/>
<text text-anchor="middle" x="308.5" y="-475" font-family="Helvetica,sans-Serif" font-size="10.00">TCP/IP</text>
</a>
</g>
</g>
<!-- Node2 -->
<g id="node5" class="node"><title>Node2</title>
<g id="a_node5"><a xlink:href="group__infra__client.html" target="_top" xlink:title="Client classes. ">
<polygon fill="white" stroke="black" points="288,-430 288,-449 329,-449 329,-430 288,-430"/>
<text text-anchor="middle" x="308.5" y="-437" font-family="Helvetica,sans-Serif" font-size="10.00">Client</text>
</a>
</g>
</g>
<!-- Node11 -->
<g id="node6" class="node"><title>Node11</title>
<g id="a_node6"><a xlink:href="group__rpmsg__lite__zc__transport.html" target="_top" xlink:title="Rpmsg_lite_zc_transport">
<polygon fill="white" stroke="black" points="246,-392 246,-411 371,-411 371,-392 246,-392"/>
<text text-anchor="middle" x="308.5" y="-399" font-family="Helvetica,sans-Serif" font-size="10.00">Rpmsg_lite_zc_transport</text>
</a>
</g>
</g>
<!-- Node4 -->
<g id="node7" class="node"><title>Node4</title>
<g id="a_node7"><a xlink:href="group__infra__transport.html" target="_top" xlink:title="Superclasses for building transports. ">
<polygon fill="white" stroke="black" points="277.5,-354 277.5,-373 339.5,-373 339.5,-354 277.5,-354"/>
<text text-anchor="middle" x="308.5" y="-361" font-family="Helvetica,sans-Serif" font-size="10.00">Transports</text>
</a>
</g>
</g>
<!-- Node12 -->
<g id="node8" class="node"><title>Node12</title>
<g id="a_node8"><a xlink:href="group__serial__transport.html" target="_top" xlink:title="POSIX and Win32 serial port transport. ">
<polygon fill="white" stroke="black" points="278,-316 278,-335 339,-335 339,-316 278,-316"/>
<text text-anchor="middle" x="308.5" y="-323" font-family="Helvetica,sans-Serif" font-size="10.00">Serial port</text>
</a>
</g>
</g>
<!-- Node5 -->
<g id="node9" class="node"><title>Node5</title>
<g id="a_node9"><a xlink:href="group__infra__utility.html" target="_top" xlink:title="Utility code used by the infrastructure. ">
<polygon fill="white" stroke="black" points="284,-278 284,-297 333,-297 333,-278 284,-278"/>
<text text-anchor="middle" x="308.5" y="-285" font-family="Helvetica,sans-Serif" font-size="10.00">Utilities</text>
</a>
</g>
</g>
<!-- Node14 -->
<g id="node10" class="node"><title>Node14</title>
<g id="a_node10"><a xlink:href="group__spi__slave__transport.html" target="_top" xlink:title="Kinetis SDK SPI slave driver transport. ">
<polygon fill="white" stroke="black" points="279,-240 279,-259 338,-259 338,-240 279,-240"/>
<text text-anchor="middle" x="308.5" y="-247" font-family="Helvetica,sans-Serif" font-size="10.00">SPI Slave</text>
</a>
</g>
</g>
<!-- Node16 -->
<g id="node11" class="node"><title>Node16</title>
<g id="a_node11"><a xlink:href="group__uart__transport.html" target="_top" xlink:title="CMSIS UART driver transport. ">
<polygon fill="white" stroke="black" points="270.5,-202 270.5,-221 346.5,-221 346.5,-202 270.5,-202"/>
<text text-anchor="middle" x="308.5" y="-209" font-family="Helvetica,sans-Serif" font-size="10.00">CMSIS UART</text>
</a>
</g>
</g>
<!-- Node13 -->
<g id="node12" class="node"><title>Node13</title>
<g id="a_node12"><a xlink:href="group__spi__master__transport.html" target="_top" xlink:title="Kinetis SDK SPI master driver transport. ">
<polygon fill="white" stroke="black" points="276,-164 276,-183 341,-183 341,-164 276,-164"/>
<text text-anchor="middle" x="308.5" y="-171" font-family="Helvetica,sans-Serif" font-size="10.00">SPI Master</text>
</a>
</g>
</g>
<!-- Node6 -->
<g id="node13" class="node"><title>Node6</title>
<g id="a_node13"><a xlink:href="group__infra__server.html" target="_top" xlink:title="Server classes. ">
<polygon fill="white" stroke="black" points="286.5,-126 286.5,-145 330.5,-145 330.5,-126 286.5,-126"/>
<text text-anchor="middle" x="308.5" y="-133" font-family="Helvetica,sans-Serif" font-size="10.00">Server</text>
</a>
</g>
</g>
<!-- Node0&#45;&gt;Node9 -->
<g id="edge9" class="edge"><title>Node0&#45;&gt;Node9</title>
<path fill="none" stroke="blueviolet" stroke-dasharray="5,2" d="M159.755,-297.151C160.98,-328.629 168.07,-430.319 209,-500.5 220.251,-519.792 226.635,-523.376 246,-534.5 255.109,-539.732 265.82,-543.684 275.729,-546.59"/>
<text text-anchor="middle" x="218.5" y="-525.5" font-family="Helvetica,sans-Serif" font-size="10.00">erpc</text>
</g>
<!-- Node0&#45;&gt;Node7 -->
<g id="edge7" class="edge"><title>Node0&#45;&gt;Node7</title>
<path fill="none" stroke="blueviolet" stroke-dasharray="5,2" d="M160.451,-297.266C163.509,-324.917 174.962,-405.375 209,-461.5 220.738,-480.855 226.454,-485.083 246,-496.5 257.29,-503.094 271.106,-507.63 282.781,-510.611"/>
<text text-anchor="middle" x="218.5" y="-488.5" font-family="Helvetica,sans-Serif" font-size="10.00">erpc</text>
</g>
<!-- Node0&#45;&gt;Node15 -->
<g id="edge15" class="edge"><title>Node0&#45;&gt;Node15</title>
<path fill="none" stroke="blueviolet" stroke-dasharray="5,2" d="M161.626,-297.143C166.953,-319.949 182.388,-378.445 209,-420.5 221.605,-440.419 225.894,-446.195 246,-458.5 257.819,-465.733 272.618,-470.417 284.736,-473.324"/>
<text text-anchor="middle" x="218.5" y="-449.5" font-family="Helvetica,sans-Serif" font-size="10.00">erpc</text>
</g>
<!-- Node0&#45;&gt;Node2 -->
<g id="edge2" class="edge"><title>Node0&#45;&gt;Node2</title>
<path fill="none" stroke="blueviolet" stroke-dasharray="5,2" d="M162.405,-297.054C170.675,-322.401 196.97,-391.398 246,-420.5 258.973,-428.2 275.366,-433.063 287.965,-435.939"/>
<text text-anchor="middle" x="218.5" y="-408.5" font-family="Helvetica,sans-Serif" font-size="10.00">erpc</text>
</g>
<!-- Node0&#45;&gt;Node11 -->
<g id="edge11" class="edge"><title>Node0&#45;&gt;Node11</title>
<path fill="none" stroke="blueviolet" stroke-dasharray="5,2" d="M165.254,-297.167C177.45,-316.737 207.93,-361.006 246,-382.5 252.714,-386.291 260.277,-389.419 267.743,-391.965"/>
<text text-anchor="middle" x="218.5" y="-372.5" font-family="Helvetica,sans-Serif" font-size="10.00">erpc</text>
</g>
<!-- Node0&#45;&gt;Node4 -->
<g id="edge4" class="edge"><title>Node0&#45;&gt;Node4</title>
<path fill="none" stroke="blueviolet" stroke-dasharray="5,2" d="M171.361,-297.171C187.377,-309.778 217.237,-331.723 246,-344.5 255.906,-348.901 267.135,-352.694 277.262,-355.709"/>
<text text-anchor="middle" x="218.5" y="-337.5" font-family="Helvetica,sans-Serif" font-size="10.00">erpc</text>
</g>
<!-- Node0&#45;&gt;Node12 -->
<g id="edge12" class="edge"><title>Node0&#45;&gt;Node12</title>
<path fill="none" stroke="blueviolet" stroke-dasharray="5,2" d="M189.777,-297.014C196.107,-298.908 202.755,-300.827 209,-302.5 231.899,-308.636 258.039,-314.697 277.633,-319.055"/>
<text text-anchor="middle" x="218.5" y="-310.5" font-family="Helvetica,sans-Serif" font-size="10.00">erpc</text>
</g>
<!-- Node0&#45;&gt;Node5 -->
<g id="edge5" class="edge"><title>Node0&#45;&gt;Node5</title>
<path fill="none" stroke="blueviolet" stroke-dasharray="5,2" d="M191.25,-287.5C218.939,-287.5 258.497,-287.5 283.584,-287.5"/>
<text text-anchor="middle" x="218.5" y="-290.5" font-family="Helvetica,sans-Serif" font-size="10.00">erpc</text>
</g>
<!-- Node0&#45;&gt;Node14 -->
<g id="edge14" class="edge"><title>Node0&#45;&gt;Node14</title>
<path fill="none" stroke="blueviolet" stroke-dasharray="5,2" d="M189.777,-277.986C196.107,-276.092 202.755,-274.173 209,-272.5 232.408,-266.228 259.202,-260.034 278.93,-255.657"/>
<text text-anchor="middle" x="218.5" y="-275.5" font-family="Helvetica,sans-Serif" font-size="10.00">erpc</text>
</g>
<!-- Node0&#45;&gt;Node16 -->
<g id="edge16" class="edge"><title>Node0&#45;&gt;Node16</title>
<path fill="none" stroke="blueviolet" stroke-dasharray="5,2" d="M171.399,-277.914C187.458,-265.401 217.365,-243.56 246,-230.5 253.931,-226.883 262.738,-223.706 271.151,-221.037"/>
<text text-anchor="middle" x="218.5" y="-253.5" font-family="Helvetica,sans-Serif" font-size="10.00">erpc</text>
</g>
<!-- Node0&#45;&gt;Node13 -->
<g id="edge13" class="edge"><title>Node0&#45;&gt;Node13</title>
<path fill="none" stroke="blueviolet" stroke-dasharray="5,2" d="M165.28,-277.879C177.525,-258.395 208.09,-214.276 246,-192.5 255.109,-187.268 265.82,-183.316 275.729,-180.41"/>
<text text-anchor="middle" x="218.5" y="-224.5" font-family="Helvetica,sans-Serif" font-size="10.00">erpc</text>
</g>
<!-- Node0&#45;&gt;Node6 -->
<g id="edge6" class="edge"><title>Node0&#45;&gt;Node6</title>
<path fill="none" stroke="blueviolet" stroke-dasharray="5,2" d="M162.427,-277.983C170.752,-252.728 197.171,-183.937 246,-154.5 258.346,-147.057 273.866,-142.291 286.226,-139.393"/>
<text text-anchor="middle" x="218.5" y="-189.5" font-family="Helvetica,sans-Serif" font-size="10.00">erpc</text>
</g>
<!-- Node8 -->
<g id="node15" class="node"><title>Node8</title>
<g id="a_node15"><a xlink:href="group__dspi__master__transport.html" target="_top" xlink:title="Kinetis SDK DSPI master driver transport. ">
<polygon fill="white" stroke="black" points="272.5,-88 272.5,-107 344.5,-107 344.5,-88 272.5,-88"/>
<text text-anchor="middle" x="308.5" y="-95" font-family="Helvetica,sans-Serif" font-size="10.00">DSPI Master</text>
</a>
</g>
</g>
<!-- Node0&#45;&gt;Node8 -->
<g id="edge8" class="edge"><title>Node0&#45;&gt;Node8</title>
<path fill="none" stroke="blueviolet" stroke-dasharray="5,2" d="M161.679,-277.953C167.12,-255.369 182.783,-197.416 209,-155.5 221.67,-135.243 225.702,-129.104 246,-116.5 253.975,-111.548 263.337,-107.8 272.319,-105"/>
<text text-anchor="middle" x="218.5" y="-158.5" font-family="Helvetica,sans-Serif" font-size="10.00">erpc</text>
</g>
<!-- Node3 -->
<g id="node16" class="node"><title>Node3</title>
<g id="a_node16"><a xlink:href="group__infra__codec.html" target="_top" xlink:title="Classes used for message serialization. ">
<polygon fill="white" stroke="black" points="273.5,-50 273.5,-69 343.5,-69 343.5,-50 273.5,-50"/>
<text text-anchor="middle" x="308.5" y="-57" font-family="Helvetica,sans-Serif" font-size="10.00">Serialization</text>
</a>
</g>
</g>
<!-- Node0&#45;&gt;Node3 -->
<g id="edge3" class="edge"><title>Node0&#45;&gt;Node3</title>
<path fill="none" stroke="blueviolet" stroke-dasharray="5,2" d="M160.557,-277.893C163.895,-250.682 176.012,-171.441 209,-115.5 220.813,-95.4677 226.083,-90.5069 246,-78.5 254.326,-73.4804 264.096,-69.6782 273.367,-66.8457"/>
<text text-anchor="middle" x="218.5" y="-118.5" font-family="Helvetica,sans-Serif" font-size="10.00">erpc</text>
</g>
<!-- Node10 -->
<g id="node17" class="node"><title>Node10</title>
<g id="a_node17"><a xlink:href="group__rpmsg__lite__zc__rtos__transport.html" target="_top" xlink:title="Rpmsg_lite_zc_rtos\l_transport">
<polygon fill="white" stroke="black" points="257,-0.5 257,-30.5 360,-30.5 360,-0.5 257,-0.5"/>
<text text-anchor="start" x="265" y="-18.5" font-family="Helvetica,sans-Serif" font-size="10.00">Rpmsg_lite_zc_rtos</text>
<text text-anchor="middle" x="308.5" y="-7.5" font-family="Helvetica,sans-Serif" font-size="10.00">_transport</text>
</a>
</g>
</g>
<!-- Node0&#45;&gt;Node10 -->
<g id="edge10" class="edge"><title>Node0&#45;&gt;Node10</title>
<path fill="none" stroke="blueviolet" stroke-dasharray="5,2" d="M159.859,-277.985C161.402,-246.942 169.357,-146.586 209,-76.5 220.296,-56.5295 226.795,-53.0527 246,-40.5 251.692,-36.7797 258.027,-33.4463 264.406,-30.5191"/>
<text text-anchor="middle" x="218.5" y="-79.5" font-family="Helvetica,sans-Serif" font-size="10.00">erpc</text>
</g>
</g>
</svg>
