<?xml version="1.0" encoding="UTF-8" standalone="no"?>
<!DOCTYPE svg PUBLIC "-//W3C//DTD SVG 1.1//EN"
 "http://www.w3.org/Graphics/SVG/1.1/DTD/svg11.dtd">
<!-- Generated by graphviz version 2.38.0 (20140413.2041)
 -->
<!-- Title: Threads Pages: 1 -->
<svg width="323pt" height="572pt"
 viewBox="0.00 0.00 323.00 571.50" xmlns="http://www.w3.org/2000/svg" xmlns:xlink="http://www.w3.org/1999/xlink">
<g id="graph0" class="graph" transform="scale(1 1) rotate(0) translate(4 567.5)">
<title>Threads</title>
<polygon fill="white" stroke="none" points="-4,4 -4,-567.5 319,-567.5 319,4 -4,4"/>
<!-- Node8 -->
<g id="node1" class="node"><title>Node8</title>
<g id="a_node1"><a xlink:href="group__dspi__slave__transport.html" target="_top" xlink:title="Kinetis SDK DSPI slave driver transport. ">
<polygon fill="white" stroke="black" points="220,-544 220,-563 285,-563 285,-544 220,-544"/>
<text text-anchor="middle" x="252.5" y="-551" font-family="Helvetica,sans-Serif" font-size="10.00">DSPI Slave</text>
</a>
</g>
</g>
<!-- Node0 -->
<g id="node2" class="node"><title>Node0</title>
<polygon fill="#bfbfbf" stroke="black" points="84,-278 84,-297 135,-297 135,-278 84,-278"/>
<text text-anchor="middle" x="109.5" y="-285" font-family="Helvetica,sans-Serif" font-size="10.00">Threads</text>
</g>
<!-- Node0&#45;&gt;Node8 -->
<g id="edge8" class="edge"><title>Node0&#45;&gt;Node8</title>
<path fill="none" stroke="blueviolet" stroke-dasharray="5,2" d="M110.362,-297.139C110.323,-328.578 113.446,-430.164 153,-500.5 163.947,-519.966 170.635,-523.376 190,-534.5 199.109,-539.732 209.82,-543.684 219.729,-546.59"/>
<text text-anchor="middle" x="162.5" y="-526.5" font-family="Helvetica,sans-Serif" font-size="10.00">erpc</text>
</g>
<!-- Node15 -->
<g id="node3" class="node"><title>Node15</title>
<g id="a_node3"><a xlink:href="group__tcp__transport.html" target="_top" xlink:title="Simple TCP/IP transport. ">
<polygon fill="white" stroke="black" points="229,-506 229,-525 276,-525 276,-506 229,-506"/>
<text text-anchor="middle" x="252.5" y="-513" font-family="Helvetica,sans-Serif" font-size="10.00">TCP/IP</text>
</a>
</g>
</g>
<!-- Node0&#45;&gt;Node15 -->
<g id="edge15" class="edge"><title>Node0&#45;&gt;Node15</title>
<path fill="none" stroke="blueviolet" stroke-dasharray="5,2" d="M110.915,-297.339C112.483,-325.193 119.801,-406.218 153,-462.5 164.347,-481.736 170.635,-485.376 190,-496.5 202.016,-503.402 216.82,-508.076 228.893,-511.06"/>
<text text-anchor="middle" x="162.5" y="-488.5" font-family="Helvetica,sans-Serif" font-size="10.00">erpc</text>
</g>
<!-- Node2 -->
<g id="node4" class="node"><title>Node2</title>
<g id="a_node4"><a xlink:href="group__infra__client.html" target="_top" xlink:title="Client classes. ">
<polygon fill="white" stroke="black" points="232,-468 232,-487 273,-487 273,-468 232,-468"/>
<text text-anchor="middle" x="252.5" y="-475" font-family="Helvetica,sans-Serif" font-size="10.00">Client</text>
</a>
</g>
</g>
<!-- Node0&#45;&gt;Node2 -->
<g id="edge2" class="edge"><title>Node0&#45;&gt;Node2</title>
<path fill="none" stroke="blueviolet" stroke-dasharray="5,2" d="M111.791,-297.096C115.266,-320.345 126.41,-380.901 153,-423.5 164.986,-442.702 170.454,-447.083 190,-458.5 202.93,-466.052 219.175,-470.904 231.72,-473.813"/>
<text text-anchor="middle" x="162.5" y="-450.5" font-family="Helvetica,sans-Serif" font-size="10.00">erpc</text>
</g>
<!-- Node11 -->
<g id="node5" class="node"><title>Node11</title>
<g id="a_node5"><a xlink:href="group__rpmsg__lite__zc__transport.html" target="_top" xlink:title="Rpmsg_lite_zc_transport">
<polygon fill="white" stroke="black" points="190,-430 190,-449 315,-449 315,-430 190,-430"/>
<text text-anchor="middle" x="252.5" y="-437" font-family="Helvetica,sans-Serif" font-size="10.00">Rpmsg_lite_zc_transport</text>
</a>
</g>
</g>
<!-- Node0&#45;&gt;Node11 -->
<g id="edge11" class="edge"><title>Node0&#45;&gt;Node11</title>
<path fill="none" stroke="blueviolet" stroke-dasharray="5,2" d="M113.37,-297.216C119.04,-315.43 132.893,-355.486 153,-384.5 166.069,-403.358 170.27,-408.789 190,-420.5 196.438,-424.322 203.719,-427.444 210.961,-429.972"/>
<text text-anchor="middle" x="162.5" y="-411.5" font-family="Helvetica,sans-Serif" font-size="10.00">erpc</text>
</g>
<!-- Node4 -->
<g id="node6" class="node"><title>Node4</title>
<g id="a_node6"><a xlink:href="group__infra__transport.html" target="_top" xlink:title="Superclasses for building transports. ">
<polygon fill="white" stroke="black" points="221.5,-392 221.5,-411 283.5,-411 283.5,-392 221.5,-392"/>
<text text-anchor="middle" x="252.5" y="-399" font-family="Helvetica,sans-Serif" font-size="10.00">Transports</text>
</a>
</g>
</g>
<!-- Node0&#45;&gt;Node4 -->
<g id="edge4" class="edge"><title>Node0&#45;&gt;Node4</title>
<path fill="none" stroke="blueviolet" stroke-dasharray="5,2" d="M115.292,-297.084C125.77,-316.906 152.789,-362.243 190,-382.5 199.717,-387.79 211.116,-391.829 221.442,-394.795"/>
<text text-anchor="middle" x="162.5" y="-372.5" font-family="Helvetica,sans-Serif" font-size="10.00">erpc</text>
</g>
<!-- Node12 -->
<g id="node7" class="node"><title>Node12</title>
<g id="a_node7"><a xlink:href="group__serial__transport.html" target="_top" xlink:title="POSIX and Win32 serial port transport. ">
<polygon fill="white" stroke="black" points="222,-354 222,-373 283,-373 283,-354 222,-354"/>
<text text-anchor="middle" x="252.5" y="-361" font-family="Helvetica,sans-Serif" font-size="10.00">Serial port</text>
</a>
</g>
</g>
<!-- Node0&#45;&gt;Node12 -->
<g id="edge12" class="edge"><title>Node0&#45;&gt;Node12</title>
<path fill="none" stroke="blueviolet" stroke-dasharray="5,2" d="M120.885,-297.252C129.229,-304.845 141.424,-315.418 153,-323.5 168.504,-334.324 172.643,-336.999 190,-344.5 200.155,-348.889 211.654,-352.725 221.937,-355.779"/>
<text text-anchor="middle" x="162.5" y="-339.5" font-family="Helvetica,sans-Serif" font-size="10.00">erpc</text>
</g>
<!-- Node5 -->
<g id="node8" class="node"><title>Node5</title>
<g id="a_node8"><a xlink:href="group__infra__utility.html" target="_top" xlink:title="Utility code used by the infrastructure. ">
<polygon fill="white" stroke="black" points="228,-316 228,-335 277,-335 277,-316 228,-316"/>
<text text-anchor="middle" x="252.5" y="-323" font-family="Helvetica,sans-Serif" font-size="10.00">Utilities</text>
</a>
</g>
</g>
<!-- Node0&#45;&gt;Node5 -->
<g id="edge5" class="edge"><title>Node0&#45;&gt;Node5</title>
<path fill="none" stroke="blueviolet" stroke-dasharray="5,2" d="M135.071,-296.688C140.908,-298.727 147.142,-300.788 153,-302.5 178.283,-309.889 207.755,-316.516 227.827,-320.736"/>
<text text-anchor="middle" x="162.5" y="-311.5" font-family="Helvetica,sans-Serif" font-size="10.00">erpc</text>
</g>
<!-- Node14 -->
<g id="node9" class="node"><title>Node14</title>
<g id="a_node9"><a xlink:href="group__spi__slave__transport.html" target="_top" xlink:title="Kinetis SDK SPI slave driver transport. ">
<polygon fill="white" stroke="black" points="223,-278 223,-297 282,-297 282,-278 223,-278"/>
<text text-anchor="middle" x="252.5" y="-285" font-family="Helvetica,sans-Serif" font-size="10.00">SPI Slave</text>
</a>
</g>
</g>
<!-- Node0&#45;&gt;Node14 -->
<g id="edge14" class="edge"><title>Node0&#45;&gt;Node14</title>
<path fill="none" stroke="blueviolet" stroke-dasharray="5,2" d="M135.06,-287.5C159.52,-287.5 197.046,-287.5 222.85,-287.5"/>
<text text-anchor="middle" x="162.5" y="-290.5" font-family="Helvetica,sans-Serif" font-size="10.00">erpc</text>
</g>
<!-- Node16 -->
<g id="node10" class="node"><title>Node16</title>
<g id="a_node10"><a xlink:href="group__uart__transport.html" target="_top" xlink:title="CMSIS UART driver transport. ">
<polygon fill="white" stroke="black" points="214.5,-240 214.5,-259 290.5,-259 290.5,-240 214.5,-240"/>
<text text-anchor="middle" x="252.5" y="-247" font-family="Helvetica,sans-Serif" font-size="10.00">CMSIS UART</text>
</a>
</g>
</g>
<!-- Node0&#45;&gt;Node16 -->
<g id="edge16" class="edge"><title>Node0&#45;&gt;Node16</title>
<path fill="none" stroke="blueviolet" stroke-dasharray="5,2" d="M135.071,-278.312C140.908,-276.273 147.142,-274.212 153,-272.5 173.058,-266.638 195.752,-261.256 214.298,-257.174"/>
<text text-anchor="middle" x="162.5" y="-275.5" font-family="Helvetica,sans-Serif" font-size="10.00">erpc</text>
</g>
<!-- Node13 -->
<g id="node11" class="node"><title>Node13</title>
<g id="a_node11"><a xlink:href="group__spi__master__transport.html" target="_top" xlink:title="Kinetis SDK SPI master driver transport. ">
<polygon fill="white" stroke="black" points="220,-202 220,-221 285,-221 285,-202 220,-202"/>
<text text-anchor="middle" x="252.5" y="-209" font-family="Helvetica,sans-Serif" font-size="10.00">SPI Master</text>
</a>
</g>
</g>
<!-- Node0&#45;&gt;Node13 -->
<g id="edge13" class="edge"><title>Node0&#45;&gt;Node13</title>
<path fill="none" stroke="blueviolet" stroke-dasharray="5,2" d="M121.32,-277.809C129.7,-270.5 141.739,-260.415 153,-252.5 168.652,-241.498 172.516,-238.267 190,-230.5 199.396,-226.326 209.981,-222.699 219.687,-219.763"/>
<text text-anchor="middle" x="162.5" y="-255.5" font-family="Helvetica,sans-Serif" font-size="10.00">erpc</text>
</g>
<!-- Node6 -->
<g id="node12" class="node"><title>Node6</title>
<g id="a_node12"><a xlink:href="group__infra__server.html" target="_top" xlink:title="Server classes. ">
<polygon fill="white" stroke="black" points="230.5,-164 230.5,-183 274.5,-183 274.5,-164 230.5,-164"/>
<text text-anchor="middle" x="252.5" y="-171" font-family="Helvetica,sans-Serif" font-size="10.00">Server</text>
</a>
</g>
</g>
<!-- Node0&#45;&gt;Node6 -->
<g id="edge6" class="edge"><title>Node0&#45;&gt;Node6</title>
<path fill="none" stroke="blueviolet" stroke-dasharray="5,2" d="M115.505,-277.706C126.193,-257.902 153.294,-213.224 190,-192.5 202.553,-185.413 218.071,-180.643 230.379,-177.656"/>
<text text-anchor="middle" x="162.5" y="-225.5" font-family="Helvetica,sans-Serif" font-size="10.00">erpc</text>
</g>
<!-- Node9 -->
<g id="node13" class="node"><title>Node9</title>
<g id="a_node13"><a xlink:href="group__itbp__transport.html" target="_top" xlink:title="Simple inter&#45;thread communications transport. ">
<polygon fill="white" stroke="black" points="220,-126 220,-145 285,-145 285,-126 220,-126"/>
<text text-anchor="middle" x="252.5" y="-133" font-family="Helvetica,sans-Serif" font-size="10.00">Inter&#45;thread</text>
</a>
</g>
</g>
<!-- Node0&#45;&gt;Node9 -->
<g id="edge9" class="edge"><title>Node0&#45;&gt;Node9</title>
<path fill="none" stroke="blueviolet" stroke-dasharray="5,2" d="M112.881,-277.907C119.765,-252.464 142.311,-183.25 190,-154.5 199.092,-149.019 209.905,-144.989 219.91,-142.089"/>
<text text-anchor="middle" x="162.5" y="-192.5" font-family="Helvetica,sans-Serif" font-size="10.00">erpc</text>
</g>
<!-- Node7 -->
<g id="node14" class="node"><title>Node7</title>
<g id="a_node14"><a xlink:href="group__dspi__master__transport.html" target="_top" xlink:title="Kinetis SDK DSPI master driver transport. ">
<polygon fill="white" stroke="black" points="216.5,-88 216.5,-107 288.5,-107 288.5,-88 216.5,-88"/>
<text text-anchor="middle" x="252.5" y="-95" font-family="Helvetica,sans-Serif" font-size="10.00">DSPI Master</text>
</a>
</g>
</g>
<!-- Node0&#45;&gt;Node7 -->
<g id="edge7" class="edge"><title>Node0&#45;&gt;Node7</title>
<path fill="none" stroke="blueviolet" stroke-dasharray="5,2" d="M112.064,-277.941C116.073,-255.333 128.193,-197.329 153,-155.5 165.187,-134.949 169.702,-129.104 190,-116.5 197.975,-111.548 207.337,-107.8 216.319,-105"/>
<text text-anchor="middle" x="162.5" y="-158.5" font-family="Helvetica,sans-Serif" font-size="10.00">erpc</text>
</g>
<!-- Node3 -->
<g id="node16" class="node"><title>Node3</title>
<g id="a_node16"><a xlink:href="group__infra__codec.html" target="_top" xlink:title="Classes used for message serialization. ">
<polygon fill="white" stroke="black" points="217.5,-50 217.5,-69 287.5,-69 287.5,-50 217.5,-50"/>
<text text-anchor="middle" x="252.5" y="-57" font-family="Helvetica,sans-Serif" font-size="10.00">Serialization</text>
</a>
</g>
</g>
<!-- Node0&#45;&gt;Node3 -->
<g id="edge3" class="edge"><title>Node0&#45;&gt;Node3</title>
<path fill="none" stroke="blueviolet" stroke-dasharray="5,2" d="M111.076,-277.897C113.071,-250.699 121.403,-171.486 153,-115.5 164.43,-95.247 170.083,-90.5069 190,-78.5 198.326,-73.4804 208.096,-69.6782 217.367,-66.8457"/>
<text text-anchor="middle" x="162.5" y="-118.5" font-family="Helvetica,sans-Serif" font-size="10.00">erpc</text>
</g>
<!-- Node10 -->
<g id="node17" class="node"><title>Node10</title>
<g id="a_node17"><a xlink:href="group__rpmsg__lite__zc__rtos__transport.html" target="_top" xlink:title="Rpmsg_lite_zc_rtos\l_transport">
<polygon fill="white" stroke="black" points="201,-0.5 201,-30.5 304,-30.5 304,-0.5 201,-0.5"/>
<text text-anchor="start" x="209" y="-18.5" font-family="Helvetica,sans-Serif" font-size="10.00">Rpmsg_lite_zc_rtos</text>
<text text-anchor="middle" x="252.5" y="-7.5" font-family="Helvetica,sans-Serif" font-size="10.00">_transport</text>
</a>
</g>
</g>
<!-- Node0&#45;&gt;Node10 -->
<g id="edge10" class="edge"><title>Node0&#45;&gt;Node10</title>
<path fill="none" stroke="blueviolet" stroke-dasharray="5,2" d="M110.467,-277.996C110.746,-246.985 114.737,-146.718 153,-76.5 164.694,-55.0403 187.475,-40.21 208.185,-30.5503"/>
<text text-anchor="middle" x="162.5" y="-79.5" font-family="Helvetica,sans-Serif" font-size="10.00">erpc</text>
</g>
<!-- Node1 -->
<g id="node15" class="node"><title>Node1</title>
<g id="a_node15"><a xlink:href="group__port.html" target="_top" xlink:title="Porting layer. ">
<polygon fill="white" stroke="black" points="0,-278 0,-297 47,-297 47,-278 0,-278"/>
<text text-anchor="middle" x="23.5" y="-285" font-family="Helvetica,sans-Serif" font-size="10.00">Porting</text>
</a>
</g>
</g>
<!-- Node1&#45;&gt;Node0 -->
<g id="edge1" class="edge"><title>Node1&#45;&gt;Node0</title>
<path fill="none" stroke="black" d="M57.084,-287.5C65.9853,-287.5 75.4816,-287.5 83.8595,-287.5"/>
<polygon fill="black" stroke="black" points="57.0105,-284 47.0105,-287.5 57.0104,-291 57.0105,-284"/>
</g>
</g>
</svg>
