<?xml version="1.0" encoding="UTF-8" standalone="no"?>
<!DOCTYPE svg PUBLIC "-//W3C//DTD SVG 1.1//EN"
 "http://www.w3.org/Graphics/SVG/1.1/DTD/svg11.dtd">
<!-- Generated by graphviz version 2.38.0 (20140413.2041)
 -->
<!-- Title: Server Pages: 1 -->
<svg width="342pt" height="572pt"
 viewBox="0.00 0.00 342.00 571.50" xmlns="http://www.w3.org/2000/svg" xmlns:xlink="http://www.w3.org/1999/xlink">
<g id="graph0" class="graph" transform="scale(1 1) rotate(0) translate(4 567.5)">
<title>Server</title>
<polygon fill="white" stroke="none" points="-4,4 -4,-567.5 338,-567.5 338,4 -4,4"/>
<!-- Node8 -->
<g id="node1" class="node"><title>Node8</title>
<g id="a_node1"><a xlink:href="group__dspi__slave__transport.html" target="_top" xlink:title="Kinetis SDK DSPI slave driver transport. ">
<polygon fill="white" stroke="black" points="239,-544 239,-563 304,-563 304,-544 239,-544"/>
<text text-anchor="middle" x="271.5" y="-551" font-family="Helvetica,sans-Serif" font-size="10.00">DSPI Slave</text>
</a>
</g>
</g>
<!-- Node6 -->
<g id="node2" class="node"><title>Node6</title>
<g id="a_node2"><a xlink:href="group__port__threads.html" target="_top" xlink:title="Threading model. ">
<polygon fill="white" stroke="black" points="246,-506 246,-525 297,-525 297,-506 246,-506"/>
<text text-anchor="middle" x="271.5" y="-513" font-family="Helvetica,sans-Serif" font-size="10.00">Threads</text>
</a>
</g>
</g>
<!-- Node15 -->
<g id="node3" class="node"><title>Node15</title>
<g id="a_node3"><a xlink:href="group__tcp__transport.html" target="_top" xlink:title="Simple TCP/IP transport. ">
<polygon fill="white" stroke="black" points="248,-468 248,-487 295,-487 295,-468 248,-468"/>
<text text-anchor="middle" x="271.5" y="-475" font-family="Helvetica,sans-Serif" font-size="10.00">TCP/IP</text>
</a>
</g>
</g>
<!-- Node1 -->
<g id="node4" class="node"><title>Node1</title>
<g id="a_node4"><a xlink:href="group__infra.html" target="_top" xlink:title="C++ core. ">
<polygon fill="white" stroke="black" points="0,-278 0,-297 73,-297 73,-278 0,-278"/>
<text text-anchor="middle" x="36.5" y="-285" font-family="Helvetica,sans-Serif" font-size="10.00">Infrastructure</text>
</a>
</g>
</g>
<!-- Node0 -->
<g id="node13" class="node"><title>Node0</title>
<polygon fill="#bfbfbf" stroke="black" points="110,-278 110,-297 154,-297 154,-278 110,-278"/>
<text text-anchor="middle" x="132" y="-285" font-family="Helvetica,sans-Serif" font-size="10.00">Server</text>
</g>
<!-- Node1&#45;&gt;Node0 -->
<g id="edge1" class="edge"><title>Node1&#45;&gt;Node0</title>
<path fill="none" stroke="black" d="M83.1489,-287.5C92.4819,-287.5 101.873,-287.5 109.835,-287.5"/>
<polygon fill="black" stroke="black" points="83.1151,-284 73.1151,-287.5 83.115,-291 83.1151,-284"/>
</g>
<!-- Node2 -->
<g id="node5" class="node"><title>Node2</title>
<g id="a_node5"><a xlink:href="group__infra__client.html" target="_top" xlink:title="Client classes. ">
<polygon fill="white" stroke="black" points="251,-430 251,-449 292,-449 292,-430 251,-430"/>
<text text-anchor="middle" x="271.5" y="-437" font-family="Helvetica,sans-Serif" font-size="10.00">Client</text>
</a>
</g>
</g>
<!-- Node11 -->
<g id="node6" class="node"><title>Node11</title>
<g id="a_node6"><a xlink:href="group__rpmsg__lite__zc__transport.html" target="_top" xlink:title="Rpmsg_lite_zc_transport">
<polygon fill="white" stroke="black" points="209,-392 209,-411 334,-411 334,-392 209,-392"/>
<text text-anchor="middle" x="271.5" y="-399" font-family="Helvetica,sans-Serif" font-size="10.00">Rpmsg_lite_zc_transport</text>
</a>
</g>
</g>
<!-- Node4 -->
<g id="node7" class="node"><title>Node4</title>
<g id="a_node7"><a xlink:href="group__infra__transport.html" target="_top" xlink:title="Superclasses for building transports. ">
<polygon fill="white" stroke="black" points="240.5,-354 240.5,-373 302.5,-373 302.5,-354 240.5,-354"/>
<text text-anchor="middle" x="271.5" y="-361" font-family="Helvetica,sans-Serif" font-size="10.00">Transports</text>
</a>
</g>
</g>
<!-- Node12 -->
<g id="node8" class="node"><title>Node12</title>
<g id="a_node8"><a xlink:href="group__serial__transport.html" target="_top" xlink:title="POSIX and Win32 serial port transport. ">
<polygon fill="white" stroke="black" points="241,-316 241,-335 302,-335 302,-316 241,-316"/>
<text text-anchor="middle" x="271.5" y="-323" font-family="Helvetica,sans-Serif" font-size="10.00">Serial port</text>
</a>
</g>
</g>
<!-- Node5 -->
<g id="node9" class="node"><title>Node5</title>
<g id="a_node9"><a xlink:href="group__infra__utility.html" target="_top" xlink:title="Utility code used by the infrastructure. ">
<polygon fill="white" stroke="black" points="247,-278 247,-297 296,-297 296,-278 247,-278"/>
<text text-anchor="middle" x="271.5" y="-285" font-family="Helvetica,sans-Serif" font-size="10.00">Utilities</text>
</a>
</g>
</g>
<!-- Node14 -->
<g id="node10" class="node"><title>Node14</title>
<g id="a_node10"><a xlink:href="group__spi__slave__transport.html" target="_top" xlink:title="Kinetis SDK SPI slave driver transport. ">
<polygon fill="white" stroke="black" points="242,-240 242,-259 301,-259 301,-240 242,-240"/>
<text text-anchor="middle" x="271.5" y="-247" font-family="Helvetica,sans-Serif" font-size="10.00">SPI Slave</text>
</a>
</g>
</g>
<!-- Node16 -->
<g id="node11" class="node"><title>Node16</title>
<g id="a_node11"><a xlink:href="group__uart__transport.html" target="_top" xlink:title="CMSIS UART driver transport. ">
<polygon fill="white" stroke="black" points="233.5,-202 233.5,-221 309.5,-221 309.5,-202 233.5,-202"/>
<text text-anchor="middle" x="271.5" y="-209" font-family="Helvetica,sans-Serif" font-size="10.00">CMSIS UART</text>
</a>
</g>
</g>
<!-- Node13 -->
<g id="node12" class="node"><title>Node13</title>
<g id="a_node12"><a xlink:href="group__spi__master__transport.html" target="_top" xlink:title="Kinetis SDK SPI master driver transport. ">
<polygon fill="white" stroke="black" points="239,-164 239,-183 304,-183 304,-164 239,-164"/>
<text text-anchor="middle" x="271.5" y="-171" font-family="Helvetica,sans-Serif" font-size="10.00">SPI Master</text>
</a>
</g>
</g>
<!-- Node0&#45;&gt;Node8 -->
<g id="edge8" class="edge"><title>Node0&#45;&gt;Node8</title>
<path fill="none" stroke="blueviolet" stroke-dasharray="5,2" d="M132.665,-297.131C131.99,-328.546 133.122,-430.066 172,-500.5 182.792,-520.052 189.635,-523.376 209,-534.5 218.109,-539.732 228.82,-543.684 238.729,-546.59"/>
<text text-anchor="middle" x="181.5" y="-526.5" font-family="Helvetica,sans-Serif" font-size="10.00">erpc</text>
</g>
<!-- Node0&#45;&gt;Node6 -->
<g id="edge6" class="edge"><title>Node0&#45;&gt;Node6</title>
<path fill="none" stroke="blueviolet" stroke-dasharray="5,2" d="M133.173,-297.332C134.065,-325.17 139.48,-406.155 172,-462.5 183.164,-481.843 189.635,-485.376 209,-496.5 220.337,-503.013 234.158,-507.541 245.823,-510.538"/>
<text text-anchor="middle" x="181.5" y="-488.5" font-family="Helvetica,sans-Serif" font-size="10.00">erpc</text>
</g>
<!-- Node0&#45;&gt;Node15 -->
<g id="edge15" class="edge"><title>Node0&#45;&gt;Node15</title>
<path fill="none" stroke="blueviolet" stroke-dasharray="5,2" d="M133.992,-297.095C136.752,-320.341 146.098,-380.893 172,-423.5 183.759,-442.842 189.454,-447.083 209,-458.5 220.965,-465.489 235.768,-470.165 247.853,-473.129"/>
<text text-anchor="middle" x="181.5" y="-450.5" font-family="Helvetica,sans-Serif" font-size="10.00">erpc</text>
</g>
<!-- Node0&#45;&gt;Node2 -->
<g id="edge2" class="edge"><title>Node0&#45;&gt;Node2</title>
<path fill="none" stroke="blueviolet" stroke-dasharray="5,2" d="M135.258,-297.195C139.904,-315.762 151.826,-357.103 172,-386.5 184.637,-404.914 189.635,-409.376 209,-420.5 221.985,-427.959 238.226,-432.815 250.757,-435.749"/>
<text text-anchor="middle" x="181.5" y="-411.5" font-family="Helvetica,sans-Serif" font-size="10.00">erpc</text>
</g>
<!-- Node0&#45;&gt;Node11 -->
<g id="edge11" class="edge"><title>Node0&#45;&gt;Node11</title>
<path fill="none" stroke="blueviolet" stroke-dasharray="5,2" d="M137.67,-297.257C144.233,-310.399 157.067,-334.138 172,-351.5 185.99,-367.765 190.158,-372.243 209,-382.5 215.87,-386.24 223.582,-389.355 231.161,-391.908"/>
<text text-anchor="middle" x="181.5" y="-374.5" font-family="Helvetica,sans-Serif" font-size="10.00">erpc</text>
</g>
<!-- Node0&#45;&gt;Node4 -->
<g id="edge4" class="edge"><title>Node0&#45;&gt;Node4</title>
<path fill="none" stroke="blueviolet" stroke-dasharray="5,2" d="M142.087,-297.021C149.673,-304.681 160.987,-315.456 172,-323.5 187.269,-334.652 191.643,-336.999 209,-344.5 218.95,-348.8 230.19,-352.57 240.313,-355.593"/>
<text text-anchor="middle" x="181.5" y="-339.5" font-family="Helvetica,sans-Serif" font-size="10.00">erpc</text>
</g>
<!-- Node0&#45;&gt;Node12 -->
<g id="edge12" class="edge"><title>Node0&#45;&gt;Node12</title>
<path fill="none" stroke="blueviolet" stroke-dasharray="5,2" d="M154.271,-296.29C159.974,-298.479 166.175,-300.709 172,-302.5 194.828,-309.519 221.201,-315.571 240.909,-319.703"/>
<text text-anchor="middle" x="181.5" y="-311.5" font-family="Helvetica,sans-Serif" font-size="10.00">erpc</text>
</g>
<!-- Node0&#45;&gt;Node5 -->
<g id="edge5" class="edge"><title>Node0&#45;&gt;Node5</title>
<path fill="none" stroke="blueviolet" stroke-dasharray="5,2" d="M154.183,-287.5C179.193,-287.5 220.676,-287.5 246.753,-287.5"/>
<text text-anchor="middle" x="181.5" y="-290.5" font-family="Helvetica,sans-Serif" font-size="10.00">erpc</text>
</g>
<!-- Node0&#45;&gt;Node14 -->
<g id="edge14" class="edge"><title>Node0&#45;&gt;Node14</title>
<path fill="none" stroke="blueviolet" stroke-dasharray="5,2" d="M154.271,-278.71C159.974,-276.521 166.175,-274.291 172,-272.5 195.164,-265.378 221.977,-259.251 241.774,-255.116"/>
<text text-anchor="middle" x="181.5" y="-275.5" font-family="Helvetica,sans-Serif" font-size="10.00">erpc</text>
</g>
<!-- Node0&#45;&gt;Node16 -->
<g id="edge16" class="edge"><title>Node0&#45;&gt;Node16</title>
<path fill="none" stroke="blueviolet" stroke-dasharray="5,2" d="M142.802,-277.72C150.424,-270.364 161.445,-260.26 172,-252.5 187.415,-241.168 191.516,-238.267 209,-230.5 217.068,-226.916 226.013,-223.735 234.526,-221.049"/>
<text text-anchor="middle" x="181.5" y="-255.5" font-family="Helvetica,sans-Serif" font-size="10.00">erpc</text>
</g>
<!-- Node0&#45;&gt;Node13 -->
<g id="edge13" class="edge"><title>Node0&#45;&gt;Node13</title>
<path fill="none" stroke="blueviolet" stroke-dasharray="5,2" d="M137.451,-277.904C147.222,-258.059 172.612,-212.68 209,-192.5 218.186,-187.405 228.918,-183.49 238.822,-180.576"/>
<text text-anchor="middle" x="181.5" y="-225.5" font-family="Helvetica,sans-Serif" font-size="10.00">erpc</text>
</g>
<!-- Node9 -->
<g id="node14" class="node"><title>Node9</title>
<g id="a_node14"><a xlink:href="group__itbp__transport.html" target="_top" xlink:title="Simple inter&#45;thread communications transport. ">
<polygon fill="white" stroke="black" points="239,-126 239,-145 304,-145 304,-126 239,-126"/>
<text text-anchor="middle" x="271.5" y="-133" font-family="Helvetica,sans-Serif" font-size="10.00">Inter&#45;thread</text>
</a>
</g>
</g>
<!-- Node0&#45;&gt;Node9 -->
<g id="edge9" class="edge"><title>Node0&#45;&gt;Node9</title>
<path fill="none" stroke="blueviolet" stroke-dasharray="5,2" d="M135.514,-277.897C140.517,-259.892 152.909,-220.284 172,-191.5 184.854,-172.119 189.083,-166.507 209,-154.5 218.092,-149.019 228.905,-144.989 238.91,-142.089"/>
<text text-anchor="middle" x="181.5" y="-194.5" font-family="Helvetica,sans-Serif" font-size="10.00">erpc</text>
</g>
<!-- Node7 -->
<g id="node15" class="node"><title>Node7</title>
<g id="a_node15"><a xlink:href="group__dspi__master__transport.html" target="_top" xlink:title="Kinetis SDK DSPI master driver transport. ">
<polygon fill="white" stroke="black" points="235.5,-88 235.5,-107 307.5,-107 307.5,-88 235.5,-88"/>
<text text-anchor="middle" x="271.5" y="-95" font-family="Helvetica,sans-Serif" font-size="10.00">DSPI Master</text>
</a>
</g>
</g>
<!-- Node0&#45;&gt;Node7 -->
<g id="edge7" class="edge"><title>Node0&#45;&gt;Node7</title>
<path fill="none" stroke="blueviolet" stroke-dasharray="5,2" d="M134.147,-277.751C137.203,-254.701 147.076,-195.621 172,-153.5 183.843,-133.485 189.083,-128.507 209,-116.5 217.039,-111.654 226.424,-107.942 235.406,-105.142"/>
<text text-anchor="middle" x="181.5" y="-156.5" font-family="Helvetica,sans-Serif" font-size="10.00">erpc</text>
</g>
<!-- Node3 -->
<g id="node16" class="node"><title>Node3</title>
<g id="a_node16"><a xlink:href="group__infra__codec.html" target="_top" xlink:title="Classes used for message serialization. ">
<polygon fill="white" stroke="black" points="236.5,-50 236.5,-69 306.5,-69 306.5,-50 236.5,-50"/>
<text text-anchor="middle" x="271.5" y="-57" font-family="Helvetica,sans-Serif" font-size="10.00">Serialization</text>
</a>
</g>
</g>
<!-- Node0&#45;&gt;Node3 -->
<g id="edge3" class="edge"><title>Node0&#45;&gt;Node3</title>
<path fill="none" stroke="blueviolet" stroke-dasharray="5,2" d="M133.282,-277.825C134.463,-250.424 140.564,-170.646 172,-114.5 183.209,-94.4805 189.27,-90.2109 209,-78.5 217.36,-73.5376 227.141,-69.7537 236.411,-66.9204"/>
<text text-anchor="middle" x="181.5" y="-117.5" font-family="Helvetica,sans-Serif" font-size="10.00">erpc</text>
</g>
<!-- Node10 -->
<g id="node17" class="node"><title>Node10</title>
<g id="a_node17"><a xlink:href="group__rpmsg__lite__zc__rtos__transport.html" target="_top" xlink:title="Rpmsg_lite_zc_rtos\l_transport">
<polygon fill="white" stroke="black" points="220,-0.5 220,-30.5 323,-30.5 323,-0.5 220,-0.5"/>
<text text-anchor="start" x="228" y="-18.5" font-family="Helvetica,sans-Serif" font-size="10.00">Rpmsg_lite_zc_rtos</text>
<text text-anchor="middle" x="271.5" y="-7.5" font-family="Helvetica,sans-Serif" font-size="10.00">_transport</text>
</a>
</g>
</g>
<!-- Node0&#45;&gt;Node10 -->
<g id="edge10" class="edge"><title>Node0&#45;&gt;Node10</title>
<path fill="none" stroke="blueviolet" stroke-dasharray="5,2" d="M132.718,-277.936C132.205,-246.736 133.777,-145.876 172,-75.5 183.42,-54.4731 205.642,-40.0028 226.092,-30.5497"/>
<text text-anchor="middle" x="181.5" y="-78.5" font-family="Helvetica,sans-Serif" font-size="10.00">erpc</text>
</g>
</g>
</svg>
