<?xml version="1.0" encoding="UTF-8" standalone="no"?>
<!DOCTYPE svg PUBLIC "-//W3C//DTD SVG 1.1//EN"
 "http://www.w3.org/Graphics/SVG/1.1/DTD/svg11.dtd">
<!-- Generated by graphviz version 2.38.0 (20140413.2041)
 -->
<!-- Title: RPMsg&#45;Lite Pages: 1 -->
<svg width="428pt" height="892pt"
 viewBox="0.00 0.00 428.00 892.13" xmlns="http://www.w3.org/2000/svg" xmlns:xlink="http://www.w3.org/1999/xlink">
<g id="graph0" class="graph" transform="scale(1 1) rotate(0) translate(4 888.127)">
<title>RPMsg&#45;Lite</title>
<polygon fill="white" stroke="none" points="-4,4 -4,-888.127 424,-888.127 424,4 -4,4"/>
<!-- Node1 -->
<g id="node1" class="node"><title>Node1</title>
<g id="a_node1"><a xlink:href="group__transports.html" target="_top" xlink:title="Transport layer classes. ">
<polygon fill="white" stroke="black" points="0,-419.627 0,-438.627 89,-438.627 89,-419.627 0,-419.627"/>
<text text-anchor="middle" x="44.5" y="-426.627" font-family="Helvetica,sans-Serif" font-size="10.00">Transport Layers</text>
</a>
</g>
</g>
<!-- Node0 -->
<g id="node23" class="node"><title>Node0</title>
<polygon fill="#bfbfbf" stroke="black" points="126,-419.627 126,-438.627 194,-438.627 194,-419.627 126,-419.627"/>
<text text-anchor="middle" x="160" y="-426.627" font-family="Helvetica,sans-Serif" font-size="10.00">RPMsg&#45;Lite</text>
</g>
<!-- Node1&#45;&gt;Node0 -->
<g id="edge1" class="edge"><title>Node1&#45;&gt;Node0</title>
<path fill="none" stroke="black" d="M99.2532,-429.127C108.367,-429.127 117.585,-429.127 125.961,-429.127"/>
<polygon fill="black" stroke="black" points="99.0575,-425.627 89.0575,-429.127 99.0574,-432.627 99.0575,-425.627"/>
</g>
<!-- Node11 -->
<g id="node2" class="node"><title>Node11</title>
<g id="a_node2"><a xlink:href="group__dspi__slave__transport.html" target="_top" xlink:title="MCUXpressoSDK DSPI slave driver transport. ">
<polygon fill="white" stroke="black" points="332.5,-856.627 332.5,-875.627 397.5,-875.627 397.5,-856.627 332.5,-856.627"/>
<text text-anchor="middle" x="365" y="-863.627" font-family="Helvetica,sans-Serif" font-size="10.00">DSPI Slave</text>
</a>
</g>
</g>
<!-- Node12 -->
<g id="node3" class="node"><title>Node12</title>
<g id="a_node3"><a xlink:href="group__i2c__slave__transport.html" target="_top" xlink:title="MCUXpressoSDK I2C slave driver transport. ">
<polygon fill="white" stroke="black" points="336.5,-818.627 336.5,-837.627 393.5,-837.627 393.5,-818.627 336.5,-818.627"/>
<text text-anchor="middle" x="365" y="-825.627" font-family="Helvetica,sans-Serif" font-size="10.00">I2C Slave</text>
</a>
</g>
</g>
<!-- Node9 -->
<g id="node4" class="node"><title>Node9</title>
<g id="a_node4"><a xlink:href="group__port__threads.html" target="_top" xlink:title="Threading model. ">
<polygon fill="white" stroke="black" points="339.5,-780.627 339.5,-799.627 390.5,-799.627 390.5,-780.627 339.5,-780.627"/>
<text text-anchor="middle" x="365" y="-787.627" font-family="Helvetica,sans-Serif" font-size="10.00">Threads</text>
</a>
</g>
</g>
<!-- Node16 -->
<g id="node5" class="node"><title>Node16</title>
<g id="a_node5"><a xlink:href="group__mu__transport.html" target="_top" xlink:title="Messaging Unit transport. ">
<polygon fill="white" stroke="black" points="323,-742.627 323,-761.627 407,-761.627 407,-742.627 323,-742.627"/>
<text text-anchor="middle" x="365" y="-749.627" font-family="Helvetica,sans-Serif" font-size="10.00">Messaging Unit</text>
</a>
</g>
</g>
<!-- Node22 -->
<g id="node6" class="node"><title>Node22</title>
<g id="a_node6"><a xlink:href="group__tcp__transport.html" target="_top" xlink:title="Simple TCP/IP transport. ">
<polygon fill="white" stroke="black" points="341.5,-704.627 341.5,-723.627 388.5,-723.627 388.5,-704.627 341.5,-704.627"/>
<text text-anchor="middle" x="365" y="-711.627" font-family="Helvetica,sans-Serif" font-size="10.00">TCP/IP</text>
</a>
</g>
</g>
<!-- Node3 -->
<g id="node7" class="node"><title>Node3</title>
<g id="a_node7"><a xlink:href="group__infra__client.html" target="_top" xlink:title="Client classes. ">
<polygon fill="white" stroke="black" points="344.5,-666.627 344.5,-685.627 385.5,-685.627 385.5,-666.627 344.5,-666.627"/>
<text text-anchor="middle" x="365" y="-673.627" font-family="Helvetica,sans-Serif" font-size="10.00">Client</text>
</a>
</g>
</g>
<!-- Node5 -->
<g id="node8" class="node"><title>Node5</title>
<g id="a_node8"><a xlink:href="group__infra__transport.html" target="_top" xlink:title="Superclasses for building transports. ">
<polygon fill="white" stroke="black" points="334,-628.627 334,-647.627 396,-647.627 396,-628.627 334,-628.627"/>
<text text-anchor="middle" x="365" y="-635.627" font-family="Helvetica,sans-Serif" font-size="10.00">Transports</text>
</a>
</g>
</g>
<!-- Node18 -->
<g id="node9" class="node"><title>Node18</title>
<g id="a_node9"><a xlink:href="group__serial__transport.html" target="_top" xlink:title="POSIX and Win32 serial port transport. ">
<polygon fill="white" stroke="black" points="334.5,-590.627 334.5,-609.627 395.5,-609.627 395.5,-590.627 334.5,-590.627"/>
<text text-anchor="middle" x="365" y="-597.627" font-family="Helvetica,sans-Serif" font-size="10.00">Serial port</text>
</a>
</g>
</g>
<!-- Node6 -->
<g id="node10" class="node"><title>Node6</title>
<g id="a_node10"><a xlink:href="group__infra__utility.html" target="_top" xlink:title="Utility code used by the infrastructure. ">
<polygon fill="white" stroke="black" points="340.5,-552.627 340.5,-571.627 389.5,-571.627 389.5,-552.627 340.5,-552.627"/>
<text text-anchor="middle" x="365" y="-559.627" font-family="Helvetica,sans-Serif" font-size="10.00">Utilities</text>
</a>
</g>
</g>
<!-- Node20 -->
<g id="node11" class="node"><title>Node20</title>
<g id="a_node11"><a xlink:href="group__spi__slave__transport.html" target="_top" xlink:title="MCUXpressoSDK SPI slave driver transport. ">
<polygon fill="white" stroke="black" points="335.5,-514.627 335.5,-533.627 394.5,-533.627 394.5,-514.627 335.5,-514.627"/>
<text text-anchor="middle" x="365" y="-521.627" font-family="Helvetica,sans-Serif" font-size="10.00">SPI Slave</text>
</a>
</g>
</g>
<!-- Node23 -->
<g id="node12" class="node"><title>Node23</title>
<g id="a_node12"><a xlink:href="group__uart__transport.html" target="_top" xlink:title="CMSIS UART driver transport. ">
<polygon fill="white" stroke="black" points="327,-476.627 327,-495.627 403,-495.627 403,-476.627 327,-476.627"/>
<text text-anchor="middle" x="365" y="-483.627" font-family="Helvetica,sans-Serif" font-size="10.00">CMSIS UART</text>
</a>
</g>
</g>
<!-- Node21 -->
<g id="node13" class="node"><title>Node21</title>
<g id="a_node13"><a xlink:href="group__spidev__master__transport.html" target="_top" xlink:title="SPIdev Linux transport. ">
<polygon fill="white" stroke="black" points="312,-438.627 312,-457.627 418,-457.627 418,-438.627 312,-438.627"/>
<text text-anchor="middle" x="365" y="-445.627" font-family="Helvetica,sans-Serif" font-size="10.00">SPIdev Linux Master</text>
</a>
</g>
</g>
<!-- Node19 -->
<g id="node14" class="node"><title>Node19</title>
<g id="a_node14"><a xlink:href="group__spi__master__transport.html" target="_top" xlink:title="MCUXpressoSDK SPI master driver transport. ">
<polygon fill="white" stroke="black" points="332.5,-400.627 332.5,-419.627 397.5,-419.627 397.5,-400.627 332.5,-400.627"/>
<text text-anchor="middle" x="365" y="-407.627" font-family="Helvetica,sans-Serif" font-size="10.00">SPI Master</text>
</a>
</g>
</g>
<!-- Node17 -->
<g id="node15" class="node"><title>Node17</title>
<g id="a_node15"><a xlink:href="group__rpmsg__tty__rtos__transport.html" target="_top" xlink:title="RPMsg TTY RTOS transport. ">
<polygon fill="white" stroke="black" points="316,-362.627 316,-381.627 414,-381.627 414,-362.627 316,-362.627"/>
<text text-anchor="middle" x="365" y="-369.627" font-family="Helvetica,sans-Serif" font-size="10.00">RPMsg TTY RTOS</text>
</a>
</g>
</g>
<!-- Node7 -->
<g id="node16" class="node"><title>Node7</title>
<g id="a_node16"><a xlink:href="group__infra__server.html" target="_top" xlink:title="Server classes. ">
<polygon fill="white" stroke="black" points="343,-324.627 343,-343.627 387,-343.627 387,-324.627 343,-324.627"/>
<text text-anchor="middle" x="365" y="-331.627" font-family="Helvetica,sans-Serif" font-size="10.00">Server</text>
</a>
</g>
</g>
<!-- Node14 -->
<g id="node17" class="node"><title>Node14</title>
<g id="a_node17"><a xlink:href="group__lpi2c__slave__transport.html" target="_top" xlink:title="Lpi2c_slave_transport">
<polygon fill="white" stroke="black" points="310,-286.627 310,-305.627 420,-305.627 420,-286.627 310,-286.627"/>
<text text-anchor="middle" x="365" y="-293.627" font-family="Helvetica,sans-Serif" font-size="10.00">Lpi2c_slave_transport</text>
</a>
</g>
</g>
<!-- Node13 -->
<g id="node18" class="node"><title>Node13</title>
<g id="a_node18"><a xlink:href="group__itbp__transport.html" target="_top" xlink:title="Simple inter&#45;thread communications transport. ">
<polygon fill="white" stroke="black" points="332.5,-248.627 332.5,-267.627 397.5,-267.627 397.5,-248.627 332.5,-248.627"/>
<text text-anchor="middle" x="365" y="-255.627" font-family="Helvetica,sans-Serif" font-size="10.00">Inter&#45;thread</text>
</a>
</g>
</g>
<!-- Node10 -->
<g id="node19" class="node"><title>Node10</title>
<g id="a_node19"><a xlink:href="group__dspi__master__transport.html" target="_top" xlink:title="MCUXpressoSDK DSPI master driver transport. ">
<polygon fill="white" stroke="black" points="329,-210.627 329,-229.627 401,-229.627 401,-210.627 329,-210.627"/>
<text text-anchor="middle" x="365" y="-217.627" font-family="Helvetica,sans-Serif" font-size="10.00">DSPI Master</text>
</a>
</g>
</g>
<!-- Node24 -->
<g id="node20" class="node"><title>Node24</title>
<g id="a_node20"><a xlink:href="group___u_s_b___c_d_c__transport.html" target="_top" xlink:title="USB CDC transport. ">
<polygon fill="white" stroke="black" points="335,-172.627 335,-191.627 395,-191.627 395,-172.627 335,-172.627"/>
<text text-anchor="middle" x="365" y="-179.627" font-family="Helvetica,sans-Serif" font-size="10.00">USB CDC</text>
</a>
</g>
</g>
<!-- Node4 -->
<g id="node21" class="node"><title>Node4</title>
<g id="a_node21"><a xlink:href="group__infra__codec.html" target="_top" xlink:title="Classes used for message serialization. ">
<polygon fill="white" stroke="black" points="330,-134.627 330,-153.627 400,-153.627 400,-134.627 330,-134.627"/>
<text text-anchor="middle" x="365" y="-141.627" font-family="Helvetica,sans-Serif" font-size="10.00">Serialization</text>
</a>
</g>
</g>
<!-- Node2 -->
<g id="node22" class="node"><title>Node2</title>
<g id="a_node22"><a xlink:href="group__rpmsg__lite__rtos__transport.html" target="_top" xlink:title="RPMsg&#45;Lite zero copy transport using RTOS API. ">
<polygon fill="white" stroke="black" points="316.5,-90.6266 316.5,-109.627 413.5,-109.627 413.5,-90.6266 316.5,-90.6266"/>
<text text-anchor="middle" x="365" y="-97.6266" font-family="Helvetica,sans-Serif" font-size="10.00">RPMsg&#45;Lite RTOS</text>
</a>
</g>
</g>
<!-- Node0&#45;&gt;Node11 -->
<g id="edge11" class="edge"><title>Node0&#45;&gt;Node11</title>
<path fill="none" stroke="blueviolet" stroke-dasharray="5,2" d="M161.504,-438.977C164.67,-499.012 182.614,-814.103 212,-844.127 242.96,-875.759 297.681,-875.618 332.329,-871.61"/>
<text text-anchor="middle" x="252" y="-876.127" font-family="Helvetica,sans-Serif" font-size="10.00">erpc</text>
</g>
<!-- Node0&#45;&gt;Node12 -->
<g id="edge12" class="edge"><title>Node0&#45;&gt;Node12</title>
<path fill="none" stroke="blueviolet" stroke-dasharray="5,2" d="M160.846,-438.903C160.217,-492.309 159.977,-748.33 212,-802.127 244.104,-835.325 301.957,-835.589 336.282,-832.229"/>
<text text-anchor="middle" x="252" y="-835.127" font-family="Helvetica,sans-Serif" font-size="10.00">erpc</text>
</g>
<!-- Node0&#45;&gt;Node9 -->
<g id="edge9" class="edge"><title>Node0&#45;&gt;Node9</title>
<path fill="none" stroke="blueviolet" stroke-dasharray="5,2" d="M160.97,-438.689C161.022,-488.762 163.89,-720.284 212,-768.127 229.489,-785.518 301.08,-789.262 339.446,-790.002"/>
<text text-anchor="middle" x="252" y="-790.127" font-family="Helvetica,sans-Serif" font-size="10.00">erpc</text>
</g>
<!-- Node0&#45;&gt;Node16 -->
<g id="edge16" class="edge"><title>Node0&#45;&gt;Node16</title>
<path fill="none" stroke="blueviolet" stroke-dasharray="5,2" d="M161.214,-438.685C162.452,-484.863 170.183,-684.337 212,-726.127 240.595,-754.703 288.34,-758.614 322.695,-757.015"/>
<text text-anchor="middle" x="252" y="-759.127" font-family="Helvetica,sans-Serif" font-size="10.00">erpc</text>
</g>
<!-- Node0&#45;&gt;Node22 -->
<g id="edge23" class="edge"><title>Node0&#45;&gt;Node22</title>
<path fill="none" stroke="blueviolet" stroke-dasharray="5,2" d="M161.424,-438.743C163.527,-481.781 174.296,-656.183 212,-692.127 230.141,-709.421 303.612,-713.179 341.364,-713.955"/>
<text text-anchor="middle" x="252" y="-714.127" font-family="Helvetica,sans-Serif" font-size="10.00">erpc</text>
</g>
<!-- Node0&#45;&gt;Node3 -->
<g id="edge3" class="edge"><title>Node0&#45;&gt;Node3</title>
<path fill="none" stroke="blueviolet" stroke-dasharray="5,2" d="M161.837,-438.666C165.4,-477.014 180.579,-619.299 212,-649.127 248.252,-683.541 312.355,-682.142 344.49,-678.847"/>
<text text-anchor="middle" x="252" y="-682.127" font-family="Helvetica,sans-Serif" font-size="10.00">erpc</text>
</g>
<!-- Node0&#45;&gt;Node5 -->
<g id="edge5" class="edge"><title>Node0&#45;&gt;Node5</title>
<path fill="none" stroke="blueviolet" stroke-dasharray="5,2" d="M162.221,-438.658C166.86,-473.308 184.524,-591.827 212,-616.127 229.576,-631.671 294.829,-636.241 333.895,-637.578"/>
<text text-anchor="middle" x="252" y="-637.127" font-family="Helvetica,sans-Serif" font-size="10.00">erpc</text>
</g>
<!-- Node0&#45;&gt;Node18 -->
<g id="edge19" class="edge"><title>Node0&#45;&gt;Node18</title>
<path fill="none" stroke="blueviolet" stroke-dasharray="5,2" d="M161.197,-438.811C162.299,-465.27 169.246,-539.198 212,-575.127 246.294,-603.946 300.783,-605.755 334.358,-603.562"/>
<text text-anchor="middle" x="252" y="-605.127" font-family="Helvetica,sans-Serif" font-size="10.00">erpc</text>
</g>
<!-- Node0&#45;&gt;Node6 -->
<g id="edge6" class="edge"><title>Node0&#45;&gt;Node6</title>
<path fill="none" stroke="blueviolet" stroke-dasharray="5,2" d="M162.877,-438.788C167.396,-459.301 180.892,-507.273 212,-531.127 249.829,-560.134 308.01,-563.849 340.316,-563.379"/>
<text text-anchor="middle" x="252" y="-563.127" font-family="Helvetica,sans-Serif" font-size="10.00">erpc</text>
</g>
<!-- Node0&#45;&gt;Node20 -->
<g id="edge21" class="edge"><title>Node0&#45;&gt;Node20</title>
<path fill="none" stroke="blueviolet" stroke-dasharray="5,2" d="M166.528,-438.921C174.673,-452.415 191.207,-476.484 212,-489.127 250.525,-512.551 303.234,-520.311 335.381,-522.873"/>
<text text-anchor="middle" x="252" y="-519.127" font-family="Helvetica,sans-Serif" font-size="10.00">erpc</text>
</g>
<!-- Node0&#45;&gt;Node23 -->
<g id="edge24" class="edge"><title>Node0&#45;&gt;Node23</title>
<path fill="none" stroke="blueviolet" stroke-dasharray="5,2" d="M177.039,-438.723C186.843,-444.225 199.804,-450.863 212,-455.127 250.008,-468.414 295.461,-476.755 326.702,-481.394"/>
<text text-anchor="middle" x="252" y="-477.127" font-family="Helvetica,sans-Serif" font-size="10.00">erpc</text>
</g>
<!-- Node0&#45;&gt;Node21 -->
<g id="edge22" class="edge"><title>Node0&#45;&gt;Node21</title>
<path fill="none" stroke="blueviolet" stroke-dasharray="5,2" d="M194.067,-432.222C225.974,-435.208 274.769,-439.775 311.9,-443.25"/>
<text text-anchor="middle" x="252" y="-443.127" font-family="Helvetica,sans-Serif" font-size="10.00">erpc</text>
</g>
<!-- Node0&#45;&gt;Node19 -->
<g id="edge20" class="edge"><title>Node0&#45;&gt;Node19</title>
<path fill="none" stroke="blueviolet" stroke-dasharray="5,2" d="M191.222,-419.575C197.995,-417.787 205.191,-416.158 212,-415.127 253.246,-408.876 301.479,-408.436 332.363,-409.016"/>
<text text-anchor="middle" x="252" y="-418.127" font-family="Helvetica,sans-Serif" font-size="10.00">erpc</text>
</g>
<!-- Node0&#45;&gt;Node17 -->
<g id="edge18" class="edge"><title>Node0&#45;&gt;Node17</title>
<path fill="none" stroke="blueviolet" stroke-dasharray="5,2" d="M171.444,-419.454C181.173,-411.038 196.476,-399.255 212,-393.127 245.204,-380.019 285.293,-374.88 315.963,-372.958"/>
<text text-anchor="middle" x="252" y="-396.127" font-family="Helvetica,sans-Serif" font-size="10.00">erpc</text>
</g>
<!-- Node0&#45;&gt;Node7 -->
<g id="edge7" class="edge"><title>Node0&#45;&gt;Node7</title>
<path fill="none" stroke="blueviolet" stroke-dasharray="5,2" d="M165.295,-419.233C172.524,-403.855 188.66,-374.496 212,-360.127 253.15,-334.792 311.837,-332.258 342.873,-332.966"/>
<text text-anchor="middle" x="252" y="-363.127" font-family="Helvetica,sans-Serif" font-size="10.00">erpc</text>
</g>
<!-- Node0&#45;&gt;Node14 -->
<g id="edge14" class="edge"><title>Node0&#45;&gt;Node14</title>
<path fill="none" stroke="blueviolet" stroke-dasharray="5,2" d="M162.46,-419.367C166.262,-397.644 178.607,-345.244 212,-320.127 239.756,-299.25 278.519,-293.387 309.952,-292.673"/>
<text text-anchor="middle" x="252" y="-323.127" font-family="Helvetica,sans-Serif" font-size="10.00">erpc</text>
</g>
<!-- Node0&#45;&gt;Node13 -->
<g id="edge13" class="edge"><title>Node0&#45;&gt;Node13</title>
<path fill="none" stroke="blueviolet" stroke-dasharray="5,2" d="M161.008,-419.439C161.603,-392.254 167.323,-314.847 212,-278.127 245.722,-250.41 298.619,-249.997 332.283,-253.28"/>
<text text-anchor="middle" x="252" y="-281.127" font-family="Helvetica,sans-Serif" font-size="10.00">erpc</text>
</g>
<!-- Node0&#45;&gt;Node10 -->
<g id="edge10" class="edge"><title>Node0&#45;&gt;Node10</title>
<path fill="none" stroke="blueviolet" stroke-dasharray="5,2" d="M162.155,-419.313C166.562,-383.643 183.522,-261.667 212,-237.127 243.983,-209.565 294.872,-209.683 328.845,-213.728"/>
<text text-anchor="middle" x="252" y="-240.127" font-family="Helvetica,sans-Serif" font-size="10.00">erpc</text>
</g>
<!-- Node0&#45;&gt;Node24 -->
<g id="edge25" class="edge"><title>Node0&#45;&gt;Node24</title>
<path fill="none" stroke="blueviolet" stroke-dasharray="5,2" d="M161.637,-419.499C164.497,-379.429 177.553,-226.558 212,-196.127 245.564,-166.475 301.056,-169.872 334.896,-175.605"/>
<text text-anchor="middle" x="252" y="-199.127" font-family="Helvetica,sans-Serif" font-size="10.00">erpc</text>
</g>
<!-- Node0&#45;&gt;Node4 -->
<g id="edge4" class="edge"><title>Node0&#45;&gt;Node4</title>
<path fill="none" stroke="blueviolet" stroke-dasharray="5,2" d="M161.31,-419.429C162.936,-375.211 172.006,-193.307 212,-157.127 228.695,-142.024 290.246,-141.247 329.716,-142.429"/>
<text text-anchor="middle" x="252" y="-160.127" font-family="Helvetica,sans-Serif" font-size="10.00">erpc</text>
</g>
<!-- Node0&#45;&gt;Node2 -->
<g id="edge2" class="edge"><title>Node0&#45;&gt;Node2</title>
<path fill="none" stroke="orange" stroke-dasharray="5,2" d="M161.194,-419.414C162.337,-372.493 169.694,-169.794 212,-127.127 226.342,-112.662 277.239,-105.856 316.226,-102.713"/>
<text text-anchor="middle" x="252" y="-130.127" font-family="Helvetica,sans-Serif" font-size="10.00">erpc::RPMsgBase</text>
</g>
<!-- Node0&#45;&gt;Node2 -->
<g id="edge17" class="edge"><title>Node0&#45;&gt;Node2</title>
<path fill="none" stroke="blueviolet" stroke-dasharray="5,2" d="M160.851,-419.436C160.298,-368.709 160.579,-134.391 212,-90.1266 248.779,-58.4671 310.929,-77.3324 343.181,-90.5571"/>
<text text-anchor="middle" x="252" y="-93.1266" font-family="Helvetica,sans-Serif" font-size="10.00">erpc</text>
</g>
<!-- Node8 -->
<g id="node24" class="node"><title>Node8</title>
<g id="a_node24"><a xlink:href="group__port__setup__extensions.html" target="_top" xlink:title="Extension setup functions. ">
<polygon fill="white" stroke="black" points="320.5,-46.6266 320.5,-65.6266 409.5,-65.6266 409.5,-46.6266 320.5,-46.6266"/>
<text text-anchor="middle" x="365" y="-53.6266" font-family="Helvetica,sans-Serif" font-size="10.00">Extension Setup</text>
</a>
</g>
</g>
<!-- Node0&#45;&gt;Node8 -->
<g id="edge8" class="edge"><title>Node0&#45;&gt;Node8</title>
<path fill="none" stroke="blueviolet" stroke-dasharray="5,2" d="M160.719,-419.58C159.375,-366.315 155.791,-106.482 212,-57.1266 246.008,-27.265 302.668,-36.9645 336.366,-46.6211"/>
<text text-anchor="middle" x="252" y="-60.1266" font-family="Helvetica,sans-Serif" font-size="10.00">erpc</text>
</g>
<!-- Node15 -->
<g id="node25" class="node"><title>Node15</title>
<g id="a_node25"><a xlink:href="group__lpspi__slave__transport.html" target="_top" xlink:title="Lpspi_slave_transport">
<polygon fill="white" stroke="black" points="310,-8.62659 310,-27.6266 420,-27.6266 420,-8.62659 310,-8.62659"/>
<text text-anchor="middle" x="365" y="-15.6266" font-family="Helvetica,sans-Serif" font-size="10.00">Lpspi_slave_transport</text>
</a>
</g>
</g>
<!-- Node0&#45;&gt;Node15 -->
<g id="edge15" class="edge"><title>Node0&#45;&gt;Node15</title>
<path fill="none" stroke="blueviolet" stroke-dasharray="5,2" d="M161.468,-419.391C164.418,-360.061 181.299,-48.7725 212,-21.1266 245.147,8.72223 300.772,0.468697 334.752,-8.58848"/>
<text text-anchor="middle" x="252" y="-24.1266" font-family="Helvetica,sans-Serif" font-size="10.00">erpc</text>
</g>
</g>
</svg>
