<?xml version="1.0" encoding="UTF-8" standalone="no"?>
<!DOCTYPE svg PUBLIC "-//W3C//DTD SVG 1.1//EN"
 "http://www.w3.org/Graphics/SVG/1.1/DTD/svg11.dtd">
<!-- Generated by graphviz version 2.38.0 (20140413.2041)
 -->
<!-- Title: Threads Pages: 1 -->
<svg width="308pt" height="864pt"
 viewBox="0.00 0.00 308.00 864.00" xmlns="http://www.w3.org/2000/svg" xmlns:xlink="http://www.w3.org/1999/xlink">
<g id="graph0" class="graph" transform="scale(1 1) rotate(0) translate(4 860)">
<title>Threads</title>
<polygon fill="white" stroke="none" points="-4,4 -4,-860 304,-860 304,4 -4,4"/>
<!-- Node9 -->
<g id="node1" class="node"><title>Node9</title>
<g id="a_node1"><a xlink:href="group__dspi__slave__transport.html" target="_top" xlink:title="MCUXpressoSDK DSPI slave driver transport. ">
<polygon fill="white" stroke="black" points="212.5,-836.5 212.5,-855.5 277.5,-855.5 277.5,-836.5 212.5,-836.5"/>
<text text-anchor="middle" x="245" y="-843.5" font-family="Helvetica,sans-Serif" font-size="10.00">DSPI Slave</text>
</a>
</g>
</g>
<!-- Node10 -->
<g id="node2" class="node"><title>Node10</title>
<g id="a_node2"><a xlink:href="group__i2c__slave__transport.html" target="_top" xlink:title="MCUXpressoSDK I2C slave driver transport. ">
<polygon fill="white" stroke="black" points="216.5,-798.5 216.5,-817.5 273.5,-817.5 273.5,-798.5 216.5,-798.5"/>
<text text-anchor="middle" x="245" y="-805.5" font-family="Helvetica,sans-Serif" font-size="10.00">I2C Slave</text>
</a>
</g>
</g>
<!-- Node0 -->
<g id="node3" class="node"><title>Node0</title>
<polygon fill="#bfbfbf" stroke="black" points="84,-418.5 84,-437.5 135,-437.5 135,-418.5 84,-418.5"/>
<text text-anchor="middle" x="109.5" y="-425.5" font-family="Helvetica,sans-Serif" font-size="10.00">Threads</text>
</g>
<!-- Node0&#45;&gt;Node9 -->
<g id="edge9" class="edge"><title>Node0&#45;&gt;Node9</title>
<path fill="none" stroke="blueviolet" stroke-dasharray="5,2" d="M110.747,-437.784C112.178,-489.087 120.495,-727.16 153,-792 164.608,-815.156 191.035,-829.186 212.435,-837.118"/>
<text text-anchor="middle" x="162.5" y="-816" font-family="Helvetica,sans-Serif" font-size="10.00">erpc</text>
</g>
<!-- Node0&#45;&gt;Node10 -->
<g id="edge10" class="edge"><title>Node0&#45;&gt;Node10</title>
<path fill="none" stroke="blueviolet" stroke-dasharray="5,2" d="M110.913,-437.657C113.076,-485.308 124.127,-695.386 153,-753 163.28,-773.512 170.5,-776.91 190,-789 198.024,-793.975 207.529,-797.874 216.311,-800.811"/>
<text text-anchor="middle" x="162.5" y="-780" font-family="Helvetica,sans-Serif" font-size="10.00">erpc</text>
</g>
<!-- Node14 -->
<g id="node4" class="node"><title>Node14</title>
<g id="a_node4"><a xlink:href="group__mu__transport.html" target="_top" xlink:title="Messaging Unit transport. ">
<polygon fill="white" stroke="black" points="203,-760.5 203,-779.5 287,-779.5 287,-760.5 203,-760.5"/>
<text text-anchor="middle" x="245" y="-767.5" font-family="Helvetica,sans-Serif" font-size="10.00">Messaging Unit</text>
</a>
</g>
</g>
<!-- Node0&#45;&gt;Node14 -->
<g id="edge14" class="edge"><title>Node0&#45;&gt;Node14</title>
<path fill="none" stroke="blueviolet" stroke-dasharray="5,2" d="M111.102,-437.681C113.976,-481.897 127.24,-664.669 153,-715 163.453,-735.424 170.5,-738.91 190,-751 195.997,-754.718 202.821,-757.836 209.553,-760.399"/>
<text text-anchor="middle" x="162.5" y="-741" font-family="Helvetica,sans-Serif" font-size="10.00">erpc</text>
</g>
<!-- Node22 -->
<g id="node5" class="node"><title>Node22</title>
<g id="a_node5"><a xlink:href="group__tcp__transport.html" target="_top" xlink:title="Simple TCP/IP transport. ">
<polygon fill="white" stroke="black" points="221.5,-722.5 221.5,-741.5 268.5,-741.5 268.5,-722.5 221.5,-722.5"/>
<text text-anchor="middle" x="245" y="-729.5" font-family="Helvetica,sans-Serif" font-size="10.00">TCP/IP</text>
</a>
</g>
</g>
<!-- Node0&#45;&gt;Node22 -->
<g id="edge22" class="edge"><title>Node0&#45;&gt;Node22</title>
<path fill="none" stroke="blueviolet" stroke-dasharray="5,2" d="M110.075,-437.711C108.969,-472.424 108.712,-592.77 153,-677 163.678,-697.308 170.5,-700.91 190,-713 199.629,-718.97 211.391,-723.391 221.476,-726.458"/>
<text text-anchor="middle" x="162.5" y="-703" font-family="Helvetica,sans-Serif" font-size="10.00">erpc</text>
</g>
<!-- Node2 -->
<g id="node6" class="node"><title>Node2</title>
<g id="a_node6"><a xlink:href="group__infra__client.html" target="_top" xlink:title="Client classes. ">
<polygon fill="white" stroke="black" points="224.5,-684.5 224.5,-703.5 265.5,-703.5 265.5,-684.5 224.5,-684.5"/>
<text text-anchor="middle" x="245" y="-691.5" font-family="Helvetica,sans-Serif" font-size="10.00">Client</text>
</a>
</g>
</g>
<!-- Node0&#45;&gt;Node2 -->
<g id="edge2" class="edge"><title>Node0&#45;&gt;Node2</title>
<path fill="none" stroke="blueviolet" stroke-dasharray="5,2" d="M110.467,-437.504C110.746,-468.515 114.737,-568.782 153,-639 163.978,-659.147 170.5,-662.91 190,-675 200.558,-681.546 213.68,-686.23 224.345,-689.309"/>
<text text-anchor="middle" x="162.5" y="-665" font-family="Helvetica,sans-Serif" font-size="10.00">erpc</text>
</g>
<!-- Node4 -->
<g id="node7" class="node"><title>Node4</title>
<g id="a_node7"><a xlink:href="group__infra__transport.html" target="_top" xlink:title="Superclasses for building transports. ">
<polygon fill="white" stroke="black" points="214,-646.5 214,-665.5 276,-665.5 276,-646.5 214,-646.5"/>
<text text-anchor="middle" x="245" y="-653.5" font-family="Helvetica,sans-Serif" font-size="10.00">Transports</text>
</a>
</g>
</g>
<!-- Node0&#45;&gt;Node4 -->
<g id="edge4" class="edge"><title>Node0&#45;&gt;Node4</title>
<path fill="none" stroke="blueviolet" stroke-dasharray="5,2" d="M111.076,-437.603C113.071,-464.801 121.403,-544.014 153,-600 164.43,-620.253 170.319,-624.61 190,-637 197.233,-641.554 205.7,-645.192 213.757,-648.016"/>
<text text-anchor="middle" x="162.5" y="-627" font-family="Helvetica,sans-Serif" font-size="10.00">erpc</text>
</g>
<!-- Node18 -->
<g id="node8" class="node"><title>Node18</title>
<g id="a_node8"><a xlink:href="group__serial__transport.html" target="_top" xlink:title="POSIX and Win32 serial port transport. ">
<polygon fill="white" stroke="black" points="214.5,-608.5 214.5,-627.5 275.5,-627.5 275.5,-608.5 214.5,-608.5"/>
<text text-anchor="middle" x="245" y="-615.5" font-family="Helvetica,sans-Serif" font-size="10.00">Serial port</text>
</a>
</g>
</g>
<!-- Node0&#45;&gt;Node18 -->
<g id="edge18" class="edge"><title>Node0&#45;&gt;Node18</title>
<path fill="none" stroke="blueviolet" stroke-dasharray="5,2" d="M112.064,-437.559C116.073,-460.167 128.193,-518.171 153,-560 165.187,-580.551 169.95,-586.006 190,-599 197.339,-603.756 206.014,-607.488 214.238,-610.337"/>
<text text-anchor="middle" x="162.5" y="-588" font-family="Helvetica,sans-Serif" font-size="10.00">erpc</text>
</g>
<!-- Node5 -->
<g id="node9" class="node"><title>Node5</title>
<g id="a_node9"><a xlink:href="group__infra__utility.html" target="_top" xlink:title="Utility code used by the infrastructure. ">
<polygon fill="white" stroke="black" points="220.5,-570.5 220.5,-589.5 269.5,-589.5 269.5,-570.5 220.5,-570.5"/>
<text text-anchor="middle" x="245" y="-577.5" font-family="Helvetica,sans-Serif" font-size="10.00">Utilities</text>
</a>
</g>
</g>
<!-- Node0&#45;&gt;Node5 -->
<g id="edge5" class="edge"><title>Node0&#45;&gt;Node5</title>
<path fill="none" stroke="blueviolet" stroke-dasharray="5,2" d="M113.047,-437.86C120.203,-463.347 143.103,-531.477 190,-561 199.252,-566.824 210.523,-571.151 220.37,-574.192"/>
<text text-anchor="middle" x="162.5" y="-548" font-family="Helvetica,sans-Serif" font-size="10.00">erpc</text>
</g>
<!-- Node20 -->
<g id="node10" class="node"><title>Node20</title>
<g id="a_node10"><a xlink:href="group__spi__slave__transport.html" target="_top" xlink:title="MCUXpressoSDK SPI slave driver transport. ">
<polygon fill="white" stroke="black" points="215.5,-532.5 215.5,-551.5 274.5,-551.5 274.5,-532.5 215.5,-532.5"/>
<text text-anchor="middle" x="245" y="-539.5" font-family="Helvetica,sans-Serif" font-size="10.00">SPI Slave</text>
</a>
</g>
</g>
<!-- Node0&#45;&gt;Node20 -->
<g id="edge20" class="edge"><title>Node0&#45;&gt;Node20</title>
<path fill="none" stroke="blueviolet" stroke-dasharray="5,2" d="M115.599,-437.633C126.459,-457.141 153.862,-501.301 190,-523 197.754,-527.656 206.818,-531.402 215.282,-534.298"/>
<text text-anchor="middle" x="162.5" y="-512" font-family="Helvetica,sans-Serif" font-size="10.00">erpc</text>
</g>
<!-- Node23 -->
<g id="node11" class="node"><title>Node23</title>
<g id="a_node11"><a xlink:href="group__uart__transport.html" target="_top" xlink:title="CMSIS UART driver transport. ">
<polygon fill="white" stroke="black" points="207,-494.5 207,-513.5 283,-513.5 283,-494.5 207,-494.5"/>
<text text-anchor="middle" x="245" y="-501.5" font-family="Helvetica,sans-Serif" font-size="10.00">CMSIS UART</text>
</a>
</g>
</g>
<!-- Node0&#45;&gt;Node23 -->
<g id="edge23" class="edge"><title>Node0&#45;&gt;Node23</title>
<path fill="none" stroke="blueviolet" stroke-dasharray="5,2" d="M121.292,-437.648C135.892,-450.23 163.203,-472.146 190,-485 197.348,-488.525 205.529,-491.741 213.256,-494.484"/>
<text text-anchor="middle" x="162.5" y="-477" font-family="Helvetica,sans-Serif" font-size="10.00">erpc</text>
</g>
<!-- Node21 -->
<g id="node12" class="node"><title>Node21</title>
<g id="a_node12"><a xlink:href="group__spidev__master__transport.html" target="_top" xlink:title="SPIdev Linux transport. ">
<polygon fill="white" stroke="black" points="192,-456.5 192,-475.5 298,-475.5 298,-456.5 192,-456.5"/>
<text text-anchor="middle" x="245" y="-463.5" font-family="Helvetica,sans-Serif" font-size="10.00">SPIdev Linux Master</text>
</a>
</g>
</g>
<!-- Node0&#45;&gt;Node21 -->
<g id="edge21" class="edge"><title>Node0&#45;&gt;Node21</title>
<path fill="none" stroke="blueviolet" stroke-dasharray="5,2" d="M135.094,-437.111C140.93,-439.153 147.158,-441.235 153,-443 169.223,-447.902 187.283,-452.617 203.011,-456.488"/>
<text text-anchor="middle" x="162.5" y="-450" font-family="Helvetica,sans-Serif" font-size="10.00">erpc</text>
</g>
<!-- Node19 -->
<g id="node13" class="node"><title>Node19</title>
<g id="a_node13"><a xlink:href="group__spi__master__transport.html" target="_top" xlink:title="MCUXpressoSDK SPI master driver transport. ">
<polygon fill="white" stroke="black" points="212.5,-418.5 212.5,-437.5 277.5,-437.5 277.5,-418.5 212.5,-418.5"/>
<text text-anchor="middle" x="245" y="-425.5" font-family="Helvetica,sans-Serif" font-size="10.00">SPI Master</text>
</a>
</g>
</g>
<!-- Node0&#45;&gt;Node19 -->
<g id="edge19" class="edge"><title>Node0&#45;&gt;Node19</title>
<path fill="none" stroke="blueviolet" stroke-dasharray="5,2" d="M135.297,-428C157.014,-428 188.694,-428 212.257,-428"/>
<text text-anchor="middle" x="162.5" y="-431" font-family="Helvetica,sans-Serif" font-size="10.00">erpc</text>
</g>
<!-- Node17 -->
<g id="node14" class="node"><title>Node17</title>
<g id="a_node14"><a xlink:href="group__rpmsg__tty__rtos__transport.html" target="_top" xlink:title="RPMsg TTY RTOS transport. ">
<polygon fill="white" stroke="black" points="196,-380.5 196,-399.5 294,-399.5 294,-380.5 196,-380.5"/>
<text text-anchor="middle" x="245" y="-387.5" font-family="Helvetica,sans-Serif" font-size="10.00">RPMsg TTY RTOS</text>
</a>
</g>
</g>
<!-- Node0&#45;&gt;Node17 -->
<g id="edge17" class="edge"><title>Node0&#45;&gt;Node17</title>
<path fill="none" stroke="blueviolet" stroke-dasharray="5,2" d="M135.094,-418.889C140.93,-416.847 147.158,-414.765 153,-413 169.223,-408.098 187.283,-403.383 203.011,-399.512"/>
<text text-anchor="middle" x="162.5" y="-416" font-family="Helvetica,sans-Serif" font-size="10.00">erpc</text>
</g>
<!-- Node6 -->
<g id="node15" class="node"><title>Node6</title>
<g id="a_node15"><a xlink:href="group__infra__server.html" target="_top" xlink:title="Server classes. ">
<polygon fill="white" stroke="black" points="223,-342.5 223,-361.5 267,-361.5 267,-342.5 223,-342.5"/>
<text text-anchor="middle" x="245" y="-349.5" font-family="Helvetica,sans-Serif" font-size="10.00">Server</text>
</a>
</g>
</g>
<!-- Node0&#45;&gt;Node6 -->
<g id="edge6" class="edge"><title>Node0&#45;&gt;Node6</title>
<path fill="none" stroke="blueviolet" stroke-dasharray="5,2" d="M121.292,-418.352C135.892,-405.77 163.203,-383.854 190,-371 200.484,-365.971 212.665,-361.57 222.801,-358.274"/>
<text text-anchor="middle" x="162.5" y="-397" font-family="Helvetica,sans-Serif" font-size="10.00">erpc</text>
</g>
<!-- Node12 -->
<g id="node16" class="node"><title>Node12</title>
<g id="a_node16"><a xlink:href="group__lpi2c__slave__transport.html" target="_top" xlink:title="Lpi2c_slave_transport">
<polygon fill="white" stroke="black" points="190,-304.5 190,-323.5 300,-323.5 300,-304.5 190,-304.5"/>
<text text-anchor="middle" x="245" y="-311.5" font-family="Helvetica,sans-Serif" font-size="10.00">Lpi2c_slave_transport</text>
</a>
</g>
</g>
<!-- Node0&#45;&gt;Node12 -->
<g id="edge12" class="edge"><title>Node0&#45;&gt;Node12</title>
<path fill="none" stroke="blueviolet" stroke-dasharray="5,2" d="M115.599,-418.367C126.459,-398.859 153.862,-354.699 190,-333 196.22,-329.265 203.283,-326.116 210.204,-323.521"/>
<text text-anchor="middle" x="162.5" y="-367" font-family="Helvetica,sans-Serif" font-size="10.00">erpc</text>
</g>
<!-- Node11 -->
<g id="node17" class="node"><title>Node11</title>
<g id="a_node17"><a xlink:href="group__itbp__transport.html" target="_top" xlink:title="Simple inter&#45;thread communications transport. ">
<polygon fill="white" stroke="black" points="212.5,-266.5 212.5,-285.5 277.5,-285.5 277.5,-266.5 212.5,-266.5"/>
<text text-anchor="middle" x="245" y="-273.5" font-family="Helvetica,sans-Serif" font-size="10.00">Inter&#45;thread</text>
</a>
</g>
</g>
<!-- Node0&#45;&gt;Node11 -->
<g id="edge11" class="edge"><title>Node0&#45;&gt;Node11</title>
<path fill="none" stroke="blueviolet" stroke-dasharray="5,2" d="M113.047,-418.14C120.203,-392.653 143.103,-324.523 190,-295 196.813,-290.711 204.72,-287.234 212.348,-284.485"/>
<text text-anchor="middle" x="162.5" y="-333" font-family="Helvetica,sans-Serif" font-size="10.00">erpc</text>
</g>
<!-- Node8 -->
<g id="node18" class="node"><title>Node8</title>
<g id="a_node18"><a xlink:href="group__dspi__master__transport.html" target="_top" xlink:title="MCUXpressoSDK DSPI master driver transport. ">
<polygon fill="white" stroke="black" points="209,-228.5 209,-247.5 281,-247.5 281,-228.5 209,-228.5"/>
<text text-anchor="middle" x="245" y="-235.5" font-family="Helvetica,sans-Serif" font-size="10.00">DSPI Master</text>
</a>
</g>
</g>
<!-- Node0&#45;&gt;Node8 -->
<g id="edge8" class="edge"><title>Node0&#45;&gt;Node8</title>
<path fill="none" stroke="blueviolet" stroke-dasharray="5,2" d="M112.064,-418.441C116.073,-395.833 128.193,-337.829 153,-296 165.187,-275.449 169.95,-269.994 190,-257 195.838,-253.217 202.521,-250.082 209.15,-247.523"/>
<text text-anchor="middle" x="162.5" y="-299" font-family="Helvetica,sans-Serif" font-size="10.00">erpc</text>
</g>
<!-- Node24 -->
<g id="node19" class="node"><title>Node24</title>
<g id="a_node19"><a xlink:href="group___u_s_b___c_d_c__transport.html" target="_top" xlink:title="USB CDC transport. ">
<polygon fill="white" stroke="black" points="215,-190.5 215,-209.5 275,-209.5 275,-190.5 215,-190.5"/>
<text text-anchor="middle" x="245" y="-197.5" font-family="Helvetica,sans-Serif" font-size="10.00">USB CDC</text>
</a>
</g>
</g>
<!-- Node0&#45;&gt;Node24 -->
<g id="edge24" class="edge"><title>Node0&#45;&gt;Node24</title>
<path fill="none" stroke="blueviolet" stroke-dasharray="5,2" d="M111.076,-418.397C113.071,-391.199 121.403,-311.986 153,-256 164.43,-235.747 170.319,-231.39 190,-219 197.569,-214.235 206.491,-210.472 214.878,-207.595"/>
<text text-anchor="middle" x="162.5" y="-259" font-family="Helvetica,sans-Serif" font-size="10.00">erpc</text>
</g>
<!-- Node3 -->
<g id="node21" class="node"><title>Node3</title>
<g id="a_node21"><a xlink:href="group__infra__codec.html" target="_top" xlink:title="Classes used for message serialization. ">
<polygon fill="white" stroke="black" points="210,-152.5 210,-171.5 280,-171.5 280,-152.5 210,-152.5"/>
<text text-anchor="middle" x="245" y="-159.5" font-family="Helvetica,sans-Serif" font-size="10.00">Serialization</text>
</a>
</g>
</g>
<!-- Node0&#45;&gt;Node3 -->
<g id="edge3" class="edge"><title>Node0&#45;&gt;Node3</title>
<path fill="none" stroke="blueviolet" stroke-dasharray="5,2" d="M110.467,-418.496C110.746,-387.485 114.737,-287.218 153,-217 163.978,-196.853 170.5,-193.09 190,-181 196.082,-177.229 203.014,-174.077 209.837,-171.493"/>
<text text-anchor="middle" x="162.5" y="-220" font-family="Helvetica,sans-Serif" font-size="10.00">erpc</text>
</g>
<!-- Node15 -->
<g id="node22" class="node"><title>Node15</title>
<g id="a_node22"><a xlink:href="group__rpmsg__lite__rtos__transport.html" target="_top" xlink:title="RPMsg&#45;Lite zero copy transport using RTOS API. ">
<polygon fill="white" stroke="black" points="196.5,-114.5 196.5,-133.5 293.5,-133.5 293.5,-114.5 196.5,-114.5"/>
<text text-anchor="middle" x="245" y="-121.5" font-family="Helvetica,sans-Serif" font-size="10.00">RPMsg&#45;Lite RTOS</text>
</a>
</g>
</g>
<!-- Node0&#45;&gt;Node15 -->
<g id="edge15" class="edge"><title>Node0&#45;&gt;Node15</title>
<path fill="none" stroke="blueviolet" stroke-dasharray="5,2" d="M110.075,-418.289C108.969,-383.576 108.712,-263.23 153,-179 163.678,-158.692 170.5,-155.09 190,-143 195.997,-139.282 202.821,-136.164 209.553,-133.601"/>
<text text-anchor="middle" x="162.5" y="-182" font-family="Helvetica,sans-Serif" font-size="10.00">erpc</text>
</g>
<!-- Node16 -->
<g id="node23" class="node"><title>Node16</title>
<g id="a_node23"><a xlink:href="group__rpmsg__lite__transport.html" target="_top" xlink:title="RPMsg&#45;Lite zero copy transport. ">
<polygon fill="white" stroke="black" points="211,-76.5 211,-95.5 279,-95.5 279,-76.5 211,-76.5"/>
<text text-anchor="middle" x="245" y="-83.5" font-family="Helvetica,sans-Serif" font-size="10.00">RPMsg&#45;Lite</text>
</a>
</g>
</g>
<!-- Node0&#45;&gt;Node16 -->
<g id="edge16" class="edge"><title>Node0&#45;&gt;Node16</title>
<path fill="none" stroke="blueviolet" stroke-dasharray="5,2" d="M111.102,-418.319C113.976,-374.103 127.24,-191.331 153,-141 163.453,-120.576 170.5,-117.09 190,-105 196.419,-101.02 203.787,-97.7283 210.973,-95.0674"/>
<text text-anchor="middle" x="162.5" y="-144" font-family="Helvetica,sans-Serif" font-size="10.00">erpc</text>
</g>
<!-- Node7 -->
<g id="node24" class="node"><title>Node7</title>
<g id="a_node24"><a xlink:href="group__port__setup__extensions.html" target="_top" xlink:title="Extension setup functions. ">
<polygon fill="white" stroke="black" points="200.5,-38.5 200.5,-57.5 289.5,-57.5 289.5,-38.5 200.5,-38.5"/>
<text text-anchor="middle" x="245" y="-45.5" font-family="Helvetica,sans-Serif" font-size="10.00">Extension Setup</text>
</a>
</g>
</g>
<!-- Node0&#45;&gt;Node7 -->
<g id="edge7" class="edge"><title>Node0&#45;&gt;Node7</title>
<path fill="none" stroke="blueviolet" stroke-dasharray="5,2" d="M110.913,-418.343C113.076,-370.692 124.127,-160.614 153,-103 163.28,-82.4878 170.5,-79.0903 190,-67 195.997,-63.2817 202.821,-60.1644 209.553,-57.6008"/>
<text text-anchor="middle" x="162.5" y="-106" font-family="Helvetica,sans-Serif" font-size="10.00">erpc</text>
</g>
<!-- Node13 -->
<g id="node25" class="node"><title>Node13</title>
<g id="a_node25"><a xlink:href="group__lpspi__slave__transport.html" target="_top" xlink:title="Lpspi_slave_transport">
<polygon fill="white" stroke="black" points="190,-0.5 190,-19.5 300,-19.5 300,-0.5 190,-0.5"/>
<text text-anchor="middle" x="245" y="-7.5" font-family="Helvetica,sans-Serif" font-size="10.00">Lpspi_slave_transport</text>
</a>
</g>
</g>
<!-- Node0&#45;&gt;Node13 -->
<g id="edge13" class="edge"><title>Node0&#45;&gt;Node13</title>
<path fill="none" stroke="blueviolet" stroke-dasharray="5,2" d="M110.747,-418.216C112.178,-366.913 120.495,-128.84 153,-64 164.279,-41.5009 189.548,-27.6177 210.603,-19.5722"/>
<text text-anchor="middle" x="162.5" y="-67" font-family="Helvetica,sans-Serif" font-size="10.00">erpc</text>
</g>
<!-- Node1 -->
<g id="node20" class="node"><title>Node1</title>
<g id="a_node20"><a xlink:href="group__port.html" target="_top" xlink:title="Porting layer. ">
<polygon fill="white" stroke="black" points="0,-418.5 0,-437.5 47,-437.5 47,-418.5 0,-418.5"/>
<text text-anchor="middle" x="23.5" y="-425.5" font-family="Helvetica,sans-Serif" font-size="10.00">Porting</text>
</a>
</g>
</g>
<!-- Node1&#45;&gt;Node0 -->
<g id="edge1" class="edge"><title>Node1&#45;&gt;Node0</title>
<path fill="none" stroke="black" d="M57.084,-428C65.9853,-428 75.4816,-428 83.8595,-428"/>
<polygon fill="black" stroke="black" points="57.0105,-424.5 47.0105,-428 57.0104,-431.5 57.0105,-424.5"/>
</g>
</g>
</svg>
