<?xml version="1.0" encoding="UTF-8" standalone="no"?>
<!DOCTYPE svg PUBLIC "-//W3C//DTD SVG 1.1//EN"
 "http://www.w3.org/Graphics/SVG/1.1/DTD/svg11.dtd">
<!-- Generated by graphviz version 2.38.0 (20140413.2041)
 -->
<!-- Title: Transport Layers Pages: 1 -->
<svg width="239pt" height="598pt"
 viewBox="0.00 0.00 239.00 598.00" xmlns="http://www.w3.org/2000/svg" xmlns:xlink="http://www.w3.org/1999/xlink">
<g id="graph0" class="graph" transform="scale(1 1) rotate(0) translate(4 594)">
<title>Transport Layers</title>
<polygon fill="white" stroke="none" points="-4,4 -4,-594 235,-594 235,4 -4,4"/>
<!-- Node0 -->
<g id="node1" class="node"><title>Node0</title>
<polygon fill="#bfbfbf" stroke="black" points="0,-285.5 0,-304.5 89,-304.5 89,-285.5 0,-285.5"/>
<text text-anchor="middle" x="44.5" y="-292.5" font-family="Helvetica,sans-Serif" font-size="10.00">Transport Layers</text>
</g>
<!-- Node2 -->
<g id="node2" class="node"><title>Node2</title>
<g id="a_node2"><a xlink:href="group__dspi__slave__transport.html" target="_top" xlink:title="MCUXpressoSDK DSPI slave driver transport. ">
<polygon fill="white" stroke="black" points="145.5,-570.5 145.5,-589.5 210.5,-589.5 210.5,-570.5 145.5,-570.5"/>
<text text-anchor="middle" x="178" y="-577.5" font-family="Helvetica,sans-Serif" font-size="10.00">DSPI Slave</text>
</a>
</g>
</g>
<!-- Node0&#45;&gt;Node2 -->
<g id="edge2" class="edge"><title>Node0&#45;&gt;Node2</title>
<path fill="none" stroke="black" d="M45.6706,-314.841C47.1636,-363.416 57.6944,-489.538 125,-561 130.47,-566.807 137.859,-570.846 145.347,-573.653"/>
<polygon fill="black" stroke="black" points="49.1674,-314.647 45.4612,-304.722 42.1689,-314.792 49.1674,-314.647"/>
</g>
<!-- Node16 -->
<g id="node3" class="node"><title>Node16</title>
<g id="a_node3"><a xlink:href="group__i2c__slave__transport.html" target="_top" xlink:title="MCUXpressoSDK I2C slave driver transport. ">
<polygon fill="white" stroke="black" points="149.5,-532.5 149.5,-551.5 206.5,-551.5 206.5,-532.5 149.5,-532.5"/>
<text text-anchor="middle" x="178" y="-539.5" font-family="Helvetica,sans-Serif" font-size="10.00">I2C Slave</text>
</a>
</g>
</g>
<!-- Node0&#45;&gt;Node16 -->
<g id="edge16" class="edge"><title>Node0&#45;&gt;Node16</title>
<path fill="none" stroke="black" d="M46.8487,-314.907C50.857,-358.556 66.3916,-463.517 125,-523 131.543,-529.641 140.594,-533.977 149.312,-536.802"/>
<polygon fill="black" stroke="black" points="50.3221,-314.436 46.0278,-304.751 43.3449,-315 50.3221,-314.436"/>
</g>
<!-- Node13 -->
<g id="node4" class="node"><title>Node13</title>
<g id="a_node4"><a xlink:href="group__mu__transport.html" target="_top" xlink:title="Messaging Unit transport. ">
<polygon fill="white" stroke="black" points="136,-494.5 136,-513.5 220,-513.5 220,-494.5 136,-494.5"/>
<text text-anchor="middle" x="178" y="-501.5" font-family="Helvetica,sans-Serif" font-size="10.00">Messaging Unit</text>
</a>
</g>
</g>
<!-- Node0&#45;&gt;Node13 -->
<g id="edge13" class="edge"><title>Node0&#45;&gt;Node13</title>
<path fill="none" stroke="black" d="M48.5036,-315.178C55.2441,-353.522 75.0848,-437.328 125,-485 129.031,-488.85 133.905,-491.931 139.033,-494.394"/>
<polygon fill="black" stroke="black" points="51.8795,-314.134 46.8135,-304.829 44.971,-315.262 51.8795,-314.134"/>
</g>
<!-- Node12 -->
<g id="node5" class="node"><title>Node12</title>
<g id="a_node5"><a xlink:href="group__tcp__transport.html" target="_top" xlink:title="Simple TCP/IP transport. ">
<polygon fill="white" stroke="black" points="154.5,-456.5 154.5,-475.5 201.5,-475.5 201.5,-456.5 154.5,-456.5"/>
<text text-anchor="middle" x="178" y="-463.5" font-family="Helvetica,sans-Serif" font-size="10.00">TCP/IP</text>
</a>
</g>
</g>
<!-- Node0&#45;&gt;Node12 -->
<g id="edge12" class="edge"><title>Node0&#45;&gt;Node12</title>
<path fill="none" stroke="black" d="M50.7279,-314.658C60.2352,-346.752 83.328,-410.48 125,-447 133.24,-454.222 144.454,-458.779 154.358,-461.614"/>
<polygon fill="black" stroke="black" points="54.0082,-313.395 47.9234,-304.721 47.2714,-315.296 54.0082,-313.395"/>
</g>
<!-- Node14 -->
<g id="node6" class="node"><title>Node14</title>
<g id="a_node6"><a xlink:href="group__rpmsg__linux__transport.html" target="_top" xlink:title="RPMsg endpoints linux transport. ">
<polygon fill="white" stroke="black" points="130.5,-418.5 130.5,-437.5 225.5,-437.5 225.5,-418.5 130.5,-418.5"/>
<text text-anchor="middle" x="178" y="-425.5" font-family="Helvetica,sans-Serif" font-size="10.00">RPMsg Endpoints</text>
</a>
</g>
</g>
<!-- Node0&#45;&gt;Node14 -->
<g id="edge14" class="edge"><title>Node0&#45;&gt;Node14</title>
<path fill="none" stroke="black" d="M54.1261,-313.945C66.4543,-339.036 91.3913,-383.127 125,-409 129.95,-412.811 135.739,-415.912 141.622,-418.417"/>
<polygon fill="black" stroke="black" points="57.2117,-312.283 49.7588,-304.753 50.8891,-315.287 57.2117,-312.283"/>
</g>
<!-- Node8 -->
<g id="node7" class="node"><title>Node8</title>
<g id="a_node7"><a xlink:href="group__serial__transport.html" target="_top" xlink:title="POSIX and Win32 serial port transport. ">
<polygon fill="white" stroke="black" points="147.5,-380.5 147.5,-399.5 208.5,-399.5 208.5,-380.5 147.5,-380.5"/>
<text text-anchor="middle" x="178" y="-387.5" font-family="Helvetica,sans-Serif" font-size="10.00">Serial port</text>
</a>
</g>
</g>
<!-- Node0&#45;&gt;Node8 -->
<g id="edge8" class="edge"><title>Node0&#45;&gt;Node8</title>
<path fill="none" stroke="black" d="M60.1601,-312.752C74.9853,-329.722 99.3216,-355.022 125,-371 131.855,-375.265 139.81,-378.777 147.405,-381.571"/>
<polygon fill="black" stroke="black" points="62.4704,-310.068 53.3178,-304.731 57.1447,-314.611 62.4704,-310.068"/>
</g>
<!-- Node4 -->
<g id="node8" class="node"><title>Node4</title>
<g id="a_node8"><a xlink:href="group__spi__slave__transport.html" target="_top" xlink:title="MCUXpressoSDK SPI slave driver transport. ">
<polygon fill="white" stroke="black" points="148.5,-342.5 148.5,-361.5 207.5,-361.5 207.5,-342.5 148.5,-342.5"/>
<text text-anchor="middle" x="178" y="-349.5" font-family="Helvetica,sans-Serif" font-size="10.00">SPI Slave</text>
</a>
</g>
</g>
<!-- Node0&#45;&gt;Node4 -->
<g id="edge4" class="edge"><title>Node0&#45;&gt;Node4</title>
<path fill="none" stroke="black" d="M73.5159,-309.198C88.6106,-316.641 107.649,-325.703 125,-333 132.797,-336.279 141.378,-339.549 149.283,-342.428"/>
<polygon fill="black" stroke="black" points="74.7356,-305.895 64.2234,-304.574 71.6175,-312.162 74.7356,-305.895"/>
</g>
<!-- Node7 -->
<g id="node9" class="node"><title>Node7</title>
<g id="a_node9"><a xlink:href="group__uart__transport.html" target="_top" xlink:title="CMSIS UART driver transport. ">
<polygon fill="white" stroke="black" points="140,-304.5 140,-323.5 216,-323.5 216,-304.5 140,-304.5"/>
<text text-anchor="middle" x="178" y="-311.5" font-family="Helvetica,sans-Serif" font-size="10.00">CMSIS UART</text>
</a>
</g>
</g>
<!-- Node0&#45;&gt;Node7 -->
<g id="edge7" class="edge"><title>Node0&#45;&gt;Node7</title>
<path fill="none" stroke="black" d="M99.5197,-302.805C113.129,-304.772 127.432,-306.838 139.993,-308.653"/>
<polygon fill="black" stroke="black" points="99.6854,-299.293 89.2876,-301.327 98.6843,-306.221 99.6854,-299.293"/>
</g>
<!-- Node5 -->
<g id="node10" class="node"><title>Node5</title>
<g id="a_node10"><a xlink:href="group__spidev__master__transport.html" target="_top" xlink:title="SPIdev Linux transport. ">
<polygon fill="white" stroke="black" points="125,-266.5 125,-285.5 231,-285.5 231,-266.5 125,-266.5"/>
<text text-anchor="middle" x="178" y="-273.5" font-family="Helvetica,sans-Serif" font-size="10.00">SPIdev Linux Master</text>
</a>
</g>
</g>
<!-- Node0&#45;&gt;Node5 -->
<g id="edge5" class="edge"><title>Node0&#45;&gt;Node5</title>
<path fill="none" stroke="black" d="M99.345,-287.22C107.73,-286.009 116.383,-284.758 124.733,-283.552"/>
<polygon fill="black" stroke="black" points="98.6843,-283.779 89.2876,-288.673 99.6854,-290.707 98.6843,-283.779"/>
</g>
<!-- Node3 -->
<g id="node11" class="node"><title>Node3</title>
<g id="a_node11"><a xlink:href="group__spi__master__transport.html" target="_top" xlink:title="MCUXpressoSDK SPI master driver transport. ">
<polygon fill="white" stroke="black" points="145.5,-228.5 145.5,-247.5 210.5,-247.5 210.5,-228.5 145.5,-228.5"/>
<text text-anchor="middle" x="178" y="-235.5" font-family="Helvetica,sans-Serif" font-size="10.00">SPI Master</text>
</a>
</g>
</g>
<!-- Node0&#45;&gt;Node3 -->
<g id="edge3" class="edge"><title>Node0&#45;&gt;Node3</title>
<path fill="none" stroke="black" d="M73.5159,-280.802C88.6106,-273.359 107.649,-264.297 125,-257 132.797,-253.721 141.378,-250.451 149.283,-247.572"/>
<polygon fill="black" stroke="black" points="71.6175,-277.838 64.2234,-285.426 74.7356,-284.105 71.6175,-277.838"/>
</g>
<!-- Node11 -->
<g id="node12" class="node"><title>Node11</title>
<g id="a_node12"><a xlink:href="group__rpmsg__tty__rtos__transport.html" target="_top" xlink:title="RPMsg TTY RTOS transport. ">
<polygon fill="white" stroke="black" points="129,-190.5 129,-209.5 227,-209.5 227,-190.5 129,-190.5"/>
<text text-anchor="middle" x="178" y="-197.5" font-family="Helvetica,sans-Serif" font-size="10.00">RPMsg TTY RTOS</text>
</a>
</g>
</g>
<!-- Node0&#45;&gt;Node11 -->
<g id="edge11" class="edge"><title>Node0&#45;&gt;Node11</title>
<path fill="none" stroke="black" d="M60.1601,-277.248C74.9853,-260.278 99.3216,-234.978 125,-219 130.957,-215.293 137.745,-212.155 144.406,-209.564"/>
<polygon fill="black" stroke="black" points="57.1447,-275.389 53.3178,-285.269 62.4704,-279.932 57.1447,-275.389"/>
</g>
<!-- Node6 -->
<g id="node13" class="node"><title>Node6</title>
<g id="a_node13"><a xlink:href="group__itbp__transport.html" target="_top" xlink:title="Simple inter&#45;thread communications transport. ">
<polygon fill="white" stroke="black" points="145.5,-152.5 145.5,-171.5 210.5,-171.5 210.5,-152.5 145.5,-152.5"/>
<text text-anchor="middle" x="178" y="-159.5" font-family="Helvetica,sans-Serif" font-size="10.00">Inter&#45;thread</text>
</a>
</g>
</g>
<!-- Node0&#45;&gt;Node6 -->
<g id="edge6" class="edge"><title>Node0&#45;&gt;Node6</title>
<path fill="none" stroke="black" d="M54.1261,-276.055C66.4543,-250.964 91.3913,-206.873 125,-181 131.017,-176.368 138.272,-172.786 145.428,-170.046"/>
<polygon fill="black" stroke="black" points="50.8891,-274.713 49.7588,-285.247 57.2117,-277.717 50.8891,-274.713"/>
</g>
<!-- Node1 -->
<g id="node14" class="node"><title>Node1</title>
<g id="a_node14"><a xlink:href="group__dspi__master__transport.html" target="_top" xlink:title="MCUXpressoSDK DSPI master driver transport. ">
<polygon fill="white" stroke="black" points="142,-114.5 142,-133.5 214,-133.5 214,-114.5 142,-114.5"/>
<text text-anchor="middle" x="178" y="-121.5" font-family="Helvetica,sans-Serif" font-size="10.00">DSPI Master</text>
</a>
</g>
</g>
<!-- Node0&#45;&gt;Node1 -->
<g id="edge1" class="edge"><title>Node0&#45;&gt;Node1</title>
<path fill="none" stroke="black" d="M50.7279,-275.342C60.2352,-243.248 83.328,-179.52 125,-143 129.843,-138.756 135.713,-135.432 141.74,-132.837"/>
<polygon fill="black" stroke="black" points="47.2714,-274.704 47.9234,-285.279 54.0082,-276.605 47.2714,-274.704"/>
</g>
<!-- Node15 -->
<g id="node15" class="node"><title>Node15</title>
<g id="a_node15"><a xlink:href="group___u_s_b___c_d_c__transport.html" target="_top" xlink:title="USB CDC transport. ">
<polygon fill="white" stroke="black" points="148,-76.5 148,-95.5 208,-95.5 208,-76.5 148,-76.5"/>
<text text-anchor="middle" x="178" y="-83.5" font-family="Helvetica,sans-Serif" font-size="10.00">USB CDC</text>
</a>
</g>
</g>
<!-- Node0&#45;&gt;Node15 -->
<g id="edge15" class="edge"><title>Node0&#45;&gt;Node15</title>
<path fill="none" stroke="black" d="M48.5036,-274.822C55.2441,-236.478 75.0848,-152.672 125,-105 131.325,-98.9591 139.724,-94.8121 147.923,-91.9758"/>
<polygon fill="black" stroke="black" points="44.971,-274.738 46.8135,-285.171 51.8795,-275.866 44.971,-274.738"/>
</g>
<!-- Node9 -->
<g id="node16" class="node"><title>Node9</title>
<g id="a_node16"><a xlink:href="group__rpmsg__lite__rtos__transport.html" target="_top" xlink:title="RPMsg&#45;Lite zero copy transport using RTOS API. ">
<polygon fill="white" stroke="black" points="129.5,-38.5 129.5,-57.5 226.5,-57.5 226.5,-38.5 129.5,-38.5"/>
<text text-anchor="middle" x="178" y="-45.5" font-family="Helvetica,sans-Serif" font-size="10.00">RPMsg&#45;Lite RTOS</text>
</a>
</g>
</g>
<!-- Node0&#45;&gt;Node9 -->
<g id="edge9" class="edge"><title>Node0&#45;&gt;Node9</title>
<path fill="none" stroke="black" d="M46.8487,-275.093C50.857,-231.444 66.3916,-126.483 125,-67 128.845,-63.0975 133.556,-59.9909 138.556,-57.5192"/>
<polygon fill="black" stroke="black" points="43.3449,-275 46.0278,-285.249 50.3221,-275.564 43.3449,-275"/>
</g>
<!-- Node10 -->
<g id="node17" class="node"><title>Node10</title>
<g id="a_node17"><a xlink:href="group__rpmsg__lite__transport.html" target="_top" xlink:title="RPMsg&#45;Lite zero copy transport. ">
<polygon fill="white" stroke="black" points="144,-0.5 144,-19.5 212,-19.5 212,-0.5 144,-0.5"/>
<text text-anchor="middle" x="178" y="-7.5" font-family="Helvetica,sans-Serif" font-size="10.00">RPMsg&#45;Lite</text>
</a>
</g>
</g>
<!-- Node0&#45;&gt;Node10 -->
<g id="edge10" class="edge"><title>Node0&#45;&gt;Node10</title>
<path fill="none" stroke="black" d="M45.6706,-275.159C47.1636,-226.584 57.6944,-100.462 125,-29 130.14,-23.5425 136.975,-19.6468 143.996,-16.8678"/>
<polygon fill="black" stroke="black" points="42.1689,-275.208 45.4612,-285.278 49.1674,-275.353 42.1689,-275.208"/>
</g>
</g>
</svg>
