<?xml version="1.0" encoding="UTF-8" standalone="no"?>
<!DOCTYPE svg PUBLIC "-//W3C//DTD SVG 1.1//EN"
 "http://www.w3.org/Graphics/SVG/1.1/DTD/svg11.dtd">
<!-- Generated by graphviz version 2.38.0 (20140413.2041)
 -->
<!-- Title: Graphical Class Hierarchy Pages: 1 -->
<svg width="489pt" height="493pt"
 viewBox="0.00 0.00 489.00 493.00" xmlns="http://www.w3.org/2000/svg" xmlns:xlink="http://www.w3.org/1999/xlink">
<g id="graph0" class="graph" transform="scale(1 1) rotate(0) translate(4 489)">
<title>Graphical Class Hierarchy</title>
<polygon fill="white" stroke="none" points="-4,4 -4,-489 485,-489 485,4 -4,4"/>
<!-- Node1 -->
<g id="node1" class="node"><title>Node1</title>
<g id="a_node1"><a xlink:href="classerpc_1_1_r_p_msg_base.html" target="_top" xlink:title="Transport that other RPMsg transports inherits. ">
<polygon fill="white" stroke="black" points="0,-446.5 0,-465.5 96,-465.5 96,-446.5 0,-446.5"/>
<text text-anchor="middle" x="48" y="-453.5" font-family="Helvetica,sans-Serif" font-size="10.00">erpc::RPMsgBase</text>
</a>
</g>
</g>
<!-- Node2 -->
<g id="node2" class="node"><title>Node2</title>
<g id="a_node2"><a xlink:href="classerpc_1_1_r_p_msg_r_t_o_s_transport.html" target="_top" xlink:title="Transport that uses RPMsg zero copy RTOS API for interprocessor messaging. ">
<polygon fill="white" stroke="black" points="139.5,-446.5 139.5,-465.5 279.5,-465.5 279.5,-446.5 139.5,-446.5"/>
<text text-anchor="middle" x="209.5" y="-453.5" font-family="Helvetica,sans-Serif" font-size="10.00">erpc::RPMsgRTOSTransport</text>
</a>
</g>
</g>
<!-- Node1&#45;&gt;Node2 -->
<g id="edge1" class="edge"><title>Node1&#45;&gt;Node2</title>
<path fill="none" stroke="midnightblue" d="M106.465,-456C117.153,-456 128.422,-456 139.415,-456"/>
<polygon fill="midnightblue" stroke="midnightblue" points="106.423,-452.5 96.4234,-456 106.423,-459.5 106.423,-452.5"/>
</g>
<!-- Node3 -->
<g id="node3" class="node"><title>Node3</title>
<g id="a_node3"><a xlink:href="classerpc_1_1_r_p_msg_transport.html" target="_top" xlink:title="Transport that uses RPMsg zero copy API for interprocessor messaging. ">
<polygon fill="white" stroke="black" points="152.5,-408.5 152.5,-427.5 266.5,-427.5 266.5,-408.5 152.5,-408.5"/>
<text text-anchor="middle" x="209.5" y="-415.5" font-family="Helvetica,sans-Serif" font-size="10.00">erpc::RPMsgTransport</text>
</a>
</g>
</g>
<!-- Node1&#45;&gt;Node3 -->
<g id="edge2" class="edge"><title>Node1&#45;&gt;Node3</title>
<path fill="none" stroke="midnightblue" d="M99.234,-444.032C121.586,-438.707 147.538,-432.524 168.541,-427.52"/>
<polygon fill="midnightblue" stroke="midnightblue" points="98.1651,-440.689 89.2486,-446.411 99.7875,-447.498 98.1651,-440.689"/>
</g>
<!-- Node4 -->
<g id="node4" class="node"><title>Node4</title>
<g id="a_node4"><a xlink:href="classerpc_1_1_r_p_msg_t_t_y_r_t_o_s_transport.html" target="_top" xlink:title="Transport that uses RPMsg zero copy RTOS API for interprocessor messaging. ">
<polygon fill="white" stroke="black" points="323,-465.5 323,-484.5 481,-484.5 481,-465.5 323,-465.5"/>
<text text-anchor="middle" x="402" y="-472.5" font-family="Helvetica,sans-Serif" font-size="10.00">erpc::RPMsgTTYRTOSTransport</text>
</a>
</g>
</g>
<!-- Node1&#45;&gt;Node4 -->
<g id="edge3" class="edge"><title>Node1&#45;&gt;Node4</title>
<path fill="none" stroke="midnightblue" d="M92.4581,-467.884C105.109,-470.815 119.019,-473.533 132,-475 195.924,-482.223 268.94,-481.673 322.756,-479.624"/>
<polygon fill="midnightblue" stroke="midnightblue" points="93.1669,-464.454 82.6245,-465.507 91.5226,-471.258 93.1669,-464.454"/>
</g>
<!-- Node5 -->
<g id="node5" class="node"><title>Node5</title>
<g id="a_node5"><a xlink:href="classerpc_1_1_transport.html" target="_top" xlink:title="Abstract interface for transport layer. ">
<polygon fill="white" stroke="black" points="7,-332.5 7,-351.5 89,-351.5 89,-332.5 7,-332.5"/>
<text text-anchor="middle" x="48" y="-339.5" font-family="Helvetica,sans-Serif" font-size="10.00">erpc::Transport</text>
</a>
</g>
</g>
<!-- Node5&#45;&gt;Node2 -->
<g id="edge21" class="edge"><title>Node5&#45;&gt;Node2</title>
<path fill="none" stroke="midnightblue" d="M59.8675,-360.112C73.8215,-381.766 100.084,-417.517 132,-437 138.307,-440.85 145.358,-443.922 152.557,-446.372"/>
<polygon fill="midnightblue" stroke="midnightblue" points="62.7692,-358.151 54.5029,-351.523 56.8322,-361.859 62.7692,-358.151"/>
</g>
<!-- Node5&#45;&gt;Node3 -->
<g id="edge22" class="edge"><title>Node5&#45;&gt;Node3</title>
<path fill="none" stroke="midnightblue" d="M68.0915,-358.08C84.1882,-370.879 108.325,-388.353 132,-399 140.487,-402.817 149.863,-405.946 159.056,-408.485"/>
<polygon fill="midnightblue" stroke="midnightblue" points="69.9966,-355.118 60.0301,-351.523 65.5798,-360.548 69.9966,-355.118"/>
</g>
<!-- Node6 -->
<g id="node6" class="node"><title>Node6</title>
<g id="a_node6"><a xlink:href="classerpc_1_1_framed_transport.html" target="_top" xlink:title="Base class for framed transport layers. ">
<polygon fill="white" stroke="black" points="152,-218.5 152,-237.5 267,-237.5 267,-218.5 152,-218.5"/>
<text text-anchor="middle" x="209.5" y="-225.5" font-family="Helvetica,sans-Serif" font-size="10.00">erpc::FramedTransport</text>
</a>
</g>
</g>
<!-- Node5&#45;&gt;Node6 -->
<g id="edge4" class="edge"><title>Node5&#45;&gt;Node6</title>
<path fill="none" stroke="midnightblue" d="M59.8675,-323.888C73.8215,-302.234 100.084,-266.483 132,-247 138.307,-243.15 145.358,-240.078 152.557,-237.628"/>
<polygon fill="midnightblue" stroke="midnightblue" points="56.8322,-322.141 54.5029,-332.477 62.7692,-325.849 56.8322,-322.141"/>
</g>
<!-- Node19 -->
<g id="node19" class="node"><title>Node19</title>
<g id="a_node19"><a xlink:href="classerpc_1_1_inter_thread_buffer_transport.html" target="_top" xlink:title="Very basic transport to send/receive messages between threads. ">
<polygon fill="white" stroke="black" points="132,-370.5 132,-389.5 287,-389.5 287,-370.5 132,-370.5"/>
<text text-anchor="middle" x="209.5" y="-377.5" font-family="Helvetica,sans-Serif" font-size="10.00">erpc::InterThreadBufferTransport</text>
</a>
</g>
</g>
<!-- Node5&#45;&gt;Node19 -->
<g id="edge18" class="edge"><title>Node5&#45;&gt;Node19</title>
<path fill="none" stroke="midnightblue" d="M99.234,-353.968C121.586,-359.293 147.538,-365.476 168.541,-370.48"/>
<polygon fill="midnightblue" stroke="midnightblue" points="99.7875,-350.502 89.2486,-351.589 98.1651,-357.311 99.7875,-350.502"/>
</g>
<!-- Node20 -->
<g id="node20" class="node"><title>Node20</title>
<g id="a_node20"><a xlink:href="classerpc_1_1_m_u_transport.html" target="_top" xlink:title="Transport that uses Messaging Unit (MU) for interprocessor messaging. ">
<polygon fill="white" stroke="black" points="161,-332.5 161,-351.5 258,-351.5 258,-332.5 161,-332.5"/>
<text text-anchor="middle" x="209.5" y="-339.5" font-family="Helvetica,sans-Serif" font-size="10.00">erpc::MUTransport</text>
</a>
</g>
</g>
<!-- Node5&#45;&gt;Node20 -->
<g id="edge19" class="edge"><title>Node5&#45;&gt;Node20</title>
<path fill="none" stroke="midnightblue" d="M99.2639,-342C118.962,-342 141.454,-342 160.888,-342"/>
<polygon fill="midnightblue" stroke="midnightblue" points="99.2486,-338.5 89.2486,-342 99.2485,-345.5 99.2486,-338.5"/>
</g>
<!-- Node21 -->
<g id="node21" class="node"><title>Node21</title>
<g id="a_node21"><a xlink:href="classerpc_1_1_r_p_msg_linux_transport.html" target="_top" xlink:title="RPMSG Linux transport to send/receive messages through RPMSG endpoints based on github.com/nxp&#45;mcuxpresso/rpmsg&#45;sysfs/tree/0aa1817545a765c200b1b2f9b6680a420dcf9171 implementation. ">
<polygon fill="white" stroke="black" points="141,-294.5 141,-313.5 278,-313.5 278,-294.5 141,-294.5"/>
<text text-anchor="middle" x="209.5" y="-301.5" font-family="Helvetica,sans-Serif" font-size="10.00">erpc::RPMsgLinuxTransport</text>
</a>
</g>
</g>
<!-- Node5&#45;&gt;Node21 -->
<g id="edge20" class="edge"><title>Node5&#45;&gt;Node21</title>
<path fill="none" stroke="midnightblue" d="M99.234,-330.032C121.586,-324.707 147.538,-318.524 168.541,-313.52"/>
<polygon fill="midnightblue" stroke="midnightblue" points="98.1651,-326.689 89.2486,-332.411 99.7875,-333.498 98.1651,-326.689"/>
</g>
<!-- Node22 -->
<g id="node22" class="node"><title>Node22</title>
<g id="a_node22"><a xlink:href="classerpc_1_1_transport_arbitrator.html" target="_top" xlink:title="Interposer to share transport between client and server. ">
<polygon fill="white" stroke="black" points="148.5,-256.5 148.5,-275.5 270.5,-275.5 270.5,-256.5 148.5,-256.5"/>
<text text-anchor="middle" x="209.5" y="-263.5" font-family="Helvetica,sans-Serif" font-size="10.00">erpc::TransportArbitrator</text>
</a>
</g>
</g>
<!-- Node5&#45;&gt;Node22 -->
<g id="edge23" class="edge"><title>Node5&#45;&gt;Node22</title>
<path fill="none" stroke="midnightblue" d="M68.0915,-325.92C84.1882,-313.121 108.325,-295.647 132,-285 140.487,-281.183 149.863,-278.054 159.056,-275.515"/>
<polygon fill="midnightblue" stroke="midnightblue" points="65.5798,-323.452 60.0301,-332.477 69.9966,-328.882 65.5798,-323.452"/>
</g>
<!-- Node6&#45;&gt;Node4 -->
<g id="edge10" class="edge"><title>Node6&#45;&gt;Node4</title>
<path fill="none" stroke="midnightblue" d="M276.299,-238.52C280.235,-240.853 283.863,-243.651 287,-247 348.744,-312.916 264.67,-378.045 323,-447 330.155,-455.458 340.062,-461.361 350.419,-465.481"/>
<polygon fill="midnightblue" stroke="midnightblue" points="277.784,-235.35 267.261,-234.12 274.72,-241.644 277.784,-235.35"/>
</g>
<!-- Node7 -->
<g id="node7" class="node"><title>Node7</title>
<g id="a_node7"><a xlink:href="classerpc_1_1_dspi_master_transport.html" target="_top" xlink:title="Very basic transport to send/receive messages via DSPI. ">
<polygon fill="white" stroke="black" points="336.5,-304.5 336.5,-323.5 467.5,-323.5 467.5,-304.5 336.5,-304.5"/>
<text text-anchor="middle" x="402" y="-311.5" font-family="Helvetica,sans-Serif" font-size="10.00">erpc::DspiMasterTransport</text>
</a>
</g>
</g>
<!-- Node6&#45;&gt;Node7 -->
<g id="edge5" class="edge"><title>Node6&#45;&gt;Node7</title>
<path fill="none" stroke="midnightblue" d="M276.481,-241.154C280.156,-242.87 283.694,-244.809 287,-247 309.227,-261.733 300.74,-280.317 323,-295 328.934,-298.914 335.599,-302.023 342.468,-304.491"/>
<polygon fill="midnightblue" stroke="midnightblue" points="277.698,-237.871 267.117,-237.335 275.054,-244.353 277.698,-237.871"/>
</g>
<!-- Node8 -->
<g id="node8" class="node"><title>Node8</title>
<g id="a_node8"><a xlink:href="classerpc_1_1_dspi_slave_transport.html" target="_top" xlink:title="Very basic transport to send/receive messages via DSPI. ">
<polygon fill="white" stroke="black" points="339.5,-266.5 339.5,-285.5 464.5,-285.5 464.5,-266.5 339.5,-266.5"/>
<text text-anchor="middle" x="402" y="-273.5" font-family="Helvetica,sans-Serif" font-size="10.00">erpc::DspiSlaveTransport</text>
</a>
</g>
</g>
<!-- Node6&#45;&gt;Node8 -->
<g id="edge6" class="edge"><title>Node6&#45;&gt;Node8</title>
<path fill="none" stroke="midnightblue" d="M259.594,-239.981C268.716,-242.267 278.156,-244.674 287,-247 303.06,-251.224 306.931,-252.812 323,-257 335.273,-260.199 348.677,-263.524 360.857,-266.482"/>
<polygon fill="midnightblue" stroke="midnightblue" points="260.413,-236.578 249.864,-237.557 258.721,-243.371 260.413,-236.578"/>
</g>
<!-- Node9 -->
<g id="node9" class="node"><title>Node9</title>
<g id="a_node9"><a xlink:href="classerpc_1_1_i2c_slave_transport.html" target="_top" xlink:title="Very basic transport to send/receive messages via I2C. ">
<polygon fill="white" stroke="black" points="343,-228.5 343,-247.5 461,-247.5 461,-228.5 343,-228.5"/>
<text text-anchor="middle" x="402" y="-235.5" font-family="Helvetica,sans-Serif" font-size="10.00">erpc::I2cSlaveTransport</text>
</a>
</g>
</g>
<!-- Node6&#45;&gt;Node9 -->
<g id="edge7" class="edge"><title>Node6&#45;&gt;Node9</title>
<path fill="none" stroke="midnightblue" d="M277.147,-231.499C298.586,-232.624 322.156,-233.861 342.928,-234.952"/>
<polygon fill="midnightblue" stroke="midnightblue" points="277.31,-228.002 267.141,-230.973 276.943,-234.993 277.31,-228.002"/>
</g>
<!-- Node10 -->
<g id="node10" class="node"><title>Node10</title>
<g id="a_node10"><a xlink:href="classerpc_1_1_l_p_i2c_slave_transport.html" target="_top" xlink:title="Very basic transport to send/receive messages via LPI2C. ">
<polygon fill="white" stroke="black" points="337,-190.5 337,-209.5 467,-209.5 467,-190.5 337,-190.5"/>
<text text-anchor="middle" x="402" y="-197.5" font-family="Helvetica,sans-Serif" font-size="10.00">erpc::LPI2cSlaveTransport</text>
</a>
</g>
</g>
<!-- Node6&#45;&gt;Node10 -->
<g id="edge8" class="edge"><title>Node6&#45;&gt;Node10</title>
<path fill="none" stroke="midnightblue" d="M277.107,-218.21C296.506,-215.359 317.654,-212.25 336.895,-209.422"/>
<polygon fill="midnightblue" stroke="midnightblue" points="276.525,-214.758 267.141,-219.675 277.543,-221.683 276.525,-214.758"/>
</g>
<!-- Node11 -->
<g id="node11" class="node"><title>Node11</title>
<g id="a_node11"><a xlink:href="classerpc_1_1_l_p_spi_slave_transport.html" target="_top" xlink:title="Very basic transport to send/receive messages via LPSPI. ">
<polygon fill="white" stroke="black" points="336.5,-152.5 336.5,-171.5 467.5,-171.5 467.5,-152.5 336.5,-152.5"/>
<text text-anchor="middle" x="402" y="-159.5" font-family="Helvetica,sans-Serif" font-size="10.00">erpc::LPSpiSlaveTransport</text>
</a>
</g>
</g>
<!-- Node6&#45;&gt;Node11 -->
<g id="edge9" class="edge"><title>Node6&#45;&gt;Node11</title>
<path fill="none" stroke="midnightblue" d="M240.164,-214.103C262.572,-203.977 294.271,-190.436 323,-181 333.726,-177.477 345.473,-174.282 356.521,-171.559"/>
<polygon fill="midnightblue" stroke="midnightblue" points="238.509,-211.011 230.867,-218.35 241.417,-217.378 238.509,-211.011"/>
</g>
<!-- Node12 -->
<g id="node12" class="node"><title>Node12</title>
<g id="a_node12"><a xlink:href="classerpc_1_1_serial_transport.html" target="_top" xlink:title="Serial transport layer for host PC. ">
<polygon fill="white" stroke="black" points="348.5,-114.5 348.5,-133.5 455.5,-133.5 455.5,-114.5 348.5,-114.5"/>
<text text-anchor="middle" x="402" y="-121.5" font-family="Helvetica,sans-Serif" font-size="10.00">erpc::SerialTransport</text>
</a>
</g>
</g>
<!-- Node6&#45;&gt;Node12 -->
<g id="edge11" class="edge"><title>Node6&#45;&gt;Node12</title>
<path fill="none" stroke="midnightblue" d="M227.513,-211.536C248.348,-192.282 285.513,-160.786 323,-143 331.059,-139.176 339.964,-136.077 348.787,-133.579"/>
<polygon fill="midnightblue" stroke="midnightblue" points="225.001,-209.094 220.116,-218.496 229.798,-214.192 225.001,-209.094"/>
</g>
<!-- Node13 -->
<g id="node13" class="node"><title>Node13</title>
<g id="a_node13"><a xlink:href="classerpc_1_1_spidev_master_transport.html" target="_top" xlink:title="Very basic transport to send/receive messages via SPIdev. ">
<polygon fill="white" stroke="black" points="332,-76.5 332,-95.5 472,-95.5 472,-76.5 332,-76.5"/>
<text text-anchor="middle" x="402" y="-83.5" font-family="Helvetica,sans-Serif" font-size="10.00">erpc::SpidevMasterTransport</text>
</a>
</g>
</g>
<!-- Node6&#45;&gt;Node13 -->
<g id="edge12" class="edge"><title>Node6&#45;&gt;Node13</title>
<path fill="none" stroke="midnightblue" d="M222.027,-209.65C240.106,-182.449 277.778,-131.767 323,-105 329.597,-101.095 336.959,-97.9915 344.454,-95.5246"/>
<polygon fill="midnightblue" stroke="midnightblue" points="218.977,-207.921 216.469,-218.215 224.848,-211.731 218.977,-207.921"/>
</g>
<!-- Node14 -->
<g id="node14" class="node"><title>Node14</title>
<g id="a_node14"><a xlink:href="classerpc_1_1_spi_master_transport.html" target="_top" xlink:title="Very basic transport to send/receive messages via SPI. ">
<polygon fill="white" stroke="black" points="339,-38.5 339,-57.5 465,-57.5 465,-38.5 339,-38.5"/>
<text text-anchor="middle" x="402" y="-45.5" font-family="Helvetica,sans-Serif" font-size="10.00">erpc::SpiMasterTransport</text>
</a>
</g>
</g>
<!-- Node6&#45;&gt;Node14 -->
<g id="edge13" class="edge"><title>Node6&#45;&gt;Node14</title>
<path fill="none" stroke="midnightblue" d="M218.34,-208.876C233.339,-174.78 269.437,-103.638 323,-67 328.637,-63.1443 334.974,-60.0684 341.536,-57.6153"/>
<polygon fill="midnightblue" stroke="midnightblue" points="215.072,-207.618 214.367,-218.189 221.51,-210.365 215.072,-207.618"/>
</g>
<!-- Node15 -->
<g id="node15" class="node"><title>Node15</title>
<g id="a_node15"><a xlink:href="classerpc_1_1_spi_slave_transport.html" target="_top" xlink:title="Very basic transport to send/receive messages via SPI. ">
<polygon fill="white" stroke="black" points="342.5,-0.5 342.5,-19.5 461.5,-19.5 461.5,-0.5 342.5,-0.5"/>
<text text-anchor="middle" x="402" y="-7.5" font-family="Helvetica,sans-Serif" font-size="10.00">erpc::SpiSlaveTransport</text>
</a>
</g>
</g>
<!-- Node6&#45;&gt;Node15 -->
<g id="edge14" class="edge"><title>Node6&#45;&gt;Node15</title>
<path fill="none" stroke="midnightblue" d="M215.747,-208.643C227.657,-168.531 260.664,-76.1527 323,-29 328.78,-24.6277 335.43,-21.2478 342.359,-18.6374"/>
<polygon fill="midnightblue" stroke="midnightblue" points="212.374,-207.706 212.996,-218.283 219.106,-209.627 212.374,-207.706"/>
</g>
<!-- Node16 -->
<g id="node16" class="node"><title>Node16</title>
<g id="a_node16"><a xlink:href="classerpc_1_1_t_c_p_transport.html" target="_top" xlink:title="Client side of TCP/IP transport. ">
<polygon fill="white" stroke="black" points="351.5,-418.5 351.5,-437.5 452.5,-437.5 452.5,-418.5 351.5,-418.5"/>
<text text-anchor="middle" x="402" y="-425.5" font-family="Helvetica,sans-Serif" font-size="10.00">erpc::TCPTransport</text>
</a>
</g>
</g>
<!-- Node6&#45;&gt;Node16 -->
<g id="edge15" class="edge"><title>Node6&#45;&gt;Node16</title>
<path fill="none" stroke="midnightblue" d="M276.147,-238.666C280.118,-240.965 283.796,-243.715 287,-247 338.504,-299.796 271.378,-356.321 323,-409 330.609,-416.765 340.822,-421.562 351.347,-424.478"/>
<polygon fill="midnightblue" stroke="midnightblue" points="277.584,-235.474 267.052,-234.32 274.566,-241.79 277.584,-235.474"/>
</g>
<!-- Node17 -->
<g id="node17" class="node"><title>Node17</title>
<g id="a_node17"><a xlink:href="classerpc_1_1_uart_transport.html" target="_top" xlink:title="Very basic transport to send/receive messages via UART. ">
<polygon fill="white" stroke="black" points="352,-380.5 352,-399.5 452,-399.5 452,-380.5 352,-380.5"/>
<text text-anchor="middle" x="402" y="-387.5" font-family="Helvetica,sans-Serif" font-size="10.00">erpc::UartTransport</text>
</a>
</g>
</g>
<!-- Node6&#45;&gt;Node17 -->
<g id="edge16" class="edge"><title>Node6&#45;&gt;Node17</title>
<path fill="none" stroke="midnightblue" d="M276.441,-239.199C280.267,-241.381 283.837,-243.959 287,-247 328.364,-286.777 281.546,-331.316 323,-371 330.853,-378.518 341.162,-383.218 351.701,-386.12"/>
<polygon fill="midnightblue" stroke="midnightblue" points="277.655,-235.902 267.119,-234.792 274.664,-242.231 277.655,-235.902"/>
</g>
<!-- Node18 -->
<g id="node18" class="node"><title>Node18</title>
<g id="a_node18"><a xlink:href="classerpc_1_1_usb_cdc_transport.html" target="_top" xlink:title="Very basic transport to send/receive messages via virtual USB CDC port. ">
<polygon fill="white" stroke="black" points="344,-342.5 344,-361.5 460,-361.5 460,-342.5 344,-342.5"/>
<text text-anchor="middle" x="402" y="-349.5" font-family="Helvetica,sans-Serif" font-size="10.00">erpc::UsbCdcTransport</text>
</a>
</g>
</g>
<!-- Node6&#45;&gt;Node18 -->
<g id="edge17" class="edge"><title>Node6&#45;&gt;Node18</title>
<path fill="none" stroke="midnightblue" d="M276.467,-239.844C280.232,-241.876 283.786,-244.244 287,-247 318.453,-273.975 291.486,-306.096 323,-333 329.042,-338.158 336.26,-341.961 343.832,-344.757"/>
<polygon fill="midnightblue" stroke="midnightblue" points="277.908,-236.655 267.358,-235.684 275,-243.022 277.908,-236.655"/>
</g>
</g>
</svg>
