<?xml version="1.0" encoding="UTF-8" standalone="no"?>
<!DOCTYPE svg PUBLIC "-//W3C//DTD SVG 1.1//EN"
 "http://www.w3.org/Graphics/SVG/1.1/DTD/svg11.dtd">
<!-- Generated by graphviz version 2.38.0 (20140413.2041)
 -->
<!-- Title: Graphical Class Hierarchy Pages: 1 -->
<svg width="341pt" height="104pt"
 viewBox="0.00 0.00 341.00 104.00" xmlns="http://www.w3.org/2000/svg" xmlns:xlink="http://www.w3.org/1999/xlink">
<g id="graph0" class="graph" transform="scale(1 1) rotate(0) translate(4 100)">
<title>Graphical Class Hierarchy</title>
<polygon fill="white" stroke="none" points="-4,4 -4,-100 337,-100 337,4 -4,4"/>
<!-- Node1 -->
<g id="node1" class="node"><title>Node1</title>
<g id="a_node1"><a xlink:href="classerpc_1_1_message_buffer_factory.html" target="_top" xlink:title="Abstract interface for message buffer factory. ">
<polygon fill="white" stroke="black" points="0,-38.5 0,-57.5 139,-57.5 139,-38.5 0,-38.5"/>
<text text-anchor="middle" x="69.5" y="-45.5" font-family="Helvetica,sans-Serif" font-size="10.00">erpc::MessageBufferFactory</text>
</a>
</g>
</g>
<!-- Node2 -->
<g id="node2" class="node"><title>Node2</title>
<g id="a_node2"><a xlink:href="class_dynamic_message_buffer_factory.html" target="_top" xlink:title="DynamicMessageBufferFactory">
<polygon fill="white" stroke="black" points="178,-76.5 178,-95.5 330,-95.5 330,-76.5 178,-76.5"/>
<text text-anchor="middle" x="254" y="-83.5" font-family="Helvetica,sans-Serif" font-size="10.00">DynamicMessageBufferFactory</text>
</a>
</g>
</g>
<!-- Node1&#45;&gt;Node2 -->
<g id="edge1" class="edge"><title>Node1&#45;&gt;Node2</title>
<path fill="none" stroke="midnightblue" d="M126.599,-59.681C152.48,-65.0699 182.815,-71.3861 207.279,-76.4799"/>
<polygon fill="midnightblue" stroke="midnightblue" points="127.056,-56.201 116.552,-57.589 125.629,-63.0541 127.056,-56.201"/>
</g>
<!-- Node3 -->
<g id="node3" class="node"><title>Node3</title>
<g id="a_node3"><a xlink:href="class_r_p_msg_z_c_message_buffer_factory.html" target="_top" xlink:title="RPMsg zero copy message buffer factory. ">
<polygon fill="white" stroke="black" points="175,-38.5 175,-57.5 333,-57.5 333,-38.5 175,-38.5"/>
<text text-anchor="middle" x="254" y="-45.5" font-family="Helvetica,sans-Serif" font-size="10.00">RPMsgZCMessageBufferFactory</text>
</a>
</g>
</g>
<!-- Node1&#45;&gt;Node3 -->
<g id="edge2" class="edge"><title>Node1&#45;&gt;Node3</title>
<path fill="none" stroke="midnightblue" d="M149.422,-48C157.848,-48 166.417,-48 174.834,-48"/>
<polygon fill="midnightblue" stroke="midnightblue" points="149.235,-44.5001 139.235,-48 149.235,-51.5001 149.235,-44.5001"/>
</g>
<!-- Node4 -->
<g id="node4" class="node"><title>Node4</title>
<g id="a_node4"><a xlink:href="class_static_message_buffer_factory.html" target="_top" xlink:title="Static Message buffer factory. ">
<polygon fill="white" stroke="black" points="184,-0.5 184,-19.5 324,-19.5 324,-0.5 184,-0.5"/>
<text text-anchor="middle" x="254" y="-7.5" font-family="Helvetica,sans-Serif" font-size="10.00">StaticMessageBufferFactory</text>
</a>
</g>
</g>
<!-- Node1&#45;&gt;Node4 -->
<g id="edge3" class="edge"><title>Node1&#45;&gt;Node4</title>
<path fill="none" stroke="midnightblue" d="M126.599,-36.319C152.48,-30.9301 182.815,-24.6139 207.279,-19.5201"/>
<polygon fill="midnightblue" stroke="midnightblue" points="125.629,-32.9459 116.552,-38.411 127.056,-39.799 125.629,-32.9459"/>
</g>
</g>
</svg>
