<?xml version="1.0" encoding="UTF-8" standalone="no"?>
<!DOCTYPE svg PUBLIC "-//W3C//DTD SVG 1.1//EN"
 "http://www.w3.org/Graphics/SVG/1.1/DTD/svg11.dtd">
<!-- Generated by graphviz version 2.38.0 (20140413.2041)
 -->
<!-- Title: Graphical Class Hierarchy Pages: 1 -->
<svg width="347pt" height="142pt"
 viewBox="0.00 0.00 347.00 142.00" xmlns="http://www.w3.org/2000/svg" xmlns:xlink="http://www.w3.org/1999/xlink">
<g id="graph0" class="graph" transform="scale(1 1) rotate(0) translate(4 138)">
<title>Graphical Class Hierarchy</title>
<polygon fill="white" stroke="none" points="-4,4 -4,-138 343,-138 343,4 -4,4"/>
<!-- Node1 -->
<g id="node1" class="node"><title>Node1</title>
<g id="a_node1"><a xlink:href="classerpc_1_1_message_buffer_factory.html" target="_top" xlink:title="Abstract interface for message buffer factory. ">
<polygon fill="white" stroke="black" points="0,-57.5 0,-76.5 139,-76.5 139,-57.5 0,-57.5"/>
<text text-anchor="middle" x="69.5" y="-64.5" font-family="Helvetica,sans-Serif" font-size="10.00">erpc::MessageBufferFactory</text>
</a>
</g>
</g>
<!-- Node2 -->
<g id="node2" class="node"><title>Node2</title>
<g id="a_node2"><a xlink:href="class_dynamic_message_buffer_factory.html" target="_top" xlink:title="Dynamic message buffer factory. ">
<polygon fill="white" stroke="black" points="181,-114.5 181,-133.5 333,-133.5 333,-114.5 181,-114.5"/>
<text text-anchor="middle" x="257" y="-121.5" font-family="Helvetica,sans-Serif" font-size="10.00">DynamicMessageBufferFactory</text>
</a>
</g>
</g>
<!-- Node1&#45;&gt;Node2 -->
<g id="edge1" class="edge"><title>Node1&#45;&gt;Node2</title>
<path fill="none" stroke="midnightblue" d="M103.754,-80.2343C124.121,-88.0533 150.833,-97.7992 175,-105 186.628,-108.465 199.346,-111.701 211.187,-114.487"/>
<polygon fill="midnightblue" stroke="midnightblue" points="104.893,-76.922 94.3036,-76.5702 102.362,-83.4486 104.893,-76.922"/>
</g>
<!-- Node3 -->
<g id="node3" class="node"><title>Node3</title>
<g id="a_node3"><a xlink:href="class_r_p_msg_message_buffer_factory.html" target="_top" xlink:title="RPMsg zero copy message buffer factory. ">
<polygon fill="white" stroke="black" points="184,-76.5 184,-95.5 330,-95.5 330,-76.5 184,-76.5"/>
<text text-anchor="middle" x="257" y="-83.5" font-family="Helvetica,sans-Serif" font-size="10.00">RPMsgMessageBufferFactory</text>
</a>
</g>
</g>
<!-- Node1&#45;&gt;Node3 -->
<g id="edge2" class="edge"><title>Node1&#45;&gt;Node3</title>
<path fill="none" stroke="midnightblue" d="M149.051,-75.0456C160.543,-76.2227 172.333,-77.4303 183.693,-78.5939"/>
<polygon fill="midnightblue" stroke="midnightblue" points="149.351,-71.5581 139.046,-74.0209 148.638,-78.5217 149.351,-71.5581"/>
</g>
<!-- Node4 -->
<g id="node4" class="node"><title>Node4</title>
<g id="a_node4"><a xlink:href="class_r_p_msg_t_t_y_message_buffer_factory.html" target="_top" xlink:title="RPMsg TTY message buffer factory. ">
<polygon fill="white" stroke="black" points="175,-38.5 175,-57.5 339,-57.5 339,-38.5 175,-38.5"/>
<text text-anchor="middle" x="257" y="-45.5" font-family="Helvetica,sans-Serif" font-size="10.00">RPMsgTTYMessageBufferFactory</text>
</a>
</g>
</g>
<!-- Node1&#45;&gt;Node4 -->
<g id="edge3" class="edge"><title>Node1&#45;&gt;Node4</title>
<path fill="none" stroke="midnightblue" d="M148.999,-58.9597C157.557,-58.0831 166.281,-57.1896 174.87,-56.3098"/>
<polygon fill="midnightblue" stroke="midnightblue" points="148.638,-55.4783 139.046,-59.9791 149.351,-62.4418 148.638,-55.4783"/>
</g>
<!-- Node5 -->
<g id="node5" class="node"><title>Node5</title>
<g id="a_node5"><a xlink:href="class_static_message_buffer_factory.html" target="_top" xlink:title="Static Message buffer factory. ">
<polygon fill="white" stroke="black" points="187,-0.5 187,-19.5 327,-19.5 327,-0.5 187,-0.5"/>
<text text-anchor="middle" x="257" y="-7.5" font-family="Helvetica,sans-Serif" font-size="10.00">StaticMessageBufferFactory</text>
</a>
</g>
</g>
<!-- Node1&#45;&gt;Node5 -->
<g id="edge4" class="edge"><title>Node1&#45;&gt;Node5</title>
<path fill="none" stroke="midnightblue" d="M103.754,-53.7657C124.121,-45.9467 150.833,-36.2008 175,-29 186.628,-25.5353 199.346,-22.2987 211.187,-19.5135"/>
<polygon fill="midnightblue" stroke="midnightblue" points="102.362,-50.5514 94.3036,-57.4298 104.893,-57.078 102.362,-50.5514"/>
</g>
</g>
</svg>
