<?xml version="1.0" encoding="UTF-8" standalone="no"?>
<!DOCTYPE svg PUBLIC "-//W3C//DTD SVG 1.1//EN"
 "http://www.w3.org/Graphics/SVG/1.1/DTD/svg11.dtd">
<!-- Generated by graphviz version 2.38.0 (20140413.2041)
 -->
<!-- Title: Graphical Class Hierarchy Pages: 1 -->
<svg width="462pt" height="66pt"
 viewBox="0.00 0.00 462.00 66.00" xmlns="http://www.w3.org/2000/svg" xmlns:xlink="http://www.w3.org/1999/xlink">
<g id="graph0" class="graph" transform="scale(1 1) rotate(0) translate(4 62)">
<title>Graphical Class Hierarchy</title>
<polygon fill="white" stroke="none" points="-4,4 -4,-62 458,-62 458,4 -4,4"/>
<!-- Node1 -->
<g id="node1" class="node"><title>Node1</title>
<g id="a_node1"><a xlink:href="classerpc_1_1_client_server_common.html" target="_top" xlink:title="Common class inherited by client and server class. ">
<polygon fill="white" stroke="black" points="0,-19.5 0,-38.5 132,-38.5 132,-19.5 0,-19.5"/>
<text text-anchor="middle" x="66" y="-26.5" font-family="Helvetica,sans-Serif" font-size="10.00">erpc::ClientServerCommon</text>
</a>
</g>
</g>
<!-- Node2 -->
<g id="node2" class="node"><title>Node2</title>
<g id="a_node2"><a xlink:href="classerpc_1_1_client_manager.html" target="_top" xlink:title="Base client implementation. ">
<polygon fill="white" stroke="black" points="168,-38.5 168,-57.5 272,-57.5 272,-38.5 168,-38.5"/>
<text text-anchor="middle" x="220" y="-45.5" font-family="Helvetica,sans-Serif" font-size="10.00">erpc::ClientManager</text>
</a>
</g>
</g>
<!-- Node1&#45;&gt;Node2 -->
<g id="edge1" class="edge"><title>Node1&#45;&gt;Node2</title>
<path fill="none" stroke="midnightblue" d="M142.449,-38.4312C151.084,-39.5106 159.729,-40.5911 167.937,-41.6171"/>
<polygon fill="midnightblue" stroke="midnightblue" points="142.701,-34.9354 132.344,-37.168 141.832,-41.8814 142.701,-34.9354"/>
</g>
<!-- Node4 -->
<g id="node4" class="node"><title>Node4</title>
<g id="a_node4"><a xlink:href="classerpc_1_1_server.html" target="_top" xlink:title="Based server functionality. ">
<polygon fill="white" stroke="black" points="186,-0.5 186,-19.5 254,-19.5 254,-0.5 186,-0.5"/>
<text text-anchor="middle" x="220" y="-7.5" font-family="Helvetica,sans-Serif" font-size="10.00">erpc::Server</text>
</a>
</g>
</g>
<!-- Node1&#45;&gt;Node4 -->
<g id="edge3" class="edge"><title>Node1&#45;&gt;Node4</title>
<path fill="none" stroke="midnightblue" d="M142.377,-19.5779C157.692,-17.6634 173.042,-15.7448 185.936,-14.133"/>
<polygon fill="midnightblue" stroke="midnightblue" points="141.832,-16.1186 132.344,-20.832 142.701,-23.0646 141.832,-16.1186"/>
</g>
<!-- Node3 -->
<g id="node3" class="node"><title>Node3</title>
<g id="a_node3"><a xlink:href="classerpc_1_1_arbitrated_client_manager.html" target="_top" xlink:title="Client that can share a transport with a server. ">
<polygon fill="white" stroke="black" points="308,-38.5 308,-57.5 454,-57.5 454,-38.5 308,-38.5"/>
<text text-anchor="middle" x="381" y="-45.5" font-family="Helvetica,sans-Serif" font-size="10.00">erpc::ArbitratedClientManager</text>
</a>
</g>
</g>
<!-- Node2&#45;&gt;Node3 -->
<g id="edge2" class="edge"><title>Node2&#45;&gt;Node3</title>
<path fill="none" stroke="midnightblue" d="M282.22,-48C290.585,-48 299.237,-48 307.775,-48"/>
<polygon fill="midnightblue" stroke="midnightblue" points="282.184,-44.5001 272.184,-48 282.184,-51.5001 282.184,-44.5001"/>
</g>
<!-- Node5 -->
<g id="node5" class="node"><title>Node5</title>
<g id="a_node5"><a xlink:href="classerpc_1_1_simple_server.html" target="_top" xlink:title="Based server implementation. ">
<polygon fill="white" stroke="black" points="332,-0.5 332,-19.5 430,-19.5 430,-0.5 332,-0.5"/>
<text text-anchor="middle" x="381" y="-7.5" font-family="Helvetica,sans-Serif" font-size="10.00">erpc::SimpleServer</text>
</a>
</g>
</g>
<!-- Node4&#45;&gt;Node5 -->
<g id="edge4" class="edge"><title>Node4&#45;&gt;Node5</title>
<path fill="none" stroke="midnightblue" d="M264.519,-10C285.403,-10 310.485,-10 331.93,-10"/>
<polygon fill="midnightblue" stroke="midnightblue" points="264.332,-6.5001 254.332,-10 264.332,-13.5001 264.332,-6.5001"/>
</g>
</g>
</svg>
