<?xml version="1.0" encoding="UTF-8" standalone="no"?>
<!DOCTYPE svg PUBLIC "-//W3C//DTD SVG 1.1//EN"
 "http://www.w3.org/Graphics/SVG/1.1/DTD/svg11.dtd">
<!-- Generated by graphviz version 2.38.0 (20140413.2041)
 -->
<!-- Title: inter_thread_buffer_transport.h Pages: 1 -->
<svg width="468pt" height="263pt"
 viewBox="0.00 0.00 467.50 263.00" xmlns="http://www.w3.org/2000/svg" xmlns:xlink="http://www.w3.org/1999/xlink">
<g id="graph0" class="graph" transform="scale(1 1) rotate(0) translate(4 259)">
<title>inter_thread_buffer_transport.h</title>
<polygon fill="white" stroke="none" points="-4,4 -4,-259 463.5,-259 463.5,4 -4,4"/>
<!-- Node1 -->
<g id="node1" class="node"><title>Node1</title>
<polygon fill="#bfbfbf" stroke="black" points="186.5,-224.5 186.5,-254.5 282.5,-254.5 282.5,-224.5 186.5,-224.5"/>
<text text-anchor="start" x="194.5" y="-242.5" font-family="Helvetica,sans-Serif" font-size="10.00">inter_thread_buffer</text>
<text text-anchor="middle" x="234.5" y="-231.5" font-family="Helvetica,sans-Serif" font-size="10.00">_transport.h</text>
</g>
<!-- Node2 -->
<g id="node2" class="node"><title>Node2</title>
<g id="a_node2"><a xlink:href="erpc__threading_8h.html" target="_top" xlink:title="erpc_threading.h">
<polygon fill="white" stroke="black" points="95,-168.5 95,-187.5 184,-187.5 184,-168.5 95,-168.5"/>
<text text-anchor="middle" x="139.5" y="-175.5" font-family="Helvetica,sans-Serif" font-size="10.00">erpc_threading.h</text>
</a>
</g>
</g>
<!-- Node1&#45;&gt;Node2 -->
<g id="edge1" class="edge"><title>Node1&#45;&gt;Node2</title>
<path fill="none" stroke="midnightblue" d="M211.986,-224.399C196.901,-214.951 177.115,-202.559 162.027,-193.109"/>
<polygon fill="midnightblue" stroke="midnightblue" points="163.656,-190 153.323,-187.658 159.941,-195.932 163.656,-190"/>
</g>
<!-- Node6 -->
<g id="node6" class="node"><title>Node6</title>
<g id="a_node6"><a xlink:href="message__buffer_8h.html" target="_top" xlink:title="message_buffer.h">
<polygon fill="white" stroke="black" points="188,-112.5 188,-131.5 281,-131.5 281,-112.5 188,-112.5"/>
<text text-anchor="middle" x="234.5" y="-119.5" font-family="Helvetica,sans-Serif" font-size="10.00">message_buffer.h</text>
</a>
</g>
</g>
<!-- Node1&#45;&gt;Node6 -->
<g id="edge5" class="edge"><title>Node1&#45;&gt;Node6</title>
<path fill="none" stroke="midnightblue" d="M234.5,-224.337C234.5,-203.622 234.5,-165.016 234.5,-141.899"/>
<polygon fill="midnightblue" stroke="midnightblue" points="238,-141.669 234.5,-131.669 231,-141.669 238,-141.669"/>
</g>
<!-- Node9 -->
<g id="node9" class="node"><title>Node9</title>
<g id="a_node9"><a xlink:href="transport_8h.html" target="_top" xlink:title="transport.h">
<polygon fill="white" stroke="black" points="283,-168.5 283,-187.5 346,-187.5 346,-168.5 283,-168.5"/>
<text text-anchor="middle" x="314.5" y="-175.5" font-family="Helvetica,sans-Serif" font-size="10.00">transport.h</text>
</a>
</g>
</g>
<!-- Node1&#45;&gt;Node9 -->
<g id="edge10" class="edge"><title>Node1&#45;&gt;Node9</title>
<path fill="none" stroke="midnightblue" d="M253.459,-224.399C265.923,-215.129 282.197,-203.025 294.807,-193.647"/>
<polygon fill="midnightblue" stroke="midnightblue" points="296.924,-196.434 302.859,-187.658 292.747,-190.817 296.924,-196.434"/>
</g>
<!-- Node3 -->
<g id="node3" class="node"><title>Node3</title>
<g id="a_node3"><a xlink:href="erpc__config__internal_8h_source.html" target="_top" xlink:title="erpc_config_internal.h">
<polygon fill="white" stroke="black" points="0,-112.5 0,-131.5 111,-131.5 111,-112.5 0,-112.5"/>
<text text-anchor="middle" x="55.5" y="-119.5" font-family="Helvetica,sans-Serif" font-size="10.00">erpc_config_internal.h</text>
</a>
</g>
</g>
<!-- Node2&#45;&gt;Node3 -->
<g id="edge2" class="edge"><title>Node2&#45;&gt;Node3</title>
<path fill="none" stroke="midnightblue" d="M126.004,-168.324C112.9,-159.9 92.7881,-146.971 77.3931,-137.074"/>
<polygon fill="midnightblue" stroke="midnightblue" points="79.267,-134.118 68.9626,-131.655 75.4817,-140.006 79.267,-134.118"/>
</g>
<!-- Node5 -->
<g id="node5" class="node"><title>Node5</title>
<polygon fill="white" stroke="#bfbfbf" points="221,-0.5 221,-19.5 270,-19.5 270,-0.5 221,-0.5"/>
<text text-anchor="middle" x="245.5" y="-7.5" font-family="Helvetica,sans-Serif" font-size="10.00">stdint.h</text>
</g>
<!-- Node2&#45;&gt;Node5 -->
<g id="edge4" class="edge"><title>Node2&#45;&gt;Node5</title>
<path fill="none" stroke="midnightblue" d="M141.59,-168.354C146.958,-147.432 162.79,-93.064 190.5,-56 199.36,-44.1488 211.991,-33.5249 222.914,-25.5796"/>
<polygon fill="midnightblue" stroke="midnightblue" points="224.995,-28.3952 231.203,-19.8097 220.996,-22.65 224.995,-28.3952"/>
</g>
<!-- Node4 -->
<g id="node4" class="node"><title>Node4</title>
<g id="a_node4"><a xlink:href="erpc__config_8h.html" target="_top" xlink:title="erpc_config.h">
<polygon fill="white" stroke="black" points="18.5,-56.5 18.5,-75.5 92.5,-75.5 92.5,-56.5 18.5,-56.5"/>
<text text-anchor="middle" x="55.5" y="-63.5" font-family="Helvetica,sans-Serif" font-size="10.00">erpc_config.h</text>
</a>
</g>
</g>
<!-- Node3&#45;&gt;Node4 -->
<g id="edge3" class="edge"><title>Node3&#45;&gt;Node4</title>
<path fill="none" stroke="midnightblue" d="M55.5,-112.083C55.5,-105.006 55.5,-94.8611 55.5,-85.9865"/>
<polygon fill="midnightblue" stroke="midnightblue" points="59.0001,-85.751 55.5,-75.7511 52.0001,-85.7511 59.0001,-85.751"/>
</g>
<!-- Node6&#45;&gt;Node5 -->
<g id="edge9" class="edge"><title>Node6&#45;&gt;Node5</title>
<path fill="none" stroke="midnightblue" d="M222.975,-112.095C208.677,-99.887 187.246,-77.0629 196.5,-56 201.89,-43.732 212.458,-33.3414 222.404,-25.6461"/>
<polygon fill="midnightblue" stroke="midnightblue" points="224.752,-28.2697 230.839,-19.598 220.672,-22.5811 224.752,-28.2697"/>
</g>
<!-- Node7 -->
<g id="node7" class="node"><title>Node7</title>
<g id="a_node7"><a xlink:href="erpc__common_8h_source.html" target="_top" xlink:title="erpc_common.h">
<polygon fill="white" stroke="black" points="271.5,-56.5 271.5,-75.5 357.5,-75.5 357.5,-56.5 271.5,-56.5"/>
<text text-anchor="middle" x="314.5" y="-63.5" font-family="Helvetica,sans-Serif" font-size="10.00">erpc_common.h</text>
</a>
</g>
</g>
<!-- Node6&#45;&gt;Node7 -->
<g id="edge6" class="edge"><title>Node6&#45;&gt;Node7</title>
<path fill="none" stroke="midnightblue" d="M247.353,-112.324C259.716,-103.979 278.63,-91.2122 293.237,-81.3524"/>
<polygon fill="midnightblue" stroke="midnightblue" points="295.348,-84.1503 301.679,-75.6545 291.432,-78.3483 295.348,-84.1503"/>
</g>
<!-- Node8 -->
<g id="node8" class="node"><title>Node8</title>
<polygon fill="white" stroke="#bfbfbf" points="205.5,-56.5 205.5,-75.5 253.5,-75.5 253.5,-56.5 205.5,-56.5"/>
<text text-anchor="middle" x="229.5" y="-63.5" font-family="Helvetica,sans-Serif" font-size="10.00">cstddef</text>
</g>
<!-- Node6&#45;&gt;Node8 -->
<g id="edge8" class="edge"><title>Node6&#45;&gt;Node8</title>
<path fill="none" stroke="midnightblue" d="M233.674,-112.083C233.019,-105.006 232.08,-94.8611 231.258,-85.9865"/>
<polygon fill="midnightblue" stroke="midnightblue" points="234.717,-85.3858 230.31,-75.7511 227.747,-86.0312 234.717,-85.3858"/>
</g>
<!-- Node7&#45;&gt;Node5 -->
<g id="edge7" class="edge"><title>Node7&#45;&gt;Node5</title>
<path fill="none" stroke="midnightblue" d="M303.414,-56.324C293.014,-48.1849 277.239,-35.8395 264.778,-26.0874"/>
<polygon fill="midnightblue" stroke="midnightblue" points="266.82,-23.2407 256.788,-19.8339 262.506,-28.7533 266.82,-23.2407"/>
</g>
<!-- Node9&#45;&gt;Node5 -->
<g id="edge14" class="edge"><title>Node9&#45;&gt;Node5</title>
<path fill="none" stroke="midnightblue" d="M323.67,-168.489C344.771,-147.866 392.99,-94.1139 366.5,-56 347.19,-28.2169 308.578,-17.5526 280.143,-13.4787"/>
<polygon fill="midnightblue" stroke="midnightblue" points="280.534,-10.0005 270.182,-12.2564 279.681,-16.9483 280.534,-10.0005"/>
</g>
<!-- Node9&#45;&gt;Node6 -->
<g id="edge12" class="edge"><title>Node9&#45;&gt;Node6</title>
<path fill="none" stroke="midnightblue" d="M301.647,-168.324C289.284,-159.979 270.37,-147.212 255.763,-137.352"/>
<polygon fill="midnightblue" stroke="midnightblue" points="257.568,-134.348 247.321,-131.655 253.652,-140.15 257.568,-134.348"/>
</g>
<!-- Node9&#45;&gt;Node7 -->
<g id="edge11" class="edge"><title>Node9&#45;&gt;Node7</title>
<path fill="none" stroke="midnightblue" d="M314.5,-168.368C314.5,-150.617 314.5,-109.666 314.5,-85.5974"/>
<polygon fill="midnightblue" stroke="midnightblue" points="318,-85.5914 314.5,-75.5914 311,-85.5915 318,-85.5914"/>
</g>
<!-- Node10 -->
<g id="node10" class="node"><title>Node10</title>
<polygon fill="white" stroke="#bfbfbf" points="413.5,-112.5 413.5,-131.5 459.5,-131.5 459.5,-112.5 413.5,-112.5"/>
<text text-anchor="middle" x="436.5" y="-119.5" font-family="Helvetica,sans-Serif" font-size="10.00">cstring</text>
</g>
<!-- Node9&#45;&gt;Node10 -->
<g id="edge13" class="edge"><title>Node9&#45;&gt;Node10</title>
<path fill="none" stroke="midnightblue" d="M333.831,-168.444C353.82,-159.596 385.243,-145.687 408.064,-135.586"/>
<polygon fill="midnightblue" stroke="midnightblue" points="409.532,-138.764 417.259,-131.516 406.698,-132.363 409.532,-138.764"/>
</g>
</g>
</svg>
