<?xml version="1.0" encoding="UTF-8" standalone="no"?>
<!DOCTYPE svg PUBLIC "-//W3C//DTD SVG 1.1//EN"
 "http://www.w3.org/Graphics/SVG/1.1/DTD/svg11.dtd">
<!-- Generated by graphviz version 2.38.0 (20140413.2041)
 -->
<!-- Title: manually_constructed.h Pages: 1 -->
<svg width="128pt" height="84pt"
 viewBox="0.00 0.00 128.00 84.00" xmlns="http://www.w3.org/2000/svg" xmlns:xlink="http://www.w3.org/1999/xlink">
<g id="graph0" class="graph" transform="scale(1 1) rotate(0) translate(4 80)">
<title>manually_constructed.h</title>
<polygon fill="white" stroke="none" points="-4,4 -4,-80 124,-80 124,4 -4,4"/>
<!-- Node1 -->
<g id="node1" class="node"><title>Node1</title>
<polygon fill="#bfbfbf" stroke="black" points="0,-56.5 0,-75.5 120,-75.5 120,-56.5 0,-56.5"/>
<text text-anchor="middle" x="60" y="-63.5" font-family="Helvetica,sans-Serif" font-size="10.00">manually_constructed.h</text>
</g>
<!-- Node2 -->
<g id="node2" class="node"><title>Node2</title>
<polygon fill="white" stroke="#bfbfbf" points="13,-0.5 13,-19.5 47,-19.5 47,-0.5 13,-0.5"/>
<text text-anchor="middle" x="30" y="-7.5" font-family="Helvetica,sans-Serif" font-size="10.00">new</text>
</g>
<!-- Node1&#45;&gt;Node2 -->
<g id="edge1" class="edge"><title>Node1&#45;&gt;Node2</title>
<path fill="none" stroke="midnightblue" d="M55.0461,-56.083C50.8959,-48.6127 44.8469,-37.7244 39.7333,-28.5199"/>
<polygon fill="midnightblue" stroke="midnightblue" points="42.7777,-26.7929 34.8617,-19.7511 36.6586,-30.1924 42.7777,-26.7929"/>
</g>
<!-- Node3 -->
<g id="node3" class="node"><title>Node3</title>
<polygon fill="white" stroke="#bfbfbf" points="65.5,-0.5 65.5,-19.5 114.5,-19.5 114.5,-0.5 65.5,-0.5"/>
<text text-anchor="middle" x="90" y="-7.5" font-family="Helvetica,sans-Serif" font-size="10.00">stdint.h</text>
</g>
<!-- Node1&#45;&gt;Node3 -->
<g id="edge2" class="edge"><title>Node1&#45;&gt;Node3</title>
<path fill="none" stroke="midnightblue" d="M64.9539,-56.083C69.1041,-48.6127 75.1531,-37.7244 80.2667,-28.5199"/>
<polygon fill="midnightblue" stroke="midnightblue" points="83.3414,-30.1924 85.1383,-19.7511 77.2223,-26.7929 83.3414,-30.1924"/>
</g>
</g>
</svg>
