<?xml version="1.0" encoding="UTF-8" standalone="no"?>
<!DOCTYPE svg PUBLIC "-//W3C//DTD SVG 1.1//EN"
 "http://www.w3.org/Graphics/SVG/1.1/DTD/svg11.dtd">
<!-- Generated by graphviz version 2.38.0 (20140413.2041)
 -->
<!-- Title: message_buffer.h Pages: 1 -->
<svg width="198pt" height="140pt"
 viewBox="0.00 0.00 198.00 140.00" xmlns="http://www.w3.org/2000/svg" xmlns:xlink="http://www.w3.org/1999/xlink">
<g id="graph0" class="graph" transform="scale(1 1) rotate(0) translate(4 136)">
<title>message_buffer.h</title>
<polygon fill="white" stroke="none" points="-4,4 -4,-136 194,-136 194,4 -4,4"/>
<!-- Node1 -->
<g id="node1" class="node"><title>Node1</title>
<polygon fill="#bfbfbf" stroke="black" points="67.5,-112.5 67.5,-131.5 160.5,-131.5 160.5,-112.5 67.5,-112.5"/>
<text text-anchor="middle" x="114" y="-119.5" font-family="Helvetica,sans-Serif" font-size="10.00">message_buffer.h</text>
</g>
<!-- Node2 -->
<g id="node2" class="node"><title>Node2</title>
<g id="a_node2"><a xlink:href="erpc__common_8h_source.html" target="_top" xlink:title="erpc_common.h">
<polygon fill="white" stroke="black" points="0,-56.5 0,-75.5 86,-75.5 86,-56.5 0,-56.5"/>
<text text-anchor="middle" x="43" y="-63.5" font-family="Helvetica,sans-Serif" font-size="10.00">erpc_common.h</text>
</a>
</g>
</g>
<!-- Node1&#45;&gt;Node2 -->
<g id="edge1" class="edge"><title>Node1&#45;&gt;Node2</title>
<path fill="none" stroke="midnightblue" d="M102.593,-112.324C91.8912,-104.185 75.6593,-91.8395 62.8372,-82.0874"/>
<polygon fill="midnightblue" stroke="midnightblue" points="64.6932,-79.1018 54.6149,-75.8339 60.4556,-84.6734 64.6932,-79.1018"/>
</g>
<!-- Node3 -->
<g id="node3" class="node"><title>Node3</title>
<polygon fill="white" stroke="#bfbfbf" points="53.5,-0.5 53.5,-19.5 102.5,-19.5 102.5,-0.5 53.5,-0.5"/>
<text text-anchor="middle" x="78" y="-7.5" font-family="Helvetica,sans-Serif" font-size="10.00">stdint.h</text>
</g>
<!-- Node1&#45;&gt;Node3 -->
<g id="edge4" class="edge"><title>Node1&#45;&gt;Node3</title>
<path fill="none" stroke="midnightblue" d="M111.632,-112.102C108.231,-99.5188 101.639,-75.8465 95,-56 92.0159,-47.0788 88.3666,-37.2962 85.2152,-29.1374"/>
<polygon fill="midnightblue" stroke="midnightblue" points="88.367,-27.5877 81.457,-19.5563 81.8504,-30.1438 88.367,-27.5877"/>
</g>
<!-- Node4 -->
<g id="node4" class="node"><title>Node4</title>
<polygon fill="white" stroke="#bfbfbf" points="142,-56.5 142,-75.5 190,-75.5 190,-56.5 142,-56.5"/>
<text text-anchor="middle" x="166" y="-63.5" font-family="Helvetica,sans-Serif" font-size="10.00">cstddef</text>
</g>
<!-- Node1&#45;&gt;Node4 -->
<g id="edge3" class="edge"><title>Node1&#45;&gt;Node4</title>
<path fill="none" stroke="midnightblue" d="M122.587,-112.083C130.159,-104.22 141.378,-92.5688 150.514,-83.0813"/>
<polygon fill="midnightblue" stroke="midnightblue" points="153.158,-85.3821 157.573,-75.7511 148.115,-80.5266 153.158,-85.3821"/>
</g>
<!-- Node2&#45;&gt;Node3 -->
<g id="edge2" class="edge"><title>Node2&#45;&gt;Node3</title>
<path fill="none" stroke="midnightblue" d="M48.7795,-56.083C53.6724,-48.5341 60.8274,-37.4948 66.8326,-28.2298"/>
<polygon fill="midnightblue" stroke="midnightblue" points="69.826,-30.0463 72.328,-19.7511 63.952,-26.239 69.826,-30.0463"/>
</g>
</g>
</svg>
