<?xml version="1.0" encoding="UTF-8" standalone="no"?>
<!DOCTYPE svg PUBLIC "-//W3C//DTD SVG 1.1//EN"
 "http://www.w3.org/Graphics/SVG/1.1/DTD/svg11.dtd">
<!-- Generated by graphviz version 2.38.0 (20140413.2041)
 -->
<!-- Title: message_buffer.h Pages: 1 -->
<svg width="1659pt" height="274pt"
 viewBox="0.00 0.00 1658.50 274.00" xmlns="http://www.w3.org/2000/svg" xmlns:xlink="http://www.w3.org/1999/xlink">
<g id="graph0" class="graph" transform="scale(1 1) rotate(0) translate(4 270)">
<title>message_buffer.h</title>
<polygon fill="white" stroke="none" points="-4,4 -4,-270 1654.5,-270 1654.5,4 -4,4"/>
<!-- Node1 -->
<g id="node1" class="node"><title>Node1</title>
<polygon fill="#bfbfbf" stroke="black" points="1321.5,-246.5 1321.5,-265.5 1414.5,-265.5 1414.5,-246.5 1321.5,-246.5"/>
<text text-anchor="middle" x="1368" y="-253.5" font-family="Helvetica,sans-Serif" font-size="10.00">message_buffer.h</text>
</g>
<!-- Node2 -->
<g id="node2" class="node"><title>Node2</title>
<g id="a_node2"><a xlink:href="codec_8h.html" target="_top" xlink:title="codec.h">
<polygon fill="white" stroke="black" points="326.5,-129 326.5,-148 377.5,-148 377.5,-129 326.5,-129"/>
<text text-anchor="middle" x="352" y="-136" font-family="Helvetica,sans-Serif" font-size="10.00">codec.h</text>
</a>
</g>
</g>
<!-- Node1&#45;&gt;Node2 -->
<g id="edge1" class="edge"><title>Node1&#45;&gt;Node2</title>
<path fill="none" stroke="midnightblue" d="M1311.31,-248.556C1121.27,-226.951 511.175,-157.595 377.883,-142.442"/>
<polygon fill="midnightblue" stroke="midnightblue" points="1311.04,-252.047 1321.37,-249.699 1311.83,-245.092 1311.04,-252.047"/>
</g>
<!-- Node10 -->
<g id="node10" class="node"><title>Node10</title>
<g id="a_node10"><a xlink:href="transport_8h.html" target="_top" xlink:title="transport.h">
<polygon fill="white" stroke="black" points="1289.5,-190.5 1289.5,-209.5 1352.5,-209.5 1352.5,-190.5 1289.5,-190.5"/>
<text text-anchor="middle" x="1321" y="-197.5" font-family="Helvetica,sans-Serif" font-size="10.00">transport.h</text>
</a>
</g>
</g>
<!-- Node1&#45;&gt;Node10 -->
<g id="edge10" class="edge"><title>Node1&#45;&gt;Node10</title>
<path fill="none" stroke="midnightblue" d="M1353.58,-238.431C1345.34,-228.967 1335.35,-217.483 1328.62,-209.751"/>
<polygon fill="midnightblue" stroke="midnightblue" points="1351.03,-240.838 1360.24,-246.083 1356.31,-236.242 1351.03,-240.838"/>
</g>
<!-- Node11 -->
<g id="node11" class="node"><title>Node11</title>
<g id="a_node11"><a xlink:href="framed__transport_8h.html" target="_top" xlink:title="framed_transport.h">
<polygon fill="white" stroke="black" points="917,-129 917,-148 1015,-148 1015,-129 917,-129"/>
<text text-anchor="middle" x="966" y="-136" font-family="Helvetica,sans-Serif" font-size="10.00">framed_transport.h</text>
</a>
</g>
</g>
<!-- Node1&#45;&gt;Node11 -->
<g id="edge25" class="edge"><title>Node1&#45;&gt;Node11</title>
<path fill="none" stroke="midnightblue" d="M1328.36,-243.611C1247.94,-220.505 1067.19,-168.573 995.81,-148.065"/>
<polygon fill="midnightblue" stroke="midnightblue" points="1327.54,-247.016 1338.11,-246.413 1329.47,-240.288 1327.54,-247.016"/>
</g>
<!-- Node19 -->
<g id="node19" class="node"><title>Node19</title>
<g id="a_node19"><a xlink:href="inter__thread__buffer__transport_8h.html" target="_top" xlink:title="inter_thread_buffer\l_transport.h">
<polygon fill="white" stroke="black" points="1437,-123.5 1437,-153.5 1533,-153.5 1533,-123.5 1437,-123.5"/>
<text text-anchor="start" x="1445" y="-141.5" font-family="Helvetica,sans-Serif" font-size="10.00">inter_thread_buffer</text>
<text text-anchor="middle" x="1485" y="-130.5" font-family="Helvetica,sans-Serif" font-size="10.00">_transport.h</text>
</a>
</g>
</g>
<!-- Node1&#45;&gt;Node19 -->
<g id="edge26" class="edge"><title>Node1&#45;&gt;Node19</title>
<path fill="none" stroke="midnightblue" d="M1384.06,-239.141C1407.03,-216.474 1448.87,-175.167 1470.77,-153.545"/>
<polygon fill="midnightblue" stroke="midnightblue" points="1381.45,-236.803 1376.79,-246.319 1386.37,-241.784 1381.45,-236.803"/>
</g>
<!-- Node21 -->
<g id="node21" class="node"><title>Node21</title>
<g id="a_node21"><a xlink:href="rpmsg__lite__zc__rtos__transport_8h.html" target="_top" xlink:title="rpmsg_lite_zc_rtos\l_transport.h">
<polygon fill="white" stroke="black" points="1379.5,-56.5 1379.5,-86.5 1478.5,-86.5 1478.5,-56.5 1379.5,-56.5"/>
<text text-anchor="start" x="1387.5" y="-74.5" font-family="Helvetica,sans-Serif" font-size="10.00">rpmsg_lite_zc_rtos</text>
<text text-anchor="middle" x="1429" y="-63.5" font-family="Helvetica,sans-Serif" font-size="10.00">_transport.h</text>
</a>
</g>
</g>
<!-- Node1&#45;&gt;Node21 -->
<g id="edge27" class="edge"><title>Node1&#45;&gt;Node21</title>
<path fill="none" stroke="midnightblue" d="M1411.53,-243.397C1453.35,-229.673 1514.17,-202.339 1542,-154 1548.87,-142.06 1549.5,-134.56 1542,-123 1527.91,-101.274 1502.05,-88.8126 1478.62,-81.7071"/>
<polygon fill="midnightblue" stroke="midnightblue" points="1410.35,-240.098 1401.86,-246.439 1412.45,-246.775 1410.35,-240.098"/>
</g>
<!-- Node22 -->
<g id="node22" class="node"><title>Node22</title>
<g id="a_node22"><a xlink:href="rpmsg__lite__zc__transport_8h.html" target="_top" xlink:title="rpmsg_lite_zc_transport.h">
<polygon fill="white" stroke="black" points="1521.5,-62 1521.5,-81 1650.5,-81 1650.5,-62 1521.5,-62"/>
<text text-anchor="middle" x="1586" y="-69" font-family="Helvetica,sans-Serif" font-size="10.00">rpmsg_lite_zc_transport.h</text>
</a>
</g>
</g>
<!-- Node1&#45;&gt;Node22 -->
<g id="edge28" class="edge"><title>Node1&#45;&gt;Node22</title>
<path fill="none" stroke="midnightblue" d="M1424.66,-244.966C1452.34,-238.194 1485.17,-227.248 1511,-210 1538.02,-191.957 1542.01,-182.285 1558,-154 1571.99,-129.255 1580.64,-96.3473 1584.17,-81.0239"/>
<polygon fill="midnightblue" stroke="midnightblue" points="1423.66,-241.604 1414.71,-247.276 1425.25,-248.422 1423.66,-241.604"/>
</g>
<!-- Node3 -->
<g id="node3" class="node"><title>Node3</title>
<g id="a_node3"><a xlink:href="client__manager_8h.html" target="_top" xlink:title="client_manager.h">
<polygon fill="white" stroke="black" points="168.5,-62 168.5,-81 259.5,-81 259.5,-62 168.5,-62"/>
<text text-anchor="middle" x="214" y="-69" font-family="Helvetica,sans-Serif" font-size="10.00">client_manager.h</text>
</a>
</g>
</g>
<!-- Node2&#45;&gt;Node3 -->
<g id="edge2" class="edge"><title>Node2&#45;&gt;Node3</title>
<path fill="none" stroke="midnightblue" d="M324.28,-124.444C296.947,-111.569 255.946,-92.2573 232.401,-81.1672"/>
<polygon fill="midnightblue" stroke="midnightblue" points="323.137,-127.774 333.675,-128.869 326.119,-121.441 323.137,-127.774"/>
</g>
<!-- Node5 -->
<g id="node5" class="node"><title>Node5</title>
<g id="a_node5"><a xlink:href="transport__arbitrator_8h.html" target="_top" xlink:title="transport_arbitrator.h">
<polygon fill="white" stroke="black" points="376.5,-0.5 376.5,-19.5 483.5,-19.5 483.5,-0.5 376.5,-0.5"/>
<text text-anchor="middle" x="430" y="-7.5" font-family="Helvetica,sans-Serif" font-size="10.00">transport_arbitrator.h</text>
</a>
</g>
</g>
<!-- Node2&#45;&gt;Node5 -->
<g id="edge6" class="edge"><title>Node2&#45;&gt;Node5</title>
<path fill="none" stroke="midnightblue" d="M362.628,-120.263C379.502,-92.8972 411.816,-40.49 424.601,-19.7557"/>
<polygon fill="midnightblue" stroke="midnightblue" points="359.631,-118.456 357.361,-128.805 365.589,-122.13 359.631,-118.456"/>
</g>
<!-- Node7 -->
<g id="node7" class="node"><title>Node7</title>
<g id="a_node7"><a xlink:href="basic__codec_8h.html" target="_top" xlink:title="basic_codec.h">
<polygon fill="white" stroke="black" points="278,-62 278,-81 358,-81 358,-62 278,-62"/>
<text text-anchor="middle" x="318" y="-69" font-family="Helvetica,sans-Serif" font-size="10.00">basic_codec.h</text>
</a>
</g>
</g>
<!-- Node2&#45;&gt;Node7 -->
<g id="edge7" class="edge"><title>Node2&#45;&gt;Node7</title>
<path fill="none" stroke="midnightblue" d="M342.67,-119.663C336.113,-107.128 327.63,-90.9104 322.513,-81.1273"/>
<polygon fill="midnightblue" stroke="midnightblue" points="339.678,-121.495 347.415,-128.734 345.881,-118.251 339.678,-121.495"/>
</g>
<!-- Node8 -->
<g id="node8" class="node"><title>Node8</title>
<g id="a_node8"><a xlink:href="server_8h.html" target="_top" xlink:title="server.h">
<polygon fill="white" stroke="black" points="80,-62 80,-81 130,-81 130,-62 80,-62"/>
<text text-anchor="middle" x="105" y="-69" font-family="Helvetica,sans-Serif" font-size="10.00">server.h</text>
</a>
</g>
</g>
<!-- Node2&#45;&gt;Node8 -->
<g id="edge8" class="edge"><title>Node2&#45;&gt;Node8</title>
<path fill="none" stroke="midnightblue" d="M316.634,-128.319C277.916,-118.25 214.011,-101.583 159,-87 149.617,-84.5127 139.325,-81.7561 130.265,-79.3201"/>
<polygon fill="midnightblue" stroke="midnightblue" points="315.828,-131.725 326.386,-130.854 317.589,-124.951 315.828,-131.725"/>
</g>
<!-- Node4 -->
<g id="node4" class="node"><title>Node4</title>
<g id="a_node4"><a xlink:href="arbitrated__client__manager_8h.html" target="_top" xlink:title="arbitrated_client_manager.h">
<polygon fill="white" stroke="black" points="102.5,-0.5 102.5,-19.5 239.5,-19.5 239.5,-0.5 102.5,-0.5"/>
<text text-anchor="middle" x="171" y="-7.5" font-family="Helvetica,sans-Serif" font-size="10.00">arbitrated_client_manager.h</text>
</a>
</g>
</g>
<!-- Node3&#45;&gt;Node4 -->
<g id="edge3" class="edge"><title>Node3&#45;&gt;Node4</title>
<path fill="none" stroke="midnightblue" d="M201.958,-53.8377C193.887,-42.6694 183.595,-28.4278 177.149,-19.5091"/>
<polygon fill="midnightblue" stroke="midnightblue" points="199.145,-55.9202 207.839,-61.9751 204.818,-51.82 199.145,-55.9202"/>
</g>
<!-- Node3&#45;&gt;Node5 -->
<g id="edge4" class="edge"><title>Node3&#45;&gt;Node5</title>
<path fill="none" stroke="midnightblue" d="M254.843,-59.2493C296.808,-47.6894 361.203,-29.9511 399.11,-19.5091"/>
<polygon fill="midnightblue" stroke="midnightblue" points="253.659,-55.945 244.948,-61.9751 255.518,-62.6936 253.659,-55.945"/>
</g>
<!-- Node6 -->
<g id="node6" class="node"><title>Node6</title>
<g id="a_node6"><a xlink:href="erpc__client__setup_8h.html" target="_top" xlink:title="erpc_client_setup.h">
<polygon fill="white" stroke="black" points="257.5,-0.5 257.5,-19.5 358.5,-19.5 358.5,-0.5 257.5,-0.5"/>
<text text-anchor="middle" x="308" y="-7.5" font-family="Helvetica,sans-Serif" font-size="10.00">erpc_client_setup.h</text>
</a>
</g>
</g>
<!-- Node3&#45;&gt;Node6 -->
<g id="edge5" class="edge"><title>Node3&#45;&gt;Node6</title>
<path fill="none" stroke="midnightblue" d="M236.229,-56.4295C254.351,-44.9589 279.351,-29.1343 294.557,-19.5091"/>
<polygon fill="midnightblue" stroke="midnightblue" points="234.046,-53.6693 227.468,-61.9751 237.789,-59.584 234.046,-53.6693"/>
</g>
<!-- Node9 -->
<g id="node9" class="node"><title>Node9</title>
<g id="a_node9"><a xlink:href="simple__server_8h.html" target="_top" xlink:title="simple_server.h">
<polygon fill="white" stroke="black" points="0,-0.5 0,-19.5 84,-19.5 84,-0.5 0,-0.5"/>
<text text-anchor="middle" x="42" y="-7.5" font-family="Helvetica,sans-Serif" font-size="10.00">simple_server.h</text>
</a>
</g>
</g>
<!-- Node8&#45;&gt;Node9 -->
<g id="edge9" class="edge"><title>Node8&#45;&gt;Node9</title>
<path fill="none" stroke="midnightblue" d="M88.4024,-54.8245C76.4331,-43.5202 60.7335,-28.6928 51.0096,-19.5091"/>
<polygon fill="midnightblue" stroke="midnightblue" points="86.3003,-57.6534 95.9736,-61.9751 91.1067,-52.5643 86.3003,-57.6534"/>
</g>
<!-- Node10&#45;&gt;Node2 -->
<g id="edge11" class="edge"><title>Node10&#45;&gt;Node2</title>
<path fill="none" stroke="midnightblue" d="M1279.07,-196.425C1113.85,-186.28 510.378,-149.225 377.848,-141.087"/>
<polygon fill="midnightblue" stroke="midnightblue" points="1279.11,-199.935 1289.31,-197.054 1279.54,-192.948 1279.11,-199.935"/>
</g>
<!-- Node10&#45;&gt;Node5 -->
<g id="edge12" class="edge"><title>Node10&#45;&gt;Node5</title>
<path fill="none" stroke="midnightblue" d="M1314.62,-180.843C1311.83,-172.68 1308.61,-162.9 1306,-154 1293.33,-110.872 1315.76,-84.5059 1281,-56 1250.11,-30.6675 665.509,-16.0475 483.574,-12.0972"/>
<polygon fill="midnightblue" stroke="midnightblue" points="1311.36,-182.128 1317.94,-190.431 1317.97,-179.836 1311.36,-182.128"/>
</g>
<!-- Node10&#45;&gt;Node11 -->
<g id="edge13" class="edge"><title>Node10&#45;&gt;Node11</title>
<path fill="none" stroke="midnightblue" d="M1279.48,-192.04C1213.59,-180.998 1085.39,-159.51 1015.07,-147.724"/>
<polygon fill="midnightblue" stroke="midnightblue" points="1279.06,-195.519 1289.5,-193.72 1280.21,-188.615 1279.06,-195.519"/>
</g>
<!-- Node10&#45;&gt;Node19 -->
<g id="edge21" class="edge"><title>Node10&#45;&gt;Node19</title>
<path fill="none" stroke="midnightblue" d="M1354.14,-186.976C1380.81,-177.302 1418.32,-163.692 1446.35,-153.523"/>
<polygon fill="midnightblue" stroke="midnightblue" points="1352.7,-183.774 1344.5,-190.475 1355.09,-190.355 1352.7,-183.774"/>
</g>
<!-- Node20 -->
<g id="node20" class="node"><title>Node20</title>
<g id="a_node20"><a xlink:href="rpmsg__lite__zc__base__transport_8h.html" target="_top" xlink:title="rpmsg_lite_zc_base\l_transport.h">
<polygon fill="white" stroke="black" points="1315,-123.5 1315,-153.5 1419,-153.5 1419,-123.5 1315,-123.5"/>
<text text-anchor="start" x="1323" y="-141.5" font-family="Helvetica,sans-Serif" font-size="10.00">rpmsg_lite_zc_base</text>
<text text-anchor="middle" x="1367" y="-130.5" font-family="Helvetica,sans-Serif" font-size="10.00">_transport.h</text>
</a>
</g>
</g>
<!-- Node10&#45;&gt;Node20 -->
<g id="edge22" class="edge"><title>Node10&#45;&gt;Node20</title>
<path fill="none" stroke="midnightblue" d="M1333.73,-182.53C1340.78,-173.417 1349.44,-162.214 1356.16,-153.523"/>
<polygon fill="midnightblue" stroke="midnightblue" points="1330.94,-180.423 1327.59,-190.475 1336.48,-184.704 1330.94,-180.423"/>
</g>
<!-- Node12 -->
<g id="node12" class="node"><title>Node12</title>
<g id="a_node12"><a xlink:href="dspi__master__transport_8h.html" target="_top" xlink:title="dspi_master_transport.h">
<polygon fill="white" stroke="black" points="648,-62 648,-81 770,-81 770,-62 648,-62"/>
<text text-anchor="middle" x="709" y="-69" font-family="Helvetica,sans-Serif" font-size="10.00">dspi_master_transport.h</text>
</a>
</g>
</g>
<!-- Node11&#45;&gt;Node12 -->
<g id="edge14" class="edge"><title>Node11&#45;&gt;Node12</title>
<path fill="none" stroke="midnightblue" d="M922.128,-126.404C871.407,-113.576 789.011,-92.7361 742.938,-81.0834"/>
<polygon fill="midnightblue" stroke="midnightblue" points="921.585,-129.877 932.137,-128.936 923.301,-123.09 921.585,-129.877"/>
</g>
<!-- Node13 -->
<g id="node13" class="node"><title>Node13</title>
<g id="a_node13"><a xlink:href="dspi__slave__transport_8h.html" target="_top" xlink:title="dspi_slave_transport.h">
<polygon fill="white" stroke="black" points="788.5,-62 788.5,-81 901.5,-81 901.5,-62 788.5,-62"/>
<text text-anchor="middle" x="845" y="-69" font-family="Helvetica,sans-Serif" font-size="10.00">dspi_slave_transport.h</text>
</a>
</g>
</g>
<!-- Node11&#45;&gt;Node13 -->
<g id="edge15" class="edge"><title>Node11&#45;&gt;Node13</title>
<path fill="none" stroke="midnightblue" d="M940.792,-123.959C916.804,-111.073 881.435,-92.0727 861.06,-81.1273"/>
<polygon fill="midnightblue" stroke="midnightblue" points="939.216,-127.085 949.681,-128.734 942.528,-120.918 939.216,-127.085"/>
</g>
<!-- Node14 -->
<g id="node14" class="node"><title>Node14</title>
<g id="a_node14"><a xlink:href="serial__transport_8h.html" target="_top" xlink:title="serial_transport.h">
<polygon fill="white" stroke="black" points="920,-62 920,-81 1012,-81 1012,-62 920,-62"/>
<text text-anchor="middle" x="966" y="-69" font-family="Helvetica,sans-Serif" font-size="10.00">serial_transport.h</text>
</a>
</g>
</g>
<!-- Node11&#45;&gt;Node14 -->
<g id="edge16" class="edge"><title>Node11&#45;&gt;Node14</title>
<path fill="none" stroke="midnightblue" d="M966,-118.537C966,-106.17 966,-90.6198 966,-81.1273"/>
<polygon fill="midnightblue" stroke="midnightblue" points="962.5,-118.734 966,-128.734 969.5,-118.734 962.5,-118.734"/>
</g>
<!-- Node15 -->
<g id="node15" class="node"><title>Node15</title>
<g id="a_node15"><a xlink:href="spi__master__transport_8h.html" target="_top" xlink:title="spi_master_transport.h">
<polygon fill="white" stroke="black" points="1030,-62 1030,-81 1146,-81 1146,-62 1030,-62"/>
<text text-anchor="middle" x="1088" y="-69" font-family="Helvetica,sans-Serif" font-size="10.00">spi_master_transport.h</text>
</a>
</g>
</g>
<!-- Node11&#45;&gt;Node15 -->
<g id="edge17" class="edge"><title>Node11&#45;&gt;Node15</title>
<path fill="none" stroke="midnightblue" d="M991.144,-124.103C1015.31,-111.231 1051.1,-92.16 1071.73,-81.1672"/>
<polygon fill="midnightblue" stroke="midnightblue" points="989.38,-121.077 982.201,-128.869 992.672,-127.255 989.38,-121.077"/>
</g>
<!-- Node16 -->
<g id="node16" class="node"><title>Node16</title>
<g id="a_node16"><a xlink:href="spi__slave__transport_8h.html" target="_top" xlink:title="spi_slave_transport.h">
<polygon fill="white" stroke="black" points="1164,-62 1164,-81 1272,-81 1272,-62 1164,-62"/>
<text text-anchor="middle" x="1218" y="-69" font-family="Helvetica,sans-Serif" font-size="10.00">spi_slave_transport.h</text>
</a>
</g>
</g>
<!-- Node11&#45;&gt;Node16 -->
<g id="edge18" class="edge"><title>Node11&#45;&gt;Node16</title>
<path fill="none" stroke="midnightblue" d="M1009.02,-126.404C1058.75,-113.576 1139.55,-92.7361 1184.72,-81.0834"/>
<polygon fill="midnightblue" stroke="midnightblue" points="1008.01,-123.049 999.204,-128.936 1009.76,-129.827 1008.01,-123.049"/>
</g>
<!-- Node17 -->
<g id="node17" class="node"><title>Node17</title>
<g id="a_node17"><a xlink:href="tcp__transport_8h.html" target="_top" xlink:title="tcp_transport.h">
<polygon fill="white" stroke="black" points="414,-62 414,-81 496,-81 496,-62 414,-62"/>
<text text-anchor="middle" x="455" y="-69" font-family="Helvetica,sans-Serif" font-size="10.00">tcp_transport.h</text>
</a>
</g>
</g>
<!-- Node11&#45;&gt;Node17 -->
<g id="edge19" class="edge"><title>Node11&#45;&gt;Node17</title>
<path fill="none" stroke="midnightblue" d="M906.702,-134.296C818.451,-128.787 647.632,-115.272 505,-87 497.198,-85.4535 488.852,-83.2569 481.257,-81.0398"/>
<polygon fill="midnightblue" stroke="midnightblue" points="906.595,-137.796 916.79,-134.913 907.022,-130.809 906.595,-137.796"/>
</g>
<!-- Node18 -->
<g id="node18" class="node"><title>Node18</title>
<g id="a_node18"><a xlink:href="uart__cmsis__transport_8h.html" target="_top" xlink:title="uart_cmsis_transport.h">
<polygon fill="white" stroke="black" points="514,-62 514,-81 630,-81 630,-62 514,-62"/>
<text text-anchor="middle" x="572" y="-69" font-family="Helvetica,sans-Serif" font-size="10.00">uart_cmsis_transport.h</text>
</a>
</g>
</g>
<!-- Node11&#45;&gt;Node18 -->
<g id="edge20" class="edge"><title>Node11&#45;&gt;Node18</title>
<path fill="none" stroke="midnightblue" d="M906.659,-129.426C841.003,-120.239 732.155,-104.257 639,-87 629.404,-85.2224 619.082,-83.0958 609.482,-81.0263"/>
<polygon fill="midnightblue" stroke="midnightblue" points="906.429,-132.928 916.817,-130.841 907.395,-125.994 906.429,-132.928"/>
</g>
<!-- Node20&#45;&gt;Node21 -->
<g id="edge23" class="edge"><title>Node20&#45;&gt;Node21</title>
<path fill="none" stroke="midnightblue" d="M1387.48,-116.024C1396.72,-106.34 1407.37,-95.1739 1415.57,-86.5765"/>
<polygon fill="midnightblue" stroke="midnightblue" points="1384.82,-113.744 1380.45,-123.396 1389.89,-118.576 1384.82,-113.744"/>
</g>
<!-- Node20&#45;&gt;Node22 -->
<g id="edge24" class="edge"><title>Node20&#45;&gt;Node22</title>
<path fill="none" stroke="midnightblue" d="M1423.97,-120.59C1466.74,-107.896 1523.52,-91.0429 1557.26,-81.0287"/>
<polygon fill="midnightblue" stroke="midnightblue" points="1422.84,-117.275 1414.25,-123.476 1424.83,-123.986 1422.84,-117.275"/>
</g>
</g>
</svg>
