<?xml version="1.0" encoding="UTF-8" standalone="no"?>
<!DOCTYPE svg PUBLIC "-//W3C//DTD SVG 1.1//EN"
 "http://www.w3.org/Graphics/SVG/1.1/DTD/svg11.dtd">
<!-- Generated by graphviz version 2.38.0 (20140413.2041)
 -->
<!-- Title: rpmsg_lite_zc_base_transport.h Pages: 1 -->
<svg width="276pt" height="263pt"
 viewBox="0.00 0.00 276.00 263.00" xmlns="http://www.w3.org/2000/svg" xmlns:xlink="http://www.w3.org/1999/xlink">
<g id="graph0" class="graph" transform="scale(1 1) rotate(0) translate(4 259)">
<title>rpmsg_lite_zc_base_transport.h</title>
<polygon fill="white" stroke="none" points="-4,4 -4,-259 272,-259 272,4 -4,4"/>
<!-- Node1 -->
<g id="node1" class="node"><title>Node1</title>
<polygon fill="#bfbfbf" stroke="black" points="25,-224.5 25,-254.5 129,-254.5 129,-224.5 25,-224.5"/>
<text text-anchor="start" x="33" y="-242.5" font-family="Helvetica,sans-Serif" font-size="10.00">rpmsg_lite_zc_base</text>
<text text-anchor="middle" x="77" y="-231.5" font-family="Helvetica,sans-Serif" font-size="10.00">_transport.h</text>
</g>
<!-- Node2 -->
<g id="node2" class="node"><title>Node2</title>
<polygon fill="white" stroke="#bfbfbf" points="0,-168.5 0,-187.5 70,-187.5 70,-168.5 0,-168.5"/>
<text text-anchor="middle" x="35" y="-175.5" font-family="Helvetica,sans-Serif" font-size="10.00">rpmsg_lite.h</text>
</g>
<!-- Node1&#45;&gt;Node2 -->
<g id="edge1" class="edge"><title>Node1&#45;&gt;Node2</title>
<path fill="none" stroke="midnightblue" d="M67.0466,-224.399C61.0064,-215.842 53.2617,-204.871 46.8991,-195.857"/>
<polygon fill="midnightblue" stroke="midnightblue" points="49.7376,-193.809 41.1114,-187.658 44.0189,-197.846 49.7376,-193.809"/>
</g>
<!-- Node3 -->
<g id="node3" class="node"><title>Node3</title>
<g id="a_node3"><a xlink:href="transport_8h.html" target="_top" xlink:title="transport.h">
<polygon fill="white" stroke="black" points="88.5,-168.5 88.5,-187.5 151.5,-187.5 151.5,-168.5 88.5,-168.5"/>
<text text-anchor="middle" x="120" y="-175.5" font-family="Helvetica,sans-Serif" font-size="10.00">transport.h</text>
</a>
</g>
</g>
<!-- Node1&#45;&gt;Node3 -->
<g id="edge2" class="edge"><title>Node1&#45;&gt;Node3</title>
<path fill="none" stroke="midnightblue" d="M87.1904,-224.399C93.3744,-215.842 101.303,-204.871 107.818,-195.857"/>
<polygon fill="midnightblue" stroke="midnightblue" points="110.722,-197.813 113.743,-187.658 105.049,-193.713 110.722,-197.813"/>
</g>
<!-- Node4 -->
<g id="node4" class="node"><title>Node4</title>
<g id="a_node4"><a xlink:href="erpc__common_8h_source.html" target="_top" xlink:title="erpc_common.h">
<polygon fill="white" stroke="black" points="43,-56.5 43,-75.5 129,-75.5 129,-56.5 43,-56.5"/>
<text text-anchor="middle" x="86" y="-63.5" font-family="Helvetica,sans-Serif" font-size="10.00">erpc_common.h</text>
</a>
</g>
</g>
<!-- Node3&#45;&gt;Node4 -->
<g id="edge3" class="edge"><title>Node3&#45;&gt;Node4</title>
<path fill="none" stroke="midnightblue" d="M115.752,-168.208C111.557,-159.26 105.18,-144.909 101,-132 96.033,-116.661 92.0322,-98.7819 89.4156,-85.662"/>
<polygon fill="midnightblue" stroke="midnightblue" points="92.7966,-84.7071 87.4831,-75.541 85.9208,-86.02 92.7966,-84.7071"/>
</g>
<!-- Node5 -->
<g id="node5" class="node"><title>Node5</title>
<polygon fill="white" stroke="#bfbfbf" points="61.5,-0.5 61.5,-19.5 110.5,-19.5 110.5,-0.5 61.5,-0.5"/>
<text text-anchor="middle" x="86" y="-7.5" font-family="Helvetica,sans-Serif" font-size="10.00">stdint.h</text>
</g>
<!-- Node3&#45;&gt;Node5 -->
<g id="edge10" class="edge"><title>Node3&#45;&gt;Node5</title>
<path fill="none" stroke="midnightblue" d="M108.501,-168.261C88.7448,-152.432 49.0347,-116.848 34,-76 30.9297,-67.6582 30.3048,-64.0844 34,-56 39.7773,-43.3602 51.0523,-32.911 61.6306,-25.2737"/>
<polygon fill="midnightblue" stroke="midnightblue" points="63.8488,-28.0009 70.2167,-19.5333 59.9582,-22.1817 63.8488,-28.0009"/>
</g>
<!-- Node6 -->
<g id="node6" class="node"><title>Node6</title>
<g id="a_node6"><a xlink:href="message__buffer_8h.html" target="_top" xlink:title="message_buffer.h">
<polygon fill="white" stroke="black" points="110.5,-112.5 110.5,-131.5 203.5,-131.5 203.5,-112.5 110.5,-112.5"/>
<text text-anchor="middle" x="157" y="-119.5" font-family="Helvetica,sans-Serif" font-size="10.00">message_buffer.h</text>
</a>
</g>
</g>
<!-- Node3&#45;&gt;Node6 -->
<g id="edge5" class="edge"><title>Node3&#45;&gt;Node6</title>
<path fill="none" stroke="midnightblue" d="M126.11,-168.083C131.282,-160.534 138.846,-149.495 145.194,-140.23"/>
<polygon fill="midnightblue" stroke="midnightblue" points="148.239,-141.979 151.004,-131.751 142.464,-138.022 148.239,-141.979"/>
</g>
<!-- Node8 -->
<g id="node8" class="node"><title>Node8</title>
<polygon fill="white" stroke="#bfbfbf" points="222,-112.5 222,-131.5 268,-131.5 268,-112.5 222,-112.5"/>
<text text-anchor="middle" x="245" y="-119.5" font-family="Helvetica,sans-Serif" font-size="10.00">cstring</text>
</g>
<!-- Node3&#45;&gt;Node8 -->
<g id="edge9" class="edge"><title>Node3&#45;&gt;Node8</title>
<path fill="none" stroke="midnightblue" d="M139.807,-168.444C160.287,-159.596 192.483,-145.687 215.865,-135.586"/>
<polygon fill="midnightblue" stroke="midnightblue" points="217.494,-138.695 225.286,-131.516 214.718,-132.269 217.494,-138.695"/>
</g>
<!-- Node4&#45;&gt;Node5 -->
<g id="edge4" class="edge"><title>Node4&#45;&gt;Node5</title>
<path fill="none" stroke="midnightblue" d="M86,-56.083C86,-49.0059 86,-38.8611 86,-29.9865"/>
<polygon fill="midnightblue" stroke="midnightblue" points="89.5001,-29.751 86,-19.7511 82.5001,-29.7511 89.5001,-29.751"/>
</g>
<!-- Node6&#45;&gt;Node4 -->
<g id="edge6" class="edge"><title>Node6&#45;&gt;Node4</title>
<path fill="none" stroke="midnightblue" d="M145.593,-112.324C134.891,-104.185 118.659,-91.8395 105.837,-82.0874"/>
<polygon fill="midnightblue" stroke="midnightblue" points="107.693,-79.1018 97.6149,-75.8339 103.456,-84.6734 107.693,-79.1018"/>
</g>
<!-- Node6&#45;&gt;Node5 -->
<g id="edge8" class="edge"><title>Node6&#45;&gt;Node5</title>
<path fill="none" stroke="midnightblue" d="M156.054,-112.359C154.288,-99.2617 149.563,-74.0042 138,-56 130.339,-44.071 118.596,-33.5262 108.207,-25.6482"/>
<polygon fill="midnightblue" stroke="midnightblue" points="110.08,-22.6839 99.9178,-19.6861 105.992,-28.3666 110.08,-22.6839"/>
</g>
<!-- Node7 -->
<g id="node7" class="node"><title>Node7</title>
<polygon fill="white" stroke="#bfbfbf" points="185,-56.5 185,-75.5 233,-75.5 233,-56.5 185,-56.5"/>
<text text-anchor="middle" x="209" y="-63.5" font-family="Helvetica,sans-Serif" font-size="10.00">cstddef</text>
</g>
<!-- Node6&#45;&gt;Node7 -->
<g id="edge7" class="edge"><title>Node6&#45;&gt;Node7</title>
<path fill="none" stroke="midnightblue" d="M165.587,-112.083C173.159,-104.22 184.378,-92.5688 193.514,-83.0813"/>
<polygon fill="midnightblue" stroke="midnightblue" points="196.158,-85.3821 200.573,-75.7511 191.115,-80.5266 196.158,-85.3821"/>
</g>
</g>
</svg>
