<?xml version="1.0" encoding="UTF-8" standalone="no"?>
<!DOCTYPE svg PUBLIC "-//W3C//DTD SVG 1.1//EN"
 "http://www.w3.org/Graphics/SVG/1.1/DTD/svg11.dtd">
<!-- Generated by graphviz version 2.38.0 (20140413.2041)
 -->
<!-- Title: rpmsg_lite_zc_base_transport.h Pages: 1 -->
<svg width="254pt" height="106pt"
 viewBox="0.00 0.00 254.00 106.00" xmlns="http://www.w3.org/2000/svg" xmlns:xlink="http://www.w3.org/1999/xlink">
<g id="graph0" class="graph" transform="scale(1 1) rotate(0) translate(4 102)">
<title>rpmsg_lite_zc_base_transport.h</title>
<polygon fill="white" stroke="none" points="-4,4 -4,-102 250,-102 250,4 -4,4"/>
<!-- Node1 -->
<g id="node1" class="node"><title>Node1</title>
<polygon fill="#bfbfbf" stroke="black" points="63.5,-67.5 63.5,-97.5 167.5,-97.5 167.5,-67.5 63.5,-67.5"/>
<text text-anchor="start" x="71.5" y="-85.5" font-family="Helvetica,sans-Serif" font-size="10.00">rpmsg_lite_zc_base</text>
<text text-anchor="middle" x="115.5" y="-74.5" font-family="Helvetica,sans-Serif" font-size="10.00">_transport.h</text>
</g>
<!-- Node2 -->
<g id="node2" class="node"><title>Node2</title>
<g id="a_node2"><a xlink:href="rpmsg__lite__zc__rtos__transport_8h.html" target="_top" xlink:title="rpmsg_lite_zc_rtos\l_transport.h">
<polygon fill="white" stroke="black" points="0,-0.5 0,-30.5 99,-30.5 99,-0.5 0,-0.5"/>
<text text-anchor="start" x="8" y="-18.5" font-family="Helvetica,sans-Serif" font-size="10.00">rpmsg_lite_zc_rtos</text>
<text text-anchor="middle" x="49.5" y="-7.5" font-family="Helvetica,sans-Serif" font-size="10.00">_transport.h</text>
</a>
</g>
</g>
<!-- Node1&#45;&gt;Node2 -->
<g id="edge1" class="edge"><title>Node1&#45;&gt;Node2</title>
<path fill="none" stroke="midnightblue" d="M93.9855,-60.3115C84.0852,-50.5612 72.6092,-39.259 63.7931,-30.5765"/>
<polygon fill="midnightblue" stroke="midnightblue" points="91.5982,-62.8728 101.179,-67.396 96.51,-57.8853 91.5982,-62.8728"/>
</g>
<!-- Node3 -->
<g id="node3" class="node"><title>Node3</title>
<g id="a_node3"><a xlink:href="rpmsg__lite__zc__transport_8h.html" target="_top" xlink:title="rpmsg_lite_zc_transport.h">
<polygon fill="white" stroke="black" points="117,-6 117,-25 246,-25 246,-6 117,-6"/>
<text text-anchor="middle" x="181.5" y="-13" font-family="Helvetica,sans-Serif" font-size="10.00">rpmsg_lite_zc_transport.h</text>
</a>
</g>
</g>
<!-- Node1&#45;&gt;Node3 -->
<g id="edge2" class="edge"><title>Node1&#45;&gt;Node3</title>
<path fill="none" stroke="midnightblue" d="M136.991,-60.335C149.108,-48.401 163.593,-34.1359 172.672,-25.1945"/>
<polygon fill="midnightblue" stroke="midnightblue" points="134.49,-57.8853 129.821,-67.396 139.402,-62.8728 134.49,-57.8853"/>
</g>
</g>
</svg>
