<?xml version="1.0" encoding="UTF-8" standalone="no"?>
<!DOCTYPE svg PUBLIC "-//W3C//DTD SVG 1.1//EN"
 "http://www.w3.org/Graphics/SVG/1.1/DTD/svg11.dtd">
<!-- Generated by graphviz version 2.38.0 (20140413.2041)
 -->
<!-- Title: rpmsg_lite_zc_transport.h Pages: 1 -->
<svg width="416pt" height="319pt"
 viewBox="0.00 0.00 415.50 319.00" xmlns="http://www.w3.org/2000/svg" xmlns:xlink="http://www.w3.org/1999/xlink">
<g id="graph0" class="graph" transform="scale(1 1) rotate(0) translate(4 315)">
<title>rpmsg_lite_zc_transport.h</title>
<polygon fill="white" stroke="none" points="-4,4 -4,-315 411.5,-315 411.5,4 -4,4"/>
<!-- Node1 -->
<g id="node1" class="node"><title>Node1</title>
<polygon fill="#bfbfbf" stroke="black" points="113,-291.5 113,-310.5 242,-310.5 242,-291.5 113,-291.5"/>
<text text-anchor="middle" x="177.5" y="-298.5" font-family="Helvetica,sans-Serif" font-size="10.00">rpmsg_lite_zc_transport.h</text>
</g>
<!-- Node2 -->
<g id="node2" class="node"><title>Node2</title>
<g id="a_node2"><a xlink:href="erpc__config__internal_8h_source.html" target="_top" xlink:title="erpc_config_internal.h">
<polygon fill="white" stroke="black" points="0,-230 0,-249 111,-249 111,-230 0,-230"/>
<text text-anchor="middle" x="55.5" y="-237" font-family="Helvetica,sans-Serif" font-size="10.00">erpc_config_internal.h</text>
</a>
</g>
</g>
<!-- Node1&#45;&gt;Node2 -->
<g id="edge1" class="edge"><title>Node1&#45;&gt;Node2</title>
<path fill="none" stroke="midnightblue" d="M160.02,-291.475C139.637,-281.534 105.725,-264.995 82.0755,-253.461"/>
<polygon fill="midnightblue" stroke="midnightblue" points="83.4695,-250.247 72.9472,-249.009 80.401,-256.538 83.4695,-250.247"/>
</g>
<!-- Node4 -->
<g id="node4" class="node"><title>Node4</title>
<g id="a_node4"><a xlink:href="message__buffer_8h.html" target="_top" xlink:title="message_buffer.h">
<polygon fill="white" stroke="black" points="104,-112.5 104,-131.5 197,-131.5 197,-112.5 104,-112.5"/>
<text text-anchor="middle" x="150.5" y="-119.5" font-family="Helvetica,sans-Serif" font-size="10.00">message_buffer.h</text>
</a>
</g>
</g>
<!-- Node1&#45;&gt;Node4 -->
<g id="edge3" class="edge"><title>Node1&#45;&gt;Node4</title>
<path fill="none" stroke="midnightblue" d="M175.886,-291.308C172.427,-272.507 164.152,-226.639 158.5,-188 156.234,-172.512 154.092,-154.884 152.595,-141.896"/>
<polygon fill="midnightblue" stroke="midnightblue" points="156.061,-141.392 151.46,-131.849 149.105,-142.178 156.061,-141.392"/>
</g>
<!-- Node8 -->
<g id="node8" class="node"><title>Node8</title>
<polygon fill="white" stroke="#bfbfbf" points="167.5,-168.5 167.5,-187.5 237.5,-187.5 237.5,-168.5 167.5,-168.5"/>
<text text-anchor="middle" x="202.5" y="-175.5" font-family="Helvetica,sans-Serif" font-size="10.00">rpmsg_lite.h</text>
</g>
<!-- Node1&#45;&gt;Node8 -->
<g id="edge8" class="edge"><title>Node1&#45;&gt;Node8</title>
<path fill="none" stroke="midnightblue" d="M179.298,-291.298C183.334,-271.763 193.189,-224.065 198.668,-197.547"/>
<polygon fill="midnightblue" stroke="midnightblue" points="202.123,-198.125 200.718,-187.623 195.267,-196.708 202.123,-198.125"/>
</g>
<!-- Node9 -->
<g id="node9" class="node"><title>Node9</title>
<g id="a_node9"><a xlink:href="rpmsg__lite__zc__base__transport_8h.html" target="_top" xlink:title="rpmsg_lite_zc_base\l_transport.h">
<polygon fill="white" stroke="black" points="205.5,-224.5 205.5,-254.5 309.5,-254.5 309.5,-224.5 205.5,-224.5"/>
<text text-anchor="start" x="213.5" y="-242.5" font-family="Helvetica,sans-Serif" font-size="10.00">rpmsg_lite_zc_base</text>
<text text-anchor="middle" x="257.5" y="-231.5" font-family="Helvetica,sans-Serif" font-size="10.00">_transport.h</text>
</a>
</g>
</g>
<!-- Node1&#45;&gt;Node9 -->
<g id="edge9" class="edge"><title>Node1&#45;&gt;Node9</title>
<path fill="none" stroke="midnightblue" d="M188.962,-291.475C199.696,-283.492 216.15,-271.254 230.246,-260.77"/>
<polygon fill="midnightblue" stroke="midnightblue" points="232.71,-263.299 238.646,-254.523 228.533,-257.682 232.71,-263.299"/>
</g>
<!-- Node12 -->
<g id="node12" class="node"><title>Node12</title>
<g id="a_node12"><a xlink:href="static__queue_8h.html" target="_top" xlink:title="static_queue.h">
<polygon fill="white" stroke="black" points="327.5,-230 327.5,-249 407.5,-249 407.5,-230 327.5,-230"/>
<text text-anchor="middle" x="367.5" y="-237" font-family="Helvetica,sans-Serif" font-size="10.00">static_queue.h</text>
</a>
</g>
</g>
<!-- Node1&#45;&gt;Node12 -->
<g id="edge16" class="edge"><title>Node1&#45;&gt;Node12</title>
<path fill="none" stroke="midnightblue" d="M204.722,-291.475C237.737,-281.136 293.54,-263.661 330.453,-252.102"/>
<polygon fill="midnightblue" stroke="midnightblue" points="331.831,-255.338 340.328,-249.009 329.739,-248.658 331.831,-255.338"/>
</g>
<!-- Node3 -->
<g id="node3" class="node"><title>Node3</title>
<g id="a_node3"><a xlink:href="erpc__config_8h.html" target="_top" xlink:title="erpc_config.h">
<polygon fill="white" stroke="black" points="18.5,-168.5 18.5,-187.5 92.5,-187.5 92.5,-168.5 18.5,-168.5"/>
<text text-anchor="middle" x="55.5" y="-175.5" font-family="Helvetica,sans-Serif" font-size="10.00">erpc_config.h</text>
</a>
</g>
</g>
<!-- Node2&#45;&gt;Node3 -->
<g id="edge2" class="edge"><title>Node2&#45;&gt;Node3</title>
<path fill="none" stroke="midnightblue" d="M55.5,-229.975C55.5,-221.58 55.5,-208.481 55.5,-197.663"/>
<polygon fill="midnightblue" stroke="midnightblue" points="59.0001,-197.509 55.5,-187.509 52.0001,-197.509 59.0001,-197.509"/>
</g>
<!-- Node5 -->
<g id="node5" class="node"><title>Node5</title>
<g id="a_node5"><a xlink:href="erpc__common_8h_source.html" target="_top" xlink:title="erpc_common.h">
<polygon fill="white" stroke="black" points="178.5,-56.5 178.5,-75.5 264.5,-75.5 264.5,-56.5 178.5,-56.5"/>
<text text-anchor="middle" x="221.5" y="-63.5" font-family="Helvetica,sans-Serif" font-size="10.00">erpc_common.h</text>
</a>
</g>
</g>
<!-- Node4&#45;&gt;Node5 -->
<g id="edge4" class="edge"><title>Node4&#45;&gt;Node5</title>
<path fill="none" stroke="midnightblue" d="M161.907,-112.324C172.609,-104.185 188.841,-91.8395 201.663,-82.0874"/>
<polygon fill="midnightblue" stroke="midnightblue" points="204.044,-84.6734 209.885,-75.8339 199.807,-79.1018 204.044,-84.6734"/>
</g>
<!-- Node6 -->
<g id="node6" class="node"><title>Node6</title>
<polygon fill="white" stroke="#bfbfbf" points="197,-0.5 197,-19.5 246,-19.5 246,-0.5 197,-0.5"/>
<text text-anchor="middle" x="221.5" y="-7.5" font-family="Helvetica,sans-Serif" font-size="10.00">stdint.h</text>
</g>
<!-- Node4&#45;&gt;Node6 -->
<g id="edge7" class="edge"><title>Node4&#45;&gt;Node6</title>
<path fill="none" stroke="midnightblue" d="M151.446,-112.359C153.212,-99.2617 157.937,-74.0042 169.5,-56 177.161,-44.071 188.904,-33.5262 199.293,-25.6482"/>
<polygon fill="midnightblue" stroke="midnightblue" points="201.508,-28.3666 207.582,-19.6861 197.42,-22.6839 201.508,-28.3666"/>
</g>
<!-- Node7 -->
<g id="node7" class="node"><title>Node7</title>
<polygon fill="white" stroke="#bfbfbf" points="74.5,-56.5 74.5,-75.5 122.5,-75.5 122.5,-56.5 74.5,-56.5"/>
<text text-anchor="middle" x="98.5" y="-63.5" font-family="Helvetica,sans-Serif" font-size="10.00">cstddef</text>
</g>
<!-- Node4&#45;&gt;Node7 -->
<g id="edge6" class="edge"><title>Node4&#45;&gt;Node7</title>
<path fill="none" stroke="midnightblue" d="M141.913,-112.083C134.341,-104.22 123.122,-92.5688 113.986,-83.0813"/>
<polygon fill="midnightblue" stroke="midnightblue" points="116.385,-80.5266 106.927,-75.7511 111.342,-85.3821 116.385,-80.5266"/>
</g>
<!-- Node5&#45;&gt;Node6 -->
<g id="edge5" class="edge"><title>Node5&#45;&gt;Node6</title>
<path fill="none" stroke="midnightblue" d="M221.5,-56.083C221.5,-49.0059 221.5,-38.8611 221.5,-29.9865"/>
<polygon fill="midnightblue" stroke="midnightblue" points="225,-29.751 221.5,-19.7511 218,-29.7511 225,-29.751"/>
</g>
<!-- Node9&#45;&gt;Node8 -->
<g id="edge10" class="edge"><title>Node9&#45;&gt;Node8</title>
<path fill="none" stroke="midnightblue" d="M244.466,-224.399C236.309,-215.575 225.778,-204.183 217.306,-195.018"/>
<polygon fill="midnightblue" stroke="midnightblue" points="219.861,-192.625 210.503,-187.658 214.721,-197.377 219.861,-192.625"/>
</g>
<!-- Node10 -->
<g id="node10" class="node"><title>Node10</title>
<g id="a_node10"><a xlink:href="transport_8h.html" target="_top" xlink:title="transport.h">
<polygon fill="white" stroke="black" points="256,-168.5 256,-187.5 319,-187.5 319,-168.5 256,-168.5"/>
<text text-anchor="middle" x="287.5" y="-175.5" font-family="Helvetica,sans-Serif" font-size="10.00">transport.h</text>
</a>
</g>
</g>
<!-- Node9&#45;&gt;Node10 -->
<g id="edge11" class="edge"><title>Node9&#45;&gt;Node10</title>
<path fill="none" stroke="midnightblue" d="M264.61,-224.399C268.789,-216.11 274.111,-205.554 278.572,-196.708"/>
<polygon fill="midnightblue" stroke="midnightblue" points="281.758,-198.163 283.135,-187.658 275.507,-195.011 281.758,-198.163"/>
</g>
<!-- Node10&#45;&gt;Node4 -->
<g id="edge13" class="edge"><title>Node10&#45;&gt;Node4</title>
<path fill="none" stroke="midnightblue" d="M265.792,-168.444C243.145,-159.517 207.428,-145.439 181.748,-135.317"/>
<polygon fill="midnightblue" stroke="midnightblue" points="182.693,-131.927 172.106,-131.516 180.126,-138.44 182.693,-131.927"/>
</g>
<!-- Node10&#45;&gt;Node5 -->
<g id="edge12" class="edge"><title>Node10&#45;&gt;Node5</title>
<path fill="none" stroke="midnightblue" d="M282.321,-168.368C271.477,-150.296 246.206,-108.176 231.884,-84.3074"/>
<polygon fill="midnightblue" stroke="midnightblue" points="234.801,-82.3656 226.655,-75.5914 228.799,-85.9671 234.801,-82.3656"/>
</g>
<!-- Node10&#45;&gt;Node6 -->
<g id="edge15" class="edge"><title>Node10&#45;&gt;Node6</title>
<path fill="none" stroke="midnightblue" d="M288.528,-168.469C290.611,-147.799 293.564,-93.9515 273.5,-56 266.961,-43.6312 255.512,-33.1568 245.019,-25.4342"/>
<polygon fill="midnightblue" stroke="midnightblue" points="246.78,-22.3977 236.558,-19.6133 242.813,-28.1648 246.78,-22.3977"/>
</g>
<!-- Node11 -->
<g id="node11" class="node"><title>Node11</title>
<polygon fill="white" stroke="#bfbfbf" points="329.5,-112.5 329.5,-131.5 375.5,-131.5 375.5,-112.5 329.5,-112.5"/>
<text text-anchor="middle" x="352.5" y="-119.5" font-family="Helvetica,sans-Serif" font-size="10.00">cstring</text>
</g>
<!-- Node10&#45;&gt;Node11 -->
<g id="edge14" class="edge"><title>Node10&#45;&gt;Node11</title>
<path fill="none" stroke="midnightblue" d="M297.943,-168.324C307.646,-160.263 322.315,-148.077 334,-138.369"/>
<polygon fill="midnightblue" stroke="midnightblue" points="336.411,-140.916 341.867,-131.834 331.938,-135.532 336.411,-140.916"/>
</g>
<!-- Node12&#45;&gt;Node11 -->
<g id="edge17" class="edge"><title>Node12&#45;&gt;Node11</title>
<path fill="none" stroke="midnightblue" d="M366.373,-229.819C363.962,-211.257 358.258,-167.339 354.964,-141.973"/>
<polygon fill="midnightblue" stroke="midnightblue" points="358.399,-141.248 353.641,-131.782 351.458,-142.15 358.399,-141.248"/>
</g>
</g>
</svg>
