<?xml version="1.0" encoding="UTF-8" standalone="no"?>
<!DOCTYPE svg PUBLIC "-//W3C//DTD SVG 1.1//EN"
 "http://www.w3.org/Graphics/SVG/1.1/DTD/svg11.dtd">
<!-- Generated by graphviz version 2.38.0 (20140413.2041)
 -->
<!-- Title: rpmsg_lite_zc_rtos_transport.h Pages: 1 -->
<svg width="342pt" height="330pt"
 viewBox="0.00 0.00 341.50 330.00" xmlns="http://www.w3.org/2000/svg" xmlns:xlink="http://www.w3.org/1999/xlink">
<g id="graph0" class="graph" transform="scale(1 1) rotate(0) translate(4 326)">
<title>rpmsg_lite_zc_rtos_transport.h</title>
<polygon fill="white" stroke="none" points="-4,4 -4,-326 337.5,-326 337.5,4 -4,4"/>
<!-- Node1 -->
<g id="node1" class="node"><title>Node1</title>
<polygon fill="#bfbfbf" stroke="black" points="90.5,-291.5 90.5,-321.5 189.5,-321.5 189.5,-291.5 90.5,-291.5"/>
<text text-anchor="start" x="98.5" y="-309.5" font-family="Helvetica,sans-Serif" font-size="10.00">rpmsg_lite_zc_rtos</text>
<text text-anchor="middle" x="140" y="-298.5" font-family="Helvetica,sans-Serif" font-size="10.00">_transport.h</text>
</g>
<!-- Node2 -->
<g id="node2" class="node"><title>Node2</title>
<g id="a_node2"><a xlink:href="message__buffer_8h.html" target="_top" xlink:title="message_buffer.h">
<polygon fill="white" stroke="black" points="25.5,-112.5 25.5,-131.5 118.5,-131.5 118.5,-112.5 25.5,-112.5"/>
<text text-anchor="middle" x="72" y="-119.5" font-family="Helvetica,sans-Serif" font-size="10.00">message_buffer.h</text>
</a>
</g>
</g>
<!-- Node1&#45;&gt;Node2 -->
<g id="edge1" class="edge"><title>Node1&#45;&gt;Node2</title>
<path fill="none" stroke="midnightblue" d="M127.702,-291.158C110.602,-270.169 80.4525,-229.097 69,-188 64.7782,-172.85 66.0355,-154.955 68.0611,-141.78"/>
<polygon fill="midnightblue" stroke="midnightblue" points="71.5656,-142.072 69.9205,-131.606 64.6797,-140.814 71.5656,-142.072"/>
</g>
<!-- Node6 -->
<g id="node6" class="node"><title>Node6</title>
<polygon fill="white" stroke="#bfbfbf" points="78,-168.5 78,-187.5 148,-187.5 148,-168.5 78,-168.5"/>
<text text-anchor="middle" x="113" y="-175.5" font-family="Helvetica,sans-Serif" font-size="10.00">rpmsg_lite.h</text>
</g>
<!-- Node1&#45;&gt;Node6 -->
<g id="edge6" class="edge"><title>Node1&#45;&gt;Node6</title>
<path fill="none" stroke="midnightblue" d="M132.684,-291.323C127.932,-281.418 122.069,-267.739 119,-255 114.405,-235.928 113.119,-213.464 112.851,-197.929"/>
<polygon fill="midnightblue" stroke="midnightblue" points="116.35,-197.556 112.807,-187.571 109.35,-197.586 116.35,-197.556"/>
</g>
<!-- Node7 -->
<g id="node7" class="node"><title>Node7</title>
<g id="a_node7"><a xlink:href="rpmsg__lite__zc__base__transport_8h.html" target="_top" xlink:title="rpmsg_lite_zc_base\l_transport.h">
<polygon fill="white" stroke="black" points="128,-224.5 128,-254.5 232,-254.5 232,-224.5 128,-224.5"/>
<text text-anchor="start" x="136" y="-242.5" font-family="Helvetica,sans-Serif" font-size="10.00">rpmsg_lite_zc_base</text>
<text text-anchor="middle" x="180" y="-231.5" font-family="Helvetica,sans-Serif" font-size="10.00">_transport.h</text>
</a>
</g>
</g>
<!-- Node1&#45;&gt;Node7 -->
<g id="edge7" class="edge"><title>Node1&#45;&gt;Node7</title>
<path fill="none" stroke="midnightblue" d="M148.679,-291.396C153.764,-283.134 160.304,-272.507 166.091,-263.102"/>
<polygon fill="midnightblue" stroke="midnightblue" points="169.077,-264.927 171.338,-254.577 163.116,-261.259 169.077,-264.927"/>
</g>
<!-- Node10 -->
<g id="node10" class="node"><title>Node10</title>
<polygon fill="white" stroke="#bfbfbf" points="250.5,-230 250.5,-249 333.5,-249 333.5,-230 250.5,-230"/>
<text text-anchor="middle" x="292" y="-237" font-family="Helvetica,sans-Serif" font-size="10.00">rpmsg_queue.h</text>
</g>
<!-- Node1&#45;&gt;Node10 -->
<g id="edge14" class="edge"><title>Node1&#45;&gt;Node10</title>
<path fill="none" stroke="midnightblue" d="M172.982,-291.396C199.77,-279.941 237.19,-263.938 262.881,-252.952"/>
<polygon fill="midnightblue" stroke="midnightblue" points="264.288,-256.157 272.107,-249.007 261.536,-249.721 264.288,-256.157"/>
</g>
<!-- Node3 -->
<g id="node3" class="node"><title>Node3</title>
<g id="a_node3"><a xlink:href="erpc__common_8h_source.html" target="_top" xlink:title="erpc_common.h">
<polygon fill="white" stroke="black" points="104,-56.5 104,-75.5 190,-75.5 190,-56.5 104,-56.5"/>
<text text-anchor="middle" x="147" y="-63.5" font-family="Helvetica,sans-Serif" font-size="10.00">erpc_common.h</text>
</a>
</g>
</g>
<!-- Node2&#45;&gt;Node3 -->
<g id="edge2" class="edge"><title>Node2&#45;&gt;Node3</title>
<path fill="none" stroke="midnightblue" d="M84.05,-112.324C95.4631,-104.107 112.831,-91.6017 126.435,-81.8069"/>
<polygon fill="midnightblue" stroke="midnightblue" points="128.66,-84.5174 134.731,-75.8339 124.57,-78.8366 128.66,-84.5174"/>
</g>
<!-- Node4 -->
<g id="node4" class="node"><title>Node4</title>
<polygon fill="white" stroke="#bfbfbf" points="122.5,-0.5 122.5,-19.5 171.5,-19.5 171.5,-0.5 122.5,-0.5"/>
<text text-anchor="middle" x="147" y="-7.5" font-family="Helvetica,sans-Serif" font-size="10.00">stdint.h</text>
</g>
<!-- Node2&#45;&gt;Node4 -->
<g id="edge5" class="edge"><title>Node2&#45;&gt;Node4</title>
<path fill="none" stroke="midnightblue" d="M73.5764,-112.357C76.2762,-99.257 82.7208,-73.9959 95,-56 103.096,-44.135 115.067,-33.4831 125.484,-25.5248"/>
<polygon fill="midnightblue" stroke="midnightblue" points="127.725,-28.2221 133.748,-19.5058 123.604,-22.5637 127.725,-28.2221"/>
</g>
<!-- Node5 -->
<g id="node5" class="node"><title>Node5</title>
<polygon fill="white" stroke="#bfbfbf" points="0,-56.5 0,-75.5 48,-75.5 48,-56.5 0,-56.5"/>
<text text-anchor="middle" x="24" y="-63.5" font-family="Helvetica,sans-Serif" font-size="10.00">cstddef</text>
</g>
<!-- Node2&#45;&gt;Node5 -->
<g id="edge4" class="edge"><title>Node2&#45;&gt;Node5</title>
<path fill="none" stroke="midnightblue" d="M64.0738,-112.083C57.1539,-104.298 46.9346,-92.8015 38.548,-83.3665"/>
<polygon fill="midnightblue" stroke="midnightblue" points="41.0383,-80.8999 31.7787,-75.7511 35.8065,-85.5505 41.0383,-80.8999"/>
</g>
<!-- Node3&#45;&gt;Node4 -->
<g id="edge3" class="edge"><title>Node3&#45;&gt;Node4</title>
<path fill="none" stroke="midnightblue" d="M147,-56.083C147,-49.0059 147,-38.8611 147,-29.9865"/>
<polygon fill="midnightblue" stroke="midnightblue" points="150.5,-29.751 147,-19.7511 143.5,-29.7511 150.5,-29.751"/>
</g>
<!-- Node7&#45;&gt;Node6 -->
<g id="edge8" class="edge"><title>Node7&#45;&gt;Node6</title>
<path fill="none" stroke="midnightblue" d="M164.122,-224.399C153.985,-215.397 140.838,-203.721 130.415,-194.465"/>
<polygon fill="midnightblue" stroke="midnightblue" points="132.55,-191.681 122.749,-187.658 127.902,-196.915 132.55,-191.681"/>
</g>
<!-- Node8 -->
<g id="node8" class="node"><title>Node8</title>
<g id="a_node8"><a xlink:href="transport_8h.html" target="_top" xlink:title="transport.h">
<polygon fill="white" stroke="black" points="166.5,-168.5 166.5,-187.5 229.5,-187.5 229.5,-168.5 166.5,-168.5"/>
<text text-anchor="middle" x="198" y="-175.5" font-family="Helvetica,sans-Serif" font-size="10.00">transport.h</text>
</a>
</g>
</g>
<!-- Node7&#45;&gt;Node8 -->
<g id="edge9" class="edge"><title>Node7&#45;&gt;Node8</title>
<path fill="none" stroke="midnightblue" d="M184.266,-224.399C186.72,-216.288 189.83,-206.007 192.47,-197.281"/>
<polygon fill="midnightblue" stroke="midnightblue" points="195.835,-198.243 195.381,-187.658 189.135,-196.216 195.835,-198.243"/>
</g>
<!-- Node8&#45;&gt;Node2 -->
<g id="edge11" class="edge"><title>Node8&#45;&gt;Node2</title>
<path fill="none" stroke="midnightblue" d="M178.035,-168.444C157.391,-159.596 124.937,-145.687 101.368,-135.586"/>
<polygon fill="midnightblue" stroke="midnightblue" points="102.442,-132.239 91.8717,-131.516 99.6844,-138.673 102.442,-132.239"/>
</g>
<!-- Node8&#45;&gt;Node3 -->
<g id="edge10" class="edge"><title>Node8&#45;&gt;Node3</title>
<path fill="none" stroke="midnightblue" d="M190.426,-168.258C183.247,-159.577 172.605,-145.63 166,-132 158.79,-117.122 153.768,-98.9757 150.706,-85.6413"/>
<polygon fill="midnightblue" stroke="midnightblue" points="154.104,-84.7959 148.589,-75.7495 147.259,-86.2605 154.104,-84.7959"/>
</g>
<!-- Node8&#45;&gt;Node4 -->
<g id="edge13" class="edge"><title>Node8&#45;&gt;Node4</title>
<path fill="none" stroke="midnightblue" d="M206.751,-168.286C214.563,-159.84 225.451,-146.246 230,-132 232.704,-123.532 232.223,-120.606 230,-112 222.885,-84.4562 216.921,-78.0933 199,-56 189.834,-44.6998 177.609,-33.9599 167.316,-25.8081"/>
<polygon fill="midnightblue" stroke="midnightblue" points="169.3,-22.9187 159.234,-19.6137 165.042,-28.4747 169.3,-22.9187"/>
</g>
<!-- Node9 -->
<g id="node9" class="node"><title>Node9</title>
<polygon fill="white" stroke="#bfbfbf" points="175,-112.5 175,-131.5 221,-131.5 221,-112.5 175,-112.5"/>
<text text-anchor="middle" x="198" y="-119.5" font-family="Helvetica,sans-Serif" font-size="10.00">cstring</text>
</g>
<!-- Node8&#45;&gt;Node9 -->
<g id="edge12" class="edge"><title>Node8&#45;&gt;Node9</title>
<path fill="none" stroke="midnightblue" d="M198,-168.083C198,-161.006 198,-150.861 198,-141.986"/>
<polygon fill="midnightblue" stroke="midnightblue" points="201.5,-141.751 198,-131.751 194.5,-141.751 201.5,-141.751"/>
</g>
</g>
</svg>
