<?xml version="1.0" encoding="UTF-8" standalone="no"?>
<!DOCTYPE svg PUBLIC "-//W3C//DTD SVG 1.1//EN"
 "http://www.w3.org/Graphics/SVG/1.1/DTD/svg11.dtd">
<!-- Generated by graphviz version 2.38.0 (20140413.2041)
 -->
<!-- Title: serial.h Pages: 1 -->
<svg width="456pt" height="84pt"
 viewBox="0.00 0.00 456.00 84.00" xmlns="http://www.w3.org/2000/svg" xmlns:xlink="http://www.w3.org/1999/xlink">
<g id="graph0" class="graph" transform="scale(1 1) rotate(0) translate(4 80)">
<title>serial.h</title>
<polygon fill="white" stroke="none" points="-4,4 -4,-80 452,-80 452,4 -4,4"/>
<!-- Node1 -->
<g id="node1" class="node"><title>Node1</title>
<polygon fill="#bfbfbf" stroke="black" points="203.5,-56.5 203.5,-75.5 251.5,-75.5 251.5,-56.5 203.5,-56.5"/>
<text text-anchor="middle" x="227.5" y="-63.5" font-family="Helvetica,sans-Serif" font-size="10.00">serial.h</text>
</g>
<!-- Node2 -->
<g id="node2" class="node"><title>Node2</title>
<polygon fill="white" stroke="#bfbfbf" points="0,-0.5 0,-19.5 49,-19.5 49,-0.5 0,-0.5"/>
<text text-anchor="middle" x="24.5" y="-7.5" font-family="Helvetica,sans-Serif" font-size="10.00">stdint.h</text>
</g>
<!-- Node1&#45;&gt;Node2 -->
<g id="edge1" class="edge"><title>Node1&#45;&gt;Node2</title>
<path fill="none" stroke="midnightblue" d="M203.416,-58.5934C167.593,-49.0641 100.094,-31.1087 59.0227,-20.1834"/>
<polygon fill="midnightblue" stroke="midnightblue" points="59.7494,-16.755 49.1857,-17.5666 57.9498,-23.5198 59.7494,-16.755"/>
</g>
<!-- Node3 -->
<g id="node3" class="node"><title>Node3</title>
<polygon fill="white" stroke="#bfbfbf" points="67.5,-0.5 67.5,-19.5 137.5,-19.5 137.5,-0.5 67.5,-0.5"/>
<text text-anchor="middle" x="102.5" y="-7.5" font-family="Helvetica,sans-Serif" font-size="10.00">sys/select.h</text>
</g>
<!-- Node1&#45;&gt;Node3 -->
<g id="edge2" class="edge"><title>Node1&#45;&gt;Node3</title>
<path fill="none" stroke="midnightblue" d="M207.693,-56.4435C187.213,-47.5961 155.017,-33.6875 131.635,-23.5865"/>
<polygon fill="midnightblue" stroke="midnightblue" points="132.782,-20.2692 122.214,-19.5164 130.006,-26.6953 132.782,-20.2692"/>
</g>
<!-- Node4 -->
<g id="node4" class="node"><title>Node4</title>
<polygon fill="white" stroke="#bfbfbf" points="155.5,-0.5 155.5,-19.5 217.5,-19.5 217.5,-0.5 155.5,-0.5"/>
<text text-anchor="middle" x="186.5" y="-7.5" font-family="Helvetica,sans-Serif" font-size="10.00">sys/time.h</text>
</g>
<!-- Node1&#45;&gt;Node4 -->
<g id="edge3" class="edge"><title>Node1&#45;&gt;Node4</title>
<path fill="none" stroke="midnightblue" d="M220.73,-56.083C214.938,-48.4554 206.442,-37.2645 199.362,-27.9408"/>
<polygon fill="midnightblue" stroke="midnightblue" points="201.979,-25.5991 193.144,-19.7511 196.404,-29.8321 201.979,-25.5991"/>
</g>
<!-- Node5 -->
<g id="node5" class="node"><title>Node5</title>
<polygon fill="white" stroke="#bfbfbf" points="235.5,-0.5 235.5,-19.5 303.5,-19.5 303.5,-0.5 235.5,-0.5"/>
<text text-anchor="middle" x="269.5" y="-7.5" font-family="Helvetica,sans-Serif" font-size="10.00">sys/types.h</text>
</g>
<!-- Node1&#45;&gt;Node5 -->
<g id="edge4" class="edge"><title>Node1&#45;&gt;Node5</title>
<path fill="none" stroke="midnightblue" d="M234.435,-56.083C240.429,-48.3768 249.252,-37.0333 256.548,-27.6531"/>
<polygon fill="midnightblue" stroke="midnightblue" points="259.317,-29.7934 262.694,-19.7511 253.791,-25.4958 259.317,-29.7934"/>
</g>
<!-- Node6 -->
<g id="node6" class="node"><title>Node6</title>
<polygon fill="white" stroke="#bfbfbf" points="322,-0.5 322,-19.5 379,-19.5 379,-0.5 322,-0.5"/>
<text text-anchor="middle" x="350.5" y="-7.5" font-family="Helvetica,sans-Serif" font-size="10.00">termios.h</text>
</g>
<!-- Node1&#45;&gt;Node6 -->
<g id="edge5" class="edge"><title>Node1&#45;&gt;Node6</title>
<path fill="none" stroke="midnightblue" d="M246.99,-56.4435C267.142,-47.5961 298.823,-33.6875 321.831,-23.5865"/>
<polygon fill="midnightblue" stroke="midnightblue" points="323.352,-26.7411 331.101,-19.5164 320.538,-20.3316 323.352,-26.7411"/>
</g>
<!-- Node7 -->
<g id="node7" class="node"><title>Node7</title>
<polygon fill="white" stroke="#bfbfbf" points="397,-0.5 397,-19.5 448,-19.5 448,-0.5 397,-0.5"/>
<text text-anchor="middle" x="422.5" y="-7.5" font-family="Helvetica,sans-Serif" font-size="10.00">unistd.h</text>
</g>
<!-- Node1&#45;&gt;Node7 -->
<g id="edge6" class="edge"><title>Node1&#45;&gt;Node7</title>
<path fill="none" stroke="midnightblue" d="M251.803,-58.27C285.896,-48.8289 348.128,-31.5953 387.292,-20.75"/>
<polygon fill="midnightblue" stroke="midnightblue" points="388.258,-24.1143 396.961,-18.0723 386.39,-17.3681 388.258,-24.1143"/>
</g>
</g>
</svg>
