<?xml version="1.0" encoding="UTF-8" standalone="no"?>
<!DOCTYPE svg PUBLIC "-//W3C//DTD SVG 1.1//EN"
 "http://www.w3.org/Graphics/SVG/1.1/DTD/svg11.dtd">
<!-- Generated by graphviz version 2.38.0 (20140413.2041)
 -->
<!-- Title: erpc::TransportArbitrator::PendingClientInfo Pages: 1 -->
<svg width="228pt" height="240pt"
 viewBox="0.00 0.00 228.00 240.00" xmlns="http://www.w3.org/2000/svg" xmlns:xlink="http://www.w3.org/1999/xlink">
<g id="graph0" class="graph" transform="scale(1 1) rotate(0) translate(4 236)">
<title>erpc::TransportArbitrator::PendingClientInfo</title>
<polygon fill="white" stroke="none" points="-4,4 -4,-236 224,-236 224,4 -4,4"/>
<!-- Node1 -->
<g id="node1" class="node"><title>Node1</title>
<polygon fill="#bfbfbf" stroke="black" points="28.5,-0.5 28.5,-30.5 150.5,-30.5 150.5,-0.5 28.5,-0.5"/>
<text text-anchor="start" x="36.5" y="-18.5" font-family="Helvetica,sans-Serif" font-size="10.00">erpc::TransportArbitrator</text>
<text text-anchor="middle" x="89.5" y="-7.5" font-family="Helvetica,sans-Serif" font-size="10.00">::PendingClientInfo</text>
</g>
<!-- Node1&#45;&gt;Node1 -->
<g id="edge2" class="edge"><title>Node1&#45;&gt;Node1</title>
<path fill="none" stroke="#9a32cd" stroke-dasharray="5,2" d="M160.986,-20.577C165.667,-19.3957 168.5,-17.7034 168.5,-15.5 168.5,-11.9746 161.247,-9.75747 150.779,-8.84858"/>
<polygon fill="#9a32cd" stroke="#9a32cd" points="160.128,-17.1678 150.779,-22.1514 161.196,-24.086 160.128,-17.1678"/>
<text text-anchor="middle" x="186.5" y="-13" font-family="Helvetica,sans-Serif" font-size="10.00"> m_next</text>
</g>
<!-- Node2 -->
<g id="node2" class="node"><title>Node2</title>
<g id="a_node2"><a xlink:href="classerpc_1_1_semaphore.html" target="_top" xlink:title="Simple semaphore class. ">
<polygon fill="white" stroke="black" points="0,-78.5 0,-97.5 91,-97.5 91,-78.5 0,-78.5"/>
<text text-anchor="middle" x="45.5" y="-85.5" font-family="Helvetica,sans-Serif" font-size="10.00">erpc::Semaphore</text>
</a>
</g>
</g>
<!-- Node2&#45;&gt;Node1 -->
<g id="edge1" class="edge"><title>Node2&#45;&gt;Node1</title>
<path fill="none" stroke="#9a32cd" stroke-dasharray="5,2" d="M56.308,-69.6827C63.8151,-57.6542 73.6921,-41.8286 80.7149,-30.5762"/>
<polygon fill="#9a32cd" stroke="#9a32cd" points="53.2207,-68.0188 50.8953,-78.3553 59.1591,-71.7251 53.2207,-68.0188"/>
<text text-anchor="middle" x="86.5" y="-52" font-family="Helvetica,sans-Serif" font-size="10.00"> m_sem</text>
</g>
<!-- Node3 -->
<g id="node3" class="node"><title>Node3</title>
<g id="a_node3"><a xlink:href="classerpc_1_1_request_context.html" target="_top" xlink:title="Encapsulates all information about a request. ">
<polygon fill="white" stroke="black" points="109,-78.5 109,-97.5 220,-97.5 220,-78.5 109,-78.5"/>
<text text-anchor="middle" x="164.5" y="-85.5" font-family="Helvetica,sans-Serif" font-size="10.00">erpc::RequestContext</text>
</a>
</g>
</g>
<!-- Node3&#45;&gt;Node1 -->
<g id="edge3" class="edge"><title>Node3&#45;&gt;Node1</title>
<path fill="none" stroke="#9a32cd" stroke-dasharray="5,2" d="M147.947,-71.4402C134.96,-59.2323 117.038,-42.3856 104.475,-30.5762"/>
<polygon fill="#9a32cd" stroke="#9a32cd" points="145.62,-74.0564 155.304,-78.3553 150.414,-68.956 145.62,-74.0564"/>
<text text-anchor="middle" x="158" y="-52" font-family="Helvetica,sans-Serif" font-size="10.00"> m_request</text>
</g>
<!-- Node4 -->
<g id="node4" class="node"><title>Node4</title>
<g id="a_node4"><a xlink:href="classerpc_1_1_codec.html" target="_top" xlink:title="Abstract serialization encoder/decoder interface. ">
<polygon fill="white" stroke="black" points="130,-145.5 130,-164.5 199,-164.5 199,-145.5 130,-145.5"/>
<text text-anchor="middle" x="164.5" y="-152.5" font-family="Helvetica,sans-Serif" font-size="10.00">erpc::Codec</text>
</a>
</g>
</g>
<!-- Node4&#45;&gt;Node3 -->
<g id="edge4" class="edge"><title>Node4&#45;&gt;Node3</title>
<path fill="none" stroke="#9a32cd" stroke-dasharray="5,2" d="M164.5,-135.037C164.5,-122.67 164.5,-107.12 164.5,-97.6273"/>
<polygon fill="#9a32cd" stroke="#9a32cd" points="161,-135.234 164.5,-145.234 168,-135.234 161,-135.234"/>
<text text-anchor="middle" x="186" y="-119" font-family="Helvetica,sans-Serif" font-size="10.00"> m_codec</text>
</g>
<!-- Node5 -->
<g id="node5" class="node"><title>Node5</title>
<g id="a_node5"><a xlink:href="classerpc_1_1_cursor.html" target="_top" xlink:title="Cursor within a MessageBuffer. ">
<polygon fill="white" stroke="black" points="129.5,-212.5 129.5,-231.5 199.5,-231.5 199.5,-212.5 129.5,-212.5"/>
<text text-anchor="middle" x="164.5" y="-219.5" font-family="Helvetica,sans-Serif" font-size="10.00">erpc::Cursor</text>
</a>
</g>
</g>
<!-- Node5&#45;&gt;Node4 -->
<g id="edge5" class="edge"><title>Node5&#45;&gt;Node4</title>
<path fill="none" stroke="#9a32cd" stroke-dasharray="5,2" d="M164.5,-202.037C164.5,-189.67 164.5,-174.12 164.5,-164.627"/>
<polygon fill="#9a32cd" stroke="#9a32cd" points="161,-202.234 164.5,-212.234 168,-202.234 161,-202.234"/>
<text text-anchor="middle" x="186.5" y="-186" font-family="Helvetica,sans-Serif" font-size="10.00"> m_cursor</text>
</g>
</g>
</svg>
