<?xml version="1.0" encoding="UTF-8" standalone="no"?>
<!DOCTYPE svg PUBLIC "-//W3C//DTD SVG 1.1//EN"
 "http://www.w3.org/Graphics/SVG/1.1/DTD/svg11.dtd">
<!-- Generated by graphviz version 2.38.0 (20140413.2041)
 -->
<!-- Title: tcp_transport.h Pages: 1 -->
<svg width="442pt" height="308pt"
 viewBox="0.00 0.00 442.10 308.00" xmlns="http://www.w3.org/2000/svg" xmlns:xlink="http://www.w3.org/1999/xlink">
<g id="graph0" class="graph" transform="scale(1 1) rotate(0) translate(4 304)">
<title>tcp_transport.h</title>
<polygon fill="white" stroke="none" points="-4,4 -4,-304 438.096,-304 438.096,4 -4,4"/>
<!-- Node1 -->
<g id="node1" class="node"><title>Node1</title>
<polygon fill="#bfbfbf" stroke="black" points="284.596,-280.5 284.596,-299.5 366.596,-299.5 366.596,-280.5 284.596,-280.5"/>
<text text-anchor="middle" x="325.596" y="-287.5" font-family="Helvetica,sans-Serif" font-size="10.00">tcp_transport.h</text>
</g>
<!-- Node2 -->
<g id="node2" class="node"><title>Node2</title>
<g id="a_node2"><a xlink:href="erpc__threading_8h.html" target="_top" xlink:title="erpc_threading.h">
<polygon fill="white" stroke="black" points="345.096,-168.5 345.096,-187.5 434.096,-187.5 434.096,-168.5 345.096,-168.5"/>
<text text-anchor="middle" x="389.596" y="-175.5" font-family="Helvetica,sans-Serif" font-size="10.00">erpc_threading.h</text>
</a>
</g>
</g>
<!-- Node1&#45;&gt;Node2 -->
<g id="edge1" class="edge"><title>Node1&#45;&gt;Node2</title>
<path fill="none" stroke="midnightblue" d="M330.618,-280.368C341.133,-262.296 365.639,-220.176 379.527,-196.307"/>
<polygon fill="midnightblue" stroke="midnightblue" points="382.594,-197.995 384.598,-187.591 376.543,-194.475 382.594,-197.995"/>
</g>
<!-- Node6 -->
<g id="node6" class="node"><title>Node6</title>
<g id="a_node6"><a xlink:href="framed__transport_8h.html" target="_top" xlink:title="framed_transport.h">
<polygon fill="white" stroke="black" points="229.596,-224.5 229.596,-243.5 327.596,-243.5 327.596,-224.5 229.596,-224.5"/>
<text text-anchor="middle" x="278.596" y="-231.5" font-family="Helvetica,sans-Serif" font-size="10.00">framed_transport.h</text>
</a>
</g>
</g>
<!-- Node1&#45;&gt;Node6 -->
<g id="edge5" class="edge"><title>Node1&#45;&gt;Node6</title>
<path fill="none" stroke="midnightblue" d="M317.835,-280.083C311.059,-272.298 301.053,-260.801 292.841,-251.367"/>
<polygon fill="midnightblue" stroke="midnightblue" points="295.418,-248.996 286.213,-243.751 290.138,-253.592 295.418,-248.996"/>
</g>
<!-- Node3 -->
<g id="node3" class="node"><title>Node3</title>
<g id="a_node3"><a xlink:href="erpc__config__internal_8h_source.html" target="_top" xlink:title="erpc_config_internal.h">
<polygon fill="white" stroke="black" points="307.096,-112.5 307.096,-131.5 418.096,-131.5 418.096,-112.5 307.096,-112.5"/>
<text text-anchor="middle" x="362.596" y="-119.5" font-family="Helvetica,sans-Serif" font-size="10.00">erpc_config_internal.h</text>
</a>
</g>
</g>
<!-- Node2&#45;&gt;Node3 -->
<g id="edge2" class="edge"><title>Node2&#45;&gt;Node3</title>
<path fill="none" stroke="midnightblue" d="M385.138,-168.083C381.442,-160.691 376.073,-149.953 371.502,-140.811"/>
<polygon fill="midnightblue" stroke="midnightblue" points="374.574,-139.13 366.972,-131.751 368.313,-142.261 374.574,-139.13"/>
</g>
<!-- Node5 -->
<g id="node5" class="node"><title>Node5</title>
<polygon fill="white" stroke="#bfbfbf" points="169.096,-0.5 169.096,-19.5 218.096,-19.5 218.096,-0.5 169.096,-0.5"/>
<text text-anchor="middle" x="193.596" y="-7.5" font-family="Helvetica,sans-Serif" font-size="10.00">stdint.h</text>
</g>
<!-- Node2&#45;&gt;Node5 -->
<g id="edge4" class="edge"><title>Node2&#45;&gt;Node5</title>
<path fill="none" stroke="midnightblue" d="M400.035,-168.245C409.02,-159.969 421.342,-146.663 426.596,-132 438.306,-99.3223 434.392,-79.2276 408.596,-56 382.427,-32.4356 282.115,-19.4505 228.26,-14.0447"/>
<polygon fill="midnightblue" stroke="midnightblue" points="228.435,-10.5453 218.144,-13.0637 227.759,-17.5126 228.435,-10.5453"/>
</g>
<!-- Node4 -->
<g id="node4" class="node"><title>Node4</title>
<g id="a_node4"><a xlink:href="erpc__config_8h.html" target="_top" xlink:title="erpc_config.h">
<polygon fill="white" stroke="black" points="325.596,-56.5 325.596,-75.5 399.596,-75.5 399.596,-56.5 325.596,-56.5"/>
<text text-anchor="middle" x="362.596" y="-63.5" font-family="Helvetica,sans-Serif" font-size="10.00">erpc_config.h</text>
</a>
</g>
</g>
<!-- Node3&#45;&gt;Node4 -->
<g id="edge3" class="edge"><title>Node3&#45;&gt;Node4</title>
<path fill="none" stroke="midnightblue" d="M362.596,-112.083C362.596,-105.006 362.596,-94.8611 362.596,-85.9865"/>
<polygon fill="midnightblue" stroke="midnightblue" points="366.096,-85.751 362.596,-75.7511 359.096,-85.7511 366.096,-85.751"/>
</g>
<!-- Node6&#45;&gt;Node2 -->
<g id="edge19" class="edge"><title>Node6&#45;&gt;Node2</title>
<path fill="none" stroke="midnightblue" d="M296.43,-224.324C314.312,-215.625 342.071,-202.12 362.642,-192.113"/>
<polygon fill="midnightblue" stroke="midnightblue" points="364.345,-195.177 371.806,-187.655 361.283,-188.882 364.345,-195.177"/>
</g>
<!-- Node6&#45;&gt;Node3 -->
<g id="edge6" class="edge"><title>Node6&#45;&gt;Node3</title>
<path fill="none" stroke="midnightblue" d="M285.188,-224.368C299.111,-206.135 331.726,-163.426 349.862,-139.675"/>
<polygon fill="midnightblue" stroke="midnightblue" points="352.748,-141.663 356.036,-131.591 347.185,-137.415 352.748,-141.663"/>
</g>
<!-- Node6&#45;&gt;Node5 -->
<g id="edge18" class="edge"><title>Node6&#45;&gt;Node5</title>
<path fill="none" stroke="midnightblue" d="M278.476,-224.471C277.933,-204.25 275.02,-152.089 259.596,-112 247.073,-79.4499 222.921,-46.5166 207.565,-27.4674"/>
<polygon fill="midnightblue" stroke="midnightblue" points="210.261,-25.2359 201.201,-19.7434 204.858,-29.687 210.261,-25.2359"/>
</g>
<!-- Node7 -->
<g id="node7" class="node"><title>Node7</title>
<g id="a_node7"><a xlink:href="message__buffer_8h.html" target="_top" xlink:title="message_buffer.h">
<polygon fill="white" stroke="black" points="17.0963,-112.5 17.0963,-131.5 110.096,-131.5 110.096,-112.5 17.0963,-112.5"/>
<text text-anchor="middle" x="63.5963" y="-119.5" font-family="Helvetica,sans-Serif" font-size="10.00">message_buffer.h</text>
</a>
</g>
</g>
<!-- Node6&#45;&gt;Node7 -->
<g id="edge7" class="edge"><title>Node6&#45;&gt;Node7</title>
<path fill="none" stroke="midnightblue" d="M235.33,-224.499C205.891,-217.517 166.772,-205.834 135.596,-188 113.113,-175.138 91.6549,-154.267 78.1068,-139.654"/>
<polygon fill="midnightblue" stroke="midnightblue" points="80.3927,-136.963 71.096,-131.882 75.1947,-141.651 80.3927,-136.963"/>
</g>
<!-- Node10 -->
<g id="node10" class="node"><title>Node10</title>
<g id="a_node10"><a xlink:href="transport_8h.html" target="_top" xlink:title="transport.h">
<polygon fill="white" stroke="black" points="145.096,-168.5 145.096,-187.5 208.096,-187.5 208.096,-168.5 145.096,-168.5"/>
<text text-anchor="middle" x="176.596" y="-175.5" font-family="Helvetica,sans-Serif" font-size="10.00">transport.h</text>
</a>
</g>
</g>
<!-- Node6&#45;&gt;Node10 -->
<g id="edge12" class="edge"><title>Node6&#45;&gt;Node10</title>
<path fill="none" stroke="midnightblue" d="M262.208,-224.324C245.925,-215.703 220.729,-202.364 201.88,-192.386"/>
<polygon fill="midnightblue" stroke="midnightblue" points="203.419,-189.24 192.944,-187.655 200.144,-195.427 203.419,-189.24"/>
</g>
<!-- Node11 -->
<g id="node11" class="node"><title>Node11</title>
<polygon fill="white" stroke="#bfbfbf" points="204.596,-112.5 204.596,-131.5 250.596,-131.5 250.596,-112.5 204.596,-112.5"/>
<text text-anchor="middle" x="227.596" y="-119.5" font-family="Helvetica,sans-Serif" font-size="10.00">cstring</text>
</g>
<!-- Node6&#45;&gt;Node11 -->
<g id="edge17" class="edge"><title>Node6&#45;&gt;Node11</title>
<path fill="none" stroke="midnightblue" d="M274.594,-224.368C266.29,-206.456 247.033,-164.923 235.918,-140.948"/>
<polygon fill="midnightblue" stroke="midnightblue" points="238.961,-139.192 231.58,-131.591 232.611,-142.136 238.961,-139.192"/>
</g>
<!-- Node7&#45;&gt;Node5 -->
<g id="edge11" class="edge"><title>Node7&#45;&gt;Node5</title>
<path fill="none" stroke="midnightblue" d="M45.4315,-112.298C22.4814,-100.138 -12.1238,-77.1684 4.59627,-56 23.4408,-32.1419 109.467,-19.5703 158.713,-14.2204"/>
<polygon fill="midnightblue" stroke="midnightblue" points="159.334,-17.6747 168.918,-13.1578 158.609,-10.7123 159.334,-17.6747"/>
</g>
<!-- Node8 -->
<g id="node8" class="node"><title>Node8</title>
<g id="a_node8"><a xlink:href="erpc__common_8h_source.html" target="_top" xlink:title="erpc_common.h">
<polygon fill="white" stroke="black" points="79.5963,-56.5 79.5963,-75.5 165.596,-75.5 165.596,-56.5 79.5963,-56.5"/>
<text text-anchor="middle" x="122.596" y="-63.5" font-family="Helvetica,sans-Serif" font-size="10.00">erpc_common.h</text>
</a>
</g>
</g>
<!-- Node7&#45;&gt;Node8 -->
<g id="edge8" class="edge"><title>Node7&#45;&gt;Node8</title>
<path fill="none" stroke="midnightblue" d="M73.0756,-112.324C81.7974,-104.341 94.9397,-92.3128 105.494,-82.6529"/>
<polygon fill="midnightblue" stroke="midnightblue" points="107.931,-85.1674 112.944,-75.8339 103.205,-80.0036 107.931,-85.1674"/>
</g>
<!-- Node9 -->
<g id="node9" class="node"><title>Node9</title>
<polygon fill="white" stroke="#bfbfbf" points="13.5963,-56.5 13.5963,-75.5 61.5963,-75.5 61.5963,-56.5 13.5963,-56.5"/>
<text text-anchor="middle" x="37.5963" y="-63.5" font-family="Helvetica,sans-Serif" font-size="10.00">cstddef</text>
</g>
<!-- Node7&#45;&gt;Node9 -->
<g id="edge10" class="edge"><title>Node7&#45;&gt;Node9</title>
<path fill="none" stroke="midnightblue" d="M59.3029,-112.083C55.7439,-104.691 50.5738,-93.9533 46.172,-84.8111"/>
<polygon fill="midnightblue" stroke="midnightblue" points="49.3015,-83.2427 41.8098,-75.7511 42.9945,-86.2795 49.3015,-83.2427"/>
</g>
<!-- Node8&#45;&gt;Node5 -->
<g id="edge9" class="edge"><title>Node8&#45;&gt;Node5</title>
<path fill="none" stroke="midnightblue" d="M134.004,-56.324C144.705,-48.1849 160.937,-35.8395 173.759,-26.0874"/>
<polygon fill="midnightblue" stroke="midnightblue" points="176.141,-28.6734 181.981,-19.8339 171.903,-23.1018 176.141,-28.6734"/>
</g>
<!-- Node10&#45;&gt;Node5 -->
<g id="edge16" class="edge"><title>Node10&#45;&gt;Node5</title>
<path fill="none" stroke="midnightblue" d="M177.51,-168.075C180.186,-141.945 188.045,-65.2106 191.694,-29.577"/>
<polygon fill="midnightblue" stroke="midnightblue" points="195.182,-29.8727 192.719,-19.5681 188.218,-29.1595 195.182,-29.8727"/>
</g>
<!-- Node10&#45;&gt;Node7 -->
<g id="edge14" class="edge"><title>Node10&#45;&gt;Node7</title>
<path fill="none" stroke="midnightblue" d="M158.691,-168.444C140.342,-159.675 111.591,-145.935 90.5027,-135.858"/>
<polygon fill="midnightblue" stroke="midnightblue" points="91.9495,-132.67 81.4177,-131.516 88.9313,-138.986 91.9495,-132.67"/>
</g>
<!-- Node10&#45;&gt;Node8 -->
<g id="edge13" class="edge"><title>Node10&#45;&gt;Node8</title>
<path fill="none" stroke="midnightblue" d="M172.359,-168.368C163.526,-150.376 142.994,-108.55 131.249,-84.6267"/>
<polygon fill="midnightblue" stroke="midnightblue" points="134.363,-83.0257 126.814,-75.5914 128.079,-86.1105 134.363,-83.0257"/>
</g>
<!-- Node10&#45;&gt;Node11 -->
<g id="edge15" class="edge"><title>Node10&#45;&gt;Node11</title>
<path fill="none" stroke="midnightblue" d="M185.018,-168.083C192.444,-160.22 203.448,-148.569 212.408,-139.081"/>
<polygon fill="midnightblue" stroke="midnightblue" points="215.01,-141.424 219.331,-131.751 209.921,-136.618 215.01,-141.424"/>
</g>
</g>
</svg>
