<?xml version="1.0" encoding="UTF-8" standalone="no"?>
<!DOCTYPE svg PUBLIC "-//W3C//DTD SVG 1.1//EN"
 "http://www.w3.org/Graphics/SVG/1.1/DTD/svg11.dtd">
<!-- Generated by graphviz version 2.38.0 (20140413.2041)
 -->
<!-- Title: transport_arbitrator.h Pages: 1 -->
<svg width="407pt" height="364pt"
 viewBox="0.00 0.00 407.18 364.00" xmlns="http://www.w3.org/2000/svg" xmlns:xlink="http://www.w3.org/1999/xlink">
<g id="graph0" class="graph" transform="scale(1 1) rotate(0) translate(4 360)">
<title>transport_arbitrator.h</title>
<polygon fill="white" stroke="none" points="-4,4 -4,-360 403.176,-360 403.176,4 -4,4"/>
<!-- Node1 -->
<g id="node1" class="node"><title>Node1</title>
<polygon fill="#bfbfbf" stroke="black" points="158.676,-336.5 158.676,-355.5 265.676,-355.5 265.676,-336.5 158.676,-336.5"/>
<text text-anchor="middle" x="212.176" y="-343.5" font-family="Helvetica,sans-Serif" font-size="10.00">transport_arbitrator.h</text>
</g>
<!-- Node2 -->
<g id="node2" class="node"><title>Node2</title>
<g id="a_node2"><a xlink:href="erpc__threading_8h.html" target="_top" xlink:title="erpc_threading.h">
<polygon fill="white" stroke="black" points="270.676,-280.5 270.676,-299.5 359.676,-299.5 359.676,-280.5 270.676,-280.5"/>
<text text-anchor="middle" x="315.176" y="-287.5" font-family="Helvetica,sans-Serif" font-size="10.00">erpc_threading.h</text>
</a>
</g>
</g>
<!-- Node1&#45;&gt;Node2 -->
<g id="edge1" class="edge"><title>Node1&#45;&gt;Node2</title>
<path fill="none" stroke="midnightblue" d="M228.725,-336.324C245.168,-327.703 270.611,-314.364 289.645,-304.386"/>
<polygon fill="midnightblue" stroke="midnightblue" points="291.437,-307.398 298.669,-299.655 288.187,-301.198 291.437,-307.398"/>
</g>
<!-- Node6 -->
<g id="node6" class="node"><title>Node6</title>
<g id="a_node6"><a xlink:href="client__manager_8h.html" target="_top" xlink:title="client_manager.h">
<polygon fill="white" stroke="black" points="73.6763,-280.5 73.6763,-299.5 164.676,-299.5 164.676,-280.5 73.6763,-280.5"/>
<text text-anchor="middle" x="119.176" y="-287.5" font-family="Helvetica,sans-Serif" font-size="10.00">client_manager.h</text>
</a>
</g>
</g>
<!-- Node1&#45;&gt;Node6 -->
<g id="edge5" class="edge"><title>Node1&#45;&gt;Node6</title>
<path fill="none" stroke="midnightblue" d="M197.234,-336.324C182.591,-327.822 160.043,-314.729 142.939,-304.797"/>
<polygon fill="midnightblue" stroke="midnightblue" points="144.487,-301.649 134.081,-299.655 140.972,-307.703 144.487,-301.649"/>
</g>
<!-- Node7 -->
<g id="node7" class="node"><title>Node7</title>
<g id="a_node7"><a xlink:href="codec_8h.html" target="_top" xlink:title="codec.h">
<polygon fill="white" stroke="black" points="107.676,-224.5 107.676,-243.5 158.676,-243.5 158.676,-224.5 107.676,-224.5"/>
<text text-anchor="middle" x="133.176" y="-231.5" font-family="Helvetica,sans-Serif" font-size="10.00">codec.h</text>
</a>
</g>
</g>
<!-- Node1&#45;&gt;Node7 -->
<g id="edge20" class="edge"><title>Node1&#45;&gt;Node7</title>
<path fill="none" stroke="midnightblue" d="M207.613,-336.263C200.784,-323.471 187.2,-299.091 173.176,-280 165.751,-269.891 156.498,-259.371 148.762,-251.047"/>
<polygon fill="midnightblue" stroke="midnightblue" points="151.076,-248.401 141.656,-243.552 145.996,-253.217 151.076,-248.401"/>
</g>
<!-- Node11 -->
<g id="node11" class="node"><title>Node11</title>
<g id="a_node11"><a xlink:href="transport_8h.html" target="_top" xlink:title="transport.h">
<polygon fill="white" stroke="black" points="199.676,-168.5 199.676,-187.5 262.676,-187.5 262.676,-168.5 199.676,-168.5"/>
<text text-anchor="middle" x="231.176" y="-175.5" font-family="Helvetica,sans-Serif" font-size="10.00">transport.h</text>
</a>
</g>
</g>
<!-- Node1&#45;&gt;Node11 -->
<g id="edge21" class="edge"><title>Node1&#45;&gt;Node11</title>
<path fill="none" stroke="midnightblue" d="M213.198,-336.075C216.189,-309.945 224.971,-233.211 229.05,-197.577"/>
<polygon fill="midnightblue" stroke="midnightblue" points="232.536,-197.901 230.196,-187.568 225.581,-197.105 232.536,-197.901"/>
</g>
<!-- Node3 -->
<g id="node3" class="node"><title>Node3</title>
<g id="a_node3"><a xlink:href="erpc__config__internal_8h_source.html" target="_top" xlink:title="erpc_config_internal.h">
<polygon fill="white" stroke="black" points="259.676,-224.5 259.676,-243.5 370.676,-243.5 370.676,-224.5 259.676,-224.5"/>
<text text-anchor="middle" x="315.176" y="-231.5" font-family="Helvetica,sans-Serif" font-size="10.00">erpc_config_internal.h</text>
</a>
</g>
</g>
<!-- Node2&#45;&gt;Node3 -->
<g id="edge2" class="edge"><title>Node2&#45;&gt;Node3</title>
<path fill="none" stroke="midnightblue" d="M315.176,-280.083C315.176,-273.006 315.176,-262.861 315.176,-253.986"/>
<polygon fill="midnightblue" stroke="midnightblue" points="318.676,-253.751 315.176,-243.751 311.676,-253.751 318.676,-253.751"/>
</g>
<!-- Node5 -->
<g id="node5" class="node"><title>Node5</title>
<polygon fill="white" stroke="#bfbfbf" points="144.676,-0.5 144.676,-19.5 193.676,-19.5 193.676,-0.5 144.676,-0.5"/>
<text text-anchor="middle" x="169.176" y="-7.5" font-family="Helvetica,sans-Serif" font-size="10.00">stdint.h</text>
</g>
<!-- Node2&#45;&gt;Node5 -->
<g id="edge4" class="edge"><title>Node2&#45;&gt;Node5</title>
<path fill="none" stroke="midnightblue" d="M333.429,-280.415C347.817,-272.763 367.362,-260.264 379.176,-244 396.94,-219.546 399.176,-209.225 399.176,-179 399.176,-179 399.176,-179 399.176,-121 399.176,-35.4665 268.122,-16.3851 203.866,-12.1699"/>
<polygon fill="midnightblue" stroke="midnightblue" points="203.973,-8.67043 193.79,-11.5953 203.575,-15.6591 203.973,-8.67043"/>
</g>
<!-- Node4 -->
<g id="node4" class="node"><title>Node4</title>
<g id="a_node4"><a xlink:href="erpc__config_8h.html" target="_top" xlink:title="erpc_config.h">
<polygon fill="white" stroke="black" points="281.176,-168.5 281.176,-187.5 355.176,-187.5 355.176,-168.5 281.176,-168.5"/>
<text text-anchor="middle" x="318.176" y="-175.5" font-family="Helvetica,sans-Serif" font-size="10.00">erpc_config.h</text>
</a>
</g>
</g>
<!-- Node3&#45;&gt;Node4 -->
<g id="edge3" class="edge"><title>Node3&#45;&gt;Node4</title>
<path fill="none" stroke="midnightblue" d="M315.672,-224.083C316.065,-217.006 316.628,-206.861 317.122,-197.986"/>
<polygon fill="midnightblue" stroke="midnightblue" points="320.63,-197.93 317.69,-187.751 313.641,-197.542 320.63,-197.93"/>
</g>
<!-- Node6&#45;&gt;Node7 -->
<g id="edge6" class="edge"><title>Node6&#45;&gt;Node7</title>
<path fill="none" stroke="midnightblue" d="M121.488,-280.083C123.343,-272.927 126.012,-262.635 128.33,-253.691"/>
<polygon fill="midnightblue" stroke="midnightblue" points="131.786,-254.309 130.908,-243.751 125.01,-252.553 131.786,-254.309"/>
</g>
<!-- Node7&#45;&gt;Node5 -->
<g id="edge19" class="edge"><title>Node7&#45;&gt;Node5</title>
<path fill="none" stroke="midnightblue" d="M112.7,-224.435C82.0317,-210.336 25.3025,-179.032 2.17631,-132 -1.74596,-124.023 1.31562,-120.847 2.17631,-112 4.63229,-86.7547 -3.96333,-74.6973 13.1763,-56 44.0746,-22.2935 98.4537,-13.2354 134.149,-11.1222"/>
<polygon fill="midnightblue" stroke="midnightblue" points="134.741,-14.5999 144.58,-10.6698 134.438,-7.60647 134.741,-14.5999"/>
</g>
<!-- Node8 -->
<g id="node8" class="node"><title>Node8</title>
<g id="a_node8"><a xlink:href="erpc__common_8h_source.html" target="_top" xlink:title="erpc_common.h">
<polygon fill="white" stroke="black" points="126.176,-56.5 126.176,-75.5 212.176,-75.5 212.176,-56.5 126.176,-56.5"/>
<text text-anchor="middle" x="169.176" y="-63.5" font-family="Helvetica,sans-Serif" font-size="10.00">erpc_common.h</text>
</a>
</g>
</g>
<!-- Node7&#45;&gt;Node8 -->
<g id="edge7" class="edge"><title>Node7&#45;&gt;Node8</title>
<path fill="none" stroke="midnightblue" d="M133.918,-224.366C135.769,-204.348 141.251,-153.321 152.176,-112 154.551,-103.018 158.072,-93.344 161.295,-85.2761"/>
<polygon fill="midnightblue" stroke="midnightblue" points="164.632,-86.3659 165.238,-75.7884 158.168,-83.6794 164.632,-86.3659"/>
</g>
<!-- Node9 -->
<g id="node9" class="node"><title>Node9</title>
<g id="a_node9"><a xlink:href="message__buffer_8h.html" target="_top" xlink:title="message_buffer.h">
<polygon fill="white" stroke="black" points="11.6763,-112.5 11.6763,-131.5 104.676,-131.5 104.676,-112.5 11.6763,-112.5"/>
<text text-anchor="middle" x="58.1763" y="-119.5" font-family="Helvetica,sans-Serif" font-size="10.00">message_buffer.h</text>
</a>
</g>
</g>
<!-- Node7&#45;&gt;Node9 -->
<g id="edge9" class="edge"><title>Node7&#45;&gt;Node9</title>
<path fill="none" stroke="midnightblue" d="M127.291,-224.368C114.914,-206.215 85.9955,-163.802 69.7605,-139.99"/>
<polygon fill="midnightblue" stroke="midnightblue" points="72.5593,-137.882 64.0341,-131.591 66.7757,-141.825 72.5593,-137.882"/>
</g>
<!-- Node7&#45;&gt;Node11 -->
<g id="edge13" class="edge"><title>Node7&#45;&gt;Node11</title>
<path fill="none" stroke="midnightblue" d="M148.922,-224.324C164.495,-215.743 188.554,-202.486 206.636,-192.522"/>
<polygon fill="midnightblue" stroke="midnightblue" points="208.401,-195.546 215.47,-187.655 205.022,-189.415 208.401,-195.546"/>
</g>
<!-- Node12 -->
<g id="node12" class="node"><title>Node12</title>
<polygon fill="white" stroke="#bfbfbf" points="161.176,-112.5 161.176,-131.5 207.176,-131.5 207.176,-112.5 161.176,-112.5"/>
<text text-anchor="middle" x="184.176" y="-119.5" font-family="Helvetica,sans-Serif" font-size="10.00">cstring</text>
</g>
<!-- Node7&#45;&gt;Node12 -->
<g id="edge18" class="edge"><title>Node7&#45;&gt;Node12</title>
<path fill="none" stroke="midnightblue" d="M137.178,-224.368C145.483,-206.456 164.739,-164.923 175.855,-140.948"/>
<polygon fill="midnightblue" stroke="midnightblue" points="179.162,-142.136 180.193,-131.591 172.811,-139.192 179.162,-142.136"/>
</g>
<!-- Node8&#45;&gt;Node5 -->
<g id="edge8" class="edge"><title>Node8&#45;&gt;Node5</title>
<path fill="none" stroke="midnightblue" d="M169.176,-56.083C169.176,-49.0059 169.176,-38.8611 169.176,-29.9865"/>
<polygon fill="midnightblue" stroke="midnightblue" points="172.676,-29.751 169.176,-19.7511 165.676,-29.7511 172.676,-29.751"/>
</g>
<!-- Node9&#45;&gt;Node5 -->
<g id="edge12" class="edge"><title>Node9&#45;&gt;Node5</title>
<path fill="none" stroke="midnightblue" d="M65.4995,-112.283C76.3546,-99.5151 97.5502,-75.1665 117.176,-56 127.853,-45.5732 140.501,-34.6 150.65,-26.0999"/>
<polygon fill="midnightblue" stroke="midnightblue" points="153.019,-28.6819 158.489,-19.6078 148.555,-23.2907 153.019,-28.6819"/>
</g>
<!-- Node9&#45;&gt;Node8 -->
<g id="edge10" class="edge"><title>Node9&#45;&gt;Node8</title>
<path fill="none" stroke="midnightblue" d="M76.0104,-112.324C93.8922,-103.625 121.651,-90.1202 142.222,-80.113"/>
<polygon fill="midnightblue" stroke="midnightblue" points="143.925,-83.1765 151.386,-75.6545 140.863,-76.8819 143.925,-83.1765"/>
</g>
<!-- Node10 -->
<g id="node10" class="node"><title>Node10</title>
<polygon fill="white" stroke="#bfbfbf" points="22.1763,-56.5 22.1763,-75.5 70.1763,-75.5 70.1763,-56.5 22.1763,-56.5"/>
<text text-anchor="middle" x="46.1763" y="-63.5" font-family="Helvetica,sans-Serif" font-size="10.00">cstddef</text>
</g>
<!-- Node9&#45;&gt;Node10 -->
<g id="edge11" class="edge"><title>Node9&#45;&gt;Node10</title>
<path fill="none" stroke="midnightblue" d="M56.1948,-112.083C54.6046,-104.927 52.3175,-94.6353 50.3299,-85.6911"/>
<polygon fill="midnightblue" stroke="midnightblue" points="53.707,-84.7537 48.121,-75.7511 46.8737,-86.2722 53.707,-84.7537"/>
</g>
<!-- Node11&#45;&gt;Node5 -->
<g id="edge17" class="edge"><title>Node11&#45;&gt;Node5</title>
<path fill="none" stroke="midnightblue" d="M232.91,-168.3C236.616,-147.256 243.278,-92.6398 221.176,-56 213.854,-43.8602 202.135,-33.3001 191.675,-25.4664"/>
<polygon fill="midnightblue" stroke="midnightblue" points="193.495,-22.4665 183.309,-19.5524 189.454,-28.1827 193.495,-22.4665"/>
</g>
<!-- Node11&#45;&gt;Node8 -->
<g id="edge14" class="edge"><title>Node11&#45;&gt;Node8</title>
<path fill="none" stroke="midnightblue" d="M230.752,-168.439C229.781,-155.446 226.594,-130.324 216.176,-112 209.526,-100.303 198.89,-89.7489 189.416,-81.8066"/>
<polygon fill="midnightblue" stroke="midnightblue" points="191.527,-79.0138 181.52,-75.5361 187.174,-84.4957 191.527,-79.0138"/>
</g>
<!-- Node11&#45;&gt;Node9 -->
<g id="edge15" class="edge"><title>Node11&#45;&gt;Node9</title>
<path fill="none" stroke="midnightblue" d="M203.764,-168.444C174.407,-159.28 127.657,-144.688 95.0804,-134.519"/>
<polygon fill="midnightblue" stroke="midnightblue" points="96.0491,-131.155 85.4604,-131.516 93.9633,-137.837 96.0491,-131.155"/>
</g>
<!-- Node11&#45;&gt;Node12 -->
<g id="edge16" class="edge"><title>Node11&#45;&gt;Node12</title>
<path fill="none" stroke="midnightblue" d="M223.415,-168.083C216.64,-160.298 206.633,-148.801 198.421,-139.367"/>
<polygon fill="midnightblue" stroke="midnightblue" points="200.998,-136.996 191.793,-131.751 195.718,-141.592 200.998,-136.996"/>
</g>
</g>
</svg>
