<?xml version="1.0" encoding="UTF-8" standalone="no"?>
<!DOCTYPE svg PUBLIC "-//W3C//DTD SVG 1.1//EN"
 "http://www.w3.org/Graphics/SVG/1.1/DTD/svg11.dtd">
<!-- Generated by graphviz version 2.38.0 (20140413.2041)
 -->
<!-- Title: transport.h Pages: 1 -->
<svg width="1587pt" height="218pt"
 viewBox="0.00 0.00 1586.50 218.00" xmlns="http://www.w3.org/2000/svg" xmlns:xlink="http://www.w3.org/1999/xlink">
<g id="graph0" class="graph" transform="scale(1 1) rotate(0) translate(4 214)">
<title>transport.h</title>
<polygon fill="white" stroke="none" points="-4,4 -4,-214 1582.5,-214 1582.5,4 -4,4"/>
<!-- Node1 -->
<g id="node1" class="node"><title>Node1</title>
<polygon fill="#bfbfbf" stroke="black" points="803.5,-190.5 803.5,-209.5 866.5,-209.5 866.5,-190.5 803.5,-190.5"/>
<text text-anchor="middle" x="835" y="-197.5" font-family="Helvetica,sans-Serif" font-size="10.00">transport.h</text>
</g>
<!-- Node2 -->
<g id="node2" class="node"><title>Node2</title>
<g id="a_node2"><a xlink:href="codec_8h.html" target="_top" xlink:title="codec.h">
<polygon fill="white" stroke="black" points="283.5,-129 283.5,-148 334.5,-148 334.5,-129 283.5,-129"/>
<text text-anchor="middle" x="309" y="-136" font-family="Helvetica,sans-Serif" font-size="10.00">codec.h</text>
</a>
</g>
</g>
<!-- Node1&#45;&gt;Node2 -->
<g id="edge1" class="edge"><title>Node1&#45;&gt;Node2</title>
<path fill="none" stroke="midnightblue" d="M793.195,-194.961C717.489,-187.552 552.671,-170.982 414,-154 386.967,-150.689 356.097,-146.36 334.861,-143.297"/>
<polygon fill="midnightblue" stroke="midnightblue" points="792.982,-198.457 803.274,-195.945 793.662,-191.49 792.982,-198.457"/>
</g>
<!-- Node5 -->
<g id="node5" class="node"><title>Node5</title>
<g id="a_node5"><a xlink:href="transport__arbitrator_8h.html" target="_top" xlink:title="transport_arbitrator.h">
<polygon fill="white" stroke="black" points="376.5,-0.5 376.5,-19.5 483.5,-19.5 483.5,-0.5 376.5,-0.5"/>
<text text-anchor="middle" x="430" y="-7.5" font-family="Helvetica,sans-Serif" font-size="10.00">transport_arbitrator.h</text>
</a>
</g>
</g>
<!-- Node1&#45;&gt;Node5 -->
<g id="edge10" class="edge"><title>Node1&#45;&gt;Node5</title>
<path fill="none" stroke="midnightblue" d="M793.314,-199.899C713.742,-199.21 539.876,-185.717 447,-87 429.305,-68.1916 428.551,-35.143 429.309,-19.5731"/>
<polygon fill="midnightblue" stroke="midnightblue" points="793.438,-203.399 803.445,-199.921 793.453,-196.399 793.438,-203.399"/>
</g>
<!-- Node10 -->
<g id="node10" class="node"><title>Node10</title>
<g id="a_node10"><a xlink:href="framed__transport_8h.html" target="_top" xlink:title="framed_transport.h">
<polygon fill="white" stroke="black" points="786,-129 786,-148 884,-148 884,-129 786,-129"/>
<text text-anchor="middle" x="835" y="-136" font-family="Helvetica,sans-Serif" font-size="10.00">framed_transport.h</text>
</a>
</g>
</g>
<!-- Node1&#45;&gt;Node10 -->
<g id="edge11" class="edge"><title>Node1&#45;&gt;Node10</title>
<path fill="none" stroke="midnightblue" d="M835,-180.317C835,-169.496 835,-156.398 835,-148.009"/>
<polygon fill="midnightblue" stroke="midnightblue" points="831.5,-180.475 835,-190.475 838.5,-180.475 831.5,-180.475"/>
</g>
<!-- Node18 -->
<g id="node18" class="node"><title>Node18</title>
<g id="a_node18"><a xlink:href="inter__thread__buffer__transport_8h.html" target="_top" xlink:title="inter_thread_buffer\l_transport.h">
<polygon fill="white" stroke="black" points="902,-123.5 902,-153.5 998,-153.5 998,-123.5 902,-123.5"/>
<text text-anchor="start" x="910" y="-141.5" font-family="Helvetica,sans-Serif" font-size="10.00">inter_thread_buffer</text>
<text text-anchor="middle" x="950" y="-130.5" font-family="Helvetica,sans-Serif" font-size="10.00">_transport.h</text>
</a>
</g>
</g>
<!-- Node1&#45;&gt;Node18 -->
<g id="edge19" class="edge"><title>Node1&#45;&gt;Node18</title>
<path fill="none" stroke="midnightblue" d="M860.499,-185.807C879.013,-176.228 904.022,-163.289 922.897,-153.523"/>
<polygon fill="midnightblue" stroke="midnightblue" points="858.75,-182.771 851.477,-190.475 861.967,-188.988 858.75,-182.771"/>
</g>
<!-- Node19 -->
<g id="node19" class="node"><title>Node19</title>
<g id="a_node19"><a xlink:href="rpmsg__lite__zc__base__transport_8h.html" target="_top" xlink:title="rpmsg_lite_zc_base\l_transport.h">
<polygon fill="white" stroke="black" points="1330,-123.5 1330,-153.5 1434,-153.5 1434,-123.5 1330,-123.5"/>
<text text-anchor="start" x="1338" y="-141.5" font-family="Helvetica,sans-Serif" font-size="10.00">rpmsg_lite_zc_base</text>
<text text-anchor="middle" x="1382" y="-130.5" font-family="Helvetica,sans-Serif" font-size="10.00">_transport.h</text>
</a>
</g>
</g>
<!-- Node1&#45;&gt;Node19 -->
<g id="edge20" class="edge"><title>Node1&#45;&gt;Node19</title>
<path fill="none" stroke="midnightblue" d="M876.948,-194.437C975.539,-183.713 1221.8,-156.926 1329.82,-145.176"/>
<polygon fill="midnightblue" stroke="midnightblue" points="876.336,-190.983 866.773,-195.544 877.093,-197.942 876.336,-190.983"/>
</g>
<!-- Node3 -->
<g id="node3" class="node"><title>Node3</title>
<g id="a_node3"><a xlink:href="client__manager_8h.html" target="_top" xlink:title="client_manager.h">
<polygon fill="white" stroke="black" points="263.5,-62 263.5,-81 354.5,-81 354.5,-62 263.5,-62"/>
<text text-anchor="middle" x="309" y="-69" font-family="Helvetica,sans-Serif" font-size="10.00">client_manager.h</text>
</a>
</g>
</g>
<!-- Node2&#45;&gt;Node3 -->
<g id="edge2" class="edge"><title>Node2&#45;&gt;Node3</title>
<path fill="none" stroke="midnightblue" d="M309,-118.537C309,-106.17 309,-90.6198 309,-81.1273"/>
<polygon fill="midnightblue" stroke="midnightblue" points="305.5,-118.734 309,-128.734 312.5,-118.734 305.5,-118.734"/>
</g>
<!-- Node2&#45;&gt;Node5 -->
<g id="edge6" class="edge"><title>Node2&#45;&gt;Node5</title>
<path fill="none" stroke="midnightblue" d="M326.358,-122.051C337.149,-112.257 351.171,-99.1812 363,-87 385.792,-63.5285 410.833,-34.0442 422.824,-19.6748"/>
<polygon fill="midnightblue" stroke="midnightblue" points="323.916,-119.54 318.826,-128.832 328.6,-124.743 323.916,-119.54"/>
</g>
<!-- Node7 -->
<g id="node7" class="node"><title>Node7</title>
<g id="a_node7"><a xlink:href="basic__codec_8h.html" target="_top" xlink:title="basic_codec.h">
<polygon fill="white" stroke="black" points="97,-62 97,-81 177,-81 177,-62 97,-62"/>
<text text-anchor="middle" x="137" y="-69" font-family="Helvetica,sans-Serif" font-size="10.00">basic_codec.h</text>
</a>
</g>
</g>
<!-- Node2&#45;&gt;Node7 -->
<g id="edge7" class="edge"><title>Node2&#45;&gt;Node7</title>
<path fill="none" stroke="midnightblue" d="M276.639,-125.271C242.502,-112.37 189.594,-92.3757 159.661,-81.0637"/>
<polygon fill="midnightblue" stroke="midnightblue" points="275.568,-128.607 286.16,-128.869 278.043,-122.059 275.568,-128.607"/>
</g>
<!-- Node8 -->
<g id="node8" class="node"><title>Node8</title>
<g id="a_node8"><a xlink:href="server_8h.html" target="_top" xlink:title="server.h">
<polygon fill="white" stroke="black" points="195,-62 195,-81 245,-81 245,-62 195,-62"/>
<text text-anchor="middle" x="220" y="-69" font-family="Helvetica,sans-Serif" font-size="10.00">server.h</text>
</a>
</g>
</g>
<!-- Node2&#45;&gt;Node8 -->
<g id="edge8" class="edge"><title>Node2&#45;&gt;Node8</title>
<path fill="none" stroke="midnightblue" d="M288.554,-122.568C270.987,-109.738 246.269,-91.6853 231.813,-81.1273"/>
<polygon fill="midnightblue" stroke="midnightblue" points="286.857,-125.662 296.997,-128.734 290.986,-120.009 286.857,-125.662"/>
</g>
<!-- Node4 -->
<g id="node4" class="node"><title>Node4</title>
<g id="a_node4"><a xlink:href="arbitrated__client__manager_8h.html" target="_top" xlink:title="arbitrated_client_manager.h">
<polygon fill="white" stroke="black" points="102.5,-0.5 102.5,-19.5 239.5,-19.5 239.5,-0.5 102.5,-0.5"/>
<text text-anchor="middle" x="171" y="-7.5" font-family="Helvetica,sans-Serif" font-size="10.00">arbitrated_client_manager.h</text>
</a>
</g>
</g>
<!-- Node3&#45;&gt;Node4 -->
<g id="edge3" class="edge"><title>Node3&#45;&gt;Node4</title>
<path fill="none" stroke="midnightblue" d="M279.961,-57.9795C253.159,-46.4238 214.083,-29.5758 190.735,-19.5091"/>
<polygon fill="midnightblue" stroke="midnightblue" points="278.659,-61.2298 289.228,-61.9751 281.431,-54.8018 278.659,-61.2298"/>
</g>
<!-- Node3&#45;&gt;Node5 -->
<g id="edge4" class="edge"><title>Node3&#45;&gt;Node5</title>
<path fill="none" stroke="midnightblue" d="M335.395,-57.5207C358.861,-45.9816 392.493,-29.4433 412.696,-19.5091"/>
<polygon fill="midnightblue" stroke="midnightblue" points="333.766,-54.4215 326.336,-61.9751 336.855,-60.7032 333.766,-54.4215"/>
</g>
<!-- Node6 -->
<g id="node6" class="node"><title>Node6</title>
<g id="a_node6"><a xlink:href="erpc__client__setup_8h.html" target="_top" xlink:title="erpc_client_setup.h">
<polygon fill="white" stroke="black" points="257.5,-0.5 257.5,-19.5 358.5,-19.5 358.5,-0.5 257.5,-0.5"/>
<text text-anchor="middle" x="308" y="-7.5" font-family="Helvetica,sans-Serif" font-size="10.00">erpc_client_setup.h</text>
</a>
</g>
</g>
<!-- Node3&#45;&gt;Node6 -->
<g id="edge5" class="edge"><title>Node3&#45;&gt;Node6</title>
<path fill="none" stroke="midnightblue" d="M308.686,-51.8165C308.504,-40.9962 308.284,-27.898 308.143,-19.5091"/>
<polygon fill="midnightblue" stroke="midnightblue" points="305.189,-52.0354 308.857,-61.9751 312.188,-51.9177 305.189,-52.0354"/>
</g>
<!-- Node9 -->
<g id="node9" class="node"><title>Node9</title>
<g id="a_node9"><a xlink:href="simple__server_8h.html" target="_top" xlink:title="simple_server.h">
<polygon fill="white" stroke="black" points="0,-0.5 0,-19.5 84,-19.5 84,-0.5 0,-0.5"/>
<text text-anchor="middle" x="42" y="-7.5" font-family="Helvetica,sans-Serif" font-size="10.00">simple_server.h</text>
</a>
</g>
</g>
<!-- Node8&#45;&gt;Node9 -->
<g id="edge9" class="edge"><title>Node8&#45;&gt;Node9</title>
<path fill="none" stroke="midnightblue" d="M191.05,-57.9242C189.348,-57.2564 187.656,-56.6101 186,-56 147.291,-41.7383 101.706,-27.9921 72.358,-19.5253"/>
<polygon fill="midnightblue" stroke="midnightblue" points="190.136,-61.3315 200.716,-61.8797 192.787,-54.853 190.136,-61.3315"/>
</g>
<!-- Node11 -->
<g id="node11" class="node"><title>Node11</title>
<g id="a_node11"><a xlink:href="dspi__master__transport_8h.html" target="_top" xlink:title="dspi_master_transport.h">
<polygon fill="white" stroke="black" points="456,-62 456,-81 578,-81 578,-62 456,-62"/>
<text text-anchor="middle" x="517" y="-69" font-family="Helvetica,sans-Serif" font-size="10.00">dspi_master_transport.h</text>
</a>
</g>
</g>
<!-- Node10&#45;&gt;Node11 -->
<g id="edge12" class="edge"><title>Node10&#45;&gt;Node11</title>
<path fill="none" stroke="midnightblue" d="M782.902,-126.944C732.711,-116.763 654.648,-100.894 587,-87 577.639,-85.0774 567.577,-82.9996 558.081,-81.0338"/>
<polygon fill="midnightblue" stroke="midnightblue" points="782.369,-130.408 792.866,-128.965 783.761,-123.547 782.369,-130.408"/>
</g>
<!-- Node12 -->
<g id="node12" class="node"><title>Node12</title>
<g id="a_node12"><a xlink:href="dspi__slave__transport_8h.html" target="_top" xlink:title="dspi_slave_transport.h">
<polygon fill="white" stroke="black" points="596.5,-62 596.5,-81 709.5,-81 709.5,-62 596.5,-62"/>
<text text-anchor="middle" x="653" y="-69" font-family="Helvetica,sans-Serif" font-size="10.00">dspi_slave_transport.h</text>
</a>
</g>
</g>
<!-- Node10&#45;&gt;Node12 -->
<g id="edge13" class="edge"><title>Node10&#45;&gt;Node12</title>
<path fill="none" stroke="midnightblue" d="M801.222,-125.436C765.117,-112.542 708.788,-92.4243 676.978,-81.0637"/>
<polygon fill="midnightblue" stroke="midnightblue" points="800.237,-128.801 810.832,-128.869 802.592,-122.209 800.237,-128.801"/>
</g>
<!-- Node13 -->
<g id="node13" class="node"><title>Node13</title>
<g id="a_node13"><a xlink:href="serial__transport_8h.html" target="_top" xlink:title="serial_transport.h">
<polygon fill="white" stroke="black" points="728,-62 728,-81 820,-81 820,-62 728,-62"/>
<text text-anchor="middle" x="774" y="-69" font-family="Helvetica,sans-Serif" font-size="10.00">serial_transport.h</text>
</a>
</g>
</g>
<!-- Node10&#45;&gt;Node13 -->
<g id="edge14" class="edge"><title>Node10&#45;&gt;Node13</title>
<path fill="none" stroke="midnightblue" d="M819.642,-121.135C807.712,-108.423 791.641,-91.2978 782.096,-81.1273"/>
<polygon fill="midnightblue" stroke="midnightblue" points="817.378,-123.837 826.773,-128.734 822.482,-119.047 817.378,-123.837"/>
</g>
<!-- Node14 -->
<g id="node14" class="node"><title>Node14</title>
<g id="a_node14"><a xlink:href="spi__master__transport_8h.html" target="_top" xlink:title="spi_master_transport.h">
<polygon fill="white" stroke="black" points="838,-62 838,-81 954,-81 954,-62 838,-62"/>
<text text-anchor="middle" x="896" y="-69" font-family="Helvetica,sans-Serif" font-size="10.00">spi_master_transport.h</text>
</a>
</g>
</g>
<!-- Node10&#45;&gt;Node14 -->
<g id="edge15" class="edge"><title>Node10&#45;&gt;Node14</title>
<path fill="none" stroke="midnightblue" d="M850.358,-121.135C862.288,-108.423 878.359,-91.2978 887.904,-81.1273"/>
<polygon fill="midnightblue" stroke="midnightblue" points="847.518,-119.047 843.227,-128.734 852.622,-123.837 847.518,-119.047"/>
</g>
<!-- Node15 -->
<g id="node15" class="node"><title>Node15</title>
<g id="a_node15"><a xlink:href="spi__slave__transport_8h.html" target="_top" xlink:title="spi_slave_transport.h">
<polygon fill="white" stroke="black" points="972,-62 972,-81 1080,-81 1080,-62 972,-62"/>
<text text-anchor="middle" x="1026" y="-69" font-family="Helvetica,sans-Serif" font-size="10.00">spi_slave_transport.h</text>
</a>
</g>
</g>
<!-- Node10&#45;&gt;Node15 -->
<g id="edge16" class="edge"><title>Node10&#45;&gt;Node15</title>
<path fill="none" stroke="midnightblue" d="M869.964,-125.601C907.833,-112.714 967.311,-92.4728 1000.84,-81.0637"/>
<polygon fill="midnightblue" stroke="midnightblue" points="868.703,-122.333 860.363,-128.869 870.958,-128.96 868.703,-122.333"/>
</g>
<!-- Node16 -->
<g id="node16" class="node"><title>Node16</title>
<g id="a_node16"><a xlink:href="tcp__transport_8h.html" target="_top" xlink:title="tcp_transport.h">
<polygon fill="white" stroke="black" points="1098,-62 1098,-81 1180,-81 1180,-62 1098,-62"/>
<text text-anchor="middle" x="1139" y="-69" font-family="Helvetica,sans-Serif" font-size="10.00">tcp_transport.h</text>
</a>
</g>
</g>
<!-- Node10&#45;&gt;Node16 -->
<g id="edge17" class="edge"><title>Node10&#45;&gt;Node16</title>
<path fill="none" stroke="midnightblue" d="M877.576,-126.529C882.761,-125.29 887.993,-124.085 893,-123 979.561,-104.25 1002.8,-107.36 1089,-87 1096.3,-85.2755 1104.12,-83.145 1111.36,-81.0531"/>
<polygon fill="midnightblue" stroke="midnightblue" points="876.62,-123.16 867.736,-128.931 878.281,-129.96 876.62,-123.16"/>
</g>
<!-- Node17 -->
<g id="node17" class="node"><title>Node17</title>
<g id="a_node17"><a xlink:href="uart__cmsis__transport_8h.html" target="_top" xlink:title="uart_cmsis_transport.h">
<polygon fill="white" stroke="black" points="1198,-62 1198,-81 1314,-81 1314,-62 1198,-62"/>
<text text-anchor="middle" x="1256" y="-69" font-family="Helvetica,sans-Serif" font-size="10.00">uart_cmsis_transport.h</text>
</a>
</g>
</g>
<!-- Node10&#45;&gt;Node17 -->
<g id="edge18" class="edge"><title>Node10&#45;&gt;Node17</title>
<path fill="none" stroke="midnightblue" d="M876.131,-126.55C881.775,-125.243 887.514,-124.015 893,-123 1023.31,-98.8827 1058.32,-109.039 1189,-87 1198.98,-85.3177 1209.71,-83.154 1219.61,-81.014"/>
<polygon fill="midnightblue" stroke="midnightblue" points="875.05,-123.211 866.15,-128.959 876.692,-130.015 875.05,-123.211"/>
</g>
<!-- Node20 -->
<g id="node20" class="node"><title>Node20</title>
<g id="a_node20"><a xlink:href="rpmsg__lite__zc__rtos__transport_8h.html" target="_top" xlink:title="rpmsg_lite_zc_rtos\l_transport.h">
<polygon fill="white" stroke="black" points="1332.5,-56.5 1332.5,-86.5 1431.5,-86.5 1431.5,-56.5 1332.5,-56.5"/>
<text text-anchor="start" x="1340.5" y="-74.5" font-family="Helvetica,sans-Serif" font-size="10.00">rpmsg_lite_zc_rtos</text>
<text text-anchor="middle" x="1382" y="-63.5" font-family="Helvetica,sans-Serif" font-size="10.00">_transport.h</text>
</a>
</g>
</g>
<!-- Node19&#45;&gt;Node20 -->
<g id="edge21" class="edge"><title>Node19&#45;&gt;Node20</title>
<path fill="none" stroke="midnightblue" d="M1382,-113.108C1382,-104.154 1382,-94.3227 1382,-86.5765"/>
<polygon fill="midnightblue" stroke="midnightblue" points="1378.5,-113.396 1382,-123.396 1385.5,-113.396 1378.5,-113.396"/>
</g>
<!-- Node21 -->
<g id="node21" class="node"><title>Node21</title>
<g id="a_node21"><a xlink:href="rpmsg__lite__zc__transport_8h.html" target="_top" xlink:title="rpmsg_lite_zc_transport.h">
<polygon fill="white" stroke="black" points="1449.5,-62 1449.5,-81 1578.5,-81 1578.5,-62 1449.5,-62"/>
<text text-anchor="middle" x="1514" y="-69" font-family="Helvetica,sans-Serif" font-size="10.00">rpmsg_lite_zc_transport.h</text>
</a>
</g>
</g>
<!-- Node19&#45;&gt;Node21 -->
<g id="edge22" class="edge"><title>Node19&#45;&gt;Node21</title>
<path fill="none" stroke="midnightblue" d="M1419.64,-118.967C1444.99,-106.481 1477.25,-90.5978 1496.72,-81.007"/>
<polygon fill="midnightblue" stroke="midnightblue" points="1418.07,-115.838 1410.64,-123.396 1421.16,-122.118 1418.07,-115.838"/>
</g>
</g>
</svg>
