<?xml version="1.0" encoding="UTF-8" standalone="no"?>
<!DOCTYPE svg PUBLIC "-//W3C//DTD SVG 1.1//EN"
 "http://www.w3.org/Graphics/SVG/1.1/DTD/svg11.dtd">
<!-- Generated by graphviz version 2.38.0 (20140413.2041)
 -->
<!-- Title: transport.h Pages: 1 -->
<svg width="245pt" height="196pt"
 viewBox="0.00 0.00 244.61 196.00" xmlns="http://www.w3.org/2000/svg" xmlns:xlink="http://www.w3.org/1999/xlink">
<g id="graph0" class="graph" transform="scale(1 1) rotate(0) translate(4 192)">
<title>transport.h</title>
<polygon fill="white" stroke="none" points="-4,4 -4,-192 240.609,-192 240.609,4 -4,4"/>
<!-- Node1 -->
<g id="node1" class="node"><title>Node1</title>
<polygon fill="#bfbfbf" stroke="black" points="56.1091,-168.5 56.1091,-187.5 119.109,-187.5 119.109,-168.5 56.1091,-168.5"/>
<text text-anchor="middle" x="87.6091" y="-175.5" font-family="Helvetica,sans-Serif" font-size="10.00">transport.h</text>
</g>
<!-- Node2 -->
<g id="node2" class="node"><title>Node2</title>
<g id="a_node2"><a xlink:href="erpc__common_8h_source.html" target="_top" xlink:title="erpc_common.h">
<polygon fill="white" stroke="black" points="11.6091,-56.5 11.6091,-75.5 97.6091,-75.5 97.6091,-56.5 11.6091,-56.5"/>
<text text-anchor="middle" x="54.6091" y="-63.5" font-family="Helvetica,sans-Serif" font-size="10.00">erpc_common.h</text>
</a>
</g>
</g>
<!-- Node1&#45;&gt;Node2 -->
<g id="edge1" class="edge"><title>Node1&#45;&gt;Node2</title>
<path fill="none" stroke="midnightblue" d="M83.6121,-168.182C79.6595,-159.213 73.6347,-144.847 69.6091,-132 64.7881,-116.614 60.7745,-98.7394 58.1159,-85.633"/>
<polygon fill="midnightblue" stroke="midnightblue" points="61.4939,-84.669 56.1422,-75.5251 54.6236,-86.0106 61.4939,-84.669"/>
</g>
<!-- Node3 -->
<g id="node3" class="node"><title>Node3</title>
<polygon fill="white" stroke="#bfbfbf" points="30.1091,-0.5 30.1091,-19.5 79.1091,-19.5 79.1091,-0.5 30.1091,-0.5"/>
<text text-anchor="middle" x="54.6091" y="-7.5" font-family="Helvetica,sans-Serif" font-size="10.00">stdint.h</text>
</g>
<!-- Node1&#45;&gt;Node3 -->
<g id="edge8" class="edge"><title>Node1&#45;&gt;Node3</title>
<path fill="none" stroke="midnightblue" d="M76.5488,-168.479C57.1253,-152.728 17.5319,-116.907 2.60915,-76 -0.437112,-67.6494 -1.08602,-64.0844 2.60915,-56 8.38645,-43.3602 19.6614,-32.911 30.2398,-25.2737"/>
<polygon fill="midnightblue" stroke="midnightblue" points="32.4579,-28.0009 38.8258,-19.5333 28.5673,-22.1817 32.4579,-28.0009"/>
</g>
<!-- Node4 -->
<g id="node4" class="node"><title>Node4</title>
<g id="a_node4"><a xlink:href="message__buffer_8h.html" target="_top" xlink:title="message_buffer.h">
<polygon fill="white" stroke="black" points="79.1091,-112.5 79.1091,-131.5 172.109,-131.5 172.109,-112.5 79.1091,-112.5"/>
<text text-anchor="middle" x="125.609" y="-119.5" font-family="Helvetica,sans-Serif" font-size="10.00">message_buffer.h</text>
</a>
</g>
</g>
<!-- Node1&#45;&gt;Node4 -->
<g id="edge3" class="edge"><title>Node1&#45;&gt;Node4</title>
<path fill="none" stroke="midnightblue" d="M93.8841,-168.083C99.2516,-160.455 107.127,-149.264 113.688,-139.941"/>
<polygon fill="midnightblue" stroke="midnightblue" points="116.558,-141.943 119.451,-131.751 110.834,-137.915 116.558,-141.943"/>
</g>
<!-- Node6 -->
<g id="node6" class="node"><title>Node6</title>
<polygon fill="white" stroke="#bfbfbf" points="190.609,-112.5 190.609,-131.5 236.609,-131.5 236.609,-112.5 190.609,-112.5"/>
<text text-anchor="middle" x="213.609" y="-119.5" font-family="Helvetica,sans-Serif" font-size="10.00">cstring</text>
</g>
<!-- Node1&#45;&gt;Node6 -->
<g id="edge7" class="edge"><title>Node1&#45;&gt;Node6</title>
<path fill="none" stroke="midnightblue" d="M107.574,-168.444C128.218,-159.596 160.672,-145.687 184.241,-135.586"/>
<polygon fill="midnightblue" stroke="midnightblue" points="185.925,-138.673 193.737,-131.516 183.167,-132.239 185.925,-138.673"/>
</g>
<!-- Node2&#45;&gt;Node3 -->
<g id="edge2" class="edge"><title>Node2&#45;&gt;Node3</title>
<path fill="none" stroke="midnightblue" d="M54.6091,-56.083C54.6091,-49.0059 54.6091,-38.8611 54.6091,-29.9865"/>
<polygon fill="midnightblue" stroke="midnightblue" points="58.1092,-29.751 54.6091,-19.7511 51.1092,-29.7511 58.1092,-29.751"/>
</g>
<!-- Node4&#45;&gt;Node2 -->
<g id="edge4" class="edge"><title>Node4&#45;&gt;Node2</title>
<path fill="none" stroke="midnightblue" d="M114.202,-112.324C103.5,-104.185 87.2685,-91.8395 74.4463,-82.0874"/>
<polygon fill="midnightblue" stroke="midnightblue" points="76.3024,-79.1018 66.2241,-75.8339 72.0648,-84.6734 76.3024,-79.1018"/>
</g>
<!-- Node4&#45;&gt;Node3 -->
<g id="edge6" class="edge"><title>Node4&#45;&gt;Node3</title>
<path fill="none" stroke="midnightblue" d="M124.663,-112.359C122.897,-99.2617 118.172,-74.0042 106.609,-56 98.9477,-44.071 87.2051,-33.5262 76.816,-25.6482"/>
<polygon fill="midnightblue" stroke="midnightblue" points="78.6888,-22.6839 68.5269,-19.6861 74.6013,-28.3666 78.6888,-22.6839"/>
</g>
<!-- Node5 -->
<g id="node5" class="node"><title>Node5</title>
<polygon fill="white" stroke="#bfbfbf" points="153.609,-56.5 153.609,-75.5 201.609,-75.5 201.609,-56.5 153.609,-56.5"/>
<text text-anchor="middle" x="177.609" y="-63.5" font-family="Helvetica,sans-Serif" font-size="10.00">cstddef</text>
</g>
<!-- Node4&#45;&gt;Node5 -->
<g id="edge5" class="edge"><title>Node4&#45;&gt;Node5</title>
<path fill="none" stroke="midnightblue" d="M134.196,-112.083C141.768,-104.22 152.987,-92.5688 162.123,-83.0813"/>
<polygon fill="midnightblue" stroke="midnightblue" points="164.767,-85.3821 169.182,-75.7511 159.725,-80.5266 164.767,-85.3821"/>
</g>
</g>
</svg>
