<?xml version="1.0" encoding="UTF-8" standalone="no"?>
<!DOCTYPE svg PUBLIC "-//W3C//DTD SVG 1.1//EN"
 "http://www.w3.org/Graphics/SVG/1.1/DTD/svg11.dtd">
<!-- Generated by graphviz version 2.38.0 (20140413.2041)
 -->
<!-- Title: uart_cmsis_transport.h Pages: 1 -->
<svg width="504pt" height="308pt"
 viewBox="0.00 0.00 504.00 308.00" xmlns="http://www.w3.org/2000/svg" xmlns:xlink="http://www.w3.org/1999/xlink">
<g id="graph0" class="graph" transform="scale(1 1) rotate(0) translate(4 304)">
<title>uart_cmsis_transport.h</title>
<polygon fill="white" stroke="none" points="-4,4 -4,-304 500,-304 500,4 -4,4"/>
<!-- Node1 -->
<g id="node1" class="node"><title>Node1</title>
<polygon fill="#bfbfbf" stroke="black" points="280,-280.5 280,-299.5 396,-299.5 396,-280.5 280,-280.5"/>
<text text-anchor="middle" x="338" y="-287.5" font-family="Helvetica,sans-Serif" font-size="10.00">uart_cmsis_transport.h</text>
</g>
<!-- Node2 -->
<g id="node2" class="node"><title>Node2</title>
<polygon fill="white" stroke="#bfbfbf" points="132,-224.5 132,-243.5 218,-243.5 218,-224.5 132,-224.5"/>
<text text-anchor="middle" x="175" y="-231.5" font-family="Helvetica,sans-Serif" font-size="10.00">Driver_USART.h</text>
</g>
<!-- Node1&#45;&gt;Node2 -->
<g id="edge1" class="edge"><title>Node1&#45;&gt;Node2</title>
<path fill="none" stroke="midnightblue" d="M312.172,-280.444C284.751,-271.359 241.223,-256.939 210.568,-246.783"/>
<polygon fill="midnightblue" stroke="midnightblue" points="211.3,-243.339 200.707,-243.516 209.099,-249.984 211.3,-243.339"/>
</g>
<!-- Node3 -->
<g id="node3" class="node"><title>Node3</title>
<g id="a_node3"><a xlink:href="framed__transport_8h.html" target="_top" xlink:title="framed_transport.h">
<polygon fill="white" stroke="black" points="236,-224.5 236,-243.5 334,-243.5 334,-224.5 236,-224.5"/>
<text text-anchor="middle" x="285" y="-231.5" font-family="Helvetica,sans-Serif" font-size="10.00">framed_transport.h</text>
</a>
</g>
</g>
<!-- Node1&#45;&gt;Node3 -->
<g id="edge2" class="edge"><title>Node1&#45;&gt;Node3</title>
<path fill="none" stroke="midnightblue" d="M329.248,-280.083C321.53,-272.22 310.095,-260.569 300.783,-251.081"/>
<polygon fill="midnightblue" stroke="midnightblue" points="303.092,-248.436 293.589,-243.751 298.096,-253.34 303.092,-248.436"/>
</g>
<!-- Node13 -->
<g id="node13" class="node"><title>Node13</title>
<polygon fill="white" stroke="#bfbfbf" points="352.5,-224.5 352.5,-243.5 429.5,-243.5 429.5,-224.5 352.5,-224.5"/>
<text text-anchor="middle" x="391" y="-231.5" font-family="Helvetica,sans-Serif" font-size="10.00">fsl_common.h</text>
</g>
<!-- Node1&#45;&gt;Node13 -->
<g id="edge20" class="edge"><title>Node1&#45;&gt;Node13</title>
<path fill="none" stroke="midnightblue" d="M346.752,-280.083C354.47,-272.22 365.905,-260.569 375.217,-251.081"/>
<polygon fill="midnightblue" stroke="midnightblue" points="377.904,-253.34 382.411,-243.751 372.908,-248.436 377.904,-253.34"/>
</g>
<!-- Node14 -->
<g id="node14" class="node"><title>Node14</title>
<polygon fill="white" stroke="#bfbfbf" points="448,-224.5 448,-243.5 496,-243.5 496,-224.5 448,-224.5"/>
<text text-anchor="middle" x="472" y="-231.5" font-family="Helvetica,sans-Serif" font-size="10.00">stdlib.h</text>
</g>
<!-- Node1&#45;&gt;Node14 -->
<g id="edge21" class="edge"><title>Node1&#45;&gt;Node14</title>
<path fill="none" stroke="midnightblue" d="M359.233,-280.444C381.384,-271.517 416.319,-257.439 441.436,-247.317"/>
<polygon fill="midnightblue" stroke="midnightblue" points="442.9,-250.501 450.867,-243.516 440.283,-244.008 442.9,-250.501"/>
</g>
<!-- Node4 -->
<g id="node4" class="node"><title>Node4</title>
<g id="a_node4"><a xlink:href="erpc__config__internal_8h_source.html" target="_top" xlink:title="erpc_config_internal.h">
<polygon fill="white" stroke="black" points="333.5,-112.5 333.5,-131.5 444.5,-131.5 444.5,-112.5 333.5,-112.5"/>
<text text-anchor="middle" x="389" y="-119.5" font-family="Helvetica,sans-Serif" font-size="10.00">erpc_config_internal.h</text>
</a>
</g>
</g>
<!-- Node3&#45;&gt;Node4 -->
<g id="edge3" class="edge"><title>Node3&#45;&gt;Node4</title>
<path fill="none" stroke="midnightblue" d="M317.945,-224.38C337.382,-217.616 360.868,-206.222 375,-188 385.271,-174.756 388.395,-155.628 389.175,-141.549"/>
<polygon fill="midnightblue" stroke="midnightblue" points="392.674,-141.623 389.39,-131.55 385.676,-141.472 392.674,-141.623"/>
</g>
<!-- Node6 -->
<g id="node6" class="node"><title>Node6</title>
<g id="a_node6"><a xlink:href="message__buffer_8h.html" target="_top" xlink:title="message_buffer.h">
<polygon fill="white" stroke="black" points="43.5,-112.5 43.5,-131.5 136.5,-131.5 136.5,-112.5 43.5,-112.5"/>
<text text-anchor="middle" x="90" y="-119.5" font-family="Helvetica,sans-Serif" font-size="10.00">message_buffer.h</text>
</a>
</g>
</g>
<!-- Node3&#45;&gt;Node6 -->
<g id="edge5" class="edge"><title>Node3&#45;&gt;Node6</title>
<path fill="none" stroke="midnightblue" d="M238.778,-224.445C210.591,-217.706 174.768,-206.314 147,-188 128.088,-175.527 111.663,-155.167 101.365,-140.555"/>
<polygon fill="midnightblue" stroke="midnightblue" points="104.025,-138.241 95.5193,-131.924 98.2297,-142.167 104.025,-138.241"/>
</g>
<!-- Node8 -->
<g id="node8" class="node"><title>Node8</title>
<polygon fill="white" stroke="#bfbfbf" points="193.5,-0.5 193.5,-19.5 242.5,-19.5 242.5,-0.5 193.5,-0.5"/>
<text text-anchor="middle" x="218" y="-7.5" font-family="Helvetica,sans-Serif" font-size="10.00">stdint.h</text>
</g>
<!-- Node3&#45;&gt;Node8 -->
<g id="edge16" class="edge"><title>Node3&#45;&gt;Node8</title>
<path fill="none" stroke="midnightblue" d="M323.195,-224.403C376.24,-210.059 464.605,-176.265 454,-112 449.721,-86.0683 454.688,-73.4108 435,-56 408.385,-32.4635 307.23,-19.466 252.939,-14.0511"/>
<polygon fill="midnightblue" stroke="midnightblue" points="253.031,-10.5439 242.742,-13.0684 252.36,-17.5116 253.031,-10.5439"/>
</g>
<!-- Node10 -->
<g id="node10" class="node"><title>Node10</title>
<g id="a_node10"><a xlink:href="transport_8h.html" target="_top" xlink:title="transport.h">
<polygon fill="white" stroke="black" points="156.5,-168.5 156.5,-187.5 219.5,-187.5 219.5,-168.5 156.5,-168.5"/>
<text text-anchor="middle" x="188" y="-175.5" font-family="Helvetica,sans-Serif" font-size="10.00">transport.h</text>
</a>
</g>
</g>
<!-- Node3&#45;&gt;Node10 -->
<g id="edge10" class="edge"><title>Node3&#45;&gt;Node10</title>
<path fill="none" stroke="midnightblue" d="M269.415,-224.324C254.001,-215.743 230.188,-202.486 212.29,-192.522"/>
<polygon fill="midnightblue" stroke="midnightblue" points="213.986,-189.461 203.546,-187.655 210.581,-195.577 213.986,-189.461"/>
</g>
<!-- Node11 -->
<g id="node11" class="node"><title>Node11</title>
<polygon fill="white" stroke="#bfbfbf" points="231,-112.5 231,-131.5 277,-131.5 277,-112.5 231,-112.5"/>
<text text-anchor="middle" x="254" y="-119.5" font-family="Helvetica,sans-Serif" font-size="10.00">cstring</text>
</g>
<!-- Node3&#45;&gt;Node11 -->
<g id="edge15" class="edge"><title>Node3&#45;&gt;Node11</title>
<path fill="none" stroke="midnightblue" d="M280.923,-224.206C276.908,-215.257 270.836,-200.905 267,-188 262.435,-172.643 258.99,-154.765 256.798,-141.651"/>
<polygon fill="midnightblue" stroke="midnightblue" points="260.217,-140.865 255.196,-131.535 253.303,-141.959 260.217,-140.865"/>
</g>
<!-- Node12 -->
<g id="node12" class="node"><title>Node12</title>
<g id="a_node12"><a xlink:href="erpc__threading_8h.html" target="_top" xlink:title="erpc_threading.h">
<polygon fill="white" stroke="black" points="276.5,-168.5 276.5,-187.5 365.5,-187.5 365.5,-168.5 276.5,-168.5"/>
<text text-anchor="middle" x="321" y="-175.5" font-family="Helvetica,sans-Serif" font-size="10.00">erpc_threading.h</text>
</a>
</g>
</g>
<!-- Node3&#45;&gt;Node12 -->
<g id="edge17" class="edge"><title>Node3&#45;&gt;Node12</title>
<path fill="none" stroke="midnightblue" d="M290.945,-224.083C295.977,-216.534 303.337,-205.495 309.513,-196.23"/>
<polygon fill="midnightblue" stroke="midnightblue" points="312.531,-198.013 315.166,-187.751 306.707,-194.13 312.531,-198.013"/>
</g>
<!-- Node5 -->
<g id="node5" class="node"><title>Node5</title>
<g id="a_node5"><a xlink:href="erpc__config_8h.html" target="_top" xlink:title="erpc_config.h">
<polygon fill="white" stroke="black" points="352,-56.5 352,-75.5 426,-75.5 426,-56.5 352,-56.5"/>
<text text-anchor="middle" x="389" y="-63.5" font-family="Helvetica,sans-Serif" font-size="10.00">erpc_config.h</text>
</a>
</g>
</g>
<!-- Node4&#45;&gt;Node5 -->
<g id="edge4" class="edge"><title>Node4&#45;&gt;Node5</title>
<path fill="none" stroke="midnightblue" d="M389,-112.083C389,-105.006 389,-94.8611 389,-85.9865"/>
<polygon fill="midnightblue" stroke="midnightblue" points="392.5,-85.751 389,-75.7511 385.5,-85.7511 392.5,-85.751"/>
</g>
<!-- Node7 -->
<g id="node7" class="node"><title>Node7</title>
<g id="a_node7"><a xlink:href="erpc__common_8h_source.html" target="_top" xlink:title="erpc_common.h">
<polygon fill="white" stroke="black" points="104,-56.5 104,-75.5 190,-75.5 190,-56.5 104,-56.5"/>
<text text-anchor="middle" x="147" y="-63.5" font-family="Helvetica,sans-Serif" font-size="10.00">erpc_common.h</text>
</a>
</g>
</g>
<!-- Node6&#45;&gt;Node7 -->
<g id="edge6" class="edge"><title>Node6&#45;&gt;Node7</title>
<path fill="none" stroke="midnightblue" d="M99.158,-112.324C107.501,-104.42 120.032,-92.5482 130.177,-82.9377"/>
<polygon fill="midnightblue" stroke="midnightblue" points="132.823,-85.2522 137.675,-75.8339 128.009,-80.1705 132.823,-85.2522"/>
</g>
<!-- Node6&#45;&gt;Node8 -->
<g id="edge9" class="edge"><title>Node6&#45;&gt;Node8</title>
<path fill="none" stroke="midnightblue" d="M87.9795,-112.406C85.3425,-98.9158 82.4231,-72.5985 95,-56 115.731,-28.6407 154.783,-17.9004 183.341,-13.6927"/>
<polygon fill="midnightblue" stroke="midnightblue" points="183.856,-17.1554 193.334,-12.4194 182.971,-10.2116 183.856,-17.1554"/>
</g>
<!-- Node9 -->
<g id="node9" class="node"><title>Node9</title>
<polygon fill="white" stroke="#bfbfbf" points="0,-56.5 0,-75.5 48,-75.5 48,-56.5 0,-56.5"/>
<text text-anchor="middle" x="24" y="-63.5" font-family="Helvetica,sans-Serif" font-size="10.00">cstddef</text>
</g>
<!-- Node6&#45;&gt;Node9 -->
<g id="edge8" class="edge"><title>Node6&#45;&gt;Node9</title>
<path fill="none" stroke="midnightblue" d="M79.396,-112.324C69.5438,-104.263 54.6491,-92.0765 42.7849,-82.3695"/>
<polygon fill="midnightblue" stroke="midnightblue" points="44.7529,-79.4575 34.797,-75.8339 40.3202,-84.8752 44.7529,-79.4575"/>
</g>
<!-- Node7&#45;&gt;Node8 -->
<g id="edge7" class="edge"><title>Node7&#45;&gt;Node8</title>
<path fill="none" stroke="midnightblue" d="M158.407,-56.324C169.109,-48.1849 185.341,-35.8395 198.163,-26.0874"/>
<polygon fill="midnightblue" stroke="midnightblue" points="200.544,-28.6734 206.385,-19.8339 196.307,-23.1018 200.544,-28.6734"/>
</g>
<!-- Node10&#45;&gt;Node6 -->
<g id="edge12" class="edge"><title>Node10&#45;&gt;Node6</title>
<path fill="none" stroke="midnightblue" d="M172.255,-168.324C156.681,-159.743 132.623,-146.486 114.541,-136.522"/>
<polygon fill="midnightblue" stroke="midnightblue" points="116.154,-133.415 105.706,-131.655 112.776,-139.546 116.154,-133.415"/>
</g>
<!-- Node10&#45;&gt;Node7 -->
<g id="edge11" class="edge"><title>Node10&#45;&gt;Node7</title>
<path fill="none" stroke="midnightblue" d="M184.783,-168.368C178.136,-150.537 162.765,-109.295 153.81,-85.2717"/>
<polygon fill="midnightblue" stroke="midnightblue" points="156.974,-83.7393 150.202,-75.5914 150.415,-86.1841 156.974,-83.7393"/>
</g>
<!-- Node10&#45;&gt;Node8 -->
<g id="edge14" class="edge"><title>Node10&#45;&gt;Node8</title>
<path fill="none" stroke="midnightblue" d="M189.613,-168.075C194.335,-141.945 208.203,-65.2106 214.643,-29.577"/>
<polygon fill="midnightblue" stroke="midnightblue" points="218.117,-30.0312 216.452,-19.5681 211.229,-28.7862 218.117,-30.0312"/>
</g>
<!-- Node10&#45;&gt;Node11 -->
<g id="edge13" class="edge"><title>Node10&#45;&gt;Node11</title>
<path fill="none" stroke="midnightblue" d="M198.604,-168.324C208.456,-160.263 223.351,-148.077 235.215,-138.369"/>
<polygon fill="midnightblue" stroke="midnightblue" points="237.68,-140.875 243.203,-131.834 233.247,-135.457 237.68,-140.875"/>
</g>
<!-- Node12&#45;&gt;Node4 -->
<g id="edge18" class="edge"><title>Node12&#45;&gt;Node4</title>
<path fill="none" stroke="midnightblue" d="M331.925,-168.324C342.175,-160.185 357.721,-147.839 370.001,-138.087"/>
<polygon fill="midnightblue" stroke="midnightblue" points="372.221,-140.794 377.876,-131.834 367.868,-135.312 372.221,-140.794"/>
</g>
<!-- Node12&#45;&gt;Node8 -->
<g id="edge19" class="edge"><title>Node12&#45;&gt;Node8</title>
<path fill="none" stroke="midnightblue" d="M316.731,-168.437C310.384,-155.861 297.925,-131.749 286,-112 267.7,-81.6946 244.241,-47.8147 230.205,-28.0074"/>
<polygon fill="midnightblue" stroke="midnightblue" points="232.957,-25.8383 224.303,-19.7257 227.257,-29.9007 232.957,-25.8383"/>
</g>
</g>
</svg>
