<?xml version="1.0" encoding="UTF-8" standalone="no"?>
<!DOCTYPE svg PUBLIC "-//W3C//DTD SVG 1.1//EN"
 "http://www.w3.org/Graphics/SVG/1.1/DTD/svg11.dtd">
<!-- Generated by graphviz version 2.38.0 (20140413.2041)
 -->
<!-- Title: arbitrated_client_manager.h Pages: 1 -->
<svg width="297pt" height="302pt"
 viewBox="0.00 0.00 296.88 302.00" xmlns="http://www.w3.org/2000/svg" xmlns:xlink="http://www.w3.org/1999/xlink">
<g id="graph0" class="graph" transform="scale(1 1) rotate(0) translate(4 298)">
<title>arbitrated_client_manager.h</title>
<polygon fill="white" stroke="none" points="-4,4 -4,-298 292.882,-298 292.882,4 -4,4"/>
<!-- Node0 -->
<g id="node1" class="node"><title>Node0</title>
<polygon fill="#bfbfbf" stroke="black" points="73.1679,-275.5 73.1679,-293.5 213.142,-293.5 213.142,-275.5 73.1679,-275.5"/>
<text text-anchor="middle" x="143.155" y="-281.5" font-family="Helvetica,sans-Serif" font-size="10.00">arbitrated_client_manager.h</text>
</g>
<!-- Node1 -->
<g id="node2" class="node"><title>Node1</title>
<g id="a_node2"><a xlink:href="client__manager_8h.html" target="_top" xlink:title="client_manager.h">
<polygon fill="white" stroke="black" points="97.0717,-220.5 97.0717,-238.5 189.239,-238.5 189.239,-220.5 97.0717,-220.5"/>
<text text-anchor="middle" x="143.155" y="-226.5" font-family="Helvetica,sans-Serif" font-size="10.00">client_manager.h</text>
</a>
</g>
</g>
<!-- Node0&#45;&gt;Node1 -->
<g id="edge1" class="edge"><title>Node0&#45;&gt;Node1</title>
<path fill="none" stroke="midnightblue" d="M143.155,-275.219C143.155,-268.177 143.155,-257.808 143.155,-248.828"/>
<polygon fill="midnightblue" stroke="midnightblue" points="146.655,-248.55 143.155,-238.55 139.655,-248.55 146.655,-248.55"/>
</g>
<!-- Node2 -->
<g id="node3" class="node"><title>Node2</title>
<g id="a_node3"><a xlink:href="codec_8h.html" target="_top" xlink:title="codec.h">
<polygon fill="white" stroke="black" points="117.643,-165.5 117.643,-183.5 168.667,-183.5 168.667,-165.5 117.643,-165.5"/>
<text text-anchor="middle" x="143.155" y="-171.5" font-family="Helvetica,sans-Serif" font-size="10.00">codec.h</text>
</a>
</g>
</g>
<!-- Node1&#45;&gt;Node2 -->
<g id="edge2" class="edge"><title>Node1&#45;&gt;Node2</title>
<path fill="none" stroke="midnightblue" d="M143.155,-220.219C143.155,-213.177 143.155,-202.808 143.155,-193.828"/>
<polygon fill="midnightblue" stroke="midnightblue" points="146.655,-193.55 143.155,-183.55 139.655,-193.55 146.655,-193.55"/>
</g>
<!-- Node3 -->
<g id="node4" class="node"><title>Node3</title>
<g id="a_node4"><a xlink:href="erpc__common_8h_source.html" target="_top" xlink:title="erpc_common.h">
<polygon fill="white" stroke="black" points="99.3056,-55.5 99.3056,-73.5 187.005,-73.5 187.005,-55.5 99.3056,-55.5"/>
<text text-anchor="middle" x="143.155" y="-61.5" font-family="Helvetica,sans-Serif" font-size="10.00">erpc_common.h</text>
</a>
</g>
</g>
<!-- Node2&#45;&gt;Node3 -->
<g id="edge3" class="edge"><title>Node2&#45;&gt;Node3</title>
<path fill="none" stroke="midnightblue" d="M143.155,-165.382C143.155,-148.182 143.155,-107.698 143.155,-83.8866"/>
<polygon fill="midnightblue" stroke="midnightblue" points="146.655,-83.7117 143.155,-73.7118 139.655,-83.7118 146.655,-83.7117"/>
</g>
<!-- Node4 -->
<g id="node5" class="node"><title>Node4</title>
<polygon fill="white" stroke="#bfbfbf" points="50.0346,-0.5 50.0346,-18.5 98.2758,-18.5 98.2758,-0.5 50.0346,-0.5"/>
<text text-anchor="middle" x="74.1552" y="-6.5" font-family="Helvetica,sans-Serif" font-size="10.00">stdint.h</text>
</g>
<!-- Node2&#45;&gt;Node4 -->
<g id="edge14" class="edge"><title>Node2&#45;&gt;Node4</title>
<path fill="none" stroke="midnightblue" d="M117.407,-173.614C85.1134,-172.195 30.8662,-164.306 5.15516,-129 -6.12007,-113.517 3.89277,-77.4625 18.1552,-55 26.1386,-42.4265 38.9333,-31.8669 50.2788,-24.1939"/>
<polygon fill="midnightblue" stroke="midnightblue" points="52.3909,-26.9985 58.9473,-18.676 48.6319,-21.0933 52.3909,-26.9985"/>
</g>
<!-- Node5 -->
<g id="node6" class="node"><title>Node5</title>
<g id="a_node6"><a xlink:href="message__buffer_8h.html" target="_top" xlink:title="message_buffer.h">
<polygon fill="white" stroke="black" points="14.4921,-110.5 14.4921,-128.5 109.818,-128.5 109.818,-110.5 14.4921,-110.5"/>
<text text-anchor="middle" x="62.1552" y="-116.5" font-family="Helvetica,sans-Serif" font-size="10.00">message_buffer.h</text>
</a>
</g>
</g>
<!-- Node2&#45;&gt;Node5 -->
<g id="edge5" class="edge"><title>Node2&#45;&gt;Node5</title>
<path fill="none" stroke="midnightblue" d="M130.853,-165.45C118.245,-157.201 98.4001,-144.216 83.2743,-134.319"/>
<polygon fill="midnightblue" stroke="midnightblue" points="84.8573,-131.172 74.5731,-128.625 81.0246,-137.029 84.8573,-131.172"/>
</g>
<!-- Node7 -->
<g id="node8" class="node"><title>Node7</title>
<g id="a_node8"><a xlink:href="transport_8h.html" target="_top" xlink:title="transport.h">
<polygon fill="white" stroke="black" points="172.254,-110.5 172.254,-128.5 236.057,-128.5 236.057,-110.5 172.254,-110.5"/>
<text text-anchor="middle" x="204.155" y="-116.5" font-family="Helvetica,sans-Serif" font-size="10.00">transport.h</text>
</a>
</g>
</g>
<!-- Node2&#45;&gt;Node7 -->
<g id="edge9" class="edge"><title>Node2&#45;&gt;Node7</title>
<path fill="none" stroke="midnightblue" d="M152.42,-165.45C161.556,-157.512 175.739,-145.189 186.946,-135.452"/>
<polygon fill="midnightblue" stroke="midnightblue" points="189.55,-137.826 194.803,-128.625 184.959,-132.542 189.55,-137.826"/>
</g>
<!-- Node8 -->
<g id="node9" class="node"><title>Node8</title>
<polygon fill="white" stroke="#bfbfbf" points="243.429,-55.5 243.429,-73.5 288.882,-73.5 288.882,-55.5 243.429,-55.5"/>
<text text-anchor="middle" x="266.155" y="-61.5" font-family="Helvetica,sans-Serif" font-size="10.00">cstring</text>
</g>
<!-- Node2&#45;&gt;Node8 -->
<g id="edge13" class="edge"><title>Node2&#45;&gt;Node8</title>
<path fill="none" stroke="midnightblue" d="M168.835,-168.518C191.84,-162.773 224.976,-151.127 245.155,-129 256.525,-116.533 261.753,-97.7595 264.149,-83.8558"/>
<polygon fill="midnightblue" stroke="midnightblue" points="267.669,-83.9519 265.568,-73.5675 260.734,-82.9956 267.669,-83.9519"/>
</g>
<!-- Node3&#45;&gt;Node4 -->
<g id="edge4" class="edge"><title>Node3&#45;&gt;Node4</title>
<path fill="none" stroke="midnightblue" d="M132.676,-55.4504C122.138,-47.3566 105.666,-34.7042 92.8791,-24.8822"/>
<polygon fill="midnightblue" stroke="midnightblue" points="94.796,-21.9412 84.7334,-18.6253 90.5319,-27.4926 94.796,-21.9412"/>
</g>
<!-- Node5&#45;&gt;Node3 -->
<g id="edge6" class="edge"><title>Node5&#45;&gt;Node3</title>
<path fill="none" stroke="midnightblue" d="M74.4573,-110.45C87.065,-102.201 106.91,-89.2158 122.036,-79.3187"/>
<polygon fill="midnightblue" stroke="midnightblue" points="124.286,-82.0294 130.737,-73.6253 120.453,-76.1719 124.286,-82.0294"/>
</g>
<!-- Node5&#45;&gt;Node4 -->
<g id="edge8" class="edge"><title>Node5&#45;&gt;Node4</title>
<path fill="none" stroke="midnightblue" d="M51.1144,-110.218C36.8218,-98.414 14.7934,-75.8645 24.1552,-55 29.8043,-42.4098 40.9712,-31.9248 51.3213,-24.301"/>
<polygon fill="midnightblue" stroke="midnightblue" points="53.4022,-27.1181 59.6842,-18.5865 49.453,-21.3385 53.4022,-27.1181"/>
</g>
<!-- Node6 -->
<g id="node7" class="node"><title>Node6</title>
<polygon fill="white" stroke="#bfbfbf" points="33.0346,-55.5 33.0346,-73.5 81.2758,-73.5 81.2758,-55.5 33.0346,-55.5"/>
<text text-anchor="middle" x="57.1552" y="-61.5" font-family="Helvetica,sans-Serif" font-size="10.00">cstddef</text>
</g>
<!-- Node5&#45;&gt;Node6 -->
<g id="edge7" class="edge"><title>Node5&#45;&gt;Node6</title>
<path fill="none" stroke="midnightblue" d="M61.3739,-110.219C60.7022,-103.099 59.7096,-92.5775 58.856,-83.5289"/>
<polygon fill="midnightblue" stroke="midnightblue" points="62.3384,-83.1766 57.9146,-73.5496 55.3693,-83.8341 62.3384,-83.1766"/>
</g>
<!-- Node7&#45;&gt;Node3 -->
<g id="edge10" class="edge"><title>Node7&#45;&gt;Node3</title>
<path fill="none" stroke="midnightblue" d="M194.891,-110.45C185.754,-102.512 171.571,-90.1891 160.364,-80.4519"/>
<polygon fill="midnightblue" stroke="midnightblue" points="162.351,-77.542 152.507,-73.6253 157.76,-82.8261 162.351,-77.542"/>
</g>
<!-- Node7&#45;&gt;Node4 -->
<g id="edge12" class="edge"><title>Node7&#45;&gt;Node4</title>
<path fill="none" stroke="midnightblue" d="M205.578,-110.478C207.425,-97.3579 209.041,-71.1586 196.155,-55 175.091,-28.5849 136.883,-17.8467 108.82,-13.4832"/>
<polygon fill="midnightblue" stroke="midnightblue" points="108.997,-9.9754 98.618,-12.1036 108.059,-16.9123 108.997,-9.9754"/>
</g>
<!-- Node7&#45;&gt;Node8 -->
<g id="edge11" class="edge"><title>Node7&#45;&gt;Node8</title>
<path fill="none" stroke="midnightblue" d="M213.572,-110.45C222.949,-102.434 237.557,-89.9471 248.998,-80.1663"/>
<polygon fill="midnightblue" stroke="midnightblue" points="251.323,-82.7836 256.65,-73.6253 246.775,-77.4627 251.323,-82.7836"/>
</g>
</g>
</svg>
