<?xml version="1.0" encoding="UTF-8" standalone="no"?>
<!DOCTYPE svg PUBLIC "-//W3C//DTD SVG 1.1//EN"
 "http://www.w3.org/Graphics/SVG/1.1/DTD/svg11.dtd">
<!-- Generated by graphviz version 2.38.0 (20140413.2041)
 -->
<!-- Title: erpc::BasicCodec Pages: 1 -->
<svg width="242pt" height="158pt"
 viewBox="0.00 0.00 242.09 158.00" xmlns="http://www.w3.org/2000/svg" xmlns:xlink="http://www.w3.org/1999/xlink">
<g id="graph0" class="graph" transform="scale(1 1) rotate(0) translate(4 154)">
<title>erpc::BasicCodec</title>
<polygon fill="white" stroke="none" points="-4,4 -4,-154 238.09,-154 238.09,4 -4,4"/>
<!-- Node2 -->
<g id="node1" class="node"><title>Node2</title>
<polygon fill="#bfbfbf" stroke="black" points="69.8604,-0.5 69.8604,-18.5 164.229,-18.5 164.229,-0.5 69.8604,-0.5"/>
<text text-anchor="middle" x="117.045" y="-6.5" font-family="Helvetica,sans-Serif" font-size="10.00">erpc::BasicCodec</text>
</g>
<!-- Node3 -->
<g id="node2" class="node"><title>Node3</title>
<g id="a_node2"><a xlink:href="classerpc_1_1_codec.html" target="_top" xlink:title="Abstract serialization encoder/decoder interface. ">
<polygon fill="white" stroke="black" points="82.0869,-56.5 82.0869,-74.5 152.003,-74.5 152.003,-56.5 82.0869,-56.5"/>
<text text-anchor="middle" x="117.045" y="-62.5" font-family="Helvetica,sans-Serif" font-size="10.00">erpc::Codec</text>
</a>
</g>
</g>
<!-- Node3&#45;&gt;Node2 -->
<g id="edge1" class="edge"><title>Node3&#45;&gt;Node2</title>
<path fill="none" stroke="midnightblue" d="M117.045,-45.8288C117.045,-36.5774 117.045,-25.8798 117.045,-18.7014"/>
<polygon fill="midnightblue" stroke="midnightblue" points="113.545,-46.0625 117.045,-56.0625 120.545,-46.0625 113.545,-46.0625"/>
</g>
<!-- Node4 -->
<g id="node3" class="node"><title>Node4</title>
<g id="a_node3"><a xlink:href="classerpc_1_1_message_buffer_1_1_cursor.html" target="_top" xlink:title="Cursor within a MessageBuffer. ">
<polygon fill="white" stroke="black" points="0,-121.5 0,-149.5 108.09,-149.5 108.09,-121.5 0,-121.5"/>
<text text-anchor="start" x="8" y="-137.5" font-family="Helvetica,sans-Serif" font-size="10.00">erpc::MessageBuffer</text>
<text text-anchor="middle" x="54.0449" y="-127.5" font-family="Helvetica,sans-Serif" font-size="10.00">::Cursor</text>
</a>
</g>
</g>
<!-- Node4&#45;&gt;Node3 -->
<g id="edge2" class="edge"><title>Node4&#45;&gt;Node3</title>
<path fill="none" stroke="#9a32cd" stroke-dasharray="5,2" d="M73.2856,-113.732C85.4018,-100.654 100.385,-84.4819 109.304,-74.8552"/>
<polygon fill="#9a32cd" stroke="#9a32cd" points="70.4207,-111.675 66.192,-121.389 75.5557,-116.432 70.4207,-111.675"/>
<text text-anchor="middle" x="114.271" y="-95" font-family="Helvetica,sans-Serif" font-size="10.00"> m_cursor</text>
</g>
<!-- Node5 -->
<g id="node4" class="node"><title>Node5</title>
<g id="a_node4"><a xlink:href="classerpc_1_1_message_buffer.html" target="_top" xlink:title="Represents a memory buffer containing a message. ">
<polygon fill="white" stroke="black" points="126,-126.5 126,-144.5 234.09,-144.5 234.09,-126.5 126,-126.5"/>
<text text-anchor="middle" x="180.045" y="-132.5" font-family="Helvetica,sans-Serif" font-size="10.00">erpc::MessageBuffer</text>
</a>
</g>
</g>
<!-- Node5&#45;&gt;Node3 -->
<g id="edge3" class="edge"><title>Node5&#45;&gt;Node3</title>
<path fill="none" stroke="#9a32cd" stroke-dasharray="5,2" d="M165.762,-119.084C152.945,-105.25 134.64,-85.4915 124.51,-74.557"/>
<polygon fill="#9a32cd" stroke="#9a32cd" points="163.207,-121.476 172.571,-126.432 168.342,-116.718 163.207,-121.476"/>
<text text-anchor="middle" x="171.078" y="-95" font-family="Helvetica,sans-Serif" font-size="10.00"> m_buffer</text>
</g>
</g>
</svg>
