<?xml version="1.0" encoding="UTF-8" standalone="no"?>
<!DOCTYPE svg PUBLIC "-//W3C//DTD SVG 1.1//EN"
 "http://www.w3.org/Graphics/SVG/1.1/DTD/svg11.dtd">
<!-- Generated by graphviz version 2.38.0 (20140413.2041)
 -->
<!-- Title: erpc::TransportArbitrator Pages: 1 -->
<svg width="919pt" height="192pt"
 viewBox="0.00 0.00 919.35 192.00" xmlns="http://www.w3.org/2000/svg" xmlns:xlink="http://www.w3.org/1999/xlink">
<g id="graph0" class="graph" transform="scale(1 1) rotate(0) translate(4 188)">
<title>erpc::TransportArbitrator</title>
<polygon fill="white" stroke="none" points="-4,4 -4,-188 915.349,-188 915.349,4 -4,4"/>
<!-- Node2 -->
<g id="node1" class="node"><title>Node2</title>
<polygon fill="#bfbfbf" stroke="black" points="786.789,-112.5 786.789,-130.5 911.349,-130.5 911.349,-112.5 786.789,-112.5"/>
<text text-anchor="middle" x="849.069" y="-118.5" font-family="Helvetica,sans-Serif" font-size="10.00">erpc::TransportArbitrator</text>
</g>
<!-- Node3 -->
<g id="node2" class="node"><title>Node3</title>
<g id="a_node2"><a xlink:href="classerpc_1_1_transport.html" target="_top" xlink:title="Abstract interface for transport layer. ">
<polygon fill="white" stroke="black" points="557.118,-165.5 557.118,-183.5 640.555,-183.5 640.555,-165.5 557.118,-165.5"/>
<text text-anchor="middle" x="598.836" y="-171.5" font-family="Helvetica,sans-Serif" font-size="10.00">erpc::Transport</text>
</a>
</g>
</g>
<!-- Node3&#45;&gt;Node2 -->
<g id="edge1" class="edge"><title>Node3&#45;&gt;Node2</title>
<path fill="none" stroke="midnightblue" d="M650.833,-163.612C696.575,-153.845 762.91,-139.682 805.771,-130.531"/>
<polygon fill="midnightblue" stroke="midnightblue" points="649.876,-160.237 640.827,-165.748 651.337,-167.083 649.876,-160.237"/>
</g>
<!-- Node3&#45;&gt;Node2 -->
<g id="edge6" class="edge"><title>Node3&#45;&gt;Node2</title>
<path fill="none" stroke="#9a32cd" stroke-dasharray="5,2" d="M650.932,-173.671C684.856,-172.076 730.095,-167.929 768.789,-157.5 791.85,-151.285 816.644,-139.028 832.248,-130.555"/>
<polygon fill="#9a32cd" stroke="#9a32cd" points="650.635,-170.18 640.787,-174.089 650.923,-177.175 650.635,-170.18"/>
<text text-anchor="middle" x="723.953" y="-173.5" font-family="Helvetica,sans-Serif" font-size="10.00"> m_sharedTransport</text>
</g>
<!-- Node4 -->
<g id="node3" class="node"><title>Node4</title>
<g id="a_node3"><a xlink:href="classerpc_1_1_mutex.html" target="_top" xlink:title="Mutex. ">
<polygon fill="white" stroke="black" points="564.716,-118.5 564.716,-136.5 632.957,-136.5 632.957,-118.5 564.716,-118.5"/>
<text text-anchor="middle" x="598.836" y="-124.5" font-family="Helvetica,sans-Serif" font-size="10.00">erpc::Mutex</text>
</a>
</g>
</g>
<!-- Node4&#45;&gt;Node2 -->
<g id="edge2" class="edge"><title>Node4&#45;&gt;Node2</title>
<path fill="none" stroke="#9a32cd" stroke-dasharray="5,2" d="M642.986,-124.33C654.701,-123.592 667.39,-122.904 679.116,-122.5 714.734,-121.272 754.6,-120.985 786.659,-121.021"/>
<polygon fill="#9a32cd" stroke="#9a32cd" points="642.738,-120.839 632.989,-124.986 643.197,-127.824 642.738,-120.839"/>
<text text-anchor="middle" x="723.953" y="-124.5" font-family="Helvetica,sans-Serif" font-size="10.00"> m_clientListMutex</text>
</g>
<!-- Node5 -->
<g id="node4" class="node"><title>Node5</title>
<g id="a_node4"><a xlink:href="classerpc_1_1_codec.html" target="_top" xlink:title="Abstract serialization encoder/decoder interface. ">
<polygon fill="white" stroke="black" points="188.543,-21.5 188.543,-39.5 258.459,-39.5 258.459,-21.5 188.543,-21.5"/>
<text text-anchor="middle" x="223.501" y="-27.5" font-family="Helvetica,sans-Serif" font-size="10.00">erpc::Codec</text>
</a>
</g>
</g>
<!-- Node5&#45;&gt;Node2 -->
<g id="edge3" class="edge"><title>Node5&#45;&gt;Node2</title>
<path fill="none" stroke="#9a32cd" stroke-dasharray="5,2" d="M268.666,-25.9028C347.995,-18.7275 519.546,-8.14928 661.116,-33.5 711.216,-42.4713 722.971,-50.3362 768.789,-72.5 793.405,-84.4078 820.071,-101.948 835.352,-112.495"/>
<polygon fill="#9a32cd" stroke="#9a32cd" points="268.182,-22.4327 258.55,-26.8451 268.831,-29.4025 268.182,-22.4327"/>
<text text-anchor="middle" x="493.544" y="-21.5" font-family="Helvetica,sans-Serif" font-size="10.00"> m_codec</text>
</g>
<!-- Node10 -->
<g id="node9" class="node"><title>Node10</title>
<g id="a_node9"><a xlink:href="classerpc_1_1_request_context.html" target="_top" xlink:title="Encapsulates all information about a request. ">
<polygon fill="white" stroke="black" points="337.813,-80.5 337.813,-98.5 450.532,-98.5 450.532,-80.5 337.813,-80.5"/>
<text text-anchor="middle" x="394.173" y="-86.5" font-family="Helvetica,sans-Serif" font-size="10.00">erpc::RequestContext</text>
</a>
</g>
</g>
<!-- Node5&#45;&gt;Node10 -->
<g id="edge11" class="edge"><title>Node5&#45;&gt;Node10</title>
<path fill="none" stroke="#9a32cd" stroke-dasharray="5,2" d="M259.853,-43.0688C282.191,-50.9883 311.672,-61.4002 337.813,-70.5 347.218,-73.7737 357.535,-77.3254 366.687,-80.4624"/>
<polygon fill="#9a32cd" stroke="#9a32cd" points="260.725,-39.6644 250.13,-39.6191 258.384,-46.2615 260.725,-39.6644"/>
<text text-anchor="middle" x="298.136" y="-66.5" font-family="Helvetica,sans-Serif" font-size="10.00"> m_codec</text>
</g>
<!-- Node6 -->
<g id="node5" class="node"><title>Node6</title>
<g id="a_node5"><a xlink:href="classerpc_1_1_message_buffer_1_1_cursor.html" target="_top" xlink:title="Cursor within a MessageBuffer. ">
<polygon fill="white" stroke="black" points="0,-37.5 0,-65.5 108.09,-65.5 108.09,-37.5 0,-37.5"/>
<text text-anchor="start" x="8" y="-53.5" font-family="Helvetica,sans-Serif" font-size="10.00">erpc::MessageBuffer</text>
<text text-anchor="middle" x="54.0449" y="-43.5" font-family="Helvetica,sans-Serif" font-size="10.00">::Cursor</text>
</a>
</g>
</g>
<!-- Node6&#45;&gt;Node5 -->
<g id="edge4" class="edge"><title>Node6&#45;&gt;Node5</title>
<path fill="none" stroke="#9a32cd" stroke-dasharray="5,2" d="M118.515,-43.5405C142.296,-40.5582 168.396,-37.2851 188.499,-34.7641"/>
<polygon fill="#9a32cd" stroke="#9a32cd" points="117.976,-40.0805 108.489,-44.7977 118.847,-47.0261 117.976,-40.0805"/>
<text text-anchor="middle" x="148.316" y="-44.5" font-family="Helvetica,sans-Serif" font-size="10.00"> m_cursor</text>
</g>
<!-- Node7 -->
<g id="node6" class="node"><title>Node7</title>
<g id="a_node6"><a xlink:href="classerpc_1_1_message_buffer.html" target="_top" xlink:title="Represents a memory buffer containing a message. ">
<polygon fill="white" stroke="black" points="0,-0.5 0,-18.5 108.09,-18.5 108.09,-0.5 0,-0.5"/>
<text text-anchor="middle" x="54.0449" y="-6.5" font-family="Helvetica,sans-Serif" font-size="10.00">erpc::MessageBuffer</text>
</a>
</g>
</g>
<!-- Node7&#45;&gt;Node5 -->
<g id="edge5" class="edge"><title>Node7&#45;&gt;Node5</title>
<path fill="none" stroke="#9a32cd" stroke-dasharray="5,2" d="M118.574,-17.0467C135.469,-19.0959 153.702,-21.345 170.543,-23.5 176.321,-24.2394 182.458,-25.0466 188.412,-25.8415"/>
<polygon fill="#9a32cd" stroke="#9a32cd" points="118.599,-13.5244 108.251,-15.7993 117.759,-20.4738 118.599,-13.5244"/>
<text text-anchor="middle" x="148.316" y="-25.5" font-family="Helvetica,sans-Serif" font-size="10.00"> m_buffer</text>
</g>
<!-- Node8 -->
<g id="node7" class="node"><title>Node8</title>
<g id="a_node7"><a xlink:href="structerpc_1_1_transport_arbitrator_1_1_pending_client_info.html" target="_top" xlink:title="Request info for a client trying to receive a response. ">
<polygon fill="white" stroke="black" points="536.557,-43.5 536.557,-71.5 661.116,-71.5 661.116,-43.5 536.557,-43.5"/>
<text text-anchor="start" x="544.557" y="-59.5" font-family="Helvetica,sans-Serif" font-size="10.00">erpc::TransportArbitrator</text>
<text text-anchor="middle" x="598.836" y="-49.5" font-family="Helvetica,sans-Serif" font-size="10.00">::PendingClientInfo</text>
</a>
</g>
</g>
<!-- Node8&#45;&gt;Node2 -->
<g id="edge7" class="edge"><title>Node8&#45;&gt;Node2</title>
<path fill="none" stroke="#9a32cd" stroke-dasharray="5,2" d="M671.47,-73.4336C701.623,-80.4059 737.018,-88.9389 768.789,-97.5 785.729,-102.065 804.529,-107.729 819.568,-112.409"/>
<polygon fill="#9a32cd" stroke="#9a32cd" points="671.988,-69.9615 661.458,-71.1312 670.419,-76.7834 671.988,-69.9615"/>
<text text-anchor="middle" x="723.953" y="-109.5" font-family="Helvetica,sans-Serif" font-size="10.00"> m_clientFreeList</text>
<text text-anchor="middle" x="723.953" y="-99.5" font-family="Helvetica,sans-Serif" font-size="10.00">m_clientList</text>
</g>
<!-- Node8&#45;&gt;Node8 -->
<g id="edge9" class="edge"><title>Node8&#45;&gt;Node8</title>
<path fill="none" stroke="#9a32cd" stroke-dasharray="5,2" d="M580.036,-81.4873C582.033,-86.4413 588.299,-90 598.836,-90 615.696,-90 621.623,-80.8898 616.618,-71.5305"/>
<polygon fill="#9a32cd" stroke="#9a32cd" points="583.519,-81.8348 581.055,-71.5305 576.555,-81.1223 583.519,-81.8348"/>
<text text-anchor="middle" x="598.836" y="-92" font-family="Helvetica,sans-Serif" font-size="10.00"> m_next</text>
</g>
<!-- Node9 -->
<g id="node8" class="node"><title>Node9</title>
<g id="a_node8"><a xlink:href="classerpc_1_1_semaphore.html" target="_top" xlink:title="Simple semaphore class. ">
<polygon fill="white" stroke="black" points="347.818,-43.5 347.818,-61.5 440.527,-61.5 440.527,-43.5 347.818,-43.5"/>
<text text-anchor="middle" x="394.173" y="-49.5" font-family="Helvetica,sans-Serif" font-size="10.00">erpc::Semaphore</text>
</a>
</g>
</g>
<!-- Node9&#45;&gt;Node8 -->
<g id="edge8" class="edge"><title>Node9&#45;&gt;Node8</title>
<path fill="none" stroke="#9a32cd" stroke-dasharray="5,2" d="M450.725,-53.8399C471.949,-54.3547 496.375,-54.9505 518.557,-55.5 524.338,-55.6432 530.355,-55.7932 536.377,-55.944"/>
<polygon fill="#9a32cd" stroke="#9a32cd" points="450.669,-50.3376 440.587,-53.5943 450.499,-57.3356 450.669,-50.3376"/>
<text text-anchor="middle" x="493.544" y="-57.5" font-family="Helvetica,sans-Serif" font-size="10.00"> m_sem</text>
</g>
<!-- Node10&#45;&gt;Node8 -->
<g id="edge10" class="edge"><title>Node10&#45;&gt;Node8</title>
<path fill="none" stroke="#9a32cd" stroke-dasharray="5,2" d="M460.434,-79.1954C484.829,-75.3435 512.432,-70.9852 536.463,-67.1906"/>
<polygon fill="#9a32cd" stroke="#9a32cd" points="459.883,-75.739 450.552,-80.7559 460.975,-82.6533 459.883,-75.739"/>
<text text-anchor="middle" x="493.544" y="-79.5" font-family="Helvetica,sans-Serif" font-size="10.00"> m_request</text>
</g>
</g>
</svg>
