<?xml version="1.0" encoding="UTF-8" standalone="no"?>
<!DOCTYPE svg PUBLIC "-//W3C//DTD SVG 1.1//EN"
 "http://www.w3.org/Graphics/SVG/1.1/DTD/svg11.dtd">
<!-- Generated by graphviz version 2.38.0 (20140413.2041)
 -->
<!-- Title: erpc::MessageBufferFactory Pages: 1 -->
<svg width="308pt" height="92pt"
 viewBox="0.00 0.00 308.15 92.00" xmlns="http://www.w3.org/2000/svg" xmlns:xlink="http://www.w3.org/1999/xlink">
<g id="graph0" class="graph" transform="scale(1 1) rotate(0) translate(4 88)">
<title>erpc::MessageBufferFactory</title>
<polygon fill="white" stroke="none" points="-4,4 -4,-88 304.151,-88 304.151,4 -4,4"/>
<!-- Node0 -->
<g id="node1" class="node"><title>Node0</title>
<polygon fill="#bfbfbf" stroke="black" points="158.722,-65.5 158.722,-83.5 300.151,-83.5 300.151,-65.5 158.722,-65.5"/>
<text text-anchor="middle" x="229.437" y="-71.5" font-family="Helvetica,sans-Serif" font-size="10.00">erpc::MessageBufferFactory</text>
</g>
<!-- Node1 -->
<g id="node2" class="node"><title>Node1</title>
<g id="a_node2"><a xlink:href="class_basic_message_buffer_factory.html" target="_top" xlink:title="BasicMessageBufferFactory">
<polygon fill="white" stroke="black" points="0,-5.5 0,-23.5 140.873,-23.5 140.873,-5.5 0,-5.5"/>
<text text-anchor="middle" x="70.4365" y="-11.5" font-family="Helvetica,sans-Serif" font-size="10.00">BasicMessageBufferFactory</text>
</a>
</g>
</g>
<!-- Node0&#45;&gt;Node1 -->
<g id="edge1" class="edge"><title>Node0&#45;&gt;Node1</title>
<path fill="none" stroke="midnightblue" d="M197.817,-61.9658C166.697,-50.614 119.979,-33.572 92.6127,-23.5894"/>
<polygon fill="midnightblue" stroke="midnightblue" points="196.734,-65.2964 207.328,-65.4353 199.133,-58.7203 196.734,-65.2964"/>
</g>
<!-- Node2 -->
<g id="node3" class="node"><title>Node2</title>
<g id="a_node3"><a xlink:href="classerpc_1_1_r_p_msg_message_buffer_factory.html" target="_top" xlink:title="Message buffer factory used with RPMsg transport layer. ">
<polygon fill="white" stroke="black" points="159,-0.5 159,-28.5 299.873,-28.5 299.873,-0.5 159,-0.5"/>
<text text-anchor="start" x="167" y="-16.5" font-family="Helvetica,sans-Serif" font-size="10.00">erpc::RPMsgMessageBuffer</text>
<text text-anchor="middle" x="229.437" y="-6.5" font-family="Helvetica,sans-Serif" font-size="10.00">Factory</text>
</a>
</g>
</g>
<!-- Node0&#45;&gt;Node2 -->
<g id="edge2" class="edge"><title>Node0&#45;&gt;Node2</title>
<path fill="none" stroke="midnightblue" d="M210.724,-56.1828C208.293,-47.4268 208.745,-36.9648 212.079,-28.8428"/>
<polygon fill="midnightblue" stroke="midnightblue" points="207.597,-57.7616 214.902,-65.4353 213.976,-54.881 207.597,-57.7616"/>
</g>
<!-- Node0&#45;&gt;Node2 -->
<g id="edge3" class="edge"><title>Node0&#45;&gt;Node2</title>
<path fill="none" stroke="midnightblue" d="M223.123,-55.3209C222.4,-46.747 222.576,-36.6999 223.651,-28.8428"/>
<polygon fill="midnightblue" stroke="midnightblue" points="219.691,-56.0421 224.592,-65.4353 226.618,-55.0361 219.691,-56.0421"/>
</g>
<!-- Node0&#45;&gt;Node2 -->
<g id="edge4" class="edge"><title>Node0&#45;&gt;Node2</title>
<path fill="none" stroke="midnightblue" d="M235.75,-55.3209C236.473,-46.747 236.298,-36.6999 235.222,-28.8428"/>
<polygon fill="midnightblue" stroke="midnightblue" points="232.255,-55.0361 234.281,-65.4353 239.182,-56.0421 232.255,-55.0361"/>
</g>
<!-- Node0&#45;&gt;Node2 -->
<g id="edge5" class="edge"><title>Node0&#45;&gt;Node2</title>
<path fill="none" stroke="midnightblue" d="M248.149,-56.1828C250.58,-47.4268 250.128,-36.9648 246.794,-28.8428"/>
<polygon fill="midnightblue" stroke="midnightblue" points="244.897,-54.881 243.971,-65.4353 251.277,-57.7616 244.897,-54.881"/>
</g>
</g>
</svg>
