<?xml version="1.0" encoding="UTF-8" standalone="no"?>
<!DOCTYPE svg PUBLIC "-//W3C//DTD SVG 1.1//EN"
 "http://www.w3.org/Graphics/SVG/1.1/DTD/svg11.dtd">
<!-- Generated by graphviz version 2.38.0 (20140413.2041)
 -->
<!-- Title: erpc::FramedTransport Pages: 1 -->
<svg width="194pt" height="102pt"
 viewBox="0.00 0.00 193.97 102.00" xmlns="http://www.w3.org/2000/svg" xmlns:xlink="http://www.w3.org/1999/xlink">
<g id="graph0" class="graph" transform="scale(1 1) rotate(0) translate(4 98)">
<title>erpc::FramedTransport</title>
<polygon fill="white" stroke="none" points="-4,4 -4,-98 189.969,-98 189.969,4 -4,4"/>
<!-- Node9 -->
<g id="node1" class="node"><title>Node9</title>
<polygon fill="#bfbfbf" stroke="black" points="29.7734,-0.5 29.7734,-18.5 147.663,-18.5 147.663,-0.5 29.7734,-0.5"/>
<text text-anchor="middle" x="88.7183" y="-6.5" font-family="Helvetica,sans-Serif" font-size="10.00">erpc::FramedTransport</text>
</g>
<!-- Node10 -->
<g id="node2" class="node"><title>Node10</title>
<g id="a_node2"><a xlink:href="classerpc_1_1_transport.html" target="_top" xlink:title="Abstract interface for transport layer. ">
<polygon fill="white" stroke="black" points="0,-75.5 0,-93.5 83.4365,-93.5 83.4365,-75.5 0,-75.5"/>
<text text-anchor="middle" x="41.7183" y="-81.5" font-family="Helvetica,sans-Serif" font-size="10.00">erpc::Transport</text>
</a>
</g>
</g>
<!-- Node10&#45;&gt;Node9 -->
<g id="edge1" class="edge"><title>Node10&#45;&gt;Node9</title>
<path fill="none" stroke="midnightblue" d="M52.5689,-66.6469C62.2021,-51.6846 75.8751,-30.4479 83.3411,-18.8518"/>
<polygon fill="midnightblue" stroke="midnightblue" points="49.3983,-65.106 46.9277,-75.4088 55.2839,-68.8955 49.3983,-65.106"/>
</g>
<!-- Node11 -->
<g id="node3" class="node"><title>Node11</title>
<g id="a_node3"><a xlink:href="classerpc_1_1_mutex.html" target="_top" xlink:title="Mutex. ">
<polygon fill="white" stroke="black" points="101.598,-75.5 101.598,-93.5 169.839,-93.5 169.839,-75.5 101.598,-75.5"/>
<text text-anchor="middle" x="135.718" y="-81.5" font-family="Helvetica,sans-Serif" font-size="10.00">erpc::Mutex</text>
</a>
</g>
</g>
<!-- Node11&#45;&gt;Node9 -->
<g id="edge2" class="edge"><title>Node11&#45;&gt;Node9</title>
<path fill="none" stroke="#9a32cd" stroke-dasharray="5,2" d="M124.868,-66.6469C115.234,-51.6846 101.561,-30.4479 94.0954,-18.8518"/>
<polygon fill="#9a32cd" stroke="#9a32cd" points="122.153,-68.8955 130.509,-75.4088 128.038,-65.106 122.153,-68.8955"/>
<text text-anchor="middle" x="152.344" y="-49" font-family="Helvetica,sans-Serif" font-size="10.00"> m_sendLock</text>
<text text-anchor="middle" x="152.344" y="-39" font-family="Helvetica,sans-Serif" font-size="10.00">m_receiveLock</text>
</g>
</g>
</svg>
