<?xml version="1.0" encoding="UTF-8" standalone="no"?>
<!DOCTYPE svg PUBLIC "-//W3C//DTD SVG 1.1//EN"
 "http://www.w3.org/Graphics/SVG/1.1/DTD/svg11.dtd">
<!-- Generated by graphviz version 2.38.0 (20140413.2041)
 -->
<!-- Title: erpc::Server Pages: 1 -->
<svg width="551pt" height="92pt"
 viewBox="0.00 0.00 551.14 92.00" xmlns="http://www.w3.org/2000/svg" xmlns:xlink="http://www.w3.org/1999/xlink">
<g id="graph0" class="graph" transform="scale(1 1) rotate(0) translate(4 88)">
<title>erpc::Server</title>
<polygon fill="white" stroke="none" points="-4,4 -4,-88 547.137,-88 547.137,4 -4,4"/>
<!-- Node2 -->
<g id="node1" class="node"><title>Node2</title>
<polygon fill="#bfbfbf" stroke="black" points="221.157,-0.5 221.157,-18.5 291.62,-18.5 291.62,-0.5 221.157,-0.5"/>
<text text-anchor="middle" x="256.388" y="-6.5" font-family="Helvetica,sans-Serif" font-size="10.00">erpc::Server</text>
</g>
<!-- Node3 -->
<g id="node2" class="node"><title>Node3</title>
<g id="a_node2"><a xlink:href="classerpc_1_1_transport_factory.html" target="_top" xlink:title="Abstract interface for transport factory. ">
<polygon fill="white" stroke="black" points="0,-65.5 0,-83.5 116.776,-83.5 116.776,-65.5 0,-65.5"/>
<text text-anchor="middle" x="58.3882" y="-71.5" font-family="Helvetica,sans-Serif" font-size="10.00">erpc::TransportFactory</text>
</a>
</g>
</g>
<!-- Node3&#45;&gt;Node2 -->
<g id="edge1" class="edge"><title>Node3&#45;&gt;Node2</title>
<path fill="none" stroke="#9a32cd" stroke-dasharray="5,2" d="M79.1019,-59.7665C91.6122,-52.0409 108.14,-42.809 123.916,-37 155.719,-25.2887 193.826,-18.3553 220.988,-14.5373"/>
<polygon fill="#9a32cd" stroke="#9a32cd" points="76.9595,-56.981 70.3974,-65.299 80.7144,-62.8887 76.9595,-56.981"/>
<text text-anchor="middle" x="169.125" y="-39" font-family="Helvetica,sans-Serif" font-size="10.00"> m_transportFactory</text>
</g>
<!-- Node4 -->
<g id="node3" class="node"><title>Node4</title>
<g id="a_node3"><a xlink:href="classerpc_1_1_codec_factory.html" target="_top" xlink:title="Abstract interface for codec factory. ">
<polygon fill="white" stroke="black" points="134.76,-65.5 134.76,-83.5 238.016,-83.5 238.016,-65.5 134.76,-65.5"/>
<text text-anchor="middle" x="186.388" y="-71.5" font-family="Helvetica,sans-Serif" font-size="10.00">erpc::CodecFactory</text>
</a>
</g>
</g>
<!-- Node4&#45;&gt;Node2 -->
<g id="edge2" class="edge"><title>Node4&#45;&gt;Node2</title>
<path fill="none" stroke="#9a32cd" stroke-dasharray="5,2" d="M203.011,-58.5397C216.938,-46.005 236.285,-28.5925 247.456,-18.539"/>
<polygon fill="#9a32cd" stroke="#9a32cd" points="200.631,-55.9726 195.539,-65.2639 205.314,-61.1757 200.631,-55.9726"/>
<text text-anchor="middle" x="264.735" y="-39" font-family="Helvetica,sans-Serif" font-size="10.00"> m_codecFactory</text>
</g>
<!-- Node5 -->
<g id="node4" class="node"><title>Node5</title>
<g id="a_node4"><a xlink:href="classerpc_1_1_message_buffer_factory.html" target="_top" xlink:title="Abstract interface for message buffer factory. ">
<polygon fill="white" stroke="black" points="255.673,-65.5 255.673,-83.5 397.103,-83.5 397.103,-65.5 255.673,-65.5"/>
<text text-anchor="middle" x="326.388" y="-71.5" font-family="Helvetica,sans-Serif" font-size="10.00">erpc::MessageBufferFactory</text>
</a>
</g>
</g>
<!-- Node5&#45;&gt;Node2 -->
<g id="edge3" class="edge"><title>Node5&#45;&gt;Node2</title>
<path fill="none" stroke="#9a32cd" stroke-dasharray="5,2" d="M318.297,-56.0078C314.692,-49.4965 309.985,-42.388 304.388,-37 296.296,-29.2098 285.466,-22.9709 276.141,-18.5083"/>
<polygon fill="#9a32cd" stroke="#9a32cd" points="315.407,-58.0519 323.025,-65.4149 321.661,-54.9082 315.407,-58.0519"/>
<text text-anchor="middle" x="358.681" y="-39" font-family="Helvetica,sans-Serif" font-size="10.00"> m_messageFactory</text>
</g>
<!-- Node6 -->
<g id="node5" class="node"><title>Node6</title>
<g id="a_node5"><a xlink:href="classerpc_1_1_service.html" target="_top" xlink:title="Abstract interface for service, which can be executed on server side. ">
<polygon fill="white" stroke="black" points="415.211,-65.5 415.211,-83.5 489.565,-83.5 489.565,-65.5 415.211,-65.5"/>
<text text-anchor="middle" x="452.388" y="-71.5" font-family="Helvetica,sans-Serif" font-size="10.00">erpc::Service</text>
</a>
</g>
</g>
<!-- Node6&#45;&gt;Node2 -->
<g id="edge4" class="edge"><title>Node6&#45;&gt;Node2</title>
<path fill="none" stroke="#9a32cd" stroke-dasharray="5,2" d="M437.823,-58.0877C429.841,-50.564 419.356,-42.0641 408.388,-37 370.936,-19.7076 323.538,-13.6304 291.713,-11.5328"/>
<polygon fill="#9a32cd" stroke="#9a32cd" points="435.597,-60.81 445.15,-65.3899 440.538,-55.8518 435.597,-60.81"/>
<text text-anchor="middle" x="457.45" y="-39" font-family="Helvetica,sans-Serif" font-size="10.00"> m_firstService</text>
</g>
<!-- Node6&#45;&gt;Node6 -->
<g id="edge5" class="edge"><title>Node6&#45;&gt;Node6</title>
<path fill="none" stroke="#9a32cd" stroke-dasharray="5,2" d="M499.847,-79.3972C504.564,-78.4176 507.565,-76.7852 507.565,-74.5 507.565,-70.8438 499.882,-68.8585 489.782,-68.5443"/>
<polygon fill="#9a32cd" stroke="#9a32cd" points="499.361,-75.929 489.782,-80.4557 500.094,-82.8906 499.361,-75.929"/>
<text text-anchor="middle" x="525.351" y="-71.5" font-family="Helvetica,sans-Serif" font-size="10.00"> m_next</text>
</g>
</g>
</svg>
