<?xml version="1.0" encoding="UTF-8" standalone="no"?>
<!DOCTYPE svg PUBLIC "-//W3C//DTD SVG 1.1//EN"
 "http://www.w3.org/Graphics/SVG/1.1/DTD/svg11.dtd">
<!-- Generated by graphviz version 2.38.0 (20140413.2041)
 -->
<!-- Title: erpc::RPMsgRTOSTransport Pages: 1 -->
<svg width="152pt" height="82pt"
 viewBox="0.00 0.00 151.65 82.00" xmlns="http://www.w3.org/2000/svg" xmlns:xlink="http://www.w3.org/1999/xlink">
<g id="graph0" class="graph" transform="scale(1 1) rotate(0) translate(4 78)">
<title>erpc::RPMsgRTOSTransport</title>
<polygon fill="white" stroke="none" points="-4,4 -4,-78 147.646,-78 147.646,4 -4,4"/>
<!-- Node2 -->
<g id="node1" class="node"><title>Node2</title>
<polygon fill="#bfbfbf" stroke="black" points="0,-0.5 0,-18.5 143.646,-18.5 143.646,-0.5 0,-0.5"/>
<text text-anchor="middle" x="71.8232" y="-6.5" font-family="Helvetica,sans-Serif" font-size="10.00">erpc::RPMsgRTOSTransport</text>
</g>
<!-- Node3 -->
<g id="node2" class="node"><title>Node3</title>
<g id="a_node2"><a xlink:href="classerpc_1_1_transport.html" target="_top" xlink:title="Abstract interface for transport layer. ">
<polygon fill="white" stroke="black" points="30.105,-55.5 30.105,-73.5 113.542,-73.5 113.542,-55.5 30.105,-55.5"/>
<text text-anchor="middle" x="71.8232" y="-61.5" font-family="Helvetica,sans-Serif" font-size="10.00">erpc::Transport</text>
</a>
</g>
</g>
<!-- Node3&#45;&gt;Node2 -->
<g id="edge1" class="edge"><title>Node3&#45;&gt;Node2</title>
<path fill="none" stroke="midnightblue" d="M65.3672,-45.1746C64.6944,-36.0945 65.1766,-25.5949 66.8139,-18.5496"/>
<polygon fill="midnightblue" stroke="midnightblue" points="61.9196,-45.7947 66.7607,-55.2188 68.8532,-44.8326 61.9196,-45.7947"/>
</g>
<!-- Node3&#45;&gt;Node2 -->
<g id="edge2" class="edge"><title>Node3&#45;&gt;Node2</title>
<path fill="none" stroke="midnightblue" d="M78.2793,-45.1746C78.9521,-36.0945 78.4699,-25.5949 76.8326,-18.5496"/>
<polygon fill="midnightblue" stroke="midnightblue" points="74.7933,-44.8326 76.8857,-55.2188 81.7269,-45.7947 74.7933,-44.8326"/>
</g>
</g>
</svg>
