<?xml version="1.0" encoding="UTF-8" standalone="no"?>
<!DOCTYPE svg PUBLIC "-//W3C//DTD SVG 1.1//EN"
 "http://www.w3.org/Graphics/SVG/1.1/DTD/svg11.dtd">
<!-- Generated by graphviz version 2.38.0 (20140413.2041)
 -->
<!-- Title: erpc::RequestContext Pages: 1 -->
<svg width="242pt" height="167pt"
 viewBox="0.00 0.00 242.09 167.00" xmlns="http://www.w3.org/2000/svg" xmlns:xlink="http://www.w3.org/1999/xlink">
<g id="graph0" class="graph" transform="scale(1 1) rotate(0) translate(4 163)">
<title>erpc::RequestContext</title>
<polygon fill="white" stroke="none" points="-4,4 -4,-163 238.09,-163 238.09,4 -4,4"/>
<!-- Node1 -->
<g id="node1" class="node"><title>Node1</title>
<polygon fill="#bfbfbf" stroke="black" points="60.6855,-0.5 60.6855,-18.5 173.404,-18.5 173.404,-0.5 60.6855,-0.5"/>
<text text-anchor="middle" x="117.045" y="-6.5" font-family="Helvetica,sans-Serif" font-size="10.00">erpc::RequestContext</text>
</g>
<!-- Node2 -->
<g id="node2" class="node"><title>Node2</title>
<g id="a_node2"><a xlink:href="classerpc_1_1_codec.html" target="_top" xlink:title="Abstract serialization encoder/decoder interface. ">
<polygon fill="white" stroke="black" points="82.0869,-65.5 82.0869,-83.5 152.003,-83.5 152.003,-65.5 82.0869,-65.5"/>
<text text-anchor="middle" x="117.045" y="-71.5" font-family="Helvetica,sans-Serif" font-size="10.00">erpc::Codec</text>
</a>
</g>
</g>
<!-- Node2&#45;&gt;Node1 -->
<g id="edge1" class="edge"><title>Node2&#45;&gt;Node1</title>
<path fill="none" stroke="#9a32cd" stroke-dasharray="5,2" d="M117.045,-54.9075C117.045,-42.8146 117.045,-27.6529 117.045,-18.539"/>
<polygon fill="#9a32cd" stroke="#9a32cd" points="113.545,-55.2638 117.045,-65.2639 120.545,-55.2639 113.545,-55.2638"/>
<text text-anchor="middle" x="138.722" y="-39" font-family="Helvetica,sans-Serif" font-size="10.00"> m_codec</text>
</g>
<!-- Node3 -->
<g id="node3" class="node"><title>Node3</title>
<g id="a_node3"><a xlink:href="classerpc_1_1_message_buffer_1_1_cursor.html" target="_top" xlink:title="Cursor within a MessageBuffer. ">
<polygon fill="white" stroke="black" points="0,-130.5 0,-158.5 108.09,-158.5 108.09,-130.5 0,-130.5"/>
<text text-anchor="start" x="8" y="-146.5" font-family="Helvetica,sans-Serif" font-size="10.00">erpc::MessageBuffer</text>
<text text-anchor="middle" x="54.0449" y="-136.5" font-family="Helvetica,sans-Serif" font-size="10.00">::Cursor</text>
</a>
</g>
</g>
<!-- Node3&#45;&gt;Node2 -->
<g id="edge2" class="edge"><title>Node3&#45;&gt;Node2</title>
<path fill="none" stroke="#9a32cd" stroke-dasharray="5,2" d="M73.2856,-122.732C85.4018,-109.654 100.385,-93.4819 109.304,-83.8552"/>
<polygon fill="#9a32cd" stroke="#9a32cd" points="70.4207,-120.675 66.192,-130.389 75.5557,-125.432 70.4207,-120.675"/>
<text text-anchor="middle" x="114.271" y="-104" font-family="Helvetica,sans-Serif" font-size="10.00"> m_cursor</text>
</g>
<!-- Node4 -->
<g id="node4" class="node"><title>Node4</title>
<g id="a_node4"><a xlink:href="classerpc_1_1_message_buffer.html" target="_top" xlink:title="Represents a memory buffer containing a message. ">
<polygon fill="white" stroke="black" points="126,-135.5 126,-153.5 234.09,-153.5 234.09,-135.5 126,-135.5"/>
<text text-anchor="middle" x="180.045" y="-141.5" font-family="Helvetica,sans-Serif" font-size="10.00">erpc::MessageBuffer</text>
</a>
</g>
</g>
<!-- Node4&#45;&gt;Node2 -->
<g id="edge3" class="edge"><title>Node4&#45;&gt;Node2</title>
<path fill="none" stroke="#9a32cd" stroke-dasharray="5,2" d="M165.762,-128.084C152.945,-114.25 134.64,-94.4915 124.51,-83.557"/>
<polygon fill="#9a32cd" stroke="#9a32cd" points="163.207,-130.476 172.571,-135.432 168.342,-125.718 163.207,-130.476"/>
<text text-anchor="middle" x="171.078" y="-104" font-family="Helvetica,sans-Serif" font-size="10.00"> m_buffer</text>
</g>
</g>
</svg>
