<?xml version="1.0" encoding="UTF-8" standalone="no"?>
<!DOCTYPE svg PUBLIC "-//W3C//DTD SVG 1.1//EN"
 "http://www.w3.org/Graphics/SVG/1.1/DTD/svg11.dtd">
<!-- Generated by graphviz version 2.38.0 (20140413.2041)
 -->
<!-- Title: erpc::RPMsgTransport Pages: 1 -->
<svg width="565pt" height="132pt"
 viewBox="0.00 0.00 565.06 132.00" xmlns="http://www.w3.org/2000/svg" xmlns:xlink="http://www.w3.org/1999/xlink">
<g id="graph0" class="graph" transform="scale(1 1) rotate(0) translate(4 128)">
<title>erpc::RPMsgTransport</title>
<polygon fill="white" stroke="none" points="-4,4 -4,-128 561.06,-128 561.06,4 -4,4"/>
<!-- Node2 -->
<g id="node1" class="node"><title>Node2</title>
<polygon fill="#bfbfbf" stroke="black" points="440.84,-83.5 440.84,-101.5 557.06,-101.5 557.06,-83.5 440.84,-83.5"/>
<text text-anchor="middle" x="498.95" y="-89.5" font-family="Helvetica,sans-Serif" font-size="10.00">erpc::RPMsgTransport</text>
</g>
<!-- Node3 -->
<g id="node2" class="node"><title>Node3</title>
<g id="a_node2"><a xlink:href="classerpc_1_1_transport.html" target="_top" xlink:title="Abstract interface for transport layer. ">
<polygon fill="white" stroke="black" points="186.369,-105.5 186.369,-123.5 269.806,-123.5 269.806,-105.5 186.369,-105.5"/>
<text text-anchor="middle" x="228.087" y="-111.5" font-family="Helvetica,sans-Serif" font-size="10.00">erpc::Transport</text>
</a>
</g>
</g>
<!-- Node3&#45;&gt;Node2 -->
<g id="edge1" class="edge"><title>Node3&#45;&gt;Node2</title>
<path fill="none" stroke="midnightblue" d="M279.932,-104.918C325.753,-99.4742 393.055,-93.8937 440.741,-91.539"/>
<polygon fill="midnightblue" stroke="midnightblue" points="279.42,-101.455 269.922,-106.149 280.274,-108.402 279.42,-101.455"/>
</g>
<!-- Node3&#45;&gt;Node2 -->
<g id="edge2" class="edge"><title>Node3&#45;&gt;Node2</title>
<path fill="none" stroke="midnightblue" d="M280.083,-115.754C329.562,-113.53 403.982,-107.378 451.762,-101.52"/>
<polygon fill="midnightblue" stroke="midnightblue" points="279.771,-112.264 269.922,-116.168 280.056,-119.258 279.771,-112.264"/>
</g>
<!-- Node4 -->
<g id="node3" class="node"><title>Node4</title>
<g id="a_node3"><a xlink:href="classerpc_1_1_static_queue.html" target="_top" xlink:title="erpc::StaticQueue\&lt;\l erpc::MessageBuffer *\&gt;">
<polygon fill="white" stroke="black" points="166.398,-57.5 166.398,-85.5 289.776,-85.5 289.776,-57.5 166.398,-57.5"/>
<text text-anchor="start" x="174.398" y="-73.5" font-family="Helvetica,sans-Serif" font-size="10.00">erpc::StaticQueue&lt;</text>
<text text-anchor="middle" x="228.087" y="-63.5" font-family="Helvetica,sans-Serif" font-size="10.00"> erpc::MessageBuffer *&gt;</text>
</a>
</g>
</g>
<!-- Node4&#45;&gt;Node2 -->
<g id="edge3" class="edge"><title>Node4&#45;&gt;Node2</title>
<path fill="none" stroke="#9a32cd" stroke-dasharray="5,2" d="M300.158,-66.889C336.94,-65.6659 382.478,-65.9638 422.84,-71.5 439.608,-73.8 457.908,-78.8607 472.247,-83.4377"/>
<polygon fill="#9a32cd" stroke="#9a32cd" points="299.888,-63.3966 290.027,-67.2713 300.152,-70.3916 299.888,-63.3966"/>
<text text-anchor="middle" x="370.589" y="-83.5" font-family="Helvetica,sans-Serif" font-size="10.00"> messageQueue</text>
<text text-anchor="middle" x="370.589" y="-73.5" font-family="Helvetica,sans-Serif" font-size="10.00">freeMessageQueue</text>
</g>
<!-- Node5 -->
<g id="node4" class="node"><title>Node5</title>
<g id="a_node4"><a xlink:href="classerpc_1_1_base_static_queue.html" target="_top" xlink:title="Base class which implements static queue as ring buffer that operates on m_data type void*...">
<polygon fill="white" stroke="black" points="0,-39.5 0,-57.5 118.837,-57.5 118.837,-39.5 0,-39.5"/>
<text text-anchor="middle" x="59.4185" y="-45.5" font-family="Helvetica,sans-Serif" font-size="10.00">erpc::BaseStaticQueue</text>
</a>
</g>
</g>
<!-- Node5&#45;&gt;Node4 -->
<g id="edge4" class="edge"><title>Node5&#45;&gt;Node4</title>
<path fill="none" stroke="midnightblue" d="M129.354,-58.013C141.616,-59.7051 154.306,-61.4564 166.32,-63.1142"/>
<polygon fill="midnightblue" stroke="midnightblue" points="129.564,-54.5089 119.18,-56.6089 128.607,-61.4432 129.564,-54.5089"/>
</g>
<!-- Node6 -->
<g id="node5" class="node"><title>Node6</title>
<g id="a_node5"><a xlink:href="classerpc_1_1_static_queue.html" target="_top" xlink:title="erpc::StaticQueue\&lt;\l erpc::MessageBuffer,\l kInitCountMessageBuffers \&gt;">
<polygon fill="white" stroke="black" points="155.837,-0.5 155.837,-38.5 300.338,-38.5 300.338,-0.5 155.837,-0.5"/>
<text text-anchor="start" x="163.837" y="-26.5" font-family="Helvetica,sans-Serif" font-size="10.00">erpc::StaticQueue&lt;</text>
<text text-anchor="start" x="163.837" y="-16.5" font-family="Helvetica,sans-Serif" font-size="10.00"> erpc::MessageBuffer,</text>
<text text-anchor="middle" x="228.087" y="-6.5" font-family="Helvetica,sans-Serif" font-size="10.00"> kInitCountMessageBuffers &gt;</text>
</a>
</g>
</g>
<!-- Node5&#45;&gt;Node6 -->
<g id="edge6" class="edge"><title>Node5&#45;&gt;Node6</title>
<path fill="none" stroke="midnightblue" d="M122.113,-37.7653C133.053,-35.8617 144.528,-33.8651 155.71,-31.9196"/>
<polygon fill="midnightblue" stroke="midnightblue" points="121.492,-34.3207 112.24,-39.4832 122.692,-41.2171 121.492,-34.3207"/>
</g>
<!-- Node6&#45;&gt;Node2 -->
<g id="edge5" class="edge"><title>Node6&#45;&gt;Node2</title>
<path fill="none" stroke="#9a32cd" stroke-dasharray="5,2" d="M310.765,-20.0822C346.13,-22.5242 387.446,-28.388 422.84,-41.5 448.853,-51.1367 474.599,-71.6284 488.15,-83.4946"/>
<polygon fill="#9a32cd" stroke="#9a32cd" points="310.672,-16.5701 300.477,-19.4554 310.246,-23.5572 310.672,-16.5701"/>
<text text-anchor="middle" x="370.589" y="-53.5" font-family="Helvetica,sans-Serif" font-size="10.00"> m_freeMessageQueue</text>
<text text-anchor="middle" x="370.589" y="-43.5" font-family="Helvetica,sans-Serif" font-size="10.00">m_messageQueue</text>
</g>
</g>
</svg>
