<?xml version="1.0" encoding="UTF-8" standalone="no"?>
<!DOCTYPE svg PUBLIC "-//W3C//DTD SVG 1.1//EN"
 "http://www.w3.org/Graphics/SVG/1.1/DTD/svg11.dtd">
<!-- Generated by graphviz version 2.38.0 (20140413.2041)
 -->
<!-- Title: erpc::BaseStaticQueue Pages: 1 -->
<svg width="307pt" height="141pt"
 viewBox="0.00 0.00 307.34 141.00" xmlns="http://www.w3.org/2000/svg" xmlns:xlink="http://www.w3.org/1999/xlink">
<g id="graph0" class="graph" transform="scale(1 1) rotate(0) translate(4 137)">
<title>erpc::BaseStaticQueue</title>
<polygon fill="white" stroke="none" points="-4,4 -4,-137 303.338,-137 303.338,4 -4,4"/>
<!-- Node0 -->
<g id="node1" class="node"><title>Node0</title>
<polygon fill="#bfbfbf" stroke="black" points="0,-62.5 0,-80.5 118.837,-80.5 118.837,-62.5 0,-62.5"/>
<text text-anchor="middle" x="59.4185" y="-68.5" font-family="Helvetica,sans-Serif" font-size="10.00">erpc::BaseStaticQueue</text>
</g>
<!-- Node1 -->
<g id="node2" class="node"><title>Node1</title>
<g id="a_node2"><a xlink:href="classerpc_1_1_static_queue.html" target="_top" xlink:title="Template subclass that wraps the member functions to use the template type parameter. ">
<polygon fill="white" stroke="black" points="176.146,-104.5 176.146,-132.5 278.029,-132.5 278.029,-104.5 176.146,-104.5"/>
<text text-anchor="start" x="184.146" y="-120.5" font-family="Helvetica,sans-Serif" font-size="10.00">erpc::StaticQueue&lt;</text>
<text text-anchor="middle" x="227.087" y="-110.5" font-family="Helvetica,sans-Serif" font-size="10.00"> T, elementCount &gt;</text>
</a>
</g>
</g>
<!-- Node0&#45;&gt;Node1 -->
<g id="edge1" class="edge"><title>Node0&#45;&gt;Node1</title>
<path fill="none" stroke="midnightblue" d="M102.024,-83.3035C124.68,-89.731 152.86,-97.7254 176.634,-104.47"/>
<polygon fill="midnightblue" stroke="midnightblue" points="102.937,-79.9243 92.3611,-80.5621 101.026,-86.6585 102.937,-79.9243"/>
</g>
<!-- Node2 -->
<g id="node3" class="node"><title>Node2</title>
<g id="a_node3"><a xlink:href="classerpc_1_1_static_queue.html" target="_top" xlink:title="erpc::StaticQueue\&lt;\l erpc::MessageBuffer *\&gt;">
<polygon fill="white" stroke="black" points="165.398,-57.5 165.398,-85.5 288.776,-85.5 288.776,-57.5 165.398,-57.5"/>
<text text-anchor="start" x="173.398" y="-73.5" font-family="Helvetica,sans-Serif" font-size="10.00">erpc::StaticQueue&lt;</text>
<text text-anchor="middle" x="227.087" y="-63.5" font-family="Helvetica,sans-Serif" font-size="10.00"> erpc::MessageBuffer *&gt;</text>
</a>
</g>
</g>
<!-- Node0&#45;&gt;Node2 -->
<g id="edge2" class="edge"><title>Node0&#45;&gt;Node2</title>
<path fill="none" stroke="midnightblue" d="M129.556,-71.5C141.376,-71.5 153.577,-71.5 165.163,-71.5"/>
<polygon fill="midnightblue" stroke="midnightblue" points="129.294,-68.0001 119.294,-71.5 129.294,-75.0001 129.294,-68.0001"/>
</g>
<!-- Node3 -->
<g id="node4" class="node"><title>Node3</title>
<g id="a_node4"><a xlink:href="classerpc_1_1_static_queue.html" target="_top" xlink:title="erpc::StaticQueue\&lt;\l erpc::MessageBuffer,\l kInitCountMessageBuffers \&gt;">
<polygon fill="white" stroke="black" points="154.837,-0.5 154.837,-38.5 299.338,-38.5 299.338,-0.5 154.837,-0.5"/>
<text text-anchor="start" x="162.837" y="-26.5" font-family="Helvetica,sans-Serif" font-size="10.00">erpc::StaticQueue&lt;</text>
<text text-anchor="start" x="162.837" y="-16.5" font-family="Helvetica,sans-Serif" font-size="10.00"> erpc::MessageBuffer,</text>
<text text-anchor="middle" x="227.087" y="-6.5" font-family="Helvetica,sans-Serif" font-size="10.00"> kInitCountMessageBuffers &gt;</text>
</a>
</g>
</g>
<!-- Node0&#45;&gt;Node3 -->
<g id="edge3" class="edge"><title>Node0&#45;&gt;Node3</title>
<path fill="none" stroke="midnightblue" d="M98.8375,-59.4411C118.577,-53.2453 143.095,-45.5497 165.324,-38.5722"/>
<polygon fill="midnightblue" stroke="midnightblue" points="97.7687,-56.1081 89.2758,-62.4423 99.865,-62.7869 97.7687,-56.1081"/>
</g>
</g>
</svg>
