<?xml version="1.0" encoding="UTF-8" standalone="no"?>
<!DOCTYPE svg PUBLIC "-//W3C//DTD SVG 1.1//EN"
 "http://www.w3.org/Graphics/SVG/1.1/DTD/svg11.dtd">
<!-- Generated by graphviz version 2.38.0 (20140413.2041)
 -->
<!-- Title: erpc::SerialTransport Pages: 1 -->
<svg width="194pt" height="158pt"
 viewBox="0.00 0.00 193.97 158.00" xmlns="http://www.w3.org/2000/svg" xmlns:xlink="http://www.w3.org/1999/xlink">
<g id="graph0" class="graph" transform="scale(1 1) rotate(0) translate(4 154)">
<title>erpc::SerialTransport</title>
<polygon fill="white" stroke="none" points="-4,4 -4,-154 189.969,-154 189.969,4 -4,4"/>
<!-- Node3 -->
<g id="node1" class="node"><title>Node3</title>
<polygon fill="#bfbfbf" stroke="black" points="34.2168,-0.5 34.2168,-18.5 143.22,-18.5 143.22,-0.5 34.2168,-0.5"/>
<text text-anchor="middle" x="88.7183" y="-6.5" font-family="Helvetica,sans-Serif" font-size="10.00">erpc::SerialTransport</text>
</g>
<!-- Node4 -->
<g id="node2" class="node"><title>Node4</title>
<g id="a_node2"><a xlink:href="classerpc_1_1_framed_transport.html" target="_top" xlink:title="Base class for framed transport layers. ">
<polygon fill="white" stroke="black" points="29.7734,-56.5 29.7734,-74.5 147.663,-74.5 147.663,-56.5 29.7734,-56.5"/>
<text text-anchor="middle" x="88.7183" y="-62.5" font-family="Helvetica,sans-Serif" font-size="10.00">erpc::FramedTransport</text>
</a>
</g>
</g>
<!-- Node4&#45;&gt;Node3 -->
<g id="edge1" class="edge"><title>Node4&#45;&gt;Node3</title>
<path fill="none" stroke="midnightblue" d="M88.7183,-45.8288C88.7183,-36.5774 88.7183,-25.8798 88.7183,-18.7014"/>
<polygon fill="midnightblue" stroke="midnightblue" points="85.2184,-46.0625 88.7183,-56.0625 92.2184,-46.0625 85.2184,-46.0625"/>
</g>
<!-- Node5 -->
<g id="node3" class="node"><title>Node5</title>
<g id="a_node3"><a xlink:href="classerpc_1_1_transport.html" target="_top" xlink:title="Abstract interface for transport layer. ">
<polygon fill="white" stroke="black" points="0,-131.5 0,-149.5 83.4365,-149.5 83.4365,-131.5 0,-131.5"/>
<text text-anchor="middle" x="41.7183" y="-137.5" font-family="Helvetica,sans-Serif" font-size="10.00">erpc::Transport</text>
</a>
</g>
</g>
<!-- Node5&#45;&gt;Node4 -->
<g id="edge2" class="edge"><title>Node5&#45;&gt;Node4</title>
<path fill="none" stroke="midnightblue" d="M52.5689,-122.647C62.2021,-107.685 75.8751,-86.4479 83.3411,-74.8518"/>
<polygon fill="midnightblue" stroke="midnightblue" points="49.3983,-121.106 46.9277,-131.409 55.2839,-124.895 49.3983,-121.106"/>
</g>
<!-- Node6 -->
<g id="node4" class="node"><title>Node6</title>
<g id="a_node4"><a xlink:href="classerpc_1_1_mutex.html" target="_top" xlink:title="Mutex. ">
<polygon fill="white" stroke="black" points="101.598,-131.5 101.598,-149.5 169.839,-149.5 169.839,-131.5 101.598,-131.5"/>
<text text-anchor="middle" x="135.718" y="-137.5" font-family="Helvetica,sans-Serif" font-size="10.00">erpc::Mutex</text>
</a>
</g>
</g>
<!-- Node6&#45;&gt;Node4 -->
<g id="edge3" class="edge"><title>Node6&#45;&gt;Node4</title>
<path fill="none" stroke="#9a32cd" stroke-dasharray="5,2" d="M124.868,-122.647C115.234,-107.685 101.561,-86.4479 94.0954,-74.8518"/>
<polygon fill="#9a32cd" stroke="#9a32cd" points="122.153,-124.895 130.509,-131.409 128.038,-121.106 122.153,-124.895"/>
<text text-anchor="middle" x="152.344" y="-105" font-family="Helvetica,sans-Serif" font-size="10.00"> m_sendLock</text>
<text text-anchor="middle" x="152.344" y="-95" font-family="Helvetica,sans-Serif" font-size="10.00">m_receiveLock</text>
</g>
</g>
</svg>
