<?xml version="1.0" encoding="UTF-8" standalone="no"?>
<!DOCTYPE svg PUBLIC "-//W3C//DTD SVG 1.1//EN"
 "http://www.w3.org/Graphics/SVG/1.1/DTD/svg11.dtd">
<!-- Generated by graphviz version 2.38.0 (20140413.2041)
 -->
<!-- Title: erpc::RPMsgMessageBufferFactory Pages: 1 -->
<svg width="823pt" height="173pt"
 viewBox="0.00 0.00 823.28 172.88" xmlns="http://www.w3.org/2000/svg" xmlns:xlink="http://www.w3.org/1999/xlink">
<g id="graph0" class="graph" transform="scale(1 1) rotate(0) translate(4 168.88)">
<title>erpc::RPMsgMessageBufferFactory</title>
<polygon fill="white" stroke="none" points="-4,4 -4,-168.88 819.275,-168.88 819.275,4 -4,4"/>
<!-- Node2 -->
<g id="node1" class="node"><title>Node2</title>
<polygon fill="#bfbfbf" stroke="black" points="674.402,-130.5 674.402,-158.5 815.275,-158.5 815.275,-130.5 674.402,-130.5"/>
<text text-anchor="start" x="682.402" y="-146.5" font-family="Helvetica,sans-Serif" font-size="10.00">erpc::RPMsgMessageBuffer</text>
<text text-anchor="middle" x="744.839" y="-136.5" font-family="Helvetica,sans-Serif" font-size="10.00">Factory</text>
</g>
<!-- Node3 -->
<g id="node2" class="node"><title>Node3</title>
<g id="a_node2"><a xlink:href="classerpc_1_1_message_buffer_factory.html" target="_top" xlink:title="Abstract interface for message buffer factory. ">
<polygon fill="white" stroke="black" points="440.84,-135.5 440.84,-153.5 582.27,-153.5 582.27,-135.5 440.84,-135.5"/>
<text text-anchor="middle" x="511.555" y="-141.5" font-family="Helvetica,sans-Serif" font-size="10.00">erpc::MessageBufferFactory</text>
</a>
</g>
</g>
<!-- Node3&#45;&gt;Node2 -->
<g id="edge1" class="edge"><title>Node3&#45;&gt;Node2</title>
<path fill="none" stroke="midnightblue" d="M532.766,-132.437C573.758,-122.221 666.82,-121.566 714.493,-130.471"/>
<polygon fill="midnightblue" stroke="midnightblue" points="531.627,-129.125 523.093,-135.405 533.68,-135.817 531.627,-129.125"/>
</g>
<!-- Node3&#45;&gt;Node2 -->
<g id="edge2" class="edge"><title>Node3&#45;&gt;Node2</title>
<path fill="none" stroke="midnightblue" d="M592.587,-138.043C619.099,-137.594 648.378,-137.661 674.056,-138.246"/>
<polygon fill="midnightblue" stroke="midnightblue" points="592.504,-134.544 582.575,-138.24 592.642,-141.542 592.504,-134.544"/>
</g>
<!-- Node3&#45;&gt;Node2 -->
<g id="edge3" class="edge"><title>Node3&#45;&gt;Node2</title>
<path fill="none" stroke="midnightblue" d="M592.587,-150.957C619.099,-151.406 648.378,-151.339 674.056,-150.754"/>
<polygon fill="midnightblue" stroke="midnightblue" points="592.642,-147.458 582.575,-150.76 592.504,-154.456 592.642,-147.458"/>
</g>
<!-- Node3&#45;&gt;Node2 -->
<g id="edge4" class="edge"><title>Node3&#45;&gt;Node2</title>
<path fill="none" stroke="midnightblue" d="M532.766,-156.563C573.758,-166.779 666.82,-167.434 714.493,-158.529"/>
<polygon fill="midnightblue" stroke="midnightblue" points="533.68,-153.183 523.093,-153.595 531.627,-159.875 533.68,-153.183"/>
</g>
<!-- Node4 -->
<g id="node3" class="node"><title>Node4</title>
<g id="a_node3"><a xlink:href="classerpc_1_1_r_p_msg_transport.html" target="_top" xlink:title="Transport that uses RPMsg for interprocessor messaging. ">
<polygon fill="white" stroke="black" points="453.445,-83.5 453.445,-101.5 569.665,-101.5 569.665,-83.5 453.445,-83.5"/>
<text text-anchor="middle" x="511.555" y="-89.5" font-family="Helvetica,sans-Serif" font-size="10.00">erpc::RPMsgTransport</text>
</a>
</g>
</g>
<!-- Node4&#45;&gt;Node2 -->
<g id="edge5" class="edge"><title>Node4&#45;&gt;Node2</title>
<path fill="none" stroke="#9a32cd" stroke-dasharray="5,2" d="M562.785,-103.793C597.593,-111.619 644.182,-122.094 681.383,-130.458"/>
<polygon fill="#9a32cd" stroke="#9a32cd" points="563.366,-100.337 552.841,-101.558 561.83,-107.166 563.366,-100.337"/>
<text text-anchor="middle" x="628.336" y="-126.5" font-family="Helvetica,sans-Serif" font-size="10.00"> m_transport</text>
</g>
<!-- Node5 -->
<g id="node4" class="node"><title>Node5</title>
<g id="a_node4"><a xlink:href="classerpc_1_1_transport.html" target="_top" xlink:title="Abstract interface for transport layer. ">
<polygon fill="white" stroke="black" points="186.369,-105.5 186.369,-123.5 269.806,-123.5 269.806,-105.5 186.369,-105.5"/>
<text text-anchor="middle" x="228.087" y="-111.5" font-family="Helvetica,sans-Serif" font-size="10.00">erpc::Transport</text>
</a>
</g>
</g>
<!-- Node5&#45;&gt;Node4 -->
<g id="edge6" class="edge"><title>Node5&#45;&gt;Node4</title>
<path fill="none" stroke="midnightblue" d="M280.038,-105.178C328.85,-99.559 402.4,-93.7365 453.233,-91.4199"/>
<polygon fill="midnightblue" stroke="midnightblue" points="279.531,-101.714 270.015,-106.373 280.359,-108.665 279.531,-101.714"/>
</g>
<!-- Node5&#45;&gt;Node4 -->
<g id="edge7" class="edge"><title>Node5&#45;&gt;Node4</title>
<path fill="none" stroke="midnightblue" d="M280.291,-115.846C331.999,-113.706 411.281,-107.476 462.016,-101.542"/>
<polygon fill="midnightblue" stroke="midnightblue" points="279.878,-112.359 270.015,-116.229 280.139,-119.354 279.878,-112.359"/>
</g>
<!-- Node6 -->
<g id="node5" class="node"><title>Node6</title>
<g id="a_node5"><a xlink:href="classerpc_1_1_static_queue.html" target="_top" xlink:title="erpc::StaticQueue\&lt;\l erpc::MessageBuffer *\&gt;">
<polygon fill="white" stroke="black" points="166.398,-57.5 166.398,-85.5 289.776,-85.5 289.776,-57.5 166.398,-57.5"/>
<text text-anchor="start" x="174.398" y="-73.5" font-family="Helvetica,sans-Serif" font-size="10.00">erpc::StaticQueue&lt;</text>
<text text-anchor="middle" x="228.087" y="-63.5" font-family="Helvetica,sans-Serif" font-size="10.00"> erpc::MessageBuffer *&gt;</text>
</a>
</g>
</g>
<!-- Node6&#45;&gt;Node4 -->
<g id="edge8" class="edge"><title>Node6&#45;&gt;Node4</title>
<path fill="none" stroke="#9a32cd" stroke-dasharray="5,2" d="M300.077,-67.5225C336.838,-66.4674 382.381,-66.7243 422.84,-71.5 442.278,-73.7945 463.647,-78.855 480.426,-83.4334"/>
<polygon fill="#9a32cd" stroke="#9a32cd" points="299.834,-64.0284 289.953,-67.8522 300.062,-71.0247 299.834,-64.0284"/>
<text text-anchor="middle" x="370.589" y="-83.5" font-family="Helvetica,sans-Serif" font-size="10.00"> messageQueue</text>
<text text-anchor="middle" x="370.589" y="-73.5" font-family="Helvetica,sans-Serif" font-size="10.00">freeMessageQueue</text>
</g>
<!-- Node7 -->
<g id="node6" class="node"><title>Node7</title>
<g id="a_node6"><a xlink:href="classerpc_1_1_base_static_queue.html" target="_top" xlink:title="Base class which implements static queue as ring buffer that operates on m_data type void*...">
<polygon fill="white" stroke="black" points="0,-39.5 0,-57.5 118.837,-57.5 118.837,-39.5 0,-39.5"/>
<text text-anchor="middle" x="59.4185" y="-45.5" font-family="Helvetica,sans-Serif" font-size="10.00">erpc::BaseStaticQueue</text>
</a>
</g>
</g>
<!-- Node7&#45;&gt;Node6 -->
<g id="edge9" class="edge"><title>Node7&#45;&gt;Node6</title>
<path fill="none" stroke="midnightblue" d="M129.354,-58.013C141.616,-59.7051 154.306,-61.4564 166.32,-63.1142"/>
<polygon fill="midnightblue" stroke="midnightblue" points="129.564,-54.5089 119.18,-56.6089 128.607,-61.4432 129.564,-54.5089"/>
</g>
<!-- Node8 -->
<g id="node7" class="node"><title>Node8</title>
<g id="a_node7"><a xlink:href="classerpc_1_1_static_queue.html" target="_top" xlink:title="erpc::StaticQueue\&lt;\l erpc::MessageBuffer,\l kInitCountMessageBuffers \&gt;">
<polygon fill="white" stroke="black" points="155.837,-0.5 155.837,-38.5 300.338,-38.5 300.338,-0.5 155.837,-0.5"/>
<text text-anchor="start" x="163.837" y="-26.5" font-family="Helvetica,sans-Serif" font-size="10.00">erpc::StaticQueue&lt;</text>
<text text-anchor="start" x="163.837" y="-16.5" font-family="Helvetica,sans-Serif" font-size="10.00"> erpc::MessageBuffer,</text>
<text text-anchor="middle" x="228.087" y="-6.5" font-family="Helvetica,sans-Serif" font-size="10.00"> kInitCountMessageBuffers &gt;</text>
</a>
</g>
</g>
<!-- Node7&#45;&gt;Node8 -->
<g id="edge11" class="edge"><title>Node7&#45;&gt;Node8</title>
<path fill="none" stroke="midnightblue" d="M122.113,-37.7653C133.053,-35.8617 144.528,-33.8651 155.71,-31.9196"/>
<polygon fill="midnightblue" stroke="midnightblue" points="121.492,-34.3207 112.24,-39.4832 122.692,-41.2171 121.492,-34.3207"/>
</g>
<!-- Node8&#45;&gt;Node4 -->
<g id="edge10" class="edge"><title>Node8&#45;&gt;Node4</title>
<path fill="none" stroke="#9a32cd" stroke-dasharray="5,2" d="M310.74,-21.9555C345.928,-24.8492 387.114,-30.7352 422.84,-42.5 451.809,-52.0398 481.92,-71.7102 498.238,-83.3328"/>
<polygon fill="#9a32cd" stroke="#9a32cd" points="310.741,-18.4457 300.506,-21.1833 310.215,-25.4258 310.741,-18.4457"/>
<text text-anchor="middle" x="370.589" y="-54.5" font-family="Helvetica,sans-Serif" font-size="10.00"> m_freeMessageQueue</text>
<text text-anchor="middle" x="370.589" y="-44.5" font-family="Helvetica,sans-Serif" font-size="10.00">m_messageQueue</text>
</g>
</g>
</svg>
