<?xml version="1.0" encoding="UTF-8" standalone="no"?>
<!DOCTYPE svg PUBLIC "-//W3C//DTD SVG 1.1//EN"
 "http://www.w3.org/Graphics/SVG/1.1/DTD/svg11.dtd">
<!-- Generated by graphviz version 2.38.0 (20140413.2041)
 -->
<!-- Title: erpc::RPMsgMessageBufferFactory Pages: 1 -->
<svg width="149pt" height="92pt"
 viewBox="0.00 0.00 149.43 92.00" xmlns="http://www.w3.org/2000/svg" xmlns:xlink="http://www.w3.org/1999/xlink">
<g id="graph0" class="graph" transform="scale(1 1) rotate(0) translate(4 88)">
<title>erpc::RPMsgMessageBufferFactory</title>
<polygon fill="white" stroke="none" points="-4,4 -4,-88 145.43,-88 145.43,4 -4,4"/>
<!-- Node0 -->
<g id="node1" class="node"><title>Node0</title>
<polygon fill="#bfbfbf" stroke="black" points="0.27832,-0.5 0.27832,-28.5 141.151,-28.5 141.151,-0.5 0.27832,-0.5"/>
<text text-anchor="start" x="8.27832" y="-16.5" font-family="Helvetica,sans-Serif" font-size="10.00">erpc::RPMsgMessageBuffer</text>
<text text-anchor="middle" x="70.7148" y="-6.5" font-family="Helvetica,sans-Serif" font-size="10.00">Factory</text>
</g>
<!-- Node1 -->
<g id="node2" class="node"><title>Node1</title>
<g id="a_node2"><a xlink:href="classerpc_1_1_message_buffer_factory.html" target="_top" xlink:title="Abstract interface for message buffer factory. ">
<polygon fill="white" stroke="black" points="0,-65.5 0,-83.5 141.43,-83.5 141.43,-65.5 0,-65.5"/>
<text text-anchor="middle" x="70.7148" y="-71.5" font-family="Helvetica,sans-Serif" font-size="10.00">erpc::MessageBufferFactory</text>
</a>
</g>
</g>
<!-- Node1&#45;&gt;Node0 -->
<g id="edge1" class="edge"><title>Node1&#45;&gt;Node0</title>
<path fill="none" stroke="midnightblue" d="M52.0023,-56.1828C49.5715,-47.4268 50.0231,-36.9648 53.3572,-28.8428"/>
<polygon fill="midnightblue" stroke="midnightblue" points="48.8749,-57.7616 56.1799,-65.4353 55.2547,-54.881 48.8749,-57.7616"/>
</g>
<!-- Node1&#45;&gt;Node0 -->
<g id="edge2" class="edge"><title>Node1&#45;&gt;Node0</title>
<path fill="none" stroke="midnightblue" d="M64.4011,-55.3209C63.6779,-46.747 63.8538,-36.6999 64.929,-28.8428"/>
<polygon fill="midnightblue" stroke="midnightblue" points="60.9691,-56.0421 65.8699,-65.4353 67.8964,-55.0361 60.9691,-56.0421"/>
</g>
<!-- Node1&#45;&gt;Node0 -->
<g id="edge3" class="edge"><title>Node1&#45;&gt;Node0</title>
<path fill="none" stroke="midnightblue" d="M77.0286,-55.3209C77.7518,-46.747 77.5758,-36.6999 76.5007,-28.8428"/>
<polygon fill="midnightblue" stroke="midnightblue" points="73.5333,-55.0361 75.5598,-65.4353 80.4606,-56.0421 73.5333,-55.0361"/>
</g>
<!-- Node1&#45;&gt;Node0 -->
<g id="edge4" class="edge"><title>Node1&#45;&gt;Node0</title>
<path fill="none" stroke="midnightblue" d="M89.4274,-56.1828C91.8582,-47.4268 91.4066,-36.9648 88.0725,-28.8428"/>
<polygon fill="midnightblue" stroke="midnightblue" points="86.175,-54.881 85.2498,-65.4353 92.5548,-57.7616 86.175,-54.881"/>
</g>
</g>
</svg>
