<?xml version="1.0" encoding="UTF-8" standalone="no"?>
<!DOCTYPE svg PUBLIC "-//W3C//DTD SVG 1.1//EN"
 "http://www.w3.org/Graphics/SVG/1.1/DTD/svg11.dtd">
<!-- Generated by graphviz version 2.38.0 (20140413.2041)
 -->
<!-- Title: erpc::SerialTransport Pages: 1 -->
<svg width="126pt" height="137pt"
 viewBox="0.00 0.00 125.89 137.00" xmlns="http://www.w3.org/2000/svg" xmlns:xlink="http://www.w3.org/1999/xlink">
<g id="graph0" class="graph" transform="scale(1 1) rotate(0) translate(4 133)">
<title>erpc::SerialTransport</title>
<polygon fill="white" stroke="none" points="-4,4 -4,-133 121.89,-133 121.89,4 -4,4"/>
<!-- Node0 -->
<g id="node1" class="node"><title>Node0</title>
<polygon fill="#bfbfbf" stroke="black" points="4.44336,-0.5 4.44336,-18.5 113.446,-18.5 113.446,-0.5 4.44336,-0.5"/>
<text text-anchor="middle" x="58.9448" y="-6.5" font-family="Helvetica,sans-Serif" font-size="10.00">erpc::SerialTransport</text>
</g>
<!-- Node1 -->
<g id="node2" class="node"><title>Node1</title>
<g id="a_node2"><a xlink:href="classerpc_1_1_framed_transport.html" target="_top" xlink:title="Base class for framed transport layers. ">
<polygon fill="white" stroke="black" points="0,-55.5 0,-73.5 117.89,-73.5 117.89,-55.5 0,-55.5"/>
<text text-anchor="middle" x="58.9448" y="-61.5" font-family="Helvetica,sans-Serif" font-size="10.00">erpc::FramedTransport</text>
</a>
</g>
</g>
<!-- Node1&#45;&gt;Node0 -->
<g id="edge1" class="edge"><title>Node1&#45;&gt;Node0</title>
<path fill="none" stroke="midnightblue" d="M58.9448,-45.1746C58.9448,-36.0945 58.9448,-25.5949 58.9448,-18.5496"/>
<polygon fill="midnightblue" stroke="midnightblue" points="55.4449,-45.2187 58.9448,-55.2188 62.4449,-45.2188 55.4449,-45.2187"/>
</g>
<!-- Node2 -->
<g id="node3" class="node"><title>Node2</title>
<g id="a_node3"><a xlink:href="classerpc_1_1_transport.html" target="_top" xlink:title="Abstract interface for transport layer. ">
<polygon fill="white" stroke="black" points="17.2266,-110.5 17.2266,-128.5 100.663,-128.5 100.663,-110.5 17.2266,-110.5"/>
<text text-anchor="middle" x="58.9448" y="-116.5" font-family="Helvetica,sans-Serif" font-size="10.00">erpc::Transport</text>
</a>
</g>
</g>
<!-- Node2&#45;&gt;Node1 -->
<g id="edge2" class="edge"><title>Node2&#45;&gt;Node1</title>
<path fill="none" stroke="midnightblue" d="M58.9448,-100.175C58.9448,-91.0945 58.9448,-80.5949 58.9448,-73.5496"/>
<polygon fill="midnightblue" stroke="midnightblue" points="55.4449,-100.219 58.9448,-110.219 62.4449,-100.219 55.4449,-100.219"/>
</g>
</g>
</svg>
