<?xml version="1.0" encoding="UTF-8" standalone="no"?>
<!DOCTYPE svg PUBLIC "-//W3C//DTD SVG 1.1//EN"
 "http://www.w3.org/Graphics/SVG/1.1/DTD/svg11.dtd">
<!-- Generated by graphviz version 2.38.0 (20140413.2041)
 -->
<!-- Title: erpc::SimpleServer Pages: 1 -->
<svg width="551pt" height="157pt"
 viewBox="0.00 0.00 551.14 157.00" xmlns="http://www.w3.org/2000/svg" xmlns:xlink="http://www.w3.org/1999/xlink">
<g id="graph0" class="graph" transform="scale(1 1) rotate(0) translate(4 153)">
<title>erpc::SimpleServer</title>
<polygon fill="white" stroke="none" points="-4,4 -4,-153 547.137,-153 547.137,4 -4,4"/>
<!-- Node2 -->
<g id="node1" class="node"><title>Node2</title>
<polygon fill="#bfbfbf" stroke="black" points="276.874,-0.5 276.874,-18.5 377.903,-18.5 377.903,-0.5 276.874,-0.5"/>
<text text-anchor="middle" x="327.388" y="-6.5" font-family="Helvetica,sans-Serif" font-size="10.00">erpc::SimpleServer</text>
</g>
<!-- Node3 -->
<g id="node2" class="node"><title>Node3</title>
<g id="a_node2"><a xlink:href="classerpc_1_1_server.html" target="_top" xlink:title="Based server functionality. ">
<polygon fill="white" stroke="black" points="221.157,-65.5 221.157,-83.5 291.62,-83.5 291.62,-65.5 221.157,-65.5"/>
<text text-anchor="middle" x="256.388" y="-71.5" font-family="Helvetica,sans-Serif" font-size="10.00">erpc::Server</text>
</a>
</g>
</g>
<!-- Node3&#45;&gt;Node2 -->
<g id="edge1" class="edge"><title>Node3&#45;&gt;Node2</title>
<path fill="none" stroke="midnightblue" d="M273.248,-58.5397C287.375,-46.005 306.998,-28.5925 318.328,-18.539"/>
<polygon fill="midnightblue" stroke="midnightblue" points="270.827,-56.0087 265.67,-65.2639 275.473,-61.2447 270.827,-56.0087"/>
</g>
<!-- Node4 -->
<g id="node3" class="node"><title>Node4</title>
<g id="a_node3"><a xlink:href="classerpc_1_1_transport_factory.html" target="_top" xlink:title="Abstract interface for transport factory. ">
<polygon fill="white" stroke="black" points="0,-130.5 0,-148.5 116.776,-148.5 116.776,-130.5 0,-130.5"/>
<text text-anchor="middle" x="58.3882" y="-136.5" font-family="Helvetica,sans-Serif" font-size="10.00">erpc::TransportFactory</text>
</a>
</g>
</g>
<!-- Node4&#45;&gt;Node3 -->
<g id="edge2" class="edge"><title>Node4&#45;&gt;Node3</title>
<path fill="none" stroke="#9a32cd" stroke-dasharray="5,2" d="M79.1019,-124.766C91.6122,-117.041 108.14,-107.809 123.916,-102 155.719,-90.2887 193.826,-83.3553 220.988,-79.5373"/>
<polygon fill="#9a32cd" stroke="#9a32cd" points="76.9595,-121.981 70.3974,-130.299 80.7144,-127.889 76.9595,-121.981"/>
<text text-anchor="middle" x="169.125" y="-104" font-family="Helvetica,sans-Serif" font-size="10.00"> m_transportFactory</text>
</g>
<!-- Node5 -->
<g id="node4" class="node"><title>Node5</title>
<g id="a_node4"><a xlink:href="classerpc_1_1_codec_factory.html" target="_top" xlink:title="Abstract interface for codec factory. ">
<polygon fill="white" stroke="black" points="134.76,-130.5 134.76,-148.5 238.016,-148.5 238.016,-130.5 134.76,-130.5"/>
<text text-anchor="middle" x="186.388" y="-136.5" font-family="Helvetica,sans-Serif" font-size="10.00">erpc::CodecFactory</text>
</a>
</g>
</g>
<!-- Node5&#45;&gt;Node3 -->
<g id="edge3" class="edge"><title>Node5&#45;&gt;Node3</title>
<path fill="none" stroke="#9a32cd" stroke-dasharray="5,2" d="M203.011,-123.54C216.938,-111.005 236.285,-93.5925 247.456,-83.539"/>
<polygon fill="#9a32cd" stroke="#9a32cd" points="200.631,-120.973 195.539,-130.264 205.314,-126.176 200.631,-120.973"/>
<text text-anchor="middle" x="264.735" y="-104" font-family="Helvetica,sans-Serif" font-size="10.00"> m_codecFactory</text>
</g>
<!-- Node6 -->
<g id="node5" class="node"><title>Node6</title>
<g id="a_node5"><a xlink:href="classerpc_1_1_message_buffer_factory.html" target="_top" xlink:title="Abstract interface for message buffer factory. ">
<polygon fill="white" stroke="black" points="255.673,-130.5 255.673,-148.5 397.103,-148.5 397.103,-130.5 255.673,-130.5"/>
<text text-anchor="middle" x="326.388" y="-136.5" font-family="Helvetica,sans-Serif" font-size="10.00">erpc::MessageBufferFactory</text>
</a>
</g>
</g>
<!-- Node6&#45;&gt;Node3 -->
<g id="edge4" class="edge"><title>Node6&#45;&gt;Node3</title>
<path fill="none" stroke="#9a32cd" stroke-dasharray="5,2" d="M318.297,-121.008C314.692,-114.497 309.985,-107.388 304.388,-102 296.296,-94.2098 285.466,-87.9709 276.141,-83.5083"/>
<polygon fill="#9a32cd" stroke="#9a32cd" points="315.407,-123.052 323.025,-130.415 321.661,-119.908 315.407,-123.052"/>
<text text-anchor="middle" x="358.681" y="-104" font-family="Helvetica,sans-Serif" font-size="10.00"> m_messageFactory</text>
</g>
<!-- Node7 -->
<g id="node6" class="node"><title>Node7</title>
<g id="a_node6"><a xlink:href="classerpc_1_1_service.html" target="_top" xlink:title="Abstract interface for service, which can be executed on server side. ">
<polygon fill="white" stroke="black" points="415.211,-130.5 415.211,-148.5 489.565,-148.5 489.565,-130.5 415.211,-130.5"/>
<text text-anchor="middle" x="452.388" y="-136.5" font-family="Helvetica,sans-Serif" font-size="10.00">erpc::Service</text>
</a>
</g>
</g>
<!-- Node7&#45;&gt;Node3 -->
<g id="edge5" class="edge"><title>Node7&#45;&gt;Node3</title>
<path fill="none" stroke="#9a32cd" stroke-dasharray="5,2" d="M438.09,-123.291C430.082,-115.7 419.491,-107.076 408.388,-102 364.132,-81.7662 348.281,-92.6157 300.388,-84 297.632,-83.5041 294.78,-82.9796 291.915,-82.4443"/>
<polygon fill="#9a32cd" stroke="#9a32cd" points="435.616,-125.768 445.16,-130.369 440.569,-120.82 435.616,-125.768"/>
<text text-anchor="middle" x="457.45" y="-104" font-family="Helvetica,sans-Serif" font-size="10.00"> m_firstService</text>
</g>
<!-- Node7&#45;&gt;Node7 -->
<g id="edge6" class="edge"><title>Node7&#45;&gt;Node7</title>
<path fill="none" stroke="#9a32cd" stroke-dasharray="5,2" d="M499.847,-144.397C504.564,-143.418 507.565,-141.785 507.565,-139.5 507.565,-135.844 499.882,-133.859 489.782,-133.544"/>
<polygon fill="#9a32cd" stroke="#9a32cd" points="499.361,-140.929 489.782,-145.456 500.094,-147.891 499.361,-140.929"/>
<text text-anchor="middle" x="525.351" y="-136.5" font-family="Helvetica,sans-Serif" font-size="10.00"> m_next</text>
</g>
<!-- Node8 -->
<g id="node7" class="node"><title>Node8</title>
<g id="a_node7"><a xlink:href="classerpc_1_1_transport.html" target="_top" xlink:title="Abstract interface for transport layer. ">
<polygon fill="white" stroke="black" points="309.67,-65.5 309.67,-83.5 393.106,-83.5 393.106,-65.5 309.67,-65.5"/>
<text text-anchor="middle" x="351.388" y="-71.5" font-family="Helvetica,sans-Serif" font-size="10.00">erpc::Transport</text>
</a>
</g>
</g>
<!-- Node8&#45;&gt;Node2 -->
<g id="edge7" class="edge"><title>Node8&#45;&gt;Node2</title>
<path fill="none" stroke="#9a32cd" stroke-dasharray="5,2" d="M344.589,-55.6515C339.938,-43.4424 333.994,-27.8409 330.451,-18.539"/>
<polygon fill="#9a32cd" stroke="#9a32cd" points="341.42,-57.165 348.251,-65.2639 347.961,-54.673 341.42,-57.165"/>
<text text-anchor="middle" x="369.455" y="-39" font-family="Helvetica,sans-Serif" font-size="10.00"> m_transport</text>
</g>
</g>
</svg>
