<?xml version="1.0" encoding="UTF-8" standalone="no"?>
<!DOCTYPE svg PUBLIC "-//W3C//DTD SVG 1.1//EN"
 "http://www.w3.org/Graphics/SVG/1.1/DTD/svg11.dtd">
<!-- Generated by graphviz version 2.38.0 (20140413.2041)
 -->
<!-- Title: erpc::Transport Pages: 1 -->
<svg width="459pt" height="286pt"
 viewBox="0.00 0.00 459.07 286.00" xmlns="http://www.w3.org/2000/svg" xmlns:xlink="http://www.w3.org/1999/xlink">
<g id="graph0" class="graph" transform="scale(1 1) rotate(0) translate(4 282)">
<title>erpc::Transport</title>
<polygon fill="white" stroke="none" points="-4,4 -4,-282 455.074,-282 455.074,4 -4,4"/>
<!-- Node0 -->
<g id="node1" class="node"><title>Node0</title>
<polygon fill="#bfbfbf" stroke="black" points="0,-74.5 0,-92.5 83.4365,-92.5 83.4365,-74.5 0,-74.5"/>
<text text-anchor="middle" x="41.7183" y="-80.5" font-family="Helvetica,sans-Serif" font-size="10.00">erpc::Transport</text>
</g>
<!-- Node1 -->
<g id="node2" class="node"><title>Node1</title>
<g id="a_node2"><a xlink:href="classerpc_1_1_framed_transport.html" target="_top" xlink:title="Base class for framed transport layers. ">
<polygon fill="white" stroke="black" points="141.309,-148.5 141.309,-166.5 259.199,-166.5 259.199,-148.5 141.309,-148.5"/>
<text text-anchor="middle" x="200.254" y="-154.5" font-family="Helvetica,sans-Serif" font-size="10.00">erpc::FramedTransport</text>
</a>
</g>
</g>
<!-- Node0&#45;&gt;Node1 -->
<g id="edge1" class="edge"><title>Node0&#45;&gt;Node1</title>
<path fill="none" stroke="midnightblue" d="M60.0572,-99.3999C74.8063,-112.086 97.0946,-129.357 119.437,-139.5 127.456,-143.141 136.273,-146.074 145.03,-148.428"/>
<polygon fill="midnightblue" stroke="midnightblue" points="62.113,-96.5459 52.301,-92.5489 57.4789,-101.792 62.113,-96.5459"/>
</g>
<!-- Node9 -->
<g id="node10" class="node"><title>Node9</title>
<g id="a_node10"><a xlink:href="classerpc_1_1_inter_thread_buffer_transport.html" target="_top" xlink:title="Very basic transport to send/receive messages between threads. ">
<polygon fill="white" stroke="black" points="119.437,-111.5 119.437,-129.5 281.071,-129.5 281.071,-111.5 119.437,-111.5"/>
<text text-anchor="middle" x="200.254" y="-117.5" font-family="Helvetica,sans-Serif" font-size="10.00">erpc::InterThreadBufferTransport</text>
</a>
</g>
</g>
<!-- Node0&#45;&gt;Node9 -->
<g id="edge9" class="edge"><title>Node0&#45;&gt;Node9</title>
<path fill="none" stroke="midnightblue" d="M88.5215,-95.0103C98.6903,-97.5192 109.422,-100.131 119.437,-102.5 132.016,-105.476 145.738,-108.61 158.2,-111.415"/>
<polygon fill="midnightblue" stroke="midnightblue" points="89.1361,-91.5568 78.5878,-92.5485 87.4523,-98.3513 89.1361,-91.5568"/>
</g>
<!-- Node10 -->
<g id="node11" class="node"><title>Node10</title>
<g id="a_node11"><a xlink:href="classerpc_1_1_r_p_msg_r_t_o_s_transport.html" target="_top" xlink:title="Transport that uses RPMsg RTOS API for interprocessor messaging. ">
<polygon fill="white" stroke="black" points="128.431,-74.5 128.431,-92.5 272.077,-92.5 272.077,-74.5 128.431,-74.5"/>
<text text-anchor="middle" x="200.254" y="-80.5" font-family="Helvetica,sans-Serif" font-size="10.00">erpc::RPMsgRTOSTransport</text>
</a>
</g>
</g>
<!-- Node0&#45;&gt;Node10 -->
<g id="edge10" class="edge"><title>Node0&#45;&gt;Node10</title>
<path fill="none" stroke="midnightblue" d="M93.765,-77.1268C104.838,-76.8082 116.741,-76.6916 128.421,-76.7771"/>
<polygon fill="midnightblue" stroke="midnightblue" points="93.3067,-73.6408 83.4375,-77.4942 93.5557,-80.6363 93.3067,-73.6408"/>
</g>
<!-- Node0&#45;&gt;Node10 -->
<g id="edge11" class="edge"><title>Node0&#45;&gt;Node10</title>
<path fill="none" stroke="midnightblue" d="M93.765,-89.8732C104.838,-90.1918 116.741,-90.3084 128.421,-90.2229"/>
<polygon fill="midnightblue" stroke="midnightblue" points="93.5557,-86.3637 83.4375,-89.5058 93.3067,-93.3592 93.5557,-86.3637"/>
</g>
<!-- Node11 -->
<g id="node12" class="node"><title>Node11</title>
<g id="a_node12"><a xlink:href="classerpc_1_1_r_p_msg_transport.html" target="_top" xlink:title="Transport that uses RPMsg for interprocessor messaging. ">
<polygon fill="white" stroke="black" points="142.144,-37.5 142.144,-55.5 258.364,-55.5 258.364,-37.5 142.144,-37.5"/>
<text text-anchor="middle" x="200.254" y="-43.5" font-family="Helvetica,sans-Serif" font-size="10.00">erpc::RPMsgTransport</text>
</a>
</g>
</g>
<!-- Node0&#45;&gt;Node11 -->
<g id="edge12" class="edge"><title>Node0&#45;&gt;Node11</title>
<path fill="none" stroke="midnightblue" d="M71.1988,-71.4192C90.9119,-65.4564 117.83,-58.6998 141.9,-53.5256"/>
<polygon fill="midnightblue" stroke="midnightblue" points="70.0807,-68.1019 61.6001,-74.4524 72.19,-74.7765 70.0807,-68.1019"/>
</g>
<!-- Node0&#45;&gt;Node11 -->
<g id="edge13" class="edge"><title>Node0&#45;&gt;Node11</title>
<path fill="none" stroke="midnightblue" d="M93.2833,-77.9073C123.1,-71.7352 159.076,-62.6357 180.509,-55.5019"/>
<polygon fill="midnightblue" stroke="midnightblue" points="92.5544,-74.4837 83.4375,-79.8811 93.9304,-81.3471 92.5544,-74.4837"/>
</g>
<!-- Node12 -->
<g id="node13" class="node"><title>Node12</title>
<g id="a_node13"><a xlink:href="classerpc_1_1_transport_arbitrator.html" target="_top" xlink:title="Interposer to share transport between client and server. ">
<polygon fill="white" stroke="black" points="137.974,-0.5 137.974,-18.5 262.534,-18.5 262.534,-0.5 137.974,-0.5"/>
<text text-anchor="middle" x="200.254" y="-6.5" font-family="Helvetica,sans-Serif" font-size="10.00">erpc::TransportArbitrator</text>
</a>
</g>
</g>
<!-- Node0&#45;&gt;Node12 -->
<g id="edge14" class="edge"><title>Node0&#45;&gt;Node12</title>
<path fill="none" stroke="midnightblue" d="M60.0572,-67.6001C74.8063,-54.9141 97.0946,-37.6432 119.437,-27.5 127.456,-23.8592 136.273,-20.9261 145.03,-18.5715"/>
<polygon fill="midnightblue" stroke="midnightblue" points="57.4789,-65.2077 52.301,-74.4511 62.113,-70.4541 57.4789,-65.2077"/>
</g>
<!-- Node2 -->
<g id="node3" class="node"><title>Node2</title>
<g id="a_node3"><a xlink:href="classerpc_1_1_dspi_master_transport.html" target="_top" xlink:title="Very basic transport to send/receive messages via DSPI. ">
<polygon fill="white" stroke="black" points="317.071,-259.5 317.071,-277.5 451.074,-277.5 451.074,-259.5 317.071,-259.5"/>
<text text-anchor="middle" x="384.073" y="-265.5" font-family="Helvetica,sans-Serif" font-size="10.00">erpc::DspiMasterTransport</text>
</a>
</g>
</g>
<!-- Node1&#45;&gt;Node2 -->
<g id="edge2" class="edge"><title>Node1&#45;&gt;Node2</title>
<path fill="none" stroke="midnightblue" d="M217.059,-173.813C238.048,-194.565 277.142,-230.147 317.071,-250.5 324.161,-254.114 332.061,-257.069 339.86,-259.463"/>
<polygon fill="midnightblue" stroke="midnightblue" points="219.469,-171.273 209.937,-166.649 214.505,-176.208 219.469,-171.273"/>
</g>
<!-- Node3 -->
<g id="node4" class="node"><title>Node3</title>
<g id="a_node4"><a xlink:href="classerpc_1_1_dspi_slave_transport.html" target="_top" xlink:title="Very basic transport to send/receive messages via DSPI. ">
<polygon fill="white" stroke="black" points="319.845,-222.5 319.845,-240.5 448.301,-240.5 448.301,-222.5 319.845,-222.5"/>
<text text-anchor="middle" x="384.073" y="-228.5" font-family="Helvetica,sans-Serif" font-size="10.00">erpc::DspiSlaveTransport</text>
</a>
</g>
</g>
<!-- Node1&#45;&gt;Node3 -->
<g id="edge3" class="edge"><title>Node1&#45;&gt;Node3</title>
<path fill="none" stroke="midnightblue" d="M226.815,-171.551C249.894,-183.825 285.044,-201.506 317.071,-213.5 326.081,-216.874 335.996,-219.915 345.343,-222.496"/>
<polygon fill="midnightblue" stroke="midnightblue" points="228.173,-168.308 217.708,-166.655 224.858,-174.473 228.173,-168.308"/>
</g>
<!-- Node4 -->
<g id="node5" class="node"><title>Node4</title>
<g id="a_node5"><a xlink:href="classerpc_1_1_serial_transport.html" target="_top" xlink:title="Serial transport layer for host PC. ">
<polygon fill="white" stroke="black" points="329.571,-185.5 329.571,-203.5 438.574,-203.5 438.574,-185.5 329.571,-185.5"/>
<text text-anchor="middle" x="384.073" y="-191.5" font-family="Helvetica,sans-Serif" font-size="10.00">erpc::SerialTransport</text>
</a>
</g>
</g>
<!-- Node1&#45;&gt;Node4 -->
<g id="edge4" class="edge"><title>Node1&#45;&gt;Node4</title>
<path fill="none" stroke="midnightblue" d="M255.634,-168.566C282.17,-173.966 313.687,-180.38 338.739,-185.478"/>
<polygon fill="midnightblue" stroke="midnightblue" points="256.229,-165.116 245.732,-166.551 254.833,-171.975 256.229,-165.116"/>
</g>
<!-- Node5 -->
<g id="node6" class="node"><title>Node5</title>
<g id="a_node6"><a xlink:href="classerpc_1_1_spi_master_transport.html" target="_top" xlink:title="Very basic transport to send/receive messages via SPI. ">
<polygon fill="white" stroke="black" points="319.847,-148.5 319.847,-166.5 448.298,-166.5 448.298,-148.5 319.847,-148.5"/>
<text text-anchor="middle" x="384.073" y="-154.5" font-family="Helvetica,sans-Serif" font-size="10.00">erpc::SpiMasterTransport</text>
</a>
</g>
</g>
<!-- Node1&#45;&gt;Node5 -->
<g id="edge5" class="edge"><title>Node1&#45;&gt;Node5</title>
<path fill="none" stroke="midnightblue" d="M269.376,-157.5C285.842,-157.5 303.374,-157.5 319.616,-157.5"/>
<polygon fill="midnightblue" stroke="midnightblue" points="269.282,-154 259.282,-157.5 269.282,-161 269.282,-154"/>
</g>
<!-- Node6 -->
<g id="node7" class="node"><title>Node6</title>
<g id="a_node7"><a xlink:href="classerpc_1_1_spi_slave_transport.html" target="_top" xlink:title="Very basic transport to send/receive messages via SPI. ">
<polygon fill="white" stroke="black" points="322.621,-111.5 322.621,-129.5 445.525,-129.5 445.525,-111.5 322.621,-111.5"/>
<text text-anchor="middle" x="384.073" y="-117.5" font-family="Helvetica,sans-Serif" font-size="10.00">erpc::SpiSlaveTransport</text>
</a>
</g>
</g>
<!-- Node1&#45;&gt;Node6 -->
<g id="edge6" class="edge"><title>Node1&#45;&gt;Node6</title>
<path fill="none" stroke="midnightblue" d="M255.634,-146.434C282.17,-141.034 313.687,-134.62 338.739,-129.522"/>
<polygon fill="midnightblue" stroke="midnightblue" points="254.833,-143.025 245.732,-148.449 256.229,-149.884 254.833,-143.025"/>
</g>
<!-- Node7 -->
<g id="node8" class="node"><title>Node7</title>
<g id="a_node8"><a xlink:href="classerpc_1_1_t_c_p_transport.html" target="_top" xlink:title="Client side of TCP/IP transport. ">
<polygon fill="white" stroke="black" points="332.354,-74.5 332.354,-92.5 435.791,-92.5 435.791,-74.5 332.354,-74.5"/>
<text text-anchor="middle" x="384.073" y="-80.5" font-family="Helvetica,sans-Serif" font-size="10.00">erpc::TCPTransport</text>
</a>
</g>
</g>
<!-- Node1&#45;&gt;Node7 -->
<g id="edge7" class="edge"><title>Node1&#45;&gt;Node7</title>
<path fill="none" stroke="midnightblue" d="M268.85,-145.249C273.089,-143.573 277.202,-141.667 281.071,-139.5 301.09,-128.29 297.389,-114.29 317.071,-102.5 323.925,-98.3946 331.712,-95.1367 339.474,-92.5639"/>
<polygon fill="midnightblue" stroke="midnightblue" points="267.688,-141.948 259.414,-148.565 270.009,-148.552 267.688,-141.948"/>
</g>
<!-- Node8 -->
<g id="node9" class="node"><title>Node8</title>
<g id="a_node9"><a xlink:href="classerpc_1_1_uart_transport.html" target="_top" xlink:title="Very basic transport to send/receive messages via UART. ">
<polygon fill="white" stroke="black" points="332.909,-37.5 332.909,-55.5 435.237,-55.5 435.237,-37.5 332.909,-37.5"/>
<text text-anchor="middle" x="384.073" y="-43.5" font-family="Helvetica,sans-Serif" font-size="10.00">erpc::UartTransport</text>
</a>
</g>
</g>
<!-- Node1&#45;&gt;Node8 -->
<g id="edge8" class="edge"><title>Node1&#45;&gt;Node8</title>
<path fill="none" stroke="midnightblue" d="M268.741,-147.105C273.136,-144.996 277.303,-142.485 281.071,-139.5 309.741,-116.79 289.078,-89.0382 317.071,-65.5 322,-61.3561 327.785,-58.115 333.848,-55.5802"/>
<polygon fill="midnightblue" stroke="midnightblue" points="267.393,-143.875 259.457,-150.894 270.038,-150.356 267.393,-143.875"/>
</g>
</g>
</svg>
