<?xml version="1.0" encoding="UTF-8" standalone="no"?>
<!DOCTYPE svg PUBLIC "-//W3C//DTD SVG 1.1//EN"
 "http://www.w3.org/Graphics/SVG/1.1/DTD/svg11.dtd">
<!-- Generated by graphviz version 2.38.0 (20140413.2041)
 -->
<!-- Title: erpc::ArbitratedClientManager Pages: 1 -->
<svg width="1179pt" height="299pt"
 viewBox="0.00 0.00 1179.21 299.00" xmlns="http://www.w3.org/2000/svg" xmlns:xlink="http://www.w3.org/1999/xlink">
<g id="graph0" class="graph" transform="scale(1 1) rotate(0) translate(4 295)">
<title>erpc::ArbitratedClientManager</title>
<polygon fill="white" stroke="none" points="-4,4 -4,-295 1175.21,-295 1175.21,4 -4,4"/>
<!-- Node2 -->
<g id="node1" class="node"><title>Node2</title>
<polygon fill="#bfbfbf" stroke="black" points="1021.82,-184.5 1021.82,-202.5 1171.21,-202.5 1171.21,-184.5 1021.82,-184.5"/>
<text text-anchor="middle" x="1096.52" y="-190.5" font-family="Helvetica,sans-Serif" font-size="10.00">erpc::ArbitratedClientManager</text>
</g>
<!-- Node3 -->
<g id="node2" class="node"><title>Node3</title>
<g id="a_node2"><a xlink:href="classerpc_1_1_client_manager.html" target="_top" xlink:title="Base client implementation. ">
<polygon fill="white" stroke="black" points="813.83,-218.5 813.83,-236.5 919.874,-236.5 919.874,-218.5 813.83,-218.5"/>
<text text-anchor="middle" x="866.852" y="-224.5" font-family="Helvetica,sans-Serif" font-size="10.00">erpc::ClientManager</text>
</a>
</g>
</g>
<!-- Node3&#45;&gt;Node2 -->
<g id="edge1" class="edge"><title>Node3&#45;&gt;Node2</title>
<path fill="none" stroke="midnightblue" d="M929.984,-218.221C962.688,-213.337 1002.62,-207.373 1035.07,-202.527"/>
<polygon fill="midnightblue" stroke="midnightblue" points="929.456,-214.761 920.083,-219.7 930.49,-221.684 929.456,-214.761"/>
</g>
<!-- Node4 -->
<g id="node3" class="node"><title>Node4</title>
<g id="a_node3"><a xlink:href="classerpc_1_1_codec_factory.html" target="_top" xlink:title="Abstract interface for codec factory. ">
<polygon fill="white" stroke="black" points="555.644,-272.5 555.644,-290.5 658.899,-290.5 658.899,-272.5 555.644,-272.5"/>
<text text-anchor="middle" x="607.271" y="-278.5" font-family="Helvetica,sans-Serif" font-size="10.00">erpc::CodecFactory</text>
</a>
</g>
</g>
<!-- Node4&#45;&gt;Node3 -->
<g id="edge2" class="edge"><title>Node4&#45;&gt;Node3</title>
<path fill="none" stroke="#9a32cd" stroke-dasharray="5,2" d="M669.022,-274.43C703.723,-269.778 747.894,-262.815 786.572,-253.5 805.302,-248.989 825.969,-242.148 841.505,-236.615"/>
<polygon fill="#9a32cd" stroke="#9a32cd" points="668.497,-270.969 659.037,-275.74 669.408,-277.909 668.497,-270.969"/>
<text text-anchor="middle" x="741.279" y="-272.5" font-family="Helvetica,sans-Serif" font-size="10.00"> m_codecFactory</text>
</g>
<!-- Node5 -->
<g id="node4" class="node"><title>Node5</title>
<g id="a_node4"><a xlink:href="classerpc_1_1_transport.html" target="_top" xlink:title="Abstract interface for transport layer. ">
<polygon fill="white" stroke="black" points="565.553,-169.5 565.553,-187.5 648.99,-187.5 648.99,-169.5 565.553,-169.5"/>
<text text-anchor="middle" x="607.271" y="-175.5" font-family="Helvetica,sans-Serif" font-size="10.00">erpc::Transport</text>
</a>
</g>
</g>
<!-- Node5&#45;&gt;Node3 -->
<g id="edge3" class="edge"><title>Node5&#45;&gt;Node3</title>
<path fill="none" stroke="#9a32cd" stroke-dasharray="5,2" d="M659.187,-188.186C705.409,-196.979 773.059,-209.848 818.228,-218.44"/>
<polygon fill="#9a32cd" stroke="#9a32cd" points="659.564,-184.695 649.086,-186.264 658.256,-191.571 659.564,-184.695"/>
<text text-anchor="middle" x="741.279" y="-214.5" font-family="Helvetica,sans-Serif" font-size="10.00"> m_transport</text>
</g>
<!-- Node7 -->
<g id="node6" class="node"><title>Node7</title>
<g id="a_node6"><a xlink:href="classerpc_1_1_transport_arbitrator.html" target="_top" xlink:title="Interposer to share transport between client and server. ">
<polygon fill="white" stroke="black" points="804.572,-121.5 804.572,-139.5 929.132,-139.5 929.132,-121.5 804.572,-121.5"/>
<text text-anchor="middle" x="866.852" y="-127.5" font-family="Helvetica,sans-Serif" font-size="10.00">erpc::TransportArbitrator</text>
</a>
</g>
</g>
<!-- Node5&#45;&gt;Node7 -->
<g id="edge6" class="edge"><title>Node5&#45;&gt;Node7</title>
<path fill="none" stroke="midnightblue" d="M659.502,-178.879C695.524,-178.084 744.591,-174.851 786.572,-164.5 809.11,-158.943 833.42,-147.651 849.093,-139.606"/>
<polygon fill="midnightblue" stroke="midnightblue" points="659.176,-175.384 649.235,-179.048 659.291,-182.383 659.176,-175.384"/>
</g>
<!-- Node5&#45;&gt;Node7 -->
<g id="edge11" class="edge"><title>Node5&#45;&gt;Node7</title>
<path fill="none" stroke="#9a32cd" stroke-dasharray="5,2" d="M645.772,-166.535C661.202,-161.947 679.33,-156.983 695.986,-153.5 731.67,-146.039 772.099,-140.452 804.561,-136.654"/>
<polygon fill="#9a32cd" stroke="#9a32cd" points="644.62,-163.226 636.064,-169.476 646.65,-169.926 644.62,-163.226"/>
<text text-anchor="middle" x="741.279" y="-155.5" font-family="Helvetica,sans-Serif" font-size="10.00"> m_sharedTransport</text>
</g>
<!-- Node6 -->
<g id="node5" class="node"><title>Node6</title>
<g id="a_node5"><a xlink:href="classerpc_1_1_message_buffer_factory.html" target="_top" xlink:title="Abstract interface for message buffer factory. ">
<polygon fill="white" stroke="black" points="536.557,-235.5 536.557,-253.5 677.986,-253.5 677.986,-235.5 536.557,-235.5"/>
<text text-anchor="middle" x="607.271" y="-241.5" font-family="Helvetica,sans-Serif" font-size="10.00">erpc::MessageBufferFactory</text>
</a>
</g>
</g>
<!-- Node6&#45;&gt;Node3 -->
<g id="edge4" class="edge"><title>Node6&#45;&gt;Node3</title>
<path fill="none" stroke="#9a32cd" stroke-dasharray="5,2" d="M688.526,-239.203C729.38,-236.507 777.866,-233.307 813.804,-230.935"/>
<polygon fill="#9a32cd" stroke="#9a32cd" points="688.064,-235.726 678.316,-239.877 688.525,-242.711 688.064,-235.726"/>
<text text-anchor="middle" x="741.279" y="-241.5" font-family="Helvetica,sans-Serif" font-size="10.00"> m_messageFactory</text>
</g>
<!-- Node7&#45;&gt;Node2 -->
<g id="edge5" class="edge"><title>Node7&#45;&gt;Node2</title>
<path fill="none" stroke="#9a32cd" stroke-dasharray="5,2" d="M910.341,-142.258C954.557,-154.493 1022.83,-173.387 1062.96,-184.49"/>
<polygon fill="#9a32cd" stroke="#9a32cd" points="911.042,-138.82 900.471,-139.526 909.175,-145.567 911.042,-138.82"/>
<text text-anchor="middle" x="975.474" y="-170.5" font-family="Helvetica,sans-Serif" font-size="10.00"> m_arbitrator</text>
</g>
<!-- Node8 -->
<g id="node7" class="node"><title>Node8</title>
<g id="a_node7"><a xlink:href="classerpc_1_1_mutex.html" target="_top" xlink:title="Mutex. ">
<polygon fill="white" stroke="black" points="573.151,-114.5 573.151,-132.5 641.392,-132.5 641.392,-114.5 573.151,-114.5"/>
<text text-anchor="middle" x="607.271" y="-120.5" font-family="Helvetica,sans-Serif" font-size="10.00">erpc::Mutex</text>
</a>
</g>
</g>
<!-- Node8&#45;&gt;Node7 -->
<g id="edge7" class="edge"><title>Node8&#45;&gt;Node7</title>
<path fill="none" stroke="#9a32cd" stroke-dasharray="5,2" d="M651.682,-121.373C687.809,-119.997 740.579,-118.898 786.572,-121.5 792.381,-121.829 798.418,-122.292 804.451,-122.836"/>
<polygon fill="#9a32cd" stroke="#9a32cd" points="651.342,-117.884 641.492,-121.785 651.625,-124.878 651.342,-117.884"/>
<text text-anchor="middle" x="741.279" y="-123.5" font-family="Helvetica,sans-Serif" font-size="10.00"> m_clientListMutex</text>
</g>
<!-- Node9 -->
<g id="node8" class="node"><title>Node9</title>
<g id="a_node8"><a xlink:href="classerpc_1_1_codec.html" target="_top" xlink:title="Abstract serialization encoder/decoder interface. ">
<polygon fill="white" stroke="black" points="188.543,-51.5 188.543,-69.5 258.459,-69.5 258.459,-51.5 188.543,-51.5"/>
<text text-anchor="middle" x="223.501" y="-57.5" font-family="Helvetica,sans-Serif" font-size="10.00">erpc::Codec</text>
</a>
</g>
</g>
<!-- Node9&#45;&gt;Node7 -->
<g id="edge8" class="edge"><title>Node9&#45;&gt;Node7</title>
<path fill="none" stroke="#9a32cd" stroke-dasharray="5,2" d="M269,-64.619C350.269,-72.1858 528.146,-88.9519 677.986,-104.5 726.281,-109.511 738.51,-109.608 786.572,-116.5 796.672,-117.948 807.458,-119.709 817.718,-121.486"/>
<polygon fill="#9a32cd" stroke="#9a32cd" points="268.93,-61.0975 258.649,-63.6564 268.282,-68.0674 268.93,-61.0975"/>
<text text-anchor="middle" x="493.544" y="-90.5" font-family="Helvetica,sans-Serif" font-size="10.00"> m_codec</text>
</g>
<!-- Node14 -->
<g id="node13" class="node"><title>Node14</title>
<g id="a_node13"><a xlink:href="classerpc_1_1_request_context.html" target="_top" xlink:title="Encapsulates all information about a request. ">
<polygon fill="white" stroke="black" points="337.813,-1.5 337.813,-19.5 450.532,-19.5 450.532,-1.5 337.813,-1.5"/>
<text text-anchor="middle" x="394.173" y="-7.5" font-family="Helvetica,sans-Serif" font-size="10.00">erpc::RequestContext</text>
</a>
</g>
</g>
<!-- Node9&#45;&gt;Node14 -->
<g id="edge16" class="edge"><title>Node9&#45;&gt;Node14</title>
<path fill="none" stroke="#9a32cd" stroke-dasharray="5,2" d="M264.795,-48.5554C294.811,-39.6577 335.173,-27.693 362.57,-19.5716"/>
<polygon fill="#9a32cd" stroke="#9a32cd" points="263.639,-45.2475 255.046,-51.4454 265.629,-51.9589 263.639,-45.2475"/>
<text text-anchor="middle" x="298.136" y="-46.5" font-family="Helvetica,sans-Serif" font-size="10.00"> m_codec</text>
</g>
<!-- Node10 -->
<g id="node9" class="node"><title>Node10</title>
<g id="a_node9"><a xlink:href="classerpc_1_1_message_buffer_1_1_cursor.html" target="_top" xlink:title="Cursor within a MessageBuffer. ">
<polygon fill="white" stroke="black" points="0,-67.5 0,-95.5 108.09,-95.5 108.09,-67.5 0,-67.5"/>
<text text-anchor="start" x="8" y="-83.5" font-family="Helvetica,sans-Serif" font-size="10.00">erpc::MessageBuffer</text>
<text text-anchor="middle" x="54.0449" y="-73.5" font-family="Helvetica,sans-Serif" font-size="10.00">::Cursor</text>
</a>
</g>
</g>
<!-- Node10&#45;&gt;Node9 -->
<g id="edge9" class="edge"><title>Node10&#45;&gt;Node9</title>
<path fill="none" stroke="#9a32cd" stroke-dasharray="5,2" d="M118.515,-73.5405C142.296,-70.5582 168.396,-67.2851 188.499,-64.7641"/>
<polygon fill="#9a32cd" stroke="#9a32cd" points="117.976,-70.0805 108.489,-74.7977 118.847,-77.0261 117.976,-70.0805"/>
<text text-anchor="middle" x="148.316" y="-74.5" font-family="Helvetica,sans-Serif" font-size="10.00"> m_cursor</text>
</g>
<!-- Node11 -->
<g id="node10" class="node"><title>Node11</title>
<g id="a_node10"><a xlink:href="classerpc_1_1_message_buffer.html" target="_top" xlink:title="Represents a memory buffer containing a message. ">
<polygon fill="white" stroke="black" points="0,-30.5 0,-48.5 108.09,-48.5 108.09,-30.5 0,-30.5"/>
<text text-anchor="middle" x="54.0449" y="-36.5" font-family="Helvetica,sans-Serif" font-size="10.00">erpc::MessageBuffer</text>
</a>
</g>
</g>
<!-- Node11&#45;&gt;Node9 -->
<g id="edge10" class="edge"><title>Node11&#45;&gt;Node9</title>
<path fill="none" stroke="#9a32cd" stroke-dasharray="5,2" d="M118.574,-47.0467C135.469,-49.0959 153.702,-51.345 170.543,-53.5 176.321,-54.2394 182.458,-55.0466 188.412,-55.8415"/>
<polygon fill="#9a32cd" stroke="#9a32cd" points="118.599,-43.5244 108.251,-45.7993 117.759,-50.4738 118.599,-43.5244"/>
<text text-anchor="middle" x="148.316" y="-55.5" font-family="Helvetica,sans-Serif" font-size="10.00"> m_buffer</text>
</g>
<!-- Node12 -->
<g id="node11" class="node"><title>Node12</title>
<g id="a_node11"><a xlink:href="structerpc_1_1_transport_arbitrator_1_1_pending_client_info.html" target="_top" xlink:title="Request info for a client trying to receive a response. ">
<polygon fill="white" stroke="black" points="544.992,-0.5 544.992,-28.5 669.551,-28.5 669.551,-0.5 544.992,-0.5"/>
<text text-anchor="start" x="552.992" y="-16.5" font-family="Helvetica,sans-Serif" font-size="10.00">erpc::TransportArbitrator</text>
<text text-anchor="middle" x="607.271" y="-6.5" font-family="Helvetica,sans-Serif" font-size="10.00">::PendingClientInfo</text>
</a>
</g>
</g>
<!-- Node12&#45;&gt;Node7 -->
<g id="edge12" class="edge"><title>Node12&#45;&gt;Node7</title>
<path fill="none" stroke="#9a32cd" stroke-dasharray="5,2" d="M680.166,-19.8754C714.03,-24.7365 754.034,-33.9718 786.572,-51.5 819.417,-69.1931 847.589,-104.784 859.623,-121.474"/>
<polygon fill="#9a32cd" stroke="#9a32cd" points="680.243,-16.3548 669.868,-18.5029 679.318,-23.2934 680.243,-16.3548"/>
<text text-anchor="middle" x="741.279" y="-63.5" font-family="Helvetica,sans-Serif" font-size="10.00"> m_clientFreeList</text>
<text text-anchor="middle" x="741.279" y="-53.5" font-family="Helvetica,sans-Serif" font-size="10.00">m_clientList</text>
</g>
<!-- Node12&#45;&gt;Node12 -->
<g id="edge14" class="edge"><title>Node12&#45;&gt;Node12</title>
<path fill="none" stroke="#9a32cd" stroke-dasharray="5,2" d="M587.025,-38.4873C589.175,-43.4413 595.924,-47 607.271,-47 625.428,-47 631.811,-37.8898 626.421,-28.5305"/>
<polygon fill="#9a32cd" stroke="#9a32cd" points="590.506,-38.8537 588.122,-28.5305 583.548,-38.087 590.506,-38.8537"/>
<text text-anchor="middle" x="607.271" y="-49" font-family="Helvetica,sans-Serif" font-size="10.00"> m_next</text>
</g>
<!-- Node13 -->
<g id="node12" class="node"><title>Node13</title>
<g id="a_node12"><a xlink:href="classerpc_1_1_semaphore.html" target="_top" xlink:title="Simple semaphore class. ">
<polygon fill="white" stroke="black" points="347.818,-38.5 347.818,-56.5 440.527,-56.5 440.527,-38.5 347.818,-38.5"/>
<text text-anchor="middle" x="394.173" y="-44.5" font-family="Helvetica,sans-Serif" font-size="10.00">erpc::Semaphore</text>
</a>
</g>
</g>
<!-- Node13&#45;&gt;Node12 -->
<g id="edge13" class="edge"><title>Node13&#45;&gt;Node12</title>
<path fill="none" stroke="#9a32cd" stroke-dasharray="5,2" d="M450.656,-38.8265C479.58,-34.3051 515.031,-28.7632 544.787,-24.1116"/>
<polygon fill="#9a32cd" stroke="#9a32cd" points="450.058,-35.3775 440.718,-40.3801 451.139,-42.2935 450.058,-35.3775"/>
<text text-anchor="middle" x="493.544" y="-38.5" font-family="Helvetica,sans-Serif" font-size="10.00"> m_sem</text>
</g>
<!-- Node14&#45;&gt;Node12 -->
<g id="edge15" class="edge"><title>Node14&#45;&gt;Node12</title>
<path fill="none" stroke="#9a32cd" stroke-dasharray="5,2" d="M460.71,-11.7418C487.557,-12.2505 518.458,-12.8361 544.863,-13.3364"/>
<polygon fill="#9a32cd" stroke="#9a32cd" points="460.701,-8.24113 450.637,-11.551 460.568,-15.2399 460.701,-8.24113"/>
<text text-anchor="middle" x="493.544" y="-15.5" font-family="Helvetica,sans-Serif" font-size="10.00"> m_request</text>
</g>
</g>
</svg>
