<?xml version="1.0" encoding="UTF-8" standalone="no"?>
<!DOCTYPE svg PUBLIC "-//W3C//DTD SVG 1.1//EN"
 "http://www.w3.org/Graphics/SVG/1.1/DTD/svg11.dtd">
<!-- Generated by graphviz version 2.38.0 (20140413.2041)
 -->
<!-- Title: erpc::ClientManager Pages: 1 -->
<svg width="371pt" height="92pt"
 viewBox="0.00 0.00 371.34 92.00" xmlns="http://www.w3.org/2000/svg" xmlns:xlink="http://www.w3.org/1999/xlink">
<g id="graph0" class="graph" transform="scale(1 1) rotate(0) translate(4 88)">
<title>erpc::ClientManager</title>
<polygon fill="white" stroke="none" points="-4,4 -4,-88 367.343,-88 367.343,4 -4,4"/>
<!-- Node2 -->
<g id="node1" class="node"><title>Node2</title>
<polygon fill="#bfbfbf" stroke="black" points="109.606,-0.5 109.606,-18.5 215.65,-18.5 215.65,-0.5 109.606,-0.5"/>
<text text-anchor="middle" x="162.628" y="-6.5" font-family="Helvetica,sans-Serif" font-size="10.00">erpc::ClientManager</text>
</g>
<!-- Node3 -->
<g id="node2" class="node"><title>Node3</title>
<g id="a_node2"><a xlink:href="classerpc_1_1_codec_factory.html" target="_top" xlink:title="Abstract interface for codec factory. ">
<polygon fill="white" stroke="black" points="0,-65.5 0,-83.5 103.256,-83.5 103.256,-65.5 0,-65.5"/>
<text text-anchor="middle" x="51.6279" y="-71.5" font-family="Helvetica,sans-Serif" font-size="10.00">erpc::CodecFactory</text>
</a>
</g>
</g>
<!-- Node3&#45;&gt;Node2 -->
<g id="edge1" class="edge"><title>Node3&#45;&gt;Node2</title>
<path fill="none" stroke="#9a32cd" stroke-dasharray="5,2" d="M62.1049,-57.1267C67.3239,-50.0859 74.1777,-42.2786 81.9336,-37 94.3675,-28.5376 109.704,-22.6117 123.655,-18.5445"/>
<polygon fill="#9a32cd" stroke="#9a32cd" points="59.2068,-55.1642 56.4237,-65.387 64.9743,-59.1311 59.2068,-55.1642"/>
<text text-anchor="middle" x="120.975" y="-39" font-family="Helvetica,sans-Serif" font-size="10.00"> m_codecFactory</text>
</g>
<!-- Node4 -->
<g id="node3" class="node"><title>Node4</title>
<g id="a_node3"><a xlink:href="classerpc_1_1_transport.html" target="_top" xlink:title="Abstract interface for transport layer. ">
<polygon fill="white" stroke="black" points="120.91,-65.5 120.91,-83.5 204.346,-83.5 204.346,-65.5 120.91,-65.5"/>
<text text-anchor="middle" x="162.628" y="-71.5" font-family="Helvetica,sans-Serif" font-size="10.00">erpc::Transport</text>
</a>
</g>
</g>
<!-- Node4&#45;&gt;Node2 -->
<g id="edge2" class="edge"><title>Node4&#45;&gt;Node2</title>
<path fill="none" stroke="#9a32cd" stroke-dasharray="5,2" d="M162.628,-54.9075C162.628,-42.8146 162.628,-27.6529 162.628,-18.539"/>
<polygon fill="#9a32cd" stroke="#9a32cd" points="159.128,-55.2638 162.628,-65.2639 166.128,-55.2639 159.128,-55.2638"/>
<text text-anchor="middle" x="190.694" y="-39" font-family="Helvetica,sans-Serif" font-size="10.00"> m_transport</text>
</g>
<!-- Node5 -->
<g id="node4" class="node"><title>Node5</title>
<g id="a_node4"><a xlink:href="classerpc_1_1_message_buffer_factory.html" target="_top" xlink:title="Abstract interface for message buffer factory. ">
<polygon fill="white" stroke="black" points="221.913,-65.5 221.913,-83.5 363.343,-83.5 363.343,-65.5 221.913,-65.5"/>
<text text-anchor="middle" x="292.628" y="-71.5" font-family="Helvetica,sans-Serif" font-size="10.00">erpc::MessageBufferFactory</text>
</a>
</g>
</g>
<!-- Node5&#45;&gt;Node2 -->
<g id="edge3" class="edge"><title>Node5&#45;&gt;Node2</title>
<path fill="none" stroke="#9a32cd" stroke-dasharray="5,2" d="M268.697,-60.5325C255.263,-53.377 238.133,-44.4568 222.628,-37 209.082,-30.4852 193.553,-23.6433 181.688,-18.5437"/>
<polygon fill="#9a32cd" stroke="#9a32cd" points="267.282,-63.7451 277.749,-65.3847 270.589,-57.5756 267.282,-63.7451"/>
<text text-anchor="middle" x="287.921" y="-39" font-family="Helvetica,sans-Serif" font-size="10.00"> m_messageFactory</text>
</g>
</g>
</svg>
