<?xml version="1.0" encoding="UTF-8" standalone="no"?>
<!DOCTYPE svg PUBLIC "-//W3C//DTD SVG 1.1//EN"
 "http://www.w3.org/Graphics/SVG/1.1/DTD/svg11.dtd">
<!-- Generated by graphviz version 2.38.0 (20140413.2041)
 -->
<!-- Title: erpc::TCPTransport Pages: 1 -->
<svg width="274pt" height="167pt"
 viewBox="0.00 0.00 273.86 167.00" xmlns="http://www.w3.org/2000/svg" xmlns:xlink="http://www.w3.org/1999/xlink">
<g id="graph0" class="graph" transform="scale(1 1) rotate(0) translate(4 163)">
<title>erpc::TCPTransport</title>
<polygon fill="white" stroke="none" points="-4,4 -4,-163 269.856,-163 269.856,4 -4,4"/>
<!-- Node3 -->
<g id="node1" class="node"><title>Node3</title>
<polygon fill="#bfbfbf" stroke="black" points="121,-0.5 121,-18.5 224.437,-18.5 224.437,-0.5 121,-0.5"/>
<text text-anchor="middle" x="172.718" y="-6.5" font-family="Helvetica,sans-Serif" font-size="10.00">erpc::TCPTransport</text>
</g>
<!-- Node4 -->
<g id="node2" class="node"><title>Node4</title>
<g id="a_node2"><a xlink:href="classerpc_1_1_framed_transport.html" target="_top" xlink:title="Base class for framed transport layers. ">
<polygon fill="white" stroke="black" points="29.7734,-65.5 29.7734,-83.5 147.663,-83.5 147.663,-65.5 29.7734,-65.5"/>
<text text-anchor="middle" x="88.7183" y="-71.5" font-family="Helvetica,sans-Serif" font-size="10.00">erpc::FramedTransport</text>
</a>
</g>
</g>
<!-- Node4&#45;&gt;Node3 -->
<g id="edge1" class="edge"><title>Node4&#45;&gt;Node3</title>
<path fill="none" stroke="midnightblue" d="M107.735,-59.2374C124.507,-46.6585 148.344,-28.7804 162,-18.539"/>
<polygon fill="midnightblue" stroke="midnightblue" points="105.6,-56.4638 99.6998,-65.2639 109.8,-62.0638 105.6,-56.4638"/>
</g>
<!-- Node5 -->
<g id="node3" class="node"><title>Node5</title>
<g id="a_node3"><a xlink:href="classerpc_1_1_transport.html" target="_top" xlink:title="Abstract interface for transport layer. ">
<polygon fill="white" stroke="black" points="0,-140.5 0,-158.5 83.4365,-158.5 83.4365,-140.5 0,-140.5"/>
<text text-anchor="middle" x="41.7183" y="-146.5" font-family="Helvetica,sans-Serif" font-size="10.00">erpc::Transport</text>
</a>
</g>
</g>
<!-- Node5&#45;&gt;Node4 -->
<g id="edge2" class="edge"><title>Node5&#45;&gt;Node4</title>
<path fill="none" stroke="midnightblue" d="M52.5689,-131.647C62.2021,-116.685 75.8751,-95.4479 83.3411,-83.8518"/>
<polygon fill="midnightblue" stroke="midnightblue" points="49.3983,-130.106 46.9277,-140.409 55.2839,-133.895 49.3983,-130.106"/>
</g>
<!-- Node6 -->
<g id="node4" class="node"><title>Node6</title>
<g id="a_node4"><a xlink:href="classerpc_1_1_mutex.html" target="_top" xlink:title="Mutex. ">
<polygon fill="white" stroke="black" points="101.598,-140.5 101.598,-158.5 169.839,-158.5 169.839,-140.5 101.598,-140.5"/>
<text text-anchor="middle" x="135.718" y="-146.5" font-family="Helvetica,sans-Serif" font-size="10.00">erpc::Mutex</text>
</a>
</g>
</g>
<!-- Node6&#45;&gt;Node4 -->
<g id="edge3" class="edge"><title>Node6&#45;&gt;Node4</title>
<path fill="none" stroke="#9a32cd" stroke-dasharray="5,2" d="M124.868,-131.647C115.234,-116.685 101.561,-95.4479 94.0954,-83.8518"/>
<polygon fill="#9a32cd" stroke="#9a32cd" points="122.153,-133.895 130.509,-140.409 128.038,-130.106 122.153,-133.895"/>
<text text-anchor="middle" x="152.344" y="-114" font-family="Helvetica,sans-Serif" font-size="10.00"> m_sendLock</text>
<text text-anchor="middle" x="152.344" y="-104" font-family="Helvetica,sans-Serif" font-size="10.00">m_receiveLock</text>
</g>
<!-- Node7 -->
<g id="node5" class="node"><title>Node7</title>
<g id="a_node5"><a xlink:href="classerpc_1_1_thread.html" target="_top" xlink:title="Simple thread class. ">
<polygon fill="white" stroke="black" points="165.371,-65.5 165.371,-83.5 238.065,-83.5 238.065,-65.5 165.371,-65.5"/>
<text text-anchor="middle" x="201.718" y="-71.5" font-family="Helvetica,sans-Serif" font-size="10.00">erpc::Thread</text>
</a>
</g>
</g>
<!-- Node7&#45;&gt;Node3 -->
<g id="edge4" class="edge"><title>Node7&#45;&gt;Node3</title>
<path fill="none" stroke="#9a32cd" stroke-dasharray="5,2" d="M193.672,-56.0204C188.028,-43.7582 180.744,-27.9348 176.419,-18.539"/>
<polygon fill="#9a32cd" stroke="#9a32cd" points="190.566,-57.6436 197.927,-65.2639 196.925,-54.7165 190.566,-57.6436"/>
<text text-anchor="middle" x="227.787" y="-39" font-family="Helvetica,sans-Serif" font-size="10.00"> m_serverThread</text>
</g>
</g>
</svg>
