<?xml version="1.0" encoding="UTF-8" standalone="no"?>
<!DOCTYPE svg PUBLIC "-//W3C//DTD SVG 1.1//EN"
 "http://www.w3.org/Graphics/SVG/1.1/DTD/svg11.dtd">
<!-- Generated by graphviz version 2.38.0 (20140413.2041)
 -->
<!-- Title: erpc::RPMsgTransport Pages: 1 -->
<svg width="124pt" height="82pt"
 viewBox="0.00 0.00 124.22 82.00" xmlns="http://www.w3.org/2000/svg" xmlns:xlink="http://www.w3.org/1999/xlink">
<g id="graph0" class="graph" transform="scale(1 1) rotate(0) translate(4 78)">
<title>erpc::RPMsgTransport</title>
<polygon fill="white" stroke="none" points="-4,4 -4,-78 120.22,-78 120.22,4 -4,4"/>
<!-- Node0 -->
<g id="node1" class="node"><title>Node0</title>
<polygon fill="#bfbfbf" stroke="black" points="0,-0.5 0,-18.5 116.22,-18.5 116.22,-0.5 0,-0.5"/>
<text text-anchor="middle" x="58.1099" y="-6.5" font-family="Helvetica,sans-Serif" font-size="10.00">erpc::RPMsgTransport</text>
</g>
<!-- Node1 -->
<g id="node2" class="node"><title>Node1</title>
<g id="a_node2"><a xlink:href="classerpc_1_1_transport.html" target="_top" xlink:title="Abstract interface for transport layer. ">
<polygon fill="white" stroke="black" points="16.3916,-55.5 16.3916,-73.5 99.8281,-73.5 99.8281,-55.5 16.3916,-55.5"/>
<text text-anchor="middle" x="58.1099" y="-61.5" font-family="Helvetica,sans-Serif" font-size="10.00">erpc::Transport</text>
</a>
</g>
</g>
<!-- Node1&#45;&gt;Node0 -->
<g id="edge1" class="edge"><title>Node1&#45;&gt;Node0</title>
<path fill="none" stroke="midnightblue" d="M51.6538,-45.1746C50.981,-36.0945 51.4632,-25.5949 53.1005,-18.5496"/>
<polygon fill="midnightblue" stroke="midnightblue" points="48.2062,-45.7947 53.0474,-55.2188 55.1398,-44.8326 48.2062,-45.7947"/>
</g>
<!-- Node1&#45;&gt;Node0 -->
<g id="edge2" class="edge"><title>Node1&#45;&gt;Node0</title>
<path fill="none" stroke="midnightblue" d="M64.5659,-45.1746C65.2387,-36.0945 64.7565,-25.5949 63.1192,-18.5496"/>
<polygon fill="midnightblue" stroke="midnightblue" points="61.0799,-44.8326 63.1724,-55.2188 68.0135,-45.7947 61.0799,-44.8326"/>
</g>
</g>
</svg>
