<?xml version="1.0" encoding="UTF-8" standalone="no"?>
<!DOCTYPE svg PUBLIC "-//W3C//DTD SVG 1.1//EN"
 "http://www.w3.org/Graphics/SVG/1.1/DTD/svg11.dtd">
<!-- Generated by graphviz version 2.38.0 (20140413.2041)
 -->
<!-- Title: erpc::FramedTransport Pages: 1 -->
<svg width="415pt" height="249pt"
 viewBox="0.00 0.00 415.33 249.00" xmlns="http://www.w3.org/2000/svg" xmlns:xlink="http://www.w3.org/1999/xlink">
<g id="graph0" class="graph" transform="scale(1 1) rotate(0) translate(4 245)">
<title>erpc::FramedTransport</title>
<polygon fill="white" stroke="none" points="-4,4 -4,-245 411.329,-245 411.329,4 -4,4"/>
<!-- Node0 -->
<g id="node1" class="node"><title>Node0</title>
<polygon fill="#bfbfbf" stroke="black" points="119.437,-111.5 119.437,-129.5 237.326,-129.5 237.326,-111.5 119.437,-111.5"/>
<text text-anchor="middle" x="178.381" y="-117.5" font-family="Helvetica,sans-Serif" font-size="10.00">erpc::FramedTransport</text>
</g>
<!-- Node2 -->
<g id="node3" class="node"><title>Node2</title>
<g id="a_node3"><a xlink:href="classerpc_1_1_dspi_master_transport.html" target="_top" xlink:title="Very basic transport to send/receive messages via DSPI. ">
<polygon fill="white" stroke="black" points="273.326,-222.5 273.326,-240.5 407.329,-240.5 407.329,-222.5 273.326,-222.5"/>
<text text-anchor="middle" x="340.328" y="-228.5" font-family="Helvetica,sans-Serif" font-size="10.00">erpc::DspiMasterTransport</text>
</a>
</g>
</g>
<!-- Node0&#45;&gt;Node2 -->
<g id="edge2" class="edge"><title>Node0&#45;&gt;Node2</title>
<path fill="none" stroke="midnightblue" d="M192.188,-137.779C208.658,-158.777 239.234,-193.831 273.326,-213.5 279.705,-217.18 286.865,-220.133 294.054,-222.496"/>
<polygon fill="midnightblue" stroke="midnightblue" points="194.881,-135.54 186.023,-129.727 189.323,-139.795 194.881,-135.54"/>
</g>
<!-- Node3 -->
<g id="node4" class="node"><title>Node3</title>
<g id="a_node4"><a xlink:href="classerpc_1_1_dspi_slave_transport.html" target="_top" xlink:title="Very basic transport to send/receive messages via DSPI. ">
<polygon fill="white" stroke="black" points="276.1,-185.5 276.1,-203.5 404.556,-203.5 404.556,-185.5 276.1,-185.5"/>
<text text-anchor="middle" x="340.328" y="-191.5" font-family="Helvetica,sans-Serif" font-size="10.00">erpc::DspiSlaveTransport</text>
</a>
</g>
</g>
<!-- Node0&#45;&gt;Node3 -->
<g id="edge3" class="edge"><title>Node0&#45;&gt;Node3</title>
<path fill="none" stroke="midnightblue" d="M200.421,-135.312C218.903,-147.759 246.896,-165.266 273.326,-176.5 281.524,-179.984 290.584,-182.972 299.296,-185.455"/>
<polygon fill="midnightblue" stroke="midnightblue" points="202.389,-132.418 192.16,-129.659 198.435,-138.195 202.389,-132.418"/>
</g>
<!-- Node4 -->
<g id="node5" class="node"><title>Node4</title>
<g id="a_node5"><a xlink:href="classerpc_1_1_serial_transport.html" target="_top" xlink:title="Serial transport layer for host PC. ">
<polygon fill="white" stroke="black" points="285.826,-148.5 285.826,-166.5 394.829,-166.5 394.829,-148.5 285.826,-148.5"/>
<text text-anchor="middle" x="340.328" y="-154.5" font-family="Helvetica,sans-Serif" font-size="10.00">erpc::SerialTransport</text>
</a>
</g>
</g>
<!-- Node0&#45;&gt;Node4 -->
<g id="edge4" class="edge"><title>Node0&#45;&gt;Node4</title>
<path fill="none" stroke="midnightblue" d="M228.458,-131.853C251.539,-137.192 278.678,-143.47 300.327,-148.478"/>
<polygon fill="midnightblue" stroke="midnightblue" points="229.04,-128.395 218.509,-129.551 227.462,-135.215 229.04,-128.395"/>
</g>
<!-- Node5 -->
<g id="node6" class="node"><title>Node5</title>
<g id="a_node6"><a xlink:href="classerpc_1_1_spi_master_transport.html" target="_top" xlink:title="Very basic transport to send/receive messages via SPI. ">
<polygon fill="white" stroke="black" points="276.102,-111.5 276.102,-129.5 404.553,-129.5 404.553,-111.5 276.102,-111.5"/>
<text text-anchor="middle" x="340.328" y="-117.5" font-family="Helvetica,sans-Serif" font-size="10.00">erpc::SpiMasterTransport</text>
</a>
</g>
</g>
<!-- Node0&#45;&gt;Node5 -->
<g id="edge5" class="edge"><title>Node0&#45;&gt;Node5</title>
<path fill="none" stroke="midnightblue" d="M247.68,-120.5C257.093,-120.5 266.727,-120.5 276.044,-120.5"/>
<polygon fill="midnightblue" stroke="midnightblue" points="247.578,-117 237.578,-120.5 247.578,-124 247.578,-117"/>
</g>
<!-- Node6 -->
<g id="node7" class="node"><title>Node6</title>
<g id="a_node7"><a xlink:href="classerpc_1_1_spi_slave_transport.html" target="_top" xlink:title="Very basic transport to send/receive messages via SPI. ">
<polygon fill="white" stroke="black" points="278.875,-74.5 278.875,-92.5 401.78,-92.5 401.78,-74.5 278.875,-74.5"/>
<text text-anchor="middle" x="340.328" y="-80.5" font-family="Helvetica,sans-Serif" font-size="10.00">erpc::SpiSlaveTransport</text>
</a>
</g>
</g>
<!-- Node0&#45;&gt;Node6 -->
<g id="edge6" class="edge"><title>Node0&#45;&gt;Node6</title>
<path fill="none" stroke="midnightblue" d="M228.458,-109.147C251.539,-103.808 278.678,-97.53 300.327,-92.5218"/>
<polygon fill="midnightblue" stroke="midnightblue" points="227.462,-105.785 218.509,-111.449 229.04,-112.605 227.462,-105.785"/>
</g>
<!-- Node7 -->
<g id="node8" class="node"><title>Node7</title>
<g id="a_node8"><a xlink:href="classerpc_1_1_t_c_p_transport.html" target="_top" xlink:title="Client side of TCP/IP transport. ">
<polygon fill="white" stroke="black" points="288.609,-37.5 288.609,-55.5 392.046,-55.5 392.046,-37.5 288.609,-37.5"/>
<text text-anchor="middle" x="340.328" y="-43.5" font-family="Helvetica,sans-Serif" font-size="10.00">erpc::TCPTransport</text>
</a>
</g>
</g>
<!-- Node0&#45;&gt;Node7 -->
<g id="edge7" class="edge"><title>Node0&#45;&gt;Node7</title>
<path fill="none" stroke="midnightblue" d="M200.421,-105.688C218.903,-93.2411 246.896,-75.7338 273.326,-64.5 281.524,-61.0156 290.584,-58.0279 299.296,-55.5449"/>
<polygon fill="midnightblue" stroke="midnightblue" points="198.435,-102.805 192.16,-111.341 202.389,-108.582 198.435,-102.805"/>
</g>
<!-- Node8 -->
<g id="node9" class="node"><title>Node8</title>
<g id="a_node9"><a xlink:href="classerpc_1_1_uart_transport.html" target="_top" xlink:title="Very basic transport to send/receive messages via UART. ">
<polygon fill="white" stroke="black" points="289.164,-0.5 289.164,-18.5 391.492,-18.5 391.492,-0.5 289.164,-0.5"/>
<text text-anchor="middle" x="340.328" y="-6.5" font-family="Helvetica,sans-Serif" font-size="10.00">erpc::UartTransport</text>
</a>
</g>
</g>
<!-- Node0&#45;&gt;Node8 -->
<g id="edge8" class="edge"><title>Node0&#45;&gt;Node8</title>
<path fill="none" stroke="midnightblue" d="M192.188,-103.221C208.658,-82.2227 239.234,-47.1692 273.326,-27.5 279.705,-23.82 286.865,-20.8668 294.054,-18.5041"/>
<polygon fill="midnightblue" stroke="midnightblue" points="189.323,-101.205 186.023,-111.273 194.881,-105.46 189.323,-101.205"/>
</g>
<!-- Node1 -->
<g id="node2" class="node"><title>Node1</title>
<g id="a_node2"><a xlink:href="classerpc_1_1_transport.html" target="_top" xlink:title="Abstract interface for transport layer. ">
<polygon fill="white" stroke="black" points="0,-111.5 0,-129.5 83.4365,-129.5 83.4365,-111.5 0,-111.5"/>
<text text-anchor="middle" x="41.7183" y="-117.5" font-family="Helvetica,sans-Serif" font-size="10.00">erpc::Transport</text>
</a>
</g>
</g>
<!-- Node1&#45;&gt;Node0 -->
<g id="edge1" class="edge"><title>Node1&#45;&gt;Node0</title>
<path fill="none" stroke="midnightblue" d="M93.5476,-120.5C101.977,-120.5 110.773,-120.5 119.364,-120.5"/>
<polygon fill="midnightblue" stroke="midnightblue" points="93.4871,-117 83.4871,-120.5 93.487,-124 93.4871,-117"/>
</g>
</g>
</svg>
