<?xml version="1.0" encoding="UTF-8" standalone="no"?>
<!DOCTYPE svg PUBLIC "-//W3C//DTD SVG 1.1//EN"
 "http://www.w3.org/Graphics/SVG/1.1/DTD/svg11.dtd">
<!-- Generated by graphviz version 2.38.0 (20140413.2041)
 -->
<!-- Title: erpc::SpiSlaveTransport Pages: 1 -->
<svg width="131pt" height="137pt"
 viewBox="0.00 0.00 130.90 137.00" xmlns="http://www.w3.org/2000/svg" xmlns:xlink="http://www.w3.org/1999/xlink">
<g id="graph0" class="graph" transform="scale(1 1) rotate(0) translate(4 133)">
<title>erpc::SpiSlaveTransport</title>
<polygon fill="white" stroke="none" points="-4,4 -4,-133 126.904,-133 126.904,4 -4,4"/>
<!-- Node0 -->
<g id="node1" class="node"><title>Node0</title>
<polygon fill="#bfbfbf" stroke="black" points="0,-0.5 0,-18.5 122.904,-18.5 122.904,-0.5 0,-0.5"/>
<text text-anchor="middle" x="61.4521" y="-6.5" font-family="Helvetica,sans-Serif" font-size="10.00">erpc::SpiSlaveTransport</text>
</g>
<!-- Node1 -->
<g id="node2" class="node"><title>Node1</title>
<g id="a_node2"><a xlink:href="classerpc_1_1_framed_transport.html" target="_top" xlink:title="Base class for framed transport layers. ">
<polygon fill="white" stroke="black" points="2.50732,-55.5 2.50732,-73.5 120.397,-73.5 120.397,-55.5 2.50732,-55.5"/>
<text text-anchor="middle" x="61.4521" y="-61.5" font-family="Helvetica,sans-Serif" font-size="10.00">erpc::FramedTransport</text>
</a>
</g>
</g>
<!-- Node1&#45;&gt;Node0 -->
<g id="edge1" class="edge"><title>Node1&#45;&gt;Node0</title>
<path fill="none" stroke="midnightblue" d="M61.4521,-45.1746C61.4521,-36.0945 61.4521,-25.5949 61.4521,-18.5496"/>
<polygon fill="midnightblue" stroke="midnightblue" points="57.9522,-45.2187 61.4521,-55.2188 64.9522,-45.2188 57.9522,-45.2187"/>
</g>
<!-- Node2 -->
<g id="node3" class="node"><title>Node2</title>
<g id="a_node3"><a xlink:href="classerpc_1_1_transport.html" target="_top" xlink:title="Abstract interface for transport layer. ">
<polygon fill="white" stroke="black" points="19.7339,-110.5 19.7339,-128.5 103.17,-128.5 103.17,-110.5 19.7339,-110.5"/>
<text text-anchor="middle" x="61.4521" y="-116.5" font-family="Helvetica,sans-Serif" font-size="10.00">erpc::Transport</text>
</a>
</g>
</g>
<!-- Node2&#45;&gt;Node1 -->
<g id="edge2" class="edge"><title>Node2&#45;&gt;Node1</title>
<path fill="none" stroke="midnightblue" d="M61.4521,-100.175C61.4521,-91.0945 61.4521,-80.5949 61.4521,-73.5496"/>
<polygon fill="midnightblue" stroke="midnightblue" points="57.9522,-100.219 61.4521,-110.219 64.9522,-100.219 57.9522,-100.219"/>
</g>
</g>
</svg>
