<?xml version="1.0" encoding="UTF-8" standalone="no"?>
<!DOCTYPE svg PUBLIC "-//W3C//DTD SVG 1.1//EN"
 "http://www.w3.org/Graphics/SVG/1.1/DTD/svg11.dtd">
<!-- Generated by graphviz version 2.38.0 (20140413.2041)
 -->
<!-- Title: erpc::InterThreadBufferTransport Pages: 1 -->
<svg width="566pt" height="148pt"
 viewBox="0.00 0.00 566.37 148.00" xmlns="http://www.w3.org/2000/svg" xmlns:xlink="http://www.w3.org/1999/xlink">
<g id="graph0" class="graph" transform="scale(1 1) rotate(0) translate(4 144)">
<title>erpc::InterThreadBufferTransport</title>
<polygon fill="white" stroke="none" points="-4,4 -4,-144 562.369,-144 562.369,4 -4,4"/>
<!-- Node2 -->
<g id="node1" class="node"><title>Node2</title>
<polygon fill="#bfbfbf" stroke="black" points="396.734,-58.5 396.734,-76.5 558.369,-76.5 558.369,-58.5 396.734,-58.5"/>
<text text-anchor="middle" x="477.552" y="-64.5" font-family="Helvetica,sans-Serif" font-size="10.00">erpc::InterThreadBufferTransport</text>
</g>
<!-- Node2&#45;&gt;Node2 -->
<g id="edge4" class="edge"><title>Node2&#45;&gt;Node2</title>
<path fill="none" stroke="#9a32cd" stroke-dasharray="5,2" d="M454.352,-85.477C455.037,-90.832 462.771,-95 477.552,-95 500.075,-95 506.234,-85.322 496.028,-76.5134"/>
<polygon fill="#9a32cd" stroke="#9a32cd" points="457.51,-86.9919 459.076,-76.5134 451.317,-83.7284 457.51,-86.9919"/>
<text text-anchor="middle" x="477.552" y="-97" font-family="Helvetica,sans-Serif" font-size="10.00"> m_peer</text>
</g>
<!-- Node3 -->
<g id="node2" class="node"><title>Node3</title>
<g id="a_node2"><a xlink:href="classerpc_1_1_transport.html" target="_top" xlink:title="Abstract interface for transport layer. ">
<polygon fill="white" stroke="black" points="187.242,-121.5 187.242,-139.5 270.678,-139.5 270.678,-121.5 187.242,-121.5"/>
<text text-anchor="middle" x="228.96" y="-127.5" font-family="Helvetica,sans-Serif" font-size="10.00">erpc::Transport</text>
</a>
</g>
</g>
<!-- Node3&#45;&gt;Node2 -->
<g id="edge1" class="edge"><title>Node3&#45;&gt;Node2</title>
<path fill="none" stroke="midnightblue" d="M280.885,-119.284C290.496,-117.091 300.455,-114.767 309.777,-112.5 357.13,-100.984 411.565,-85.9561 445.011,-76.515"/>
<polygon fill="midnightblue" stroke="midnightblue" points="280.017,-115.891 271.037,-121.513 281.563,-122.719 280.017,-115.891"/>
</g>
<!-- Node4 -->
<g id="node3" class="node"><title>Node4</title>
<g id="a_node3"><a xlink:href="classerpc_1_1_inter_thread_buffer_transport.html#structerpc_1_1_inter_thread_buffer_transport_1_1_shared_state" target="_top" xlink:title="erpc::InterThreadBufferTransport\l::SharedState">
<polygon fill="white" stroke="black" points="148.143,-74.5 148.143,-102.5 309.777,-102.5 309.777,-74.5 148.143,-74.5"/>
<text text-anchor="start" x="156.143" y="-90.5" font-family="Helvetica,sans-Serif" font-size="10.00">erpc::InterThreadBufferTransport</text>
<text text-anchor="middle" x="228.96" y="-80.5" font-family="Helvetica,sans-Serif" font-size="10.00">::SharedState</text>
</a>
</g>
</g>
<!-- Node4&#45;&gt;Node2 -->
<g id="edge2" class="edge"><title>Node4&#45;&gt;Node2</title>
<path fill="none" stroke="#9a32cd" stroke-dasharray="5,2" d="M320.221,-80.8133C345.194,-78.6866 372.12,-76.3935 396.471,-74.3198"/>
<polygon fill="#9a32cd" stroke="#9a32cd" points="319.688,-77.3459 310.021,-81.6819 320.282,-84.3207 319.688,-77.3459"/>
<text text-anchor="middle" x="353.256" y="-82.5" font-family="Helvetica,sans-Serif" font-size="10.00"> m_state</text>
</g>
<!-- Node5 -->
<g id="node4" class="node"><title>Node5</title>
<g id="a_node4"><a xlink:href="classerpc_1_1_mutex.html" target="_top" xlink:title="Mutex. ">
<polygon fill="white" stroke="black" points="0,-79.5 0,-97.5 68.2412,-97.5 68.2412,-79.5 0,-79.5"/>
<text text-anchor="middle" x="34.1206" y="-85.5" font-family="Helvetica,sans-Serif" font-size="10.00">erpc::Mutex</text>
</a>
</g>
</g>
<!-- Node5&#45;&gt;Node4 -->
<g id="edge3" class="edge"><title>Node5&#45;&gt;Node4</title>
<path fill="none" stroke="#9a32cd" stroke-dasharray="5,2" d="M78.5403,-88.5C99.0481,-88.5 124.197,-88.5 147.972,-88.5"/>
<polygon fill="#9a32cd" stroke="#9a32cd" points="78.2709,-85.0001 68.2709,-88.5 78.2708,-92.0001 78.2709,-85.0001"/>
<text text-anchor="middle" x="108.192" y="-90.5" font-family="Helvetica,sans-Serif" font-size="10.00"> m_mutex</text>
</g>
<!-- Node6 -->
<g id="node5" class="node"><title>Node6</title>
<g id="a_node5"><a xlink:href="classerpc_1_1_semaphore.html" target="_top" xlink:title="Simple semaphore class. ">
<polygon fill="white" stroke="black" points="182.605,-37.5 182.605,-55.5 275.314,-55.5 275.314,-37.5 182.605,-37.5"/>
<text text-anchor="middle" x="228.96" y="-43.5" font-family="Helvetica,sans-Serif" font-size="10.00">erpc::Semaphore</text>
</a>
</g>
</g>
<!-- Node6&#45;&gt;Node2 -->
<g id="edge5" class="edge"><title>Node6&#45;&gt;Node2</title>
<path fill="none" stroke="#9a32cd" stroke-dasharray="5,2" d="M285.631,-47.2698C313.617,-48.0313 348.027,-49.5357 378.734,-52.5 393.783,-53.9527 410.045,-56.1792 424.907,-58.4757"/>
<polygon fill="#9a32cd" stroke="#9a32cd" points="285.713,-43.7708 275.629,-47.0215 285.539,-50.7687 285.713,-43.7708"/>
<text text-anchor="middle" x="353.256" y="-64.5" font-family="Helvetica,sans-Serif" font-size="10.00"> m_inSem</text>
<text text-anchor="middle" x="353.256" y="-54.5" font-family="Helvetica,sans-Serif" font-size="10.00">m_outSem</text>
</g>
<!-- Node7 -->
<g id="node6" class="node"><title>Node7</title>
<g id="a_node6"><a xlink:href="classerpc_1_1_message_buffer.html" target="_top" xlink:title="Represents a memory buffer containing a message. ">
<polygon fill="white" stroke="black" points="174.915,-0.5 174.915,-18.5 283.005,-18.5 283.005,-0.5 174.915,-0.5"/>
<text text-anchor="middle" x="228.96" y="-6.5" font-family="Helvetica,sans-Serif" font-size="10.00">erpc::MessageBuffer</text>
</a>
</g>
</g>
<!-- Node7&#45;&gt;Node2 -->
<g id="edge6" class="edge"><title>Node7&#45;&gt;Node2</title>
<path fill="none" stroke="#9a32cd" stroke-dasharray="5,2" d="M292.986,-18.4668C319.627,-22.7845 350.875,-28.5467 378.734,-35.5 404.218,-41.8605 432.689,-51.4676 452.313,-58.4956"/>
<polygon fill="#9a32cd" stroke="#9a32cd" points="293.444,-14.9957 283.019,-16.8833 292.346,-21.909 293.444,-14.9957"/>
<text text-anchor="middle" x="353.256" y="-37.5" font-family="Helvetica,sans-Serif" font-size="10.00"> m_inBuffer</text>
</g>
</g>
</svg>
