<?xml version="1.0" encoding="UTF-8" standalone="no"?>
<!DOCTYPE svg PUBLIC "-//W3C//DTD SVG 1.1//EN"
 "http://www.w3.org/Graphics/SVG/1.1/DTD/svg11.dtd">
<!-- Generated by graphviz version 2.38.0 (20140413.2041)
 -->
<!-- Title: erpc::Codec Pages: 1 -->
<svg width="242pt" height="102pt"
 viewBox="0.00 0.00 242.09 102.00" xmlns="http://www.w3.org/2000/svg" xmlns:xlink="http://www.w3.org/1999/xlink">
<g id="graph0" class="graph" transform="scale(1 1) rotate(0) translate(4 98)">
<title>erpc::Codec</title>
<polygon fill="white" stroke="none" points="-4,4 -4,-98 238.09,-98 238.09,4 -4,4"/>
<!-- Node2 -->
<g id="node1" class="node"><title>Node2</title>
<polygon fill="#bfbfbf" stroke="black" points="82.0869,-0.5 82.0869,-18.5 152.003,-18.5 152.003,-0.5 82.0869,-0.5"/>
<text text-anchor="middle" x="117.045" y="-6.5" font-family="Helvetica,sans-Serif" font-size="10.00">erpc::Codec</text>
</g>
<!-- Node3 -->
<g id="node2" class="node"><title>Node3</title>
<g id="a_node2"><a xlink:href="classerpc_1_1_message_buffer_1_1_cursor.html" target="_top" xlink:title="Cursor within a MessageBuffer. ">
<polygon fill="white" stroke="black" points="0,-65.5 0,-93.5 108.09,-93.5 108.09,-65.5 0,-65.5"/>
<text text-anchor="start" x="8" y="-81.5" font-family="Helvetica,sans-Serif" font-size="10.00">erpc::MessageBuffer</text>
<text text-anchor="middle" x="54.0449" y="-71.5" font-family="Helvetica,sans-Serif" font-size="10.00">::Cursor</text>
</a>
</g>
</g>
<!-- Node3&#45;&gt;Node2 -->
<g id="edge1" class="edge"><title>Node3&#45;&gt;Node2</title>
<path fill="none" stroke="#9a32cd" stroke-dasharray="5,2" d="M73.2856,-57.7322C85.4018,-44.6544 100.385,-28.4819 109.304,-18.8552"/>
<polygon fill="#9a32cd" stroke="#9a32cd" points="70.4207,-55.6746 66.192,-65.3889 75.5557,-60.432 70.4207,-55.6746"/>
<text text-anchor="middle" x="114.271" y="-39" font-family="Helvetica,sans-Serif" font-size="10.00"> m_cursor</text>
</g>
<!-- Node4 -->
<g id="node3" class="node"><title>Node4</title>
<g id="a_node3"><a xlink:href="classerpc_1_1_message_buffer.html" target="_top" xlink:title="Represents a memory buffer containing a message. ">
<polygon fill="white" stroke="black" points="126,-70.5 126,-88.5 234.09,-88.5 234.09,-70.5 126,-70.5"/>
<text text-anchor="middle" x="180.045" y="-76.5" font-family="Helvetica,sans-Serif" font-size="10.00">erpc::MessageBuffer</text>
</a>
</g>
</g>
<!-- Node4&#45;&gt;Node2 -->
<g id="edge2" class="edge"><title>Node4&#45;&gt;Node2</title>
<path fill="none" stroke="#9a32cd" stroke-dasharray="5,2" d="M165.762,-63.0835C152.945,-49.2498 134.64,-29.4915 124.51,-18.557"/>
<polygon fill="#9a32cd" stroke="#9a32cd" points="163.207,-65.4755 172.571,-70.4325 168.342,-60.7181 163.207,-65.4755"/>
<text text-anchor="middle" x="171.078" y="-39" font-family="Helvetica,sans-Serif" font-size="10.00"> m_buffer</text>
</g>
</g>
</svg>
