<?xml version="1.0" encoding="UTF-8" standalone="no"?>
<!DOCTYPE svg PUBLIC "-//W3C//DTD SVG 1.1//EN"
 "http://www.w3.org/Graphics/SVG/1.1/DTD/svg11.dtd">
<!-- Generated by graphviz version 2.38.0 (20140413.2041)
 -->
<!-- Title: erpc::DspiSlaveTransport Pages: 1 -->
<svg width="136pt" height="137pt"
 viewBox="0.00 0.00 136.46 137.00" xmlns="http://www.w3.org/2000/svg" xmlns:xlink="http://www.w3.org/1999/xlink">
<g id="graph0" class="graph" transform="scale(1 1) rotate(0) translate(4 133)">
<title>erpc::DspiSlaveTransport</title>
<polygon fill="white" stroke="none" points="-4,4 -4,-133 132.456,-133 132.456,4 -4,4"/>
<!-- Node0 -->
<g id="node1" class="node"><title>Node0</title>
<polygon fill="#bfbfbf" stroke="black" points="0,-0.5 0,-18.5 128.456,-18.5 128.456,-0.5 0,-0.5"/>
<text text-anchor="middle" x="64.228" y="-6.5" font-family="Helvetica,sans-Serif" font-size="10.00">erpc::DspiSlaveTransport</text>
</g>
<!-- Node1 -->
<g id="node2" class="node"><title>Node1</title>
<g id="a_node2"><a xlink:href="classerpc_1_1_framed_transport.html" target="_top" xlink:title="Base class for framed transport layers. ">
<polygon fill="white" stroke="black" points="5.2832,-55.5 5.2832,-73.5 123.173,-73.5 123.173,-55.5 5.2832,-55.5"/>
<text text-anchor="middle" x="64.228" y="-61.5" font-family="Helvetica,sans-Serif" font-size="10.00">erpc::FramedTransport</text>
</a>
</g>
</g>
<!-- Node1&#45;&gt;Node0 -->
<g id="edge1" class="edge"><title>Node1&#45;&gt;Node0</title>
<path fill="none" stroke="midnightblue" d="M64.228,-45.1746C64.228,-36.0945 64.228,-25.5949 64.228,-18.5496"/>
<polygon fill="midnightblue" stroke="midnightblue" points="60.7281,-45.2187 64.228,-55.2188 67.7281,-45.2188 60.7281,-45.2187"/>
</g>
<!-- Node2 -->
<g id="node3" class="node"><title>Node2</title>
<g id="a_node3"><a xlink:href="classerpc_1_1_transport.html" target="_top" xlink:title="Abstract interface for transport layer. ">
<polygon fill="white" stroke="black" points="22.5098,-110.5 22.5098,-128.5 105.946,-128.5 105.946,-110.5 22.5098,-110.5"/>
<text text-anchor="middle" x="64.228" y="-116.5" font-family="Helvetica,sans-Serif" font-size="10.00">erpc::Transport</text>
</a>
</g>
</g>
<!-- Node2&#45;&gt;Node1 -->
<g id="edge2" class="edge"><title>Node2&#45;&gt;Node1</title>
<path fill="none" stroke="midnightblue" d="M64.228,-100.175C64.228,-91.0945 64.228,-80.5949 64.228,-73.5496"/>
<polygon fill="midnightblue" stroke="midnightblue" points="60.7281,-100.219 64.228,-110.219 67.7281,-100.219 60.7281,-100.219"/>
</g>
</g>
</svg>
