<?xml version="1.0" encoding="UTF-8" standalone="no"?>
<!DOCTYPE svg PUBLIC "-//W3C//DTD SVG 1.1//EN"
 "http://www.w3.org/Graphics/SVG/1.1/DTD/svg11.dtd">
<!-- Generated by graphviz version 2.38.0 (20140413.2041)
 -->
<!-- Title: client_manager.h Pages: 1 -->
<svg width="274pt" height="82pt"
 viewBox="0.00 0.00 274.40 82.00" xmlns="http://www.w3.org/2000/svg" xmlns:xlink="http://www.w3.org/1999/xlink">
<g id="graph0" class="graph" transform="scale(1 1) rotate(0) translate(4 78)">
<title>client_manager.h</title>
<polygon fill="white" stroke="none" points="-4,4 -4,-78 270.403,-78 270.403,4 -4,4"/>
<!-- Node8 -->
<g id="node1" class="node"><title>Node8</title>
<polygon fill="#bfbfbf" stroke="black" points="94.9038,-55.5 94.9038,-73.5 187.071,-73.5 187.071,-55.5 94.9038,-55.5"/>
<text text-anchor="middle" x="140.987" y="-61.5" font-family="Helvetica,sans-Serif" font-size="10.00">client_manager.h</text>
</g>
<!-- Node9 -->
<g id="node2" class="node"><title>Node9</title>
<g id="a_node2"><a xlink:href="arbitrated__client__manager_8h.html" target="_top" xlink:title="arbitrated_client_manager.h">
<polygon fill="white" stroke="black" points="0,-0.5 0,-18.5 139.975,-18.5 139.975,-0.5 0,-0.5"/>
<text text-anchor="middle" x="69.9873" y="-6.5" font-family="Helvetica,sans-Serif" font-size="10.00">arbitrated_client_manager.h</text>
</a>
</g>
</g>
<!-- Node8&#45;&gt;Node9 -->
<g id="edge1" class="edge"><title>Node8&#45;&gt;Node9</title>
<path fill="none" stroke="midnightblue" d="M121.843,-49.2095C108.709,-39.4052 91.7528,-26.7474 80.8722,-18.6253"/>
<polygon fill="midnightblue" stroke="midnightblue" points="120.097,-52.2732 130.204,-55.4504 124.284,-46.6637 120.097,-52.2732"/>
</g>
<!-- Node10 -->
<g id="node3" class="node"><title>Node10</title>
<g id="a_node3"><a xlink:href="transport__arbitrator_8h.html" target="_top" xlink:title="transport_arbitrator.h">
<polygon fill="white" stroke="black" points="157.571,-0.5 157.571,-18.5 266.403,-18.5 266.403,-0.5 157.571,-0.5"/>
<text text-anchor="middle" x="211.987" y="-6.5" font-family="Helvetica,sans-Serif" font-size="10.00">transport_arbitrator.h</text>
</a>
</g>
</g>
<!-- Node8&#45;&gt;Node10 -->
<g id="edge2" class="edge"><title>Node8&#45;&gt;Node10</title>
<path fill="none" stroke="midnightblue" d="M160.131,-49.2095C173.265,-39.4052 190.222,-26.7474 201.102,-18.6253"/>
<polygon fill="midnightblue" stroke="midnightblue" points="157.691,-46.6637 151.771,-55.4504 161.878,-52.2732 157.691,-46.6637"/>
</g>
</g>
</svg>
