<?xml version="1.0" encoding="UTF-8" standalone="no"?>
<!DOCTYPE svg PUBLIC "-//W3C//DTD SVG 1.1//EN"
 "http://www.w3.org/Graphics/SVG/1.1/DTD/svg11.dtd">
<!-- Generated by graphviz version 2.38.0 (20140413.2041)
 -->
<!-- Title: codec.h Pages: 1 -->
<svg width="415pt" height="137pt"
 viewBox="0.00 0.00 415.00 137.00" xmlns="http://www.w3.org/2000/svg" xmlns:xlink="http://www.w3.org/1999/xlink">
<g id="graph0" class="graph" transform="scale(1 1) rotate(0) translate(4 133)">
<title>codec.h</title>
<polygon fill="white" stroke="none" points="-4,4 -4,-133 411.004,-133 411.004,4 -4,4"/>
<!-- Node7 -->
<g id="node1" class="node"><title>Node7</title>
<polygon fill="#bfbfbf" stroke="black" points="220.475,-110.5 220.475,-128.5 271.5,-128.5 271.5,-110.5 220.475,-110.5"/>
<text text-anchor="middle" x="245.987" y="-116.5" font-family="Helvetica,sans-Serif" font-size="10.00">codec.h</text>
</g>
<!-- Node8 -->
<g id="node2" class="node"><title>Node8</title>
<g id="a_node2"><a xlink:href="client__manager_8h.html" target="_top" xlink:title="client_manager.h">
<polygon fill="white" stroke="black" points="91.9038,-55.5 91.9038,-73.5 184.071,-73.5 184.071,-55.5 91.9038,-55.5"/>
<text text-anchor="middle" x="137.987" y="-61.5" font-family="Helvetica,sans-Serif" font-size="10.00">client_manager.h</text>
</a>
</g>
</g>
<!-- Node7&#45;&gt;Node8 -->
<g id="edge1" class="edge"><title>Node7&#45;&gt;Node8</title>
<path fill="none" stroke="midnightblue" d="M220.541,-106.013C200.149,-96.0052 172.13,-82.2551 154.545,-73.6253"/>
<polygon fill="midnightblue" stroke="midnightblue" points="219.065,-109.187 229.584,-110.45 222.149,-102.903 219.065,-109.187"/>
</g>
<!-- Node10 -->
<g id="node4" class="node"><title>Node10</title>
<g id="a_node4"><a xlink:href="transport__arbitrator_8h.html" target="_top" xlink:title="transport_arbitrator.h">
<polygon fill="white" stroke="black" points="157.571,-0.5 157.571,-18.5 266.403,-18.5 266.403,-0.5 157.571,-0.5"/>
<text text-anchor="middle" x="211.987" y="-6.5" font-family="Helvetica,sans-Serif" font-size="10.00">transport_arbitrator.h</text>
</a>
</g>
</g>
<!-- Node7&#45;&gt;Node10 -->
<g id="edge4" class="edge"><title>Node7&#45;&gt;Node10</title>
<path fill="none" stroke="midnightblue" d="M239.864,-100.796C237.089,-92.6556 233.805,-82.8595 230.987,-74 224.71,-54.2613 217.867,-30.8867 214.357,-18.7477"/>
<polygon fill="midnightblue" stroke="midnightblue" points="236.579,-102.006 243.138,-110.326 243.199,-99.7313 236.579,-102.006"/>
</g>
<!-- Node11 -->
<g id="node5" class="node"><title>Node11</title>
<g id="a_node5"><a xlink:href="basic__codec_8h.html" target="_top" xlink:title="basic_codec.h">
<polygon fill="white" stroke="black" points="240.022,-55.5 240.022,-73.5 319.953,-73.5 319.953,-55.5 240.022,-55.5"/>
<text text-anchor="middle" x="279.987" y="-61.5" font-family="Helvetica,sans-Serif" font-size="10.00">basic_codec.h</text>
</a>
</g>
</g>
<!-- Node7&#45;&gt;Node11 -->
<g id="edge5" class="edge"><title>Node7&#45;&gt;Node11</title>
<path fill="none" stroke="midnightblue" d="M256.792,-101.658C262.821,-92.2587 270.055,-80.9821 274.823,-73.5496"/>
<polygon fill="midnightblue" stroke="midnightblue" points="253.753,-99.9119 251.3,-110.219 259.645,-103.692 253.753,-99.9119"/>
</g>
<!-- Node12 -->
<g id="node6" class="node"><title>Node12</title>
<g id="a_node6"><a xlink:href="server_8h.html" target="_top" xlink:title="server.h">
<polygon fill="white" stroke="black" points="338.199,-55.5 338.199,-73.5 389.775,-73.5 389.775,-55.5 338.199,-55.5"/>
<text text-anchor="middle" x="363.987" y="-61.5" font-family="Helvetica,sans-Serif" font-size="10.00">server.h</text>
</a>
</g>
</g>
<!-- Node7&#45;&gt;Node12 -->
<g id="edge6" class="edge"><title>Node7&#45;&gt;Node12</title>
<path fill="none" stroke="midnightblue" d="M273.187,-106.283C295.515,-96.2545 326.51,-82.3332 345.897,-73.6253"/>
<polygon fill="midnightblue" stroke="midnightblue" points="271.597,-103.16 263.909,-110.45 274.465,-109.546 271.597,-103.16"/>
</g>
<!-- Node9 -->
<g id="node3" class="node"><title>Node9</title>
<g id="a_node3"><a xlink:href="arbitrated__client__manager_8h.html" target="_top" xlink:title="arbitrated_client_manager.h">
<polygon fill="white" stroke="black" points="0,-0.5 0,-18.5 139.975,-18.5 139.975,-0.5 0,-0.5"/>
<text text-anchor="middle" x="69.9873" y="-6.5" font-family="Helvetica,sans-Serif" font-size="10.00">arbitrated_client_manager.h</text>
</a>
</g>
</g>
<!-- Node8&#45;&gt;Node9 -->
<g id="edge2" class="edge"><title>Node8&#45;&gt;Node9</title>
<path fill="none" stroke="midnightblue" d="M119.652,-49.2095C107.073,-39.4052 90.8331,-26.7474 80.4122,-18.6253"/>
<polygon fill="midnightblue" stroke="midnightblue" points="117.621,-52.0635 127.66,-55.4504 121.924,-46.5424 117.621,-52.0635"/>
</g>
<!-- Node8&#45;&gt;Node10 -->
<g id="edge3" class="edge"><title>Node8&#45;&gt;Node10</title>
<path fill="none" stroke="midnightblue" d="M157.546,-49.4916C171.289,-39.6491 189.193,-26.8255 200.643,-18.6253"/>
<polygon fill="midnightblue" stroke="midnightblue" points="155.318,-46.7822 149.226,-55.4504 159.394,-52.4731 155.318,-46.7822"/>
</g>
<!-- Node13 -->
<g id="node7" class="node"><title>Node13</title>
<g id="a_node7"><a xlink:href="simple__server_8h.html" target="_top" xlink:title="simple_server.h">
<polygon fill="white" stroke="black" points="320.97,-0.5 320.97,-18.5 407.004,-18.5 407.004,-0.5 320.97,-0.5"/>
<text text-anchor="middle" x="363.987" y="-6.5" font-family="Helvetica,sans-Serif" font-size="10.00">simple_server.h</text>
</a>
</g>
</g>
<!-- Node12&#45;&gt;Node13 -->
<g id="edge7" class="edge"><title>Node12&#45;&gt;Node13</title>
<path fill="none" stroke="midnightblue" d="M363.987,-45.1746C363.987,-36.0945 363.987,-25.5949 363.987,-18.5496"/>
<polygon fill="midnightblue" stroke="midnightblue" points="360.487,-45.2187 363.987,-55.2188 367.487,-45.2188 360.487,-45.2187"/>
</g>
</g>
</svg>
