<?xml version="1.0" encoding="UTF-8" standalone="no"?>
<!DOCTYPE svg PUBLIC "-//W3C//DTD SVG 1.1//EN"
 "http://www.w3.org/Graphics/SVG/1.1/DTD/svg11.dtd">
<!-- Generated by graphviz version 2.38.0 (20140413.2041)
 -->
<!-- Title: setup Pages: 1 -->
<svg width="110pt" height="222pt"
 viewBox="0.00 0.00 110.23 222.00" xmlns="http://www.w3.org/2000/svg" xmlns:xlink="http://www.w3.org/1999/xlink">
<g id="graph0" class="graph" transform="scale(1 1) rotate(0) translate(4 218)">
<title>setup</title>
<polygon fill="white" stroke="none" points="-4,4 -4,-218 106.231,-218 106.231,4 -4,4"/>
<g id="clust1" class="cluster"><title>clusterdir_ecce72d14eab190b8175cc3cd0696eeb</title>
<g id="a_clust1"><a xlink:href="dir_ecce72d14eab190b8175cc3cd0696eeb.html" target="_top" xlink:title="erpc_c">
<polygon fill="#ddddee" stroke="black" points="24.2314,-136 24.2314,-206 94.2314,-206 94.2314,-136 24.2314,-136"/>
<text text-anchor="middle" x="59.2314" y="-194" font-family="Helvetica,sans-Serif" font-size="10.00">erpc_c</text>
</a>
</g>
</g>
<!-- dir_318b660cd76dff0271d6acfa47597bac -->
<g id="node1" class="node"><title>dir_318b660cd76dff0271d6acfa47597bac</title>
<g id="a_node1"><a xlink:href="dir_318b660cd76dff0271d6acfa47597bac.html" target="_top" xlink:title="setup">
<polygon fill="#eeeeff" stroke="black" points="86.2314,-180 32.2314,-180 32.2314,-144 86.2314,-144 86.2314,-180"/>
<text text-anchor="middle" x="59.2314" y="-159" font-family="Helvetica,sans-Serif" font-size="10.00">setup</text>
</a>
</g>
</g>
<!-- dir_65f3d2eaa0376abba9fa4e8a5e7d2f88 -->
<g id="node2" class="node"><title>dir_65f3d2eaa0376abba9fa4e8a5e7d2f88</title>
<g id="a_node2"><a xlink:href="dir_65f3d2eaa0376abba9fa4e8a5e7d2f88.html" target="_top" xlink:title="transports">
<polygon fill="none" stroke="black" points="60.6961,-108 -0.233231,-108 -0.233231,-72 60.6961,-72 60.6961,-108"/>
<text text-anchor="middle" x="30.2314" y="-87" font-family="Helvetica,sans-Serif" font-size="10.00">transports</text>
</a>
</g>
</g>
<!-- dir_318b660cd76dff0271d6acfa47597bac&#45;&gt;dir_65f3d2eaa0376abba9fa4e8a5e7d2f88 -->
<g id="edge2" class="edge"><title>dir_318b660cd76dff0271d6acfa47597bac&#45;&gt;dir_65f3d2eaa0376abba9fa4e8a5e7d2f88</title>
<path fill="none" stroke="black" d="M52.0629,-143.697C48.7969,-135.813 44.8575,-126.304 41.2292,-117.546"/>
<polygon fill="black" stroke="black" points="44.3785,-116.003 37.3175,-108.104 37.9115,-118.683 44.3785,-116.003"/>
<g id="a_edge2&#45;headlabel"><a xlink:href="dir_000003_000002.html" target="_top" xlink:title="12">
<text text-anchor="middle" x="48.3773" y="-115.238" font-family="Helvetica,sans-Serif" font-size="10.00">12</text>
</a>
</g>
</g>
<!-- dir_4c1986dc9092ab2d1c997193a3634562 -->
<g id="node3" class="node"><title>dir_4c1986dc9092ab2d1c997193a3634562</title>
<g id="a_node3"><a xlink:href="dir_4c1986dc9092ab2d1c997193a3634562.html" target="_top" xlink:title="infra">
<polygon fill="none" stroke="black" points="86.2314,-36 32.2314,-36 32.2314,-0 86.2314,-0 86.2314,-36"/>
<text text-anchor="middle" x="59.2314" y="-15" font-family="Helvetica,sans-Serif" font-size="10.00">infra</text>
</a>
</g>
</g>
<!-- dir_318b660cd76dff0271d6acfa47597bac&#45;&gt;dir_4c1986dc9092ab2d1c997193a3634562 -->
<g id="edge3" class="edge"><title>dir_318b660cd76dff0271d6acfa47597bac&#45;&gt;dir_4c1986dc9092ab2d1c997193a3634562</title>
<path fill="none" stroke="black" d="M63.2906,-143.929C65.537,-133.598 68.098,-120.12 69.2314,-108 70.7212,-92.0695 70.7212,-87.9305 69.2314,-72 68.4345,-63.4781 66.9318,-54.2849 65.3289,-45.9862"/>
<polygon fill="black" stroke="black" points="68.7326,-45.1612 63.2906,-36.0708 61.876,-46.5708 68.7326,-45.1612"/>
<g id="a_edge3&#45;headlabel"><a xlink:href="dir_000003_000001.html" target="_top" xlink:title="23">
<text text-anchor="middle" x="72.2374" y="-45.1105" font-family="Helvetica,sans-Serif" font-size="10.00">23</text>
</a>
</g>
</g>
<!-- dir_65f3d2eaa0376abba9fa4e8a5e7d2f88&#45;&gt;dir_4c1986dc9092ab2d1c997193a3634562 -->
<g id="edge1" class="edge"><title>dir_65f3d2eaa0376abba9fa4e8a5e7d2f88&#45;&gt;dir_4c1986dc9092ab2d1c997193a3634562</title>
<path fill="none" stroke="black" d="M37.4,-71.6966C40.666,-63.8132 44.6054,-54.3042 48.2337,-45.5464"/>
<polygon fill="black" stroke="black" points="51.5514,-46.6825 52.1454,-36.1043 45.0844,-44.0033 51.5514,-46.6825"/>
<g id="a_edge1&#45;headlabel"><a xlink:href="dir_000002_000001.html" target="_top" xlink:title="20">
<text text-anchor="middle" x="52.7987" y="-48.0901" font-family="Helvetica,sans-Serif" font-size="10.00">20</text>
</a>
</g>
</g>
</g>
</svg>
