<?xml version="1.0" encoding="UTF-8" standalone="no"?>
<!DOCTYPE svg PUBLIC "-//W3C//DTD SVG 1.1//EN"
 "http://www.w3.org/Graphics/SVG/1.1/DTD/svg11.dtd">
<!-- Generated by graphviz version 2.38.0 (20140413.2041)
 -->
<!-- Title: erpc_c Pages: 1 -->
<svg width="166pt" height="364pt"
 viewBox="0.00 0.00 166.00 364.00" xmlns="http://www.w3.org/2000/svg" xmlns:xlink="http://www.w3.org/1999/xlink">
<g id="graph0" class="graph" transform="scale(1 1) rotate(0) translate(4 360)">
<title>erpc_c</title>
<polygon fill="white" stroke="none" points="-4,4 -4,-360 162,-360 162,4 -4,4"/>
<g id="clust1" class="cluster"><title>clusterdir_ecce72d14eab190b8175cc3cd0696eeb</title>
<g id="a_clust1"><a xlink:href="dir_ecce72d14eab190b8175cc3cd0696eeb.html" target="_top">
<polygon fill="#eeeeff" stroke="black" points="8,-8 8,-348 150,-348 150,-8 8,-8"/>
</a>
</g>
</g>
<!-- dir_ecce72d14eab190b8175cc3cd0696eeb -->
<g id="node1" class="node"><title>dir_ecce72d14eab190b8175cc3cd0696eeb</title>
<text text-anchor="middle" x="115" y="-319" font-family="Helvetica,sans-Serif" font-size="10.00">erpc_c</text>
</g>
<!-- dir_52949f44d4caf8ec53681e2fdb42569d -->
<g id="node2" class="node"><title>dir_52949f44d4caf8ec53681e2fdb42569d</title>
<g id="a_node2"><a xlink:href="dir_52949f44d4caf8ec53681e2fdb42569d.html" target="_top" xlink:title="config">
<polygon fill="white" stroke="black" points="94,-52 40,-52 40,-16 94,-16 94,-52"/>
<text text-anchor="middle" x="67" y="-31" font-family="Helvetica,sans-Serif" font-size="10.00">config</text>
</a>
</g>
</g>
<!-- dir_4c1986dc9092ab2d1c997193a3634562 -->
<g id="node3" class="node"><title>dir_4c1986dc9092ab2d1c997193a3634562</title>
<g id="a_node3"><a xlink:href="dir_4c1986dc9092ab2d1c997193a3634562.html" target="_top" xlink:title="infra">
<polygon fill="white" stroke="black" points="71,-196 17,-196 17,-160 71,-160 71,-196"/>
<text text-anchor="middle" x="44" y="-175" font-family="Helvetica,sans-Serif" font-size="10.00">infra</text>
</a>
</g>
</g>
<!-- dir_62e9b24ece508051f26d84717c79c815 -->
<g id="node4" class="node"><title>dir_62e9b24ece508051f26d84717c79c815</title>
<g id="a_node4"><a xlink:href="dir_62e9b24ece508051f26d84717c79c815.html" target="_top" xlink:title="port">
<polygon fill="white" stroke="black" points="94,-124 40,-124 40,-88 94,-88 94,-124"/>
<text text-anchor="middle" x="67" y="-103" font-family="Helvetica,sans-Serif" font-size="10.00">port</text>
</a>
</g>
</g>
<!-- dir_4c1986dc9092ab2d1c997193a3634562&#45;&gt;dir_62e9b24ece508051f26d84717c79c815 -->
<g id="edge5" class="edge"><title>dir_4c1986dc9092ab2d1c997193a3634562&#45;&gt;dir_62e9b24ece508051f26d84717c79c815</title>
<path fill="none" stroke="black" d="M49.6854,-159.697C52.2478,-151.898 55.3329,-142.509 58.1847,-133.829"/>
<polygon fill="black" stroke="black" points="61.5835,-134.697 61.38,-124.104 54.9333,-132.512 61.5835,-134.697"/>
<g id="a_edge5&#45;headlabel"><a xlink:href="dir_000001_000005.html" target="_top" xlink:title="2">
<text text-anchor="middle" x="63.1589" y="-135.998" font-family="Helvetica,sans-Serif" font-size="10.00">2</text>
</a>
</g>
</g>
<!-- dir_62e9b24ece508051f26d84717c79c815&#45;&gt;dir_52949f44d4caf8ec53681e2fdb42569d -->
<g id="edge6" class="edge"><title>dir_62e9b24ece508051f26d84717c79c815&#45;&gt;dir_52949f44d4caf8ec53681e2fdb42569d</title>
<path fill="none" stroke="black" d="M67,-87.6966C67,-79.9827 67,-70.7125 67,-62.1124"/>
<polygon fill="black" stroke="black" points="70.5001,-62.1043 67,-52.1043 63.5001,-62.1044 70.5001,-62.1043"/>
<g id="a_edge6&#45;headlabel"><a xlink:href="dir_000005_000004.html" target="_top" xlink:title="1">
<text text-anchor="middle" x="73.3393" y="-62.699" font-family="Helvetica,sans-Serif" font-size="10.00">1</text>
</a>
</g>
</g>
<!-- dir_318b660cd76dff0271d6acfa47597bac -->
<g id="node5" class="node"><title>dir_318b660cd76dff0271d6acfa47597bac</title>
<g id="a_node5"><a xlink:href="dir_318b660cd76dff0271d6acfa47597bac.html" target="_top" xlink:title="setup">
<polygon fill="white" stroke="black" points="70,-340 16,-340 16,-304 70,-304 70,-340"/>
<text text-anchor="middle" x="43" y="-319" font-family="Helvetica,sans-Serif" font-size="10.00">setup</text>
</a>
</g>
</g>
<!-- dir_318b660cd76dff0271d6acfa47597bac&#45;&gt;dir_4c1986dc9092ab2d1c997193a3634562 -->
<g id="edge4" class="edge"><title>dir_318b660cd76dff0271d6acfa47597bac&#45;&gt;dir_4c1986dc9092ab2d1c997193a3634562</title>
<path fill="none" stroke="black" d="M43.1206,-303.871C43.2911,-279.67 43.6041,-235.211 43.8071,-206.393"/>
<polygon fill="black" stroke="black" points="47.3083,-206.214 43.8789,-196.189 40.3085,-206.164 47.3083,-206.214"/>
<g id="a_edge4&#45;headlabel"><a xlink:href="dir_000003_000001.html" target="_top" xlink:title="23">
<text text-anchor="middle" x="50.1223" y="-206.828" font-family="Helvetica,sans-Serif" font-size="10.00">23</text>
</a>
</g>
</g>
<!-- dir_65f3d2eaa0376abba9fa4e8a5e7d2f88 -->
<g id="node6" class="node"><title>dir_65f3d2eaa0376abba9fa4e8a5e7d2f88</title>
<g id="a_node6"><a xlink:href="dir_65f3d2eaa0376abba9fa4e8a5e7d2f88.html" target="_top" xlink:title="transports">
<polygon fill="white" stroke="black" points="120.465,-268 59.5353,-268 59.5353,-232 120.465,-232 120.465,-268"/>
<text text-anchor="middle" x="90" y="-247" font-family="Helvetica,sans-Serif" font-size="10.00">transports</text>
</a>
</g>
</g>
<!-- dir_318b660cd76dff0271d6acfa47597bac&#45;&gt;dir_65f3d2eaa0376abba9fa4e8a5e7d2f88 -->
<g id="edge3" class="edge"><title>dir_318b660cd76dff0271d6acfa47597bac&#45;&gt;dir_65f3d2eaa0376abba9fa4e8a5e7d2f88</title>
<path fill="none" stroke="black" d="M54.618,-303.697C60.1388,-295.474 66.847,-285.483 72.9318,-276.421"/>
<polygon fill="black" stroke="black" points="75.8471,-278.358 78.5157,-268.104 70.0355,-274.456 75.8471,-278.358"/>
<g id="a_edge3&#45;headlabel"><a xlink:href="dir_000003_000002.html" target="_top" xlink:title="12">
<text text-anchor="middle" x="76.2006" y="-279.925" font-family="Helvetica,sans-Serif" font-size="10.00">12</text>
</a>
</g>
</g>
<!-- dir_65f3d2eaa0376abba9fa4e8a5e7d2f88&#45;&gt;dir_4c1986dc9092ab2d1c997193a3634562 -->
<g id="edge1" class="edge"><title>dir_65f3d2eaa0376abba9fa4e8a5e7d2f88&#45;&gt;dir_4c1986dc9092ab2d1c997193a3634562</title>
<path fill="none" stroke="black" d="M78.6292,-231.697C73.2815,-223.559 66.7957,-213.689 60.8894,-204.701"/>
<polygon fill="black" stroke="black" points="63.6568,-202.539 55.24,-196.104 57.8068,-206.384 63.6568,-202.539"/>
<g id="a_edge1&#45;headlabel"><a xlink:href="dir_000002_000001.html" target="_top" xlink:title="20">
<text text-anchor="middle" x="68.0036" y="-200.984" font-family="Helvetica,sans-Serif" font-size="10.00">20</text>
</a>
</g>
</g>
<!-- dir_65f3d2eaa0376abba9fa4e8a5e7d2f88&#45;&gt;dir_62e9b24ece508051f26d84717c79c815 -->
<g id="edge2" class="edge"><title>dir_65f3d2eaa0376abba9fa4e8a5e7d2f88&#45;&gt;dir_62e9b24ece508051f26d84717c79c815</title>
<path fill="none" stroke="black" d="M88.7314,-231.844C87.2472,-213.852 84.4156,-184.799 80,-160 78.4819,-151.474 76.3905,-142.28 74.3288,-133.981"/>
<polygon fill="black" stroke="black" points="77.6594,-132.88 71.7786,-124.067 70.8801,-134.623 77.6594,-132.88"/>
<g id="a_edge2&#45;headlabel"><a xlink:href="dir_000002_000005.html" target="_top" xlink:title="3">
<text text-anchor="middle" x="81.3046" y="-132.654" font-family="Helvetica,sans-Serif" font-size="10.00">3</text>
</a>
</g>
</g>
</g>
</svg>
