<?xml version="1.0" encoding="UTF-8" standalone="no"?>
<!DOCTYPE svg PUBLIC "-//W3C//DTD SVG 1.1//EN"
 "http://www.w3.org/Graphics/SVG/1.1/DTD/svg11.dtd">
<!-- Generated by graphviz version 2.38.0 (20140413.2041)
 -->
<!-- Title: erpc_transport_setup.h Pages: 1 -->
<svg width="156pt" height="82pt"
 viewBox="0.00 0.00 155.92 82.00" xmlns="http://www.w3.org/2000/svg" xmlns:xlink="http://www.w3.org/1999/xlink">
<g id="graph0" class="graph" transform="scale(1 1) rotate(0) translate(4 78)">
<title>erpc_transport_setup.h</title>
<polygon fill="white" stroke="none" points="-4,4 -4,-78 151.916,-78 151.916,4 -4,4"/>
<!-- Node0 -->
<g id="node1" class="node"><title>Node0</title>
<polygon fill="#bfbfbf" stroke="black" points="22.3745,-55.5 22.3745,-73.5 141.216,-73.5 141.216,-55.5 22.3745,-55.5"/>
<text text-anchor="middle" x="81.7954" y="-61.5" font-family="Helvetica,sans-Serif" font-size="10.00">erpc_transport_setup.h</text>
</g>
<!-- Node1 -->
<g id="node2" class="node"><title>Node1</title>
<g id="a_node2"><a xlink:href="erpc__version_8h_source.html" target="_top" xlink:title="erpc_version.h">
<polygon fill="white" stroke="black" points="0,-0.5 0,-18.5 81.5908,-18.5 81.5908,-0.5 0,-0.5"/>
<text text-anchor="middle" x="40.7954" y="-6.5" font-family="Helvetica,sans-Serif" font-size="10.00">erpc_version.h</text>
</a>
</g>
</g>
<!-- Node0&#45;&gt;Node1 -->
<g id="edge1" class="edge"><title>Node0&#45;&gt;Node1</title>
<path fill="none" stroke="midnightblue" d="M75.3892,-55.2188C69.4574,-47.5509 60.4744,-35.9387 53.1489,-26.4691"/>
<polygon fill="midnightblue" stroke="midnightblue" points="55.9095,-24.3176 47.0224,-18.5496 50.3728,-28.6007 55.9095,-24.3176"/>
</g>
<!-- Node2 -->
<g id="node3" class="node"><title>Node2</title>
<polygon fill="white" stroke="#bfbfbf" points="99.6748,-0.5 99.6748,-18.5 147.916,-18.5 147.916,-0.5 99.6748,-0.5"/>
<text text-anchor="middle" x="123.795" y="-6.5" font-family="Helvetica,sans-Serif" font-size="10.00">stdint.h</text>
</g>
<!-- Node0&#45;&gt;Node2 -->
<g id="edge2" class="edge"><title>Node0&#45;&gt;Node2</title>
<path fill="none" stroke="midnightblue" d="M88.3579,-55.2188C94.4343,-47.5509 103.636,-35.9387 111.141,-26.4691"/>
<polygon fill="midnightblue" stroke="midnightblue" points="113.949,-28.5608 117.417,-18.5496 108.463,-24.2132 113.949,-28.5608"/>
</g>
</g>
</svg>
