<?xml version="1.0" encoding="UTF-8" standalone="no"?>
<!DOCTYPE svg PUBLIC "-//W3C//DTD SVG 1.1//EN"
 "http://www.w3.org/Graphics/SVG/1.1/DTD/svg11.dtd">
<!-- Generated by graphviz version 2.38.0 (20140413.2041)
 -->
<!-- Title: erpc_port.h Pages: 1 -->
<svg width="192pt" height="137pt"
 viewBox="0.00 0.00 191.99 137.00" xmlns="http://www.w3.org/2000/svg" xmlns:xlink="http://www.w3.org/1999/xlink">
<g id="graph0" class="graph" transform="scale(1 1) rotate(0) translate(4 133)">
<title>erpc_port.h</title>
<polygon fill="white" stroke="none" points="-4,4 -4,-133 187.99,-133 187.99,4 -4,4"/>
<!-- Node0 -->
<g id="node1" class="node"><title>Node0</title>
<polygon fill="#bfbfbf" stroke="black" points="73.9062,-110.5 73.9062,-128.5 140.492,-128.5 140.492,-110.5 73.9062,-110.5"/>
<text text-anchor="middle" x="107.199" y="-116.5" font-family="Helvetica,sans-Serif" font-size="10.00">erpc_port.h</text>
</g>
<!-- Node1 -->
<g id="node2" class="node"><title>Node1</title>
<g id="a_node2"><a xlink:href="erpc__config__internal_8h_source.html" target="_top" xlink:title="erpc_config_internal.h">
<polygon fill="white" stroke="black" points="0,-55.5 0,-73.5 114.398,-73.5 114.398,-55.5 0,-55.5"/>
<text text-anchor="middle" x="57.1992" y="-61.5" font-family="Helvetica,sans-Serif" font-size="10.00">erpc_config_internal.h</text>
</a>
</g>
</g>
<!-- Node0&#45;&gt;Node1 -->
<g id="edge1" class="edge"><title>Node0&#45;&gt;Node1</title>
<path fill="none" stroke="midnightblue" d="M99.3867,-110.219C92.0053,-102.394 80.7493,-90.4631 71.7201,-80.8921"/>
<polygon fill="midnightblue" stroke="midnightblue" points="74.2013,-78.4217 64.7931,-73.5496 69.1095,-83.2253 74.2013,-78.4217"/>
</g>
<!-- Node3 -->
<g id="node4" class="node"><title>Node3</title>
<polygon fill="white" stroke="#bfbfbf" points="132.409,-55.5 132.409,-73.5 183.99,-73.5 183.99,-55.5 132.409,-55.5"/>
<text text-anchor="middle" x="158.199" y="-61.5" font-family="Helvetica,sans-Serif" font-size="10.00">stddef.h</text>
</g>
<!-- Node0&#45;&gt;Node3 -->
<g id="edge3" class="edge"><title>Node0&#45;&gt;Node3</title>
<path fill="none" stroke="midnightblue" d="M115.168,-110.219C122.697,-102.394 134.178,-90.4631 143.388,-80.8921"/>
<polygon fill="midnightblue" stroke="midnightblue" points="146.042,-83.1821 150.453,-73.5496 140.998,-78.3285 146.042,-83.1821"/>
</g>
<!-- Node2 -->
<g id="node3" class="node"><title>Node2</title>
<g id="a_node3"><a xlink:href="erpc__config_8h.html" target="_top" xlink:title="erpc_config.h">
<polygon fill="white" stroke="black" points="19.1797,-0.5 19.1797,-18.5 95.2188,-18.5 95.2188,-0.5 19.1797,-0.5"/>
<text text-anchor="middle" x="57.1992" y="-6.5" font-family="Helvetica,sans-Serif" font-size="10.00">erpc_config.h</text>
</a>
</g>
</g>
<!-- Node1&#45;&gt;Node2 -->
<g id="edge2" class="edge"><title>Node1&#45;&gt;Node2</title>
<path fill="none" stroke="midnightblue" d="M57.1992,-55.2188C57.1992,-48.1769 57.1992,-37.8083 57.1992,-28.8277"/>
<polygon fill="midnightblue" stroke="midnightblue" points="60.6993,-28.5495 57.1992,-18.5496 53.6993,-28.5496 60.6993,-28.5495"/>
</g>
</g>
</svg>
