<?xml version="1.0" encoding="UTF-8" standalone="no"?>
<!DOCTYPE svg PUBLIC "-//W3C//DTD SVG 1.1//EN"
 "http://www.w3.org/Graphics/SVG/1.1/DTD/svg11.dtd">
<!-- Generated by graphviz version 2.38.0 (20140413.2041)
 -->
<!-- Title: erpc_threading.h Pages: 1 -->
<svg width="879pt" height="147pt"
 viewBox="0.00 0.00 879.27 147.00" xmlns="http://www.w3.org/2000/svg" xmlns:xlink="http://www.w3.org/1999/xlink">
<g id="graph0" class="graph" transform="scale(1 1) rotate(0) translate(4 143)">
<title>erpc_threading.h</title>
<polygon fill="white" stroke="none" points="-4,4 -4,-143 875.268,-143 875.268,4 -4,4"/>
<!-- Node4 -->
<g id="node1" class="node"><title>Node4</title>
<polygon fill="#bfbfbf" stroke="black" points="506.389,-120.5 506.389,-138.5 597.443,-138.5 597.443,-120.5 506.389,-120.5"/>
<text text-anchor="middle" x="551.916" y="-126.5" font-family="Helvetica,sans-Serif" font-size="10.00">erpc_threading.h</text>
</g>
<!-- Node5 -->
<g id="node2" class="node"><title>Node5</title>
<g id="a_node2"><a xlink:href="transport__arbitrator_8h.html" target="_top" xlink:title="transport_arbitrator.h">
<polygon fill="white" stroke="black" points="335.5,-60.5 335.5,-78.5 444.332,-78.5 444.332,-60.5 335.5,-60.5"/>
<text text-anchor="middle" x="389.916" y="-66.5" font-family="Helvetica,sans-Serif" font-size="10.00">transport_arbitrator.h</text>
</a>
</g>
</g>
<!-- Node4&#45;&gt;Node5 -->
<g id="edge1" class="edge"><title>Node4&#45;&gt;Node5</title>
<path fill="none" stroke="midnightblue" d="M519.7,-116.966C487.993,-105.614 440.393,-88.572 412.511,-78.5894"/>
<polygon fill="midnightblue" stroke="midnightblue" points="518.796,-120.36 529.391,-120.435 521.156,-113.769 518.796,-120.36"/>
</g>
<!-- Node6 -->
<g id="node3" class="node"><title>Node6</title>
<g id="a_node3"><a xlink:href="framed__transport_8h.html" target="_top" xlink:title="framed_transport.h">
<polygon fill="white" stroke="black" points="462.672,-60.5 462.672,-78.5 563.16,-78.5 563.16,-60.5 462.672,-60.5"/>
<text text-anchor="middle" x="512.916" y="-66.5" font-family="Helvetica,sans-Serif" font-size="10.00">framed_transport.h</text>
</a>
</g>
</g>
<!-- Node4&#45;&gt;Node6 -->
<g id="edge2" class="edge"><title>Node4&#45;&gt;Node6</title>
<path fill="none" stroke="midnightblue" d="M540.734,-111.87C533.476,-101.076 524.325,-87.4673 518.545,-78.8718"/>
<polygon fill="midnightblue" stroke="midnightblue" points="538.009,-114.09 546.493,-120.435 543.818,-110.184 538.009,-114.09"/>
</g>
<!-- Node12 -->
<g id="node9" class="node"><title>Node12</title>
<g id="a_node9"><a xlink:href="tcp__transport_8h.html" target="_top" xlink:title="tcp_transport.h">
<polygon fill="white" stroke="black" points="788.564,-0.5 788.564,-18.5 871.268,-18.5 871.268,-0.5 788.564,-0.5"/>
<text text-anchor="middle" x="829.916" y="-6.5" font-family="Helvetica,sans-Serif" font-size="10.00">tcp_transport.h</text>
</a>
</g>
</g>
<!-- Node4&#45;&gt;Node12 -->
<g id="edge11" class="edge"><title>Node4&#45;&gt;Node12</title>
<path fill="none" stroke="midnightblue" d="M560.829,-111.15C570.535,-94.0839 587.69,-68.6621 609.916,-55 617.52,-50.3257 726.966,-29.5416 788.556,-18.1062"/>
<polygon fill="midnightblue" stroke="midnightblue" points="557.677,-109.62 555.993,-120.08 563.833,-112.953 557.677,-109.62"/>
</g>
<!-- Node14 -->
<g id="node11" class="node"><title>Node14</title>
<g id="a_node11"><a xlink:href="inter__thread__buffer__transport_8h.html" target="_top" xlink:title="inter_thread_buffer\l_transport.h">
<polygon fill="white" stroke="black" points="618.753,-55.5 618.753,-83.5 719.079,-83.5 719.079,-55.5 618.753,-55.5"/>
<text text-anchor="start" x="626.753" y="-71.5" font-family="Helvetica,sans-Serif" font-size="10.00">inter_thread_buffer</text>
<text text-anchor="middle" x="668.916" y="-61.5" font-family="Helvetica,sans-Serif" font-size="10.00">_transport.h</text>
</a>
</g>
</g>
<!-- Node4&#45;&gt;Node14 -->
<g id="edge10" class="edge"><title>Node4&#45;&gt;Node14</title>
<path fill="none" stroke="midnightblue" d="M577.263,-115.935C596.517,-106.39 622.925,-93.2991 642.449,-83.6203"/>
<polygon fill="midnightblue" stroke="midnightblue" points="575.589,-112.858 568.184,-120.435 578.698,-119.13 575.589,-112.858"/>
</g>
<!-- Node7 -->
<g id="node4" class="node"><title>Node7</title>
<g id="a_node4"><a xlink:href="dspi__master__transport_8h.html" target="_top" xlink:title="dspi_master_transport.h">
<polygon fill="white" stroke="black" points="0,-0.5 0,-18.5 123.832,-18.5 123.832,-0.5 0,-0.5"/>
<text text-anchor="middle" x="61.916" y="-6.5" font-family="Helvetica,sans-Serif" font-size="10.00">dspi_master_transport.h</text>
</a>
</g>
</g>
<!-- Node6&#45;&gt;Node7 -->
<g id="edge3" class="edge"><title>Node6&#45;&gt;Node7</title>
<path fill="none" stroke="midnightblue" d="M470.566,-58.3661C464.658,-57.1296 458.649,-55.9645 452.916,-55 311.78,-31.2563 275.08,-35.5064 132.916,-19 129.956,-18.6564 126.928,-18.3025 123.869,-17.9432"/>
<polygon fill="midnightblue" stroke="midnightblue" points="469.832,-61.7881 480.347,-60.492 471.319,-54.9478 469.832,-61.7881"/>
</g>
<!-- Node8 -->
<g id="node5" class="node"><title>Node8</title>
<g id="a_node5"><a xlink:href="dspi__slave__transport_8h.html" target="_top" xlink:title="dspi_slave_transport.h">
<polygon fill="white" stroke="black" points="141.608,-0.5 141.608,-18.5 258.224,-18.5 258.224,-0.5 141.608,-0.5"/>
<text text-anchor="middle" x="199.916" y="-6.5" font-family="Helvetica,sans-Serif" font-size="10.00">dspi_slave_transport.h</text>
</a>
</g>
</g>
<!-- Node6&#45;&gt;Node8 -->
<g id="edge4" class="edge"><title>Node6&#45;&gt;Node8</title>
<path fill="none" stroke="midnightblue" d="M468.451,-58.2495C463.222,-57.1169 457.956,-56.0096 452.916,-55 382.512,-40.8961 300.596,-26.9315 249.494,-18.5094"/>
<polygon fill="midnightblue" stroke="midnightblue" points="467.873,-61.706 478.392,-60.4395 469.379,-54.8699 467.873,-61.706"/>
</g>
<!-- Node9 -->
<g id="node6" class="node"><title>Node9</title>
<g id="a_node6"><a xlink:href="serial__transport_8h.html" target="_top" xlink:title="serial_transport.h">
<polygon fill="white" stroke="black" points="276.286,-0.5 276.286,-18.5 369.546,-18.5 369.546,-0.5 276.286,-0.5"/>
<text text-anchor="middle" x="322.916" y="-6.5" font-family="Helvetica,sans-Serif" font-size="10.00">serial_transport.h</text>
</a>
</g>
</g>
<!-- Node6&#45;&gt;Node9 -->
<g id="edge5" class="edge"><title>Node6&#45;&gt;Node9</title>
<path fill="none" stroke="midnightblue" d="M476.571,-57.4052C439.399,-46.0578 382.542,-28.7016 349.416,-18.5894"/>
<polygon fill="midnightblue" stroke="midnightblue" points="475.911,-60.8632 486.497,-60.4353 477.955,-54.1681 475.911,-60.8632"/>
</g>
<!-- Node10 -->
<g id="node7" class="node"><title>Node10</title>
<g id="a_node7"><a xlink:href="spi__master__transport_8h.html" target="_top" xlink:title="spi_master_transport.h">
<polygon fill="white" stroke="black" points="387.781,-0.5 387.781,-18.5 506.051,-18.5 506.051,-0.5 387.781,-0.5"/>
<text text-anchor="middle" x="446.916" y="-6.5" font-family="Helvetica,sans-Serif" font-size="10.00">spi_master_transport.h</text>
</a>
</g>
</g>
<!-- Node6&#45;&gt;Node10 -->
<g id="edge6" class="edge"><title>Node6&#45;&gt;Node10</title>
<path fill="none" stroke="midnightblue" d="M496.189,-53.8003C483.607,-42.7439 466.816,-27.9883 456.442,-18.8718"/>
<polygon fill="midnightblue" stroke="midnightblue" points="493.917,-56.4633 503.739,-60.4353 498.538,-51.2051 493.917,-56.4633"/>
</g>
<!-- Node11 -->
<g id="node8" class="node"><title>Node11</title>
<g id="a_node8"><a xlink:href="spi__slave__transport_8h.html" target="_top" xlink:title="spi_slave_transport.h">
<polygon fill="white" stroke="black" points="524.389,-0.5 524.389,-18.5 635.443,-18.5 635.443,-0.5 524.389,-0.5"/>
<text text-anchor="middle" x="579.916" y="-6.5" font-family="Helvetica,sans-Serif" font-size="10.00">spi_slave_transport.h</text>
</a>
</g>
</g>
<!-- Node6&#45;&gt;Node11 -->
<g id="edge7" class="edge"><title>Node6&#45;&gt;Node11</title>
<path fill="none" stroke="midnightblue" d="M529.897,-53.8003C542.669,-42.7439 559.714,-27.9883 570.245,-18.8718"/>
<polygon fill="midnightblue" stroke="midnightblue" points="527.502,-51.2441 522.232,-60.4353 532.083,-56.5365 527.502,-51.2441"/>
</g>
<!-- Node6&#45;&gt;Node12 -->
<g id="edge8" class="edge"><title>Node6&#45;&gt;Node12</title>
<path fill="none" stroke="midnightblue" d="M560.151,-58.3486C565.795,-57.1912 571.481,-56.0509 576.916,-55 616.707,-47.3061 727.521,-28.107 788.455,-17.6172"/>
<polygon fill="midnightblue" stroke="midnightblue" points="559.179,-54.9755 550.099,-60.4349 560.602,-61.8294 559.179,-54.9755"/>
</g>
<!-- Node13 -->
<g id="node10" class="node"><title>Node13</title>
<g id="a_node10"><a xlink:href="uart__cmsis__transport_8h.html" target="_top" xlink:title="uart_cmsis_transport.h">
<polygon fill="white" stroke="black" points="653.062,-0.5 653.062,-18.5 770.771,-18.5 770.771,-0.5 653.062,-0.5"/>
<text text-anchor="middle" x="711.916" y="-6.5" font-family="Helvetica,sans-Serif" font-size="10.00">uart_cmsis_transport.h</text>
</a>
</g>
</g>
<!-- Node6&#45;&gt;Node13 -->
<g id="edge9" class="edge"><title>Node6&#45;&gt;Node13</title>
<path fill="none" stroke="midnightblue" d="M550.485,-57.5503C589.406,-46.2063 649.317,-28.7448 684.161,-18.5894"/>
<polygon fill="midnightblue" stroke="midnightblue" points="549.207,-54.2769 540.586,-60.4353 551.166,-60.9973 549.207,-54.2769"/>
</g>
</g>
</svg>
