<?xml version="1.0" encoding="UTF-8" standalone="no"?>
<!DOCTYPE svg PUBLIC "-//W3C//DTD SVG 1.1//EN"
 "http://www.w3.org/Graphics/SVG/1.1/DTD/svg11.dtd">
<!-- Generated by graphviz version 2.38.0 (20140413.2041)
 -->
<!-- Title: erpc_client_setup.h Pages: 1 -->
<svg width="270pt" height="137pt"
 viewBox="0.00 0.00 270.27 137.00" xmlns="http://www.w3.org/2000/svg" xmlns:xlink="http://www.w3.org/1999/xlink">
<g id="graph0" class="graph" transform="scale(1 1) rotate(0) translate(4 133)">
<title>erpc_client_setup.h</title>
<polygon fill="white" stroke="none" points="-4,4 -4,-133 266.271,-133 266.271,4 -4,4"/>
<!-- Node0 -->
<g id="node1" class="node"><title>Node0</title>
<polygon fill="#bfbfbf" stroke="black" points="64.4878,-110.5 64.4878,-128.5 167.211,-128.5 167.211,-110.5 64.4878,-110.5"/>
<text text-anchor="middle" x="115.85" y="-116.5" font-family="Helvetica,sans-Serif" font-size="10.00">erpc_client_setup.h</text>
</g>
<!-- Node1 -->
<g id="node2" class="node"><title>Node1</title>
<g id="a_node2"><a xlink:href="erpc__common_8h_source.html" target="_top" xlink:title="erpc_common.h">
<polygon fill="white" stroke="black" points="0,-55.5 0,-73.5 87.6992,-73.5 87.6992,-55.5 0,-55.5"/>
<text text-anchor="middle" x="43.8496" y="-61.5" font-family="Helvetica,sans-Serif" font-size="10.00">erpc_common.h</text>
</a>
</g>
</g>
<!-- Node0&#45;&gt;Node1 -->
<g id="edge1" class="edge"><title>Node0&#45;&gt;Node1</title>
<path fill="none" stroke="midnightblue" d="M104.914,-110.45C93.8133,-102.279 76.3996,-89.4604 63.0038,-79.5996"/>
<polygon fill="midnightblue" stroke="midnightblue" points="65.016,-76.7348 54.8878,-73.6253 60.8663,-82.3722 65.016,-76.7348"/>
</g>
<!-- Node2 -->
<g id="node3" class="node"><title>Node2</title>
<polygon fill="white" stroke="#bfbfbf" points="91.729,-0.5 91.729,-18.5 139.97,-18.5 139.97,-0.5 91.729,-0.5"/>
<text text-anchor="middle" x="115.85" y="-6.5" font-family="Helvetica,sans-Serif" font-size="10.00">stdint.h</text>
</g>
<!-- Node0&#45;&gt;Node2 -->
<g id="edge6" class="edge"><title>Node0&#45;&gt;Node2</title>
<path fill="none" stroke="midnightblue" d="M115.85,-110.382C115.85,-93.1822 115.85,-52.698 115.85,-28.8866"/>
<polygon fill="midnightblue" stroke="midnightblue" points="119.35,-28.7117 115.85,-18.7118 112.35,-28.7118 119.35,-28.7117"/>
</g>
<!-- Node3 -->
<g id="node4" class="node"><title>Node3</title>
<g id="a_node4"><a xlink:href="erpc__transport__setup_8h.html" target="_top" xlink:title="erpc_transport_setup.h">
<polygon fill="white" stroke="black" points="143.429,-55.5 143.429,-73.5 262.271,-73.5 262.271,-55.5 143.429,-55.5"/>
<text text-anchor="middle" x="202.85" y="-61.5" font-family="Helvetica,sans-Serif" font-size="10.00">erpc_transport_setup.h</text>
</a>
</g>
</g>
<!-- Node0&#45;&gt;Node3 -->
<g id="edge3" class="edge"><title>Node0&#45;&gt;Node3</title>
<path fill="none" stroke="midnightblue" d="M129.063,-110.45C142.732,-102.123 164.323,-88.9704 180.625,-79.0394"/>
<polygon fill="midnightblue" stroke="midnightblue" points="182.793,-81.817 189.512,-73.6253 179.151,-75.8389 182.793,-81.817"/>
</g>
<!-- Node1&#45;&gt;Node2 -->
<g id="edge2" class="edge"><title>Node1&#45;&gt;Node2</title>
<path fill="none" stroke="midnightblue" d="M54.7849,-55.4504C65.8859,-47.2788 83.2996,-34.4604 96.6954,-24.5996"/>
<polygon fill="midnightblue" stroke="midnightblue" points="98.8329,-27.3722 104.811,-18.6253 94.6832,-21.7348 98.8329,-27.3722"/>
</g>
<!-- Node3&#45;&gt;Node2 -->
<g id="edge5" class="edge"><title>Node3&#45;&gt;Node2</title>
<path fill="none" stroke="midnightblue" d="M189.636,-55.4504C175.967,-47.1232 154.377,-33.9704 138.075,-24.0394"/>
<polygon fill="midnightblue" stroke="midnightblue" points="139.548,-20.8389 129.187,-18.6253 135.907,-26.817 139.548,-20.8389"/>
</g>
<!-- Node4 -->
<g id="node5" class="node"><title>Node4</title>
<g id="a_node5"><a xlink:href="erpc__version_8h_source.html" target="_top" xlink:title="erpc_version.h">
<polygon fill="white" stroke="black" points="162.054,-0.5 162.054,-18.5 243.645,-18.5 243.645,-0.5 162.054,-0.5"/>
<text text-anchor="middle" x="202.85" y="-6.5" font-family="Helvetica,sans-Serif" font-size="10.00">erpc_version.h</text>
</a>
</g>
</g>
<!-- Node3&#45;&gt;Node4 -->
<g id="edge4" class="edge"><title>Node3&#45;&gt;Node4</title>
<path fill="none" stroke="midnightblue" d="M202.85,-55.2188C202.85,-48.1769 202.85,-37.8083 202.85,-28.8277"/>
<polygon fill="midnightblue" stroke="midnightblue" points="206.35,-28.5495 202.85,-18.5496 199.35,-28.5496 206.35,-28.5495"/>
</g>
</g>
</svg>
