<?xml version="1.0" encoding="UTF-8" standalone="no"?>
<!DOCTYPE svg PUBLIC "-//W3C//DTD SVG 1.1//EN"
 "http://www.w3.org/Graphics/SVG/1.1/DTD/svg11.dtd">
<!-- Generated by graphviz version 2.38.0 (20140413.2041)
 -->
<!-- Title: erpc_threading.h Pages: 1 -->
<svg width="188pt" height="137pt"
 viewBox="0.00 0.00 188.32 137.00" xmlns="http://www.w3.org/2000/svg" xmlns:xlink="http://www.w3.org/1999/xlink">
<g id="graph0" class="graph" transform="scale(1 1) rotate(0) translate(4 133)">
<title>erpc_threading.h</title>
<polygon fill="white" stroke="none" points="-4,4 -4,-133 184.32,-133 184.32,4 -4,4"/>
<!-- Node0 -->
<g id="node1" class="node"><title>Node0</title>
<polygon fill="#bfbfbf" stroke="black" points="60.6724,-110.5 60.6724,-128.5 151.726,-128.5 151.726,-110.5 60.6724,-110.5"/>
<text text-anchor="middle" x="106.199" y="-116.5" font-family="Helvetica,sans-Serif" font-size="10.00">erpc_threading.h</text>
</g>
<!-- Node1 -->
<g id="node2" class="node"><title>Node1</title>
<g id="a_node2"><a xlink:href="erpc__config__internal_8h_source.html" target="_top" xlink:title="erpc_config_internal.h">
<polygon fill="white" stroke="black" points="0,-55.5 0,-73.5 114.398,-73.5 114.398,-55.5 0,-55.5"/>
<text text-anchor="middle" x="57.1992" y="-61.5" font-family="Helvetica,sans-Serif" font-size="10.00">erpc_config_internal.h</text>
</a>
</g>
</g>
<!-- Node0&#45;&gt;Node1 -->
<g id="edge1" class="edge"><title>Node0&#45;&gt;Node1</title>
<path fill="none" stroke="midnightblue" d="M98.543,-110.219C91.3815,-102.473 80.4985,-90.7013 71.6957,-81.1799"/>
<polygon fill="midnightblue" stroke="midnightblue" points="73.9998,-78.5163 64.6413,-73.5496 68.8599,-83.2683 73.9998,-78.5163"/>
</g>
<!-- Node3 -->
<g id="node4" class="node"><title>Node3</title>
<polygon fill="white" stroke="#bfbfbf" points="132.079,-55.5 132.079,-73.5 180.32,-73.5 180.32,-55.5 132.079,-55.5"/>
<text text-anchor="middle" x="156.199" y="-61.5" font-family="Helvetica,sans-Serif" font-size="10.00">stdint.h</text>
</g>
<!-- Node0&#45;&gt;Node3 -->
<g id="edge3" class="edge"><title>Node0&#45;&gt;Node3</title>
<path fill="none" stroke="midnightblue" d="M114.012,-110.219C121.393,-102.394 132.649,-90.4631 141.678,-80.8921"/>
<polygon fill="midnightblue" stroke="midnightblue" points="144.289,-83.2253 148.605,-73.5496 139.197,-78.4217 144.289,-83.2253"/>
</g>
<!-- Node2 -->
<g id="node3" class="node"><title>Node2</title>
<g id="a_node3"><a xlink:href="erpc__config_8h.html" target="_top" xlink:title="erpc_config.h">
<polygon fill="white" stroke="black" points="19.1797,-0.5 19.1797,-18.5 95.2188,-18.5 95.2188,-0.5 19.1797,-0.5"/>
<text text-anchor="middle" x="57.1992" y="-6.5" font-family="Helvetica,sans-Serif" font-size="10.00">erpc_config.h</text>
</a>
</g>
</g>
<!-- Node1&#45;&gt;Node2 -->
<g id="edge2" class="edge"><title>Node1&#45;&gt;Node2</title>
<path fill="none" stroke="midnightblue" d="M57.1992,-55.2188C57.1992,-48.1769 57.1992,-37.8083 57.1992,-28.8277"/>
<polygon fill="midnightblue" stroke="midnightblue" points="60.6993,-28.5495 57.1992,-18.5496 53.6993,-28.5496 60.6993,-28.5495"/>
</g>
</g>
</svg>
