<?xml version="1.0" encoding="UTF-8" standalone="no"?>
<!DOCTYPE svg PUBLIC "-//W3C//DTD SVG 1.1//EN"
 "http://www.w3.org/Graphics/SVG/1.1/DTD/svg11.dtd">
<!-- Generated by graphviz version 2.38.0 (20140413.2041)
 -->
<!-- Title: erpc_transport_setup.h Pages: 1 -->
<svg width="366pt" height="92pt"
 viewBox="0.00 0.00 365.66 92.00" xmlns="http://www.w3.org/2000/svg" xmlns:xlink="http://www.w3.org/1999/xlink">
<g id="graph0" class="graph" transform="scale(1 1) rotate(0) translate(4 88)">
<title>erpc_transport_setup.h</title>
<polygon fill="white" stroke="none" points="-4,4 -4,-88 361.665,-88 361.665,4 -4,4"/>
<!-- Node3 -->
<g id="node1" class="node"><title>Node3</title>
<polygon fill="#bfbfbf" stroke="black" points="121.663,-65.5 121.663,-83.5 240.504,-83.5 240.504,-65.5 121.663,-65.5"/>
<text text-anchor="middle" x="181.083" y="-71.5" font-family="Helvetica,sans-Serif" font-size="10.00">erpc_transport_setup.h</text>
</g>
<!-- Node4 -->
<g id="node2" class="node"><title>Node4</title>
<g id="a_node2"><a xlink:href="erpc__arbitrated__client__setup_8h.html" target="_top" xlink:title="erpc_arbitrated_client\l_setup.h">
<polygon fill="white" stroke="black" points="0,-0.5 0,-28.5 112.167,-28.5 112.167,-0.5 0,-0.5"/>
<text text-anchor="start" x="8" y="-16.5" font-family="Helvetica,sans-Serif" font-size="10.00">erpc_arbitrated_client</text>
<text text-anchor="middle" x="56.0835" y="-6.5" font-family="Helvetica,sans-Serif" font-size="10.00">_setup.h</text>
</a>
</g>
</g>
<!-- Node3&#45;&gt;Node4 -->
<g id="edge1" class="edge"><title>Node3&#45;&gt;Node4</title>
<path fill="none" stroke="midnightblue" d="M154.565,-61.1953C133.948,-51.6293 105.41,-38.3875 84.3601,-28.6203"/>
<polygon fill="midnightblue" stroke="midnightblue" points="153.159,-64.4012 163.703,-65.4353 156.105,-58.0514 153.159,-64.4012"/>
</g>
<!-- Node5 -->
<g id="node3" class="node"><title>Node5</title>
<g id="a_node3"><a xlink:href="erpc__client__setup_8h.html" target="_top" xlink:title="erpc_client_setup.h">
<polygon fill="white" stroke="black" points="129.722,-5.5 129.722,-23.5 232.445,-23.5 232.445,-5.5 129.722,-5.5"/>
<text text-anchor="middle" x="181.083" y="-11.5" font-family="Helvetica,sans-Serif" font-size="10.00">erpc_client_setup.h</text>
</a>
</g>
</g>
<!-- Node3&#45;&gt;Node5 -->
<g id="edge2" class="edge"><title>Node3&#45;&gt;Node5</title>
<path fill="none" stroke="midnightblue" d="M181.083,-55.2144C181.083,-44.7141 181.083,-32.0332 181.083,-23.8718"/>
<polygon fill="midnightblue" stroke="midnightblue" points="177.584,-55.4353 181.083,-65.4353 184.584,-55.4354 177.584,-55.4353"/>
</g>
<!-- Node6 -->
<g id="node4" class="node"><title>Node6</title>
<g id="a_node4"><a xlink:href="erpc__server__setup_8h.html" target="_top" xlink:title="erpc_server_setup.h">
<polygon fill="white" stroke="black" points="250.502,-5.5 250.502,-23.5 357.665,-23.5 357.665,-5.5 250.502,-5.5"/>
<text text-anchor="middle" x="304.083" y="-11.5" font-family="Helvetica,sans-Serif" font-size="10.00">erpc_server_setup.h</text>
</a>
</g>
</g>
<!-- Node3&#45;&gt;Node6 -->
<g id="edge3" class="edge"><title>Node3&#45;&gt;Node6</title>
<path fill="none" stroke="midnightblue" d="M207.416,-61.0831C231.381,-49.7825 266.077,-33.4217 286.73,-23.6831"/>
<polygon fill="midnightblue" stroke="midnightblue" points="205.738,-58.0045 198.186,-65.4353 208.724,-64.3359 205.738,-58.0045"/>
</g>
</g>
</svg>
