<?xml version="1.0" encoding="UTF-8" standalone="no"?>
<!DOCTYPE svg PUBLIC "-//W3C//DTD SVG 1.1//EN"
 "http://www.w3.org/Graphics/SVG/1.1/DTD/svg11.dtd">
<!-- Generated by graphviz version 2.38.0 (20140413.2041)
 -->
<!-- Title: framed_transport.h Pages: 1 -->
<svg width="880pt" height="82pt"
 viewBox="0.00 0.00 879.77 82.00" xmlns="http://www.w3.org/2000/svg" xmlns:xlink="http://www.w3.org/1999/xlink">
<g id="graph0" class="graph" transform="scale(1 1) rotate(0) translate(4 78)">
<title>framed_transport.h</title>
<polygon fill="white" stroke="none" points="-4,4 -4,-78 875.771,-78 875.771,4 -4,4"/>
<!-- Node10 -->
<g id="node1" class="node"><title>Node10</title>
<polygon fill="#bfbfbf" stroke="black" points="396.672,-55.5 396.672,-73.5 497.16,-73.5 497.16,-55.5 396.672,-55.5"/>
<text text-anchor="middle" x="446.916" y="-61.5" font-family="Helvetica,sans-Serif" font-size="10.00">framed_transport.h</text>
</g>
<!-- Node11 -->
<g id="node2" class="node"><title>Node11</title>
<g id="a_node2"><a xlink:href="dspi__master__transport_8h.html" target="_top" xlink:title="dspi_master_transport.h">
<polygon fill="white" stroke="black" points="0,-0.5 0,-18.5 123.832,-18.5 123.832,-0.5 0,-0.5"/>
<text text-anchor="middle" x="61.916" y="-6.5" font-family="Helvetica,sans-Serif" font-size="10.00">dspi_master_transport.h</text>
</a>
</g>
</g>
<!-- Node10&#45;&gt;Node11 -->
<g id="edge1" class="edge"><title>Node10&#45;&gt;Node11</title>
<path fill="none" stroke="midnightblue" d="M386.639,-55.2021C313.784,-45.1727 192.039,-28.413 120.125,-18.5131"/>
<polygon fill="midnightblue" stroke="midnightblue" points="386.2,-58.6746 396.584,-56.5712 387.155,-51.74 386.2,-58.6746"/>
</g>
<!-- Node12 -->
<g id="node3" class="node"><title>Node12</title>
<g id="a_node3"><a xlink:href="dspi__slave__transport_8h.html" target="_top" xlink:title="dspi_slave_transport.h">
<polygon fill="white" stroke="black" points="141.608,-0.5 141.608,-18.5 258.224,-18.5 258.224,-0.5 141.608,-0.5"/>
<text text-anchor="middle" x="199.916" y="-6.5" font-family="Helvetica,sans-Serif" font-size="10.00">dspi_slave_transport.h</text>
</a>
</g>
</g>
<!-- Node10&#45;&gt;Node12 -->
<g id="edge2" class="edge"><title>Node10&#45;&gt;Node12</title>
<path fill="none" stroke="midnightblue" d="M399.421,-53.3087C352.202,-43.1769 280.732,-27.8411 237.378,-18.5383"/>
<polygon fill="midnightblue" stroke="midnightblue" points="398.89,-56.7745 409.402,-55.4504 400.359,-49.9303 398.89,-56.7745"/>
</g>
<!-- Node13 -->
<g id="node4" class="node"><title>Node13</title>
<g id="a_node4"><a xlink:href="serial__transport_8h.html" target="_top" xlink:title="serial_transport.h">
<polygon fill="white" stroke="black" points="276.286,-0.5 276.286,-18.5 369.546,-18.5 369.546,-0.5 276.286,-0.5"/>
<text text-anchor="middle" x="322.916" y="-6.5" font-family="Helvetica,sans-Serif" font-size="10.00">serial_transport.h</text>
</a>
</g>
</g>
<!-- Node10&#45;&gt;Node13 -->
<g id="edge3" class="edge"><title>Node10&#45;&gt;Node13</title>
<path fill="none" stroke="midnightblue" d="M418.649,-51.4181C395.162,-41.3794 362.391,-27.3722 341.926,-18.6253"/>
<polygon fill="midnightblue" stroke="midnightblue" points="417.512,-54.7385 428.083,-55.4504 420.263,-48.3018 417.512,-54.7385"/>
</g>
<!-- Node14 -->
<g id="node5" class="node"><title>Node14</title>
<g id="a_node5"><a xlink:href="spi__master__transport_8h.html" target="_top" xlink:title="spi_master_transport.h">
<polygon fill="white" stroke="black" points="387.781,-0.5 387.781,-18.5 506.051,-18.5 506.051,-0.5 387.781,-0.5"/>
<text text-anchor="middle" x="446.916" y="-6.5" font-family="Helvetica,sans-Serif" font-size="10.00">spi_master_transport.h</text>
</a>
</g>
</g>
<!-- Node10&#45;&gt;Node14 -->
<g id="edge4" class="edge"><title>Node10&#45;&gt;Node14</title>
<path fill="none" stroke="midnightblue" d="M446.916,-45.1746C446.916,-36.0945 446.916,-25.5949 446.916,-18.5496"/>
<polygon fill="midnightblue" stroke="midnightblue" points="443.416,-45.2187 446.916,-55.2188 450.416,-45.2188 443.416,-45.2187"/>
</g>
<!-- Node15 -->
<g id="node6" class="node"><title>Node15</title>
<g id="a_node6"><a xlink:href="spi__slave__transport_8h.html" target="_top" xlink:title="spi_slave_transport.h">
<polygon fill="white" stroke="black" points="524.389,-0.5 524.389,-18.5 635.443,-18.5 635.443,-0.5 524.389,-0.5"/>
<text text-anchor="middle" x="579.916" y="-6.5" font-family="Helvetica,sans-Serif" font-size="10.00">spi_slave_transport.h</text>
</a>
</g>
</g>
<!-- Node10&#45;&gt;Node15 -->
<g id="edge5" class="edge"><title>Node10&#45;&gt;Node15</title>
<path fill="none" stroke="midnightblue" d="M476.563,-51.686C501.797,-41.63 537.38,-27.4503 559.526,-18.6253"/>
<polygon fill="midnightblue" stroke="midnightblue" points="475.11,-48.4972 467.116,-55.4504 477.701,-54.9999 475.11,-48.4972"/>
</g>
<!-- Node16 -->
<g id="node7" class="node"><title>Node16</title>
<g id="a_node7"><a xlink:href="tcp__transport_8h.html" target="_top" xlink:title="tcp_transport.h">
<polygon fill="white" stroke="black" points="653.564,-0.5 653.564,-18.5 736.268,-18.5 736.268,-0.5 653.564,-0.5"/>
<text text-anchor="middle" x="694.916" y="-6.5" font-family="Helvetica,sans-Serif" font-size="10.00">tcp_transport.h</text>
</a>
</g>
</g>
<!-- Node10&#45;&gt;Node16 -->
<g id="edge6" class="edge"><title>Node10&#45;&gt;Node16</title>
<path fill="none" stroke="midnightblue" d="M494.604,-53.3087C542.013,-43.1769 613.773,-27.8411 657.303,-18.5383"/>
<polygon fill="midnightblue" stroke="midnightblue" points="493.63,-49.9377 484.582,-55.4504 495.093,-56.7832 493.63,-49.9377"/>
</g>
<!-- Node17 -->
<g id="node8" class="node"><title>Node17</title>
<g id="a_node8"><a xlink:href="uart__cmsis__transport_8h.html" target="_top" xlink:title="uart_cmsis_transport.h">
<polygon fill="white" stroke="black" points="754.062,-0.5 754.062,-18.5 871.771,-18.5 871.771,-0.5 754.062,-0.5"/>
<text text-anchor="middle" x="812.916" y="-6.5" font-family="Helvetica,sans-Serif" font-size="10.00">uart_cmsis_transport.h</text>
</a>
</g>
</g>
<!-- Node10&#45;&gt;Node17 -->
<g id="edge7" class="edge"><title>Node10&#45;&gt;Node17</title>
<path fill="none" stroke="midnightblue" d="M507.358,-54.7475C576.919,-44.6744 690.203,-28.2699 757.549,-18.5176"/>
<polygon fill="midnightblue" stroke="midnightblue" points="506.818,-51.2891 497.422,-56.1862 507.821,-58.2169 506.818,-51.2891"/>
</g>
</g>
</svg>
