<?xml version="1.0" encoding="UTF-8" standalone="no"?>
<!DOCTYPE svg PUBLIC "-//W3C//DTD SVG 1.1//EN"
 "http://www.w3.org/Graphics/SVG/1.1/DTD/svg11.dtd">
<!-- Generated by graphviz version 2.38.0 (20140413.2041)
 -->
<!-- Title: Transports Pages: 1 -->
<svg width="337pt" height="619pt"
 viewBox="0.00 0.00 337.23 619.00" xmlns="http://www.w3.org/2000/svg" xmlns:xlink="http://www.w3.org/1999/xlink">
<g id="graph0" class="graph" transform="scale(1 1) rotate(0) translate(4 615)">
<title>Transports</title>
<polygon fill="white" stroke="none" points="-4,4 -4,-615 333.232,-615 333.232,4 -4,4"/>
<!-- Node8 -->
<g id="node1" class="node"><title>Node8</title>
<g id="a_node1"><a xlink:href="group__dspi__slave__transport.html" target="_top" xlink:title="Kinetis SDK DSPI slave driver transport. ">
<polygon fill="white" stroke="black" points="246.445,-592.5 246.445,-610.5 313.578,-610.5 313.578,-592.5 246.445,-592.5"/>
<text text-anchor="middle" x="280.012" y="-598.5" font-family="Helvetica,sans-Serif" font-size="10.00">DSPI Slave</text>
</a>
</g>
</g>
<!-- Node6 -->
<g id="node2" class="node"><title>Node6</title>
<g id="a_node2"><a xlink:href="group__port__threads.html" target="_top" xlink:title="Threading model. ">
<polygon fill="white" stroke="black" points="253.669,-555.5 253.669,-573.5 306.354,-573.5 306.354,-555.5 253.669,-555.5"/>
<text text-anchor="middle" x="280.012" y="-561.5" font-family="Helvetica,sans-Serif" font-size="10.00">Threads</text>
</a>
</g>
</g>
<!-- Node17 -->
<g id="node3" class="node"><title>Node17</title>
<g id="a_node3"><a xlink:href="group__tcp__transport.html" target="_top" xlink:title="Simple TCP/IP transport. ">
<polygon fill="white" stroke="black" points="255.898,-518.5 255.898,-536.5 304.125,-536.5 304.125,-518.5 255.898,-518.5"/>
<text text-anchor="middle" x="280.012" y="-524.5" font-family="Helvetica,sans-Serif" font-size="10.00">TCP/IP</text>
</a>
</g>
</g>
<!-- Node13 -->
<g id="node4" class="node"><title>Node13</title>
<g id="a_node4"><a xlink:href="group__rpmsg__transport.html" target="_top" xlink:title="OpenAMP RPMsg transport. ">
<polygon fill="white" stroke="black" points="255.62,-481.5 255.62,-499.5 304.403,-499.5 304.403,-481.5 255.62,-481.5"/>
<text text-anchor="middle" x="280.012" y="-487.5" font-family="Helvetica,sans-Serif" font-size="10.00">RPMsg</text>
</a>
</g>
</g>
<!-- Node1 -->
<g id="node5" class="node"><title>Node1</title>
<g id="a_node5"><a xlink:href="group__infra.html" target="_top" xlink:title="C++ core. ">
<polygon fill="white" stroke="black" points="0,-296.5 0,-314.5 74.9111,-314.5 74.9111,-296.5 0,-296.5"/>
<text text-anchor="middle" x="37.4556" y="-302.5" font-family="Helvetica,sans-Serif" font-size="10.00">Infrastructure</text>
</a>
</g>
</g>
<!-- Node0 -->
<g id="node7" class="node"><title>Node0</title>
<polygon fill="#bfbfbf" stroke="black" points="111.911,-296.5 111.911,-314.5 175.338,-314.5 175.338,-296.5 111.911,-296.5"/>
<text text-anchor="middle" x="143.625" y="-302.5" font-family="Helvetica,sans-Serif" font-size="10.00">Transports</text>
</g>
<!-- Node1&#45;&gt;Node0 -->
<g id="edge1" class="edge"><title>Node1&#45;&gt;Node0</title>
<path fill="none" stroke="black" d="M85.1916,-305.5C94.1899,-305.5 103.403,-305.5 111.743,-305.5"/>
<polygon fill="black" stroke="black" points="85.1817,-302 75.1816,-305.5 85.1816,-309 85.1817,-302"/>
</g>
<!-- Node2 -->
<g id="node6" class="node"><title>Node2</title>
<g id="a_node6"><a xlink:href="group__infra__client.html" target="_top" xlink:title="Client classes. ">
<polygon fill="white" stroke="black" points="259.229,-444.5 259.229,-462.5 300.795,-462.5 300.795,-444.5 259.229,-444.5"/>
<text text-anchor="middle" x="280.012" y="-450.5" font-family="Helvetica,sans-Serif" font-size="10.00">Client</text>
</a>
</g>
</g>
<!-- Node0&#45;&gt;Node8 -->
<g id="edge8" class="edge"><title>Node0&#45;&gt;Node8</title>
<path fill="none" stroke="blueviolet" stroke-dasharray="5,2" d="M144.507,-314.557C144.454,-347.964 147.667,-466.571 193.338,-548.5 204.431,-568.4 211.421,-571.506 230.791,-583.5 236.413,-586.981 242.814,-589.954 249.074,-592.421"/>
<text text-anchor="middle" x="203.064" y="-573.5" font-family="Helvetica,sans-Serif" font-size="10.00">erpc</text>
</g>
<!-- Node0&#45;&gt;Node6 -->
<g id="edge6" class="edge"><title>Node0&#45;&gt;Node6</title>
<path fill="none" stroke="blueviolet" stroke-dasharray="5,2" d="M144.991,-314.755C146.551,-344.946 154.492,-442.534 193.338,-510.5 204.795,-530.545 211.247,-534.207 230.791,-546.5 237.75,-550.877 245.935,-554.433 253.566,-557.192"/>
<text text-anchor="middle" x="203.064" y="-536.5" font-family="Helvetica,sans-Serif" font-size="10.00">erpc</text>
</g>
<!-- Node0&#45;&gt;Node17 -->
<g id="edge17" class="edge"><title>Node0&#45;&gt;Node17</title>
<path fill="none" stroke="blueviolet" stroke-dasharray="5,2" d="M145.679,-314.838C149,-341.284 161.012,-418.285 193.338,-472.5 205.321,-492.598 211.07,-496.907 230.791,-509.5 238.322,-514.309 247.328,-518.108 255.506,-520.952"/>
<text text-anchor="middle" x="203.064" y="-498.5" font-family="Helvetica,sans-Serif" font-size="10.00">erpc</text>
</g>
<!-- Node0&#45;&gt;Node13 -->
<g id="edge13" class="edge"><title>Node0&#45;&gt;Node13</title>
<path fill="none" stroke="blueviolet" stroke-dasharray="5,2" d="M146.783,-314.766C152.169,-336.685 167.646,-392.919 193.338,-433.5 206.193,-453.805 210.708,-459.301 230.791,-472.5 238.258,-477.408 247.25,-481.228 255.435,-484.061"/>
<text text-anchor="middle" x="203.064" y="-460.5" font-family="Helvetica,sans-Serif" font-size="10.00">erpc</text>
</g>
<!-- Node0&#45;&gt;Node2 -->
<g id="edge2" class="edge"><title>Node0&#45;&gt;Node2</title>
<path fill="none" stroke="blueviolet" stroke-dasharray="5,2" d="M147.717,-314.615C156.447,-338.835 183.753,-405.02 230.791,-435.5 239.34,-441.04 249.837,-445.215 258.853,-448.143"/>
<text text-anchor="middle" x="203.064" y="-421.5" font-family="Helvetica,sans-Serif" font-size="10.00">erpc</text>
</g>
<!-- Node14 -->
<g id="node8" class="node"><title>Node14</title>
<g id="a_node8"><a xlink:href="group__serial__transport.html" target="_top" xlink:title="POSIX and Win32 serial port transport. ">
<polygon fill="white" stroke="black" points="249.224,-407.5 249.224,-425.5 310.8,-425.5 310.8,-407.5 249.224,-407.5"/>
<text text-anchor="middle" x="280.012" y="-413.5" font-family="Helvetica,sans-Serif" font-size="10.00">Serial port</text>
</a>
</g>
</g>
<!-- Node0&#45;&gt;Node14 -->
<g id="edge14" class="edge"><title>Node0&#45;&gt;Node14</title>
<path fill="none" stroke="blueviolet" stroke-dasharray="5,2" d="M150.534,-314.732C163.012,-333.464 193.949,-376.054 230.791,-398.5 236.514,-401.987 243.023,-404.976 249.366,-407.459"/>
<text text-anchor="middle" x="203.064" y="-385.5" font-family="Helvetica,sans-Serif" font-size="10.00">erpc</text>
</g>
<!-- Node4 -->
<g id="node9" class="node"><title>Node4</title>
<g id="a_node9"><a xlink:href="group__infra__utility.html" target="_top" xlink:title="Utility code used by the infrastructure. ">
<polygon fill="white" stroke="black" points="255.898,-370.5 255.898,-388.5 304.125,-388.5 304.125,-370.5 255.898,-370.5"/>
<text text-anchor="middle" x="280.012" y="-376.5" font-family="Helvetica,sans-Serif" font-size="10.00">Utilities</text>
</a>
</g>
</g>
<!-- Node0&#45;&gt;Node4 -->
<g id="edge4" class="edge"><title>Node0&#45;&gt;Node4</title>
<path fill="none" stroke="blueviolet" stroke-dasharray="5,2" d="M156.617,-314.659C172.769,-326.666 202.732,-347.807 230.791,-361.5 238.661,-365.341 247.572,-368.878 255.574,-371.783"/>
<text text-anchor="middle" x="203.064" y="-352.5" font-family="Helvetica,sans-Serif" font-size="10.00">erpc</text>
</g>
<!-- Node16 -->
<g id="node10" class="node"><title>Node16</title>
<g id="a_node10"><a xlink:href="group__spi__slave__transport.html" target="_top" xlink:title="Kinetis SDK SPI slave driver transport. ">
<polygon fill="white" stroke="black" points="250.056,-333.5 250.056,-351.5 309.967,-351.5 309.967,-333.5 250.056,-333.5"/>
<text text-anchor="middle" x="280.012" y="-339.5" font-family="Helvetica,sans-Serif" font-size="10.00">SPI Slave</text>
</a>
</g>
</g>
<!-- Node0&#45;&gt;Node16 -->
<g id="edge16" class="edge"><title>Node0&#45;&gt;Node16</title>
<path fill="none" stroke="blueviolet" stroke-dasharray="5,2" d="M175.525,-314.469C181.433,-316.159 187.573,-317.898 193.338,-319.5 212.182,-324.737 233.415,-330.438 250.028,-334.855"/>
<text text-anchor="middle" x="203.064" y="-326.5" font-family="Helvetica,sans-Serif" font-size="10.00">erpc</text>
</g>
<!-- Node18 -->
<g id="node11" class="node"><title>Node18</title>
<g id="a_node11"><a xlink:href="group__uart__transport.html" target="_top" xlink:title="CMSIS UART driver transport. ">
<polygon fill="white" stroke="black" points="241.265,-296.5 241.265,-314.5 318.759,-314.5 318.759,-296.5 241.265,-296.5"/>
<text text-anchor="middle" x="280.012" y="-302.5" font-family="Helvetica,sans-Serif" font-size="10.00">CMSIS UART</text>
</a>
</g>
</g>
<!-- Node0&#45;&gt;Node18 -->
<g id="edge18" class="edge"><title>Node0&#45;&gt;Node18</title>
<path fill="none" stroke="blueviolet" stroke-dasharray="5,2" d="M175.456,-305.5C194.984,-305.5 220.375,-305.5 241.127,-305.5"/>
<text text-anchor="middle" x="203.064" y="-307.5" font-family="Helvetica,sans-Serif" font-size="10.00">erpc</text>
</g>
<!-- Node15 -->
<g id="node12" class="node"><title>Node15</title>
<g id="a_node12"><a xlink:href="group__spi__master__transport.html" target="_top" xlink:title="Kinetis SDK SPI master driver transport. ">
<polygon fill="white" stroke="black" points="247.283,-259.5 247.283,-277.5 312.741,-277.5 312.741,-259.5 247.283,-259.5"/>
<text text-anchor="middle" x="280.012" y="-265.5" font-family="Helvetica,sans-Serif" font-size="10.00">SPI Master</text>
</a>
</g>
</g>
<!-- Node0&#45;&gt;Node15 -->
<g id="edge15" class="edge"><title>Node0&#45;&gt;Node15</title>
<path fill="none" stroke="blueviolet" stroke-dasharray="5,2" d="M175.525,-296.531C181.433,-294.841 187.573,-293.102 193.338,-291.5 211.144,-286.552 231.081,-281.189 247.24,-276.887"/>
<text text-anchor="middle" x="203.064" y="-293.5" font-family="Helvetica,sans-Serif" font-size="10.00">erpc</text>
</g>
<!-- Node5 -->
<g id="node13" class="node"><title>Node5</title>
<g id="a_node13"><a xlink:href="group__infra__server.html" target="_top" xlink:title="Server classes. ">
<polygon fill="white" stroke="black" points="257.285,-222.5 257.285,-240.5 302.738,-240.5 302.738,-222.5 257.285,-222.5"/>
<text text-anchor="middle" x="280.012" y="-228.5" font-family="Helvetica,sans-Serif" font-size="10.00">Server</text>
</a>
</g>
</g>
<!-- Node0&#45;&gt;Node5 -->
<g id="edge5" class="edge"><title>Node0&#45;&gt;Node5</title>
<path fill="none" stroke="blueviolet" stroke-dasharray="5,2" d="M156.617,-296.341C172.769,-284.334 202.732,-263.193 230.791,-249.5 239.143,-245.424 248.667,-241.689 257.033,-238.691"/>
<text text-anchor="middle" x="203.064" y="-272.5" font-family="Helvetica,sans-Serif" font-size="10.00">erpc</text>
</g>
<!-- Node9 -->
<g id="node14" class="node"><title>Node9</title>
<g id="a_node14"><a xlink:href="group__itbp__transport.html" target="_top" xlink:title="Simple inter&#45;thread communications transport. ">
<polygon fill="white" stroke="black" points="246.165,-185.5 246.165,-203.5 313.859,-203.5 313.859,-185.5 246.165,-185.5"/>
<text text-anchor="middle" x="280.012" y="-191.5" font-family="Helvetica,sans-Serif" font-size="10.00">Inter&#45;thread</text>
</a>
</g>
</g>
<!-- Node0&#45;&gt;Node9 -->
<g id="edge9" class="edge"><title>Node0&#45;&gt;Node9</title>
<path fill="none" stroke="blueviolet" stroke-dasharray="5,2" d="M150.534,-296.268C163.012,-277.536 193.949,-234.946 230.791,-212.5 236.514,-209.013 243.023,-206.024 249.366,-203.541"/>
<text text-anchor="middle" x="203.064" y="-245.5" font-family="Helvetica,sans-Serif" font-size="10.00">erpc</text>
</g>
<!-- Node7 -->
<g id="node15" class="node"><title>Node7</title>
<g id="a_node15"><a xlink:href="group__dspi__master__transport.html" target="_top" xlink:title="Kinetis SDK DSPI master driver transport. ">
<polygon fill="white" stroke="black" points="243.672,-148.5 243.672,-166.5 316.352,-166.5 316.352,-148.5 243.672,-148.5"/>
<text text-anchor="middle" x="280.012" y="-154.5" font-family="Helvetica,sans-Serif" font-size="10.00">DSPI Master</text>
</a>
</g>
</g>
<!-- Node0&#45;&gt;Node7 -->
<g id="edge7" class="edge"><title>Node0&#45;&gt;Node7</title>
<path fill="none" stroke="blueviolet" stroke-dasharray="5,2" d="M147.717,-296.385C156.447,-272.165 183.753,-205.98 230.791,-175.5 236.265,-171.953 242.539,-168.965 248.71,-166.506"/>
<text text-anchor="middle" x="203.064" y="-212.5" font-family="Helvetica,sans-Serif" font-size="10.00">erpc</text>
</g>
<!-- Node12 -->
<g id="node16" class="node"><title>Node12</title>
<g id="a_node16"><a xlink:href="group__rpmsg__rtos__transport.html" target="_top" xlink:title="OpenAMP RPMsg RTOS layer transport. ">
<polygon fill="white" stroke="black" points="240.518,-111.5 240.518,-129.5 319.506,-129.5 319.506,-111.5 240.518,-111.5"/>
<text text-anchor="middle" x="280.012" y="-117.5" font-family="Helvetica,sans-Serif" font-size="10.00">RPMsg RTOS</text>
</a>
</g>
</g>
<!-- Node0&#45;&gt;Node12 -->
<g id="edge12" class="edge"><title>Node0&#45;&gt;Node12</title>
<path fill="none" stroke="blueviolet" stroke-dasharray="5,2" d="M146.783,-296.234C152.169,-274.315 167.646,-218.081 193.338,-177.5 206.193,-157.195 210.708,-151.699 230.791,-138.5 236.168,-134.966 242.334,-131.997 248.421,-129.553"/>
<text text-anchor="middle" x="203.064" y="-179.5" font-family="Helvetica,sans-Serif" font-size="10.00">erpc</text>
</g>
<!-- Node3 -->
<g id="node17" class="node"><title>Node3</title>
<g id="a_node17"><a xlink:href="group__infra__codec.html" target="_top" xlink:title="Classes used for message serialization. ">
<polygon fill="white" stroke="black" points="244.775,-74.5 244.775,-92.5 315.248,-92.5 315.248,-74.5 244.775,-74.5"/>
<text text-anchor="middle" x="280.012" y="-80.5" font-family="Helvetica,sans-Serif" font-size="10.00">Serialization</text>
</a>
</g>
</g>
<!-- Node0&#45;&gt;Node3 -->
<g id="edge3" class="edge"><title>Node0&#45;&gt;Node3</title>
<path fill="none" stroke="blueviolet" stroke-dasharray="5,2" d="M145.679,-296.162C149,-269.716 161.012,-192.715 193.338,-138.5 205.321,-118.402 211.07,-114.093 230.791,-101.5 236.289,-97.9893 242.572,-95.0171 248.746,-92.5618"/>
<text text-anchor="middle" x="203.064" y="-140.5" font-family="Helvetica,sans-Serif" font-size="10.00">erpc</text>
</g>
<!-- Node10 -->
<g id="node18" class="node"><title>Node10</title>
<g id="a_node18"><a xlink:href="group__rpmsg__lite__rtos__transport.html" target="_top" xlink:title="RPMsg&#45;Lite transport using RTOS API. ">
<polygon fill="white" stroke="black" points="230.791,-37.5 230.791,-55.5 329.232,-55.5 329.232,-37.5 230.791,-37.5"/>
<text text-anchor="middle" x="280.012" y="-43.5" font-family="Helvetica,sans-Serif" font-size="10.00">RPMsg&#45;Lite RTOS</text>
</a>
</g>
</g>
<!-- Node0&#45;&gt;Node10 -->
<g id="edge10" class="edge"><title>Node0&#45;&gt;Node10</title>
<path fill="none" stroke="blueviolet" stroke-dasharray="5,2" d="M144.991,-296.245C146.551,-266.054 154.492,-168.466 193.338,-100.5 204.795,-80.4545 211.247,-76.7925 230.791,-64.5 236.388,-60.9794 242.779,-57.9902 249.037,-55.5192"/>
<text text-anchor="middle" x="203.064" y="-102.5" font-family="Helvetica,sans-Serif" font-size="10.00">erpc</text>
</g>
<!-- Node11 -->
<g id="node19" class="node"><title>Node11</title>
<g id="a_node19"><a xlink:href="group__rpmsg__lite__transport.html" target="_top" xlink:title="RPMsg&#45;Lite transport. ">
<polygon fill="white" stroke="black" points="245.894,-0.5 245.894,-18.5 314.13,-18.5 314.13,-0.5 245.894,-0.5"/>
<text text-anchor="middle" x="280.012" y="-6.5" font-family="Helvetica,sans-Serif" font-size="10.00">RPMsg&#45;Lite</text>
</a>
</g>
</g>
<!-- Node0&#45;&gt;Node11 -->
<g id="edge11" class="edge"><title>Node0&#45;&gt;Node11</title>
<path fill="none" stroke="blueviolet" stroke-dasharray="5,2" d="M144.507,-296.443C144.454,-263.036 147.667,-144.429 193.338,-62.5 204.431,-42.6002 211.421,-39.4938 230.791,-27.5 236.413,-24.0189 242.814,-21.0463 249.074,-18.579"/>
<text text-anchor="middle" x="203.064" y="-64.5" font-family="Helvetica,sans-Serif" font-size="10.00">erpc</text>
</g>
</g>
</svg>
