<?xml version="1.0" encoding="UTF-8" standalone="no"?>
<!DOCTYPE svg PUBLIC "-//W3C//DTD SVG 1.1//EN"
 "http://www.w3.org/Graphics/SVG/1.1/DTD/svg11.dtd">
<!-- Generated by graphviz version 2.38.0 (20140413.2041)
 -->
<!-- Title: Porting Pages: 1 -->
<svg width="144pt" height="101pt"
 viewBox="0.00 0.00 144.37 101.00" xmlns="http://www.w3.org/2000/svg" xmlns:xlink="http://www.w3.org/1999/xlink">
<g id="graph0" class="graph" transform="scale(1 1) rotate(0) translate(4 97)">
<title>Porting</title>
<polygon fill="white" stroke="none" points="-4,4 -4,-97 140.369,-97 140.369,4 -4,4"/>
<!-- Node2 -->
<g id="node1" class="node"><title>Node2</title>
<g id="a_node1"><a xlink:href="group__port__threads.html" target="_top" xlink:title="Threading model. ">
<polygon fill="white" stroke="black" points="83.6846,-74.5 83.6846,-92.5 136.369,-92.5 136.369,-74.5 83.6846,-74.5"/>
<text text-anchor="middle" x="110.027" y="-80.5" font-family="Helvetica,sans-Serif" font-size="10.00">Threads</text>
</a>
</g>
</g>
<!-- Node1 -->
<g id="node2" class="node"><title>Node1</title>
<g id="a_node2"><a xlink:href="group__port__mem.html" target="_top" xlink:title="Memory allocation. ">
<polygon fill="white" stroke="black" points="83.9702,-37.5 83.9702,-55.5 136.083,-55.5 136.083,-37.5 83.9702,-37.5"/>
<text text-anchor="middle" x="110.027" y="-43.5" font-family="Helvetica,sans-Serif" font-size="10.00">Memory</text>
</a>
</g>
</g>
<!-- Node3 -->
<g id="node3" class="node"><title>Node3</title>
<g id="a_node3"><a xlink:href="group__port__serial.html" target="_top" xlink:title="Serial port. ">
<polygon fill="white" stroke="black" points="89.2437,-0.5 89.2437,-18.5 130.81,-18.5 130.81,-0.5 89.2437,-0.5"/>
<text text-anchor="middle" x="110.027" y="-6.5" font-family="Helvetica,sans-Serif" font-size="10.00">Serial</text>
</a>
</g>
</g>
<!-- Node0 -->
<g id="node4" class="node"><title>Node0</title>
<polygon fill="#bfbfbf" stroke="black" points="0,-37.5 0,-55.5 47.6846,-55.5 47.6846,-37.5 0,-37.5"/>
<text text-anchor="middle" x="23.8423" y="-43.5" font-family="Helvetica,sans-Serif" font-size="10.00">Porting</text>
</g>
<!-- Node0&#45;&gt;Node2 -->
<g id="edge2" class="edge"><title>Node0&#45;&gt;Node2</title>
<path fill="none" stroke="black" d="M55.0048,-59.7567C66.0994,-64.6329 78.3993,-70.0389 88.4566,-74.4591"/>
<polygon fill="black" stroke="black" points="56.2151,-56.4656 45.652,-55.6461 53.3985,-62.8739 56.2151,-56.4656"/>
</g>
<!-- Node0&#45;&gt;Node1 -->
<g id="edge1" class="edge"><title>Node0&#45;&gt;Node1</title>
<path fill="none" stroke="black" d="M57.9333,-46.5C66.4982,-46.5 75.5848,-46.5 83.6831,-46.5"/>
<polygon fill="black" stroke="black" points="57.8461,-43.0001 47.8461,-46.5 57.8461,-50.0001 57.8461,-43.0001"/>
</g>
<!-- Node0&#45;&gt;Node3 -->
<g id="edge3" class="edge"><title>Node0&#45;&gt;Node3</title>
<path fill="none" stroke="black" d="M54.8092,-33.3292C66.1685,-28.3367 78.8158,-22.7781 89.0363,-18.2861"/>
<polygon fill="black" stroke="black" points="53.3985,-30.1261 45.652,-37.3539 56.2151,-36.5344 53.3985,-30.1261"/>
</g>
</g>
</svg>
