<?xml version="1.0" encoding="UTF-8" standalone="no"?>
<!DOCTYPE svg PUBLIC "-//W3C//DTD SVG 1.1//EN"
 "http://www.w3.org/Graphics/SVG/1.1/DTD/svg11.dtd">
<!-- Generated by graphviz version 2.38.0 (20140413.2041)
 -->
<!-- Title: SPI Master Pages: 1 -->
<svg width="356pt" height="619pt"
 viewBox="0.00 0.00 355.57 619.00" xmlns="http://www.w3.org/2000/svg" xmlns:xlink="http://www.w3.org/1999/xlink">
<g id="graph0" class="graph" transform="scale(1 1) rotate(0) translate(4 615)">
<title>SPI Master</title>
<polygon fill="white" stroke="none" points="-4,4 -4,-615 351.572,-615 351.572,4 -4,4"/>
<!-- Node1 -->
<g id="node1" class="node"><title>Node1</title>
<g id="a_node1"><a xlink:href="group__transports.html" target="_top" xlink:title="Transport layer classes. ">
<polygon fill="white" stroke="black" points="0,-296.5 0,-314.5 91.2197,-314.5 91.2197,-296.5 0,-296.5"/>
<text text-anchor="middle" x="45.6099" y="-302.5" font-family="Helvetica,sans-Serif" font-size="10.00">Transport Layers</text>
</a>
</g>
</g>
<!-- Node0 -->
<g id="node12" class="node"><title>Node0</title>
<polygon fill="#bfbfbf" stroke="black" points="128.22,-296.5 128.22,-314.5 193.678,-314.5 193.678,-296.5 128.22,-296.5"/>
<text text-anchor="middle" x="160.949" y="-302.5" font-family="Helvetica,sans-Serif" font-size="10.00">SPI Master</text>
</g>
<!-- Node1&#45;&gt;Node0 -->
<g id="edge1" class="edge"><title>Node1&#45;&gt;Node0</title>
<path fill="none" stroke="black" d="M101.578,-305.5C110.656,-305.5 119.791,-305.5 128.052,-305.5"/>
<polygon fill="black" stroke="black" points="101.404,-302 91.4044,-305.5 101.404,-309 101.404,-302"/>
</g>
<!-- Node9 -->
<g id="node2" class="node"><title>Node9</title>
<g id="a_node2"><a xlink:href="group__dspi__slave__transport.html" target="_top" xlink:title="Kinetis SDK DSPI slave driver transport. ">
<polygon fill="white" stroke="black" points="264.785,-592.5 264.785,-610.5 331.918,-610.5 331.918,-592.5 264.785,-592.5"/>
<text text-anchor="middle" x="298.352" y="-598.5" font-family="Helvetica,sans-Serif" font-size="10.00">DSPI Slave</text>
</a>
</g>
</g>
<!-- Node7 -->
<g id="node3" class="node"><title>Node7</title>
<g id="a_node3"><a xlink:href="group__port__threads.html" target="_top" xlink:title="Threading model. ">
<polygon fill="white" stroke="black" points="272.009,-555.5 272.009,-573.5 324.694,-573.5 324.694,-555.5 272.009,-555.5"/>
<text text-anchor="middle" x="298.352" y="-561.5" font-family="Helvetica,sans-Serif" font-size="10.00">Threads</text>
</a>
</g>
</g>
<!-- Node17 -->
<g id="node4" class="node"><title>Node17</title>
<g id="a_node4"><a xlink:href="group__tcp__transport.html" target="_top" xlink:title="Simple TCP/IP transport. ">
<polygon fill="white" stroke="black" points="274.238,-518.5 274.238,-536.5 322.465,-536.5 322.465,-518.5 274.238,-518.5"/>
<text text-anchor="middle" x="298.352" y="-524.5" font-family="Helvetica,sans-Serif" font-size="10.00">TCP/IP</text>
</a>
</g>
</g>
<!-- Node14 -->
<g id="node5" class="node"><title>Node14</title>
<g id="a_node5"><a xlink:href="group__rpmsg__transport.html" target="_top" xlink:title="OpenAMP RPMsg transport. ">
<polygon fill="white" stroke="black" points="273.96,-481.5 273.96,-499.5 322.743,-499.5 322.743,-481.5 273.96,-481.5"/>
<text text-anchor="middle" x="298.352" y="-487.5" font-family="Helvetica,sans-Serif" font-size="10.00">RPMsg</text>
</a>
</g>
</g>
<!-- Node2 -->
<g id="node6" class="node"><title>Node2</title>
<g id="a_node6"><a xlink:href="group__infra__client.html" target="_top" xlink:title="Client classes. ">
<polygon fill="white" stroke="black" points="277.568,-444.5 277.568,-462.5 319.135,-462.5 319.135,-444.5 277.568,-444.5"/>
<text text-anchor="middle" x="298.352" y="-450.5" font-family="Helvetica,sans-Serif" font-size="10.00">Client</text>
</a>
</g>
</g>
<!-- Node4 -->
<g id="node7" class="node"><title>Node4</title>
<g id="a_node7"><a xlink:href="group__infra__transport.html" target="_top" xlink:title="Superclasses for building transports. ">
<polygon fill="white" stroke="black" points="266.638,-407.5 266.638,-425.5 330.065,-425.5 330.065,-407.5 266.638,-407.5"/>
<text text-anchor="middle" x="298.352" y="-413.5" font-family="Helvetica,sans-Serif" font-size="10.00">Transports</text>
</a>
</g>
</g>
<!-- Node15 -->
<g id="node8" class="node"><title>Node15</title>
<g id="a_node8"><a xlink:href="group__serial__transport.html" target="_top" xlink:title="POSIX and Win32 serial port transport. ">
<polygon fill="white" stroke="black" points="267.563,-370.5 267.563,-388.5 329.14,-388.5 329.14,-370.5 267.563,-370.5"/>
<text text-anchor="middle" x="298.352" y="-376.5" font-family="Helvetica,sans-Serif" font-size="10.00">Serial port</text>
</a>
</g>
</g>
<!-- Node5 -->
<g id="node9" class="node"><title>Node5</title>
<g id="a_node9"><a xlink:href="group__infra__utility.html" target="_top" xlink:title="Utility code used by the infrastructure. ">
<polygon fill="white" stroke="black" points="274.238,-333.5 274.238,-351.5 322.465,-351.5 322.465,-333.5 274.238,-333.5"/>
<text text-anchor="middle" x="298.352" y="-339.5" font-family="Helvetica,sans-Serif" font-size="10.00">Utilities</text>
</a>
</g>
</g>
<!-- Node16 -->
<g id="node10" class="node"><title>Node16</title>
<g id="a_node10"><a xlink:href="group__spi__slave__transport.html" target="_top" xlink:title="Kinetis SDK SPI slave driver transport. ">
<polygon fill="white" stroke="black" points="268.396,-296.5 268.396,-314.5 328.307,-314.5 328.307,-296.5 268.396,-296.5"/>
<text text-anchor="middle" x="298.352" y="-302.5" font-family="Helvetica,sans-Serif" font-size="10.00">SPI Slave</text>
</a>
</g>
</g>
<!-- Node18 -->
<g id="node11" class="node"><title>Node18</title>
<g id="a_node11"><a xlink:href="group__uart__transport.html" target="_top" xlink:title="CMSIS UART driver transport. ">
<polygon fill="white" stroke="black" points="259.604,-259.5 259.604,-277.5 337.099,-277.5 337.099,-259.5 259.604,-259.5"/>
<text text-anchor="middle" x="298.352" y="-265.5" font-family="Helvetica,sans-Serif" font-size="10.00">CMSIS UART</text>
</a>
</g>
</g>
<!-- Node0&#45;&gt;Node9 -->
<g id="edge9" class="edge"><title>Node0&#45;&gt;Node9</title>
<path fill="none" stroke="blueviolet" stroke-dasharray="5,2" d="M161.878,-314.559C161.998,-347.971 165.805,-466.597 211.678,-548.5 222.811,-568.377 229.761,-571.506 249.131,-583.5 254.753,-586.981 261.154,-589.954 267.414,-592.421"/>
<text text-anchor="middle" x="221.404" y="-573.5" font-family="Helvetica,sans-Serif" font-size="10.00">erpc</text>
</g>
<!-- Node0&#45;&gt;Node7 -->
<g id="edge7" class="edge"><title>Node0&#45;&gt;Node7</title>
<path fill="none" stroke="blueviolet" stroke-dasharray="5,2" d="M162.372,-314.756C164.115,-344.951 172.629,-442.549 211.678,-510.5 223.182,-530.519 229.587,-534.207 249.131,-546.5 256.09,-550.877 264.275,-554.433 271.906,-557.192"/>
<text text-anchor="middle" x="221.404" y="-536.5" font-family="Helvetica,sans-Serif" font-size="10.00">erpc</text>
</g>
<!-- Node0&#45;&gt;Node17 -->
<g id="edge17" class="edge"><title>Node0&#45;&gt;Node17</title>
<path fill="none" stroke="blueviolet" stroke-dasharray="5,2" d="M163.072,-314.838C166.588,-341.285 179.147,-418.286 211.678,-472.5 223.717,-492.564 229.41,-496.907 249.131,-509.5 256.662,-514.309 265.668,-518.108 273.846,-520.952"/>
<text text-anchor="middle" x="221.404" y="-498.5" font-family="Helvetica,sans-Serif" font-size="10.00">erpc</text>
</g>
<!-- Node0&#45;&gt;Node14 -->
<g id="edge14" class="edge"><title>Node0&#45;&gt;Node14</title>
<path fill="none" stroke="blueviolet" stroke-dasharray="5,2" d="M164.196,-314.764C169.789,-336.677 185.777,-392.901 211.678,-433.5 224.603,-453.76 229.048,-459.301 249.131,-472.5 256.598,-477.408 265.59,-481.228 273.775,-484.061"/>
<text text-anchor="middle" x="221.404" y="-460.5" font-family="Helvetica,sans-Serif" font-size="10.00">erpc</text>
</g>
<!-- Node0&#45;&gt;Node2 -->
<g id="edge2" class="edge"><title>Node0&#45;&gt;Node2</title>
<path fill="none" stroke="blueviolet" stroke-dasharray="5,2" d="M165.12,-314.603C174.057,-338.793 201.923,-404.91 249.131,-435.5 257.68,-441.04 268.177,-445.215 277.192,-448.143"/>
<text text-anchor="middle" x="221.404" y="-421.5" font-family="Helvetica,sans-Serif" font-size="10.00">erpc</text>
</g>
<!-- Node0&#45;&gt;Node4 -->
<g id="edge4" class="edge"><title>Node0&#45;&gt;Node4</title>
<path fill="none" stroke="blueviolet" stroke-dasharray="5,2" d="M167.966,-314.712C180.662,-333.406 212.088,-375.932 249.131,-398.5 254.854,-401.987 261.363,-404.976 267.705,-407.459"/>
<text text-anchor="middle" x="221.404" y="-385.5" font-family="Helvetica,sans-Serif" font-size="10.00">erpc</text>
</g>
<!-- Node0&#45;&gt;Node15 -->
<g id="edge15" class="edge"><title>Node0&#45;&gt;Node15</title>
<path fill="none" stroke="blueviolet" stroke-dasharray="5,2" d="M174.112,-314.625C190.487,-326.594 220.839,-347.694 249.131,-361.5 255.796,-364.753 263.209,-367.788 270.183,-370.406"/>
<text text-anchor="middle" x="221.404" y="-352.5" font-family="Helvetica,sans-Serif" font-size="10.00">erpc</text>
</g>
<!-- Node0&#45;&gt;Node5 -->
<g id="edge5" class="edge"><title>Node0&#45;&gt;Node5</title>
<path fill="none" stroke="blueviolet" stroke-dasharray="5,2" d="M193.767,-314.52C199.716,-316.188 205.884,-317.907 211.678,-319.5 232.764,-325.298 256.818,-331.741 274.059,-336.329"/>
<text text-anchor="middle" x="221.404" y="-326.5" font-family="Helvetica,sans-Serif" font-size="10.00">erpc</text>
</g>
<!-- Node0&#45;&gt;Node16 -->
<g id="edge16" class="edge"><title>Node0&#45;&gt;Node16</title>
<path fill="none" stroke="blueviolet" stroke-dasharray="5,2" d="M193.695,-305.5C216.206,-305.5 246.19,-305.5 268.117,-305.5"/>
<text text-anchor="middle" x="221.404" y="-307.5" font-family="Helvetica,sans-Serif" font-size="10.00">erpc</text>
</g>
<!-- Node0&#45;&gt;Node18 -->
<g id="edge18" class="edge"><title>Node0&#45;&gt;Node18</title>
<path fill="none" stroke="blueviolet" stroke-dasharray="5,2" d="M193.767,-296.48C199.716,-294.812 205.884,-293.093 211.678,-291.5 228.606,-286.845 247.447,-281.775 263.14,-277.582"/>
<text text-anchor="middle" x="221.404" y="-293.5" font-family="Helvetica,sans-Serif" font-size="10.00">erpc</text>
</g>
<!-- Node6 -->
<g id="node13" class="node"><title>Node6</title>
<g id="a_node13"><a xlink:href="group__infra__server.html" target="_top" xlink:title="Server classes. ">
<polygon fill="white" stroke="black" points="275.625,-222.5 275.625,-240.5 321.078,-240.5 321.078,-222.5 275.625,-222.5"/>
<text text-anchor="middle" x="298.352" y="-228.5" font-family="Helvetica,sans-Serif" font-size="10.00">Server</text>
</a>
</g>
</g>
<!-- Node0&#45;&gt;Node6 -->
<g id="edge6" class="edge"><title>Node0&#45;&gt;Node6</title>
<path fill="none" stroke="blueviolet" stroke-dasharray="5,2" d="M174.112,-296.499C190.487,-284.7 220.838,-263.93 249.131,-250.5 257.585,-246.487 267.128,-242.599 275.481,-239.396"/>
<text text-anchor="middle" x="221.404" y="-272.5" font-family="Helvetica,sans-Serif" font-size="10.00">erpc</text>
</g>
<!-- Node10 -->
<g id="node14" class="node"><title>Node10</title>
<g id="a_node14"><a xlink:href="group__itbp__transport.html" target="_top" xlink:title="Simple inter&#45;thread communications transport. ">
<polygon fill="white" stroke="black" points="264.504,-185.5 264.504,-203.5 332.199,-203.5 332.199,-185.5 264.504,-185.5"/>
<text text-anchor="middle" x="298.352" y="-191.5" font-family="Helvetica,sans-Serif" font-size="10.00">Inter&#45;thread</text>
</a>
</g>
</g>
<!-- Node0&#45;&gt;Node10 -->
<g id="edge10" class="edge"><title>Node0&#45;&gt;Node10</title>
<path fill="none" stroke="blueviolet" stroke-dasharray="5,2" d="M168.007,-296.416C180.778,-277.975 212.335,-235.999 249.131,-213.5 255.426,-209.651 262.635,-206.318 269.528,-203.566"/>
<text text-anchor="middle" x="221.404" y="-242.5" font-family="Helvetica,sans-Serif" font-size="10.00">erpc</text>
</g>
<!-- Node8 -->
<g id="node15" class="node"><title>Node8</title>
<g id="a_node15"><a xlink:href="group__dspi__master__transport.html" target="_top" xlink:title="Kinetis SDK DSPI master driver transport. ">
<polygon fill="white" stroke="black" points="262.012,-148.5 262.012,-166.5 334.691,-166.5 334.691,-148.5 262.012,-148.5"/>
<text text-anchor="middle" x="298.352" y="-154.5" font-family="Helvetica,sans-Serif" font-size="10.00">DSPI Master</text>
</a>
</g>
</g>
<!-- Node0&#45;&gt;Node8 -->
<g id="edge8" class="edge"><title>Node0&#45;&gt;Node8</title>
<path fill="none" stroke="blueviolet" stroke-dasharray="5,2" d="M165.155,-296.487C174.181,-272.534 202.246,-207.039 249.131,-176.5 255.163,-172.571 262.134,-169.242 268.868,-166.522"/>
<text text-anchor="middle" x="221.404" y="-212.5" font-family="Helvetica,sans-Serif" font-size="10.00">erpc</text>
</g>
<!-- Node13 -->
<g id="node16" class="node"><title>Node13</title>
<g id="a_node16"><a xlink:href="group__rpmsg__rtos__transport.html" target="_top" xlink:title="OpenAMP RPMsg RTOS layer transport. ">
<polygon fill="white" stroke="black" points="258.857,-111.5 258.857,-129.5 337.846,-129.5 337.846,-111.5 258.857,-111.5"/>
<text text-anchor="middle" x="298.352" y="-117.5" font-family="Helvetica,sans-Serif" font-size="10.00">RPMsg RTOS</text>
</a>
</g>
</g>
<!-- Node0&#45;&gt;Node13 -->
<g id="edge13" class="edge"><title>Node0&#45;&gt;Node13</title>
<path fill="none" stroke="blueviolet" stroke-dasharray="5,2" d="M164.161,-296.214C169.678,-274.252 185.514,-217.93 211.678,-177.5 224.561,-157.592 229.348,-152.575 249.131,-139.5 255.061,-135.581 261.924,-132.271 268.578,-129.568"/>
<text text-anchor="middle" x="221.404" y="-179.5" font-family="Helvetica,sans-Serif" font-size="10.00">erpc</text>
</g>
<!-- Node3 -->
<g id="node17" class="node"><title>Node3</title>
<g id="a_node17"><a xlink:href="group__infra__codec.html" target="_top" xlink:title="Classes used for message serialization. ">
<polygon fill="white" stroke="black" points="263.115,-74.5 263.115,-92.5 333.588,-92.5 333.588,-74.5 263.115,-74.5"/>
<text text-anchor="middle" x="298.352" y="-80.5" font-family="Helvetica,sans-Serif" font-size="10.00">Serialization</text>
</a>
</g>
</g>
<!-- Node0&#45;&gt;Node3 -->
<g id="edge3" class="edge"><title>Node0&#45;&gt;Node3</title>
<path fill="none" stroke="blueviolet" stroke-dasharray="5,2" d="M163.035,-296.139C166.452,-269.633 178.777,-192.49 211.678,-138.5 223.693,-118.784 229.699,-114.969 249.131,-102.5 255.189,-98.6126 262.17,-95.2993 268.906,-92.581"/>
<text text-anchor="middle" x="221.404" y="-140.5" font-family="Helvetica,sans-Serif" font-size="10.00">erpc</text>
</g>
<!-- Node11 -->
<g id="node18" class="node"><title>Node11</title>
<g id="a_node18"><a xlink:href="group__rpmsg__lite__rtos__transport.html" target="_top" xlink:title="RPMsg&#45;Lite transport using RTOS API. ">
<polygon fill="white" stroke="black" points="249.131,-37.5 249.131,-55.5 347.572,-55.5 347.572,-37.5 249.131,-37.5"/>
<text text-anchor="middle" x="298.352" y="-43.5" font-family="Helvetica,sans-Serif" font-size="10.00">RPMsg&#45;Lite RTOS</text>
</a>
</g>
</g>
<!-- Node0&#45;&gt;Node11 -->
<g id="edge11" class="edge"><title>Node0&#45;&gt;Node11</title>
<path fill="none" stroke="blueviolet" stroke-dasharray="5,2" d="M162.333,-296.222C163.958,-265.958 172.152,-168.175 211.678,-100.5 223.168,-80.8268 229.87,-77.6684 249.131,-65.5 255.293,-61.6072 262.383,-58.2757 269.197,-55.54"/>
<text text-anchor="middle" x="221.404" y="-102.5" font-family="Helvetica,sans-Serif" font-size="10.00">erpc</text>
</g>
<!-- Node12 -->
<g id="node19" class="node"><title>Node12</title>
<g id="a_node19"><a xlink:href="group__rpmsg__lite__transport.html" target="_top" xlink:title="RPMsg&#45;Lite transport. ">
<polygon fill="white" stroke="black" points="264.233,-0.5 264.233,-18.5 332.47,-18.5 332.47,-0.5 264.233,-0.5"/>
<text text-anchor="middle" x="298.352" y="-6.5" font-family="Helvetica,sans-Serif" font-size="10.00">RPMsg&#45;Lite</text>
</a>
</g>
</g>
<!-- Node0&#45;&gt;Node12 -->
<g id="edge12" class="edge"><title>Node0&#45;&gt;Node12</title>
<path fill="none" stroke="blueviolet" stroke-dasharray="5,2" d="M161.839,-296.419C161.823,-262.93 165.215,-144.07 211.678,-62.5 224.057,-40.7676 249.339,-26.777 269.246,-18.6602"/>
<text text-anchor="middle" x="221.404" y="-64.5" font-family="Helvetica,sans-Serif" font-size="10.00">erpc</text>
</g>
</g>
</svg>
