<?xml version="1.0" encoding="UTF-8" standalone="no"?>
<!DOCTYPE svg PUBLIC "-//W3C//DTD SVG 1.1//EN"
 "http://www.w3.org/Graphics/SVG/1.1/DTD/svg11.dtd">
<!-- Generated by graphviz version 2.38.0 (20140413.2041)
 -->
<!-- Title: RPMsg&#45;Lite RTOS Pages: 1 -->
<svg width="477pt" height="652pt"
 viewBox="0.00 0.00 477.30 651.78" xmlns="http://www.w3.org/2000/svg" xmlns:xlink="http://www.w3.org/1999/xlink">
<g id="graph0" class="graph" transform="scale(1 1) rotate(0) translate(4 647.776)">
<title>RPMsg&#45;Lite RTOS</title>
<polygon fill="white" stroke="none" points="-4,4 -4,-647.776 473.296,-647.776 473.296,4 -4,4"/>
<!-- Node1 -->
<g id="node1" class="node"><title>Node1</title>
<g id="a_node1"><a xlink:href="group__transports.html" target="_top" xlink:title="Transport layer classes. ">
<polygon fill="white" stroke="black" points="0,-301.776 0,-319.776 91.2197,-319.776 91.2197,-301.776 0,-301.776"/>
<text text-anchor="middle" x="45.6099" y="-307.776" font-family="Helvetica,sans-Serif" font-size="10.00">Transport Layers</text>
</a>
</g>
</g>
<!-- Node0 -->
<g id="node18" class="node"><title>Node0</title>
<polygon fill="#bfbfbf" stroke="black" points="128.22,-301.776 128.22,-319.776 226.661,-319.776 226.661,-301.776 128.22,-301.776"/>
<text text-anchor="middle" x="177.44" y="-307.776" font-family="Helvetica,sans-Serif" font-size="10.00">RPMsg&#45;Lite RTOS</text>
</g>
<!-- Node1&#45;&gt;Node0 -->
<g id="edge1" class="edge"><title>Node1&#45;&gt;Node0</title>
<path fill="none" stroke="black" d="M101.514,-310.776C110.357,-310.776 119.455,-310.776 128.128,-310.776"/>
<polygon fill="black" stroke="black" points="101.29,-307.276 91.2902,-310.776 101.29,-314.276 101.29,-307.276"/>
</g>
<!-- Node10 -->
<g id="node2" class="node"><title>Node10</title>
<g id="a_node2"><a xlink:href="group__dspi__slave__transport.html" target="_top" xlink:title="Kinetis SDK DSPI slave driver transport. ">
<polygon fill="white" stroke="black" points="396.235,-616.776 396.235,-634.776 463.368,-634.776 463.368,-616.776 396.235,-616.776"/>
<text text-anchor="middle" x="429.802" y="-622.776" font-family="Helvetica,sans-Serif" font-size="10.00">DSPI Slave</text>
</a>
</g>
</g>
<!-- Node8 -->
<g id="node3" class="node"><title>Node8</title>
<g id="a_node3"><a xlink:href="group__port__threads.html" target="_top" xlink:title="Threading model. ">
<polygon fill="white" stroke="black" points="403.459,-579.776 403.459,-597.776 456.144,-597.776 456.144,-579.776 403.459,-579.776"/>
<text text-anchor="middle" x="429.802" y="-585.776" font-family="Helvetica,sans-Serif" font-size="10.00">Threads</text>
</a>
</g>
</g>
<!-- Node17 -->
<g id="node4" class="node"><title>Node17</title>
<g id="a_node4"><a xlink:href="group__tcp__transport.html" target="_top" xlink:title="Simple TCP/IP transport. ">
<polygon fill="white" stroke="black" points="405.688,-542.776 405.688,-560.776 453.915,-560.776 453.915,-542.776 405.688,-542.776"/>
<text text-anchor="middle" x="429.802" y="-548.776" font-family="Helvetica,sans-Serif" font-size="10.00">TCP/IP</text>
</a>
</g>
</g>
<!-- Node13 -->
<g id="node5" class="node"><title>Node13</title>
<g id="a_node5"><a xlink:href="group__rpmsg__transport.html" target="_top" xlink:title="OpenAMP RPMsg transport. ">
<polygon fill="white" stroke="black" points="405.41,-505.776 405.41,-523.776 454.193,-523.776 454.193,-505.776 405.41,-505.776"/>
<text text-anchor="middle" x="429.802" y="-511.776" font-family="Helvetica,sans-Serif" font-size="10.00">RPMsg</text>
</a>
</g>
</g>
<!-- Node3 -->
<g id="node6" class="node"><title>Node3</title>
<g id="a_node6"><a xlink:href="group__infra__client.html" target="_top" xlink:title="Client classes. ">
<polygon fill="white" stroke="black" points="409.019,-468.776 409.019,-486.776 450.585,-486.776 450.585,-468.776 409.019,-468.776"/>
<text text-anchor="middle" x="429.802" y="-474.776" font-family="Helvetica,sans-Serif" font-size="10.00">Client</text>
</a>
</g>
</g>
<!-- Node5 -->
<g id="node7" class="node"><title>Node5</title>
<g id="a_node7"><a xlink:href="group__infra__transport.html" target="_top" xlink:title="Superclasses for building transports. ">
<polygon fill="white" stroke="black" points="398.088,-431.776 398.088,-449.776 461.515,-449.776 461.515,-431.776 398.088,-431.776"/>
<text text-anchor="middle" x="429.802" y="-437.776" font-family="Helvetica,sans-Serif" font-size="10.00">Transports</text>
</a>
</g>
</g>
<!-- Node14 -->
<g id="node8" class="node"><title>Node14</title>
<g id="a_node8"><a xlink:href="group__serial__transport.html" target="_top" xlink:title="POSIX and Win32 serial port transport. ">
<polygon fill="white" stroke="black" points="399.014,-394.776 399.014,-412.776 460.59,-412.776 460.59,-394.776 399.014,-394.776"/>
<text text-anchor="middle" x="429.802" y="-400.776" font-family="Helvetica,sans-Serif" font-size="10.00">Serial port</text>
</a>
</g>
</g>
<!-- Node6 -->
<g id="node9" class="node"><title>Node6</title>
<g id="a_node9"><a xlink:href="group__infra__utility.html" target="_top" xlink:title="Utility code used by the infrastructure. ">
<polygon fill="white" stroke="black" points="405.688,-357.776 405.688,-375.776 453.915,-375.776 453.915,-357.776 405.688,-357.776"/>
<text text-anchor="middle" x="429.802" y="-363.776" font-family="Helvetica,sans-Serif" font-size="10.00">Utilities</text>
</a>
</g>
</g>
<!-- Node16 -->
<g id="node10" class="node"><title>Node16</title>
<g id="a_node10"><a xlink:href="group__spi__slave__transport.html" target="_top" xlink:title="Kinetis SDK SPI slave driver transport. ">
<polygon fill="white" stroke="black" points="399.846,-320.776 399.846,-338.776 459.757,-338.776 459.757,-320.776 399.846,-320.776"/>
<text text-anchor="middle" x="429.802" y="-326.776" font-family="Helvetica,sans-Serif" font-size="10.00">SPI Slave</text>
</a>
</g>
</g>
<!-- Node18 -->
<g id="node11" class="node"><title>Node18</title>
<g id="a_node11"><a xlink:href="group__uart__transport.html" target="_top" xlink:title="CMSIS UART driver transport. ">
<polygon fill="white" stroke="black" points="391.055,-283.776 391.055,-301.776 468.549,-301.776 468.549,-283.776 391.055,-283.776"/>
<text text-anchor="middle" x="429.802" y="-289.776" font-family="Helvetica,sans-Serif" font-size="10.00">CMSIS UART</text>
</a>
</g>
</g>
<!-- Node15 -->
<g id="node12" class="node"><title>Node15</title>
<g id="a_node12"><a xlink:href="group__spi__master__transport.html" target="_top" xlink:title="Kinetis SDK SPI master driver transport. ">
<polygon fill="white" stroke="black" points="397.073,-246.776 397.073,-264.776 462.531,-264.776 462.531,-246.776 397.073,-246.776"/>
<text text-anchor="middle" x="429.802" y="-252.776" font-family="Helvetica,sans-Serif" font-size="10.00">SPI Master</text>
</a>
</g>
</g>
<!-- Node7 -->
<g id="node13" class="node"><title>Node7</title>
<g id="a_node13"><a xlink:href="group__infra__server.html" target="_top" xlink:title="Server classes. ">
<polygon fill="white" stroke="black" points="407.075,-209.776 407.075,-227.776 452.528,-227.776 452.528,-209.776 407.075,-209.776"/>
<text text-anchor="middle" x="429.802" y="-215.776" font-family="Helvetica,sans-Serif" font-size="10.00">Server</text>
</a>
</g>
</g>
<!-- Node11 -->
<g id="node14" class="node"><title>Node11</title>
<g id="a_node14"><a xlink:href="group__itbp__transport.html" target="_top" xlink:title="Simple inter&#45;thread communications transport. ">
<polygon fill="white" stroke="black" points="395.955,-172.776 395.955,-190.776 463.649,-190.776 463.649,-172.776 395.955,-172.776"/>
<text text-anchor="middle" x="429.802" y="-178.776" font-family="Helvetica,sans-Serif" font-size="10.00">Inter&#45;thread</text>
</a>
</g>
</g>
<!-- Node9 -->
<g id="node15" class="node"><title>Node9</title>
<g id="a_node15"><a xlink:href="group__dspi__master__transport.html" target="_top" xlink:title="Kinetis SDK DSPI master driver transport. ">
<polygon fill="white" stroke="black" points="393.462,-135.776 393.462,-153.776 466.142,-153.776 466.142,-135.776 393.462,-135.776"/>
<text text-anchor="middle" x="429.802" y="-141.776" font-family="Helvetica,sans-Serif" font-size="10.00">DSPI Master</text>
</a>
</g>
</g>
<!-- Node2 -->
<g id="node16" class="node"><title>Node2</title>
<g id="a_node16"><a xlink:href="group__rpmsg__rtos__transport.html" target="_top" xlink:title="OpenAMP RPMsg RTOS layer transport. ">
<polygon fill="white" stroke="black" points="390.308,-93.7763 390.308,-111.776 469.296,-111.776 469.296,-93.7763 390.308,-93.7763"/>
<text text-anchor="middle" x="429.802" y="-99.7763" font-family="Helvetica,sans-Serif" font-size="10.00">RPMsg RTOS</text>
</a>
</g>
</g>
<!-- Node4 -->
<g id="node17" class="node"><title>Node4</title>
<g id="a_node17"><a xlink:href="group__infra__codec.html" target="_top" xlink:title="Classes used for message serialization. ">
<polygon fill="white" stroke="black" points="394.565,-50.7763 394.565,-68.7763 465.038,-68.7763 465.038,-50.7763 394.565,-50.7763"/>
<text text-anchor="middle" x="429.802" y="-56.7763" font-family="Helvetica,sans-Serif" font-size="10.00">Serialization</text>
</a>
</g>
</g>
<!-- Node0&#45;&gt;Node10 -->
<g id="edge10" class="edge"><title>Node0&#45;&gt;Node10</title>
<path fill="none" stroke="blueviolet" stroke-dasharray="5,2" d="M179.147,-319.905C182.821,-364.877 201.263,-562.283 244.661,-601.776 285.792,-639.206 355.101,-637.091 395.938,-631.728"/>
<text text-anchor="middle" x="308.484" y="-635.776" font-family="Helvetica,sans-Serif" font-size="10.00">erpc</text>
</g>
<!-- Node0&#45;&gt;Node8 -->
<g id="edge8" class="edge"><title>Node0&#45;&gt;Node8</title>
<path fill="none" stroke="blueviolet" stroke-dasharray="5,2" d="M179.469,-319.79C184.345,-360.891 206.509,-529.984 244.661,-563.776 267.665,-584.151 358.4,-588.046 403.324,-588.705"/>
<text text-anchor="middle" x="308.484" y="-589.776" font-family="Helvetica,sans-Serif" font-size="10.00">erpc</text>
</g>
<!-- Node0&#45;&gt;Node17 -->
<g id="edge18" class="edge"><title>Node0&#45;&gt;Node17</title>
<path fill="none" stroke="blueviolet" stroke-dasharray="5,2" d="M178.077,-319.982C177.293,-353.709 179.491,-471.423 244.661,-526.776 268.451,-546.983 361.481,-550.926 405.488,-551.647"/>
<text text-anchor="middle" x="308.484" y="-551.776" font-family="Helvetica,sans-Serif" font-size="10.00">erpc</text>
</g>
<!-- Node0&#45;&gt;Node13 -->
<g id="edge14" class="edge"><title>Node0&#45;&gt;Node13</title>
<path fill="none" stroke="blueviolet" stroke-dasharray="5,2" d="M178.707,-320.131C180.117,-350.402 188.983,-446.307 244.661,-490.776 268.97,-510.192 361.287,-513.973 405.251,-514.659"/>
<text text-anchor="middle" x="308.484" y="-514.776" font-family="Helvetica,sans-Serif" font-size="10.00">erpc</text>
</g>
<!-- Node0&#45;&gt;Node3 -->
<g id="edge3" class="edge"><title>Node0&#45;&gt;Node3</title>
<path fill="none" stroke="blueviolet" stroke-dasharray="5,2" d="M179.54,-319.819C183.232,-345.888 197.724,-421.507 244.661,-455.776 270.469,-474.619 366.966,-477.468 409.012,-477.797"/>
<text text-anchor="middle" x="308.484" y="-478.776" font-family="Helvetica,sans-Serif" font-size="10.00">erpc</text>
</g>
<!-- Node0&#45;&gt;Node5 -->
<g id="edge5" class="edge"><title>Node0&#45;&gt;Node5</title>
<path fill="none" stroke="blueviolet" stroke-dasharray="5,2" d="M181.216,-320.088C188.07,-341.302 207.966,-393.204 244.661,-416.776 291.587,-446.921 359.183,-447.283 398.082,-444.35"/>
<text text-anchor="middle" x="308.484" y="-446.776" font-family="Helvetica,sans-Serif" font-size="10.00">erpc</text>
</g>
<!-- Node0&#45;&gt;Node14 -->
<g id="edge15" class="edge"><title>Node0&#45;&gt;Node14</title>
<path fill="none" stroke="blueviolet" stroke-dasharray="5,2" d="M184.96,-320.003C195.64,-334.334 218.33,-361.656 244.661,-374.776 294.628,-399.674 360.864,-404.185 398.758,-404.48"/>
<text text-anchor="middle" x="308.484" y="-404.776" font-family="Helvetica,sans-Serif" font-size="10.00">erpc</text>
</g>
<!-- Node0&#45;&gt;Node6 -->
<g id="edge6" class="edge"><title>Node0&#45;&gt;Node6</title>
<path fill="none" stroke="blueviolet" stroke-dasharray="5,2" d="M196.55,-319.886C209.617,-326.095 227.845,-334.023 244.661,-338.776 301.139,-354.74 370.093,-362.142 405.443,-365.098"/>
<text text-anchor="middle" x="308.484" y="-362.776" font-family="Helvetica,sans-Serif" font-size="10.00">erpc</text>
</g>
<!-- Node0&#45;&gt;Node16 -->
<g id="edge17" class="edge"><title>Node0&#45;&gt;Node16</title>
<path fill="none" stroke="blueviolet" stroke-dasharray="5,2" d="M226.713,-314.44C278.009,-318.333 357.435,-324.36 399.822,-327.577"/>
<text text-anchor="middle" x="308.484" y="-326.776" font-family="Helvetica,sans-Serif" font-size="10.00">erpc</text>
</g>
<!-- Node0&#45;&gt;Node18 -->
<g id="edge19" class="edge"><title>Node0&#45;&gt;Node18</title>
<path fill="none" stroke="blueviolet" stroke-dasharray="5,2" d="M218.899,-301.724C227.371,-300.142 236.277,-298.706 244.661,-297.776 295.041,-292.187 353.624,-291.602 390.94,-291.967"/>
<text text-anchor="middle" x="308.484" y="-299.776" font-family="Helvetica,sans-Serif" font-size="10.00">erpc</text>
</g>
<!-- Node0&#45;&gt;Node15 -->
<g id="edge16" class="edge"><title>Node0&#45;&gt;Node15</title>
<path fill="none" stroke="blueviolet" stroke-dasharray="5,2" d="M193.086,-301.632C206.117,-293.956 225.955,-283.371 244.661,-277.776 296.483,-262.277 359.591,-257.646 396.855,-256.294"/>
<text text-anchor="middle" x="308.484" y="-279.776" font-family="Helvetica,sans-Serif" font-size="10.00">erpc</text>
</g>
<!-- Node0&#45;&gt;Node7 -->
<g id="edge7" class="edge"><title>Node0&#45;&gt;Node7</title>
<path fill="none" stroke="blueviolet" stroke-dasharray="5,2" d="M184.439,-301.382C194.715,-286.176 217.253,-256.497 244.661,-242.776 298.283,-215.933 371.192,-215.427 407.055,-217.157"/>
<text text-anchor="middle" x="308.484" y="-244.776" font-family="Helvetica,sans-Serif" font-size="10.00">erpc</text>
</g>
<!-- Node0&#45;&gt;Node11 -->
<g id="edge11" class="edge"><title>Node0&#45;&gt;Node11</title>
<path fill="none" stroke="blueviolet" stroke-dasharray="5,2" d="M180.999,-301.477C187.509,-279.769 206.922,-225.781 244.661,-201.776 290.652,-172.523 356.466,-173.24 395.691,-177.064"/>
<text text-anchor="middle" x="308.484" y="-203.776" font-family="Helvetica,sans-Serif" font-size="10.00">erpc</text>
</g>
<!-- Node0&#45;&gt;Node9 -->
<g id="edge9" class="edge"><title>Node0&#45;&gt;Node9</title>
<path fill="none" stroke="blueviolet" stroke-dasharray="5,2" d="M179.331,-301.74C182.499,-274.961 195.806,-195.718 244.661,-160.776 267.695,-144.302 346.498,-142.939 393.22,-143.681"/>
<text text-anchor="middle" x="308.484" y="-162.776" font-family="Helvetica,sans-Serif" font-size="10.00">erpc</text>
</g>
<!-- Node0&#45;&gt;Node2 -->
<g id="edge2" class="edge"><title>Node0&#45;&gt;Node2</title>
<path fill="none" stroke="orange" stroke-dasharray="5,2" d="M178.67,-301.769C179.963,-271.727 188.497,-174.292 244.661,-128.776 266.358,-111.193 342.824,-105.501 390.126,-103.658"/>
<text text-anchor="middle" x="308.484" y="-130.776" font-family="Helvetica,sans-Serif" font-size="10.00">erpc::RPMsgRTOSTransport</text>
</g>
<!-- Node0&#45;&gt;Node2 -->
<g id="edge13" class="edge"><title>Node0&#45;&gt;Node2</title>
<path fill="none" stroke="blueviolet" stroke-dasharray="5,2" d="M179.768,-301.645C185.493,-263.661 209.391,-118.924 244.661,-92.7763 293.27,-56.7397 370.473,-79.364 407.554,-93.6747"/>
<text text-anchor="middle" x="308.484" y="-94.7763" font-family="Helvetica,sans-Serif" font-size="10.00">erpc</text>
</g>
<!-- Node0&#45;&gt;Node4 -->
<g id="edge4" class="edge"><title>Node0&#45;&gt;Node4</title>
<path fill="none" stroke="blueviolet" stroke-dasharray="5,2" d="M179.381,-301.713C183.872,-260.405 204.586,-90.6496 244.661,-59.7763 290.5,-24.4628 363.57,-39.0848 402.451,-50.6833"/>
<text text-anchor="middle" x="308.484" y="-61.7763" font-family="Helvetica,sans-Serif" font-size="10.00">erpc</text>
</g>
<!-- Node12 -->
<g id="node19" class="node"><title>Node12</title>
<g id="a_node19"><a xlink:href="group__rpmsg__lite__transport.html" target="_top" xlink:title="RPMsg&#45;Lite transport. ">
<polygon fill="white" stroke="black" points="395.684,-13.7763 395.684,-31.7763 463.92,-31.7763 463.92,-13.7763 395.684,-13.7763"/>
<text text-anchor="middle" x="429.802" y="-19.7763" font-family="Helvetica,sans-Serif" font-size="10.00">RPMsg&#45;Lite</text>
</a>
</g>
</g>
<!-- Node0&#45;&gt;Node12 -->
<g id="edge12" class="edge"><title>Node0&#45;&gt;Node12</title>
<path fill="none" stroke="blueviolet" stroke-dasharray="5,2" d="M179.065,-301.626C182.347,-256.566 199.206,-58.9662 244.661,-22.7763 290.18,13.4639 364.047,-1.82491 402.948,-13.6919"/>
<text text-anchor="middle" x="308.484" y="-24.7763" font-family="Helvetica,sans-Serif" font-size="10.00">erpc</text>
</g>
</g>
</svg>
