<?xml version="1.0" encoding="UTF-8" standalone="no"?>
<!DOCTYPE svg PUBLIC "-//W3C//DTD SVG 1.1//EN"
 "http://www.w3.org/Graphics/SVG/1.1/DTD/svg11.dtd">
<!-- Generated by graphviz version 2.38.0 (20140413.2041)
 -->
<!-- Title: Client Pages: 1 -->
<svg width="315pt" height="619pt"
 viewBox="0.00 0.00 315.37 619.00" xmlns="http://www.w3.org/2000/svg" xmlns:xlink="http://www.w3.org/1999/xlink">
<g id="graph0" class="graph" transform="scale(1 1) rotate(0) translate(4 615)">
<title>Client</title>
<polygon fill="white" stroke="none" points="-4,4 -4,-615 311.372,-615 311.372,4 -4,4"/>
<!-- Node8 -->
<g id="node1" class="node"><title>Node8</title>
<g id="a_node1"><a xlink:href="group__dspi__slave__transport.html" target="_top" xlink:title="Kinetis SDK DSPI slave driver transport. ">
<polygon fill="white" stroke="black" points="224.585,-592.5 224.585,-610.5 291.718,-610.5 291.718,-592.5 224.585,-592.5"/>
<text text-anchor="middle" x="258.151" y="-598.5" font-family="Helvetica,sans-Serif" font-size="10.00">DSPI Slave</text>
</a>
</g>
</g>
<!-- Node6 -->
<g id="node2" class="node"><title>Node6</title>
<g id="a_node2"><a xlink:href="group__port__threads.html" target="_top" xlink:title="Threading model. ">
<polygon fill="white" stroke="black" points="231.809,-555.5 231.809,-573.5 284.494,-573.5 284.494,-555.5 231.809,-555.5"/>
<text text-anchor="middle" x="258.151" y="-561.5" font-family="Helvetica,sans-Serif" font-size="10.00">Threads</text>
</a>
</g>
</g>
<!-- Node17 -->
<g id="node3" class="node"><title>Node17</title>
<g id="a_node3"><a xlink:href="group__tcp__transport.html" target="_top" xlink:title="Simple TCP/IP transport. ">
<polygon fill="white" stroke="black" points="234.038,-518.5 234.038,-536.5 282.265,-536.5 282.265,-518.5 234.038,-518.5"/>
<text text-anchor="middle" x="258.151" y="-524.5" font-family="Helvetica,sans-Serif" font-size="10.00">TCP/IP</text>
</a>
</g>
</g>
<!-- Node13 -->
<g id="node4" class="node"><title>Node13</title>
<g id="a_node4"><a xlink:href="group__rpmsg__transport.html" target="_top" xlink:title="OpenAMP RPMsg transport. ">
<polygon fill="white" stroke="black" points="233.76,-481.5 233.76,-499.5 282.543,-499.5 282.543,-481.5 233.76,-481.5"/>
<text text-anchor="middle" x="258.151" y="-487.5" font-family="Helvetica,sans-Serif" font-size="10.00">RPMsg</text>
</a>
</g>
</g>
<!-- Node1 -->
<g id="node5" class="node"><title>Node1</title>
<g id="a_node5"><a xlink:href="group__infra.html" target="_top" xlink:title="C++ core. ">
<polygon fill="white" stroke="black" points="0,-296.5 0,-314.5 74.9111,-314.5 74.9111,-296.5 0,-296.5"/>
<text text-anchor="middle" x="37.4556" y="-302.5" font-family="Helvetica,sans-Serif" font-size="10.00">Infrastructure</text>
</a>
</g>
</g>
<!-- Node0 -->
<g id="node6" class="node"><title>Node0</title>
<polygon fill="#bfbfbf" stroke="black" points="111.911,-296.5 111.911,-314.5 153.478,-314.5 153.478,-296.5 111.911,-296.5"/>
<text text-anchor="middle" x="132.694" y="-302.5" font-family="Helvetica,sans-Serif" font-size="10.00">Client</text>
</g>
<!-- Node1&#45;&gt;Node0 -->
<g id="edge1" class="edge"><title>Node1&#45;&gt;Node0</title>
<path fill="none" stroke="black" d="M85.1826,-305.5C94.596,-305.5 104.004,-305.5 111.87,-305.5"/>
<polygon fill="black" stroke="black" points="85.0384,-302 75.0384,-305.5 85.0384,-309 85.0384,-302"/>
</g>
<!-- Node0&#45;&gt;Node8 -->
<g id="edge8" class="edge"><title>Node0&#45;&gt;Node8</title>
<path fill="none" stroke="blueviolet" stroke-dasharray="5,2" d="M134.325,-314.738C137.121,-353.949 149.26,-506.519 171.478,-548.5 182.134,-568.637 189.56,-571.506 208.931,-583.5 214.553,-586.981 220.954,-589.954 227.214,-592.421"/>
<text text-anchor="middle" x="181.204" y="-573.5" font-family="Helvetica,sans-Serif" font-size="10.00">erpc</text>
</g>
<!-- Node0&#45;&gt;Node6 -->
<g id="edge6" class="edge"><title>Node0&#45;&gt;Node6</title>
<path fill="none" stroke="blueviolet" stroke-dasharray="5,2" d="M133.398,-314.802C132.827,-345.147 134.151,-443.226 171.478,-511.5 182.407,-531.49 189.56,-534.506 208.931,-546.5 215.92,-550.828 224.114,-554.37 231.743,-557.132"/>
<text text-anchor="middle" x="181.204" y="-536.5" font-family="Helvetica,sans-Serif" font-size="10.00">erpc</text>
</g>
<!-- Node0&#45;&gt;Node17 -->
<g id="edge17" class="edge"><title>Node0&#45;&gt;Node17</title>
<path fill="none" stroke="blueviolet" stroke-dasharray="5,2" d="M133.93,-314.526C134.976,-340.796 140.655,-418.808 171.478,-473.5 182.813,-493.614 189.386,-497.207 208.931,-509.5 216.495,-514.258 225.507,-518.045 233.683,-520.894"/>
<text text-anchor="middle" x="181.204" y="-499.5" font-family="Helvetica,sans-Serif" font-size="10.00">erpc</text>
</g>
<!-- Node0&#45;&gt;Node13 -->
<g id="edge13" class="edge"><title>Node0&#45;&gt;Node13</title>
<path fill="none" stroke="blueviolet" stroke-dasharray="5,2" d="M134.69,-314.73C137.439,-337.093 146.65,-395.361 171.478,-436.5 183.407,-456.268 189.386,-460.207 208.931,-472.5 216.495,-477.258 225.507,-481.045 233.683,-483.894"/>
<text text-anchor="middle" x="181.204" y="-461.5" font-family="Helvetica,sans-Serif" font-size="10.00">erpc</text>
</g>
<!-- Node3 -->
<g id="node7" class="node"><title>Node3</title>
<g id="a_node7"><a xlink:href="group__infra__transport.html" target="_top" xlink:title="Superclasses for building transports. ">
<polygon fill="white" stroke="black" points="226.438,-444.5 226.438,-462.5 289.865,-462.5 289.865,-444.5 226.438,-444.5"/>
<text text-anchor="middle" x="258.151" y="-450.5" font-family="Helvetica,sans-Serif" font-size="10.00">Transports</text>
</a>
</g>
</g>
<!-- Node0&#45;&gt;Node3 -->
<g id="edge3" class="edge"><title>Node0&#45;&gt;Node3</title>
<path fill="none" stroke="blueviolet" stroke-dasharray="5,2" d="M135.983,-314.664C140.656,-332.224 152.488,-371.363 171.478,-399.5 184.394,-418.638 189.386,-423.207 208.931,-435.5 214.528,-439.021 220.919,-442.01 227.176,-444.481"/>
<text text-anchor="middle" x="181.204" y="-424.5" font-family="Helvetica,sans-Serif" font-size="10.00">erpc</text>
</g>
<!-- Node14 -->
<g id="node8" class="node"><title>Node14</title>
<g id="a_node8"><a xlink:href="group__serial__transport.html" target="_top" xlink:title="POSIX and Win32 serial port transport. ">
<polygon fill="white" stroke="black" points="227.363,-407.5 227.363,-425.5 288.939,-425.5 288.939,-407.5 227.363,-407.5"/>
<text text-anchor="middle" x="258.151" y="-413.5" font-family="Helvetica,sans-Serif" font-size="10.00">Serial port</text>
</a>
</g>
</g>
<!-- Node0&#45;&gt;Node14 -->
<g id="edge14" class="edge"><title>Node0&#45;&gt;Node14</title>
<path fill="none" stroke="blueviolet" stroke-dasharray="5,2" d="M138.343,-314.583C144.841,-326.83 157.433,-349.003 171.478,-365.5 185.859,-382.393 189.899,-387.098 208.931,-398.5 214.756,-401.99 221.373,-404.995 227.798,-407.494"/>
<text text-anchor="middle" x="181.204" y="-387.5" font-family="Helvetica,sans-Serif" font-size="10.00">erpc</text>
</g>
<!-- Node4 -->
<g id="node9" class="node"><title>Node4</title>
<g id="a_node9"><a xlink:href="group__infra__utility.html" target="_top" xlink:title="Utility code used by the infrastructure. ">
<polygon fill="white" stroke="black" points="234.038,-370.5 234.038,-388.5 282.265,-388.5 282.265,-370.5 234.038,-370.5"/>
<text text-anchor="middle" x="258.151" y="-376.5" font-family="Helvetica,sans-Serif" font-size="10.00">Utilities</text>
</a>
</g>
</g>
<!-- Node0&#45;&gt;Node4 -->
<g id="edge4" class="edge"><title>Node0&#45;&gt;Node4</title>
<path fill="none" stroke="blueviolet" stroke-dasharray="5,2" d="M143.262,-314.655C150.684,-321.555 161.376,-331.068 171.478,-338.5 187.212,-350.077 191.375,-352.933 208.931,-361.5 216.801,-365.341 225.712,-368.878 233.714,-371.783"/>
<text text-anchor="middle" x="181.204" y="-353.5" font-family="Helvetica,sans-Serif" font-size="10.00">erpc</text>
</g>
<!-- Node16 -->
<g id="node10" class="node"><title>Node16</title>
<g id="a_node10"><a xlink:href="group__spi__slave__transport.html" target="_top" xlink:title="Kinetis SDK SPI slave driver transport. ">
<polygon fill="white" stroke="black" points="228.196,-333.5 228.196,-351.5 288.107,-351.5 288.107,-333.5 228.196,-333.5"/>
<text text-anchor="middle" x="258.151" y="-339.5" font-family="Helvetica,sans-Serif" font-size="10.00">SPI Slave</text>
</a>
</g>
</g>
<!-- Node0&#45;&gt;Node16 -->
<g id="edge16" class="edge"><title>Node0&#45;&gt;Node16</title>
<path fill="none" stroke="blueviolet" stroke-dasharray="5,2" d="M153.575,-313.259C159.315,-315.392 165.612,-317.63 171.478,-319.5 190.113,-325.44 211.343,-331.147 228.008,-335.39"/>
<text text-anchor="middle" x="181.204" y="-326.5" font-family="Helvetica,sans-Serif" font-size="10.00">erpc</text>
</g>
<!-- Node18 -->
<g id="node11" class="node"><title>Node18</title>
<g id="a_node11"><a xlink:href="group__uart__transport.html" target="_top" xlink:title="CMSIS UART driver transport. ">
<polygon fill="white" stroke="black" points="219.404,-296.5 219.404,-314.5 296.898,-314.5 296.898,-296.5 219.404,-296.5"/>
<text text-anchor="middle" x="258.151" y="-302.5" font-family="Helvetica,sans-Serif" font-size="10.00">CMSIS UART</text>
</a>
</g>
</g>
<!-- Node0&#45;&gt;Node18 -->
<g id="edge18" class="edge"><title>Node0&#45;&gt;Node18</title>
<path fill="none" stroke="blueviolet" stroke-dasharray="5,2" d="M153.53,-305.5C171.184,-305.5 197.493,-305.5 219.183,-305.5"/>
<text text-anchor="middle" x="181.204" y="-307.5" font-family="Helvetica,sans-Serif" font-size="10.00">erpc</text>
</g>
<!-- Node15 -->
<g id="node12" class="node"><title>Node15</title>
<g id="a_node12"><a xlink:href="group__spi__master__transport.html" target="_top" xlink:title="Kinetis SDK SPI master driver transport. ">
<polygon fill="white" stroke="black" points="225.422,-259.5 225.422,-277.5 290.88,-277.5 290.88,-259.5 225.422,-259.5"/>
<text text-anchor="middle" x="258.151" y="-265.5" font-family="Helvetica,sans-Serif" font-size="10.00">SPI Master</text>
</a>
</g>
</g>
<!-- Node0&#45;&gt;Node15 -->
<g id="edge15" class="edge"><title>Node0&#45;&gt;Node15</title>
<path fill="none" stroke="blueviolet" stroke-dasharray="5,2" d="M153.575,-297.741C159.315,-295.608 165.612,-293.37 171.478,-291.5 189.085,-285.888 209.011,-280.483 225.212,-276.325"/>
<text text-anchor="middle" x="181.204" y="-293.5" font-family="Helvetica,sans-Serif" font-size="10.00">erpc</text>
</g>
<!-- Node5 -->
<g id="node13" class="node"><title>Node5</title>
<g id="a_node13"><a xlink:href="group__infra__server.html" target="_top" xlink:title="Server classes. ">
<polygon fill="white" stroke="black" points="235.425,-222.5 235.425,-240.5 280.878,-240.5 280.878,-222.5 235.425,-222.5"/>
<text text-anchor="middle" x="258.151" y="-228.5" font-family="Helvetica,sans-Serif" font-size="10.00">Server</text>
</a>
</g>
</g>
<!-- Node0&#45;&gt;Node5 -->
<g id="edge5" class="edge"><title>Node0&#45;&gt;Node5</title>
<path fill="none" stroke="blueviolet" stroke-dasharray="5,2" d="M143.262,-296.345C150.684,-289.445 161.376,-279.932 171.478,-272.5 187.212,-260.923 191.375,-258.067 208.931,-249.5 217.283,-245.424 226.807,-241.689 235.173,-238.691"/>
<text text-anchor="middle" x="181.204" y="-274.5" font-family="Helvetica,sans-Serif" font-size="10.00">erpc</text>
</g>
<!-- Node9 -->
<g id="node14" class="node"><title>Node9</title>
<g id="a_node14"><a xlink:href="group__itbp__transport.html" target="_top" xlink:title="Simple inter&#45;thread communications transport. ">
<polygon fill="white" stroke="black" points="224.304,-185.5 224.304,-203.5 291.999,-203.5 291.999,-185.5 224.304,-185.5"/>
<text text-anchor="middle" x="258.151" y="-191.5" font-family="Helvetica,sans-Serif" font-size="10.00">Inter&#45;thread</text>
</a>
</g>
</g>
<!-- Node0&#45;&gt;Node9 -->
<g id="edge9" class="edge"><title>Node0&#45;&gt;Node9</title>
<path fill="none" stroke="blueviolet" stroke-dasharray="5,2" d="M138.343,-296.417C144.841,-284.17 157.433,-261.997 171.478,-245.5 185.859,-228.607 189.899,-223.902 208.931,-212.5 214.756,-209.01 221.373,-206.005 227.798,-203.506"/>
<text text-anchor="middle" x="181.204" y="-247.5" font-family="Helvetica,sans-Serif" font-size="10.00">erpc</text>
</g>
<!-- Node7 -->
<g id="node15" class="node"><title>Node7</title>
<g id="a_node15"><a xlink:href="group__dspi__master__transport.html" target="_top" xlink:title="Kinetis SDK DSPI master driver transport. ">
<polygon fill="white" stroke="black" points="221.812,-148.5 221.812,-166.5 294.491,-166.5 294.491,-148.5 221.812,-148.5"/>
<text text-anchor="middle" x="258.151" y="-154.5" font-family="Helvetica,sans-Serif" font-size="10.00">DSPI Master</text>
</a>
</g>
</g>
<!-- Node0&#45;&gt;Node7 -->
<g id="edge7" class="edge"><title>Node0&#45;&gt;Node7</title>
<path fill="none" stroke="blueviolet" stroke-dasharray="5,2" d="M135.983,-296.336C140.656,-278.776 152.488,-239.637 171.478,-211.5 184.394,-192.362 189.386,-187.793 208.931,-175.5 214.528,-171.979 220.919,-168.99 227.176,-166.519"/>
<text text-anchor="middle" x="181.204" y="-213.5" font-family="Helvetica,sans-Serif" font-size="10.00">erpc</text>
</g>
<!-- Node12 -->
<g id="node16" class="node"><title>Node12</title>
<g id="a_node16"><a xlink:href="group__rpmsg__rtos__transport.html" target="_top" xlink:title="OpenAMP RPMsg RTOS layer transport. ">
<polygon fill="white" stroke="black" points="218.657,-111.5 218.657,-129.5 297.646,-129.5 297.646,-111.5 218.657,-111.5"/>
<text text-anchor="middle" x="258.151" y="-117.5" font-family="Helvetica,sans-Serif" font-size="10.00">RPMsg RTOS</text>
</a>
</g>
</g>
<!-- Node0&#45;&gt;Node12 -->
<g id="edge12" class="edge"><title>Node0&#45;&gt;Node12</title>
<path fill="none" stroke="blueviolet" stroke-dasharray="5,2" d="M134.69,-296.27C137.439,-273.907 146.65,-215.639 171.478,-174.5 183.407,-154.732 189.386,-150.793 208.931,-138.5 214.528,-134.979 220.919,-131.99 227.176,-129.519"/>
<text text-anchor="middle" x="181.204" y="-176.5" font-family="Helvetica,sans-Serif" font-size="10.00">erpc</text>
</g>
<!-- Node2 -->
<g id="node17" class="node"><title>Node2</title>
<g id="a_node17"><a xlink:href="group__infra__codec.html" target="_top" xlink:title="Classes used for message serialization. ">
<polygon fill="white" stroke="black" points="222.915,-74.5 222.915,-92.5 293.388,-92.5 293.388,-74.5 222.915,-74.5"/>
<text text-anchor="middle" x="258.151" y="-80.5" font-family="Helvetica,sans-Serif" font-size="10.00">Serialization</text>
</a>
</g>
</g>
<!-- Node0&#45;&gt;Node2 -->
<g id="edge2" class="edge"><title>Node0&#45;&gt;Node2</title>
<path fill="none" stroke="blueviolet" stroke-dasharray="5,2" d="M133.93,-296.474C134.976,-270.204 140.655,-192.192 171.478,-137.5 182.813,-117.386 189.386,-113.793 208.931,-101.5 214.528,-97.9794 220.919,-94.9902 227.176,-92.5192"/>
<text text-anchor="middle" x="181.204" y="-139.5" font-family="Helvetica,sans-Serif" font-size="10.00">erpc</text>
</g>
<!-- Node10 -->
<g id="node18" class="node"><title>Node10</title>
<g id="a_node18"><a xlink:href="group__rpmsg__lite__rtos__transport.html" target="_top" xlink:title="RPMsg&#45;Lite transport using RTOS API. ">
<polygon fill="white" stroke="black" points="208.931,-37.5 208.931,-55.5 307.372,-55.5 307.372,-37.5 208.931,-37.5"/>
<text text-anchor="middle" x="258.151" y="-43.5" font-family="Helvetica,sans-Serif" font-size="10.00">RPMsg&#45;Lite RTOS</text>
</a>
</g>
</g>
<!-- Node0&#45;&gt;Node10 -->
<g id="edge10" class="edge"><title>Node0&#45;&gt;Node10</title>
<path fill="none" stroke="blueviolet" stroke-dasharray="5,2" d="M133.398,-296.198C132.827,-265.853 134.151,-167.774 171.478,-99.5 182.407,-79.5097 189.56,-76.4938 208.931,-64.5 214.553,-61.0189 220.954,-58.0463 227.214,-55.579"/>
<text text-anchor="middle" x="181.204" y="-101.5" font-family="Helvetica,sans-Serif" font-size="10.00">erpc</text>
</g>
<!-- Node11 -->
<g id="node19" class="node"><title>Node11</title>
<g id="a_node19"><a xlink:href="group__rpmsg__lite__transport.html" target="_top" xlink:title="RPMsg&#45;Lite transport. ">
<polygon fill="white" stroke="black" points="224.033,-0.5 224.033,-18.5 292.27,-18.5 292.27,-0.5 224.033,-0.5"/>
<text text-anchor="middle" x="258.151" y="-6.5" font-family="Helvetica,sans-Serif" font-size="10.00">RPMsg&#45;Lite</text>
</a>
</g>
</g>
<!-- Node0&#45;&gt;Node11 -->
<g id="edge11" class="edge"><title>Node0&#45;&gt;Node11</title>
<path fill="none" stroke="blueviolet" stroke-dasharray="5,2" d="M134.325,-296.262C137.121,-257.051 149.26,-104.481 171.478,-62.5 182.134,-42.3632 189.56,-39.4938 208.931,-27.5 214.553,-24.0189 220.954,-21.0463 227.214,-18.579"/>
<text text-anchor="middle" x="181.204" y="-64.5" font-family="Helvetica,sans-Serif" font-size="10.00">erpc</text>
</g>
</g>
</svg>
