<?xml version="1.0" encoding="UTF-8" standalone="no"?>
<!DOCTYPE svg PUBLIC "-//W3C//DTD SVG 1.1//EN"
 "http://www.w3.org/Graphics/SVG/1.1/DTD/svg11.dtd">
<!-- Generated by graphviz version 2.38.0 (20140413.2041)
 -->
<!-- Title: Serial port Pages: 1 -->
<svg width="352pt" height="619pt"
 viewBox="0.00 0.00 351.69 619.00" xmlns="http://www.w3.org/2000/svg" xmlns:xlink="http://www.w3.org/1999/xlink">
<g id="graph0" class="graph" transform="scale(1 1) rotate(0) translate(4 615)">
<title>Serial port</title>
<polygon fill="white" stroke="none" points="-4,4 -4,-615 347.69,-615 347.69,4 -4,4"/>
<!-- Node1 -->
<g id="node1" class="node"><title>Node1</title>
<g id="a_node1"><a xlink:href="group__transports.html" target="_top" xlink:title="Transport layer classes. ">
<polygon fill="white" stroke="black" points="0,-296.5 0,-314.5 91.2197,-314.5 91.2197,-296.5 0,-296.5"/>
<text text-anchor="middle" x="45.6099" y="-302.5" font-family="Helvetica,sans-Serif" font-size="10.00">Transport Layers</text>
</a>
</g>
</g>
<!-- Node0 -->
<g id="node8" class="node"><title>Node0</title>
<polygon fill="#bfbfbf" stroke="black" points="128.22,-296.5 128.22,-314.5 189.796,-314.5 189.796,-296.5 128.22,-296.5"/>
<text text-anchor="middle" x="159.008" y="-302.5" font-family="Helvetica,sans-Serif" font-size="10.00">Serial port</text>
</g>
<!-- Node1&#45;&gt;Node0 -->
<g id="edge1" class="edge"><title>Node1&#45;&gt;Node0</title>
<path fill="none" stroke="black" d="M101.524,-305.5C110.656,-305.5 119.816,-305.5 128.022,-305.5"/>
<polygon fill="black" stroke="black" points="101.278,-302 91.2778,-305.5 101.278,-309 101.278,-302"/>
</g>
<!-- Node9 -->
<g id="node2" class="node"><title>Node9</title>
<g id="a_node2"><a xlink:href="group__dspi__slave__transport.html" target="_top" xlink:title="Kinetis SDK DSPI slave driver transport. ">
<polygon fill="white" stroke="black" points="260.903,-592.5 260.903,-610.5 328.036,-610.5 328.036,-592.5 260.903,-592.5"/>
<text text-anchor="middle" x="294.47" y="-598.5" font-family="Helvetica,sans-Serif" font-size="10.00">DSPI Slave</text>
</a>
</g>
</g>
<!-- Node7 -->
<g id="node3" class="node"><title>Node7</title>
<g id="a_node3"><a xlink:href="group__port__threads.html" target="_top" xlink:title="Threading model. ">
<polygon fill="white" stroke="black" points="268.127,-555.5 268.127,-573.5 320.812,-573.5 320.812,-555.5 268.127,-555.5"/>
<text text-anchor="middle" x="294.47" y="-561.5" font-family="Helvetica,sans-Serif" font-size="10.00">Threads</text>
</a>
</g>
</g>
<!-- Node17 -->
<g id="node4" class="node"><title>Node17</title>
<g id="a_node4"><a xlink:href="group__tcp__transport.html" target="_top" xlink:title="Simple TCP/IP transport. ">
<polygon fill="white" stroke="black" points="270.356,-518.5 270.356,-536.5 318.583,-536.5 318.583,-518.5 270.356,-518.5"/>
<text text-anchor="middle" x="294.47" y="-524.5" font-family="Helvetica,sans-Serif" font-size="10.00">TCP/IP</text>
</a>
</g>
</g>
<!-- Node14 -->
<g id="node5" class="node"><title>Node14</title>
<g id="a_node5"><a xlink:href="group__rpmsg__transport.html" target="_top" xlink:title="OpenAMP RPMsg transport. ">
<polygon fill="white" stroke="black" points="270.078,-481.5 270.078,-499.5 318.861,-499.5 318.861,-481.5 270.078,-481.5"/>
<text text-anchor="middle" x="294.47" y="-487.5" font-family="Helvetica,sans-Serif" font-size="10.00">RPMsg</text>
</a>
</g>
</g>
<!-- Node2 -->
<g id="node6" class="node"><title>Node2</title>
<g id="a_node6"><a xlink:href="group__infra__client.html" target="_top" xlink:title="Client classes. ">
<polygon fill="white" stroke="black" points="273.687,-444.5 273.687,-462.5 315.253,-462.5 315.253,-444.5 273.687,-444.5"/>
<text text-anchor="middle" x="294.47" y="-450.5" font-family="Helvetica,sans-Serif" font-size="10.00">Client</text>
</a>
</g>
</g>
<!-- Node4 -->
<g id="node7" class="node"><title>Node4</title>
<g id="a_node7"><a xlink:href="group__infra__transport.html" target="_top" xlink:title="Superclasses for building transports. ">
<polygon fill="white" stroke="black" points="262.756,-407.5 262.756,-425.5 326.183,-425.5 326.183,-407.5 262.756,-407.5"/>
<text text-anchor="middle" x="294.47" y="-413.5" font-family="Helvetica,sans-Serif" font-size="10.00">Transports</text>
</a>
</g>
</g>
<!-- Node0&#45;&gt;Node9 -->
<g id="edge9" class="edge"><title>Node0&#45;&gt;Node9</title>
<path fill="none" stroke="blueviolet" stroke-dasharray="5,2" d="M159.847,-314.556C159.638,-347.957 162.308,-466.547 207.796,-548.5 218.853,-568.42 225.879,-571.506 245.249,-583.5 250.871,-586.981 257.272,-589.954 263.532,-592.421"/>
<text text-anchor="middle" x="217.522" y="-573.5" font-family="Helvetica,sans-Serif" font-size="10.00">erpc</text>
</g>
<!-- Node0&#45;&gt;Node7 -->
<g id="edge7" class="edge"><title>Node0&#45;&gt;Node7</title>
<path fill="none" stroke="blueviolet" stroke-dasharray="5,2" d="M160.323,-314.754C161.716,-344.942 169.134,-442.52 207.796,-510.5 219.21,-530.57 225.705,-534.207 245.249,-546.5 252.208,-550.877 260.393,-554.433 268.024,-557.192"/>
<text text-anchor="middle" x="217.522" y="-536.5" font-family="Helvetica,sans-Serif" font-size="10.00">erpc</text>
</g>
<!-- Node0&#45;&gt;Node17 -->
<g id="edge17" class="edge"><title>Node0&#45;&gt;Node17</title>
<path fill="none" stroke="blueviolet" stroke-dasharray="5,2" d="M160.999,-314.838C164.143,-341.283 175.657,-418.282 207.796,-472.5 219.727,-492.628 225.528,-496.907 245.249,-509.5 252.78,-514.309 261.786,-518.108 269.964,-520.952"/>
<text text-anchor="middle" x="217.522" y="-498.5" font-family="Helvetica,sans-Serif" font-size="10.00">erpc</text>
</g>
<!-- Node0&#45;&gt;Node14 -->
<g id="edge14" class="edge"><title>Node0&#45;&gt;Node14</title>
<path fill="none" stroke="blueviolet" stroke-dasharray="5,2" d="M162.086,-314.768C167.283,-336.691 182.293,-392.935 207.796,-433.5 220.587,-453.845 225.166,-459.301 245.249,-472.5 252.716,-477.408 261.708,-481.228 269.893,-484.061"/>
<text text-anchor="middle" x="217.522" y="-460.5" font-family="Helvetica,sans-Serif" font-size="10.00">erpc</text>
</g>
<!-- Node0&#45;&gt;Node2 -->
<g id="edge2" class="edge"><title>Node0&#45;&gt;Node2</title>
<path fill="none" stroke="blueviolet" stroke-dasharray="5,2" d="M163.028,-314.626C171.568,-338.873 198.365,-405.12 245.249,-435.5 253.798,-441.04 264.295,-445.215 273.311,-448.143"/>
<text text-anchor="middle" x="217.522" y="-421.5" font-family="Helvetica,sans-Serif" font-size="10.00">erpc</text>
</g>
<!-- Node0&#45;&gt;Node4 -->
<g id="edge4" class="edge"><title>Node0&#45;&gt;Node4</title>
<path fill="none" stroke="blueviolet" stroke-dasharray="5,2" d="M165.819,-314.751C178.098,-333.516 208.589,-376.165 245.249,-398.5 250.972,-401.987 257.481,-404.976 263.824,-407.459"/>
<text text-anchor="middle" x="217.522" y="-385.5" font-family="Helvetica,sans-Serif" font-size="10.00">erpc</text>
</g>
<!-- Node5 -->
<g id="node9" class="node"><title>Node5</title>
<g id="a_node9"><a xlink:href="group__infra__utility.html" target="_top" xlink:title="Utility code used by the infrastructure. ">
<polygon fill="white" stroke="black" points="270.356,-370.5 270.356,-388.5 318.583,-388.5 318.583,-370.5 270.356,-370.5"/>
<text text-anchor="middle" x="294.47" y="-376.5" font-family="Helvetica,sans-Serif" font-size="10.00">Utilities</text>
</a>
</g>
</g>
<!-- Node0&#45;&gt;Node5 -->
<g id="edge5" class="edge"><title>Node0&#45;&gt;Node5</title>
<path fill="none" stroke="blueviolet" stroke-dasharray="5,2" d="M171.845,-314.69C187.793,-326.732 217.401,-347.911 245.249,-361.5 253.119,-365.341 262.03,-368.878 270.032,-371.783"/>
<text text-anchor="middle" x="217.522" y="-352.5" font-family="Helvetica,sans-Serif" font-size="10.00">erpc</text>
</g>
<!-- Node16 -->
<g id="node10" class="node"><title>Node16</title>
<g id="a_node10"><a xlink:href="group__spi__slave__transport.html" target="_top" xlink:title="Kinetis SDK SPI slave driver transport. ">
<polygon fill="white" stroke="black" points="264.514,-333.5 264.514,-351.5 324.425,-351.5 324.425,-333.5 264.514,-333.5"/>
<text text-anchor="middle" x="294.47" y="-339.5" font-family="Helvetica,sans-Serif" font-size="10.00">SPI Slave</text>
</a>
</g>
</g>
<!-- Node0&#45;&gt;Node16 -->
<g id="edge16" class="edge"><title>Node0&#45;&gt;Node16</title>
<path fill="none" stroke="blueviolet" stroke-dasharray="5,2" d="M189.803,-314.342C195.756,-316.077 201.969,-317.865 207.796,-319.5 226.627,-324.785 247.859,-330.487 264.476,-334.891"/>
<text text-anchor="middle" x="217.522" y="-326.5" font-family="Helvetica,sans-Serif" font-size="10.00">erpc</text>
</g>
<!-- Node18 -->
<g id="node11" class="node"><title>Node18</title>
<g id="a_node11"><a xlink:href="group__uart__transport.html" target="_top" xlink:title="CMSIS UART driver transport. ">
<polygon fill="white" stroke="black" points="255.723,-296.5 255.723,-314.5 333.217,-314.5 333.217,-296.5 255.723,-296.5"/>
<text text-anchor="middle" x="294.47" y="-302.5" font-family="Helvetica,sans-Serif" font-size="10.00">CMSIS UART</text>
</a>
</g>
</g>
<!-- Node0&#45;&gt;Node18 -->
<g id="edge18" class="edge"><title>Node0&#45;&gt;Node18</title>
<path fill="none" stroke="blueviolet" stroke-dasharray="5,2" d="M189.959,-305.5C209.326,-305.5 234.704,-305.5 255.484,-305.5"/>
<text text-anchor="middle" x="217.522" y="-307.5" font-family="Helvetica,sans-Serif" font-size="10.00">erpc</text>
</g>
<!-- Node15 -->
<g id="node12" class="node"><title>Node15</title>
<g id="a_node12"><a xlink:href="group__spi__master__transport.html" target="_top" xlink:title="Kinetis SDK SPI master driver transport. ">
<polygon fill="white" stroke="black" points="261.741,-259.5 261.741,-277.5 327.199,-277.5 327.199,-259.5 261.741,-259.5"/>
<text text-anchor="middle" x="294.47" y="-265.5" font-family="Helvetica,sans-Serif" font-size="10.00">SPI Master</text>
</a>
</g>
</g>
<!-- Node0&#45;&gt;Node15 -->
<g id="edge15" class="edge"><title>Node0&#45;&gt;Node15</title>
<path fill="none" stroke="blueviolet" stroke-dasharray="5,2" d="M189.803,-296.658C195.756,-294.923 201.969,-293.135 207.796,-291.5 225.589,-286.506 245.526,-281.14 261.687,-276.848"/>
<text text-anchor="middle" x="217.522" y="-293.5" font-family="Helvetica,sans-Serif" font-size="10.00">erpc</text>
</g>
<!-- Node6 -->
<g id="node13" class="node"><title>Node6</title>
<g id="a_node13"><a xlink:href="group__infra__server.html" target="_top" xlink:title="Server classes. ">
<polygon fill="white" stroke="black" points="271.743,-222.5 271.743,-240.5 317.196,-240.5 317.196,-222.5 271.743,-222.5"/>
<text text-anchor="middle" x="294.47" y="-228.5" font-family="Helvetica,sans-Serif" font-size="10.00">Server</text>
</a>
</g>
</g>
<!-- Node0&#45;&gt;Node6 -->
<g id="edge6" class="edge"><title>Node0&#45;&gt;Node6</title>
<path fill="none" stroke="blueviolet" stroke-dasharray="5,2" d="M171.939,-296.469C181.461,-289.396 195.238,-279.456 207.796,-271.5 223.917,-261.287 228.009,-258.683 245.249,-250.5 253.703,-246.487 263.246,-242.599 271.599,-239.396"/>
<text text-anchor="middle" x="217.522" y="-273.5" font-family="Helvetica,sans-Serif" font-size="10.00">erpc</text>
</g>
<!-- Node10 -->
<g id="node14" class="node"><title>Node10</title>
<g id="a_node14"><a xlink:href="group__itbp__transport.html" target="_top" xlink:title="Simple inter&#45;thread communications transport. ">
<polygon fill="white" stroke="black" points="260.623,-185.5 260.623,-203.5 328.317,-203.5 328.317,-185.5 260.623,-185.5"/>
<text text-anchor="middle" x="294.47" y="-191.5" font-family="Helvetica,sans-Serif" font-size="10.00">Inter&#45;thread</text>
</a>
</g>
</g>
<!-- Node0&#45;&gt;Node10 -->
<g id="edge10" class="edge"><title>Node0&#45;&gt;Node10</title>
<path fill="none" stroke="blueviolet" stroke-dasharray="5,2" d="M165.832,-296.331C178.136,-277.734 208.67,-235.486 245.249,-213.5 251.65,-209.653 258.969,-206.303 265.939,-203.532"/>
<text text-anchor="middle" x="217.522" y="-245.5" font-family="Helvetica,sans-Serif" font-size="10.00">erpc</text>
</g>
<!-- Node8 -->
<g id="node15" class="node"><title>Node8</title>
<g id="a_node15"><a xlink:href="group__dspi__master__transport.html" target="_top" xlink:title="Kinetis SDK DSPI master driver transport. ">
<polygon fill="white" stroke="black" points="258.13,-148.5 258.13,-166.5 330.81,-166.5 330.81,-148.5 258.13,-148.5"/>
<text text-anchor="middle" x="294.47" y="-154.5" font-family="Helvetica,sans-Serif" font-size="10.00">DSPI Master</text>
</a>
</g>
</g>
<!-- Node0&#45;&gt;Node8 -->
<g id="edge8" class="edge"><title>Node0&#45;&gt;Node8</title>
<path fill="none" stroke="blueviolet" stroke-dasharray="5,2" d="M163.041,-296.429C171.613,-272.331 198.482,-206.508 245.249,-176.5 251.308,-172.613 258.289,-169.299 265.024,-166.581"/>
<text text-anchor="middle" x="217.522" y="-212.5" font-family="Helvetica,sans-Serif" font-size="10.00">erpc</text>
</g>
<!-- Node13 -->
<g id="node16" class="node"><title>Node13</title>
<g id="a_node16"><a xlink:href="group__rpmsg__rtos__transport.html" target="_top" xlink:title="OpenAMP RPMsg RTOS layer transport. ">
<polygon fill="white" stroke="black" points="254.976,-111.5 254.976,-129.5 333.964,-129.5 333.964,-111.5 254.976,-111.5"/>
<text text-anchor="middle" x="294.47" y="-117.5" font-family="Helvetica,sans-Serif" font-size="10.00">RPMsg RTOS</text>
</a>
</g>
</g>
<!-- Node0&#45;&gt;Node13 -->
<g id="edge13" class="edge"><title>Node0&#45;&gt;Node13</title>
<path fill="none" stroke="blueviolet" stroke-dasharray="5,2" d="M162.05,-296.209C167.172,-274.238 182.031,-217.898 207.796,-177.5 220.547,-157.507 225.466,-152.575 245.249,-139.5 251.179,-135.581 258.042,-132.271 264.696,-129.568"/>
<text text-anchor="middle" x="217.522" y="-179.5" font-family="Helvetica,sans-Serif" font-size="10.00">erpc</text>
</g>
<!-- Node3 -->
<g id="node17" class="node"><title>Node3</title>
<g id="a_node17"><a xlink:href="group__infra__codec.html" target="_top" xlink:title="Classes used for message serialization. ">
<polygon fill="white" stroke="black" points="259.233,-74.5 259.233,-92.5 329.706,-92.5 329.706,-74.5 259.233,-74.5"/>
<text text-anchor="middle" x="294.47" y="-80.5" font-family="Helvetica,sans-Serif" font-size="10.00">Serialization</text>
</a>
</g>
</g>
<!-- Node0&#45;&gt;Node3 -->
<g id="edge3" class="edge"><title>Node0&#45;&gt;Node3</title>
<path fill="none" stroke="blueviolet" stroke-dasharray="5,2" d="M160.961,-296.14C164.007,-269.635 175.286,-192.496 207.796,-138.5 219.705,-118.72 225.817,-114.969 245.249,-102.5 251.308,-98.6126 258.289,-95.2993 265.024,-92.581"/>
<text text-anchor="middle" x="217.522" y="-140.5" font-family="Helvetica,sans-Serif" font-size="10.00">erpc</text>
</g>
<!-- Node11 -->
<g id="node18" class="node"><title>Node11</title>
<g id="a_node18"><a xlink:href="group__rpmsg__lite__rtos__transport.html" target="_top" xlink:title="RPMsg&#45;Lite transport using RTOS API. ">
<polygon fill="white" stroke="black" points="245.249,-37.5 245.249,-55.5 343.69,-55.5 343.69,-37.5 245.249,-37.5"/>
<text text-anchor="middle" x="294.47" y="-43.5" font-family="Helvetica,sans-Serif" font-size="10.00">RPMsg&#45;Lite RTOS</text>
</a>
</g>
</g>
<!-- Node0&#45;&gt;Node11 -->
<g id="edge11" class="edge"><title>Node0&#45;&gt;Node11</title>
<path fill="none" stroke="blueviolet" stroke-dasharray="5,2" d="M160.284,-296.224C161.56,-265.969 168.657,-168.207 207.796,-100.5 219.198,-80.7755 225.988,-77.6684 245.249,-65.5 251.411,-61.6072 258.501,-58.2757 265.315,-55.54"/>
<text text-anchor="middle" x="217.522" y="-102.5" font-family="Helvetica,sans-Serif" font-size="10.00">erpc</text>
</g>
<!-- Node12 -->
<g id="node19" class="node"><title>Node12</title>
<g id="a_node19"><a xlink:href="group__rpmsg__lite__transport.html" target="_top" xlink:title="RPMsg&#45;Lite transport. ">
<polygon fill="white" stroke="black" points="260.352,-0.5 260.352,-18.5 328.588,-18.5 328.588,-0.5 260.352,-0.5"/>
<text text-anchor="middle" x="294.47" y="-6.5" font-family="Helvetica,sans-Serif" font-size="10.00">RPMsg&#45;Lite</text>
</a>
</g>
</g>
<!-- Node0&#45;&gt;Node12 -->
<g id="edge12" class="edge"><title>Node0&#45;&gt;Node12</title>
<path fill="none" stroke="blueviolet" stroke-dasharray="5,2" d="M159.808,-296.422C159.462,-262.945 161.717,-144.122 207.796,-62.5 220.091,-40.7203 245.383,-26.7352 265.315,-18.6325"/>
<text text-anchor="middle" x="217.522" y="-64.5" font-family="Helvetica,sans-Serif" font-size="10.00">erpc</text>
</g>
</g>
</svg>
