<?xml version="1.0" encoding="UTF-8" standalone="no"?>
<!DOCTYPE svg PUBLIC "-//W3C//DTD SVG 1.1//EN"
 "http://www.w3.org/Graphics/SVG/1.1/DTD/svg11.dtd">
<!-- Generated by graphviz version 2.38.0 (20140413.2041)
 -->
<!-- Title: RPMsg Pages: 1 -->
<svg width="420pt" height="658pt"
 viewBox="0.00 0.00 419.66 658.00" xmlns="http://www.w3.org/2000/svg" xmlns:xlink="http://www.w3.org/1999/xlink">
<g id="graph0" class="graph" transform="scale(1 1) rotate(0) translate(4 654.004)">
<title>RPMsg</title>
<polygon fill="white" stroke="none" points="-4,4 -4,-654.004 415.664,-654.004 415.664,4 -4,4"/>
<!-- Node1 -->
<g id="node1" class="node"><title>Node1</title>
<g id="a_node1"><a xlink:href="group__transports.html" target="_top" xlink:title="Transport layer classes. ">
<polygon fill="white" stroke="black" points="0,-310.004 0,-328.004 91.2197,-328.004 91.2197,-310.004 0,-310.004"/>
<text text-anchor="middle" x="45.6099" y="-316.004" font-family="Helvetica,sans-Serif" font-size="10.00">Transport Layers</text>
</a>
</g>
</g>
<!-- Node0 -->
<g id="node5" class="node"><title>Node0</title>
<polygon fill="#bfbfbf" stroke="black" points="128.22,-310.004 128.22,-328.004 177.003,-328.004 177.003,-310.004 128.22,-310.004"/>
<text text-anchor="middle" x="152.611" y="-316.004" font-family="Helvetica,sans-Serif" font-size="10.00">RPMsg</text>
</g>
<!-- Node1&#45;&gt;Node0 -->
<g id="edge1" class="edge"><title>Node1&#45;&gt;Node0</title>
<path fill="none" stroke="black" d="M101.554,-319.004C110.886,-319.004 120.114,-319.004 128.056,-319.004"/>
<polygon fill="black" stroke="black" points="101.445,-315.504 91.4445,-319.004 101.444,-322.504 101.445,-315.504"/>
</g>
<!-- Node10 -->
<g id="node2" class="node"><title>Node10</title>
<g id="a_node2"><a xlink:href="group__dspi__slave__transport.html" target="_top" xlink:title="Kinetis SDK DSPI slave driver transport. ">
<polygon fill="white" stroke="black" points="328.877,-625.004 328.877,-643.004 396.01,-643.004 396.01,-625.004 328.877,-625.004"/>
<text text-anchor="middle" x="362.443" y="-631.004" font-family="Helvetica,sans-Serif" font-size="10.00">DSPI Slave</text>
</a>
</g>
</g>
<!-- Node8 -->
<g id="node3" class="node"><title>Node8</title>
<g id="a_node3"><a xlink:href="group__port__threads.html" target="_top" xlink:title="Threading model. ">
<polygon fill="white" stroke="black" points="336.101,-588.004 336.101,-606.004 388.786,-606.004 388.786,-588.004 336.101,-588.004"/>
<text text-anchor="middle" x="362.443" y="-594.004" font-family="Helvetica,sans-Serif" font-size="10.00">Threads</text>
</a>
</g>
</g>
<!-- Node17 -->
<g id="node4" class="node"><title>Node17</title>
<g id="a_node4"><a xlink:href="group__tcp__transport.html" target="_top" xlink:title="Simple TCP/IP transport. ">
<polygon fill="white" stroke="black" points="338.33,-551.004 338.33,-569.004 386.557,-569.004 386.557,-551.004 338.33,-551.004"/>
<text text-anchor="middle" x="362.443" y="-557.004" font-family="Helvetica,sans-Serif" font-size="10.00">TCP/IP</text>
</a>
</g>
</g>
<!-- Node0&#45;&gt;Node10 -->
<g id="edge10" class="edge"><title>Node0&#45;&gt;Node10</title>
<path fill="none" stroke="blueviolet" stroke-dasharray="5,2" d="M153.536,-328.264C153.37,-373.004 155.007,-566.279 195.003,-607.004 229.668,-642.301 291.1,-642.761 328.851,-638.998"/>
<text text-anchor="middle" x="245.113" y="-642.004" font-family="Helvetica,sans-Serif" font-size="10.00">erpc</text>
</g>
<!-- Node0&#45;&gt;Node8 -->
<g id="edge8" class="edge"><title>Node0&#45;&gt;Node8</title>
<path fill="none" stroke="blueviolet" stroke-dasharray="5,2" d="M153.748,-328.152C154.557,-369.099 159.98,-535.073 195.003,-570.004 214.382,-589.333 294.26,-594.83 335.911,-596.389"/>
<text text-anchor="middle" x="245.113" y="-595.004" font-family="Helvetica,sans-Serif" font-size="10.00">erpc</text>
</g>
<!-- Node0&#45;&gt;Node17 -->
<g id="edge18" class="edge"><title>Node0&#45;&gt;Node17</title>
<path fill="none" stroke="blueviolet" stroke-dasharray="5,2" d="M154.038,-328.277C155.949,-365.558 164.992,-503.887 195.003,-533.004 215.015,-552.42 297.409,-557.89 338.262,-559.419"/>
<text text-anchor="middle" x="245.113" y="-558.004" font-family="Helvetica,sans-Serif" font-size="10.00">erpc</text>
</g>
<!-- Node3 -->
<g id="node6" class="node"><title>Node3</title>
<g id="a_node6"><a xlink:href="group__infra__client.html" target="_top" xlink:title="Client classes. ">
<polygon fill="white" stroke="black" points="341.66,-514.004 341.66,-532.004 383.227,-532.004 383.227,-514.004 341.66,-514.004"/>
<text text-anchor="middle" x="362.443" y="-520.004" font-family="Helvetica,sans-Serif" font-size="10.00">Client</text>
</a>
</g>
</g>
<!-- Node0&#45;&gt;Node3 -->
<g id="edge3" class="edge"><title>Node0&#45;&gt;Node3</title>
<path fill="none" stroke="blueviolet" stroke-dasharray="5,2" d="M154.458,-328.449C157.635,-361.707 169.972,-472.64 195.003,-496.004 215.922,-515.529 301.958,-520.979 341.455,-522.464"/>
<text text-anchor="middle" x="245.113" y="-521.004" font-family="Helvetica,sans-Serif" font-size="10.00">erpc</text>
</g>
<!-- Node5 -->
<g id="node7" class="node"><title>Node5</title>
<g id="a_node7"><a xlink:href="group__infra__transport.html" target="_top" xlink:title="Superclasses for building transports. ">
<polygon fill="white" stroke="black" points="330.73,-477.004 330.73,-495.004 394.157,-495.004 394.157,-477.004 330.73,-477.004"/>
<text text-anchor="middle" x="362.443" y="-483.004" font-family="Helvetica,sans-Serif" font-size="10.00">Transports</text>
</a>
</g>
</g>
<!-- Node0&#45;&gt;Node5 -->
<g id="edge5" class="edge"><title>Node0&#45;&gt;Node5</title>
<path fill="none" stroke="blueviolet" stroke-dasharray="5,2" d="M153.224,-328.325C152.719,-353.799 155.112,-425.009 195.003,-460.004 214.68,-477.266 288.214,-483.099 330.669,-485.047"/>
<text text-anchor="middle" x="245.113" y="-484.004" font-family="Helvetica,sans-Serif" font-size="10.00">erpc</text>
</g>
<!-- Node14 -->
<g id="node8" class="node"><title>Node14</title>
<g id="a_node8"><a xlink:href="group__serial__transport.html" target="_top" xlink:title="POSIX and Win32 serial port transport. ">
<polygon fill="white" stroke="black" points="331.655,-440.004 331.655,-458.004 393.231,-458.004 393.231,-440.004 331.655,-440.004"/>
<text text-anchor="middle" x="362.443" y="-446.004" font-family="Helvetica,sans-Serif" font-size="10.00">Serial port</text>
</a>
</g>
</g>
<!-- Node0&#45;&gt;Node14 -->
<g id="edge15" class="edge"><title>Node0&#45;&gt;Node14</title>
<path fill="none" stroke="blueviolet" stroke-dasharray="5,2" d="M154.215,-328.161C156.121,-349.051 163.899,-400.318 195.003,-425.004 215.584,-441.338 289.509,-446.567 331.587,-448.233"/>
<text text-anchor="middle" x="245.113" y="-448.004" font-family="Helvetica,sans-Serif" font-size="10.00">erpc</text>
</g>
<!-- Node6 -->
<g id="node9" class="node"><title>Node6</title>
<g id="a_node9"><a xlink:href="group__infra__utility.html" target="_top" xlink:title="Utility code used by the infrastructure. ">
<polygon fill="white" stroke="black" points="338.33,-403.004 338.33,-421.004 386.557,-421.004 386.557,-403.004 338.33,-403.004"/>
<text text-anchor="middle" x="362.443" y="-409.004" font-family="Helvetica,sans-Serif" font-size="10.00">Utilities</text>
</a>
</g>
</g>
<!-- Node0&#45;&gt;Node6 -->
<g id="edge6" class="edge"><title>Node0&#45;&gt;Node6</title>
<path fill="none" stroke="blueviolet" stroke-dasharray="5,2" d="M157.006,-328.461C162.594,-342.57 175.131,-368.873 195.003,-382.004 239.219,-411.221 303.827,-414.152 338.09,-413.339"/>
<text text-anchor="middle" x="245.113" y="-413.004" font-family="Helvetica,sans-Serif" font-size="10.00">erpc</text>
</g>
<!-- Node16 -->
<g id="node10" class="node"><title>Node16</title>
<g id="a_node10"><a xlink:href="group__spi__slave__transport.html" target="_top" xlink:title="Kinetis SDK SPI slave driver transport. ">
<polygon fill="white" stroke="black" points="332.488,-366.004 332.488,-384.004 392.399,-384.004 392.399,-366.004 332.488,-366.004"/>
<text text-anchor="middle" x="362.443" y="-372.004" font-family="Helvetica,sans-Serif" font-size="10.00">SPI Slave</text>
</a>
</g>
</g>
<!-- Node0&#45;&gt;Node16 -->
<g id="edge17" class="edge"><title>Node0&#45;&gt;Node16</title>
<path fill="none" stroke="blueviolet" stroke-dasharray="5,2" d="M165.275,-328.038C173.232,-333.757 184.241,-340.835 195.003,-345.004 240.999,-362.823 298.305,-370.174 332.268,-373.123"/>
<text text-anchor="middle" x="245.113" y="-370.004" font-family="Helvetica,sans-Serif" font-size="10.00">erpc</text>
</g>
<!-- Node18 -->
<g id="node11" class="node"><title>Node18</title>
<g id="a_node11"><a xlink:href="group__uart__transport.html" target="_top" xlink:title="CMSIS UART driver transport. ">
<polygon fill="white" stroke="black" points="323.696,-329.004 323.696,-347.004 401.19,-347.004 401.19,-329.004 323.696,-329.004"/>
<text text-anchor="middle" x="362.443" y="-335.004" font-family="Helvetica,sans-Serif" font-size="10.00">CMSIS UART</text>
</a>
</g>
</g>
<!-- Node0&#45;&gt;Node18 -->
<g id="edge19" class="edge"><title>Node0&#45;&gt;Node18</title>
<path fill="none" stroke="blueviolet" stroke-dasharray="5,2" d="M177.048,-321.146C212.612,-324.398 280.577,-330.611 323.319,-334.518"/>
<text text-anchor="middle" x="245.113" y="-333.004" font-family="Helvetica,sans-Serif" font-size="10.00">erpc</text>
</g>
<!-- Node15 -->
<g id="node12" class="node"><title>Node15</title>
<g id="a_node12"><a xlink:href="group__spi__master__transport.html" target="_top" xlink:title="Kinetis SDK SPI master driver transport. ">
<polygon fill="white" stroke="black" points="329.714,-292.004 329.714,-310.004 395.172,-310.004 395.172,-292.004 329.714,-292.004"/>
<text text-anchor="middle" x="362.443" y="-298.004" font-family="Helvetica,sans-Serif" font-size="10.00">SPI Master</text>
</a>
</g>
</g>
<!-- Node0&#45;&gt;Node15 -->
<g id="edge16" class="edge"><title>Node0&#45;&gt;Node15</title>
<path fill="none" stroke="blueviolet" stroke-dasharray="5,2" d="M177.415,-310.307C183.104,-308.57 189.21,-306.981 195.003,-306.004 241.325,-298.187 295.903,-298.279 329.592,-299.389"/>
<text text-anchor="middle" x="245.113" y="-308.004" font-family="Helvetica,sans-Serif" font-size="10.00">erpc</text>
</g>
<!-- Node7 -->
<g id="node13" class="node"><title>Node7</title>
<g id="a_node13"><a xlink:href="group__infra__server.html" target="_top" xlink:title="Server classes. ">
<polygon fill="white" stroke="black" points="339.717,-255.004 339.717,-273.004 385.17,-273.004 385.17,-255.004 339.717,-255.004"/>
<text text-anchor="middle" x="362.443" y="-261.004" font-family="Helvetica,sans-Serif" font-size="10.00">Server</text>
</a>
</g>
</g>
<!-- Node0&#45;&gt;Node7 -->
<g id="edge7" class="edge"><title>Node0&#45;&gt;Node7</title>
<path fill="none" stroke="blueviolet" stroke-dasharray="5,2" d="M161.463,-309.838C169.117,-301.58 181.543,-289.866 195.003,-284.004 243.432,-262.911 306.853,-261.674 339.665,-262.74"/>
<text text-anchor="middle" x="245.113" y="-286.004" font-family="Helvetica,sans-Serif" font-size="10.00">erpc</text>
</g>
<!-- Node11 -->
<g id="node14" class="node"><title>Node11</title>
<g id="a_node14"><a xlink:href="group__itbp__transport.html" target="_top" xlink:title="Simple inter&#45;thread communications transport. ">
<polygon fill="white" stroke="black" points="328.596,-218.004 328.596,-236.004 396.291,-236.004 396.291,-218.004 328.596,-218.004"/>
<text text-anchor="middle" x="362.443" y="-224.004" font-family="Helvetica,sans-Serif" font-size="10.00">Inter&#45;thread</text>
</a>
</g>
</g>
<!-- Node0&#45;&gt;Node11 -->
<g id="edge11" class="edge"><title>Node0&#45;&gt;Node11</title>
<path fill="none" stroke="blueviolet" stroke-dasharray="5,2" d="M156.134,-309.909C160.917,-294.531 172.861,-263.641 195.003,-249.004 235.122,-222.483 292.668,-221.01 328.51,-223.314"/>
<text text-anchor="middle" x="245.113" y="-251.004" font-family="Helvetica,sans-Serif" font-size="10.00">erpc</text>
</g>
<!-- Node9 -->
<g id="node15" class="node"><title>Node9</title>
<g id="a_node15"><a xlink:href="group__dspi__master__transport.html" target="_top" xlink:title="Kinetis SDK DSPI master driver transport. ">
<polygon fill="white" stroke="black" points="326.104,-181.004 326.104,-199.004 398.783,-199.004 398.783,-181.004 326.104,-181.004"/>
<text text-anchor="middle" x="362.443" y="-187.004" font-family="Helvetica,sans-Serif" font-size="10.00">DSPI Master</text>
</a>
</g>
</g>
<!-- Node0&#45;&gt;Node9 -->
<g id="edge9" class="edge"><title>Node0&#45;&gt;Node9</title>
<path fill="none" stroke="blueviolet" stroke-dasharray="5,2" d="M153.961,-309.996C155.327,-288.411 162.04,-233.628 195.003,-208.004 232.291,-179.017 289.304,-179.577 325.976,-183.853"/>
<text text-anchor="middle" x="245.113" y="-210.004" font-family="Helvetica,sans-Serif" font-size="10.00">erpc</text>
</g>
<!-- Node13 -->
<g id="node16" class="node"><title>Node13</title>
<g id="a_node16"><a xlink:href="group__rpmsg__rtos__transport.html" target="_top" xlink:title="OpenAMP RPMsg RTOS layer transport. ">
<polygon fill="white" stroke="black" points="322.949,-144.004 322.949,-162.004 401.938,-162.004 401.938,-144.004 322.949,-144.004"/>
<text text-anchor="middle" x="362.443" y="-150.004" font-family="Helvetica,sans-Serif" font-size="10.00">RPMsg RTOS</text>
</a>
</g>
</g>
<!-- Node0&#45;&gt;Node13 -->
<g id="edge14" class="edge"><title>Node0&#45;&gt;Node13</title>
<path fill="none" stroke="blueviolet" stroke-dasharray="5,2" d="M154.772,-309.585C158.7,-279.365 172.516,-185.731 195.003,-167.004 230.321,-137.591 285.708,-139.233 322.774,-144.75"/>
<text text-anchor="middle" x="245.113" y="-169.004" font-family="Helvetica,sans-Serif" font-size="10.00">erpc</text>
</g>
<!-- Node4 -->
<g id="node17" class="node"><title>Node4</title>
<g id="a_node17"><a xlink:href="group__infra__codec.html" target="_top" xlink:title="Classes used for message serialization. ">
<polygon fill="white" stroke="black" points="327.207,-107.004 327.207,-125.004 397.68,-125.004 397.68,-107.004 327.207,-107.004"/>
<text text-anchor="middle" x="362.443" y="-113.004" font-family="Helvetica,sans-Serif" font-size="10.00">Serialization</text>
</a>
</g>
</g>
<!-- Node0&#45;&gt;Node4 -->
<g id="edge4" class="edge"><title>Node0&#45;&gt;Node4</title>
<path fill="none" stroke="blueviolet" stroke-dasharray="5,2" d="M154.184,-309.66C156.542,-274.568 166.741,-151.405 195.003,-127.004 231.17,-95.7769 289.858,-100.234 327.012,-107.348"/>
<text text-anchor="middle" x="245.113" y="-129.004" font-family="Helvetica,sans-Serif" font-size="10.00">erpc</text>
</g>
<!-- Node12 -->
<g id="node18" class="node"><title>Node12</title>
<g id="a_node18"><a xlink:href="group__rpmsg__lite__rtos__transport.html" target="_top" xlink:title="RPMsg&#45;Lite transport using RTOS API. ">
<polygon fill="white" stroke="black" points="313.223,-70.0037 313.223,-88.0037 411.664,-88.0037 411.664,-70.0037 313.223,-70.0037"/>
<text text-anchor="middle" x="362.443" y="-76.0037" font-family="Helvetica,sans-Serif" font-size="10.00">RPMsg&#45;Lite RTOS</text>
</a>
</g>
</g>
<!-- Node0&#45;&gt;Node12 -->
<g id="edge12" class="edge"><title>Node0&#45;&gt;Node12</title>
<path fill="none" stroke="blueviolet" stroke-dasharray="5,2" d="M153.8,-309.978C154.819,-271.043 160.962,-118.087 195.003,-88.0037 231.324,-55.9058 291.369,-61.9581 328.544,-69.9787"/>
<text text-anchor="middle" x="245.113" y="-90.0037" font-family="Helvetica,sans-Serif" font-size="10.00">erpc</text>
</g>
<!-- Node2 -->
<g id="node19" class="node"><title>Node2</title>
<g id="a_node19"><a xlink:href="group__rpmsg__lite__transport.html" target="_top" xlink:title="RPMsg&#45;Lite transport. ">
<polygon fill="white" stroke="black" points="328.325,-22.0037 328.325,-40.0037 396.562,-40.0037 396.562,-22.0037 328.325,-22.0037"/>
<text text-anchor="middle" x="362.443" y="-28.0037" font-family="Helvetica,sans-Serif" font-size="10.00">RPMsg&#45;Lite</text>
</a>
</g>
</g>
<!-- Node0&#45;&gt;Node2 -->
<g id="edge2" class="edge"><title>Node0&#45;&gt;Node2</title>
<path fill="none" stroke="orange" stroke-dasharray="5,2" d="M153.621,-309.824C153.865,-267.163 157.164,-88.7871 195.003,-52.0037 213.381,-34.1388 285.158,-30.9124 328.224,-30.6405"/>
<text text-anchor="middle" x="245.113" y="-54.0037" font-family="Helvetica,sans-Serif" font-size="10.00">erpc::RPMsgTransport</text>
</g>
<!-- Node0&#45;&gt;Node2 -->
<g id="edge13" class="edge"><title>Node0&#45;&gt;Node2</title>
<path fill="none" stroke="blueviolet" stroke-dasharray="5,2" d="M153.353,-309.836C152.265,-263.768 150.015,-58.2105 195.003,-19.0037 236.609,17.2563 308.459,-7.09372 342.503,-21.9278"/>
<text text-anchor="middle" x="245.113" y="-21.0037" font-family="Helvetica,sans-Serif" font-size="10.00">erpc</text>
</g>
</g>
</svg>
