<?xml version="1.0" encoding="UTF-8" standalone="no"?>
<!DOCTYPE svg PUBLIC "-//W3C//DTD SVG 1.1//EN"
 "http://www.w3.org/Graphics/SVG/1.1/DTD/svg11.dtd">
<!-- Generated by graphviz version 2.38.0 (20140413.2041)
 -->
<!-- Title: Threads Pages: 1 -->
<svg width="299pt" height="619pt"
 viewBox="0.00 0.00 299.26 619.00" xmlns="http://www.w3.org/2000/svg" xmlns:xlink="http://www.w3.org/1999/xlink">
<g id="graph0" class="graph" transform="scale(1 1) rotate(0) translate(4 615)">
<title>Threads</title>
<polygon fill="white" stroke="none" points="-4,4 -4,-615 295.264,-615 295.264,4 -4,4"/>
<!-- Node8 -->
<g id="node1" class="node"><title>Node8</title>
<g id="a_node1"><a xlink:href="group__dspi__slave__transport.html" target="_top" xlink:title="Kinetis SDK DSPI slave driver transport. ">
<polygon fill="white" stroke="black" points="208.477,-592.5 208.477,-610.5 275.609,-610.5 275.609,-592.5 208.477,-592.5"/>
<text text-anchor="middle" x="242.043" y="-598.5" font-family="Helvetica,sans-Serif" font-size="10.00">DSPI Slave</text>
</a>
</g>
</g>
<!-- Node0 -->
<g id="node2" class="node"><title>Node0</title>
<polygon fill="#bfbfbf" stroke="black" points="84.6846,-296.5 84.6846,-314.5 137.369,-314.5 137.369,-296.5 84.6846,-296.5"/>
<text text-anchor="middle" x="111.027" y="-302.5" font-family="Helvetica,sans-Serif" font-size="10.00">Threads</text>
</g>
<!-- Node0&#45;&gt;Node8 -->
<g id="edge8" class="edge"><title>Node0&#45;&gt;Node8</title>
<path fill="none" stroke="blueviolet" stroke-dasharray="5,2" d="M111.659,-314.548C110.694,-347.919 110.755,-466.421 155.369,-548.5 166.249,-568.517 173.452,-571.506 192.822,-583.5 198.444,-586.981 204.845,-589.954 211.105,-592.421"/>
<text text-anchor="middle" x="165.096" y="-573.5" font-family="Helvetica,sans-Serif" font-size="10.00">erpc</text>
</g>
<!-- Node17 -->
<g id="node3" class="node"><title>Node17</title>
<g id="a_node3"><a xlink:href="group__tcp__transport.html" target="_top" xlink:title="Simple TCP/IP transport. ">
<polygon fill="white" stroke="black" points="217.93,-555.5 217.93,-573.5 266.156,-573.5 266.156,-555.5 217.93,-555.5"/>
<text text-anchor="middle" x="242.043" y="-561.5" font-family="Helvetica,sans-Serif" font-size="10.00">TCP/IP</text>
</a>
</g>
</g>
<!-- Node0&#45;&gt;Node17 -->
<g id="edge17" class="edge"><title>Node0&#45;&gt;Node17</title>
<path fill="none" stroke="blueviolet" stroke-dasharray="5,2" d="M112.093,-314.747C112.684,-344.915 117.586,-442.437 155.369,-510.5 166.575,-530.687 173.278,-534.207 192.822,-546.5 200.386,-551.258 209.399,-555.045 217.574,-557.894"/>
<text text-anchor="middle" x="165.096" y="-536.5" font-family="Helvetica,sans-Serif" font-size="10.00">erpc</text>
</g>
<!-- Node13 -->
<g id="node4" class="node"><title>Node13</title>
<g id="a_node4"><a xlink:href="group__rpmsg__transport.html" target="_top" xlink:title="OpenAMP RPMsg transport. ">
<polygon fill="white" stroke="black" points="217.651,-518.5 217.651,-536.5 266.435,-536.5 266.435,-518.5 217.651,-518.5"/>
<text text-anchor="middle" x="242.043" y="-524.5" font-family="Helvetica,sans-Serif" font-size="10.00">RPMsg</text>
</a>
</g>
</g>
<!-- Node0&#45;&gt;Node13 -->
<g id="edge13" class="edge"><title>Node0&#45;&gt;Node13</title>
<path fill="none" stroke="blueviolet" stroke-dasharray="5,2" d="M112.631,-314.533C114.734,-340.824 123.455,-418.885 155.369,-473.5 167.018,-493.435 173.278,-497.207 192.822,-509.5 200.386,-514.258 209.399,-518.045 217.574,-520.894"/>
<text text-anchor="middle" x="165.096" y="-498.5" font-family="Helvetica,sans-Serif" font-size="10.00">erpc</text>
</g>
<!-- Node2 -->
<g id="node5" class="node"><title>Node2</title>
<g id="a_node5"><a xlink:href="group__infra__client.html" target="_top" xlink:title="Client classes. ">
<polygon fill="white" stroke="black" points="221.26,-481.5 221.26,-499.5 262.826,-499.5 262.826,-481.5 221.26,-481.5"/>
<text text-anchor="middle" x="242.043" y="-487.5" font-family="Helvetica,sans-Serif" font-size="10.00">Client</text>
</a>
</g>
</g>
<!-- Node0&#45;&gt;Node2 -->
<g id="edge2" class="edge"><title>Node0&#45;&gt;Node2</title>
<path fill="none" stroke="blueviolet" stroke-dasharray="5,2" d="M113.715,-314.776C118.004,-336.716 130.766,-392.994 155.369,-433.5 167.845,-454.04 172.74,-459.301 192.822,-472.5 201.335,-478.095 211.829,-482.276 220.85,-485.194"/>
<text text-anchor="middle" x="165.096" y="-461.5" font-family="Helvetica,sans-Serif" font-size="10.00">erpc</text>
</g>
<!-- Node4 -->
<g id="node6" class="node"><title>Node4</title>
<g id="a_node6"><a xlink:href="group__infra__transport.html" target="_top" xlink:title="Superclasses for building transports. ">
<polygon fill="white" stroke="black" points="210.33,-444.5 210.33,-462.5 273.756,-462.5 273.756,-444.5 210.33,-444.5"/>
<text text-anchor="middle" x="242.043" y="-450.5" font-family="Helvetica,sans-Serif" font-size="10.00">Transports</text>
</a>
</g>
</g>
<!-- Node0&#45;&gt;Node4 -->
<g id="edge4" class="edge"><title>Node0&#45;&gt;Node4</title>
<path fill="none" stroke="blueviolet" stroke-dasharray="5,2" d="M114.678,-314.711C122.249,-339.17 146.461,-405.896 192.822,-435.5 198.32,-439.011 204.604,-441.983 210.777,-444.438"/>
<text text-anchor="middle" x="165.096" y="-421.5" font-family="Helvetica,sans-Serif" font-size="10.00">erpc</text>
</g>
<!-- Node14 -->
<g id="node7" class="node"><title>Node14</title>
<g id="a_node7"><a xlink:href="group__serial__transport.html" target="_top" xlink:title="POSIX and Win32 serial port transport. ">
<polygon fill="white" stroke="black" points="211.255,-407.5 211.255,-425.5 272.831,-425.5 272.831,-407.5 211.255,-407.5"/>
<text text-anchor="middle" x="242.043" y="-413.5" font-family="Helvetica,sans-Serif" font-size="10.00">Serial port</text>
</a>
</g>
</g>
<!-- Node0&#45;&gt;Node14 -->
<g id="edge14" class="edge"><title>Node0&#45;&gt;Node14</title>
<path fill="none" stroke="blueviolet" stroke-dasharray="5,2" d="M117.19,-314.549C128.391,-333.323 156.84,-376.578 192.822,-398.5 198.546,-401.987 205.054,-404.976 211.397,-407.459"/>
<text text-anchor="middle" x="165.096" y="-386.5" font-family="Helvetica,sans-Serif" font-size="10.00">erpc</text>
</g>
<!-- Node5 -->
<g id="node8" class="node"><title>Node5</title>
<g id="a_node8"><a xlink:href="group__infra__utility.html" target="_top" xlink:title="Utility code used by the infrastructure. ">
<polygon fill="white" stroke="black" points="217.93,-370.5 217.93,-388.5 266.156,-388.5 266.156,-370.5 217.93,-370.5"/>
<text text-anchor="middle" x="242.043" y="-376.5" font-family="Helvetica,sans-Serif" font-size="10.00">Utilities</text>
</a>
</g>
</g>
<!-- Node0&#45;&gt;Node5 -->
<g id="edge5" class="edge"><title>Node0&#45;&gt;Node5</title>
<path fill="none" stroke="blueviolet" stroke-dasharray="5,2" d="M122.857,-314.629C137.762,-326.798 165.827,-348.327 192.822,-361.5 200.692,-365.341 209.603,-368.878 217.605,-371.783"/>
<text text-anchor="middle" x="165.096" y="-352.5" font-family="Helvetica,sans-Serif" font-size="10.00">erpc</text>
</g>
<!-- Node16 -->
<g id="node9" class="node"><title>Node16</title>
<g id="a_node9"><a xlink:href="group__spi__slave__transport.html" target="_top" xlink:title="Kinetis SDK SPI slave driver transport. ">
<polygon fill="white" stroke="black" points="212.087,-333.5 212.087,-351.5 271.999,-351.5 271.999,-333.5 212.087,-333.5"/>
<text text-anchor="middle" x="242.043" y="-339.5" font-family="Helvetica,sans-Serif" font-size="10.00">SPI Slave</text>
</a>
</g>
</g>
<!-- Node0&#45;&gt;Node16 -->
<g id="edge16" class="edge"><title>Node0&#45;&gt;Node16</title>
<path fill="none" stroke="blueviolet" stroke-dasharray="5,2" d="M137.63,-314.005C143.445,-315.871 149.606,-317.797 155.369,-319.5 174.126,-325.043 195.358,-330.747 211.992,-335.088"/>
<text text-anchor="middle" x="165.096" y="-326.5" font-family="Helvetica,sans-Serif" font-size="10.00">erpc</text>
</g>
<!-- Node18 -->
<g id="node10" class="node"><title>Node18</title>
<g id="a_node10"><a xlink:href="group__uart__transport.html" target="_top" xlink:title="CMSIS UART driver transport. ">
<polygon fill="white" stroke="black" points="203.296,-296.5 203.296,-314.5 280.79,-314.5 280.79,-296.5 203.296,-296.5"/>
<text text-anchor="middle" x="242.043" y="-302.5" font-family="Helvetica,sans-Serif" font-size="10.00">CMSIS UART</text>
</a>
</g>
</g>
<!-- Node0&#45;&gt;Node18 -->
<g id="edge18" class="edge"><title>Node0&#45;&gt;Node18</title>
<path fill="none" stroke="blueviolet" stroke-dasharray="5,2" d="M137.516,-305.5C156.169,-305.5 181.794,-305.5 202.882,-305.5"/>
<text text-anchor="middle" x="165.096" y="-307.5" font-family="Helvetica,sans-Serif" font-size="10.00">erpc</text>
</g>
<!-- Node15 -->
<g id="node11" class="node"><title>Node15</title>
<g id="a_node11"><a xlink:href="group__spi__master__transport.html" target="_top" xlink:title="Kinetis SDK SPI master driver transport. ">
<polygon fill="white" stroke="black" points="209.314,-259.5 209.314,-277.5 274.772,-277.5 274.772,-259.5 209.314,-259.5"/>
<text text-anchor="middle" x="242.043" y="-265.5" font-family="Helvetica,sans-Serif" font-size="10.00">SPI Master</text>
</a>
</g>
</g>
<!-- Node0&#45;&gt;Node15 -->
<g id="edge15" class="edge"><title>Node0&#45;&gt;Node15</title>
<path fill="none" stroke="blueviolet" stroke-dasharray="5,2" d="M137.63,-296.995C143.445,-295.129 149.606,-293.203 155.369,-291.5 173.092,-286.262 193.025,-280.881 209.201,-276.642"/>
<text text-anchor="middle" x="165.096" y="-293.5" font-family="Helvetica,sans-Serif" font-size="10.00">erpc</text>
</g>
<!-- Node6 -->
<g id="node12" class="node"><title>Node6</title>
<g id="a_node12"><a xlink:href="group__infra__server.html" target="_top" xlink:title="Server classes. ">
<polygon fill="white" stroke="black" points="219.316,-222.5 219.316,-240.5 264.77,-240.5 264.77,-222.5 219.316,-222.5"/>
<text text-anchor="middle" x="242.043" y="-228.5" font-family="Helvetica,sans-Serif" font-size="10.00">Server</text>
</a>
</g>
</g>
<!-- Node0&#45;&gt;Node6 -->
<g id="edge6" class="edge"><title>Node0&#45;&gt;Node6</title>
<path fill="none" stroke="blueviolet" stroke-dasharray="5,2" d="M122.857,-296.371C137.762,-284.202 165.827,-262.673 192.822,-249.5 201.174,-245.424 210.698,-241.689 219.064,-238.691"/>
<text text-anchor="middle" x="165.096" y="-274.5" font-family="Helvetica,sans-Serif" font-size="10.00">erpc</text>
</g>
<!-- Node9 -->
<g id="node13" class="node"><title>Node9</title>
<g id="a_node13"><a xlink:href="group__itbp__transport.html" target="_top" xlink:title="Simple inter&#45;thread communications transport. ">
<polygon fill="white" stroke="black" points="208.196,-185.5 208.196,-203.5 275.89,-203.5 275.89,-185.5 208.196,-185.5"/>
<text text-anchor="middle" x="242.043" y="-191.5" font-family="Helvetica,sans-Serif" font-size="10.00">Inter&#45;thread</text>
</a>
</g>
</g>
<!-- Node0&#45;&gt;Node9 -->
<g id="edge9" class="edge"><title>Node0&#45;&gt;Node9</title>
<path fill="none" stroke="blueviolet" stroke-dasharray="5,2" d="M117.19,-296.451C128.391,-277.677 156.84,-234.422 192.822,-212.5 198.546,-209.013 205.054,-206.024 211.397,-203.541"/>
<text text-anchor="middle" x="165.096" y="-245.5" font-family="Helvetica,sans-Serif" font-size="10.00">erpc</text>
</g>
<!-- Node7 -->
<g id="node14" class="node"><title>Node7</title>
<g id="a_node14"><a xlink:href="group__dspi__master__transport.html" target="_top" xlink:title="Kinetis SDK DSPI master driver transport. ">
<polygon fill="white" stroke="black" points="205.703,-148.5 205.703,-166.5 278.383,-166.5 278.383,-148.5 205.703,-148.5"/>
<text text-anchor="middle" x="242.043" y="-154.5" font-family="Helvetica,sans-Serif" font-size="10.00">DSPI Master</text>
</a>
</g>
</g>
<!-- Node0&#45;&gt;Node7 -->
<g id="edge7" class="edge"><title>Node0&#45;&gt;Node7</title>
<path fill="none" stroke="blueviolet" stroke-dasharray="5,2" d="M114.678,-296.289C122.249,-271.83 146.461,-205.104 192.822,-175.5 198.32,-171.989 204.604,-169.017 210.777,-166.562"/>
<text text-anchor="middle" x="165.096" y="-212.5" font-family="Helvetica,sans-Serif" font-size="10.00">erpc</text>
</g>
<!-- Node12 -->
<g id="node16" class="node"><title>Node12</title>
<g id="a_node16"><a xlink:href="group__rpmsg__rtos__transport.html" target="_top" xlink:title="OpenAMP RPMsg RTOS layer transport. ">
<polygon fill="white" stroke="black" points="202.549,-111.5 202.549,-129.5 281.537,-129.5 281.537,-111.5 202.549,-111.5"/>
<text text-anchor="middle" x="242.043" y="-117.5" font-family="Helvetica,sans-Serif" font-size="10.00">RPMsg RTOS</text>
</a>
</g>
</g>
<!-- Node0&#45;&gt;Node12 -->
<g id="edge12" class="edge"><title>Node0&#45;&gt;Node12</title>
<path fill="none" stroke="blueviolet" stroke-dasharray="5,2" d="M113.715,-296.224C118.004,-274.284 130.766,-218.006 155.369,-177.5 167.845,-156.96 172.74,-151.699 192.822,-138.5 198.199,-134.966 204.365,-131.997 210.452,-129.553"/>
<text text-anchor="middle" x="165.096" y="-179.5" font-family="Helvetica,sans-Serif" font-size="10.00">erpc</text>
</g>
<!-- Node3 -->
<g id="node17" class="node"><title>Node3</title>
<g id="a_node17"><a xlink:href="group__infra__codec.html" target="_top" xlink:title="Classes used for message serialization. ">
<polygon fill="white" stroke="black" points="206.807,-74.5 206.807,-92.5 277.279,-92.5 277.279,-74.5 206.807,-74.5"/>
<text text-anchor="middle" x="242.043" y="-80.5" font-family="Helvetica,sans-Serif" font-size="10.00">Serialization</text>
</a>
</g>
</g>
<!-- Node0&#45;&gt;Node3 -->
<g id="edge3" class="edge"><title>Node0&#45;&gt;Node3</title>
<path fill="none" stroke="blueviolet" stroke-dasharray="5,2" d="M112.631,-296.467C114.734,-270.176 123.455,-192.115 155.369,-137.5 167.018,-117.565 173.278,-113.793 192.822,-101.5 198.42,-97.9794 204.81,-94.9902 211.068,-92.5192"/>
<text text-anchor="middle" x="165.096" y="-139.5" font-family="Helvetica,sans-Serif" font-size="10.00">erpc</text>
</g>
<!-- Node10 -->
<g id="node18" class="node"><title>Node10</title>
<g id="a_node18"><a xlink:href="group__rpmsg__lite__rtos__transport.html" target="_top" xlink:title="RPMsg&#45;Lite transport using RTOS API. ">
<polygon fill="white" stroke="black" points="192.822,-37.5 192.822,-55.5 291.264,-55.5 291.264,-37.5 192.822,-37.5"/>
<text text-anchor="middle" x="242.043" y="-43.5" font-family="Helvetica,sans-Serif" font-size="10.00">RPMsg&#45;Lite RTOS</text>
</a>
</g>
</g>
<!-- Node0&#45;&gt;Node10 -->
<g id="edge10" class="edge"><title>Node0&#45;&gt;Node10</title>
<path fill="none" stroke="blueviolet" stroke-dasharray="5,2" d="M112.093,-296.253C112.684,-266.085 117.586,-168.563 155.369,-100.5 166.575,-80.3132 173.278,-76.7925 192.822,-64.5 198.42,-60.9794 204.81,-57.9902 211.068,-55.5192"/>
<text text-anchor="middle" x="165.096" y="-102.5" font-family="Helvetica,sans-Serif" font-size="10.00">erpc</text>
</g>
<!-- Node11 -->
<g id="node19" class="node"><title>Node11</title>
<g id="a_node19"><a xlink:href="group__rpmsg__lite__transport.html" target="_top" xlink:title="RPMsg&#45;Lite transport. ">
<polygon fill="white" stroke="black" points="207.925,-0.5 207.925,-18.5 276.161,-18.5 276.161,-0.5 207.925,-0.5"/>
<text text-anchor="middle" x="242.043" y="-6.5" font-family="Helvetica,sans-Serif" font-size="10.00">RPMsg&#45;Lite</text>
</a>
</g>
</g>
<!-- Node0&#45;&gt;Node11 -->
<g id="edge11" class="edge"><title>Node0&#45;&gt;Node11</title>
<path fill="none" stroke="blueviolet" stroke-dasharray="5,2" d="M111.659,-296.452C110.694,-263.081 110.755,-144.579 155.369,-62.5 166.249,-42.483 173.452,-39.4938 192.822,-27.5 198.444,-24.0189 204.845,-21.0463 211.105,-18.579"/>
<text text-anchor="middle" x="165.096" y="-64.5" font-family="Helvetica,sans-Serif" font-size="10.00">erpc</text>
</g>
<!-- Node1 -->
<g id="node15" class="node"><title>Node1</title>
<g id="a_node15"><a xlink:href="group__port.html" target="_top" xlink:title="Porting layer. ">
<polygon fill="white" stroke="black" points="0,-296.5 0,-314.5 47.6846,-314.5 47.6846,-296.5 0,-296.5"/>
<text text-anchor="middle" x="23.8423" y="-302.5" font-family="Helvetica,sans-Serif" font-size="10.00">Porting</text>
</a>
</g>
</g>
<!-- Node1&#45;&gt;Node0 -->
<g id="edge1" class="edge"><title>Node1&#45;&gt;Node0</title>
<path fill="none" stroke="black" d="M58.3263,-305.5C66.993,-305.5 76.1876,-305.5 84.382,-305.5"/>
<polygon fill="black" stroke="black" points="58.1194,-302 48.1193,-305.5 58.1193,-309 58.1194,-302"/>
</g>
</g>
</svg>
