<?xml version="1.0" encoding="UTF-8" standalone="no"?>
<!DOCTYPE svg PUBLIC "-//W3C//DTD SVG 1.1//EN"
 "http://www.w3.org/Graphics/SVG/1.1/DTD/svg11.dtd">
<!-- Generated by graphviz version 2.38.0 (20140413.2041)
 -->
<!-- Title: SPI Slave Pages: 1 -->
<svg width="350pt" height="619pt"
 viewBox="0.00 0.00 350.03 619.00" xmlns="http://www.w3.org/2000/svg" xmlns:xlink="http://www.w3.org/1999/xlink">
<g id="graph0" class="graph" transform="scale(1 1) rotate(0) translate(4 615)">
<title>SPI Slave</title>
<polygon fill="white" stroke="none" points="-4,4 -4,-615 346.025,-615 346.025,4 -4,4"/>
<!-- Node1 -->
<g id="node1" class="node"><title>Node1</title>
<g id="a_node1"><a xlink:href="group__transports.html" target="_top" xlink:title="Transport layer classes. ">
<polygon fill="white" stroke="black" points="0,-296.5 0,-314.5 91.2197,-314.5 91.2197,-296.5 0,-296.5"/>
<text text-anchor="middle" x="45.6099" y="-302.5" font-family="Helvetica,sans-Serif" font-size="10.00">Transport Layers</text>
</a>
</g>
</g>
<!-- Node0 -->
<g id="node10" class="node"><title>Node0</title>
<polygon fill="#bfbfbf" stroke="black" points="128.22,-296.5 128.22,-314.5 188.131,-314.5 188.131,-296.5 128.22,-296.5"/>
<text text-anchor="middle" x="158.175" y="-302.5" font-family="Helvetica,sans-Serif" font-size="10.00">SPI Slave</text>
</g>
<!-- Node1&#45;&gt;Node0 -->
<g id="edge1" class="edge"><title>Node1&#45;&gt;Node0</title>
<path fill="none" stroke="black" d="M101.502,-305.5C110.624,-305.5 119.76,-305.5 127.916,-305.5"/>
<polygon fill="black" stroke="black" points="101.262,-302 91.2624,-305.5 101.262,-309 101.262,-302"/>
</g>
<!-- Node9 -->
<g id="node2" class="node"><title>Node9</title>
<g id="a_node2"><a xlink:href="group__dspi__slave__transport.html" target="_top" xlink:title="Kinetis SDK DSPI slave driver transport. ">
<polygon fill="white" stroke="black" points="259.238,-592.5 259.238,-610.5 326.371,-610.5 326.371,-592.5 259.238,-592.5"/>
<text text-anchor="middle" x="292.805" y="-598.5" font-family="Helvetica,sans-Serif" font-size="10.00">DSPI Slave</text>
</a>
</g>
</g>
<!-- Node7 -->
<g id="node3" class="node"><title>Node7</title>
<g id="a_node3"><a xlink:href="group__port__threads.html" target="_top" xlink:title="Threading model. ">
<polygon fill="white" stroke="black" points="266.462,-555.5 266.462,-573.5 319.147,-573.5 319.147,-555.5 266.462,-555.5"/>
<text text-anchor="middle" x="292.805" y="-561.5" font-family="Helvetica,sans-Serif" font-size="10.00">Threads</text>
</a>
</g>
</g>
<!-- Node17 -->
<g id="node4" class="node"><title>Node17</title>
<g id="a_node4"><a xlink:href="group__tcp__transport.html" target="_top" xlink:title="Simple TCP/IP transport. ">
<polygon fill="white" stroke="black" points="268.691,-518.5 268.691,-536.5 316.918,-536.5 316.918,-518.5 268.691,-518.5"/>
<text text-anchor="middle" x="292.805" y="-524.5" font-family="Helvetica,sans-Serif" font-size="10.00">TCP/IP</text>
</a>
</g>
</g>
<!-- Node14 -->
<g id="node5" class="node"><title>Node14</title>
<g id="a_node5"><a xlink:href="group__rpmsg__transport.html" target="_top" xlink:title="OpenAMP RPMsg transport. ">
<polygon fill="white" stroke="black" points="268.413,-481.5 268.413,-499.5 317.196,-499.5 317.196,-481.5 268.413,-481.5"/>
<text text-anchor="middle" x="292.805" y="-487.5" font-family="Helvetica,sans-Serif" font-size="10.00">RPMsg</text>
</a>
</g>
</g>
<!-- Node2 -->
<g id="node6" class="node"><title>Node2</title>
<g id="a_node6"><a xlink:href="group__infra__client.html" target="_top" xlink:title="Client classes. ">
<polygon fill="white" stroke="black" points="272.021,-444.5 272.021,-462.5 313.588,-462.5 313.588,-444.5 272.021,-444.5"/>
<text text-anchor="middle" x="292.805" y="-450.5" font-family="Helvetica,sans-Serif" font-size="10.00">Client</text>
</a>
</g>
</g>
<!-- Node4 -->
<g id="node7" class="node"><title>Node4</title>
<g id="a_node7"><a xlink:href="group__infra__transport.html" target="_top" xlink:title="Superclasses for building transports. ">
<polygon fill="white" stroke="black" points="261.091,-407.5 261.091,-425.5 324.518,-425.5 324.518,-407.5 261.091,-407.5"/>
<text text-anchor="middle" x="292.805" y="-413.5" font-family="Helvetica,sans-Serif" font-size="10.00">Transports</text>
</a>
</g>
</g>
<!-- Node15 -->
<g id="node8" class="node"><title>Node15</title>
<g id="a_node8"><a xlink:href="group__serial__transport.html" target="_top" xlink:title="POSIX and Win32 serial port transport. ">
<polygon fill="white" stroke="black" points="262.017,-370.5 262.017,-388.5 323.593,-388.5 323.593,-370.5 262.017,-370.5"/>
<text text-anchor="middle" x="292.805" y="-376.5" font-family="Helvetica,sans-Serif" font-size="10.00">Serial port</text>
</a>
</g>
</g>
<!-- Node5 -->
<g id="node9" class="node"><title>Node5</title>
<g id="a_node9"><a xlink:href="group__infra__utility.html" target="_top" xlink:title="Utility code used by the infrastructure. ">
<polygon fill="white" stroke="black" points="268.691,-333.5 268.691,-351.5 316.918,-351.5 316.918,-333.5 268.691,-333.5"/>
<text text-anchor="middle" x="292.805" y="-339.5" font-family="Helvetica,sans-Serif" font-size="10.00">Utilities</text>
</a>
</g>
</g>
<!-- Node0&#45;&gt;Node9 -->
<g id="edge9" class="edge"><title>Node0&#45;&gt;Node9</title>
<path fill="none" stroke="blueviolet" stroke-dasharray="5,2" d="M158.976,-314.554C158.625,-347.95 160.808,-466.525 206.131,-548.5 217.155,-568.438 224.214,-571.506 243.584,-583.5 249.206,-586.981 255.607,-589.954 261.867,-592.421"/>
<text text-anchor="middle" x="215.857" y="-573.5" font-family="Helvetica,sans-Serif" font-size="10.00">erpc</text>
</g>
<!-- Node0&#45;&gt;Node7 -->
<g id="edge7" class="edge"><title>Node0&#45;&gt;Node7</title>
<path fill="none" stroke="blueviolet" stroke-dasharray="5,2" d="M159.444,-314.753C160.687,-344.937 167.635,-442.506 206.131,-510.5 217.506,-530.592 224.04,-534.207 243.584,-546.5 250.543,-550.877 258.728,-554.433 266.359,-557.192"/>
<text text-anchor="middle" x="215.857" y="-536.5" font-family="Helvetica,sans-Serif" font-size="10.00">erpc</text>
</g>
<!-- Node0&#45;&gt;Node17 -->
<g id="edge17" class="edge"><title>Node0&#45;&gt;Node17</title>
<path fill="none" stroke="blueviolet" stroke-dasharray="5,2" d="M160.109,-314.837C163.094,-341.282 174.159,-418.279 206.131,-472.5 218.016,-492.656 223.863,-496.907 243.584,-509.5 251.115,-514.309 260.121,-518.108 268.299,-520.952"/>
<text text-anchor="middle" x="215.857" y="-498.5" font-family="Helvetica,sans-Serif" font-size="10.00">erpc</text>
</g>
<!-- Node0&#45;&gt;Node14 -->
<g id="edge14" class="edge"><title>Node0&#45;&gt;Node14</title>
<path fill="none" stroke="blueviolet" stroke-dasharray="5,2" d="M161.18,-314.77C166.208,-336.697 180.798,-392.948 206.131,-433.5 218.863,-453.882 223.501,-459.301 243.584,-472.5 251.051,-477.408 260.043,-481.228 268.228,-484.061"/>
<text text-anchor="middle" x="215.857" y="-460.5" font-family="Helvetica,sans-Serif" font-size="10.00">erpc</text>
</g>
<!-- Node0&#45;&gt;Node2 -->
<g id="edge2" class="edge"><title>Node0&#45;&gt;Node2</title>
<path fill="none" stroke="blueviolet" stroke-dasharray="5,2" d="M162.109,-314.67C170.423,-339.027 196.636,-405.521 243.584,-435.5 252.17,-440.983 262.671,-445.152 271.679,-448.09"/>
<text text-anchor="middle" x="215.857" y="-421.5" font-family="Helvetica,sans-Serif" font-size="10.00">erpc</text>
</g>
<!-- Node0&#45;&gt;Node4 -->
<g id="edge4" class="edge"><title>Node0&#45;&gt;Node4</title>
<path fill="none" stroke="blueviolet" stroke-dasharray="5,2" d="M164.897,-314.767C176.997,-333.562 207.087,-376.265 243.584,-398.5 249.307,-401.987 255.816,-404.976 262.159,-407.459"/>
<text text-anchor="middle" x="215.857" y="-386.5" font-family="Helvetica,sans-Serif" font-size="10.00">erpc</text>
</g>
<!-- Node0&#45;&gt;Node15 -->
<g id="edge15" class="edge"><title>Node0&#45;&gt;Node15</title>
<path fill="none" stroke="blueviolet" stroke-dasharray="5,2" d="M170.603,-314.512C186.303,-326.547 215.768,-347.926 243.584,-361.5 250.249,-364.753 257.662,-367.788 264.636,-370.406"/>
<text text-anchor="middle" x="215.857" y="-352.5" font-family="Helvetica,sans-Serif" font-size="10.00">erpc</text>
</g>
<!-- Node0&#45;&gt;Node5 -->
<g id="edge5" class="edge"><title>Node0&#45;&gt;Node5</title>
<path fill="none" stroke="blueviolet" stroke-dasharray="5,2" d="M188.195,-314.288C194.12,-316.044 200.32,-317.854 206.131,-319.5 227.172,-325.46 251.231,-331.885 268.485,-336.425"/>
<text text-anchor="middle" x="215.857" y="-326.5" font-family="Helvetica,sans-Serif" font-size="10.00">erpc</text>
</g>
<!-- Node18 -->
<g id="node11" class="node"><title>Node18</title>
<g id="a_node11"><a xlink:href="group__uart__transport.html" target="_top" xlink:title="CMSIS UART driver transport. ">
<polygon fill="white" stroke="black" points="254.058,-296.5 254.058,-314.5 331.552,-314.5 331.552,-296.5 254.058,-296.5"/>
<text text-anchor="middle" x="292.805" y="-302.5" font-family="Helvetica,sans-Serif" font-size="10.00">CMSIS UART</text>
</a>
</g>
</g>
<!-- Node0&#45;&gt;Node18 -->
<g id="edge18" class="edge"><title>Node0&#45;&gt;Node18</title>
<path fill="none" stroke="blueviolet" stroke-dasharray="5,2" d="M188.281,-305.5C207.497,-305.5 232.876,-305.5 253.696,-305.5"/>
<text text-anchor="middle" x="215.857" y="-307.5" font-family="Helvetica,sans-Serif" font-size="10.00">erpc</text>
</g>
<!-- Node16 -->
<g id="node12" class="node"><title>Node16</title>
<g id="a_node12"><a xlink:href="group__spi__master__transport.html" target="_top" xlink:title="Kinetis SDK SPI master driver transport. ">
<polygon fill="white" stroke="black" points="260.076,-259.5 260.076,-277.5 325.534,-277.5 325.534,-259.5 260.076,-259.5"/>
<text text-anchor="middle" x="292.805" y="-265.5" font-family="Helvetica,sans-Serif" font-size="10.00">SPI Master</text>
</a>
</g>
</g>
<!-- Node0&#45;&gt;Node16 -->
<g id="edge16" class="edge"><title>Node0&#45;&gt;Node16</title>
<path fill="none" stroke="blueviolet" stroke-dasharray="5,2" d="M188.195,-296.712C194.12,-294.956 200.32,-293.146 206.131,-291.5 223.912,-286.463 243.848,-281.095 260.012,-276.812"/>
<text text-anchor="middle" x="215.857" y="-293.5" font-family="Helvetica,sans-Serif" font-size="10.00">erpc</text>
</g>
<!-- Node6 -->
<g id="node13" class="node"><title>Node6</title>
<g id="a_node13"><a xlink:href="group__infra__server.html" target="_top" xlink:title="Server classes. ">
<polygon fill="white" stroke="black" points="270.078,-222.5 270.078,-240.5 315.531,-240.5 315.531,-222.5 270.078,-222.5"/>
<text text-anchor="middle" x="292.805" y="-228.5" font-family="Helvetica,sans-Serif" font-size="10.00">Server</text>
</a>
</g>
</g>
<!-- Node0&#45;&gt;Node6 -->
<g id="edge6" class="edge"><title>Node0&#45;&gt;Node6</title>
<path fill="none" stroke="blueviolet" stroke-dasharray="5,2" d="M170.876,-296.447C180.219,-289.361 193.751,-279.416 206.131,-271.5 222.209,-261.22 226.344,-258.683 243.584,-250.5 252.038,-246.487 261.581,-242.599 269.934,-239.396"/>
<text text-anchor="middle" x="215.857" y="-273.5" font-family="Helvetica,sans-Serif" font-size="10.00">erpc</text>
</g>
<!-- Node10 -->
<g id="node14" class="node"><title>Node10</title>
<g id="a_node14"><a xlink:href="group__itbp__transport.html" target="_top" xlink:title="Simple inter&#45;thread communications transport. ">
<polygon fill="white" stroke="black" points="258.958,-185.5 258.958,-203.5 326.652,-203.5 326.652,-185.5 258.958,-185.5"/>
<text text-anchor="middle" x="292.805" y="-191.5" font-family="Helvetica,sans-Serif" font-size="10.00">Inter&#45;thread</text>
</a>
</g>
</g>
<!-- Node0&#45;&gt;Node10 -->
<g id="edge10" class="edge"><title>Node0&#45;&gt;Node10</title>
<path fill="none" stroke="blueviolet" stroke-dasharray="5,2" d="M164.911,-296.315C177.036,-277.688 207.17,-235.387 243.584,-213.5 249.985,-209.653 257.304,-206.303 264.274,-203.532"/>
<text text-anchor="middle" x="215.857" y="-245.5" font-family="Helvetica,sans-Serif" font-size="10.00">erpc</text>
</g>
<!-- Node8 -->
<g id="node15" class="node"><title>Node8</title>
<g id="a_node15"><a xlink:href="group__dspi__master__transport.html" target="_top" xlink:title="Kinetis SDK DSPI master driver transport. ">
<polygon fill="white" stroke="black" points="256.465,-148.5 256.465,-166.5 329.145,-166.5 329.145,-148.5 256.465,-148.5"/>
<text text-anchor="middle" x="292.805" y="-154.5" font-family="Helvetica,sans-Serif" font-size="10.00">DSPI Master</text>
</a>
</g>
</g>
<!-- Node0&#45;&gt;Node8 -->
<g id="edge8" class="edge"><title>Node0&#45;&gt;Node8</title>
<path fill="none" stroke="blueviolet" stroke-dasharray="5,2" d="M162.144,-296.419C170.546,-272.297 196.955,-206.419 243.584,-176.5 249.643,-172.613 256.624,-169.299 263.359,-166.581"/>
<text text-anchor="middle" x="215.857" y="-212.5" font-family="Helvetica,sans-Serif" font-size="10.00">erpc</text>
</g>
<!-- Node13 -->
<g id="node16" class="node"><title>Node13</title>
<g id="a_node16"><a xlink:href="group__rpmsg__rtos__transport.html" target="_top" xlink:title="OpenAMP RPMsg RTOS layer transport. ">
<polygon fill="white" stroke="black" points="253.311,-111.5 253.311,-129.5 332.299,-129.5 332.299,-111.5 253.311,-111.5"/>
<text text-anchor="middle" x="292.805" y="-117.5" font-family="Helvetica,sans-Serif" font-size="10.00">RPMsg RTOS</text>
</a>
</g>
</g>
<!-- Node0&#45;&gt;Node13 -->
<g id="edge13" class="edge"><title>Node0&#45;&gt;Node13</title>
<path fill="none" stroke="blueviolet" stroke-dasharray="5,2" d="M161.145,-296.208C166.097,-274.233 180.536,-217.886 206.131,-177.5 218.825,-157.47 223.801,-152.575 243.584,-139.5 249.514,-135.581 256.377,-132.271 263.031,-129.568"/>
<text text-anchor="middle" x="215.857" y="-179.5" font-family="Helvetica,sans-Serif" font-size="10.00">erpc</text>
</g>
<!-- Node3 -->
<g id="node17" class="node"><title>Node3</title>
<g id="a_node17"><a xlink:href="group__infra__codec.html" target="_top" xlink:title="Classes used for message serialization. ">
<polygon fill="white" stroke="black" points="257.568,-74.5 257.568,-92.5 328.041,-92.5 328.041,-74.5 257.568,-74.5"/>
<text text-anchor="middle" x="292.805" y="-80.5" font-family="Helvetica,sans-Serif" font-size="10.00">Serialization</text>
</a>
</g>
</g>
<!-- Node0&#45;&gt;Node3 -->
<g id="edge3" class="edge"><title>Node0&#45;&gt;Node3</title>
<path fill="none" stroke="blueviolet" stroke-dasharray="5,2" d="M160.072,-296.14C162.958,-269.637 173.788,-192.5 206.131,-138.5 217.994,-118.692 224.152,-114.969 243.584,-102.5 249.643,-98.6126 256.624,-95.2993 263.359,-92.581"/>
<text text-anchor="middle" x="215.857" y="-140.5" font-family="Helvetica,sans-Serif" font-size="10.00">erpc</text>
</g>
<!-- Node11 -->
<g id="node18" class="node"><title>Node11</title>
<g id="a_node18"><a xlink:href="group__rpmsg__lite__rtos__transport.html" target="_top" xlink:title="RPMsg&#45;Lite transport using RTOS API. ">
<polygon fill="white" stroke="black" points="243.584,-37.5 243.584,-55.5 342.025,-55.5 342.025,-37.5 243.584,-37.5"/>
<text text-anchor="middle" x="292.805" y="-43.5" font-family="Helvetica,sans-Serif" font-size="10.00">RPMsg&#45;Lite RTOS</text>
</a>
</g>
</g>
<!-- Node0&#45;&gt;Node11 -->
<g id="edge11" class="edge"><title>Node0&#45;&gt;Node11</title>
<path fill="none" stroke="blueviolet" stroke-dasharray="5,2" d="M159.405,-296.225C160.531,-265.973 167.157,-168.222 206.131,-100.5 217.495,-80.7536 224.323,-77.6684 243.584,-65.5 249.746,-61.6072 256.836,-58.2757 263.65,-55.54"/>
<text text-anchor="middle" x="215.857" y="-102.5" font-family="Helvetica,sans-Serif" font-size="10.00">erpc</text>
</g>
<!-- Node12 -->
<g id="node19" class="node"><title>Node12</title>
<g id="a_node19"><a xlink:href="group__rpmsg__lite__transport.html" target="_top" xlink:title="RPMsg&#45;Lite transport. ">
<polygon fill="white" stroke="black" points="258.687,-0.5 258.687,-18.5 326.923,-18.5 326.923,-0.5 258.687,-0.5"/>
<text text-anchor="middle" x="292.805" y="-6.5" font-family="Helvetica,sans-Serif" font-size="10.00">RPMsg&#45;Lite</text>
</a>
</g>
</g>
<!-- Node0&#45;&gt;Node12 -->
<g id="edge12" class="edge"><title>Node0&#45;&gt;Node12</title>
<path fill="none" stroke="blueviolet" stroke-dasharray="5,2" d="M158.937,-296.424C158.45,-262.952 160.217,-144.145 206.131,-62.5 218.39,-40.7 243.686,-26.7173 263.629,-18.6206"/>
<text text-anchor="middle" x="215.857" y="-64.5" font-family="Helvetica,sans-Serif" font-size="10.00">erpc</text>
</g>
</g>
</svg>
