<?xml version="1.0" encoding="UTF-8" standalone="no"?>
<!DOCTYPE svg PUBLIC "-//W3C//DTD SVG 1.1//EN"
 "http://www.w3.org/Graphics/SVG/1.1/DTD/svg11.dtd">
<!-- Generated by graphviz version 2.38.0 (20140413.2041)
 -->
<!-- Title: RPMsg&#45;Lite Pages: 1 -->
<svg width="439pt" height="639pt"
 viewBox="0.00 0.00 439.12 639.11" xmlns="http://www.w3.org/2000/svg" xmlns:xlink="http://www.w3.org/1999/xlink">
<g id="graph0" class="graph" transform="scale(1 1) rotate(0) translate(4 635.112)">
<title>RPMsg&#45;Lite</title>
<polygon fill="white" stroke="none" points="-4,4 -4,-635.112 435.117,-635.112 435.117,4 -4,4"/>
<!-- Node1 -->
<g id="node1" class="node"><title>Node1</title>
<g id="a_node1"><a xlink:href="group__transports.html" target="_top" xlink:title="Transport layer classes. ">
<polygon fill="white" stroke="black" points="0,-320.112 0,-338.112 91.2197,-338.112 91.2197,-320.112 0,-320.112"/>
<text text-anchor="middle" x="45.6099" y="-326.112" font-family="Helvetica,sans-Serif" font-size="10.00">Transport Layers</text>
</a>
</g>
</g>
<!-- Node0 -->
<g id="node19" class="node"><title>Node0</title>
<polygon fill="#bfbfbf" stroke="black" points="128.22,-320.112 128.22,-338.112 196.456,-338.112 196.456,-320.112 128.22,-320.112"/>
<text text-anchor="middle" x="162.338" y="-326.112" font-family="Helvetica,sans-Serif" font-size="10.00">RPMsg&#45;Lite</text>
</g>
<!-- Node1&#45;&gt;Node0 -->
<g id="edge1" class="edge"><title>Node1&#45;&gt;Node0</title>
<path fill="none" stroke="black" d="M101.44,-329.112C110.501,-329.112 119.646,-329.112 127.968,-329.112"/>
<polygon fill="black" stroke="black" points="101.295,-325.612 91.2952,-329.112 101.295,-332.612 101.295,-325.612"/>
</g>
<!-- Node10 -->
<g id="node2" class="node"><title>Node10</title>
<g id="a_node2"><a xlink:href="group__dspi__slave__transport.html" target="_top" xlink:title="Kinetis SDK DSPI slave driver transport. ">
<polygon fill="white" stroke="black" points="348.33,-607.112 348.33,-625.112 415.463,-625.112 415.463,-607.112 348.33,-607.112"/>
<text text-anchor="middle" x="381.896" y="-613.112" font-family="Helvetica,sans-Serif" font-size="10.00">DSPI Slave</text>
</a>
</g>
</g>
<!-- Node8 -->
<g id="node3" class="node"><title>Node8</title>
<g id="a_node3"><a xlink:href="group__port__threads.html" target="_top" xlink:title="Threading model. ">
<polygon fill="white" stroke="black" points="355.554,-570.112 355.554,-588.112 408.239,-588.112 408.239,-570.112 355.554,-570.112"/>
<text text-anchor="middle" x="381.896" y="-576.112" font-family="Helvetica,sans-Serif" font-size="10.00">Threads</text>
</a>
</g>
</g>
<!-- Node17 -->
<g id="node4" class="node"><title>Node17</title>
<g id="a_node4"><a xlink:href="group__tcp__transport.html" target="_top" xlink:title="Simple TCP/IP transport. ">
<polygon fill="white" stroke="black" points="357.783,-533.112 357.783,-551.112 406.01,-551.112 406.01,-533.112 357.783,-533.112"/>
<text text-anchor="middle" x="381.896" y="-539.112" font-family="Helvetica,sans-Serif" font-size="10.00">TCP/IP</text>
</a>
</g>
</g>
<!-- Node2 -->
<g id="node5" class="node"><title>Node2</title>
<g id="a_node5"><a xlink:href="group__rpmsg__transport.html" target="_top" xlink:title="OpenAMP RPMsg transport. ">
<polygon fill="white" stroke="black" points="357.505,-493.112 357.505,-511.112 406.288,-511.112 406.288,-493.112 357.505,-493.112"/>
<text text-anchor="middle" x="381.896" y="-499.112" font-family="Helvetica,sans-Serif" font-size="10.00">RPMsg</text>
</a>
</g>
</g>
<!-- Node3 -->
<g id="node6" class="node"><title>Node3</title>
<g id="a_node6"><a xlink:href="group__infra__client.html" target="_top" xlink:title="Client classes. ">
<polygon fill="white" stroke="black" points="361.113,-452.112 361.113,-470.112 402.68,-470.112 402.68,-452.112 361.113,-452.112"/>
<text text-anchor="middle" x="381.896" y="-458.112" font-family="Helvetica,sans-Serif" font-size="10.00">Client</text>
</a>
</g>
</g>
<!-- Node5 -->
<g id="node7" class="node"><title>Node5</title>
<g id="a_node7"><a xlink:href="group__infra__transport.html" target="_top" xlink:title="Superclasses for building transports. ">
<polygon fill="white" stroke="black" points="350.183,-415.112 350.183,-433.112 413.61,-433.112 413.61,-415.112 350.183,-415.112"/>
<text text-anchor="middle" x="381.896" y="-421.112" font-family="Helvetica,sans-Serif" font-size="10.00">Transports</text>
</a>
</g>
</g>
<!-- Node14 -->
<g id="node8" class="node"><title>Node14</title>
<g id="a_node8"><a xlink:href="group__serial__transport.html" target="_top" xlink:title="POSIX and Win32 serial port transport. ">
<polygon fill="white" stroke="black" points="351.108,-378.112 351.108,-396.112 412.685,-396.112 412.685,-378.112 351.108,-378.112"/>
<text text-anchor="middle" x="381.896" y="-384.112" font-family="Helvetica,sans-Serif" font-size="10.00">Serial port</text>
</a>
</g>
</g>
<!-- Node6 -->
<g id="node9" class="node"><title>Node6</title>
<g id="a_node9"><a xlink:href="group__infra__utility.html" target="_top" xlink:title="Utility code used by the infrastructure. ">
<polygon fill="white" stroke="black" points="357.783,-341.112 357.783,-359.112 406.01,-359.112 406.01,-341.112 357.783,-341.112"/>
<text text-anchor="middle" x="381.896" y="-347.112" font-family="Helvetica,sans-Serif" font-size="10.00">Utilities</text>
</a>
</g>
</g>
<!-- Node16 -->
<g id="node10" class="node"><title>Node16</title>
<g id="a_node10"><a xlink:href="group__spi__slave__transport.html" target="_top" xlink:title="Kinetis SDK SPI slave driver transport. ">
<polygon fill="white" stroke="black" points="351.941,-304.112 351.941,-322.112 411.852,-322.112 411.852,-304.112 351.941,-304.112"/>
<text text-anchor="middle" x="381.896" y="-310.112" font-family="Helvetica,sans-Serif" font-size="10.00">SPI Slave</text>
</a>
</g>
</g>
<!-- Node18 -->
<g id="node11" class="node"><title>Node18</title>
<g id="a_node11"><a xlink:href="group__uart__transport.html" target="_top" xlink:title="CMSIS UART driver transport. ">
<polygon fill="white" stroke="black" points="343.149,-267.112 343.149,-285.112 420.644,-285.112 420.644,-267.112 343.149,-267.112"/>
<text text-anchor="middle" x="381.896" y="-273.112" font-family="Helvetica,sans-Serif" font-size="10.00">CMSIS UART</text>
</a>
</g>
</g>
<!-- Node15 -->
<g id="node12" class="node"><title>Node15</title>
<g id="a_node12"><a xlink:href="group__spi__master__transport.html" target="_top" xlink:title="Kinetis SDK SPI master driver transport. ">
<polygon fill="white" stroke="black" points="349.167,-230.112 349.167,-248.112 414.625,-248.112 414.625,-230.112 349.167,-230.112"/>
<text text-anchor="middle" x="381.896" y="-236.112" font-family="Helvetica,sans-Serif" font-size="10.00">SPI Master</text>
</a>
</g>
</g>
<!-- Node7 -->
<g id="node13" class="node"><title>Node7</title>
<g id="a_node13"><a xlink:href="group__infra__server.html" target="_top" xlink:title="Server classes. ">
<polygon fill="white" stroke="black" points="359.17,-193.112 359.17,-211.112 404.623,-211.112 404.623,-193.112 359.17,-193.112"/>
<text text-anchor="middle" x="381.896" y="-199.112" font-family="Helvetica,sans-Serif" font-size="10.00">Server</text>
</a>
</g>
</g>
<!-- Node11 -->
<g id="node14" class="node"><title>Node11</title>
<g id="a_node14"><a xlink:href="group__itbp__transport.html" target="_top" xlink:title="Simple inter&#45;thread communications transport. ">
<polygon fill="white" stroke="black" points="348.049,-156.112 348.049,-174.112 415.744,-174.112 415.744,-156.112 348.049,-156.112"/>
<text text-anchor="middle" x="381.896" y="-162.112" font-family="Helvetica,sans-Serif" font-size="10.00">Inter&#45;thread</text>
</a>
</g>
</g>
<!-- Node9 -->
<g id="node15" class="node"><title>Node9</title>
<g id="a_node15"><a xlink:href="group__dspi__master__transport.html" target="_top" xlink:title="Kinetis SDK DSPI master driver transport. ">
<polygon fill="white" stroke="black" points="345.557,-119.112 345.557,-137.112 418.236,-137.112 418.236,-119.112 345.557,-119.112"/>
<text text-anchor="middle" x="381.896" y="-125.112" font-family="Helvetica,sans-Serif" font-size="10.00">DSPI Master</text>
</a>
</g>
</g>
<!-- Node13 -->
<g id="node16" class="node"><title>Node13</title>
<g id="a_node16"><a xlink:href="group__rpmsg__rtos__transport.html" target="_top" xlink:title="OpenAMP RPMsg RTOS layer transport. ">
<polygon fill="white" stroke="black" points="342.402,-82.1117 342.402,-100.112 421.391,-100.112 421.391,-82.1117 342.402,-82.1117"/>
<text text-anchor="middle" x="381.896" y="-88.1117" font-family="Helvetica,sans-Serif" font-size="10.00">RPMsg RTOS</text>
</a>
</g>
</g>
<!-- Node4 -->
<g id="node17" class="node"><title>Node4</title>
<g id="a_node17"><a xlink:href="group__infra__codec.html" target="_top" xlink:title="Classes used for message serialization. ">
<polygon fill="white" stroke="black" points="346.66,-45.1117 346.66,-63.1117 417.133,-63.1117 417.133,-45.1117 346.66,-45.1117"/>
<text text-anchor="middle" x="381.896" y="-51.1117" font-family="Helvetica,sans-Serif" font-size="10.00">Serialization</text>
</a>
</g>
</g>
<!-- Node12 -->
<g id="node18" class="node"><title>Node12</title>
<g id="a_node18"><a xlink:href="group__rpmsg__lite__rtos__transport.html" target="_top" xlink:title="RPMsg&#45;Lite transport using RTOS API. ">
<polygon fill="white" stroke="black" points="332.676,-8.11169 332.676,-26.1117 431.117,-26.1117 431.117,-8.11169 332.676,-8.11169"/>
<text text-anchor="middle" x="381.896" y="-14.1117" font-family="Helvetica,sans-Serif" font-size="10.00">RPMsg&#45;Lite RTOS</text>
</a>
</g>
</g>
<!-- Node0&#45;&gt;Node10 -->
<g id="edge10" class="edge"><title>Node0&#45;&gt;Node10</title>
<path fill="none" stroke="blueviolet" stroke-dasharray="5,2" d="M163.783,-338.322C166.01,-380.325 177.339,-553.211 214.456,-589.112 249.911,-623.405 310.8,-624.251 348.281,-620.824"/>
<text text-anchor="middle" x="264.566" y="-623.112" font-family="Helvetica,sans-Serif" font-size="10.00">erpc</text>
</g>
<!-- Node0&#45;&gt;Node8 -->
<g id="edge8" class="edge"><title>Node0&#45;&gt;Node8</title>
<path fill="none" stroke="blueviolet" stroke-dasharray="5,2" d="M164.09,-338.317C167.415,-376.638 182.081,-522.909 214.456,-553.112 234.451,-571.765 314.045,-577.04 355.498,-578.529"/>
<text text-anchor="middle" x="264.566" y="-577.112" font-family="Helvetica,sans-Serif" font-size="10.00">erpc</text>
</g>
<!-- Node0&#45;&gt;Node17 -->
<g id="edge18" class="edge"><title>Node0&#45;&gt;Node17</title>
<path fill="none" stroke="blueviolet" stroke-dasharray="5,2" d="M164.487,-338.268C168.993,-372.662 186.595,-493.431 214.456,-518.112 235.217,-536.502 316.843,-540.815 357.552,-541.816"/>
<text text-anchor="middle" x="264.566" y="-541.112" font-family="Helvetica,sans-Serif" font-size="10.00">erpc</text>
</g>
<!-- Node0&#45;&gt;Node2 -->
<g id="edge2" class="edge"><title>Node0&#45;&gt;Node2</title>
<path fill="none" stroke="orange" stroke-dasharray="5,2" d="M163.054,-338.265C162.739,-366.193 165.99,-450.733 214.456,-489.112 235.986,-506.16 316.842,-505.092 357.396,-503.387"/>
<text text-anchor="middle" x="264.566" y="-506.112" font-family="Helvetica,sans-Serif" font-size="10.00">erpc::RPMsgTransport</text>
</g>
<!-- Node0&#45;&gt;Node2 -->
<g id="edge14" class="edge"><title>Node0&#45;&gt;Node2</title>
<path fill="none" stroke="blueviolet" stroke-dasharray="5,2" d="M164.148,-338.135C166.754,-361.525 177.075,-424.491 214.456,-456.112 249.273,-485.563 270.873,-465.426 314.676,-478.112 329.358,-482.364 345.49,-488.185 358.156,-493.03"/>
<text text-anchor="middle" x="264.566" y="-480.112" font-family="Helvetica,sans-Serif" font-size="10.00">erpc</text>
</g>
<!-- Node0&#45;&gt;Node3 -->
<g id="edge3" class="edge"><title>Node0&#45;&gt;Node3</title>
<path fill="none" stroke="blueviolet" stroke-dasharray="5,2" d="M165.585,-338.266C170.742,-357.257 185.292,-401.006 214.456,-423.112 214.826,-423.392 316.712,-446.543 360.872,-456.568"/>
<text text-anchor="middle" x="264.566" y="-447.112" font-family="Helvetica,sans-Serif" font-size="10.00">erpc</text>
</g>
<!-- Node0&#45;&gt;Node5 -->
<g id="edge5" class="edge"><title>Node0&#45;&gt;Node5</title>
<path fill="none" stroke="blueviolet" stroke-dasharray="5,2" d="M168.267,-338.229C176.13,-351.838 192.854,-377.239 214.456,-390.112 225.984,-396.981 305.245,-411.268 350.104,-418.953"/>
<text text-anchor="middle" x="264.566" y="-414.112" font-family="Helvetica,sans-Serif" font-size="10.00">erpc</text>
</g>
<!-- Node0&#45;&gt;Node14 -->
<g id="edge15" class="edge"><title>Node0&#45;&gt;Node14</title>
<path fill="none" stroke="blueviolet" stroke-dasharray="5,2" d="M177.086,-338.241C187.064,-344.46 201.099,-352.391 214.456,-357.112 239.094,-365.819 309.937,-376.922 350.82,-382.879"/>
<text text-anchor="middle" x="264.566" y="-378.112" font-family="Helvetica,sans-Serif" font-size="10.00">erpc</text>
</g>
<!-- Node0&#45;&gt;Node6 -->
<g id="edge6" class="edge"><title>Node0&#45;&gt;Node6</title>
<path fill="none" stroke="blueviolet" stroke-dasharray="5,2" d="M196.855,-332.347C241.433,-336.65 319.087,-344.145 357.709,-347.873"/>
<text text-anchor="middle" x="264.566" y="-345.112" font-family="Helvetica,sans-Serif" font-size="10.00">erpc</text>
</g>
<!-- Node0&#45;&gt;Node16 -->
<g id="edge17" class="edge"><title>Node0&#45;&gt;Node16</title>
<path fill="none" stroke="blueviolet" stroke-dasharray="5,2" d="M189.03,-320.052C197.068,-317.632 206.037,-315.347 214.456,-314.112 262.202,-307.105 318.483,-308.814 351.846,-310.85"/>
<text text-anchor="middle" x="264.566" y="-316.112" font-family="Helvetica,sans-Serif" font-size="10.00">erpc</text>
</g>
<!-- Node0&#45;&gt;Node18 -->
<g id="edge19" class="edge"><title>Node0&#45;&gt;Node18</title>
<path fill="none" stroke="blueviolet" stroke-dasharray="5,2" d="M173.44,-319.925C183.179,-311.653 198.718,-299.929 214.456,-294.112 256.575,-278.543 308.478,-275.21 343.014,-275.015"/>
<text text-anchor="middle" x="264.566" y="-296.112" font-family="Helvetica,sans-Serif" font-size="10.00">erpc</text>
</g>
<!-- Node0&#45;&gt;Node15 -->
<g id="edge16" class="edge"><title>Node0&#45;&gt;Node15</title>
<path fill="none" stroke="blueviolet" stroke-dasharray="5,2" d="M167.394,-319.748C174.5,-304.588 190.737,-274.971 214.456,-261.112 256.232,-236.702 313.813,-234.698 349.137,-236.306"/>
<text text-anchor="middle" x="264.566" y="-263.112" font-family="Helvetica,sans-Serif" font-size="10.00">erpc</text>
</g>
<!-- Node0&#45;&gt;Node7 -->
<g id="edge7" class="edge"><title>Node0&#45;&gt;Node7</title>
<path fill="none" stroke="blueviolet" stroke-dasharray="5,2" d="M164.691,-320.073C168.374,-298.959 180.667,-246.355 214.456,-222.112 257.967,-190.894 324.914,-194.22 359.13,-198.56"/>
<text text-anchor="middle" x="264.566" y="-224.112" font-family="Helvetica,sans-Serif" font-size="10.00">erpc</text>
</g>
<!-- Node0&#45;&gt;Node11 -->
<g id="edge11" class="edge"><title>Node0&#45;&gt;Node11</title>
<path fill="none" stroke="blueviolet" stroke-dasharray="5,2" d="M163.352,-319.914C163.94,-293.395 169.606,-216.429 214.456,-181.112 252.43,-151.21 311.414,-153.436 348.015,-158.647"/>
<text text-anchor="middle" x="264.566" y="-183.112" font-family="Helvetica,sans-Serif" font-size="10.00">erpc</text>
</g>
<!-- Node0&#45;&gt;Node9 -->
<g id="edge9" class="edge"><title>Node0&#45;&gt;Node9</title>
<path fill="none" stroke="blueviolet" stroke-dasharray="5,2" d="M164.445,-319.946C168.801,-285.523 185.93,-164.734 214.456,-141.112 250.844,-110.98 308.371,-113.949 345.365,-120.082"/>
<text text-anchor="middle" x="264.566" y="-143.112" font-family="Helvetica,sans-Serif" font-size="10.00">erpc</text>
</g>
<!-- Node0&#45;&gt;Node13 -->
<g id="edge13" class="edge"><title>Node0&#45;&gt;Node13</title>
<path fill="none" stroke="blueviolet" stroke-dasharray="5,2" d="M163.969,-319.923C166.846,-280.999 180.088,-130.362 214.456,-101.112 250.499,-70.4357 308.394,-74.8645 345.527,-82.07"/>
<text text-anchor="middle" x="264.566" y="-103.112" font-family="Helvetica,sans-Serif" font-size="10.00">erpc</text>
</g>
<!-- Node0&#45;&gt;Node4 -->
<g id="edge4" class="edge"><title>Node0&#45;&gt;Node4</title>
<path fill="none" stroke="blueviolet" stroke-dasharray="5,2" d="M163.641,-319.845C165.257,-276.792 174.358,-96.9153 214.456,-62.1117 251.269,-30.1593 311.728,-36.8034 348.757,-45.0781"/>
<text text-anchor="middle" x="264.566" y="-64.1117" font-family="Helvetica,sans-Serif" font-size="10.00">erpc</text>
</g>
<!-- Node0&#45;&gt;Node12 -->
<g id="edge12" class="edge"><title>Node0&#45;&gt;Node12</title>
<path fill="none" stroke="blueviolet" stroke-dasharray="5,2" d="M163.399,-319.809C163.915,-273.063 168.779,-64.4482 214.456,-24.1117 251.526,8.62432 313.336,0.750344 350.294,-8.08745"/>
<text text-anchor="middle" x="264.566" y="-26.1117" font-family="Helvetica,sans-Serif" font-size="10.00">erpc</text>
</g>
</g>
</svg>
