<?xml version="1.0" encoding="UTF-8" standalone="no"?>
<!DOCTYPE svg PUBLIC "-//W3C//DTD SVG 1.1//EN"
 "http://www.w3.org/Graphics/SVG/1.1/DTD/svg11.dtd">
<!-- Generated by graphviz version 2.38.0 (20140413.2041)
 -->
<!-- Title: Server Pages: 1 -->
<svg width="319pt" height="619pt"
 viewBox="0.00 0.00 319.26 619.00" xmlns="http://www.w3.org/2000/svg" xmlns:xlink="http://www.w3.org/1999/xlink">
<g id="graph0" class="graph" transform="scale(1 1) rotate(0) translate(4 615)">
<title>Server</title>
<polygon fill="white" stroke="none" points="-4,4 -4,-615 315.259,-615 315.259,4 -4,4"/>
<!-- Node8 -->
<g id="node1" class="node"><title>Node8</title>
<g id="a_node1"><a xlink:href="group__dspi__slave__transport.html" target="_top" xlink:title="Kinetis SDK DSPI slave driver transport. ">
<polygon fill="white" stroke="black" points="228.472,-592.5 228.472,-610.5 295.604,-610.5 295.604,-592.5 228.472,-592.5"/>
<text text-anchor="middle" x="262.038" y="-598.5" font-family="Helvetica,sans-Serif" font-size="10.00">DSPI Slave</text>
</a>
</g>
</g>
<!-- Node6 -->
<g id="node2" class="node"><title>Node6</title>
<g id="a_node2"><a xlink:href="group__port__threads.html" target="_top" xlink:title="Threading model. ">
<polygon fill="white" stroke="black" points="235.696,-555.5 235.696,-573.5 288.38,-573.5 288.38,-555.5 235.696,-555.5"/>
<text text-anchor="middle" x="262.038" y="-561.5" font-family="Helvetica,sans-Serif" font-size="10.00">Threads</text>
</a>
</g>
</g>
<!-- Node17 -->
<g id="node3" class="node"><title>Node17</title>
<g id="a_node3"><a xlink:href="group__tcp__transport.html" target="_top" xlink:title="Simple TCP/IP transport. ">
<polygon fill="white" stroke="black" points="237.925,-518.5 237.925,-536.5 286.151,-536.5 286.151,-518.5 237.925,-518.5"/>
<text text-anchor="middle" x="262.038" y="-524.5" font-family="Helvetica,sans-Serif" font-size="10.00">TCP/IP</text>
</a>
</g>
</g>
<!-- Node13 -->
<g id="node4" class="node"><title>Node13</title>
<g id="a_node4"><a xlink:href="group__rpmsg__transport.html" target="_top" xlink:title="OpenAMP RPMsg transport. ">
<polygon fill="white" stroke="black" points="237.646,-481.5 237.646,-499.5 286.43,-499.5 286.43,-481.5 237.646,-481.5"/>
<text text-anchor="middle" x="262.038" y="-487.5" font-family="Helvetica,sans-Serif" font-size="10.00">RPMsg</text>
</a>
</g>
</g>
<!-- Node1 -->
<g id="node5" class="node"><title>Node1</title>
<g id="a_node5"><a xlink:href="group__infra.html" target="_top" xlink:title="C++ core. ">
<polygon fill="white" stroke="black" points="0,-296.5 0,-314.5 74.9111,-314.5 74.9111,-296.5 0,-296.5"/>
<text text-anchor="middle" x="37.4556" y="-302.5" font-family="Helvetica,sans-Serif" font-size="10.00">Infrastructure</text>
</a>
</g>
</g>
<!-- Node0 -->
<g id="node13" class="node"><title>Node0</title>
<polygon fill="#bfbfbf" stroke="black" points="111.911,-296.5 111.911,-314.5 157.364,-314.5 157.364,-296.5 111.911,-296.5"/>
<text text-anchor="middle" x="134.638" y="-302.5" font-family="Helvetica,sans-Serif" font-size="10.00">Server</text>
</g>
<!-- Node1&#45;&gt;Node0 -->
<g id="edge1" class="edge"><title>Node1&#45;&gt;Node0</title>
<path fill="none" stroke="black" d="M84.9986,-305.5C94.3099,-305.5 103.675,-305.5 111.667,-305.5"/>
<polygon fill="black" stroke="black" points="84.9833,-302 74.9832,-305.5 84.9832,-309 84.9833,-302"/>
</g>
<!-- Node2 -->
<g id="node6" class="node"><title>Node2</title>
<g id="a_node6"><a xlink:href="group__infra__client.html" target="_top" xlink:title="Client classes. ">
<polygon fill="white" stroke="black" points="241.255,-444.5 241.255,-462.5 282.821,-462.5 282.821,-444.5 241.255,-444.5"/>
<text text-anchor="middle" x="262.038" y="-450.5" font-family="Helvetica,sans-Serif" font-size="10.00">Client</text>
</a>
</g>
</g>
<!-- Node4 -->
<g id="node7" class="node"><title>Node4</title>
<g id="a_node7"><a xlink:href="group__infra__transport.html" target="_top" xlink:title="Superclasses for building transports. ">
<polygon fill="white" stroke="black" points="230.325,-407.5 230.325,-425.5 293.751,-425.5 293.751,-407.5 230.325,-407.5"/>
<text text-anchor="middle" x="262.038" y="-413.5" font-family="Helvetica,sans-Serif" font-size="10.00">Transports</text>
</a>
</g>
</g>
<!-- Node14 -->
<g id="node8" class="node"><title>Node14</title>
<g id="a_node8"><a xlink:href="group__serial__transport.html" target="_top" xlink:title="POSIX and Win32 serial port transport. ">
<polygon fill="white" stroke="black" points="231.25,-370.5 231.25,-388.5 292.826,-388.5 292.826,-370.5 231.25,-370.5"/>
<text text-anchor="middle" x="262.038" y="-376.5" font-family="Helvetica,sans-Serif" font-size="10.00">Serial port</text>
</a>
</g>
</g>
<!-- Node5 -->
<g id="node9" class="node"><title>Node5</title>
<g id="a_node9"><a xlink:href="group__infra__utility.html" target="_top" xlink:title="Utility code used by the infrastructure. ">
<polygon fill="white" stroke="black" points="237.925,-333.5 237.925,-351.5 286.151,-351.5 286.151,-333.5 237.925,-333.5"/>
<text text-anchor="middle" x="262.038" y="-339.5" font-family="Helvetica,sans-Serif" font-size="10.00">Utilities</text>
</a>
</g>
</g>
<!-- Node16 -->
<g id="node10" class="node"><title>Node16</title>
<g id="a_node10"><a xlink:href="group__spi__slave__transport.html" target="_top" xlink:title="Kinetis SDK SPI slave driver transport. ">
<polygon fill="white" stroke="black" points="232.083,-296.5 232.083,-314.5 291.994,-314.5 291.994,-296.5 232.083,-296.5"/>
<text text-anchor="middle" x="262.038" y="-302.5" font-family="Helvetica,sans-Serif" font-size="10.00">SPI Slave</text>
</a>
</g>
</g>
<!-- Node18 -->
<g id="node11" class="node"><title>Node18</title>
<g id="a_node11"><a xlink:href="group__uart__transport.html" target="_top" xlink:title="CMSIS UART driver transport. ">
<polygon fill="white" stroke="black" points="223.291,-259.5 223.291,-277.5 300.785,-277.5 300.785,-259.5 223.291,-259.5"/>
<text text-anchor="middle" x="262.038" y="-265.5" font-family="Helvetica,sans-Serif" font-size="10.00">CMSIS UART</text>
</a>
</g>
</g>
<!-- Node15 -->
<g id="node12" class="node"><title>Node15</title>
<g id="a_node12"><a xlink:href="group__spi__master__transport.html" target="_top" xlink:title="Kinetis SDK SPI master driver transport. ">
<polygon fill="white" stroke="black" points="229.309,-222.5 229.309,-240.5 294.767,-240.5 294.767,-222.5 229.309,-222.5"/>
<text text-anchor="middle" x="262.038" y="-228.5" font-family="Helvetica,sans-Serif" font-size="10.00">SPI Master</text>
</a>
</g>
</g>
<!-- Node0&#45;&gt;Node8 -->
<g id="edge8" class="edge"><title>Node0&#45;&gt;Node8</title>
<path fill="none" stroke="blueviolet" stroke-dasharray="5,2" d="M136.349,-314.74C139.49,-353.958 152.956,-506.554 175.364,-548.5 186.099,-568.595 193.447,-571.506 212.817,-583.5 218.439,-586.981 224.84,-589.954 231.1,-592.421"/>
<text text-anchor="middle" x="185.091" y="-573.5" font-family="Helvetica,sans-Serif" font-size="10.00">erpc</text>
</g>
<!-- Node0&#45;&gt;Node6 -->
<g id="edge6" class="edge"><title>Node0&#45;&gt;Node6</title>
<path fill="none" stroke="blueviolet" stroke-dasharray="5,2" d="M135.45,-314.806C135.233,-345.164 137.662,-443.28 175.364,-511.5 186.384,-531.44 193.447,-534.506 212.817,-546.5 219.807,-550.828 228.001,-554.37 235.63,-557.132"/>
<text text-anchor="middle" x="185.091" y="-536.5" font-family="Helvetica,sans-Serif" font-size="10.00">erpc</text>
</g>
<!-- Node0&#45;&gt;Node17 -->
<g id="edge17" class="edge"><title>Node0&#45;&gt;Node17</title>
<path fill="none" stroke="blueviolet" stroke-dasharray="5,2" d="M136.002,-314.529C137.419,-340.807 144.163,-418.839 175.364,-473.5 186.81,-493.552 193.273,-497.207 212.817,-509.5 220.382,-514.258 229.394,-518.045 237.569,-520.894"/>
<text text-anchor="middle" x="185.091" y="-499.5" font-family="Helvetica,sans-Serif" font-size="10.00">erpc</text>
</g>
<!-- Node0&#45;&gt;Node13 -->
<g id="edge13" class="edge"><title>Node0&#45;&gt;Node13</title>
<path fill="none" stroke="blueviolet" stroke-dasharray="5,2" d="M136.799,-314.73C139.946,-337.095 150.155,-395.365 175.364,-436.5 187.429,-456.186 193.273,-460.207 212.817,-472.5 220.382,-477.258 229.394,-481.045 237.569,-483.894"/>
<text text-anchor="middle" x="185.091" y="-461.5" font-family="Helvetica,sans-Serif" font-size="10.00">erpc</text>
</g>
<!-- Node0&#45;&gt;Node2 -->
<g id="edge2" class="edge"><title>Node0&#45;&gt;Node2</title>
<path fill="none" stroke="blueviolet" stroke-dasharray="5,2" d="M138.207,-314.535C143.401,-331.854 156.298,-370.487 175.364,-398.5 188.53,-417.844 193.096,-422.907 212.817,-435.5 221.403,-440.983 231.905,-445.152 240.913,-448.09"/>
<text text-anchor="middle" x="185.091" y="-424.5" font-family="Helvetica,sans-Serif" font-size="10.00">erpc</text>
</g>
<!-- Node0&#45;&gt;Node4 -->
<g id="edge4" class="edge"><title>Node0&#45;&gt;Node4</title>
<path fill="none" stroke="blueviolet" stroke-dasharray="5,2" d="M140.396,-314.657C150.77,-333.636 177.36,-377.257 212.817,-398.5 218.643,-401.99 225.26,-404.995 231.684,-407.494"/>
<text text-anchor="middle" x="185.091" y="-386.5" font-family="Helvetica,sans-Serif" font-size="10.00">erpc</text>
</g>
<!-- Node0&#45;&gt;Node14 -->
<g id="edge14" class="edge"><title>Node0&#45;&gt;Node14</title>
<path fill="none" stroke="blueviolet" stroke-dasharray="5,2" d="M145.77,-314.603C153.613,-321.477 164.871,-330.978 175.364,-338.5 191.24,-349.881 195.262,-352.933 212.817,-361.5 219.483,-364.753 226.895,-367.788 233.869,-370.406"/>
<text text-anchor="middle" x="185.091" y="-353.5" font-family="Helvetica,sans-Serif" font-size="10.00">erpc</text>
</g>
<!-- Node0&#45;&gt;Node5 -->
<g id="edge5" class="edge"><title>Node0&#45;&gt;Node5</title>
<path fill="none" stroke="blueviolet" stroke-dasharray="5,2" d="M157.394,-313.505C163.203,-315.549 169.497,-317.681 175.364,-319.5 196.253,-325.974 220.328,-332.343 237.628,-336.731"/>
<text text-anchor="middle" x="185.091" y="-326.5" font-family="Helvetica,sans-Serif" font-size="10.00">erpc</text>
</g>
<!-- Node0&#45;&gt;Node16 -->
<g id="edge16" class="edge"><title>Node0&#45;&gt;Node16</title>
<path fill="none" stroke="blueviolet" stroke-dasharray="5,2" d="M157.481,-305.5C178.111,-305.5 209.195,-305.5 231.924,-305.5"/>
<text text-anchor="middle" x="185.091" y="-307.5" font-family="Helvetica,sans-Serif" font-size="10.00">erpc</text>
</g>
<!-- Node0&#45;&gt;Node18 -->
<g id="edge18" class="edge"><title>Node0&#45;&gt;Node18</title>
<path fill="none" stroke="blueviolet" stroke-dasharray="5,2" d="M157.394,-297.495C163.203,-295.451 169.497,-293.319 175.364,-291.5 191.546,-286.485 209.639,-281.533 225.014,-277.516"/>
<text text-anchor="middle" x="185.091" y="-293.5" font-family="Helvetica,sans-Serif" font-size="10.00">erpc</text>
</g>
<!-- Node0&#45;&gt;Node15 -->
<g id="edge15" class="edge"><title>Node0&#45;&gt;Node15</title>
<path fill="none" stroke="blueviolet" stroke-dasharray="5,2" d="M145.77,-296.397C153.613,-289.523 164.871,-280.022 175.364,-272.5 191.24,-261.119 195.262,-258.067 212.817,-249.5 219.483,-246.247 226.895,-243.212 233.869,-240.594"/>
<text text-anchor="middle" x="185.091" y="-274.5" font-family="Helvetica,sans-Serif" font-size="10.00">erpc</text>
</g>
<!-- Node9 -->
<g id="node14" class="node"><title>Node9</title>
<g id="a_node14"><a xlink:href="group__itbp__transport.html" target="_top" xlink:title="Simple inter&#45;thread communications transport. ">
<polygon fill="white" stroke="black" points="228.191,-185.5 228.191,-203.5 295.885,-203.5 295.885,-185.5 228.191,-185.5"/>
<text text-anchor="middle" x="262.038" y="-191.5" font-family="Helvetica,sans-Serif" font-size="10.00">Inter&#45;thread</text>
</a>
</g>
</g>
<!-- Node0&#45;&gt;Node9 -->
<g id="edge9" class="edge"><title>Node0&#45;&gt;Node9</title>
<path fill="none" stroke="blueviolet" stroke-dasharray="5,2" d="M140.396,-296.343C150.77,-277.364 177.36,-233.743 212.817,-212.5 218.643,-209.01 225.26,-206.005 231.684,-203.506"/>
<text text-anchor="middle" x="185.091" y="-247.5" font-family="Helvetica,sans-Serif" font-size="10.00">erpc</text>
</g>
<!-- Node7 -->
<g id="node15" class="node"><title>Node7</title>
<g id="a_node15"><a xlink:href="group__dspi__master__transport.html" target="_top" xlink:title="Kinetis SDK DSPI master driver transport. ">
<polygon fill="white" stroke="black" points="225.698,-148.5 225.698,-166.5 298.378,-166.5 298.378,-148.5 225.698,-148.5"/>
<text text-anchor="middle" x="262.038" y="-154.5" font-family="Helvetica,sans-Serif" font-size="10.00">DSPI Master</text>
</a>
</g>
</g>
<!-- Node0&#45;&gt;Node7 -->
<g id="edge7" class="edge"><title>Node0&#45;&gt;Node7</title>
<path fill="none" stroke="blueviolet" stroke-dasharray="5,2" d="M138.207,-296.465C143.401,-279.146 156.298,-240.513 175.364,-212.5 188.53,-193.156 193.096,-188.093 212.817,-175.5 218.315,-171.989 224.599,-169.017 230.773,-166.562"/>
<text text-anchor="middle" x="185.091" y="-214.5" font-family="Helvetica,sans-Serif" font-size="10.00">erpc</text>
</g>
<!-- Node12 -->
<g id="node16" class="node"><title>Node12</title>
<g id="a_node16"><a xlink:href="group__rpmsg__rtos__transport.html" target="_top" xlink:title="OpenAMP RPMsg RTOS layer transport. ">
<polygon fill="white" stroke="black" points="222.544,-111.5 222.544,-129.5 301.532,-129.5 301.532,-111.5 222.544,-111.5"/>
<text text-anchor="middle" x="262.038" y="-117.5" font-family="Helvetica,sans-Serif" font-size="10.00">RPMsg RTOS</text>
</a>
</g>
</g>
<!-- Node0&#45;&gt;Node12 -->
<g id="edge12" class="edge"><title>Node0&#45;&gt;Node12</title>
<path fill="none" stroke="blueviolet" stroke-dasharray="5,2" d="M136.799,-296.27C139.946,-273.905 150.155,-215.635 175.364,-174.5 187.429,-154.814 193.273,-150.793 212.817,-138.5 218.415,-134.979 224.805,-131.99 231.063,-129.519"/>
<text text-anchor="middle" x="185.091" y="-176.5" font-family="Helvetica,sans-Serif" font-size="10.00">erpc</text>
</g>
<!-- Node3 -->
<g id="node17" class="node"><title>Node3</title>
<g id="a_node17"><a xlink:href="group__infra__codec.html" target="_top" xlink:title="Classes used for message serialization. ">
<polygon fill="white" stroke="black" points="226.802,-74.5 226.802,-92.5 297.274,-92.5 297.274,-74.5 226.802,-74.5"/>
<text text-anchor="middle" x="262.038" y="-80.5" font-family="Helvetica,sans-Serif" font-size="10.00">Serialization</text>
</a>
</g>
</g>
<!-- Node0&#45;&gt;Node3 -->
<g id="edge3" class="edge"><title>Node0&#45;&gt;Node3</title>
<path fill="none" stroke="blueviolet" stroke-dasharray="5,2" d="M136.002,-296.471C137.419,-270.193 144.163,-192.161 175.364,-137.5 186.81,-117.448 193.273,-113.793 212.817,-101.5 218.415,-97.9794 224.805,-94.9902 231.063,-92.5192"/>
<text text-anchor="middle" x="185.091" y="-139.5" font-family="Helvetica,sans-Serif" font-size="10.00">erpc</text>
</g>
<!-- Node10 -->
<g id="node18" class="node"><title>Node10</title>
<g id="a_node18"><a xlink:href="group__rpmsg__lite__rtos__transport.html" target="_top" xlink:title="RPMsg&#45;Lite transport using RTOS API. ">
<polygon fill="white" stroke="black" points="212.817,-37.5 212.817,-55.5 311.259,-55.5 311.259,-37.5 212.817,-37.5"/>
<text text-anchor="middle" x="262.038" y="-43.5" font-family="Helvetica,sans-Serif" font-size="10.00">RPMsg&#45;Lite RTOS</text>
</a>
</g>
</g>
<!-- Node0&#45;&gt;Node10 -->
<g id="edge10" class="edge"><title>Node0&#45;&gt;Node10</title>
<path fill="none" stroke="blueviolet" stroke-dasharray="5,2" d="M135.45,-296.194C135.233,-265.836 137.662,-167.72 175.364,-99.5 186.384,-79.5596 193.447,-76.4938 212.817,-64.5 218.439,-61.0189 224.84,-58.0463 231.1,-55.579"/>
<text text-anchor="middle" x="185.091" y="-101.5" font-family="Helvetica,sans-Serif" font-size="10.00">erpc</text>
</g>
<!-- Node11 -->
<g id="node19" class="node"><title>Node11</title>
<g id="a_node19"><a xlink:href="group__rpmsg__lite__transport.html" target="_top" xlink:title="RPMsg&#45;Lite transport. ">
<polygon fill="white" stroke="black" points="227.92,-0.5 227.92,-18.5 296.156,-18.5 296.156,-0.5 227.92,-0.5"/>
<text text-anchor="middle" x="262.038" y="-6.5" font-family="Helvetica,sans-Serif" font-size="10.00">RPMsg&#45;Lite</text>
</a>
</g>
</g>
<!-- Node0&#45;&gt;Node11 -->
<g id="edge11" class="edge"><title>Node0&#45;&gt;Node11</title>
<path fill="none" stroke="blueviolet" stroke-dasharray="5,2" d="M136.349,-296.26C139.49,-257.042 152.956,-104.446 175.364,-62.5 186.099,-42.4049 193.447,-39.4938 212.817,-27.5 218.439,-24.0189 224.84,-21.0463 231.1,-18.579"/>
<text text-anchor="middle" x="185.091" y="-64.5" font-family="Helvetica,sans-Serif" font-size="10.00">erpc</text>
</g>
</g>
</svg>
