<?xml version="1.0" encoding="UTF-8" standalone="no"?>
<!DOCTYPE svg PUBLIC "-//W3C//DTD SVG 1.1//EN"
 "http://www.w3.org/Graphics/SVG/1.1/DTD/svg11.dtd">
<!-- Generated by graphviz version 2.38.0 (20140413.2041)
 -->
<!-- Title: Transport Layers Pages: 1 -->
<svg width="234pt" height="434pt"
 viewBox="0.00 0.00 233.66 434.00" xmlns="http://www.w3.org/2000/svg" xmlns:xlink="http://www.w3.org/1999/xlink">
<g id="graph0" class="graph" transform="scale(1 1) rotate(0) translate(4 430)">
<title>Transport Layers</title>
<polygon fill="white" stroke="none" points="-4,4 -4,-430 229.661,-430 229.661,4 -4,4"/>
<!-- Node0 -->
<g id="node1" class="node"><title>Node0</title>
<polygon fill="#bfbfbf" stroke="black" points="0,-203.5 0,-221.5 91.2197,-221.5 91.2197,-203.5 0,-203.5"/>
<text text-anchor="middle" x="45.6099" y="-209.5" font-family="Helvetica,sans-Serif" font-size="10.00">Transport Layers</text>
</g>
<!-- Node2 -->
<g id="node2" class="node"><title>Node2</title>
<g id="a_node2"><a xlink:href="group__dspi__slave__transport.html" target="_top" xlink:title="Kinetis SDK DSPI slave driver transport. ">
<polygon fill="white" stroke="black" points="142.874,-407.5 142.874,-425.5 210.007,-425.5 210.007,-407.5 142.874,-407.5"/>
<text text-anchor="middle" x="176.44" y="-413.5" font-family="Helvetica,sans-Serif" font-size="10.00">DSPI Slave</text>
</a>
</g>
</g>
<!-- Node0&#45;&gt;Node2 -->
<g id="edge2" class="edge"><title>Node0&#45;&gt;Node2</title>
<path fill="none" stroke="black" d="M49.7991,-231.708C56.9592,-268.964 77.7258,-351.5 127.22,-398.5 131.626,-402.684 137.094,-405.916 142.748,-408.405"/>
<polygon fill="black" stroke="black" points="53.212,-230.911 47.9971,-221.689 46.3226,-232.151 53.212,-230.911"/>
</g>
<!-- Node12 -->
<g id="node3" class="node"><title>Node12</title>
<g id="a_node3"><a xlink:href="group__tcp__transport.html" target="_top" xlink:title="Simple TCP/IP transport. ">
<polygon fill="white" stroke="black" points="152.327,-370.5 152.327,-388.5 200.554,-388.5 200.554,-370.5 152.327,-370.5"/>
<text text-anchor="middle" x="176.44" y="-376.5" font-family="Helvetica,sans-Serif" font-size="10.00">TCP/IP</text>
</a>
</g>
</g>
<!-- Node0&#45;&gt;Node12 -->
<g id="edge12" class="edge"><title>Node0&#45;&gt;Node12</title>
<path fill="none" stroke="black" d="M51.9856,-231.292C61.8526,-262.563 85.7389,-325.406 127.22,-361.5 134.231,-367.6 143.503,-371.715 152.043,-374.45"/>
<polygon fill="black" stroke="black" points="55.3138,-230.205 49.0744,-221.643 48.6122,-232.227 55.3138,-230.205"/>
</g>
<!-- Node11 -->
<g id="node4" class="node"><title>Node11</title>
<g id="a_node4"><a xlink:href="group__rpmsg__transport.html" target="_top" xlink:title="OpenAMP RPMsg transport. ">
<polygon fill="white" stroke="black" points="152.049,-333.5 152.049,-351.5 200.832,-351.5 200.832,-333.5 152.049,-333.5"/>
<text text-anchor="middle" x="176.44" y="-339.5" font-family="Helvetica,sans-Serif" font-size="10.00">RPMsg</text>
</a>
</g>
</g>
<!-- Node0&#45;&gt;Node11 -->
<g id="edge11" class="edge"><title>Node0&#45;&gt;Node11</title>
<path fill="none" stroke="black" d="M55.3457,-230.704C67.9822,-255.245 93.5815,-298.816 127.22,-324.5 134.464,-330.031 143.591,-334.012 151.95,-336.801"/>
<polygon fill="black" stroke="black" points="58.4701,-229.127 50.8736,-221.741 52.2064,-232.252 58.4701,-229.127"/>
</g>
<!-- Node7 -->
<g id="node5" class="node"><title>Node7</title>
<g id="a_node5"><a xlink:href="group__serial__transport.html" target="_top" xlink:title="POSIX and Win32 serial port transport. ">
<polygon fill="white" stroke="black" points="145.652,-296.5 145.652,-314.5 207.229,-314.5 207.229,-296.5 145.652,-296.5"/>
<text text-anchor="middle" x="176.44" y="-302.5" font-family="Helvetica,sans-Serif" font-size="10.00">Serial port</text>
</a>
</g>
</g>
<!-- Node0&#45;&gt;Node7 -->
<g id="edge7" class="edge"><title>Node0&#45;&gt;Node7</title>
<path fill="none" stroke="black" d="M61.1113,-229.421C76.1865,-246.119 101.184,-271.418 127.22,-287.5 132.846,-290.975 139.248,-293.945 145.508,-296.412"/>
<polygon fill="black" stroke="black" points="63.4207,-226.748 54.1793,-221.567 58.1725,-231.38 63.4207,-226.748"/>
</g>
<!-- Node4 -->
<g id="node6" class="node"><title>Node4</title>
<g id="a_node6"><a xlink:href="group__spi__slave__transport.html" target="_top" xlink:title="Kinetis SDK SPI slave driver transport. ">
<polygon fill="white" stroke="black" points="146.485,-259.5 146.485,-277.5 206.396,-277.5 206.396,-259.5 146.485,-259.5"/>
<text text-anchor="middle" x="176.44" y="-265.5" font-family="Helvetica,sans-Serif" font-size="10.00">SPI Slave</text>
</a>
</g>
</g>
<!-- Node0&#45;&gt;Node4 -->
<g id="edge4" class="edge"><title>Node0&#45;&gt;Node4</title>
<path fill="none" stroke="black" d="M73.7032,-225.962C89.2263,-233.501 109.155,-242.886 127.22,-250.5 134.466,-253.554 142.428,-256.636 149.758,-259.365"/>
<polygon fill="black" stroke="black" points="75.1841,-222.79 64.6633,-221.539 72.1078,-229.078 75.1841,-222.79"/>
</g>
<!-- Node6 -->
<g id="node7" class="node"><title>Node6</title>
<g id="a_node7"><a xlink:href="group__uart__transport.html" target="_top" xlink:title="CMSIS UART driver transport. ">
<polygon fill="white" stroke="black" points="137.693,-222.5 137.693,-240.5 215.188,-240.5 215.188,-222.5 137.693,-222.5"/>
<text text-anchor="middle" x="176.44" y="-228.5" font-family="Helvetica,sans-Serif" font-size="10.00">CMSIS UART</text>
</a>
</g>
</g>
<!-- Node0&#45;&gt;Node6 -->
<g id="edge6" class="edge"><title>Node0&#45;&gt;Node6</title>
<path fill="none" stroke="black" d="M101.417,-220.583C113.633,-222.385 126.32,-224.256 137.668,-225.929"/>
<polygon fill="black" stroke="black" points="101.711,-217.089 91.307,-219.092 100.689,-224.014 101.711,-217.089"/>
</g>
<!-- Node3 -->
<g id="node8" class="node"><title>Node3</title>
<g id="a_node8"><a xlink:href="group__spi__master__transport.html" target="_top" xlink:title="Kinetis SDK SPI master driver transport. ">
<polygon fill="white" stroke="black" points="143.711,-185.5 143.711,-203.5 209.169,-203.5 209.169,-185.5 143.711,-185.5"/>
<text text-anchor="middle" x="176.44" y="-191.5" font-family="Helvetica,sans-Serif" font-size="10.00">SPI Master</text>
</a>
</g>
</g>
<!-- Node0&#45;&gt;Node3 -->
<g id="edge3" class="edge"><title>Node0&#45;&gt;Node3</title>
<path fill="none" stroke="black" d="M101.551,-204.824C115.831,-202.828 130.746,-200.745 143.406,-198.976"/>
<polygon fill="black" stroke="black" points="100.726,-201.405 91.307,-206.255 101.695,-208.337 100.726,-201.405"/>
</g>
<!-- Node5 -->
<g id="node9" class="node"><title>Node5</title>
<g id="a_node9"><a xlink:href="group__itbp__transport.html" target="_top" xlink:title="Simple inter&#45;thread communications transport. ">
<polygon fill="white" stroke="black" points="142.593,-148.5 142.593,-166.5 210.288,-166.5 210.288,-148.5 142.593,-148.5"/>
<text text-anchor="middle" x="176.44" y="-154.5" font-family="Helvetica,sans-Serif" font-size="10.00">Inter&#45;thread</text>
</a>
</g>
</g>
<!-- Node0&#45;&gt;Node5 -->
<g id="edge5" class="edge"><title>Node0&#45;&gt;Node5</title>
<path fill="none" stroke="black" d="M75.7998,-199.086C91.0505,-192.174 110.064,-183.706 127.22,-176.5 135.184,-173.155 143.956,-169.646 151.81,-166.568"/>
<polygon fill="black" stroke="black" points="74.0299,-196.046 66.3786,-203.375 76.9301,-202.417 74.0299,-196.046"/>
</g>
<!-- Node1 -->
<g id="node10" class="node"><title>Node1</title>
<g id="a_node10"><a xlink:href="group__dspi__master__transport.html" target="_top" xlink:title="Kinetis SDK DSPI master driver transport. ">
<polygon fill="white" stroke="black" points="140.101,-111.5 140.101,-129.5 212.78,-129.5 212.78,-111.5 140.101,-111.5"/>
<text text-anchor="middle" x="176.44" y="-117.5" font-family="Helvetica,sans-Serif" font-size="10.00">DSPI Master</text>
</a>
</g>
</g>
<!-- Node0&#45;&gt;Node1 -->
<g id="edge1" class="edge"><title>Node0&#45;&gt;Node1</title>
<path fill="none" stroke="black" d="M61.7496,-195.634C76.9875,-179.474 101.813,-155.274 127.22,-139.5 133.488,-135.608 140.688,-132.26 147.58,-129.507"/>
<polygon fill="black" stroke="black" points="58.9157,-193.544 54.7028,-203.266 64.0584,-198.293 58.9157,-193.544"/>
</g>
<!-- Node10 -->
<g id="node11" class="node"><title>Node10</title>
<g id="a_node11"><a xlink:href="group__rpmsg__rtos__transport.html" target="_top" xlink:title="OpenAMP RPMsg RTOS layer transport. ">
<polygon fill="white" stroke="black" points="136.946,-74.5 136.946,-92.5 215.935,-92.5 215.935,-74.5 136.946,-74.5"/>
<text text-anchor="middle" x="176.44" y="-80.5" font-family="Helvetica,sans-Serif" font-size="10.00">RPMsg RTOS</text>
</a>
</g>
</g>
<!-- Node0&#45;&gt;Node10 -->
<g id="edge10" class="edge"><title>Node0&#45;&gt;Node10</title>
<path fill="none" stroke="black" d="M55.6658,-194.391C68.5312,-170.335 94.2443,-127.927 127.22,-102.5 132.421,-98.489 138.578,-95.2205 144.721,-92.5973"/>
<polygon fill="black" stroke="black" points="52.4521,-192.985 50.9549,-203.474 58.666,-196.208 52.4521,-192.985"/>
</g>
<!-- Node8 -->
<g id="node12" class="node"><title>Node8</title>
<g id="a_node12"><a xlink:href="group__rpmsg__lite__rtos__transport.html" target="_top" xlink:title="RPMsg&#45;Lite transport using RTOS API. ">
<polygon fill="white" stroke="black" points="127.22,-37.5 127.22,-55.5 225.661,-55.5 225.661,-37.5 127.22,-37.5"/>
<text text-anchor="middle" x="176.44" y="-43.5" font-family="Helvetica,sans-Serif" font-size="10.00">RPMsg&#45;Lite RTOS</text>
</a>
</g>
</g>
<!-- Node0&#45;&gt;Node8 -->
<g id="edge8" class="edge"><title>Node0&#45;&gt;Node8</title>
<path fill="none" stroke="black" d="M52.2736,-193.597C62.4363,-162.714 86.5866,-101.302 127.22,-65.5 131.878,-61.3955 137.528,-58.1233 143.298,-55.5329"/>
<polygon fill="black" stroke="black" points="48.929,-192.566 49.2582,-203.155 55.6047,-194.672 48.929,-192.566"/>
</g>
<!-- Node9 -->
<g id="node13" class="node"><title>Node9</title>
<g id="a_node13"><a xlink:href="group__rpmsg__lite__transport.html" target="_top" xlink:title="RPMsg&#45;Lite transport. ">
<polygon fill="white" stroke="black" points="142.322,-0.5 142.322,-18.5 210.559,-18.5 210.559,-0.5 142.322,-0.5"/>
<text text-anchor="middle" x="176.44" y="-6.5" font-family="Helvetica,sans-Serif" font-size="10.00">RPMsg&#45;Lite</text>
</a>
</g>
</g>
<!-- Node0&#45;&gt;Node9 -->
<g id="edge9" class="edge"><title>Node0&#45;&gt;Node9</title>
<path fill="none" stroke="black" d="M49.9362,-193.574C57.3362,-156.849 78.5035,-75.4196 127.22,-28.5 131.497,-24.3803 136.774,-21.1219 142.251,-18.5546"/>
<polygon fill="black" stroke="black" points="46.4881,-192.971 48.0664,-203.448 53.3659,-194.274 46.4881,-192.971"/>
</g>
</g>
</svg>
