<?xml version="1.0" encoding="UTF-8" standalone="no"?>
<!DOCTYPE svg PUBLIC "-//W3C//DTD SVG 1.1//EN"
 "http://www.w3.org/Graphics/SVG/1.1/DTD/svg11.dtd">
<!-- Generated by graphviz version 2.38.0 (20140413.2041)
 -->
<!-- Title: DSPI Master Pages: 1 -->
<svg width="363pt" height="619pt"
 viewBox="0.00 0.00 362.79 619.00" xmlns="http://www.w3.org/2000/svg" xmlns:xlink="http://www.w3.org/1999/xlink">
<g id="graph0" class="graph" transform="scale(1 1) rotate(0) translate(4 615)">
<title>DSPI Master</title>
<polygon fill="white" stroke="none" points="-4,4 -4,-615 358.794,-615 358.794,4 -4,4"/>
<!-- Node1 -->
<g id="node1" class="node"><title>Node1</title>
<g id="a_node1"><a xlink:href="group__transports.html" target="_top" xlink:title="Transport layer classes. ">
<polygon fill="white" stroke="black" points="0,-296.5 0,-314.5 91.2197,-314.5 91.2197,-296.5 0,-296.5"/>
<text text-anchor="middle" x="45.6099" y="-302.5" font-family="Helvetica,sans-Serif" font-size="10.00">Transport Layers</text>
</a>
</g>
</g>
<!-- Node0 -->
<g id="node15" class="node"><title>Node0</title>
<polygon fill="#bfbfbf" stroke="black" points="128.22,-296.5 128.22,-314.5 200.899,-314.5 200.899,-296.5 128.22,-296.5"/>
<text text-anchor="middle" x="164.56" y="-302.5" font-family="Helvetica,sans-Serif" font-size="10.00">DSPI Master</text>
</g>
<!-- Node1&#45;&gt;Node0 -->
<g id="edge1" class="edge"><title>Node1&#45;&gt;Node0</title>
<path fill="none" stroke="black" d="M101.564,-305.5C110.568,-305.5 119.685,-305.5 128.054,-305.5"/>
<polygon fill="black" stroke="black" points="101.491,-302 91.4912,-305.5 101.491,-309 101.491,-302"/>
</g>
<!-- Node8 -->
<g id="node2" class="node"><title>Node8</title>
<g id="a_node2"><a xlink:href="group__dspi__slave__transport.html" target="_top" xlink:title="Kinetis SDK DSPI slave driver transport. ">
<polygon fill="white" stroke="black" points="272.007,-592.5 272.007,-610.5 339.14,-610.5 339.14,-592.5 272.007,-592.5"/>
<text text-anchor="middle" x="305.573" y="-598.5" font-family="Helvetica,sans-Serif" font-size="10.00">DSPI Slave</text>
</a>
</g>
</g>
<!-- Node7 -->
<g id="node3" class="node"><title>Node7</title>
<g id="a_node3"><a xlink:href="group__port__threads.html" target="_top" xlink:title="Threading model. ">
<polygon fill="white" stroke="black" points="279.231,-555.5 279.231,-573.5 331.916,-573.5 331.916,-555.5 279.231,-555.5"/>
<text text-anchor="middle" x="305.573" y="-561.5" font-family="Helvetica,sans-Serif" font-size="10.00">Threads</text>
</a>
</g>
</g>
<!-- Node17 -->
<g id="node4" class="node"><title>Node17</title>
<g id="a_node4"><a xlink:href="group__tcp__transport.html" target="_top" xlink:title="Simple TCP/IP transport. ">
<polygon fill="white" stroke="black" points="281.46,-518.5 281.46,-536.5 329.687,-536.5 329.687,-518.5 281.46,-518.5"/>
<text text-anchor="middle" x="305.573" y="-524.5" font-family="Helvetica,sans-Serif" font-size="10.00">TCP/IP</text>
</a>
</g>
</g>
<!-- Node13 -->
<g id="node5" class="node"><title>Node13</title>
<g id="a_node5"><a xlink:href="group__rpmsg__transport.html" target="_top" xlink:title="OpenAMP RPMsg transport. ">
<polygon fill="white" stroke="black" points="281.182,-481.5 281.182,-499.5 329.965,-499.5 329.965,-481.5 281.182,-481.5"/>
<text text-anchor="middle" x="305.573" y="-487.5" font-family="Helvetica,sans-Serif" font-size="10.00">RPMsg</text>
</a>
</g>
</g>
<!-- Node2 -->
<g id="node6" class="node"><title>Node2</title>
<g id="a_node6"><a xlink:href="group__infra__client.html" target="_top" xlink:title="Client classes. ">
<polygon fill="white" stroke="black" points="284.79,-444.5 284.79,-462.5 326.356,-462.5 326.356,-444.5 284.79,-444.5"/>
<text text-anchor="middle" x="305.573" y="-450.5" font-family="Helvetica,sans-Serif" font-size="10.00">Client</text>
</a>
</g>
</g>
<!-- Node4 -->
<g id="node7" class="node"><title>Node4</title>
<g id="a_node7"><a xlink:href="group__infra__transport.html" target="_top" xlink:title="Superclasses for building transports. ">
<polygon fill="white" stroke="black" points="273.86,-407.5 273.86,-425.5 337.287,-425.5 337.287,-407.5 273.86,-407.5"/>
<text text-anchor="middle" x="305.573" y="-413.5" font-family="Helvetica,sans-Serif" font-size="10.00">Transports</text>
</a>
</g>
</g>
<!-- Node14 -->
<g id="node8" class="node"><title>Node14</title>
<g id="a_node8"><a xlink:href="group__serial__transport.html" target="_top" xlink:title="POSIX and Win32 serial port transport. ">
<polygon fill="white" stroke="black" points="274.785,-370.5 274.785,-388.5 336.361,-388.5 336.361,-370.5 274.785,-370.5"/>
<text text-anchor="middle" x="305.573" y="-376.5" font-family="Helvetica,sans-Serif" font-size="10.00">Serial port</text>
</a>
</g>
</g>
<!-- Node5 -->
<g id="node9" class="node"><title>Node5</title>
<g id="a_node9"><a xlink:href="group__infra__utility.html" target="_top" xlink:title="Utility code used by the infrastructure. ">
<polygon fill="white" stroke="black" points="281.46,-333.5 281.46,-351.5 329.687,-351.5 329.687,-333.5 281.46,-333.5"/>
<text text-anchor="middle" x="305.573" y="-339.5" font-family="Helvetica,sans-Serif" font-size="10.00">Utilities</text>
</a>
</g>
</g>
<!-- Node16 -->
<g id="node10" class="node"><title>Node16</title>
<g id="a_node10"><a xlink:href="group__spi__slave__transport.html" target="_top" xlink:title="Kinetis SDK SPI slave driver transport. ">
<polygon fill="white" stroke="black" points="275.618,-296.5 275.618,-314.5 335.529,-314.5 335.529,-296.5 275.618,-296.5"/>
<text text-anchor="middle" x="305.573" y="-302.5" font-family="Helvetica,sans-Serif" font-size="10.00">SPI Slave</text>
</a>
</g>
</g>
<!-- Node18 -->
<g id="node11" class="node"><title>Node18</title>
<g id="a_node11"><a xlink:href="group__uart__transport.html" target="_top" xlink:title="CMSIS UART driver transport. ">
<polygon fill="white" stroke="black" points="266.826,-259.5 266.826,-277.5 344.32,-277.5 344.32,-259.5 266.826,-259.5"/>
<text text-anchor="middle" x="305.573" y="-265.5" font-family="Helvetica,sans-Serif" font-size="10.00">CMSIS UART</text>
</a>
</g>
</g>
<!-- Node15 -->
<g id="node12" class="node"><title>Node15</title>
<g id="a_node12"><a xlink:href="group__spi__master__transport.html" target="_top" xlink:title="Kinetis SDK SPI master driver transport. ">
<polygon fill="white" stroke="black" points="272.844,-222.5 272.844,-240.5 338.302,-240.5 338.302,-222.5 272.844,-222.5"/>
<text text-anchor="middle" x="305.573" y="-228.5" font-family="Helvetica,sans-Serif" font-size="10.00">SPI Master</text>
</a>
</g>
</g>
<!-- Node6 -->
<g id="node13" class="node"><title>Node6</title>
<g id="a_node13"><a xlink:href="group__infra__server.html" target="_top" xlink:title="Server classes. ">
<polygon fill="white" stroke="black" points="282.847,-185.5 282.847,-203.5 328.3,-203.5 328.3,-185.5 282.847,-185.5"/>
<text text-anchor="middle" x="305.573" y="-191.5" font-family="Helvetica,sans-Serif" font-size="10.00">Server</text>
</a>
</g>
</g>
<!-- Node9 -->
<g id="node14" class="node"><title>Node9</title>
<g id="a_node14"><a xlink:href="group__itbp__transport.html" target="_top" xlink:title="Simple inter&#45;thread communications transport. ">
<polygon fill="white" stroke="black" points="271.726,-148.5 271.726,-166.5 339.42,-166.5 339.42,-148.5 271.726,-148.5"/>
<text text-anchor="middle" x="305.573" y="-154.5" font-family="Helvetica,sans-Serif" font-size="10.00">Inter&#45;thread</text>
</a>
</g>
</g>
<!-- Node0&#45;&gt;Node8 -->
<g id="edge8" class="edge"><title>Node0&#45;&gt;Node8</title>
<path fill="none" stroke="blueviolet" stroke-dasharray="5,2" d="M165.704,-314.506C166.601,-347.726 173.027,-465.695 218.899,-547.5 230.192,-567.638 236.808,-571.207 256.353,-583.5 261.95,-587.021 268.341,-590.01 274.598,-592.481"/>
<text text-anchor="middle" x="228.626" y="-573.5" font-family="Helvetica,sans-Serif" font-size="10.00">erpc</text>
</g>
<!-- Node0&#45;&gt;Node7 -->
<g id="edge7" class="edge"><title>Node0&#45;&gt;Node7</title>
<path fill="none" stroke="blueviolet" stroke-dasharray="5,2" d="M166.184,-314.76C168.575,-344.966 179.124,-442.592 218.899,-510.5 230.569,-530.423 236.808,-534.207 256.353,-546.5 263.312,-550.877 271.496,-554.433 279.127,-557.192"/>
<text text-anchor="middle" x="228.626" y="-535.5" font-family="Helvetica,sans-Serif" font-size="10.00">erpc</text>
</g>
<!-- Node0&#45;&gt;Node17 -->
<g id="edge17" class="edge"><title>Node0&#45;&gt;Node17</title>
<path fill="none" stroke="blueviolet" stroke-dasharray="5,2" d="M166.929,-314.837C171.132,-341.283 185.633,-418.28 218.899,-472.5 231.136,-492.444 236.631,-496.907 256.353,-509.5 263.884,-514.309 272.889,-518.108 281.068,-520.952"/>
<text text-anchor="middle" x="228.626" y="-498.5" font-family="Helvetica,sans-Serif" font-size="10.00">erpc</text>
</g>
<!-- Node0&#45;&gt;Node13 -->
<g id="edge13" class="edge"><title>Node0&#45;&gt;Node13</title>
<path fill="none" stroke="blueviolet" stroke-dasharray="5,2" d="M168.121,-314.753C174.446,-336.644 192.249,-392.822 218.899,-433.5 232.069,-453.602 236.27,-459.301 256.353,-472.5 263.82,-477.408 272.811,-481.228 280.997,-484.061"/>
<text text-anchor="middle" x="228.626" y="-460.5" font-family="Helvetica,sans-Serif" font-size="10.00">erpc</text>
</g>
<!-- Node0&#45;&gt;Node2 -->
<g id="edge2" class="edge"><title>Node0&#45;&gt;Node2</title>
<path fill="none" stroke="blueviolet" stroke-dasharray="5,2" d="M169.009,-314.559C178.683,-338.64 208.53,-404.512 256.353,-435.5 264.902,-441.04 275.399,-445.215 284.414,-448.143"/>
<text text-anchor="middle" x="228.626" y="-421.5" font-family="Helvetica,sans-Serif" font-size="10.00">erpc</text>
</g>
<!-- Node0&#45;&gt;Node4 -->
<g id="edge4" class="edge"><title>Node0&#45;&gt;Node4</title>
<path fill="none" stroke="blueviolet" stroke-dasharray="5,2" d="M171.932,-314.686C185.348,-333.331 218.414,-375.77 256.353,-398.5 262.178,-401.99 268.795,-404.995 275.219,-407.494"/>
<text text-anchor="middle" x="228.626" y="-385.5" font-family="Helvetica,sans-Serif" font-size="10.00">erpc</text>
</g>
<!-- Node0&#45;&gt;Node14 -->
<g id="edge14" class="edge"><title>Node0&#45;&gt;Node14</title>
<path fill="none" stroke="blueviolet" stroke-dasharray="5,2" d="M178.628,-314.697C195.865,-326.558 227.406,-347.339 256.353,-361.5 263.015,-364.759 270.426,-367.797 277.4,-370.415"/>
<text text-anchor="middle" x="228.626" y="-353.5" font-family="Helvetica,sans-Serif" font-size="10.00">erpc</text>
</g>
<!-- Node0&#45;&gt;Node5 -->
<g id="edge5" class="edge"><title>Node0&#45;&gt;Node5</title>
<path fill="none" stroke="blueviolet" stroke-dasharray="5,2" d="M199.566,-314.551C224.966,-321.312 259.013,-330.374 281.357,-336.321"/>
<text text-anchor="middle" x="228.626" y="-325.5" font-family="Helvetica,sans-Serif" font-size="10.00">erpc</text>
</g>
<!-- Node0&#45;&gt;Node16 -->
<g id="edge16" class="edge"><title>Node0&#45;&gt;Node16</title>
<path fill="none" stroke="blueviolet" stroke-dasharray="5,2" d="M200.998,-305.5C224.005,-305.5 253.627,-305.5 275.295,-305.5"/>
<text text-anchor="middle" x="228.626" y="-307.5" font-family="Helvetica,sans-Serif" font-size="10.00">erpc</text>
</g>
<!-- Node0&#45;&gt;Node18 -->
<g id="edge18" class="edge"><title>Node0&#45;&gt;Node18</title>
<path fill="none" stroke="blueviolet" stroke-dasharray="5,2" d="M199.566,-296.449C221.108,-290.715 248.869,-283.326 270.436,-277.586"/>
<text text-anchor="middle" x="228.626" y="-291.5" font-family="Helvetica,sans-Serif" font-size="10.00">erpc</text>
</g>
<!-- Node0&#45;&gt;Node15 -->
<g id="edge15" class="edge"><title>Node0&#45;&gt;Node15</title>
<path fill="none" stroke="blueviolet" stroke-dasharray="5,2" d="M178.964,-296.307C196.303,-284.67 227.689,-264.46 256.353,-250.5 263.633,-246.954 271.755,-243.553 279.226,-240.633"/>
<text text-anchor="middle" x="228.626" y="-271.5" font-family="Helvetica,sans-Serif" font-size="10.00">erpc</text>
</g>
<!-- Node0&#45;&gt;Node6 -->
<g id="edge6" class="edge"><title>Node0&#45;&gt;Node6</title>
<path fill="none" stroke="blueviolet" stroke-dasharray="5,2" d="M171.972,-296.442C185.461,-278.05 218.655,-236.158 256.353,-213.5 264.527,-208.586 274.2,-204.484 282.728,-201.364"/>
<text text-anchor="middle" x="228.626" y="-243.5" font-family="Helvetica,sans-Serif" font-size="10.00">erpc</text>
</g>
<!-- Node0&#45;&gt;Node9 -->
<g id="edge9" class="edge"><title>Node0&#45;&gt;Node9</title>
<path fill="none" stroke="blueviolet" stroke-dasharray="5,2" d="M169.187,-296.183C179.096,-272.058 209.08,-207.291 256.353,-176.5 262.384,-172.571 269.355,-169.242 276.089,-166.522"/>
<text text-anchor="middle" x="228.626" y="-209.5" font-family="Helvetica,sans-Serif" font-size="10.00">erpc</text>
</g>
<!-- Node12 -->
<g id="node16" class="node"><title>Node12</title>
<g id="a_node16"><a xlink:href="group__rpmsg__rtos__transport.html" target="_top" xlink:title="OpenAMP RPMsg RTOS layer transport. ">
<polygon fill="white" stroke="black" points="266.079,-111.5 266.079,-129.5 345.067,-129.5 345.067,-111.5 266.079,-111.5"/>
<text text-anchor="middle" x="305.573" y="-117.5" font-family="Helvetica,sans-Serif" font-size="10.00">RPMsg RTOS</text>
</a>
</g>
</g>
<!-- Node0&#45;&gt;Node12 -->
<g id="edge12" class="edge"><title>Node0&#45;&gt;Node12</title>
<path fill="none" stroke="blueviolet" stroke-dasharray="5,2" d="M168.086,-296.223C174.335,-274.283 191.985,-218.004 218.899,-177.5 232.023,-157.75 236.569,-152.575 256.353,-139.5 262.283,-135.581 269.145,-132.271 275.799,-129.568"/>
<text text-anchor="middle" x="228.626" y="-179.5" font-family="Helvetica,sans-Serif" font-size="10.00">erpc</text>
</g>
<!-- Node3 -->
<g id="node17" class="node"><title>Node3</title>
<g id="a_node17"><a xlink:href="group__infra__codec.html" target="_top" xlink:title="Classes used for message serialization. ">
<polygon fill="white" stroke="black" points="270.337,-74.5 270.337,-92.5 340.81,-92.5 340.81,-74.5 270.337,-74.5"/>
<text text-anchor="middle" x="305.573" y="-80.5" font-family="Helvetica,sans-Serif" font-size="10.00">Serialization</text>
</a>
</g>
</g>
<!-- Node0&#45;&gt;Node3 -->
<g id="edge3" class="edge"><title>Node0&#45;&gt;Node3</title>
<path fill="none" stroke="blueviolet" stroke-dasharray="5,2" d="M166.892,-296.139C170.996,-269.633 185.263,-192.49 218.899,-138.5 231.108,-118.903 236.92,-114.969 256.353,-102.5 262.411,-98.6126 269.392,-95.2993 276.127,-92.581"/>
<text text-anchor="middle" x="228.626" y="-140.5" font-family="Helvetica,sans-Serif" font-size="10.00">erpc</text>
</g>
<!-- Node10 -->
<g id="node18" class="node"><title>Node10</title>
<g id="a_node18"><a xlink:href="group__rpmsg__lite__rtos__transport.html" target="_top" xlink:title="RPMsg&#45;Lite transport using RTOS API. ">
<polygon fill="white" stroke="black" points="256.353,-37.5 256.353,-55.5 354.794,-55.5 354.794,-37.5 256.353,-37.5"/>
<text text-anchor="middle" x="305.573" y="-43.5" font-family="Helvetica,sans-Serif" font-size="10.00">RPMsg&#45;Lite RTOS</text>
</a>
</g>
</g>
<!-- Node0&#45;&gt;Node10 -->
<g id="edge10" class="edge"><title>Node0&#45;&gt;Node10</title>
<path fill="none" stroke="blueviolet" stroke-dasharray="5,2" d="M166.145,-296.218C168.418,-265.942 178.647,-168.126 218.899,-100.5 230.552,-80.9227 237.091,-77.6684 256.353,-65.5 262.514,-61.6072 269.604,-58.2757 276.418,-55.54"/>
<text text-anchor="middle" x="228.626" y="-102.5" font-family="Helvetica,sans-Serif" font-size="10.00">erpc</text>
</g>
<!-- Node11 -->
<g id="node19" class="node"><title>Node11</title>
<g id="a_node19"><a xlink:href="group__rpmsg__lite__transport.html" target="_top" xlink:title="RPMsg&#45;Lite transport. ">
<polygon fill="white" stroke="black" points="271.455,-0.5 271.455,-18.5 339.691,-18.5 339.691,-0.5 271.455,-0.5"/>
<text text-anchor="middle" x="305.573" y="-6.5" font-family="Helvetica,sans-Serif" font-size="10.00">RPMsg&#45;Lite</text>
</a>
</g>
</g>
<!-- Node0&#45;&gt;Node11 -->
<g id="edge11" class="edge"><title>Node0&#45;&gt;Node11</title>
<path fill="none" stroke="blueviolet" stroke-dasharray="5,2" d="M165.618,-296.413C166.212,-262.904 171.716,-143.983 218.899,-62.5 231.52,-40.7049 257.05,-26.6597 276.974,-18.5419"/>
<text text-anchor="middle" x="228.626" y="-64.5" font-family="Helvetica,sans-Serif" font-size="10.00">erpc</text>
</g>
</g>
</svg>
