<?xml version="1.0" encoding="UTF-8" standalone="no"?>
<!DOCTYPE svg PUBLIC "-//W3C//DTD SVG 1.1//EN"
 "http://www.w3.org/Graphics/SVG/1.1/DTD/svg11.dtd">
<!-- Generated by graphviz version 2.38.0 (20140413.2041)
 -->
<!-- Title: CMSIS UART Pages: 1 -->
<svg width="368pt" height="619pt"
 viewBox="0.00 0.00 367.61 619.00" xmlns="http://www.w3.org/2000/svg" xmlns:xlink="http://www.w3.org/1999/xlink">
<g id="graph0" class="graph" transform="scale(1 1) rotate(0) translate(4 615)">
<title>CMSIS UART</title>
<polygon fill="white" stroke="none" points="-4,4 -4,-615 363.608,-615 363.608,4 -4,4"/>
<!-- Node1 -->
<g id="node1" class="node"><title>Node1</title>
<g id="a_node1"><a xlink:href="group__transports.html" target="_top" xlink:title="Transport layer classes. ">
<polygon fill="white" stroke="black" points="0,-296.5 0,-314.5 91.2197,-314.5 91.2197,-296.5 0,-296.5"/>
<text text-anchor="middle" x="45.6099" y="-302.5" font-family="Helvetica,sans-Serif" font-size="10.00">Transport Layers</text>
</a>
</g>
</g>
<!-- Node0 -->
<g id="node11" class="node"><title>Node0</title>
<polygon fill="#bfbfbf" stroke="black" points="128.22,-296.5 128.22,-314.5 205.714,-314.5 205.714,-296.5 128.22,-296.5"/>
<text text-anchor="middle" x="166.967" y="-302.5" font-family="Helvetica,sans-Serif" font-size="10.00">CMSIS UART</text>
</g>
<!-- Node1&#45;&gt;Node0 -->
<g id="edge1" class="edge"><title>Node1&#45;&gt;Node0</title>
<path fill="none" stroke="black" d="M101.419,-305.5C110.394,-305.5 119.516,-305.5 127.967,-305.5"/>
<polygon fill="black" stroke="black" points="101.394,-302 91.3936,-305.5 101.394,-309 101.394,-302"/>
</g>
<!-- Node9 -->
<g id="node2" class="node"><title>Node9</title>
<g id="a_node2"><a xlink:href="group__dspi__slave__transport.html" target="_top" xlink:title="Kinetis SDK DSPI slave driver transport. ">
<polygon fill="white" stroke="black" points="276.821,-592.5 276.821,-610.5 343.954,-610.5 343.954,-592.5 276.821,-592.5"/>
<text text-anchor="middle" x="310.388" y="-598.5" font-family="Helvetica,sans-Serif" font-size="10.00">DSPI Slave</text>
</a>
</g>
</g>
<!-- Node7 -->
<g id="node3" class="node"><title>Node7</title>
<g id="a_node3"><a xlink:href="group__port__threads.html" target="_top" xlink:title="Threading model. ">
<polygon fill="white" stroke="black" points="284.045,-555.5 284.045,-573.5 336.73,-573.5 336.73,-555.5 284.045,-555.5"/>
<text text-anchor="middle" x="310.388" y="-561.5" font-family="Helvetica,sans-Serif" font-size="10.00">Threads</text>
</a>
</g>
</g>
<!-- Node18 -->
<g id="node4" class="node"><title>Node18</title>
<g id="a_node4"><a xlink:href="group__tcp__transport.html" target="_top" xlink:title="Simple TCP/IP transport. ">
<polygon fill="white" stroke="black" points="286.274,-518.5 286.274,-536.5 334.501,-536.5 334.501,-518.5 286.274,-518.5"/>
<text text-anchor="middle" x="310.388" y="-524.5" font-family="Helvetica,sans-Serif" font-size="10.00">TCP/IP</text>
</a>
</g>
</g>
<!-- Node14 -->
<g id="node5" class="node"><title>Node14</title>
<g id="a_node5"><a xlink:href="group__rpmsg__transport.html" target="_top" xlink:title="OpenAMP RPMsg transport. ">
<polygon fill="white" stroke="black" points="285.996,-481.5 285.996,-499.5 334.779,-499.5 334.779,-481.5 285.996,-481.5"/>
<text text-anchor="middle" x="310.388" y="-487.5" font-family="Helvetica,sans-Serif" font-size="10.00">RPMsg</text>
</a>
</g>
</g>
<!-- Node2 -->
<g id="node6" class="node"><title>Node2</title>
<g id="a_node6"><a xlink:href="group__infra__client.html" target="_top" xlink:title="Client classes. ">
<polygon fill="white" stroke="black" points="289.604,-444.5 289.604,-462.5 331.171,-462.5 331.171,-444.5 289.604,-444.5"/>
<text text-anchor="middle" x="310.388" y="-450.5" font-family="Helvetica,sans-Serif" font-size="10.00">Client</text>
</a>
</g>
</g>
<!-- Node4 -->
<g id="node7" class="node"><title>Node4</title>
<g id="a_node7"><a xlink:href="group__infra__transport.html" target="_top" xlink:title="Superclasses for building transports. ">
<polygon fill="white" stroke="black" points="278.674,-407.5 278.674,-425.5 342.101,-425.5 342.101,-407.5 278.674,-407.5"/>
<text text-anchor="middle" x="310.388" y="-413.5" font-family="Helvetica,sans-Serif" font-size="10.00">Transports</text>
</a>
</g>
</g>
<!-- Node15 -->
<g id="node8" class="node"><title>Node15</title>
<g id="a_node8"><a xlink:href="group__serial__transport.html" target="_top" xlink:title="POSIX and Win32 serial port transport. ">
<polygon fill="white" stroke="black" points="279.6,-370.5 279.6,-388.5 341.176,-388.5 341.176,-370.5 279.6,-370.5"/>
<text text-anchor="middle" x="310.388" y="-376.5" font-family="Helvetica,sans-Serif" font-size="10.00">Serial port</text>
</a>
</g>
</g>
<!-- Node5 -->
<g id="node9" class="node"><title>Node5</title>
<g id="a_node9"><a xlink:href="group__infra__utility.html" target="_top" xlink:title="Utility code used by the infrastructure. ">
<polygon fill="white" stroke="black" points="286.274,-333.5 286.274,-351.5 334.501,-351.5 334.501,-333.5 286.274,-333.5"/>
<text text-anchor="middle" x="310.388" y="-339.5" font-family="Helvetica,sans-Serif" font-size="10.00">Utilities</text>
</a>
</g>
</g>
<!-- Node17 -->
<g id="node10" class="node"><title>Node17</title>
<g id="a_node10"><a xlink:href="group__spi__slave__transport.html" target="_top" xlink:title="Kinetis SDK SPI slave driver transport. ">
<polygon fill="white" stroke="black" points="280.432,-296.5 280.432,-314.5 340.343,-314.5 340.343,-296.5 280.432,-296.5"/>
<text text-anchor="middle" x="310.388" y="-302.5" font-family="Helvetica,sans-Serif" font-size="10.00">SPI Slave</text>
</a>
</g>
</g>
<!-- Node0&#45;&gt;Node9 -->
<g id="edge9" class="edge"><title>Node0&#45;&gt;Node9</title>
<path fill="none" stroke="blueviolet" stroke-dasharray="5,2" d="M168.223,-314.509C169.526,-347.739 177.356,-465.739 223.714,-547.5 235.102,-567.585 241.623,-571.207 261.167,-583.5 266.764,-587.021 273.155,-590.01 279.413,-592.481"/>
<text text-anchor="middle" x="233.44" y="-573.5" font-family="Helvetica,sans-Serif" font-size="10.00">erpc</text>
</g>
<!-- Node0&#45;&gt;Node7 -->
<g id="edge7" class="edge"><title>Node0&#45;&gt;Node7</title>
<path fill="none" stroke="blueviolet" stroke-dasharray="5,2" d="M168.725,-314.761C171.546,-344.973 183.449,-442.614 223.714,-510.5 235.492,-530.358 241.623,-534.207 261.167,-546.5 268.126,-550.877 276.311,-554.433 283.942,-557.192"/>
<text text-anchor="middle" x="233.44" y="-535.5" font-family="Helvetica,sans-Serif" font-size="10.00">erpc</text>
</g>
<!-- Node0&#45;&gt;Node18 -->
<g id="edge18" class="edge"><title>Node0&#45;&gt;Node18</title>
<path fill="none" stroke="blueviolet" stroke-dasharray="5,2" d="M169.5,-314.836C174.16,-341.278 189.952,-418.268 223.714,-472.5 236.08,-492.364 241.446,-496.907 261.167,-509.5 268.698,-514.309 277.704,-518.108 285.882,-520.952"/>
<text text-anchor="middle" x="233.44" y="-498.5" font-family="Helvetica,sans-Serif" font-size="10.00">erpc</text>
</g>
<!-- Node0&#45;&gt;Node14 -->
<g id="edge14" class="edge"><title>Node0&#45;&gt;Node14</title>
<path fill="none" stroke="blueviolet" stroke-dasharray="5,2" d="M170.737,-314.745C177.548,-336.618 196.557,-392.76 223.714,-433.5 237.043,-453.496 241.084,-459.301 261.167,-472.5 268.634,-477.408 277.626,-481.228 285.811,-484.061"/>
<text text-anchor="middle" x="233.44" y="-460.5" font-family="Helvetica,sans-Serif" font-size="10.00">erpc</text>
</g>
<!-- Node0&#45;&gt;Node2 -->
<g id="edge2" class="edge"><title>Node0&#45;&gt;Node2</title>
<path fill="none" stroke="blueviolet" stroke-dasharray="5,2" d="M171.555,-314.601C181.603,-338.787 212.507,-404.895 261.167,-435.5 269.79,-440.924 280.296,-445.086 289.297,-448.035"/>
<text text-anchor="middle" x="233.44" y="-421.5" font-family="Helvetica,sans-Serif" font-size="10.00">erpc</text>
</g>
<!-- Node0&#45;&gt;Node4 -->
<g id="edge4" class="edge"><title>Node0&#45;&gt;Node4</title>
<path fill="none" stroke="blueviolet" stroke-dasharray="5,2" d="M174.592,-314.637C188.52,-333.192 222.734,-375.474 261.167,-398.5 266.993,-401.99 273.609,-404.995 280.034,-407.494"/>
<text text-anchor="middle" x="233.44" y="-387.5" font-family="Helvetica,sans-Serif" font-size="10.00">erpc</text>
</g>
<!-- Node0&#45;&gt;Node15 -->
<g id="edge15" class="edge"><title>Node0&#45;&gt;Node15</title>
<path fill="none" stroke="blueviolet" stroke-dasharray="5,2" d="M181.421,-314.666C199.156,-326.493 231.579,-347.238 261.167,-361.5 267.929,-364.759 275.445,-367.818 282.492,-370.456"/>
<text text-anchor="middle" x="233.44" y="-353.5" font-family="Helvetica,sans-Serif" font-size="10.00">erpc</text>
</g>
<!-- Node0&#45;&gt;Node5 -->
<g id="edge5" class="edge"><title>Node0&#45;&gt;Node5</title>
<path fill="none" stroke="blueviolet" stroke-dasharray="5,2" d="M202.562,-314.551C228.566,-321.355 263.477,-330.488 286.199,-336.433"/>
<text text-anchor="middle" x="233.44" y="-326.5" font-family="Helvetica,sans-Serif" font-size="10.00">erpc</text>
</g>
<!-- Node0&#45;&gt;Node17 -->
<g id="edge17" class="edge"><title>Node0&#45;&gt;Node17</title>
<path fill="none" stroke="blueviolet" stroke-dasharray="5,2" d="M205.865,-305.5C229.265,-305.5 258.825,-305.5 280.361,-305.5"/>
<text text-anchor="middle" x="233.44" y="-307.5" font-family="Helvetica,sans-Serif" font-size="10.00">erpc</text>
</g>
<!-- Node16 -->
<g id="node12" class="node"><title>Node16</title>
<g id="a_node12"><a xlink:href="group__spi__master__transport.html" target="_top" xlink:title="Kinetis SDK SPI master driver transport. ">
<polygon fill="white" stroke="black" points="277.659,-259.5 277.659,-277.5 343.117,-277.5 343.117,-259.5 277.659,-259.5"/>
<text text-anchor="middle" x="310.388" y="-265.5" font-family="Helvetica,sans-Serif" font-size="10.00">SPI Master</text>
</a>
</g>
</g>
<!-- Node0&#45;&gt;Node16 -->
<g id="edge16" class="edge"><title>Node0&#45;&gt;Node16</title>
<path fill="none" stroke="blueviolet" stroke-dasharray="5,2" d="M202.562,-296.449C225.459,-290.458 255.261,-282.661 277.567,-276.825"/>
<text text-anchor="middle" x="233.44" y="-291.5" font-family="Helvetica,sans-Serif" font-size="10.00">erpc</text>
</g>
<!-- Node6 -->
<g id="node13" class="node"><title>Node6</title>
<g id="a_node13"><a xlink:href="group__infra__server.html" target="_top" xlink:title="Server classes. ">
<polygon fill="white" stroke="black" points="287.661,-222.5 287.661,-240.5 333.114,-240.5 333.114,-222.5 287.661,-222.5"/>
<text text-anchor="middle" x="310.388" y="-228.5" font-family="Helvetica,sans-Serif" font-size="10.00">Server</text>
</a>
</g>
</g>
<!-- Node0&#45;&gt;Node6 -->
<g id="edge6" class="edge"><title>Node0&#45;&gt;Node6</title>
<path fill="none" stroke="blueviolet" stroke-dasharray="5,2" d="M181.745,-296.3C199.564,-284.655 231.804,-264.438 261.167,-250.5 269.621,-246.487 279.164,-242.599 287.517,-239.396"/>
<text text-anchor="middle" x="233.44" y="-271.5" font-family="Helvetica,sans-Serif" font-size="10.00">erpc</text>
</g>
<!-- Node10 -->
<g id="node14" class="node"><title>Node10</title>
<g id="a_node14"><a xlink:href="group__itbp__transport.html" target="_top" xlink:title="Simple inter&#45;thread communications transport. ">
<polygon fill="white" stroke="black" points="276.541,-185.5 276.541,-203.5 344.235,-203.5 344.235,-185.5 276.541,-185.5"/>
<text text-anchor="middle" x="310.388" y="-191.5" font-family="Helvetica,sans-Serif" font-size="10.00">Inter&#45;thread</text>
</a>
</g>
</g>
<!-- Node0&#45;&gt;Node10 -->
<g id="edge10" class="edge"><title>Node0&#45;&gt;Node10</title>
<path fill="none" stroke="blueviolet" stroke-dasharray="5,2" d="M174.632,-296.491C188.631,-278.19 222.973,-236.457 261.167,-213.5 267.568,-209.653 274.887,-206.303 281.857,-203.532"/>
<text text-anchor="middle" x="233.44" y="-243.5" font-family="Helvetica,sans-Serif" font-size="10.00">erpc</text>
</g>
<!-- Node8 -->
<g id="node15" class="node"><title>Node8</title>
<g id="a_node15"><a xlink:href="group__dspi__master__transport.html" target="_top" xlink:title="Kinetis SDK DSPI master driver transport. ">
<polygon fill="white" stroke="black" points="274.048,-148.5 274.048,-166.5 346.728,-166.5 346.728,-148.5 274.048,-148.5"/>
<text text-anchor="middle" x="310.388" y="-154.5" font-family="Helvetica,sans-Serif" font-size="10.00">DSPI Master</text>
</a>
</g>
</g>
<!-- Node0&#45;&gt;Node8 -->
<g id="edge8" class="edge"><title>Node0&#45;&gt;Node8</title>
<path fill="none" stroke="blueviolet" stroke-dasharray="5,2" d="M171.589,-296.488C181.721,-272.537 212.815,-207.047 261.167,-176.5 267.329,-172.607 274.419,-169.276 281.233,-166.54"/>
<text text-anchor="middle" x="233.44" y="-209.5" font-family="Helvetica,sans-Serif" font-size="10.00">erpc</text>
</g>
<!-- Node13 -->
<g id="node16" class="node"><title>Node13</title>
<g id="a_node16"><a xlink:href="group__rpmsg__rtos__transport.html" target="_top" xlink:title="OpenAMP RPMsg RTOS layer transport. ">
<polygon fill="white" stroke="black" points="270.894,-111.5 270.894,-129.5 349.882,-129.5 349.882,-111.5 270.894,-111.5"/>
<text text-anchor="middle" x="310.388" y="-117.5" font-family="Helvetica,sans-Serif" font-size="10.00">RPMsg RTOS</text>
</a>
</g>
</g>
<!-- Node0&#45;&gt;Node13 -->
<g id="edge13" class="edge"><title>Node0&#45;&gt;Node13</title>
<path fill="none" stroke="blueviolet" stroke-dasharray="5,2" d="M170.701,-296.231C177.436,-274.308 196.293,-218.062 223.714,-177.5 236.995,-157.855 241.384,-152.575 261.167,-139.5 267.097,-135.581 273.96,-132.271 280.614,-129.568"/>
<text text-anchor="middle" x="233.44" y="-179.5" font-family="Helvetica,sans-Serif" font-size="10.00">erpc</text>
</g>
<!-- Node3 -->
<g id="node17" class="node"><title>Node3</title>
<g id="a_node17"><a xlink:href="group__infra__codec.html" target="_top" xlink:title="Classes used for message serialization. ">
<polygon fill="white" stroke="black" points="275.151,-74.5 275.151,-92.5 345.624,-92.5 345.624,-74.5 275.151,-74.5"/>
<text text-anchor="middle" x="310.388" y="-80.5" font-family="Helvetica,sans-Serif" font-size="10.00">Serialization</text>
</a>
</g>
</g>
<!-- Node0&#45;&gt;Node3 -->
<g id="edge3" class="edge"><title>Node0&#45;&gt;Node3</title>
<path fill="none" stroke="blueviolet" stroke-dasharray="5,2" d="M169.462,-296.14C174.024,-269.637 189.581,-192.499 223.714,-138.5 236.05,-118.983 241.735,-114.969 261.167,-102.5 267.226,-98.6126 274.207,-95.2993 280.942,-92.581"/>
<text text-anchor="middle" x="233.44" y="-140.5" font-family="Helvetica,sans-Serif" font-size="10.00">erpc</text>
</g>
<!-- Node11 -->
<g id="node18" class="node"><title>Node11</title>
<g id="a_node18"><a xlink:href="group__rpmsg__lite__rtos__transport.html" target="_top" xlink:title="RPMsg&#45;Lite transport using RTOS API. ">
<polygon fill="white" stroke="black" points="261.167,-37.5 261.167,-55.5 359.608,-55.5 359.608,-37.5 261.167,-37.5"/>
<text text-anchor="middle" x="310.388" y="-43.5" font-family="Helvetica,sans-Serif" font-size="10.00">RPMsg&#45;Lite RTOS</text>
</a>
</g>
</g>
<!-- Node0&#45;&gt;Node11 -->
<g id="edge11" class="edge"><title>Node0&#45;&gt;Node11</title>
<path fill="none" stroke="blueviolet" stroke-dasharray="5,2" d="M168.686,-296.216C171.39,-265.934 182.973,-168.101 223.714,-100.5 235.474,-80.9869 241.906,-77.6684 261.167,-65.5 267.329,-61.6072 274.419,-58.2757 281.233,-55.54"/>
<text text-anchor="middle" x="233.44" y="-102.5" font-family="Helvetica,sans-Serif" font-size="10.00">erpc</text>
</g>
<!-- Node12 -->
<g id="node19" class="node"><title>Node12</title>
<g id="a_node19"><a xlink:href="group__rpmsg__lite__transport.html" target="_top" xlink:title="RPMsg&#45;Lite transport. ">
<polygon fill="white" stroke="black" points="276.27,-0.5 276.27,-18.5 344.506,-18.5 344.506,-0.5 276.27,-0.5"/>
<text text-anchor="middle" x="310.388" y="-6.5" font-family="Helvetica,sans-Serif" font-size="10.00">RPMsg&#45;Lite</text>
</a>
</g>
</g>
<!-- Node0&#45;&gt;Node12 -->
<g id="edge12" class="edge"><title>Node0&#45;&gt;Node12</title>
<path fill="none" stroke="blueviolet" stroke-dasharray="5,2" d="M168.136,-296.41C169.137,-262.889 176.045,-143.932 223.714,-62.5 235.071,-43.098 242.074,-40.37 261.167,-28.5 267.433,-24.6043 274.632,-21.2549 281.524,-18.5015"/>
<text text-anchor="middle" x="233.44" y="-64.5" font-family="Helvetica,sans-Serif" font-size="10.00">erpc</text>
</g>
</g>
</svg>
