<?xml version="1.0" encoding="UTF-8" standalone="no"?>
<!DOCTYPE svg PUBLIC "-//W3C//DTD SVG 1.1//EN"
 "http://www.w3.org/Graphics/SVG/1.1/DTD/svg11.dtd">
<!-- Generated by graphviz version 2.38.0 (20140413.2041)
 -->
<!-- Title: RPMsg RTOS Pages: 1 -->
<svg width="477pt" height="660pt"
 viewBox="0.00 0.00 477.30 659.51" xmlns="http://www.w3.org/2000/svg" xmlns:xlink="http://www.w3.org/1999/xlink">
<g id="graph0" class="graph" transform="scale(1 1) rotate(0) translate(4 655.513)">
<title>RPMsg RTOS</title>
<polygon fill="white" stroke="none" points="-4,4 -4,-655.513 473.296,-655.513 473.296,4 -4,4"/>
<!-- Node1 -->
<g id="node1" class="node"><title>Node1</title>
<g id="a_node1"><a xlink:href="group__transports.html" target="_top" xlink:title="Transport layer classes. ">
<polygon fill="white" stroke="black" points="0,-307.513 0,-325.513 91.2197,-325.513 91.2197,-307.513 0,-307.513"/>
<text text-anchor="middle" x="45.6099" y="-313.513" font-family="Helvetica,sans-Serif" font-size="10.00">Transport Layers</text>
</a>
</g>
</g>
<!-- Node0 -->
<g id="node16" class="node"><title>Node0</title>
<polygon fill="#bfbfbf" stroke="black" points="128.22,-307.513 128.22,-325.513 207.208,-325.513 207.208,-307.513 128.22,-307.513"/>
<text text-anchor="middle" x="167.714" y="-313.513" font-family="Helvetica,sans-Serif" font-size="10.00">RPMsg RTOS</text>
</g>
<!-- Node1&#45;&gt;Node0 -->
<g id="edge1" class="edge"><title>Node1&#45;&gt;Node0</title>
<path fill="none" stroke="black" d="M101.333,-316.513C110.29,-316.513 119.405,-316.513 127.875,-316.513"/>
<polygon fill="black" stroke="black" points="101.332,-313.013 91.3322,-316.513 101.332,-320.013 101.332,-313.013"/>
</g>
<!-- Node10 -->
<g id="node2" class="node"><title>Node10</title>
<g id="a_node2"><a xlink:href="group__dspi__slave__transport.html" target="_top" xlink:title="Kinetis SDK DSPI slave driver transport. ">
<polygon fill="white" stroke="black" points="386.509,-622.513 386.509,-640.513 453.642,-640.513 453.642,-622.513 386.509,-622.513"/>
<text text-anchor="middle" x="420.075" y="-628.513" font-family="Helvetica,sans-Serif" font-size="10.00">DSPI Slave</text>
</a>
</g>
</g>
<!-- Node8 -->
<g id="node3" class="node"><title>Node8</title>
<g id="a_node3"><a xlink:href="group__port__threads.html" target="_top" xlink:title="Threading model. ">
<polygon fill="white" stroke="black" points="393.733,-585.513 393.733,-603.513 446.417,-603.513 446.417,-585.513 393.733,-585.513"/>
<text text-anchor="middle" x="420.075" y="-591.513" font-family="Helvetica,sans-Serif" font-size="10.00">Threads</text>
</a>
</g>
</g>
<!-- Node17 -->
<g id="node4" class="node"><title>Node17</title>
<g id="a_node4"><a xlink:href="group__tcp__transport.html" target="_top" xlink:title="Simple TCP/IP transport. ">
<polygon fill="white" stroke="black" points="395.962,-548.513 395.962,-566.513 444.188,-566.513 444.188,-548.513 395.962,-548.513"/>
<text text-anchor="middle" x="420.075" y="-554.513" font-family="Helvetica,sans-Serif" font-size="10.00">TCP/IP</text>
</a>
</g>
</g>
<!-- Node13 -->
<g id="node5" class="node"><title>Node13</title>
<g id="a_node5"><a xlink:href="group__rpmsg__transport.html" target="_top" xlink:title="OpenAMP RPMsg transport. ">
<polygon fill="white" stroke="black" points="395.684,-511.513 395.684,-529.513 444.467,-529.513 444.467,-511.513 395.684,-511.513"/>
<text text-anchor="middle" x="420.075" y="-517.513" font-family="Helvetica,sans-Serif" font-size="10.00">RPMsg</text>
</a>
</g>
</g>
<!-- Node3 -->
<g id="node6" class="node"><title>Node3</title>
<g id="a_node6"><a xlink:href="group__infra__client.html" target="_top" xlink:title="Client classes. ">
<polygon fill="white" stroke="black" points="399.292,-474.513 399.292,-492.513 440.858,-492.513 440.858,-474.513 399.292,-474.513"/>
<text text-anchor="middle" x="420.075" y="-480.513" font-family="Helvetica,sans-Serif" font-size="10.00">Client</text>
</a>
</g>
</g>
<!-- Node5 -->
<g id="node7" class="node"><title>Node5</title>
<g id="a_node7"><a xlink:href="group__infra__transport.html" target="_top" xlink:title="Superclasses for building transports. ">
<polygon fill="white" stroke="black" points="388.362,-437.513 388.362,-455.513 451.789,-455.513 451.789,-437.513 388.362,-437.513"/>
<text text-anchor="middle" x="420.075" y="-443.513" font-family="Helvetica,sans-Serif" font-size="10.00">Transports</text>
</a>
</g>
</g>
<!-- Node14 -->
<g id="node8" class="node"><title>Node14</title>
<g id="a_node8"><a xlink:href="group__serial__transport.html" target="_top" xlink:title="POSIX and Win32 serial port transport. ">
<polygon fill="white" stroke="black" points="389.287,-400.513 389.287,-418.513 450.863,-418.513 450.863,-400.513 389.287,-400.513"/>
<text text-anchor="middle" x="420.075" y="-406.513" font-family="Helvetica,sans-Serif" font-size="10.00">Serial port</text>
</a>
</g>
</g>
<!-- Node6 -->
<g id="node9" class="node"><title>Node6</title>
<g id="a_node9"><a xlink:href="group__infra__utility.html" target="_top" xlink:title="Utility code used by the infrastructure. ">
<polygon fill="white" stroke="black" points="395.962,-363.513 395.962,-381.513 444.188,-381.513 444.188,-363.513 395.962,-363.513"/>
<text text-anchor="middle" x="420.075" y="-369.513" font-family="Helvetica,sans-Serif" font-size="10.00">Utilities</text>
</a>
</g>
</g>
<!-- Node16 -->
<g id="node10" class="node"><title>Node16</title>
<g id="a_node10"><a xlink:href="group__spi__slave__transport.html" target="_top" xlink:title="Kinetis SDK SPI slave driver transport. ">
<polygon fill="white" stroke="black" points="390.12,-326.513 390.12,-344.513 450.031,-344.513 450.031,-326.513 390.12,-326.513"/>
<text text-anchor="middle" x="420.075" y="-332.513" font-family="Helvetica,sans-Serif" font-size="10.00">SPI Slave</text>
</a>
</g>
</g>
<!-- Node18 -->
<g id="node11" class="node"><title>Node18</title>
<g id="a_node11"><a xlink:href="group__uart__transport.html" target="_top" xlink:title="CMSIS UART driver transport. ">
<polygon fill="white" stroke="black" points="381.328,-289.513 381.328,-307.513 458.822,-307.513 458.822,-289.513 381.328,-289.513"/>
<text text-anchor="middle" x="420.075" y="-295.513" font-family="Helvetica,sans-Serif" font-size="10.00">CMSIS UART</text>
</a>
</g>
</g>
<!-- Node15 -->
<g id="node12" class="node"><title>Node15</title>
<g id="a_node12"><a xlink:href="group__spi__master__transport.html" target="_top" xlink:title="Kinetis SDK SPI master driver transport. ">
<polygon fill="white" stroke="black" points="387.346,-252.513 387.346,-270.513 452.804,-270.513 452.804,-252.513 387.346,-252.513"/>
<text text-anchor="middle" x="420.075" y="-258.513" font-family="Helvetica,sans-Serif" font-size="10.00">SPI Master</text>
</a>
</g>
</g>
<!-- Node7 -->
<g id="node13" class="node"><title>Node7</title>
<g id="a_node13"><a xlink:href="group__infra__server.html" target="_top" xlink:title="Server classes. ">
<polygon fill="white" stroke="black" points="397.349,-215.513 397.349,-233.513 442.802,-233.513 442.802,-215.513 397.349,-215.513"/>
<text text-anchor="middle" x="420.075" y="-221.513" font-family="Helvetica,sans-Serif" font-size="10.00">Server</text>
</a>
</g>
</g>
<!-- Node11 -->
<g id="node14" class="node"><title>Node11</title>
<g id="a_node14"><a xlink:href="group__itbp__transport.html" target="_top" xlink:title="Simple inter&#45;thread communications transport. ">
<polygon fill="white" stroke="black" points="386.228,-178.513 386.228,-196.513 453.922,-196.513 453.922,-178.513 386.228,-178.513"/>
<text text-anchor="middle" x="420.075" y="-184.513" font-family="Helvetica,sans-Serif" font-size="10.00">Inter&#45;thread</text>
</a>
</g>
</g>
<!-- Node9 -->
<g id="node15" class="node"><title>Node9</title>
<g id="a_node15"><a xlink:href="group__dspi__master__transport.html" target="_top" xlink:title="Kinetis SDK DSPI master driver transport. ">
<polygon fill="white" stroke="black" points="383.735,-141.513 383.735,-159.513 456.415,-159.513 456.415,-141.513 383.735,-141.513"/>
<text text-anchor="middle" x="420.075" y="-147.513" font-family="Helvetica,sans-Serif" font-size="10.00">DSPI Master</text>
</a>
</g>
</g>
<!-- Node0&#45;&gt;Node10 -->
<g id="edge10" class="edge"><title>Node0&#45;&gt;Node10</title>
<path fill="none" stroke="blueviolet" stroke-dasharray="5,2" d="M169.094,-325.63C171.166,-370.548 182.607,-567.737 225.208,-607.513 268.589,-648.016 343.254,-644.359 386.16,-637.99"/>
<text text-anchor="middle" x="289.031" y="-643.513" font-family="Helvetica,sans-Serif" font-size="10.00">erpc</text>
</g>
<!-- Node0&#45;&gt;Node8 -->
<g id="edge8" class="edge"><title>Node0&#45;&gt;Node8</title>
<path fill="none" stroke="blueviolet" stroke-dasharray="5,2" d="M169.365,-325.554C172.525,-366.783 187.678,-536.412 225.208,-570.513 249.367,-592.464 346.812,-594.973 393.668,-594.867"/>
<text text-anchor="middle" x="289.031" y="-595.513" font-family="Helvetica,sans-Serif" font-size="10.00">erpc</text>
</g>
<!-- Node0&#45;&gt;Node17 -->
<g id="edge18" class="edge"><title>Node0&#45;&gt;Node17</title>
<path fill="none" stroke="blueviolet" stroke-dasharray="5,2" d="M169.759,-325.679C174.228,-363.165 192.98,-504.154 225.208,-532.513 250.112,-554.426 350.041,-557.45 395.883,-557.655"/>
<text text-anchor="middle" x="289.031" y="-558.513" font-family="Helvetica,sans-Serif" font-size="10.00">erpc</text>
</g>
<!-- Node0&#45;&gt;Node13 -->
<g id="edge14" class="edge"><title>Node0&#45;&gt;Node13</title>
<path fill="none" stroke="blueviolet" stroke-dasharray="5,2" d="M168.458,-325.772C168.18,-355.746 171.721,-450.765 225.208,-495.513 250.586,-516.744 349.787,-520.136 395.621,-520.547"/>
<text text-anchor="middle" x="289.031" y="-520.513" font-family="Helvetica,sans-Serif" font-size="10.00">erpc</text>
</g>
<!-- Node0&#45;&gt;Node3 -->
<g id="edge3" class="edge"><title>Node0&#45;&gt;Node3</title>
<path fill="none" stroke="blueviolet" stroke-dasharray="5,2" d="M169.298,-325.675C171.471,-351.38 181.408,-424.505 225.208,-458.513 252.013,-479.325 355.262,-482.877 399.151,-483.435"/>
<text text-anchor="middle" x="289.031" y="-483.513" font-family="Helvetica,sans-Serif" font-size="10.00">erpc</text>
</g>
<!-- Node0&#45;&gt;Node5 -->
<g id="edge5" class="edge"><title>Node0&#45;&gt;Node5</title>
<path fill="none" stroke="blueviolet" stroke-dasharray="5,2" d="M170.488,-325.676C175.16,-347.074 189.952,-400.345 225.208,-424.513 250.982,-442.18 340.302,-445.809 388.186,-446.457"/>
<text text-anchor="middle" x="289.031" y="-446.513" font-family="Helvetica,sans-Serif" font-size="10.00">erpc</text>
</g>
<!-- Node0&#45;&gt;Node14 -->
<g id="edge15" class="edge"><title>Node0&#45;&gt;Node14</title>
<path fill="none" stroke="blueviolet" stroke-dasharray="5,2" d="M173.921,-325.761C182.547,-340.122 201.251,-367.485 225.208,-380.513 277.678,-409.044 349.32,-412.086 389.187,-411.177"/>
<text text-anchor="middle" x="289.031" y="-412.513" font-family="Helvetica,sans-Serif" font-size="10.00">erpc</text>
</g>
<!-- Node0&#45;&gt;Node6 -->
<g id="edge6" class="edge"><title>Node0&#45;&gt;Node6</title>
<path fill="none" stroke="blueviolet" stroke-dasharray="5,2" d="M184.515,-325.634C195.568,-331.617 210.864,-339.12 225.208,-343.513 285.082,-361.848 359.039,-368.808 395.904,-371.272"/>
<text text-anchor="middle" x="289.031" y="-368.513" font-family="Helvetica,sans-Serif" font-size="10.00">erpc</text>
</g>
<!-- Node0&#45;&gt;Node16 -->
<g id="edge17" class="edge"><title>Node0&#45;&gt;Node16</title>
<path fill="none" stroke="blueviolet" stroke-dasharray="5,2" d="M207.284,-319.44C257.624,-323.26 344.615,-329.862 389.849,-333.295"/>
<text text-anchor="middle" x="289.031" y="-331.513" font-family="Helvetica,sans-Serif" font-size="10.00">erpc</text>
</g>
<!-- Node0&#45;&gt;Node18 -->
<g id="edge19" class="edge"><title>Node0&#45;&gt;Node18</title>
<path fill="none" stroke="blueviolet" stroke-dasharray="5,2" d="M202.873,-307.496C210.194,-305.889 217.919,-304.436 225.208,-303.513 278.985,-296.702 341.8,-296.48 381.014,-297.253"/>
<text text-anchor="middle" x="289.031" y="-305.513" font-family="Helvetica,sans-Serif" font-size="10.00">erpc</text>
</g>
<!-- Node0&#45;&gt;Node15 -->
<g id="edge16" class="edge"><title>Node0&#45;&gt;Node15</title>
<path fill="none" stroke="blueviolet" stroke-dasharray="5,2" d="M180.516,-307.301C191.451,-299.3 208.501,-288.139 225.208,-282.513 280.072,-264.037 348.141,-260.874 387.295,-260.81"/>
<text text-anchor="middle" x="289.031" y="-284.513" font-family="Helvetica,sans-Serif" font-size="10.00">erpc</text>
</g>
<!-- Node0&#45;&gt;Node7 -->
<g id="edge7" class="edge"><title>Node0&#45;&gt;Node7</title>
<path fill="none" stroke="blueviolet" stroke-dasharray="5,2" d="M173.152,-307.455C181.181,-292.157 199.684,-261.503 225.208,-247.513 281.084,-216.885 359.446,-218.838 397.133,-222.036"/>
<text text-anchor="middle" x="289.031" y="-249.513" font-family="Helvetica,sans-Serif" font-size="10.00">erpc</text>
</g>
<!-- Node0&#45;&gt;Node11 -->
<g id="edge11" class="edge"><title>Node0&#45;&gt;Node11</title>
<path fill="none" stroke="blueviolet" stroke-dasharray="5,2" d="M170.305,-307.379C174.646,-285.516 188.888,-230.163 225.208,-205.513 273.454,-172.767 344.705,-175.979 386.053,-181.557"/>
<text text-anchor="middle" x="289.031" y="-207.513" font-family="Helvetica,sans-Serif" font-size="10.00">erpc</text>
</g>
<!-- Node0&#45;&gt;Node9 -->
<g id="edge9" class="edge"><title>Node0&#45;&gt;Node9</title>
<path fill="none" stroke="blueviolet" stroke-dasharray="5,2" d="M168.902,-307.308C170.007,-280.029 177.358,-199.289 225.208,-163.513 271.136,-129.173 341.557,-134.708 383.688,-142.302"/>
<text text-anchor="middle" x="289.031" y="-165.513" font-family="Helvetica,sans-Serif" font-size="10.00">erpc</text>
</g>
<!-- Node4 -->
<g id="node17" class="node"><title>Node4</title>
<g id="a_node17"><a xlink:href="group__infra__codec.html" target="_top" xlink:title="Classes used for message serialization. ">
<polygon fill="white" stroke="black" points="384.839,-104.513 384.839,-122.513 455.312,-122.513 455.312,-104.513 384.839,-104.513"/>
<text text-anchor="middle" x="420.075" y="-110.513" font-family="Helvetica,sans-Serif" font-size="10.00">Serialization</text>
</a>
</g>
</g>
<!-- Node0&#45;&gt;Node4 -->
<g id="edge4" class="edge"><title>Node0&#45;&gt;Node4</title>
<path fill="none" stroke="blueviolet" stroke-dasharray="5,2" d="M170.033,-307.069C175.194,-271.607 195.214,-147.216 225.208,-123.513 249.072,-104.653 335.662,-107.417 384.661,-110.688"/>
<text text-anchor="middle" x="289.031" y="-125.513" font-family="Helvetica,sans-Serif" font-size="10.00">erpc</text>
</g>
<!-- Node2 -->
<g id="node18" class="node"><title>Node2</title>
<g id="a_node18"><a xlink:href="group__rpmsg__lite__rtos__transport.html" target="_top" xlink:title="RPMsg&#45;Lite transport using RTOS API. ">
<polygon fill="white" stroke="black" points="370.854,-60.5126 370.854,-78.5126 469.296,-78.5126 469.296,-60.5126 370.854,-60.5126"/>
<text text-anchor="middle" x="420.075" y="-66.5126" font-family="Helvetica,sans-Serif" font-size="10.00">RPMsg&#45;Lite RTOS</text>
</a>
</g>
</g>
<!-- Node0&#45;&gt;Node2 -->
<g id="edge2" class="edge"><title>Node0&#45;&gt;Node2</title>
<path fill="none" stroke="orange" stroke-dasharray="5,2" d="M169.68,-307.309C173.893,-269.002 191.965,-122.841 225.208,-93.5126 246.125,-75.058 320.21,-70.4107 370.496,-69.4462"/>
<text text-anchor="middle" x="289.031" y="-95.5126" font-family="Helvetica,sans-Serif" font-size="10.00">erpc::RPMsgRTOSTransport</text>
</g>
<!-- Node0&#45;&gt;Node2 -->
<g id="edge12" class="edge"><title>Node0&#45;&gt;Node2</title>
<path fill="none" stroke="blueviolet" stroke-dasharray="5,2" d="M169.225,-307.467C171.802,-265.449 184.884,-89.9887 225.208,-57.5126 276.027,-16.5833 360.783,-44.3835 399.139,-60.3973"/>
<text text-anchor="middle" x="289.031" y="-59.5126" font-family="Helvetica,sans-Serif" font-size="10.00">erpc</text>
</g>
<!-- Node12 -->
<g id="node19" class="node"><title>Node12</title>
<g id="a_node19"><a xlink:href="group__rpmsg__lite__transport.html" target="_top" xlink:title="RPMsg&#45;Lite transport. ">
<polygon fill="white" stroke="black" points="385.957,-15.5126 385.957,-33.5126 454.193,-33.5126 454.193,-15.5126 385.957,-15.5126"/>
<text text-anchor="middle" x="420.075" y="-21.5126" font-family="Helvetica,sans-Serif" font-size="10.00">RPMsg&#45;Lite</text>
</a>
</g>
</g>
<!-- Node0&#45;&gt;Node12 -->
<g id="edge13" class="edge"><title>Node0&#45;&gt;Node12</title>
<path fill="none" stroke="blueviolet" stroke-dasharray="5,2" d="M168.995,-307.256C170.588,-261.67 180.103,-61.7277 225.208,-24.5126 273.367,15.2218 353.525,-2.62763 394.022,-15.4722"/>
<text text-anchor="middle" x="289.031" y="-26.5126" font-family="Helvetica,sans-Serif" font-size="10.00">erpc</text>
</g>
</g>
</svg>
