<?xml version="1.0" encoding="UTF-8" standalone="no"?>
<!DOCTYPE svg PUBLIC "-//W3C//DTD SVG 1.1//EN"
 "http://www.w3.org/Graphics/SVG/1.1/DTD/svg11.dtd">
<!-- Generated by graphviz version 2.38.0 (20140413.2041)
 -->
<!-- Title: Utilities Pages: 1 -->
<svg width="322pt" height="619pt"
 viewBox="0.00 0.00 322.03 619.00" xmlns="http://www.w3.org/2000/svg" xmlns:xlink="http://www.w3.org/1999/xlink">
<g id="graph0" class="graph" transform="scale(1 1) rotate(0) translate(4 615)">
<title>Utilities</title>
<polygon fill="white" stroke="none" points="-4,4 -4,-615 318.032,-615 318.032,4 -4,4"/>
<!-- Node8 -->
<g id="node1" class="node"><title>Node8</title>
<g id="a_node1"><a xlink:href="group__dspi__slave__transport.html" target="_top" xlink:title="Kinetis SDK DSPI slave driver transport. ">
<polygon fill="white" stroke="black" points="231.245,-592.5 231.245,-610.5 298.378,-610.5 298.378,-592.5 231.245,-592.5"/>
<text text-anchor="middle" x="264.812" y="-598.5" font-family="Helvetica,sans-Serif" font-size="10.00">DSPI Slave</text>
</a>
</g>
</g>
<!-- Node6 -->
<g id="node2" class="node"><title>Node6</title>
<g id="a_node2"><a xlink:href="group__port__threads.html" target="_top" xlink:title="Threading model. ">
<polygon fill="white" stroke="black" points="238.469,-555.5 238.469,-573.5 291.154,-573.5 291.154,-555.5 238.469,-555.5"/>
<text text-anchor="middle" x="264.812" y="-561.5" font-family="Helvetica,sans-Serif" font-size="10.00">Threads</text>
</a>
</g>
</g>
<!-- Node17 -->
<g id="node3" class="node"><title>Node17</title>
<g id="a_node3"><a xlink:href="group__tcp__transport.html" target="_top" xlink:title="Simple TCP/IP transport. ">
<polygon fill="white" stroke="black" points="240.698,-518.5 240.698,-536.5 288.925,-536.5 288.925,-518.5 240.698,-518.5"/>
<text text-anchor="middle" x="264.812" y="-524.5" font-family="Helvetica,sans-Serif" font-size="10.00">TCP/IP</text>
</a>
</g>
</g>
<!-- Node13 -->
<g id="node4" class="node"><title>Node13</title>
<g id="a_node4"><a xlink:href="group__rpmsg__transport.html" target="_top" xlink:title="OpenAMP RPMsg transport. ">
<polygon fill="white" stroke="black" points="240.42,-481.5 240.42,-499.5 289.203,-499.5 289.203,-481.5 240.42,-481.5"/>
<text text-anchor="middle" x="264.812" y="-487.5" font-family="Helvetica,sans-Serif" font-size="10.00">RPMsg</text>
</a>
</g>
</g>
<!-- Node1 -->
<g id="node5" class="node"><title>Node1</title>
<g id="a_node5"><a xlink:href="group__infra.html" target="_top" xlink:title="C++ core. ">
<polygon fill="white" stroke="black" points="0,-296.5 0,-314.5 74.9111,-314.5 74.9111,-296.5 0,-296.5"/>
<text text-anchor="middle" x="37.4556" y="-302.5" font-family="Helvetica,sans-Serif" font-size="10.00">Infrastructure</text>
</a>
</g>
</g>
<!-- Node0 -->
<g id="node9" class="node"><title>Node0</title>
<polygon fill="#bfbfbf" stroke="black" points="111.911,-296.5 111.911,-314.5 160.138,-314.5 160.138,-296.5 111.911,-296.5"/>
<text text-anchor="middle" x="136.024" y="-302.5" font-family="Helvetica,sans-Serif" font-size="10.00">Utilities</text>
</g>
<!-- Node1&#45;&gt;Node0 -->
<g id="edge1" class="edge"><title>Node1&#45;&gt;Node0</title>
<path fill="none" stroke="black" d="M85.0054,-305.5C94.3517,-305.5 103.785,-305.5 111.901,-305.5"/>
<polygon fill="black" stroke="black" points="84.9641,-302 74.9641,-305.5 84.9641,-309 84.9641,-302"/>
</g>
<!-- Node2 -->
<g id="node6" class="node"><title>Node2</title>
<g id="a_node6"><a xlink:href="group__infra__client.html" target="_top" xlink:title="Client classes. ">
<polygon fill="white" stroke="black" points="244.028,-444.5 244.028,-462.5 285.595,-462.5 285.595,-444.5 244.028,-444.5"/>
<text text-anchor="middle" x="264.812" y="-450.5" font-family="Helvetica,sans-Serif" font-size="10.00">Client</text>
</a>
</g>
</g>
<!-- Node4 -->
<g id="node7" class="node"><title>Node4</title>
<g id="a_node7"><a xlink:href="group__infra__transport.html" target="_top" xlink:title="Superclasses for building transports. ">
<polygon fill="white" stroke="black" points="233.098,-407.5 233.098,-425.5 296.525,-425.5 296.525,-407.5 233.098,-407.5"/>
<text text-anchor="middle" x="264.812" y="-413.5" font-family="Helvetica,sans-Serif" font-size="10.00">Transports</text>
</a>
</g>
</g>
<!-- Node14 -->
<g id="node8" class="node"><title>Node14</title>
<g id="a_node8"><a xlink:href="group__serial__transport.html" target="_top" xlink:title="POSIX and Win32 serial port transport. ">
<polygon fill="white" stroke="black" points="234.023,-370.5 234.023,-388.5 295.6,-388.5 295.6,-370.5 234.023,-370.5"/>
<text text-anchor="middle" x="264.812" y="-376.5" font-family="Helvetica,sans-Serif" font-size="10.00">Serial port</text>
</a>
</g>
</g>
<!-- Node0&#45;&gt;Node8 -->
<g id="edge8" class="edge"><title>Node0&#45;&gt;Node8</title>
<path fill="none" stroke="blueviolet" stroke-dasharray="5,2" d="M136.553,-314.543C135.208,-347.898 133.958,-466.35 178.138,-548.5 188.929,-568.565 196.221,-571.506 215.591,-583.5 221.213,-586.981 227.614,-589.954 233.874,-592.421"/>
<text text-anchor="middle" x="187.864" y="-573.5" font-family="Helvetica,sans-Serif" font-size="10.00">erpc</text>
</g>
<!-- Node0&#45;&gt;Node6 -->
<g id="edge6" class="edge"><title>Node0&#45;&gt;Node6</title>
<path fill="none" stroke="blueviolet" stroke-dasharray="5,2" d="M136.915,-314.809C136.949,-345.176 140.167,-443.316 178.138,-511.5 189.222,-531.405 196.221,-534.506 215.591,-546.5 222.58,-550.828 230.774,-554.37 238.403,-557.132"/>
<text text-anchor="middle" x="187.864" y="-536.5" font-family="Helvetica,sans-Serif" font-size="10.00">erpc</text>
</g>
<!-- Node0&#45;&gt;Node17 -->
<g id="edge17" class="edge"><title>Node0&#45;&gt;Node17</title>
<path fill="none" stroke="blueviolet" stroke-dasharray="5,2" d="M137.481,-314.531C139.161,-340.814 146.664,-418.859 178.138,-473.5 189.662,-493.507 196.047,-497.207 215.591,-509.5 223.155,-514.258 232.167,-518.045 240.343,-520.894"/>
<text text-anchor="middle" x="187.864" y="-499.5" font-family="Helvetica,sans-Serif" font-size="10.00">erpc</text>
</g>
<!-- Node0&#45;&gt;Node13 -->
<g id="edge13" class="edge"><title>Node0&#45;&gt;Node13</title>
<path fill="none" stroke="blueviolet" stroke-dasharray="5,2" d="M138.305,-314.73C141.734,-337.095 152.654,-395.365 178.138,-436.5 190.297,-456.127 196.047,-460.207 215.591,-472.5 223.155,-477.258 232.167,-481.045 240.343,-483.894"/>
<text text-anchor="middle" x="187.864" y="-461.5" font-family="Helvetica,sans-Serif" font-size="10.00">erpc</text>
</g>
<!-- Node0&#45;&gt;Node2 -->
<g id="edge2" class="edge"><title>Node0&#45;&gt;Node2</title>
<path fill="none" stroke="blueviolet" stroke-dasharray="5,2" d="M139.754,-314.529C145.248,-331.838 158.791,-370.455 178.138,-398.5 191.424,-417.761 195.87,-422.907 215.591,-435.5 224.177,-440.983 234.678,-445.152 243.686,-448.09"/>
<text text-anchor="middle" x="187.864" y="-424.5" font-family="Helvetica,sans-Serif" font-size="10.00">erpc</text>
</g>
<!-- Node0&#45;&gt;Node4 -->
<g id="edge4" class="edge"><title>Node0&#45;&gt;Node4</title>
<path fill="none" stroke="blueviolet" stroke-dasharray="5,2" d="M141.954,-314.59C152.675,-333.442 180.032,-376.836 215.591,-398.5 221.314,-401.987 227.823,-404.976 234.165,-407.459"/>
<text text-anchor="middle" x="187.864" y="-386.5" font-family="Helvetica,sans-Serif" font-size="10.00">erpc</text>
</g>
<!-- Node0&#45;&gt;Node14 -->
<g id="edge14" class="edge"><title>Node0&#45;&gt;Node14</title>
<path fill="none" stroke="blueviolet" stroke-dasharray="5,2" d="M147.485,-314.701C161.897,-326.951 189.097,-348.571 215.591,-361.5 222.256,-364.753 229.668,-367.788 236.643,-370.406"/>
<text text-anchor="middle" x="187.864" y="-352.5" font-family="Helvetica,sans-Serif" font-size="10.00">erpc</text>
</g>
<!-- Node16 -->
<g id="node10" class="node"><title>Node16</title>
<g id="a_node10"><a xlink:href="group__spi__slave__transport.html" target="_top" xlink:title="Kinetis SDK SPI slave driver transport. ">
<polygon fill="white" stroke="black" points="234.856,-333.5 234.856,-351.5 294.767,-351.5 294.767,-333.5 234.856,-333.5"/>
<text text-anchor="middle" x="264.812" y="-339.5" font-family="Helvetica,sans-Serif" font-size="10.00">SPI Slave</text>
</a>
</g>
</g>
<!-- Node0&#45;&gt;Node16 -->
<g id="edge16" class="edge"><title>Node0&#45;&gt;Node16</title>
<path fill="none" stroke="blueviolet" stroke-dasharray="5,2" d="M160.419,-313.764C166.187,-315.719 172.367,-317.745 178.138,-319.5 196.85,-325.191 218.081,-330.896 234.727,-335.2"/>
<text text-anchor="middle" x="187.864" y="-326.5" font-family="Helvetica,sans-Serif" font-size="10.00">erpc</text>
</g>
<!-- Node18 -->
<g id="node11" class="node"><title>Node18</title>
<g id="a_node11"><a xlink:href="group__uart__transport.html" target="_top" xlink:title="CMSIS UART driver transport. ">
<polygon fill="white" stroke="black" points="226.064,-296.5 226.064,-314.5 303.559,-314.5 303.559,-296.5 226.064,-296.5"/>
<text text-anchor="middle" x="264.812" y="-302.5" font-family="Helvetica,sans-Serif" font-size="10.00">CMSIS UART</text>
</a>
</g>
</g>
<!-- Node0&#45;&gt;Node18 -->
<g id="edge18" class="edge"><title>Node0&#45;&gt;Node18</title>
<path fill="none" stroke="blueviolet" stroke-dasharray="5,2" d="M160.279,-305.5C178.58,-305.5 204.463,-305.5 225.771,-305.5"/>
<text text-anchor="middle" x="187.864" y="-307.5" font-family="Helvetica,sans-Serif" font-size="10.00">erpc</text>
</g>
<!-- Node15 -->
<g id="node12" class="node"><title>Node15</title>
<g id="a_node12"><a xlink:href="group__spi__master__transport.html" target="_top" xlink:title="Kinetis SDK SPI master driver transport. ">
<polygon fill="white" stroke="black" points="232.083,-259.5 232.083,-277.5 297.541,-277.5 297.541,-259.5 232.083,-259.5"/>
<text text-anchor="middle" x="264.812" y="-265.5" font-family="Helvetica,sans-Serif" font-size="10.00">SPI Master</text>
</a>
</g>
</g>
<!-- Node0&#45;&gt;Node15 -->
<g id="edge15" class="edge"><title>Node0&#45;&gt;Node15</title>
<path fill="none" stroke="blueviolet" stroke-dasharray="5,2" d="M160.419,-297.236C166.187,-295.281 172.367,-293.255 178.138,-291.5 195.819,-286.123 215.749,-280.733 231.934,-276.524"/>
<text text-anchor="middle" x="187.864" y="-293.5" font-family="Helvetica,sans-Serif" font-size="10.00">erpc</text>
</g>
<!-- Node5 -->
<g id="node13" class="node"><title>Node5</title>
<g id="a_node13"><a xlink:href="group__infra__server.html" target="_top" xlink:title="Server classes. ">
<polygon fill="white" stroke="black" points="242.085,-222.5 242.085,-240.5 287.538,-240.5 287.538,-222.5 242.085,-222.5"/>
<text text-anchor="middle" x="264.812" y="-228.5" font-family="Helvetica,sans-Serif" font-size="10.00">Server</text>
</a>
</g>
</g>
<!-- Node0&#45;&gt;Node5 -->
<g id="edge5" class="edge"><title>Node0&#45;&gt;Node5</title>
<path fill="none" stroke="blueviolet" stroke-dasharray="5,2" d="M147.485,-296.299C161.897,-284.049 189.097,-262.429 215.591,-249.5 223.943,-245.424 233.467,-241.689 241.833,-238.691"/>
<text text-anchor="middle" x="187.864" y="-273.5" font-family="Helvetica,sans-Serif" font-size="10.00">erpc</text>
</g>
<!-- Node9 -->
<g id="node14" class="node"><title>Node9</title>
<g id="a_node14"><a xlink:href="group__itbp__transport.html" target="_top" xlink:title="Simple inter&#45;thread communications transport. ">
<polygon fill="white" stroke="black" points="230.964,-185.5 230.964,-203.5 298.659,-203.5 298.659,-185.5 230.964,-185.5"/>
<text text-anchor="middle" x="264.812" y="-191.5" font-family="Helvetica,sans-Serif" font-size="10.00">Inter&#45;thread</text>
</a>
</g>
</g>
<!-- Node0&#45;&gt;Node9 -->
<g id="edge9" class="edge"><title>Node0&#45;&gt;Node9</title>
<path fill="none" stroke="blueviolet" stroke-dasharray="5,2" d="M141.954,-296.41C152.675,-277.558 180.032,-234.164 215.591,-212.5 221.314,-209.013 227.823,-206.024 234.165,-203.541"/>
<text text-anchor="middle" x="187.864" y="-247.5" font-family="Helvetica,sans-Serif" font-size="10.00">erpc</text>
</g>
<!-- Node7 -->
<g id="node15" class="node"><title>Node7</title>
<g id="a_node15"><a xlink:href="group__dspi__master__transport.html" target="_top" xlink:title="Kinetis SDK DSPI master driver transport. ">
<polygon fill="white" stroke="black" points="228.472,-148.5 228.472,-166.5 301.151,-166.5 301.151,-148.5 228.472,-148.5"/>
<text text-anchor="middle" x="264.812" y="-154.5" font-family="Helvetica,sans-Serif" font-size="10.00">DSPI Master</text>
</a>
</g>
</g>
<!-- Node0&#45;&gt;Node7 -->
<g id="edge7" class="edge"><title>Node0&#45;&gt;Node7</title>
<path fill="none" stroke="blueviolet" stroke-dasharray="5,2" d="M139.754,-296.471C145.248,-279.162 158.791,-240.545 178.138,-212.5 191.424,-193.239 195.87,-188.093 215.591,-175.5 221.089,-171.989 227.372,-169.017 233.546,-166.562"/>
<text text-anchor="middle" x="187.864" y="-214.5" font-family="Helvetica,sans-Serif" font-size="10.00">erpc</text>
</g>
<!-- Node12 -->
<g id="node16" class="node"><title>Node12</title>
<g id="a_node16"><a xlink:href="group__rpmsg__rtos__transport.html" target="_top" xlink:title="OpenAMP RPMsg RTOS layer transport. ">
<polygon fill="white" stroke="black" points="225.317,-111.5 225.317,-129.5 304.306,-129.5 304.306,-111.5 225.317,-111.5"/>
<text text-anchor="middle" x="264.812" y="-117.5" font-family="Helvetica,sans-Serif" font-size="10.00">RPMsg RTOS</text>
</a>
</g>
</g>
<!-- Node0&#45;&gt;Node12 -->
<g id="edge12" class="edge"><title>Node0&#45;&gt;Node12</title>
<path fill="none" stroke="blueviolet" stroke-dasharray="5,2" d="M138.305,-296.27C141.734,-273.905 152.654,-215.635 178.138,-174.5 190.297,-154.873 196.047,-150.793 215.591,-138.5 221.188,-134.979 227.579,-131.99 233.836,-129.519"/>
<text text-anchor="middle" x="187.864" y="-176.5" font-family="Helvetica,sans-Serif" font-size="10.00">erpc</text>
</g>
<!-- Node3 -->
<g id="node17" class="node"><title>Node3</title>
<g id="a_node17"><a xlink:href="group__infra__codec.html" target="_top" xlink:title="Classes used for message serialization. ">
<polygon fill="white" stroke="black" points="229.575,-74.5 229.575,-92.5 300.048,-92.5 300.048,-74.5 229.575,-74.5"/>
<text text-anchor="middle" x="264.812" y="-80.5" font-family="Helvetica,sans-Serif" font-size="10.00">Serialization</text>
</a>
</g>
</g>
<!-- Node0&#45;&gt;Node3 -->
<g id="edge3" class="edge"><title>Node0&#45;&gt;Node3</title>
<path fill="none" stroke="blueviolet" stroke-dasharray="5,2" d="M137.481,-296.469C139.161,-270.186 146.664,-192.141 178.138,-137.5 189.662,-117.493 196.047,-113.793 215.591,-101.5 221.188,-97.9794 227.579,-94.9902 233.836,-92.5192"/>
<text text-anchor="middle" x="187.864" y="-139.5" font-family="Helvetica,sans-Serif" font-size="10.00">erpc</text>
</g>
<!-- Node10 -->
<g id="node18" class="node"><title>Node10</title>
<g id="a_node18"><a xlink:href="group__rpmsg__lite__rtos__transport.html" target="_top" xlink:title="RPMsg&#45;Lite transport using RTOS API. ">
<polygon fill="white" stroke="black" points="215.591,-37.5 215.591,-55.5 314.032,-55.5 314.032,-37.5 215.591,-37.5"/>
<text text-anchor="middle" x="264.812" y="-43.5" font-family="Helvetica,sans-Serif" font-size="10.00">RPMsg&#45;Lite RTOS</text>
</a>
</g>
</g>
<!-- Node0&#45;&gt;Node10 -->
<g id="edge10" class="edge"><title>Node0&#45;&gt;Node10</title>
<path fill="none" stroke="blueviolet" stroke-dasharray="5,2" d="M136.915,-296.191C136.949,-265.824 140.167,-167.684 178.138,-99.5 189.222,-79.5955 196.221,-76.4938 215.591,-64.5 221.213,-61.0189 227.614,-58.0463 233.874,-55.579"/>
<text text-anchor="middle" x="187.864" y="-101.5" font-family="Helvetica,sans-Serif" font-size="10.00">erpc</text>
</g>
<!-- Node11 -->
<g id="node19" class="node"><title>Node11</title>
<g id="a_node19"><a xlink:href="group__rpmsg__lite__transport.html" target="_top" xlink:title="RPMsg&#45;Lite transport. ">
<polygon fill="white" stroke="black" points="230.693,-0.5 230.693,-18.5 298.93,-18.5 298.93,-0.5 230.693,-0.5"/>
<text text-anchor="middle" x="264.812" y="-6.5" font-family="Helvetica,sans-Serif" font-size="10.00">RPMsg&#45;Lite</text>
</a>
</g>
</g>
<!-- Node0&#45;&gt;Node11 -->
<g id="edge11" class="edge"><title>Node0&#45;&gt;Node11</title>
<path fill="none" stroke="blueviolet" stroke-dasharray="5,2" d="M136.553,-296.457C135.208,-263.102 133.958,-144.65 178.138,-62.5 188.929,-42.4347 196.221,-39.4938 215.591,-27.5 221.213,-24.0189 227.614,-21.0463 233.874,-18.579"/>
<text text-anchor="middle" x="187.864" y="-64.5" font-family="Helvetica,sans-Serif" font-size="10.00">erpc</text>
</g>
</g>
</svg>
