<?xml version="1.0" encoding="UTF-8" standalone="no"?>
<!DOCTYPE svg PUBLIC "-//W3C//DTD SVG 1.1//EN"
 "http://www.w3.org/Graphics/SVG/1.1/DTD/svg11.dtd">
<!-- Generated by graphviz version 2.38.0 (20140413.2041)
 -->
<!-- Title: DSPI Slave Pages: 1 -->
<svg width="357pt" height="619pt"
 viewBox="0.00 0.00 357.25 619.00" xmlns="http://www.w3.org/2000/svg" xmlns:xlink="http://www.w3.org/1999/xlink">
<g id="graph0" class="graph" transform="scale(1 1) rotate(0) translate(4 615)">
<title>DSPI Slave</title>
<polygon fill="white" stroke="none" points="-4,4 -4,-615 353.247,-615 353.247,4 -4,4"/>
<!-- Node1 -->
<g id="node1" class="node"><title>Node1</title>
<g id="a_node1"><a xlink:href="group__transports.html" target="_top" xlink:title="Transport layer classes. ">
<polygon fill="white" stroke="black" points="0,-296.5 0,-314.5 91.2197,-314.5 91.2197,-296.5 0,-296.5"/>
<text text-anchor="middle" x="45.6099" y="-302.5" font-family="Helvetica,sans-Serif" font-size="10.00">Transport Layers</text>
</a>
</g>
</g>
<!-- Node0 -->
<g id="node2" class="node"><title>Node0</title>
<polygon fill="#bfbfbf" stroke="black" points="128.22,-296.5 128.22,-314.5 195.353,-314.5 195.353,-296.5 128.22,-296.5"/>
<text text-anchor="middle" x="161.786" y="-302.5" font-family="Helvetica,sans-Serif" font-size="10.00">DSPI Slave</text>
</g>
<!-- Node1&#45;&gt;Node0 -->
<g id="edge1" class="edge"><title>Node1&#45;&gt;Node0</title>
<path fill="none" stroke="black" d="M101.581,-305.5C110.662,-305.5 119.815,-305.5 128.118,-305.5"/>
<polygon fill="black" stroke="black" points="101.408,-302 91.4076,-305.5 101.408,-309 101.408,-302"/>
</g>
<!-- Node7 -->
<g id="node3" class="node"><title>Node7</title>
<g id="a_node3"><a xlink:href="group__port__threads.html" target="_top" xlink:title="Threading model. ">
<polygon fill="white" stroke="black" points="273.684,-592.5 273.684,-610.5 326.369,-610.5 326.369,-592.5 273.684,-592.5"/>
<text text-anchor="middle" x="300.026" y="-598.5" font-family="Helvetica,sans-Serif" font-size="10.00">Threads</text>
</a>
</g>
</g>
<!-- Node0&#45;&gt;Node7 -->
<g id="edge7" class="edge"><title>Node0&#45;&gt;Node7</title>
<path fill="none" stroke="blueviolet" stroke-dasharray="5,2" d="M162.755,-314.56C163.016,-347.977 167.313,-466.617 213.353,-548.5 224.518,-568.359 231.435,-571.506 250.806,-583.5 257.795,-587.828 265.989,-591.37 273.618,-594.132"/>
<text text-anchor="middle" x="223.079" y="-573.5" font-family="Helvetica,sans-Serif" font-size="10.00">erpc</text>
</g>
<!-- Node17 -->
<g id="node4" class="node"><title>Node17</title>
<g id="a_node4"><a xlink:href="group__tcp__transport.html" target="_top" xlink:title="Simple TCP/IP transport. ">
<polygon fill="white" stroke="black" points="275.913,-555.5 275.913,-573.5 324.14,-573.5 324.14,-555.5 275.913,-555.5"/>
<text text-anchor="middle" x="300.026" y="-561.5" font-family="Helvetica,sans-Serif" font-size="10.00">TCP/IP</text>
</a>
</g>
</g>
<!-- Node0&#45;&gt;Node17 -->
<g id="edge17" class="edge"><title>Node0&#45;&gt;Node17</title>
<path fill="none" stroke="blueviolet" stroke-dasharray="5,2" d="M163.256,-314.757C165.149,-344.955 174.136,-442.56 213.353,-510.5 224.895,-530.496 231.261,-534.207 250.806,-546.5 258.37,-551.258 267.382,-555.045 275.558,-557.894"/>
<text text-anchor="middle" x="223.079" y="-536.5" font-family="Helvetica,sans-Serif" font-size="10.00">erpc</text>
</g>
<!-- Node13 -->
<g id="node5" class="node"><title>Node13</title>
<g id="a_node5"><a xlink:href="group__rpmsg__transport.html" target="_top" xlink:title="OpenAMP RPMsg transport. ">
<polygon fill="white" stroke="black" points="275.635,-518.5 275.635,-536.5 324.418,-536.5 324.418,-518.5 275.635,-518.5"/>
<text text-anchor="middle" x="300.026" y="-524.5" font-family="Helvetica,sans-Serif" font-size="10.00">RPMsg</text>
</a>
</g>
</g>
<!-- Node0&#45;&gt;Node13 -->
<g id="edge13" class="edge"><title>Node0&#45;&gt;Node13</title>
<path fill="none" stroke="blueviolet" stroke-dasharray="5,2" d="M163.967,-314.838C167.642,-341.285 180.652,-418.286 213.353,-472.5 225.438,-492.536 231.085,-496.907 250.806,-509.5 258.337,-514.309 267.342,-518.108 275.521,-520.952"/>
<text text-anchor="middle" x="223.079" y="-498.5" font-family="Helvetica,sans-Serif" font-size="10.00">erpc</text>
</g>
<!-- Node2 -->
<g id="node6" class="node"><title>Node2</title>
<g id="a_node6"><a xlink:href="group__infra__client.html" target="_top" xlink:title="Client classes. ">
<polygon fill="white" stroke="black" points="279.243,-481.5 279.243,-499.5 320.81,-499.5 320.81,-481.5 279.243,-481.5"/>
<text text-anchor="middle" x="300.026" y="-487.5" font-family="Helvetica,sans-Serif" font-size="10.00">Client</text>
</a>
</g>
</g>
<!-- Node0&#45;&gt;Node2 -->
<g id="edge2" class="edge"><title>Node0&#45;&gt;Node2</title>
<path fill="none" stroke="blueviolet" stroke-dasharray="5,2" d="M165.106,-314.762C170.869,-336.67 187.279,-392.884 213.353,-433.5 226.335,-453.723 230.723,-459.301 250.806,-472.5 259.319,-478.095 269.812,-482.276 278.834,-485.194"/>
<text text-anchor="middle" x="223.079" y="-460.5" font-family="Helvetica,sans-Serif" font-size="10.00">erpc</text>
</g>
<!-- Node4 -->
<g id="node7" class="node"><title>Node4</title>
<g id="a_node7"><a xlink:href="group__infra__transport.html" target="_top" xlink:title="Superclasses for building transports. ">
<polygon fill="white" stroke="black" points="268.313,-444.5 268.313,-462.5 331.74,-462.5 331.74,-444.5 268.313,-444.5"/>
<text text-anchor="middle" x="300.026" y="-450.5" font-family="Helvetica,sans-Serif" font-size="10.00">Transports</text>
</a>
</g>
</g>
<!-- Node0&#45;&gt;Node4 -->
<g id="edge4" class="edge"><title>Node0&#45;&gt;Node4</title>
<path fill="none" stroke="blueviolet" stroke-dasharray="5,2" d="M166.022,-314.593C175.131,-338.758 203.457,-404.819 250.806,-435.5 256.28,-439.047 262.553,-442.035 268.725,-444.494"/>
<text text-anchor="middle" x="223.079" y="-421.5" font-family="Helvetica,sans-Serif" font-size="10.00">erpc</text>
</g>
<!-- Node14 -->
<g id="node8" class="node"><title>Node14</title>
<g id="a_node8"><a xlink:href="group__serial__transport.html" target="_top" xlink:title="POSIX and Win32 serial port transport. ">
<polygon fill="white" stroke="black" points="269.238,-407.5 269.238,-425.5 330.814,-425.5 330.814,-407.5 269.238,-407.5"/>
<text text-anchor="middle" x="300.026" y="-413.5" font-family="Helvetica,sans-Serif" font-size="10.00">Serial port</text>
</a>
</g>
</g>
<!-- Node0&#45;&gt;Node14 -->
<g id="edge14" class="edge"><title>Node0&#45;&gt;Node14</title>
<path fill="none" stroke="blueviolet" stroke-dasharray="5,2" d="M168.865,-314.741C181.69,-333.488 213.428,-376.107 250.806,-398.5 256.631,-401.99 263.248,-404.995 269.673,-407.494"/>
<text text-anchor="middle" x="223.079" y="-385.5" font-family="Helvetica,sans-Serif" font-size="10.00">erpc</text>
</g>
<!-- Node5 -->
<g id="node9" class="node"><title>Node5</title>
<g id="a_node9"><a xlink:href="group__infra__utility.html" target="_top" xlink:title="Utility code used by the infrastructure. ">
<polygon fill="white" stroke="black" points="275.913,-370.5 275.913,-388.5 324.14,-388.5 324.14,-370.5 275.913,-370.5"/>
<text text-anchor="middle" x="300.026" y="-376.5" font-family="Helvetica,sans-Serif" font-size="10.00">Utilities</text>
</a>
</g>
</g>
<!-- Node0&#45;&gt;Node5 -->
<g id="edge5" class="edge"><title>Node0&#45;&gt;Node5</title>
<path fill="none" stroke="blueviolet" stroke-dasharray="5,2" d="M175.09,-314.596C191.649,-326.535 222.321,-347.6 250.806,-361.5 258.676,-365.341 267.587,-368.878 275.589,-371.783"/>
<text text-anchor="middle" x="223.079" y="-353.5" font-family="Helvetica,sans-Serif" font-size="10.00">erpc</text>
</g>
<!-- Node16 -->
<g id="node10" class="node"><title>Node16</title>
<g id="a_node10"><a xlink:href="group__spi__slave__transport.html" target="_top" xlink:title="Kinetis SDK SPI slave driver transport. ">
<polygon fill="white" stroke="black" points="270.071,-333.5 270.071,-351.5 329.982,-351.5 329.982,-333.5 270.071,-333.5"/>
<text text-anchor="middle" x="300.026" y="-339.5" font-family="Helvetica,sans-Serif" font-size="10.00">SPI Slave</text>
</a>
</g>
</g>
<!-- Node0&#45;&gt;Node16 -->
<g id="edge16" class="edge"><title>Node0&#45;&gt;Node16</title>
<path fill="none" stroke="blueviolet" stroke-dasharray="5,2" d="M195.417,-314.575C201.382,-316.222 207.552,-317.919 213.353,-319.5 232.222,-324.645 253.455,-330.346 270.062,-334.785"/>
<text text-anchor="middle" x="223.079" y="-326.5" font-family="Helvetica,sans-Serif" font-size="10.00">erpc</text>
</g>
<!-- Node18 -->
<g id="node11" class="node"><title>Node18</title>
<g id="a_node11"><a xlink:href="group__uart__transport.html" target="_top" xlink:title="CMSIS UART driver transport. ">
<polygon fill="white" stroke="black" points="261.279,-296.5 261.279,-314.5 338.773,-314.5 338.773,-296.5 261.279,-296.5"/>
<text text-anchor="middle" x="300.026" y="-302.5" font-family="Helvetica,sans-Serif" font-size="10.00">CMSIS UART</text>
</a>
</g>
</g>
<!-- Node0&#45;&gt;Node18 -->
<g id="edge18" class="edge"><title>Node0&#45;&gt;Node18</title>
<path fill="none" stroke="blueviolet" stroke-dasharray="5,2" d="M195.419,-305.5C215.099,-305.5 240.263,-305.5 260.862,-305.5"/>
<text text-anchor="middle" x="223.079" y="-307.5" font-family="Helvetica,sans-Serif" font-size="10.00">erpc</text>
</g>
<!-- Node15 -->
<g id="node12" class="node"><title>Node15</title>
<g id="a_node12"><a xlink:href="group__spi__master__transport.html" target="_top" xlink:title="Kinetis SDK SPI master driver transport. ">
<polygon fill="white" stroke="black" points="267.297,-259.5 267.297,-277.5 332.755,-277.5 332.755,-259.5 267.297,-259.5"/>
<text text-anchor="middle" x="300.026" y="-265.5" font-family="Helvetica,sans-Serif" font-size="10.00">SPI Master</text>
</a>
</g>
</g>
<!-- Node0&#45;&gt;Node15 -->
<g id="edge15" class="edge"><title>Node0&#45;&gt;Node15</title>
<path fill="none" stroke="blueviolet" stroke-dasharray="5,2" d="M195.417,-296.425C201.382,-294.778 207.552,-293.081 213.353,-291.5 231.182,-286.639 251.122,-281.281 267.275,-276.961"/>
<text text-anchor="middle" x="223.079" y="-293.5" font-family="Helvetica,sans-Serif" font-size="10.00">erpc</text>
</g>
<!-- Node6 -->
<g id="node13" class="node"><title>Node6</title>
<g id="a_node13"><a xlink:href="group__infra__server.html" target="_top" xlink:title="Server classes. ">
<polygon fill="white" stroke="black" points="277.3,-222.5 277.3,-240.5 322.753,-240.5 322.753,-222.5 277.3,-222.5"/>
<text text-anchor="middle" x="300.026" y="-228.5" font-family="Helvetica,sans-Serif" font-size="10.00">Server</text>
</a>
</g>
</g>
<!-- Node0&#45;&gt;Node6 -->
<g id="edge6" class="edge"><title>Node0&#45;&gt;Node6</title>
<path fill="none" stroke="blueviolet" stroke-dasharray="5,2" d="M175.375,-296.324C191.998,-284.522 222.481,-263.945 250.806,-250.5 259.26,-246.487 268.803,-242.599 277.155,-239.396"/>
<text text-anchor="middle" x="223.079" y="-272.5" font-family="Helvetica,sans-Serif" font-size="10.00">erpc</text>
</g>
<!-- Node9 -->
<g id="node14" class="node"><title>Node9</title>
<g id="a_node14"><a xlink:href="group__itbp__transport.html" target="_top" xlink:title="Simple inter&#45;thread communications transport. ">
<polygon fill="white" stroke="black" points="266.179,-185.5 266.179,-203.5 333.874,-203.5 333.874,-185.5 266.179,-185.5"/>
<text text-anchor="middle" x="300.026" y="-191.5" font-family="Helvetica,sans-Serif" font-size="10.00">Inter&#45;thread</text>
</a>
</g>
</g>
<!-- Node0&#45;&gt;Node9 -->
<g id="edge9" class="edge"><title>Node0&#45;&gt;Node9</title>
<path fill="none" stroke="blueviolet" stroke-dasharray="5,2" d="M168.905,-296.386C181.804,-277.891 213.672,-235.82 250.806,-213.5 257.207,-209.653 264.526,-206.303 271.495,-203.532"/>
<text text-anchor="middle" x="223.079" y="-242.5" font-family="Helvetica,sans-Serif" font-size="10.00">erpc</text>
</g>
<!-- Node8 -->
<g id="node15" class="node"><title>Node8</title>
<g id="a_node15"><a xlink:href="group__dspi__master__transport.html" target="_top" xlink:title="Kinetis SDK DSPI master driver transport. ">
<polygon fill="white" stroke="black" points="263.687,-148.5 263.687,-166.5 336.366,-166.5 336.366,-148.5 263.687,-148.5"/>
<text text-anchor="middle" x="300.026" y="-154.5" font-family="Helvetica,sans-Serif" font-size="10.00">DSPI Master</text>
</a>
</g>
</g>
<!-- Node0&#45;&gt;Node8 -->
<g id="edge8" class="edge"><title>Node0&#45;&gt;Node8</title>
<path fill="none" stroke="blueviolet" stroke-dasharray="5,2" d="M166.034,-296.462C175.174,-272.446 203.57,-206.808 250.806,-176.5 256.864,-172.613 263.845,-169.299 270.58,-166.581"/>
<text text-anchor="middle" x="223.079" y="-212.5" font-family="Helvetica,sans-Serif" font-size="10.00">erpc</text>
</g>
<!-- Node12 -->
<g id="node16" class="node"><title>Node12</title>
<g id="a_node16"><a xlink:href="group__rpmsg__rtos__transport.html" target="_top" xlink:title="OpenAMP RPMsg RTOS layer transport. ">
<polygon fill="white" stroke="black" points="260.532,-111.5 260.532,-129.5 339.521,-129.5 339.521,-111.5 260.532,-111.5"/>
<text text-anchor="middle" x="300.026" y="-117.5" font-family="Helvetica,sans-Serif" font-size="10.00">RPMsg RTOS</text>
</a>
</g>
</g>
<!-- Node0&#45;&gt;Node12 -->
<g id="edge12" class="edge"><title>Node0&#45;&gt;Node12</title>
<path fill="none" stroke="blueviolet" stroke-dasharray="5,2" d="M165.071,-296.216C170.758,-274.258 187.016,-217.946 213.353,-177.5 226.292,-157.628 231.022,-152.575 250.806,-139.5 256.736,-135.581 263.598,-132.271 270.253,-129.568"/>
<text text-anchor="middle" x="223.079" y="-179.5" font-family="Helvetica,sans-Serif" font-size="10.00">erpc</text>
</g>
<!-- Node3 -->
<g id="node17" class="node"><title>Node3</title>
<g id="a_node17"><a xlink:href="group__infra__codec.html" target="_top" xlink:title="Classes used for message serialization. ">
<polygon fill="white" stroke="black" points="264.79,-74.5 264.79,-92.5 335.263,-92.5 335.263,-74.5 264.79,-74.5"/>
<text text-anchor="middle" x="300.026" y="-80.5" font-family="Helvetica,sans-Serif" font-size="10.00">Serialization</text>
</a>
</g>
</g>
<!-- Node0&#45;&gt;Node3 -->
<g id="edge3" class="edge"><title>Node0&#45;&gt;Node3</title>
<path fill="none" stroke="blueviolet" stroke-dasharray="5,2" d="M163.929,-296.139C167.506,-269.633 180.282,-192.489 213.353,-138.5 225.413,-118.812 231.373,-114.969 250.806,-102.5 256.864,-98.6126 263.845,-95.2993 270.58,-92.581"/>
<text text-anchor="middle" x="223.079" y="-140.5" font-family="Helvetica,sans-Serif" font-size="10.00">erpc</text>
</g>
<!-- Node10 -->
<g id="node18" class="node"><title>Node10</title>
<g id="a_node18"><a xlink:href="group__rpmsg__lite__rtos__transport.html" target="_top" xlink:title="RPMsg&#45;Lite transport using RTOS API. ">
<polygon fill="white" stroke="black" points="250.806,-37.5 250.806,-55.5 349.247,-55.5 349.247,-37.5 250.806,-37.5"/>
<text text-anchor="middle" x="300.026" y="-43.5" font-family="Helvetica,sans-Serif" font-size="10.00">RPMsg&#45;Lite RTOS</text>
</a>
</g>
</g>
<!-- Node0&#45;&gt;Node10 -->
<g id="edge10" class="edge"><title>Node0&#45;&gt;Node10</title>
<path fill="none" stroke="blueviolet" stroke-dasharray="5,2" d="M163.218,-296.221C164.993,-265.954 173.659,-168.162 213.353,-100.5 224.881,-80.849 231.545,-77.6684 250.806,-65.5 256.967,-61.6072 264.057,-58.2757 270.872,-55.54"/>
<text text-anchor="middle" x="223.079" y="-102.5" font-family="Helvetica,sans-Serif" font-size="10.00">erpc</text>
</g>
<!-- Node11 -->
<g id="node19" class="node"><title>Node11</title>
<g id="a_node19"><a xlink:href="group__rpmsg__lite__transport.html" target="_top" xlink:title="RPMsg&#45;Lite transport. ">
<polygon fill="white" stroke="black" points="265.908,-0.5 265.908,-18.5 334.145,-18.5 334.145,-0.5 265.908,-0.5"/>
<text text-anchor="middle" x="300.026" y="-6.5" font-family="Helvetica,sans-Serif" font-size="10.00">RPMsg&#45;Lite</text>
</a>
</g>
</g>
<!-- Node0&#45;&gt;Node11 -->
<g id="edge11" class="edge"><title>Node0&#45;&gt;Node11</title>
<path fill="none" stroke="blueviolet" stroke-dasharray="5,2" d="M162.716,-296.417C162.841,-262.923 166.723,-144.049 213.353,-62.5 225.854,-40.6363 251.399,-26.5997 271.358,-18.5026"/>
<text text-anchor="middle" x="223.079" y="-64.5" font-family="Helvetica,sans-Serif" font-size="10.00">erpc</text>
</g>
</g>
</svg>
