<?xml version="1.0" encoding="UTF-8" standalone="no"?>
<!DOCTYPE svg PUBLIC "-//W3C//DTD SVG 1.1//EN"
 "http://www.w3.org/Graphics/SVG/1.1/DTD/svg11.dtd">
<!-- Generated by graphviz version 2.38.0 (20140413.2041)
 -->
<!-- Title: Inter&#45;thread Pages: 1 -->
<svg width="358pt" height="619pt"
 viewBox="0.00 0.00 357.81 619.00" xmlns="http://www.w3.org/2000/svg" xmlns:xlink="http://www.w3.org/1999/xlink">
<g id="graph0" class="graph" transform="scale(1 1) rotate(0) translate(4 615)">
<title>Inter&#45;thread</title>
<polygon fill="white" stroke="none" points="-4,4 -4,-615 353.809,-615 353.809,4 -4,4"/>
<!-- Node1 -->
<g id="node1" class="node"><title>Node1</title>
<g id="a_node1"><a xlink:href="group__transports.html" target="_top" xlink:title="Transport layer classes. ">
<polygon fill="white" stroke="black" points="0,-296.5 0,-314.5 91.2197,-314.5 91.2197,-296.5 0,-296.5"/>
<text text-anchor="middle" x="45.6099" y="-302.5" font-family="Helvetica,sans-Serif" font-size="10.00">Transport Layers</text>
</a>
</g>
</g>
<!-- Node0 -->
<g id="node14" class="node"><title>Node0</title>
<polygon fill="#bfbfbf" stroke="black" points="128.22,-296.5 128.22,-314.5 195.914,-314.5 195.914,-296.5 128.22,-296.5"/>
<text text-anchor="middle" x="162.067" y="-302.5" font-family="Helvetica,sans-Serif" font-size="10.00">Inter&#45;thread</text>
</g>
<!-- Node1&#45;&gt;Node0 -->
<g id="edge1" class="edge"><title>Node1&#45;&gt;Node0</title>
<path fill="none" stroke="black" d="M101.611,-305.5C110.621,-305.5 119.705,-305.5 127.967,-305.5"/>
<polygon fill="black" stroke="black" points="101.518,-302 91.5178,-305.5 101.518,-309 101.518,-302"/>
</g>
<!-- Node9 -->
<g id="node2" class="node"><title>Node9</title>
<g id="a_node2"><a xlink:href="group__dspi__slave__transport.html" target="_top" xlink:title="Kinetis SDK DSPI slave driver transport. ">
<polygon fill="white" stroke="black" points="267.021,-592.5 267.021,-610.5 334.154,-610.5 334.154,-592.5 267.021,-592.5"/>
<text text-anchor="middle" x="300.588" y="-598.5" font-family="Helvetica,sans-Serif" font-size="10.00">DSPI Slave</text>
</a>
</g>
</g>
<!-- Node7 -->
<g id="node3" class="node"><title>Node7</title>
<g id="a_node3"><a xlink:href="group__port__threads.html" target="_top" xlink:title="Threading model. ">
<polygon fill="white" stroke="black" points="274.246,-555.5 274.246,-573.5 326.93,-573.5 326.93,-555.5 274.246,-555.5"/>
<text text-anchor="middle" x="300.588" y="-561.5" font-family="Helvetica,sans-Serif" font-size="10.00">Threads</text>
</a>
</g>
</g>
<!-- Node17 -->
<g id="node4" class="node"><title>Node17</title>
<g id="a_node4"><a xlink:href="group__tcp__transport.html" target="_top" xlink:title="Simple TCP/IP transport. ">
<polygon fill="white" stroke="black" points="276.475,-518.5 276.475,-536.5 324.701,-536.5 324.701,-518.5 276.475,-518.5"/>
<text text-anchor="middle" x="300.588" y="-524.5" font-family="Helvetica,sans-Serif" font-size="10.00">TCP/IP</text>
</a>
</g>
</g>
<!-- Node13 -->
<g id="node5" class="node"><title>Node13</title>
<g id="a_node5"><a xlink:href="group__rpmsg__transport.html" target="_top" xlink:title="OpenAMP RPMsg transport. ">
<polygon fill="white" stroke="black" points="276.196,-481.5 276.196,-499.5 324.979,-499.5 324.979,-481.5 276.196,-481.5"/>
<text text-anchor="middle" x="300.588" y="-487.5" font-family="Helvetica,sans-Serif" font-size="10.00">RPMsg</text>
</a>
</g>
</g>
<!-- Node2 -->
<g id="node6" class="node"><title>Node2</title>
<g id="a_node6"><a xlink:href="group__infra__client.html" target="_top" xlink:title="Client classes. ">
<polygon fill="white" stroke="black" points="279.805,-444.5 279.805,-462.5 321.371,-462.5 321.371,-444.5 279.805,-444.5"/>
<text text-anchor="middle" x="300.588" y="-450.5" font-family="Helvetica,sans-Serif" font-size="10.00">Client</text>
</a>
</g>
</g>
<!-- Node4 -->
<g id="node7" class="node"><title>Node4</title>
<g id="a_node7"><a xlink:href="group__infra__transport.html" target="_top" xlink:title="Superclasses for building transports. ">
<polygon fill="white" stroke="black" points="268.875,-407.5 268.875,-425.5 332.301,-425.5 332.301,-407.5 268.875,-407.5"/>
<text text-anchor="middle" x="300.588" y="-413.5" font-family="Helvetica,sans-Serif" font-size="10.00">Transports</text>
</a>
</g>
</g>
<!-- Node14 -->
<g id="node8" class="node"><title>Node14</title>
<g id="a_node8"><a xlink:href="group__serial__transport.html" target="_top" xlink:title="POSIX and Win32 serial port transport. ">
<polygon fill="white" stroke="black" points="269.8,-370.5 269.8,-388.5 331.376,-388.5 331.376,-370.5 269.8,-370.5"/>
<text text-anchor="middle" x="300.588" y="-376.5" font-family="Helvetica,sans-Serif" font-size="10.00">Serial port</text>
</a>
</g>
</g>
<!-- Node5 -->
<g id="node9" class="node"><title>Node5</title>
<g id="a_node9"><a xlink:href="group__infra__utility.html" target="_top" xlink:title="Utility code used by the infrastructure. ">
<polygon fill="white" stroke="black" points="276.475,-333.5 276.475,-351.5 324.701,-351.5 324.701,-333.5 276.475,-333.5"/>
<text text-anchor="middle" x="300.588" y="-339.5" font-family="Helvetica,sans-Serif" font-size="10.00">Utilities</text>
</a>
</g>
</g>
<!-- Node16 -->
<g id="node10" class="node"><title>Node16</title>
<g id="a_node10"><a xlink:href="group__spi__slave__transport.html" target="_top" xlink:title="Kinetis SDK SPI slave driver transport. ">
<polygon fill="white" stroke="black" points="270.632,-296.5 270.632,-314.5 330.543,-314.5 330.543,-296.5 270.632,-296.5"/>
<text text-anchor="middle" x="300.588" y="-302.5" font-family="Helvetica,sans-Serif" font-size="10.00">SPI Slave</text>
</a>
</g>
</g>
<!-- Node18 -->
<g id="node11" class="node"><title>Node18</title>
<g id="a_node11"><a xlink:href="group__uart__transport.html" target="_top" xlink:title="CMSIS UART driver transport. ">
<polygon fill="white" stroke="black" points="261.841,-259.5 261.841,-277.5 339.335,-277.5 339.335,-259.5 261.841,-259.5"/>
<text text-anchor="middle" x="300.588" y="-265.5" font-family="Helvetica,sans-Serif" font-size="10.00">CMSIS UART</text>
</a>
</g>
</g>
<!-- Node15 -->
<g id="node12" class="node"><title>Node15</title>
<g id="a_node12"><a xlink:href="group__spi__master__transport.html" target="_top" xlink:title="Kinetis SDK SPI master driver transport. ">
<polygon fill="white" stroke="black" points="267.859,-222.5 267.859,-240.5 333.317,-240.5 333.317,-222.5 267.859,-222.5"/>
<text text-anchor="middle" x="300.588" y="-228.5" font-family="Helvetica,sans-Serif" font-size="10.00">SPI Master</text>
</a>
</g>
</g>
<!-- Node6 -->
<g id="node13" class="node"><title>Node6</title>
<g id="a_node13"><a xlink:href="group__infra__server.html" target="_top" xlink:title="Server classes. ">
<polygon fill="white" stroke="black" points="277.861,-185.5 277.861,-203.5 323.314,-203.5 323.314,-185.5 277.861,-185.5"/>
<text text-anchor="middle" x="300.588" y="-191.5" font-family="Helvetica,sans-Serif" font-size="10.00">Server</text>
</a>
</g>
</g>
<!-- Node0&#45;&gt;Node9 -->
<g id="edge9" class="edge"><title>Node0&#45;&gt;Node9</title>
<path fill="none" stroke="blueviolet" stroke-dasharray="5,2" d="M163.048,-314.561C163.357,-347.979 167.819,-466.623 213.914,-548.5 225.091,-568.353 231.997,-571.506 251.367,-583.5 256.989,-586.981 263.39,-589.954 269.65,-592.421"/>
<text text-anchor="middle" x="223.641" y="-573.5" font-family="Helvetica,sans-Serif" font-size="10.00">erpc</text>
</g>
<!-- Node0&#45;&gt;Node7 -->
<g id="edge7" class="edge"><title>Node0&#45;&gt;Node7</title>
<path fill="none" stroke="blueviolet" stroke-dasharray="5,2" d="M163.552,-314.757C165.496,-344.956 174.641,-442.564 213.914,-510.5 225.469,-530.489 231.823,-534.207 251.367,-546.5 258.326,-550.877 266.511,-554.433 274.142,-557.192"/>
<text text-anchor="middle" x="223.641" y="-536.5" font-family="Helvetica,sans-Serif" font-size="10.00">erpc</text>
</g>
<!-- Node0&#45;&gt;Node17 -->
<g id="edge17" class="edge"><title>Node0&#45;&gt;Node17</title>
<path fill="none" stroke="blueviolet" stroke-dasharray="5,2" d="M164.267,-314.838C167.995,-341.285 181.157,-418.286 213.914,-472.5 226.015,-492.527 231.646,-496.907 251.367,-509.5 258.899,-514.309 267.904,-518.108 276.083,-520.952"/>
<text text-anchor="middle" x="223.641" y="-498.5" font-family="Helvetica,sans-Serif" font-size="10.00">erpc</text>
</g>
<!-- Node0&#45;&gt;Node13 -->
<g id="edge13" class="edge"><title>Node0&#45;&gt;Node13</title>
<path fill="none" stroke="blueviolet" stroke-dasharray="5,2" d="M165.412,-314.761C171.231,-336.667 187.782,-392.878 213.914,-433.5 226.916,-453.711 231.285,-459.301 251.367,-472.5 258.835,-477.408 267.826,-481.228 276.011,-484.061"/>
<text text-anchor="middle" x="223.641" y="-460.5" font-family="Helvetica,sans-Serif" font-size="10.00">erpc</text>
</g>
<!-- Node0&#45;&gt;Node2 -->
<g id="edge2" class="edge"><title>Node0&#45;&gt;Node2</title>
<path fill="none" stroke="blueviolet" stroke-dasharray="5,2" d="M166.324,-314.589C175.49,-338.746 203.971,-404.788 251.367,-435.5 259.916,-441.04 270.414,-445.215 279.429,-448.143"/>
<text text-anchor="middle" x="223.641" y="-421.5" font-family="Helvetica,sans-Serif" font-size="10.00">erpc</text>
</g>
<!-- Node0&#45;&gt;Node4 -->
<g id="edge4" class="edge"><title>Node0&#45;&gt;Node4</title>
<path fill="none" stroke="blueviolet" stroke-dasharray="5,2" d="M169.176,-314.735C182.06,-333.472 213.934,-376.073 251.367,-398.5 257.193,-401.99 263.81,-404.995 270.234,-407.494"/>
<text text-anchor="middle" x="223.641" y="-385.5" font-family="Helvetica,sans-Serif" font-size="10.00">erpc</text>
</g>
<!-- Node0&#45;&gt;Node14 -->
<g id="edge14" class="edge"><title>Node0&#45;&gt;Node14</title>
<path fill="none" stroke="blueviolet" stroke-dasharray="5,2" d="M175.418,-314.587C192.038,-326.515 222.818,-347.568 251.367,-361.5 258.033,-364.753 265.445,-367.788 272.419,-370.406"/>
<text text-anchor="middle" x="223.641" y="-353.5" font-family="Helvetica,sans-Serif" font-size="10.00">erpc</text>
</g>
<!-- Node0&#45;&gt;Node5 -->
<g id="edge5" class="edge"><title>Node0&#45;&gt;Node5</title>
<path fill="none" stroke="blueviolet" stroke-dasharray="5,2" d="M195.881,-314.568C201.878,-316.216 208.083,-317.914 213.914,-319.5 235.017,-325.238 259.069,-331.687 276.305,-336.293"/>
<text text-anchor="middle" x="223.641" y="-326.5" font-family="Helvetica,sans-Serif" font-size="10.00">erpc</text>
</g>
<!-- Node0&#45;&gt;Node16 -->
<g id="edge16" class="edge"><title>Node0&#45;&gt;Node16</title>
<path fill="none" stroke="blueviolet" stroke-dasharray="5,2" d="M196.115,-305.5C218.842,-305.5 248.741,-305.5 270.552,-305.5"/>
<text text-anchor="middle" x="223.641" y="-307.5" font-family="Helvetica,sans-Serif" font-size="10.00">erpc</text>
</g>
<!-- Node0&#45;&gt;Node18 -->
<g id="edge18" class="edge"><title>Node0&#45;&gt;Node18</title>
<path fill="none" stroke="blueviolet" stroke-dasharray="5,2" d="M195.881,-296.432C201.878,-294.784 208.083,-293.086 213.914,-291.5 231.004,-286.853 250.029,-281.74 265.801,-277.517"/>
<text text-anchor="middle" x="223.641" y="-293.5" font-family="Helvetica,sans-Serif" font-size="10.00">erpc</text>
</g>
<!-- Node0&#45;&gt;Node15 -->
<g id="edge15" class="edge"><title>Node0&#45;&gt;Node15</title>
<path fill="none" stroke="blueviolet" stroke-dasharray="5,2" d="M175.704,-296.334C192.388,-284.541 222.978,-263.976 251.367,-250.5 258.846,-246.95 267.177,-243.498 274.782,-240.532"/>
<text text-anchor="middle" x="223.641" y="-271.5" font-family="Helvetica,sans-Serif" font-size="10.00">erpc</text>
</g>
<!-- Node0&#45;&gt;Node6 -->
<g id="edge6" class="edge"><title>Node0&#45;&gt;Node6</title>
<path fill="none" stroke="blueviolet" stroke-dasharray="5,2" d="M169.216,-296.392C182.174,-277.907 214.176,-235.854 251.367,-213.5 259.542,-208.586 269.215,-204.484 277.743,-201.364"/>
<text text-anchor="middle" x="223.641" y="-242.5" font-family="Helvetica,sans-Serif" font-size="10.00">erpc</text>
</g>
<!-- Node8 -->
<g id="node15" class="node"><title>Node8</title>
<g id="a_node15"><a xlink:href="group__dspi__master__transport.html" target="_top" xlink:title="Kinetis SDK DSPI master driver transport. ">
<polygon fill="white" stroke="black" points="264.248,-148.5 264.248,-166.5 336.928,-166.5 336.928,-148.5 264.248,-148.5"/>
<text text-anchor="middle" x="300.588" y="-154.5" font-family="Helvetica,sans-Serif" font-size="10.00">DSPI Master</text>
</a>
</g>
</g>
<!-- Node0&#45;&gt;Node8 -->
<g id="edge8" class="edge"><title>Node0&#45;&gt;Node8</title>
<path fill="none" stroke="blueviolet" stroke-dasharray="5,2" d="M166.337,-296.465C175.534,-272.457 204.084,-206.839 251.367,-176.5 257.426,-172.613 264.407,-169.299 271.142,-166.581"/>
<text text-anchor="middle" x="223.641" y="-212.5" font-family="Helvetica,sans-Serif" font-size="10.00">erpc</text>
</g>
<!-- Node12 -->
<g id="node16" class="node"><title>Node12</title>
<g id="a_node16"><a xlink:href="group__rpmsg__rtos__transport.html" target="_top" xlink:title="OpenAMP RPMsg RTOS layer transport. ">
<polygon fill="white" stroke="black" points="261.094,-111.5 261.094,-129.5 340.082,-129.5 340.082,-111.5 261.094,-111.5"/>
<text text-anchor="middle" x="300.588" y="-117.5" font-family="Helvetica,sans-Serif" font-size="10.00">RPMsg RTOS</text>
</a>
</g>
</g>
<!-- Node0&#45;&gt;Node12 -->
<g id="edge12" class="edge"><title>Node0&#45;&gt;Node12</title>
<path fill="none" stroke="blueviolet" stroke-dasharray="5,2" d="M165.376,-296.216C171.12,-274.261 187.519,-217.951 213.914,-177.5 226.873,-157.641 231.584,-152.575 251.367,-139.5 257.298,-135.581 264.16,-132.271 270.814,-129.568"/>
<text text-anchor="middle" x="223.641" y="-179.5" font-family="Helvetica,sans-Serif" font-size="10.00">erpc</text>
</g>
<!-- Node3 -->
<g id="node17" class="node"><title>Node3</title>
<g id="a_node17"><a xlink:href="group__infra__codec.html" target="_top" xlink:title="Classes used for message serialization. ">
<polygon fill="white" stroke="black" points="265.352,-74.5 265.352,-92.5 335.824,-92.5 335.824,-74.5 265.352,-74.5"/>
<text text-anchor="middle" x="300.588" y="-80.5" font-family="Helvetica,sans-Serif" font-size="10.00">Serialization</text>
</a>
</g>
</g>
<!-- Node0&#45;&gt;Node3 -->
<g id="edge3" class="edge"><title>Node0&#45;&gt;Node3</title>
<path fill="none" stroke="blueviolet" stroke-dasharray="5,2" d="M164.229,-296.139C167.859,-269.633 180.786,-192.488 213.914,-138.5 225.989,-118.821 231.935,-114.969 251.367,-102.5 257.426,-98.6126 264.407,-95.2993 271.142,-92.581"/>
<text text-anchor="middle" x="223.641" y="-140.5" font-family="Helvetica,sans-Serif" font-size="10.00">erpc</text>
</g>
<!-- Node10 -->
<g id="node18" class="node"><title>Node10</title>
<g id="a_node18"><a xlink:href="group__rpmsg__lite__rtos__transport.html" target="_top" xlink:title="RPMsg&#45;Lite transport using RTOS API. ">
<polygon fill="white" stroke="black" points="251.367,-37.5 251.367,-55.5 349.809,-55.5 349.809,-37.5 251.367,-37.5"/>
<text text-anchor="middle" x="300.588" y="-43.5" font-family="Helvetica,sans-Serif" font-size="10.00">RPMsg&#45;Lite RTOS</text>
</a>
</g>
</g>
<!-- Node0&#45;&gt;Node10 -->
<g id="edge10" class="edge"><title>Node0&#45;&gt;Node10</title>
<path fill="none" stroke="blueviolet" stroke-dasharray="5,2" d="M163.514,-296.22C165.34,-265.953 174.164,-168.158 213.914,-100.5 225.455,-80.8565 232.106,-77.6684 251.367,-65.5 257.529,-61.6072 264.619,-58.2757 271.433,-55.54"/>
<text text-anchor="middle" x="223.641" y="-102.5" font-family="Helvetica,sans-Serif" font-size="10.00">erpc</text>
</g>
<!-- Node11 -->
<g id="node19" class="node"><title>Node11</title>
<g id="a_node19"><a xlink:href="group__rpmsg__lite__transport.html" target="_top" xlink:title="RPMsg&#45;Lite transport. ">
<polygon fill="white" stroke="black" points="266.47,-0.5 266.47,-18.5 334.706,-18.5 334.706,-0.5 266.47,-0.5"/>
<text text-anchor="middle" x="300.588" y="-6.5" font-family="Helvetica,sans-Serif" font-size="10.00">RPMsg&#45;Lite</text>
</a>
</g>
</g>
<!-- Node0&#45;&gt;Node11 -->
<g id="edge11" class="edge"><title>Node0&#45;&gt;Node11</title>
<path fill="none" stroke="blueviolet" stroke-dasharray="5,2" d="M163.009,-296.417C163.182,-262.921 167.229,-144.042 213.914,-62.5 226.428,-40.6432 251.971,-26.6058 271.927,-18.5066"/>
<text text-anchor="middle" x="223.641" y="-64.5" font-family="Helvetica,sans-Serif" font-size="10.00">erpc</text>
</g>
</g>
</svg>
