<?xml version="1.0" encoding="UTF-8" standalone="no"?>
<!DOCTYPE svg PUBLIC "-//W3C//DTD SVG 1.1//EN"
 "http://www.w3.org/Graphics/SVG/1.1/DTD/svg11.dtd">
<!-- Generated by graphviz version 2.38.0 (20140413.2041)
 -->
<!-- Title: Setup API Pages: 1 -->
<svg width="192pt" height="101pt"
 viewBox="0.00 0.00 191.82 101.00" xmlns="http://www.w3.org/2000/svg" xmlns:xlink="http://www.w3.org/1999/xlink">
<g id="graph0" class="graph" transform="scale(1 1) rotate(0) translate(4 97)">
<title>Setup API</title>
<polygon fill="white" stroke="none" points="-4,4 -4,-97 187.82,-97 187.82,4 -4,4"/>
<!-- Node3 -->
<g id="node1" class="node"><title>Node3</title>
<g id="a_node1"><a xlink:href="group__transport__setup.html" target="_top" xlink:title="Transport layer initialization. ">
<polygon fill="white" stroke="black" points="96.4824,-74.5 96.4824,-92.5 183.82,-92.5 183.82,-74.5 96.4824,-74.5"/>
<text text-anchor="middle" x="140.151" y="-80.5" font-family="Helvetica,sans-Serif" font-size="10.00">Transport Setup</text>
</a>
</g>
</g>
<!-- Node2 -->
<g id="node2" class="node"><title>Node2</title>
<g id="a_node2"><a xlink:href="group__client__setup.html" target="_top" xlink:title="Client side setup functions. ">
<polygon fill="white" stroke="black" points="104.913,-37.5 104.913,-55.5 175.39,-55.5 175.39,-37.5 104.913,-37.5"/>
<text text-anchor="middle" x="140.151" y="-43.5" font-family="Helvetica,sans-Serif" font-size="10.00">Client Setup</text>
</a>
</g>
</g>
<!-- Node1 -->
<g id="node3" class="node"><title>Node1</title>
<g id="a_node3"><a xlink:href="group__server__setup.html" target="_top" xlink:title="Server side setup and control functions. ">
<polygon fill="white" stroke="black" points="102.969,-0.5 102.969,-18.5 177.333,-18.5 177.333,-0.5 102.969,-0.5"/>
<text text-anchor="middle" x="140.151" y="-6.5" font-family="Helvetica,sans-Serif" font-size="10.00">Server Setup</text>
</a>
</g>
</g>
<!-- Node0 -->
<g id="node4" class="node"><title>Node0</title>
<polygon fill="#bfbfbf" stroke="black" points="0,-37.5 0,-55.5 60.4824,-55.5 60.4824,-37.5 0,-37.5"/>
<text text-anchor="middle" x="30.2412" y="-43.5" font-family="Helvetica,sans-Serif" font-size="10.00">Setup API</text>
</g>
<!-- Node0&#45;&gt;Node3 -->
<g id="edge3" class="edge"><title>Node0&#45;&gt;Node3</title>
<path fill="none" stroke="black" d="M67.4908,-58.9292C82.2731,-63.9977 99.0496,-69.75 112.652,-74.414"/>
<polygon fill="black" stroke="black" points="68.2336,-55.4839 57.639,-55.5512 65.9632,-62.1055 68.2336,-55.4839"/>
</g>
<!-- Node0&#45;&gt;Node2 -->
<g id="edge2" class="edge"><title>Node0&#45;&gt;Node2</title>
<path fill="none" stroke="black" d="M71.0085,-46.5C82.0748,-46.5 93.9982,-46.5 104.73,-46.5"/>
<polygon fill="black" stroke="black" points="70.7282,-43.0001 60.7281,-46.5 70.7281,-50.0001 70.7282,-43.0001"/>
</g>
<!-- Node0&#45;&gt;Node1 -->
<g id="edge1" class="edge"><title>Node0&#45;&gt;Node1</title>
<path fill="none" stroke="black" d="M67.4908,-34.0708C82.2731,-29.0023 99.0496,-23.25 112.652,-18.586"/>
<polygon fill="black" stroke="black" points="65.9632,-30.8945 57.639,-37.4488 68.2336,-37.5161 65.9632,-30.8945"/>
</g>
</g>
</svg>
