<?xml version="1.0" encoding="UTF-8" standalone="no"?>
<!DOCTYPE svg PUBLIC "-//W3C//DTD SVG 1.1//EN"
 "http://www.w3.org/Graphics/SVG/1.1/DTD/svg11.dtd">
<!-- Generated by graphviz version 2.38.0 (20140413.2041)
 -->
<!-- Title: Serialization Pages: 1 -->
<svg width="344pt" height="619pt"
 viewBox="0.00 0.00 344.28 619.00" xmlns="http://www.w3.org/2000/svg" xmlns:xlink="http://www.w3.org/1999/xlink">
<g id="graph0" class="graph" transform="scale(1 1) rotate(0) translate(4 615)">
<title>Serialization</title>
<polygon fill="white" stroke="none" points="-4,4 -4,-615 340.278,-615 340.278,4 -4,4"/>
<!-- Node8 -->
<g id="node1" class="node"><title>Node8</title>
<g id="a_node1"><a xlink:href="group__dspi__slave__transport.html" target="_top" xlink:title="Kinetis SDK DSPI slave driver transport. ">
<polygon fill="white" stroke="black" points="253.491,-592.5 253.491,-610.5 320.624,-610.5 320.624,-592.5 253.491,-592.5"/>
<text text-anchor="middle" x="287.058" y="-598.5" font-family="Helvetica,sans-Serif" font-size="10.00">DSPI Slave</text>
</a>
</g>
</g>
<!-- Node6 -->
<g id="node2" class="node"><title>Node6</title>
<g id="a_node2"><a xlink:href="group__port__threads.html" target="_top" xlink:title="Threading model. ">
<polygon fill="white" stroke="black" points="260.715,-555.5 260.715,-573.5 313.4,-573.5 313.4,-555.5 260.715,-555.5"/>
<text text-anchor="middle" x="287.058" y="-561.5" font-family="Helvetica,sans-Serif" font-size="10.00">Threads</text>
</a>
</g>
</g>
<!-- Node17 -->
<g id="node3" class="node"><title>Node17</title>
<g id="a_node3"><a xlink:href="group__tcp__transport.html" target="_top" xlink:title="Simple TCP/IP transport. ">
<polygon fill="white" stroke="black" points="262.944,-518.5 262.944,-536.5 311.171,-536.5 311.171,-518.5 262.944,-518.5"/>
<text text-anchor="middle" x="287.058" y="-524.5" font-family="Helvetica,sans-Serif" font-size="10.00">TCP/IP</text>
</a>
</g>
</g>
<!-- Node13 -->
<g id="node4" class="node"><title>Node13</title>
<g id="a_node4"><a xlink:href="group__rpmsg__transport.html" target="_top" xlink:title="OpenAMP RPMsg transport. ">
<polygon fill="white" stroke="black" points="262.666,-481.5 262.666,-499.5 311.449,-499.5 311.449,-481.5 262.666,-481.5"/>
<text text-anchor="middle" x="287.058" y="-487.5" font-family="Helvetica,sans-Serif" font-size="10.00">RPMsg</text>
</a>
</g>
</g>
<!-- Node1 -->
<g id="node5" class="node"><title>Node1</title>
<g id="a_node5"><a xlink:href="group__infra.html" target="_top" xlink:title="C++ core. ">
<polygon fill="white" stroke="black" points="0,-296.5 0,-314.5 74.9111,-314.5 74.9111,-296.5 0,-296.5"/>
<text text-anchor="middle" x="37.4556" y="-302.5" font-family="Helvetica,sans-Serif" font-size="10.00">Infrastructure</text>
</a>
</g>
</g>
<!-- Node0 -->
<g id="node17" class="node"><title>Node0</title>
<polygon fill="#bfbfbf" stroke="black" points="111.911,-296.5 111.911,-314.5 182.384,-314.5 182.384,-296.5 111.911,-296.5"/>
<text text-anchor="middle" x="147.147" y="-302.5" font-family="Helvetica,sans-Serif" font-size="10.00">Serialization</text>
</g>
<!-- Node1&#45;&gt;Node0 -->
<g id="edge1" class="edge"><title>Node1&#45;&gt;Node0</title>
<path fill="none" stroke="black" d="M84.9577,-305.5C94.0081,-305.5 103.341,-305.5 111.907,-305.5"/>
<polygon fill="black" stroke="black" points="84.9152,-302 74.9151,-305.5 84.9151,-309 84.9152,-302"/>
</g>
<!-- Node2 -->
<g id="node6" class="node"><title>Node2</title>
<g id="a_node6"><a xlink:href="group__infra__client.html" target="_top" xlink:title="Client classes. ">
<polygon fill="white" stroke="black" points="266.274,-444.5 266.274,-462.5 307.841,-462.5 307.841,-444.5 266.274,-444.5"/>
<text text-anchor="middle" x="287.058" y="-450.5" font-family="Helvetica,sans-Serif" font-size="10.00">Client</text>
</a>
</g>
</g>
<!-- Node3 -->
<g id="node7" class="node"><title>Node3</title>
<g id="a_node7"><a xlink:href="group__infra__transport.html" target="_top" xlink:title="Superclasses for building transports. ">
<polygon fill="white" stroke="black" points="255.344,-407.5 255.344,-425.5 318.771,-425.5 318.771,-407.5 255.344,-407.5"/>
<text text-anchor="middle" x="287.058" y="-413.5" font-family="Helvetica,sans-Serif" font-size="10.00">Transports</text>
</a>
</g>
</g>
<!-- Node14 -->
<g id="node8" class="node"><title>Node14</title>
<g id="a_node8"><a xlink:href="group__serial__transport.html" target="_top" xlink:title="POSIX and Win32 serial port transport. ">
<polygon fill="white" stroke="black" points="256.27,-370.5 256.27,-388.5 317.846,-388.5 317.846,-370.5 256.27,-370.5"/>
<text text-anchor="middle" x="287.058" y="-376.5" font-family="Helvetica,sans-Serif" font-size="10.00">Serial port</text>
</a>
</g>
</g>
<!-- Node4 -->
<g id="node9" class="node"><title>Node4</title>
<g id="a_node9"><a xlink:href="group__infra__utility.html" target="_top" xlink:title="Utility code used by the infrastructure. ">
<polygon fill="white" stroke="black" points="262.944,-333.5 262.944,-351.5 311.171,-351.5 311.171,-333.5 262.944,-333.5"/>
<text text-anchor="middle" x="287.058" y="-339.5" font-family="Helvetica,sans-Serif" font-size="10.00">Utilities</text>
</a>
</g>
</g>
<!-- Node16 -->
<g id="node10" class="node"><title>Node16</title>
<g id="a_node10"><a xlink:href="group__spi__slave__transport.html" target="_top" xlink:title="Kinetis SDK SPI slave driver transport. ">
<polygon fill="white" stroke="black" points="257.102,-296.5 257.102,-314.5 317.013,-314.5 317.013,-296.5 257.102,-296.5"/>
<text text-anchor="middle" x="287.058" y="-302.5" font-family="Helvetica,sans-Serif" font-size="10.00">SPI Slave</text>
</a>
</g>
</g>
<!-- Node18 -->
<g id="node11" class="node"><title>Node18</title>
<g id="a_node11"><a xlink:href="group__uart__transport.html" target="_top" xlink:title="CMSIS UART driver transport. ">
<polygon fill="white" stroke="black" points="248.311,-259.5 248.311,-277.5 325.805,-277.5 325.805,-259.5 248.311,-259.5"/>
<text text-anchor="middle" x="287.058" y="-265.5" font-family="Helvetica,sans-Serif" font-size="10.00">CMSIS UART</text>
</a>
</g>
</g>
<!-- Node15 -->
<g id="node12" class="node"><title>Node15</title>
<g id="a_node12"><a xlink:href="group__spi__master__transport.html" target="_top" xlink:title="Kinetis SDK SPI master driver transport. ">
<polygon fill="white" stroke="black" points="254.329,-222.5 254.329,-240.5 319.787,-240.5 319.787,-222.5 254.329,-222.5"/>
<text text-anchor="middle" x="287.058" y="-228.5" font-family="Helvetica,sans-Serif" font-size="10.00">SPI Master</text>
</a>
</g>
</g>
<!-- Node5 -->
<g id="node13" class="node"><title>Node5</title>
<g id="a_node13"><a xlink:href="group__infra__server.html" target="_top" xlink:title="Server classes. ">
<polygon fill="white" stroke="black" points="264.331,-185.5 264.331,-203.5 309.784,-203.5 309.784,-185.5 264.331,-185.5"/>
<text text-anchor="middle" x="287.058" y="-191.5" font-family="Helvetica,sans-Serif" font-size="10.00">Server</text>
</a>
</g>
</g>
<!-- Node9 -->
<g id="node14" class="node"><title>Node9</title>
<g id="a_node14"><a xlink:href="group__itbp__transport.html" target="_top" xlink:title="Simple inter&#45;thread communications transport. ">
<polygon fill="white" stroke="black" points="253.21,-148.5 253.21,-166.5 320.905,-166.5 320.905,-148.5 253.21,-148.5"/>
<text text-anchor="middle" x="287.058" y="-154.5" font-family="Helvetica,sans-Serif" font-size="10.00">Inter&#45;thread</text>
</a>
</g>
</g>
<!-- Node7 -->
<g id="node15" class="node"><title>Node7</title>
<g id="a_node15"><a xlink:href="group__dspi__master__transport.html" target="_top" xlink:title="Kinetis SDK DSPI master driver transport. ">
<polygon fill="white" stroke="black" points="250.718,-111.5 250.718,-129.5 323.397,-129.5 323.397,-111.5 250.718,-111.5"/>
<text text-anchor="middle" x="287.058" y="-117.5" font-family="Helvetica,sans-Serif" font-size="10.00">DSPI Master</text>
</a>
</g>
</g>
<!-- Node12 -->
<g id="node16" class="node"><title>Node12</title>
<g id="a_node16"><a xlink:href="group__rpmsg__rtos__transport.html" target="_top" xlink:title="OpenAMP RPMsg RTOS layer transport. ">
<polygon fill="white" stroke="black" points="247.563,-74.5 247.563,-92.5 326.552,-92.5 326.552,-74.5 247.563,-74.5"/>
<text text-anchor="middle" x="287.058" y="-80.5" font-family="Helvetica,sans-Serif" font-size="10.00">RPMsg RTOS</text>
</a>
</g>
</g>
<!-- Node0&#45;&gt;Node8 -->
<g id="edge8" class="edge"><title>Node0&#45;&gt;Node8</title>
<path fill="none" stroke="blueviolet" stroke-dasharray="5,2" d="M148.241,-314.505C148.952,-347.719 154.733,-465.673 200.384,-547.5 211.633,-567.663 218.293,-571.207 237.837,-583.5 243.434,-587.021 249.825,-590.01 256.082,-592.481"/>
<text text-anchor="middle" x="210.11" y="-573.5" font-family="Helvetica,sans-Serif" font-size="10.00">erpc</text>
</g>
<!-- Node0&#45;&gt;Node6 -->
<g id="edge6" class="edge"><title>Node0&#45;&gt;Node6</title>
<path fill="none" stroke="blueviolet" stroke-dasharray="5,2" d="M148.71,-314.759C150.903,-344.962 160.831,-442.581 200.384,-510.5 212.003,-530.452 218.293,-534.207 237.837,-546.5 244.796,-550.877 252.981,-554.433 260.612,-557.192"/>
<text text-anchor="middle" x="210.11" y="-535.5" font-family="Helvetica,sans-Serif" font-size="10.00">erpc</text>
</g>
<!-- Node0&#45;&gt;Node17 -->
<g id="edge17" class="edge"><title>Node0&#45;&gt;Node17</title>
<path fill="none" stroke="blueviolet" stroke-dasharray="5,2" d="M149.442,-314.838C153.435,-341.284 167.343,-418.284 200.384,-472.5 212.56,-492.481 218.116,-496.907 237.837,-509.5 245.368,-514.309 254.374,-518.108 262.552,-520.952"/>
<text text-anchor="middle" x="210.11" y="-498.5" font-family="Helvetica,sans-Serif" font-size="10.00">erpc</text>
</g>
<!-- Node0&#45;&gt;Node13 -->
<g id="edge13" class="edge"><title>Node0&#45;&gt;Node13</title>
<path fill="none" stroke="blueviolet" stroke-dasharray="5,2" d="M150.613,-314.757C156.714,-336.655 173.963,-392.848 200.384,-433.5 213.48,-453.65 217.754,-459.301 237.837,-472.5 245.304,-477.408 254.296,-481.228 262.481,-484.061"/>
<text text-anchor="middle" x="210.11" y="-460.5" font-family="Helvetica,sans-Serif" font-size="10.00">erpc</text>
</g>
<!-- Node0&#45;&gt;Node2 -->
<g id="edge2" class="edge"><title>Node0&#45;&gt;Node2</title>
<path fill="none" stroke="blueviolet" stroke-dasharray="5,2" d="M151.512,-314.573C160.961,-338.687 190.204,-404.635 237.837,-435.5 246.386,-441.04 256.883,-445.215 265.898,-448.143"/>
<text text-anchor="middle" x="210.11" y="-421.5" font-family="Helvetica,sans-Serif" font-size="10.00">erpc</text>
</g>
<!-- Node0&#45;&gt;Node3 -->
<g id="edge3" class="edge"><title>Node0&#45;&gt;Node3</title>
<path fill="none" stroke="blueviolet" stroke-dasharray="5,2" d="M154.403,-314.708C167.584,-333.394 200.123,-375.905 237.837,-398.5 243.663,-401.99 250.279,-404.995 256.704,-407.494"/>
<text text-anchor="middle" x="210.11" y="-385.5" font-family="Helvetica,sans-Serif" font-size="10.00">erpc</text>
</g>
<!-- Node0&#45;&gt;Node14 -->
<g id="edge14" class="edge"><title>Node0&#45;&gt;Node14</title>
<path fill="none" stroke="blueviolet" stroke-dasharray="5,2" d="M160.747,-314.508C177.689,-326.348 209.019,-347.304 237.837,-361.5 244.49,-364.777 251.898,-367.822 258.872,-370.44"/>
<text text-anchor="middle" x="210.11" y="-353.5" font-family="Helvetica,sans-Serif" font-size="10.00">erpc</text>
</g>
<!-- Node0&#45;&gt;Node4 -->
<g id="edge4" class="edge"><title>Node0&#45;&gt;Node4</title>
<path fill="none" stroke="blueviolet" stroke-dasharray="5,2" d="M181.884,-314.551C206.923,-321.269 240.431,-330.259 262.603,-336.207"/>
<text text-anchor="middle" x="210.11" y="-325.5" font-family="Helvetica,sans-Serif" font-size="10.00">erpc</text>
</g>
<!-- Node0&#45;&gt;Node16 -->
<g id="edge16" class="edge"><title>Node0&#45;&gt;Node16</title>
<path fill="none" stroke="blueviolet" stroke-dasharray="5,2" d="M182.592,-305.5C205.41,-305.5 235.02,-305.5 256.714,-305.5"/>
<text text-anchor="middle" x="210.11" y="-307.5" font-family="Helvetica,sans-Serif" font-size="10.00">erpc</text>
</g>
<!-- Node0&#45;&gt;Node18 -->
<g id="edge18" class="edge"><title>Node0&#45;&gt;Node18</title>
<path fill="none" stroke="blueviolet" stroke-dasharray="5,2" d="M181.884,-296.449C203.255,-290.715 230.795,-283.326 252.191,-277.586"/>
<text text-anchor="middle" x="210.11" y="-293.5" font-family="Helvetica,sans-Serif" font-size="10.00">erpc</text>
</g>
<!-- Node0&#45;&gt;Node15 -->
<g id="edge15" class="edge"><title>Node0&#45;&gt;Node15</title>
<path fill="none" stroke="blueviolet" stroke-dasharray="5,2" d="M160.747,-296.492C177.689,-284.652 209.019,-263.696 237.837,-249.5 244.49,-246.223 251.898,-243.178 258.872,-240.56"/>
<text text-anchor="middle" x="210.11" y="-271.5" font-family="Helvetica,sans-Serif" font-size="10.00">erpc</text>
</g>
<!-- Node0&#45;&gt;Node5 -->
<g id="edge5" class="edge"><title>Node0&#45;&gt;Node5</title>
<path fill="none" stroke="blueviolet" stroke-dasharray="5,2" d="M154.403,-296.292C167.584,-277.606 200.123,-235.095 237.837,-212.5 245.962,-207.632 255.626,-203.709 264.161,-200.784"/>
<text text-anchor="middle" x="210.11" y="-243.5" font-family="Helvetica,sans-Serif" font-size="10.00">erpc</text>
</g>
<!-- Node0&#45;&gt;Node9 -->
<g id="edge9" class="edge"><title>Node0&#45;&gt;Node9</title>
<path fill="none" stroke="blueviolet" stroke-dasharray="5,2" d="M151.512,-296.427C160.961,-272.313 190.204,-206.365 237.837,-175.5 243.311,-171.953 249.585,-168.965 255.756,-166.506"/>
<text text-anchor="middle" x="210.11" y="-209.5" font-family="Helvetica,sans-Serif" font-size="10.00">erpc</text>
</g>
<!-- Node0&#45;&gt;Node7 -->
<g id="edge7" class="edge"><title>Node0&#45;&gt;Node7</title>
<path fill="none" stroke="blueviolet" stroke-dasharray="5,2" d="M150.613,-296.243C156.714,-274.345 173.963,-218.152 200.384,-177.5 213.48,-157.35 217.754,-151.699 237.837,-138.5 243.213,-134.966 249.38,-131.997 255.467,-129.553"/>
<text text-anchor="middle" x="210.11" y="-179.5" font-family="Helvetica,sans-Serif" font-size="10.00">erpc</text>
</g>
<!-- Node0&#45;&gt;Node12 -->
<g id="edge12" class="edge"><title>Node0&#45;&gt;Node12</title>
<path fill="none" stroke="blueviolet" stroke-dasharray="5,2" d="M149.442,-296.162C153.435,-269.716 167.343,-192.716 200.384,-138.5 212.56,-118.519 218.116,-114.093 237.837,-101.5 243.335,-97.9893 249.618,-95.0171 255.792,-92.5618"/>
<text text-anchor="middle" x="210.11" y="-140.5" font-family="Helvetica,sans-Serif" font-size="10.00">erpc</text>
</g>
<!-- Node10 -->
<g id="node18" class="node"><title>Node10</title>
<g id="a_node18"><a xlink:href="group__rpmsg__lite__rtos__transport.html" target="_top" xlink:title="RPMsg&#45;Lite transport using RTOS API. ">
<polygon fill="white" stroke="black" points="237.837,-37.5 237.837,-55.5 336.278,-55.5 336.278,-37.5 237.837,-37.5"/>
<text text-anchor="middle" x="287.058" y="-43.5" font-family="Helvetica,sans-Serif" font-size="10.00">RPMsg&#45;Lite RTOS</text>
</a>
</g>
</g>
<!-- Node0&#45;&gt;Node10 -->
<g id="edge10" class="edge"><title>Node0&#45;&gt;Node10</title>
<path fill="none" stroke="blueviolet" stroke-dasharray="5,2" d="M148.71,-296.241C150.903,-266.038 160.831,-168.419 200.384,-100.5 212.003,-80.548 218.293,-76.7925 237.837,-64.5 243.434,-60.9794 249.825,-57.9902 256.082,-55.5192"/>
<text text-anchor="middle" x="210.11" y="-102.5" font-family="Helvetica,sans-Serif" font-size="10.00">erpc</text>
</g>
<!-- Node11 -->
<g id="node19" class="node"><title>Node11</title>
<g id="a_node19"><a xlink:href="group__rpmsg__lite__transport.html" target="_top" xlink:title="RPMsg&#45;Lite transport. ">
<polygon fill="white" stroke="black" points="252.939,-0.5 252.939,-18.5 321.176,-18.5 321.176,-0.5 252.939,-0.5"/>
<text text-anchor="middle" x="287.058" y="-6.5" font-family="Helvetica,sans-Serif" font-size="10.00">RPMsg&#45;Lite</text>
</a>
</g>
</g>
<!-- Node0&#45;&gt;Node11 -->
<g id="edge11" class="edge"><title>Node0&#45;&gt;Node11</title>
<path fill="none" stroke="blueviolet" stroke-dasharray="5,2" d="M148.241,-296.495C148.952,-263.281 154.733,-145.327 200.384,-63.5 211.633,-43.337 218.293,-39.7925 237.837,-27.5 243.434,-23.9794 249.825,-20.9902 256.082,-18.5192"/>
<text text-anchor="middle" x="210.11" y="-65.5" font-family="Helvetica,sans-Serif" font-size="10.00">erpc</text>
</g>
</g>
</svg>
