<?xml version="1.0" encoding="UTF-8" standalone="no"?>
<!DOCTYPE svg PUBLIC "-//W3C//DTD SVG 1.1//EN"
 "http://www.w3.org/Graphics/SVG/1.1/DTD/svg11.dtd">
<!-- Generated by graphviz version 2.38.0 (20140413.2041)
 -->
<!-- Title: Infrastructure Pages: 1 -->
<svg width="189pt" height="175pt"
 viewBox="0.00 0.00 189.38 175.00" xmlns="http://www.w3.org/2000/svg" xmlns:xlink="http://www.w3.org/1999/xlink">
<g id="graph0" class="graph" transform="scale(1 1) rotate(0) translate(4 171)">
<title>Infrastructure</title>
<polygon fill="white" stroke="none" points="-4,4 -4,-171 185.384,-171 185.384,4 -4,4"/>
<!-- Node0 -->
<g id="node1" class="node"><title>Node0</title>
<polygon fill="#bfbfbf" stroke="black" points="0,-74.5 0,-92.5 74.9111,-92.5 74.9111,-74.5 0,-74.5"/>
<text text-anchor="middle" x="37.4556" y="-80.5" font-family="Helvetica,sans-Serif" font-size="10.00">Infrastructure</text>
</g>
<!-- Node4 -->
<g id="node2" class="node"><title>Node4</title>
<g id="a_node2"><a xlink:href="group__infra__client.html" target="_top" xlink:title="Client classes. ">
<polygon fill="white" stroke="black" points="125.364,-148.5 125.364,-166.5 166.931,-166.5 166.931,-148.5 125.364,-148.5"/>
<text text-anchor="middle" x="146.147" y="-154.5" font-family="Helvetica,sans-Serif" font-size="10.00">Client</text>
</a>
</g>
</g>
<!-- Node0&#45;&gt;Node4 -->
<g id="edge4" class="edge"><title>Node0&#45;&gt;Node4</title>
<path fill="none" stroke="black" d="M57.3323,-99.5572C71.577,-111.305 91.8586,-127.261 110.911,-139.5 115.77,-142.621 121.228,-145.677 126.334,-148.359"/>
<polygon fill="black" stroke="black" points="59.2274,-96.5799 49.308,-92.8574 54.7409,-101.953 59.2274,-96.5799"/>
</g>
<!-- Node1 -->
<g id="node3" class="node"><title>Node1</title>
<g id="a_node3"><a xlink:href="group__infra__transport.html" target="_top" xlink:title="Superclasses for building transports. ">
<polygon fill="white" stroke="black" points="114.434,-111.5 114.434,-129.5 177.861,-129.5 177.861,-111.5 114.434,-111.5"/>
<text text-anchor="middle" x="146.147" y="-117.5" font-family="Helvetica,sans-Serif" font-size="10.00">Transports</text>
</a>
</g>
</g>
<!-- Node0&#45;&gt;Node1 -->
<g id="edge1" class="edge"><title>Node0&#45;&gt;Node1</title>
<path fill="none" stroke="black" d="M74.2959,-95.9292C88.9113,-100.998 105.498,-106.75 118.947,-111.414"/>
<polygon fill="black" stroke="black" points="75.1501,-92.521 64.5553,-92.5512 72.8565,-99.1346 75.1501,-92.521"/>
</g>
<!-- Node2 -->
<g id="node4" class="node"><title>Node2</title>
<g id="a_node4"><a xlink:href="group__infra__utility.html" target="_top" xlink:title="Utility code used by the infrastructure. ">
<polygon fill="white" stroke="black" points="122.034,-74.5 122.034,-92.5 170.261,-92.5 170.261,-74.5 122.034,-74.5"/>
<text text-anchor="middle" x="146.147" y="-80.5" font-family="Helvetica,sans-Serif" font-size="10.00">Utilities</text>
</a>
</g>
</g>
<!-- Node0&#45;&gt;Node2 -->
<g id="edge2" class="edge"><title>Node0&#45;&gt;Node2</title>
<path fill="none" stroke="black" d="M85.5336,-83.5C98.0728,-83.5 111.08,-83.5 121.733,-83.5"/>
<polygon fill="black" stroke="black" points="85.1729,-80.0001 75.1729,-83.5 85.1728,-87.0001 85.1729,-80.0001"/>
</g>
<!-- Node3 -->
<g id="node5" class="node"><title>Node3</title>
<g id="a_node5"><a xlink:href="group__infra__server.html" target="_top" xlink:title="Server classes. ">
<polygon fill="white" stroke="black" points="123.421,-37.5 123.421,-55.5 168.874,-55.5 168.874,-37.5 123.421,-37.5"/>
<text text-anchor="middle" x="146.147" y="-43.5" font-family="Helvetica,sans-Serif" font-size="10.00">Server</text>
</a>
</g>
</g>
<!-- Node0&#45;&gt;Node3 -->
<g id="edge3" class="edge"><title>Node0&#45;&gt;Node3</title>
<path fill="none" stroke="black" d="M74.2833,-71.0752C90.5126,-65.447 109.175,-58.975 123.273,-54.0859"/>
<polygon fill="black" stroke="black" points="72.8565,-67.8654 64.5553,-74.4488 75.1501,-74.479 72.8565,-67.8654"/>
</g>
<!-- Node5 -->
<g id="node6" class="node"><title>Node5</title>
<g id="a_node6"><a xlink:href="group__infra__codec.html" target="_top" xlink:title="Classes used for message serialization. ">
<polygon fill="white" stroke="black" points="110.911,-0.5 110.911,-18.5 181.384,-18.5 181.384,-0.5 110.911,-0.5"/>
<text text-anchor="middle" x="146.147" y="-6.5" font-family="Helvetica,sans-Serif" font-size="10.00">Serialization</text>
</a>
</g>
</g>
<!-- Node0&#45;&gt;Node5 -->
<g id="edge5" class="edge"><title>Node0&#45;&gt;Node5</title>
<path fill="none" stroke="black" d="M57.4572,-67.8881C71.7647,-56.43 92.0701,-40.7894 110.911,-28.5 116.263,-25.009 122.301,-21.52 127.799,-18.5023"/>
<polygon fill="black" stroke="black" points="54.9633,-65.4037 49.3905,-74.4145 59.3662,-70.8456 54.9633,-65.4037"/>
</g>
</g>
</svg>
