<?xml version="1.0" encoding="UTF-8" standalone="no"?>
<!DOCTYPE svg PUBLIC "-//W3C//DTD SVG 1.1//EN"
 "http://www.w3.org/Graphics/SVG/1.1/DTD/svg11.dtd">
<!-- Generated by graphviz version 2.38.0 (20140413.2041)
 -->
<!-- Title: TCP/IP Pages: 1 -->
<svg width="338pt" height="619pt"
 viewBox="0.00 0.00 338.34 619.00" xmlns="http://www.w3.org/2000/svg" xmlns:xlink="http://www.w3.org/1999/xlink">
<g id="graph0" class="graph" transform="scale(1 1) rotate(0) translate(4 615)">
<title>TCP/IP</title>
<polygon fill="white" stroke="none" points="-4,4 -4,-615 334.341,-615 334.341,4 -4,4"/>
<!-- Node1 -->
<g id="node1" class="node"><title>Node1</title>
<g id="a_node1"><a xlink:href="group__transports.html" target="_top" xlink:title="Transport layer classes. ">
<polygon fill="white" stroke="black" points="0,-296.5 0,-314.5 91.2197,-314.5 91.2197,-296.5 0,-296.5"/>
<text text-anchor="middle" x="45.6099" y="-302.5" font-family="Helvetica,sans-Serif" font-size="10.00">Transport Layers</text>
</a>
</g>
</g>
<!-- Node0 -->
<g id="node4" class="node"><title>Node0</title>
<polygon fill="#bfbfbf" stroke="black" points="128.22,-296.5 128.22,-314.5 176.446,-314.5 176.446,-296.5 128.22,-296.5"/>
<text text-anchor="middle" x="152.333" y="-302.5" font-family="Helvetica,sans-Serif" font-size="10.00">TCP/IP</text>
</g>
<!-- Node1&#45;&gt;Node0 -->
<g id="edge1" class="edge"><title>Node1&#45;&gt;Node0</title>
<path fill="none" stroke="black" d="M101.498,-305.5C110.886,-305.5 120.166,-305.5 128.126,-305.5"/>
<polygon fill="black" stroke="black" points="101.326,-302 91.3257,-305.5 101.326,-309 101.326,-302"/>
</g>
<!-- Node9 -->
<g id="node2" class="node"><title>Node9</title>
<g id="a_node2"><a xlink:href="group__dspi__slave__transport.html" target="_top" xlink:title="Kinetis SDK DSPI slave driver transport. ">
<polygon fill="white" stroke="black" points="247.554,-592.5 247.554,-610.5 314.687,-610.5 314.687,-592.5 247.554,-592.5"/>
<text text-anchor="middle" x="281.12" y="-598.5" font-family="Helvetica,sans-Serif" font-size="10.00">DSPI Slave</text>
</a>
</g>
</g>
<!-- Node7 -->
<g id="node3" class="node"><title>Node7</title>
<g id="a_node3"><a xlink:href="group__port__threads.html" target="_top" xlink:title="Threading model. ">
<polygon fill="white" stroke="black" points="254.778,-555.5 254.778,-573.5 307.462,-573.5 307.462,-555.5 254.778,-555.5"/>
<text text-anchor="middle" x="281.12" y="-561.5" font-family="Helvetica,sans-Serif" font-size="10.00">Threads</text>
</a>
</g>
</g>
<!-- Node0&#45;&gt;Node9 -->
<g id="edge9" class="edge"><title>Node0&#45;&gt;Node9</title>
<path fill="none" stroke="blueviolet" stroke-dasharray="5,2" d="M152.861,-314.543C151.517,-347.898 150.267,-466.35 194.446,-548.5 205.237,-568.565 212.529,-571.506 231.899,-583.5 237.521,-586.981 243.922,-589.954 250.182,-592.421"/>
<text text-anchor="middle" x="204.173" y="-573.5" font-family="Helvetica,sans-Serif" font-size="10.00">erpc</text>
</g>
<!-- Node0&#45;&gt;Node7 -->
<g id="edge7" class="edge"><title>Node0&#45;&gt;Node7</title>
<path fill="none" stroke="blueviolet" stroke-dasharray="5,2" d="M153.224,-314.809C153.257,-345.176 156.475,-443.316 194.446,-511.5 205.531,-531.405 212.529,-534.506 231.899,-546.5 238.889,-550.828 247.083,-554.37 254.712,-557.132"/>
<text text-anchor="middle" x="204.173" y="-536.5" font-family="Helvetica,sans-Serif" font-size="10.00">erpc</text>
</g>
<!-- Node14 -->
<g id="node5" class="node"><title>Node14</title>
<g id="a_node5"><a xlink:href="group__rpmsg__transport.html" target="_top" xlink:title="OpenAMP RPMsg transport. ">
<polygon fill="white" stroke="black" points="256.729,-518.5 256.729,-536.5 305.512,-536.5 305.512,-518.5 256.729,-518.5"/>
<text text-anchor="middle" x="281.12" y="-524.5" font-family="Helvetica,sans-Serif" font-size="10.00">RPMsg</text>
</a>
</g>
</g>
<!-- Node0&#45;&gt;Node14 -->
<g id="edge14" class="edge"><title>Node0&#45;&gt;Node14</title>
<path fill="none" stroke="blueviolet" stroke-dasharray="5,2" d="M153.79,-314.531C155.47,-340.814 162.973,-418.859 194.446,-473.5 205.97,-493.507 212.355,-497.207 231.899,-509.5 239.464,-514.258 248.476,-518.045 256.651,-520.894"/>
<text text-anchor="middle" x="204.173" y="-499.5" font-family="Helvetica,sans-Serif" font-size="10.00">erpc</text>
</g>
<!-- Node2 -->
<g id="node6" class="node"><title>Node2</title>
<g id="a_node6"><a xlink:href="group__infra__client.html" target="_top" xlink:title="Client classes. ">
<polygon fill="white" stroke="black" points="260.337,-481.5 260.337,-499.5 301.903,-499.5 301.903,-481.5 260.337,-481.5"/>
<text text-anchor="middle" x="281.12" y="-487.5" font-family="Helvetica,sans-Serif" font-size="10.00">Client</text>
</a>
</g>
</g>
<!-- Node0&#45;&gt;Node2 -->
<g id="edge2" class="edge"><title>Node0&#45;&gt;Node2</title>
<path fill="none" stroke="blueviolet" stroke-dasharray="5,2" d="M154.613,-314.73C158.043,-337.095 168.963,-395.365 194.446,-436.5 206.606,-456.127 212.355,-460.207 231.899,-472.5 240.523,-477.924 251.028,-482.086 260.029,-485.035"/>
<text text-anchor="middle" x="204.173" y="-461.5" font-family="Helvetica,sans-Serif" font-size="10.00">erpc</text>
</g>
<!-- Node4 -->
<g id="node7" class="node"><title>Node4</title>
<g id="a_node7"><a xlink:href="group__infra__transport.html" target="_top" xlink:title="Superclasses for building transports. ">
<polygon fill="white" stroke="black" points="249.407,-444.5 249.407,-462.5 312.833,-462.5 312.833,-444.5 249.407,-444.5"/>
<text text-anchor="middle" x="281.12" y="-450.5" font-family="Helvetica,sans-Serif" font-size="10.00">Transports</text>
</a>
</g>
</g>
<!-- Node0&#45;&gt;Node4 -->
<g id="edge4" class="edge"><title>Node0&#45;&gt;Node4</title>
<path fill="none" stroke="blueviolet" stroke-dasharray="5,2" d="M156.062,-314.529C161.557,-331.838 175.1,-370.455 194.446,-398.5 207.733,-417.761 212.178,-422.907 231.899,-435.5 237.397,-439.011 243.681,-441.983 249.855,-444.438"/>
<text text-anchor="middle" x="204.173" y="-424.5" font-family="Helvetica,sans-Serif" font-size="10.00">erpc</text>
</g>
<!-- Node15 -->
<g id="node8" class="node"><title>Node15</title>
<g id="a_node8"><a xlink:href="group__serial__transport.html" target="_top" xlink:title="POSIX and Win32 serial port transport. ">
<polygon fill="white" stroke="black" points="250.332,-407.5 250.332,-425.5 311.908,-425.5 311.908,-407.5 250.332,-407.5"/>
<text text-anchor="middle" x="281.12" y="-413.5" font-family="Helvetica,sans-Serif" font-size="10.00">Serial port</text>
</a>
</g>
</g>
<!-- Node0&#45;&gt;Node15 -->
<g id="edge15" class="edge"><title>Node0&#45;&gt;Node15</title>
<path fill="none" stroke="blueviolet" stroke-dasharray="5,2" d="M158.263,-314.59C168.984,-333.442 196.341,-376.836 231.899,-398.5 237.623,-401.987 244.131,-404.976 250.474,-407.459"/>
<text text-anchor="middle" x="204.173" y="-386.5" font-family="Helvetica,sans-Serif" font-size="10.00">erpc</text>
</g>
<!-- Node5 -->
<g id="node9" class="node"><title>Node5</title>
<g id="a_node9"><a xlink:href="group__infra__utility.html" target="_top" xlink:title="Utility code used by the infrastructure. ">
<polygon fill="white" stroke="black" points="257.007,-370.5 257.007,-388.5 305.233,-388.5 305.233,-370.5 257.007,-370.5"/>
<text text-anchor="middle" x="281.12" y="-376.5" font-family="Helvetica,sans-Serif" font-size="10.00">Utilities</text>
</a>
</g>
</g>
<!-- Node0&#45;&gt;Node5 -->
<g id="edge5" class="edge"><title>Node0&#45;&gt;Node5</title>
<path fill="none" stroke="blueviolet" stroke-dasharray="5,2" d="M163.793,-314.701C178.206,-326.951 205.405,-348.571 231.899,-361.5 239.77,-365.341 248.681,-368.878 256.682,-371.783"/>
<text text-anchor="middle" x="204.173" y="-352.5" font-family="Helvetica,sans-Serif" font-size="10.00">erpc</text>
</g>
<!-- Node17 -->
<g id="node10" class="node"><title>Node17</title>
<g id="a_node10"><a xlink:href="group__spi__slave__transport.html" target="_top" xlink:title="Kinetis SDK SPI slave driver transport. ">
<polygon fill="white" stroke="black" points="251.165,-333.5 251.165,-351.5 311.076,-351.5 311.076,-333.5 251.165,-333.5"/>
<text text-anchor="middle" x="281.12" y="-339.5" font-family="Helvetica,sans-Serif" font-size="10.00">SPI Slave</text>
</a>
</g>
</g>
<!-- Node0&#45;&gt;Node17 -->
<g id="edge17" class="edge"><title>Node0&#45;&gt;Node17</title>
<path fill="none" stroke="blueviolet" stroke-dasharray="5,2" d="M176.727,-313.764C182.496,-315.719 188.675,-317.745 194.446,-319.5 213.159,-325.191 234.39,-330.896 251.036,-335.2"/>
<text text-anchor="middle" x="204.173" y="-326.5" font-family="Helvetica,sans-Serif" font-size="10.00">erpc</text>
</g>
<!-- Node18 -->
<g id="node11" class="node"><title>Node18</title>
<g id="a_node11"><a xlink:href="group__uart__transport.html" target="_top" xlink:title="CMSIS UART driver transport. ">
<polygon fill="white" stroke="black" points="242.373,-296.5 242.373,-314.5 319.867,-314.5 319.867,-296.5 242.373,-296.5"/>
<text text-anchor="middle" x="281.12" y="-302.5" font-family="Helvetica,sans-Serif" font-size="10.00">CMSIS UART</text>
</a>
</g>
</g>
<!-- Node0&#45;&gt;Node18 -->
<g id="edge18" class="edge"><title>Node0&#45;&gt;Node18</title>
<path fill="none" stroke="blueviolet" stroke-dasharray="5,2" d="M176.588,-305.5C194.889,-305.5 220.772,-305.5 242.08,-305.5"/>
<text text-anchor="middle" x="204.173" y="-307.5" font-family="Helvetica,sans-Serif" font-size="10.00">erpc</text>
</g>
<!-- Node16 -->
<g id="node12" class="node"><title>Node16</title>
<g id="a_node12"><a xlink:href="group__spi__master__transport.html" target="_top" xlink:title="Kinetis SDK SPI master driver transport. ">
<polygon fill="white" stroke="black" points="248.391,-259.5 248.391,-277.5 313.849,-277.5 313.849,-259.5 248.391,-259.5"/>
<text text-anchor="middle" x="281.12" y="-265.5" font-family="Helvetica,sans-Serif" font-size="10.00">SPI Master</text>
</a>
</g>
</g>
<!-- Node0&#45;&gt;Node16 -->
<g id="edge16" class="edge"><title>Node0&#45;&gt;Node16</title>
<path fill="none" stroke="blueviolet" stroke-dasharray="5,2" d="M176.727,-297.236C182.496,-295.281 188.675,-293.255 194.446,-291.5 212.127,-286.123 232.057,-280.733 248.243,-276.524"/>
<text text-anchor="middle" x="204.173" y="-293.5" font-family="Helvetica,sans-Serif" font-size="10.00">erpc</text>
</g>
<!-- Node6 -->
<g id="node13" class="node"><title>Node6</title>
<g id="a_node13"><a xlink:href="group__infra__server.html" target="_top" xlink:title="Server classes. ">
<polygon fill="white" stroke="black" points="258.394,-222.5 258.394,-240.5 303.847,-240.5 303.847,-222.5 258.394,-222.5"/>
<text text-anchor="middle" x="281.12" y="-228.5" font-family="Helvetica,sans-Serif" font-size="10.00">Server</text>
</a>
</g>
</g>
<!-- Node0&#45;&gt;Node6 -->
<g id="edge6" class="edge"><title>Node0&#45;&gt;Node6</title>
<path fill="none" stroke="blueviolet" stroke-dasharray="5,2" d="M163.404,-296.298C171.489,-289.13 183.293,-279.147 194.446,-271.5 210.186,-260.709 214.659,-258.683 231.899,-250.5 240.353,-246.487 249.897,-242.599 258.249,-239.396"/>
<text text-anchor="middle" x="204.173" y="-273.5" font-family="Helvetica,sans-Serif" font-size="10.00">erpc</text>
</g>
<!-- Node10 -->
<g id="node14" class="node"><title>Node10</title>
<g id="a_node14"><a xlink:href="group__itbp__transport.html" target="_top" xlink:title="Simple inter&#45;thread communications transport. ">
<polygon fill="white" stroke="black" points="247.273,-185.5 247.273,-203.5 314.967,-203.5 314.967,-185.5 247.273,-185.5"/>
<text text-anchor="middle" x="281.12" y="-191.5" font-family="Helvetica,sans-Serif" font-size="10.00">Inter&#45;thread</text>
</a>
</g>
</g>
<!-- Node0&#45;&gt;Node10 -->
<g id="edge10" class="edge"><title>Node0&#45;&gt;Node10</title>
<path fill="none" stroke="blueviolet" stroke-dasharray="5,2" d="M158.447,-296.232C165.581,-283.742 179.353,-261.156 194.446,-244.5 208.956,-228.488 213.293,-224.486 231.899,-213.5 238.408,-209.657 245.837,-206.29 252.882,-203.501"/>
<text text-anchor="middle" x="204.173" y="-246.5" font-family="Helvetica,sans-Serif" font-size="10.00">erpc</text>
</g>
<!-- Node8 -->
<g id="node15" class="node"><title>Node8</title>
<g id="a_node15"><a xlink:href="group__dspi__master__transport.html" target="_top" xlink:title="Kinetis SDK DSPI master driver transport. ">
<polygon fill="white" stroke="black" points="244.78,-148.5 244.78,-166.5 317.46,-166.5 317.46,-148.5 244.78,-148.5"/>
<text text-anchor="middle" x="281.12" y="-154.5" font-family="Helvetica,sans-Serif" font-size="10.00">DSPI Master</text>
</a>
</g>
</g>
<!-- Node0&#45;&gt;Node8 -->
<g id="edge8" class="edge"><title>Node0&#45;&gt;Node8</title>
<path fill="none" stroke="blueviolet" stroke-dasharray="5,2" d="M155.83,-296.472C161.009,-278.79 174.159,-238.854 194.446,-210.5 207.528,-192.216 212.807,-188.37 231.899,-176.5 238.166,-172.604 245.365,-169.255 252.257,-166.501"/>
<text text-anchor="middle" x="204.173" y="-212.5" font-family="Helvetica,sans-Serif" font-size="10.00">erpc</text>
</g>
<!-- Node13 -->
<g id="node16" class="node"><title>Node13</title>
<g id="a_node16"><a xlink:href="group__rpmsg__rtos__transport.html" target="_top" xlink:title="OpenAMP RPMsg RTOS layer transport. ">
<polygon fill="white" stroke="black" points="241.626,-111.5 241.626,-129.5 320.614,-129.5 320.614,-111.5 241.626,-111.5"/>
<text text-anchor="middle" x="281.12" y="-117.5" font-family="Helvetica,sans-Serif" font-size="10.00">RPMsg RTOS</text>
</a>
</g>
</g>
<!-- Node0&#45;&gt;Node13 -->
<g id="edge13" class="edge"><title>Node0&#45;&gt;Node13</title>
<path fill="none" stroke="blueviolet" stroke-dasharray="5,2" d="M154.473,-296.483C157.641,-274.092 168.113,-214.781 194.446,-173.5 206.537,-154.546 212.807,-151.37 231.899,-139.5 238.166,-135.604 245.365,-132.255 252.257,-129.501"/>
<text text-anchor="middle" x="204.173" y="-175.5" font-family="Helvetica,sans-Serif" font-size="10.00">erpc</text>
</g>
<!-- Node3 -->
<g id="node17" class="node"><title>Node3</title>
<g id="a_node17"><a xlink:href="group__infra__codec.html" target="_top" xlink:title="Classes used for message serialization. ">
<polygon fill="white" stroke="black" points="245.884,-74.5 245.884,-92.5 316.356,-92.5 316.356,-74.5 245.884,-74.5"/>
<text text-anchor="middle" x="281.12" y="-80.5" font-family="Helvetica,sans-Serif" font-size="10.00">Serialization</text>
</a>
</g>
</g>
<!-- Node0&#45;&gt;Node3 -->
<g id="edge3" class="edge"><title>Node0&#45;&gt;Node3</title>
<path fill="none" stroke="blueviolet" stroke-dasharray="5,2" d="M153.701,-296.371C155.139,-269.813 162.053,-191.013 194.446,-136.5 205.931,-117.173 212.807,-114.37 231.899,-102.5 238.166,-98.6043 245.365,-95.2549 252.257,-92.5015"/>
<text text-anchor="middle" x="204.173" y="-138.5" font-family="Helvetica,sans-Serif" font-size="10.00">erpc</text>
</g>
<!-- Node11 -->
<g id="node18" class="node"><title>Node11</title>
<g id="a_node18"><a xlink:href="group__rpmsg__lite__rtos__transport.html" target="_top" xlink:title="RPMsg&#45;Lite transport using RTOS API. ">
<polygon fill="white" stroke="black" points="231.899,-37.5 231.899,-55.5 330.341,-55.5 330.341,-37.5 231.899,-37.5"/>
<text text-anchor="middle" x="281.12" y="-43.5" font-family="Helvetica,sans-Serif" font-size="10.00">RPMsg&#45;Lite RTOS</text>
</a>
</g>
</g>
<!-- Node0&#45;&gt;Node11 -->
<g id="edge11" class="edge"><title>Node0&#45;&gt;Node11</title>
<path fill="none" stroke="blueviolet" stroke-dasharray="5,2" d="M153.184,-296.169C153.096,-265.733 155.984,-167.408 194.446,-99.5 206.772,-77.7376 232.06,-63.7504 251.983,-55.6426"/>
<text text-anchor="middle" x="204.173" y="-101.5" font-family="Helvetica,sans-Serif" font-size="10.00">erpc</text>
</g>
<!-- Node12 -->
<g id="node19" class="node"><title>Node12</title>
<g id="a_node19"><a xlink:href="group__rpmsg__lite__transport.html" target="_top" xlink:title="RPMsg&#45;Lite transport. ">
<polygon fill="white" stroke="black" points="247.002,-0.5 247.002,-18.5 315.238,-18.5 315.238,-0.5 247.002,-0.5"/>
<text text-anchor="middle" x="281.12" y="-6.5" font-family="Helvetica,sans-Serif" font-size="10.00">RPMsg&#45;Lite</text>
</a>
</g>
</g>
<!-- Node0&#45;&gt;Node12 -->
<g id="edge12" class="edge"><title>Node0&#45;&gt;Node12</title>
<path fill="none" stroke="blueviolet" stroke-dasharray="5,2" d="M154.087,-296.251C157.409,-256.993 171.598,-104.259 194.446,-62.5 206.451,-40.5588 231.777,-26.5926 251.796,-18.5381"/>
<text text-anchor="middle" x="204.173" y="-64.5" font-family="Helvetica,sans-Serif" font-size="10.00">erpc</text>
</g>
</g>
</svg>
