<?xml version="1.0" encoding="UTF-8" standalone="no"?>
<!DOCTYPE svg PUBLIC "-//W3C//DTD SVG 1.1//EN"
 "http://www.w3.org/Graphics/SVG/1.1/DTD/svg11.dtd">
<!-- Generated by graphviz version 2.38.0 (20140413.2041)
 -->
<!-- Title: Graphical Class Hierarchy Pages: 1 -->
<svg width="326pt" height="74pt"
 viewBox="0.00 0.00 326.30 74.00" xmlns="http://www.w3.org/2000/svg" xmlns:xlink="http://www.w3.org/1999/xlink">
<g id="graph0" class="graph" transform="scale(1 1) rotate(0) translate(4 70)">
<title>Graphical Class Hierarchy</title>
<polygon fill="white" stroke="none" points="-4,4 -4,-70 322.303,-70 322.303,4 -4,4"/>
<!-- Node0 -->
<g id="node1" class="node"><title>Node0</title>
<g id="a_node1"><a xlink:href="classerpc_1_1_message_buffer_factory.html" target="_top" xlink:title="Abstract interface for message buffer factory. ">
<polygon fill="white" stroke="black" points="0,-26.5 0,-44.5 141.43,-44.5 141.43,-26.5 0,-26.5"/>
<text text-anchor="middle" x="70.7148" y="-32.5" font-family="Helvetica,sans-Serif" font-size="10.00">erpc::MessageBufferFactory</text>
</a>
</g>
</g>
<!-- Node1 -->
<g id="node2" class="node"><title>Node1</title>
<g id="a_node2"><a xlink:href="class_basic_message_buffer_factory.html" target="_top" xlink:title="BasicMessageBufferFactory">
<polygon fill="white" stroke="black" points="177.43,-47.5 177.43,-65.5 318.303,-65.5 318.303,-47.5 177.43,-47.5"/>
<text text-anchor="middle" x="247.866" y="-53.5" font-family="Helvetica,sans-Serif" font-size="10.00">BasicMessageBufferFactory</text>
</a>
</g>
</g>
<!-- Node0&#45;&gt;Node1 -->
<g id="edge1" class="edge"><title>Node0&#45;&gt;Node1</title>
<path fill="none" stroke="midnightblue" d="M151.511,-45.0673C160.145,-46.1024 168.88,-47.1498 177.378,-48.1687"/>
<polygon fill="midnightblue" stroke="midnightblue" points="151.788,-41.5755 141.443,-43.8601 150.955,-48.5257 151.788,-41.5755"/>
</g>
<!-- Node2 -->
<g id="node3" class="node"><title>Node2</title>
<g id="a_node3"><a xlink:href="classerpc_1_1_r_p_msg_message_buffer_factory.html" target="_top" xlink:title="Message buffer factory used with RPMsg transport layer. ">
<polygon fill="white" stroke="black" points="177.43,-0.5 177.43,-28.5 318.303,-28.5 318.303,-0.5 177.43,-0.5"/>
<text text-anchor="start" x="185.43" y="-16.5" font-family="Helvetica,sans-Serif" font-size="10.00">erpc::RPMsgMessageBuffer</text>
<text text-anchor="middle" x="247.866" y="-6.5" font-family="Helvetica,sans-Serif" font-size="10.00">Factory</text>
</a>
</g>
</g>
<!-- Node0&#45;&gt;Node2 -->
<g id="edge2" class="edge"><title>Node0&#45;&gt;Node2</title>
<path fill="none" stroke="midnightblue" d="M151.511,-25.9327C160.145,-24.8976 168.88,-23.8502 177.378,-22.8313"/>
<polygon fill="midnightblue" stroke="midnightblue" points="150.955,-22.4743 141.443,-27.1399 151.788,-29.4245 150.955,-22.4743"/>
</g>
</g>
</svg>
