<?xml version="1.0" encoding="UTF-8" standalone="no"?>
<!DOCTYPE svg PUBLIC "-//W3C//DTD SVG 1.1//EN"
 "http://www.w3.org/Graphics/SVG/1.1/DTD/svg11.dtd">
<!-- Generated by graphviz version 2.38.0 (20140413.2041)
 -->
<!-- Title: inter_thread_buffer_transport.h Pages: 1 -->
<svg width="472pt" height="202pt"
 viewBox="0.00 0.00 471.93 202.00" xmlns="http://www.w3.org/2000/svg" xmlns:xlink="http://www.w3.org/1999/xlink">
<g id="graph0" class="graph" transform="scale(1 1) rotate(0) translate(4 198)">
<title>inter_thread_buffer_transport.h</title>
<polygon fill="white" stroke="none" points="-4,4 -4,-198 467.926,-198 467.926,4 -4,4"/>
<!-- Node0 -->
<g id="node1" class="node"><title>Node0</title>
<polygon fill="#bfbfbf" stroke="black" points="192.036,-165.5 192.036,-193.5 292.362,-193.5 292.362,-165.5 192.036,-165.5"/>
<text text-anchor="start" x="200.036" y="-181.5" font-family="Helvetica,sans-Serif" font-size="10.00">inter_thread_buffer</text>
<text text-anchor="middle" x="242.199" y="-171.5" font-family="Helvetica,sans-Serif" font-size="10.00">_transport.h</text>
</g>
<!-- Node1 -->
<g id="node2" class="node"><title>Node1</title>
<g id="a_node2"><a xlink:href="erpc__threading_8h.html" target="_top" xlink:title="erpc_threading.h">
<polygon fill="white" stroke="black" points="85.6724,-110.5 85.6724,-128.5 176.726,-128.5 176.726,-110.5 85.6724,-110.5"/>
<text text-anchor="middle" x="131.199" y="-116.5" font-family="Helvetica,sans-Serif" font-size="10.00">erpc_threading.h</text>
</a>
</g>
</g>
<!-- Node0&#45;&gt;Node1 -->
<g id="edge1" class="edge"><title>Node0&#45;&gt;Node1</title>
<path fill="none" stroke="midnightblue" d="M217.289,-165.484C198.891,-155.87 173.972,-142.85 155.677,-133.29"/>
<polygon fill="midnightblue" stroke="midnightblue" points="157.268,-130.173 146.784,-128.643 154.026,-136.377 157.268,-130.173"/>
</g>
<!-- Node5 -->
<g id="node6" class="node"><title>Node5</title>
<g id="a_node6"><a xlink:href="message__buffer_8h.html" target="_top" xlink:title="message_buffer.h">
<polygon fill="white" stroke="black" points="194.536,-110.5 194.536,-128.5 289.862,-128.5 289.862,-110.5 194.536,-110.5"/>
<text text-anchor="middle" x="242.199" y="-116.5" font-family="Helvetica,sans-Serif" font-size="10.00">message_buffer.h</text>
</a>
</g>
</g>
<!-- Node0&#45;&gt;Node5 -->
<g id="edge5" class="edge"><title>Node0&#45;&gt;Node5</title>
<path fill="none" stroke="midnightblue" d="M242.199,-165.339C242.199,-157.531 242.199,-147.512 242.199,-138.927"/>
<polygon fill="midnightblue" stroke="midnightblue" points="245.699,-138.771 242.199,-128.771 238.699,-138.772 245.699,-138.771"/>
</g>
<!-- Node8 -->
<g id="node9" class="node"><title>Node8</title>
<g id="a_node9"><a xlink:href="transport_8h.html" target="_top" xlink:title="transport.h">
<polygon fill="white" stroke="black" points="338.298,-110.5 338.298,-128.5 402.101,-128.5 402.101,-110.5 338.298,-110.5"/>
<text text-anchor="middle" x="370.199" y="-116.5" font-family="Helvetica,sans-Serif" font-size="10.00">transport.h</text>
</a>
</g>
</g>
<!-- Node0&#45;&gt;Node8 -->
<g id="edge10" class="edge"><title>Node0&#45;&gt;Node8</title>
<path fill="none" stroke="midnightblue" d="M270.925,-165.484C292.432,-155.738 321.668,-142.491 342.839,-132.898"/>
<polygon fill="midnightblue" stroke="midnightblue" points="344.564,-135.959 352.228,-128.643 341.674,-129.583 344.564,-135.959"/>
</g>
<!-- Node2 -->
<g id="node3" class="node"><title>Node2</title>
<g id="a_node3"><a xlink:href="erpc__config__internal_8h_source.html" target="_top" xlink:title="erpc_config_internal.h">
<polygon fill="white" stroke="black" points="0,-55.5 0,-73.5 114.398,-73.5 114.398,-55.5 0,-55.5"/>
<text text-anchor="middle" x="57.1992" y="-61.5" font-family="Helvetica,sans-Serif" font-size="10.00">erpc_config_internal.h</text>
</a>
</g>
</g>
<!-- Node1&#45;&gt;Node2 -->
<g id="edge2" class="edge"><title>Node1&#45;&gt;Node2</title>
<path fill="none" stroke="midnightblue" d="M119.96,-110.45C108.551,-102.279 90.6534,-89.4604 76.8855,-79.5996"/>
<polygon fill="midnightblue" stroke="midnightblue" points="78.7119,-76.6027 68.544,-73.6253 74.6359,-82.2936 78.7119,-76.6027"/>
</g>
<!-- Node4 -->
<g id="node5" class="node"><title>Node4</title>
<polygon fill="white" stroke="#bfbfbf" points="225.079,-0.5 225.079,-18.5 273.32,-18.5 273.32,-0.5 225.079,-0.5"/>
<text text-anchor="middle" x="249.199" y="-6.5" font-family="Helvetica,sans-Serif" font-size="10.00">stdint.h</text>
</g>
<!-- Node1&#45;&gt;Node4 -->
<g id="edge4" class="edge"><title>Node1&#45;&gt;Node4</title>
<path fill="none" stroke="midnightblue" d="M138.528,-110.361C149.83,-97.9592 172.386,-73.7923 193.199,-55 204.981,-44.3622 218.959,-33.2528 230.003,-24.7951"/>
<polygon fill="midnightblue" stroke="midnightblue" points="232.272,-27.4669 238.133,-18.6403 228.047,-21.8859 232.272,-27.4669"/>
</g>
<!-- Node3 -->
<g id="node4" class="node"><title>Node3</title>
<g id="a_node4"><a xlink:href="erpc__config_8h.html" target="_top" xlink:title="erpc_config.h">
<polygon fill="white" stroke="black" points="19.1797,-0.5 19.1797,-18.5 95.2188,-18.5 95.2188,-0.5 19.1797,-0.5"/>
<text text-anchor="middle" x="57.1992" y="-6.5" font-family="Helvetica,sans-Serif" font-size="10.00">erpc_config.h</text>
</a>
</g>
</g>
<!-- Node2&#45;&gt;Node3 -->
<g id="edge3" class="edge"><title>Node2&#45;&gt;Node3</title>
<path fill="none" stroke="midnightblue" d="M57.1992,-55.2188C57.1992,-48.1769 57.1992,-37.8083 57.1992,-28.8277"/>
<polygon fill="midnightblue" stroke="midnightblue" points="60.6993,-28.5495 57.1992,-18.5496 53.6993,-28.5496 60.6993,-28.5495"/>
</g>
<!-- Node5&#45;&gt;Node4 -->
<g id="edge9" class="edge"><title>Node5&#45;&gt;Node4</title>
<path fill="none" stroke="midnightblue" d="M229.954,-110.429C214.076,-98.8758 189.497,-76.6223 199.199,-55 204.848,-42.4098 216.015,-31.9248 226.365,-24.301"/>
<polygon fill="midnightblue" stroke="midnightblue" points="228.446,-27.1181 234.728,-18.5865 224.497,-21.3385 228.446,-27.1181"/>
</g>
<!-- Node6 -->
<g id="node7" class="node"><title>Node6</title>
<g id="a_node7"><a xlink:href="erpc__common_8h_source.html" target="_top" xlink:title="erpc_common.h">
<polygon fill="white" stroke="black" points="274.35,-55.5 274.35,-73.5 362.049,-73.5 362.049,-55.5 274.35,-55.5"/>
<text text-anchor="middle" x="318.199" y="-61.5" font-family="Helvetica,sans-Serif" font-size="10.00">erpc_common.h</text>
</a>
</g>
</g>
<!-- Node5&#45;&gt;Node6 -->
<g id="edge6" class="edge"><title>Node5&#45;&gt;Node6</title>
<path fill="none" stroke="midnightblue" d="M253.742,-110.45C265.46,-102.279 283.841,-89.4604 297.981,-79.5996"/>
<polygon fill="midnightblue" stroke="midnightblue" points="300.347,-82.2163 306.548,-73.6253 296.343,-76.4746 300.347,-82.2163"/>
</g>
<!-- Node7 -->
<g id="node8" class="node"><title>Node7</title>
<polygon fill="white" stroke="#bfbfbf" points="208.079,-55.5 208.079,-73.5 256.32,-73.5 256.32,-55.5 208.079,-55.5"/>
<text text-anchor="middle" x="232.199" y="-61.5" font-family="Helvetica,sans-Serif" font-size="10.00">cstddef</text>
</g>
<!-- Node5&#45;&gt;Node7 -->
<g id="edge8" class="edge"><title>Node5&#45;&gt;Node7</title>
<path fill="none" stroke="midnightblue" d="M240.637,-110.219C239.293,-103.099 237.308,-92.5775 235.601,-83.5289"/>
<polygon fill="midnightblue" stroke="midnightblue" points="239.011,-82.7272 233.718,-73.5496 232.133,-84.0251 239.011,-82.7272"/>
</g>
<!-- Node6&#45;&gt;Node4 -->
<g id="edge7" class="edge"><title>Node6&#45;&gt;Node4</title>
<path fill="none" stroke="midnightblue" d="M307.72,-55.4504C297.182,-47.3566 280.71,-34.7042 267.923,-24.8822"/>
<polygon fill="midnightblue" stroke="midnightblue" points="269.84,-21.9412 259.777,-18.6253 265.576,-27.4926 269.84,-21.9412"/>
</g>
<!-- Node8&#45;&gt;Node4 -->
<g id="edge13" class="edge"><title>Node8&#45;&gt;Node4</title>
<path fill="none" stroke="midnightblue" d="M373.152,-110.201C377.225,-97.1543 382.83,-71.6224 371.199,-55 351.572,-26.9489 312.304,-16.5186 283.601,-12.6746"/>
<polygon fill="midnightblue" stroke="midnightblue" points="283.891,-9.18516 273.56,-11.536 283.102,-16.1406 283.891,-9.18516"/>
</g>
<!-- Node8&#45;&gt;Node6 -->
<g id="edge11" class="edge"><title>Node8&#45;&gt;Node6</title>
<path fill="none" stroke="midnightblue" d="M362.074,-110.219C354.398,-102.394 342.691,-90.4631 333.301,-80.8921"/>
<polygon fill="midnightblue" stroke="midnightblue" points="335.599,-78.2365 326.097,-73.5496 330.602,-83.1389 335.599,-78.2365"/>
</g>
<!-- Node9 -->
<g id="node10" class="node"><title>Node9</title>
<polygon fill="white" stroke="#bfbfbf" points="418.473,-55.5 418.473,-73.5 463.926,-73.5 463.926,-55.5 418.473,-55.5"/>
<text text-anchor="middle" x="441.199" y="-61.5" font-family="Helvetica,sans-Serif" font-size="10.00">cstring</text>
</g>
<!-- Node8&#45;&gt;Node9 -->
<g id="edge12" class="edge"><title>Node8&#45;&gt;Node9</title>
<path fill="none" stroke="midnightblue" d="M380.983,-110.45C391.825,-102.357 408.775,-89.7042 421.933,-79.8822"/>
<polygon fill="midnightblue" stroke="midnightblue" points="424.395,-82.412 430.314,-73.6253 420.207,-76.8025 424.395,-82.412"/>
</g>
</g>
</svg>
