<?xml version="1.0" encoding="UTF-8" standalone="no"?>
<!DOCTYPE svg PUBLIC "-//W3C//DTD SVG 1.1//EN"
 "http://www.w3.org/Graphics/SVG/1.1/DTD/svg11.dtd">
<!-- Generated by graphviz version 2.38.0 (20140413.2041)
 -->
<!-- Title: manually_constructed.h Pages: 1 -->
<svg width="130pt" height="82pt"
 viewBox="0.00 0.00 129.62 82.00" xmlns="http://www.w3.org/2000/svg" xmlns:xlink="http://www.w3.org/1999/xlink">
<g id="graph0" class="graph" transform="scale(1 1) rotate(0) translate(4 78)">
<title>manually_constructed.h</title>
<polygon fill="white" stroke="none" points="-4,4 -4,-78 125.615,-78 125.615,4 -4,4"/>
<!-- Node0 -->
<g id="node1" class="node"><title>Node0</title>
<polygon fill="#bfbfbf" stroke="black" points="0,-55.5 0,-73.5 121.615,-73.5 121.615,-55.5 0,-55.5"/>
<text text-anchor="middle" x="60.8076" y="-61.5" font-family="Helvetica,sans-Serif" font-size="10.00">manually_constructed.h</text>
</g>
<!-- Node1 -->
<g id="node2" class="node"><title>Node1</title>
<polygon fill="white" stroke="#bfbfbf" points="14.6353,-0.5 14.6353,-18.5 48.98,-18.5 48.98,-0.5 14.6353,-0.5"/>
<text text-anchor="middle" x="31.8076" y="-6.5" font-family="Helvetica,sans-Serif" font-size="10.00">new</text>
</g>
<!-- Node0&#45;&gt;Node1 -->
<g id="edge1" class="edge"><title>Node0&#45;&gt;Node1</title>
<path fill="none" stroke="midnightblue" d="M56.2764,-55.2188C52.2092,-47.7856 46.1139,-36.646 41.0245,-27.3446"/>
<polygon fill="midnightblue" stroke="midnightblue" points="44.0827,-25.6421 36.2121,-18.5496 37.9418,-29.0023 44.0827,-25.6421"/>
</g>
<!-- Node2 -->
<g id="node3" class="node"><title>Node2</title>
<polygon fill="white" stroke="#bfbfbf" points="66.687,-0.5 66.687,-18.5 114.928,-18.5 114.928,-0.5 66.687,-0.5"/>
<text text-anchor="middle" x="90.8076" y="-6.5" font-family="Helvetica,sans-Serif" font-size="10.00">stdint.h</text>
</g>
<!-- Node0&#45;&gt;Node2 -->
<g id="edge2" class="edge"><title>Node0&#45;&gt;Node2</title>
<path fill="none" stroke="midnightblue" d="M65.4951,-55.2188C69.7025,-47.7856 76.008,-36.646 81.2729,-27.3446"/>
<polygon fill="midnightblue" stroke="midnightblue" points="84.3711,-28.9763 86.2513,-18.5496 78.2793,-25.528 84.3711,-28.9763"/>
</g>
</g>
</svg>
