<?xml version="1.0" encoding="UTF-8" standalone="no"?>
<!DOCTYPE svg PUBLIC "-//W3C//DTD SVG 1.1//EN"
 "http://www.w3.org/Graphics/SVG/1.1/DTD/svg11.dtd">
<!-- Generated by graphviz version 2.38.0 (20140413.2041)
 -->
<!-- Title: message_buffer.h Pages: 1 -->
<svg width="1603pt" height="202pt"
 viewBox="0.00 0.00 1602.56 202.00" xmlns="http://www.w3.org/2000/svg" xmlns:xlink="http://www.w3.org/1999/xlink">
<g id="graph0" class="graph" transform="scale(1 1) rotate(0) translate(4 198)">
<title>message_buffer.h</title>
<polygon fill="white" stroke="none" points="-4,4 -4,-198 1598.56,-198 1598.56,4 -4,4"/>
<!-- Node4 -->
<g id="node1" class="node"><title>Node4</title>
<polygon fill="#bfbfbf" stroke="black" points="1023.32,-175.5 1023.32,-193.5 1118.65,-193.5 1118.65,-175.5 1023.32,-175.5"/>
<text text-anchor="middle" x="1070.99" y="-181.5" font-family="Helvetica,sans-Serif" font-size="10.00">message_buffer.h</text>
</g>
<!-- Node5 -->
<g id="node2" class="node"><title>Node5</title>
<g id="a_node2"><a xlink:href="codec_8h.html" target="_top" xlink:title="codec.h">
<polygon fill="white" stroke="black" points="254.475,-115.5 254.475,-133.5 305.5,-133.5 305.5,-115.5 254.475,-115.5"/>
<text text-anchor="middle" x="279.987" y="-121.5" font-family="Helvetica,sans-Serif" font-size="10.00">codec.h</text>
</a>
</g>
</g>
<!-- Node4&#45;&gt;Node5 -->
<g id="edge1" class="edge"><title>Node4&#45;&gt;Node5</title>
<path fill="none" stroke="midnightblue" d="M1013.25,-179.266C854.584,-167.632 416.396,-135.502 305.666,-127.383"/>
<polygon fill="midnightblue" stroke="midnightblue" points="1013.06,-182.762 1023.29,-180.002 1013.57,-175.78 1013.06,-182.762"/>
</g>
<!-- Node12 -->
<g id="node9" class="node"><title>Node12</title>
<g id="a_node9"><a xlink:href="framed__transport_8h.html" target="_top" xlink:title="framed_transport.h">
<polygon fill="white" stroke="black" points="742.744,-115.5 742.744,-133.5 843.231,-133.5 843.231,-115.5 742.744,-115.5"/>
<text text-anchor="middle" x="792.987" y="-121.5" font-family="Helvetica,sans-Serif" font-size="10.00">framed_transport.h</text>
</a>
</g>
</g>
<!-- Node4&#45;&gt;Node12 -->
<g id="edge9" class="edge"><title>Node4&#45;&gt;Node12</title>
<path fill="none" stroke="midnightblue" d="M1019.78,-173.463C975.348,-164.666 909.335,-151.386 851.987,-139 844.079,-137.292 835.59,-135.39 827.585,-133.565"/>
<polygon fill="midnightblue" stroke="midnightblue" points="1019.27,-176.929 1029.75,-175.434 1020.62,-170.062 1019.27,-176.929"/>
</g>
<!-- Node20 -->
<g id="node17" class="node"><title>Node20</title>
<g id="a_node17"><a xlink:href="erpc__setup_8h_source.html" target="_top" xlink:title="erpc_setup.h">
<polygon fill="white" stroke="black" points="861.079,-115.5 861.079,-133.5 934.896,-133.5 934.896,-115.5 861.079,-115.5"/>
<text text-anchor="middle" x="897.987" y="-121.5" font-family="Helvetica,sans-Serif" font-size="10.00">erpc_setup.h</text>
</a>
</g>
</g>
<!-- Node4&#45;&gt;Node20 -->
<g id="edge17" class="edge"><title>Node4&#45;&gt;Node20</title>
<path fill="none" stroke="midnightblue" d="M1037.02,-172.113C1003.16,-160.762 952.021,-143.615 922.116,-133.589"/>
<polygon fill="midnightblue" stroke="midnightblue" points="1036.34,-175.575 1046.93,-175.435 1038.56,-168.938 1036.34,-175.575"/>
</g>
<!-- Node21 -->
<g id="node18" class="node"><title>Node21</title>
<g id="a_node18"><a xlink:href="inter__thread__buffer__transport_8h.html" target="_top" xlink:title="inter_thread_buffer\l_transport.h">
<polygon fill="white" stroke="black" points="952.824,-110.5 952.824,-138.5 1053.15,-138.5 1053.15,-110.5 952.824,-110.5"/>
<text text-anchor="start" x="960.824" y="-126.5" font-family="Helvetica,sans-Serif" font-size="10.00">inter_thread_buffer</text>
<text text-anchor="middle" x="1002.99" y="-116.5" font-family="Helvetica,sans-Serif" font-size="10.00">_transport.h</text>
</a>
</g>
</g>
<!-- Node4&#45;&gt;Node21 -->
<g id="edge18" class="edge"><title>Node4&#45;&gt;Node21</title>
<path fill="none" stroke="midnightblue" d="M1053.9,-168.926C1042.98,-159.613 1028.94,-147.636 1018.37,-138.62"/>
<polygon fill="midnightblue" stroke="midnightblue" points="1051.65,-171.609 1061.53,-175.435 1056.2,-166.283 1051.65,-171.609"/>
</g>
<!-- Node22 -->
<g id="node19" class="node"><title>Node22</title>
<g id="a_node19"><a xlink:href="rpmsg__lite__rtos__transport_8h.html" target="_top" xlink:title="rpmsg_lite_rtos_transport.h">
<polygon fill="white" stroke="black" points="1071.13,-115.5 1071.13,-133.5 1208.85,-133.5 1208.85,-115.5 1071.13,-115.5"/>
<text text-anchor="middle" x="1139.99" y="-121.5" font-family="Helvetica,sans-Serif" font-size="10.00">rpmsg_lite_rtos_transport.h</text>
</a>
</g>
</g>
<!-- Node4&#45;&gt;Node22 -->
<g id="edge19" class="edge"><title>Node4&#45;&gt;Node22</title>
<path fill="none" stroke="midnightblue" d="M1088.47,-168.8C1101.63,-157.744 1119.18,-142.988 1130.03,-133.872"/>
<polygon fill="midnightblue" stroke="midnightblue" points="1085.98,-166.322 1080.58,-175.435 1090.49,-171.68 1085.98,-166.322"/>
</g>
<!-- Node23 -->
<g id="node20" class="node"><title>Node23</title>
<g id="a_node20"><a xlink:href="rpmsg__lite__transport_8h.html" target="_top" xlink:title="rpmsg_lite_transport.h">
<polygon fill="white" stroke="black" points="1227.24,-115.5 1227.24,-133.5 1342.73,-133.5 1342.73,-115.5 1227.24,-115.5"/>
<text text-anchor="middle" x="1284.99" y="-121.5" font-family="Helvetica,sans-Serif" font-size="10.00">rpmsg_lite_transport.h</text>
</a>
</g>
</g>
<!-- Node4&#45;&gt;Node23 -->
<g id="edge20" class="edge"><title>Node4&#45;&gt;Node23</title>
<path fill="none" stroke="midnightblue" d="M1110.59,-172.767C1152.42,-161.43 1217.43,-143.81 1255.14,-133.589"/>
<polygon fill="midnightblue" stroke="midnightblue" points="1109.48,-169.441 1100.74,-175.435 1111.31,-176.197 1109.48,-169.441"/>
</g>
<!-- Node24 -->
<g id="node21" class="node"><title>Node24</title>
<g id="a_node21"><a xlink:href="rpmsg__rtos__transport_8h.html" target="_top" xlink:title="rpmsg_rtos_transport.h">
<polygon fill="white" stroke="black" points="1360.3,-115.5 1360.3,-133.5 1479.68,-133.5 1479.68,-115.5 1360.3,-115.5"/>
<text text-anchor="middle" x="1419.99" y="-121.5" font-family="Helvetica,sans-Serif" font-size="10.00">rpmsg_rtos_transport.h</text>
</a>
</g>
</g>
<!-- Node4&#45;&gt;Node24 -->
<g id="edge21" class="edge"><title>Node4&#45;&gt;Node24</title>
<path fill="none" stroke="midnightblue" d="M1129.05,-174.979C1185.95,-166.47 1275.08,-152.718 1351.99,-139 1361.35,-137.33 1371.41,-135.405 1380.84,-133.542"/>
<polygon fill="midnightblue" stroke="midnightblue" points="1128.19,-171.569 1118.81,-176.506 1129.22,-178.493 1128.19,-171.569"/>
</g>
<!-- Node25 -->
<g id="node22" class="node"><title>Node25</title>
<g id="a_node22"><a xlink:href="rpmsg__transport_8h.html" target="_top" xlink:title="rpmsg_transport.h">
<polygon fill="white" stroke="black" points="1497.41,-115.5 1497.41,-133.5 1594.56,-133.5 1594.56,-115.5 1497.41,-115.5"/>
<text text-anchor="middle" x="1545.99" y="-121.5" font-family="Helvetica,sans-Serif" font-size="10.00">rpmsg_transport.h</text>
</a>
</g>
</g>
<!-- Node4&#45;&gt;Node25 -->
<g id="edge22" class="edge"><title>Node4&#45;&gt;Node25</title>
<path fill="none" stroke="midnightblue" d="M1128.9,-179.662C1209.88,-173.767 1361.36,-160.817 1488.99,-139 1497.61,-137.526 1506.87,-135.519 1515.37,-133.503"/>
<polygon fill="midnightblue" stroke="midnightblue" points="1128.62,-176.172 1118.9,-180.38 1129.13,-183.154 1128.62,-176.172"/>
</g>
<!-- Node6 -->
<g id="node3" class="node"><title>Node6</title>
<g id="a_node3"><a xlink:href="client__manager_8h.html" target="_top" xlink:title="client_manager.h">
<polygon fill="white" stroke="black" points="91.9038,-55.5 91.9038,-73.5 184.071,-73.5 184.071,-55.5 91.9038,-55.5"/>
<text text-anchor="middle" x="137.987" y="-61.5" font-family="Helvetica,sans-Serif" font-size="10.00">client_manager.h</text>
</a>
</g>
</g>
<!-- Node5&#45;&gt;Node6 -->
<g id="edge2" class="edge"><title>Node5&#45;&gt;Node6</title>
<path fill="none" stroke="midnightblue" d="M250.687,-111.532C222.991,-100.22 182.182,-83.5515 158.022,-73.6831"/>
<polygon fill="midnightblue" stroke="midnightblue" points="249.662,-114.894 260.243,-115.435 252.309,-108.414 249.662,-114.894"/>
</g>
<!-- Node8 -->
<g id="node5" class="node"><title>Node8</title>
<g id="a_node5"><a xlink:href="transport__arbitrator_8h.html" target="_top" xlink:title="transport_arbitrator.h">
<polygon fill="white" stroke="black" points="157.571,-0.5 157.571,-18.5 266.403,-18.5 266.403,-0.5 157.571,-0.5"/>
<text text-anchor="middle" x="211.987" y="-6.5" font-family="Helvetica,sans-Serif" font-size="10.00">transport_arbitrator.h</text>
</a>
</g>
</g>
<!-- Node5&#45;&gt;Node8 -->
<g id="edge5" class="edge"><title>Node5&#45;&gt;Node8</title>
<path fill="none" stroke="midnightblue" d="M261.37,-108.697C251.103,-99.6528 238.875,-87.2932 230.987,-74 220.3,-55.9889 215.206,-31.4924 213.153,-18.8353"/>
<polygon fill="midnightblue" stroke="midnightblue" points="259.164,-111.416 269.063,-115.194 263.681,-106.067 259.164,-111.416"/>
</g>
<!-- Node9 -->
<g id="node6" class="node"><title>Node9</title>
<g id="a_node6"><a xlink:href="basic__codec_8h.html" target="_top" xlink:title="basic_codec.h">
<polygon fill="white" stroke="black" points="240.022,-55.5 240.022,-73.5 319.953,-73.5 319.953,-55.5 240.022,-55.5"/>
<text text-anchor="middle" x="279.987" y="-61.5" font-family="Helvetica,sans-Serif" font-size="10.00">basic_codec.h</text>
</a>
</g>
</g>
<!-- Node5&#45;&gt;Node9 -->
<g id="edge6" class="edge"><title>Node5&#45;&gt;Node9</title>
<path fill="none" stroke="midnightblue" d="M279.987,-105.214C279.987,-94.7141 279.987,-82.0332 279.987,-73.8718"/>
<polygon fill="midnightblue" stroke="midnightblue" points="276.487,-105.435 279.987,-115.435 283.487,-105.435 276.487,-105.435"/>
</g>
<!-- Node10 -->
<g id="node7" class="node"><title>Node10</title>
<g id="a_node7"><a xlink:href="server_8h.html" target="_top" xlink:title="server.h">
<polygon fill="white" stroke="black" points="338.199,-55.5 338.199,-73.5 389.775,-73.5 389.775,-55.5 338.199,-55.5"/>
<text text-anchor="middle" x="363.987" y="-61.5" font-family="Helvetica,sans-Serif" font-size="10.00">server.h</text>
</a>
</g>
</g>
<!-- Node5&#45;&gt;Node10 -->
<g id="edge7" class="edge"><title>Node5&#45;&gt;Node10</title>
<path fill="none" stroke="midnightblue" d="M299.968,-109.704C316.217,-98.4842 338.596,-83.0322 352.136,-73.6831"/>
<polygon fill="midnightblue" stroke="midnightblue" points="297.907,-106.873 291.667,-115.435 301.885,-112.634 297.907,-106.873"/>
</g>
<!-- Node7 -->
<g id="node4" class="node"><title>Node7</title>
<g id="a_node4"><a xlink:href="arbitrated__client__manager_8h.html" target="_top" xlink:title="arbitrated_client_manager.h">
<polygon fill="white" stroke="black" points="0,-0.5 0,-18.5 139.975,-18.5 139.975,-0.5 0,-0.5"/>
<text text-anchor="middle" x="69.9873" y="-6.5" font-family="Helvetica,sans-Serif" font-size="10.00">arbitrated_client_manager.h</text>
</a>
</g>
</g>
<!-- Node6&#45;&gt;Node7 -->
<g id="edge3" class="edge"><title>Node6&#45;&gt;Node7</title>
<path fill="none" stroke="midnightblue" d="M119.652,-49.2095C107.073,-39.4052 90.8331,-26.7474 80.4122,-18.6253"/>
<polygon fill="midnightblue" stroke="midnightblue" points="117.621,-52.0635 127.66,-55.4504 121.924,-46.5424 117.621,-52.0635"/>
</g>
<!-- Node6&#45;&gt;Node8 -->
<g id="edge4" class="edge"><title>Node6&#45;&gt;Node8</title>
<path fill="none" stroke="midnightblue" d="M157.546,-49.4916C171.289,-39.6491 189.193,-26.8255 200.643,-18.6253"/>
<polygon fill="midnightblue" stroke="midnightblue" points="155.318,-46.7822 149.226,-55.4504 159.394,-52.4731 155.318,-46.7822"/>
</g>
<!-- Node11 -->
<g id="node8" class="node"><title>Node11</title>
<g id="a_node8"><a xlink:href="simple__server_8h.html" target="_top" xlink:title="simple_server.h">
<polygon fill="white" stroke="black" points="320.97,-0.5 320.97,-18.5 407.004,-18.5 407.004,-0.5 320.97,-0.5"/>
<text text-anchor="middle" x="363.987" y="-6.5" font-family="Helvetica,sans-Serif" font-size="10.00">simple_server.h</text>
</a>
</g>
</g>
<!-- Node10&#45;&gt;Node11 -->
<g id="edge8" class="edge"><title>Node10&#45;&gt;Node11</title>
<path fill="none" stroke="midnightblue" d="M363.987,-45.1746C363.987,-36.0945 363.987,-25.5949 363.987,-18.5496"/>
<polygon fill="midnightblue" stroke="midnightblue" points="360.487,-45.2187 363.987,-55.2188 367.487,-45.2188 360.487,-45.2187"/>
</g>
<!-- Node13 -->
<g id="node10" class="node"><title>Node13</title>
<g id="a_node10"><a xlink:href="dspi__master__transport_8h.html" target="_top" xlink:title="dspi_master_transport.h">
<polygon fill="white" stroke="black" points="408.071,-55.5 408.071,-73.5 531.903,-73.5 531.903,-55.5 408.071,-55.5"/>
<text text-anchor="middle" x="469.987" y="-61.5" font-family="Helvetica,sans-Serif" font-size="10.00">dspi_master_transport.h</text>
</a>
</g>
</g>
<!-- Node12&#45;&gt;Node13 -->
<g id="edge10" class="edge"><title>Node12&#45;&gt;Node13</title>
<path fill="none" stroke="midnightblue" d="M738.274,-113.675C675.282,-102.364 573.012,-83.9998 514.621,-73.5147"/>
<polygon fill="midnightblue" stroke="midnightblue" points="737.953,-117.174 748.415,-115.496 739.191,-110.284 737.953,-117.174"/>
</g>
<!-- Node14 -->
<g id="node11" class="node"><title>Node14</title>
<g id="a_node11"><a xlink:href="dspi__slave__transport_8h.html" target="_top" xlink:title="dspi_slave_transport.h">
<polygon fill="white" stroke="black" points="549.68,-55.5 549.68,-73.5 666.295,-73.5 666.295,-55.5 549.68,-55.5"/>
<text text-anchor="middle" x="607.987" y="-61.5" font-family="Helvetica,sans-Serif" font-size="10.00">dspi_slave_transport.h</text>
</a>
</g>
</g>
<!-- Node12&#45;&gt;Node14 -->
<g id="edge11" class="edge"><title>Node12&#45;&gt;Node14</title>
<path fill="none" stroke="midnightblue" d="M757.599,-112.405C721.404,-101.058 666.044,-83.7016 633.79,-73.5894"/>
<polygon fill="midnightblue" stroke="midnightblue" points="756.675,-115.783 767.264,-115.435 758.769,-109.104 756.675,-115.783"/>
</g>
<!-- Node15 -->
<g id="node12" class="node"><title>Node15</title>
<g id="a_node12"><a xlink:href="serial__transport_8h.html" target="_top" xlink:title="serial_transport.h">
<polygon fill="white" stroke="black" points="684.357,-55.5 684.357,-73.5 777.618,-73.5 777.618,-55.5 684.357,-55.5"/>
<text text-anchor="middle" x="730.987" y="-61.5" font-family="Helvetica,sans-Serif" font-size="10.00">serial_transport.h</text>
</a>
</g>
</g>
<!-- Node12&#45;&gt;Node15 -->
<g id="edge12" class="edge"><title>Node12&#45;&gt;Node15</title>
<path fill="none" stroke="midnightblue" d="M776.935,-108.483C765.155,-97.4633 749.589,-82.9015 739.936,-73.8718"/>
<polygon fill="midnightblue" stroke="midnightblue" points="774.673,-111.16 784.366,-115.435 779.455,-106.048 774.673,-111.16"/>
</g>
<!-- Node16 -->
<g id="node13" class="node"><title>Node16</title>
<g id="a_node13"><a xlink:href="spi__master__transport_8h.html" target="_top" xlink:title="spi_master_transport.h">
<polygon fill="white" stroke="black" points="795.852,-55.5 795.852,-73.5 914.123,-73.5 914.123,-55.5 795.852,-55.5"/>
<text text-anchor="middle" x="854.987" y="-61.5" font-family="Helvetica,sans-Serif" font-size="10.00">spi_master_transport.h</text>
</a>
</g>
</g>
<!-- Node12&#45;&gt;Node16 -->
<g id="edge13" class="edge"><title>Node12&#45;&gt;Node16</title>
<path fill="none" stroke="midnightblue" d="M809.04,-108.483C820.82,-97.4633 836.386,-82.9015 846.038,-73.8718"/>
<polygon fill="midnightblue" stroke="midnightblue" points="806.52,-106.048 801.608,-115.435 811.302,-111.16 806.52,-106.048"/>
</g>
<!-- Node17 -->
<g id="node14" class="node"><title>Node17</title>
<g id="a_node14"><a xlink:href="spi__slave__transport_8h.html" target="_top" xlink:title="spi_slave_transport.h">
<polygon fill="white" stroke="black" points="932.46,-55.5 932.46,-73.5 1043.51,-73.5 1043.51,-55.5 932.46,-55.5"/>
<text text-anchor="middle" x="987.987" y="-61.5" font-family="Helvetica,sans-Serif" font-size="10.00">spi_slave_transport.h</text>
</a>
</g>
</g>
<!-- Node12&#45;&gt;Node17 -->
<g id="edge14" class="edge"><title>Node12&#45;&gt;Node17</title>
<path fill="none" stroke="midnightblue" d="M829.801,-112.55C867.94,-101.206 926.647,-83.7448 960.79,-73.5894"/>
<polygon fill="midnightblue" stroke="midnightblue" points="828.688,-109.23 820.101,-115.435 830.684,-115.939 828.688,-109.23"/>
</g>
<!-- Node18 -->
<g id="node15" class="node"><title>Node18</title>
<g id="a_node15"><a xlink:href="tcp__transport_8h.html" target="_top" xlink:title="tcp_transport.h">
<polygon fill="white" stroke="black" points="1061.64,-55.5 1061.64,-73.5 1144.34,-73.5 1144.34,-55.5 1061.64,-55.5"/>
<text text-anchor="middle" x="1102.99" y="-61.5" font-family="Helvetica,sans-Serif" font-size="10.00">tcp_transport.h</text>
</a>
</g>
</g>
<!-- Node12&#45;&gt;Node18 -->
<g id="edge15" class="edge"><title>Node12&#45;&gt;Node18</title>
<path fill="none" stroke="midnightblue" d="M836.708,-113.242C841.85,-112.111 847.03,-111.006 851.987,-110 891.347,-102.013 1001.06,-82.983 1061.59,-72.5833"/>
<polygon fill="midnightblue" stroke="midnightblue" points="835.926,-109.831 826.932,-115.431 837.455,-116.662 835.926,-109.831"/>
</g>
<!-- Node19 -->
<g id="node16" class="node"><title>Node19</title>
<g id="a_node16"><a xlink:href="uart__cmsis__transport_8h.html" target="_top" xlink:title="uart_cmsis_transport.h">
<polygon fill="white" stroke="black" points="1162.13,-55.5 1162.13,-73.5 1279.84,-73.5 1279.84,-55.5 1162.13,-55.5"/>
<text text-anchor="middle" x="1220.99" y="-61.5" font-family="Helvetica,sans-Serif" font-size="10.00">uart_cmsis_transport.h</text>
</a>
</g>
</g>
<!-- Node12&#45;&gt;Node19 -->
<g id="edge16" class="edge"><title>Node12&#45;&gt;Node19</title>
<path fill="none" stroke="midnightblue" d="M835.257,-113.26C840.865,-112.069 846.552,-110.944 851.987,-110 984.731,-86.9418 1019.25,-90.3557 1152.99,-74 1155.94,-73.6389 1158.96,-73.2673 1162.02,-72.8907"/>
<polygon fill="midnightblue" stroke="midnightblue" points="834.333,-109.88 825.322,-115.452 835.841,-116.715 834.333,-109.88"/>
</g>
</g>
</svg>
