<?xml version="1.0" encoding="UTF-8" standalone="no"?>
<!DOCTYPE svg PUBLIC "-//W3C//DTD SVG 1.1//EN"
 "http://www.w3.org/Graphics/SVG/1.1/DTD/svg11.dtd">
<!-- Generated by graphviz version 2.38.0 (20140413.2041)
 -->
<!-- Title: message_buffer.h Pages: 1 -->
<svg width="200pt" height="137pt"
 viewBox="0.00 0.00 199.97 137.00" xmlns="http://www.w3.org/2000/svg" xmlns:xlink="http://www.w3.org/1999/xlink">
<g id="graph0" class="graph" transform="scale(1 1) rotate(0) translate(4 133)">
<title>message_buffer.h</title>
<polygon fill="white" stroke="none" points="-4,4 -4,-133 195.97,-133 195.97,4 -4,4"/>
<!-- Node0 -->
<g id="node1" class="node"><title>Node0</title>
<polygon fill="#bfbfbf" stroke="black" points="68.1865,-110.5 68.1865,-128.5 163.513,-128.5 163.513,-110.5 68.1865,-110.5"/>
<text text-anchor="middle" x="115.85" y="-116.5" font-family="Helvetica,sans-Serif" font-size="10.00">message_buffer.h</text>
</g>
<!-- Node1 -->
<g id="node2" class="node"><title>Node1</title>
<g id="a_node2"><a xlink:href="erpc__common_8h_source.html" target="_top" xlink:title="erpc_common.h">
<polygon fill="white" stroke="black" points="0,-55.5 0,-73.5 87.6992,-73.5 87.6992,-55.5 0,-55.5"/>
<text text-anchor="middle" x="43.8496" y="-61.5" font-family="Helvetica,sans-Serif" font-size="10.00">erpc_common.h</text>
</a>
</g>
</g>
<!-- Node0&#45;&gt;Node1 -->
<g id="edge1" class="edge"><title>Node0&#45;&gt;Node1</title>
<path fill="none" stroke="midnightblue" d="M104.914,-110.45C93.8133,-102.279 76.3996,-89.4604 63.0038,-79.5996"/>
<polygon fill="midnightblue" stroke="midnightblue" points="65.016,-76.7348 54.8878,-73.6253 60.8663,-82.3722 65.016,-76.7348"/>
</g>
<!-- Node2 -->
<g id="node3" class="node"><title>Node2</title>
<polygon fill="white" stroke="#bfbfbf" points="55.729,-0.5 55.729,-18.5 103.97,-18.5 103.97,-0.5 55.729,-0.5"/>
<text text-anchor="middle" x="79.8496" y="-6.5" font-family="Helvetica,sans-Serif" font-size="10.00">stdint.h</text>
</g>
<!-- Node0&#45;&gt;Node2 -->
<g id="edge4" class="edge"><title>Node0&#45;&gt;Node2</title>
<path fill="none" stroke="midnightblue" d="M113.584,-110.218C110.203,-98.0368 103.519,-74.6099 96.8496,-55 93.8131,-46.0716 90.1087,-36.2679 86.9339,-28.1401"/>
<polygon fill="midnightblue" stroke="midnightblue" points="90.1051,-26.642 83.1662,-18.6356 83.5977,-29.2216 90.1051,-26.642"/>
</g>
<!-- Node3 -->
<g id="node4" class="node"><title>Node3</title>
<polygon fill="white" stroke="#bfbfbf" points="143.729,-55.5 143.729,-73.5 191.97,-73.5 191.97,-55.5 143.729,-55.5"/>
<text text-anchor="middle" x="167.85" y="-61.5" font-family="Helvetica,sans-Serif" font-size="10.00">cstddef</text>
</g>
<!-- Node0&#45;&gt;Node3 -->
<g id="edge3" class="edge"><title>Node0&#45;&gt;Node3</title>
<path fill="none" stroke="midnightblue" d="M123.975,-110.219C131.651,-102.394 143.358,-90.4631 152.748,-80.8921"/>
<polygon fill="midnightblue" stroke="midnightblue" points="155.447,-83.1389 159.952,-73.5496 150.45,-78.2365 155.447,-83.1389"/>
</g>
<!-- Node1&#45;&gt;Node2 -->
<g id="edge2" class="edge"><title>Node1&#45;&gt;Node2</title>
<path fill="none" stroke="midnightblue" d="M49.4746,-55.2188C54.5767,-47.7074 62.2497,-36.411 68.6071,-27.0515"/>
<polygon fill="midnightblue" stroke="midnightblue" points="71.6584,-28.7883 74.382,-18.5496 65.8678,-24.8551 71.6584,-28.7883"/>
</g>
</g>
</svg>
