<?xml version="1.0" encoding="UTF-8" standalone="no"?>
<!DOCTYPE svg PUBLIC "-//W3C//DTD SVG 1.1//EN"
 "http://www.w3.org/Graphics/SVG/1.1/DTD/svg11.dtd">
<!-- Generated by graphviz version 2.38.0 (20140413.2041)
 -->
<!-- Title: rpmsg_rtos_transport.h Pages: 1 -->
<svg width="382pt" height="192pt"
 viewBox="0.00 0.00 382.07 192.00" xmlns="http://www.w3.org/2000/svg" xmlns:xlink="http://www.w3.org/1999/xlink">
<g id="graph0" class="graph" transform="scale(1 1) rotate(0) translate(4 188)">
<title>rpmsg_rtos_transport.h</title>
<polygon fill="white" stroke="none" points="-4,4 -4,-188 378.067,-188 378.067,4 -4,4"/>
<!-- Node0 -->
<g id="node1" class="node"><title>Node0</title>
<polygon fill="#bfbfbf" stroke="black" points="158.201,-165.5 158.201,-183.5 277.579,-183.5 277.579,-165.5 158.201,-165.5"/>
<text text-anchor="middle" x="217.89" y="-171.5" font-family="Helvetica,sans-Serif" font-size="10.00">rpmsg_rtos_transport.h</text>
</g>
<!-- Node1 -->
<g id="node2" class="node"><title>Node1</title>
<g id="a_node2"><a xlink:href="message__buffer_8h.html" target="_top" xlink:title="message_buffer.h">
<polygon fill="white" stroke="black" points="4.2269,-110.5 4.2269,-128.5 99.5531,-128.5 99.5531,-110.5 4.2269,-110.5"/>
<text text-anchor="middle" x="51.89" y="-116.5" font-family="Helvetica,sans-Serif" font-size="10.00">message_buffer.h</text>
</a>
</g>
</g>
<!-- Node0&#45;&gt;Node1 -->
<g id="edge1" class="edge"><title>Node0&#45;&gt;Node1</title>
<path fill="none" stroke="midnightblue" d="M192.678,-165.45C164.443,-156.436 118.494,-141.765 86.8115,-131.65"/>
<polygon fill="midnightblue" stroke="midnightblue" points="87.6574,-128.246 77.0666,-128.538 85.5283,-134.914 87.6574,-128.246"/>
</g>
<!-- Node5 -->
<g id="node6" class="node"><title>Node5</title>
<g id="a_node6"><a xlink:href="transport_8h.html" target="_top" xlink:title="transport.h">
<polygon fill="white" stroke="black" points="147.989,-110.5 147.989,-128.5 211.791,-128.5 211.791,-110.5 147.989,-110.5"/>
<text text-anchor="middle" x="179.89" y="-116.5" font-family="Helvetica,sans-Serif" font-size="10.00">transport.h</text>
</a>
</g>
</g>
<!-- Node0&#45;&gt;Node5 -->
<g id="edge6" class="edge"><title>Node0&#45;&gt;Node5</title>
<path fill="none" stroke="midnightblue" d="M211.952,-165.219C206.511,-157.629 198.299,-146.175 191.548,-136.76"/>
<polygon fill="midnightblue" stroke="midnightblue" points="194.333,-134.637 185.661,-128.55 188.644,-138.716 194.333,-134.637"/>
</g>
<!-- Node7 -->
<g id="node8" class="node"><title>Node7</title>
<polygon fill="white" stroke="#bfbfbf" points="229.828,-110.5 229.828,-128.5 281.952,-128.5 281.952,-110.5 229.828,-110.5"/>
<text text-anchor="middle" x="255.89" y="-116.5" font-family="Helvetica,sans-Serif" font-size="10.00">rpmsg.h</text>
</g>
<!-- Node0&#45;&gt;Node7 -->
<g id="edge10" class="edge"><title>Node0&#45;&gt;Node7</title>
<path fill="none" stroke="midnightblue" d="M223.827,-165.219C229.269,-157.629 237.481,-146.175 244.232,-136.76"/>
<polygon fill="midnightblue" stroke="midnightblue" points="247.136,-138.716 250.119,-128.55 241.447,-134.637 247.136,-138.716"/>
</g>
<!-- Node8 -->
<g id="node9" class="node"><title>Node8</title>
<polygon fill="white" stroke="#bfbfbf" points="299.713,-110.5 299.713,-128.5 374.067,-128.5 374.067,-110.5 299.713,-110.5"/>
<text text-anchor="middle" x="336.89" y="-116.5" font-family="Helvetica,sans-Serif" font-size="10.00">rpmsg_rtos.h</text>
</g>
<!-- Node0&#45;&gt;Node8 -->
<g id="edge11" class="edge"><title>Node0&#45;&gt;Node8</title>
<path fill="none" stroke="midnightblue" d="M235.964,-165.45C255.447,-156.773 286.695,-142.856 309.264,-132.804"/>
<polygon fill="midnightblue" stroke="midnightblue" points="310.935,-135.891 318.646,-128.625 308.087,-129.497 310.935,-135.891"/>
</g>
<!-- Node2 -->
<g id="node3" class="node"><title>Node2</title>
<g id="a_node3"><a xlink:href="erpc__common_8h_source.html" target="_top" xlink:title="erpc_common.h">
<polygon fill="white" stroke="black" points="79.0404,-55.5 79.0404,-73.5 166.74,-73.5 166.74,-55.5 79.0404,-55.5"/>
<text text-anchor="middle" x="122.89" y="-61.5" font-family="Helvetica,sans-Serif" font-size="10.00">erpc_common.h</text>
</a>
</g>
</g>
<!-- Node1&#45;&gt;Node2 -->
<g id="edge2" class="edge"><title>Node1&#45;&gt;Node2</title>
<path fill="none" stroke="midnightblue" d="M62.6734,-110.45C73.516,-102.357 90.4656,-89.7042 103.623,-79.8822"/>
<polygon fill="midnightblue" stroke="midnightblue" points="106.085,-82.412 112.005,-73.6253 101.898,-76.8025 106.085,-82.412"/>
</g>
<!-- Node3 -->
<g id="node4" class="node"><title>Node3</title>
<polygon fill="white" stroke="#bfbfbf" points="98.7694,-0.5 98.7694,-18.5 147.011,-18.5 147.011,-0.5 98.7694,-0.5"/>
<text text-anchor="middle" x="122.89" y="-6.5" font-family="Helvetica,sans-Serif" font-size="10.00">stdint.h</text>
</g>
<!-- Node1&#45;&gt;Node3 -->
<g id="edge5" class="edge"><title>Node1&#45;&gt;Node3</title>
<path fill="none" stroke="midnightblue" d="M37.9616,-110.437C19.2022,-98.5291 -10.2882,-75.439 3.88999,-55 22.7297,-27.8411 60.2896,-17.2299 88.1975,-13.0996"/>
<polygon fill="midnightblue" stroke="midnightblue" points="88.8804,-16.5412 98.3617,-11.813 88.0013,-9.59659 88.8804,-16.5412"/>
</g>
<!-- Node4 -->
<g id="node5" class="node"><title>Node4</title>
<polygon fill="white" stroke="#bfbfbf" points="12.7694,-55.5 12.7694,-73.5 61.0106,-73.5 61.0106,-55.5 12.7694,-55.5"/>
<text text-anchor="middle" x="36.89" y="-61.5" font-family="Helvetica,sans-Serif" font-size="10.00">cstddef</text>
</g>
<!-- Node1&#45;&gt;Node4 -->
<g id="edge4" class="edge"><title>Node1&#45;&gt;Node4</title>
<path fill="none" stroke="midnightblue" d="M49.5462,-110.219C47.509,-103.02 44.4879,-92.3458 41.9082,-83.2311"/>
<polygon fill="midnightblue" stroke="midnightblue" points="45.2592,-82.2185 39.1682,-73.5496 38.5237,-84.1248 45.2592,-82.2185"/>
</g>
<!-- Node2&#45;&gt;Node3 -->
<g id="edge3" class="edge"><title>Node2&#45;&gt;Node3</title>
<path fill="none" stroke="midnightblue" d="M122.89,-55.2188C122.89,-48.1769 122.89,-37.8083 122.89,-28.8277"/>
<polygon fill="midnightblue" stroke="midnightblue" points="126.39,-28.5495 122.89,-18.5496 119.39,-28.5496 126.39,-28.5495"/>
</g>
<!-- Node5&#45;&gt;Node2 -->
<g id="edge7" class="edge"><title>Node5&#45;&gt;Node2</title>
<path fill="none" stroke="midnightblue" d="M170.984,-110.219C162.485,-102.316 149.48,-90.2241 139.136,-80.6057"/>
<polygon fill="midnightblue" stroke="midnightblue" points="141.254,-77.7958 131.547,-73.5496 136.487,-82.9222 141.254,-77.7958"/>
</g>
<!-- Node5&#45;&gt;Node3 -->
<g id="edge9" class="edge"><title>Node5&#45;&gt;Node3</title>
<path fill="none" stroke="midnightblue" d="M181.352,-110.148C183.151,-97.4697 184.952,-72.9456 175.89,-55 169.437,-42.2216 157.51,-31.6984 146.602,-24.0992"/>
<polygon fill="midnightblue" stroke="midnightblue" points="148.491,-21.1524 138.197,-18.6444 144.68,-27.0242 148.491,-21.1524"/>
</g>
<!-- Node6 -->
<g id="node7" class="node"><title>Node6</title>
<polygon fill="white" stroke="#bfbfbf" points="223.163,-55.5 223.163,-73.5 268.617,-73.5 268.617,-55.5 223.163,-55.5"/>
<text text-anchor="middle" x="245.89" y="-61.5" font-family="Helvetica,sans-Serif" font-size="10.00">cstring</text>
</g>
<!-- Node5&#45;&gt;Node6 -->
<g id="edge8" class="edge"><title>Node5&#45;&gt;Node6</title>
<path fill="none" stroke="midnightblue" d="M189.914,-110.45C199.896,-102.434 215.446,-89.9471 227.626,-80.1663"/>
<polygon fill="midnightblue" stroke="midnightblue" points="230.166,-82.6157 235.772,-73.6253 225.783,-77.1577 230.166,-82.6157"/>
</g>
</g>
</svg>
