<?xml version="1.0" encoding="UTF-8" standalone="no"?>
<!DOCTYPE svg PUBLIC "-//W3C//DTD SVG 1.1//EN"
 "http://www.w3.org/Graphics/SVG/1.1/DTD/svg11.dtd">
<!-- Generated by graphviz version 2.38.0 (20140413.2041)
 -->
<!-- Title: rpmsg_transport.h Pages: 1 -->
<svg width="390pt" height="192pt"
 viewBox="0.00 0.00 390.18 192.00" xmlns="http://www.w3.org/2000/svg" xmlns:xlink="http://www.w3.org/1999/xlink">
<g id="graph0" class="graph" transform="scale(1 1) rotate(0) translate(4 188)">
<title>rpmsg_transport.h</title>
<polygon fill="white" stroke="none" points="-4,4 -4,-188 386.182,-188 386.182,4 -4,4"/>
<!-- Node0 -->
<g id="node1" class="node"><title>Node0</title>
<polygon fill="#bfbfbf" stroke="black" points="177.547,-165.5 177.547,-183.5 274.694,-183.5 274.694,-165.5 177.547,-165.5"/>
<text text-anchor="middle" x="226.121" y="-171.5" font-family="Helvetica,sans-Serif" font-size="10.00">rpmsg_transport.h</text>
</g>
<!-- Node1 -->
<g id="node2" class="node"><title>Node1</title>
<g id="a_node2"><a xlink:href="message__buffer_8h.html" target="_top" xlink:title="message_buffer.h">
<polygon fill="white" stroke="black" points="31.4575,-110.5 31.4575,-128.5 126.784,-128.5 126.784,-110.5 31.4575,-110.5"/>
<text text-anchor="middle" x="79.1206" y="-116.5" font-family="Helvetica,sans-Serif" font-size="10.00">message_buffer.h</text>
</a>
</g>
</g>
<!-- Node0&#45;&gt;Node1 -->
<g id="edge1" class="edge"><title>Node0&#45;&gt;Node1</title>
<path fill="none" stroke="midnightblue" d="M203.794,-165.45C179.187,-156.578 139.387,-142.229 111.388,-132.134"/>
<polygon fill="midnightblue" stroke="midnightblue" points="112.251,-128.725 101.657,-128.625 109.877,-135.31 112.251,-128.725"/>
</g>
<!-- Node5 -->
<g id="node6" class="node"><title>Node5</title>
<g id="a_node6"><a xlink:href="static__queue_8h.html" target="_top" xlink:title="static_queue.h">
<polygon fill="white" stroke="black" points="230.596,-110.5 230.596,-128.5 311.645,-128.5 311.645,-110.5 230.596,-110.5"/>
<text text-anchor="middle" x="271.121" y="-116.5" font-family="Helvetica,sans-Serif" font-size="10.00">static_queue.h</text>
</a>
</g>
</g>
<!-- Node0&#45;&gt;Node5 -->
<g id="edge6" class="edge"><title>Node0&#45;&gt;Node5</title>
<path fill="none" stroke="midnightblue" d="M233.152,-165.219C239.729,-157.473 249.723,-145.701 257.807,-136.18"/>
<polygon fill="midnightblue" stroke="midnightblue" points="260.482,-138.438 264.286,-128.55 255.146,-133.907 260.482,-138.438"/>
</g>
<!-- Node7 -->
<g id="node8" class="node"><title>Node7</title>
<g id="a_node8"><a xlink:href="transport_8h.html" target="_top" xlink:title="transport.h">
<polygon fill="white" stroke="black" points="149.219,-110.5 149.219,-128.5 213.022,-128.5 213.022,-110.5 149.219,-110.5"/>
<text text-anchor="middle" x="181.121" y="-116.5" font-family="Helvetica,sans-Serif" font-size="10.00">transport.h</text>
</a>
</g>
</g>
<!-- Node0&#45;&gt;Node7 -->
<g id="edge8" class="edge"><title>Node0&#45;&gt;Node7</title>
<path fill="none" stroke="midnightblue" d="M219.089,-165.219C212.512,-157.473 202.518,-145.701 194.434,-136.18"/>
<polygon fill="midnightblue" stroke="midnightblue" points="197.096,-133.907 187.955,-128.55 191.759,-138.438 197.096,-133.907"/>
</g>
<!-- Node8 -->
<g id="node9" class="node"><title>Node8</title>
<polygon fill="white" stroke="#bfbfbf" points="330.059,-110.5 330.059,-128.5 382.182,-128.5 382.182,-110.5 330.059,-110.5"/>
<text text-anchor="middle" x="356.121" y="-116.5" font-family="Helvetica,sans-Serif" font-size="10.00">rpmsg.h</text>
</g>
<!-- Node0&#45;&gt;Node8 -->
<g id="edge12" class="edge"><title>Node0&#45;&gt;Node8</title>
<path fill="none" stroke="midnightblue" d="M245.865,-165.45C267.436,-156.656 302.207,-142.48 326.93,-132.401"/>
<polygon fill="midnightblue" stroke="midnightblue" points="328.252,-135.642 336.191,-128.625 325.609,-129.16 328.252,-135.642"/>
</g>
<!-- Node2 -->
<g id="node3" class="node"><title>Node2</title>
<g id="a_node3"><a xlink:href="erpc__common_8h_source.html" target="_top" xlink:title="erpc_common.h">
<polygon fill="white" stroke="black" points="104.271,-55.5 104.271,-73.5 191.97,-73.5 191.97,-55.5 104.271,-55.5"/>
<text text-anchor="middle" x="148.121" y="-61.5" font-family="Helvetica,sans-Serif" font-size="10.00">erpc_common.h</text>
</a>
</g>
</g>
<!-- Node1&#45;&gt;Node2 -->
<g id="edge2" class="edge"><title>Node1&#45;&gt;Node2</title>
<path fill="none" stroke="midnightblue" d="M89.6002,-110.45C100.137,-102.357 116.61,-89.7042 129.397,-79.8822"/>
<polygon fill="midnightblue" stroke="midnightblue" points="131.744,-82.4926 137.542,-73.6253 127.48,-76.9412 131.744,-82.4926"/>
</g>
<!-- Node3 -->
<g id="node4" class="node"><title>Node3</title>
<polygon fill="white" stroke="#bfbfbf" points="124,-0.5 124,-18.5 172.241,-18.5 172.241,-0.5 124,-0.5"/>
<text text-anchor="middle" x="148.121" y="-6.5" font-family="Helvetica,sans-Serif" font-size="10.00">stdint.h</text>
</g>
<!-- Node1&#45;&gt;Node3 -->
<g id="edge5" class="edge"><title>Node1&#45;&gt;Node3</title>
<path fill="none" stroke="midnightblue" d="M79.5704,-110.464C80.6087,-97.7762 84.0161,-72.728 95.1206,-55 102.794,-42.7497 114.961,-32.1851 125.703,-24.4276"/>
<polygon fill="midnightblue" stroke="midnightblue" points="127.968,-27.1194 134.262,-18.596 124.027,-21.3346 127.968,-27.1194"/>
</g>
<!-- Node4 -->
<g id="node5" class="node"><title>Node4</title>
<polygon fill="white" stroke="#bfbfbf" points="0,-55.5 0,-73.5 48.2412,-73.5 48.2412,-55.5 0,-55.5"/>
<text text-anchor="middle" x="24.1206" y="-61.5" font-family="Helvetica,sans-Serif" font-size="10.00">cstddef</text>
</g>
<!-- Node1&#45;&gt;Node4 -->
<g id="edge4" class="edge"><title>Node1&#45;&gt;Node4</title>
<path fill="none" stroke="midnightblue" d="M70.5269,-110.219C62.3261,-102.316 49.7776,-90.2241 39.7963,-80.6057"/>
<polygon fill="midnightblue" stroke="midnightblue" points="42.1034,-77.9682 32.4739,-73.5496 37.2461,-83.0088 42.1034,-77.9682"/>
</g>
<!-- Node2&#45;&gt;Node3 -->
<g id="edge3" class="edge"><title>Node2&#45;&gt;Node3</title>
<path fill="none" stroke="midnightblue" d="M148.121,-55.2188C148.121,-48.1769 148.121,-37.8083 148.121,-28.8277"/>
<polygon fill="midnightblue" stroke="midnightblue" points="151.621,-28.5495 148.121,-18.5496 144.621,-28.5496 151.621,-28.5495"/>
</g>
<!-- Node6 -->
<g id="node7" class="node"><title>Node6</title>
<polygon fill="white" stroke="#bfbfbf" points="248.394,-55.5 248.394,-73.5 293.847,-73.5 293.847,-55.5 248.394,-55.5"/>
<text text-anchor="middle" x="271.121" y="-61.5" font-family="Helvetica,sans-Serif" font-size="10.00">cstring</text>
</g>
<!-- Node5&#45;&gt;Node6 -->
<g id="edge7" class="edge"><title>Node5&#45;&gt;Node6</title>
<path fill="none" stroke="midnightblue" d="M271.121,-110.219C271.121,-103.177 271.121,-92.8083 271.121,-83.8277"/>
<polygon fill="midnightblue" stroke="midnightblue" points="274.621,-83.5495 271.121,-73.5496 267.621,-83.5496 274.621,-83.5495"/>
</g>
<!-- Node7&#45;&gt;Node2 -->
<g id="edge9" class="edge"><title>Node7&#45;&gt;Node2</title>
<path fill="none" stroke="midnightblue" d="M175.964,-110.219C171.287,-102.707 164.254,-91.411 158.426,-82.0515"/>
<polygon fill="midnightblue" stroke="midnightblue" points="161.389,-80.1886 153.133,-73.5496 155.447,-83.8885 161.389,-80.1886"/>
</g>
<!-- Node7&#45;&gt;Node3 -->
<g id="edge11" class="edge"><title>Node7&#45;&gt;Node3</title>
<path fill="none" stroke="midnightblue" d="M187.396,-110.429C196.15,-98.1177 210.008,-74.0664 201.121,-55 195.073,-42.025 183.174,-31.4882 172.18,-23.9306"/>
<polygon fill="midnightblue" stroke="midnightblue" points="174.001,-20.9408 163.687,-18.5187 170.239,-26.8442 174.001,-20.9408"/>
</g>
<!-- Node7&#45;&gt;Node6 -->
<g id="edge10" class="edge"><title>Node7&#45;&gt;Node6</title>
<path fill="none" stroke="midnightblue" d="M194.79,-110.45C209.062,-102.045 231.683,-88.7241 248.601,-78.7618"/>
<polygon fill="midnightblue" stroke="midnightblue" points="250.482,-81.7157 257.323,-73.6253 246.93,-75.6838 250.482,-81.7157"/>
</g>
</g>
</svg>
