<?xml version="1.0" encoding="UTF-8" standalone="no"?>
<!DOCTYPE svg PUBLIC "-//W3C//DTD SVG 1.1//EN"
 "http://www.w3.org/Graphics/SVG/1.1/DTD/svg11.dtd">
<!-- Generated by graphviz version 2.38.0 (20140413.2041)
 -->
<!-- Title: rpmsg_lite_rtos_transport.h Pages: 1 -->
<svg width="378pt" height="192pt"
 viewBox="0.00 0.00 377.56 192.00" xmlns="http://www.w3.org/2000/svg" xmlns:xlink="http://www.w3.org/1999/xlink">
<g id="graph0" class="graph" transform="scale(1 1) rotate(0) translate(4 188)">
<title>rpmsg_lite_rtos_transport.h</title>
<polygon fill="white" stroke="none" points="-4,4 -4,-188 373.564,-188 373.564,4 -4,4"/>
<!-- Node0 -->
<g id="node1" class="node"><title>Node0</title>
<polygon fill="#bfbfbf" stroke="black" points="127.801,-165.5 127.801,-183.5 265.525,-183.5 265.525,-165.5 127.801,-165.5"/>
<text text-anchor="middle" x="196.663" y="-171.5" font-family="Helvetica,sans-Serif" font-size="10.00">rpmsg_lite_rtos_transport.h</text>
</g>
<!-- Node1 -->
<g id="node2" class="node"><title>Node1</title>
<g id="a_node2"><a xlink:href="message__buffer_8h.html" target="_top" xlink:title="message_buffer.h">
<polygon fill="white" stroke="black" points="0,-110.5 0,-128.5 95.3262,-128.5 95.3262,-110.5 0,-110.5"/>
<text text-anchor="middle" x="47.6631" y="-116.5" font-family="Helvetica,sans-Serif" font-size="10.00">message_buffer.h</text>
</a>
</g>
</g>
<!-- Node0&#45;&gt;Node1 -->
<g id="edge1" class="edge"><title>Node0&#45;&gt;Node1</title>
<path fill="none" stroke="midnightblue" d="M174.033,-165.45C148.982,-156.539 108.396,-142.103 79.9971,-132.001"/>
<polygon fill="midnightblue" stroke="midnightblue" points="81.1006,-128.679 70.5059,-128.625 78.7547,-135.274 81.1006,-128.679"/>
</g>
<!-- Node5 -->
<g id="node6" class="node"><title>Node5</title>
<polygon fill="white" stroke="#bfbfbf" points="113.429,-110.5 113.429,-128.5 183.897,-128.5 183.897,-110.5 113.429,-110.5"/>
<text text-anchor="middle" x="148.663" y="-116.5" font-family="Helvetica,sans-Serif" font-size="10.00">rpmsg_lite.h</text>
</g>
<!-- Node0&#45;&gt;Node5 -->
<g id="edge6" class="edge"><title>Node0&#45;&gt;Node5</title>
<path fill="none" stroke="midnightblue" d="M189.163,-165.219C182.148,-157.473 171.487,-145.701 162.864,-136.18"/>
<polygon fill="midnightblue" stroke="midnightblue" points="165.26,-133.612 155.953,-128.55 160.072,-138.311 165.26,-133.612"/>
</g>
<!-- Node6 -->
<g id="node7" class="node"><title>Node6</title>
<polygon fill="white" stroke="#bfbfbf" points="201.917,-110.5 201.917,-128.5 287.409,-128.5 287.409,-110.5 201.917,-110.5"/>
<text text-anchor="middle" x="244.663" y="-116.5" font-family="Helvetica,sans-Serif" font-size="10.00">rpmsg_queue.h</text>
</g>
<!-- Node0&#45;&gt;Node6 -->
<g id="edge7" class="edge"><title>Node0&#45;&gt;Node6</title>
<path fill="none" stroke="midnightblue" d="M204.163,-165.219C211.178,-157.473 221.839,-145.701 230.462,-136.18"/>
<polygon fill="midnightblue" stroke="midnightblue" points="233.254,-138.311 237.373,-128.55 228.066,-133.612 233.254,-138.311"/>
</g>
<!-- Node7 -->
<g id="node8" class="node"><title>Node7</title>
<g id="a_node8"><a xlink:href="transport_8h.html" target="_top" xlink:title="transport.h">
<polygon fill="white" stroke="black" points="305.762,-110.5 305.762,-128.5 369.564,-128.5 369.564,-110.5 305.762,-110.5"/>
<text text-anchor="middle" x="337.663" y="-116.5" font-family="Helvetica,sans-Serif" font-size="10.00">transport.h</text>
</a>
</g>
</g>
<!-- Node0&#45;&gt;Node7 -->
<g id="edge8" class="edge"><title>Node0&#45;&gt;Node7</title>
<path fill="none" stroke="midnightblue" d="M218.078,-165.45C241.577,-156.617 279.522,-142.355 306.358,-132.267"/>
<polygon fill="midnightblue" stroke="midnightblue" points="307.918,-135.42 316.047,-128.625 305.455,-128.868 307.918,-135.42"/>
</g>
<!-- Node2 -->
<g id="node3" class="node"><title>Node2</title>
<g id="a_node3"><a xlink:href="erpc__common_8h_source.html" target="_top" xlink:title="erpc_common.h">
<polygon fill="white" stroke="black" points="148.813,-55.5 148.813,-73.5 236.513,-73.5 236.513,-55.5 148.813,-55.5"/>
<text text-anchor="middle" x="192.663" y="-61.5" font-family="Helvetica,sans-Serif" font-size="10.00">erpc_common.h</text>
</a>
</g>
</g>
<!-- Node1&#45;&gt;Node2 -->
<g id="edge2" class="edge"><title>Node1&#45;&gt;Node2</title>
<path fill="none" stroke="midnightblue" d="M69.6855,-110.45C93.9581,-101.578 133.216,-87.2288 160.834,-77.134"/>
<polygon fill="midnightblue" stroke="midnightblue" points="162.243,-80.3457 170.433,-73.6253 159.84,-73.7711 162.243,-80.3457"/>
</g>
<!-- Node3 -->
<g id="node4" class="node"><title>Node3</title>
<polygon fill="white" stroke="#bfbfbf" points="168.542,-0.5 168.542,-18.5 216.784,-18.5 216.784,-0.5 168.542,-0.5"/>
<text text-anchor="middle" x="192.663" y="-6.5" font-family="Helvetica,sans-Serif" font-size="10.00">stdint.h</text>
</g>
<!-- Node1&#45;&gt;Node3 -->
<g id="edge5" class="edge"><title>Node1&#45;&gt;Node3</title>
<path fill="none" stroke="midnightblue" d="M47.837,-110.33C48.5607,-96.9972 51.9021,-70.499 66.6631,-55 90.7101,-29.7507 129.952,-18.8106 158.258,-14.0809"/>
<polygon fill="midnightblue" stroke="midnightblue" points="159.14,-17.4883 168.517,-12.5554 158.111,-10.5644 159.14,-17.4883"/>
</g>
<!-- Node4 -->
<g id="node5" class="node"><title>Node4</title>
<polygon fill="white" stroke="#bfbfbf" points="75.5425,-55.5 75.5425,-73.5 123.784,-73.5 123.784,-55.5 75.5425,-55.5"/>
<text text-anchor="middle" x="99.6631" y="-61.5" font-family="Helvetica,sans-Serif" font-size="10.00">cstddef</text>
</g>
<!-- Node1&#45;&gt;Node4 -->
<g id="edge4" class="edge"><title>Node1&#45;&gt;Node4</title>
<path fill="none" stroke="midnightblue" d="M55.7881,-110.219C63.4648,-102.394 75.171,-90.4631 84.5614,-80.8921"/>
<polygon fill="midnightblue" stroke="midnightblue" points="87.2603,-83.1389 91.7654,-73.5496 82.2636,-78.2365 87.2603,-83.1389"/>
</g>
<!-- Node2&#45;&gt;Node3 -->
<g id="edge3" class="edge"><title>Node2&#45;&gt;Node3</title>
<path fill="none" stroke="midnightblue" d="M192.663,-55.2188C192.663,-48.1769 192.663,-37.8083 192.663,-28.8277"/>
<polygon fill="midnightblue" stroke="midnightblue" points="196.163,-28.5495 192.663,-18.5496 189.163,-28.5496 196.163,-28.5495"/>
</g>
<!-- Node7&#45;&gt;Node2 -->
<g id="edge9" class="edge"><title>Node7&#45;&gt;Node2</title>
<path fill="none" stroke="midnightblue" d="M315.641,-110.45C291.368,-101.578 252.11,-87.2288 224.492,-77.134"/>
<polygon fill="midnightblue" stroke="midnightblue" points="225.487,-73.7711 214.893,-73.6253 223.083,-80.3457 225.487,-73.7711"/>
</g>
<!-- Node7&#45;&gt;Node3 -->
<g id="edge11" class="edge"><title>Node7&#45;&gt;Node3</title>
<path fill="none" stroke="midnightblue" d="M326.765,-110.382C302.307,-92.1658 242.785,-47.8322 211.927,-24.8483"/>
<polygon fill="midnightblue" stroke="midnightblue" points="213.799,-21.8782 203.688,-18.7118 209.617,-27.4922 213.799,-21.8782"/>
</g>
<!-- Node8 -->
<g id="node9" class="node"><title>Node8</title>
<polygon fill="white" stroke="#bfbfbf" points="314.937,-55.5 314.937,-73.5 360.39,-73.5 360.39,-55.5 314.937,-55.5"/>
<text text-anchor="middle" x="337.663" y="-61.5" font-family="Helvetica,sans-Serif" font-size="10.00">cstring</text>
</g>
<!-- Node7&#45;&gt;Node8 -->
<g id="edge10" class="edge"><title>Node7&#45;&gt;Node8</title>
<path fill="none" stroke="midnightblue" d="M337.663,-110.219C337.663,-103.177 337.663,-92.8083 337.663,-83.8277"/>
<polygon fill="midnightblue" stroke="midnightblue" points="341.163,-83.5495 337.663,-73.5496 334.163,-83.5496 341.163,-83.5495"/>
</g>
</g>
</svg>
