<?xml version="1.0" encoding="UTF-8" standalone="no"?>
<!DOCTYPE svg PUBLIC "-//W3C//DTD SVG 1.1//EN"
 "http://www.w3.org/Graphics/SVG/1.1/DTD/svg11.dtd">
<!-- Generated by graphviz version 2.38.0 (20140413.2041)
 -->
<!-- Title: rpmsg_lite_transport.h Pages: 1 -->
<svg width="372pt" height="192pt"
 viewBox="0.00 0.00 372.19 192.00" xmlns="http://www.w3.org/2000/svg" xmlns:xlink="http://www.w3.org/1999/xlink">
<g id="graph0" class="graph" transform="scale(1 1) rotate(0) translate(4 188)">
<title>rpmsg_lite_transport.h</title>
<polygon fill="white" stroke="none" points="-4,4 -4,-188 368.188,-188 368.188,4 -4,4"/>
<!-- Node0 -->
<g id="node1" class="node"><title>Node0</title>
<polygon fill="#bfbfbf" stroke="black" points="132.917,-165.5 132.917,-183.5 248.409,-183.5 248.409,-165.5 132.917,-165.5"/>
<text text-anchor="middle" x="190.663" y="-171.5" font-family="Helvetica,sans-Serif" font-size="10.00">rpmsg_lite_transport.h</text>
</g>
<!-- Node1 -->
<g id="node2" class="node"><title>Node1</title>
<g id="a_node2"><a xlink:href="message__buffer_8h.html" target="_top" xlink:title="message_buffer.h">
<polygon fill="white" stroke="black" points="0,-110.5 0,-128.5 95.3262,-128.5 95.3262,-110.5 0,-110.5"/>
<text text-anchor="middle" x="47.6631" y="-116.5" font-family="Helvetica,sans-Serif" font-size="10.00">message_buffer.h</text>
</a>
</g>
</g>
<!-- Node0&#45;&gt;Node1 -->
<g id="edge1" class="edge"><title>Node0&#45;&gt;Node1</title>
<path fill="none" stroke="midnightblue" d="M168.944,-165.45C145.007,-156.578 106.29,-142.229 79.0528,-132.134"/>
<polygon fill="midnightblue" stroke="midnightblue" points="80.1792,-128.819 69.5861,-128.625 77.7464,-135.383 80.1792,-128.819"/>
</g>
<!-- Node5 -->
<g id="node6" class="node"><title>Node5</title>
<polygon fill="white" stroke="#bfbfbf" points="113.429,-110.5 113.429,-128.5 183.897,-128.5 183.897,-110.5 113.429,-110.5"/>
<text text-anchor="middle" x="148.663" y="-116.5" font-family="Helvetica,sans-Serif" font-size="10.00">rpmsg_lite.h</text>
</g>
<!-- Node0&#45;&gt;Node5 -->
<g id="edge6" class="edge"><title>Node0&#45;&gt;Node5</title>
<path fill="none" stroke="midnightblue" d="M184.101,-165.219C178.024,-157.551 168.822,-145.939 161.318,-136.469"/>
<polygon fill="midnightblue" stroke="midnightblue" points="163.996,-134.213 155.042,-128.55 158.51,-138.561 163.996,-134.213"/>
</g>
<!-- Node6 -->
<g id="node7" class="node"><title>Node6</title>
<g id="a_node7"><a xlink:href="static__queue_8h.html" target="_top" xlink:title="static_queue.h">
<polygon fill="white" stroke="black" points="283.139,-110.5 283.139,-128.5 364.188,-128.5 364.188,-110.5 283.139,-110.5"/>
<text text-anchor="middle" x="323.663" y="-116.5" font-family="Helvetica,sans-Serif" font-size="10.00">static_queue.h</text>
</a>
</g>
</g>
<!-- Node0&#45;&gt;Node6 -->
<g id="edge7" class="edge"><title>Node0&#45;&gt;Node6</title>
<path fill="none" stroke="midnightblue" d="M210.863,-165.45C232.931,-156.656 268.505,-142.48 293.799,-132.401"/>
<polygon fill="midnightblue" stroke="midnightblue" points="295.279,-135.579 303.273,-128.625 292.688,-129.076 295.279,-135.579"/>
</g>
<!-- Node8 -->
<g id="node9" class="node"><title>Node8</title>
<g id="a_node9"><a xlink:href="transport_8h.html" target="_top" xlink:title="transport.h">
<polygon fill="white" stroke="black" points="201.762,-110.5 201.762,-128.5 265.564,-128.5 265.564,-110.5 201.762,-110.5"/>
<text text-anchor="middle" x="233.663" y="-116.5" font-family="Helvetica,sans-Serif" font-size="10.00">transport.h</text>
</a>
</g>
</g>
<!-- Node0&#45;&gt;Node8 -->
<g id="edge9" class="edge"><title>Node0&#45;&gt;Node8</title>
<path fill="none" stroke="midnightblue" d="M197.382,-165.219C203.603,-157.551 213.024,-145.939 220.707,-136.469"/>
<polygon fill="midnightblue" stroke="midnightblue" points="223.55,-138.52 227.132,-128.55 218.114,-134.11 223.55,-138.52"/>
</g>
<!-- Node2 -->
<g id="node3" class="node"><title>Node2</title>
<g id="a_node3"><a xlink:href="erpc__common_8h_source.html" target="_top" xlink:title="erpc_common.h">
<polygon fill="white" stroke="black" points="117.813,-55.5 117.813,-73.5 205.513,-73.5 205.513,-55.5 117.813,-55.5"/>
<text text-anchor="middle" x="161.663" y="-61.5" font-family="Helvetica,sans-Serif" font-size="10.00">erpc_common.h</text>
</a>
</g>
</g>
<!-- Node1&#45;&gt;Node2 -->
<g id="edge2" class="edge"><title>Node1&#45;&gt;Node2</title>
<path fill="none" stroke="midnightblue" d="M64.9772,-110.45C83.5583,-101.812 113.309,-87.9803 134.906,-77.9396"/>
<polygon fill="midnightblue" stroke="midnightblue" points="136.594,-81.0149 144.186,-73.6253 133.643,-74.6674 136.594,-81.0149"/>
</g>
<!-- Node3 -->
<g id="node4" class="node"><title>Node3</title>
<polygon fill="white" stroke="#bfbfbf" points="137.542,-0.5 137.542,-18.5 185.784,-18.5 185.784,-0.5 137.542,-0.5"/>
<text text-anchor="middle" x="161.663" y="-6.5" font-family="Helvetica,sans-Serif" font-size="10.00">stdint.h</text>
</g>
<!-- Node1&#45;&gt;Node3 -->
<g id="edge5" class="edge"><title>Node1&#45;&gt;Node3</title>
<path fill="none" stroke="midnightblue" d="M54.9137,-110.414C66.0842,-98.0819 88.3431,-74.0045 108.663,-55 119.769,-44.6132 132.848,-33.62 143.234,-25.1588"/>
<polygon fill="midnightblue" stroke="midnightblue" points="145.636,-27.7178 151.223,-18.7157 141.242,-22.269 145.636,-27.7178"/>
</g>
<!-- Node4 -->
<g id="node5" class="node"><title>Node4</title>
<polygon fill="white" stroke="#bfbfbf" points="13.5425,-55.5 13.5425,-73.5 61.7837,-73.5 61.7837,-55.5 13.5425,-55.5"/>
<text text-anchor="middle" x="37.6631" y="-61.5" font-family="Helvetica,sans-Serif" font-size="10.00">cstddef</text>
</g>
<!-- Node1&#45;&gt;Node4 -->
<g id="edge4" class="edge"><title>Node1&#45;&gt;Node4</title>
<path fill="none" stroke="midnightblue" d="M46.1006,-110.219C44.7572,-103.099 42.772,-92.5775 41.0648,-83.5289"/>
<polygon fill="midnightblue" stroke="midnightblue" points="44.4753,-82.7272 39.1819,-73.5496 37.5967,-84.0251 44.4753,-82.7272"/>
</g>
<!-- Node2&#45;&gt;Node3 -->
<g id="edge3" class="edge"><title>Node2&#45;&gt;Node3</title>
<path fill="none" stroke="midnightblue" d="M161.663,-55.2188C161.663,-48.1769 161.663,-37.8083 161.663,-28.8277"/>
<polygon fill="midnightblue" stroke="midnightblue" points="165.163,-28.5495 161.663,-18.5496 158.163,-28.5496 165.163,-28.5495"/>
</g>
<!-- Node7 -->
<g id="node8" class="node"><title>Node7</title>
<polygon fill="white" stroke="#bfbfbf" points="280.937,-55.5 280.937,-73.5 326.39,-73.5 326.39,-55.5 280.937,-55.5"/>
<text text-anchor="middle" x="303.663" y="-61.5" font-family="Helvetica,sans-Serif" font-size="10.00">cstring</text>
</g>
<!-- Node6&#45;&gt;Node7 -->
<g id="edge8" class="edge"><title>Node6&#45;&gt;Node7</title>
<path fill="none" stroke="midnightblue" d="M320.538,-110.219C317.792,-102.942 313.706,-92.1134 310.242,-82.9345"/>
<polygon fill="midnightblue" stroke="midnightblue" points="313.506,-81.6699 306.701,-73.5496 306.957,-84.1413 313.506,-81.6699"/>
</g>
<!-- Node8&#45;&gt;Node2 -->
<g id="edge10" class="edge"><title>Node8&#45;&gt;Node2</title>
<path fill="none" stroke="midnightblue" d="M222.728,-110.45C211.627,-102.279 194.213,-89.4604 180.817,-79.5996"/>
<polygon fill="midnightblue" stroke="midnightblue" points="182.83,-76.7348 172.701,-73.6253 178.68,-82.3722 182.83,-76.7348"/>
</g>
<!-- Node8&#45;&gt;Node3 -->
<g id="edge12" class="edge"><title>Node8&#45;&gt;Node3</title>
<path fill="none" stroke="midnightblue" d="M232.76,-110.455C231.021,-97.7563 226.294,-72.6927 214.663,-55 206.723,-42.9211 194.54,-32.3668 183.855,-24.572"/>
<polygon fill="midnightblue" stroke="midnightblue" points="185.576,-21.5065 175.359,-18.7005 181.596,-27.2652 185.576,-21.5065"/>
</g>
<!-- Node8&#45;&gt;Node7 -->
<g id="edge11" class="edge"><title>Node8&#45;&gt;Node7</title>
<path fill="none" stroke="midnightblue" d="M244.295,-110.45C254.985,-102.357 271.695,-89.7042 284.668,-79.8822"/>
<polygon fill="midnightblue" stroke="midnightblue" points="287.072,-82.4521 292.932,-73.6253 282.846,-76.8713 287.072,-82.4521"/>
</g>
</g>
</svg>
