<?xml version="1.0" encoding="UTF-8" standalone="no"?>
<!DOCTYPE svg PUBLIC "-//W3C//DTD SVG 1.1//EN"
 "http://www.w3.org/Graphics/SVG/1.1/DTD/svg11.dtd">
<!-- Generated by graphviz version 2.38.0 (20140413.2041)
 -->
<!-- Title: serial.h Pages: 1 -->
<svg width="451pt" height="82pt"
 viewBox="0.00 0.00 450.63 82.00" xmlns="http://www.w3.org/2000/svg" xmlns:xlink="http://www.w3.org/1999/xlink">
<g id="graph0" class="graph" transform="scale(1 1) rotate(0) translate(4 78)">
<title>serial.h</title>
<polygon fill="white" stroke="none" points="-4,4 -4,-78 446.633,-78 446.633,4 -4,4"/>
<!-- Node0 -->
<g id="node1" class="node"><title>Node0</title>
<polygon fill="#bfbfbf" stroke="black" points="200.002,-55.5 200.002,-73.5 248.239,-73.5 248.239,-55.5 200.002,-55.5"/>
<text text-anchor="middle" x="224.121" y="-61.5" font-family="Helvetica,sans-Serif" font-size="10.00">serial.h</text>
</g>
<!-- Node1 -->
<g id="node2" class="node"><title>Node1</title>
<polygon fill="white" stroke="#bfbfbf" points="0,-0.5 0,-18.5 48.2412,-18.5 48.2412,-0.5 0,-0.5"/>
<text text-anchor="middle" x="24.1206" y="-6.5" font-family="Helvetica,sans-Serif" font-size="10.00">stdint.h</text>
</g>
<!-- Node0&#45;&gt;Node1 -->
<g id="edge1" class="edge"><title>Node0&#45;&gt;Node1</title>
<path fill="none" stroke="midnightblue" d="M199.996,-57.107C164.633,-47.7359 98.5612,-30.2268 58.2384,-19.5412"/>
<polygon fill="midnightblue" stroke="midnightblue" points="58.8938,-16.0941 48.3308,-16.9157 57.1006,-22.8606 58.8938,-16.0941"/>
</g>
<!-- Node2 -->
<g id="node3" class="node"><title>Node2</title>
<polygon fill="white" stroke="#bfbfbf" points="66,-0.5 66,-18.5 134.241,-18.5 134.241,-0.5 66,-0.5"/>
<text text-anchor="middle" x="100.121" y="-6.5" font-family="Helvetica,sans-Serif" font-size="10.00">sys/select.h</text>
</g>
<!-- Node0&#45;&gt;Node2 -->
<g id="edge2" class="edge"><title>Node0&#45;&gt;Node2</title>
<path fill="none" stroke="midnightblue" d="M205.288,-55.4504C184.895,-46.734 152.132,-32.7306 128.592,-22.6691"/>
<polygon fill="midnightblue" stroke="midnightblue" points="129.702,-19.3373 119.131,-18.6253 126.95,-25.774 129.702,-19.3373"/>
</g>
<!-- Node3 -->
<g id="node4" class="node"><title>Node3</title>
<polygon fill="white" stroke="#bfbfbf" points="152.616,-0.5 152.616,-18.5 213.625,-18.5 213.625,-0.5 152.616,-0.5"/>
<text text-anchor="middle" x="183.121" y="-6.5" font-family="Helvetica,sans-Serif" font-size="10.00">sys/time.h</text>
</g>
<!-- Node0&#45;&gt;Node3 -->
<g id="edge3" class="edge"><title>Node0&#45;&gt;Node3</title>
<path fill="none" stroke="midnightblue" d="M217.714,-55.2188C211.783,-47.5509 202.8,-35.9387 195.474,-26.4691"/>
<polygon fill="midnightblue" stroke="midnightblue" points="198.235,-24.3176 189.348,-18.5496 192.698,-28.6007 198.235,-24.3176"/>
</g>
<!-- Node4 -->
<g id="node5" class="node"><title>Node4</title>
<polygon fill="white" stroke="#bfbfbf" points="232.111,-0.5 232.111,-18.5 298.13,-18.5 298.13,-0.5 232.111,-0.5"/>
<text text-anchor="middle" x="265.121" y="-6.5" font-family="Helvetica,sans-Serif" font-size="10.00">sys/types.h</text>
</g>
<!-- Node0&#45;&gt;Node4 -->
<g id="edge4" class="edge"><title>Node0&#45;&gt;Node4</title>
<path fill="none" stroke="midnightblue" d="M230.527,-55.2188C236.459,-47.5509 245.442,-35.9387 252.767,-26.4691"/>
<polygon fill="midnightblue" stroke="midnightblue" points="255.543,-28.6007 258.894,-18.5496 250.006,-24.3176 255.543,-28.6007"/>
</g>
<!-- Node5 -->
<g id="node6" class="node"><title>Node5</title>
<polygon fill="white" stroke="#bfbfbf" points="316.559,-0.5 316.559,-18.5 373.682,-18.5 373.682,-0.5 316.559,-0.5"/>
<text text-anchor="middle" x="345.121" y="-6.5" font-family="Helvetica,sans-Serif" font-size="10.00">termios.h</text>
</g>
<!-- Node0&#45;&gt;Node5 -->
<g id="edge5" class="edge"><title>Node0&#45;&gt;Node5</title>
<path fill="none" stroke="midnightblue" d="M242.498,-55.4504C262.398,-46.734 294.368,-32.7306 317.338,-22.6691"/>
<polygon fill="midnightblue" stroke="midnightblue" points="318.815,-25.8435 326.57,-18.6253 316.006,-19.4316 318.815,-25.8435"/>
</g>
<!-- Node6 -->
<g id="node7" class="node"><title>Node6</title>
<polygon fill="white" stroke="#bfbfbf" points="391.608,-0.5 391.608,-18.5 442.633,-18.5 442.633,-0.5 391.608,-0.5"/>
<text text-anchor="middle" x="417.121" y="-6.5" font-family="Helvetica,sans-Serif" font-size="10.00">unistd.h</text>
</g>
<!-- Node0&#45;&gt;Node6 -->
<g id="edge6" class="edge"><title>Node0&#45;&gt;Node6</title>
<path fill="none" stroke="midnightblue" d="M248.564,-56.7875C282.178,-47.5569 342.891,-30.8844 381.542,-20.2702"/>
<polygon fill="midnightblue" stroke="midnightblue" points="382.624,-23.6027 391.34,-17.5795 380.771,-16.8526 382.624,-23.6027"/>
</g>
</g>
</svg>
