<?xml version="1.0" encoding="UTF-8" standalone="no"?>
<!DOCTYPE svg PUBLIC "-//W3C//DTD SVG 1.1//EN"
 "http://www.w3.org/Graphics/SVG/1.1/DTD/svg11.dtd">
<!-- Generated by graphviz version 2.38.0 (20140413.2041)
 -->
<!-- Title: static_queue.h Pages: 1 -->
<svg width="238pt" height="82pt"
 viewBox="0.00 0.00 238.32 82.00" xmlns="http://www.w3.org/2000/svg" xmlns:xlink="http://www.w3.org/1999/xlink">
<g id="graph0" class="graph" transform="scale(1 1) rotate(0) translate(4 78)">
<title>static_queue.h</title>
<polygon fill="white" stroke="none" points="-4,4 -4,-78 234.32,-78 234.32,4 -4,4"/>
<!-- Node2 -->
<g id="node1" class="node"><title>Node2</title>
<polygon fill="#bfbfbf" stroke="black" points="79.2217,-55.5 79.2217,-73.5 160.271,-73.5 160.271,-55.5 79.2217,-55.5"/>
<text text-anchor="middle" x="119.746" y="-61.5" font-family="Helvetica,sans-Serif" font-size="10.00">static_queue.h</text>
</g>
<!-- Node3 -->
<g id="node2" class="node"><title>Node3</title>
<g id="a_node2"><a xlink:href="rpmsg__lite__transport_8h.html" target="_top" xlink:title="rpmsg_lite_transport.h">
<polygon fill="white" stroke="black" points="0,-0.5 0,-18.5 115.492,-18.5 115.492,-0.5 0,-0.5"/>
<text text-anchor="middle" x="57.7461" y="-6.5" font-family="Helvetica,sans-Serif" font-size="10.00">rpmsg_lite_transport.h</text>
</a>
</g>
</g>
<!-- Node2&#45;&gt;Node3 -->
<g id="edge1" class="edge"><title>Node2&#45;&gt;Node3</title>
<path fill="none" stroke="midnightblue" d="M102.697,-48.9259C91.2755,-39.1622 76.6612,-26.6693 67.2512,-18.6253"/>
<polygon fill="midnightblue" stroke="midnightblue" points="100.454,-51.613 110.33,-55.4504 105.003,-46.2922 100.454,-51.613"/>
</g>
<!-- Node4 -->
<g id="node3" class="node"><title>Node4</title>
<g id="a_node3"><a xlink:href="rpmsg__transport_8h.html" target="_top" xlink:title="rpmsg_transport.h">
<polygon fill="white" stroke="black" points="133.172,-0.5 133.172,-18.5 230.32,-18.5 230.32,-0.5 133.172,-0.5"/>
<text text-anchor="middle" x="181.746" y="-6.5" font-family="Helvetica,sans-Serif" font-size="10.00">rpmsg_transport.h</text>
</a>
</g>
</g>
<!-- Node2&#45;&gt;Node4 -->
<g id="edge2" class="edge"><title>Node2&#45;&gt;Node4</title>
<path fill="none" stroke="midnightblue" d="M136.795,-48.9259C148.217,-39.1622 162.831,-26.6693 172.241,-18.6253"/>
<polygon fill="midnightblue" stroke="midnightblue" points="134.49,-46.2922 129.163,-55.4504 139.038,-51.613 134.49,-46.2922"/>
</g>
</g>
</svg>
