<?xml version="1.0" encoding="UTF-8" standalone="no"?>
<!DOCTYPE svg PUBLIC "-//W3C//DTD SVG 1.1//EN"
 "http://www.w3.org/Graphics/SVG/1.1/DTD/svg11.dtd">
<!-- Generated by graphviz version 2.38.0 (20140413.2041)
 -->
<!-- Title: erpc::InterThreadBufferTransport::SharedState Pages: 1 -->
<svg width="170pt" height="102pt"
 viewBox="0.00 0.00 169.63 102.00" xmlns="http://www.w3.org/2000/svg" xmlns:xlink="http://www.w3.org/1999/xlink">
<g id="graph0" class="graph" transform="scale(1 1) rotate(0) translate(4 98)">
<title>erpc::InterThreadBufferTransport::SharedState</title>
<polygon fill="white" stroke="none" points="-4,4 -4,-98 165.635,-98 165.635,4 -4,4"/>
<!-- Node9 -->
<g id="node1" class="node"><title>Node9</title>
<polygon fill="#bfbfbf" stroke="black" points="0,-0.5 0,-28.5 161.635,-28.5 161.635,-0.5 0,-0.5"/>
<text text-anchor="start" x="8" y="-16.5" font-family="Helvetica,sans-Serif" font-size="10.00">erpc::InterThreadBufferTransport</text>
<text text-anchor="middle" x="80.8174" y="-6.5" font-family="Helvetica,sans-Serif" font-size="10.00">::SharedState</text>
</g>
<!-- Node10 -->
<g id="node2" class="node"><title>Node10</title>
<g id="a_node2"><a xlink:href="classerpc_1_1_mutex.html" target="_top" xlink:title="Mutex. ">
<polygon fill="white" stroke="black" points="46.6968,-75.5 46.6968,-93.5 114.938,-93.5 114.938,-75.5 46.6968,-75.5"/>
<text text-anchor="middle" x="80.8174" y="-81.5" font-family="Helvetica,sans-Serif" font-size="10.00">erpc::Mutex</text>
</a>
</g>
</g>
<!-- Node10&#45;&gt;Node9 -->
<g id="edge1" class="edge"><title>Node10&#45;&gt;Node9</title>
<path fill="none" stroke="#9a32cd" stroke-dasharray="5,2" d="M80.8174,-65.2088C80.8174,-53.6862 80.8174,-39.0784 80.8174,-28.6867"/>
<polygon fill="#9a32cd" stroke="#9a32cd" points="77.3175,-65.4324 80.8174,-75.4325 84.3175,-65.4325 77.3175,-65.4324"/>
<text text-anchor="middle" x="102.768" y="-49" font-family="Helvetica,sans-Serif" font-size="10.00"> m_mutex</text>
</g>
</g>
</svg>
