<?xml version="1.0" encoding="UTF-8" standalone="no"?>
<!DOCTYPE svg PUBLIC "-//W3C//DTD SVG 1.1//EN"
 "http://www.w3.org/Graphics/SVG/1.1/DTD/svg11.dtd">
<!-- Generated by graphviz version 2.38.0 (20140413.2041)
 -->
<!-- Title: tcp_transport.h Pages: 1 -->
<svg width="510pt" height="247pt"
 viewBox="0.00 0.00 509.93 247.00" xmlns="http://www.w3.org/2000/svg" xmlns:xlink="http://www.w3.org/1999/xlink">
<g id="graph0" class="graph" transform="scale(1 1) rotate(0) translate(4 243)">
<title>tcp_transport.h</title>
<polygon fill="white" stroke="none" points="-4,4 -4,-243 505.926,-243 505.926,4 -4,4"/>
<!-- Node0 -->
<g id="node1" class="node"><title>Node0</title>
<polygon fill="#bfbfbf" stroke="black" points="148.847,-220.5 148.847,-238.5 231.551,-238.5 231.551,-220.5 148.847,-220.5"/>
<text text-anchor="middle" x="190.199" y="-226.5" font-family="Helvetica,sans-Serif" font-size="10.00">tcp_transport.h</text>
</g>
<!-- Node1 -->
<g id="node2" class="node"><title>Node1</title>
<g id="a_node2"><a xlink:href="erpc__threading_8h.html" target="_top" xlink:title="erpc_threading.h">
<polygon fill="white" stroke="black" points="60.6724,-110.5 60.6724,-128.5 151.726,-128.5 151.726,-110.5 60.6724,-110.5"/>
<text text-anchor="middle" x="106.199" y="-116.5" font-family="Helvetica,sans-Serif" font-size="10.00">erpc_threading.h</text>
</a>
</g>
</g>
<!-- Node0&#45;&gt;Node1 -->
<g id="edge1" class="edge"><title>Node0&#45;&gt;Node1</title>
<path fill="none" stroke="midnightblue" d="M183.886,-220.382C170.082,-202.635 136.998,-160.098 118.772,-136.666"/>
<polygon fill="midnightblue" stroke="midnightblue" points="121.488,-134.456 112.586,-128.712 115.963,-138.754 121.488,-134.456"/>
</g>
<!-- Node5 -->
<g id="node6" class="node"><title>Node5</title>
<g id="a_node6"><a xlink:href="framed__transport_8h.html" target="_top" xlink:title="framed_transport.h">
<polygon fill="white" stroke="black" points="187.956,-165.5 187.956,-183.5 288.443,-183.5 288.443,-165.5 187.956,-165.5"/>
<text text-anchor="middle" x="238.199" y="-171.5" font-family="Helvetica,sans-Serif" font-size="10.00">framed_transport.h</text>
</a>
</g>
</g>
<!-- Node0&#45;&gt;Node5 -->
<g id="edge5" class="edge"><title>Node0&#45;&gt;Node5</title>
<path fill="none" stroke="midnightblue" d="M197.699,-220.219C204.715,-212.473 215.375,-200.701 223.999,-191.18"/>
<polygon fill="midnightblue" stroke="midnightblue" points="226.79,-193.311 230.909,-183.55 221.602,-188.612 226.79,-193.311"/>
</g>
<!-- Node2 -->
<g id="node3" class="node"><title>Node2</title>
<g id="a_node3"><a xlink:href="erpc__config__internal_8h_source.html" target="_top" xlink:title="erpc_config_internal.h">
<polygon fill="white" stroke="black" points="0,-55.5 0,-73.5 114.398,-73.5 114.398,-55.5 0,-55.5"/>
<text text-anchor="middle" x="57.1992" y="-61.5" font-family="Helvetica,sans-Serif" font-size="10.00">erpc_config_internal.h</text>
</a>
</g>
</g>
<!-- Node1&#45;&gt;Node2 -->
<g id="edge2" class="edge"><title>Node1&#45;&gt;Node2</title>
<path fill="none" stroke="midnightblue" d="M98.543,-110.219C91.3815,-102.473 80.4985,-90.7013 71.6957,-81.1799"/>
<polygon fill="midnightblue" stroke="midnightblue" points="73.9998,-78.5163 64.6413,-73.5496 68.8599,-83.2683 73.9998,-78.5163"/>
</g>
<!-- Node4 -->
<g id="node5" class="node"><title>Node4</title>
<polygon fill="white" stroke="#bfbfbf" points="194.079,-0.5 194.079,-18.5 242.32,-18.5 242.32,-0.5 194.079,-0.5"/>
<text text-anchor="middle" x="218.199" y="-6.5" font-family="Helvetica,sans-Serif" font-size="10.00">stdint.h</text>
</g>
<!-- Node1&#45;&gt;Node4 -->
<g id="edge4" class="edge"><title>Node1&#45;&gt;Node4</title>
<path fill="none" stroke="midnightblue" d="M113.329,-110.421C124.314,-98.0983 146.206,-74.0328 166.199,-55 177.092,-44.6312 189.923,-33.6382 200.115,-25.1725"/>
<polygon fill="midnightblue" stroke="midnightblue" points="202.454,-27.7804 207.954,-18.725 198.008,-22.374 202.454,-27.7804"/>
</g>
<!-- Node3 -->
<g id="node4" class="node"><title>Node3</title>
<g id="a_node4"><a xlink:href="erpc__config_8h.html" target="_top" xlink:title="erpc_config.h">
<polygon fill="white" stroke="black" points="19.1797,-0.5 19.1797,-18.5 95.2188,-18.5 95.2188,-0.5 19.1797,-0.5"/>
<text text-anchor="middle" x="57.1992" y="-6.5" font-family="Helvetica,sans-Serif" font-size="10.00">erpc_config.h</text>
</a>
</g>
</g>
<!-- Node2&#45;&gt;Node3 -->
<g id="edge3" class="edge"><title>Node2&#45;&gt;Node3</title>
<path fill="none" stroke="midnightblue" d="M57.1992,-55.2188C57.1992,-48.1769 57.1992,-37.8083 57.1992,-28.8277"/>
<polygon fill="midnightblue" stroke="midnightblue" points="60.6993,-28.5495 57.1992,-18.5496 53.6993,-28.5496 60.6993,-28.5495"/>
</g>
<!-- Node5&#45;&gt;Node1 -->
<g id="edge6" class="edge"><title>Node5&#45;&gt;Node1</title>
<path fill="none" stroke="midnightblue" d="M218.151,-165.45C196.249,-156.656 160.942,-142.48 135.838,-132.401"/>
<polygon fill="midnightblue" stroke="midnightblue" points="137.02,-129.103 126.436,-128.625 134.412,-135.599 137.02,-129.103"/>
</g>
<!-- Node5&#45;&gt;Node4 -->
<g id="edge17" class="edge"><title>Node5&#45;&gt;Node4</title>
<path fill="none" stroke="midnightblue" d="M227.845,-165.241C218.595,-157.141 205.684,-143.869 200.199,-129 187.522,-94.6318 200.791,-51.4957 210.317,-27.9019"/>
<polygon fill="midnightblue" stroke="midnightblue" points="213.608,-29.1088 214.324,-18.5383 207.172,-26.3549 213.608,-29.1088"/>
</g>
<!-- Node6 -->
<g id="node7" class="node"><title>Node6</title>
<g id="a_node7"><a xlink:href="message__buffer_8h.html" target="_top" xlink:title="message_buffer.h">
<polygon fill="white" stroke="black" points="209.536,-110.5 209.536,-128.5 304.862,-128.5 304.862,-110.5 209.536,-110.5"/>
<text text-anchor="middle" x="257.199" y="-116.5" font-family="Helvetica,sans-Serif" font-size="10.00">message_buffer.h</text>
</a>
</g>
</g>
<!-- Node5&#45;&gt;Node6 -->
<g id="edge7" class="edge"><title>Node5&#45;&gt;Node6</title>
<path fill="none" stroke="midnightblue" d="M241.168,-165.219C243.749,-158.02 247.575,-147.346 250.843,-138.231"/>
<polygon fill="midnightblue" stroke="midnightblue" points="254.234,-139.144 254.314,-128.55 247.644,-136.782 254.234,-139.144"/>
</g>
<!-- Node9 -->
<g id="node10" class="node"><title>Node9</title>
<g id="a_node10"><a xlink:href="transport_8h.html" target="_top" xlink:title="transport.h">
<polygon fill="white" stroke="black" points="340.298,-110.5 340.298,-128.5 404.101,-128.5 404.101,-110.5 340.298,-110.5"/>
<text text-anchor="middle" x="372.199" y="-116.5" font-family="Helvetica,sans-Serif" font-size="10.00">transport.h</text>
</a>
</g>
</g>
<!-- Node5&#45;&gt;Node9 -->
<g id="edge12" class="edge"><title>Node5&#45;&gt;Node9</title>
<path fill="none" stroke="midnightblue" d="M258.551,-165.45C280.785,-156.656 316.627,-142.48 342.111,-132.401"/>
<polygon fill="midnightblue" stroke="midnightblue" points="343.644,-135.558 351.656,-128.625 341.07,-129.049 343.644,-135.558"/>
</g>
<!-- Node10 -->
<g id="node11" class="node"><title>Node10</title>
<polygon fill="white" stroke="#bfbfbf" points="456.473,-55.5 456.473,-73.5 501.926,-73.5 501.926,-55.5 456.473,-55.5"/>
<text text-anchor="middle" x="479.199" y="-61.5" font-family="Helvetica,sans-Serif" font-size="10.00">cstring</text>
</g>
<!-- Node5&#45;&gt;Node10 -->
<g id="edge16" class="edge"><title>Node5&#45;&gt;Node10</title>
<path fill="none" stroke="midnightblue" d="M288.642,-167.696C325.056,-161.882 374.433,-150.56 413.199,-129 434.604,-117.096 454.144,-96.5284 466.315,-82.0322"/>
<polygon fill="midnightblue" stroke="midnightblue" points="469.311,-83.8942 472.891,-73.9226 463.874,-79.4851 469.311,-83.8942"/>
</g>
<!-- Node6&#45;&gt;Node4 -->
<g id="edge11" class="edge"><title>Node6&#45;&gt;Node4</title>
<path fill="none" stroke="midnightblue" d="M253.185,-110.433C248.892,-101.619 242.048,-87.0173 237.199,-74 231.607,-58.9874 226.478,-41.5235 222.962,-28.7143"/>
<polygon fill="midnightblue" stroke="midnightblue" points="226.285,-27.589 220.317,-18.8346 219.523,-29.3996 226.285,-27.589"/>
</g>
<!-- Node7 -->
<g id="node8" class="node"><title>Node7</title>
<g id="a_node8"><a xlink:href="erpc__common_8h_source.html" target="_top" xlink:title="erpc_common.h">
<polygon fill="white" stroke="black" points="312.35,-55.5 312.35,-73.5 400.049,-73.5 400.049,-55.5 312.35,-55.5"/>
<text text-anchor="middle" x="356.199" y="-61.5" font-family="Helvetica,sans-Serif" font-size="10.00">erpc_common.h</text>
</a>
</g>
</g>
<!-- Node6&#45;&gt;Node7 -->
<g id="edge8" class="edge"><title>Node6&#45;&gt;Node7</title>
<path fill="none" stroke="midnightblue" d="M272.235,-110.45C288.153,-101.929 313.511,-88.3532 332.199,-78.3487"/>
<polygon fill="midnightblue" stroke="midnightblue" points="333.858,-81.4308 341.022,-73.6253 330.554,-75.2595 333.858,-81.4308"/>
</g>
<!-- Node8 -->
<g id="node9" class="node"><title>Node8</title>
<polygon fill="white" stroke="#bfbfbf" points="246.079,-55.5 246.079,-73.5 294.32,-73.5 294.32,-55.5 246.079,-55.5"/>
<text text-anchor="middle" x="270.199" y="-61.5" font-family="Helvetica,sans-Serif" font-size="10.00">cstddef</text>
</g>
<!-- Node6&#45;&gt;Node8 -->
<g id="edge10" class="edge"><title>Node6&#45;&gt;Node8</title>
<path fill="none" stroke="midnightblue" d="M259.23,-110.219C260.977,-103.099 263.558,-92.5775 265.777,-83.5289"/>
<polygon fill="midnightblue" stroke="midnightblue" points="269.242,-84.0955 268.225,-73.5496 262.443,-82.4279 269.242,-84.0955"/>
</g>
<!-- Node7&#45;&gt;Node4 -->
<g id="edge9" class="edge"><title>Node7&#45;&gt;Node4</title>
<path fill="none" stroke="midnightblue" d="M335.24,-55.4504C312.24,-46.6173 275.104,-32.3546 248.838,-22.267"/>
<polygon fill="midnightblue" stroke="midnightblue" points="249.946,-18.9433 239.356,-18.6253 247.436,-25.478 249.946,-18.9433"/>
</g>
<!-- Node9&#45;&gt;Node4 -->
<g id="edge15" class="edge"><title>Node9&#45;&gt;Node4</title>
<path fill="none" stroke="midnightblue" d="M383.051,-110.416C398.571,-97.8785 423.716,-73.288 409.199,-55 389.98,-30.7882 301.929,-18.5348 252.362,-13.4569"/>
<polygon fill="midnightblue" stroke="midnightblue" points="252.702,-9.97352 242.408,-12.4805 252.019,-16.9401 252.702,-9.97352"/>
</g>
<!-- Node9&#45;&gt;Node7 -->
<g id="edge13" class="edge"><title>Node9&#45;&gt;Node7</title>
<path fill="none" stroke="midnightblue" d="M369.699,-110.219C367.526,-103.02 364.304,-92.3458 361.552,-83.2311"/>
<polygon fill="midnightblue" stroke="midnightblue" points="364.87,-82.1113 358.629,-73.5496 358.169,-84.1344 364.87,-82.1113"/>
</g>
<!-- Node9&#45;&gt;Node10 -->
<g id="edge14" class="edge"><title>Node9&#45;&gt;Node10</title>
<path fill="none" stroke="midnightblue" d="M388.45,-110.45C405.812,-101.851 433.563,-88.1048 453.811,-78.0755"/>
<polygon fill="midnightblue" stroke="midnightblue" points="455.388,-81.2003 462.795,-73.6253 452.281,-74.9276 455.388,-81.2003"/>
</g>
</g>
</svg>
