<?xml version="1.0" encoding="UTF-8" standalone="no"?>
<!DOCTYPE svg PUBLIC "-//W3C//DTD SVG 1.1//EN"
 "http://www.w3.org/Graphics/SVG/1.1/DTD/svg11.dtd">
<!-- Generated by graphviz version 2.38.0 (20140413.2041)
 -->
<!-- Title: transport.h Pages: 1 -->
<svg width="1400pt" height="202pt"
 viewBox="0.00 0.00 1399.99 202.00" xmlns="http://www.w3.org/2000/svg" xmlns:xlink="http://www.w3.org/1999/xlink">
<g id="graph0" class="graph" transform="scale(1 1) rotate(0) translate(4 198)">
<title>transport.h</title>
<polygon fill="white" stroke="none" points="-4,4 -4,-198 1395.99,-198 1395.99,4 -4,4"/>
<!-- Node4 -->
<g id="node1" class="node"><title>Node4</title>
<polygon fill="#bfbfbf" stroke="black" points="836.515,-175.5 836.515,-193.5 900.317,-193.5 900.317,-175.5 836.515,-175.5"/>
<text text-anchor="middle" x="868.416" y="-181.5" font-family="Helvetica,sans-Serif" font-size="10.00">transport.h</text>
</g>
<!-- Node5 -->
<g id="node2" class="node"><title>Node5</title>
<g id="a_node2"><a xlink:href="codec_8h.html" target="_top" xlink:title="codec.h">
<polygon fill="white" stroke="black" points="230.904,-115.5 230.904,-133.5 281.928,-133.5 281.928,-115.5 230.904,-115.5"/>
<text text-anchor="middle" x="256.416" y="-121.5" font-family="Helvetica,sans-Serif" font-size="10.00">codec.h</text>
</a>
</g>
</g>
<!-- Node4&#45;&gt;Node5 -->
<g id="edge1" class="edge"><title>Node4&#45;&gt;Node5</title>
<path fill="none" stroke="midnightblue" d="M826.288,-179.507C708.322,-168.328 377.145,-136.942 282.172,-127.941"/>
<polygon fill="midnightblue" stroke="midnightblue" points="826.088,-183.004 836.374,-180.463 826.749,-176.035 826.088,-183.004"/>
</g>
<!-- Node8 -->
<g id="node5" class="node"><title>Node8</title>
<g id="a_node5"><a xlink:href="transport__arbitrator_8h.html" target="_top" xlink:title="transport_arbitrator.h">
<polygon fill="white" stroke="black" points="0,-0.5 0,-18.5 108.832,-18.5 108.832,-0.5 0,-0.5"/>
<text text-anchor="middle" x="54.416" y="-6.5" font-family="Helvetica,sans-Serif" font-size="10.00">transport_arbitrator.h</text>
</a>
</g>
</g>
<!-- Node4&#45;&gt;Node8 -->
<g id="edge9" class="edge"><title>Node4&#45;&gt;Node8</title>
<path fill="none" stroke="midnightblue" d="M825.893,-182.523C700.956,-179.346 336.572,-167.797 221.416,-139 152.902,-121.867 124.112,-126.084 76.416,-74 61.7601,-57.9957 56.7874,-31.7264 55.1638,-18.557"/>
<polygon fill="midnightblue" stroke="midnightblue" points="826.111,-186.029 836.195,-182.78 826.285,-179.032 826.111,-186.029"/>
</g>
<!-- Node12 -->
<g id="node9" class="node"><title>Node12</title>
<g id="a_node9"><a xlink:href="framed__transport_8h.html" target="_top" xlink:title="framed_transport.h">
<polygon fill="white" stroke="black" points="632.172,-115.5 632.172,-133.5 732.66,-133.5 732.66,-115.5 632.172,-115.5"/>
<text text-anchor="middle" x="682.416" y="-121.5" font-family="Helvetica,sans-Serif" font-size="10.00">framed_transport.h</text>
</a>
</g>
</g>
<!-- Node4&#45;&gt;Node12 -->
<g id="edge10" class="edge"><title>Node4&#45;&gt;Node12</title>
<path fill="none" stroke="midnightblue" d="M832.836,-172.405C796.446,-161.058 740.787,-143.702 708.358,-133.589"/>
<polygon fill="midnightblue" stroke="midnightblue" points="831.965,-175.8 842.554,-175.435 834.049,-169.117 831.965,-175.8"/>
</g>
<!-- Node20 -->
<g id="node17" class="node"><title>Node20</title>
<g id="a_node17"><a xlink:href="inter__thread__buffer__transport_8h.html" target="_top" xlink:title="inter_thread_buffer\l_transport.h">
<polygon fill="white" stroke="black" points="750.253,-110.5 750.253,-138.5 850.579,-138.5 850.579,-110.5 750.253,-110.5"/>
<text text-anchor="start" x="758.253" y="-126.5" font-family="Helvetica,sans-Serif" font-size="10.00">inter_thread_buffer</text>
<text text-anchor="middle" x="800.416" y="-116.5" font-family="Helvetica,sans-Serif" font-size="10.00">_transport.h</text>
</a>
</g>
</g>
<!-- Node4&#45;&gt;Node20 -->
<g id="edge18" class="edge"><title>Node4&#45;&gt;Node20</title>
<path fill="none" stroke="midnightblue" d="M851.329,-168.926C840.41,-159.613 826.369,-147.636 815.798,-138.62"/>
<polygon fill="midnightblue" stroke="midnightblue" points="849.081,-171.609 858.961,-175.435 853.624,-166.283 849.081,-171.609"/>
</g>
<!-- Node21 -->
<g id="node18" class="node"><title>Node21</title>
<g id="a_node18"><a xlink:href="rpmsg__lite__rtos__transport_8h.html" target="_top" xlink:title="rpmsg_lite_rtos_transport.h">
<polygon fill="white" stroke="black" points="868.554,-115.5 868.554,-133.5 1006.28,-133.5 1006.28,-115.5 868.554,-115.5"/>
<text text-anchor="middle" x="937.416" y="-121.5" font-family="Helvetica,sans-Serif" font-size="10.00">rpmsg_lite_rtos_transport.h</text>
</a>
</g>
</g>
<!-- Node4&#45;&gt;Node21 -->
<g id="edge19" class="edge"><title>Node4&#45;&gt;Node21</title>
<path fill="none" stroke="midnightblue" d="M885.904,-168.8C899.057,-157.744 916.611,-142.988 927.457,-133.872"/>
<polygon fill="midnightblue" stroke="midnightblue" points="883.413,-166.322 878.01,-175.435 887.917,-171.68 883.413,-166.322"/>
</g>
<!-- Node22 -->
<g id="node19" class="node"><title>Node22</title>
<g id="a_node19"><a xlink:href="rpmsg__lite__transport_8h.html" target="_top" xlink:title="rpmsg_lite_transport.h">
<polygon fill="white" stroke="black" points="1024.67,-115.5 1024.67,-133.5 1140.16,-133.5 1140.16,-115.5 1024.67,-115.5"/>
<text text-anchor="middle" x="1082.42" y="-121.5" font-family="Helvetica,sans-Serif" font-size="10.00">rpmsg_lite_transport.h</text>
</a>
</g>
</g>
<!-- Node4&#45;&gt;Node22 -->
<g id="edge20" class="edge"><title>Node4&#45;&gt;Node22</title>
<path fill="none" stroke="midnightblue" d="M908.018,-172.767C949.849,-161.43 1014.86,-143.81 1052.57,-133.589"/>
<polygon fill="midnightblue" stroke="midnightblue" points="906.908,-169.441 898.172,-175.435 908.739,-176.197 906.908,-169.441"/>
</g>
<!-- Node23 -->
<g id="node20" class="node"><title>Node23</title>
<g id="a_node20"><a xlink:href="rpmsg__rtos__transport_8h.html" target="_top" xlink:title="rpmsg_rtos_transport.h">
<polygon fill="white" stroke="black" points="1157.73,-115.5 1157.73,-133.5 1277.11,-133.5 1277.11,-115.5 1157.73,-115.5"/>
<text text-anchor="middle" x="1217.42" y="-121.5" font-family="Helvetica,sans-Serif" font-size="10.00">rpmsg_rtos_transport.h</text>
</a>
</g>
</g>
<!-- Node4&#45;&gt;Node23 -->
<g id="edge21" class="edge"><title>Node4&#45;&gt;Node23</title>
<path fill="none" stroke="midnightblue" d="M910.587,-177.345C965.629,-169.191 1064.91,-154.075 1149.42,-139 1158.78,-137.33 1168.84,-135.405 1178.27,-133.542"/>
<polygon fill="midnightblue" stroke="midnightblue" points="909.893,-173.909 900.512,-178.833 910.916,-180.834 909.893,-173.909"/>
</g>
<!-- Node24 -->
<g id="node21" class="node"><title>Node24</title>
<g id="a_node21"><a xlink:href="rpmsg__transport_8h.html" target="_top" xlink:title="rpmsg_transport.h">
<polygon fill="white" stroke="black" points="1294.84,-115.5 1294.84,-133.5 1391.99,-133.5 1391.99,-115.5 1294.84,-115.5"/>
<text text-anchor="middle" x="1343.42" y="-121.5" font-family="Helvetica,sans-Serif" font-size="10.00">rpmsg_transport.h</text>
</a>
</g>
</g>
<!-- Node4&#45;&gt;Node24 -->
<g id="edge22" class="edge"><title>Node4&#45;&gt;Node24</title>
<path fill="none" stroke="midnightblue" d="M910.399,-180.796C985.997,-175.535 1149.87,-162.343 1286.42,-139 1295.04,-137.526 1304.3,-135.519 1312.8,-133.503"/>
<polygon fill="midnightblue" stroke="midnightblue" points="910.067,-177.31 900.33,-181.486 910.546,-184.294 910.067,-177.31"/>
</g>
<!-- Node6 -->
<g id="node3" class="node"><title>Node6</title>
<g id="a_node3"><a xlink:href="client__manager_8h.html" target="_top" xlink:title="client_manager.h">
<polygon fill="white" stroke="black" points="106.333,-55.5 106.333,-73.5 198.5,-73.5 198.5,-55.5 106.333,-55.5"/>
<text text-anchor="middle" x="152.416" y="-61.5" font-family="Helvetica,sans-Serif" font-size="10.00">client_manager.h</text>
</a>
</g>
</g>
<!-- Node5&#45;&gt;Node6 -->
<g id="edge2" class="edge"><title>Node5&#45;&gt;Node6</title>
<path fill="none" stroke="midnightblue" d="M233.062,-110.476C212.849,-99.2029 184.241,-83.2486 167.089,-73.6831"/>
<polygon fill="midnightblue" stroke="midnightblue" points="231.517,-113.621 241.955,-115.435 234.926,-107.508 231.517,-113.621"/>
</g>
<!-- Node5&#45;&gt;Node8 -->
<g id="edge5" class="edge"><title>Node5&#45;&gt;Node8</title>
<path fill="none" stroke="midnightblue" d="M220.569,-119.279C186.154,-113.727 134.124,-101.256 97.416,-74 77.5333,-59.237 63.8432,-32.4053 57.8431,-18.8355"/>
<polygon fill="midnightblue" stroke="midnightblue" points="220.239,-122.768 230.647,-120.788 221.276,-115.845 220.239,-122.768"/>
</g>
<!-- Node9 -->
<g id="node6" class="node"><title>Node9</title>
<g id="a_node6"><a xlink:href="basic__codec_8h.html" target="_top" xlink:title="basic_codec.h">
<polygon fill="white" stroke="black" points="216.451,-55.5 216.451,-73.5 296.381,-73.5 296.381,-55.5 216.451,-55.5"/>
<text text-anchor="middle" x="256.416" y="-61.5" font-family="Helvetica,sans-Serif" font-size="10.00">basic_codec.h</text>
</a>
</g>
</g>
<!-- Node5&#45;&gt;Node9 -->
<g id="edge6" class="edge"><title>Node5&#45;&gt;Node9</title>
<path fill="none" stroke="midnightblue" d="M256.416,-105.214C256.416,-94.7141 256.416,-82.0332 256.416,-73.8718"/>
<polygon fill="midnightblue" stroke="midnightblue" points="252.916,-105.435 256.416,-115.435 259.916,-105.435 252.916,-105.435"/>
</g>
<!-- Node10 -->
<g id="node7" class="node"><title>Node10</title>
<g id="a_node7"><a xlink:href="server_8h.html" target="_top" xlink:title="server.h">
<polygon fill="white" stroke="black" points="314.628,-55.5 314.628,-73.5 366.204,-73.5 366.204,-55.5 314.628,-55.5"/>
<text text-anchor="middle" x="340.416" y="-61.5" font-family="Helvetica,sans-Serif" font-size="10.00">server.h</text>
</a>
</g>
</g>
<!-- Node5&#45;&gt;Node10 -->
<g id="edge7" class="edge"><title>Node5&#45;&gt;Node10</title>
<path fill="none" stroke="midnightblue" d="M276.397,-109.704C292.646,-98.4842 315.025,-83.0322 328.565,-73.6831"/>
<polygon fill="midnightblue" stroke="midnightblue" points="274.336,-106.873 268.096,-115.435 278.314,-112.634 274.336,-106.873"/>
</g>
<!-- Node7 -->
<g id="node4" class="node"><title>Node7</title>
<g id="a_node4"><a xlink:href="arbitrated__client__manager_8h.html" target="_top" xlink:title="arbitrated_client_manager.h">
<polygon fill="white" stroke="black" points="126.429,-0.5 126.429,-18.5 266.403,-18.5 266.403,-0.5 126.429,-0.5"/>
<text text-anchor="middle" x="196.416" y="-6.5" font-family="Helvetica,sans-Serif" font-size="10.00">arbitrated_client_manager.h</text>
</a>
</g>
</g>
<!-- Node6&#45;&gt;Node7 -->
<g id="edge3" class="edge"><title>Node6&#45;&gt;Node7</title>
<path fill="none" stroke="midnightblue" d="M165.913,-47.2426C173.81,-37.7302 183.434,-26.1369 189.733,-18.5496"/>
<polygon fill="midnightblue" stroke="midnightblue" points="162.986,-45.289 159.291,-55.2188 168.372,-49.7603 162.986,-45.289"/>
</g>
<!-- Node6&#45;&gt;Node8 -->
<g id="edge4" class="edge"><title>Node6&#45;&gt;Node8</title>
<path fill="none" stroke="midnightblue" d="M128.569,-50.603C110.133,-40.6328 85.1805,-27.1379 69.4402,-18.6253"/>
<polygon fill="midnightblue" stroke="midnightblue" points="127.071,-53.772 137.532,-55.4504 130.401,-47.6147 127.071,-53.772"/>
</g>
<!-- Node11 -->
<g id="node8" class="node"><title>Node11</title>
<g id="a_node8"><a xlink:href="simple__server_8h.html" target="_top" xlink:title="simple_server.h">
<polygon fill="white" stroke="black" points="297.399,-0.5 297.399,-18.5 383.433,-18.5 383.433,-0.5 297.399,-0.5"/>
<text text-anchor="middle" x="340.416" y="-6.5" font-family="Helvetica,sans-Serif" font-size="10.00">simple_server.h</text>
</a>
</g>
</g>
<!-- Node10&#45;&gt;Node11 -->
<g id="edge8" class="edge"><title>Node10&#45;&gt;Node11</title>
<path fill="none" stroke="midnightblue" d="M340.416,-45.1746C340.416,-36.0945 340.416,-25.5949 340.416,-18.5496"/>
<polygon fill="midnightblue" stroke="midnightblue" points="336.916,-45.2187 340.416,-55.2188 343.916,-45.2188 336.916,-45.2187"/>
</g>
<!-- Node13 -->
<g id="node10" class="node"><title>Node13</title>
<g id="a_node10"><a xlink:href="dspi__master__transport_8h.html" target="_top" xlink:title="dspi_master_transport.h">
<polygon fill="white" stroke="black" points="620.5,-55.5 620.5,-73.5 744.332,-73.5 744.332,-55.5 620.5,-55.5"/>
<text text-anchor="middle" x="682.416" y="-61.5" font-family="Helvetica,sans-Serif" font-size="10.00">dspi_master_transport.h</text>
</a>
</g>
</g>
<!-- Node12&#45;&gt;Node13 -->
<g id="edge11" class="edge"><title>Node12&#45;&gt;Node13</title>
<path fill="none" stroke="midnightblue" d="M682.416,-105.214C682.416,-94.7141 682.416,-82.0332 682.416,-73.8718"/>
<polygon fill="midnightblue" stroke="midnightblue" points="678.916,-105.435 682.416,-115.435 685.916,-105.435 678.916,-105.435"/>
</g>
<!-- Node14 -->
<g id="node11" class="node"><title>Node14</title>
<g id="a_node11"><a xlink:href="dspi__slave__transport_8h.html" target="_top" xlink:title="dspi_slave_transport.h">
<polygon fill="white" stroke="black" points="762.108,-55.5 762.108,-73.5 878.724,-73.5 878.724,-55.5 762.108,-55.5"/>
<text text-anchor="middle" x="820.416" y="-61.5" font-family="Helvetica,sans-Serif" font-size="10.00">dspi_slave_transport.h</text>
</a>
</g>
</g>
<!-- Node12&#45;&gt;Node14 -->
<g id="edge12" class="edge"><title>Node12&#45;&gt;Node14</title>
<path fill="none" stroke="midnightblue" d="M710.891,-111.532C737.806,-100.22 777.466,-83.5515 800.946,-73.6831"/>
<polygon fill="midnightblue" stroke="midnightblue" points="709.467,-108.334 701.604,-115.435 712.179,-114.787 709.467,-108.334"/>
</g>
<!-- Node15 -->
<g id="node12" class="node"><title>Node15</title>
<g id="a_node12"><a xlink:href="serial__transport_8h.html" target="_top" xlink:title="serial_transport.h">
<polygon fill="white" stroke="black" points="896.786,-55.5 896.786,-73.5 990.046,-73.5 990.046,-55.5 896.786,-55.5"/>
<text text-anchor="middle" x="943.416" y="-61.5" font-family="Helvetica,sans-Serif" font-size="10.00">serial_transport.h</text>
</a>
</g>
</g>
<!-- Node12&#45;&gt;Node15 -->
<g id="edge13" class="edge"><title>Node12&#45;&gt;Node15</title>
<path fill="none" stroke="midnightblue" d="M727.145,-113.225C731.961,-112.131 736.79,-111.039 741.416,-110 799.053,-97.0575 866.025,-82.3738 906.536,-73.5306"/>
<polygon fill="midnightblue" stroke="midnightblue" points="726.319,-109.824 717.347,-115.458 727.875,-116.649 726.319,-109.824"/>
</g>
<!-- Node16 -->
<g id="node13" class="node"><title>Node16</title>
<g id="a_node13"><a xlink:href="spi__master__transport_8h.html" target="_top" xlink:title="spi_master_transport.h">
<polygon fill="white" stroke="black" points="1008.28,-55.5 1008.28,-73.5 1126.55,-73.5 1126.55,-55.5 1008.28,-55.5"/>
<text text-anchor="middle" x="1067.42" y="-61.5" font-family="Helvetica,sans-Serif" font-size="10.00">spi_master_transport.h</text>
</a>
</g>
</g>
<!-- Node12&#45;&gt;Node16 -->
<g id="edge14" class="edge"><title>Node12&#45;&gt;Node16</title>
<path fill="none" stroke="midnightblue" d="M724.902,-113.303C730.442,-112.113 736.053,-110.977 741.416,-110 791.22,-100.922 928.339,-83.0816 1007.99,-72.9649"/>
<polygon fill="midnightblue" stroke="midnightblue" points="724.083,-109.899 715.077,-115.48 725.597,-116.734 724.083,-109.899"/>
</g>
<!-- Node17 -->
<g id="node14" class="node"><title>Node17</title>
<g id="a_node14"><a xlink:href="spi__slave__transport_8h.html" target="_top" xlink:title="spi_slave_transport.h">
<polygon fill="white" stroke="black" points="1144.89,-55.5 1144.89,-73.5 1255.94,-73.5 1255.94,-55.5 1144.89,-55.5"/>
<text text-anchor="middle" x="1200.42" y="-61.5" font-family="Helvetica,sans-Serif" font-size="10.00">spi_slave_transport.h</text>
</a>
</g>
</g>
<!-- Node12&#45;&gt;Node17 -->
<g id="edge15" class="edge"><title>Node12&#45;&gt;Node17</title>
<path fill="none" stroke="midnightblue" d="M723.626,-113.333C729.571,-112.082 735.633,-110.922 741.416,-110 915.065,-82.3275 960.649,-93.4039 1135.42,-74 1138.47,-73.6609 1141.6,-73.2988 1144.76,-72.9223"/>
<polygon fill="midnightblue" stroke="midnightblue" points="722.814,-109.928 713.802,-115.499 724.321,-116.764 722.814,-109.928"/>
</g>
<!-- Node18 -->
<g id="node15" class="node"><title>Node18</title>
<g id="a_node15"><a xlink:href="tcp__transport_8h.html" target="_top" xlink:title="tcp_transport.h">
<polygon fill="white" stroke="black" points="384.064,-55.5 384.064,-73.5 466.768,-73.5 466.768,-55.5 384.064,-55.5"/>
<text text-anchor="middle" x="425.416" y="-61.5" font-family="Helvetica,sans-Serif" font-size="10.00">tcp_transport.h</text>
</a>
</g>
</g>
<!-- Node12&#45;&gt;Node18 -->
<g id="edge16" class="edge"><title>Node12&#45;&gt;Node18</title>
<path fill="none" stroke="midnightblue" d="M637.008,-113.252C586.754,-101.911 506.815,-83.8701 460.929,-73.5147"/>
<polygon fill="midnightblue" stroke="midnightblue" points="636.426,-116.709 646.951,-115.496 637.967,-109.881 636.426,-116.709"/>
</g>
<!-- Node19 -->
<g id="node16" class="node"><title>Node19</title>
<g id="a_node16"><a xlink:href="uart__cmsis__transport_8h.html" target="_top" xlink:title="uart_cmsis_transport.h">
<polygon fill="white" stroke="black" points="484.562,-55.5 484.562,-73.5 602.271,-73.5 602.271,-55.5 484.562,-55.5"/>
<text text-anchor="middle" x="543.416" y="-61.5" font-family="Helvetica,sans-Serif" font-size="10.00">uart_cmsis_transport.h</text>
</a>
</g>
</g>
<!-- Node12&#45;&gt;Node19 -->
<g id="edge17" class="edge"><title>Node12&#45;&gt;Node19</title>
<path fill="none" stroke="midnightblue" d="M653.735,-111.532C626.624,-100.22 586.677,-83.5515 563.027,-73.6831"/>
<polygon fill="midnightblue" stroke="midnightblue" points="652.512,-114.815 663.089,-115.435 655.208,-108.354 652.512,-114.815"/>
</g>
</g>
</svg>
