<?xml version="1.0" encoding="UTF-8" standalone="no"?>
<!DOCTYPE svg PUBLIC "-//W3C//DTD SVG 1.1//EN"
 "http://www.w3.org/Graphics/SVG/1.1/DTD/svg11.dtd">
<!-- Generated by graphviz version 2.38.0 (20140413.2041)
 -->
<!-- Title: transport_arbitrator.h Pages: 1 -->
<svg width="421pt" height="302pt"
 viewBox="0.00 0.00 420.99 302.00" xmlns="http://www.w3.org/2000/svg" xmlns:xlink="http://www.w3.org/1999/xlink">
<g id="graph0" class="graph" transform="scale(1 1) rotate(0) translate(4 298)">
<title>transport_arbitrator.h</title>
<polygon fill="white" stroke="none" points="-4,4 -4,-298 416.992,-298 416.992,4 -4,4"/>
<!-- Node0 -->
<g id="node1" class="node"><title>Node0</title>
<polygon fill="#bfbfbf" stroke="black" points="167.032,-275.5 167.032,-293.5 275.864,-293.5 275.864,-275.5 167.032,-275.5"/>
<text text-anchor="middle" x="221.448" y="-281.5" font-family="Helvetica,sans-Serif" font-size="10.00">transport_arbitrator.h</text>
</g>
<!-- Node1 -->
<g id="node2" class="node"><title>Node1</title>
<g id="a_node2"><a xlink:href="erpc__threading_8h.html" target="_top" xlink:title="erpc_threading.h">
<polygon fill="white" stroke="black" points="297.921,-220.5 297.921,-238.5 388.975,-238.5 388.975,-220.5 297.921,-220.5"/>
<text text-anchor="middle" x="343.448" y="-226.5" font-family="Helvetica,sans-Serif" font-size="10.00">erpc_threading.h</text>
</a>
</g>
</g>
<!-- Node0&#45;&gt;Node1 -->
<g id="edge1" class="edge"><title>Node0&#45;&gt;Node1</title>
<path fill="none" stroke="midnightblue" d="M239.977,-275.45C260.041,-266.734 292.276,-252.731 315.436,-242.669"/>
<polygon fill="midnightblue" stroke="midnightblue" points="316.967,-245.82 324.745,-238.625 314.178,-239.4 316.967,-245.82"/>
</g>
<!-- Node5 -->
<g id="node6" class="node"><title>Node5</title>
<g id="a_node6"><a xlink:href="client__manager_8h.html" target="_top" xlink:title="client_manager.h">
<polygon fill="white" stroke="black" points="138.365,-220.5 138.365,-238.5 230.532,-238.5 230.532,-220.5 138.365,-220.5"/>
<text text-anchor="middle" x="184.448" y="-226.5" font-family="Helvetica,sans-Serif" font-size="10.00">client_manager.h</text>
</a>
</g>
</g>
<!-- Node0&#45;&gt;Node5 -->
<g id="edge5" class="edge"><title>Node0&#45;&gt;Node5</title>
<path fill="none" stroke="midnightblue" d="M215.667,-275.219C210.368,-267.629 202.372,-256.175 195.799,-246.76"/>
<polygon fill="midnightblue" stroke="midnightblue" points="198.662,-244.746 190.068,-238.55 192.922,-248.753 198.662,-244.746"/>
</g>
<!-- Node6 -->
<g id="node7" class="node"><title>Node6</title>
<g id="a_node7"><a xlink:href="codec_8h.html" target="_top" xlink:title="codec.h">
<polygon fill="white" stroke="black" points="134.936,-165.5 134.936,-183.5 185.96,-183.5 185.96,-165.5 134.936,-165.5"/>
<text text-anchor="middle" x="160.448" y="-171.5" font-family="Helvetica,sans-Serif" font-size="10.00">codec.h</text>
</a>
</g>
</g>
<!-- Node0&#45;&gt;Node6 -->
<g id="edge19" class="edge"><title>Node0&#45;&gt;Node6</title>
<path fill="none" stroke="midnightblue" d="M183.559,-275.38C163.798,-269.015 141.326,-257.939 129.448,-239 119.624,-223.336 132.113,-204.105 144.047,-190.938"/>
<polygon fill="midnightblue" stroke="midnightblue" points="146.721,-193.209 151.201,-183.609 141.711,-188.32 146.721,-193.209"/>
</g>
<!-- Node10 -->
<g id="node11" class="node"><title>Node10</title>
<g id="a_node11"><a xlink:href="transport_8h.html" target="_top" xlink:title="transport.h">
<polygon fill="white" stroke="black" points="226.547,-110.5 226.547,-128.5 290.349,-128.5 290.349,-110.5 226.547,-110.5"/>
<text text-anchor="middle" x="258.448" y="-116.5" font-family="Helvetica,sans-Serif" font-size="10.00">transport.h</text>
</a>
</g>
</g>
<!-- Node0&#45;&gt;Node10 -->
<g id="edge20" class="edge"><title>Node0&#45;&gt;Node10</title>
<path fill="none" stroke="midnightblue" d="M225.33,-275.49C229.425,-266.726 235.78,-252.166 239.448,-239 249.11,-204.316 254.385,-162.462 256.794,-138.922"/>
<polygon fill="midnightblue" stroke="midnightblue" points="260.305,-138.97 257.776,-128.681 253.337,-138.301 260.305,-138.97"/>
</g>
<!-- Node2 -->
<g id="node3" class="node"><title>Node2</title>
<g id="a_node3"><a xlink:href="erpc__config__internal_8h_source.html" target="_top" xlink:title="erpc_config_internal.h">
<polygon fill="white" stroke="black" points="286.249,-165.5 286.249,-183.5 400.647,-183.5 400.647,-165.5 286.249,-165.5"/>
<text text-anchor="middle" x="343.448" y="-171.5" font-family="Helvetica,sans-Serif" font-size="10.00">erpc_config_internal.h</text>
</a>
</g>
</g>
<!-- Node1&#45;&gt;Node2 -->
<g id="edge2" class="edge"><title>Node1&#45;&gt;Node2</title>
<path fill="none" stroke="midnightblue" d="M343.448,-220.219C343.448,-213.177 343.448,-202.808 343.448,-193.828"/>
<polygon fill="midnightblue" stroke="midnightblue" points="346.948,-193.55 343.448,-183.55 339.948,-193.55 346.948,-193.55"/>
</g>
<!-- Node4 -->
<g id="node5" class="node"><title>Node4</title>
<polygon fill="white" stroke="#bfbfbf" points="143.327,-0.5 143.327,-18.5 191.569,-18.5 191.569,-0.5 143.327,-0.5"/>
<text text-anchor="middle" x="167.448" y="-6.5" font-family="Helvetica,sans-Serif" font-size="10.00">stdint.h</text>
</g>
<!-- Node1&#45;&gt;Node4 -->
<g id="edge4" class="edge"><title>Node1&#45;&gt;Node4</title>
<path fill="none" stroke="midnightblue" d="M364.927,-220.489C380.389,-213.454 400.104,-201.57 409.448,-184 420.141,-163.894 401.992,-121.066 393.448,-110 345.993,-48.5434 252.564,-24.2427 201.966,-15.2847"/>
<polygon fill="midnightblue" stroke="midnightblue" points="202.29,-11.7906 191.851,-13.5982 201.139,-18.6952 202.29,-11.7906"/>
</g>
<!-- Node3 -->
<g id="node4" class="node"><title>Node3</title>
<g id="a_node4"><a xlink:href="erpc__config_8h.html" target="_top" xlink:title="erpc_config.h">
<polygon fill="white" stroke="black" points="308.429,-110.5 308.429,-128.5 384.468,-128.5 384.468,-110.5 308.429,-110.5"/>
<text text-anchor="middle" x="346.448" y="-116.5" font-family="Helvetica,sans-Serif" font-size="10.00">erpc_config.h</text>
</a>
</g>
</g>
<!-- Node2&#45;&gt;Node3 -->
<g id="edge3" class="edge"><title>Node2&#45;&gt;Node3</title>
<path fill="none" stroke="midnightblue" d="M343.917,-165.219C344.315,-158.177 344.902,-147.808 345.411,-138.828"/>
<polygon fill="midnightblue" stroke="midnightblue" points="348.922,-138.731 345.992,-128.55 341.933,-138.336 348.922,-138.731"/>
</g>
<!-- Node5&#45;&gt;Node6 -->
<g id="edge6" class="edge"><title>Node5&#45;&gt;Node6</title>
<path fill="none" stroke="midnightblue" d="M180.698,-220.219C177.403,-212.942 172.499,-202.113 168.343,-192.934"/>
<polygon fill="midnightblue" stroke="midnightblue" points="171.407,-191.215 164.093,-183.55 165.03,-194.103 171.407,-191.215"/>
</g>
<!-- Node6&#45;&gt;Node4 -->
<g id="edge18" class="edge"><title>Node6&#45;&gt;Node4</title>
<path fill="none" stroke="midnightblue" d="M134.771,-171.772C104.957,-168.397 56.2067,-158.431 27.4481,-129 3.86355,-104.864 -9.90171,-81.9194 10.4481,-55 25.2134,-35.4679 91.6154,-22.0246 133.192,-15.3524"/>
<polygon fill="midnightblue" stroke="midnightblue" points="133.836,-18.7944 143.181,-13.8024 132.763,-11.8772 133.836,-18.7944"/>
</g>
<!-- Node7 -->
<g id="node8" class="node"><title>Node7</title>
<g id="a_node8"><a xlink:href="erpc__common_8h_source.html" target="_top" xlink:title="erpc_common.h">
<polygon fill="white" stroke="black" points="123.598,-55.5 123.598,-73.5 211.298,-73.5 211.298,-55.5 123.598,-55.5"/>
<text text-anchor="middle" x="167.448" y="-61.5" font-family="Helvetica,sans-Serif" font-size="10.00">erpc_common.h</text>
</a>
</g>
</g>
<!-- Node6&#45;&gt;Node7 -->
<g id="edge7" class="edge"><title>Node6&#45;&gt;Node7</title>
<path fill="none" stroke="midnightblue" d="M160.974,-165.382C162.089,-148.182 164.713,-107.698 166.256,-83.8866"/>
<polygon fill="midnightblue" stroke="midnightblue" points="169.762,-83.9172 166.916,-73.7118 162.776,-83.4644 169.762,-83.9172"/>
</g>
<!-- Node8 -->
<g id="node9" class="node"><title>Node8</title>
<g id="a_node9"><a xlink:href="message__buffer_8h.html" target="_top" xlink:title="message_buffer.h">
<polygon fill="white" stroke="black" points="36.785,-110.5 36.785,-128.5 132.111,-128.5 132.111,-110.5 36.785,-110.5"/>
<text text-anchor="middle" x="84.4481" y="-116.5" font-family="Helvetica,sans-Serif" font-size="10.00">message_buffer.h</text>
</a>
</g>
</g>
<!-- Node6&#45;&gt;Node8 -->
<g id="edge9" class="edge"><title>Node6&#45;&gt;Node8</title>
<path fill="none" stroke="midnightblue" d="M148.905,-165.45C137.187,-157.279 118.806,-144.46 104.666,-134.6"/>
<polygon fill="midnightblue" stroke="midnightblue" points="106.304,-131.475 96.0995,-128.625 102.3,-137.216 106.304,-131.475"/>
</g>
<!-- Node6&#45;&gt;Node10 -->
<g id="edge13" class="edge"><title>Node6&#45;&gt;Node10</title>
<path fill="none" stroke="midnightblue" d="M175.332,-165.45C191.018,-156.968 215.962,-143.477 234.436,-133.486"/>
<polygon fill="midnightblue" stroke="midnightblue" points="236.293,-136.461 243.424,-128.625 232.963,-130.304 236.293,-136.461"/>
</g>
<!-- Node11 -->
<g id="node12" class="node"><title>Node11</title>
<polygon fill="white" stroke="#bfbfbf" points="229.722,-55.5 229.722,-73.5 275.175,-73.5 275.175,-55.5 229.722,-55.5"/>
<text text-anchor="middle" x="252.448" y="-61.5" font-family="Helvetica,sans-Serif" font-size="10.00">cstring</text>
</g>
<!-- Node6&#45;&gt;Node11 -->
<g id="edge17" class="edge"><title>Node6&#45;&gt;Node11</title>
<path fill="none" stroke="midnightblue" d="M167.363,-165.382C182.548,-147.557 219.036,-104.723 238.94,-81.357"/>
<polygon fill="midnightblue" stroke="midnightblue" points="241.633,-83.5939 245.453,-73.7118 236.304,-79.0546 241.633,-83.5939"/>
</g>
<!-- Node7&#45;&gt;Node4 -->
<g id="edge8" class="edge"><title>Node7&#45;&gt;Node4</title>
<path fill="none" stroke="midnightblue" d="M167.448,-55.2188C167.448,-48.1769 167.448,-37.8083 167.448,-28.8277"/>
<polygon fill="midnightblue" stroke="midnightblue" points="170.948,-28.5495 167.448,-18.5496 163.948,-28.5496 170.948,-28.5495"/>
</g>
<!-- Node8&#45;&gt;Node4 -->
<g id="edge12" class="edge"><title>Node8&#45;&gt;Node4</title>
<path fill="none" stroke="midnightblue" d="M86.9815,-110.473C91.2442,-97.7977 100.749,-72.7663 114.448,-55 123.389,-43.4041 135.83,-32.7634 146.411,-24.7967"/>
<polygon fill="midnightblue" stroke="midnightblue" points="148.691,-27.4669 154.744,-18.7712 144.589,-21.7944 148.691,-27.4669"/>
</g>
<!-- Node8&#45;&gt;Node7 -->
<g id="edge10" class="edge"><title>Node8&#45;&gt;Node7</title>
<path fill="none" stroke="midnightblue" d="M97.054,-110.45C110.095,-102.123 130.693,-88.9704 146.245,-79.0394"/>
<polygon fill="midnightblue" stroke="midnightblue" points="148.179,-81.9571 154.724,-73.6253 144.412,-76.0574 148.179,-81.9571"/>
</g>
<!-- Node9 -->
<g id="node10" class="node"><title>Node9</title>
<polygon fill="white" stroke="#bfbfbf" points="19.3275,-55.5 19.3275,-73.5 67.5687,-73.5 67.5687,-55.5 19.3275,-55.5"/>
<text text-anchor="middle" x="43.4481" y="-61.5" font-family="Helvetica,sans-Serif" font-size="10.00">cstddef</text>
</g>
<!-- Node8&#45;&gt;Node9 -->
<g id="edge11" class="edge"><title>Node8&#45;&gt;Node9</title>
<path fill="none" stroke="midnightblue" d="M78.0418,-110.219C72.1101,-102.551 63.1271,-90.9387 55.8016,-81.4691"/>
<polygon fill="midnightblue" stroke="midnightblue" points="58.5622,-79.3176 49.6751,-73.5496 53.0255,-83.6007 58.5622,-79.3176"/>
</g>
<!-- Node10&#45;&gt;Node4 -->
<g id="edge16" class="edge"><title>Node10&#45;&gt;Node4</title>
<path fill="none" stroke="midnightblue" d="M266.795,-110.124C278.422,-97.4139 296.756,-72.849 284.448,-55 265.961,-28.1893 229.026,-17.5187 201.576,-13.2792"/>
<polygon fill="midnightblue" stroke="midnightblue" points="201.952,-9.79851 191.578,-11.949 201.029,-16.7374 201.952,-9.79851"/>
</g>
<!-- Node10&#45;&gt;Node7 -->
<g id="edge14" class="edge"><title>Node10&#45;&gt;Node7</title>
<path fill="none" stroke="midnightblue" d="M244.627,-110.45C230.196,-102.045 207.323,-88.7241 190.218,-78.7618"/>
<polygon fill="midnightblue" stroke="midnightblue" points="191.802,-75.6337 181.399,-73.6253 188.279,-81.6826 191.802,-75.6337"/>
</g>
<!-- Node10&#45;&gt;Node11 -->
<g id="edge15" class="edge"><title>Node10&#45;&gt;Node11</title>
<path fill="none" stroke="midnightblue" d="M257.511,-110.219C256.705,-103.099 255.513,-92.5775 254.489,-83.5289"/>
<polygon fill="midnightblue" stroke="midnightblue" points="257.962,-83.0923 253.359,-73.5496 251.007,-83.8798 257.962,-83.0923"/>
</g>
</g>
</svg>
