<?xml version="1.0" encoding="UTF-8" standalone="no"?>
<!DOCTYPE svg PUBLIC "-//W3C//DTD SVG 1.1//EN"
 "http://www.w3.org/Graphics/SVG/1.1/DTD/svg11.dtd">
<!-- Generated by graphviz version 2.38.0 (20140413.2041)
 -->
<!-- Title: uart_cmsis_transport.h Pages: 1 -->
<svg width="510pt" height="247pt"
 viewBox="0.00 0.00 509.93 247.00" xmlns="http://www.w3.org/2000/svg" xmlns:xlink="http://www.w3.org/1999/xlink">
<g id="graph0" class="graph" transform="scale(1 1) rotate(0) translate(4 243)">
<title>uart_cmsis_transport.h</title>
<polygon fill="white" stroke="none" points="-4,4 -4,-243 505.926,-243 505.926,4 -4,4"/>
<!-- Node0 -->
<g id="node1" class="node"><title>Node0</title>
<polygon fill="#bfbfbf" stroke="black" points="264.345,-220.5 264.345,-238.5 382.054,-238.5 382.054,-220.5 264.345,-220.5"/>
<text text-anchor="middle" x="323.199" y="-226.5" font-family="Helvetica,sans-Serif" font-size="10.00">uart_cmsis_transport.h</text>
</g>
<!-- Node1 -->
<g id="node2" class="node"><title>Node1</title>
<polygon fill="white" stroke="#bfbfbf" points="112.612,-165.5 112.612,-183.5 201.786,-183.5 201.786,-165.5 112.612,-165.5"/>
<text text-anchor="middle" x="157.199" y="-171.5" font-family="Helvetica,sans-Serif" font-size="10.00">Driver_USART.h</text>
</g>
<!-- Node0&#45;&gt;Node1 -->
<g id="edge1" class="edge"><title>Node0&#45;&gt;Node1</title>
<path fill="none" stroke="midnightblue" d="M297.987,-220.45C269.752,-211.436 223.804,-196.765 192.121,-186.65"/>
<polygon fill="midnightblue" stroke="midnightblue" points="192.967,-183.246 182.376,-183.538 190.837,-189.914 192.967,-183.246"/>
</g>
<!-- Node2 -->
<g id="node3" class="node"><title>Node2</title>
<g id="a_node3"><a xlink:href="framed__transport_8h.html" target="_top" xlink:title="framed_transport.h">
<polygon fill="white" stroke="black" points="219.956,-165.5 219.956,-183.5 320.443,-183.5 320.443,-165.5 219.956,-165.5"/>
<text text-anchor="middle" x="270.199" y="-171.5" font-family="Helvetica,sans-Serif" font-size="10.00">framed_transport.h</text>
</a>
</g>
</g>
<!-- Node0&#45;&gt;Node2 -->
<g id="edge2" class="edge"><title>Node0&#45;&gt;Node2</title>
<path fill="none" stroke="midnightblue" d="M314.918,-220.219C307.094,-212.394 295.162,-200.463 285.591,-190.892"/>
<polygon fill="midnightblue" stroke="midnightblue" points="287.795,-188.146 278.249,-183.55 282.845,-193.096 287.795,-188.146"/>
</g>
<!-- Node12 -->
<g id="node13" class="node"><title>Node12</title>
<polygon fill="white" stroke="#bfbfbf" points="338.076,-165.5 338.076,-183.5 416.322,-183.5 416.322,-165.5 338.076,-165.5"/>
<text text-anchor="middle" x="377.199" y="-171.5" font-family="Helvetica,sans-Serif" font-size="10.00">fsl_common.h</text>
</g>
<!-- Node0&#45;&gt;Node12 -->
<g id="edge18" class="edge"><title>Node0&#45;&gt;Node12</title>
<path fill="none" stroke="midnightblue" d="M331.637,-220.219C339.688,-212.316 352.009,-200.224 361.809,-190.606"/>
<polygon fill="midnightblue" stroke="midnightblue" points="364.313,-193.052 368.998,-183.55 359.409,-188.056 364.313,-193.052"/>
</g>
<!-- Node13 -->
<g id="node14" class="node"><title>Node13</title>
<polygon fill="white" stroke="#bfbfbf" points="434.357,-165.5 434.357,-183.5 482.042,-183.5 482.042,-165.5 434.357,-165.5"/>
<text text-anchor="middle" x="458.199" y="-171.5" font-family="Helvetica,sans-Serif" font-size="10.00">stdlib.h</text>
</g>
<!-- Node0&#45;&gt;Node13 -->
<g id="edge19" class="edge"><title>Node0&#45;&gt;Node13</title>
<path fill="none" stroke="midnightblue" d="M343.703,-220.45C366.103,-211.656 402.212,-197.48 427.886,-187.401"/>
<polygon fill="midnightblue" stroke="midnightblue" points="429.473,-190.538 437.503,-183.625 426.915,-184.022 429.473,-190.538"/>
</g>
<!-- Node3 -->
<g id="node4" class="node"><title>Node3</title>
<g id="a_node4"><a xlink:href="erpc__threading_8h.html" target="_top" xlink:title="erpc_threading.h">
<polygon fill="white" stroke="black" points="60.6724,-110.5 60.6724,-128.5 151.726,-128.5 151.726,-110.5 60.6724,-110.5"/>
<text text-anchor="middle" x="106.199" y="-116.5" font-family="Helvetica,sans-Serif" font-size="10.00">erpc_threading.h</text>
</a>
</g>
</g>
<!-- Node2&#45;&gt;Node3 -->
<g id="edge3" class="edge"><title>Node2&#45;&gt;Node3</title>
<path fill="none" stroke="midnightblue" d="M245.291,-165.45C217.396,-156.436 172.001,-141.765 140.7,-131.65"/>
<polygon fill="midnightblue" stroke="midnightblue" points="141.664,-128.283 131.072,-128.538 139.512,-134.944 141.664,-128.283"/>
</g>
<!-- Node6 -->
<g id="node7" class="node"><title>Node6</title>
<polygon fill="white" stroke="#bfbfbf" points="194.079,-0.5 194.079,-18.5 242.32,-18.5 242.32,-0.5 194.079,-0.5"/>
<text text-anchor="middle" x="218.199" y="-6.5" font-family="Helvetica,sans-Serif" font-size="10.00">stdint.h</text>
</g>
<!-- Node2&#45;&gt;Node6 -->
<g id="edge17" class="edge"><title>Node2&#45;&gt;Node6</title>
<path fill="none" stroke="midnightblue" d="M252.949,-165.487C239.366,-158.128 221.402,-145.811 213.199,-129 197.297,-96.4098 205.64,-52.5796 212.396,-28.3971"/>
<polygon fill="midnightblue" stroke="midnightblue" points="215.842,-29.0937 215.384,-18.5087 209.141,-27.0689 215.842,-29.0937"/>
</g>
<!-- Node7 -->
<g id="node8" class="node"><title>Node7</title>
<g id="a_node8"><a xlink:href="message__buffer_8h.html" target="_top" xlink:title="message_buffer.h">
<polygon fill="white" stroke="black" points="222.536,-110.5 222.536,-128.5 317.862,-128.5 317.862,-110.5 222.536,-110.5"/>
<text text-anchor="middle" x="270.199" y="-116.5" font-family="Helvetica,sans-Serif" font-size="10.00">message_buffer.h</text>
</a>
</g>
</g>
<!-- Node2&#45;&gt;Node7 -->
<g id="edge7" class="edge"><title>Node2&#45;&gt;Node7</title>
<path fill="none" stroke="midnightblue" d="M270.199,-165.219C270.199,-158.177 270.199,-147.808 270.199,-138.828"/>
<polygon fill="midnightblue" stroke="midnightblue" points="273.699,-138.55 270.199,-128.55 266.699,-138.55 273.699,-138.55"/>
</g>
<!-- Node10 -->
<g id="node11" class="node"><title>Node10</title>
<g id="a_node11"><a xlink:href="transport_8h.html" target="_top" xlink:title="transport.h">
<polygon fill="white" stroke="black" points="349.298,-110.5 349.298,-128.5 413.101,-128.5 413.101,-110.5 349.298,-110.5"/>
<text text-anchor="middle" x="381.199" y="-116.5" font-family="Helvetica,sans-Serif" font-size="10.00">transport.h</text>
</a>
</g>
</g>
<!-- Node2&#45;&gt;Node10 -->
<g id="edge12" class="edge"><title>Node2&#45;&gt;Node10</title>
<path fill="none" stroke="midnightblue" d="M287.058,-165.45C305.15,-156.812 334.118,-142.98 355.147,-132.94"/>
<polygon fill="midnightblue" stroke="midnightblue" points="356.666,-136.093 364.182,-128.625 353.65,-129.776 356.666,-136.093"/>
</g>
<!-- Node11 -->
<g id="node12" class="node"><title>Node11</title>
<polygon fill="white" stroke="#bfbfbf" points="456.473,-55.5 456.473,-73.5 501.926,-73.5 501.926,-55.5 456.473,-55.5"/>
<text text-anchor="middle" x="479.199" y="-61.5" font-family="Helvetica,sans-Serif" font-size="10.00">cstring</text>
</g>
<!-- Node2&#45;&gt;Node11 -->
<g id="edge16" class="edge"><title>Node2&#45;&gt;Node11</title>
<path fill="none" stroke="midnightblue" d="M320.669,-165.979C351.736,-159.654 391.371,-148.416 422.199,-129 441.325,-116.954 457.901,-96.7104 468.172,-82.3197"/>
<polygon fill="midnightblue" stroke="midnightblue" points="471.208,-84.0805 473.974,-73.8531 465.434,-80.1231 471.208,-84.0805"/>
</g>
<!-- Node4 -->
<g id="node5" class="node"><title>Node4</title>
<g id="a_node5"><a xlink:href="erpc__config__internal_8h_source.html" target="_top" xlink:title="erpc_config_internal.h">
<polygon fill="white" stroke="black" points="0,-55.5 0,-73.5 114.398,-73.5 114.398,-55.5 0,-55.5"/>
<text text-anchor="middle" x="57.1992" y="-61.5" font-family="Helvetica,sans-Serif" font-size="10.00">erpc_config_internal.h</text>
</a>
</g>
</g>
<!-- Node3&#45;&gt;Node4 -->
<g id="edge4" class="edge"><title>Node3&#45;&gt;Node4</title>
<path fill="none" stroke="midnightblue" d="M98.543,-110.219C91.3815,-102.473 80.4985,-90.7013 71.6957,-81.1799"/>
<polygon fill="midnightblue" stroke="midnightblue" points="73.9998,-78.5163 64.6413,-73.5496 68.8599,-83.2683 73.9998,-78.5163"/>
</g>
<!-- Node3&#45;&gt;Node6 -->
<g id="edge6" class="edge"><title>Node3&#45;&gt;Node6</title>
<path fill="none" stroke="midnightblue" d="M113.329,-110.421C124.314,-98.0983 146.206,-74.0328 166.199,-55 177.092,-44.6312 189.923,-33.6382 200.115,-25.1725"/>
<polygon fill="midnightblue" stroke="midnightblue" points="202.454,-27.7804 207.954,-18.725 198.008,-22.374 202.454,-27.7804"/>
</g>
<!-- Node5 -->
<g id="node6" class="node"><title>Node5</title>
<g id="a_node6"><a xlink:href="erpc__config_8h.html" target="_top" xlink:title="erpc_config.h">
<polygon fill="white" stroke="black" points="19.1797,-0.5 19.1797,-18.5 95.2188,-18.5 95.2188,-0.5 19.1797,-0.5"/>
<text text-anchor="middle" x="57.1992" y="-6.5" font-family="Helvetica,sans-Serif" font-size="10.00">erpc_config.h</text>
</a>
</g>
</g>
<!-- Node4&#45;&gt;Node5 -->
<g id="edge5" class="edge"><title>Node4&#45;&gt;Node5</title>
<path fill="none" stroke="midnightblue" d="M57.1992,-55.2188C57.1992,-48.1769 57.1992,-37.8083 57.1992,-28.8277"/>
<polygon fill="midnightblue" stroke="midnightblue" points="60.6993,-28.5495 57.1992,-18.5496 53.6993,-28.5496 60.6993,-28.5495"/>
</g>
<!-- Node7&#45;&gt;Node6 -->
<g id="edge11" class="edge"><title>Node7&#45;&gt;Node6</title>
<path fill="none" stroke="midnightblue" d="M262.666,-110.225C255.259,-101.702 244.092,-87.7592 237.199,-74 229.944,-59.5174 224.923,-41.7624 221.873,-28.7126"/>
<polygon fill="midnightblue" stroke="midnightblue" points="225.232,-27.6879 219.693,-18.6564 218.391,-29.1709 225.232,-27.6879"/>
</g>
<!-- Node8 -->
<g id="node9" class="node"><title>Node8</title>
<g id="a_node9"><a xlink:href="erpc__common_8h_source.html" target="_top" xlink:title="erpc_common.h">
<polygon fill="white" stroke="black" points="312.35,-55.5 312.35,-73.5 400.049,-73.5 400.049,-55.5 312.35,-55.5"/>
<text text-anchor="middle" x="356.199" y="-61.5" font-family="Helvetica,sans-Serif" font-size="10.00">erpc_common.h</text>
</a>
</g>
</g>
<!-- Node7&#45;&gt;Node8 -->
<g id="edge8" class="edge"><title>Node7&#45;&gt;Node8</title>
<path fill="none" stroke="midnightblue" d="M283.261,-110.45C296.773,-102.123 318.115,-88.9704 334.23,-79.0394"/>
<polygon fill="midnightblue" stroke="midnightblue" points="336.338,-81.8515 343.015,-73.6253 332.665,-75.8922 336.338,-81.8515"/>
</g>
<!-- Node9 -->
<g id="node10" class="node"><title>Node9</title>
<polygon fill="white" stroke="#bfbfbf" points="246.079,-55.5 246.079,-73.5 294.32,-73.5 294.32,-55.5 246.079,-55.5"/>
<text text-anchor="middle" x="270.199" y="-61.5" font-family="Helvetica,sans-Serif" font-size="10.00">cstddef</text>
</g>
<!-- Node7&#45;&gt;Node9 -->
<g id="edge10" class="edge"><title>Node7&#45;&gt;Node9</title>
<path fill="none" stroke="midnightblue" d="M270.199,-110.219C270.199,-103.177 270.199,-92.8083 270.199,-83.8277"/>
<polygon fill="midnightblue" stroke="midnightblue" points="273.699,-83.5495 270.199,-73.5496 266.699,-83.5496 273.699,-83.5495"/>
</g>
<!-- Node8&#45;&gt;Node6 -->
<g id="edge9" class="edge"><title>Node8&#45;&gt;Node6</title>
<path fill="none" stroke="midnightblue" d="M335.24,-55.4504C312.24,-46.6173 275.104,-32.3546 248.838,-22.267"/>
<polygon fill="midnightblue" stroke="midnightblue" points="249.946,-18.9433 239.356,-18.6253 247.436,-25.478 249.946,-18.9433"/>
</g>
<!-- Node10&#45;&gt;Node6 -->
<g id="edge15" class="edge"><title>Node10&#45;&gt;Node6</title>
<path fill="none" stroke="midnightblue" d="M389.869,-110.377C402.487,-97.5712 422.982,-72.3636 409.199,-55 389.98,-30.7882 301.929,-18.5348 252.362,-13.4569"/>
<polygon fill="midnightblue" stroke="midnightblue" points="252.702,-9.97352 242.408,-12.4805 252.019,-16.9401 252.702,-9.97352"/>
</g>
<!-- Node10&#45;&gt;Node8 -->
<g id="edge13" class="edge"><title>Node10&#45;&gt;Node8</title>
<path fill="none" stroke="midnightblue" d="M377.293,-110.219C373.824,-102.864 368.643,-91.8801 364.284,-82.639"/>
<polygon fill="midnightblue" stroke="midnightblue" points="367.428,-81.1007 359.996,-73.5496 361.097,-84.0871 367.428,-81.1007"/>
</g>
<!-- Node10&#45;&gt;Node11 -->
<g id="edge14" class="edge"><title>Node10&#45;&gt;Node11</title>
<path fill="none" stroke="midnightblue" d="M396.083,-110.45C411.769,-101.968 436.713,-88.477 455.187,-78.486"/>
<polygon fill="midnightblue" stroke="midnightblue" points="457.044,-81.461 464.175,-73.6253 453.714,-75.3038 457.044,-81.461"/>
</g>
</g>
</svg>
